<?xml version="1.0" encoding="UTF-8" standalone="no"?>
<svg
   xmlns:dc="http://purl.org/dc/elements/1.1/"
   xmlns:cc="http://creativecommons.org/ns#"
   xmlns:rdf="http://www.w3.org/1999/02/22-rdf-syntax-ns#"
   xmlns:svg="http://www.w3.org/2000/svg"
   xmlns="http://www.w3.org/2000/svg"
   id="svg860"
   version="1.1"
   viewBox="0 0 210 297"
   height="297mm"
   width="210mm">
  <title
     id="title1441">B is for Bird</title>
  <defs
     id="defs854" />
  <metadata
     id="metadata857">
    <rdf:RDF>
      <cc:Work
         rdf:about="">
        <dc:format>image/svg+xml</dc:format>
        <dc:type
           rdf:resource="http://purl.org/dc/dcmitype/StillImage" />
        <dc:title>B is for Bird</dc:title>
        <dc:subject>
          <rdf:Bag>
            <rdf:li>csk</rdf:li>
            <rdf:li>sizing-cover</rdf:li>
            <rdf:li>letters</rdf:li>
            <rdf:li>b</rdf:li>
          </rdf:Bag>
        </dc:subject>
        <dc:source>http://www.supercoloring.com/coloring-pages/bird-perching-on-a-tree-branch</dc:source>
        <dc:creator>
          <cc:Agent>
            <dc:title>Lena London</dc:title>
          </cc:Agent>
        </dc:creator>
        <dc:date>2020-04-10</dc:date>
        <cc:license
           rdf:resource="http://creativecommons.org/licenses/by-sa/4.0/" />
      </cc:Work>
      <cc:License
         rdf:about="http://creativecommons.org/licenses/by-sa/4.0/">
        <cc:permits
           rdf:resource="http://creativecommons.org/ns#Reproduction" />
        <cc:permits
           rdf:resource="http://creativecommons.org/ns#Distribution" />
        <cc:requires
           rdf:resource="http://creativecommons.org/ns#Notice" />
        <cc:requires
           rdf:resource="http://creativecommons.org/ns#Attribution" />
        <cc:permits
           rdf:resource="http://creativecommons.org/ns#DerivativeWorks" />
        <cc:requires
           rdf:resource="http://creativecommons.org/ns#ShareAlike" />
      </cc:License>
    </rdf:RDF>
  </metadata>
  <g
     id="layer1">
    <path
       id="path1430"
       d="m 89.026717,73.437565 c -0.18841,0.0033 -0.392496,0.0202 -0.585146,0.02765 -11.919445,0.207979 -24.055123,4.980936 -28.643423,11.544049 -0.995374,1.423787 -2.303151,3.824965 -2.906348,5.336144 -1.016549,2.546709 -1.372419,2.831057 -4.870612,3.892042 -8.279948,2.51134 -14.970195,6.95123 -17.151575,11.38177 -1.505415,3.05761 -1.073682,3.43283 4.04509,3.52096 2.315345,0.0399 6.131995,0.84559 10.028962,2.11584 l 5.821181,1.89696 c 0.08658,0.0596 0.184153,0.12178 0.239164,0.1761 0.09726,0.0961 0.194055,0.16726 0.290142,0.22644 l 0.09105,0.23146 1.311125,4.19519 c 0.723617,2.31502 1.15891,4.35288 1.336638,7.00166 0.04863,1.80999 0.03508,4.16866 -0.02551,7.21047 -0.117198,2.48141 -0.323292,5.44921 -0.617931,9.10742 l -0.02551,-0.60883 0.01276,0.76859 c -0.01276,0.16615 -0.02136,0.29394 -0.03524,0.46293 -1.440347,17.67404 0.850733,36.02241 5.58447,44.73583 5.274223,9.70837 12.519804,19.07123 19.260299,24.88694 l 4.470001,3.85682 -3.354319,0.50316 c -11.588943,1.73974 -19.146686,3.28876 -25.420206,5.21036 -4.707476,1.44198 -7.496513,2.00097 -8.167877,1.63532 -1.450143,-0.7898 -4.779866,-6.19167 -5.630596,-9.13384 -0.480428,-1.6615 -0.778517,-2.2002 -1.413108,-2.17624 -0.215796,-0.0552 -0.474397,-0.0132 -0.798822,0.13467 -0.143461,0.0653 -0.320496,0.12689 -0.512313,0.1824 -0.654065,0.14441 -1.421181,0.24451 -1.969129,0.24279 -0.492636,-9.9e-4 -0.814133,0.074 -1.028272,0.27549 -0.03376,0.0273 -0.06603,0.0568 -0.09468,0.0893 -6.7e-4,8.9e-4 -0.0017,9.9e-4 -0.0024,0.003 -0.187808,0.21503 -0.270713,0.5394 -0.269513,1.01012 9.2e-5,0.0356 0.0056,0.0735 0.0061,0.10936 -0.0052,0.12425 -0.0097,0.24912 -0.0097,0.39372 0,2.5578 1.576871,6.28285 3.606835,8.52123 l 1.386397,1.52966 -0.665277,-0.0189 c -0.973673,-0.027 -1.822625,-0.064 -2.616196,-0.10692 l -0.146904,-0.0188 c -0.83457,-0.10422 -8.08381,-2.6322 -15.871435,-4.65036 -11.29553,-2.92725 -24.2740986,-5.69077 -25.0449539,-6.01035 -3.5344089,-1.46535 -3.6022096,-0.41629 -0.081338,1.25792 1.12528374,0.53511 13.2091549,3.16579 24.0149849,5.92616 8.483284,2.16707 16.089894,4.64542 17.587322,4.6943 2.303742,0.26008 4.735355,0.34406 6.826392,0.15978 0.425792,-0.0375 0.944639,-0.10924 1.498089,-0.19498 3.36883,-0.17716 5.497681,-0.71608 10.639621,-2.29826 10.382738,-3.19478 24.099019,-5.75487 28.909278,-5.61413 0.533101,0.0305 0.981997,0.0866 1.251648,0.19371 0.430526,0.17118 0.585659,0.38194 0.388478,0.8076 l -0.0012,9.8e-4 c -0.23124,0.42034 -0.723442,0.95883 -1.35362,1.4416 -1.826065,1.3989 -4.331595,5.66374 -4.331595,7.37272 0,0.005 -0.0016,0.01 -0.0032,0.0165 -0.10795,0.17932 -0.219026,0.33255 -0.332653,0.45665 -0.443648,0.27377 -1.44642,0.47045 -3.042313,0.63903 -1.416429,0.0421 -2.964136,0.21321 -4.768643,0.54971 -6.05639,1.0092 -14.975552,3.71662 -24.486636,7.48093 -4.102396,1.62364 -8.717585,3.13156 -10.255983,3.35112 -2.558108,0.36507 -2.723827,0.30795 -1.943631,-0.67299 0.469189,-0.58991 0.600322,-1.07302 0.291363,-1.07302 -0.01071,0 -0.02499,0.005 -0.03641,0.007 -0.0092,-9.4e-4 -0.01404,-0.007 -0.02429,-0.007 -0.287995,0 -0.898945,0.48017 -1.669263,1.23402 -0.105962,0.1038 -0.222008,0.22689 -0.333853,0.34092 -2.415097,2.38675 -6.047641,6.90898 -7.155391,9.21309 -0.960372,1.99754 -1.451171,2.92867 -1.960634,3.1876 -0.0193,0.01 -0.03887,0.0132 -0.05829,0.0213 -0.113611,0.026 -0.237926,0.0375 -0.367849,0.0441 -0.282256,-0.0379 -0.60261,-0.2163 -1.027052,-0.49438 -0.789114,-0.51703 -0.689576,-1.09313 0.694417,-4.01656 0.888422,-1.87664 2.651027,-4.8163 3.916404,-6.5337 1.272704,-1.72739 1.914431,-2.96926 1.895074,-3.42787 0.04027,-0.14308 0.021,-0.20988 -0.07892,-0.17234 -0.178759,-0.10358 -0.65238,0.16406 -1.444676,0.90697 -1.467575,1.3762 -3.202477,1.12425 -9.097806,-1.31956 -0.441641,-0.18309 -22.41640819,-6.38166 -22.82718231,-6.53474 -1.24148309,-0.62412 -2.37182809,-0.984 -2.55428539,-0.795 -6.843e-4,7.1e-4 -5.724e-4,9.8e-4 -0.00118,0.003 -0.3134974,-0.0596 -0.5459798,-0.0796 -0.6033641,-0.0202 -0.4519762,0.46832 28.4289068,9.97855 31.1504518,10.58527 l 1.818592,0.40505 c 0.04069,0.0694 0.04767,0.15284 0.02671,0.25158 l -1.705687,2.43913 c -1.831868,2.62031 -4.130083,9.25082 -3.450223,9.95526 0.06267,0.065 0.268402,0.12739 0.525664,0.18618 0.124773,0.31081 0.335071,0.41499 0.637356,0.22141 0.04922,-0.0315 0.107695,-0.06 0.172395,-0.0881 0.452872,0.0555 0.96142,0.10013 1.505372,0.11566 2.173803,0.0625 2.53158,-0.13201 2.83229,-1.53847 0.189352,-0.88556 1.697235,-3.51635 3.350679,-5.84559 l 2.986467,-4.20653 c 0.0097,-0.01 0.01953,-0.0208 0.02913,-0.0302 l 4.58047,-0.99753 c 2.524114,-0.55027 9.064297,-2.65138 14.534154,-4.6682 10.326818,-3.80764 17.365444,-5.76036 23.445018,-6.50351 1.288866,-0.15746 2.105046,-0.25268 2.750946,-0.18869 0.06777,0.01 0.141116,0.0149 0.206381,0.0264 0.01116,9.8e-4 0.02104,0.003 0.03157,0.005 0.106669,0.0195 0.20391,0.0479 0.304716,0.073 0.822527,0.24846 1.457487,0.90385 2.789804,2.29823 1.391538,1.45634 2.639598,2.64796 2.772806,2.64796 0.133303,0 0.694629,-0.46819 1.246786,-1.0403 0.891457,-0.92365 1.419537,-0.94491 4.720088,-0.1862 2.247437,0.51664 3.588018,1.1081 4.334025,1.9234 0.06862,0.34977 0.280447,0.65248 0.565724,0.88684 0.109543,0.12855 0.228257,0.25099 0.353282,0.3585 0.239822,0.20623 0.441209,0.33559 0.63372,0.40128 0.760395,0.3926 1.512915,0.152 2.012835,-0.77362 0.65348,-1.20993 3.86905,-0.62759 3.86905,0.70067 0,1.1545 1.29201,1.51995 2.83837,0.80255 0.99584,-0.46201 2.39437,-0.0165 6.21574,1.97999 2.71194,1.4168 6.60957,2.91554 8.66077,3.33101 5.22944,1.05929 8.21246,2.5389 15.1181,7.49727 9.04413,6.49384 20.52556,15.63956 21.56572,17.17832 0.54227,0.80222 0.9232,2.82558 0.92508,4.92229 0.004,4.1773 0.96886,8.25325 2.32968,9.83955 1.08376,1.26332 3.28784,1.48656 4.30246,0.43524 0.47669,-0.49393 0.78814,0.19857 1.08898,2.41524 0.64926,4.78366 1.59925,7.45023 3.34337,9.38668 2.58904,2.87457 5.88639,2.32347 8.35971,-1.39629 l 0.95786,-1.43908 c 0.0832,0.11481 0.19818,0.3176 0.30956,0.51575 l 0.39821,1.08433 c 0.34668,0.94478 1.66672,4.17387 2.01426,4.17387 1.19768,0 -2.19194,-7.91789 -5.72794,-12.76051 -7.28934,-9.98282 -20.69215,-22.3025 -37.58097,-34.54407 -9.79875,-7.10251 -10.58359,-7.52535 -16.47172,-8.87473 -2.56397,-0.58758 -6.66389,-2.12471 -9.10995,-3.41527 -4.42227,-2.33318 -4.44108,-2.3552 -3.47087,-3.88954 0.53668,-0.84866 1.90452,-2.19699 3.03989,-2.99639 1.96169,-1.3812 2.25826,-1.41304 5.95838,-0.63022 5.27845,1.11675 13.7758,2.18124 17.41502,2.18124 2.69448,0 3.36939,0.33164 6.88587,3.38133 2.14438,1.85971 7.79875,6.71434 12.56503,10.78804 19.19814,16.40849 31.45156,30.27006 36.99825,41.85392 0.61806,1.29077 2.99672,8.04499 3.42419,8.6796 0.19236,0.51949 0.45849,0.83981 0.62643,0.77613 0.58283,0.50372 -1.32355,-6.33271 -2.48092,-9.04439 -1.73786,-4.07189 -5.04236,-9.54846 -8.91327,-14.76939 l -1.48107,-1.99759 c -0.66852,-1.28489 -0.92164,-2.395 -1.11086,-4.12728 l 0.21975,-2.89199 c 0.22099,-2.90181 0.55148,-7.20501 0.73449,-9.5628 0.58818,-7.57957 -2.42126,-24.33605 -8.53938,-47.54606 -1.06803,-4.0518 -2.0307,-7.57255 -2.6854,-9.87099 -0.54274,-2.31364 -0.98676,-4.51602 -1.3087,-6.49723 -0.11736,-1.21315 -0.2361,-2.5528 -0.34234,-4.02789 -1.75496,-24.36489 -12.71354,-45.6763 -32.24297,-62.70164 -0.98918,-0.86236 -1.9606,-1.75805 -2.92334,-2.68568 -0.7275,-0.72657 -1.35326,-1.35936 -2.13181,-2.13346 -6.65933,-6.90896 -13.06376,-15.92485 -21.41639,-29.960166 -7.09981,-11.930174 -12.72226,-16.09655 -22.436169,-16.624833 -0.282823,-0.01533 -0.567258,-0.02409 -0.851038,-0.03397 -0.58352,-0.03153 -1.173946,-0.04885 -1.785801,-0.03775 z m -0.0303,1.28686 c 0.336321,-0.0011 0.668749,0.0023 0.999122,0.01 0.113531,0.0044 0.228337,0.0067 0.341136,0.01121 0.156743,0.0056 0.312162,0.01276 0.467406,0.0201 1.597345,0.09426 3.123031,0.292506 4.558609,0.598779 0.03475,0.0078 0.06728,0.01765 0.102051,0.0252 0.2163,0.05151 0.43381,0.101913 0.643413,0.159753 7.335316,2.025364 10.479666,5.114967 17.935826,17.618598 8.04336,13.488375 15.49617,23.585985 21.52687,29.168925 15.61692,14.45746 21.79594,22.09526 27.60787,34.12518 5.21484,10.79402 7.82791,21.04769 8.7846,34.46734 0.0927,1.29957 0.21685,2.50059 0.34598,3.55115 0.003,0.0466 0.008,0.086 0.0143,0.12706 0.18338,1.46275 0.37814,2.55824 0.5293,2.76242 0.70623,0.95372 5.89591,22.42828 8.01613,33.16917 2.4987,12.65826 3.29739,18.55797 3.32276,24.5586 0.0247,5.85346 -0.64034,7.16114 -3.49273,6.87206 -2.4818,-0.25149 -3.17584,-1.7929 -4.66909,-10.37289 -1.11604,-6.41269 -2.2557,-9.9703 -2.95975,-9.24077 -0.17731,0.18371 -0.0244,1.2956 0.33871,2.47058 0.36315,1.175 1.06354,4.74441 1.55636,7.93252 0.49284,3.1881 1.18971,6.57815 1.54909,7.53376 0.88597,2.35603 3.40159,3.98528 5.36592,3.4744 0.64262,-0.16713 1.01964,-0.24059 1.24195,-0.0491 0.28206,0.34059 0.31399,1.04198 0.31563,2.43912 5e-5,0.042 9.8e-4,0.0714 9.8e-4,0.1145 v 0.0132 c -1.3e-4,0.48685 -0.0164,0.83505 -0.0279,1.22899 -0.0317,0.70563 -0.0883,1.25517 -0.15898,1.50701 -0.0376,-0.0332 -2.17979,-2.23628 -2.96705,-3.04168 -0.0209,-0.0257 -0.0398,-0.047 -0.0608,-0.073 -1.35359,-1.66335 -4.72832,-5.12099 -7.79154,-8.01304 -4.1315,-4.37182 -7.35706,-8.20252 -7.80852,-9.32002 -1.48403,-3.67338 -6.19621,-9.77532 -9.94763,-12.88122 -1.92536,-1.59404 -3.51391,-3.22086 -3.53035,-3.6153 -0.004,-0.11401 -0.21924,-0.21997 -0.61428,-0.31952 l -0.12628,-0.13086 -0.45647,0.0166 c -1.56857,-0.2677 -4.70308,-0.4804 -9.55428,-0.64279 -5.89718,-0.19752 -13.17285,-0.82682 -16.16822,-1.39883 -25.140952,-4.80112 -42.883684,-16.67286 -56.211217,-37.61091 -7.726158,-12.13811 -9.100905,-18.12453 -9.113582,-39.70412 -0.0032,-5.96311 0.05166,-12.70491 0.131072,-17.66516 0.246403,-3.71821 0.323834,-6.53026 0.191805,-8.84703 0.01594,-3.55311 -0.281642,-5.07519 -1.234651,-7.84572 -0.88677,-2.57799 -1.196429,-4.3616 -0.838885,-4.83046 0.311764,-0.40886 0.904709,-2.24004 1.318427,-4.06941 0.617884,-2.73226 0.616321,-3.43894 -0.185747,-4.79271 -0.114329,-0.2205 -0.243088,-0.45423 -0.396992,-0.71578 -0.06299,-0.10702 -0.117199,-0.21693 -0.17481,-0.3258 -0.55949,-1.25055 -0.757629,-2.90679 -0.747838,-5.946247 0.01881,-5.825473 1.788976,-9.961739 5.919532,-13.828447 5.469425,-5.12004 16.84596,-8.651266 26.112204,-8.69483 z M 66.248246,92.114084 c -0.07926,0.0033 -0.158656,0.02809 -0.237953,0.0453 -1.227491,-0.0023 -1.909204,0.695896 -1.776092,1.527133 -0.02248,0.05917 -0.03794,0.111772 -0.03397,0.144666 -0.193545,0.485698 -0.102845,0.812996 0.352058,0.577386 0.139522,0.195578 0.320199,0.39019 0.554803,0.576131 0.258778,0.205104 0.508179,0.362503 0.747838,0.484311 0.0048,0.0044 0.0095,0.0078 0.01276,0.01255 0.245081,0.358273 0.560497,0.469712 0.927512,0.338379 0.210527,-0.01865 0.422951,-0.0887 0.621582,-0.203783 0.01722,-0.0088 0.03428,-0.01887 0.05102,-0.02897 0.03794,-0.02376 0.07399,-0.05095 0.110501,-0.07805 0.01642,-0.01288 0.03413,-0.02376 0.04975,-0.03775 0.349235,-0.278796 0.623974,-0.709007 0.700496,-1.262957 0.07031,-0.509245 -0.08563,-0.952001 -0.371496,-1.290635 -0.178811,-0.357962 -0.511479,-0.550332 -1.085322,-0.66419 -0.206908,-0.09104 -0.414357,-0.147763 -0.624006,-0.139637 z m -11.581672,2.737258 c 0.03125,-6.54e-4 0.05757,0.0033 0.08626,0.0044 0.378766,0.204793 0.550355,0.656897 0.62037,1.379947 0.01803,0.424373 0.02184,0.943997 0.02184,1.635319 0,1.78929 0.383821,4.205492 0.853445,5.370102 l 0.824311,2.04163 c -0.0015,0.01 0.008,0.0494 0.0032,0.0528 -0.0095,0.009 -0.272091,0.0445 -0.429759,0.0691 l -7.701699,0.75728 c -4.486551,0.44142 -9.205861,0.96471 -10.487858,1.16359 -2.807428,0.43575 -2.947693,-0.23182 -0.643423,-3.06936 2.756758,-3.39475 10.554825,-7.925683 15.872003,-9.221902 0.42303,-0.103133 0.741348,-0.178636 0.980926,-0.183654 z m -4.043892,4.431707 c -0.10652,-0.01394 -0.171955,0.05036 -0.191807,0.187426 -0.0064,0.0029 -0.01276,0.0049 -0.01946,0.0088 -0.34745,0.222504 -0.46983,0.674085 -0.273159,1.003825 v 9.8e-4 c 0.466608,0.78147 2.148798,0.77614 2.148798,-0.008 0,-0.742966 -0.826257,-1.284078 -1.529657,-1.132132 -0.04624,-0.02307 -0.09742,-0.05674 -0.134738,-0.06165 z m 6.698925,7.439411 -0.426124,1.85042 c -0.755237,3.28293 -0.893069,3.32317 -5.85154,1.7372 -2.563985,-0.82008 -5.22122,-1.52162 -5.904951,-1.55983 -0.0738,-0.005 -0.119958,-0.0132 -0.176031,-0.0189 -0.104987,-0.0423 -0.218029,-0.0848 -0.292574,-0.1221 0.183719,-0.31582 4.109662,-1.04914 8.113245,-1.44158 z m 42.145672,13.1064 c -1.739415,0.0592 -4.830658,0.83528 -6.805765,1.87934 -3.07006,1.62289 -7.126931,5.85913 -8.73118,9.1175 -1.704704,3.46237 -3.050813,9.27252 -3.050813,13.16678 0,14.53527 9.731721,35.95349 23.027399,50.67832 3.38041,3.74377 6.77623,6.90586 10.78409,9.94017 0.24258,0.19358 0.48384,0.38895 0.72839,0.57992 0.44413,0.3468 1.10882,0.80502 1.8635,1.30824 4.09934,2.86394 8.87834,5.69582 14.87652,8.88604 17.9356,9.53925 26.51806,15.69707 30.29205,21.73202 h -9.9e-4 c 1.06061,1.69599 2.12848,3.0832 2.3722,3.0832 0.65409,0 3.32644,-3.79584 4.83783,-6.87081 5.23742,-10.6555 1.35333,-30.74573 -9.94032,-51.41673 -5.53067,-10.12293 -19.59285,-30.70796 -21.86316,-32.1691 -0.11385,-0.1058 -0.19161,-0.15746 -0.21732,-0.13085 -0.004,0.005 9.8e-4,0.0266 0.003,0.0403 -0.0265,9e-4 -0.0503,0.007 -0.0669,0.0239 -0.19674,0.20382 0.31642,1.30858 1.13994,2.45548 18.27097,25.44525 28.42864,45.4859 31.0945,61.34811 1.0824,6.44055 0.50296,15.38414 -1.25043,19.31303 l -1.43617,3.2203 -0.79276,-4.50842 c -1.53675,-8.74153 -7.37861,-24.79637 -9.02253,-24.79637 -0.19475,0 -0.33319,0.0469 -0.42733,0.12954 -0.0781,9.8e-4 -0.1086,0.0511 -0.0935,0.14209 -0.14048,0.35139 0.13713,1.0466 0.85223,2.10451 0.12422,0.18378 0.25613,0.41962 0.38727,0.64783 0.78008,1.69588 1.52918,3.33448 2.08689,4.63549 2.13427,5.60112 4.36108,13.64977 5.05637,18.58846 0.29837,2.69197 0.30993,4.7757 -0.0813,5.22043 l -1.04527,-1.51958 c -4.61969,-6.71391 -12.91507,-12.79721 -30.3309,-22.24276 -15.10715,-8.19341 -18.48385,-10.63297 -27.0737,-19.5621 -12.662114,-13.16225 -21.660698,-30.25462 -23.939102,-45.47048 -1.226199,-8.18896 0.62399,-15.95197 4.450563,-21.25655 1.589037,-2.04389 3.446754,-3.76778 5.382938,-5.00154 1.610387,-0.94006 3.365432,-1.57159 5.238474,-1.82903 0.504884,-0.0694 0.960612,-0.16593 1.379113,-0.2717 1.067774,-0.0319 1.482364,-0.15697 1.228584,-0.42268 0.24061,-0.12639 0.38968,-0.25219 0.38968,-0.36607 0,-0.31144 -0.51199,-0.43316 -1.302612,-0.4063 z m -6.39785,10.23706 c -2.017457,0 -4.836393,7.53579 -3.792576,10.13892 0.154829,0.38618 0.318269,0.40126 0.503809,0.0278 0.04943,-0.0165 0.107154,-0.16356 0.169962,-0.42644 0.156106,-0.47509 0.32889,-1.19707 0.526884,-2.18126 0.410721,-2.04155 1.364748,-4.57754 2.119667,-5.63554 1.037566,-1.45419 1.152804,-1.92337 0.472254,-1.92337 z m 0.150525,3.93732 c -0.08149,-0.0466 -0.32299,0.25206 -0.795181,0.8554 -0.538172,0.68762 -0.978504,1.77445 -0.978504,2.41522 0,0.0757 0.01594,0.14209 0.02312,0.21386 -0.01435,0.0857 -0.02312,0.16539 -0.02312,0.23649 0,0.4772 0.124534,0.63005 0.307157,0.54845 0.09248,0.10291 0.199556,0.16605 0.314426,0.16605 0.341869,0 0.625362,-0.36229 0.630066,-0.80508 0.0032,-0.30553 0.092,-0.92247 0.202746,-1.5636 0.01993,-0.0708 0.04321,-0.13466 0.06187,-0.20757 0.20756,-0.80956 0.2951,-1.18942 0.203956,-1.20509 0.07096,-0.36549 0.108908,-0.62239 0.05342,-0.65413 z m -51.125723,79.43213 c 0.306013,0.0219 0.53635,0.41946 0.858306,1.29693 0.347536,0.94714 0.632502,1.9703 0.632502,2.27434 0,0.30404 0.97898,1.8816 2.175512,3.50585 1.19653,1.62424 2.175509,3.09658 2.175509,3.27063 0,0.1079 -0.04001,0.18817 -0.100755,0.25411 -0.07485,0.008 -0.149695,0.018 -0.233089,0.0251 l -1.324488,-0.0376 c -0.967898,-0.29917 -2.127582,-0.93252 -2.818933,-1.69696 -2.032556,-2.24742 -4.238318,-6.8106 -4.150714,-8.02182 0.04364,-0.14639 0.11873,-0.24947 0.224595,-0.30819 0.08953,9.8e-4 0.203193,0.0422 0.349635,0.13581 0.35684,0.22852 1.052065,0.0697 1.544228,-0.35348 0.273565,-0.23526 0.484093,-0.35774 0.667702,-0.34467 z m 49.514713,5.64937 c 0.777274,-0.008 0.523902,1.05217 -1.028269,2.46429 -1.146856,1.0434 -2.688328,3.34728 -3.424717,5.12105 -0.976194,2.35119 -1.600757,3.37937 -1.81374,3.053 -0.02871,-0.16142 -0.05437,-0.33325 -0.07159,-0.5535 0.0012,-0.36043 0.04496,-0.85702 0.154192,-1.55478 0.438977,-2.80299 2.559761,-6.46627 4.510056,-7.79039 0.754137,-0.512 1.320819,-0.73609 1.674121,-0.73967 z m 3.042316,1.52713 c 0.06522,0.005 0.122778,0.0231 0.182112,0.039 0.09455,0.0578 0.186193,0.11352 0.295005,0.18493 0.06745,0.0443 0.118633,0.0896 0.168749,0.13466 0.149089,0.37528 -0.355166,1.0396 -1.725114,2.41145 -1.277927,1.27972 -2.998688,3.84877 -3.824149,5.7085 -0.618394,1.39321 -1.218993,2.59603 -1.543003,3.11211 -0.150046,-0.003 -0.2822,-0.0907 -0.388478,-0.25913 -0.04656,-0.27725 -0.0759,-0.64911 -0.08866,-1.06548 0.124374,-1.31792 0.556032,-3.18038 1.156949,-4.55117 1.274324,-2.90694 4.266554,-5.81261 5.766553,-5.71479 z m 2.963421,1.93343 c 0.727237,0.0302 1.659988,0.46646 3.593459,1.41393 l 3.23051,1.58249 c 0.12629,0.16731 0.11927,0.31137 -0.0219,0.44907 l -1.44104,0.75224 c -1.04234,0.54386 -2.57156,2.05518 -3.398024,3.35869 -0.835027,1.31695 -1.256493,1.97836 -1.977623,2.1498 -0.257534,0.0166 -0.538398,0.0173 -0.842525,0.003 -0.680788,-0.0896 -1.591173,-0.36998 -3.004684,-0.82018 l -2.18643,-0.69689 c -0.195794,-0.16505 -0.351356,-0.34189 -0.46012,-0.53335 -0.0064,-0.11995 0.0048,-0.26068 0.03891,-0.42393 l 1.246784,-2.37121 c 0.889195,-1.6928 2.413047,-3.56578 3.385874,-4.16124 0.640319,-0.39191 1.066109,-0.6332 1.535726,-0.69059 0.09793,-0.0116 0.19718,-0.0149 0.301086,-0.0116 z m -29.392477,1.87811 c -0.586247,-0.0149 -2.571511,0.48533 -4.79291,1.22522 -9.616643,3.20308 -14.373564,4.77397 -17.094516,5.50723 -1.176391,0.2698 -2.191695,0.45219 -3.109084,0.57612 -0.470357,0.007 -0.86459,-0.0455 -1.319633,-0.12078 -1.298849,-0.21519 -3.06052,-0.18625 -3.915193,0.064 -1.403371,0.41121 -1.313038,0.49432 0.932364,0.85666 1.868149,0.30146 3.324931,0.4486 4.673947,0.4302 0.06217,0.01 0.318543,0.051 0.356921,0.0567 0.107233,0.0149 0.369724,-0.0285 0.7017,-0.10192 1.66909,-0.14225 3.283997,-0.575 5.455769,-1.35227 2.393067,-0.85648 7.148106,-2.44904 10.566764,-3.53984 6.33089,-2.01993 8.310445,-2.93546 7.70535,-3.56246 -0.02328,-0.0241 -0.07766,-0.0368 -0.161479,-0.039 z m 38.691796,2.28063 1.45682,0.0177 c 0.46958,0.0924 -0.0408,0.38136 -1.82829,1.29818 -1.64684,0.84467 -3.26133,2.3966 -4.35103,4.1839 -0.94708,1.55335 -1.69865,2.45478 -2.1658,2.74733 -0.250485,-0.0179 -0.401341,-0.31003 -0.462534,-0.85415 0.125174,-0.60555 0.431205,-1.48625 0.961494,-2.64417 1.10002,-2.40199 3.91406,-4.47469 6.32501,-4.74493 0.0213,-4e-5 0.0431,-0.003 0.0644,-0.003 z m 1.4289,1.9825 c 0.0463,0.27394 -0.42956,1.28816 -1.19338,2.49698 -0.93241,1.47566 -2.12115,2.57625 -2.78251,2.57625 -0.94646,0 -1.03898,-0.22282 -0.51473,-1.23779 0.50098,-0.96997 2.17185,-2.58689 3.36523,-3.40396 0.46665,-0.2249 0.84245,-0.36861 1.12539,-0.43148 z m 4.33646,0.0116 c 0.13489,9.9e-4 0.27005,0.01 0.4079,0.0251 l 1.86837,0.20628 -3.9856,3.75368 c -4.07798,3.84096 -4.62233,3.88484 -3.13823,0.25158 0.23035,-0.56393 0.48909,-1.05529 0.76119,-1.50951 0.36659,-0.55062 0.77337,-1.07793 1.20673,-1.5548 0.84617,-0.78845 1.81548,-1.18753 2.87964,-1.17241 z m 33.27244,3.80903 c 2.54277,-0.0273 3.32928,0.16775 5.28945,1.82526 l 0.003,0.003 4.18833,4.45685 c 3.26705,3.47619 6.44555,7.24393 7.06313,8.3728 v 9.8e-4 c 1.38303,2.52791 1.05893,2.57421 -1.56728,0.22644 -1.12295,-1.0039 -5.39849,-4.52177 -9.50087,-7.81804 -4.10239,-3.29632 -7.72534,-6.2427 -8.05012,-6.54755 -0.2497,-0.23434 0.341,-0.42345 1.43738,-0.50695 z m -28.19909,0.43901 c -0.12899,0.008 -0.20032,0.0549 -0.20032,0.1434 0,1.12076 4.79232,3.23194 9.47174,4.17258 5.55614,1.11685 9.09672,2.72455 13.48282,6.12108 1.85655,1.4377 3.60602,2.61399 3.88727,2.61399 0.28121,0 2.32476,1.93626 4.54162,4.30212 2.21685,2.36585 4.20569,4.12064 4.41901,3.8996 0.0128,-0.0132 0.0173,-0.0342 0.0219,-0.0554 0.0179,-9.8e-4 0.0356,-0.005 0.046,-0.0165 0.18369,-0.19037 -0.33827,-0.99528 -1.18489,-1.91332 -1.95596,-2.59546 -5.89105,-6.85222 -7.16146,-7.45199 -0.80484,-0.37997 -2.92202,-1.80722 -4.70429,-3.17124 -3.80708,-2.91363 -8.57786,-4.90601 -13.90774,-5.80915 -2.10631,-0.35689 -4.97334,-1.25364 -6.37114,-1.99257 -1.04835,-0.55412 -1.95344,-0.86908 -2.34061,-0.84281 z m 37.65504,19.49167 c -0.0547,0 -0.0931,0.0149 -0.12022,0.0376 -0.54105,-0.0223 -0.30374,0.33256 0.8838,1.66676 0.8995,1.0106 2.04944,2.68155 2.55548,3.71216 0.14813,0.30166 0.4923,0.75354 0.95059,1.2831 0.54966,0.97643 1.05816,1.67304 1.25286,1.67304 0.094,0 0.45718,0.23997 0.91657,0.56985 0.83174,0.79322 1.75233,1.61956 2.68783,2.39385 4.783,3.9588 6.61027,4.86279 4.24176,2.09948 -0.65315,-0.76202 -2.58586,-2.52785 -4.29519,-3.92476 -1.70931,-1.39692 -4.08685,-4.03345 -5.28337,-5.85819 -1.16009,-1.76918 -2.63475,-3.31298 -3.34703,-3.52346 -9.9e-4,-4.5e-4 -0.003,-9.8e-4 -0.004,-0.003 -0.1656,-0.0822 -0.31301,-0.12706 -0.43825,-0.12706 z m 6.74991,16.74557 c 0.12517,0 1.6089,1.2318 3.29604,2.73729 2.59641,2.31688 3.06755,3.08607 3.0678,5.00908 1.9e-4,1.24955 -0.43536,2.91606 -0.96756,3.70335 -0.58979,0.87249 -1.19125,1.32664 -1.76761,1.38498 -0.62978,0.005 -1.17828,-0.38997 -1.72754,-1.18246 -0.18948,-0.30986 -0.36722,-0.68214 -0.53415,-1.11074 -0.18001,-0.52934 -0.36958,-1.24394 -0.55602,-2.01898 -0.51914,-2.79972 -1.10724,-8.52252 -0.81096,-8.52252 z m 8.4993,7.99166 c 0.0343,0.003 0.0787,0.0311 0.11895,0.0477 0.0513,0.0408 0.12884,0.1178 0.18575,0.16605 l 2.1391,2.42152 c 1.56411,1.77116 3.85454,4.70773 5.09034,6.52615 2.20337,3.24222 2.2283,3.345 1.25529,5.29464 -0.54571,1.0935 -1.53114,2.28698 -2.18885,2.65172 -0.32349,0.17935 -0.55032,0.30925 -0.74543,0.40379 -0.24509,0.0859 -0.48946,0.13135 -0.73203,0.14854 -0.30617,-0.044 -0.68665,-0.2119 -1.41189,-0.51576 -2.21897,-0.9297 -3.52184,-4.87193 -3.83023,-11.5906 l -0.23794,-5.19149 c 0.10093,-0.24604 0.20095,-0.37943 0.35692,-0.36228 z"
       style="fill:#000000;stroke-width:0.63271803" />
  </g>
  <path
     style="opacity:1;fill:#000000;fill-opacity:1;fill-rule:evenodd;stroke:none;stroke-width:6.92346334;stroke-miterlimit:4;stroke-dasharray:none;stroke-opacity:1"
     d="M -0.03958472,-0.06353961 V 297.06354 H 210.03959 V -0.06353961 Z m 0.26458,0.26458 H 209.775 V 296.79896 H 0.22499528 Z"
     id="rect815" />
  <text
     id="text821"
     y="59.709824"
     x="2.444216"
     style="font-style:normal;font-weight:normal;font-size:10.58333302px;line-height:1.25;font-family:sans-serif;letter-spacing:0px;word-spacing:0px;fill:none;fill-opacity:1;stroke:#000000;stroke-width:2.64583325;stroke-miterlimit:4;stroke-dasharray:none;stroke-opacity:1"
     xml:space="preserve"><tspan
       style="font-style:normal;font-variant:normal;font-weight:normal;font-stretch:normal;font-size:77.6111145px;font-family:'Berlin Sans FB Demi';-inkscape-font-specification:'Berlin Sans FB Demi';fill:none;stroke:#000000;stroke-width:2.64583325;stroke-miterlimit:4;stroke-dasharray:none;stroke-opacity:1"
       y="59.709824"
       x="2.444216"
       id="tspan819">Bb</tspan></text>
  <text
     id="text825"
     y="32.531471"
     x="130.40363"
     style="font-style:normal;font-weight:normal;font-size:10.58333302px;line-height:1.25;font-family:sans-serif;text-align:center;letter-spacing:0px;word-spacing:0px;text-anchor:middle;fill:#000000;fill-opacity:1;stroke:none;stroke-width:0.26458332"
     xml:space="preserve"><tspan
       style="font-style:normal;font-variant:normal;font-weight:normal;font-stretch:normal;font-size:19.7555542px;font-family:Forte;-inkscape-font-specification:Forte;text-align:center;text-anchor:middle;stroke-width:0.26458332"
       y="32.531471"
       x="130.40363"
       id="tspan823">is for</tspan><tspan
       id="tspan827"
       style="font-style:normal;font-variant:normal;font-weight:normal;font-stretch:normal;font-size:19.7555542px;font-family:'Nirmala UI';-inkscape-font-specification:'Nirmala UI';text-align:center;text-anchor:middle;stroke-width:0.26458332"
       y="57.560646"
       x="130.40363">Bird</tspan></text>
</svg>
