<?xml version="1.0" encoding="UTF-8" standalone="no"?>
<svg
   xmlns:dc="http://purl.org/dc/elements/1.1/"
   xmlns:cc="http://creativecommons.org/ns#"
   xmlns:rdf="http://www.w3.org/1999/02/22-rdf-syntax-ns#"
   xmlns:svg="http://www.w3.org/2000/svg"
   xmlns="http://www.w3.org/2000/svg"
   width="210mm"
   height="297mm"
   viewBox="0 0 210 297"
   version="1.1"
   id="svg860">
  <title
     id="title1441">B is for Bird</title>
  <defs
     id="defs854" />
  <metadata
     id="metadata857">
    <rdf:RDF>
      <cc:Work
         rdf:about="">
        <dc:format>image/svg+xml</dc:format>
        <dc:type
           rdf:resource="http://purl.org/dc/dcmitype/StillImage" />
        <dc:title>B is for Bird</dc:title>
        <dc:subject>
          <rdf:Bag>
            <rdf:li>csk</rdf:li>
            <rdf:li>sizing-cover</rdf:li>
            <rdf:li>letters</rdf:li>
            <rdf:li>b</rdf:li>
          </rdf:Bag>
        </dc:subject>
        <dc:source>http://www.supercoloring.com/coloring-pages/letter-b-is-for-bird</dc:source>
        <dc:creator>
          <cc:Agent>
            <dc:title>Lena London</dc:title>
          </cc:Agent>
        </dc:creator>
        <dc:date>2020-04-10</dc:date>
      </cc:Work>
    </rdf:RDF>
  </metadata>
  <g
     id="layer1">
    <path
       style="fill:#000000;stroke-width:0.63271803"
       d="m 77.557938,2.7594208 c -0.03556,-0.00155 -0.07207,0.00611 -0.110501,0.021382 -1.091796,0.434124 -9.92541,1.662458 -13.35051,1.8567137 l -2.797074,0.1584972 -0.0032,0.3622837 -0.320501,0.040244 0.161462,30.0293576 v 0.04024 l -0.161462,30.391644 h 3.384661 c 3.294173,0 3.422166,-0.06761 4.763795,-2.541022 l 0.568149,-1.047855 c 0.147177,-0.228745 0.279618,-0.429614 0.443123,-0.68809 0.1223,-0.193309 0.207433,-0.308975 0.29864,-0.436506 0.144147,-0.04161 0.295421,-0.05038 0.457681,-0.02392 l 2.085672,1.849164 c 1.361113,1.207216 3.625438,2.617852 5.03209,3.134763 3.420189,1.256564 8.131427,1.26589 12.171685,0.02265 1.841244,-0.566574 3.723469,-1.729814 5.444836,-3.264335 0.687805,-0.533773 1.300665,-1.102258 1.794326,-1.707014 0.221975,-0.271923 0.435634,-0.559901 0.645865,-0.855396 1.403746,-1.733968 2.576995,-3.701659 3.348235,-5.733654 0.96644,-2.546102 1.30726,-4.106424 1.42283,-8.029384 0.4992,-3.973721 0.44338,-8.092437 -0.24281,-11.810724 -0.58415,-5.489735 -2.13758,-8.53979 -5.563818,-12.089985 -0.04863,-0.05035 -0.100293,-0.09511 -0.149406,-0.144669 -0.919507,-0.967992 -1.916253,-1.762558 -3.009532,-2.368683 -0.0016,-0.0011 -0.0048,-0.0015 -0.0064,-0.0025 -3.753756,-2.250698 -8.2099,-2.663143 -12.170494,-0.948431 -1.238047,0.535974 -2.408485,0.811484 -2.60042,0.612618 -0.191838,-0.198784 -0.462336,-4.13304 -0.600934,-8.74263 -0.03125,-1.0372035 -0.06713,-1.770377 -0.102051,-2.5800209 V 3.0462655 3.0361633 3.0247622 3.0209923 L 77.86741,3.10778 C 77.776683,2.8854303 77.675061,2.7646753 77.556618,2.7593309 Z M 9.3984127,4.3318375 V 4.4739776 H 8.7768379 V 34.63794 c 0,16.589957 0.1860806,30.356788 0.4139814,30.592911 0.026067,0.02701 0.104012,0.05236 0.2075934,0.07673 v 0.474234 l 7.4006203,-0.12202 h 2.255639 c 1.165508,0.0067 2.390047,0.0033 3.643252,0 h 1.915712 c 0.367797,0 0.644248,-0.007 1.001561,-0.0076 0.03162,-5.9e-5 0.05709,6.5e-5 0.08862,0 0.02121,-1.74e-4 0.04192,-0.0011 0.06313,-0.0012 4.406608,-0.0095 8.109414,-0.06554 11.123995,-0.221395 3.656909,-0.123669 6.513216,-0.289415 7.440681,-0.493113 6.200424,-1.361791 10.851006,-4.856847 13.259443,-9.965335 1.681043,-3.565588 1.607135,-10.039214 -0.15419,-13.50768 -0.4079,-0.803266 -1.087587,-1.767058 -1.879291,-2.746064 -0.449485,-0.59975 -0.94805,-1.171528 -1.489586,-1.712044 -1.342602,-1.426215 -2.792355,-2.705811 -3.903063,-3.349878 -0.85842,-0.497757 -0.640718,-0.989046 1.380328,-3.110862 0.661175,-0.616842 1.237584,-1.287954 1.726342,-2.018983 C 59.06259,20.587052 55.28336,9.6119492 45.077016,6.0061718 L 42.782533,4.7959535 39.115001,4.7494108 C 36.367102,4.5194222 32.302402,4.4739188 24.561413,4.4739188 h -0.897154 -6.620011 l -2.279916,-0.037735 z m 66.9552183,0.807589 0.174826,1.7346873 v 7.8922702 c 0,5.320257 0.131709,9.673498 0.292566,9.673498 0.04017,0 0.155627,-0.05738 0.329,-0.158498 v 0.218877 0.07296 0.108186 l 1.314792,-1.27177 c 0.441752,-0.302943 0.872563,-0.593555 1.391252,-0.97238 1.848675,-1.35021 3.810052,-2.123778 5.765339,-2.373719 1.315463,-0.101514 2.559409,-0.04524 3.729449,0.161009 4.303563,0.925774 8.184142,4.40183 10.254762,9.899925 1.834543,4.871176 2.036103,16.586458 0.381204,22.128283 -1.414938,4.738245 -4.421301,8.772716 -7.925076,10.633305 -3.577617,1.899806 -9.333039,2.430012 -12.988724,1.197555 -1.62289,-0.547174 -3.926599,-2.137052 -5.657294,-3.903366 l -2.919695,-2.980039 -2.021331,3.264327 c -1.659086,2.679012 -2.331583,3.255867 -3.80594,3.261825 l -1.814952,0.0012 V 61.387869 L 63.003058,35.227908 63.15119,9.0641724 C 63.22693,7.8700258 63.317326,7.0696185 63.431622,6.7055563 L 68.446716,6.2753415 C 71.351868,6.026026 74.358737,5.6578939 75.128644,5.4576877 Z M 10.641562,6.4061646 h 14.393333 c 0.721344,0 1.284446,0.00788 1.954559,0.010102 1.377677,0.00333 2.614833,0.011735 3.773157,0.023912 11.165049,0.1506161 14.01109,0.9121777 18.159193,3.8693984 5.555897,3.960848 6.714313,12.604357 2.401327,17.915467 -0.853651,1.05121 -2.805017,2.54019 -4.336458,3.308362 -1.021096,0.512196 -1.700125,0.931153 -2.056541,1.289387 l -0.350847,0.17233 0.151752,0.07547 c -0.344328,0.572404 0.299959,0.974402 1.932711,1.345993 0.746127,0.1698 1.503316,0.481287 2.251981,0.890614 0.575931,0.324994 1.154078,0.706689 1.721479,1.137167 0.04481,0.03489 0.09009,0.06634 0.134738,0.101891 0.04433,0.03428 0.08818,0.07085 0.132347,0.105655 2.921863,2.383748 5.386032,6.196985 5.994794,9.801807 1.028126,6.088223 -3.099766,12.830625 -9.449874,15.434828 -3.305203,1.355485 -4.695231,1.47418 -19.869747,1.703239 l -8.990975,0.135852 h -7.325355 l -0.0012,-8.800489 C 11.261354,50.026034 11.075914,37.10377 10.850407,26.211069 L 10.641595,16.102326 Z M 25.55935,10.914596 v 9.876028 0.428953 7.79289 l -0.03278,1.868029 h 0.03278 v 0.644061 h 3.74887 c 6.976874,0 9.6987,-2.434771 10.342172,-9.250834 0.425399,-4.506032 -0.811647,-8.038638 -3.46115,-9.886089 -1.689415,-1.178001 -2.964283,-1.473038 -6.371137,-1.473038 h -0.468607 z m 1.864722,1.932184 h 2.767951 c 5.470913,0 7.558452,2.495383 7.406689,8.850812 -0.09125,3.821674 -1.388535,6.360795 -3.720951,7.279651 -0.85904,0.338409 -2.662248,0.61513 -4.007453,0.61513 h -2.446236 v -8.372796 z m 109.313338,6.633077 c -1.30124,0.100359 -3.16322,1.656603 -3.45143,3.149858 -0.0444,0.229539 -0.10939,0.447824 -0.18574,0.650355 -0.19871,0.315082 -0.39871,0.603448 -0.59731,0.865456 -0.18789,0.170846 -0.36174,0.278178 -0.49897,0.280523 -0.40602,0.0073 -0.64587,0.339992 -0.72474,0.735885 h -9.8e-4 c -0.0503,0.02253 -0.0488,0.05809 -0.0183,0.103146 -0.003,0.02318 -0.0111,0.04449 -0.0128,0.06792 -9.8e-4,0.0152 6.1e-4,0.03001 0,0.04529 -0.0111,0.116317 -0.01,0.233041 0.008,0.34719 -0.004,0.149311 0.0457,0.301812 0.15897,0.440278 0.093,0.138937 0.22323,0.250124 0.39335,0.313228 0.51235,0.190062 0.30462,1.541186 -1.54666,10.08987 -0.23641,1.091647 -0.10704,1.401182 0.59972,1.308249 0.0799,0.06961 0.17269,0.09794 0.27437,0.07926 0.016,0.0012 0.0282,0.0087 0.0437,0.0087 0.0143,0 0.0337,-0.02596 0.0497,-0.03648 0.32603,0.129155 0.70049,-0.09549 0.90443,-0.768597 0.0618,-0.204161 0.2322,-0.950712 0.43582,-1.876834 0.24206,-0.837336 0.49851,-1.895235 0.79518,-3.283205 0.97238,-4.549123 1.4193,-5.627988 2.33091,-5.627988 0.62033,0 1.12782,-0.434741 1.12782,-0.966093 0,-0.531344 -0.41957,-0.966092 -0.93236,-0.966092 -0.0225,0 -0.0379,-0.0011 -0.0595,-0.0012 -0.0751,-7.61e-4 -0.14368,-0.0081 -0.2076,-0.02013 -0.25528,-0.333783 -0.39517,-0.720278 -0.43097,-1.109498 0.0478,-0.141315 0.0764,-0.24594 0.14319,-0.426439 0.20751,-0.56034 0.90677,-1.018924 1.55393,-1.018924 0.77997,0 1.2236,-0.651797 1.16909,-1.291896 9.9e-4,-0.01322 0.008,-0.02565 0.008,-0.03899 0,-0.02536 -0.0111,-0.04781 -0.0182,-0.0717 0.008,-0.09059 -0.0143,-0.177316 -0.0729,-0.252845 -0.0912,-0.217152 -0.24791,-0.41714 -0.48439,-0.568585 -0.14526,-0.093 -0.31353,-0.144454 -0.49896,-0.159752 -0.0811,-0.0068 -0.16577,-0.0067 -0.25251,0 z m -19.79812,0.773626 c -0.27116,0 -0.54217,0.155425 -0.75634,0.396253 -0.34319,0.117606 -0.51206,0.374799 -0.47467,0.694376 -0.0128,0.06396 -0.0206,0.129683 -0.0206,0.197495 0,0.125437 0.0243,0.24451 0.0669,0.354735 0.0111,0.360107 0.17649,0.529252 0.52446,0.540915 0.10606,0.04373 0.22046,0.07044 0.34113,0.07044 0.0654,0 0.12884,-0.0079 0.1906,-0.02138 0.31553,0.03963 0.56915,-0.143414 0.67864,-0.515752 0.59227,-0.637987 0.46269,-1.717081 -0.54995,-1.717081 z m 5.63059,4.183881 c -0.0667,7.9e-5 -0.13729,0.01454 -0.20516,0.01761 -1.15997,0.05477 -2.40626,0.32465 -2.82381,0.757273 -0.57116,0.591834 -0.79034,1.405322 -0.6944,2.271823 5e-5,0.06741 0.007,0.135019 0.0128,0.202531 0.01,0.460208 0.16671,0.910163 0.47468,1.333407 0.26575,0.506058 0.63004,0.998489 1.09382,1.444108 1.99651,1.918208 1.46648,3.23391 -1.06953,2.656754 -1.36518,-0.310684 -1.80525,-0.175083 -1.80525,0.553486 0,0.01536 0.007,0.03104 0.008,0.04653 -9.8e-4,0.02578 -0.008,0.04676 -0.008,0.07421 0,0.07516 0.0179,0.145892 0.051,0.212591 0.10606,0.420481 0.38769,0.813328 0.72596,0.95477 1.23778,0.517523 2.13817,0.470556 3.84357,-0.201268 1.60556,-0.632509 2.03995,-2.385013 1.32813,-3.957456 -0.19503,-0.476818 -0.49942,-0.921472 -0.90565,-1.288122 -0.14717,-0.145049 -0.30262,-0.285597 -0.47589,-0.416373 -1.92034,-1.449499 -1.46168,-3.000728 0.75753,-2.561154 1.37421,0.272198 2.49111,-0.869277 1.67657,-1.713302 -0.26583,-0.275432 -1.00766,-0.387981 -1.84531,-0.381153 -0.0464,-0.0015 -0.0912,-0.0063 -0.13841,-0.0063 z m -6.5593,0.0025 c -0.50628,0 -1.06351,0.652119 -1.23829,1.449138 -1.47004,6.701238 -1.57962,7.74865 -0.89231,8.606771 0.39377,0.491625 1.08496,0.893134 1.53572,0.893134 0.6411,0 1.10247,-0.387686 1.26015,-0.837782 0.15626,-0.09148 0.25495,-0.216798 0.25495,-0.381156 0,-0.01372 -0.004,-0.02874 -0.007,-0.04277 8.8e-4,-0.0088 0.007,-0.01743 0.007,-0.02642 0,-0.268805 -0.18315,-0.498869 -0.43947,-0.595003 -0.12566,-0.09874 -0.26394,-0.189083 -0.41884,-0.251583 -0.41104,-0.481494 -0.35955,-1.461201 0.13841,-4.030413 0.90952,-4.692283 0.90669,-4.78392 -0.20031,-4.78392 z m 25.46269,0 c -0.11688,0 -0.2332,0.0057 -0.34841,0.01761 -9.9e-4,1.22e-4 -9.9e-4,0.0011 -0.003,0.0012 -4.0452,0.376557 -6.56019,6.656039 -3.67846,9.642047 2.15176,2.229581 5.55132,1.141085 7.11776,-2.279369 1.80982,-3.951885 0.6073,-7.133399 -2.68297,-7.360167 -0.0546,-0.0058 -0.11178,-0.0054 -0.16752,-0.0087 -0.0702,-0.0027 -0.13553,-0.01256 -0.20761,-0.01256 -0.004,0 -0.01,0.0012 -0.0143,0.0012 -0.004,-1.3e-5 -0.01,-0.0012 -0.0143,-0.0012 z m 10.71245,0.03147 c -0.2231,-0.01553 -0.47848,0.03788 -0.74054,0.15473 -0.31917,-0.03195 -0.67771,-0.04127 -1.08047,-0.01762 l -2.61621,0.153458 -0.77453,3.864368 c -0.42601,2.12539 -0.78838,4.371574 -0.80247,4.991475 -9.8e-4,0.04907 0.003,0.09594 0.008,0.143412 -0.003,0.04686 -0.0187,0.140704 -0.0195,0.178625 -9.8e-4,0.09496 0.0164,0.185687 0.0461,0.270453 9.8e-4,0.364501 0.13761,0.507681 0.4249,0.45789 0.10393,0.04724 0.21739,0.07672 0.33992,0.07672 h 9.8e-4 c 9.8e-4,7e-6 0.003,0 0.003,0 0.0128,0 0.0263,-0.01306 0.0389,-0.01503 0.0507,-0.0081 0.1019,-0.02197 0.15548,-0.05786 0.13187,-0.08845 0.27112,-0.258378 0.41154,-0.496879 0.40835,-0.655856 0.86811,-1.829946 1.25772,-3.28195 0.84462,-3.147868 1.31774,-3.925161 2.58828,-4.255584 1.41446,-0.36785 1.86034,-0.956225 1.54179,-1.407629 -0.0609,-0.472399 -0.36776,-0.729579 -0.78305,-0.75853 z m -69.481585,0.737148 c -1.814234,-0.04038 -3.677038,1.681263 -4.973811,5.010345 -0.0032,0.0061 -0.0064,0.0114 -0.0095,0.0176 -0.008,0.0157 -0.01434,0.04826 -0.02312,0.06541 -0.04242,0.110585 -0.08882,0.209204 -0.129956,0.323293 -0.894121,2.480685 -1.075994,4.460182 -0.957854,11.669838 -0.07112,4.443773 0.06554,8.861949 0.498963,10.868535 0.01818,0.08386 0.0421,0.166669 0.06186,0.250327 0.516727,3.615437 1.513823,4.934212 3.5607,6.087131 0.935818,0.526993 2.074685,0.824239 2.52999,0.660416 0.455304,-0.163867 1.100614,-0.298131 1.433761,-0.298131 0.333115,0 1.214878,-1.376686 1.960628,-3.05929 1.031059,-2.326266 1.285676,-3.725766 1.345119,-10.003077 0.169357,-3.171688 0.17336,-6.555927 -0.01276,-9.586698 -0.08259,-4.973275 -0.374589,-6.294295 -1.314777,-8.402991 -1.066156,-2.391188 -2.500347,-3.570006 -3.969825,-3.602717 z m 58.526335,1.192516 c 1.16708,0.01848 1.88963,1.374171 1.80039,2.91463 -0.007,0.07827 -0.0128,0.155722 -0.0206,0.233975 -0.10049,0.904925 -0.4767,1.852507 -1.21644,2.619017 -0.96512,1.000022 -1.61066,1.383598 -2.15124,1.158557 -0.32434,-0.135021 -0.61137,-0.488349 -0.90686,-1.060434 -0.55852,-1.081334 -0.29781,-3.06062 0.39819,-4.37509 0.39858,-0.519731 0.8606,-0.987585 1.32814,-1.31706 0.18286,-0.07885 0.36111,-0.135862 0.52931,-0.158497 0.0817,-0.0111 0.16134,-0.01636 0.23915,-0.01503 z m -58.696298,1.273033 c 0.08706,-0.0034 0.1743,3.22e-4 0.261011,0.01123 0.832509,0.105543 1.638898,0.882551 2.276283,2.390073 1.443408,3.413764 1.418612,21.886692 -0.03396,25.440423 -1.59041,3.890877 -4.672125,2.788669 -6.042136,-2.161129 -0.817839,-2.95483 -0.757662,-17.671156 0.08498,-20.864063 0.814188,-3.085106 2.147142,-4.7638 3.453866,-4.81662 z M 25.55935,36.03297 v 11.164152 0.428951 11.593105 0.0012 l 0.406695,-0.0012 4.410506,-0.0012 c 5.437993,-0.0011 8.273293,-1.114006 10.366457,-4.070667 1.788729,-2.526632 1.811703,-9.962519 0.04127,-13.630957 C 38.795,37.394442 36.226599,36.03305 30.439677,36.03305 h -0.364202 -3.894556 z m 1.864722,1.932183 3.435659,0.0101 c 6.192685,0.10087 9.069996,3.189468 9.228921,9.918797 0.102908,4.357299 -1.104452,7.130884 -3.648108,8.3816 -1.114526,0.548006 -3.547486,0.995733 -5.449704,1.008858 l -3.566768,0.0025 V 47.626045 47.212184 Z M 152.9821,41.185461 c -0.13744,0 -0.25981,0.0071 -0.36905,0.02517 -0.10922,0.01807 -0.20475,0.04812 -0.28893,0.09309 -9.8e-4,9.64e-4 -0.003,0.0027 -0.004,0.0037 -0.0689,0.0381 -0.1282,0.08954 -0.18211,0.152203 -0.33197,0.379424 -0.3982,1.25384 -0.3982,3.212758 v 0.183661 c 0,1.230776 -0.0338,2.03068 -0.11527,2.51712 -0.0942,0.353726 -0.23275,0.505312 -0.46376,0.520788 -0.0521,-0.03455 -0.1065,-0.07641 -0.16754,-0.139629 -1.23732,-1.282068 -4.62823,-0.905989 -6.44642,0.714503 -1.08499,0.967039 -1.57001,1.896484 -1.84042,3.692036 -0.18219,0.702144 -0.29016,1.450027 -0.29016,2.239118 0,0.328097 0.0545,0.698124 0.12994,1.079306 0.2041,2.508926 1.27941,4.232674 3.16979,5.021667 2.02264,0.844217 3.10712,0.762029 4.64239,-0.352223 0.11305,-0.08201 0.21236,-0.134971 0.31684,-0.198751 0.0881,-0.0444 0.16219,-0.09238 0.22581,-0.142157 9.7e-4,-4.97e-4 9.8e-4,-7.6e-4 0.003,-0.0012 0.49587,-0.257558 0.83645,-0.265442 0.83645,0.02013 0,0.230389 0.22513,0.425177 0.54752,0.548458 h 9.8e-4 c 9.8e-4,6.24e-4 0.003,6.38e-4 0.004,0.0012 0.20031,0.07569 0.42918,0.130823 0.68958,0.130823 0.063,0 0.11065,-0.0114 0.16753,-0.01503 0.047,0.0079 0.094,0.01503 0.14318,0.01503 0.007,0 0.0112,-0.0024 0.0183,-0.0025 0.007,8.8e-5 0.0128,0.0025 0.0183,0.0025 0.15594,0 0.28529,-0.08241 0.39333,-0.275483 0.47126,-0.625969 0.50261,-2.6797 0.50261,-9.385436 v -0.04779 c 0,-0.174348 -9.9e-4,-0.244421 -0.003,-0.412598 -9.8e-4,-5.145334 -0.0297,-7.489724 -0.29502,-8.458336 -3.4e-4,-0.0014 -8.5e-4,-0.0036 -9.8e-4,-0.005 -0.008,-0.02893 -0.0143,-0.06152 -0.0219,-0.08804 -0.007,-0.02243 -0.016,-0.04197 -0.0232,-0.0629 -8.7e-4,-0.0025 -9.8e-4,-0.005 -0.003,-0.0076 -0.0242,-0.0697 -0.0501,-0.132822 -0.0777,-0.184917 -4.6e-4,-8.56e-4 -7.7e-4,-0.0017 -9.8e-4,-0.0025 -0.004,-0.01044 -0.0111,-0.01901 -0.017,-0.02893 l -9.8e-4,-0.0012 c -0.025,-0.04243 -0.0511,-0.08254 -0.0789,-0.113211 -0.11258,-0.175996 -0.24673,-0.247815 -0.41034,-0.247815 -0.0395,0 -0.0718,0.01355 -0.1081,0.01887 -0.0673,-0.0058 -0.12645,-0.01887 -0.20277,-0.01887 z m -22.52598,0.130822 c -0.10125,-0.0076 -0.20351,0.0044 -0.30595,0.02517 -0.59097,-0.126594 -1.16949,0.400084 -1.29169,1.132137 -0.14512,0.27873 -0.16506,0.612927 -0.0412,0.949739 -0.01,0.723318 0.2978,0.982444 1.08655,0.982444 0.0192,0 0.0344,-0.0034 0.0533,-0.0037 0.008,5.09e-4 0.018,0.0037 0.0268,0.0037 0.044,0 0.0855,-0.0079 0.12739,-0.01503 1.35066,-0.07596 1.84871,-0.866022 1.34998,-2.212698 -0.20692,-0.558755 -0.59206,-0.830768 -1.00519,-0.861683 z m -15.39005,0.358511 v 0.798784 8.587908 0.03019 0.398766 0.07547 8.940125 0.0012 0.149692 l 2.06139,-0.135847 c 0.17526,7.8e-4 0.35809,-0.0031 0.54994,-0.01388 h 1.08291 c 1.09845,0 1.93391,-0.04084 2.61497,-0.150947 0.007,-9.13e-4 0.0128,-0.0016 0.0183,-0.0025 2.20866,-0.277506 3.20682,-1.052736 4.13735,-2.86305 1.11364,-2.166579 0.86729,-3.977067 -0.77332,-5.677054 -0.7833,-0.811626 -1.11666,-1.26024 -1.08048,-1.63531 9.8e-4,-0.01173 0.007,-0.02342 0.01,-0.03522 0.0345,-0.213661 0.18517,-0.406957 0.44917,-0.633995 0.48145,-0.414017 0.87531,-1.686295 0.87531,-2.827835 0,-1.140665 -0.25425,-2.045229 -0.80731,-2.747321 -6.9e-4,-9.47e-4 -9.9e-4,-0.0016 -0.003,-0.0025 -0.0688,-0.09684 -0.14192,-0.191408 -0.21974,-0.280514 -0.29517,-0.337946 -0.63992,-0.587011 -1.11449,-0.767342 -9.8e-4,-8.24e-4 -0.003,-0.0017 -0.007,-0.0025 -0.98297,-0.497372 -2.32384,-0.796074 -4.08879,-0.928351 z m 3.33126,2.787574 c 0.0934,-0.0063 0.21272,-5.91e-4 0.32778,0.0037 l 0.72596,0.05535 c 0.0215,0.0021 0.0363,0.0027 0.0584,0.005 1.49969,0.154632 2.54988,0.883966 2.87479,1.812677 0.0128,0.0963 0.0269,0.181394 0.0389,0.289325 0.0274,0.249698 0.0322,0.481996 0.0255,0.704442 -0.0493,0.25624 -0.14302,0.51664 -0.29987,0.776147 -0.37461,0.619908 -1.56267,1.218635 -2.63927,1.329632 -1.85122,0.190899 -1.95124,0.120149 -1.95576,-2.242892 0.004,-1.860629 0.0918,-2.498328 0.67257,-2.698263 0.0571,-0.0114 0.10382,-0.0307 0.17117,-0.03522 z m 11.58654,2.519639 c -1.10726,0 -1.22745,0.546519 -1.23708,6.033045 -4.8e-4,0.241607 -0.007,0.358453 -0.007,0.622679 0,0.01272 -1e-5,0.02376 0,0.03648 v 0.07043 c 0,0.07212 9.8e-4,0.09924 9.8e-4,0.169822 -2e-5,0.0633 -9.8e-4,0.08764 -9.8e-4,0.152202 0,5.259823 0.0626,6.246055 0.85589,6.410425 0.11353,0.0241 0.24174,0.03019 0.38726,0.03019 0.15659,0 0.29175,-0.0094 0.41156,-0.03774 0.55434,-0.131055 0.74044,-0.732124 0.80123,-2.9964 4e-5,-0.0014 -2e-5,-0.0037 0,-0.005 0.0233,-0.870978 0.0303,-1.95841 0.0303,-3.401447 0,-0.06511 -9.8e-4,-0.08967 -9.8e-4,-0.153475 2e-5,-0.07008 9.8e-4,-0.09699 9.8e-4,-0.168564 0,-6.333281 -0.0789,-6.762644 -1.24315,-6.762644 z m 6.21572,0 c -1.11364,0 -1.22991,0.537379 -1.23829,6.114809 -3.6e-4,0.212076 -0.004,0.311795 -0.004,0.540915 v 0.03774 0.06917 c 0,0.07212 9.9e-4,0.09924 9.9e-4,0.169822 -3e-5,0.0633 -9.9e-4,0.08764 -9.9e-4,0.152202 0,5.259823 0.0626,6.246055 0.85588,6.410425 0.11354,0.0241 0.24176,0.03019 0.38727,0.03019 0.0683,0 0.12214,-0.0085 0.18332,-0.01256 h 9.8e-4 c 0.0402,0.0081 0.0822,0.01256 0.12629,0.01256 0.0128,0 0.0226,-0.0058 0.0352,-0.0063 0.0223,8.71e-4 0.046,0.0063 0.0679,0.0063 0.12437,0 0.22867,-0.06537 0.32171,-0.173595 0.43473,-0.328896 0.50745,-1.242342 0.50745,-3.649264 0,-3.20532 0.30422,-5.186922 1.02099,-6.222985 v -0.0012 c 0.0676,-0.08139 0.13123,-0.163653 0.2076,-0.242779 0.11545,-0.119704 0.24216,-0.227534 0.37148,-0.328324 0.33463,-0.221027 0.72472,-0.330835 1.18123,-0.330835 0.42608,0 0.74976,-0.04744 0.99063,-0.153458 0.27879,0.01256 0.45097,-0.146106 0.5281,-0.500654 0.0306,-0.08392 0.0511,-0.179997 0.0511,-0.294355 0,-0.02758 -0.008,-0.04745 -0.008,-0.07421 0.003,-0.06418 0.008,-0.124661 0.008,-0.196239 0,-0.0084 -9.8e-4,-0.01553 -9.8e-4,-0.02392 5e-5,-0.0025 9.8e-4,-0.005 9.8e-4,-0.0076 0,-0.0058 -9.8e-4,-0.01054 -9.8e-4,-0.01635 4e-5,-0.0076 9.8e-4,-0.01371 9.8e-4,-0.02138 0,-0.01054 -9.8e-4,-0.01972 -9.8e-4,-0.03019 8e-5,-0.0043 9.8e-4,-0.0082 9.8e-4,-0.01256 0,-0.0061 -0.003,-0.01044 -0.003,-0.01636 -0.0143,-0.53667 -0.21645,-0.896791 -0.56936,-1.074269 -0.0184,-0.0099 -0.0379,-0.01758 -0.0571,-0.02642 -0.0261,-0.01123 -0.0525,-0.02209 -0.0802,-0.03143 -0.0503,-0.01836 -0.10232,-0.03282 -0.15658,-0.04403 -0.12884,-0.02663 -0.26772,-0.03523 -0.41641,-0.02138 -0.50539,0.02523 -1.1371,0.231076 -1.86593,0.635256 -0.82878,0.459584 -1.20189,0.459584 -1.20189,0 0,-0.366722 -0.55941,-0.666707 -1.24315,-0.666707 z m 12.34167,2.576245 c 0.44823,0 0.93211,0.08324 1.36211,0.212591 0.003,0.0018 0.007,0.0033 0.01,0.005 0.60608,0.311642 0.99087,0.647095 1.24438,1.195036 0.004,0.01077 0.01,0.02064 0.0143,0.03146 0.24878,0.55674 0.36727,1.330304 0.4419,2.518383 0.0293,0.465991 0.0375,0.881842 0.0279,1.264222 -0.16238,1.167263 -0.51018,2.2286 -1.03919,2.724675 -1.51058,1.416464 -2.94536,1.344568 -4.45785,-0.222653 -2.49231,-2.582492 -0.89685,-7.728736 2.39646,-7.728736 z m -29.24313,2.576245 c 0.0713,0 0.13824,0.0043 0.20759,0.0063 0.11943,0.0021 0.23554,0.0099 0.35085,0.01761 2.2373,0.181098 3.41616,1.472339 3.18799,3.549886 -0.19051,1.734838 -0.43896,1.917366 -2.85051,2.098229 l -2.46444,0.184918 c -0.16893,-0.447724 -0.17724,-1.237764 -0.17724,-2.636627 V 55.07055 c 0,-2.787787 0.0878,-2.93601 1.74576,-2.93601 z M 89.026717,73.437565 c -0.18841,0.0033 -0.392496,0.0202 -0.585146,0.02765 -11.919445,0.207979 -24.055123,4.980936 -28.643423,11.544049 -0.995374,1.423787 -2.303151,3.824965 -2.906348,5.336144 -1.016549,2.546709 -1.372419,2.831057 -4.870612,3.892042 -8.279948,2.51134 -14.970195,6.95123 -17.151575,11.38177 -1.505415,3.05761 -1.073682,3.43283 4.04509,3.52096 2.315345,0.0399 6.131995,0.84559 10.028962,2.11584 l 5.821181,1.89696 c 0.08658,0.0596 0.184153,0.12178 0.239164,0.1761 0.09726,0.0961 0.194055,0.16726 0.290142,0.22644 l 0.09105,0.23146 1.311125,4.19519 c 0.723617,2.31502 1.15891,4.35288 1.336638,7.00166 0.04863,1.80999 0.03508,4.16866 -0.02551,7.21047 -0.117198,2.48141 -0.323292,5.44921 -0.617931,9.10742 l -0.02551,-0.60883 0.01276,0.76859 c -0.01276,0.16615 -0.02136,0.29394 -0.03524,0.46293 -1.440347,17.67404 0.850733,36.02241 5.58447,44.73583 5.274223,9.70837 12.519804,19.07123 19.260299,24.88694 l 4.470001,3.85682 -3.354319,0.50316 c -11.588943,1.73974 -19.146686,3.28876 -25.420206,5.21036 -4.707476,1.44198 -7.496513,2.00097 -8.167877,1.63532 -1.450143,-0.7898 -4.779866,-6.19167 -5.630596,-9.13384 -0.480428,-1.6615 -0.778517,-2.2002 -1.413108,-2.17624 -0.215796,-0.0552 -0.474397,-0.0132 -0.798822,0.13467 -0.143461,0.0653 -0.320496,0.12689 -0.512313,0.1824 -0.654065,0.14441 -1.421181,0.24451 -1.969129,0.24279 -0.492636,-9.9e-4 -0.814133,0.074 -1.028272,0.27549 -0.03376,0.0273 -0.06603,0.0568 -0.09468,0.0893 -6.7e-4,8.9e-4 -0.0017,9.9e-4 -0.0024,0.003 -0.187808,0.21503 -0.270713,0.5394 -0.269513,1.01012 9.2e-5,0.0356 0.0056,0.0735 0.0061,0.10936 -0.0052,0.12425 -0.0097,0.24912 -0.0097,0.39372 0,2.5578 1.576871,6.28285 3.606835,8.52123 l 1.386397,1.52966 -0.665277,-0.0189 c -0.973673,-0.027 -1.822625,-0.064 -2.616196,-0.10692 l -0.146904,-0.0188 c -0.83457,-0.10422 -8.08381,-2.6322 -15.871435,-4.65036 -11.29553,-2.92725 -24.2740986,-5.69077 -25.0449539,-6.01035 -3.5344089,-1.46535 -3.6022096,-0.41629 -0.081338,1.25792 1.12528374,0.53511 13.2091549,3.16579 24.0149849,5.92616 8.483284,2.16707 16.089894,4.64542 17.587322,4.6943 2.303742,0.26008 4.735355,0.34406 6.826392,0.15978 0.425792,-0.0375 0.944639,-0.10924 1.498089,-0.19498 3.36883,-0.17716 5.497681,-0.71608 10.639621,-2.29826 10.382738,-3.19478 24.099019,-5.75487 28.909278,-5.61413 0.533101,0.0305 0.981997,0.0866 1.251648,0.19371 0.430526,0.17118 0.585659,0.38194 0.388478,0.8076 l -0.0012,9.8e-4 c -0.23124,0.42034 -0.723442,0.95883 -1.35362,1.4416 -1.826065,1.3989 -4.331595,5.66374 -4.331595,7.37272 0,0.005 -0.0016,0.01 -0.0032,0.0165 -0.10795,0.17932 -0.219026,0.33255 -0.332653,0.45665 -0.443648,0.27377 -1.44642,0.47045 -3.042313,0.63903 -1.416429,0.0421 -2.964136,0.21321 -4.768643,0.54971 -6.05639,1.0092 -14.975552,3.71662 -24.486636,7.48093 -4.102396,1.62364 -8.717585,3.13156 -10.255983,3.35112 -2.558108,0.36507 -2.723827,0.30795 -1.943631,-0.67299 0.469189,-0.58991 0.600322,-1.07302 0.291363,-1.07302 -0.01071,0 -0.02499,0.005 -0.03641,0.007 -0.0092,-9.4e-4 -0.01404,-0.007 -0.02429,-0.007 -0.287995,0 -0.898945,0.48017 -1.669263,1.23402 -0.105962,0.1038 -0.222008,0.22689 -0.333853,0.34092 -2.415097,2.38675 -6.047641,6.90898 -7.155391,9.21309 -0.960372,1.99754 -1.451171,2.92867 -1.960634,3.1876 -0.0193,0.01 -0.03887,0.0132 -0.05829,0.0213 -0.113611,0.026 -0.237926,0.0375 -0.367849,0.0441 -0.282256,-0.0379 -0.60261,-0.2163 -1.027052,-0.49438 -0.789114,-0.51703 -0.689576,-1.09313 0.694417,-4.01656 0.888422,-1.87664 2.651027,-4.8163 3.916404,-6.5337 1.272704,-1.72739 1.914431,-2.96926 1.895074,-3.42787 0.04027,-0.14308 0.021,-0.20988 -0.07892,-0.17234 -0.178759,-0.10358 -0.65238,0.16406 -1.444676,0.90697 -1.467575,1.3762 -3.202477,1.12425 -9.097806,-1.31956 -0.441641,-0.18309 -22.41640819,-6.38166 -22.82718231,-6.53474 -1.24148309,-0.62412 -2.37182809,-0.984 -2.55428539,-0.795 -6.843e-4,7.1e-4 -5.724e-4,9.8e-4 -0.00118,0.003 -0.3134974,-0.0596 -0.5459798,-0.0796 -0.6033641,-0.0202 -0.4519762,0.46832 28.4289068,9.97855 31.1504518,10.58527 l 1.818592,0.40505 c 0.04069,0.0694 0.04767,0.15284 0.02671,0.25158 l -1.705687,2.43913 c -1.831868,2.62031 -4.130083,9.25082 -3.450223,9.95526 0.06267,0.065 0.268402,0.12739 0.525664,0.18618 0.124773,0.31081 0.335071,0.41499 0.637356,0.22141 0.04922,-0.0315 0.107695,-0.06 0.172395,-0.0881 0.452872,0.0555 0.96142,0.10013 1.505372,0.11566 2.173803,0.0625 2.53158,-0.13201 2.83229,-1.53847 0.189352,-0.88556 1.697235,-3.51635 3.350679,-5.84559 l 2.986467,-4.20653 c 0.0097,-0.01 0.01953,-0.0208 0.02913,-0.0302 l 4.58047,-0.99753 c 2.524114,-0.55027 9.064297,-2.65138 14.534154,-4.6682 10.326818,-3.80764 17.365444,-5.76036 23.445018,-6.50351 1.288866,-0.15746 2.105046,-0.25268 2.750946,-0.18869 0.06777,0.01 0.141116,0.0149 0.206381,0.0264 0.01116,9.8e-4 0.02104,0.003 0.03157,0.005 0.106669,0.0195 0.20391,0.0479 0.304716,0.073 0.822527,0.24846 1.457487,0.90385 2.789804,2.29823 1.391538,1.45634 2.639598,2.64796 2.772806,2.64796 0.133303,0 0.694629,-0.46819 1.246786,-1.0403 0.891457,-0.92365 1.419537,-0.94491 4.720088,-0.1862 2.247437,0.51664 3.588018,1.1081 4.334025,1.9234 0.06862,0.34977 0.280447,0.65248 0.565724,0.88684 0.109543,0.12855 0.228257,0.25099 0.353282,0.3585 0.239822,0.20623 0.441209,0.33559 0.63372,0.40128 0.760395,0.3926 1.512915,0.152 2.012835,-0.77362 0.65348,-1.20993 3.86905,-0.62759 3.86905,0.70067 0,1.1545 1.29201,1.51995 2.83837,0.80255 0.99584,-0.46201 2.39437,-0.0165 6.21574,1.97999 2.71194,1.4168 6.60957,2.91554 8.66077,3.33101 5.22944,1.05929 8.21246,2.5389 15.1181,7.49727 9.04413,6.49384 20.52556,15.63956 21.56572,17.17832 0.54227,0.80222 0.9232,2.82558 0.92508,4.92229 0.004,4.1773 0.96886,8.25325 2.32968,9.83955 1.08376,1.26332 3.28784,1.48656 4.30246,0.43524 0.47669,-0.49393 0.78814,0.19857 1.08898,2.41524 0.64926,4.78366 1.59925,7.45023 3.34337,9.38668 2.58904,2.87457 5.88639,2.32347 8.35971,-1.39629 l 0.95786,-1.43908 c 0.0832,0.11481 0.19818,0.3176 0.30956,0.51575 l 0.39821,1.08433 c 0.34668,0.94478 1.66672,4.17387 2.01426,4.17387 1.19768,0 -2.19194,-7.91789 -5.72794,-12.76051 -7.28934,-9.98282 -20.69215,-22.3025 -37.58097,-34.54407 -9.79875,-7.10251 -10.58359,-7.52535 -16.47172,-8.87473 -2.56397,-0.58758 -6.66389,-2.12471 -9.10995,-3.41527 -4.42227,-2.33318 -4.44108,-2.3552 -3.47087,-3.88954 0.53668,-0.84866 1.90452,-2.19699 3.03989,-2.99639 1.96169,-1.3812 2.25826,-1.41304 5.95838,-0.63022 5.27845,1.11675 13.7758,2.18124 17.41502,2.18124 2.69448,0 3.36939,0.33164 6.88587,3.38133 2.14438,1.85971 7.79875,6.71434 12.56503,10.78804 19.19814,16.40849 31.45156,30.27006 36.99825,41.85392 0.61806,1.29077 2.99672,8.04499 3.42419,8.6796 0.19236,0.51949 0.45849,0.83981 0.62643,0.77613 0.58283,0.50372 -1.32355,-6.33271 -2.48092,-9.04439 -1.73786,-4.07189 -5.04236,-9.54846 -8.91327,-14.76939 l -1.48107,-1.99759 c -0.66852,-1.28489 -0.92164,-2.395 -1.11086,-4.12728 l 0.21975,-2.89199 c 0.22099,-2.90181 0.55148,-7.20501 0.73449,-9.5628 0.58818,-7.57957 -2.42126,-24.33605 -8.53938,-47.54606 -1.06803,-4.0518 -2.0307,-7.57255 -2.6854,-9.87099 -0.54274,-2.31364 -0.98676,-4.51602 -1.3087,-6.49723 -0.11736,-1.21315 -0.2361,-2.5528 -0.34234,-4.02789 -1.75496,-24.36489 -12.71354,-45.6763 -32.24297,-62.70164 -0.98918,-0.86236 -1.9606,-1.75805 -2.92334,-2.68568 -0.7275,-0.72657 -1.35326,-1.35936 -2.13181,-2.13346 -6.65933,-6.90896 -13.06376,-15.92485 -21.41639,-29.960166 -7.09981,-11.930174 -12.72226,-16.09655 -22.436169,-16.624833 -0.282823,-0.01533 -0.567258,-0.02409 -0.851038,-0.03397 -0.58352,-0.03153 -1.173946,-0.04885 -1.785801,-0.03775 z m -0.0303,1.28686 c 0.336321,-0.0011 0.668749,0.0023 0.999122,0.01 0.113531,0.0044 0.228337,0.0067 0.341136,0.01121 0.156743,0.0056 0.312162,0.01276 0.467406,0.0201 1.597345,0.09426 3.123031,0.292506 4.558609,0.598779 0.03475,0.0078 0.06728,0.01765 0.102051,0.0252 0.2163,0.05151 0.43381,0.101913 0.643413,0.159753 7.335316,2.025364 10.479666,5.114967 17.935826,17.618598 8.04336,13.488375 15.49617,23.585985 21.52687,29.168925 15.61692,14.45746 21.79594,22.09526 27.60787,34.12518 5.21484,10.79402 7.82791,21.04769 8.7846,34.46734 0.0927,1.29957 0.21685,2.50059 0.34598,3.55115 0.003,0.0466 0.008,0.086 0.0143,0.12706 0.18338,1.46275 0.37814,2.55824 0.5293,2.76242 0.70623,0.95372 5.89591,22.42828 8.01613,33.16917 2.4987,12.65826 3.29739,18.55797 3.32276,24.5586 0.0247,5.85346 -0.64034,7.16114 -3.49273,6.87206 -2.4818,-0.25149 -3.17584,-1.7929 -4.66909,-10.37289 -1.11604,-6.41269 -2.2557,-9.9703 -2.95975,-9.24077 -0.17731,0.18371 -0.0244,1.2956 0.33871,2.47058 0.36315,1.175 1.06354,4.74441 1.55636,7.93252 0.49284,3.1881 1.18971,6.57815 1.54909,7.53376 0.88597,2.35603 3.40159,3.98528 5.36592,3.4744 0.64262,-0.16713 1.01964,-0.24059 1.24195,-0.0491 0.28206,0.34059 0.31399,1.04198 0.31563,2.43912 5e-5,0.042 9.8e-4,0.0714 9.8e-4,0.1145 v 0.0132 c -1.3e-4,0.48685 -0.0164,0.83505 -0.0279,1.22899 -0.0317,0.70563 -0.0883,1.25517 -0.15898,1.50701 -0.0376,-0.0332 -2.17979,-2.23628 -2.96705,-3.04168 -0.0209,-0.0257 -0.0398,-0.047 -0.0608,-0.073 -1.35359,-1.66335 -4.72832,-5.12099 -7.79154,-8.01304 -4.1315,-4.37182 -7.35706,-8.20252 -7.80852,-9.32002 -1.48403,-3.67338 -6.19621,-9.77532 -9.94763,-12.88122 -1.92536,-1.59404 -3.51391,-3.22086 -3.53035,-3.6153 -0.004,-0.11401 -0.21924,-0.21997 -0.61428,-0.31952 l -0.12628,-0.13086 -0.45647,0.0166 c -1.56857,-0.2677 -4.70308,-0.4804 -9.55428,-0.64279 -5.89718,-0.19752 -13.17285,-0.82682 -16.16822,-1.39883 -25.140952,-4.80112 -42.883684,-16.67286 -56.211217,-37.61091 -7.726158,-12.13811 -9.100905,-18.12453 -9.113582,-39.70412 -0.0032,-5.96311 0.05166,-12.70491 0.131072,-17.66516 0.246403,-3.71821 0.323834,-6.53026 0.191805,-8.84703 0.01594,-3.55311 -0.281642,-5.07519 -1.234651,-7.84572 -0.88677,-2.57799 -1.196429,-4.3616 -0.838885,-4.83046 0.311764,-0.40886 0.904709,-2.24004 1.318427,-4.06941 0.617884,-2.73226 0.616321,-3.43894 -0.185747,-4.79271 -0.114329,-0.2205 -0.243088,-0.45423 -0.396992,-0.71578 -0.06299,-0.10702 -0.117199,-0.21693 -0.17481,-0.3258 -0.55949,-1.25055 -0.757629,-2.90679 -0.747838,-5.946247 0.01881,-5.825473 1.788976,-9.961739 5.919532,-13.828447 5.469425,-5.12004 16.84596,-8.651266 26.112204,-8.69483 z M 66.248246,92.114084 c -0.07926,0.0033 -0.158656,0.02809 -0.237953,0.0453 -1.227491,-0.0023 -1.909204,0.695896 -1.776092,1.527133 -0.02248,0.05917 -0.03794,0.111772 -0.03397,0.144666 -0.193545,0.485698 -0.102845,0.812996 0.352058,0.577386 0.139522,0.195578 0.320199,0.39019 0.554803,0.576131 0.258778,0.205104 0.508179,0.362503 0.747838,0.484311 0.0048,0.0044 0.0095,0.0078 0.01276,0.01255 0.245081,0.358273 0.560497,0.469712 0.927512,0.338379 0.210527,-0.01865 0.422951,-0.0887 0.621582,-0.203783 0.01722,-0.0088 0.03428,-0.01887 0.05102,-0.02897 0.03794,-0.02376 0.07399,-0.05095 0.110501,-0.07805 0.01642,-0.01288 0.03413,-0.02376 0.04975,-0.03775 0.349235,-0.278796 0.623974,-0.709007 0.700496,-1.262957 0.07031,-0.509245 -0.08563,-0.952001 -0.371496,-1.290635 -0.178811,-0.357962 -0.511479,-0.550332 -1.085322,-0.66419 -0.206908,-0.09104 -0.414357,-0.147763 -0.624006,-0.139637 z m -11.581672,2.737258 c 0.03125,-6.54e-4 0.05757,0.0033 0.08626,0.0044 0.378766,0.204793 0.550355,0.656897 0.62037,1.379947 0.01803,0.424373 0.02184,0.943997 0.02184,1.635319 0,1.78929 0.383821,4.205492 0.853445,5.370102 l 0.824311,2.04163 c -0.0015,0.01 0.008,0.0494 0.0032,0.0528 -0.0095,0.009 -0.272091,0.0445 -0.429759,0.0691 l -7.701699,0.75728 c -4.486551,0.44142 -9.205861,0.96471 -10.487858,1.16359 -2.807428,0.43575 -2.947693,-0.23182 -0.643423,-3.06936 2.756758,-3.39475 10.554825,-7.925683 15.872003,-9.221902 0.42303,-0.103133 0.741348,-0.178636 0.980926,-0.183654 z m -4.043892,4.431707 c -0.10652,-0.01394 -0.171955,0.05036 -0.191807,0.187426 -0.0064,0.0029 -0.01276,0.0049 -0.01946,0.0088 -0.34745,0.222504 -0.46983,0.674085 -0.273159,1.003825 v 9.8e-4 c 0.466608,0.78147 2.148798,0.77614 2.148798,-0.008 0,-0.742966 -0.826257,-1.284078 -1.529657,-1.132132 -0.04624,-0.02307 -0.09742,-0.05674 -0.134738,-0.06165 z m 6.698925,7.439411 -0.426124,1.85042 c -0.755237,3.28293 -0.893069,3.32317 -5.85154,1.7372 -2.563985,-0.82008 -5.22122,-1.52162 -5.904951,-1.55983 -0.0738,-0.005 -0.119958,-0.0132 -0.176031,-0.0189 -0.104987,-0.0423 -0.218029,-0.0848 -0.292574,-0.1221 0.183719,-0.31582 4.109662,-1.04914 8.113245,-1.44158 z m 42.145672,13.1064 c -1.739415,0.0592 -4.830658,0.83528 -6.805765,1.87934 -3.07006,1.62289 -7.126931,5.85913 -8.73118,9.1175 -1.704704,3.46237 -3.050813,9.27252 -3.050813,13.16678 0,14.53527 9.731721,35.95349 23.027399,50.67832 3.38041,3.74377 6.77623,6.90586 10.78409,9.94017 0.24258,0.19358 0.48384,0.38895 0.72839,0.57992 0.44413,0.3468 1.10882,0.80502 1.8635,1.30824 4.09934,2.86394 8.87834,5.69582 14.87652,8.88604 17.9356,9.53925 26.51806,15.69707 30.29205,21.73202 h -9.9e-4 c 1.06061,1.69599 2.12848,3.0832 2.3722,3.0832 0.65409,0 3.32644,-3.79584 4.83783,-6.87081 5.23742,-10.6555 1.35333,-30.74573 -9.94032,-51.41673 -5.53067,-10.12293 -19.59285,-30.70796 -21.86316,-32.1691 -0.11385,-0.1058 -0.19161,-0.15746 -0.21732,-0.13085 -0.004,0.005 9.8e-4,0.0266 0.003,0.0403 -0.0265,9e-4 -0.0503,0.007 -0.0669,0.0239 -0.19674,0.20382 0.31642,1.30858 1.13994,2.45548 18.27097,25.44525 28.42864,45.4859 31.0945,61.34811 1.0824,6.44055 0.50296,15.38414 -1.25043,19.31303 l -1.43617,3.2203 -0.79276,-4.50842 c -1.53675,-8.74153 -7.37861,-24.79637 -9.02253,-24.79637 -0.19475,0 -0.33319,0.0469 -0.42733,0.12954 -0.0781,9.8e-4 -0.1086,0.0511 -0.0935,0.14209 -0.14048,0.35139 0.13713,1.0466 0.85223,2.10451 0.12422,0.18378 0.25613,0.41962 0.38727,0.64783 0.78008,1.69588 1.52918,3.33448 2.08689,4.63549 2.13427,5.60112 4.36108,13.64977 5.05637,18.58846 0.29837,2.69197 0.30993,4.7757 -0.0813,5.22043 l -1.04527,-1.51958 c -4.61969,-6.71391 -12.91507,-12.79721 -30.3309,-22.24276 -15.10715,-8.19341 -18.48385,-10.63297 -27.0737,-19.5621 -12.662114,-13.16225 -21.660698,-30.25462 -23.939102,-45.47048 -1.226199,-8.18896 0.62399,-15.95197 4.450563,-21.25655 1.589037,-2.04389 3.446754,-3.76778 5.382938,-5.00154 1.610387,-0.94006 3.365432,-1.57159 5.238474,-1.82903 0.504884,-0.0694 0.960612,-0.16593 1.379113,-0.2717 1.067774,-0.0319 1.482364,-0.15697 1.228584,-0.42268 0.24061,-0.12639 0.38968,-0.25219 0.38968,-0.36607 0,-0.31144 -0.51199,-0.43316 -1.302612,-0.4063 z m -6.39785,10.23706 c -2.017457,0 -4.836393,7.53579 -3.792576,10.13892 0.154829,0.38618 0.318269,0.40126 0.503809,0.0278 0.04943,-0.0165 0.107154,-0.16356 0.169962,-0.42644 0.156106,-0.47509 0.32889,-1.19707 0.526884,-2.18126 0.410721,-2.04155 1.364748,-4.57754 2.119667,-5.63554 1.037566,-1.45419 1.152804,-1.92337 0.472254,-1.92337 z m 0.150525,3.93732 c -0.08149,-0.0466 -0.32299,0.25206 -0.795181,0.8554 -0.538172,0.68762 -0.978504,1.77445 -0.978504,2.41522 0,0.0757 0.01594,0.14209 0.02312,0.21386 -0.01435,0.0857 -0.02312,0.16539 -0.02312,0.23649 0,0.4772 0.124534,0.63005 0.307157,0.54845 0.09248,0.10291 0.199556,0.16605 0.314426,0.16605 0.341869,0 0.625362,-0.36229 0.630066,-0.80508 0.0032,-0.30553 0.092,-0.92247 0.202746,-1.5636 0.01993,-0.0708 0.04321,-0.13466 0.06187,-0.20757 0.20756,-0.80956 0.2951,-1.18942 0.203956,-1.20509 0.07096,-0.36549 0.108908,-0.62239 0.05342,-0.65413 z m -51.125723,79.43213 c 0.306013,0.0219 0.53635,0.41946 0.858306,1.29693 0.347536,0.94714 0.632502,1.9703 0.632502,2.27434 0,0.30404 0.97898,1.8816 2.175512,3.50585 1.19653,1.62424 2.175509,3.09658 2.175509,3.27063 0,0.1079 -0.04001,0.18817 -0.100755,0.25411 -0.07485,0.008 -0.149695,0.018 -0.233089,0.0251 l -1.324488,-0.0376 c -0.967898,-0.29917 -2.127582,-0.93252 -2.818933,-1.69696 -2.032556,-2.24742 -4.238318,-6.8106 -4.150714,-8.02182 0.04364,-0.14639 0.11873,-0.24947 0.224595,-0.30819 0.08953,9.8e-4 0.203193,0.0422 0.349635,0.13581 0.35684,0.22852 1.052065,0.0697 1.544228,-0.35348 0.273565,-0.23526 0.484093,-0.35774 0.667702,-0.34467 z m 49.514713,5.64937 c 0.777274,-0.008 0.523902,1.05217 -1.028269,2.46429 -1.146856,1.0434 -2.688328,3.34728 -3.424717,5.12105 -0.976194,2.35119 -1.600757,3.37937 -1.81374,3.053 -0.02871,-0.16142 -0.05437,-0.33325 -0.07159,-0.5535 0.0012,-0.36043 0.04496,-0.85702 0.154192,-1.55478 0.438977,-2.80299 2.559761,-6.46627 4.510056,-7.79039 0.754137,-0.512 1.320819,-0.73609 1.674121,-0.73967 z m 3.042316,1.52713 c 0.06522,0.005 0.122778,0.0231 0.182112,0.039 0.09455,0.0578 0.186193,0.11352 0.295005,0.18493 0.06745,0.0443 0.118633,0.0896 0.168749,0.13466 0.149089,0.37528 -0.355166,1.0396 -1.725114,2.41145 -1.277927,1.27972 -2.998688,3.84877 -3.824149,5.7085 -0.618394,1.39321 -1.218993,2.59603 -1.543003,3.11211 -0.150046,-0.003 -0.2822,-0.0907 -0.388478,-0.25913 -0.04656,-0.27725 -0.0759,-0.64911 -0.08866,-1.06548 0.124374,-1.31792 0.556032,-3.18038 1.156949,-4.55117 1.274324,-2.90694 4.266554,-5.81261 5.766553,-5.71479 z m 2.963421,1.93343 c 0.727237,0.0302 1.659988,0.46646 3.593459,1.41393 l 3.23051,1.58249 c 0.12629,0.16731 0.11927,0.31137 -0.0219,0.44907 l -1.44104,0.75224 c -1.04234,0.54386 -2.57156,2.05518 -3.398024,3.35869 -0.835027,1.31695 -1.256493,1.97836 -1.977623,2.1498 -0.257534,0.0166 -0.538398,0.0173 -0.842525,0.003 -0.680788,-0.0896 -1.591173,-0.36998 -3.004684,-0.82018 l -2.18643,-0.69689 c -0.195794,-0.16505 -0.351356,-0.34189 -0.46012,-0.53335 -0.0064,-0.11995 0.0048,-0.26068 0.03891,-0.42393 l 1.246784,-2.37121 c 0.889195,-1.6928 2.413047,-3.56578 3.385874,-4.16124 0.640319,-0.39191 1.066109,-0.6332 1.535726,-0.69059 0.09793,-0.0116 0.19718,-0.0149 0.301086,-0.0116 z m -29.392477,1.87811 c -0.586247,-0.0149 -2.571511,0.48533 -4.79291,1.22522 -9.616643,3.20308 -14.373564,4.77397 -17.094516,5.50723 -1.176391,0.2698 -2.191695,0.45219 -3.109084,0.57612 -0.470357,0.007 -0.86459,-0.0455 -1.319633,-0.12078 -1.298849,-0.21519 -3.06052,-0.18625 -3.915193,0.064 -1.403371,0.41121 -1.313038,0.49432 0.932364,0.85666 1.868149,0.30146 3.324931,0.4486 4.673947,0.4302 0.06217,0.01 0.318543,0.051 0.356921,0.0567 0.107233,0.0149 0.369724,-0.0285 0.7017,-0.10192 1.66909,-0.14225 3.283997,-0.575 5.455769,-1.35227 2.393067,-0.85648 7.148106,-2.44904 10.566764,-3.53984 6.33089,-2.01993 8.310445,-2.93546 7.70535,-3.56246 -0.02328,-0.0241 -0.07766,-0.0368 -0.161479,-0.039 z m 38.691796,2.28063 1.45682,0.0177 c 0.46958,0.0924 -0.0408,0.38136 -1.82829,1.29818 -1.64684,0.84467 -3.26133,2.3966 -4.35103,4.1839 -0.94708,1.55335 -1.69865,2.45478 -2.1658,2.74733 -0.250485,-0.0179 -0.401341,-0.31003 -0.462534,-0.85415 0.125174,-0.60555 0.431205,-1.48625 0.961494,-2.64417 1.10002,-2.40199 3.91406,-4.47469 6.32501,-4.74493 0.0213,-4e-5 0.0431,-0.003 0.0644,-0.003 z m 1.4289,1.9825 c 0.0463,0.27394 -0.42956,1.28816 -1.19338,2.49698 -0.93241,1.47566 -2.12115,2.57625 -2.78251,2.57625 -0.94646,0 -1.03898,-0.22282 -0.51473,-1.23779 0.50098,-0.96997 2.17185,-2.58689 3.36523,-3.40396 0.46665,-0.2249 0.84245,-0.36861 1.12539,-0.43148 z m 4.33646,0.0116 c 0.13489,9.9e-4 0.27005,0.01 0.4079,0.0251 l 1.86837,0.20628 -3.9856,3.75368 c -4.07798,3.84096 -4.62233,3.88484 -3.13823,0.25158 0.23035,-0.56393 0.48909,-1.05529 0.76119,-1.50951 0.36659,-0.55062 0.77337,-1.07793 1.20673,-1.5548 0.84617,-0.78845 1.81548,-1.18753 2.87964,-1.17241 z m 33.27244,3.80903 c 2.54277,-0.0273 3.32928,0.16775 5.28945,1.82526 l 0.003,0.003 4.18833,4.45685 c 3.26705,3.47619 6.44555,7.24393 7.06313,8.3728 v 9.8e-4 c 1.38303,2.52791 1.05893,2.57421 -1.56728,0.22644 -1.12295,-1.0039 -5.39849,-4.52177 -9.50087,-7.81804 -4.10239,-3.29632 -7.72534,-6.2427 -8.05012,-6.54755 -0.2497,-0.23434 0.341,-0.42345 1.43738,-0.50695 z m -28.19909,0.43901 c -0.12899,0.008 -0.20032,0.0549 -0.20032,0.1434 0,1.12076 4.79232,3.23194 9.47174,4.17258 5.55614,1.11685 9.09672,2.72455 13.48282,6.12108 1.85655,1.4377 3.60602,2.61399 3.88727,2.61399 0.28121,0 2.32476,1.93626 4.54162,4.30212 2.21685,2.36585 4.20569,4.12064 4.41901,3.8996 0.0128,-0.0132 0.0173,-0.0342 0.0219,-0.0554 0.0179,-9.8e-4 0.0356,-0.005 0.046,-0.0165 0.18369,-0.19037 -0.33827,-0.99528 -1.18489,-1.91332 -1.95596,-2.59546 -5.89105,-6.85222 -7.16146,-7.45199 -0.80484,-0.37997 -2.92202,-1.80722 -4.70429,-3.17124 -3.80708,-2.91363 -8.57786,-4.90601 -13.90774,-5.80915 -2.10631,-0.35689 -4.97334,-1.25364 -6.37114,-1.99257 -1.04835,-0.55412 -1.95344,-0.86908 -2.34061,-0.84281 z m 37.65504,19.49167 c -0.0547,0 -0.0931,0.0149 -0.12022,0.0376 -0.54105,-0.0223 -0.30374,0.33256 0.8838,1.66676 0.8995,1.0106 2.04944,2.68155 2.55548,3.71216 0.14813,0.30166 0.4923,0.75354 0.95059,1.2831 0.54966,0.97643 1.05816,1.67304 1.25286,1.67304 0.094,0 0.45718,0.23997 0.91657,0.56985 0.83174,0.79322 1.75233,1.61956 2.68783,2.39385 4.783,3.9588 6.61027,4.86279 4.24176,2.09948 -0.65315,-0.76202 -2.58586,-2.52785 -4.29519,-3.92476 -1.70931,-1.39692 -4.08685,-4.03345 -5.28337,-5.85819 -1.16009,-1.76918 -2.63475,-3.31298 -3.34703,-3.52346 -9.9e-4,-4.5e-4 -0.003,-9.8e-4 -0.004,-0.003 -0.1656,-0.0822 -0.31301,-0.12706 -0.43825,-0.12706 z m 6.74991,16.74557 c 0.12517,0 1.6089,1.2318 3.29604,2.73729 2.59641,2.31688 3.06755,3.08607 3.0678,5.00908 1.9e-4,1.24955 -0.43536,2.91606 -0.96756,3.70335 -0.58979,0.87249 -1.19125,1.32664 -1.76761,1.38498 -0.62978,0.005 -1.17828,-0.38997 -1.72754,-1.18246 -0.18948,-0.30986 -0.36722,-0.68214 -0.53415,-1.11074 -0.18001,-0.52934 -0.36958,-1.24394 -0.55602,-2.01898 -0.51914,-2.79972 -1.10724,-8.52252 -0.81096,-8.52252 z m 8.4993,7.99166 c 0.0343,0.003 0.0787,0.0311 0.11895,0.0477 0.0513,0.0408 0.12884,0.1178 0.18575,0.16605 l 2.1391,2.42152 c 1.56411,1.77116 3.85454,4.70773 5.09034,6.52615 2.20337,3.24222 2.2283,3.345 1.25529,5.29464 -0.54571,1.0935 -1.53114,2.28698 -2.18885,2.65172 -0.32349,0.17935 -0.55032,0.30925 -0.74543,0.40379 -0.24509,0.0859 -0.48946,0.13135 -0.73203,0.14854 -0.30617,-0.044 -0.68665,-0.2119 -1.41189,-0.51576 -2.21897,-0.9297 -3.52184,-4.87193 -3.83023,-11.5906 l -0.23794,-5.19149 c 0.10093,-0.24604 0.20095,-0.37943 0.35692,-0.36228 z"
       id="path1430" />
  </g>
  <path
     id="rect815"
     d="M -0.03958472,-0.06353961 V 297.06354 H 210.03959 V -0.06353961 Z m 0.26458,0.26458 H 209.775 V 296.79896 H 0.22499528 Z"
     style="opacity:1;fill:#000000;fill-opacity:1;fill-rule:evenodd;stroke:none;stroke-width:6.92346334;stroke-miterlimit:4;stroke-dasharray:none;stroke-opacity:1" />
</svg>
