<?xml version="1.0" encoding="UTF-8" standalone="no"?>
<svg
   xmlns:dc="http://purl.org/dc/elements/1.1/"
   xmlns:cc="http://creativecommons.org/ns#"
   xmlns:rdf="http://www.w3.org/1999/02/22-rdf-syntax-ns#"
   xmlns:svg="http://www.w3.org/2000/svg"
   xmlns="http://www.w3.org/2000/svg"
   width="210mm"
   height="297mm"
   viewBox="0 0 210 297"
   version="1.1"
   id="svg2634">
  <title
     id="title3209">Bear with flower</title>
  <defs
     id="defs2628" />
  <metadata
     id="metadata2631">
    <rdf:RDF>
      <cc:Work
         rdf:about="">
        <dc:format>image/svg+xml</dc:format>
        <dc:type
           rdf:resource="http://purl.org/dc/dcmitype/StillImage" />
        <dc:title>Bear with flower</dc:title>
        <dc:creator>
          <cc:Agent>
            <dc:title>Lena London</dc:title>
          </cc:Agent>
        </dc:creator>
        <dc:source>http://www.supercoloring.com/coloring-pages/cute-cartoon-bear</dc:source>
        <dc:date>2020-04-02</dc:date>
        <dc:subject>
          <rdf:Bag>
            <rdf:li>animals</rdf:li>
            <rdf:li>bear</rdf:li>
            <rdf:li>csk</rdf:li>
          </rdf:Bag>
        </dc:subject>
      </cc:Work>
    </rdf:RDF>
  </metadata>
  <path
     id="path3204"
     transform="scale(0.26458333)"
     d="M 422.00781 226.86914 C 420.73891 226.83089 419.5365 227.00567 418.45703 227.41992 C 417.58993 227.7526 416.96244 228.22191 416.52148 228.84961 C 415.74521 229.26478 415.54492 229.9392 415.81055 230.99414 C 415.70548 232.21077 415.87728 233.75988 416.32031 235.7793 C 418.30868 244.83235 411.13119 252.62596 385.40039 269.33984 C 377.53144 274.45125 370.32599 279.52463 366.8418 282.34766 C 366.83764 282.35091 366.83581 282.35402 366.83203 282.35742 C 364.04932 283.92251 362.11523 284.72143 360.60742 284.9375 C 359.85581 284.58464 359.01026 284.08395 358.03711 283.40234 C 355.25321 281.45244 348.9872 279.85937 344.11523 279.85938 C 328.38273 279.85938 309.43359 301.76515 309.43359 319.95117 C 309.43359 322.54333 309.93791 325.47318 310.80273 328.48633 C 310.8084 328.52034 310.81156 328.55253 310.81836 328.58594 C 311.33271 331.43015 312.44571 334.2251 314.19531 337.10352 C 317.37003 343.5666 321.69156 349.34428 325.90625 351.83398 L 328.73438 353.50781 C 330.23252 355.22466 331.05343 356.48652 331.22266 357.51758 L 328.05078 361.55078 C 322.51409 368.58948 322.33035 373.34562 327.32227 380.47266 C 330.89972 385.58016 330.82311 386.29474 326.09375 392.14258 C 299.9311 424.4925 289.81137 442.11395 288.56055 458.27344 C 288.41288 459.42714 288.3125 460.54111 288.3125 461.56445 C 288.3125 462.65058 288.38302 463.7432 288.5 464.8418 C 289.35272 481.87647 297.5372 492.24705 334.87109 525.71484 C 359.1344 547.4655 386.02217 563.39841 405.06445 567.31445 C 409.25928 568.17739 412.69141 569.44034 412.69141 570.125 C 412.69141 570.80977 407.47831 577.07423 401.10742 584.04492 C 393.63768 592.21807 383.69944 608.17046 373.125 628.96289 C 360.23742 654.30368 355.8727 661.43567 341.54102 676.62695 C 334.24983 683.35754 327.41073 690.61956 321.12109 698.29688 C 305.6335 715.75463 296.97788 729.75458 289.07812 749.3125 C 277.76303 777.32575 274.4717 806.78202 278.60547 828.72656 C 279.10758 832.64374 279.94724 835.77001 281.27734 838.98828 C 284.48353 848.32942 289.41135 855.55545 296.03125 859.5918 C 299.01645 861.41198 302.53536 862.66801 306.29297 863.37305 C 308.4858 863.91681 310.73016 864.19727 313.00391 864.19727 C 314.0546 864.19727 315.1454 864.10235 316.25 863.95117 C 320.57951 863.66393 324.91735 862.69704 328.9043 861.03125 C 337.47232 857.45128 351.43365 842.67079 351.65625 837.00781 C 351.82591 836.5839 352.02508 836.15712 352.16602 835.73438 C 352.38829 835.0674 353.17946 834.86027 354.35742 835.04297 C 355.18868 835.48744 356.25628 836.15567 357.66992 837.08203 C 359.49262 838.27621 362.12887 839.23525 364.79688 839.80078 C 367.13521 840.56092 369.40037 840.69252 371.55859 840.19922 C 383.57331 838.74474 386.81149 830.78519 393.00977 788.82812 C 396.13343 767.6839 399.19079 749.00334 399.80273 747.31445 C 400.41464 745.62587 405.62969 753.40993 411.39453 764.61328 C 419.92829 781.19796 422.59028 789.52626 425.71289 809.43945 C 429.98807 836.70296 431.21492 870.22196 428.42578 883.46289 C 427.41782 888.24811 422.33154 897.55534 417.12305 904.14453 C 401.25255 924.22218 395.37433 938.14133 394.34766 958.07422 C 393.4075 976.32673 389.38324 984.4146 380.01953 986.86328 C 376.21466 987.85828 376.15556 987.23374 379.21289 978.35938 C 383.29493 966.51112 381.3455 954.70228 374.52344 949.92383 C 370.86275 947.3598 368.24998 946.22093 366.47461 946.54688 C 366.38681 946.55821 366.30318 946.58071 366.21875 946.59961 C 366.07993 946.59817 365.94652 946.61014 365.82422 946.63281 C 364.27804 946.42532 363.637 947.41903 363.87109 949.64453 C 363.75004 950.11576 363.66106 950.64782 363.58789 951.22461 C 363.50894 951.86059 363.47896 952.6179 363.45508 953.38477 C 363.44714 953.66785 363.4082 953.88094 363.4082 954.18164 C 363.4082 957.8025 362.47831 960.98496 360.5625 963.76953 C 360.55267 963.78843 360.5407 963.8016 360.53125 963.81445 C 359.60782 964.88092 358.45529 965.89081 356.95508 966.93555 C 340.00558 978.73946 323.11396 979.39691 258.97852 970.73828 C 243.20943 968.60939 225.65817 966.56925 211.64844 965.14648 C 201.33022 963.77754 190.17668 962.77121 184.19336 962.76758 L 182.81445 962.76758 C 173.14362 961.93468 171.18436 960.93201 171.88672 958.37305 C 174.50594 948.82966 176.0109 924.66066 176.08008 891.07227 C 176.16701 849.09676 175.98783 849.44502 198.78711 846.95703 C 214.05477 845.29105 228.61416 837.14589 240.29492 823.73242 C 251.25258 811.14928 256.76957 799.00574 261.2832 777.54883 C 266.00151 755.11865 265.80261 753.78969 258.99609 762.42383 C 255.8087 766.46709 238.8979 779.53071 221.41602 791.45508 C 200.03164 806.04137 187.18184 816.54815 182.14453 823.5625 L 174.73828 833.88086 C 174.68771 833.73043 174.63685 833.60901 174.58594 833.43164 L 170.68555 802.3457 C 168.50173 784.94143 165.95478 768.23945 165.02539 765.23242 C 163.81632 761.32061 166.15999 762.95449 173.26172 770.96289 C 180.98735 779.67485 186.89479 784.68904 190.80273 785.89062 C 191.64064 786.29685 192.4198 786.61117 193.03906 786.69727 C 193.08963 786.7086 193.17142 786.75195 193.21484 786.75195 C 193.23072 786.75195 193.24363 786.73204 193.25977 786.7207 C 193.33335 786.72448 193.42054 786.75195 193.49023 786.75195 C 194.01718 786.75195 194.34104 786.21627 194.52148 785.34766 C 196.83412 782.10278 192.49845 763.00081 186.52344 750.87109 C 183.47875 744.69021 181.63815 739.99153 182.43359 740.42969 C 196.64137 748.26367 214.9661 753.93584 223.08984 753.82812 C 223.32081 753.87121 223.57439 753.89844 223.85156 753.89844 C 224.83772 753.89844 225.5515 753.70038 226.04688 753.35742 C 226.12046 753.32341 226.19407 753.29611 226.26172 753.26172 C 226.92455 752.96011 227.29688 752.49966 227.29688 751.85352 C 227.29688 751.84218 227.29297 751.82409 227.29297 751.82031 C 227.29325 751.80897 227.29688 751.78894 227.29688 751.78516 C 227.29688 746.27162 219.2609 737.01491 206.61719 727.96094 C 194.18055 719.05486 193.94778 718.69727 200.60742 718.69727 C 209.64862 718.69727 234.32968 712.23541 238.49414 708.7793 C 243.75 704.41727 226.54087 697.06299 207.97266 695.73438 L 202.85742 695.36719 L 192.72461 694.24414 L 202.10156 688.26758 C 215.37552 679.80998 230.79424 662.58525 227.7832 659.57422 C 224.86058 656.65162 198.68372 663.13526 188.02539 669.42383 L 184.13086 671.72461 C 182.57505 672.27098 181.51201 672.54964 181.0918 672.50977 L 186.17969 662.4668 C 192.57705 649.84231 197.65944 630.48279 195.49609 626.98242 C 192.94439 622.85367 179.79661 632.85291 169.44922 646.79102 L 159.97852 659.54688 L 159.27344 655.0918 L 159.18164 653.98242 L 159.13477 649.13867 C 159.03487 638.04682 155.04928 623.57697 151.07227 617.35156 L 149.06055 612.38281 L 147.5293 614.27148 C 147.52212 614.27141 147.51499 614.26758 147.50781 614.26758 C 142.79544 614.26758 136.00378 634.62071 135.87305 649.14453 L 135.85156 651.5957 C 135.83115 652.17665 135.77344 652.80865 135.77344 653.36133 C 135.77344 657.9236 135.61302 659.35665 132.78906 656.16016 L 128.14648 649.3125 C 120.10826 637.46867 108.79408 627.27549 103.11523 626.02148 L 99.912109 624.17773 L 100.16406 626.78516 C 97.691514 630.72097 103.45916 655.75872 108.87695 664.02734 C 114.00857 671.85909 113.36546 671.99025 99.984375 665.87891 C 91.944519 662.20933 83.042517 659.60751 76.443359 658.60938 C 74.061066 658.06214 72.012603 657.6875 70.810547 657.6875 C 69.804818 657.6875 69.105785 657.94888 68.652344 658.4082 C 67.829098 658.6157 67.224754 658.93022 66.941406 659.38867 C 64.753967 662.92801 75.762338 677.24101 86.279297 684.5293 C 91.603037 688.21861 95.585508 691.61565 95.126953 692.07422 C 94.668341 692.5326 88.068646 694.05499 80.462891 695.46094 C 71.094905 697.19268 62.513 700.04823 57.6875 702.73438 L 52.462891 704.93945 L 53.769531 706.00781 C 53.688045 706.20813 53.636719 706.40561 53.636719 706.59375 C 53.636719 710.03777 68.164875 715.48833 81.623047 717.46094 C 85.562622 718.1501 89.418014 718.5893 92.839844 718.6582 L 94.769531 718.83594 L 99.677734 719.64453 L 97.925781 720.96289 L 90.390625 725.74023 C 80.920932 731.74564 65.369141 748.12278 65.369141 752.08984 C 65.369141 756.12449 86.00651 753.53888 97.871094 748.01562 C 104.77554 744.8014 110.72272 742.17187 111.08984 742.17188 C 111.45699 742.17188 109.32922 748.24442 106.35938 755.66602 C 100.41325 770.52534 98.803965 780.0483 100.66211 783.90039 C 100.71737 785.66936 101.06105 786.75977 101.79102 786.75977 C 101.89491 786.75977 102.02802 786.71616 102.14258 786.69727 C 102.25063 786.7275 102.36707 786.75195 102.48828 786.75195 C 102.4966 786.75214 102.50145 786.75586 102.50977 786.75586 C 103.3033 786.75586 104.47192 786.2502 105.88477 785.37891 C 110.62904 783.63197 118.01046 776.80652 127.35352 764.56641 L 135.36914 754.07031 L 135.82422 758.41602 L 135.87305 763.69141 C 135.98545 774.79709 141.95422 794.16002 146.02734 797.45312 C 146.38228 797.87375 146.72322 798.1729 147.04883 798.32812 C 147.15545 798.39918 147.26698 798.48438 147.35156 798.48438 C 147.38898 798.48438 147.42743 798.45508 147.46484 798.45508 C 147.49773 798.4584 147.53386 798.48828 147.56641 798.48828 C 147.57359 798.48828 147.58266 798.47656 147.58984 798.47656 C 147.59929 798.4769 147.61089 798.48828 147.62109 798.48828 C 149.28781 798.48828 150.69358 797.067 152.21484 793.48242 C 154.29364 789.75724 156.33749 783.89012 158.07617 776.26367 L 160.67188 764.89062 C 160.74285 765.17447 160.82697 765.64113 160.9043 766 L 163.5625 787.99609 C 166.34608 811.02759 170.11358 858.13799 170.76758 876.92969 L 170.69922 885.125 C 170.30388 888.2727 169.34957 889.3389 168.22461 888.32031 L 165.70703 882.86133 C 165.47467 882.04801 165.241 881.24353 165.02539 880.26172 C 163.88541 875.07133 159.47211 868.55318 153.62109 862.56641 C 149.23524 857.44008 144.21158 853.47961 138.48633 850.59375 C 136.70101 849.54981 134.9101 848.63204 133.15039 847.875 C 122.62167 843.34573 118.84271 842.94602 100.30078 844.39648 C 88.776269 845.29813 78.834371 846.86314 78.208984 847.875 C 77.58359 848.88701 81.038428 851.65255 85.886719 854.02148 C 91.895408 856.95746 98.067246 863.40585 105.26562 874.28125 C 117.98968 893.50461 124.82476 898.14549 147.44727 902.9043 C 171.70818 908.00772 171.85809 908.19981 169.91602 932.13477 C 168.27323 952.3812 167.83087 959.68657 164.13477 963.11914 C 161.22647 964.48722 156.32338 966.05199 149.76172 967.77148 C 114.25781 975.55841 105.12202 976.37652 92.816406 973.08398 C 86.110145 971.28969 72.10838 969.14928 61.703125 968.32617 C 40.615051 966.65713 -2.6855469 969.20257 -2.6855469 972.11133 C -2.6855469 972.25306 -2.2346094 972.40467 -1.5214844 972.55664 C -2.0211833 973.7501 1.2793742 974.09528 9.7949219 973.73438 C 17.806575 974.29318 28.966116 974.80485 41.316406 975.12305 C 67.085917 975.78734 80.183935 976.58962 89.794922 978.41797 C 93.119666 979.17452 96.347487 980.01795 99.511719 980.91211 C 115.39928 986.13152 132.6069 994.40589 138.7207 999.78125 C 141.95355 1002.6237 144.58558 1002.5359 144.83398 1000.877 C 145.00164 1000.8798 145.091 1000.8239 145.08594 1000.7207 C 145.07535 1000.4962 144.94642 1000.222 144.75586 999.91602 C 144.51541 999.06985 143.86001 998.01719 142.67188 996.83594 C 140.81263 994.98726 133.74255 990.44488 126.95898 986.74219 L 114.625 980.00977 L 138.58789 974.96289 C 157.15335 971.05289 162.98453 970.5613 164.46094 972.78906 C 165.4521 974.28473 166.29271 974.55615 167.32031 973.56055 C 168.18235 974.60423 168.49243 974.05758 168.55859 971.89062 C 168.63932 971.76099 168.70351 971.70266 168.78711 971.56055 C 169.5789 970.21711 170.95927 969.22209 173.14648 968.55859 C 176.27598 968.58883 179.14484 968.63086 183.45898 968.63086 C 189.23793 968.63086 194.99273 968.77382 200.76172 969.03906 C 208.78298 969.98308 218.53805 971.36441 230.79297 973.2832 C 251.26212 976.48802 281.2889 980.34401 297.51953 981.85352 C 323.33802 984.25473 328.674 984.11993 340.15625 980.76367 C 355.83291 976.18145 364.82111 969.5998 369.07812 959.58594 L 371.53906 953.79883 L 372.87305 955.39258 C 373.38172 956.00282 373.79706 956.61404 374.2168 957.22266 L 374.92188 958.99023 C 377.06144 964.36022 376.87655 968.35595 374.03711 978.12305 C 372.06297 984.91388 370.44922 991.10008 370.44922 991.86914 C 370.44922 991.99235 370.48582 992.09112 370.50781 992.19922 C 370.50509 992.21812 370.44922 992.36845 370.44922 992.38281 C 370.44922 992.64436 370.7003 992.87387 371.08203 993.03711 C 373.31178 994.50073 381.22678 991.7505 388.1875 986.70312 L 396.95117 980.3457 L 400.81055 984.20508 L 404.01367 987.85352 C 412.88517 997.95755 429.02396 1002.6582 454.85938 1002.6582 C 456.20492 1002.6582 457.41126 1002.6401 458.63477 1002.625 L 468.86523 1003.3438 L 469.3418 1002.0918 C 475.086 1001.5055 479.16437 1000.3926 482.99609 998.56836 C 483.72161 998.27091 484.37351 997.96014 484.94531 997.62891 C 492.57954 993.76562 493.32369 993.90909 503.01758 998.19727 C 512.25523 1002.2836 546.49043 1007.8993 578.13672 1010.5215 L 578.13672 1010.5254 C 600.29681 1012.3617 644.61339 1009.4481 663.62891 1004.9062 C 684.48313 999.9254 702.42133 991.73318 716.13281 980.93359 L 724.68164 974.20117 C 724.92088 974.10177 725.15239 974.02374 725.38672 973.93945 C 725.41318 973.93567 725.44229 973.92943 725.46875 973.92188 L 760.13477 975.59375 C 785.68887 976.82606 792.89719 976.89875 794.67969 975.0625 C 795.02211 974.96915 795.21289 974.86609 795.21289 974.75195 C 795.21289 974.57809 795.1672 974.41459 795.12109 974.25195 C 795.13243 974.21794 795.15064 974.18189 795.1582 974.14258 L 796.38672 974.17578 L 795.16797 974.08789 C 795.1982 973.91592 795.21484 973.73309 795.21484 973.54102 C 795.21484 970.2859 790.76625 969.80273 761.13086 969.80273 L 736.6582 969.80273 C 731.52715 969.3425 728.07884 968.97018 727.8125 968.80664 L 728.00977 968.33008 L 731.06641 963.66992 C 733.55436 959.8729 735.01858 953.19819 734.91211 946.15039 C 734.72956 934.04793 731.60098 927.76798 711.83008 899.83398 C 704.35682 889.27512 701.34375 882.71206 701.34375 877.00781 C 701.34375 869.38454 701.62888 869.1135 707.36133 871.29297 C 723.24793 877.33303 741.78972 871.60329 753.38867 857.07422 C 780.15393 823.54527 779.88156 726.50007 752.81055 652.01367 C 737.26297 609.23396 706.07727 556.00272 674.33203 518.05078 C 658.65795 499.31226 650.77615 486.524 647.18945 474.01758 C 645.70058 468.82643 646.51865 465.59237 650.98828 459.00586 C 662.73108 441.7019 664.11969 423.9024 656.57031 387.4707 L 652.66211 368.59766 C 652.4429 365.51375 652.59194 363.41353 653.16602 361.71875 L 657.92773 354.52148 C 676.91771 325.83056 675.0201 292.85512 652.96289 268.32227 C 632.04449 245.05589 604.33777 239.45373 577.68359 253.10156 L 564.05664 260.07617 L 539.41406 247.55078 C 509.59299 232.38825 494.75441 230.13286 464.75781 236.21094 C 454.20322 238.34958 444.168 240.63564 442.45508 241.29297 C 440.66661 241.9793 438.17271 239.93456 436.60156 236.48633 C 434.16396 231.13637 427.50634 227.03377 422.00781 226.86914 z M 425.51562 232.92383 C 425.93443 232.92383 426.33424 232.99837 426.72852 233.10352 C 426.90767 233.22113 427.04894 233.3052 427.24219 233.43359 C 428.74001 234.42805 430.02651 235.72123 431.10156 237.21875 C 433.03577 240.94911 433.92025 246.74856 433.19141 253.21484 C 432.84936 256.24835 432.78621 258.95271 432.94922 260.82812 C 432.92654 261.43428 432.97218 261.91562 433.13281 262.14062 C 433.30025 262.93827 433.53509 263.43164 433.84766 263.43164 C 435.97338 263.43164 438.15803 258.15778 438.44531 252.73828 L 438.48633 252.87109 L 438.44922 252.625 C 438.46434 252.28549 438.50315 251.94661 438.50391 251.60742 C 438.84595 250.50642 439.24442 249.56647 439.73633 248.76953 C 444.71457 243.07524 464.61768 238.93059 489.43164 238.85938 L 505.08789 238.81445 C 510.65627 239.64252 516.0108 241.01472 521.61523 243.08008 L 538.94141 252.10156 L 557.65234 261.8418 L 563.36719 265.18359 L 563.7207 265 L 564.51367 265.41211 L 578.10742 258.55469 C 603.49254 245.7502 630.12657 250.40023 648.61719 270.86719 C 660.73012 284.27477 664.6002 294.67291 664.64453 313.88672 C 664.67855 330.50762 660.28301 343.07157 649.68359 356.65039 C 648.3281 358.38673 647.47545 359.70131 647.08008 361.47852 L 646.66406 362.08203 L 646.875 363.25195 C 646.70681 366.60889 647.67942 371.7737 649.91406 382.46484 C 655.91697 411.18377 655.68364 435.36554 649.27148 448.82617 L 644.67969 458.46484 C 644.49109 458.56954 644.30746 458.64807 644.13281 458.69531 L 642.78711 450 C 640.14095 432.91276 633.28516 429.80352 633.28516 445.69141 C 633.28516 464.99009 621.96048 495.60081 610.14258 508.25977 L 603.94922 514.89648 L 602.77734 504.92383 C 602.58194 503.26216 602.26308 501.71689 601.90625 500.27148 C 601.39756 497.54815 600.54777 495.24885 599.48047 494.14258 C 599.1577 493.70718 598.82296 493.45085 598.48242 493.46094 C 598.47108 493.46128 598.44802 493.48268 598.43555 493.49023 C 598.31876 493.46 598.20146 493.41602 598.08203 493.41602 C 597.28829 493.41602 595.63246 495.3619 593.82422 498.125 C 592.37435 499.86362 590.80199 502.03245 589.30469 504.45312 C 582.09463 516.10957 573.25333 526.23036 562.83008 534.80078 C 562.1882 535.30384 561.56458 535.81816 560.91016 536.31445 C 560.57189 536.58167 560.22414 536.83771 559.88281 537.10156 C 554.26152 541.29128 548.20409 545.21451 541.89844 548.75781 C 541.15054 549.16071 540.4195 549.58113 539.66016 549.97266 C 539.52485 550.04636 539.38929 550.11456 539.25391 550.1875 C 526.61626 556.65132 512.40944 561.52574 496.66797 564.77734 C 488.86838 566.38829 480.85975 567.4617 472.77734 568.04492 C 463.7239 568.48509 454.1985 568.48729 445.10352 568.09766 C 417.42184 566.2486 390.47142 558.76505 369.24609 546.32617 C 356.48802 538.84966 316.51705 504.1308 314.61523 498.9375 C 314.57271 498.64988 314.59394 498.35584 314.58789 498.06641 C 315.38713 495.34277 322.01928 487.48636 330.3457 479.53125 C 344.8816 465.64356 346.80211 463.00248 346.94727 455.27539 C 347.80168 450.43695 346.83897 445.84048 344.08203 441.69922 C 343.23976 439.8855 342.20027 438.36079 340.92383 437.125 C 337.83687 433.39789 335.85128 432.40716 329.79102 432.66602 C 325.70174 432.16655 320.84572 432.69997 315.06445 434.16016 C 310.73274 434.7854 306.8423 435.49212 304.9668 436.07617 L 304.15039 436.33203 C 302.37671 436.48397 301.02648 436.51294 300.79492 436.28125 C 300.78925 436.27747 300.78616 436.26159 300.78125 436.25781 C 300.64001 436.08736 300.69975 435.65907 300.84961 435.12109 L 304.92969 427.86523 C 308.01007 422.38443 316.11508 411.13291 322.93945 402.85938 C 332.84578 390.84947 336.68534 387.81445 341.97461 387.81445 C 348.49395 387.81445 354.41724 383.11637 356.92969 375.95703 C 359.10502 369.7583 352.48743 357.60182 346.05859 355.98828 C 344.18524 355.5181 342.92801 355.06176 342.125 354.36914 C 341.59708 353.71961 341.26067 353.02784 341.04297 352.26953 C 340.8668 351.06678 341.0409 349.4432 341.45508 347.10547 C 348.06241 309.8111 360.04183 292.54442 394.55078 270.58203 C 413.71159 258.38761 422.07617 249.03066 422.07617 239.78516 C 422.07617 235.32494 423.27865 232.92969 425.51367 232.92969 L 425.51562 232.92383 z M 348.29102 284.63477 C 351.41586 284.72169 354.10784 285.57855 355.80469 287.27539 C 360.42499 291.89569 352.08642 303.32813 344.09375 303.32812 C 339.20123 303.32812 336.33665 305.27439 332.87305 310.95508 C 326.94114 320.68405 327.01604 325.07027 333.33203 337.7168 C 338.99154 349.04916 337.14859 354.56012 329.56836 348.96484 C 314.22421 337.63872 312.54353 314.3486 323.81641 298.45508 C 325.13066 296.7333 326.54712 295.04465 328.15625 293.43555 C 329.09016 292.50161 330.01957 291.68163 330.94727 290.89258 C 331.1963 290.69226 331.43401 290.48191 331.68945 290.28711 C 336.67566 286.48395 343.08292 284.48939 348.29102 284.63477 z M 604.2168 293.93945 C 602.84211 293.93945 601.40413 294.0339 599.97656 294.20508 C 599.22965 294.28044 598.518 294.41697 597.82227 294.57812 C 594.40395 295.1802 591.28014 296.13587 589.73242 297.26758 C 583.96887 301.48202 586.67706 304.62516 592.78516 300.81055 C 593.54121 300.33841 594.41355 299.96429 595.37109 299.6875 C 595.37264 299.68736 595.37432 299.68762 595.375 299.6875 C 596.29146 299.60677 596.94559 299.57054 598.13281 299.44922 C 599.79577 299.27929 601.28206 299.20426 602.68555 299.19727 C 608.50602 299.75366 614.95691 302.2183 619.03906 306.02148 C 623.52854 310.2039 624.16643 312.56835 622.97656 320.66211 C 621.98704 327.39343 621.84475 329.24415 623.22852 327.94531 C 623.65621 327.81174 624.31485 327.05148 625.30078 325.70312 C 625.85486 324.9453 626.31614 324.11146 626.72656 323.23828 C 629.7596 317.70534 629.35328 311.6133 626.56055 306.41211 C 626.42562 306.12475 626.32534 305.82015 626.17578 305.54102 C 625.3306 303.96184 624.10741 302.529 622.66016 301.23242 C 618.25213 296.87762 611.80495 293.93945 604.2168 293.93945 z M 343.65234 308.02148 C 344.79353 308.02148 345.5411 308.22984 345.95898 308.67188 C 346.1048 309.19164 346.14766 309.82914 346.0918 310.57422 C 346.04746 310.88172 346.00102 311.19763 345.94531 311.53125 C 345.87259 311.72692 345.8127 311.91256 345.7207 312.12695 C 344.75116 314.38571 342.73005 320.74871 341.23242 326.27148 C 338.38446 336.77363 335.41671 337.08752 335.27539 327.2207 C 335.37294 324.12392 335.75868 320.83215 336.39844 317.86523 C 337.8987 312.19288 340.68535 308.02148 343.65234 308.02148 z M 411.41992 323.57227 C 409.19382 323.5802 406.13538 323.89499 402.33594 324.61328 C 389.8514 326.97373 374.27378 335.10118 367.14844 342.97461 C 363.60393 346.89123 362.9698 348.27461 366.29102 346.99805 C 366.77281 347.15921 367.62986 346.75175 368.74414 345.92578 C 371.37763 344.67219 375.07819 342.72716 380.33984 339.84961 C 388.45128 335.41352 400.17396 330.51915 406.38867 328.97266 C 417.27224 326.2644 418.09827 323.54723 411.41992 323.57227 z M 407.07031 350.26172 C 406.13265 350.26172 405.15543 350.45373 404.16992 350.79492 C 401.70828 351.35664 399.39158 352.44078 397.36719 353.9375 C 392.60185 357.18464 389.22266 362.45326 389.22266 369.03711 C 389.22266 373.60946 391.34752 378.41787 394.97852 382.04883 C 394.99741 382.06773 395.0162 382.08298 395.0332 382.09961 C 396.17685 383.62741 397.35711 384.8768 398.33008 385.44531 C 402.69623 387.99638 407.10446 388.52924 411.09961 387.68164 C 424.15791 385.51234 434.12432 368.95082 422.05859 356.10742 C 419.32301 353.19553 416.00752 351.49678 412.55273 350.78125 C 411.40436 350.45273 410.24487 350.26172 409.0957 350.26172 C 408.83416 350.26172 408.55379 350.30823 408.28125 350.33594 C 407.86845 350.29055 407.46206 350.26172 407.07031 350.26172 z M 410.92969 357.28906 C 412.3619 357.26714 413.66881 357.84983 414.4082 358.86133 C 414.81923 360.00581 414.85553 361.42722 414.24805 363.00977 C 413.87879 363.97168 413.27724 364.83698 412.61133 365.49414 C 409.93761 366.43533 405.19712 360.87513 407.23047 358.8418 C 408.27751 357.79475 409.64004 357.30872 410.92969 357.28906 z M 336.06055 362.45898 C 336.69209 362.46187 337.32515 362.56607 337.94141 362.7207 C 339.71933 363.41644 341.05819 365.00347 341.10547 366.60352 C 341.0998 366.94428 341.03774 367.2599 340.9668 367.57031 C 340.6286 368.73478 339.66999 369.80778 338.41797 370.43945 C 337.79816 370.68153 337.14648 370.81004 336.48828 370.875 C 335.78677 370.76785 335.10247 370.4541 334.51367 369.86523 C 333.52478 368.87636 333.04473 367.72736 332.9043 366.625 C 332.90808 365.77565 332.98007 365.0526 333.13477 364.46289 C 333.13546 364.46021 333.13406 364.45539 333.13477 364.45312 C 333.47935 363.59694 334.09573 362.90679 334.96289 362.57812 C 335.11838 362.54789 335.27111 362.50991 335.42969 362.49219 L 335.42969 362.49023 C 335.63892 362.46666 335.85003 362.45802 336.06055 362.45898 z M 326.85938 437.49805 C 328.68402 437.52789 330.32108 437.69908 331.66797 438.03711 C 338.45686 439.74103 343.27483 449.26346 341.31055 457.08984 C 340.63025 459.80026 332.81917 469.38671 323.95312 478.39453 L 307.94727 494.65234 C 307.77979 494.52044 307.60208 494.35756 307.42578 494.20312 L 301.16797 485.49805 C 293.79069 475.23497 290.58547 455.37762 294.98438 447.1582 C 297.38417 442.67413 313.77524 437.86774 324.97461 437.51367 C 325.62073 437.49326 326.25116 437.4881 326.85938 437.49805 z M 638.13281 468.94727 C 638.24502 468.94031 638.35987 468.94093 638.47656 468.95117 L 638.47461 468.95312 C 638.5536 468.9569 638.63944 468.99547 638.7207 469.01172 C 639.05784 469.64842 639.44776 470.15804 639.88086 470.33594 C 640.33145 470.52076 641.41686 472.1335 642.74219 474.38281 C 643.44367 481.6578 656.91648 504.59623 668.50977 518.05078 C 711.74299 568.22477 750.79369 646.49898 761.19336 703.82031 C 770.24412 753.70675 767.70184 815.6301 755.56445 840.88672 C 752.81409 846.61055 751.01828 849.58007 751.57617 847.48633 C 754.28791 837.31226 755.62312 821.95703 753.79492 821.95703 C 752.6642 821.95703 749.80758 828.70168 747.44727 836.94336 C 745.08688 845.18503 741.1558 855.21819 738.71094 859.23828 C 737.76231 860.79832 736.94939 862.00452 736.125 862.97461 C 735.94963 863.14393 735.76816 863.29066 735.58984 863.45117 C 734.40972 864.3603 733.07457 865.15221 731.66602 865.84375 C 729.58471 866.41053 726.82554 866.54492 722.56836 866.54492 L 713.46875 866.54492 C 712.88939 865.73686 713.06801 864.3758 714.00586 861.92383 L 716.48633 858.27148 C 722.08048 850.02803 727.15625 831.95365 727.15625 820.2793 C 727.15625 810.59607 724.369 815.7943 718.37305 836.67773 C 715.32418 847.29635 710.93252 857.9134 708.61133 860.26562 C 704.53246 864.39907 704.19637 864.3049 698.50977 857.54688 C 691.01183 848.63596 688.79348 834.68819 692.03711 816.80078 C 692.99722 811.50593 693.41045 807.45333 693.35742 804.7168 C 693.38388 804.64612 693.41564 804.45103 693.43945 804.38867 C 694.57479 801.43013 693.93057 800.41906 692.55078 800.83594 C 692.39204 800.25408 692.18286 799.8785 691.89062 799.9375 L 691.90625 799.67578 L 691.69531 800.02734 C 691.45229 800.19062 691.16361 800.6607 690.85547 801.28516 C 690.39807 801.68514 689.85318 802.42066 689.2793 803.27344 C 688.1804 804.46199 687.05346 806.00904 686.09766 807.85742 C 684.81027 810.34696 682.56125 813.20558 680.25781 815.53906 C 679.94903 815.83198 679.63578 816.16924 679.32812 816.42383 C 679.26501 816.47674 679.20337 816.53032 679.14062 816.58398 C 676.31823 818.85707 673.47511 819.60938 669.66992 819.60938 C 662.78914 819.60938 661.47991 818.60161 659.14258 811.51953 C 657.2027 805.64169 657.15171 799.70214 658.95508 789.81055 C 661.2878 777.01458 663.84142 771.16834 682.25195 736.55664 C 692.63972 717.02714 692.45191 700.70722 681.54688 675.72852 C 668.62588 646.13247 645.43652 609.99539 641.5918 613.42773 L 640.20703 611.92578 L 641.46484 613.77344 C 641.21162 615.19167 644.09544 620.34014 648.32617 625.88281 C 665.75705 648.71842 680.97688 681.34787 684.20898 701.5293 C 684.31292 702.86555 684.40469 704.22483 684.47461 705.7168 C 684.57288 707.80805 684.6722 709.57562 684.74023 711.19141 C 684.13585 722.33266 679.66246 733.2657 668.74023 750.37891 C 652.15639 776.36289 647.25001 812.83757 659.05469 822.39648 C 665.41193 827.54431 672.78309 827.84211 679.38672 823.2168 C 684.19964 819.84572 684.31794 820.09585 685.47852 836.31641 C 686.3246 848.14202 688.08141 854.77546 691.65234 859.60547 C 692.61529 860.90789 693.4778 862.48309 694.21484 864.17383 C 695.18962 867.12651 696.0283 870.3734 696.58008 873.4375 C 696.61031 873.88292 696.65039 874.33152 696.65039 874.75781 C 696.65039 884.39463 702.27878 896.46166 713.07617 909.96289 C 737.35975 940.32784 735.14428 961.72669 705.67969 981.40234 C 689.48267 992.21837 670.02156 998.8716 643.96289 1002.4961 C 640.91909 1002.919 636.80989 1003.2691 632.35742 1003.582 C 626.43611 1003.7623 619.63377 1003.9057 610.99219 1004.041 C 603.27398 1004.1604 595.94622 1004.1753 589.00977 1004.1035 C 584.43011 1003.9565 579.85978 1003.7736 575.32812 1003.5488 C 571.89098 1003.0282 560.01648 1001.6749 546.20117 1000.2617 C 531.21742 998.72901 517.71031 996.70692 516.1875 995.76562 C 511.67512 992.97686 517.19913 982.14356 525.86328 976.78906 C 530.09027 974.17669 538.15791 970.85078 543.78906 969.40039 C 548.90575 968.08254 551.31533 967.17083 551.60938 966.25195 L 554.66992 965.42773 L 551.24609 965.36523 C 551.01403 965.14073 550.70629 964.91363 550.26953 964.66992 C 545.35838 961.92153 535.92338 964.57998 527.41211 969.52734 C 522.95797 971.73961 519.11185 974.68659 516.27539 978.02539 C 513.26685 981.09849 511.05812 984.34411 510.2832 987.43164 C 508.3623 995.08545 504.67852 994.80023 492.61914 986.06445 C 484.04086 979.85038 482.88405 978.0074 484.21289 972.71289 C 486.70708 962.77515 493.86261 954.54152 505.26953 948.49023 C 508.91534 946.5561 511.61502 944.78391 513.42383 943.32422 L 517.12305 941.39062 L 515.14648 941.71484 C 516.74556 939.82958 515.54734 939.10613 510.66797 940.61133 C 503.9516 942.68319 496.94281 946.7878 491.38672 951.37305 C 489.95469 952.42565 488.70006 953.45272 487.94922 954.35742 C 487.89328 954.4281 487.81444 954.56503 487.75586 954.64062 C 483.51394 958.84456 480.74805 963.14665 480.74805 966.46484 C 480.74805 968.30192 479.69114 969.80273 478.40039 969.80273 C 477.10968 969.80273 476.0666 964.78717 476.07812 958.65625 C 476.15523 919.70837 530.44621 885.49084 583.20312 891.14062 C 592.67897 892.15547 600.2457 894.88473 606.55078 899.70703 L 611.30469 904.65625 C 612.71147 906.12021 613.86664 907.26695 615.03516 908.42969 C 616.2595 910.07586 617.4344 911.83966 618.56055 913.74609 C 622.50721 920.42713 626.24609 922.64016 626.24609 918.29688 C 626.24609 917.0731 621.20587 909.94575 615.04883 902.45703 C 599.11831 883.08128 596.10738 877.75967 592.00391 861.74219 C 591.18923 858.56206 590.58859 855.67493 590.2168 852.83594 C 590.06637 850.79416 589.97877 848.72213 589.98633 846.59766 C 589.99011 844.91036 590.02868 843.35188 590.0918 841.83984 C 591.21008 831.22183 595.93871 817.72698 606.29492 791.67383 C 619.08201 759.506 625.20571 734.94142 619.57422 738.42188 C 618.08047 739.34502 616.85938 742.08529 616.85938 744.51367 C 616.85938 750.54999 606.79168 777.97897 595.79492 801.89453 C 587.04849 820.91595 586.29717 821.79505 576.54883 824.44922 C 562.46121 828.28483 507.00669 825.91595 490.13477 820.75977 C 451.12067 808.83672 422.73202 782.09935 408.02539 743.41797 C 405.67366 737.23247 406.62184 737.71535 418.03125 748.50586 C 463.95542 791.93921 543.7415 791.64119 583.72656 747.89062 C 627.61153 699.87358 623.79291 625.08505 574.16016 560.52539 L 561.71094 544.33203 L 569.61719 536.35742 C 572.44964 533.95905 576.20222 530.07648 579.93945 525.83789 C 586.32504 519.1612 592.20653 512.5045 593.96484 509.83789 L 595.55078 507.43164 C 596.17138 506.94408 596.70459 506.62297 597.13281 506.47266 L 595.85742 511.00977 C 594.77062 514.88189 593.12692 519.89944 592.20898 522.1582 C 590.90112 525.37677 592.15531 526.65465 594.85938 526.27734 C 595.43069 526.37977 596.22227 526.16351 597.23242 525.6543 C 600.40144 524.50766 604.60282 521.9742 608.97656 518.23047 C 612.08968 515.56571 615.4871 511.50074 618.78516 506.88477 C 618.92953 506.68067 619.08859 506.49133 619.23047 506.28516 C 619.2951 506.19067 619.34786 506.10778 619.41211 506.01367 C 626.30185 496.1626 632.57858 483.81788 634.36523 475.35938 C 635.26509 471.09912 636.44975 469.05161 638.13281 468.94727 z M 502.21484 490.96289 C 501.76829 490.97801 501.38632 491.34125 501.08789 491.98438 C 500.4953 491.64611 500.34293 492.36232 500.52344 494.47266 C 500.39796 495.90219 500.45211 497.72263 500.77148 499.86914 C 502.5041 511.50782 495.333 523.46383 485.43555 525.44336 C 481.56414 526.2176 478.39844 527.7808 478.39844 528.91016 C 478.39844 532.0619 487.26836 531.34769 494.48242 527.61719 C 504.43165 522.47219 509.62269 506.47061 505.13477 494.77539 C 504.1141 492.11555 503.06195 490.93715 502.21484 490.96289 z M 555.62305 550.00195 C 562.32173 549.63496 566.16676 555.93759 577.56445 573.20508 C 599.87107 606.99957 608.21699 632.71048 608.03516 667.07031 C 607.79364 712.64688 586.18844 747.93526 547.41797 766.07812 C 533.95979 772.37599 529.01091 773.36276 507 774.14062 C 503.6818 774.25779 500.57647 774.32479 497.63672 774.33008 C 495.83585 774.31118 494.03717 774.28565 492.30078 774.21875 C 485.84346 773.97119 479.83904 773.38989 474.17383 772.47656 C 465.10863 770.76727 456.75556 767.76283 446.58984 762.98438 C 431.60844 755.94228 409.49444 734.97056 402.87305 721.52734 C 402.37283 720.51167 401.95194 719.58775 401.53906 718.66211 C 400.01943 714.3824 398.93455 709.64327 398.12305 704.09961 C 397.54077 697.14448 397.43929 687.04543 397.44141 669.42188 C 397.44897 625.81837 400.94016 605.98741 413.07422 580.70312 C 415.27088 576.12585 416.58759 573.67169 418.12695 572.49414 L 426.22461 572.40625 C 440.33045 575.08397 484.11834 573.69227 501.86719 569.9082 C 505.93271 569.04163 511.19092 567.48898 516.67188 565.62695 C 518.85913 564.91916 521.06237 564.12696 523.29883 563.25586 C 528.7076 561.22508 533.98378 559.01941 538.23242 556.93164 C 546.554 552.84249 551.6039 550.22222 555.62305 550.00195 z M 404.22266 588.22656 C 404.26948 588.22471 404.3096 588.23152 404.34375 588.24805 C 404.79915 588.46802 404.13168 590.34662 402.3457 594.62305 C 390.99317 621.80424 387.18762 684.30515 394.77344 719.0293 C 395.81685 723.80552 396.52806 727.83802 396.93164 731.24023 C 396.99287 734.81291 396.85056 738.56038 396.49219 742.75781 C 395.2807 746.10598 392.12308 763.18888 389.41992 781.02148 C 385.86667 804.46211 383.5596 817.32583 381.16992 824.625 C 379.61631 828.28763 377.86078 831.12413 375.92188 833.08008 C 373.34379 834.80313 370.43604 835.66032 367.51953 835.59766 C 365.26384 835.0477 362.79708 833.25001 358.79297 829.88086 C 357.03586 828.40238 355.43421 827.17787 354.09961 826.23828 L 351.70703 823.65625 L 351.32617 824.58203 C 351.15526 824.53894 351.02571 824.52975 350.98633 824.60156 C 350.7181 825.08496 347.86159 830.73965 344.63477 837.16602 C 341.34515 843.71756 335.87028 850.41828 332.17188 852.41992 C 325.9416 855.79175 325.32237 855.6804 321.02344 850.44727 C 315.91837 844.23293 314.82595 826.59546 318.88477 815.91992 C 322.14063 807.35642 320.11233 806.06698 315.19336 813.57422 C 308.97329 823.06726 308.33823 838.05553 313.71875 848.36328 L 318.31055 857.1582 L 310.34961 857.1582 C 305.58982 857.1582 300.55455 855.32612 297.82227 852.59375 C 294.43997 849.21153 291.67367 842.60853 290.06641 835.2168 C 289.43666 831.69628 288.98259 827.76137 288.71484 823.31445 C 288.66427 822.47362 288.62548 822.11493 288.57812 821.36133 C 288.59135 820.22157 288.62701 819.09134 288.71484 817.98828 C 289.30769 810.53381 288.73391 808.11514 286.57031 808.94531 C 278.00541 812.23199 287.19257 762.93773 299.79883 737.96484 C 305.56263 726.54678 315.17827 712.34912 324.42969 700.54883 C 329.64642 694.21691 334.94951 688.14832 339.48242 683.33789 C 343.73203 679.21934 347.05962 676.88722 348.58008 677.4707 C 348.8335 677.56821 349.08751 677.62519 349.34961 677.6543 C 349.03791 679.2205 349.78535 678.89783 352.05078 677.05859 C 352.24539 676.90099 352.58636 676.44361 352.94336 675.96289 C 357.37106 671.83202 364.41146 659.31141 379.54688 629.93945 C 390.22748 609.21264 400.47118 591.00543 402.30859 589.48047 C 403.25634 588.69398 403.8949 588.23952 404.22266 588.22656 z M 147.5293 624.83398 C 150.41989 624.83398 152.22738 631.29428 153.51953 646.2832 C 153.67491 648.54242 153.81929 650.9426 153.95898 653.58203 C 154.07475 655.76928 154.10388 657.05931 154.18359 658.85742 C 154.2197 665.46515 153.6229 670.6022 152.56445 673.38281 A 33.963952 33.963952 0 0 1 164.71289 677.64062 C 165.3933 676.00268 166.72075 673.67287 168.81445 670.28516 C 174.67918 660.79575 171.09664 659.72633 163.96094 668.83594 C 159.82696 674.11344 160.04587 673.09701 165.14844 663.27148 C 171.5511 650.94233 185.05454 635.49767 188.57812 635.85352 L 188.57812 635.85156 C 188.94258 635.88558 189.1981 636.09771 189.33008 636.49414 C 190.55959 640.18266 183.32618 658.80667 175.85547 671.18164 C 173.40852 675.23497 170.56906 678.73121 168.5957 680.28711 A 33.963952 33.963952 0 0 1 174.07031 685.66992 C 176.02705 683.61569 180.2506 680.32001 185.64062 677.07617 C 191.73629 673.40761 196.85531 670.67856 201.31641 668.69336 C 203.24758 667.91103 205.12681 667.21666 206.87695 666.67188 C 208.75452 666.08737 210.57168 665.572 212.27148 665.11914 C 213.63939 664.8867 214.95259 664.72852 216.17188 664.72852 C 220.69823 664.72852 220.40749 665.51795 213.08789 673.08789 C 208.63984 677.68822 199.58922 684.55244 192.97852 688.3418 C 188.56897 690.86939 184.30639 693.00227 181.42969 694.20117 C 180.64317 694.50276 179.93876 694.7573 179.36328 694.93945 A 33.963952 33.963952 0 0 1 181.00391 700.84961 C 181.13532 700.80147 181.24329 700.75224 181.38281 700.70508 C 183.96372 700.32656 187.7803 700.13623 192.25977 700.13086 L 192.25977 700.12891 C 205.70677 700.11001 224.40076 701.64765 228.46875 703.96484 C 232.93072 706.50635 232.81595 706.77625 226.12305 709.45117 C 217.07284 713.06822 187.58435 714.72898 181.12109 712.19141 A 33.963952 33.963952 0 0 1 179.61328 718.18359 C 180.1799 718.32525 180.77391 718.49241 181.41016 718.70117 C 189.68601 721.71432 204.98397 731.23645 214.38867 739.83594 C 214.43505 739.87902 214.4892 739.93165 214.53516 739.97852 L 219.36133 744.91992 C 220.40286 746.08757 221.25444 747.09899 221.57031 747.6875 C 221.67776 747.96719 221.76371 748.23209 221.82422 748.49023 C 221.82456 748.4916 221.82392 748.49361 221.82422 748.49414 C 221.70573 749.04225 220.70644 749.08847 218.9043 749.00781 C 208.52233 748.5443 182.28385 736.10115 173.73828 728.61914 A 33.963952 33.963952 0 0 1 169.52734 732.83594 C 173.46247 736.9831 179.01551 746.14728 184.11914 757.29492 C 187.39506 764.45051 189.73967 772.49186 189.32617 775.16992 C 188.63496 779.64609 187.97886 779.41489 181.22266 772.25586 C 171.76285 762.23179 162.28579 746.86286 160.33008 738.41211 A 33.963952 33.963952 0 0 1 153.14258 740.44141 C 155.18243 748.44014 154.7719 767.35592 151.91992 778.68164 C 147.47135 796.34855 143.90992 791.07959 141.52539 763.29492 C 140.80535 754.90516 141.23882 744.87209 142.48633 741 L 142.64844 740.49805 A 33.963952 33.963952 0 0 1 135.55664 738.6543 C 134.78332 741.60534 131.12035 748.56619 126.7207 755.30078 C 121.74156 762.92254 114.75247 771.80241 111.19141 775.0293 L 107.57422 778.30078 C 106.92882 778.70368 106.40697 778.97303 106.05664 779.01562 L 106.05273 779.01172 C 105.75185 778.59117 105.58153 777.96689 105.49414 777.21484 L 106.45703 772.67773 C 108.86237 761.31241 119.91404 740.41324 126.25781 733.32227 A 33.963952 33.963952 0 0 1 120.72656 727.66992 L 120.6875 727.71484 C 118.19995 730.56782 109.75227 735.95185 101.91406 739.68164 C 94.075859 743.41147 84.495203 747.16001 80.623047 748.00977 L 77.429688 748.71289 C 76.259247 748.72423 75.465784 748.4861 75.068359 748.00977 L 81.796875 741.02148 C 90.258977 732.22813 109.37051 720.2633 115.94922 719.24023 A 33.963952 33.963952 0 0 1 113.64258 706.94141 A 33.963952 33.963952 0 0 1 113.66016 706.58984 C 113.13553 706.73622 112.59393 706.88315 111.99219 707.02539 C 111.19899 707.14142 110.35709 707.23766 109.37109 707.27734 L 101.74414 707.58398 L 105.69141 708.41797 L 104.0918 708.75586 L 108.66016 709.04102 L 109.95898 709.31445 C 115.88464 710.56136 112.2882 711.08785 97.050781 711.20312 C 85.434324 711.29194 73.289294 710.27078 70.0625 708.93555 L 64.388672 706.58398 C 64.388812 706.53107 64.407449 706.47277 64.419922 706.41797 L 70.0625 704.24609 C 74.9072 702.38018 85.7366 700.90043 95.308594 700.36914 L 95.308594 700.37305 C 96.814108 700.37618 98.3192 700.36159 99.824219 700.41602 C 105.85129 700.64581 110.47823 701.08558 113.66992 701.7168 C 113.81569 701.77606 113.92715 701.83803 114.0625 701.89844 A 33.963952 33.963952 0 0 1 115.98438 694.64844 C 108.60226 691.8913 87.372073 678.27439 80.669922 671.65039 C 76.126386 667.15978 74.955419 665.35713 76.511719 664.88477 C 76.836267 664.82278 77.232665 664.78736 77.726562 664.77148 L 77.726562 664.76172 C 77.802418 664.75983 77.90876 664.76315 77.988281 664.76172 C 86.976728 665.03777 114.40341 678.79825 121.26953 685.5332 A 33.963952 33.963952 0 0 1 126.70703 680.18359 C 125.24589 678.65714 122.91168 675.56129 120.24805 671.3418 C 113.33491 660.39069 109.05263 650.59494 106.58008 640.08789 L 105.5625 635.76562 C 105.73239 635.16778 106.0255 634.74539 106.4375 634.49609 L 113.5332 641.25977 C 122.14277 649.47215 134.09474 668.08466 135.58008 675.19141 A 33.963952 33.963952 0 0 1 147.60742 672.97852 A 33.963952 33.963952 0 0 1 148.19727 673.00781 C 147.78107 671.59551 147.50586 669.69235 147.50586 667.85352 C 147.50586 661.99408 144.10124 660.47745 141.8125 665.31445 C 140.09232 668.94975 142.29615 637.377 144.26953 630.11328 C 145.05848 627.20905 146.52722 624.83398 147.5293 624.83398 z M 125.125 668.76367 C 123.45379 668.45464 123.64595 671.33883 126.46875 676.61328 C 127.08803 677.7704 127.52188 678.67533 127.82031 679.38672 A 33.963952 33.963952 0 0 1 133.08398 676.27734 C 132.22135 675.51405 131.1858 674.41433 129.97852 672.94141 C 127.80024 670.28398 126.12772 668.94909 125.125 668.76367 z M 109.43555 683.50391 C 105.58479 683.50391 107.88103 687.27377 114.06445 691.10742 C 115.1175 691.76034 115.99934 692.37586 116.70508 692.92578 A 33.963952 33.963952 0 0 1 119.0918 688.55078 C 118.2184 688.21225 117.27276 687.71412 116.32031 687.04688 C 113.53641 685.09702 110.43907 683.50391 109.43555 683.50391 z M 183.41016 683.90234 C 182.75049 683.85446 181.83492 684.13569 180.86133 684.68164 C 179.93201 684.97266 178.99931 685.31671 178.14258 685.77539 C 176.9323 686.42308 175.96889 686.88236 175.19336 687.20312 A 33.963952 33.963952 0 0 1 177.60156 691.06055 C 178.6805 690.13777 180.19778 689.16899 182.12109 688.26562 C 185.67059 686.59848 187.31137 684.77253 185.76953 684.21289 C 185.31904 684.04962 184.68324 684.02395 183.97656 684.0625 C 183.82134 683.97113 183.63004 683.91831 183.41016 683.90234 z M 181.4668 704.37305 A 33.963952 33.963952 0 0 1 181.57031 706.94141 A 33.963952 33.963952 0 0 1 181.44922 709.36328 C 181.63145 709.36012 181.77882 709.35281 181.97852 709.35156 C 184.80646 709.33266 187.77649 708.26329 188.57422 706.97266 C 188.96344 706.34287 188.70984 705.7874 187.99219 705.37305 L 188.57422 705.26172 L 187.64844 705.20898 C 186.82099 704.84917 185.58087 704.62695 184.01758 704.62695 C 183.10472 704.62695 182.24209 704.5344 181.4668 704.37305 z M 116.9668 721.51953 C 116.46081 721.97468 115.93672 722.4421 115.33008 722.9668 C 114.60206 723.51407 113.76611 724.08256 112.79492 724.65625 C 108.65254 727.10319 105.26367 729.93289 105.26367 730.94531 C 105.26367 733.83786 107.59619 733.16564 116.71875 727.6543 L 119.51172 725.96875 A 33.963952 33.963952 0 0 1 116.9668 721.51953 z M 178.10352 721.79102 A 33.963952 33.963952 0 0 1 175.81836 725.82422 C 175.90987 725.86977 176.01205 725.898 176.10352 725.94727 C 181.34512 728.61384 185.05469 728.68249 185.05469 726.01758 C 185.05469 724.87733 182.94276 723.3937 180.36133 722.71875 C 179.5395 722.50387 178.77719 722.17446 178.10352 721.79102 z M 166.64258 735.03125 A 33.963952 33.963952 0 0 1 162.52148 737.42969 L 163.68164 739.24414 C 166.36349 743.43904 169.7159 746.87109 171.13086 746.87109 C 172.54581 746.87109 171.419 743.17373 168.62695 738.65625 C 167.82004 737.35061 167.16331 736.1308 166.64258 735.03125 z M 129.3457 735.5332 C 129.26905 735.63535 129.20021 735.73982 129.11719 735.83984 C 125.00195 740.79839 119.0577 756.25391 121.26562 756.25391 C 122.35663 756.25391 126.03875 751.23823 129.45117 745.10742 C 131.28902 741.80549 132.93556 739.35613 134.08594 738.08203 A 33.963952 33.963952 0 0 1 129.3457 735.5332 z M 144.95117 740.77344 L 144.99023 742.17383 C 145.29437 752.85923 147.51523 760.94727 150.14648 760.94727 C 151.29794 760.94727 151.61852 754.87479 150.85742 747.45312 C 150.56291 744.58088 150.40869 742.46837 150.34375 740.7793 A 33.963952 33.963952 0 0 1 147.60742 740.90625 A 33.963952 33.963952 0 0 1 144.95117 740.77344 z M 257.125 773.08984 C 257.71066 773.21646 257.3562 774.89234 256.44727 778.60742 C 248.03643 812.98283 227.9917 835.71015 201.67383 840.70117 C 194.7617 842.01203 187.46821 843.08008 185.4668 843.08008 C 178.99071 843.08008 193.59956 830.25484 210.83203 820.80859 C 228.43953 811.15689 243.72266 799.52558 243.72266 795.77734 C 243.72266 794.47065 238.70708 797.02659 232.57617 801.45703 C 226.44526 805.88724 215.68914 812.57378 208.67383 816.32031 C 201.65851 820.06688 192.41713 826.42846 188.13867 830.45312 C 182.35266 835.89572 179.93944 837.42909 180.86914 834.98438 C 180.87266 834.97304 180.88527 834.95495 180.88867 834.95117 L 181.99805 832.76953 C 182.90901 831.17234 184.26748 829.0377 186.14453 826.27539 C 189.63236 821.14268 203.37988 810.08916 220.75977 798.44727 C 236.61581 787.82626 251.51558 777.45135 253.87109 775.38867 C 255.64496 773.83529 256.66951 772.99315 257.125 773.0918 L 257.125 773.08984 z M 427.9375 791.35352 C 429.15728 791.35959 432.64487 793.95611 438.43945 799.16602 C 453.03062 812.2846 475.17774 823.38109 494.08789 827.05078 C 501.59161 828.507 509.0546 830.72584 510.66797 831.98242 C 514.76229 835.17121 514.32755 853.71255 509.66406 874.93555 C 506.71456 888.35914 506.3782 893.88051 508.32031 896.99023 C 508.7968 897.75302 509.11275 898.4015 509.30078 898.99023 C 509.2781 900.18165 508.61499 901.42492 507.1875 903 C 506.56486 903.41529 505.85375 903.849 504.94727 904.33398 C 496.80257 908.69295 479.96151 927.7869 474.70898 938.61914 C 471.82294 944.57091 470.16567 954.11209 469.69531 967.46289 C 469.30878 978.43403 468.44761 989.78538 467.7832 992.68945 C 466.68234 997.50136 465.21893 997.9668 451.2832 997.9668 C 436.1378 997.9668 436.02007 997.92194 438.86719 992.68945 C 444.83771 981.72255 440.4731 939.30078 433.375 939.30078 C 432.03142 939.30078 431.66809 941.1242 432.55469 943.4082 C 435.21366 950.25674 436.89019 978.06208 435.19141 987.11719 C 434.24191 992.17877 432.86392 994.85725 430.03906 995.32617 C 427.21424 995.79548 422.94568 994.05154 416.21094 990.26562 C 403.48542 983.11189 398.0003 972.08725 399.44336 956.5625 C 400.62492 943.85097 408.35366 926.09416 418.12109 912.99609 C 418.73595 912.20666 419.36633 911.41265 419.94531 910.63086 C 420.48167 909.9612 421.01865 909.29389 421.56445 908.65625 C 436.43833 891.27946 439.2636 869.05251 432.57422 821.98242 C 430.64972 808.44041 428.41361 795.27659 427.60547 792.73047 C 427.35942 791.95525 427.39844 791.50744 427.72461 791.38672 C 427.78578 791.36411 427.85618 791.35311 427.9375 791.35352 z M 583.19727 827.81641 C 584.92693 827.95852 585.06067 831.4175 584.42578 842.6543 C 583.69199 855.64038 584.59898 861.45243 589.11328 872.62891 L 594.71484 886.5 L 577.0957 886.65625 C 576.76084 886.59427 576.15204 886.49778 575.88672 886.44336 C 574.25513 886.11152 569.42397 886.31334 563.70312 886.83008 C 548.9528 887.22383 540.4781 888.59812 530.6875 891.99414 C 519.06504 896.02554 513.51782 898.10246 511.92773 895.31445 C 511.63784 894.27323 511.69783 892.09618 512.0293 889.26758 C 512.24246 887.72425 512.62936 885.85519 513.05078 883.93164 C 513.88054 880.61552 514.90151 876.81474 516.26758 871.85547 C 520.32475 857.12688 520.86258 851.54962 519.06836 842.71289 L 517.22266 833.61914 L 517.14453 832.23438 C 517.16343 832.11003 517.1749 831.9667 517.19531 831.84961 L 525.64258 831.50586 L 543.29688 830.94727 C 550.86338 831.03873 558.16093 830.70702 564.19336 830.02148 C 573.37625 829.45648 580.462 828.7765 581.73438 828.19336 C 582.31381 827.92804 582.79815 827.78337 583.19727 827.81641 z M 112.42773 847.93945 C 114.30572 847.90922 116.21812 848.06614 118.13867 848.31445 C 134.48841 850.92939 154.94187 866.33379 159.51953 880.45898 C 161.01373 885.06959 164.32019 891.80603 166.86328 895.42969 C 168.12065 897.22149 169.1656 898.91125 169.85156 900.20898 C 170.27323 901.369 170.56251 902.27951 170.57422 902.625 C 169.60987 903.09574 159.77441 900.83117 135.44336 894.53516 C 126.75974 892.288 119.74012 885.39446 103.97656 863.61523 C 98.397564 855.90715 97.059071 853.26472 98.830078 852.67383 L 102.53711 853.14258 C 103.48232 853.26163 104.48885 853.46917 105.52539 853.71484 C 113.23373 856.26977 124.84454 862.81797 135.58984 870.95703 C 141.0117 875.06383 146.00052 878.19514 148.33594 879.05664 L 148.67969 879.29492 L 148.52344 879.11133 C 149.08914 879.29917 149.51945 879.37415 149.66992 879.2207 C 151.72028 877.13531 133.91217 862.87264 119.3457 854.93359 C 109.24142 849.42686 107.43001 848.21578 111.02539 847.96289 L 112.42773 847.93945 z M 478.18555 983.51172 C 479.11126 983.60431 480.36052 984.47531 482.33594 985.9082 C 484.10098 987.18856 485.41107 988.22996 486.24219 989.12109 C 486.24381 989.12287 486.2453 989.12413 486.24609 989.125 C 486.88975 990.25009 487.15783 991.21341 487.04297 991.98047 C 486.32663 993.08999 484.14618 994.07622 480.39258 995.38477 C 476.96466 996.57966 474.34324 997.43488 473.31445 997.72266 C 472.98715 997.61607 472.75158 997.45077 472.55859 997.25586 C 472.78234 996.01292 473.53867 993.24109 474.54883 990.01367 C 475.91173 985.65932 476.57017 983.71697 477.80664 983.51953 L 477.80859 983.51953 C 477.92881 983.50035 478.0533 983.49849 478.18555 983.51172 z "
     style="fill:#000000;stroke-width:2.34676003" />
</svg>
