<?xml version="1.0" encoding="UTF-8" standalone="no"?>
<svg
   xmlns:dc="http://purl.org/dc/elements/1.1/"
   xmlns:cc="http://creativecommons.org/ns#"
   xmlns:rdf="http://www.w3.org/1999/02/22-rdf-syntax-ns#"
   xmlns:svg="http://www.w3.org/2000/svg"
   xmlns="http://www.w3.org/2000/svg"
   id="svg2634"
   version="1.1"
   viewBox="0 0 210 297"
   height="297mm"
   width="210mm">
  <title
     id="title3209">Bear with flower</title>
  <defs
     id="defs2628" />
  <metadata
     id="metadata2631">
    <rdf:RDF>
      <cc:Work
         rdf:about="">
        <dc:format>image/svg+xml</dc:format>
        <dc:type
           rdf:resource="http://purl.org/dc/dcmitype/StillImage" />
        <dc:title>Bear with flower</dc:title>
        <dc:creator>
          <cc:Agent>
            <dc:title>Lena London</dc:title>
          </cc:Agent>
        </dc:creator>
        <dc:source>http://www.supercoloring.com/coloring-pages/cute-cartoon-bear</dc:source>
        <dc:date>2020-04-02</dc:date>
        <dc:subject>
          <rdf:Bag>
            <rdf:li>animals</rdf:li>
            <rdf:li>bear</rdf:li>
            <rdf:li>csk</rdf:li>
          </rdf:Bag>
        </dc:subject>
      </cc:Work>
    </rdf:RDF>
  </metadata>
  <g
     id="layer1">
    <g
       transform="translate(92.415179,41.199405)"
       id="g3190">
      <path
         id="path3204"
         d="m 19.241188,18.826505 c -0.335728,-0.01012 -0.654249,0.03592 -0.939857,0.145523 -0.229419,0.08802 -0.3951,0.212287 -0.511769,0.378365 -0.205389,0.109847 -0.258263,0.288433 -0.187976,0.567553 -0.02776,0.3219 0.01737,0.731783 0.13461,1.266086 0.526095,2.395286 -1.373075,4.457333 -8.1810165,8.879547 -2.081992,1.352393 -3.988457,2.694778 -4.910316,3.441703 -0.0011,8.6e-4 -0.0014,0.0015 -0.0024,0.0024 -0.73626,0.414096 -1.247936,0.625597 -1.646878,0.682765 -0.198865,-0.09336 -0.422856,-0.225923 -0.680335,-0.406265 -0.736573,-0.515911 -2.393996,-0.93743 -3.683036,-0.93743 -4.1625593,0 -9.1766675,5.795955 -9.1766675,10.607673 0,0.685843 0.133789,1.46086 0.362607,2.258088 0.0015,0.009 0.002,0.01784 0.0038,0.02668 0.136089,0.752531 0.4308583,1.491659 0.8937741,2.253241 0.8399772,1.710025 1.9833704,3.238951 3.0985083,3.897684 l 0.7482431,0.442643 c 0.3963843,0.454249 0.613736,0.788335 0.6585106,1.061135 l -0.8391506,1.067199 c -1.4649154,1.862323 -1.5136125,3.120425 -0.1928332,5.006115 0.9465338,1.351363 0.9262994,1.540349 -0.3250097,3.087585 -6.9221996,8.559245 -9.6000296,13.221621 -9.9309776,17.497149 -0.03907,0.30525 -0.0655,0.599966 -0.0655,0.870733 0,0.287369 0.01878,0.57642 0.04973,0.86709 0.225616,4.507083 2.391181,7.251142 12.2691079,16.106158 6.4196666,5.754865 13.5333426,9.970565 18.5716151,11.006675 1.109883,0.22833 2.017969,0.56223 2.017969,0.74339 0,0.18118 -1.378907,1.8387 -3.064544,3.68304 -1.976369,2.16247 -4.6058415,6.38332 -7.4036655,11.88466 -3.409839,6.70474 -4.564945,8.59177 -8.35687,12.61112 -1.9291275,1.78081 -3.7385383,3.70245 -5.4026714,5.73374 -4.0977581,4.61903 -6.3879911,8.3229 -8.4781341,13.4976 -2.993786,7.41184 -3.864801,15.20544 -2.771076,21.0116 0.13285,1.03642 0.355101,1.86379 0.707023,2.71529 0.848304,2.47151 2.152234,4.38324 3.90375,5.45119 0.789835,0.48159 1.721081,0.81393 2.715281,1.00047 0.580186,0.14387 1.173831,0.21826 1.7754265,0.21826 0.2779958,0 0.566349,-0.0255 0.858607,-0.0655 1.1455163,-0.076 2.2934439,-0.33176 3.3483236,-0.7725 2.266956,-0.9472 5.9610554,-4.85754 6.0199504,-6.35587 0.04489,-0.11216 0.09732,-0.22529 0.13461,-0.33714 0.05881,-0.17647 0.268011,-0.23139 0.57968,-0.18305 0.219938,0.1176 0.502772,0.29457 0.876799,0.53967 0.482256,0.31597 1.179871,0.56951 1.885781,0.71914 0.618685,0.20112 1.217736,0.23611 1.788766,0.10559 3.17889,-0.38483 4.03557,-2.49104 5.6755315,-13.59218 0.826468,-5.59441 1.635356,-10.53678 1.797262,-10.98363 0.161903,-0.44677 1.541689,1.6126 3.06697,4.57682 2.257895,4.38802 2.962353,6.59172 3.788541,11.86042 1.131143,7.21347 1.455886,16.08213 0.717931,19.58546 -0.266696,1.26609 -1.612495,3.7284 -2.990568,5.47179 -4.199071,5.31221 -5.754372,8.99497 -6.026014,14.26888 -0.248745,4.82931 -1.313489,6.96925 -3.7909695,7.61712 -1.006706,0.26326 -1.022359,0.0984 -0.213438,-2.24961 1.080035,-3.13485 0.564384,-6.25943 -1.240617,-7.52373 -0.968557,-0.6784 -1.659807,-0.98001 -2.129541,-0.89377 -0.02323,0.003 -0.04557,0.009 -0.06791,0.014 -0.03673,-3.8e-4 -0.07193,0.003 -0.104289,0.009 -0.409094,-0.0549 -0.578554,0.20792 -0.516618,0.79675 -0.03203,0.12468 -0.05583,0.26577 -0.07519,0.41838 -0.02089,0.16827 -0.02886,0.3683 -0.03518,0.5712 -0.0021,0.0749 -0.0122,0.13142 -0.0122,0.21098 0,0.95802 -0.24621,1.80026 -0.753101,2.53701 -0.0026,0.005 -0.0059,0.008 -0.0084,0.0114 -0.244324,0.28217 -0.548994,0.54942 -0.945925,0.82584 -4.484555,3.12312 -8.9539698,3.29751 -25.9231385,1.00658 -4.172236,-0.56327 -8.815817,-1.10307 -12.522559,-1.47951 -2.730028,-0.3622 -5.681118,-0.62844 -7.264204,-0.6294 h -0.36503 c -2.55874,-0.22037 -3.07696,-0.48595 -2.891127,-1.16301 0.693002,-2.52502 1.09133,-8.91946 1.109634,-17.80639 0.023,-11.10602 -0.02448,-11.01419 6.00783,-11.67247 4.039568,-0.44079 7.891871,-2.59586 10.982405,-6.14484 2.899213,-3.32929 4.35882,-6.54225 5.553053,-12.21939 1.248385,-5.93465 1.195745,-6.28643 -0.605147,-4.00198 -0.843331,1.06978 -5.317696,4.52639 -9.943111,7.68138 -5.65795,3.85929 -9.057805,6.63924 -10.390594,8.49512 l -1.959761,2.72982 c -0.01338,-0.0398 -0.02654,-0.0718 -0.04001,-0.11873 l -1.032027,-8.22467 c -0.577802,-4.60488 -1.25181,-9.02382 -1.497712,-9.81943 -0.3199,-1.035 0.300257,-0.60298 2.179257,1.51591 2.044073,2.30504 3.607112,3.63192 4.64109,3.94984 0.221697,0.10748 0.427963,0.19078 0.591809,0.21356 0.01338,0.003 0.0346,0.014 0.04609,0.014 0.0042,0 0.008,-0.005 0.01227,-0.008 0.01947,0.001 0.0422,0.008 0.06064,0.008 0.139421,0 0.225125,-0.14127 0.272867,-0.37109 0.611885,-0.85854 -0.535314,-5.91277 -2.116204,-9.12209 -0.805573,-1.63536 -1.292202,-2.87851 -1.081742,-2.76258 3.759141,2.07274 8.607431,3.5733 10.756839,3.54479 0.06111,0.0114 0.12797,0.0187 0.201306,0.0187 0.26092,0 0.449827,-0.0524 0.580896,-0.14314 0.01947,-0.009 0.0391,-0.0164 0.057,-0.0255 0.175373,-0.0798 0.274071,-0.20136 0.274071,-0.37232 0,-0.003 -0.0012,-0.008 -0.0012,-0.009 7.5e-5,-0.003 0.0012,-0.008 0.0012,-0.009 0,-1.45879 -2.126486,-3.90822 -5.471802,-6.30375 -3.290526,-2.3564 -3.351903,-2.45091 -1.589873,-2.45091 2.392151,0 8.922507,-1.70988 10.024355,-2.62431 1.390612,-1.15412 -3.162672,-3.0999 -8.075511,-3.45143 l -1.353401,-0.097 -2.681327,-0.29709 2.48123,-1.58142 c 3.512068,-2.23774 7.591551,-6.79495 6.794881,-7.59162 -0.773277,-0.77327 -7.699133,0.94229 -10.51915,2.60614 l -1.030814,0.60878 c -0.41164,0.14456 -0.692853,0.21801 -0.804035,0.20746 l 1.346122,-2.65708 c 1.692636,-3.34023 3.037846,-8.46274 2.465461,-9.38888 -0.675137,-1.0924 -4.154152,1.55357 -6.891898,5.24136 l -2.505478,3.37502 -0.186755,-1.17878 -0.02427,-0.29346 -0.01227,-1.28185 c -0.02643,-2.93472 -1.080923,-6.76308 -2.133175,-8.41022 l -0.532387,-1.31461 -0.405049,0.49964 c -0.0019,-2e-5 -0.0042,-0.001 -0.0061,-0.001 -1.246814,0 -3.043297,5.38484 -3.077887,9.2276 l -0.0061,0.64877 c -0.0054,0.15371 -0.02065,0.32069 -0.02065,0.46692 0,1.2071 -0.04231,1.58671 -0.789481,0.74097 l -1.228488,-1.81182 c -2.12678,-3.13368 -5.120173,-5.83102 -6.622702,-6.16281 l -0.847697,-0.48751 0.0667,0.69004 c -0.654195,1.04135 0.871925,7.66563 2.305383,9.85337 1.357741,2.07215 1.187727,2.10689 -2.352684,0.48993 -2.127212,-0.97091 -4.482511,-1.65927 -6.228538,-1.92336 -0.630315,-0.14479 -1.172391,-0.24376 -1.490435,-0.24376 -0.266099,0 -0.451217,0.0688 -0.57119,0.19032 -0.217817,0.0549 -0.377373,0.13823 -0.452342,0.25954 -0.57876,0.93644 2.333858,4.72341 5.11647,6.65177 1.408573,0.97612 2.461877,1.8748 2.340551,1.99613 -0.121341,0.12127 -1.867142,0.52421 -3.879498,0.8962 -2.478613,0.4582 -4.749261,1.2139 -6.026008,1.9246 l -1.382509,0.58331 0.345625,0.28258 c -0.02156,0.053 -0.03516,0.10533 -0.03516,0.15512 0,0.91122 3.844069,2.35344 7.404877,2.87536 1.042346,0.18234 2.062173,0.2983 2.967532,0.31653 l 0.510558,0.0474 1.298822,0.21356 -0.463258,0.34927 -1.993716,1.26366 c -2.505523,1.58894 -6.620248,5.92228 -6.620248,6.97191 0,1.06749 5.460239,0.38327 8.59941,-1.07809 1.826802,-0.85043 3.400359,-1.54622 3.497494,-1.54622 0.09714,0 -0.46576,1.60662 -1.251532,3.57024 -1.573246,3.93153 -1.999044,6.45118 -1.50741,7.47037 0.01462,0.46804 0.105193,0.75674 0.29833,0.75674 0.02749,0 0.06307,-0.0114 0.09338,-0.0164 0.02859,0.008 0.05889,0.014 0.09096,0.014 0.0022,5e-5 0.0039,0.001 0.0061,0.001 0.209956,0 0.518748,-0.13329 0.892564,-0.36382 1.255257,-0.46221 3.208365,-2.26844 5.680383,-5.50697 l 2.121053,-2.77714 0.120064,1.14968 0.01338,1.39583 c 0.02974,2.93838 1.608495,8.06161 2.686176,8.93292 0.09391,0.11128 0.184291,0.19056 0.270442,0.23162 0.02821,0.0188 0.05766,0.0413 0.08004,0.0413 0.0099,0 0.02042,-0.008 0.03032,-0.008 0.0087,8.8e-4 0.01807,0.009 0.02668,0.009 0.0019,0 0.0042,-0.003 0.0061,-0.003 0.0025,8e-5 0.0058,0.003 0.0085,0.003 0.440985,0 0.812646,-0.37587 1.215148,-1.32429 0.550016,-0.98561 1.091044,-2.53835 1.551071,-4.55618 l 0.686402,-3.00878 c 0.01878,0.0751 0.0414,0.19852 0.06186,0.29347 l 0.703378,5.81985 c 0.73649,6.09375 1.733361,18.55848 1.906398,23.53044 l -0.01831,2.16836 c -0.104599,0.83283 -0.357224,1.11476 -0.65487,0.84526 l -0.665788,-1.44436 c -0.06148,-0.21519 -0.123655,-0.42783 -0.180701,-0.6876 -0.301619,-1.37328 -1.469173,-3.09833 -3.017254,-4.68233 -1.160423,-1.35635 -2.489603,-2.40408 -4.004408,-3.16762 -0.472365,-0.27622 -0.946011,-0.51885 -1.411601,-0.71915 -2.785724,-1.19837 -3.785693,-1.30421 -8.691579,-0.92045 -3.049194,0.23856 -5.67985,0.65273 -5.845317,0.92045 -0.165469,0.26775 0.74853,0.99948 2.031307,1.62626 1.589799,0.7768 3.222813,2.4828 5.127384,5.36024 3.366573,5.08619 5.175142,6.31432 11.160679,7.57343 6.419034,1.35028 6.458603,1.40074 5.944763,7.73354 -0.434653,5.35687 -0.551316,7.28981 -1.529243,8.19801 -0.769487,0.36196 -2.066991,0.77595 -3.803096,1.2309 -9.393743,2.0603 -11.810991,2.27668 -15.066851,1.40553 -1.774365,-0.47474 -5.478901,-1.04102 -8.231958,-1.25879 -5.579553,-0.4416 -17.036314,0.23209 -17.036314,1.00171 0,0.0375 0.119355,0.0774 0.308036,0.1176 -0.132212,0.31578 0.741134,0.40714 2.994206,0.31164 2.11975,0.14785 5.072205,0.28329 8.339886,0.36747 6.818183,0.17576 10.284055,0.38822 12.826962,0.87196 0.879672,0.20018 1.733764,0.42311 2.570967,0.6597 4.203585,1.38097 8.75601,3.57054 10.37362,4.99277 0.855358,0.75206 1.552048,0.72876 1.617771,0.28985 0.04436,7.5e-4 0.06803,-0.014 0.06669,-0.0413 -0.0028,-0.0594 -0.03691,-0.13235 -0.08733,-0.21331 -0.06362,-0.22389 -0.237424,-0.50239 -0.551786,-0.81494 -0.491926,-0.48913 -2.362397,-1.69077 -4.157215,-2.67043 l -3.263434,-1.78149 6.340109,-1.33519 c 4.912111,-1.03452 6.45518,-1.16427 6.845814,-0.57484 0.262244,0.39572 0.484853,0.46712 0.75674,0.2037 0.228081,0.27614 0.309933,0.13189 0.327438,-0.44145 0.02136,-0.0343 0.03853,-0.0497 0.06065,-0.0873 0.209494,-0.35546 0.574598,-0.61879 1.153298,-0.79433 0.828012,0.008 1.587179,0.0187 2.728629,0.0187 1.529013,0 3.05164,0.0378 4.578018,0.10798 2.122291,0.24977 4.703308,0.6153 7.945756,1.12298 5.415796,0.84794 13.360446,1.86839 17.6548,2.26778 6.8311423,0.63532 8.2427251,0.59939 11.2807365,-0.28862 4.147783,-1.21238 6.525938,-2.95328 7.652274,-5.60278 l 0.651233,-1.53166 0.352904,0.42203 c 0.134586,0.16145 0.244267,0.32284 0.355323,0.48387 l 0.186755,0.46812 c 0.566092,1.42081 0.517202,2.4777 -0.234066,5.0619 -0.522325,1.79675 -0.949562,3.43348 -0.949562,3.63695 0,0.0326 0.0099,0.0587 0.01572,0.0873 -7.2e-4,0.005 -0.01572,0.0448 -0.01572,0.0486 0,0.0692 0.06637,0.13025 0.167371,0.17343 0.589954,0.38726 2.684176,-0.34054 4.5258735,-1.67599 l 2.318721,-1.68203 1.021113,1.02109 0.847694,0.96534 c 2.347245,2.67336 6.617095,3.9171 13.45272,3.9171 0.356006,0 0.675572,-0.005 0.999285,-0.009 l 2.70679,0.19031 0.126121,-0.33105 c 1.519823,-0.15512 2.598888,-0.4499 3.612698,-0.93258 0.191965,-0.0787 0.36411,-0.16098 0.515407,-0.24861 2.019889,-1.02216 2.21693,-0.98416 4.781763,0.15042 2.444131,1.08118 11.502217,2.56722 19.875292,3.26101 v 10e-4 c 5.863191,0.48585 17.588491,-0.2851 22.619684,-1.48679 5.517678,-1.31785 10.263898,-3.48515 13.891728,-6.34254 l 2.26173,-1.78147 c 0.0633,-0.0263 0.12476,-0.0469 0.18676,-0.0692 0.007,-0.001 0.0148,-0.003 0.0218,-0.005 l 9.171817,0.44265 c 6.76119,0.32605 8.66866,0.34527 9.14028,-0.14057 0.0906,-0.0247 0.14066,-0.0521 0.14066,-0.0823 0,-0.046 -0.012,-0.0891 -0.0242,-0.13213 0.003,-0.009 0.008,-0.0187 0.01,-0.0291 l 0.32501,0.009 -0.32258,-0.0235 c 0.008,-0.0455 0.0123,-0.0935 0.0123,-0.14432 0,-0.86125 -1.17676,-0.98958 -9.01779,-0.98958 h -6.4749 c -1.35759,-0.12177 -2.27009,-0.2199 -2.34056,-0.26317 l 0.0521,-0.12607 0.80889,-1.23334 c 0.65827,-1.00463 1.04564,-2.77031 1.01747,-4.63504 -0.0483,-3.20211 -0.87622,-4.86368 -6.107268,-12.25455 -1.9773,-2.7937 -2.774709,-4.53011 -2.774709,-6.03936 0,-2.01699 0.0756,-2.0889 1.592309,-1.51225 4.20333,1.5981 9.109268,0.0823 12.178158,-3.76185 7.08164,-8.8712 7.00974,-34.54811 -0.1528,-54.25597 -4.11363,-11.3188 -12.364957,-25.40276 -20.764219,-35.444215 -4.1471,-4.957901 -6.232755,-8.34163 -7.181742,-11.650615 -0.393925,-1.373497 -0.177251,-2.228979 1.005346,-3.971658 3.106947,-4.578337 3.474541,-9.287727 1.477098,-18.926951 l -1.034357,-4.99348 c -0.05801,-0.815949 -0.01854,-1.371885 0.133388,-1.820295 l 1.260016,-1.90397 C 86.686081,45.010066 86.183761,36.285344 80.347794,29.794359 74.813128,23.638465 67.4823,22.155924 60.430052,25.766914 l -3.605421,1.845759 -6.519592,-3.314369 c -7.890154,-4.011752 -11.816203,-4.60843 -19.752813,-3.000271 -2.792568,0.56585 -5.447887,1.170985 -5.901098,1.344904 -0.473199,0.181592 -1.13295,-0.359796 -1.548645,-1.27214 -0.644949,-1.415509 -2.406488,-2.500735 -3.861307,-2.544292 z m 0.927732,1.602007 c 0.110814,0 0.217052,0.01947 0.321373,0.04729 0.04738,0.03112 0.08469,0.05336 0.13583,0.08733 0.396297,0.263116 0.736664,0.60549 1.02111,1.001708 0.511756,0.986991 0.745836,2.521522 0.552997,4.232392 -0.09046,0.802614 -0.107431,1.518128 -0.06427,2.014332 -0.0057,0.160378 0.0057,0.28731 0.04851,0.346842 0.04426,0.211043 0.106496,0.341986 0.189195,0.341986 0.562426,0 1.140345,-1.395371 1.216359,-2.829279 l 0.011,0.03518 -0.0096,-0.0655 c 0.0042,-0.08983 0.01431,-0.17948 0.01455,-0.269223 0.09049,-0.291307 0.196073,-0.539822 0.326224,-0.750678 1.317161,-1.506615 6.582975,-2.603055 13.148333,-2.621898 l 4.142653,-0.01227 c 1.473299,0.219093 2.890242,0.582583 4.373076,1.129042 l 4.584086,2.386639 4.950332,2.577032 1.512266,0.884074 0.09338,-0.04851 0.2098,0.109152 3.596927,-1.814233 c 6.716476,-3.387853 13.762989,-2.157843 18.655302,3.257372 3.204875,3.547424 4.229154,6.298952 4.240884,11.382606 0.0094,4.397614 -1.153893,7.721967 -3.958325,11.314696 -0.358639,0.459407 -0.584212,0.806778 -0.688823,1.276996 l -0.11034,0.160073 0.05578,0.309246 c -0.04447,0.88819 0.212781,2.255027 0.804033,5.083729 1.588266,7.598548 1.526764,13.996331 -0.169788,17.557786 l -1.215147,2.55035 c -0.0499,0.02769 -0.09807,0.04818 -0.144303,0.0607 l -0.35654,-2.300524 c -0.70013,-4.521005 -2.513972,-5.343636 -2.513972,-1.139969 0,5.106113 -2.996207,13.205517 -6.123029,16.554865 l -1.638392,1.756031 -0.310456,-2.63889 c -0.05172,-0.439653 -0.136018,-0.848477 -0.230428,-1.230912 -0.134587,-0.720548 -0.35914,-1.328695 -0.641527,-1.6214 -0.08538,-0.115196 -0.17427,-0.183378 -0.26437,-0.18071 -0.0028,8.9e-5 -0.009,0.0063 -0.01226,0.0076 -0.03087,-0.0076 -0.06178,-0.01947 -0.09338,-0.01947 -0.210011,0 -0.648191,0.514397 -1.126615,1.245466 -0.383613,0.460011 -0.799583,1.034295 -1.195745,1.674762 -1.907662,3.084107 -4.24686,5.761856 -7.004678,8.029447 -0.169836,0.1331 -0.334983,0.26889 -0.508132,0.4002 -0.08946,0.0707 -0.181335,0.13876 -0.271649,0.20857 -1.4873,1.10853 -3.090354,2.14646 -4.758718,3.08396 -0.197879,0.1066 -0.390904,0.21778 -0.591812,0.32137 -0.03579,0.0195 -0.07209,0.0377 -0.107925,0.057 -3.343702,1.71022 -7.102464,2.9998 -11.267395,3.86012 -2.063637,0.42623 -4.182237,0.71035 -6.320708,0.86466 -2.395389,0.11646 -4.916032,0.11709 -7.322415,0.014 -7.324103,-0.48923 -14.454677,-2.46931 -20.0705445,-5.76043 -3.375573,-1.97816 -13.9512567,-11.164229 -14.4544466,-12.538282 -0.011254,-0.07612 -0.00569,-0.153826 -0.00733,-0.230404 0.2114656,-0.720624 1.9663022,-2.799456 4.1693346,-4.904248 3.845957,-3.67445 4.354075,-4.373261 4.39248,-6.417725 0.226063,-1.280163 -0.02851,-2.496369 -0.75795,-3.59208 -0.222852,-0.479877 -0.497841,-0.883314 -0.835567,-1.210288 -0.8167574,-0.98613 -1.3422603,-1.248463 -2.9457069,-1.179977 -1.081955,-0.132153 -2.3668479,0.0089 -3.8964752,0.395344 -1.1460994,0.165422 -2.1753954,0.35239 -2.6716224,0.506912 l -0.215878,0.0679 c -0.469286,0.04021 -0.826442,0.04793 -0.887708,-0.0134 -0.0015,-0.0013 -0.0022,-0.0051 -0.0035,-0.0063 -0.03737,-0.04514 -0.02158,-0.158416 0.01807,-0.30076 l 1.079329,-1.919769 c 0.815019,-1.450125 2.9591638,-4.427559 4.7647789,-6.616601 2.6210494,-3.177618 3.6369827,-3.980153 5.0364356,-3.980153 1.724908,0 3.29236,-1.243078 3.957111,-3.137316 0.575556,-1.64008 -1.175612,-4.85691 -2.876574,-5.283825 -0.495657,-0.124401 -0.828056,-0.244833 -1.04052,-0.428089 -0.13968,-0.171854 -0.228598,-0.354795 -0.286197,-0.555432 -0.04661,-0.318229 -4.37e-4,-0.748212 0.109147,-1.366736 1.748189,-9.867469 4.917673,-14.435506 14.0481685,-20.246387 5.069627,-3.22644 7.282389,-5.702073 7.282389,-8.148279 0,-1.1801 0.3182,-1.814228 0.909546,-1.814228 z M -0.2630135,34.11044 c 0.826782,0.023 1.538691,0.24957 1.987649,0.698527 1.222455,1.222454 -0.983776,4.246949 -3.098502,4.246949 -1.294479,0 -2.0523349,0.514955 -2.9687469,2.01797 -1.5694843,2.574125 -1.5498264,3.735023 0.1212804,7.081082 1.4974135,2.998354 1.0099538,4.456433 -0.9956482,2.976015 -4.0598051,-2.996704 -4.5045766,-9.159028 -1.5219631,-13.364188 0.3477289,-0.455554 0.7226989,-0.902189 1.1484486,-1.327931 0.2470978,-0.247104 0.4930917,-0.464292 0.7385443,-0.673063 0.065893,-0.053 0.1288838,-0.108531 0.1964699,-0.160072 1.3192688,-1.006253 3.014505,-1.53375 4.39248,-1.495285 z m 67.7135215,2.461823 c -0.363718,0 -0.744059,0.02504 -1.121768,0.07033 -0.197621,0.01994 -0.385903,0.0556 -0.569974,0.09824 -0.904434,0.159299 -1.730956,0.412441 -2.140455,0.711871 -1.524944,1.115072 -0.808425,1.946713 0.807671,0.93743 0.200039,-0.12492 0.430621,-0.223881 0.683973,-0.297114 4.03e-4,-3.8e-5 8.14e-4,3.3e-5 0.0012,0 0.24248,-0.02136 0.415937,-0.03096 0.730058,-0.06306 0.439985,-0.04496 0.832886,-0.06484 1.204231,-0.06669 1.540002,0.147213 3.246918,0.799489 4.32699,1.805748 1.187838,1.106597 1.356547,1.731958 1.041732,3.873432 -0.261814,1.780995 -0.299423,2.270661 0.06669,1.92701 0.11316,-0.03534 0.287284,-0.236264 0.548147,-0.593016 0.146602,-0.200507 0.268565,-0.42142 0.377158,-0.652448 0.802486,-1.463923 0.69531,-3.075753 -0.04365,-4.451902 -0.03565,-0.07603 -0.06233,-0.156552 -0.101868,-0.230405 -0.223622,-0.417824 -0.54724,-0.796906 -0.930158,-1.13996 -1.166293,-1.152209 -2.872291,-1.929437 -4.879996,-1.929437 z m -68.9407945,3.725481 c 0.301939,0 0.499433,0.05525 0.609998,0.172206 0.03858,0.13752 0.04996,0.306146 0.03518,0.503281 -0.01173,0.08136 -0.02408,0.165188 -0.03882,0.253457 -0.01924,0.05177 -0.03508,0.100932 -0.05942,0.157656 -0.256524,0.59763 -0.791006,2.281224 -1.187254,3.742457 -0.753525,2.778692 -1.5391426,2.861629 -1.5765335,0.251035 0.025815,-0.819357 0.1278515,-1.690169 0.2971186,-2.475165 0.3969449,-1.500811 1.1347259,-2.604924 1.9197409,-2.604924 z m 17.9300885,4.114762 c -0.588995,0.0021 -1.398355,0.08524 -2.40362,0.275288 -3.303198,0.624535 -7.4248135,2.774986 -9.3100615,4.858164 -0.937817,1.036273 -1.105507,1.402524 -0.226768,1.064767 0.127476,0.04264 0.353983,-0.06524 0.648804,-0.283777 0.696777,-0.331679 1.67604,-0.846713 3.068189,-1.608065 2.1461445,-1.173714 5.2475815,-2.468616 6.8918975,-2.877792 2.879604,-0.71656 3.098544,-1.43521 1.331568,-1.428585 z m -1.150877,7.061679 c -0.248097,0 -0.506907,0.05039 -0.767653,0.140665 -0.651308,0.14862 -1.264049,0.43592 -1.799674,0.831926 -1.260827,0.85914 -2.155011,2.25273 -2.155011,3.994708 0,1.209769 0.562479,2.482219 1.523181,3.442915 0.0047,0.0047 0.0099,0.0087 0.01455,0.01338 0.302596,0.404227 0.61451,0.734876 0.871941,0.885292 1.155211,0.674976 2.32159,0.816066 3.378646,0.591805 3.455005,-0.573963 6.092011,-4.956295 2.899616,-8.354443 -0.723788,-0.770437 -1.601101,-1.219866 -2.515184,-1.409182 -0.303833,-0.08692 -0.610346,-0.137027 -0.914394,-0.137027 -0.06923,0 -0.143739,0.01214 -0.215855,0.01947 -0.109219,-0.01201 -0.216512,-0.01947 -0.320162,-0.01947 z m 1.02111,1.859103 c 0.378932,-0.0058 0.724837,0.148338 0.920463,0.415963 0.108749,0.302811 0.11823,0.6788 -0.04245,1.097514 -0.09767,0.254506 -0.256761,0.483419 -0.432945,0.657292 -0.707425,0.249024 -1.961726,-1.221672 -1.423736,-1.759657 0.277032,-0.277032 0.637443,-0.40591 0.978664,-0.411112 z m -19.9759462,1.37644 c 0.2214402,-0.02495 0.447168,0.0061 0.6645695,0.06065 0.4704102,0.184081 0.8242692,0.603833 0.8367792,1.027178 -0.0015,0.09016 -0.0176,0.173753 -0.03637,0.255883 -0.08948,0.308098 -0.343005,0.592036 -0.674269,0.759167 -0.1639916,0.06405 -0.3364104,0.09802 -0.5105587,0.115208 -0.1856092,-0.02835 -0.3669011,-0.111002 -0.5226883,-0.266806 -0.2616427,-0.261641 -0.3885061,-0.565722 -0.4256623,-0.857389 0.00103,-0.224725 0.019712,-0.416379 0.06064,-0.572407 1.853e-4,-7.09e-4 -1.878e-4,-0.0018 0,-0.0024 0.091171,-0.226532 0.2544427,-0.409038 0.4838784,-0.495996 0.041139,-0.008 0.081737,-0.01831 0.1236981,-0.023 z m -2.7662195,19.849825 c 0.6838056,-0.02162 1.2954185,0.01897 1.7705721,0.138247 1.7962281,0.450831 3.0712861,2.970568 2.5515701,5.041295 -0.179996,0.717134 -2.2467712,3.253411 -4.5925801,5.636734 l -4.2348244,4.301513 c -0.04431,-0.0349 -0.0916,-0.07802 -0.138247,-0.118862 l -1.65537,-2.302965 c -1.951904,-2.715443 -2.799841,-7.969691 -1.635964,-10.14441 0.634947,-1.186414 4.971674,-2.457878 7.9348408,-2.551565 z m 82.9465237,8.318061 c 0.02089,0.0013 0.04401,0.01138 0.0655,0.01568 0.08922,0.168457 0.192224,0.303416 0.30682,0.350481 0.119217,0.04894 0.406077,0.475703 0.756737,1.070826 0.185605,1.924842 3.750531,7.993768 6.817924,11.553616 11.438788,13.275203 21.770866,33.985333 24.522446,49.151603 2.39468,13.19911 1.72212,29.58273 -1.48923,36.26522 -0.7277,1.51442 -1.20268,2.3003 -1.05507,1.74633 0.71748,-2.6919 1.07068,-6.75488 0.58697,-6.75488 -0.29917,0 -1.05513,1.785 -1.67963,3.96561 -0.62452,2.1806 -1.66458,4.83502 -2.31145,5.89867 -0.25099,0.41277 -0.46585,0.73172 -0.68397,0.98839 -0.0464,0.0448 -0.0947,0.0836 -0.14188,0.12607 -0.31224,0.24054 -0.66541,0.45006 -1.03809,0.63303 -0.55068,0.14997 -1.280868,0.18564 -2.407248,0.18564 h -2.40726 c -0.15329,-0.2138 -0.10625,-0.57369 0.14189,-1.22244 l 0.65608,-0.96653 c 1.48012,-2.18108 2.82321,-6.96341 2.82321,-10.05226 0,-2.56202 -0.73714,-1.18628 -2.32357,4.33912 -0.80668,2.80951 -1.96895,5.6183 -2.5831,6.24066 -1.0792,1.09364 -1.16826,1.06893 -2.67284,-0.71913 -1.98383,-2.35768 -2.57057,-6.0484 -1.71236,-10.78111 0.25403,-1.40092 0.3633,-2.47271 0.34927,-3.19674 0.007,-0.0187 0.0155,-0.0708 0.0218,-0.0873 0.30039,-0.78278 0.1298,-1.05017 -0.23527,-0.93987 -0.042,-0.15395 -0.0973,-0.25329 -0.17462,-0.23768 l 0.004,-0.0693 -0.0558,0.0934 c -0.0643,0.0432 -0.1404,0.16709 -0.22193,0.33231 -0.12102,0.10583 -0.26533,0.30066 -0.41717,0.52629 -0.29075,0.31447 -0.58874,0.72367 -0.84163,1.21272 -0.34062,0.65869 -0.93556,1.41512 -1.54501,2.03252 -0.0817,0.0775 -0.16479,0.16663 -0.24619,0.23399 -0.0167,0.014 -0.0331,0.0283 -0.0497,0.0425 -0.746765,0.60142 -1.498704,0.8004 -2.50549,0.8004 -1.820544,0 -2.167204,-0.26665 -2.785623,-2.14045 -0.513259,-1.55518 -0.526838,-3.1263 -0.04973,-5.74345 0.617199,-3.3856 1.293145,-4.93292 6.164263,-14.0906 2.74843,-5.16718 2.69854,-9.48509 -0.18675,-16.09404 -3.418682,-7.83062 -9.554046,-17.39146 -10.571293,-16.48332 l -0.366247,-0.39777 0.332289,0.48874 c -0.06704,0.37524 0.696063,1.73751 1.815444,3.20401 4.611912,6.04192 8.639237,14.67508 9.494397,20.01475 0.0275,0.35354 0.0518,0.71366 0.0703,1.10842 0.026,0.55331 0.0523,1.0205 0.0703,1.448 -0.159909,2.9478 -1.34376,5.8409 -4.233603,10.36876 -4.387809,6.87493 -5.685812,16.52516 -2.562485,19.05428 1.682018,1.36204 3.632425,1.44087 5.379638,0.21708 1.273421,-0.89193 1.304631,-0.82571 1.6117,3.46598 0.223861,3.12886 0.688731,4.88388 1.63354,6.16182 0.25478,0.34461 0.4829,0.76176 0.67791,1.2091 0.25791,0.78123 0.47978,1.64019 0.62577,2.4509 0.008,0.11785 0.0183,0.23648 0.0183,0.34927 0,2.54974 1.48958,5.74269 4.34639,9.31489 6.425028,8.03407 5.838508,13.69563 -1.95733,18.90149 -4.28546,2.86174 -9.434614,4.62197 -16.3293,5.58095 -0.805341,0.11191 -1.892563,0.20463 -3.070607,0.28743 -1.566683,0.0477 -3.366077,0.0856 -5.652499,0.12139 -2.042104,0.0316 -3.980939,0.0354 -5.816208,0.0164 -1.211702,-0.0389 -2.420973,-0.0872 -3.619975,-0.14667 -0.909409,-0.13775 -4.051554,-0.49562 -7.706848,-0.86953 -3.964452,-0.40553 -7.537989,-0.94064 -7.940899,-1.18969 -1.193894,-0.73786 0.267668,-3.60394 2.560051,-5.02066 1.118396,-0.69118 3.253045,-1.57117 4.742952,-1.95491 1.353792,-0.34868 1.991108,-0.59 2.06891,-0.83312 l 0.810092,-0.21826 -0.9059,-0.0164 c -0.06144,-0.0594 -0.142755,-0.11975 -0.258311,-0.18423 -1.299413,-0.72718 -3.7959,-0.0235 -6.047841,1.28549 -1.178487,0.58533 -2.196427,1.365 -2.946912,2.24839 -0.79601,0.81309 -1.379999,1.67159 -1.585031,2.4885 -0.508235,2.02507 -1.483119,1.94994 -4.673826,-0.3614 -2.269669,-1.64414 -2.575723,-2.13181 -2.224131,-3.53265 0.659925,-2.62936 2.553158,-4.80816 5.57124,-6.40923 0.964618,-0.51174 1.678855,-0.98055 2.157432,-1.36676 l 0.978664,-0.51175 -0.522678,0.0861 c 0.42309,-0.49881 0.106167,-0.69052 -1.184832,-0.29227 -1.777041,0.54818 -3.631867,1.63428 -5.101917,2.84746 -0.378888,0.2785 -0.71089,0.55014 -0.909546,0.78951 -0.01478,0.0187 -0.03543,0.0551 -0.05092,0.0751 -1.12234,1.11229 -1.854254,2.25086 -1.854254,3.1288 0,0.48606 -0.27941,0.88286 -0.620914,0.88286 -0.341502,0 -0.617895,-1.32719 -0.614846,-2.94933 0.02042,-10.30496 14.38513,-19.35825 28.343733,-17.86341 2.507149,0.26851 4.509389,0.99067 6.177605,2.26657 l 1.257591,1.30976 c 0.372212,0.38734 0.677982,0.69044 0.987152,0.99808 0.323938,0.43555 0.634626,0.90235 0.932582,1.40676 1.044216,1.76769 2.033735,2.35338 2.033735,1.20422 0,-0.32379 -1.333629,-2.20978 -2.962676,-4.19117 -4.214948,-5.1265 -5.01186,-6.53463 -6.097566,-10.77259 -0.21555,-0.84141 -0.374597,-1.60519 -0.472961,-2.35634 -0.03981,-0.54022 -0.06263,-1.0884 -0.06064,-1.6505 0.0015,-0.44643 0.01125,-0.85874 0.02788,-1.2588 0.295877,-2.80935 1.546893,-6.38002 4.286974,-13.27325 3.383251,-8.51107 5.003258,-15.01028 3.513251,-14.08941 -0.395218,0.24425 -0.717929,0.96921 -0.717929,1.61172 0,1.59711 -2.664106,8.85441 -5.573669,15.18207 -2.314164,5.03275 -2.512967,5.26554 -5.092216,5.96779 -3.727358,1.01484 -18.399412,0.38801 -22.863444,-0.97623 -10.322483,-3.15464 -17.833567,-10.22901 -21.724697,-20.46346 -0.622229,-1.63658 -0.371374,-1.50887 2.647371,1.34612 12.150768,11.49174 33.26051,11.41305 43.839888,-0.16262 11.611232,-12.70451 10.601051,-32.49223 -2.530948,-49.57364 l -3.293754,-4.28456 2.091946,-2.11013 c 0.749423,-0.63457 1.742232,-1.661734 2.731049,-2.78319 1.689519,-1.76654 3.245702,-3.528072 3.710929,-4.233611 l 0.419604,-0.636674 c 0.164204,-0.129004 0.305081,-0.2137 0.418385,-0.253468 l -0.337137,1.200602 c -0.287544,1.024495 -0.722458,2.35171 -0.965321,2.949337 -0.346042,0.851575 -0.01455,1.190068 0.700949,1.090236 0.151155,0.02706 0.360912,-0.03022 0.62819,-0.164928 0.838469,-0.303378 1.949774,-0.97408 3.106995,-1.964611 0.82368,-0.705045 1.722619,-1.780183 2.595227,-3.001497 0.03823,-0.05399 0.08007,-0.104321 0.117649,-0.158872 0.01713,-0.02504 0.03147,-0.04666 0.04851,-0.07157 1.822908,-2.606431 3.483182,-5.872701 3.955903,-8.110683 0.253965,-1.202334 0.59381,-1.738746 1.087809,-1.695386 z m -36.051791,5.823487 c -0.118154,0.0038 -0.219375,0.100274 -0.29833,0.270437 -0.156786,-0.08953 -0.196916,0.100149 -0.14916,0.658512 -0.0332,0.378224 -0.019,0.859441 0.06548,1.427377 0.458417,3.079403 -1.43907,6.243224 -4.057768,6.766978 -1.024313,0.204848 -1.861529,0.61801 -1.861529,0.916823 0,0.833898 2.346729,0.645033 4.255442,-0.341996 2.632407,-1.361281 4.005792,-5.594777 2.818366,-8.689139 -0.27005,-0.703743 -0.548368,-1.015795 -0.772505,-1.008992 z m 14.130631,15.621069 c 1.772355,-0.0971 2.789659,1.57011 5.805299,6.1388 5.901963,8.94146 8.110287,15.74428 8.062178,24.83532 -0.06386,12.0588 -5.780233,21.39571 -16.038247,26.19601 -3.560808,1.66631 -4.870059,1.92737 -10.693782,2.13318 -0.877939,0.031 -1.699781,0.0483 -2.477586,0.0497 -0.476484,-0.005 -0.952195,-0.0114 -1.41161,-0.0291 -1.708499,-0.0655 -3.297392,-0.21919 -4.796313,-0.46083 -2.398497,-0.45226 -4.608478,-1.24725 -7.298156,-2.51155 -3.963832,-1.86323 -9.815036,-7.41222 -11.566941,-10.96906 -0.132358,-0.26873 -0.243667,-0.51305 -0.352904,-0.75795 -0.402066,-1.13235 -0.688774,-2.38607 -0.903479,-3.85282 -0.154065,-1.84021 -0.181264,-4.51256 -0.1807,-9.17546 0.0018,-11.53677 0.926116,-16.78364 4.136593,-23.47344 0.581201,-1.21107 0.929129,-1.86041 1.336416,-2.17197 l 2.142878,-0.0235 c 3.732177,0.70848 15.317496,0.34026 20.013544,-0.66094 1.075673,-0.22928 2.466929,-0.64003 3.917097,-1.13269 0.578709,-0.18727 1.16186,-0.39648 1.753595,-0.62696 1.431071,-0.53731 2.826926,-1.12117 3.951047,-1.67356 2.201746,-1.08192 3.537655,-1.77536 4.601061,-1.83364 z m -40.025878,10.11896 c 0.120483,0.0582 -0.05618,0.55543 -0.528744,1.6869 -3.003688,7.19169 -4.010488,23.72825 -2.003414,32.91567 0.27607,1.26371 0.464405,2.33051 0.571189,3.23068 0.01619,0.94528 -0.02159,1.937 -0.116423,3.04758 -0.320546,0.88586 -1.156019,5.4056 -1.871229,10.12381 -0.9401305,6.20199 -1.5506325,9.60538 -2.1829015,11.53662 -0.411058,0.96908 -0.875557,1.71996 -1.388561,2.23747 -0.682119,0.45589 -1.451262,0.68237 -2.222921,0.66578 -0.596816,-0.14551 -1.249601,-0.62082 -2.309022,-1.51225 -0.464902,-0.39118 -0.888713,-0.71553 -1.241827,-0.96413 l -0.633039,-0.68276 -0.100653,0.24498 c -0.04522,-0.0114 -0.07932,-0.014 -0.08974,0.005 -0.07097,0.1279 -0.827075,1.62376 -1.680838,3.32407 -0.870378,1.73343 -2.3188498,3.50633 -3.2973858,4.03593 -1.6484267,0.89212 -1.8119122,0.86311 -2.9493395,-0.52148 -1.3507175,-1.64422 -1.6402353,-6.31087 -0.5663414,-9.13544 0.8614484,-2.26576 0.3252348,-2.6072 -0.9762419,-0.62091 -1.6457269,2.5117 -1.8140889,6.4773 -0.3904942,9.20456 l 1.215147,2.32721 h -2.1065007 c -1.25936,0 -2.591449,-0.48494 -3.314366,-1.20787 -0.894899,-0.89488 -1.626671,-2.6417 -2.051927,-4.59742 -0.16662,-0.93148 -0.286912,-1.97288 -0.357752,-3.14945 -0.01338,-0.22247 -0.02385,-0.31723 -0.03638,-0.51662 0.0035,-0.30156 0.01314,-0.60072 0.03638,-0.89256 0.156857,-1.97233 0.0049,-2.61234 -0.567551,-2.39269 -2.266131,0.8696 0.164507,-12.1728 3.499914,-18.7802 1.525007,-3.02103 4.0693925,-6.7773 6.5171631,-9.89945 1.3802612,-1.67533 2.783246,-3.281 3.9825784,-4.55377 1.124375,-1.08969 2.004961,-1.70667 2.40725,-1.5523 0.06705,0.0258 0.134399,0.0409 0.203746,0.0486 -0.08247,0.41439 0.114897,0.32892 0.714292,-0.1577 0.05149,-0.0417 0.142026,-0.16264 0.236481,-0.28983 1.171495,-1.09296 3.034058,-4.40561 7.038639,-12.17694 2.8259065,-5.48397 5.5362255,-10.30121 6.0223755,-10.70469 0.286582,-0.23782 0.466151,-0.36121 0.538443,-0.32622 z m -67.948793,9.67993 c 0.764804,0 1.243144,1.70972 1.585025,5.67555 0.04111,0.59775 0.07946,1.23231 0.116422,1.93065 0.03063,0.57871 0.03833,0.92008 0.05942,1.39583 0.01736,3.17691 -0.515773,5.08216 -1.336424,4.26151 -0.237212,-0.23721 -0.430515,-1.08408 -0.430515,-1.88093 0,-1.55031 -0.900637,-1.95164 -1.506199,-0.67185 -0.455132,0.96184 0.127897,-7.39184 0.650022,-9.3137 0.208744,-0.76841 0.597107,-1.39706 0.862241,-1.39706 z m -10.872051,2.55642 1.877294,1.78998 c 2.431039,2.31889 5.869966,7.77159 5.874425,9.31369 0.0016,0.57372 -0.582621,0.21615 -1.523181,-0.93136 -1.536893,-1.87496 -2.123928,-1.26145 -0.928944,0.9714 1.191845,2.22698 0.0066,1.22273 -1.645662,-1.39463 -1.829101,-2.89748 -2.962141,-5.48957 -3.616336,-8.26956 l -0.269222,-1.1436 c 0.04495,-0.15818 0.122618,-0.26995 0.231626,-0.33592 z m 21.733187,0.35897 c 0.09643,0.009 0.163969,0.065 0.198889,0.1699 0.325309,0.97592 -1.58878,5.90368 -3.565405,9.17788 -0.876188,1.45139 -1.945142,2.63888 -2.374509,2.63888 -0.192013,0 -0.332449,-0.0235 -0.448703,-0.0606 -0.01689,-0.0411 -0.03203,-0.0735 -0.04973,-0.11874 -0.08362,-0.21472 -0.113754,-0.44957 -0.101867,-0.69126 0.172134,-0.43523 0.534624,-1.07151 1.112061,-2.00582 1.551708,-2.51074 0.603715,-2.79347 -1.284272,-0.38323 -1.093782,1.39634 -1.035958,1.12741 0.314095,-1.47226 1.694039,-3.26209 5.267152,-7.34864 6.199435,-7.25449 z m 7.300585,7.64015 c 1.197598,0 1.120482,0.2091 -0.816161,2.21198 -1.176879,1.21716 -3.571128,3.03335 -5.320209,4.03596 -1.166691,0.66876 -2.294935,1.23266 -3.056062,1.54986 -0.395335,0.1516 -0.721321,0.26278 -0.858606,0.27043 -0.155685,-0.003 -0.286154,-0.0211 -0.385644,-0.0521 -0.07247,-0.0253 -0.136769,-0.0551 -0.178259,-0.097 -0.122505,-0.12367 -0.09844,-0.31968 0.03395,-0.54816 0.232095,-0.34658 0.769653,-0.76689 1.571689,-1.1436 0.939137,-0.44109 1.373274,-0.92396 0.965328,-1.07204 -0.119192,-0.0432 -0.287199,-0.0502 -0.474175,-0.04 -0.164274,-0.0967 -0.481194,-0.0288 -0.824654,0.1638 -0.245882,0.077 -0.492465,0.16849 -0.719141,0.28985 -0.686526,0.3674 -1.09774,0.52386 -1.280634,0.52146 -0.548689,-0.008 0.959398,-1.43586 3.264645,-2.82321 1.612811,-0.97064 2.967178,-1.69282 4.147509,-2.21807 0.510957,-0.20699 1.007973,-0.39069 1.471031,-0.53483 0.496774,-0.15465 0.977635,-0.29128 1.427374,-0.4111 0.361924,-0.0615 0.709426,-0.10306 1.032028,-0.10306 z m -36.630258,0.009 c 0.02007,-5e-4 0.04809,3.8e-4 0.06913,0 2.819735,0.0866 12.497869,5.18867 11.834946,6.26131 -0.197457,0.31949 -0.945789,0.1584 -1.692958,-0.36505 -0.736573,-0.5159 -1.555991,-0.93743 -1.821506,-0.93743 -1.018845,0 -0.411187,0.99758 1.224845,2.0119 0.819787,0.50829 1.282987,0.94091 1.147237,1.04903 -3.22e-4,2.5e-4 3.29e-4,9.3e-4 0,10e-4 -0.0066,0.003 -0.01409,0.005 -0.02182,0.008 -0.01075,0.005 -0.02583,0.009 -0.04124,0.0114 -0.134282,1.4e-4 -0.332227,-0.0505 -0.563919,-0.12742 -1.942821,-0.71983 -7.579466,-4.33433 -9.356143,-6.09029 -1.202144,-1.18814 -1.511713,-1.66501 -1.099942,-1.78999 0.08587,-0.0164 0.190696,-0.026 0.321373,-0.0302 z m 18.51826,3.83222 c 0.162161,0.005 0.319459,0.001 0.488729,0.0164 0.09265,0.0286 0.160541,0.0441 0.282564,0.0873 0.584782,0.20651 1.341832,0.37554 1.765715,0.40142 0.125969,0.056 0.251167,0.11684 0.377164,0.18187 -0.0349,0.0971 -0.174459,0.22997 -0.431734,0.39292 -0.747276,0.47303 -0.735323,0.69689 0.08124,1.51347 1.111846,1.11186 1.783419,0.72944 1.321871,-0.75188 -0.19856,-0.63727 0.190486,-0.44469 1.028388,0.50811 0.785806,0.89358 1.066876,1.6285 0.673057,1.75968 -0.371815,0.12392 -0.675487,0.79526 -0.675487,1.49165 0,1.05503 0.155263,1.13768 0.931372,0.49357 0.01037,-0.009 0.01783,-0.014 0.02791,-0.0211 0.01176,0.005 0.02741,0.0211 0.03759,0.0211 0.04617,0 0.08801,-0.0633 0.124919,-0.14925 0.323757,-0.24543 0.511925,-0.30375 0.616064,-0.14082 0.03649,0.27948 0.06588,0.61509 0.07519,1.05509 0.004,0.18914 8.75e-4,0.36886 -0.0073,0.54449 -0.135924,0.65468 -0.554005,0.8977 -1.496501,0.95201 -1.043682,0.0603 -1.551075,-0.23421 -1.551075,-0.89984 0,-0.6271 -0.111187,-0.7648 -0.460828,-0.49359 -0.05138,0.009 -0.104472,0.0286 -0.160096,0.0631 -0.341503,0.21098 -0.620912,0.64642 -0.620912,0.96775 0,0.30923 0.260715,0.55847 0.584533,0.57726 0.64721,0.52186 -2.025869,-0.28926 -0.282564,2.24718 -0.09221,0.014 -0.190955,0.0345 -0.295904,0.0617 -0.192316,0.0502 -0.353932,0.11988 -0.494792,0.19761 -0.421155,0.0411 -0.753101,0.29078 -0.753101,0.60393 0,0.3415 0.349264,0.62593 0.776141,0.63062 0.517421,0.008 0.465687,0.21121 -0.155238,0.61243 -0.464505,0.30018 -0.846933,0.4744 -1.139955,0.54331 -0.12105,0.009 -0.242193,0.0164 -0.363819,0.0211 -0.270358,-0.0606 -0.342084,-0.33455 -0.154016,-0.82465 0.185721,-0.48399 -0.08969,-1.04407 -0.61121,-1.24425 -0.436576,-0.16756 -0.846278,-0.19079 -1.169066,-0.11646 -0.06548,-0.0781 -0.117244,-0.0464 -0.158853,0.0546 -0.455999,0.1732 -0.667661,0.57363 -0.362607,1.0672 0.04991,0.0807 0.07028,0.14644 0.08247,0.20628 -0.07296,0.11355 -0.162749,0.1868 -0.265584,0.22201 -0.07808,-0.008 -0.164789,-0.0211 -0.272859,-0.057 -0.474416,-0.15818 -0.862251,-0.5893 -0.862251,-0.95926 0,-0.36997 -0.222074,-0.89513 -0.493575,-1.16665 -0.271509,-0.27152 0.104473,-0.94534 0.836779,-1.49772 0.981515,-0.74037 1.191147,-0.98377 0.764015,-1.52803 -8.14e-4,-0.0603 -0.0087,-0.11659 -0.02547,-0.16732 -0.175326,-0.52601 -0.588342,-0.76985 -0.920456,-0.73127 -0.473507,-0.30448 -0.972461,-0.41721 -1.249105,-0.24619 -0.431744,0.26684 -0.53201,0.0446 -0.278926,-0.61485 0.256467,-0.66832 0.08124,-1.03324 -0.496004,-1.03324 -0.480513,0 -0.699571,-0.29898 -0.586955,-0.76158 0.180911,-0.26218 0.415632,-0.52975 0.682762,-0.77372 0.118648,-0.0187 0.239362,-0.003 0.349265,0.0655 0.343899,0.21261 0.83809,0.0408 1.098725,-0.38079 0.337241,-0.5457 0.596375,-0.56789 0.898629,-0.0789 0.233596,0.37797 0.128813,0.68764 -0.232846,0.68764 -0.361657,0 -0.657297,0.41908 -0.657297,0.93135 0,0.75939 0.424592,1.02023 0.850116,0.89134 0.105067,0.0324 0.19058,-0.0114 0.255886,-0.12367 0.29805,-0.20769 0.550496,-0.61306 0.593021,-1.17756 0.106496,-1.41368 1.051654,-2.25958 2.151372,-2.02159 0.11297,0.15207 0.288956,0.25831 0.495998,0.25831 0.257411,0 0.42442,-0.088 0.519047,-0.2206 0.01596,-0.0211 0.02207,-0.0497 0.03274,-0.0751 0.09969,-0.2138 0.04126,-0.50495 -0.154018,-0.781 -0.124616,-0.23093 -0.305919,-0.48682 -0.553005,-0.7531 -0.25271,-0.27237 -0.389479,-0.44537 -0.409897,-0.53845 z m 1.878505,2.98935 c -0.233291,0 -0.585476,0.26943 -0.951984,0.65003 -0.291489,0.0268 -0.374616,0.0918 -0.223153,0.2389 -0.456166,0.52581 -0.89565,1.18656 -1.152085,1.75359 -0.137403,0.11406 -0.227988,0.27561 -0.227988,0.46083 0,0.0601 0.0087,0.11469 0.01572,0.16991 -0.0077,0.0513 -0.01572,0.10281 -0.01572,0.14785 0,1.39873 0.58099,1.10931 1.236978,-0.61605 0.308364,-0.81101 0.692772,-1.21804 1.154513,-1.23698 0.02112,0.0114 0.05409,0.0348 0.07397,0.046 0.140781,0.14667 0.277337,0.24859 0.365028,0.24859 0.041,0 0.07899,-0.0249 0.114007,-0.0617 0.05169,-0.008 0.0872,-0.0397 0.110366,-0.0934 0.436291,0.0998 0.53286,-0.10205 0.300751,-0.70703 -0.211161,-0.55027 -0.571327,-1.0005 -0.800394,-1.0005 z m 9.906725,2.53581 c 3.557854,-0.005 8.504174,0.40196 9.580496,1.01505 1.180563,0.67244 1.149919,0.7439 -0.620912,1.45164 -2.504996,1.00116 -10.932909,1.43675 -12.107814,0.62576 -0.769889,-0.53133 -0.696453,-0.64541 0.428095,-0.65245 0.748226,-0.005 1.534036,-0.28791 1.745103,-0.62939 0.102981,-0.16663 0.03586,-0.31361 -0.154018,-0.42324 l 0.154018,-0.0291 -0.244968,-0.014 c -0.21893,-0.0952 -0.546852,-0.15396 -0.960473,-0.15396 -0.665554,0 -1.236656,-0.18187 -1.472249,-0.43656 0.05972,-0.12064 0.124263,-0.23625 0.195249,-0.34441 0.144608,-0.0891 0.339709,-0.17601 0.579678,-0.25711 0.682864,-0.10015 1.692599,-0.15019 2.877792,-0.15161 z m -25.651488,0.0644 c 0.398334,8.2e-4 0.796322,-0.003 1.194525,0.0114 1.594662,0.0608 2.819171,0.17741 3.663639,0.34442 0.892544,0.36289 1.045803,0.81168 0.522677,1.11934 -0.241354,0.0979 -0.578024,0.19314 -0.966537,0.28499 -0.209868,0.0307 -0.432802,0.0561 -0.693679,0.0666 l -2.017969,0.0812 1.044153,0.2206 -0.423239,0.0899 1.209085,0.0751 0.343199,0.0727 c 1.567831,0.32991 0.616542,0.46914 -3.415025,0.49964 -3.073521,0.0235 -6.286749,-0.24702 -7.140505,-0.6003 l -1.501344,-0.62213 c 3.7e-5,-0.014 0.0052,-0.0291 0.0085,-0.0436 l 1.492855,-0.57483 c 1.281827,-0.49369 4.147087,-0.88538 6.679677,-1.02595 z m 13.638265,2.71527 c -0.24642,-0.009 -0.48584,0.0601 -0.669418,0.24375 -0.297525,0.29753 -0.353144,0.84512 -0.123694,1.21637 v 0.001 c 0.141675,0.22904 0.30665,0.39235 0.481449,0.49966 0.06603,0.079 0.135478,0.11355 0.213438,0.10179 0.434144,0.1408 0.901982,-0.0647 1.244247,-0.61849 0.401427,-0.64951 -0.406752,-1.41291 -1.146019,-1.44436 z m 8.057321,1.89428 c 0.28949,0.014 0.661107,0.1009 1.085388,0.24012 2.189652,0.79722 6.237201,3.31658 8.725529,5.59186 0.01227,0.0114 0.02666,0.0252 0.03882,0.0376 l 1.276996,1.30731 c 0.275573,0.30895 0.500958,0.57676 0.584532,0.73247 0.02843,0.074 0.05069,0.14385 0.0667,0.21214 8.9e-5,3.6e-4 -7.9e-5,8.5e-4 0,0.001 -0.03135,0.14502 -0.295685,0.15722 -0.772502,0.13587 -3.164262,-0.14127 -11.899416,-4.48956 -12.62807,-6.19094 -0.0049,-0.14198 0.03787,-0.25296 0.137027,-0.32017 0.122125,-0.005 0.289611,0.0266 0.503281,0.10558 0.171336,0.0702 0.346196,0.14292 0.582107,0.26924 0.02567,0.014 0.05506,0.0211 0.08124,0.0352 1.386841,0.70553 2.368444,0.72379 2.368444,0.0187 0,-0.30169 -0.558822,-0.69458 -1.241827,-0.87316 -0.683007,-0.17859 -1.241828,-0.63338 -1.241828,-1.01141 0,-0.13611 0.06359,-0.22388 0.175842,-0.27164 0.07993,-0.0114 0.159322,-0.0244 0.258305,-0.0187 z m -16.084322,0.36502 c 0.105269,-0.008 0.194148,8.3e-4 0.264372,0.0241 0.204027,0.068 0.165095,0.26188 -0.05942,0.51904 -6.64e-4,7.7e-4 -5.4e-4,0.001 -0.0012,0.003 -0.154159,0.14034 -0.326005,0.29129 -0.517829,0.4572 -0.192622,0.1448 -0.413677,0.29569 -0.670636,0.44748 -1.096005,0.64742 -1.992506,1.39597 -1.992506,1.66385 0,0.76532 0.616916,0.58749 3.030593,-0.87072 l 1.902765,-1.14845 c -0.0082,0.0655 -0.023,0.14784 -0.03759,0.22928 l -0.814946,0.93499 c -0.658163,0.75485 -2.893451,2.1796 -4.967309,3.16644 -2.073858,0.98685 -4.608588,1.97868 -5.633096,2.20351 l -0.845262,0.18563 c -0.309679,0.003 -0.5194,-0.0596 -0.624552,-0.18563 l 1.780271,-1.84941 c 2.307271,-2.39759 7.607141,-5.68662 9.186371,-5.77984 z m 13.073133,2.97964 c 0.887307,0 2.963789,3.06674 4.813299,7.10656 0.866753,1.89325 1.487057,4.02105 1.377651,4.72961 -0.182884,1.18432 -0.356515,1.12288 -2.144095,-0.77128 -2.517374,-2.66752 -5.041284,-6.7673 -5.538499,-8.99475 l -0.282564,-1.26245 c 0.0047,-0.008 0.0073,-0.0114 0.01226,-0.0187 0.04754,0.014 0.103563,0.0439 0.158876,0.0716 0.05198,0.0441 0.104788,0.088 0.160072,0.14197 l 0.848906,1.32794 c 0.709572,1.10989 1.5963,2.01796 1.970675,2.01796 0.374373,0 0.07658,-0.97794 -0.66215,-2.17319 -0.738706,-1.19528 -1.060395,-2.17442 -0.714292,-2.17442 z m -9.656899,0.12127 c 0.08237,-0.0114 0.152094,0.009 0.207384,0.0655 0.222942,0.22294 0.09303,0.78174 -0.289837,1.24304 -1.088822,1.31195 -2.661578,5.40146 -2.077397,5.40146 0.288663,0 1.26305,-1.32723 2.165921,-2.94934 0.902876,-1.62214 1.648365,-2.50446 1.656578,-1.95978 0.0082,0.54471 -1.061954,2.6403 -2.379359,4.65687 -1.317398,2.01659 -3.166503,4.36577 -4.108702,5.21955 l -0.956835,0.86587 c -0.170763,0.1066 -0.308724,0.17789 -0.401414,0.18916 l -0.0012,-0.001 c -0.07961,-0.11127 -0.124831,-0.27639 -0.147952,-0.47537 l 0.254674,-1.2006 c 0.7655,-3.61702 4.842653,-10.88898 6.078158,-11.05517 z m 4.068678,1.2673 0.04851,1.71722 c 0.08047,2.82718 0.668124,4.96729 1.36431,4.96729 0.304656,0 0.389349,-1.60659 0.187976,-3.57024 -0.08915,-0.86943 -0.136511,-1.51021 -0.146743,-1.97675 0.05919,-0.35475 0.123882,-0.66898 0.203745,-0.88407 0.06496,0.0211 0.140759,0.0842 0.237694,0.2206 0.870296,1.22491 0.862871,7.42261 -0.01338,10.90236 -1.177018,4.67437 -2.119544,3.28028 -2.75045,-4.07108 -0.19051,-2.21979 -0.0754,-4.87421 0.254669,-5.8987 l 0.431728,-1.34005 c 0.02352,-0.014 0.04571,-0.0354 0.07033,-0.0436 0.04048,-0.014 0.07582,-0.0187 0.111567,-0.0235 z m 29.717749,9.89702 c 0.154956,0.0335 0.06101,0.47717 -0.17948,1.46012 -2.225368,9.09516 -7.528751,15.10818 -14.492021,16.42873 -1.828835,0.34683 -3.758652,0.62941 -4.288192,0.62941 -1.713465,0 2.151781,-3.39331 6.711207,-5.89263 4.658651,-2.55369 8.702487,-5.63093 8.702487,-6.62265 0,-0.34573 -1.327203,0.33034 -2.949339,1.50256 -1.622137,1.17216 -4.468205,2.94157 -6.324339,3.93284 -1.856136,0.99128 -4.300983,2.67399 -5.432993,3.73884 -1.530882,1.44002 -2.169361,1.8462 -1.923379,1.19938 9.32e-4,-0.003 0.004,-0.008 0.0049,-0.009 l 0.293482,-0.57725 c 0.241025,-0.42258 0.600876,-0.98756 1.097513,-1.71842 0.922821,-1.35804 4.560045,-4.2822 9.158474,-7.36244 4.195246,-2.81015 8.137469,-5.55544 8.7607,-6.10119 0.469336,-0.41099 0.74052,-0.63368 0.861034,-0.60758 z m 45.137498,4.84117 c 0.258938,-0.0957 1.199983,0.58768 2.835344,2.05802 3.860573,3.47097 9.720352,6.40724 14.723655,7.37819 1.985365,0.38529 3.959539,0.97242 4.386411,1.30489 1.083288,0.84369 0.968298,5.74914 -0.265582,11.36439 -0.780389,3.55166 -0.869174,5.01284 -0.355331,5.83562 0.126072,0.20182 0.209778,0.37297 0.259522,0.52875 -0.0063,0.31522 -0.181382,0.64438 -0.559064,1.06113 -0.164743,0.10988 -0.353181,0.22459 -0.593021,0.35291 -2.154955,1.15331 -6.610593,6.20514 -8.000323,9.07117 -0.763598,1.57474 -1.202268,4.09924 -1.326718,7.63165 -0.102272,2.90278 -0.329909,5.90645 -0.505702,6.67482 -0.291271,1.27315 -0.678641,1.39583 -4.365799,1.39583 -4.007219,0 -4.038558,-0.0114 -3.285265,-1.39583 1.579703,-2.90167 0.425207,-14.12578 -1.452838,-14.12578 -0.355493,0 -0.451661,0.48228 -0.217076,1.0866 0.703521,1.81201 1.146773,9.16867 0.697311,11.5645 -0.251227,1.33921 -0.615693,2.04793 -1.363098,2.172 -0.747406,0.12418 -1.876885,-0.33716 -3.658782,-1.33885 -3.366959,-1.89276 -4.817947,-4.80955 -4.436136,-8.91715 0.312619,-3.36326 2.357548,-8.06139 4.941844,-11.52692 0.162678,-0.20887 0.329471,-0.41893 0.482663,-0.62578 0.141908,-0.17718 0.283676,-0.35395 0.428089,-0.52266 3.935373,-4.59761 4.682854,-10.4786 2.912958,-22.93256 -0.509191,-3.58299 -1.100774,-7.06593 -1.314592,-7.73959 -0.06508,-0.20511 -0.05477,-0.32341 0.03154,-0.35535 z m 41.135516,9.63873 c 0.457633,0.0376 0.492993,0.95248 0.325012,3.92556 -0.194147,3.43589 0.04621,4.97408 1.240617,7.9312 l 1.481946,3.66971 -4.661706,0.0413 c -0.08864,-0.0164 -0.249949,-0.0415 -0.320158,-0.0559 -0.431681,-0.0878 -1.709771,-0.0348 -3.223414,0.10192 -3.902696,0.10419 -6.144809,0.46819 -8.735237,1.36672 -3.075116,1.06665 -4.542955,1.61569 -4.963668,0.87803 -0.07669,-0.2755 -0.06104,-0.85118 0.02668,-1.59958 0.05635,-0.40834 0.158946,-0.90269 0.27044,-1.41163 0.219539,-0.8774 0.489888,-1.88337 0.851326,-3.19551 1.073455,-3.89694 1.2157,-5.37244 0.740974,-7.71049 l -0.488727,-2.40604 -0.02065,-0.36624 c 0.0047,-0.0329 0.008,-0.0708 0.01338,-0.10179 l 2.235047,-0.091 4.671406,-0.14785 c 2.001966,0.0242 3.932715,-0.0636 5.528798,-0.24498 2.42964,-0.14949 4.304435,-0.32958 4.641087,-0.48387 0.153314,-0.0702 0.281249,-0.10824 0.386854,-0.0995 z m -124.557424,5.32407 c 0.496885,-0.008 1.002904,0.0338 1.511049,0.0995 4.325867,0.69187 9.737276,4.76753 10.94845,8.50482 0.39534,1.21989 1.269923,3.00197 1.942782,3.96074 0.332679,0.47407 0.609202,0.92152 0.790696,1.26488 0.111567,0.30691 0.188515,0.54771 0.191612,0.63912 -0.255151,0.12455 -2.857921,-0.47463 -9.295511,-2.14045 -2.297541,-0.59456 -4.154555,-2.41861 -8.32533,-8.18104 -1.47611,-2.03943 -1.830467,-2.73842 -1.361888,-2.89476 l 0.981086,0.12366 c 0.250086,0.0315 0.516444,0.0866 0.790696,0.1516 2.039498,0.67599 5.111218,2.40881 7.954245,4.56227 1.434532,1.08659 2.754664,1.91493 3.372577,2.14287 l 0.09096,0.0631 -0.04124,-0.0486 c 0.149676,0.0497 0.263369,0.0697 0.303181,0.0291 0.542491,-0.55176 -4.169324,-4.32568 -8.023369,-6.42622 -2.673425,-1.45699 -3.152367,-1.77764 -2.20109,-1.84455 z m 96.673317,35.87231 c 0.254452,-0.0406 0.600841,0.19854 1.198171,0.63182 0.467,0.33876 0.81334,0.61433 1.033238,0.85011 4.28e-4,4.7e-4 7.89e-4,7.8e-4 0.0012,0.001 0.170304,0.29768 0.241411,0.55258 0.21102,0.75553 -0.189524,0.29356 -0.766518,0.55483 -1.759661,0.90105 -0.906969,0.31615 -1.600237,0.54235 -1.87244,0.61849 -0.08657,-0.0282 -0.149042,-0.0721 -0.200107,-0.12367 0.05918,-0.32886 0.259048,-1.06219 0.526321,-1.91611 0.360596,-1.15209 0.535092,-1.66617 0.862244,-1.71841 z"
         style="fill:#000000;stroke-width:0.62091357" />
    </g>
  </g>
</svg>
