<?xml version="1.0" encoding="UTF-8" standalone="no"?>
<svg
   xmlns:dc="http://purl.org/dc/elements/1.1/"
   xmlns:cc="http://creativecommons.org/ns#"
   xmlns:rdf="http://www.w3.org/1999/02/22-rdf-syntax-ns#"
   xmlns:svg="http://www.w3.org/2000/svg"
   xmlns="http://www.w3.org/2000/svg"
   id="svg3346"
   version="1.1"
   viewBox="0 0 210 297"
   height="297mm"
   width="210mm">
  <title
     id="title3926">Bitten Apple</title>
  <defs
     id="defs3340" />
  <metadata
     id="metadata3343">
    <rdf:RDF>
      <cc:Work
         rdf:about="">
        <dc:format>image/svg+xml</dc:format>
        <dc:type
           rdf:resource="http://purl.org/dc/dcmitype/StillImage" />
        <dc:title>Bitten Apple</dc:title>
        <dc:date>2020-04-10</dc:date>
        <dc:creator>
          <cc:Agent>
            <dc:title>Public domain</dc:title>
          </cc:Agent>
        </dc:creator>
        <dc:source>http://www.supercoloring.com/coloring-pages/cartoon-bitten-apple</dc:source>
        <dc:subject>
          <rdf:Bag>
            <rdf:li>csk</rdf:li>
            <rdf:li>fruits</rdf:li>
            <rdf:li>apple</rdf:li>
          </rdf:Bag>
        </dc:subject>
      </cc:Work>
    </rdf:RDF>
  </metadata>
  <g
     id="layer1">
    <path
       id="path3916"
       d="m 99.860803,43.731617 -0.1034,4.365478 c -0.0571,2.40102 -0.12263,4.934652 -0.14551,5.629653 -0.009,0.284321 0.0209,0.51061 0.1148,0.703704 l -0.0171,0.179625 0.13071,0.02502 -0.0216,0.736671 h 1.664347 c 0.044,0 0.0916,0.0036 0.13642,0.0045 0.3373,0.08101 0.70894,0.16399 1.16299,0.254653 6.01334,1.200739 8.77028,3.777827 9.5313,8.909441 l 0.33877,2.288467 -5.88088,0.185305 h -0.1603 -4.26999 c -20.777633,9.76e-4 -37.875459,2.834701 -48.163514,7.981781 -17.574022,8.792227 -32.028204,26.792175 -39.537143,49.235555 -12.7727853,38.17647 -4.397253,83.27879 20.260824,109.104 10.016766,10.4909 20.386461,16.5957 32.363659,19.05351 0.975457,0.20016 2.565182,0.38514 4.339333,0.53204 2.887568,0.33309 5.825352,0.42561 8.768478,0.28194 7.850303,-0.15349 12.992267,-1.43589 20.786043,-5.01803 l 4.49963,-2.06792 4.59966,2.10203 c 5.53862,2.53175 9.56268,3.79817 14.74146,4.43027 0.1694,0.0276 0.34416,0.059 0.50816,0.083 3.02906,0.44291 6.1792,0.5994 9.35168,0.49452 0.0322,-9.4e-4 0.0644,-0.001 0.0966,-0.003 0.21557,-0.008 0.43113,-0.0174 0.64686,-0.0273 2.90712,-0.0119 5.35355,-0.1679 6.89382,-0.45929 12.28108,-2.32325 23.33512,-8.43176 32.86387,-18.15881 5.83698,-5.9584 8.14984,-8.97285 12.74515,-16.61155 5.99182,-9.95999 11.92878,-26.8739 12.84861,-36.6075 l 0.33197,-3.52193 -3.87437,-1.90763 c -15.64985,-7.70438 -26.57525,-26.03042 -28.86333,-48.24081 -4.5e-4,-0.0557 -0.004,-0.11788 -0.004,-0.1728 0,-0.64962 -0.0215,-1.12282 -0.16711,-1.54384 -0.14635,-1.29247 -0.72073,-1.87139 -2.94442,-3.01263 -3.62833,-1.86211 -10.90837,-8.6627 -13.73534,-12.83042 -6.04396,-8.91036 -8.40311,-16.31942 -8.44447,-26.527104 -0.0155,-3.84162 0.1818,-8.294392 0.43881,-9.895085 0.45299,-2.821159 0.41736,-2.931606 -1.16412,-3.5856 -1.96845,-0.814 -7.60678,-1.758771 -13.63075,-2.285056 l -3.46737,-0.30354 c -0.58804,-0.231836 -0.88322,-0.538666 -1.04136,-0.993601 l -0.26147,-3.11495 c -0.39703,-4.736044 -2.28677,-9.242336 -5.25108,-12.52347 -3.62015,-4.00708 -10.87122,-7.147408 -16.54107,-7.163251 z m 12.249487,25.463025 c 0.0363,0.06805 0.066,0.154753 0.0887,0.263744 l -0.37288,2.487415 c -0.22964,1.531457 -0.54902,3.125602 -0.7094,3.543541 -0.0265,0.06919 0.008,0.151273 0.0728,0.23874 l -0.10008,0.482018 1.77347,0.507036 c 1.81681,0.780186 4.79715,1.68518 7.78511,2.282779 l 1.78485,0.356968 0.8299,-4.570109 0.82988,-4.571251 4.32683,0.156884 c 6.63512,0.240544 13.1016,1.500747 12.85656,2.505604 -0.0646,0.264915 -0.48679,1.928204 -0.80033,3.166114 -3.5e-4,0.0013 -8e-4,0.002 -10e-4,0.0034 -0.24476,0.820017 -0.44306,1.599773 -0.60479,2.401013 -1.21819,4.862475 -1.29876,10.190094 -0.40699,15.407645 0.19033,1.695161 0.54358,3.091114 1.16071,4.990743 1.86433,6.306094 5.14348,12.156384 9.5404,16.447844 l 0.72302,0.70598 c 0.0178,0.0174 0.0358,0.0362 0.0534,0.0534 0.73205,0.85232 1.29996,1.55858 1.59159,1.97924 l -3.90165,2.052 c -10.25099,5.39411 -16.17387,15.16134 -16.17387,26.67144 0,8.26062 2.49088,14.48949 8.27622,20.69511 5.22894,5.60878 11.63709,8.56556 19.18651,8.86737 1.714,0.0982 3.43898,0.04 5.15559,-0.17621 4.9495,-0.51002 8.74369,-1.92436 12.78494,-4.70426 l 2.83756,-1.95196 c 0.10102,0.0335 0.27034,0.1221 0.47748,0.24102 l 1.78825,1.42446 c 3.51633,2.80305 8.89419,5.82164 12.26313,6.88359 1.72628,0.54417 3.26476,1.31988 3.41964,1.72345 0.15486,0.40355 -0.28863,3.39727 -0.98565,6.65281 -6.3721,29.76148 -24.88695,53.99956 -47.15627,61.73287 -13.62586,4.73174 -29.34586,3.47289 -41.89268,-3.35596 l -2.76936,-1.50745 -0.16371,0.083 -0.0864,-0.0432 -1.188,0.68664 -2.2771,1.14935 c -4.615744,2.33001 -8.94992,3.85156 -14.090028,4.94527 -7.650659,1.62791 -18.521706,0.91033 -26.591914,-1.75414 C 36.116015,239.98612 16.27965,210.86803 11.939561,175.68047 10.911142,167.34253 11.543495,147.00848 13.060488,139.64594 18.48232,113.33176 31.059515,92.554783 48.492491,81.111004 60.566585,73.185047 73.473917,70.202277 98.630699,69.526571 l 5.170351,-0.138694 z m 28.77465,14.033192 c 0.0164,0.01348 0.0376,0.135063 0.0614,0.375158 1.44568,14.611823 5.72803,24.779258 13.91268,33.032128 1.50808,1.52063 2.54605,2.7648 2.30665,2.7648 -0.0524,0 -0.13044,-0.0314 -0.22395,-0.083 -0.75264,-0.62863 -1.98423,-1.77237 -3.51172,-3.2707 -2.8352,-2.97899 -6.38487,-7.13322 -7.48156,-8.99016 -0.17295,-0.29286 -0.3365,-0.58217 -0.49907,-0.87082 -0.22243,-0.42327 -0.44609,-0.86404 -0.67642,-1.33693 -0.79727,-1.63676 -1.4497,-3.10137 -1.98493,-4.48825 -1.22166,-3.547704 -1.77699,-7.286633 -1.89739,-12.100568 -0.0781,-3.121317 -0.0772,-5.090038 -0.005,-5.031669 z M 67.867749,117.06939 c -1.912284,-0.0209 -3.84144,0.16477 -5.762654,0.54569 -0.235962,0.0448 -0.469073,0.0962 -0.702568,0.14665 -0.186912,0.0421 -0.373806,0.0801 -0.560463,0.12619 -2.808202,0.66805 -5.433573,1.75564 -7.86355,3.25705 -2.139672,1.32204 -4.13107,2.957 -5.958197,4.91685 -5.083048,5.45231 -7.62821,10.94039 -8.155717,17.75408 -0.158839,1.62454 -0.168356,3.25013 -0.04661,4.86229 0.40358,7.6351 3.087388,13.56307 8.605901,19.09328 4.033284,4.04184 6.985489,5.86254 12.274499,7.57253 1.426895,0.46131 3.515544,0.81226 5.651252,0.97199 0.03011,0.003 0.05967,0.005 0.08981,0.008 1.16102,0.0972 2.310867,0.11347 3.44804,0.0683 7.655869,-0.22201 13.697489,-2.91667 19.371822,-8.61728 5.884025,-5.91125 8.671149,-12.66491 8.684339,-21.0407 0.01326,-8.22247 -2.485179,-14.46796 -8.269396,-20.67236 -5.319071,-5.70546 -12.003924,-8.71682 -19.825408,-8.95379 -0.06787,-0.002 -0.135588,-0.005 -0.203501,-0.007 -0.259312,-0.01 -0.517562,-0.029 -0.777603,-0.0318 z m -0.02041,2.62156 c 6.360227,0 6.895142,0.0949 10.735207,1.91331 5.274184,2.49754 8.415217,5.12917 11.329776,9.49378 9.731641,14.57326 4.205773,33.68983 -11.864095,41.04687 -2.828152,1.29477 -4.42949,1.60595 -9.002655,1.7496 -6.037219,0.18953 -8.611461,-0.25958 -12.412059,-2.16682 -15.28576,-7.67081 -20.305683,-26.46971 -10.850038,-40.62965 2.914569,-4.36461 6.054466,-6.99624 11.328646,-9.49378 1.375359,-0.65132 2.324956,-1.07453 3.271839,-1.35853 0.07876,-0.0236 0.157489,-0.0465 0.236464,-0.0693 1.62294,-0.44564 3.331006,-0.48544 7.226915,-0.48544 z m 86.750241,0.3456 c 0.46512,0.14801 1.41648,0.61634 2.49311,1.21984 l 1.54269,0.99701 c 2.00978,1.29897 4.47221,2.65868 5.47276,3.02059 l 1.81895,0.6571 0.0375,5.97297 c -0.0452,1.29666 -0.031,2.60446 0.033,3.91756 0.0733,5.78984 0.35081,7.61178 1.6166,11.7868 1.94014,6.39912 4.74188,11.83373 8.51496,16.51605 l 2.39305,2.96944 c 0.20607,0.28739 0.33761,0.48953 0.41267,0.6264 l -1.84396,1.40514 c -1.045,0.79708 -3.45239,2.16094 -5.34998,3.0297 -2.87435,1.31592 -4.42404,1.61068 -9.28802,1.76666 -6.13022,0.19654 -8.30574,-0.24985 -13.11462,-2.69205 -8.93093,-4.5356 -14.5516,-13.98864 -14.5516,-24.47284 0,-11.72462 6.83565,-21.81174 17.51876,-25.85295 z m 13.00095,15.38718 c 0.15022,0.21755 0.38669,0.94274 0.71393,2.3112 3.09823,12.95654 8.73072,23.44553 16.95602,31.57696 2.34777,2.32097 4.14891,4.21997 4.00284,4.21997 -0.008,0 -0.0294,-0.0106 -0.041,-0.0136 -0.59301,-0.38489 -1.21166,-0.78691 -1.95082,-1.28236 -1.37284,-1.01731 -3.16607,-2.44705 -4.6315,-3.70156 -1.65142,-1.5151 -3.29053,-3.21226 -4.77361,-4.94073 -4.36505,-5.51578 -7.9501,-13.02788 -9.38919,-20.00049 -0.29087,-1.40947 -0.51454,-2.71023 -0.69006,-3.87549 -0.0423,-0.41414 -0.0756,-0.82045 -0.10008,-1.21871 -0.009,-0.16904 -0.0237,-0.32949 -0.0318,-0.50133 -0.0487,-1.09429 -0.0658,-1.93623 -0.0648,-2.57383 z m -9.02768,2.54426 c -1.38384,-0.0313 -2.82263,0.54211 -4.04033,1.75983 -2.65523,2.65521 -2.04271,6.29751 0.95721,8.08068 0.018,0.0106 0.033,0.0247 0.0512,0.0353 0.008,0.004 0.0191,0.009 0.0273,0.0137 0.48523,0.27905 1.02477,0.51423 1.62796,0.6855 4.1737,1.18515 7.88886,-3.60621 5.85134,-7.54635 -1.00789,-1.94905 -2.6954,-2.98836 -4.47462,-3.02855 z m -86.724103,0.64913 c -1.068,0.0119 -2.115042,0.47492 -3.126318,1.37899 -0.625086,0.4242 -1.141151,0.93554 -1.438097,1.49041 -0.281238,0.52549 -0.449079,1.0935 -0.519551,1.67456 -0.483519,2.14823 0.458929,4.37341 2.700014,5.62284 2.753863,1.5353 5.443577,0.40025 6.833566,-1.63479 0.122358,-0.17921 0.232851,-0.36618 0.334224,-0.55818 0.749658,-1.4198 0.901909,-3.15336 0.112548,-4.71791 -0.06469,-0.14708 -0.1323,-0.29439 -0.211455,-0.44223 -0.343636,-0.64211 -0.844986,-1.14733 -1.43469,-1.52792 -0.272515,-0.22832 -0.564557,-0.42992 -0.881057,-0.59343 -0.796891,-0.46753 -1.588704,-0.70126 -2.369184,-0.69234 z m 45.257733,32.76497 c -0.42889,-0.003 -0.82285,0.0212 -1.16412,0.075 -5.1633,0.81532 -6.76416,1.56652 -6.78923,3.18544 -0.017,1.10011 -0.80495,2.12553 -2.91033,3.78683 -1.1057,0.87251 -2.04155,1.72237 -2.52606,2.26231 l -0.30808,0.25352 0.0534,0.0477 c -0.0626,0.0897 -0.10684,0.16554 -0.10684,0.20918 0,0.27242 0.85125,1.03227 1.8917,1.68821 0.92564,0.58355 1.60032,0.86351 2.60224,0.93904 0.34708,0.0528 0.7239,0.0862 1.13003,0.0989 0.44692,0.0339 0.9231,0.0233 1.43697,-0.0261 0.94971,-0.0647 1.96573,-0.21629 2.97397,-0.44564 1.58933,-0.13991 3.18289,-0.26682 4.22224,-0.32059 l 2.90691,-0.15121 2.50333,-4.23814 c 0.72535,-1.22814 1.33977,-2.42443 1.74051,-3.35029 0.0188,-0.0358 0.0261,-0.055 0.0443,-0.0897 0.38688,-0.68665 0.64628,-1.18133 0.65027,-1.2744 4.6e-4,-0.0106 -0.0135,-0.0253 -0.0182,-0.0375 0.0153,-0.0445 0.0341,-0.0948 0.0341,-0.11374 0,-0.33799 -0.57711,-0.71052 -1.46994,-1.04589 -1.69331,-0.77225 -4.73776,-1.4413 -6.89723,-1.45289 z"
       style="fill:#1a1a1a;stroke-width:0.58206385" />
  </g>
</svg>
