<?xml version="1.0" encoding="UTF-8" standalone="no"?>
<svg
   xmlns:dc="http://purl.org/dc/elements/1.1/"
   xmlns:cc="http://creativecommons.org/ns#"
   xmlns:rdf="http://www.w3.org/1999/02/22-rdf-syntax-ns#"
   xmlns:svg="http://www.w3.org/2000/svg"
   xmlns="http://www.w3.org/2000/svg"
   xmlns:sodipodi="http://sodipodi.sourceforge.net/DTD/sodipodi-0.dtd"
   xmlns:inkscape="http://www.inkscape.org/namespaces/inkscape"
   width="210mm"
   height="297mm"
   viewBox="0 0 595.27559 841.88976"
   version="1.1"
   id="svg48"
   sodipodi:docname="butterfly_tattoo.svg"
   inkscape:version="0.92.4 (5da689c313, 2019-01-14)">
  <title
     id="title864">Butterfly</title>
  <metadata
     id="metadata54">
    <rdf:RDF>
      <cc:Work
         rdf:about="">
        <dc:format>image/svg+xml</dc:format>
        <dc:type
           rdf:resource="http://purl.org/dc/dcmitype/StillImage" />
        <dc:title>Butterfly</dc:title>
        <dc:creator>
          <cc:Agent>
            <dc:title>Public domain</dc:title>
          </cc:Agent>
        </dc:creator>
        <dc:date>2020-05-15</dc:date>
        <dc:source>http://www.supercoloring.com/coloring-pages/butterfly-tattoo?tag=58516</dc:source>
        <dc:subject>
          <rdf:Bag>
            <rdf:li>acb</rdf:li>
            <rdf:li>tattoo</rdf:li>
          </rdf:Bag>
        </dc:subject>
        <cc:license
           rdf:resource="http://creativecommons.org/licenses/by-sa/4.0/" />
      </cc:Work>
      <cc:License
         rdf:about="http://creativecommons.org/licenses/by-sa/4.0/">
        <cc:permits
           rdf:resource="http://creativecommons.org/ns#Reproduction" />
        <cc:permits
           rdf:resource="http://creativecommons.org/ns#Distribution" />
        <cc:requires
           rdf:resource="http://creativecommons.org/ns#Notice" />
        <cc:requires
           rdf:resource="http://creativecommons.org/ns#Attribution" />
        <cc:permits
           rdf:resource="http://creativecommons.org/ns#DerivativeWorks" />
        <cc:requires
           rdf:resource="http://creativecommons.org/ns#ShareAlike" />
      </cc:License>
    </rdf:RDF>
  </metadata>
  <defs
     id="defs52" />
  <sodipodi:namedview
     pagecolor="#ffffff"
     bordercolor="#666666"
     borderopacity="1"
     objecttolerance="10"
     gridtolerance="10"
     guidetolerance="10"
     inkscape:pageopacity="0"
     inkscape:pageshadow="2"
     inkscape:window-width="3840"
     inkscape:window-height="2004"
     id="namedview50"
     showgrid="false"
     inkscape:zoom="0.944"
     inkscape:cx="534.94715"
     inkscape:cy="431.74143"
     inkscape:window-x="-16"
     inkscape:window-y="-16"
     inkscape:window-maximized="1"
     inkscape:current-layer="svg48"
     units="mm" />
  <g
     id="#ffffffff"
     transform="translate(0,91.889765)">
    <path
       d="m 25.17,134 c 32.13,1.22 64.3,12.85 88.34,34.49 15.27,13.7 26.28,32.12 30.93,52.11 4.84,19.95 -1.34,43.12 -17.9,55.93 -14.24,11.13 -35.97,11.69 -50.13,0.11 C 63.06,265.49 54.82,249.6 48.1,233.86 35.19,202.06 28.61,168.04 25.17,134 Z"
       id="path4"
       inkscape:connector-curvature="0"
       style="opacity:1;fill:#ffffff" />
    <path
       d="m 514.37,140.39 c 12.78,-3.11 25.73,-5.88 38.88,-6.84 -3.85,40.47 -12.84,81.31 -32.36,117.29 -6.32,10.84 -13.9,21.7 -25.07,27.98 -12.01,6.95 -27.66,7.11 -39.64,0.02 -13.39,-7.87 -21.67,-22.72 -24.02,-37.79 -2.87,-20.61 5.88,-40.83 17.57,-57.33 15.46,-21.69 39.71,-35.3 64.64,-43.33 z"
       id="path6"
       inkscape:connector-curvature="0"
       style="opacity:1;fill:#ffffff" />
    <path
       d="m 420.05,186.17 c 7.62,14.93 6.15,32.83 1.64,48.49 -5.5,18.51 -21.7,30.99 -37.73,40.26 -18.46,10.43 -37.45,21.27 -50.79,38.19 -5.54,6.45 -8.45,14.54 -12.44,21.93 -0.53,-16.67 4.53,-33.21 10.76,-48.5 0.97,2.75 1.93,5.52 3.27,8.12 2.85,-16.28 7.89,-33.14 20.14,-44.94 -1.86,6.68 -3.66,13.45 -3.65,20.43 7.84,-14.79 14.42,-32.4 29.64,-41.13 -3.11,6.32 -5.4,13.21 -5.01,20.36 3.8,-11.05 13.77,-18.31 24.3,-22.33 -1.84,4.84 -4.49,9.38 -5.61,14.47 7.58,-10.73 19.01,-18.93 23.18,-31.85 2.75,-7.52 2.66,-15.62 2.3,-23.5 z"
       id="path8"
       inkscape:connector-curvature="0"
       style="opacity:1;fill:#ffffff" />
    <path
       d="m 156.62,237.4 c -6.13,-15.94 -4.81,-33.97 1.07,-49.78 -4.48,21.92 10.45,40.85 25.42,54.85 -1.1,-5.6 -3.76,-10.67 -6.07,-15.82 11.01,4.39 20.74,12.57 24.9,23.92 0.08,-7.54 -2.1,-14.82 -4.72,-21.81 14.51,9.86 22.72,26.29 29.14,42.09 0.18,-6.85 -1.92,-13.41 -3.47,-19.99 12.13,11.75 18.67,28.42 19.95,45.09 1.79,-2.6 2.66,-5.64 3.7,-8.58 4.75,15.88 11.3,31.75 10.5,48.66 -4.67,-16.03 -16.46,-28.69 -29.6,-38.41 -16.33,-12.35 -34.84,-21.49 -50.97,-34.12 -8.74,-6.77 -15.99,-15.66 -19.85,-26.1 z"
       id="path10"
       inkscape:connector-curvature="0"
       style="opacity:1;fill:#ffffff" />
    <path
       d="m 161.14,294.12 c 5.52,-1.55 11.35,-1.76 16.82,-3.6 19.48,-0.38 38.85,7.19 53.23,20.28 20.18,18.29 31.59,44.56 36.23,71.02 -4.67,-8.25 -7.48,-17.49 -13.05,-25.22 -6.57,-9.6 -15.1,-18.42 -26.04,-22.9 -10.41,-4.33 -22.91,-2.97 -32.2,3.41 -3.77,2.59 -7.41,5.35 -11.33,7.73 -1.85,-7.93 2.03,-15.39 4.44,-22.71 -17.75,9.89 -26.25,30.63 -27.08,50.16 -6.13,-5.65 -6.85,-14.41 -10.36,-21.54 -5.13,21.77 0.08,47.81 19.17,61.34 4.06,3.3 9.15,4.78 13.56,7.45 -6.02,1.69 -12.19,-0.28 -17.93,-2.11 -17.65,-5.38 -31.1,-20.44 -37.68,-37.3 -7.1,-17.94 -4.89,-38.32 2.31,-55.86 5.48,-13.47 16.35,-24.75 29.91,-30.15 z"
       id="path12"
       inkscape:connector-curvature="0"
       style="opacity:1;fill:#ffffff" />
    <path
       d="m 382.89,291.81 c 18.88,-4.01 40.31,1.23 53.55,15.73 14.37,15.75 19.94,38.73 15.41,59.45 -2.8,15.42 -8.92,31.27 -21.49,41.34 -10.76,8.82 -25.08,11.64 -38.69,11.42 19.7,-6.85 36.16,-25.27 36.48,-46.76 -0.34,-8.1 -0.79,-16.43 -3.59,-24.11 -1.93,8.19 -3.64,16.99 -8.59,23.93 -1.33,-19.56 -9.48,-40.46 -27.42,-50.38 1.6,7.55 3.44,15.05 5.08,22.6 -7.51,-4.39 -13.82,-11.03 -22.44,-13.31 -10.59,-3.24 -22.15,0.08 -30.81,6.59 -14.31,10.17 -22.56,26.05 -29.84,41.53 4.5,-30.34 21.54,-58.85 46.35,-76.93 7.57,-5.96 17.02,-8.21 26,-11.1 z"
       id="path14"
       inkscape:connector-curvature="0"
       style="opacity:1;fill:#ffffff" />
    <path
       d="m 474.82,316.43 c 17.92,-2.35 35.28,-8.97 50.63,-18.46 -7.51,8.28 -13.26,17.89 -18.92,27.48 -8.33,14.74 -13.46,31.13 -22.66,45.41 -7.07,10.78 -17.54,18.62 -27.84,26.11 2.72,-8.98 7.14,-17.51 8.05,-26.97 3.02,-20.45 -3.91,-40.71 -13.24,-58.63 7.52,3.35 15.59,6.39 23.98,5.06 z"
       id="path16"
       inkscape:connector-curvature="0"
       style="opacity:1;fill:#ffffff" />
    <path
       d="m 52.16,297.92 c 15.46,7.85 31.35,15.94 48.79,18.05 8.89,1.16 18.21,-0.16 26,-4.77 -13.98,25.91 -18.7,58.45 -5.14,85.52 -9.44,-4 -17.2,-11.16 -23.08,-19.45 C 87.44,361.51 80.87,343.11 71.92,326.05 66.51,315.88 58.31,307.61 52.16,297.92 Z"
       id="path18"
       inkscape:connector-curvature="0"
       style="opacity:1;fill:#ffffff" />
    <path
       d="m 194.51,358.46 c 4.47,-5.6 12.02,-6.62 18.43,-8.66 12.63,0.51 23.32,8.73 31.52,17.72 12.46,14.13 21.48,31.32 26.23,49.54 -9.56,-9.78 -18.09,-22.27 -32.25,-25.52 -10.66,-3.44 -20.6,3.06 -30.76,5.1 -8.27,1.78 -17.39,-3.36 -19.8,-11.54 -2.72,-9.23 0.57,-19.45 6.63,-26.64 z"
       id="path20"
       inkscape:connector-curvature="0"
       style="opacity:1;fill:#ffffff" />
    <path
       d="m 339.33,361.31 c 11.59,-9.18 30.1,-12.19 41.64,-1.27 7.45,7 9.35,18.3 7.17,27.96 -0.96,4.64 -4.31,9.07 -9.22,9.85 -9.32,1.59 -17.96,-3.47 -27.05,-4.46 -17.61,-1.78 -38.16,6.44 -44.81,23.91 5.27,-21.05 14.91,-42.24 32.27,-55.99 z"
       id="path22"
       inkscape:connector-curvature="0"
       style="opacity:1;fill:#ffffff" />
    <path
       d="m 203.36,405.97 c 10.36,2 21.17,0.63 30.8,-3.62 14.04,-1 28.52,7.26 33.63,20.65 -12.02,-6.44 -25.99,-1.3 -38.78,-3.94 -9.68,-1.76 -17.32,-8.36 -25.65,-13.09 z"
       id="path24"
       inkscape:connector-curvature="0"
       style="opacity:1;fill:#ffffff" />
    <path
       d="m 309.99,422.78 c 4.73,-11.23 16.09,-17.15 26.95,-20.95 12.52,0.28 24.59,6.07 37.25,3.78 -7.22,8.55 -18.54,11.6 -29.1,13.52 -11.61,2.12 -24.05,-1.5 -35.1,3.65 z"
       id="path26"
       inkscape:connector-curvature="0"
       style="opacity:1;fill:#ffffff" />
    <path
       d="m 311.84,428.52 c 16,0.13 32.23,2.35 47.03,8.65 9.89,4.24 19.2,10.73 24.92,20.03 12.62,20.2 18.46,43.78 30.98,64.03 3.62,6.15 9.64,10.21 14.6,15.15 -22.79,-6.9 -43.21,-21.06 -58.72,-39 -14.17,-20.61 -25.12,-44 -44.23,-60.76 -4.04,-4 -9.59,-5.66 -14.58,-8.1 z"
       id="path28"
       inkscape:connector-curvature="0"
       style="opacity:1;fill:#ffffff" />
    <path
       d="m 200.55,449.6 c 17.81,-15.29 41.89,-21.21 64.96,-20.44 -10.27,2.89 -18.1,10.57 -24.9,18.41 -10.44,12.26 -18.88,26.02 -27.34,39.67 -14.3,24.26 -38.79,41.87 -65.82,49.24 15.42,-13.91 25.26,-32.54 32.18,-51.86 5.11,-12.58 10.05,-26.17 20.92,-35.02 z"
       id="path30"
       inkscape:connector-curvature="0"
       style="opacity:1;fill:#ffffff" />
    <path
       d="m 241.51,456.45 c 5.58,-7.94 12.86,-14.49 19.93,-21.07 -13.24,22.26 -6.6,49.16 -14.06,73 -3.78,13.05 -8.48,26.37 -17.46,36.83 4.55,-15.43 1.07,-31.53 0.66,-47.24 -0.75,-14.49 2.46,-29.54 10.93,-41.52 z"
       id="path32"
       inkscape:connector-curvature="0"
       style="opacity:1;fill:#ffffff" />
    <path
       d="m 316.12,434.81 c 17.47,11.08 28.41,30.84 30.46,51.21 -0.52,19.72 -3.83,39.69 0.82,59.2 -10.58,-12.84 -15.8,-29.23 -19.3,-45.24 -1.93,-21.91 -1.89,-45.05 -11.98,-65.17 z"
       id="path34"
       inkscape:connector-curvature="0"
       style="opacity:1;fill:#ffffff" />
    <path
       d="m 350.9,483.72 c 11.48,12.57 17.71,28.97 22.24,45.13 6.7,24.04 0.93,51.18 14.77,73.16 -19.37,-13.12 -33.02,-34.49 -34.79,-58.03 -2.33,-20.02 5,-40.81 -2.22,-60.26 z"
       id="path36"
       inkscape:connector-curvature="0"
       style="opacity:1;fill:#ffffff" />
    <path
       d="m 201.36,542.87 c 2.93,-21.24 11.72,-41.57 25.02,-58.37 -8.54,24.06 2.32,50.24 -5.41,74.5 -4.93,17.53 -15.3,34.66 -31.96,43.17 10.27,-18.05 9.24,-39.41 12.35,-59.3 z"
       id="path38"
       inkscape:connector-curvature="0"
       style="opacity:1;fill:#ffffff" />
    <path
       d="m 407.14,571.15 c 4.35,-7.24 12.3,-11.33 19.98,-13.98 12.53,0.69 19.01,13.58 22.79,23.95 7.8,23.19 9.36,47.96 9.34,72.26 -19.95,-9.9 -40.66,-21.61 -52.4,-41.32 -7.69,-12.23 -7.92,-28.87 0.29,-40.91 z"
       id="path40"
       inkscape:connector-curvature="0"
       style="opacity:1;fill:#ffffff" />
    <path
       d="m 140.32,562.32 c 2.7,-2.4 5.61,-5.91 9.67,-4.57 20.98,3.75 33.04,30.05 23.62,48.84 -10.61,23.07 -33.83,35.97 -55.36,47.19 0.09,-18.67 0.7,-37.49 4.62,-55.81 2.9,-12.97 7.73,-26.19 17.45,-35.65 z"
       id="path42"
       inkscape:connector-curvature="0"
       style="opacity:1;fill:#ffffff" />
  </g>
  <g
     id="#000000ff"
     transform="translate(8.8777953,26.862481)">
    <path
       d="m 406.73,167.74 c 44.86,-40.58 105.53,-61.75 165.76,-60.89 -0.53,34.48 -6.34,68.57 -13.2,102.27 -6.31,36.08 -16.11,71.69 -31.13,105.14 -12.79,28.32 -29.65,55.14 -51.96,76.94 -12.78,12.34 -26.93,23.74 -43.54,30.45 -19,8.32 -39.55,12.22 -60.21,13.04 29.38,6.44 55.99,25.24 72.49,50.35 17.65,27.71 26.77,60.31 29.38,92.89 5.64,34.36 -0.93,68.93 -2.66,103.31 -27.82,-12.13 -53.32,-29.65 -74.39,-51.5 -24,-24.81 -42.22,-54.52 -57.73,-85.18 -17.33,-32.65 -28.2,-68.15 -38.41,-103.51 1,33.54 -4.33,66.82 -10.67,99.65 -10.54,-33.65 -16.35,-69.05 -13.53,-104.36 -15.94,57.88 -37.24,115.16 -71.84,164.69 -24.4,34.99 -56.91,66.56 -98.12,80.31 -3.33,-20.97 -4.86,-42.14 -6.53,-63.29 -0.93,-21.13 1.74,-42.23 5.82,-62.92 5.22,-26.41 12.67,-53.21 28.45,-75.43 10.93,-15.48 26.13,-27.75 43.22,-35.83 9.17,-4.74 19.58,-5.86 29.32,-8.98 -17.79,0.06 -35.71,-2.45 -52.39,-8.81 C 127.93,416.02 104.8,397.49 86.62,375.45 64.75,348.91 49.12,317.79 37.27,285.65 16.59,228.66 7.26,168.05 5.03,107.62 c 39.45,-1.46 79.42,6.72 114.57,24.87 50.83,25.95 89.75,70.89 115.99,120.9 17.01,32.8 32.25,66.95 39.98,103.26 1.83,-6.97 3.28,-14.03 5.02,-21.02 2.49,-8.41 -3.71,-16.98 -0.26,-25.3 1.23,-4.04 6.07,-6.67 5.06,-11.31 -1.52,-31.24 -5.18,-64.9 -24.88,-90.5 -8.41,-11.95 -22.92,-16.15 -35.08,-23.02 -6.09,-3.52 -13.24,-6.71 -16.49,-13.37 3.77,-3.73 9.4,-5.45 14.5,-3.61 10.2,3.39 17.68,11.59 25.1,18.95 19.6,20.57 29.71,48.21 34.97,75.68 2.83,12.77 2.23,25.92 3.45,38.87 1.39,-0.1 2.78,-0.19 4.18,-0.28 -1.83,-11 -0.23,-22.19 1.38,-33.11 3.11,-18.04 7.66,-36.01 15.63,-52.56 8.54,-18.25 22.62,-33.74 39.78,-44.23 5.44,-3.1 12.67,-6.07 18.52,-2.3 2.41,4.15 -0.51,8.6 -3.86,11.12 -7.5,5.69 -17.48,5.86 -25.57,10.37 -17.32,8.41 -28.87,25.21 -34.9,43.06 -10.01,29.37 -9.95,61.3 -4.76,91.62 1.59,10.48 3.15,20.97 4.66,31.47 18.3,-70.28 49.38,-140.45 104.71,-189.44 M 25.17,134 c 3.44,34.04 10.02,68.06 22.93,99.86 6.72,15.74 14.96,31.63 28.31,42.78 14.16,11.58 35.89,11.02 50.13,-0.11 16.56,-12.81 22.74,-35.98 17.9,-55.93 -4.65,-19.99 -15.66,-38.41 -30.93,-52.11 C 89.47,146.85 57.3,135.22 25.17,134 m 489.2,6.39 c -24.93,8.03 -49.18,21.64 -64.64,43.33 -11.69,16.5 -20.44,36.72 -17.57,57.33 2.35,15.07 10.63,29.92 24.02,37.79 11.98,7.09 27.63,6.93 39.64,-0.02 11.17,-6.28 18.75,-17.14 25.07,-27.98 19.52,-35.98 28.51,-76.82 32.36,-117.29 -13.15,0.96 -26.1,3.73 -38.88,6.84 m -94.32,45.78 c 0.36,7.88 0.45,15.98 -2.3,23.5 -4.17,12.92 -15.6,21.12 -23.18,31.85 1.12,-5.09 3.77,-9.63 5.61,-14.47 -10.53,4.02 -20.5,11.28 -24.3,22.33 -0.39,-7.15 1.9,-14.04 5.01,-20.36 -15.22,8.73 -21.8,26.34 -29.64,41.13 -0.01,-6.98 1.79,-13.75 3.65,-20.43 -12.25,11.8 -17.29,28.66 -20.14,44.94 -1.34,-2.6 -2.3,-5.37 -3.27,-8.12 -6.23,15.29 -11.29,31.83 -10.76,48.5 3.99,-7.39 6.9,-15.48 12.44,-21.93 13.34,-16.92 32.33,-27.76 50.79,-38.19 16.03,-9.27 32.23,-21.75 37.73,-40.26 4.51,-15.66 5.98,-33.56 -1.64,-48.49 M 156.62,237.4 c 3.86,10.44 11.11,19.33 19.85,26.1 16.13,12.63 34.64,21.77 50.97,34.12 13.14,9.72 24.93,22.38 29.6,38.41 0.8,-16.91 -5.75,-32.78 -10.5,-48.66 -1.04,2.94 -1.91,5.98 -3.7,8.58 -1.28,-16.67 -7.82,-33.34 -19.95,-45.09 1.55,6.58 3.65,13.14 3.47,19.99 -6.42,-15.8 -14.63,-32.23 -29.14,-42.09 2.62,6.99 4.8,14.27 4.72,21.81 -4.16,-11.35 -13.89,-19.53 -24.9,-23.92 2.31,5.15 4.97,10.22 6.07,15.82 -14.97,-14 -29.9,-32.93 -25.42,-54.85 -5.88,15.81 -7.2,33.84 -1.07,49.78 m 4.52,56.72 c -13.56,5.4 -24.43,16.68 -29.91,30.15 -7.2,17.54 -9.41,37.92 -2.31,55.86 6.58,16.86 20.03,31.92 37.68,37.3 5.74,1.83 11.91,3.8 17.93,2.11 -4.41,-2.67 -9.5,-4.15 -13.56,-7.45 -19.09,-13.53 -24.3,-39.57 -19.17,-61.34 3.51,7.13 4.23,15.89 10.36,21.54 0.83,-19.53 9.33,-40.27 27.08,-50.16 -2.41,7.32 -6.29,14.78 -4.44,22.71 3.92,-2.38 7.56,-5.14 11.33,-7.73 9.29,-6.38 21.79,-7.74 32.2,-3.41 10.94,4.48 19.47,13.3 26.04,22.9 5.57,7.73 8.38,16.97 13.05,25.22 -4.64,-26.46 -16.05,-52.73 -36.23,-71.02 -14.38,-13.09 -33.75,-20.66 -53.23,-20.28 -5.47,1.84 -11.3,2.05 -16.82,3.6 m 221.75,-2.31 c -8.98,2.89 -18.43,5.14 -26,11.1 -24.81,18.08 -41.85,46.59 -46.35,76.93 7.28,-15.48 15.53,-31.36 29.84,-41.53 8.66,-6.51 20.22,-9.83 30.81,-6.59 8.62,2.28 14.93,8.92 22.44,13.31 -1.64,-7.55 -3.48,-15.05 -5.08,-22.6 17.94,9.92 26.09,30.82 27.42,50.38 4.95,-6.94 6.66,-15.74 8.59,-23.93 2.8,7.68 3.25,16.01 3.59,24.11 -0.32,21.49 -16.78,39.91 -36.48,46.76 13.61,0.22 27.93,-2.6 38.69,-11.42 12.57,-10.07 18.69,-25.92 21.49,-41.34 4.53,-20.72 -1.04,-43.7 -15.41,-59.45 -13.24,-14.5 -34.67,-19.74 -53.55,-15.73 m 91.93,24.62 c -8.39,1.33 -16.46,-1.71 -23.98,-5.06 9.33,17.92 16.26,38.18 13.24,58.63 -0.91,9.46 -5.33,17.99 -8.05,26.97 10.3,-7.49 20.77,-15.33 27.84,-26.11 9.2,-14.28 14.33,-30.67 22.66,-45.41 5.66,-9.59 11.41,-19.2 18.92,-27.48 -15.35,9.49 -32.71,16.11 -50.63,18.46 M 52.16,297.92 c 6.15,9.69 14.35,17.96 19.76,28.13 8.95,17.06 15.52,35.46 26.81,51.22 5.88,8.29 13.64,15.45 23.08,19.45 -13.56,-27.07 -8.84,-59.61 5.14,-85.52 -7.79,4.61 -17.11,5.93 -26,4.77 -17.44,-2.11 -33.33,-10.2 -48.79,-18.05 m 142.35,60.54 c -6.06,7.19 -9.35,17.41 -6.63,26.64 2.41,8.18 11.53,13.32 19.8,11.54 10.16,-2.04 20.1,-8.54 30.76,-5.1 14.16,3.25 22.69,15.74 32.25,25.52 -4.75,-18.22 -13.77,-35.41 -26.23,-49.54 -8.2,-8.99 -18.89,-17.21 -31.52,-17.72 -6.41,2.04 -13.96,3.06 -18.43,8.66 m 144.82,2.85 c -17.36,13.75 -27,34.94 -32.27,55.99 6.65,-17.47 27.2,-25.69 44.81,-23.91 9.09,0.99 17.73,6.05 27.05,4.46 4.91,-0.78 8.26,-5.21 9.22,-9.85 2.18,-9.66 0.28,-20.96 -7.17,-27.96 -11.54,-10.92 -30.05,-7.91 -41.64,1.27 m -135.97,44.66 c 8.33,4.73 15.97,11.33 25.65,13.09 12.79,2.64 26.76,-2.5 38.78,3.94 -5.11,-13.39 -19.59,-21.65 -33.63,-20.65 -9.63,4.25 -20.44,5.62 -30.8,3.62 m 106.63,16.81 c 11.05,-5.15 23.49,-1.53 35.1,-3.65 10.56,-1.92 21.88,-4.97 29.1,-13.52 -12.66,2.29 -24.73,-3.5 -37.25,-3.78 -10.86,3.8 -22.22,9.72 -26.95,20.95 m 1.85,5.74 c 4.99,2.44 10.54,4.1 14.58,8.1 19.11,16.76 30.06,40.15 44.23,60.76 15.51,17.94 35.93,32.1 58.72,39 -4.96,-4.94 -10.98,-9 -14.6,-15.15 -12.52,-20.25 -18.36,-43.83 -30.98,-64.03 -5.72,-9.3 -15.03,-15.79 -24.92,-20.03 -14.8,-6.3 -31.03,-8.52 -47.03,-8.65 M 200.55,449.6 c -10.87,8.85 -15.81,22.44 -20.92,35.02 -6.92,19.32 -16.76,37.95 -32.18,51.86 27.03,-7.37 51.52,-24.98 65.82,-49.24 8.46,-13.65 16.9,-27.41 27.34,-39.67 6.8,-7.84 14.63,-15.52 24.9,-18.41 -23.07,-0.77 -47.15,5.15 -64.96,20.44 m 40.96,6.85 c -8.47,11.98 -11.68,27.03 -10.93,41.52 0.41,15.71 3.89,31.81 -0.66,47.24 8.98,-10.46 13.68,-23.78 17.46,-36.83 7.46,-23.84 0.82,-50.74 14.06,-73 -7.07,6.58 -14.35,13.13 -19.93,21.07 m 74.61,-21.64 c 10.09,20.12 10.05,43.26 11.98,65.17 3.5,16.01 8.72,32.4 19.3,45.24 -4.65,-19.51 -1.34,-39.48 -0.82,-59.2 -2.05,-20.37 -12.99,-40.13 -30.46,-51.21 m 34.78,48.91 c 7.22,19.45 -0.11,40.24 2.22,60.26 1.77,23.54 15.42,44.91 34.79,58.03 -13.84,-21.98 -8.07,-49.12 -14.77,-73.16 -4.53,-16.16 -10.76,-32.56 -22.24,-45.13 m -149.54,59.15 c -3.11,19.89 -2.08,41.25 -12.35,59.3 16.66,-8.51 27.03,-25.64 31.96,-43.17 7.73,-24.26 -3.13,-50.44 5.41,-74.5 -13.3,16.8 -22.09,37.13 -25.02,58.37 m 205.78,28.28 c -8.21,12.04 -7.98,28.68 -0.29,40.91 11.74,19.71 32.45,31.42 52.4,41.32 0.02,-24.3 -1.54,-49.07 -9.34,-72.26 -3.78,-10.37 -10.26,-23.26 -22.79,-23.95 -7.68,2.65 -15.63,6.74 -19.98,13.98 m -266.82,-8.83 c -9.72,9.46 -14.55,22.68 -17.45,35.65 -3.92,18.32 -4.53,37.14 -4.62,55.81 21.53,-11.22 44.75,-24.12 55.36,-47.19 9.42,-18.79 -2.64,-45.09 -23.62,-48.84 -4.06,-1.34 -6.97,2.17 -9.67,4.57 z"
       id="path45"
       inkscape:connector-curvature="0"
       style="opacity:1;fill:#000000" />
  </g>
</svg>
