<?xml version="1.0" encoding="UTF-8" standalone="no"?>
<svg
   xmlns:dc="http://purl.org/dc/elements/1.1/"
   xmlns:cc="http://creativecommons.org/ns#"
   xmlns:rdf="http://www.w3.org/1999/02/22-rdf-syntax-ns#"
   xmlns:svg="http://www.w3.org/2000/svg"
   xmlns="http://www.w3.org/2000/svg"
   xmlns:sodipodi="http://sodipodi.sourceforge.net/DTD/sodipodi-0.dtd"
   xmlns:inkscape="http://www.inkscape.org/namespaces/inkscape"
   width="580pt"
   height="750pt"
   viewBox="0 0 580 750"
   version="1.1"
   id="svg48"
   sodipodi:docname="butterfly_tattoo.svg"
   inkscape:version="0.92.4 (5da689c313, 2019-01-14)">
  <title
     id="title864">Butterfly</title>
  <metadata
     id="metadata54">
    <rdf:RDF>
      <cc:Work
         rdf:about="">
        <dc:format>image/svg+xml</dc:format>
        <dc:type
           rdf:resource="http://purl.org/dc/dcmitype/StillImage" />
        <dc:title>Butterfly</dc:title>
        <dc:creator>
          <cc:Agent>
            <dc:title>Public domain</dc:title>
          </cc:Agent>
        </dc:creator>
        <dc:date>2020-05-15</dc:date>
        <dc:source>http://www.supercoloring.com/coloring-pages/butterfly-tattoo?tag=58516</dc:source>
        <dc:subject>
          <rdf:Bag>
            <rdf:li>acb</rdf:li>
            <rdf:li>tattoo</rdf:li>
          </rdf:Bag>
        </dc:subject>
        <cc:license
           rdf:resource="http://creativecommons.org/licenses/by-sa/4.0/" />
      </cc:Work>
      <cc:License
         rdf:about="http://creativecommons.org/licenses/by-sa/4.0/">
        <cc:permits
           rdf:resource="http://creativecommons.org/ns#Reproduction" />
        <cc:permits
           rdf:resource="http://creativecommons.org/ns#Distribution" />
        <cc:requires
           rdf:resource="http://creativecommons.org/ns#Notice" />
        <cc:requires
           rdf:resource="http://creativecommons.org/ns#Attribution" />
        <cc:permits
           rdf:resource="http://creativecommons.org/ns#DerivativeWorks" />
        <cc:requires
           rdf:resource="http://creativecommons.org/ns#ShareAlike" />
      </cc:License>
    </rdf:RDF>
  </metadata>
  <defs
     id="defs52" />
  <sodipodi:namedview
     pagecolor="#ffffff"
     bordercolor="#666666"
     borderopacity="1"
     objecttolerance="10"
     gridtolerance="10"
     guidetolerance="10"
     inkscape:pageopacity="0"
     inkscape:pageshadow="2"
     inkscape:window-width="3840"
     inkscape:window-height="2004"
     id="namedview50"
     showgrid="false"
     inkscape:zoom="1.888"
     inkscape:cx="401.21491"
     inkscape:cy="493.66693"
     inkscape:window-x="-16"
     inkscape:window-y="-16"
     inkscape:window-maximized="1"
     inkscape:current-layer="svg48" />
  <g
     id="#ffffffff">
    <path
       fill="#ffffff"
       opacity="1.00"
       d=" M 25.17 134.00 C 57.30 135.22 89.47 146.85 113.51 168.49 C 128.78 182.19 139.79 200.61 144.44 220.60 C 149.28 240.55 143.10 263.72 126.54 276.53 C 112.30 287.66 90.57 288.22 76.41 276.64 C 63.06 265.49 54.82 249.60 48.10 233.86 C 35.19 202.06 28.61 168.04 25.17 134.00 Z"
       id="path4" />
    <path
       fill="#ffffff"
       opacity="1.00"
       d=" M 514.37 140.39 C 527.15 137.28 540.10 134.51 553.25 133.55 C 549.40 174.02 540.41 214.86 520.89 250.84 C 514.57 261.68 506.99 272.54 495.82 278.82 C 483.81 285.77 468.16 285.93 456.18 278.84 C 442.79 270.97 434.51 256.12 432.16 241.05 C 429.29 220.44 438.04 200.22 449.73 183.72 C 465.19 162.03 489.44 148.42 514.37 140.39 Z"
       id="path6" />
    <path
       fill="#ffffff"
       opacity="1.00"
       d=" M 420.05 186.17 C 427.67 201.10 426.20 219.00 421.69 234.66 C 416.19 253.17 399.99 265.65 383.96 274.92 C 365.50 285.35 346.51 296.19 333.17 313.11 C 327.63 319.56 324.72 327.65 320.73 335.04 C 320.20 318.37 325.26 301.83 331.49 286.54 C 332.46 289.29 333.42 292.06 334.76 294.66 C 337.61 278.38 342.65 261.52 354.90 249.72 C 353.04 256.40 351.24 263.17 351.25 270.15 C 359.09 255.36 365.67 237.75 380.89 229.02 C 377.78 235.34 375.49 242.23 375.88 249.38 C 379.68 238.33 389.65 231.07 400.18 227.05 C 398.34 231.89 395.69 236.43 394.57 241.52 C 402.15 230.79 413.58 222.59 417.75 209.67 C 420.50 202.15 420.41 194.05 420.05 186.17 Z"
       id="path8" />
    <path
       fill="#ffffff"
       opacity="1.00"
       d=" M 156.62 237.40 C 150.49 221.46 151.81 203.43 157.69 187.62 C 153.21 209.54 168.14 228.47 183.11 242.47 C 182.01 236.87 179.35 231.80 177.04 226.65 C 188.05 231.04 197.78 239.22 201.94 250.57 C 202.02 243.03 199.84 235.75 197.22 228.76 C 211.73 238.62 219.94 255.05 226.36 270.85 C 226.54 264.00 224.44 257.44 222.89 250.86 C 235.02 262.61 241.56 279.28 242.84 295.95 C 244.63 293.35 245.50 290.31 246.54 287.37 C 251.29 303.25 257.84 319.12 257.04 336.03 C 252.37 320.00 240.58 307.34 227.44 297.62 C 211.11 285.27 192.60 276.13 176.47 263.50 C 167.73 256.73 160.48 247.84 156.62 237.40 Z"
       id="path10" />
    <path
       fill="#ffffff"
       opacity="1.00"
       d=" M 161.14 294.12 C 166.66 292.57 172.49 292.36 177.96 290.52 C 197.44 290.14 216.81 297.71 231.19 310.80 C 251.37 329.09 262.78 355.36 267.42 381.82 C 262.75 373.57 259.94 364.33 254.37 356.60 C 247.80 347.00 239.27 338.18 228.33 333.70 C 217.92 329.37 205.42 330.73 196.13 337.11 C 192.36 339.70 188.72 342.46 184.80 344.84 C 182.95 336.91 186.83 329.45 189.24 322.13 C 171.49 332.02 162.99 352.76 162.16 372.29 C 156.03 366.64 155.31 357.88 151.80 350.75 C 146.67 372.52 151.88 398.56 170.97 412.09 C 175.03 415.39 180.12 416.87 184.53 419.54 C 178.51 421.23 172.34 419.26 166.60 417.43 C 148.95 412.05 135.50 396.99 128.92 380.13 C 121.82 362.19 124.03 341.81 131.23 324.27 C 136.71 310.80 147.58 299.52 161.14 294.12 Z"
       id="path12" />
    <path
       fill="#ffffff"
       opacity="1.00"
       d=" M 382.89 291.81 C 401.77 287.80 423.20 293.04 436.44 307.54 C 450.81 323.29 456.38 346.27 451.85 366.99 C 449.05 382.41 442.93 398.26 430.36 408.33 C 419.60 417.15 405.28 419.97 391.67 419.75 C 411.37 412.90 427.83 394.48 428.15 372.99 C 427.81 364.89 427.36 356.56 424.56 348.88 C 422.63 357.07 420.92 365.87 415.97 372.81 C 414.64 353.25 406.49 332.35 388.55 322.43 C 390.15 329.98 391.99 337.48 393.63 345.03 C 386.12 340.64 379.81 334.00 371.19 331.72 C 360.60 328.48 349.04 331.80 340.38 338.31 C 326.07 348.48 317.82 364.36 310.54 379.84 C 315.04 349.50 332.08 320.99 356.89 302.91 C 364.46 296.95 373.91 294.70 382.89 291.81 Z"
       id="path14" />
    <path
       fill="#ffffff"
       opacity="1.00"
       d=" M 474.82 316.43 C 492.74 314.08 510.10 307.46 525.45 297.97 C 517.94 306.25 512.19 315.86 506.53 325.45 C 498.20 340.19 493.07 356.58 483.87 370.86 C 476.80 381.64 466.33 389.48 456.03 396.97 C 458.75 387.99 463.17 379.46 464.08 370.00 C 467.10 349.55 460.17 329.29 450.84 311.37 C 458.36 314.72 466.43 317.76 474.82 316.43 Z"
       id="path16" />
    <path
       fill="#ffffff"
       opacity="1.00"
       d=" M 52.16 297.92 C 67.62 305.77 83.51 313.86 100.95 315.97 C 109.84 317.13 119.16 315.81 126.95 311.20 C 112.97 337.11 108.25 369.65 121.81 396.72 C 112.37 392.72 104.61 385.56 98.73 377.27 C 87.44 361.51 80.87 343.11 71.92 326.05 C 66.51 315.88 58.31 307.61 52.16 297.92 Z"
       id="path18" />
    <path
       fill="#ffffff"
       opacity="1.00"
       d=" M 194.51 358.46 C 198.98 352.86 206.53 351.84 212.94 349.80 C 225.57 350.31 236.26 358.53 244.46 367.52 C 256.92 381.65 265.94 398.84 270.69 417.06 C 261.13 407.28 252.60 394.79 238.44 391.54 C 227.78 388.10 217.84 394.60 207.68 396.64 C 199.41 398.42 190.29 393.28 187.88 385.10 C 185.16 375.87 188.45 365.65 194.51 358.46 Z"
       id="path20" />
    <path
       fill="#ffffff"
       opacity="1.00"
       d=" M 339.33 361.31 C 350.92 352.13 369.43 349.12 380.97 360.04 C 388.42 367.04 390.32 378.34 388.14 388.00 C 387.18 392.64 383.83 397.07 378.92 397.85 C 369.60 399.44 360.96 394.38 351.87 393.39 C 334.26 391.61 313.71 399.83 307.06 417.30 C 312.33 396.25 321.97 375.06 339.33 361.31 Z"
       id="path22" />
    <path
       fill="#ffffff"
       opacity="1.00"
       d=" M 203.36 405.97 C 213.72 407.97 224.53 406.60 234.16 402.35 C 248.20 401.35 262.68 409.61 267.79 423.00 C 255.77 416.56 241.80 421.70 229.01 419.06 C 219.33 417.30 211.69 410.70 203.36 405.97 Z"
       id="path24" />
    <path
       fill="#ffffff"
       opacity="1.00"
       d=" M 309.99 422.78 C 314.72 411.55 326.08 405.63 336.94 401.83 C 349.46 402.11 361.53 407.90 374.19 405.61 C 366.97 414.16 355.65 417.21 345.09 419.13 C 333.48 421.25 321.04 417.63 309.99 422.78 Z"
       id="path26" />
    <path
       fill="#ffffff"
       opacity="1.00"
       d=" M 311.84 428.52 C 327.84 428.65 344.07 430.87 358.87 437.17 C 368.76 441.41 378.07 447.90 383.79 457.20 C 396.41 477.40 402.25 500.98 414.77 521.23 C 418.39 527.38 424.41 531.44 429.37 536.38 C 406.58 529.48 386.16 515.32 370.65 497.38 C 356.48 476.77 345.53 453.38 326.42 436.62 C 322.38 432.62 316.83 430.96 311.84 428.52 Z"
       id="path28" />
    <path
       fill="#ffffff"
       opacity="1.00"
       d=" M 200.55 449.60 C 218.36 434.31 242.44 428.39 265.51 429.16 C 255.24 432.05 247.41 439.73 240.61 447.57 C 230.17 459.83 221.73 473.59 213.27 487.24 C 198.97 511.50 174.48 529.11 147.45 536.48 C 162.87 522.57 172.71 503.94 179.63 484.62 C 184.74 472.04 189.68 458.45 200.55 449.60 Z"
       id="path30" />
    <path
       fill="#ffffff"
       opacity="1.00"
       d=" M 241.51 456.45 C 247.09 448.51 254.37 441.96 261.44 435.38 C 248.20 457.64 254.84 484.54 247.38 508.38 C 243.60 521.43 238.90 534.75 229.92 545.21 C 234.47 529.78 230.99 513.68 230.58 497.97 C 229.83 483.48 233.04 468.43 241.51 456.45 Z"
       id="path32" />
    <path
       fill="#ffffff"
       opacity="1.00"
       d=" M 316.12 434.81 C 333.59 445.89 344.53 465.65 346.58 486.02 C 346.06 505.74 342.75 525.71 347.40 545.22 C 336.82 532.38 331.60 515.99 328.10 499.98 C 326.17 478.07 326.21 454.93 316.12 434.81 Z"
       id="path34" />
    <path
       fill="#ffffff"
       opacity="1.00"
       d=" M 350.90 483.72 C 362.38 496.29 368.61 512.69 373.14 528.85 C 379.84 552.89 374.07 580.03 387.91 602.01 C 368.54 588.89 354.89 567.52 353.12 543.98 C 350.79 523.96 358.12 503.17 350.90 483.72 Z"
       id="path36" />
    <path
       fill="#ffffff"
       opacity="1.00"
       d=" M 201.36 542.87 C 204.29 521.63 213.08 501.30 226.38 484.50 C 217.84 508.56 228.70 534.74 220.97 559.00 C 216.04 576.53 205.67 593.66 189.01 602.17 C 199.28 584.12 198.25 562.76 201.36 542.87 Z"
       id="path38" />
    <path
       fill="#ffffff"
       opacity="1.00"
       d=" M 407.14 571.15 C 411.49 563.91 419.44 559.82 427.12 557.17 C 439.65 557.86 446.13 570.75 449.91 581.12 C 457.71 604.31 459.27 629.08 459.25 653.38 C 439.30 643.48 418.59 631.77 406.85 612.06 C 399.16 599.83 398.93 583.19 407.14 571.15 Z"
       id="path40" />
    <path
       fill="#ffffff"
       opacity="1.00"
       d=" M 140.32 562.32 C 143.02 559.92 145.93 556.41 149.99 557.75 C 170.97 561.50 183.03 587.80 173.61 606.59 C 163.00 629.66 139.78 642.56 118.25 653.78 C 118.34 635.11 118.95 616.29 122.87 597.97 C 125.77 585.00 130.60 571.78 140.32 562.32 Z"
       id="path42" />
  </g>
  <g
     id="#000000ff">
    <path
       fill="#000000"
       opacity="1.00"
       d=" M 406.73 167.74 C 451.59 127.16 512.26 105.99 572.49 106.85 C 571.96 141.33 566.15 175.42 559.29 209.12 C 552.98 245.20 543.18 280.81 528.16 314.26 C 515.37 342.58 498.51 369.40 476.20 391.20 C 463.42 403.54 449.27 414.94 432.66 421.65 C 413.66 429.97 393.11 433.87 372.45 434.69 C 401.83 441.13 428.44 459.93 444.94 485.04 C 462.59 512.75 471.71 545.35 474.32 577.93 C 479.96 612.29 473.39 646.86 471.66 681.24 C 443.84 669.11 418.34 651.59 397.27 629.74 C 373.27 604.93 355.05 575.22 339.54 544.56 C 322.21 511.91 311.34 476.41 301.13 441.05 C 302.13 474.59 296.80 507.87 290.46 540.70 C 279.92 507.05 274.11 471.65 276.93 436.34 C 260.99 494.22 239.69 551.50 205.09 601.03 C 180.69 636.02 148.18 667.59 106.97 681.34 C 103.64 660.37 102.11 639.20 100.44 618.05 C 99.51 596.92 102.18 575.82 106.26 555.13 C 111.48 528.72 118.93 501.92 134.71 479.70 C 145.64 464.22 160.84 451.95 177.93 443.87 C 187.10 439.13 197.51 438.01 207.25 434.89 C 189.46 434.95 171.54 432.44 154.86 426.08 C 127.93 416.02 104.80 397.49 86.62 375.45 C 64.75 348.91 49.12 317.79 37.27 285.65 C 16.59 228.66 7.26 168.05 5.03 107.62 C 44.48 106.16 84.45 114.34 119.60 132.49 C 170.43 158.44 209.35 203.38 235.59 253.39 C 252.60 286.19 267.84 320.34 275.57 356.65 C 277.40 349.68 278.85 342.62 280.59 335.63 C 283.08 327.22 276.88 318.65 280.33 310.33 C 281.56 306.29 286.40 303.66 285.39 299.02 C 283.87 267.78 280.21 234.12 260.51 208.52 C 252.10 196.57 237.59 192.37 225.43 185.50 C 219.34 181.98 212.19 178.79 208.94 172.13 C 212.71 168.40 218.34 166.68 223.44 168.52 C 233.64 171.91 241.12 180.11 248.54 187.47 C 268.14 208.04 278.25 235.68 283.51 263.15 C 286.34 275.92 285.74 289.07 286.96 302.02 C 288.35 301.92 289.74 301.83 291.14 301.74 C 289.31 290.74 290.91 279.55 292.52 268.63 C 295.63 250.59 300.18 232.62 308.15 216.07 C 316.69 197.82 330.77 182.33 347.93 171.84 C 353.37 168.74 360.60 165.77 366.45 169.54 C 368.86 173.69 365.94 178.14 362.59 180.66 C 355.09 186.35 345.11 186.52 337.02 191.03 C 319.70 199.44 308.15 216.24 302.12 234.09 C 292.11 263.46 292.17 295.39 297.36 325.71 C 298.95 336.19 300.51 346.68 302.02 357.18 C 320.32 286.90 351.40 216.73 406.73 167.74 M 25.17 134.00 C 28.61 168.04 35.19 202.06 48.10 233.86 C 54.82 249.60 63.06 265.49 76.41 276.64 C 90.57 288.22 112.30 287.66 126.54 276.53 C 143.10 263.72 149.28 240.55 144.44 220.60 C 139.79 200.61 128.78 182.19 113.51 168.49 C 89.47 146.85 57.30 135.22 25.17 134.00 M 514.37 140.39 C 489.44 148.42 465.19 162.03 449.73 183.72 C 438.04 200.22 429.29 220.44 432.16 241.05 C 434.51 256.12 442.79 270.97 456.18 278.84 C 468.16 285.93 483.81 285.77 495.82 278.82 C 506.99 272.54 514.57 261.68 520.89 250.84 C 540.41 214.86 549.40 174.02 553.25 133.55 C 540.10 134.51 527.15 137.28 514.37 140.39 M 420.05 186.17 C 420.41 194.05 420.50 202.15 417.75 209.67 C 413.58 222.59 402.15 230.79 394.57 241.52 C 395.69 236.43 398.34 231.89 400.18 227.05 C 389.65 231.07 379.68 238.33 375.88 249.38 C 375.49 242.23 377.78 235.34 380.89 229.02 C 365.67 237.75 359.09 255.36 351.25 270.15 C 351.24 263.17 353.04 256.40 354.90 249.72 C 342.65 261.52 337.61 278.38 334.76 294.66 C 333.42 292.06 332.46 289.29 331.49 286.54 C 325.26 301.83 320.20 318.37 320.73 335.04 C 324.72 327.65 327.63 319.56 333.17 313.11 C 346.51 296.19 365.50 285.35 383.96 274.92 C 399.99 265.65 416.19 253.17 421.69 234.66 C 426.20 219.00 427.67 201.10 420.05 186.17 M 156.62 237.40 C 160.48 247.84 167.73 256.73 176.47 263.50 C 192.60 276.13 211.11 285.27 227.44 297.62 C 240.58 307.34 252.37 320.00 257.04 336.03 C 257.84 319.12 251.29 303.25 246.54 287.37 C 245.50 290.31 244.63 293.35 242.84 295.95 C 241.56 279.28 235.02 262.61 222.89 250.86 C 224.44 257.44 226.54 264.00 226.36 270.85 C 219.94 255.05 211.73 238.62 197.22 228.76 C 199.84 235.75 202.02 243.03 201.94 250.57 C 197.78 239.22 188.05 231.04 177.04 226.65 C 179.35 231.80 182.01 236.87 183.11 242.47 C 168.14 228.47 153.21 209.54 157.69 187.62 C 151.81 203.43 150.49 221.46 156.62 237.40 M 161.14 294.12 C 147.58 299.52 136.71 310.80 131.23 324.27 C 124.03 341.81 121.82 362.19 128.92 380.13 C 135.50 396.99 148.95 412.05 166.60 417.43 C 172.34 419.26 178.51 421.23 184.53 419.54 C 180.12 416.87 175.03 415.39 170.97 412.09 C 151.88 398.56 146.67 372.52 151.80 350.75 C 155.31 357.88 156.03 366.64 162.16 372.29 C 162.99 352.76 171.49 332.02 189.24 322.13 C 186.83 329.45 182.95 336.91 184.80 344.84 C 188.72 342.46 192.36 339.70 196.13 337.11 C 205.42 330.73 217.92 329.37 228.33 333.70 C 239.27 338.18 247.80 347.00 254.37 356.60 C 259.94 364.33 262.75 373.57 267.42 381.82 C 262.78 355.36 251.37 329.09 231.19 310.80 C 216.81 297.71 197.44 290.14 177.96 290.52 C 172.49 292.36 166.66 292.57 161.14 294.12 M 382.89 291.81 C 373.91 294.70 364.46 296.95 356.89 302.91 C 332.08 320.99 315.04 349.50 310.54 379.84 C 317.82 364.36 326.07 348.48 340.38 338.31 C 349.04 331.80 360.60 328.48 371.19 331.72 C 379.81 334.00 386.12 340.64 393.63 345.03 C 391.99 337.48 390.15 329.98 388.55 322.43 C 406.49 332.35 414.64 353.25 415.97 372.81 C 420.92 365.87 422.63 357.07 424.56 348.88 C 427.36 356.56 427.81 364.89 428.15 372.99 C 427.83 394.48 411.37 412.90 391.67 419.75 C 405.28 419.97 419.60 417.15 430.36 408.33 C 442.93 398.26 449.05 382.41 451.85 366.99 C 456.38 346.27 450.81 323.29 436.44 307.54 C 423.20 293.04 401.77 287.80 382.89 291.81 M 474.82 316.43 C 466.43 317.76 458.36 314.72 450.84 311.37 C 460.17 329.29 467.10 349.55 464.08 370.00 C 463.17 379.46 458.75 387.99 456.03 396.97 C 466.33 389.48 476.80 381.64 483.87 370.86 C 493.07 356.58 498.20 340.19 506.53 325.45 C 512.19 315.86 517.94 306.25 525.45 297.97 C 510.10 307.46 492.74 314.08 474.82 316.43 M 52.16 297.92 C 58.31 307.61 66.51 315.88 71.92 326.05 C 80.87 343.11 87.44 361.51 98.73 377.27 C 104.61 385.56 112.37 392.72 121.81 396.72 C 108.25 369.65 112.97 337.11 126.95 311.20 C 119.16 315.81 109.84 317.13 100.95 315.97 C 83.51 313.86 67.62 305.77 52.16 297.92 M 194.51 358.46 C 188.45 365.65 185.16 375.87 187.88 385.10 C 190.29 393.28 199.41 398.42 207.68 396.64 C 217.84 394.60 227.78 388.10 238.44 391.54 C 252.60 394.79 261.13 407.28 270.69 417.06 C 265.94 398.84 256.92 381.65 244.46 367.52 C 236.26 358.53 225.57 350.31 212.94 349.80 C 206.53 351.84 198.98 352.86 194.51 358.46 M 339.33 361.31 C 321.97 375.06 312.33 396.25 307.06 417.30 C 313.71 399.83 334.26 391.61 351.87 393.39 C 360.96 394.38 369.60 399.44 378.92 397.85 C 383.83 397.07 387.18 392.64 388.14 388.00 C 390.32 378.34 388.42 367.04 380.97 360.04 C 369.43 349.12 350.92 352.13 339.33 361.31 M 203.36 405.97 C 211.69 410.70 219.33 417.30 229.01 419.06 C 241.80 421.70 255.77 416.56 267.79 423.00 C 262.68 409.61 248.20 401.35 234.16 402.35 C 224.53 406.60 213.72 407.97 203.36 405.97 M 309.99 422.78 C 321.04 417.63 333.48 421.25 345.09 419.13 C 355.65 417.21 366.97 414.16 374.19 405.61 C 361.53 407.90 349.46 402.11 336.94 401.83 C 326.08 405.63 314.72 411.55 309.99 422.78 M 311.84 428.52 C 316.83 430.96 322.38 432.62 326.42 436.62 C 345.53 453.38 356.48 476.77 370.65 497.38 C 386.16 515.32 406.58 529.48 429.37 536.38 C 424.41 531.44 418.39 527.38 414.77 521.23 C 402.25 500.98 396.41 477.40 383.79 457.20 C 378.07 447.90 368.76 441.41 358.87 437.17 C 344.07 430.87 327.84 428.65 311.84 428.52 M 200.55 449.60 C 189.68 458.45 184.74 472.04 179.63 484.62 C 172.71 503.94 162.87 522.57 147.45 536.48 C 174.48 529.11 198.97 511.50 213.27 487.24 C 221.73 473.59 230.17 459.83 240.61 447.57 C 247.41 439.73 255.24 432.05 265.51 429.16 C 242.44 428.39 218.36 434.31 200.55 449.60 M 241.51 456.45 C 233.04 468.43 229.83 483.48 230.58 497.97 C 230.99 513.68 234.47 529.78 229.92 545.21 C 238.90 534.75 243.60 521.43 247.38 508.38 C 254.84 484.54 248.20 457.64 261.44 435.38 C 254.37 441.96 247.09 448.51 241.51 456.45 M 316.12 434.81 C 326.21 454.93 326.17 478.07 328.10 499.98 C 331.60 515.99 336.82 532.38 347.40 545.22 C 342.75 525.71 346.06 505.74 346.58 486.02 C 344.53 465.65 333.59 445.89 316.12 434.81 M 350.90 483.72 C 358.12 503.17 350.79 523.96 353.12 543.98 C 354.89 567.52 368.54 588.89 387.91 602.01 C 374.07 580.03 379.84 552.89 373.14 528.85 C 368.61 512.69 362.38 496.29 350.90 483.72 M 201.36 542.87 C 198.25 562.76 199.28 584.12 189.01 602.17 C 205.67 593.66 216.04 576.53 220.97 559.00 C 228.70 534.74 217.84 508.56 226.38 484.50 C 213.08 501.30 204.29 521.63 201.36 542.87 M 407.14 571.15 C 398.93 583.19 399.16 599.83 406.85 612.06 C 418.59 631.77 439.30 643.48 459.25 653.38 C 459.27 629.08 457.71 604.31 449.91 581.12 C 446.13 570.75 439.65 557.86 427.12 557.17 C 419.44 559.82 411.49 563.91 407.14 571.15 M 140.32 562.32 C 130.60 571.78 125.77 585.00 122.87 597.97 C 118.95 616.29 118.34 635.11 118.25 653.78 C 139.78 642.56 163.00 629.66 173.61 606.59 C 183.03 587.80 170.97 561.50 149.99 557.75 C 145.93 556.41 143.02 559.92 140.32 562.32 Z"
       id="path45" />
  </g>
</svg>
