<?xml version="1.0" encoding="UTF-8" standalone="no"?>
<svg
   xmlns:dc="http://purl.org/dc/elements/1.1/"
   xmlns:cc="http://creativecommons.org/ns#"
   xmlns:rdf="http://www.w3.org/1999/02/22-rdf-syntax-ns#"
   xmlns:svg="http://www.w3.org/2000/svg"
   xmlns="http://www.w3.org/2000/svg"
   xmlns:sodipodi="http://sodipodi.sourceforge.net/DTD/sodipodi-0.dtd"
   xmlns:inkscape="http://www.inkscape.org/namespaces/inkscape"
   width="210mm"
   height="297mm"
   viewBox="0 0 595.27559 841.88976"
   version="1.1"
   id="svg234"
   sodipodi:docname="celtic_ornament_book_of_kells.svg"
   inkscape:version="0.92.4 (5da689c313, 2019-01-14)">
  <title
     id="title1049">Celtic mandala</title>
  <metadata
     id="metadata240">
    <rdf:RDF>
      <cc:Work
         rdf:about="">
        <dc:format>image/svg+xml</dc:format>
        <dc:type
           rdf:resource="http://purl.org/dc/dcmitype/StillImage" />
        <dc:title>Celtic mandala</dc:title>
        <dc:date>2020-05-15</dc:date>
        <dc:source>http://www.supercoloring.com/coloring-pages/celtic-ornament-design-from-book-of-kells?tag=58516</dc:source>
        <dc:creator>
          <cc:Agent>
            <dc:title>Artsashina</dc:title>
          </cc:Agent>
        </dc:creator>
        <dc:subject>
          <rdf:Bag>
            <rdf:li>acb</rdf:li>
            <rdf:li>tattoo</rdf:li>
            <rdf:li>celtic</rdf:li>
          </rdf:Bag>
        </dc:subject>
        <cc:license
           rdf:resource="http://creativecommons.org/licenses/by-sa/4.0/" />
      </cc:Work>
      <cc:License
         rdf:about="http://creativecommons.org/licenses/by-sa/4.0/">
        <cc:permits
           rdf:resource="http://creativecommons.org/ns#Reproduction" />
        <cc:permits
           rdf:resource="http://creativecommons.org/ns#Distribution" />
        <cc:requires
           rdf:resource="http://creativecommons.org/ns#Notice" />
        <cc:requires
           rdf:resource="http://creativecommons.org/ns#Attribution" />
        <cc:permits
           rdf:resource="http://creativecommons.org/ns#DerivativeWorks" />
        <cc:requires
           rdf:resource="http://creativecommons.org/ns#ShareAlike" />
      </cc:License>
    </rdf:RDF>
  </metadata>
  <defs
     id="defs238" />
  <sodipodi:namedview
     pagecolor="#ffffff"
     bordercolor="#666666"
     borderopacity="1"
     objecttolerance="10"
     gridtolerance="10"
     guidetolerance="10"
     inkscape:pageopacity="0"
     inkscape:pageshadow="2"
     inkscape:window-width="3840"
     inkscape:window-height="2004"
     id="namedview236"
     showgrid="false"
     inkscape:zoom="1.7752894"
     inkscape:cx="629.48432"
     inkscape:cy="475.78011"
     inkscape:window-x="-16"
     inkscape:window-y="-16"
     inkscape:window-maximized="1"
     inkscape:current-layer="svg234"
     units="mm" />
  <g
     id="g1087"
     transform="matrix(0.56272808,0,0,0.56272808,-40.486277,260.92416)">
    <path
       d="m 576.33,-241.69024 c 84.03,-3.9 169.07,12.27 245.39,47.83 98.55,45.23 182.14,122 236.05,216.04 40.19,69.76 63.97,148.9 68.77,229.27 2.03,38.51 0.75,77.28 -5.41,115.39 -13.9,89.53 -51.81,175.07 -108.34,245.82 -37.36,46.7 -82.58,87.13 -133.34,118.77 -89.96,56.43 -197.39,84.27 -303.4,78.91 -59.4,-2.64 -118.38,-15.52 -173.44,-38 -113.79,-45.88 -210.17,-133.19 -267.28,-241.75 -44.36,-83.2 -65.2,-178.62 -60.34,-272.7 2.85,-58.62 15.61,-116.78 37.67,-171.18 45.08,-112.05 130.17,-207.32 236.31,-264.9 69.62,-38.15 148.07,-59.95 227.36,-63.5 m 15.08,6.13 c -77.7,1.28 -155.07,20.35 -224.42,55.43 -111.2,55.78 -200.93,152.85 -247.68,268.15 -55.36,134.31 -50.61,291.89 13.3,422.41 55.4,115.57 155.26,208.93 274.27,256.49 130.79,53.11 283.21,49.56 411.24,-9.99 79.66,-36.53 149.62,-93.76 201.58,-164.3 60.81,-82.08 96.46,-182.55 100.66,-284.63 5.43,-109.63 -25.4,-220.73 -86.62,-311.88 -67.32,-101.44 -171.29,-178.01 -288.43,-211.42 -49.9,-14.44 -102,-21.23 -153.9,-20.26 z"
       id="path179"
       style="opacity:1;fill:#000000"
       inkscape:connector-curvature="0" />
    <path
       d="m 529.98,-201.09024 c 33.63,-18.58 73.33,-22.28 111.02,-19.06 38.82,3.08 77.41,11.09 113.77,25.16 47.89,18.43 94.58,48.27 119.55,94.51 21.62,9.45 42.22,21.17 61.98,34.04 25.21,16.46 49.06,35.38 68.96,58.08 36.09,41.28 60.16,91.76 76.29,143.83 12.2,40.86 22.71,83.45 18.51,126.41 -3.69,49.69 -23.81,97.2 -52.71,137.42 -2.5,3.16 -4.36,6.99 -7.8,9.26 6.35,6.15 11.13,13.65 15.53,21.26 8.36,0.15 16.69,0.8 25.05,1.07 0.67,1.29 0.99,2.77 -0.26,3.86 -5.36,6 -10.84,11.92 -16.63,17.5 -3.51,30.92 -10.06,62.09 -25.31,89.54 -29.14,53.99 -73.56,100.04 -127.17,130.02 -27.6,15.06 -58.16,25.44 -89.65,27.47 -2.64,0.49 -4.59,2.57 -6.78,3.95 -39.5,27.54 -82.92,49.72 -128.89,64.18 -71.14,20.22 -147,14.05 -218.18,-2.72 -20.13,-4.98 -40.27,-10.39 -59.31,-18.72 -64.5,-27.76 -113.22,-84.96 -138.2,-149.78 -8.98,2.05 -18.24,2.7 -27.43,2.81 -4.82,7.5 -9.92,14.82 -15.1,22.08 -0.83,1.44 -3.33,2.96 -4.09,0.64 -4.36,-12.09 -6.35,-24.88 -9.42,-37.33 -23.29,-16.38 -44.42,-36.38 -59.92,-60.41 -21.08,-32.25 -34.9,-68.96 -42.29,-106.68 -10.06,-51.38 -7.05,-106.76 16.41,-154.22 -2.7,-6.71 -1.65,-14.1 -2.75,-21.12 -2.57,-50.55 1.12,-102.24 17.2,-150.53 25.3,-70.36 73.92,-129.7 128.19,-179.99 26.28,-24.16 57.36,-43.1 91.03,-55.04 44.89,-15.75 93.68,-19.65 140.69,-13.22 2.67,-8.82 6.68,-17.16 11.47,-25.02 -4.55,-7.63 -8.83,-15.41 -12.87,-23.32 0.72,-0.54 1.46,-1.05 2.24,-1.53 9.1,1.01 17.85,4.39 26.87,5.6 m 5.83,1.71 c 7.83,2.98 16.04,4.89 24.04,7.4 3.02,1.2 6.19,-0.01 9.25,-0.34 47.59,-6.88 96.54,-3.64 142.92,9 34.57,9.36 68,24 96.85,45.41 12.69,9.48 24.35,20.73 32.56,34.39 1.43,2.5 3.39,5.06 2.75,8.12 -7.89,1.75 -16.09,3.22 -23.06,7.53 -14.22,8.39 -23.71,22.92 -29.79,37.93 -15.62,39.11 -15.85,81.82 -21.86,122.95 -3.04,18.94 -9.39,37.24 -18,54.35 1.86,2.08 3.83,4.07 6.02,5.8 18.22,-35.3 24.33,-75.28 28.03,-114.4 1.64,-17.35 2.03,-35.09 7.46,-51.82 6.17,-19.4 17.01,-38.45 34.61,-49.55 15.09,-9.7 35.31,-9.76 50.88,-1.16 42.1,19.95 82.58,45.33 113.5,80.64 39.72,44.97 64.75,101 80.88,158.32 8.08,29.2 15.13,59.21 14.16,89.71 -0.4,56.32 -23.15,110.84 -57.46,154.91 2.55,2.06 5.13,4.09 7.61,6.26 35.47,-46.04 59.06,-102.57 59.84,-161.18 0.15,-34.3 -7.35,-68.15 -17.35,-100.81 -19.77,-65.34 -50.88,-130.18 -103.63,-175.27 -31.62,-26.73 -66.9,-49.41 -104.71,-66.29 -18.15,-33.64 -48.25,-59.49 -81.69,-77.29 -50.57,-26.64 -107.68,-39.69 -164.56,-42.23 -30.5,-0.75 -61.87,3.46 -89.25,17.62 m -28.15,-2.28 c 10.6,20.73 22.55,41.2 38.87,58.01 5.12,5.13 10.91,10.19 18.15,11.91 8.41,2.38 17.37,-4.44 18.89,-12.75 1.39,-9.54 -0.89,-20.34 -7.88,-27.33 -4.37,-4.78 -12.07,-1.33 -14.78,3.54 -3.55,5.57 1.83,13.49 8.1,13.17 2.78,-0.1 4.31,-2.83 6.68,-3.85 2.85,1.16 1.5,4.71 -0.67,5.79 -6.74,5.36 -17.66,0.15 -19.04,-7.99 -1.87,-8.34 5.43,-17.41 14.02,-17.05 5.55,-0.38 10.21,3.75 12.78,8.32 4.53,8.08 6.37,17.82 4.68,26.95 -2.02,10.62 -13.92,18.27 -24.36,14.83 -14.25,-4.48 -23.86,-16.79 -32.76,-28.05 -1.31,5.93 -2.67,11.93 -2.36,18.05 -0.51,17.89 9.46,34.82 23.59,45.3 21.25,15.85 49.46,20.71 75.25,16.13 -8.58,-3.39 -17.52,-7.36 -23.27,-14.91 -3.13,-3.77 -4.98,-9.5 -2.14,-13.95 4.28,-6.9 12.95,-8.87 20.5,-9.52 9.7,-0.09 19.19,2.87 27.83,7.13 23.78,11.54 43.37,29.9 66.71,42.19 7.33,3.8 15.14,7.38 23.53,7.66 8.43,0.44 16.67,-3.78 21.95,-10.23 -8.88,0.03 -19.43,-2.47 -23.73,-11.1 -3.75,-9.25 0.33,-20.59 7.78,-26.81 6.98,-5.86 19.01,0.11 19.09,9.05 0.61,4.85 -2.46,9.18 -6.03,12.1 -1.42,1.55 -5,1.78 -4.68,-1.09 2.22,-3.28 7.07,-5.29 6.68,-9.95 0.29,-6.15 -7.71,-10.68 -12.62,-6.64 -7.02,5.88 -10.91,18.49 -3.39,25.47 12.17,9.89 32.2,3.56 39.01,-9.83 3.3,-7.5 -0.59,-15.76 -5.75,-21.35 -9.97,-10.51 -23.71,-17.9 -38.25,-19.14 1.35,8.34 -1.75,17.92 -9.63,21.93 -15.2,6.78 -32.28,2.7 -47.28,-2.51 -20.91,-7.17 -41,-17.53 -63.09,-20.68 -14.08,-2.15 -28.94,4.12 -36.65,16.21 -1.9,2.48 -4.07,8.98 -7.52,4.54 4.18,-8.92 10.92,-17.05 20.07,-21.13 9.61,-4.62 20.71,-4.63 31,-2.6 28.62,5.54 53.94,22.41 83.13,25.71 -10.17,-6.32 -10.76,-21.54 -3.05,-30.06 -8.09,-1.58 -16.39,-4.36 -24.67,-2.48 -6.2,1.8 -9.98,7.38 -12.64,12.88 -1.54,-0.48 -3.55,-1.24 -2.72,-3.27 2.66,-7.14 9.06,-13.57 16.98,-14.15 10.59,-1.33 20.57,3.64 31.08,3.7 8.57,-0.08 16.51,-6.44 19.33,-14.35 0.65,-5.81 -5.21,-9.62 -9.74,-11.94 -20.97,-9.02 -44.05,-11.24 -66.58,-12.85 -15.35,-1.43 -30.68,1.34 -46.06,0.57 -35.99,-1.42 -69.4,-16.48 -104.34,-23.58 m 65.02,12.85 c 15.55,4.86 32.02,7.1 48.32,6.68 30.82,-2.32 62.32,-0.84 92.16,7.69 9.19,2.93 20.38,5.96 24.64,15.61 2.59,7.4 -3.08,13.71 -8.01,18.42 3.48,2.04 6.42,4.86 8.57,8.28 15.12,1.22 29.46,7.94 40.58,18.17 7.23,6.72 13.6,17.24 9.5,27.28 -3.13,9.15 -12.08,14.14 -20.4,17.62 -7.73,11.47 -22.43,17.92 -35.99,14.03 -18.21,-4.46 -33.01,-16.57 -48.36,-26.65 -7.01,6.26 -15.19,10.9 -23.01,16.01 22.16,10.98 46.63,16.32 68.62,27.69 0.03,9.76 -6.98,19.23 -16.57,21.53 -9.53,1.79 -19.34,0.16 -28.41,-2.98 -21.87,-7.66 -42.15,-19.46 -60.41,-33.64 -23.21,4.81 -47.57,1.07 -69.13,-8.37 -13.92,9.4 -23.56,25.43 -25.46,42.26 -2.75,24.95 4.7,49.41 11.62,73.07 28.65,-1.31 58,1.45 84.83,12.12 17.74,7.05 34.06,20.08 40.6,38.54 2.71,12.23 12.28,21.76 13.14,34.67 -4,-2.3 -7.23,-5.7 -11.12,-8.09 -3.53,3.63 -8.45,4.41 -13.29,3.7 1.98,5.4 3.61,10.94 5.07,16.51 -5.51,-4.29 -10.85,-8.93 -15.21,-14.41 -11.84,1.98 -20.37,-8.12 -25.8,-17.18 1.49,7 1.3,14.21 1.07,21.33 -3.88,-3.89 -5.14,-9.82 -8.45,-13.89 -8.54,1.75 -15.89,-3.89 -22.36,-8.62 -11.3,-8.16 -22.93,-17.79 -37.45,-18.76 3.26,17.78 2.92,36.73 -4.33,53.54 -7.82,17.57 -23.56,32.4 -42.72,36.35 -15.98,3.63 -32.59,2.45 -48.57,-0.46 -3.65,9.5 -7.18,19.04 -11.14,28.41 23.82,4.11 49.39,4.44 71.76,-5.88 29.39,-13.37 56.78,-32 88.61,-39.36 12.61,-3.01 26.57,-2.06 37.52,5.36 11.23,-0.41 22.68,2.7 31.34,10.08 -6.67,1.7 -13.45,3.33 -20.38,3.14 0.67,4.35 -0.6,8.56 -4.08,11.37 0.77,1.18 1.62,2.32 2.41,3.52 -5.33,0.4 -10.65,-0.16 -15.97,0.15 -7.83,13.03 -25.19,11.21 -38.24,11.15 0.36,1.42 0.73,2.86 1.1,4.3 5.47,3.67 9,9.34 11.99,15.07 -5.88,-2.14 -11.14,-5.71 -17.13,-7.61 -16.14,11.68 -36.48,14.13 -54.94,20.34 -35.06,10.04 -71.94,7.47 -107.94,6.92 -10.88,37.49 -13.92,77.65 -32.27,112.69 -3.47,7.17 -8.37,13.48 -13.56,19.48 -8.59,16.51 -19.44,34.55 -37.9,41.13 -7.18,6.18 -15.92,10.26 -24.93,13.04 2.89,-5.28 6.76,-9.93 9.85,-15.08 -1.88,-2.32 -4.63,-4.35 -4.74,-7.6 -1.21,-10.42 5.26,-19.98 12.72,-26.6 -3.35,-12.77 5.4,-23.88 14.82,-31.26 -7.04,-3.64 -5.91,-12.58 -2.69,-18.49 8.65,-17.86 23.34,-31.9 32.82,-49.27 6.62,-11.72 11.18,-24.44 14.68,-37.4 -11.39,1.12 -22.76,2.56 -33.87,5.36 -21.2,4.85 -40.71,14.74 -60.46,23.51 -29.65,13.28 -60.04,26.67 -92.67,30.17 -17.75,2.05 -36.7,-0.2 -51.94,-10.12 -5.28,-3.21 -9.09,-8.16 -13.72,-12.15 -12.75,22.81 -13.77,49.8 -13.36,75.29 2.76,46.23 14.43,92.38 37.1,132.96 9.05,15.75 19.77,31.02 33.97,42.51 -3.86,-14.38 -9.43,-28.46 -17.81,-40.83 -11.85,-17.44 -20.55,-36.84 -27.46,-56.7 -4.29,-12.85 -8.33,-26.32 -6.83,-40.02 0.54,-4.92 2.78,-10.25 7.63,-12.28 5.73,-3.02 12.39,-1.36 18.16,0.61 -0.15,-4.33 1.66,-8.28 3.81,-11.91 -7.04,-14.09 -3.04,-31.1 4.63,-44.07 5.92,-9.93 16.29,-19.37 28.72,-17.54 6.05,-0.26 9.2,6.48 15.08,6.43 11.23,1.22 21.99,8.54 25.35,19.64 6.02,18.73 1.59,38.63 -1.09,57.56 9.02,3.02 17.46,7.44 25.85,11.85 0.69,-24.14 -6.97,-47.78 -5.72,-71.91 8.85,-5.05 21.79,-3.15 28.27,5.12 7.34,9.12 9.41,21.23 10.35,32.59 1.95,19.55 -0.08,39.28 -3.67,58.54 15.14,17.84 23.35,40.71 24.91,63.92 20.6,7.95 44.28,5.09 62.97,-6.38 18.24,-10.65 34.28,-24.78 49.01,-39.79 -11.01,-18.08 -18.87,-37.98 -24.15,-58.44 -6.68,-26.02 -8.81,-55.89 6.28,-79.5 4.04,-7.44 11.8,-12.24 14.62,-20.38 3.8,-8.01 9.72,-14.83 16.22,-20.78 -0.25,5.72 -1.28,11.37 -2.6,16.94 6.25,1.04 9.31,6.99 10.69,12.57 4.12,-5.25 8.45,-10.43 13.46,-14.86 -1.86,8.11 -3.48,16.36 -6.76,24.05 7.85,11.43 1.74,25.63 -4.29,36.37 6.04,-5.05 12.7,-9.39 19.8,-12.79 -2.66,5.56 -6.31,10.58 -9.75,15.66 1.97,3.31 3.69,6.93 3.34,10.9 0.83,20.11 -10.07,40.36 -2.74,60.15 14.71,-10.92 31.1,-20.73 49.58,-23.19 19.85,-2.9 42.12,2.8 55.45,18.48 9.95,11.33 16.39,25.28 20.86,39.57 9.93,-1.69 19.9,-3.14 29.89,-4.45 -6.76,-22.48 -19.34,-44.28 -39.13,-57.68 -24.39,-17.14 -51.92,-30.44 -72.62,-52.37 -7.54,-8.31 -14.34,-18.86 -13.44,-30.56 0.26,-2.92 -0.03,-5.85 -1.77,-8.3 -4.82,-8.11 -5.06,-17.85 -3.78,-26.95 5.32,4.06 8.78,9.94 12.7,15.26 3.46,-2.43 7.56,-3.5 11.53,-1.54 0.71,-1.34 1.55,-2.59 2.29,-3.9 2.83,4.19 5.05,8.74 7.4,13.22 14.42,0.19 21.52,15.05 27.13,26.19 1.11,-0.75 2.2,-1.51 3.31,-2.25 0.81,-6.54 4.08,-12.45 8.17,-17.5 0.54,5.89 -1.14,12.65 1.77,17.94 14.6,6.95 24.79,19.95 36.77,30.37 27.31,24.9 42.8,59.1 60.3,90.92 36.36,-9.12 71.42,-24.55 109.18,-27.17 8.38,-1.03 16.73,0.49 24.99,1.71 15.27,-0.22 31.44,-0.65 45.36,6.65 9.26,7.15 21.39,10.11 29.21,19.37 -6.01,-0.28 -11.98,-1.39 -18,-0.92 -3.13,13.72 -21.4,13.84 -32.01,9.5 -8.71,9.09 -22.58,6.83 -33.07,2.54 -0.53,4.72 -3.49,9.03 -8.31,10.09 -14.89,3.96 -30.2,-0.37 -45.21,-1.29 -19.21,-2.47 -38.71,0.12 -57.31,5.12 8.38,13.26 18.71,25.27 30.37,35.75 30.54,25.66 66.54,44.94 93.23,75.07 12.42,13.92 23.39,30.49 25.35,49.48 1.49,9.74 -0.99,19.49 -4.23,28.63 22.26,-0.52 43.28,-9.68 62.56,-20.15 28.3,-16.1 53.64,-37.19 75.38,-61.38 26.34,-29.82 47.52,-65.13 57.06,-103.99 -14.62,13.9 -26.68,30.47 -35.02,48.86 -12.81,23.68 -28.96,45.94 -49.56,63.47 -5.3,4.17 -11.66,8.46 -18.7,7.74 -7.45,-1.05 -10.77,-8.98 -11.56,-15.59 -3.55,1.66 -7.37,2.7 -11.29,2.85 -8.36,12.42 -21.75,20.7 -36.01,24.65 -7.01,1.84 -15.08,1.97 -21.3,-2.2 -6.11,-3.97 -8.89,-11.4 -9.55,-18.37 -0.78,-4.4 1.98,-8.96 -0.25,-13.13 -4.43,-10.26 -2.99,-22.75 4.49,-31.21 12.42,-14.27 30.68,-20.93 47.33,-28.81 -1.53,-8.63 -2.15,-17.41 -1.96,-26.16 -19.95,12.19 -35.61,30.33 -55.94,41.91 -8.72,-4.36 -12.68,-16.33 -9.16,-25.4 4.01,-10.51 12.78,-18.19 21.46,-24.89 15.4,-11.83 32.83,-20.67 50.66,-28.18 7.75,-20.92 21.9,-39.3 40.3,-51.95 -1.63,-16.86 -10.83,-32.86 -24.78,-42.52 -18.73,-13.42 -41.59,-18.72 -63.45,-24.7 -13.95,25.74 -32.59,49.54 -56.46,66.77 -15.34,10.91 -34.74,17.1 -53.55,13.56 -5.46,-0.62 -10.42,-3.91 -16.04,-3.2 -8.09,0.5 -16.11,-1.69 -23.44,-4.97 4.27,-2.3 8.85,-3.91 13.47,-5.34 -1,-5.78 1.67,-11.19 5.77,-15.09 -5.46,-1.23 -11,-2.39 -16.13,-4.68 6.75,-2.27 13.59,-4.51 20.7,-5.31 4.91,-11.18 18.76,-13.59 29.69,-12.89 -6.78,-2.57 -13.01,-6.39 -18.68,-10.88 5.38,0.2 10.82,-0.09 16.13,0.99 3.58,-7.62 12.03,-10.56 19.51,-12.85 12.66,-4.25 27.16,-7.72 35.41,-19.17 -14.75,-6.16 -29.23,-14.16 -39.44,-26.77 -12.68,-15.55 -18.13,-37.78 -11.2,-56.96 4.87,-14.02 13.22,-26.62 23.12,-37.58 -6.02,-7.52 -11.88,-15.17 -17.92,-22.68 -13.09,15.26 -24.19,33 -28.26,52.93 -5.2,33.23 -1.04,67.83 -11.7,100.21 -3.64,11.36 -11.08,21.92 -22.21,26.87 -4.98,9.43 -12.98,17.39 -23.32,20.65 1.55,-6.45 3.95,-12.69 7.03,-18.57 -3.83,-1.43 -7.04,-4.12 -7.17,-8.5 -1.4,0.13 -2.79,0.26 -4.18,0.39 2.16,-4.63 5.12,-8.82 7.31,-13.43 -6.2,-12.63 2.7,-25.59 9.16,-36.13 -1.19,-0.44 -2.38,-0.88 -3.55,-1.3 -5.71,2.74 -12.15,2.72 -18.32,2.3 4.51,-3.68 9.91,-6.13 14.2,-10.13 -1.43,-17.89 5.72,-34.68 8.98,-51.94 8.77,-34.24 28.85,-63.82 46.81,-93.74 -19.81,-20.6 -42.48,-38.29 -61.3,-59.86 -11.05,-12.11 -20.77,-25.91 -25.49,-41.77 -7.42,-11.52 -13.83,-24.1 -16.07,-37.75 -1.16,-5.69 1.25,-11.34 0.07,-17.01 -0.77,-7.66 -0.06,-15.49 1.82,-22.94 2.84,5.16 5.2,10.57 7.71,15.9 13.83,-4.4 22.69,11.38 24.57,22.83 11.67,3.58 17.13,15.93 18.19,27.21 4.45,-2.15 10.01,-1.47 13.2,2.52 9.17,9.66 12.89,22.87 18.42,34.68 7.48,18.81 18.89,36.1 33.62,50 9.22,-18.47 15.67,-38.36 17.89,-58.92 5.88,-43.13 5.86,-88.88 26.62,-128.29 9.02,-17.92 25.86,-32.76 46.24,-35.41 -7.8,-14.71 -20.12,-26.47 -33.32,-36.34 -17.64,-13.03 -37.16,-23.37 -57.39,-31.75 -55.42,-22.42 -116.65,-29.84 -175.88,-22.2 m -60.04,85.03 c 17.38,29.76 51.62,46.74 85.35,48.64 29.72,1.18 59.33,-10 82,-28.99 -3.65,-3.07 -7.74,-5.57 -11.76,-8.11 -17.19,10.9 -36.13,22.1 -57.23,21.15 -27.48,0.93 -56.88,-8.57 -74.55,-30.52 -12.28,-14.98 -15.36,-35.96 -10.31,-54.37 0.41,-2.04 1.68,-4.46 -0.04,-6.24 -3.52,-4.96 -6.59,-10.2 -9.99,-15.23 -14.26,21.6 -17.01,51.05 -3.47,73.67 m -189.95,-17.59 c -29.27,16.09 -53.73,39.31 -77,62.95 -45.21,47.07 -84.93,101.83 -103.82,165 -12.16,43.94 -15.07,90.03 -12.57,135.39 0.95,6.76 0.36,13.72 2.39,20.31 0.75,1.53 -0.23,2.98 -0.82,4.37 -14.49,29.49 -20.27,62.58 -20.55,95.24 0.3,39.44 8.25,78.84 23.45,115.25 11.17,26.32 25.73,51.58 45.58,72.35 10.18,10.8 21.6,20.36 33.49,29.22 -1.79,-8.21 -3.24,-16.5 -5.14,-24.69 -0.53,-3.28 -3.94,-4.68 -6.06,-6.82 -23,-20.13 -38.14,-47.54 -49.51,-75.54 -12.64,-32.13 -20.06,-66.3 -22.13,-100.75 -0.44,-26.59 0,-54.8 13.37,-78.64 1.12,-1.58 1.98,-4.72 4.39,-4.29 5.42,4.58 9.52,10.69 15.76,14.3 17.16,11.29 38.94,11.56 58.52,8.2 41.68,-7.11 78.81,-28.41 117.51,-44.2 19.6,-7.79 40.51,-12.18 61.54,-13.47 0.95,-2.95 1.71,-5.95 2.42,-8.96 -50.72,3.62 -97.67,24.94 -142.85,46.68 -17.62,8.47 -37.07,13.5 -56.67,13.39 -15.73,-0.48 -32.09,-4.2 -44.59,-14.24 -9.8,-7.48 -15.45,-19.11 -18.46,-30.8 -4.73,-46.67 -4.75,-94.58 7.7,-140.16 12.04,-43.31 34.2,-83.24 61.12,-119.01 20.75,-27.89 44.24,-53.74 70.01,-77.08 20.66,-19.01 44.44,-34.61 70.15,-45.9 46.83,-20.54 99.48,-25.8 149.92,-19.29 0.21,-3.49 0.85,-6.93 1.4,-10.37 -60.76,-7.92 -124.81,1.12 -178.55,31.56 m 42.49,-3.46 c -31.52,11.69 -60.45,30 -85,52.92 -33.62,31.37 -64.14,66.36 -88.52,105.44 -18.41,29.25 -33.14,61.07 -41.16,94.77 -9.65,41.41 -9.96,84.41 -5.63,126.52 1.58,14.7 10.41,28.6 23.37,35.85 14.35,8.21 31.53,9.93 47.73,8.24 24.93,-1.97 47.42,-13.79 69.43,-24.68 37.63,-17.44 77.51,-32.32 119.31,-34.46 0.93,-3.61 1.93,-7.2 2.89,-10.8 -28.51,-9.64 -56.84,-20.45 -86.56,-25.83 -9.16,-1.43 -18.26,1.31 -26.39,5.38 -16.53,8.35 -30.86,20.46 -47.64,28.36 -7.6,3.79 -16.25,6.54 -24.79,4.81 -7.99,-1.96 -13.78,-8.63 -17.22,-15.79 -7.22,-14.84 -8.94,-31.77 -7.73,-48.06 2.7,-28.34 12.54,-55.88 27.77,-79.88 10.07,-15.51 21.97,-30.43 37.85,-40.31 26.23,-15.09 56.53,-20.27 85.24,-28.73 16.23,-4.7 32.94,-9.1 47.25,-18.43 -7.66,-9.29 -17.94,-16.08 -25.38,-25.59 -6.86,-8.17 -11.65,-18.9 -9.73,-29.74 3.21,-17.8 15.66,-32.96 30.87,-42.18 16.69,-10.81 40.81,-6.9 53.75,7.93 8.43,9.48 6.18,25.57 -4.07,32.8 -5.73,4.09 -14.55,5.31 -20.28,0.62 -3.55,-3.07 -4.15,-8.02 -4.57,-12.41 -6.11,-1.65 -13.54,0.71 -16,6.92 -5.64,12.05 2.28,27.17 14.2,31.81 13.73,5.48 31.45,0.66 38.99,-12.48 12.49,-21.02 9.8,-47.25 21.5,-68.62 4.88,-10.71 13.87,-21.01 26.4,-21.79 -1.23,-5.39 -1.44,-10.94 -1.45,-16.45 -45.07,-5.37 -91.69,-2.14 -134.43,13.86 m 357.27,-11.75 c -3.33,1.07 -6.89,0.8 -10.23,1.7 -7.44,5.13 -8.83,17.32 -1.91,23.47 7.7,7.54 22.71,3.55 25.26,-7.07 2.53,-7.89 -3.78,-20.61 -13.12,-18.1 m -241.18,32.69 c -7.56,12.39 -12.18,27.42 -9.36,41.96 1.84,11.91 6.57,23.1 9.51,34.74 19.52,-12.98 37.18,-28.91 51.55,-47.47 -14.4,-10.64 -25.78,-25.83 -30.7,-43.15 -9.17,-0.25 -16.6,6.47 -21,13.92 m 124,-0.02 c -2.73,3.87 0.46,8.48 3.17,11.37 7.09,6.62 16.16,11.09 25.52,13.43 10.75,-3.79 20.82,-9.55 30.39,-15.74 -12.8,-8.15 -26.86,-15.91 -42.43,-16.17 -6,0.56 -12.88,1.96 -16.65,7.11 m -213.03,21.09 c -15.14,9.65 -28.44,26.05 -28.02,44.77 3.56,25.91 32.04,36.02 43.06,57.83 9.26,19.31 9.03,41.25 11.87,62.06 17.19,-7.45 35,-13.82 53.45,-17.26 7.33,-21.4 8.48,-44.3 8.34,-66.73 -0.37,-20.55 -9.07,-39.46 -13.49,-59.23 -2.4,13.74 -6.02,28.35 -16.15,38.57 -10.92,10.66 -28.71,12.62 -42.1,5.66 -12.22,-6.14 -18.58,-22.35 -13.37,-35.06 2.65,-6.77 9.89,-11.15 17.14,-10.28 2.82,0.12 8.37,0.1 7.59,4.31 -0.88,4.96 1.76,11 7.39,11.24 13.54,1.66 23.27,-16.63 15.17,-27.33 -11.05,-15.42 -35.36,-19.76 -50.88,-8.55 m 427.15,12.11 c -19.16,19.37 -26.82,47.07 -28.4,73.63 -3.54,45.49 -8.99,92.42 -30.47,133.43 2.31,2.73 4.8,5.31 7.42,7.76 19.43,-16.95 39.83,-32.92 57.41,-51.89 5.33,-5.37 10.03,-11.7 11.78,-19.19 4.14,-18.17 0.25,-36.77 0.86,-55.14 -0.29,-9.76 0.61,-20.37 6.58,-28.49 5.64,-7.44 15.7,-9.32 24.51,-8.45 12.97,1.48 25.36,6.48 36.37,13.4 22.97,14.34 41.07,35.45 54.46,58.8 9.02,16.3 16.82,33.89 18.08,52.71 1.1,28.5 -8.71,55.8 -15.75,83.03 -4.43,16.89 -9.56,34.07 -8.57,51.72 14.74,-2.99 28.88,-10.2 44.26,-9.01 13.37,0.61 24.3,10.83 30.06,22.28 6.81,13.35 10.59,29.28 6.22,43.99 -5.14,14.61 -19.4,26.42 -35.17,26.73 -14.59,-0.03 -26.04,-17.89 -18.29,-30.79 3.65,-7.01 13.22,-7.58 19.17,-3.25 3.36,-3.74 5.72,-9.13 3.45,-14.04 -5.44,-10.57 -20.12,-13.99 -30.3,-8.47 -13.48,6.94 -19.96,25.08 -12.74,38.69 9.74,19.4 30.48,29.48 43.08,46.65 7.99,10.3 15.28,24.65 8.59,37.45 4.8,1.81 9.46,3.99 13.85,6.66 36.39,-46.13 58.59,-104.48 57.15,-163.6 -0.96,-26.79 -7,-53.11 -14.24,-78.83 -16.83,-55.86 -40.85,-110.95 -79.73,-155.16 -32.78,-36.97 -75.61,-63.55 -120.44,-83.49 -17.16,-6.12 -36.87,-0.14 -49.2,12.87 m -283.03,-1.37 c -14.96,19.32 -33.42,35.8 -53.8,49.23 3.14,17.32 3.07,35.19 1.5,52.68 13.31,23.12 27.4,47.08 30.96,74.01 1.32,13.15 0,27.66 -8.98,38.07 -9.79,11.42 -25.24,15.66 -39.66,17.26 -2.34,8.9 -5.63,17.51 -8.53,26.23 20.94,3.53 44.31,5.13 63.11,-6.56 21.98,-13.86 31.75,-41.91 28.4,-66.97 -3.54,-43.86 -27.77,-84.34 -24.37,-129.02 1.03,-18.41 11.03,-35.27 25.27,-46.66 -4.82,-2.44 -9.47,-5.19 -13.9,-8.27 m 93.31,18.01 c 16.7,12.69 35.16,23.28 54.95,30.31 8.81,3.12 18.48,5.35 27.74,3 6.65,-1.88 10.87,-8.03 12.84,-14.34 -22.15,-11.67 -47.2,-16.48 -69.25,-28.41 -8.47,3.92 -17.25,7.07 -26.28,9.44 m 5.5,38.91 c -0.69,8.59 -0.04,17.23 2.73,25.43 -1.25,-1.31 -2.38,-2.67 -3.46,-4.1 0.86,11.41 5.76,22 11.14,31.92 -0.2,-6.58 1.51,-12.91 3.3,-19.13 -1.25,-8.67 1.23,-17.03 4.15,-25.07 -2.46,-2.91 -6.6,-4.45 -10.28,-3.14 0.95,1.88 1.91,3.75 2.69,5.71 -4.38,-2.93 -7.22,-7.45 -10.27,-11.62 m 208.94,15.04 c -4.66,17.7 -0.51,36.03 -1.11,54.01 0.37,12.04 -1.01,25.3 -9.18,34.79 -18.26,22.3 -41.73,39.37 -62.88,58.69 2.54,2.31 4.96,4.76 7.42,7.16 22.78,-21.32 48.33,-39.96 67.82,-64.58 3.74,-4.57 6.17,-10.17 6.87,-16.05 3.36,-18.31 -3.73,-36.98 0.57,-55.18 1.93,-8.96 10.33,-15.39 19.32,-15.88 16.42,-1.74 32.05,6.54 43.94,17.21 14.43,13.25 24.87,30.24 33.23,47.81 7.38,16.05 13.3,33.23 13.95,51.03 -1.94,41.97 -26.57,80.38 -22.39,122.99 2.61,0 5.22,-0.16 7.83,-0.45 -0.96,-14.53 2.32,-28.97 5.92,-42.97 6.56,-26.05 15.39,-51.68 18.44,-78.48 2.24,-23.33 -6.8,-45.91 -18.22,-65.76 -15.06,-25.91 -36.18,-49.39 -63.62,-62.36 -9.88,-4.64 -20.91,-7.84 -31.9,-6.69 -7.87,0.92 -14.11,7.18 -16.01,14.71 m -189.08,-3.55 c 0.39,4.93 0.96,9.87 2.05,14.7 1.18,-0.42 2.39,-0.83 3.59,-1.24 -0.86,-4.83 -2.33,-9.72 -5.64,-13.46 m 202.46,23.94 c -3.82,20.19 4.57,41.15 -1.92,61.09 -3.25,10.35 -12,17.36 -18.31,25.68 -3.41,14.06 -2.48,28.72 -2.01,43.05 12.96,-9.47 26.27,-18.86 41.59,-24.19 3.55,-36.18 14.38,-73.22 39.35,-100.6 -11.37,-10.6 -25.99,-19.8 -42.15,-18.57 -7.72,0.31 -14.95,5.86 -16.55,13.54 m -204.32,-9.42 c -0.99,8.02 0.09,16.05 2.26,23.79 -1.94,-1.96 -3.15,-4.44 -4.29,-6.9 -3.98,14.52 2.77,29.48 10.45,41.61 17.92,26.9 43.61,47.05 66.69,69.23 32.81,32.14 55.07,73.96 91.16,102.93 4.52,3.4 8.81,7.34 14.11,9.5 0.54,-15.15 -1.47,-30.25 -3.82,-45.19 -0.32,-1.37 -0.34,-3.07 -1.75,-3.8 -24.06,-16.48 -45.16,-36.81 -65.64,-57.46 -12.96,-13.72 -27.34,-26.38 -37.58,-42.41 -10.96,-16.78 -16.67,-36.23 -26.52,-53.58 -2.58,-4.54 -6.4,-10.48 -12.55,-8.64 1.22,3.19 2.98,6.14 4.14,9.35 -4.04,-2.77 -6.64,-7.01 -9.9,-10.57 -0.06,6.79 3.26,12.84 6.12,18.78 -1.84,-1.31 -3.46,-2.87 -4.99,-4.5 3.12,19.34 13.51,37.21 27.26,50.94 -0.54,5.17 -5.88,0.39 -7.5,-1.85 -11.36,-13.47 -20.79,-29.53 -23.62,-47.13 0.96,-10.15 -4.79,-19.94 -1.18,-30.11 -2.81,-6.74 -10.39,-13.51 -18.03,-9.89 1.24,3.15 2.62,6.26 3.65,9.5 -4.44,-3.28 -6.45,-8.68 -8.47,-13.6 m -352.73,35.69 c -17.65,5.6 -35.62,12.56 -49.25,25.55 -16.74,16.21 -28.88,36.6 -37.86,57.97 -9.59,23.38 -15.15,49.23 -10.88,74.44 1.83,10.41 5.15,21.26 13.01,28.75 5.92,5.49 14.86,5.72 22.12,3.04 23.74,-8.17 41.33,-28.17 65.4,-35.64 7.36,-2.66 15.43,-2.17 22.97,-0.62 28.45,5.1 55.4,15.9 82.79,24.8 0.89,-3.62 1.86,-7.22 2.54,-10.88 -30.52,-8.99 -60.33,-20.73 -91.71,-26.57 -6.08,-0.82 -12.49,-1.18 -18.39,0.86 -17.75,5.45 -30.81,19.71 -47.51,27.32 -7.9,4 -18.46,5.4 -25.85,-0.42 -12.73,-10.15 -16.21,-27.71 -14.98,-43.18 2.19,-28.14 16.96,-53.5 33.65,-75.56 11.18,-14.57 24.85,-27.81 41.92,-35.17 37.26,-16.09 80.8,-16.33 114.54,-40.71 -1.44,-2.38 -3.01,-4.7 -4.73,-6.88 -29.74,18.14 -65.12,22.35 -97.78,32.9 m 23.55,7.49 c -20.73,5.15 -42.27,11.8 -57.99,27.04 -18.92,17.88 -33.81,40.09 -42.77,64.55 33.54,7.17 68.07,-1.92 98.7,-15.69 -10.43,-12.23 -15.82,-28.11 -16.92,-44 0.16,-8.33 -2.12,-16.66 -0.05,-24.91 2.55,2.12 4.35,4.92 6.56,7.36 3.72,1.36 7.82,1.71 11.2,3.97 -0.84,-4.34 -0.67,-8.79 0.13,-13.12 3.54,3.15 6.67,6.74 9.53,10.52 8.31,-0.45 15.29,5.04 20.15,11.23 0.22,-3.91 1.59,-7.61 3.52,-10.98 3.18,4.14 5.2,8.98 7.26,13.73 9.93,-0.51 18.52,5.71 24.83,12.77 8.78,-4.74 17.87,-8.87 26.96,-12.98 -2.42,-19.88 -2.45,-40.54 -10.31,-59.3 -23.65,17.26 -53.02,22.75 -80.8,29.81 m 556.98,70.72 c 1.61,-0.44 3.24,-0.85 4.89,-1.22 3.75,-32.9 12.99,-67.04 36.28,-91.73 -1,-1.12 -2.12,-2.1 -3.11,-3.19 -24.06,26.1 -34.1,61.63 -38.06,96.14 m 43.49,-89.27 c -21.81,23.65 -30.72,55.95 -34.26,87.21 23.49,-4.15 46.87,6.33 65.46,19.87 -3.21,0.69 -6.44,1.29 -9.71,1.52 -2.45,2.66 -5.01,5.24 -7.97,7.34 3.73,1.56 7.17,3.72 10.5,6.02 -4.27,2.1 -9.13,2.35 -13.75,3.05 -3.13,7.15 -11.24,10.13 -18.53,10.61 2.99,2.38 5.64,5.26 7.28,8.76 -5.03,0.33 -10.01,-0.39 -14.97,-0.97 -4.01,8.67 -13.81,12.12 -22.49,13.97 0.17,9.35 -1.15,18.65 -2.02,27.93 17.37,7.74 34.42,17.73 53.55,20.38 -4.33,-42.09 20.13,-79.93 22.43,-121.26 -1.69,-29.74 -14.53,-58.03 -32.38,-81.54 -1.02,-0.93 -1.65,-2.77 -3.14,-2.89 m -441.2,1.5 c -1.13,9.16 -3.1,18.25 -6.21,26.94 6.41,-1.23 12.95,-1.57 19.33,-2.98 -3.75,-8.3 -8.6,-16.06 -13.12,-23.96 m 58.71,20.91 c 3.45,12.53 7.21,25.01 9.3,37.86 15.65,0.32 28.31,10.76 40.56,19.27 5.68,3.58 11.29,8.96 18.55,8.04 -1.28,-4.11 -3.01,-8.08 -3.92,-12.3 4.14,3.9 6.27,9.36 9.36,14.06 -0.69,-6.44 -2.15,-12.74 -3.41,-19.07 1.35,1.64 2.56,3.42 3.78,5.17 -3.6,-15.54 -19.19,-24.94 -33.29,-29.94 0.02,-0.83 0.06,-2.49 0.08,-3.32 14.12,2.08 26.76,12 34.33,23.92 3.65,4.88 1.77,11.59 5.66,16.3 4.39,6.85 10.33,15.04 19.31,15.13 -0.85,-2.39 -1.61,-4.81 -2.09,-7.29 3.43,4.24 6.52,8.82 10.96,12.14 -1.55,-7.76 -5.36,-14.71 -9.7,-21.22 2.51,1.35 4.58,3.35 6.62,5.31 -6.01,-22.02 -23.49,-41.35 -46.06,-46.82 -2.55,-0.01 -2.42,-2.51 -2.18,-4.35 21.74,2.95 39.19,19.73 48.17,39.11 3.62,5.63 4.36,12.21 4.22,18.74 3.41,3.11 10.12,3.28 13.1,-0.81 -2.07,-2.94 -4.56,-5.69 -5.67,-9.18 4.06,3.2 7.74,6.91 12.19,9.61 -1.87,-6.36 -4.98,-12.24 -8.55,-17.78 -2.65,-11.73 -10.03,-22.05 -19.51,-29.3 -14.98,-11.4 -33.48,-16.91 -51.76,-20.3 -16.47,-3.3 -33.33,-3.42 -50.05,-2.98 m -86.12,14.96 c -22.75,6.09 -44.14,16.12 -64.94,26.97 0.81,1.26 1.64,2.53 2.45,3.81 23.52,-11.8 47.68,-22.7 73.19,-29.44 10.94,-3.1 22.35,-3.69 33.52,-5.57 -0.51,-1.23 -1.02,-2.45 -1.5,-3.68 -14.33,2.14 -28.85,3.51 -42.72,7.91 m -128.92,-3.1 c 0.92,7.82 5.09,14.59 9.49,20.9 -1.67,-0.79 -3.24,-1.73 -4.78,-2.71 4.98,13.46 9.79,27.72 20.39,37.93 11.2,10.42 25.95,15.92 40.55,19.6 2.47,0.84 0.8,4.66 -1.56,3.65 -16.62,-3.5 -33.07,-10.88 -44.84,-23.44 -11.51,-12.65 -15.56,-29.79 -21.78,-45.26 -1.99,-3.55 -5.79,-5.73 -9.6,-6.83 1.45,3.98 3.6,7.68 4.69,11.8 -4.4,-3.59 -6.87,-8.83 -10.63,-12.98 -0.2,5.31 0.66,10.55 1.83,15.7 -1.62,8.52 1.96,17.03 5.27,24.8 9.45,19.93 28.53,33.08 48.14,41.83 17.94,8.23 36.99,13.53 55.66,19.76 2.01,-9.91 2.88,-20 3.86,-30.05 -16.93,-9.23 -25.29,-27.2 -36.23,-42.09 -5.56,-7.06 -13.03,-13.85 -22.41,-14.59 0.22,1.16 0.66,3.5 0.87,4.67 -3.63,-3.5 -5.62,-8.25 -8.83,-12.09 -0.62,6.75 1.89,13.14 3.77,19.48 -0.69,-0.43 -2.08,-1.3 -2.78,-1.74 0.92,9.07 5.35,17.76 13.12,22.82 -0.08,0.75 -0.24,2.27 -0.33,3.02 -9.85,-2.05 -15.34,-13.8 -16.42,-23.17 0.62,-11.69 -7.44,-24.21 -19.13,-26.89 1.57,3.12 3.3,6.16 4.59,9.41 -5,-3.79 -8.36,-9.26 -12.91,-13.53 m 69.09,37.47 c 6.37,9.8 12.76,19.74 21.36,27.78 26.19,-21.42 55.56,-43.04 90.64,-45.01 -1.83,-5.86 -3.87,-11.65 -6.17,-17.34 -37.48,2.93 -73.03,16.84 -105.83,34.57 m 25.03,30.42 c 1.17,0.82 2.41,1.53 3.59,2.34 24.08,-20.95 52.27,-41.31 85.46,-42.22 -0.46,-1.22 -0.92,-2.43 -1.37,-3.64 -33.91,1.79 -62.51,22.59 -87.68,43.52 m 53.68,-26.94 c -0.89,14.88 -2.93,29.79 -7.01,44.2 13.14,-1.77 27.13,-5.78 35.84,-16.48 8.3,-10.18 8.97,-24.1 7.24,-36.56 -12.42,0.57 -24.91,3.26 -36.07,8.84 m 353.54,4.56 c -1.9,13.88 -3.44,28.03 -1.36,41.98 1.54,-1.18 3.28,-2.21 4.48,-3.77 -0.74,-13.85 -1.5,-27.87 0.69,-41.64 -1.27,1.15 -2.54,2.29 -3.81,3.43 m -398.89,25.98 c -1.85,1.21 -1.56,3.61 -1.86,5.51 -2.27,29.48 -9.25,58.32 -16.78,86.83 -4.88,19.24 -9.64,38.73 -18.41,56.64 -8.01,16.2 -20.06,29.85 -30.11,44.74 -3.42,5.23 -6.85,10.7 -8.14,16.9 -0.61,2.41 0.4,5.3 2.92,6.09 2.5,-2.04 3.2,-5.73 6,-7.58 -0.93,4.88 -3.04,9.4 -4.49,14.13 6.16,-3.47 9.88,-9.62 13.83,-15.23 -0.23,2.24 -0.68,4.46 -1.26,6.65 15.81,-13.22 26.83,-32.16 31.87,-52.05 0.81,0 2.43,0.01 3.25,0.01 -0.2,11.1 -6.55,20.95 -11.67,30.46 -6.53,11.33 -15.03,22.22 -27.06,28 -4.79,6.01 -11.47,10 -18.68,12.46 -5.28,5.67 -7.55,16.88 -0.09,21.83 2.38,-2.56 4.22,-5.59 6.9,-7.86 -1.16,5.45 -4.65,9.9 -7.76,14.37 7.93,-3.02 14.2,-8.83 20.29,-14.52 -0.92,3.14 -2.93,5.74 -4.91,8.27 17.25,-5.53 28.56,-21.18 35.68,-37.03 14.54,-32.74 18.35,-68.73 27.91,-102.97 14.06,-48.05 42.26,-92.84 43.19,-144.07 -14.75,7.61 -27.86,17.93 -40.62,28.42 m 352.03,16.24 c 7.11,7.06 14.66,13.66 22.11,20.36 6.73,-5.41 12.91,-11.46 19.51,-17.03 -1.89,-13.45 -1.15,-27.11 0.24,-40.57 -14.01,12.34 -28.16,24.54 -41.86,37.24 m 95.95,-27.23 c -27.44,10.38 -48.64,31.52 -70.41,50.39 7.41,6.03 14.75,12.4 22.98,17.26 14.17,-7.4 30.45,-7.86 46.08,-8.04 10.17,-0.66 21.68,-2.9 28.23,-11.49 -1.6,-0.67 -3.14,-1.41 -4.68,-2.15 4.86,-0.48 9.76,-0.23 14.62,-0.72 -4.87,-3.88 -11.18,-4.85 -17.03,-6.37 0.15,-0.52 0.47,-1.56 0.62,-2.08 -6.95,-3 -15.06,-3.45 -22.07,-0.42 -2.12,1.63 -4.91,-2.14 -2.47,-3.29 8.02,-4.12 18.14,-4 26.16,0.08 9.01,5.74 22.96,5.53 30.46,-2.65 -3.13,-0.26 -6.36,-0.19 -9.32,-1.37 5.25,-1.07 10.51,-2.12 15.79,-3.07 -5.97,-4.15 -13.93,-3.04 -20.8,-2.63 1.6,-1.29 3.52,-2 5.53,-2.36 -12.62,-2.72 -25.73,-5.05 -38.62,-2.88 -15.28,3.42 -28.1,13.43 -38.76,24.49 -0.71,-0.04 -2.15,-0.11 -2.86,-0.15 0,-0.7 -0.01,-2.1 -0.01,-2.79 13.6,-14.87 32.42,-26.81 53.17,-26.73 12.15,0.63 24.11,3.1 36.01,5.49 3.94,0.21 7.48,-2.22 10.36,-4.7 -4.08,-0.25 -8.13,-0.76 -12.13,-1.53 4.96,-2.15 10.5,-1.5 15.72,-2.53 -4.51,-2.81 -9.5,-4.7 -14.53,-6.33 -0.04,-0.36 -0.12,-1.07 -0.16,-1.42 -16.09,-7.79 -35.21,-8.32 -51.88,-2.01 m -637.35,21.71 c -6.33,0.09 -12.45,-1.83 -18.75,-1.99 -0.07,1.48 -0.12,2.97 -0.16,4.46 36.66,7.57 74.21,-2.16 107.78,-16.97 -1.36,-1.37 -2.71,-2.73 -4.06,-4.1 -26.62,11.68 -55.43,20.52 -84.81,18.6 m -20.71,6.23 c -3.38,13.84 -4.09,29.12 2.2,42.27 3.01,6.47 8.05,12.92 15.46,14.3 8.82,1.41 16.97,-3.24 24.04,-7.91 13.38,-8.67 25.96,-19.68 41.84,-23.43 11.11,-2.04 22.18,1.01 33.03,3.07 14.82,-4.73 28.43,-12.89 41.14,-21.81 -16.09,-5.93 -31.85,-13.5 -45.03,-24.63 -34.51,16.86 -74.49,26.13 -112.68,18.14 m 471.16,89.88 c -3.36,14.55 -8.61,28.92 -8.46,44.04 1.75,-1.76 3.56,-3.48 5.65,-4.86 -1.74,4.8 -5.1,8.68 -8.07,12.73 5.88,-1.87 10.16,-6.54 15.6,-9.22 -1.99,4.06 -5.46,7 -8.44,10.29 4.52,-0.14 8.12,-3.19 11.29,-6.09 6.92,-7.46 13.09,-16.56 14.01,-26.96 0.79,0 2.35,-0.01 3.14,-0.02 1.5,5.13 -0.93,10.37 -3.21,14.89 -4.05,6.98 -8.57,14.05 -15.28,18.77 -2.29,1.69 -5.59,2.18 -7,4.88 -5.74,9.22 -13.04,19.26 -10.46,30.78 1.84,-2.22 3.25,-4.82 5.54,-6.65 -1.29,6.2 -4.29,11.84 -6.84,17.58 6.9,-2.86 10.86,-9.43 15.49,-14.87 -0.5,2.74 -1.48,5.35 -2.44,7.96 11.38,-7.3 16.64,-20.71 21.22,-32.78 1.13,1.07 3.24,2.08 2.46,4 -1.65,8.14 -5.99,15.52 -10.89,22.13 -3.78,4.85 -7.87,10.21 -14.05,11.98 -4.53,0.92 -7.33,4.98 -11.49,6.75 -1.72,2.62 2.04,4.78 4.36,5.37 1.19,-1.94 2.41,-3.87 3.86,-5.63 -1,6.6 -4.06,12.64 -5.59,19.11 8.51,-5.26 13.6,-14.13 19.21,-22.07 -0.29,1.57 -0.64,3.15 -0.99,4.72 9.2,-5.93 14.41,-16.19 17.25,-26.46 8.19,-28.51 6.15,-58.47 9.15,-87.67 2.42,-22.8 14.15,-43.5 28.64,-60.82 4.44,-4.01 -2.92,-8.14 -5.01,-11.55 -9.72,10.43 -17.6,22.43 -24.14,35.06 -3.34,0.86 -3.46,-3.41 -3.77,-5.63 0.02,-15.53 10.03,-28.33 19.03,-40.06 -1.15,-1.37 -2.24,-2.77 -3.38,-4.12 -18.36,29.83 -38.93,59.61 -46.39,94.42 m 52.8,-87.19 c -7.41,9.36 -15.19,19.37 -17.34,31.41 6.25,-9.52 12.71,-18.93 20.49,-27.31 -1.06,-1.37 -2.11,-2.73 -3.15,-4.1 m -363.37,6.91 c -11.5,8.29 -23.93,15.26 -37.02,20.71 2.44,0.46 5.05,1.88 7.48,0.64 13.5,-5.06 26.14,-12.17 37.94,-20.41 -2.67,-0.8 -5.87,-3.28 -8.4,-0.94 m 13.44,2.59 c -11.81,8.31 -24.29,15.79 -37.72,21.17 18.75,6.64 37.92,12.45 56.96,18.36 2.11,-10.48 5.1,-20.83 6.36,-31.46 -8.6,-2.47 -17.04,-5.48 -25.6,-8.07 m 215.57,5.72 c -33.47,6.42 -61.55,26.95 -92.27,40.4 -23.05,9.92 -48.85,8.65 -73.17,5.44 -1.31,3.74 -2.88,7.39 -4.32,11.08 15.09,3.12 30.63,4.36 45.99,2.88 1.32,4.25 -3.37,6.25 -6.37,7.87 -13.85,6.75 -29.79,4.16 -44.52,2.74 -0.59,1.86 -1.13,3.73 -1.66,5.61 32.7,0.7 65.86,2.41 98.03,-4.79 10.02,-2.1 19.57,-5.86 29.45,-8.47 9.95,-2.89 20.22,-5.66 28.97,-11.39 -2.86,-0.66 -5.77,-1.21 -8.45,-2.43 5.66,-0.52 11.35,-0.09 16.94,0.88 -4.69,-4.69 -11.61,-5.7 -16.8,-9.47 4.69,0.01 9.2,1.3 13.71,2.44 -1.9,-3.66 -5.87,-5.47 -9.61,-6.65 -11.36,-3.48 -23.89,-3.46 -34.97,0.98 -1.67,-4.95 4.29,-5.91 7.72,-6.83 9.83,-1.05 20.12,-1.04 29.61,2.1 4.18,1.06 7.18,5.36 11.79,4.69 10.94,0.22 24.31,1.56 32.41,-7.44 -3.01,-0.23 -6.28,0.37 -8.98,-1.28 6.55,-1.7 13.32,-2.36 20.06,-2.77 -6.4,-4.89 -14.77,-5.54 -22.51,-6.05 3.08,-1.8 6.69,-1.75 10.14,-1.99 -12.65,-5.92 -27.74,-5.63 -40.96,-1.75 -1.68,-0.49 -1.06,-2.51 -1.24,-3.76 13.85,-5 29.92,-4.25 43.4,1.46 4.42,4.6 10.6,5.98 15.76,9.46 2.25,-1.76 4.3,-4.82 1.9,-7.39 -2.52,-0.2 -5.05,-0.04 -7.56,-0.1 6.57,-3 13.97,-3.46 20.92,-5.24 -8.97,-5.58 -20.25,-5.41 -30.49,-5.47 1.47,-0.79 2.94,-1.57 4.4,-2.38 -8.55,-3.86 -18.22,-4.42 -27.32,-2.38 m 269.03,17.9 c -1.95,26.62 -4.53,53.5 -12.67,79.08 -2.55,8.45 -7.27,16.13 -9.4,24.7 4.72,0.95 4.69,-4.69 6.35,-7.64 13.71,-30.3 18.81,-63.79 19.73,-96.8 -1.34,0.22 -2.69,0.43 -4.01,0.66 m -37.61,4.13 c 5.54,31.29 9.03,65.67 -6.19,94.91 5.66,1.65 11.47,2.75 17.29,3.7 2.52,-7.36 6.1,-14.3 8.71,-21.63 9.13,-26.08 12.13,-53.78 13.58,-81.21 -11.19,0.81 -22.64,0.62 -33.39,4.23 m -7.3,3.03 c 5.41,29.55 8.94,62.07 -5.95,89.57 0.93,0.4 1.86,0.79 2.81,1.2 15.49,-28.18 11.56,-61.67 6.73,-92.12 -1.2,0.45 -2.41,0.9 -3.59,1.35 m -78.01,60.75 c 1.41,20.15 14.04,38.4 31.05,48.82 38.85,23.67 87.83,21.96 126.04,46.93 15.23,10.07 25.6,26.81 28.18,44.85 4.24,-2.82 8.7,-5.3 13.41,-7.25 -8.82,-21.61 -12.93,-44.73 -14.99,-67.88 -16.02,-5.21 -30,-14.96 -43.87,-24.22 -19.35,-0.27 -38.96,-0.37 -57.87,-5.15 -16.9,-3.69 -35.12,-11.52 -43.31,-27.79 -6.98,-14.09 -2.85,-30.49 3.19,-44.12 -6.03,-6.19 -11.62,-12.8 -17.15,-19.44 -13.5,15.18 -25.72,34.13 -24.68,55.25 m 128.29,-36.2 c -1.96,17.34 -5.4,34.64 -11.22,51.13 14.14,16.61 32.73,28.61 51.44,39.43 16.55,9.7 36.08,11.11 53.83,17.61 -8.01,-8.17 -17.12,-15.87 -21.66,-26.67 -6.1,-13.03 -1.42,-29.19 8.85,-38.72 11.04,-10.24 30.94,-9.77 40.29,2.54 5.62,7.07 3.66,18.05 -3.14,23.6 -3.57,1.44 -6.14,-2.73 -9.6,-2.75 -5.06,-0.93 -8.56,4.11 -9.34,8.5 -2.01,10.49 7.73,20.96 18.31,20.1 10.86,-1.03 20.25,-8.55 26.03,-17.47 8.89,-15.12 4.34,-34.15 -3.66,-48.63 -5.6,-9.96 -15.63,-18.48 -27.51,-18.7 -18.6,-0.34 -35.26,11.03 -53.93,10.25 -21.14,-1.22 -39.35,-13.08 -58.69,-20.22 m -87.08,40.01 c 4.46,11.63 15.45,19.29 26.72,23.54 5.75,-10.14 8.91,-21.55 10.16,-33.1 -12.39,-7.06 -22.79,-16.89 -33.15,-26.53 -4.81,11.2 -8.15,24.22 -3.73,36.09 m -358.71,-28.69 c -0.55,1.84 -1.08,3.7 -1.61,5.56 13.24,1.3 27.34,3.44 39.98,-2.03 -12.89,0.55 -25.74,-1.16 -38.37,-3.53 m 432.79,44.48 c -2.17,5.55 -5.01,10.86 -6.46,16.66 8.4,0.92 16.86,0.76 25.3,0.65 -6.79,-5.21 -12.87,-11.21 -18.84,-17.31 m -429.57,34.05 c -0.38,-0.1 -1.15,-0.3 -1.53,-0.4 -15.91,17.64 -18.98,42.89 -15.79,65.6 3.85,26.73 13.27,52.57 27,75.8 9.03,-8.47 18.04,-17 27.68,-24.78 -9.33,-21.45 3.76,-43.95 1.74,-65.95 -0.55,-1.13 -0.57,-4.19 -2.38,-3.47 -3.24,3.09 -5.34,7.3 -9.25,9.7 2.02,-5.62 5.86,-10.3 8.32,-15.7 -6.02,3.24 -10.2,8.83 -15.61,12.85 1.01,-2.43 2.35,-4.7 3.58,-7.02 -5.45,3.62 -8.16,9.87 -10.06,15.89 -2.95,9.91 -4.52,20.48 -2.44,30.73 0.39,2.14 -2.25,2.28 -3.72,2.08 -2.7,-15.01 -0.76,-31.51 6.84,-44.88 2.63,-5.68 9.67,-7.18 11.96,-13.02 4.91,-8.86 10.55,-19.82 5.7,-29.88 -1.88,2.8 -3.94,5.57 -6.84,7.39 3.75,-6.17 6.58,-12.87 7.72,-20.03 -6.73,6.46 -11.68,14.43 -16.03,22.55 0.18,-3.24 1.06,-6.35 1.91,-9.44 -13.47,14.27 -22.14,33.58 -23.42,53.25 -0.59,7.44 1.97,14.69 1.82,22.09 -1.18,0.03 -2.32,-0.12 -3.42,-0.45 -5.72,-20.69 -1.25,-43.14 9.84,-61.28 4.49,-7.5 8.96,-15.96 17.25,-19.84 2,-0.76 3.61,-2.76 2.86,-4.97 -0.82,-4.44 -2.26,-11.37 -8.16,-10.76 -1.5,3.91 -2.53,8.23 -5.55,11.31 1.03,-6.42 3.11,-12.69 3.31,-19.23 -5.52,6.51 -10.72,13.64 -13.33,21.86 m 69.36,-21.79 c 0.49,10.23 4.84,19.55 9.49,28.46 -1.24,-0.88 -2.45,-1.76 -3.66,-2.65 -0.14,11.06 6.53,20.81 14.01,28.38 15.52,16.4 35.3,27.72 54.19,39.7 12.22,7.8 24.88,15.56 34.17,26.92 10.67,12.93 18.22,28.27 23.2,44.22 4.04,-0.68 8.11,-1.18 12.12,-2.02 -3.86,-13.25 -9.59,-25.92 -17.09,-37.51 -2.05,-2.88 2.58,-3.81 4.38,-2.33 15,6.65 21.02,23.29 26.72,37.44 1.84,-0.29 3.68,-0.58 5.53,-0.85 -16.08,-31.62 -31.75,-64.92 -58.67,-88.97 -10.6,-10.05 -20.37,-21.47 -33.47,-28.39 0.56,2.23 1.03,4.48 1.31,6.78 -3.76,-3.86 -4.89,-9.37 -7.02,-14.17 -0.61,6.45 -0.31,12.93 0.03,19.38 -2.98,-3.55 -3.17,-8.38 -4.43,-12.65 -3.58,5.14 -1.7,11.97 0.02,17.48 3.02,7.63 6.69,15.65 13.7,20.41 2.2,1.69 -1.02,4.98 -2.96,2.86 -8.49,-5.4 -12.32,-15.55 -15.51,-24.65 -2.65,-6.03 0.72,-13.13 -3.09,-18.74 -4.77,-8.94 -10.08,-19.67 -20.93,-22.07 1.43,2.75 2.84,5.5 3.92,8.41 -5.56,-3.89 -8.39,-10.31 -12.62,-15.42 -1.41,7.58 2.41,14.57 4.86,21.48 -2.54,-2.11 -4.41,-4.82 -6.32,-7.45 0.91,13 7.43,25.65 17.09,34.36 -0.04,0.7 -0.1,2.11 -0.13,2.81 -1.4,-0.12 -3.05,0.29 -4.09,-0.9 -7.05,-6.2 -11.29,-14.86 -14.54,-23.51 -1.64,-4.82 -3.26,-10.08 -1.87,-15.15 1.94,-4.63 -0.13,-9.62 0.68,-14.44 -2.51,-0.76 -5.86,-0.57 -7.21,1.98 0.62,2.44 2.22,4.53 3.19,6.86 -5.54,-4.83 -9.82,-10.87 -15,-16.06 m -317.84,45.33 c -7.55,11.86 -12.47,27.48 -6.5,41.02 6.69,-5.33 16.51,-7.74 24.25,-3.23 8.27,5.4 13.82,14.19 16.67,23.54 7.92,25.35 4.76,52.72 12.92,78.02 2.15,6.99 5.69,13.7 11.08,18.74 8.5,8.18 20.68,8.69 31.7,9.61 -0.46,1.33 -0.43,3.44 -2.4,3.32 -11.65,0.73 -24.21,-2.06 -32.81,-10.41 -8.01,-7.98 -12.17,-18.95 -14.42,-29.84 -5.04,-24.64 -2.83,-50.72 -12.31,-74.41 -2.79,11.91 -15.65,19.97 -27.54,16.63 2.74,7.6 3.65,16.37 9.4,22.5 4.28,4.53 10.87,4.65 16.66,4.46 2.33,-0.08 1.98,2.61 1.16,3.97 -7.7,0.82 -16.48,-0.35 -21.8,-6.55 -7.83,-9.41 -6.5,-23.21 -14.34,-32.63 -4.06,-4.4 -10.19,-5.97 -15.92,-6.75 -5.36,-0.65 -10.08,3.76 -10.82,8.92 -1.54,11.51 1.39,23.02 4.71,33.96 7,21.99 16.76,43.13 29.66,62.29 21.92,34.06 23.1,75.73 33.88,113.72 12.94,-17.79 25.21,-36.3 34.08,-56.5 3.32,-9.04 7.18,-18.69 5.09,-28.48 -1.97,-6.98 -9.75,-11.08 -16.7,-9.97 -9.52,1.57 -17.49,7.94 -23.32,15.35 -2.26,3.17 -4.69,7.21 -3.26,11.22 2.64,4.58 8.61,6.07 13.53,5.11 5.14,-1.73 8.8,-8.53 5.78,-13.43 -1.71,-2.5 -6.57,-1.65 -6.76,-5.18 2.21,-2.84 6.38,-0.53 8.7,1.13 5.36,4.53 3.82,13.1 -0.64,17.71 -6.1,6.73 -17.96,5.08 -23.26,-1.82 -3.51,-5.14 -1.55,-11.99 1.87,-16.64 5.68,-7.88 13.93,-14.04 23.24,-16.9 9.75,-2.91 22.42,2 24.9,12.55 2.55,13.19 -3.02,26.07 -8.52,37.76 13.11,0.55 26.89,-4.02 35.56,-14.21 10,-11.73 13.29,-27.74 13.21,-42.8 -1.19,-21.24 -7.93,-42.85 -21.93,-59.18 0.2,9.49 1.03,19.68 -4.04,28.2 -2.5,5.48 -8.99,8.35 -14.77,6.72 -7.82,-2.28 -13.51,-9.1 -16.83,-16.27 -5.58,-13.02 -5,-27.64 -3.48,-41.43 2.34,-24.61 9.73,-49.19 6.18,-74.03 -1.54,-11.91 -11.41,-21.16 -23.16,-22.84 4.13,7.31 6.4,16.93 1.69,24.52 -5.66,9.25 -18.09,11.98 -28.13,9.96 -7.85,-1.74 -10.19,-11.87 -5.98,-18.05 3.73,-6.52 12.51,-8.22 18.85,-4.57 0.8,4.56 -3.74,3.29 -6.42,2.27 -8.41,-2.05 -14.83,12.25 -6.29,16.05 8.61,2.26 19.77,0 24.72,-8 4.89,-9.82 -1.23,-22.24 -10.07,-27.54 -10.66,-4.03 -21.5,3.68 -27.07,12.41 m 616.22,-13.08 c -8.83,13.95 -26.17,17.43 -40.6,22.78 -5.13,1.93 -10.9,3.7 -14.04,8.56 4.27,0.88 8.73,1.37 12.68,3.36 -5.42,0.39 -10.86,0.01 -16.28,0.25 4.83,3.41 10.97,4.1 15.86,7.22 -2.56,0.01 -5.11,-0.17 -7.65,-0.26 2.94,2.58 6.72,4.01 10.63,4.22 11.66,0.77 23.82,-2.73 32.59,-10.63 2.58,-2.23 4.99,2.61 1.89,3.91 -13.15,10.52 -34.26,16.17 -48.76,5.23 -9.74,-0.39 -21.81,-0.22 -27.87,8.81 2.6,0.38 5.27,0.81 7.53,2.28 -5.99,-0.17 -11.89,0.66 -17.53,2.7 7.37,2.64 15.3,4 23.13,3.09 -2.39,1.89 -5.42,2.35 -8.3,2.9 22.37,7.42 48.97,1.9 65.74,-15.05 1.48,-2.97 6.28,0.27 3.46,2.43 -10.64,10.64 -24.87,18.19 -40.02,19.32 -12.43,0.73 -26.8,1.72 -36.93,-6.87 -3.98,2.5 -9.5,7.88 -7.16,12.82 3.53,0.11 7.06,-0.52 10.6,-0.08 -5.46,2.36 -11.34,3.65 -16.65,6.4 7.55,1.31 15.34,3.63 22.97,1.5 -0.08,0.44 -0.25,1.32 -0.34,1.76 18.68,5.83 38.77,-0.18 54.36,-11.03 23.75,-16.42 42.77,-39.28 55.93,-64.9 -11.78,-3.46 -23.75,-6.35 -35.24,-10.72 m 134.63,2.79 c 1.78,21.54 5.8,43.07 13.87,63.2 0.38,1.95 2.46,0.7 3.64,0.43 15.02,-5.53 31.67,-6.98 47.22,-2.86 3.79,-6.77 2.94,-15.29 -0.45,-22.03 -5.22,-10.75 -13.54,-20.05 -23.84,-26.14 -12.5,-6.9 -26.86,-8.83 -40.44,-12.6 m -663.86,19.15 c 0.22,24.01 6.71,47.5 6.21,71.54 7.23,5.84 15.13,11.09 21.33,18.17 3.67,-19.01 4.9,-38.55 2.93,-57.83 -1.17,-9.04 -2.67,-18.71 -8.54,-26.02 -4.91,-6.76 -14.34,-8.6 -21.93,-5.86 m -82.87,31.37 c -8.81,1.43 -18.87,14.1 -9.94,21.12 2.83,2.2 3.35,7.02 7.39,7.54 9.53,2.74 21.17,-3.77 22.09,-14.05 0.47,-9.82 -10.29,-17.48 -19.54,-14.61 m 717.87,52.61 c -18.17,24.28 -24.67,56.38 -19.38,86.04 3.98,-1.9 7.96,-3.79 12.06,-5.42 0.38,-10.22 -0.64,-20.52 0.99,-30.66 2.15,-17.67 11.93,-33.44 23.79,-46.31 15.64,-16.71 37.93,-29.19 61.38,-27.63 15.72,1.14 29.48,10.69 38.85,22.93 6.03,-0.71 12.1,-1 18.17,-1.04 -10.51,-20.65 -31.06,-36.76 -54.67,-38.18 -31.75,-2.32 -62.45,15.36 -81.19,40.27 m -556.69,-29.34 c -7.33,5.77 -16.44,8.23 -25.53,9.48 -0.27,3.78 -0.92,8.78 2.97,11.01 1.18,-1.48 2.18,-3.13 3.63,-4.38 -0.78,5.06 -3.06,9.68 -5.01,14.36 8.34,-3.68 15.86,-9.08 21.83,-15.98 -0.51,1.63 -1.09,3.25 -1.62,4.88 9.86,-6.44 16.9,-16.42 22.82,-26.42 -5.89,3.58 -12.54,5.3 -19.09,7.05 m -24.33,6.52 c 4.55,-2.68 8.74,-5.93 12.6,-9.54 -0.99,-0.91 -1.96,-1.83 -2.92,-2.74 -4.32,3.08 -7.5,7.48 -9.68,12.28 m 173.76,8.73 c -42.05,21.43 -68.1,64.21 -109.65,86.37 -18.73,10.59 -42.06,12.99 -62.29,5.35 0.24,5.4 -0.56,10.76 -1.14,16.11 24.36,2.82 48.02,10.32 70.2,20.66 14.16,-11.94 31.18,-19.61 47.67,-27.64 13.24,-20.86 27.53,-41.61 46.66,-57.56 12.19,-9.7 27.48,-18.15 43.59,-15.52 14.54,2.16 25.51,13.14 33.95,24.39 8.98,-2.15 18.02,-4.07 27.16,-5.38 -6.03,-18.51 -15.34,-37.85 -32.79,-48.02 -19.52,-10.71 -44.01,-9.02 -63.36,1.24 m -252.54,-8.13 c -0.42,4.7 -1.35,9.35 -1.67,14.06 10.17,4.88 20.01,10.5 29.03,17.29 13.08,10.16 21.27,25.33 26.22,40.88 5.64,17.73 7.12,37.24 1.37,55.14 -3.45,11.18 -10.14,21.79 -20.26,28.03 -9.12,5.77 -20.18,7.38 -30.8,6.8 -4.05,7.86 -8.57,15.47 -13.22,22.99 14.33,-0.53 28.96,-2.44 41.91,-8.98 16.17,-7.64 28.84,-21.65 36.02,-37.92 15.02,-33.94 8.2,-76.08 -16.3,-103.88 -13.91,-15.81 -32.21,-28.07 -52.3,-34.41 m 721.95,3.65 c -28.21,7.08 -51.46,29.93 -61.6,56.85 8.13,-5.84 17.39,-12.24 27.92,-11 8.22,1.03 10.84,10.98 8.66,17.85 -3.99,17.01 -19.85,27.28 -34.38,34.81 -21.72,11.68 -46.18,18.67 -65.51,34.48 -9.29,7.08 -13.13,19.64 -9.18,30.7 4.36,-7.36 11.45,-14.81 20.74,-14.16 9.96,1.39 17.76,11.22 18.33,21 0.7,7.7 -8.7,12.78 -15.29,10.12 -6.11,-2.03 -9.28,-9.15 -8.21,-15.25 5.55,-0.7 3.16,6.47 6.06,9.24 4.1,5.21 14.16,1.85 13.24,-5.15 -1.1,-8.17 -8.66,-16.06 -17.2,-15.87 -16.01,3.98 -21.71,26.96 -10.93,38.86 5.4,5.26 13.69,5.16 20.53,3.38 12.56,-3.55 24.19,-10.87 32.13,-21.32 -5.76,-2.36 -11.26,-6.7 -12.64,-13.06 -1.82,-9.89 2.59,-19.73 8.63,-27.34 13.69,-17.54 33.48,-28.56 49.77,-43.34 8.31,-7.44 16.54,-15.98 19.71,-26.97 2.71,-9.74 0.1,-20.13 -4.95,-28.64 -1.57,-1.59 0.49,-4.65 2.48,-3.44 9.68,12.77 10.54,31.41 1.26,44.67 -17.2,25.69 -48.07,37.72 -66.42,62.37 10.08,-3.62 22.19,2.46 25,12.86 5.36,-6.15 12.47,-11.66 14.24,-20.06 1.27,-5.57 -2.3,-10.36 -4.49,-15.11 0.63,-1.42 2.52,-2.59 3.65,-0.95 5.04,5.64 6.87,14.42 3.39,21.32 -4.22,9.84 -14.02,15.76 -18.68,25.32 -3.08,5.93 -1.36,13.2 2.1,18.57 2.25,3.53 7.17,3.65 10.67,2.12 9.09,-3.88 16.01,-11.24 22.72,-18.26 12.8,-14.15 23.99,-29.72 33.61,-46.19 4.84,-8.01 8.06,-16.91 13.5,-24.57 18.45,-28.16 46.66,-47.63 68.74,-72.56 -23.71,-0.95 -48.11,-1.75 -71.08,5.17 -6.5,2.22 -13.85,5.43 -16.56,12.26 -2.7,6.6 0.9,14.13 6.49,17.97 7.11,4.96 16.3,7.36 24.85,5.53 8.1,-2.9 5.49,-16.88 -2.68,-17.67 -4.77,-0.58 -10.69,3.66 -8.62,8.91 1.1,2.53 -1.18,3.65 -3.43,3.23 -3.72,-7.24 2.02,-16.08 9.97,-16.21 12.23,-1.79 19.41,17.14 9.1,23.96 -10.41,6.05 -23.68,1.34 -32.79,-5.13 -8.97,-6.48 -11,-21.26 -2.32,-28.83 10.85,-9.42 25.96,-11.15 39.71,-12.62 -11.26,-15.32 -31.81,-22.82 -50.24,-17.85 m -331.71,10.84 c 4.93,9.58 9.41,19.42 12.44,29.78 0.36,3.15 3.96,1.47 6.04,1.68 -3.64,-11.55 -8.77,-23.71 -18.48,-31.46 m -392.55,3.63 c -1.34,12.62 -2.38,25.8 1.97,37.98 2.57,7.24 7.71,14.15 15.04,16.98 4.91,1.79 9.69,-2.06 11.17,-6.6 3.45,-9.49 3.59,-20.15 1.08,-29.87 -8.71,-7.62 -19.24,-12.8 -29.26,-18.49 m 432.75,27 c -50.26,12.66 -104.79,10.57 -151.66,35.05 13.96,9.23 29.91,14.86 45.59,20.45 27.19,-13.07 56.26,-21.59 85.32,-29.37 26.87,-7.58 54.62,-15.66 82.84,-12.44 14,0.99 27.98,3.73 42.05,2.74 4.14,-0.35 10.39,-1.6 10.07,-6.98 -3.24,-0.1 -6.48,-0.24 -9.69,-0.59 4.62,-2.22 9.88,-2.39 14.87,-3.25 -6.03,-3.23 -12.89,-3.68 -19.57,-4.06 1.75,-1.09 3.73,-1.63 5.75,-2.02 -18.71,-7.58 -40.2,-6.09 -59.46,-1.31 -0.01,-1.33 -0.01,-2.65 0.02,-3.96 9.32,-3.16 19.23,-3.71 28.99,-3.99 12.76,0.06 26.34,1.11 37.25,8.44 7.68,1.62 14.78,5.18 20.79,10.26 6.89,0.15 16.81,-2.52 17.31,-10.83 -3.25,-0.7 -6.56,-1.01 -9.84,-1.45 5.19,-2.25 11,-1.39 16.44,-0.74 -6.56,-4.52 -13.88,-8.25 -21.89,-9.19 l 0.04,-0.71 c 2.97,-0.01 5.94,-0.02 8.91,-0.08 -10.6,-9.47 -25.33,-12.02 -39.09,-11.75 -36.35,2.12 -70.25,16.46 -105.04,25.78 m 137.05,-23.9 c 5.77,2.98 10.52,7.38 15.05,11.95 7.88,3.45 14.15,9.45 19.33,16.2 3.53,-1.26 7.22,-3.35 8.04,-7.34 -1.98,-0.1 -3.95,-0.09 -5.9,-0.23 3.95,-3.26 9.66,-2.46 14.45,-3.44 -6.72,-5.33 -14.79,-8.47 -23.08,-10.32 1.68,-0.35 3.37,-0.67 5.07,-0.97 -10.08,-5.05 -21.87,-5.76 -32.96,-5.85 m -317.14,30.78 c 6.2,10.02 14.33,18.91 24.2,25.4 13.3,-7.03 27.51,-12.26 42.1,-15.87 -6.02,-9.32 -15,-17.33 -25.74,-20.68 -14.37,-4.18 -29.29,2.42 -40.56,11.15 m 335.11,-7.55 c -0.42,1.18 -0.84,2.37 -1.23,3.58 4.7,2.05 9.85,2.45 14.92,2.04 -4.26,-2.55 -9.02,-4.04 -13.69,-5.62 m 198.34,21.89 c -9.29,40.45 -30.11,77.62 -57.19,108.83 -24.16,27.62 -52.62,51.89 -85.33,68.8 -19.32,9.87 -40.61,18.61 -62.71,16.97 -1.21,-5.62 3.4,-11.04 3.83,-16.78 4.14,-20.21 -5.7,-40.26 -18.13,-55.63 -27.29,-34.1 -66.82,-54.57 -99.73,-82.39 -12.09,-10.71 -22.11,-23.5 -30.99,-36.94 -2.74,0.86 -5.5,1.6 -8.28,2.3 25,39.47 63.85,67.12 101.86,93 22.29,15.02 41.81,36.89 47.15,63.92 4.07,19.36 -3.9,40.78 -19.84,52.57 -21.1,14.72 -42.67,28.97 -65.89,40.16 -39.66,20.14 -83.52,32.07 -127.99,34.05 -56.19,3.18 -112.59,-5.24 -166.67,-20.3 -41.59,-11.32 -80.08,-34.08 -109.5,-65.63 -23.65,-25.12 -41.57,-55.31 -53.96,-87.42 -3.63,1.27 -7.26,2.57 -10.97,3.6 12.55,32.21 30.56,62.42 53.84,88.02 31.46,35.01 73.47,60.03 118.97,71.87 77.23,21.03 160.6,30.51 238.6,8.07 43.97,-14.13 85.56,-35.33 123.68,-61.32 3.63,-2.27 6.85,-5.54 11.14,-6.52 49.46,-3.44 95.42,-26.92 133.37,-57.83 36.34,-29.89 66.88,-67.31 86.85,-110.03 9.93,-22.08 15.45,-46.05 17.76,-70.09 -6.72,6.09 -13.94,11.94 -19.87,18.72 m -193.29,14.68 c -7.37,5.94 -14.92,12.86 -17.62,22.26 -1.84,6.44 0.95,13.21 5.73,17.63 20.01,-12.54 35.98,-30.56 56.47,-42.39 0.43,-8.74 2.34,-17.31 4.6,-25.74 -17.65,6.93 -34.32,16.45 -49.18,28.24 m 67.69,-12.4 c -2.02,10.54 -1.69,21.33 -1.58,32.01 10.99,-5.87 22.46,-11.95 30.3,-21.95 4.23,-5.52 7.29,-12.52 6.53,-19.59 -0.71,-4.35 -5.75,-6.81 -9.77,-5.52 -9.69,2.36 -18.58,7.95 -25.48,15.05 m -412.61,-9.45 c 17.75,26.56 48.74,39.7 77.97,49.37 -0.05,-1.32 -0.1,-2.63 -0.15,-3.93 -28.93,-9.74 -60.24,-22.53 -76.39,-50.17 -1.6,1.21 -3.5,2.9 -1.43,4.73 m -17.94,14.41 c 7.69,8.85 13.77,19.07 22.45,27.06 16.9,17.22 36.61,31.36 57.24,43.76 5.82,-10.09 12.15,-20.19 15.01,-31.6 -30.53,-10.74 -63.43,-24.25 -81.31,-52.91 -5.01,3.96 -9.32,8.77 -13.39,13.69 m 182.25,1.91 c 4.77,28.52 7.6,57.65 17.3,85.07 1.93,6.03 6.41,10.79 11.34,14.57 14.5,10.69 31.55,17.02 47.08,25.94 8.89,5.44 18.74,12.85 19.72,24.1 0.18,9.1 -4.98,17.41 -10.79,24.04 -12.53,14.06 -29.34,23.67 -46.85,30.15 -23,8.5 -47.64,12.46 -72.14,11.83 -19.32,-0.65 -39.33,-3.54 -56.11,-13.78 -22.75,-14.36 -40.5,-34.91 -59.82,-53.31 -11.79,-11.81 -24.16,-23.48 -39.17,-31.1 -7.15,18.45 -8.97,41.33 -26.45,53.67 -19.34,12.14 -45.38,8.67 -64.33,-2.61 -14.94,-9.17 -20.58,-29.44 -15.03,-45.62 4.12,-12.25 18.8,-19.49 31.06,-15.59 6.33,2.27 12.63,8.1 11.94,15.36 0.22,5.76 -4.83,9.71 -9.45,12.13 1.43,5.83 6.83,10.7 13.07,10.11 9.94,-0.72 18.62,-8.3 22.14,-17.41 4.95,-14.62 -4.74,-32.36 -19.81,-35.93 -10.76,-2.72 -21.97,-0.34 -32.36,2.8 -18.52,5.54 -36.96,13.42 -56.68,12.61 -9.5,0.16 -20.14,-3.03 -25.25,-11.65 -4.93,3.42 -10.04,6.57 -15.36,9.36 1.83,3.5 3.2,7.21 4.79,10.83 22.01,51.14 60.35,96.07 110.14,121.8 28.85,15.25 60.97,22.56 92.69,29.14 45.35,8.74 91.99,12.68 138.02,7.55 64.03,-6.41 123.43,-35.83 174.52,-73.77 14.81,-12.67 20.62,-34.29 14.55,-52.75 -7.28,-24.93 -26.6,-44.14 -47.75,-58.12 -36.94,-24.26 -73.64,-51.52 -98.01,-89.09 -2.31,-5.64 -8.74,-0.56 -13,-0.33 m -187.57,4.48 c 8,9.49 14.68,20.12 23.77,28.66 16.86,17.22 36.53,31.41 57.16,43.75 0.68,-1.37 1.37,-2.72 2.07,-4.07 -22.63,-14.38 -44.61,-30.2 -63.14,-49.7 -6.12,-6.93 -11.37,-14.56 -17.09,-21.81 -0.93,1.05 -1.87,2.09 -2.77,3.17 m 172.75,-0.43 c 5.32,26.8 8.4,54.09 15.83,80.44 2.53,8.51 5.11,17.74 12.13,23.74 13.53,12.1 32.19,15.65 46.71,26.19 7.3,4.98 11.57,14.56 8.68,23.2 -4.31,14.15 -16.47,24.43 -29.4,30.68 -24.19,11.32 -51.63,13.18 -77.9,10.92 -18.67,-1.8 -37.95,-5.46 -53.66,-16.32 -32.54,-22.66 -53.24,-60.49 -90.83,-76.16 -2.26,1.25 -3.47,4.37 -4.25,6.84 26.41,14.58 45.69,38.48 67.44,58.83 13.6,13.08 27.99,26.5 46.17,32.77 14.24,5.07 29.51,6.82 44.56,6.5 36.51,-0.85 75.1,-9.11 103.51,-33.42 7.56,-6.79 15.43,-14.84 16.84,-25.36 0.79,-7.6 -4.36,-14.16 -10.11,-18.46 -16.63,-12.73 -37.57,-18.14 -54.17,-30.91 -9.02,-6.41 -14.25,-16.64 -16.9,-27.15 -6.53,-24.5 -9.74,-49.7 -13.67,-74.7 -3.8,0.02 -7.35,1.45 -10.98,2.37 m -34.63,10.85 c 1.35,8.49 3.07,16.92 4.34,25.43 12.89,5.28 24.95,12.42 36.11,20.74 -3.06,-18.53 -6.38,-37.01 -9.72,-55.49 -10.48,2.16 -20.58,5.96 -30.73,9.32 m -156.12,15.81 c 8.64,-3.38 17.52,-6.14 26.59,-8.09 -3.44,-5.06 -7.34,-9.77 -11,-14.66 -5.91,7.05 -10.8,14.91 -15.59,22.75 m 123.49,-2.73 c -0.36,16.15 -9.29,30.23 -17.19,43.73 -5.34,9.66 -11.16,21.48 -6.45,32.49 1.32,-0.97 2.61,-1.98 3.96,-2.89 -1.69,4.73 -4.66,8.83 -6.78,13.35 6.24,-3.1 11.22,-8.12 15.86,-13.22 0.03,0.7 0.08,2.1 0.11,2.79 6.83,-4.35 12.07,-11.36 13.32,-19.46 -0.06,-2.43 2.39,-2.44 4.17,-2.43 -0.06,10.88 -7.12,21.03 -16.56,26.11 -9.39,5.03 -15.52,16.86 -12.45,27.34 1.89,-2.72 3.6,-5.61 6.04,-7.89 -1.38,5.68 -4.3,10.84 -5.84,16.48 6.44,-4 9.91,-10.83 13.84,-16.98 -0.05,1.14 -0.17,3.43 -0.22,4.57 8.93,-9.98 18.6,-19.97 23.5,-32.69 5.49,-14.65 3.74,-30.78 0.16,-45.67 -1.11,-2.48 3.36,-4.38 3.75,-1.37 3.96,14.25 5.27,29.75 1.35,44.15 -5.18,19.1 -20.86,32.34 -33.14,46.91 -0.98,2.69 -2.7,7.42 -0.16,9.39 2.75,-2.9 4.62,-6.6 7.95,-8.92 -1.6,5.3 -4.61,10.01 -6.72,15.11 5.22,-2.97 9.96,-6.7 14.46,-10.65 0.44,0.11 1.32,0.32 1.76,0.43 20.75,-14.21 31.67,-39.27 31.99,-63.98 0.47,-23.01 -4.2,-45.7 -8.1,-68.27 -9.75,3.32 -19.23,7.36 -28.61,11.57 m -129.21,9.72 c -17.21,8.1 -34.9,16.15 -49.04,29.18 -9.35,8.67 -18.1,17.98 -28.05,25.98 11.39,-3.34 23,-7.06 35.04,-6.22 18.7,-0.86 34.28,17.93 32.1,36.06 -1.6,15.33 -17.11,29.29 -32.88,25.8 -6.72,-1.97 -13.23,-9.43 -11.25,-16.66 3.63,-1.69 7.82,-3.9 8.94,-8.07 1.21,-7.52 -6.97,-13.46 -13.9,-13.13 -8.8,-0.75 -17.57,4.96 -20.66,13.2 -6.06,15.5 0.53,35.25 15.67,42.86 15.16,7.72 33.63,10.85 49.92,4.83 9.93,-3.59 16.97,-12.41 20.92,-21.91 6.77,-15.58 8.09,-33.58 18.64,-47.43 13.2,-17.14 32.87,-27.17 49.71,-40.14 -14.29,-10.43 -27.95,-21.99 -39.45,-35.48 -12.43,1.56 -24.26,6.21 -35.71,11.13 m -119.89,6.88 c -3.55,18 -12.27,35.11 -25.86,47.59 2.03,5.72 8.92,9.12 14.82,10.24 15.61,1.93 32.05,-0.74 45.55,-9.06 12.48,-7.93 22.19,-19.25 33.02,-29.15 -21.33,-9.91 -44.12,-16.98 -67.53,-19.62 m 286.8,0.74 c 0.74,2.48 0.02,6.31 3.11,7.28 12.48,5.24 24.21,12.18 35.05,20.28 -0.67,-2.21 -0.64,-5.02 -2.82,-6.37 -10.74,-8.63 -22.64,-15.85 -35.34,-21.19 m 1.63,11.25 c 2.01,16.4 2.46,33.24 -1.3,49.43 30.23,19.8 57.06,48.41 67.13,83.88 17.49,-4.93 35.98,-15.66 41.59,-34.05 3.12,-9.69 -5.35,-17.8 -13.13,-21.91 -14.48,-8.12 -31.62,-12.37 -43.39,-24.69 -7.88,-8.04 -9.45,-19.68 -13.15,-29.78 -11.26,-9.57 -24.19,-17.07 -37.75,-22.88 m -138.43,46.39 c 38.04,16.16 59.21,54.26 92.16,77.36 15.52,10.28 34.47,13.04 52.59,15.09 15.62,1.01 31.42,0.9 46.83,-2.14 -8.84,-31.19 -32.67,-55.55 -58.58,-73.71 -10.26,22.95 -31.77,38.63 -54.13,48.53 1.08,-3.29 2.47,-6.47 4.02,-9.56 -0.94,-3.54 -1.9,-7.12 -1.82,-10.81 -3.73,2.53 -7.63,4.85 -11.88,6.38 1.38,-4.92 3.23,-9.69 5.51,-14.25 -4.28,-6.39 -2.92,-14.39 -0.08,-21.04 -3.54,1.24 -7.24,2.03 -11,1.96 2.52,-4.65 5.54,-9.01 9.04,-12.97 -5.02,-8.22 -3.38,-18.43 0.08,-26.91 -8.11,-5.2 -16.28,-10.34 -23.98,-16.13 -16.48,12.39 -35.43,22.05 -48.76,38.2 m 417.46,-31.65 c -6.7,2.96 -8.96,11.62 -7.26,18.26 3.12,9.28 16.39,12.88 23.53,5.91 0.47,-4.26 2.78,-7.92 4.14,-11.85 -0.8,-9.24 -11.8,-16.09 -20.41,-12.32 m -281.41,38.52 c -0.5,1.84 -0.97,3.7 -1.42,5.57 27.07,19.07 51.8,44.37 61.19,76.94 1.43,-0.35 2.85,-0.7 4.31,-1 -9.02,-34.59 -35.72,-61.35 -64.08,-81.51 z"
       id="path181"
       style="opacity:1;fill:#000000"
       inkscape:connector-curvature="0" />
    <path
       d="m 660.1,-147.89024 c 13.49,-15.5 36.06,-22.82 55.99,-17.34 -0.05,0.83 -0.15,2.48 -0.2,3.31 -6.28,0.26 -12.47,-2.09 -18.73,-0.71 -12.85,1.34 -24.75,7.79 -33.66,17.02 -1.57,2.32 -5.19,0.08 -3.4,-2.28 z"
       id="path183"
       style="opacity:1;fill:#000000"
       inkscape:connector-curvature="0" />
    <path
       d="m 720.19,-128.02024 c 4.17,-1.34 8.78,2.51 7.84,6.88 -0.37,4.82 -7.21,6.91 -10.38,3.38 -3.25,-2.99 -1.79,-9.16 2.54,-10.26 z"
       id="path185"
       style="opacity:1;fill:#000000"
       inkscape:connector-curvature="0" />
    <path
       d="m 197.21,387.04976 c 3.35,-0.99 7.8,0.1 8.57,3.99 1.71,6.23 -7.69,10.44 -11.51,5.45 -2.78,-3.16 -0.71,-8.08 2.94,-9.44 z"
       id="path187"
       style="opacity:1;fill:#000000"
       inkscape:connector-curvature="0" />
    <path
       d="m 163.2,417.89976 c 2.71,-0.85 2.79,2.63 3.57,4.32 5.41,16.79 21.25,28.36 38.08,31.94 3.03,0.23 2.16,5.02 -0.82,3.93 -19.06,-3.49 -36.5,-17.49 -41.87,-36.45 -0.34,-1.4 -0.57,-3.09 1.04,-3.74 z"
       id="path189"
       style="opacity:1;fill:#000000"
       inkscape:connector-curvature="0" />
    <path
       d="m 952.87,531.79976 c 1.32,-0.05 2.65,-0.08 3.99,-0.08 6.05,18.85 2.01,41.48 -12.89,55.15 -2.77,-1.48 -2.15,-4.31 -0.02,-5.99 12,-13.17 13.5,-32.53 8.92,-49.08 z"
       id="path191"
       style="opacity:1;fill:#000000"
       inkscape:connector-curvature="0" />
    <path
       d="m 903.3,565.19976 c 4.14,-2.04 9.56,1.69 8.41,6.35 -0.54,5.07 -8.18,6.46 -10.66,2.17 -2.19,-2.74 -0.95,-7.19 2.25,-8.52 z"
       id="path193"
       style="opacity:1;fill:#000000"
       inkscape:connector-curvature="0" />
  </g>
</svg>
