<?xml version="1.0" encoding="UTF-8" standalone="no"?>
<svg
   xmlns:dc="http://purl.org/dc/elements/1.1/"
   xmlns:cc="http://creativecommons.org/ns#"
   xmlns:rdf="http://www.w3.org/1999/02/22-rdf-syntax-ns#"
   xmlns:svg="http://www.w3.org/2000/svg"
   xmlns="http://www.w3.org/2000/svg"
   xmlns:sodipodi="http://sodipodi.sourceforge.net/DTD/sodipodi-0.dtd"
   xmlns:inkscape="http://www.inkscape.org/namespaces/inkscape"
   width="1200pt"
   height="1128pt"
   viewBox="0 0 1200 1128"
   version="1.1"
   id="svg234"
   sodipodi:docname="celtic_ornament_book_of_kells.svg"
   inkscape:version="0.92.4 (5da689c313, 2019-01-14)">
  <title
     id="title1049">Celtic mandala</title>
  <metadata
     id="metadata240">
    <rdf:RDF>
      <cc:Work
         rdf:about="">
        <dc:format>image/svg+xml</dc:format>
        <dc:type
           rdf:resource="http://purl.org/dc/dcmitype/StillImage" />
        <dc:title>Celtic mandala</dc:title>
        <dc:date>2020-05-15</dc:date>
        <dc:source>http://www.supercoloring.com/coloring-pages/celtic-ornament-design-from-book-of-kells?tag=58516</dc:source>
        <dc:creator>
          <cc:Agent>
            <dc:title>Artsashina</dc:title>
          </cc:Agent>
        </dc:creator>
        <dc:subject>
          <rdf:Bag>
            <rdf:li>acb</rdf:li>
            <rdf:li>tattoo</rdf:li>
            <rdf:li>celtic</rdf:li>
          </rdf:Bag>
        </dc:subject>
        <cc:license
           rdf:resource="http://creativecommons.org/licenses/by-sa/4.0/" />
      </cc:Work>
      <cc:License
         rdf:about="http://creativecommons.org/licenses/by-sa/4.0/">
        <cc:permits
           rdf:resource="http://creativecommons.org/ns#Reproduction" />
        <cc:permits
           rdf:resource="http://creativecommons.org/ns#Distribution" />
        <cc:requires
           rdf:resource="http://creativecommons.org/ns#Notice" />
        <cc:requires
           rdf:resource="http://creativecommons.org/ns#Attribution" />
        <cc:permits
           rdf:resource="http://creativecommons.org/ns#DerivativeWorks" />
        <cc:requires
           rdf:resource="http://creativecommons.org/ns#ShareAlike" />
      </cc:License>
    </rdf:RDF>
  </metadata>
  <defs
     id="defs238" />
  <sodipodi:namedview
     pagecolor="#ffffff"
     bordercolor="#666666"
     borderopacity="1"
     objecttolerance="10"
     gridtolerance="10"
     guidetolerance="10"
     inkscape:pageopacity="0"
     inkscape:pageshadow="2"
     inkscape:window-width="3840"
     inkscape:window-height="2004"
     id="namedview236"
     showgrid="false"
     inkscape:zoom="0.88764468"
     inkscape:cx="790.2265"
     inkscape:cy="670.35683"
     inkscape:window-x="-16"
     inkscape:window-y="-16"
     inkscape:window-maximized="1"
     inkscape:current-layer="svg234" />
  <g
     id="#4f4f4fff"
     style="fill:#000000">
    <path
       fill="#4f4f4f"
       opacity="1.00"
       d=" M 576.33 44.42 C 660.36 40.52 745.40 56.69 821.72 92.25 C 920.27 137.48 1003.86 214.25 1057.77 308.29 C 1097.96 378.05 1121.74 457.19 1126.54 537.56 C 1128.57 576.07 1127.29 614.84 1121.13 652.95 C 1107.23 742.48 1069.32 828.02 1012.79 898.77 C 975.43 945.47 930.21 985.90 879.45 1017.54 C 789.49 1073.97 682.06 1101.81 576.05 1096.45 C 516.65 1093.81 457.67 1080.93 402.61 1058.45 C 288.82 1012.57 192.44 925.26 135.33 816.70 C 90.97 733.50 70.13 638.08 74.99 544.00 C 77.84 485.38 90.60 427.22 112.66 372.82 C 157.74 260.77 242.83 165.50 348.97 107.92 C 418.59 69.77 497.04 47.97 576.33 44.42 M 591.41 50.55 C 513.71 51.83 436.34 70.90 366.99 105.98 C 255.79 161.76 166.06 258.83 119.31 374.13 C 63.95 508.44 68.70 666.02 132.61 796.54 C 188.01 912.11 287.87 1005.47 406.88 1053.03 C 537.67 1106.14 690.09 1102.59 818.12 1043.04 C 897.78 1006.51 967.74 949.28 1019.70 878.74 C 1080.51 796.66 1116.16 696.19 1120.36 594.11 C 1125.79 484.48 1094.96 373.38 1033.74 282.23 C 966.42 180.79 862.45 104.22 745.31 70.81 C 695.41 56.37 643.31 49.58 591.41 50.55 Z"
       id="path179"
       style="fill:#000000" />
    <path
       fill="#4f4f4f"
       opacity="1.00"
       d=" M 529.98 85.02 C 563.61 66.44 603.31 62.74 641.00 65.96 C 679.82 69.04 718.41 77.05 754.77 91.12 C 802.66 109.55 849.35 139.39 874.32 185.63 C 895.94 195.08 916.54 206.80 936.30 219.67 C 961.51 236.13 985.36 255.05 1005.26 277.75 C 1041.35 319.03 1065.42 369.51 1081.55 421.58 C 1093.75 462.44 1104.26 505.03 1100.06 547.99 C 1096.37 597.68 1076.25 645.19 1047.35 685.41 C 1044.85 688.57 1042.99 692.40 1039.55 694.67 C 1045.90 700.82 1050.68 708.32 1055.08 715.93 C 1063.44 716.08 1071.77 716.73 1080.13 717.00 C 1080.80 718.29 1081.12 719.77 1079.87 720.86 C 1074.51 726.86 1069.03 732.78 1063.24 738.36 C 1059.73 769.28 1053.18 800.45 1037.93 827.90 C 1008.79 881.89 964.37 927.94 910.76 957.92 C 883.16 972.98 852.60 983.36 821.11 985.39 C 818.47 985.88 816.52 987.96 814.33 989.34 C 774.83 1016.88 731.41 1039.06 685.44 1053.52 C 614.30 1073.74 538.44 1067.57 467.26 1050.80 C 447.13 1045.82 426.99 1040.41 407.95 1032.08 C 343.45 1004.32 294.73 947.12 269.75 882.30 C 260.77 884.35 251.51 885.00 242.32 885.11 C 237.50 892.61 232.40 899.93 227.22 907.19 C 226.39 908.63 223.89 910.15 223.13 907.83 C 218.77 895.74 216.78 882.95 213.71 870.50 C 190.42 854.12 169.29 834.12 153.79 810.09 C 132.71 777.84 118.89 741.13 111.50 703.41 C 101.44 652.03 104.45 596.65 127.91 549.19 C 125.21 542.48 126.26 535.09 125.16 528.07 C 122.59 477.52 126.28 425.83 142.36 377.54 C 167.66 307.18 216.28 247.84 270.55 197.55 C 296.83 173.39 327.91 154.45 361.58 142.51 C 406.47 126.76 455.26 122.86 502.27 129.29 C 504.94 120.47 508.95 112.13 513.74 104.27 C 509.19 96.64 504.91 88.86 500.87 80.95 C 501.59 80.41 502.33 79.90 503.11 79.42 C 512.21 80.43 520.96 83.81 529.98 85.02 M 535.81 86.73 C 543.64 89.71 551.85 91.62 559.85 94.13 C 562.87 95.33 566.04 94.12 569.10 93.79 C 616.69 86.91 665.64 90.15 712.02 102.79 C 746.59 112.15 780.02 126.79 808.87 148.20 C 821.56 157.68 833.22 168.93 841.43 182.59 C 842.86 185.09 844.82 187.65 844.18 190.71 C 836.29 192.46 828.09 193.93 821.12 198.24 C 806.90 206.63 797.41 221.16 791.33 236.17 C 775.71 275.28 775.48 317.99 769.47 359.12 C 766.43 378.06 760.08 396.36 751.47 413.47 C 753.33 415.55 755.30 417.54 757.49 419.27 C 775.71 383.97 781.82 343.99 785.52 304.87 C 787.16 287.52 787.55 269.78 792.98 253.05 C 799.15 233.65 809.99 214.60 827.59 203.50 C 842.68 193.80 862.90 193.74 878.47 202.34 C 920.57 222.29 961.05 247.67 991.97 282.98 C 1031.69 327.95 1056.72 383.98 1072.85 441.30 C 1080.93 470.50 1087.98 500.51 1087.01 531.01 C 1086.61 587.33 1063.86 641.85 1029.55 685.92 C 1032.10 687.98 1034.68 690.01 1037.16 692.18 C 1072.63 646.14 1096.22 589.61 1097.00 531.00 C 1097.15 496.70 1089.65 462.85 1079.65 430.19 C 1059.88 364.85 1028.77 300.01 976.02 254.92 C 944.40 228.19 909.12 205.51 871.31 188.63 C 853.16 154.99 823.06 129.14 789.62 111.34 C 739.05 84.70 681.94 71.65 625.06 69.11 C 594.56 68.36 563.19 72.57 535.81 86.73 M 507.66 84.45 C 518.26 105.18 530.21 125.65 546.53 142.46 C 551.65 147.59 557.44 152.65 564.68 154.37 C 573.09 156.75 582.05 149.93 583.57 141.62 C 584.96 132.08 582.68 121.28 575.69 114.29 C 571.32 109.51 563.62 112.96 560.91 117.83 C 557.36 123.40 562.74 131.32 569.01 131.00 C 571.79 130.90 573.32 128.17 575.69 127.15 C 578.54 128.31 577.19 131.86 575.02 132.94 C 568.28 138.30 557.36 133.09 555.98 124.95 C 554.11 116.61 561.41 107.54 570.00 107.90 C 575.55 107.52 580.21 111.65 582.78 116.22 C 587.31 124.30 589.15 134.04 587.46 143.17 C 585.44 153.79 573.54 161.44 563.10 158.00 C 548.85 153.52 539.24 141.21 530.34 129.95 C 529.03 135.88 527.67 141.88 527.98 148.00 C 527.47 165.89 537.44 182.82 551.57 193.30 C 572.82 209.15 601.03 214.01 626.82 209.43 C 618.24 206.04 609.30 202.07 603.55 194.52 C 600.42 190.75 598.57 185.02 601.41 180.57 C 605.69 173.67 614.36 171.70 621.91 171.05 C 631.61 170.96 641.10 173.92 649.74 178.18 C 673.52 189.72 693.11 208.08 716.45 220.37 C 723.78 224.17 731.59 227.75 739.98 228.03 C 748.41 228.47 756.65 224.25 761.93 217.80 C 753.05 217.83 742.50 215.33 738.20 206.70 C 734.45 197.45 738.53 186.11 745.98 179.89 C 752.96 174.03 764.99 180.00 765.07 188.94 C 765.68 193.79 762.61 198.12 759.04 201.04 C 757.62 202.59 754.04 202.82 754.36 199.95 C 756.58 196.67 761.43 194.66 761.04 190.00 C 761.33 183.85 753.33 179.32 748.42 183.36 C 741.40 189.24 737.51 201.85 745.03 208.83 C 757.20 218.72 777.23 212.39 784.04 199.00 C 787.34 191.50 783.45 183.24 778.29 177.65 C 768.32 167.14 754.58 159.75 740.04 158.51 C 741.39 166.85 738.29 176.43 730.41 180.44 C 715.21 187.22 698.13 183.14 683.13 177.93 C 662.22 170.76 642.13 160.40 620.04 157.25 C 605.96 155.10 591.10 161.37 583.39 173.46 C 581.49 175.94 579.32 182.44 575.87 178.00 C 580.05 169.08 586.79 160.95 595.94 156.87 C 605.55 152.25 616.65 152.24 626.94 154.27 C 655.56 159.81 680.88 176.68 710.07 179.98 C 699.90 173.66 699.31 158.44 707.02 149.92 C 698.93 148.34 690.63 145.56 682.35 147.44 C 676.15 149.24 672.37 154.82 669.71 160.32 C 668.17 159.84 666.16 159.08 666.99 157.05 C 669.65 149.91 676.05 143.48 683.97 142.90 C 694.56 141.57 704.54 146.54 715.05 146.60 C 723.62 146.52 731.56 140.16 734.38 132.25 C 735.03 126.44 729.17 122.63 724.64 120.31 C 703.67 111.29 680.59 109.07 658.06 107.46 C 642.71 106.03 627.38 108.80 612.00 108.03 C 576.01 106.61 542.60 91.55 507.66 84.45 M 572.68 97.30 C 588.23 102.16 604.70 104.40 621.00 103.98 C 651.82 101.66 683.32 103.14 713.16 111.67 C 722.35 114.60 733.54 117.63 737.80 127.28 C 740.39 134.68 734.72 140.99 729.79 145.70 C 733.27 147.74 736.21 150.56 738.36 153.98 C 753.48 155.20 767.82 161.92 778.94 172.15 C 786.17 178.87 792.54 189.39 788.44 199.43 C 785.31 208.58 776.36 213.57 768.04 217.05 C 760.31 228.52 745.61 234.97 732.05 231.08 C 713.84 226.62 699.04 214.51 683.69 204.43 C 676.68 210.69 668.50 215.33 660.68 220.44 C 682.84 231.42 707.31 236.76 729.30 248.13 C 729.33 257.89 722.32 267.36 712.73 269.66 C 703.20 271.45 693.39 269.82 684.32 266.68 C 662.45 259.02 642.17 247.22 623.91 233.04 C 600.70 237.85 576.34 234.11 554.78 224.67 C 540.86 234.07 531.22 250.10 529.32 266.93 C 526.57 291.88 534.02 316.34 540.94 340.00 C 569.59 338.69 598.94 341.45 625.77 352.12 C 643.51 359.17 659.83 372.20 666.37 390.66 C 669.08 402.89 678.65 412.42 679.51 425.33 C 675.51 423.03 672.28 419.63 668.39 417.24 C 664.86 420.87 659.94 421.65 655.10 420.94 C 657.08 426.34 658.71 431.88 660.17 437.45 C 654.66 433.16 649.32 428.52 644.96 423.04 C 633.12 425.02 624.59 414.92 619.16 405.86 C 620.65 412.86 620.46 420.07 620.23 427.19 C 616.35 423.30 615.09 417.37 611.78 413.30 C 603.24 415.05 595.89 409.41 589.42 404.68 C 578.12 396.52 566.49 386.89 551.97 385.92 C 555.23 403.70 554.89 422.65 547.64 439.46 C 539.82 457.03 524.08 471.86 504.92 475.81 C 488.94 479.44 472.33 478.26 456.35 475.35 C 452.70 484.85 449.17 494.39 445.21 503.76 C 469.03 507.87 494.60 508.20 516.97 497.88 C 546.36 484.51 573.75 465.88 605.58 458.52 C 618.19 455.51 632.15 456.46 643.10 463.88 C 654.33 463.47 665.78 466.58 674.44 473.96 C 667.77 475.66 660.99 477.29 654.06 477.10 C 654.73 481.45 653.46 485.66 649.98 488.47 C 650.75 489.65 651.60 490.79 652.39 491.99 C 647.06 492.39 641.74 491.83 636.42 492.14 C 628.59 505.17 611.23 503.35 598.18 503.29 C 598.54 504.71 598.91 506.15 599.28 507.59 C 604.75 511.26 608.28 516.93 611.27 522.66 C 605.39 520.52 600.13 516.95 594.14 515.05 C 578.00 526.73 557.66 529.18 539.20 535.39 C 504.14 545.43 467.26 542.86 431.26 542.31 C 420.38 579.80 417.34 619.96 398.99 655.00 C 395.52 662.17 390.62 668.48 385.43 674.48 C 376.84 690.99 365.99 709.03 347.53 715.61 C 340.35 721.79 331.61 725.87 322.60 728.65 C 325.49 723.37 329.36 718.72 332.45 713.57 C 330.57 711.25 327.82 709.22 327.71 705.97 C 326.50 695.55 332.97 685.99 340.43 679.37 C 337.08 666.60 345.83 655.49 355.25 648.11 C 348.21 644.47 349.34 635.53 352.56 629.62 C 361.21 611.76 375.90 597.72 385.38 580.35 C 392.00 568.63 396.56 555.91 400.06 542.95 C 388.67 544.07 377.30 545.51 366.19 548.31 C 344.99 553.16 325.48 563.05 305.73 571.82 C 276.08 585.10 245.69 598.49 213.06 601.99 C 195.31 604.04 176.36 601.79 161.12 591.87 C 155.84 588.66 152.03 583.71 147.40 579.72 C 134.65 602.53 133.63 629.52 134.04 655.01 C 136.80 701.24 148.47 747.39 171.14 787.97 C 180.19 803.72 190.91 818.99 205.11 830.48 C 201.25 816.10 195.68 802.02 187.30 789.65 C 175.45 772.21 166.75 752.81 159.84 732.95 C 155.55 720.10 151.51 706.63 153.01 692.93 C 153.55 688.01 155.79 682.68 160.64 680.65 C 166.37 677.63 173.03 679.29 178.80 681.26 C 178.65 676.93 180.46 672.98 182.61 669.35 C 175.57 655.26 179.57 638.25 187.24 625.28 C 193.16 615.35 203.53 605.91 215.96 607.74 C 222.01 607.48 225.16 614.22 231.04 614.17 C 242.27 615.39 253.03 622.71 256.39 633.81 C 262.41 652.54 257.98 672.44 255.30 691.37 C 264.32 694.39 272.76 698.81 281.15 703.22 C 281.84 679.08 274.18 655.44 275.43 631.31 C 284.28 626.26 297.22 628.16 303.70 636.43 C 311.04 645.55 313.11 657.66 314.05 669.02 C 316.00 688.57 313.97 708.30 310.38 727.56 C 325.52 745.40 333.73 768.27 335.29 791.48 C 355.89 799.43 379.57 796.57 398.26 785.10 C 416.50 774.45 432.54 760.32 447.27 745.31 C 436.26 727.23 428.40 707.33 423.12 686.87 C 416.44 660.85 414.31 630.98 429.40 607.37 C 433.44 599.93 441.20 595.13 444.02 586.99 C 447.82 578.98 453.74 572.16 460.24 566.21 C 459.99 571.93 458.96 577.58 457.64 583.15 C 463.89 584.19 466.95 590.14 468.33 595.72 C 472.45 590.47 476.78 585.29 481.79 580.86 C 479.93 588.97 478.31 597.22 475.03 604.91 C 482.88 616.34 476.77 630.54 470.74 641.28 C 476.78 636.23 483.44 631.89 490.54 628.49 C 487.88 634.05 484.23 639.07 480.79 644.15 C 482.76 647.46 484.48 651.08 484.13 655.05 C 484.96 675.16 474.06 695.41 481.39 715.20 C 496.10 704.28 512.49 694.47 530.97 692.01 C 550.82 689.11 573.09 694.81 586.42 710.49 C 596.37 721.82 602.81 735.77 607.28 750.06 C 617.21 748.37 627.18 746.92 637.17 745.61 C 630.41 723.13 617.83 701.33 598.04 687.93 C 573.65 670.79 546.12 657.49 525.42 635.56 C 517.88 627.25 511.08 616.70 511.98 605.00 C 512.24 602.08 511.95 599.15 510.21 596.70 C 505.39 588.59 505.15 578.85 506.43 569.75 C 511.75 573.81 515.21 579.69 519.13 585.01 C 522.59 582.58 526.69 581.51 530.66 583.47 C 531.37 582.13 532.21 580.88 532.95 579.57 C 535.78 583.76 538.00 588.31 540.35 592.79 C 554.77 592.98 561.87 607.84 567.48 618.98 C 568.59 618.23 569.68 617.47 570.79 616.73 C 571.60 610.19 574.87 604.28 578.96 599.23 C 579.50 605.12 577.82 611.88 580.73 617.17 C 595.33 624.12 605.52 637.12 617.50 647.54 C 644.81 672.44 660.30 706.64 677.80 738.46 C 714.16 729.34 749.22 713.91 786.98 711.29 C 795.36 710.26 803.71 711.78 811.97 713.00 C 827.24 712.78 843.41 712.35 857.33 719.65 C 866.59 726.80 878.72 729.76 886.54 739.02 C 880.53 738.74 874.56 737.63 868.54 738.10 C 865.41 751.82 847.14 751.94 836.53 747.60 C 827.82 756.69 813.95 754.43 803.46 750.14 C 802.93 754.86 799.97 759.17 795.15 760.23 C 780.26 764.19 764.95 759.86 749.94 758.94 C 730.73 756.47 711.23 759.06 692.63 764.06 C 701.01 777.32 711.34 789.33 723.00 799.81 C 753.54 825.47 789.54 844.75 816.23 874.88 C 828.65 888.80 839.62 905.37 841.58 924.36 C 843.07 934.10 840.59 943.85 837.35 952.99 C 859.61 952.47 880.63 943.31 899.91 932.84 C 928.21 916.74 953.55 895.65 975.29 871.46 C 1001.63 841.64 1022.81 806.33 1032.35 767.47 C 1017.73 781.37 1005.67 797.94 997.33 816.33 C 984.52 840.01 968.37 862.27 947.77 879.80 C 942.47 883.97 936.11 888.26 929.07 887.54 C 921.62 886.49 918.30 878.56 917.51 871.95 C 913.96 873.61 910.14 874.65 906.22 874.80 C 897.86 887.22 884.47 895.50 870.21 899.45 C 863.20 901.29 855.13 901.42 848.91 897.25 C 842.80 893.28 840.02 885.85 839.36 878.88 C 838.58 874.48 841.34 869.92 839.11 865.75 C 834.68 855.49 836.12 843.00 843.60 834.54 C 856.02 820.27 874.28 813.61 890.93 805.73 C 889.40 797.10 888.78 788.32 888.97 779.57 C 869.02 791.76 853.36 809.90 833.03 821.48 C 824.31 817.12 820.35 805.15 823.87 796.08 C 827.88 785.57 836.65 777.89 845.33 771.19 C 860.73 759.36 878.16 750.52 895.99 743.01 C 903.74 722.09 917.89 703.71 936.29 691.06 C 934.66 674.20 925.46 658.20 911.51 648.54 C 892.78 635.12 869.92 629.82 848.06 623.84 C 834.11 649.58 815.47 673.38 791.60 690.61 C 776.26 701.52 756.86 707.71 738.05 704.17 C 732.59 703.55 727.63 700.26 722.01 700.97 C 713.92 701.47 705.90 699.28 698.57 696.00 C 702.84 693.70 707.42 692.09 712.04 690.66 C 711.04 684.88 713.71 679.47 717.81 675.57 C 712.35 674.34 706.81 673.18 701.68 670.89 C 708.43 668.62 715.27 666.38 722.38 665.58 C 727.29 654.40 741.14 651.99 752.07 652.69 C 745.29 650.12 739.06 646.30 733.39 641.81 C 738.77 642.01 744.21 641.72 749.52 642.80 C 753.10 635.18 761.55 632.24 769.03 629.95 C 781.69 625.70 796.19 622.23 804.44 610.78 C 789.69 604.62 775.21 596.62 765.00 584.01 C 752.32 568.46 746.87 546.23 753.80 527.05 C 758.67 513.03 767.02 500.43 776.92 489.47 C 770.90 481.95 765.04 474.30 759.00 466.79 C 745.91 482.05 734.81 499.79 730.74 519.72 C 725.54 552.95 729.70 587.55 719.04 619.93 C 715.40 631.29 707.96 641.85 696.83 646.80 C 691.85 656.23 683.85 664.19 673.51 667.45 C 675.06 661.00 677.46 654.76 680.54 648.88 C 676.71 647.45 673.50 644.76 673.37 640.38 C 671.97 640.51 670.58 640.64 669.19 640.77 C 671.35 636.14 674.31 631.95 676.50 627.34 C 670.30 614.71 679.20 601.75 685.66 591.21 C 684.47 590.77 683.28 590.33 682.11 589.91 C 676.40 592.65 669.96 592.63 663.79 592.21 C 668.30 588.53 673.70 586.08 677.99 582.08 C 676.56 564.19 683.71 547.40 686.97 530.14 C 695.74 495.90 715.82 466.32 733.78 436.40 C 713.97 415.80 691.30 398.11 672.48 376.54 C 661.43 364.43 651.71 350.63 646.99 334.77 C 639.57 323.25 633.16 310.67 630.92 297.02 C 629.76 291.33 632.17 285.68 630.99 280.01 C 630.22 272.35 630.93 264.52 632.81 257.07 C 635.65 262.23 638.01 267.64 640.52 272.97 C 654.35 268.57 663.21 284.35 665.09 295.80 C 676.76 299.38 682.22 311.73 683.28 323.01 C 687.73 320.86 693.29 321.54 696.48 325.53 C 705.65 335.19 709.37 348.40 714.90 360.21 C 722.38 379.02 733.79 396.31 748.52 410.21 C 757.74 391.74 764.19 371.85 766.41 351.29 C 772.29 308.16 772.27 262.41 793.03 223.00 C 802.05 205.08 818.89 190.24 839.27 187.59 C 831.47 172.88 819.15 161.12 805.95 151.25 C 788.31 138.22 768.79 127.88 748.56 119.50 C 693.14 97.08 631.91 89.66 572.68 97.30 M 512.64 182.33 C 530.02 212.09 564.26 229.07 597.99 230.97 C 627.71 232.15 657.32 220.97 679.99 201.98 C 676.34 198.91 672.25 196.41 668.23 193.87 C 651.04 204.77 632.10 215.97 611.00 215.02 C 583.52 215.95 554.12 206.45 536.45 184.50 C 524.17 169.52 521.09 148.54 526.14 130.13 C 526.55 128.09 527.82 125.67 526.10 123.89 C 522.58 118.93 519.51 113.69 516.11 108.66 C 501.85 130.26 499.10 159.71 512.64 182.33 M 322.69 164.74 C 293.42 180.83 268.96 204.05 245.69 227.69 C 200.48 274.76 160.76 329.52 141.87 392.69 C 129.71 436.63 126.80 482.72 129.30 528.08 C 130.25 534.84 129.66 541.80 131.69 548.39 C 132.44 549.92 131.46 551.37 130.87 552.76 C 116.38 582.25 110.60 615.34 110.32 648.00 C 110.62 687.44 118.57 726.84 133.77 763.25 C 144.94 789.57 159.50 814.83 179.35 835.60 C 189.53 846.40 200.95 855.96 212.84 864.82 C 211.05 856.61 209.60 848.32 207.70 840.13 C 207.17 836.85 203.76 835.45 201.64 833.31 C 178.64 813.18 163.50 785.77 152.13 757.77 C 139.49 725.64 132.07 691.47 130.00 657.02 C 129.56 630.43 130.00 602.22 143.37 578.38 C 144.49 576.80 145.35 573.66 147.76 574.09 C 153.18 578.67 157.28 584.78 163.52 588.39 C 180.68 599.68 202.46 599.95 222.04 596.59 C 263.72 589.48 300.85 568.18 339.55 552.39 C 359.15 544.60 380.06 540.21 401.09 538.92 C 402.04 535.97 402.80 532.97 403.51 529.96 C 352.79 533.58 305.84 554.90 260.66 576.64 C 243.04 585.11 223.59 590.14 203.99 590.03 C 188.26 589.55 171.90 585.83 159.40 575.79 C 149.60 568.31 143.95 556.68 140.94 544.99 C 136.21 498.32 136.19 450.41 148.64 404.83 C 160.68 361.52 182.84 321.59 209.76 285.82 C 230.51 257.93 254.00 232.08 279.77 208.74 C 300.43 189.73 324.21 174.13 349.92 162.84 C 396.75 142.30 449.40 137.04 499.84 143.55 C 500.05 140.06 500.69 136.62 501.24 133.18 C 440.48 125.26 376.43 134.30 322.69 164.74 M 365.18 161.28 C 333.66 172.97 304.73 191.28 280.18 214.20 C 246.56 245.57 216.04 280.56 191.66 319.64 C 173.25 348.89 158.52 380.71 150.50 414.41 C 140.85 455.82 140.54 498.82 144.87 540.93 C 146.45 555.63 155.28 569.53 168.24 576.78 C 182.59 584.99 199.77 586.71 215.97 585.02 C 240.90 583.05 263.39 571.23 285.40 560.34 C 323.03 542.90 362.91 528.02 404.71 525.88 C 405.64 522.27 406.64 518.68 407.60 515.08 C 379.09 505.44 350.76 494.63 321.04 489.25 C 311.88 487.82 302.78 490.56 294.65 494.63 C 278.12 502.98 263.79 515.09 247.01 522.99 C 239.41 526.78 230.76 529.53 222.22 527.80 C 214.23 525.84 208.44 519.17 205.00 512.01 C 197.78 497.17 196.06 480.24 197.27 463.95 C 199.97 435.61 209.81 408.07 225.04 384.07 C 235.11 368.56 247.01 353.64 262.89 343.76 C 289.12 328.67 319.42 323.49 348.13 315.03 C 364.36 310.33 381.07 305.93 395.38 296.60 C 387.72 287.31 377.44 280.52 370.00 271.01 C 363.14 262.84 358.35 252.11 360.27 241.27 C 363.48 223.47 375.93 208.31 391.14 199.09 C 407.83 188.28 431.95 192.19 444.89 207.02 C 453.32 216.50 451.07 232.59 440.82 239.82 C 435.09 243.91 426.27 245.13 420.54 240.44 C 416.99 237.37 416.39 232.42 415.97 228.03 C 409.86 226.38 402.43 228.74 399.97 234.95 C 394.33 247.00 402.25 262.12 414.17 266.76 C 427.90 272.24 445.62 267.42 453.16 254.28 C 465.65 233.26 462.96 207.03 474.66 185.66 C 479.54 174.95 488.53 164.65 501.06 163.87 C 499.83 158.48 499.62 152.93 499.61 147.42 C 454.54 142.05 407.92 145.28 365.18 161.28 M 722.45 149.53 C 719.12 150.60 715.56 150.33 712.22 151.23 C 704.78 156.36 703.39 168.55 710.31 174.70 C 718.01 182.24 733.02 178.25 735.57 167.63 C 738.10 159.74 731.79 147.02 722.45 149.53 M 481.27 182.22 C 473.71 194.61 469.09 209.64 471.91 224.18 C 473.75 236.09 478.48 247.28 481.42 258.92 C 500.94 245.94 518.60 230.01 532.97 211.45 C 518.57 200.81 507.19 185.62 502.27 168.30 C 493.10 168.05 485.67 174.77 481.27 182.22 M 605.27 182.20 C 602.54 186.07 605.73 190.68 608.44 193.57 C 615.53 200.19 624.60 204.66 633.96 207.00 C 644.71 203.21 654.78 197.45 664.35 191.26 C 651.55 183.11 637.49 175.35 621.92 175.09 C 615.92 175.65 609.04 177.05 605.27 182.20 M 392.24 203.29 C 377.10 212.94 363.80 229.34 364.22 248.06 C 367.78 273.97 396.26 284.08 407.28 305.89 C 416.54 325.20 416.31 347.14 419.15 367.95 C 436.34 360.50 454.15 354.13 472.60 350.69 C 479.93 329.29 481.08 306.39 480.94 283.96 C 480.57 263.41 471.87 244.50 467.45 224.73 C 465.05 238.47 461.43 253.08 451.30 263.30 C 440.38 273.96 422.59 275.92 409.20 268.96 C 396.98 262.82 390.62 246.61 395.83 233.90 C 398.48 227.13 405.72 222.75 412.97 223.62 C 415.79 223.74 421.34 223.72 420.56 227.93 C 419.68 232.89 422.32 238.93 427.95 239.17 C 441.49 240.83 451.22 222.54 443.12 211.84 C 432.07 196.42 407.76 192.08 392.24 203.29 M 819.39 215.40 C 800.23 234.77 792.57 262.47 790.99 289.03 C 787.45 334.52 782.00 381.45 760.52 422.46 C 762.83 425.19 765.32 427.77 767.94 430.22 C 787.37 413.27 807.77 397.30 825.35 378.33 C 830.68 372.96 835.38 366.63 837.13 359.14 C 841.27 340.97 837.38 322.37 837.99 304.00 C 837.70 294.24 838.60 283.63 844.57 275.51 C 850.21 268.07 860.27 266.19 869.08 267.06 C 882.05 268.54 894.44 273.54 905.45 280.46 C 928.42 294.80 946.52 315.91 959.91 339.26 C 968.93 355.56 976.73 373.15 977.99 391.97 C 979.09 420.47 969.28 447.77 962.24 475.00 C 957.81 491.89 952.68 509.07 953.67 526.72 C 968.41 523.73 982.55 516.52 997.93 517.71 C 1011.30 518.32 1022.23 528.54 1027.99 539.99 C 1034.80 553.34 1038.58 569.27 1034.21 583.98 C 1029.07 598.59 1014.81 610.40 999.04 610.71 C 984.45 610.68 973.00 592.82 980.75 579.92 C 984.40 572.91 993.97 572.34 999.92 576.67 C 1003.28 572.93 1005.64 567.54 1003.37 562.63 C 997.93 552.06 983.25 548.64 973.07 554.16 C 959.59 561.10 953.11 579.24 960.33 592.85 C 970.07 612.25 990.81 622.33 1003.41 639.50 C 1011.40 649.80 1018.69 664.15 1012.00 676.95 C 1016.80 678.76 1021.46 680.94 1025.85 683.61 C 1062.24 637.48 1084.44 579.13 1083.00 520.01 C 1082.04 493.22 1076.00 466.90 1068.76 441.18 C 1051.93 385.32 1027.91 330.23 989.03 286.02 C 956.25 249.05 913.42 222.47 868.59 202.53 C 851.43 196.41 831.72 202.39 819.39 215.40 M 536.36 214.03 C 521.40 233.35 502.94 249.83 482.56 263.26 C 485.70 280.58 485.63 298.45 484.06 315.94 C 497.37 339.06 511.46 363.02 515.02 389.95 C 516.34 403.10 515.02 417.61 506.04 428.02 C 496.25 439.44 480.80 443.68 466.38 445.28 C 464.04 454.18 460.75 462.79 457.85 471.51 C 478.79 475.04 502.16 476.64 520.96 464.95 C 542.94 451.09 552.71 423.04 549.36 397.98 C 545.82 354.12 521.59 313.64 524.99 268.96 C 526.02 250.55 536.02 233.69 550.26 222.30 C 545.44 219.86 540.79 217.11 536.36 214.03 M 629.67 232.04 C 646.37 244.73 664.83 255.32 684.62 262.35 C 693.43 265.47 703.10 267.70 712.36 265.35 C 719.01 263.47 723.23 257.32 725.20 251.01 C 703.05 239.34 678.00 234.53 655.95 222.60 C 647.48 226.52 638.70 229.67 629.67 232.04 M 635.17 270.95 C 634.48 279.54 635.13 288.18 637.90 296.38 C 636.65 295.07 635.52 293.71 634.44 292.28 C 635.30 303.69 640.20 314.28 645.58 324.20 C 645.38 317.62 647.09 311.29 648.88 305.07 C 647.63 296.40 650.11 288.04 653.03 280.00 C 650.57 277.09 646.43 275.55 642.75 276.86 C 643.70 278.74 644.66 280.61 645.44 282.57 C 641.06 279.64 638.22 275.12 635.17 270.95 M 844.11 285.99 C 839.45 303.69 843.60 322.02 843.00 340.00 C 843.37 352.04 841.99 365.30 833.82 374.79 C 815.56 397.09 792.09 414.16 770.94 433.48 C 773.48 435.79 775.90 438.24 778.36 440.64 C 801.14 419.32 826.69 400.68 846.18 376.06 C 849.92 371.49 852.35 365.89 853.05 360.01 C 856.41 341.70 849.32 323.03 853.62 304.83 C 855.55 295.87 863.95 289.44 872.94 288.95 C 889.36 287.21 904.99 295.49 916.88 306.16 C 931.31 319.41 941.75 336.40 950.11 353.97 C 957.49 370.02 963.41 387.20 964.06 405.00 C 962.12 446.97 937.49 485.38 941.67 527.99 C 944.28 527.99 946.89 527.83 949.50 527.54 C 948.54 513.01 951.82 498.57 955.42 484.57 C 961.98 458.52 970.81 432.89 973.86 406.09 C 976.10 382.76 967.06 360.18 955.64 340.33 C 940.58 314.42 919.46 290.94 892.02 277.97 C 882.14 273.33 871.11 270.13 860.12 271.28 C 852.25 272.20 846.01 278.46 844.11 285.99 M 655.03 282.44 C 655.42 287.37 655.99 292.31 657.08 297.14 C 658.26 296.72 659.47 296.31 660.67 295.90 C 659.81 291.07 658.34 286.18 655.03 282.44 M 857.49 306.38 C 853.67 326.57 862.06 347.53 855.57 367.47 C 852.32 377.82 843.57 384.83 837.26 393.15 C 833.85 407.21 834.78 421.87 835.25 436.20 C 848.21 426.73 861.52 417.34 876.84 412.01 C 880.39 375.83 891.22 338.79 916.19 311.41 C 904.82 300.81 890.20 291.61 874.04 292.84 C 866.32 293.15 859.09 298.70 857.49 306.38 M 653.17 296.96 C 652.18 304.98 653.26 313.01 655.43 320.75 C 653.49 318.79 652.28 316.31 651.14 313.85 C 647.16 328.37 653.91 343.33 661.59 355.46 C 679.51 382.36 705.20 402.51 728.28 424.69 C 761.09 456.83 783.35 498.65 819.44 527.62 C 823.96 531.02 828.25 534.96 833.55 537.12 C 834.09 521.97 832.08 506.87 829.73 491.93 C 829.41 490.56 829.39 488.86 827.98 488.13 C 803.92 471.65 782.82 451.32 762.34 430.67 C 749.38 416.95 735.00 404.29 724.76 388.26 C 713.80 371.48 708.09 352.03 698.24 334.68 C 695.66 330.14 691.84 324.20 685.69 326.04 C 686.91 329.23 688.67 332.18 689.83 335.39 C 685.79 332.62 683.19 328.38 679.93 324.82 C 679.87 331.61 683.19 337.66 686.05 343.60 C 684.21 342.29 682.59 340.73 681.06 339.10 C 684.18 358.44 694.57 376.31 708.32 390.04 C 707.78 395.21 702.44 390.43 700.82 388.19 C 689.46 374.72 680.03 358.66 677.20 341.06 C 678.16 330.91 672.41 321.12 676.02 310.95 C 673.21 304.21 665.63 297.44 657.99 301.06 C 659.23 304.21 660.61 307.32 661.64 310.56 C 657.20 307.28 655.19 301.88 653.17 296.96 M 300.44 332.65 C 282.79 338.25 264.82 345.21 251.19 358.20 C 234.45 374.41 222.31 394.80 213.33 416.17 C 203.74 439.55 198.18 465.40 202.45 490.61 C 204.28 501.02 207.60 511.87 215.46 519.36 C 221.38 524.85 230.32 525.08 237.58 522.40 C 261.32 514.23 278.91 494.23 302.98 486.76 C 310.34 484.10 318.41 484.59 325.95 486.14 C 354.40 491.24 381.35 502.04 408.74 510.94 C 409.63 507.32 410.60 503.72 411.28 500.06 C 380.76 491.07 350.95 479.33 319.57 473.49 C 313.49 472.67 307.08 472.31 301.18 474.35 C 283.43 479.80 270.37 494.06 253.67 501.67 C 245.77 505.67 235.21 507.07 227.82 501.25 C 215.09 491.10 211.61 473.54 212.84 458.07 C 215.03 429.93 229.80 404.57 246.49 382.51 C 257.67 367.94 271.34 354.70 288.41 347.34 C 325.67 331.25 369.21 331.01 402.95 306.63 C 401.51 304.25 399.94 301.93 398.22 299.75 C 368.48 317.89 333.10 322.10 300.44 332.65 M 323.99 340.14 C 303.26 345.29 281.72 351.94 266.00 367.18 C 247.08 385.06 232.19 407.27 223.23 431.73 C 256.77 438.90 291.30 429.81 321.93 416.04 C 311.50 403.81 306.11 387.93 305.01 372.04 C 305.17 363.71 302.89 355.38 304.96 347.13 C 307.51 349.25 309.31 352.05 311.52 354.49 C 315.24 355.85 319.34 356.20 322.72 358.46 C 321.88 354.12 322.05 349.67 322.85 345.34 C 326.39 348.49 329.52 352.08 332.38 355.86 C 340.69 355.41 347.67 360.90 352.53 367.09 C 352.75 363.18 354.12 359.48 356.05 356.11 C 359.23 360.25 361.25 365.09 363.31 369.84 C 373.24 369.33 381.83 375.55 388.14 382.61 C 396.92 377.87 406.01 373.74 415.10 369.63 C 412.68 349.75 412.65 329.09 404.79 310.33 C 381.14 327.59 351.77 333.08 323.99 340.14 M 880.97 410.86 C 882.58 410.42 884.21 410.01 885.86 409.64 C 889.61 376.74 898.85 342.60 922.14 317.91 C 921.14 316.79 920.02 315.81 919.03 314.72 C 894.97 340.82 884.93 376.35 880.97 410.86 M 924.46 321.59 C 902.65 345.24 893.74 377.54 890.20 408.80 C 913.69 404.65 937.07 415.13 955.66 428.67 C 952.45 429.36 949.22 429.96 945.95 430.19 C 943.50 432.85 940.94 435.43 937.98 437.53 C 941.71 439.09 945.15 441.25 948.48 443.55 C 944.21 445.65 939.35 445.90 934.73 446.60 C 931.60 453.75 923.49 456.73 916.20 457.21 C 919.19 459.59 921.84 462.47 923.48 465.97 C 918.45 466.30 913.47 465.58 908.51 465.00 C 904.50 473.67 894.70 477.12 886.02 478.97 C 886.19 488.32 884.87 497.62 884.00 506.90 C 901.37 514.64 918.42 524.63 937.55 527.28 C 933.22 485.19 957.68 447.35 959.98 406.02 C 958.29 376.28 945.45 347.99 927.60 324.48 C 926.58 323.55 925.95 321.71 924.46 321.59 M 483.26 323.09 C 482.13 332.25 480.16 341.34 477.05 350.03 C 483.46 348.80 490.00 348.46 496.38 347.05 C 492.63 338.75 487.78 330.99 483.26 323.09 M 541.97 344.00 C 545.42 356.53 549.18 369.01 551.27 381.86 C 566.92 382.18 579.58 392.62 591.83 401.13 C 597.51 404.71 603.12 410.09 610.38 409.17 C 609.10 405.06 607.37 401.09 606.46 396.87 C 610.60 400.77 612.73 406.23 615.82 410.93 C 615.13 404.49 613.67 398.19 612.41 391.86 C 613.76 393.50 614.97 395.28 616.19 397.03 C 612.59 381.49 597.00 372.09 582.90 367.09 C 582.92 366.26 582.96 364.60 582.98 363.77 C 597.10 365.85 609.74 375.77 617.31 387.69 C 620.96 392.57 619.08 399.28 622.97 403.99 C 627.36 410.84 633.30 419.03 642.28 419.12 C 641.43 416.73 640.67 414.31 640.19 411.83 C 643.62 416.07 646.71 420.65 651.15 423.97 C 649.60 416.21 645.79 409.26 641.45 402.75 C 643.96 404.10 646.03 406.10 648.07 408.06 C 642.06 386.04 624.58 366.71 602.01 361.24 C 599.46 361.23 599.59 358.73 599.83 356.89 C 621.57 359.84 639.02 376.62 648.00 396.00 C 651.62 401.63 652.36 408.21 652.22 414.74 C 655.63 417.85 662.34 418.02 665.32 413.93 C 663.25 410.99 660.76 408.24 659.65 404.75 C 663.71 407.95 667.39 411.66 671.84 414.36 C 669.97 408.00 666.86 402.12 663.29 396.58 C 660.64 384.85 653.26 374.53 643.78 367.28 C 628.80 355.88 610.30 350.37 592.02 346.98 C 575.55 343.68 558.69 343.56 541.97 344.00 M 455.85 358.96 C 433.10 365.05 411.71 375.08 390.91 385.93 C 391.72 387.19 392.55 388.46 393.36 389.74 C 416.88 377.94 441.04 367.04 466.55 360.30 C 477.49 357.20 488.90 356.61 500.07 354.73 C 499.56 353.50 499.05 352.28 498.57 351.05 C 484.24 353.19 469.72 354.56 455.85 358.96 M 326.93 355.86 C 327.85 363.68 332.02 370.45 336.42 376.76 C 334.75 375.97 333.18 375.03 331.64 374.05 C 336.62 387.51 341.43 401.77 352.03 411.98 C 363.23 422.40 377.98 427.90 392.58 431.58 C 395.05 432.42 393.38 436.24 391.02 435.23 C 374.40 431.73 357.95 424.35 346.18 411.79 C 334.67 399.14 330.62 382.00 324.40 366.53 C 322.41 362.98 318.61 360.80 314.80 359.70 C 316.25 363.68 318.40 367.38 319.49 371.50 C 315.09 367.91 312.62 362.67 308.86 358.52 C 308.66 363.83 309.52 369.07 310.69 374.22 C 309.07 382.74 312.65 391.25 315.96 399.02 C 325.41 418.95 344.49 432.10 364.10 440.85 C 382.04 449.08 401.09 454.38 419.76 460.61 C 421.77 450.70 422.64 440.61 423.62 430.56 C 406.69 421.33 398.33 403.36 387.39 388.47 C 381.83 381.41 374.36 374.62 364.98 373.88 C 365.20 375.04 365.64 377.38 365.85 378.55 C 362.22 375.05 360.23 370.30 357.02 366.46 C 356.40 373.21 358.91 379.60 360.79 385.94 C 360.10 385.51 358.71 384.64 358.01 384.20 C 358.93 393.27 363.36 401.96 371.13 407.02 C 371.05 407.77 370.89 409.29 370.80 410.04 C 360.95 407.99 355.46 396.24 354.38 386.87 C 355.00 375.18 346.94 362.66 335.25 359.98 C 336.82 363.10 338.55 366.14 339.84 369.39 C 334.84 365.60 331.48 360.13 326.93 355.86 M 396.02 393.33 C 402.39 403.13 408.78 413.07 417.38 421.11 C 443.57 399.69 472.94 378.07 508.02 376.10 C 506.19 370.24 504.15 364.45 501.85 358.76 C 464.37 361.69 428.82 375.60 396.02 393.33 M 421.05 423.75 C 422.22 424.57 423.46 425.28 424.64 426.09 C 448.72 405.14 476.91 384.78 510.10 383.87 C 509.64 382.65 509.18 381.44 508.73 380.23 C 474.82 382.02 446.22 402.82 421.05 423.75 M 474.73 396.81 C 473.84 411.69 471.80 426.60 467.72 441.01 C 480.86 439.24 494.85 435.23 503.56 424.53 C 511.86 414.35 512.53 400.43 510.80 387.97 C 498.38 388.54 485.89 391.23 474.73 396.81 M 828.27 401.37 C 826.37 415.25 824.83 429.40 826.91 443.35 C 828.45 442.17 830.19 441.14 831.39 439.58 C 830.65 425.73 829.89 411.71 832.08 397.94 C 830.81 399.09 829.54 400.23 828.27 401.37 M 429.38 427.35 C 427.53 428.56 427.82 430.96 427.52 432.86 C 425.25 462.34 418.27 491.18 410.74 519.69 C 405.86 538.93 401.10 558.42 392.33 576.33 C 384.32 592.53 372.27 606.18 362.22 621.07 C 358.80 626.30 355.37 631.77 354.08 637.97 C 353.47 640.38 354.48 643.27 357.00 644.06 C 359.50 642.02 360.20 638.33 363.00 636.48 C 362.07 641.36 359.96 645.88 358.51 650.61 C 364.67 647.14 368.39 640.99 372.34 635.38 C 372.11 637.62 371.66 639.84 371.08 642.03 C 386.89 628.81 397.91 609.87 402.95 589.98 C 403.76 589.98 405.38 589.99 406.20 589.99 C 406.00 601.09 399.65 610.94 394.53 620.45 C 388.00 631.78 379.50 642.67 367.47 648.45 C 362.68 654.46 356.00 658.45 348.79 660.91 C 343.51 666.58 341.24 677.79 348.70 682.74 C 351.08 680.18 352.92 677.15 355.60 674.88 C 354.44 680.33 350.95 684.78 347.84 689.25 C 355.77 686.23 362.04 680.42 368.13 674.73 C 367.21 677.87 365.20 680.47 363.22 683.00 C 380.47 677.47 391.78 661.82 398.90 645.97 C 413.44 613.23 417.25 577.24 426.81 543.00 C 440.87 494.95 469.07 450.16 470.00 398.93 C 455.25 406.54 442.14 416.86 429.38 427.35 M 781.41 443.59 C 788.52 450.65 796.07 457.25 803.52 463.95 C 810.25 458.54 816.43 452.49 823.03 446.92 C 821.14 433.47 821.88 419.81 823.27 406.35 C 809.26 418.69 795.11 430.89 781.41 443.59 M 877.36 416.36 C 849.92 426.74 828.72 447.88 806.95 466.75 C 814.36 472.78 821.70 479.15 829.93 484.01 C 844.10 476.61 860.38 476.15 876.01 475.97 C 886.18 475.31 897.69 473.07 904.24 464.48 C 902.64 463.81 901.10 463.07 899.56 462.33 C 904.42 461.85 909.32 462.10 914.18 461.61 C 909.31 457.73 903.00 456.76 897.15 455.24 C 897.30 454.72 897.62 453.68 897.77 453.16 C 890.82 450.16 882.71 449.71 875.70 452.74 C 873.58 454.37 870.79 450.60 873.23 449.45 C 881.25 445.33 891.37 445.45 899.39 449.53 C 908.40 455.27 922.35 455.06 929.85 446.88 C 926.72 446.62 923.49 446.69 920.53 445.51 C 925.78 444.44 931.04 443.39 936.32 442.44 C 930.35 438.29 922.39 439.40 915.52 439.81 C 917.12 438.52 919.04 437.81 921.05 437.45 C 908.43 434.73 895.32 432.40 882.43 434.57 C 867.15 437.99 854.33 448.00 843.67 459.06 C 842.96 459.02 841.52 458.95 840.81 458.91 C 840.81 458.21 840.80 456.81 840.80 456.12 C 854.40 441.25 873.22 429.31 893.97 429.39 C 906.12 430.02 918.08 432.49 929.98 434.88 C 933.92 435.09 937.46 432.66 940.34 430.18 C 936.26 429.93 932.21 429.42 928.21 428.65 C 933.17 426.50 938.71 427.15 943.93 426.12 C 939.42 423.31 934.43 421.42 929.40 419.79 C 929.36 419.43 929.28 418.72 929.24 418.37 C 913.15 410.58 894.03 410.05 877.36 416.36 M 240.01 438.07 C 233.68 438.16 227.56 436.24 221.26 436.08 C 221.19 437.56 221.14 439.05 221.10 440.54 C 257.76 448.11 295.31 438.38 328.88 423.57 C 327.52 422.20 326.17 420.84 324.82 419.47 C 298.20 431.15 269.39 439.99 240.01 438.07 M 219.30 444.30 C 215.92 458.14 215.21 473.42 221.50 486.57 C 224.51 493.04 229.55 499.49 236.96 500.87 C 245.78 502.28 253.93 497.63 261.00 492.96 C 274.38 484.29 286.96 473.28 302.84 469.53 C 313.95 467.49 325.02 470.54 335.87 472.60 C 350.69 467.87 364.30 459.71 377.01 450.79 C 360.92 444.86 345.16 437.29 331.98 426.16 C 297.47 443.02 257.49 452.29 219.30 444.30 M 690.46 534.18 C 687.10 548.73 681.85 563.10 682.00 578.22 C 683.75 576.46 685.56 574.74 687.65 573.36 C 685.91 578.16 682.55 582.04 679.58 586.09 C 685.46 584.22 689.74 579.55 695.18 576.87 C 693.19 580.93 689.72 583.87 686.74 587.16 C 691.26 587.02 694.86 583.97 698.03 581.07 C 704.95 573.61 711.12 564.51 712.04 554.11 C 712.83 554.11 714.39 554.10 715.18 554.09 C 716.68 559.22 714.25 564.46 711.97 568.98 C 707.92 575.96 703.40 583.03 696.69 587.75 C 694.40 589.44 691.10 589.93 689.69 592.63 C 683.95 601.85 676.65 611.89 679.23 623.41 C 681.07 621.19 682.48 618.59 684.77 616.76 C 683.48 622.96 680.48 628.60 677.93 634.34 C 684.83 631.48 688.79 624.91 693.42 619.47 C 692.92 622.21 691.94 624.82 690.98 627.43 C 702.36 620.13 707.62 606.72 712.20 594.65 C 713.33 595.72 715.44 596.73 714.66 598.65 C 713.01 606.79 708.67 614.17 703.77 620.78 C 699.99 625.63 695.90 630.99 689.72 632.76 C 685.19 633.68 682.39 637.74 678.23 639.51 C 676.51 642.13 680.27 644.29 682.59 644.88 C 683.78 642.94 685.00 641.01 686.45 639.25 C 685.45 645.85 682.39 651.89 680.86 658.36 C 689.37 653.10 694.46 644.23 700.07 636.29 C 699.78 637.86 699.43 639.44 699.08 641.01 C 708.28 635.08 713.49 624.82 716.33 614.55 C 724.52 586.04 722.48 556.08 725.48 526.88 C 727.90 504.08 739.63 483.38 754.12 466.06 C 758.56 462.05 751.20 457.92 749.11 454.51 C 739.39 464.94 731.51 476.94 724.97 489.57 C 721.63 490.43 721.51 486.16 721.20 483.94 C 721.22 468.41 731.23 455.61 740.23 443.88 C 739.08 442.51 737.99 441.11 736.85 439.76 C 718.49 469.59 697.92 499.37 690.46 534.18 M 743.26 446.99 C 735.85 456.35 728.07 466.36 725.92 478.40 C 732.17 468.88 738.63 459.47 746.41 451.09 C 745.35 449.72 744.30 448.36 743.26 446.99 M 379.89 453.90 C 368.39 462.19 355.96 469.16 342.87 474.61 C 345.31 475.07 347.92 476.49 350.35 475.25 C 363.85 470.19 376.49 463.08 388.29 454.84 C 385.62 454.04 382.42 451.56 379.89 453.90 M 393.33 456.49 C 381.52 464.80 369.04 472.28 355.61 477.66 C 374.36 484.30 393.53 490.11 412.57 496.02 C 414.68 485.54 417.67 475.19 418.93 464.56 C 410.33 462.09 401.89 459.08 393.33 456.49 M 608.90 462.21 C 575.43 468.63 547.35 489.16 516.63 502.61 C 493.58 512.53 467.78 511.26 443.46 508.05 C 442.15 511.79 440.58 515.44 439.14 519.13 C 454.23 522.25 469.77 523.49 485.13 522.01 C 486.45 526.26 481.76 528.26 478.76 529.88 C 464.91 536.63 448.97 534.04 434.24 532.62 C 433.65 534.48 433.11 536.35 432.58 538.23 C 465.28 538.93 498.44 540.64 530.61 533.44 C 540.63 531.34 550.18 527.58 560.06 524.97 C 570.01 522.08 580.28 519.31 589.03 513.58 C 586.17 512.92 583.26 512.37 580.58 511.15 C 586.24 510.63 591.93 511.06 597.52 512.03 C 592.83 507.34 585.91 506.33 580.72 502.56 C 585.41 502.57 589.92 503.86 594.43 505.00 C 592.53 501.34 588.56 499.53 584.82 498.35 C 573.46 494.87 560.93 494.89 549.85 499.33 C 548.18 494.38 554.14 493.42 557.57 492.50 C 567.40 491.45 577.69 491.46 587.18 494.60 C 591.36 495.66 594.36 499.96 598.97 499.29 C 609.91 499.51 623.28 500.85 631.38 491.85 C 628.37 491.62 625.10 492.22 622.40 490.57 C 628.95 488.87 635.72 488.21 642.46 487.80 C 636.06 482.91 627.69 482.26 619.95 481.75 C 623.03 479.95 626.64 480.00 630.09 479.76 C 617.44 473.84 602.35 474.13 589.13 478.01 C 587.45 477.52 588.07 475.50 587.89 474.25 C 601.74 469.25 617.81 470.00 631.29 475.71 C 635.71 480.31 641.89 481.69 647.05 485.17 C 649.30 483.41 651.35 480.35 648.95 477.78 C 646.43 477.58 643.90 477.74 641.39 477.68 C 647.96 474.68 655.36 474.22 662.31 472.44 C 653.34 466.86 642.06 467.03 631.82 466.97 C 633.29 466.18 634.76 465.40 636.22 464.59 C 627.67 460.73 618.00 460.17 608.90 462.21 M 877.93 480.11 C 875.98 506.73 873.40 533.61 865.26 559.19 C 862.71 567.64 857.99 575.32 855.86 583.89 C 860.58 584.84 860.55 579.20 862.21 576.25 C 875.92 545.95 881.02 512.46 881.94 479.45 C 880.60 479.67 879.25 479.88 877.93 480.11 M 840.32 484.24 C 845.86 515.53 849.35 549.91 834.13 579.15 C 839.79 580.80 845.60 581.90 851.42 582.85 C 853.94 575.49 857.52 568.55 860.13 561.22 C 869.26 535.14 872.26 507.44 873.71 480.01 C 862.52 480.82 851.07 480.63 840.32 484.24 M 833.02 487.27 C 838.43 516.82 841.96 549.34 827.07 576.84 C 828.00 577.24 828.93 577.63 829.88 578.04 C 845.37 549.86 841.44 516.37 836.61 485.92 C 835.41 486.37 834.20 486.82 833.02 487.27 M 755.01 548.02 C 756.42 568.17 769.05 586.42 786.06 596.84 C 824.91 620.51 873.89 618.80 912.10 643.77 C 927.33 653.84 937.70 670.58 940.28 688.62 C 944.52 685.80 948.98 683.32 953.69 681.37 C 944.87 659.76 940.76 636.64 938.70 613.49 C 922.68 608.28 908.70 598.53 894.83 589.27 C 875.48 589.00 855.87 588.90 836.96 584.12 C 820.06 580.43 801.84 572.60 793.65 556.33 C 786.67 542.24 790.80 525.84 796.84 512.21 C 790.81 506.02 785.22 499.41 779.69 492.77 C 766.19 507.95 753.97 526.90 755.01 548.02 M 883.30 511.82 C 881.34 529.16 877.90 546.46 872.08 562.95 C 886.22 579.56 904.81 591.56 923.52 602.38 C 940.07 612.08 959.60 613.49 977.35 619.99 C 969.34 611.82 960.23 604.12 955.69 593.32 C 949.59 580.29 954.27 564.13 964.54 554.60 C 975.58 544.36 995.48 544.83 1004.83 557.14 C 1010.45 564.21 1008.49 575.19 1001.69 580.74 C 998.12 582.18 995.55 578.01 992.09 577.99 C 987.03 577.06 983.53 582.10 982.75 586.49 C 980.74 596.98 990.48 607.45 1001.06 606.59 C 1011.92 605.56 1021.31 598.04 1027.09 589.12 C 1035.98 574.00 1031.43 554.97 1023.43 540.49 C 1017.83 530.53 1007.80 522.01 995.92 521.79 C 977.32 521.45 960.66 532.82 941.99 532.04 C 920.85 530.82 902.64 518.96 883.30 511.82 M 796.22 551.83 C 800.68 563.46 811.67 571.12 822.94 575.37 C 828.69 565.23 831.85 553.82 833.10 542.27 C 820.71 535.21 810.31 525.38 799.95 515.74 C 795.14 526.94 791.80 539.96 796.22 551.83 M 437.51 523.14 C 436.96 524.98 436.43 526.84 435.90 528.70 C 449.14 530.00 463.24 532.14 475.88 526.67 C 462.99 527.22 450.14 525.51 437.51 523.14 M 870.30 567.62 C 868.13 573.17 865.29 578.48 863.84 584.28 C 872.24 585.20 880.70 585.04 889.14 584.93 C 882.35 579.72 876.27 573.72 870.30 567.62 M 440.73 601.67 C 440.35 601.57 439.58 601.37 439.20 601.27 C 423.29 618.91 420.22 644.16 423.41 666.87 C 427.26 693.60 436.68 719.44 450.41 742.67 C 459.44 734.20 468.45 725.67 478.09 717.89 C 468.76 696.44 481.85 673.94 479.83 651.94 C 479.28 650.81 479.26 647.75 477.45 648.47 C 474.21 651.56 472.11 655.77 468.20 658.17 C 470.22 652.55 474.06 647.87 476.52 642.47 C 470.50 645.71 466.32 651.30 460.91 655.32 C 461.92 652.89 463.26 650.62 464.49 648.30 C 459.04 651.92 456.33 658.17 454.43 664.19 C 451.48 674.10 449.91 684.67 451.99 694.92 C 452.38 697.06 449.74 697.20 448.27 697.00 C 445.57 681.99 447.51 665.49 455.11 652.12 C 457.74 646.44 464.78 644.94 467.07 639.10 C 471.98 630.24 477.62 619.28 472.77 609.22 C 470.89 612.02 468.83 614.79 465.93 616.61 C 469.68 610.44 472.51 603.74 473.65 596.58 C 466.92 603.04 461.97 611.01 457.62 619.13 C 457.80 615.89 458.68 612.78 459.53 609.69 C 446.06 623.96 437.39 643.27 436.11 662.94 C 435.52 670.38 438.08 677.63 437.93 685.03 C 436.75 685.06 435.61 684.91 434.51 684.58 C 428.79 663.89 433.26 641.44 444.35 623.30 C 448.84 615.80 453.31 607.34 461.60 603.46 C 463.60 602.70 465.21 600.70 464.46 598.49 C 463.64 594.05 462.20 587.12 456.30 587.73 C 454.80 591.64 453.77 595.96 450.75 599.04 C 451.78 592.62 453.86 586.35 454.06 579.81 C 448.54 586.32 443.34 593.45 440.73 601.67 M 510.09 579.88 C 510.58 590.11 514.93 599.43 519.58 608.34 C 518.34 607.46 517.13 606.58 515.92 605.69 C 515.78 616.75 522.45 626.50 529.93 634.07 C 545.45 650.47 565.23 661.79 584.12 673.77 C 596.34 681.57 609.00 689.33 618.29 700.69 C 628.96 713.62 636.51 728.96 641.49 744.91 C 645.53 744.23 649.60 743.73 653.61 742.89 C 649.75 729.64 644.02 716.97 636.52 705.38 C 634.47 702.50 639.10 701.57 640.90 703.05 C 655.90 709.70 661.92 726.34 667.62 740.49 C 669.46 740.20 671.30 739.91 673.15 739.64 C 657.07 708.02 641.40 674.72 614.48 650.67 C 603.88 640.62 594.11 629.20 581.01 622.28 C 581.57 624.51 582.04 626.76 582.32 629.06 C 578.56 625.20 577.43 619.69 575.30 614.89 C 574.69 621.34 574.99 627.82 575.33 634.27 C 572.35 630.72 572.16 625.89 570.90 621.62 C 567.32 626.76 569.20 633.59 570.92 639.10 C 573.94 646.73 577.61 654.75 584.62 659.51 C 586.82 661.20 583.60 664.49 581.66 662.37 C 573.17 656.97 569.34 646.82 566.15 637.72 C 563.50 631.69 566.87 624.59 563.06 618.98 C 558.29 610.04 552.98 599.31 542.13 596.91 C 543.56 599.66 544.97 602.41 546.05 605.32 C 540.49 601.43 537.66 595.01 533.43 589.90 C 532.02 597.48 535.84 604.47 538.29 611.38 C 535.75 609.27 533.88 606.56 531.97 603.93 C 532.88 616.93 539.40 629.58 549.06 638.29 C 549.02 638.99 548.96 640.40 548.93 641.10 C 547.53 640.98 545.88 641.39 544.84 640.20 C 537.79 634.00 533.55 625.34 530.30 616.69 C 528.66 611.87 527.04 606.61 528.43 601.54 C 530.37 596.91 528.30 591.92 529.11 587.10 C 526.60 586.34 523.25 586.53 521.90 589.08 C 522.52 591.52 524.12 593.61 525.09 595.94 C 519.55 591.11 515.27 585.07 510.09 579.88 M 192.25 625.21 C 184.70 637.07 179.78 652.69 185.75 666.23 C 192.44 660.90 202.26 658.49 210.00 663.00 C 218.27 668.40 223.82 677.19 226.67 686.54 C 234.59 711.89 231.43 739.26 239.59 764.56 C 241.74 771.55 245.28 778.26 250.67 783.30 C 259.17 791.48 271.35 791.99 282.37 792.91 C 281.91 794.24 281.94 796.35 279.97 796.23 C 268.32 796.96 255.76 794.17 247.16 785.82 C 239.15 777.84 234.99 766.87 232.74 755.98 C 227.70 731.34 229.91 705.26 220.43 681.57 C 217.64 693.48 204.78 701.54 192.89 698.20 C 195.63 705.80 196.54 714.57 202.29 720.70 C 206.57 725.23 213.16 725.35 218.95 725.16 C 221.28 725.08 220.93 727.77 220.11 729.13 C 212.41 729.95 203.63 728.78 198.31 722.58 C 190.48 713.17 191.81 699.37 183.97 689.95 C 179.91 685.55 173.78 683.98 168.05 683.20 C 162.69 682.55 157.97 686.96 157.23 692.12 C 155.69 703.63 158.62 715.14 161.94 726.08 C 168.94 748.07 178.70 769.21 191.60 788.37 C 213.52 822.43 214.70 864.10 225.48 902.09 C 238.42 884.30 250.69 865.79 259.56 845.59 C 262.88 836.55 266.74 826.90 264.65 817.11 C 262.68 810.13 254.90 806.03 247.95 807.14 C 238.43 808.71 230.46 815.08 224.63 822.49 C 222.37 825.66 219.94 829.70 221.37 833.71 C 224.01 838.29 229.98 839.78 234.90 838.82 C 240.04 837.09 243.70 830.29 240.68 825.39 C 238.97 822.89 234.11 823.74 233.92 820.21 C 236.13 817.37 240.30 819.68 242.62 821.34 C 247.98 825.87 246.44 834.44 241.98 839.05 C 235.88 845.78 224.02 844.13 218.72 837.23 C 215.21 832.09 217.17 825.24 220.59 820.59 C 226.27 812.71 234.52 806.55 243.83 803.69 C 253.58 800.78 266.25 805.69 268.73 816.24 C 271.28 829.43 265.71 842.31 260.21 854.00 C 273.32 854.55 287.10 849.98 295.77 839.79 C 305.77 828.06 309.06 812.05 308.98 796.99 C 307.79 775.75 301.05 754.14 287.05 737.81 C 287.25 747.30 288.08 757.49 283.01 766.01 C 280.51 771.49 274.02 774.36 268.24 772.73 C 260.42 770.45 254.73 763.63 251.41 756.46 C 245.83 743.44 246.41 728.82 247.93 715.03 C 250.27 690.42 257.66 665.84 254.11 641.00 C 252.57 629.09 242.70 619.84 230.95 618.16 C 235.08 625.47 237.35 635.09 232.64 642.68 C 226.98 651.93 214.55 654.66 204.51 652.64 C 196.66 650.90 194.32 640.77 198.53 634.59 C 202.26 628.07 211.04 626.37 217.38 630.02 C 218.18 634.58 213.64 633.31 210.96 632.29 C 202.55 630.24 196.13 644.54 204.67 648.34 C 213.28 650.60 224.44 648.34 229.39 640.34 C 234.28 630.52 228.16 618.10 219.32 612.80 C 208.66 608.77 197.82 616.48 192.25 625.21 M 808.47 612.13 C 799.64 626.08 782.30 629.56 767.87 634.91 C 762.74 636.84 756.97 638.61 753.83 643.47 C 758.10 644.35 762.56 644.84 766.51 646.83 C 761.09 647.22 755.65 646.84 750.23 647.08 C 755.06 650.49 761.20 651.18 766.09 654.30 C 763.53 654.31 760.98 654.13 758.44 654.04 C 761.38 656.62 765.16 658.05 769.07 658.26 C 780.73 659.03 792.89 655.53 801.66 647.63 C 804.24 645.40 806.65 650.24 803.55 651.54 C 790.40 662.06 769.29 667.71 754.79 656.77 C 745.05 656.38 732.98 656.55 726.92 665.58 C 729.52 665.96 732.19 666.39 734.45 667.86 C 728.46 667.69 722.56 668.52 716.92 670.56 C 724.29 673.20 732.22 674.56 740.05 673.65 C 737.66 675.54 734.63 676.00 731.75 676.55 C 754.12 683.97 780.72 678.45 797.49 661.50 C 798.97 658.53 803.77 661.77 800.95 663.93 C 790.31 674.57 776.08 682.12 760.93 683.25 C 748.50 683.98 734.13 684.97 724.00 676.38 C 720.02 678.88 714.50 684.26 716.84 689.20 C 720.37 689.31 723.90 688.68 727.44 689.12 C 721.98 691.48 716.10 692.77 710.79 695.52 C 718.34 696.83 726.13 699.15 733.76 697.02 C 733.68 697.46 733.51 698.34 733.42 698.78 C 752.10 704.61 772.19 698.60 787.78 687.75 C 811.53 671.33 830.55 648.47 843.71 622.85 C 831.93 619.39 819.96 616.50 808.47 612.13 M 943.10 614.92 C 944.88 636.46 948.90 657.99 956.97 678.12 C 957.35 680.07 959.43 678.82 960.61 678.55 C 975.63 673.02 992.28 671.57 1007.83 675.69 C 1011.62 668.92 1010.77 660.40 1007.38 653.66 C 1002.16 642.91 993.84 633.61 983.54 627.52 C 971.04 620.62 956.68 618.69 943.10 614.92 M 279.24 634.07 C 279.46 658.08 285.95 681.57 285.45 705.61 C 292.68 711.45 300.58 716.70 306.78 723.78 C 310.45 704.77 311.68 685.23 309.71 665.95 C 308.54 656.91 307.04 647.24 301.17 639.93 C 296.26 633.17 286.83 631.33 279.24 634.07 M 196.37 665.44 C 187.56 666.87 177.50 679.54 186.43 686.56 C 189.26 688.76 189.78 693.58 193.82 694.10 C 203.35 696.84 214.99 690.33 215.91 680.05 C 216.38 670.23 205.62 662.57 196.37 665.44 M 914.24 718.05 C 896.07 742.33 889.57 774.43 894.86 804.09 C 898.84 802.19 902.82 800.30 906.92 798.67 C 907.30 788.45 906.28 778.15 907.91 768.01 C 910.06 750.34 919.84 734.57 931.70 721.70 C 947.34 704.99 969.63 692.51 993.08 694.07 C 1008.80 695.21 1022.56 704.76 1031.93 717.00 C 1037.96 716.29 1044.03 716.00 1050.10 715.96 C 1039.59 695.31 1019.04 679.20 995.43 677.78 C 963.68 675.46 932.98 693.14 914.24 718.05 M 357.55 688.71 C 350.22 694.48 341.11 696.94 332.02 698.19 C 331.75 701.97 331.10 706.97 334.99 709.20 C 336.17 707.72 337.17 706.07 338.62 704.82 C 337.84 709.88 335.56 714.50 333.61 719.18 C 341.95 715.50 349.47 710.10 355.44 703.20 C 354.93 704.83 354.35 706.45 353.82 708.08 C 363.68 701.64 370.72 691.66 376.64 681.66 C 370.75 685.24 364.10 686.96 357.55 688.71 M 333.22 695.23 C 337.77 692.55 341.96 689.30 345.82 685.69 C 344.83 684.78 343.86 683.86 342.90 682.95 C 338.58 686.03 335.40 690.43 333.22 695.23 M 506.98 703.96 C 464.93 725.39 438.88 768.17 397.33 790.33 C 378.60 800.92 355.27 803.32 335.04 795.68 C 335.28 801.08 334.48 806.44 333.90 811.79 C 358.26 814.61 381.92 822.11 404.10 832.45 C 418.26 820.51 435.28 812.84 451.77 804.81 C 465.01 783.95 479.30 763.20 498.43 747.25 C 510.62 737.55 525.91 729.10 542.02 731.73 C 556.56 733.89 567.53 744.87 575.97 756.12 C 584.95 753.97 593.99 752.05 603.13 750.74 C 597.10 732.23 587.79 712.89 570.34 702.72 C 550.82 692.01 526.33 693.70 506.98 703.96 M 254.44 695.83 C 254.02 700.53 253.09 705.18 252.77 709.89 C 262.94 714.77 272.78 720.39 281.80 727.18 C 294.88 737.34 303.07 752.51 308.02 768.06 C 313.66 785.79 315.14 805.30 309.39 823.20 C 305.94 834.38 299.25 844.99 289.13 851.23 C 280.01 857.00 268.95 858.61 258.33 858.03 C 254.28 865.89 249.76 873.50 245.11 881.02 C 259.44 880.49 274.07 878.58 287.02 872.04 C 303.19 864.40 315.86 850.39 323.04 834.12 C 338.06 800.18 331.24 758.04 306.74 730.24 C 292.83 714.43 274.53 702.17 254.44 695.83 M 976.39 699.48 C 948.18 706.56 924.93 729.41 914.79 756.33 C 922.92 750.49 932.18 744.09 942.71 745.33 C 950.93 746.36 953.55 756.31 951.37 763.18 C 947.38 780.19 931.52 790.46 916.99 797.99 C 895.27 809.67 870.81 816.66 851.48 832.47 C 842.19 839.55 838.35 852.11 842.30 863.17 C 846.66 855.81 853.75 848.36 863.04 849.01 C 873.00 850.40 880.80 860.23 881.37 870.01 C 882.07 877.71 872.67 882.79 866.08 880.13 C 859.97 878.10 856.80 870.98 857.87 864.88 C 863.42 864.18 861.03 871.35 863.93 874.12 C 868.03 879.33 878.09 875.97 877.17 868.97 C 876.07 860.80 868.51 852.91 859.97 853.10 C 843.96 857.08 838.26 880.06 849.04 891.96 C 854.44 897.22 862.73 897.12 869.57 895.34 C 882.13 891.79 893.76 884.47 901.70 874.02 C 895.94 871.66 890.44 867.32 889.06 860.96 C 887.24 851.07 891.65 841.23 897.69 833.62 C 911.38 816.08 931.17 805.06 947.46 790.28 C 955.77 782.84 964.00 774.30 967.17 763.31 C 969.88 753.57 967.27 743.18 962.22 734.67 C 960.65 733.08 962.71 730.02 964.70 731.23 C 974.38 744.00 975.24 762.64 965.96 775.90 C 948.76 801.59 917.89 813.62 899.54 838.27 C 909.62 834.65 921.73 840.73 924.54 851.13 C 929.90 844.98 937.01 839.47 938.78 831.07 C 940.05 825.50 936.48 820.71 934.29 815.96 C 934.92 814.54 936.81 813.37 937.94 815.01 C 942.98 820.65 944.81 829.43 941.33 836.33 C 937.11 846.17 927.31 852.09 922.65 861.65 C 919.57 867.58 921.29 874.85 924.75 880.22 C 927.00 883.75 931.92 883.87 935.42 882.34 C 944.51 878.46 951.43 871.10 958.14 864.08 C 970.94 849.93 982.13 834.36 991.75 817.89 C 996.59 809.88 999.81 800.98 1005.25 793.32 C 1023.70 765.16 1051.91 745.69 1073.99 720.76 C 1050.28 719.81 1025.88 719.01 1002.91 725.93 C 996.41 728.15 989.06 731.36 986.35 738.19 C 983.65 744.79 987.25 752.32 992.84 756.16 C 999.95 761.12 1009.14 763.52 1017.69 761.69 C 1025.79 758.79 1023.18 744.81 1015.01 744.02 C 1010.24 743.44 1004.32 747.68 1006.39 752.93 C 1007.49 755.46 1005.21 756.58 1002.96 756.16 C 999.24 748.92 1004.98 740.08 1012.93 739.95 C 1025.16 738.16 1032.34 757.09 1022.03 763.91 C 1011.62 769.96 998.35 765.25 989.24 758.78 C 980.27 752.30 978.24 737.52 986.92 729.95 C 997.77 720.53 1012.88 718.80 1026.63 717.33 C 1015.37 702.01 994.82 694.51 976.39 699.48 M 644.68 710.32 C 649.61 719.90 654.09 729.74 657.12 740.10 C 657.48 743.25 661.08 741.57 663.16 741.78 C 659.52 730.23 654.39 718.07 644.68 710.32 M 252.13 713.95 C 250.79 726.57 249.75 739.75 254.10 751.93 C 256.67 759.17 261.81 766.08 269.14 768.91 C 274.05 770.70 278.83 766.85 280.31 762.31 C 283.76 752.82 283.90 742.16 281.39 732.44 C 272.68 724.82 262.15 719.64 252.13 713.95 M 684.88 740.95 C 634.62 753.61 580.09 751.52 533.22 776.00 C 547.18 785.23 563.13 790.86 578.81 796.45 C 606.00 783.38 635.07 774.86 664.13 767.08 C 691.00 759.50 718.75 751.42 746.97 754.64 C 760.97 755.63 774.95 758.37 789.02 757.38 C 793.16 757.03 799.41 755.78 799.09 750.40 C 795.85 750.30 792.61 750.16 789.40 749.81 C 794.02 747.59 799.28 747.42 804.27 746.56 C 798.24 743.33 791.38 742.88 784.70 742.50 C 786.45 741.41 788.43 740.87 790.45 740.48 C 771.74 732.90 750.25 734.39 730.99 739.17 C 730.98 737.84 730.98 736.52 731.01 735.21 C 740.33 732.05 750.24 731.50 760.00 731.22 C 772.76 731.28 786.34 732.33 797.25 739.66 C 804.93 741.28 812.03 744.84 818.04 749.92 C 824.93 750.07 834.85 747.40 835.35 739.09 C 832.10 738.39 828.79 738.08 825.51 737.64 C 830.70 735.39 836.51 736.25 841.95 736.90 C 835.39 732.38 828.07 728.65 820.06 727.71 L 820.10 727.00 C 823.07 726.99 826.04 726.98 829.01 726.92 C 818.41 717.45 803.68 714.90 789.92 715.17 C 753.57 717.29 719.67 731.63 684.88 740.95 M 821.93 717.05 C 827.70 720.03 832.45 724.43 836.98 729.00 C 844.86 732.45 851.13 738.45 856.31 745.20 C 859.84 743.94 863.53 741.85 864.35 737.86 C 862.37 737.76 860.40 737.77 858.45 737.63 C 862.40 734.37 868.11 735.17 872.90 734.19 C 866.18 728.86 858.11 725.72 849.82 723.87 C 851.50 723.52 853.19 723.20 854.89 722.90 C 844.81 717.85 833.02 717.14 821.93 717.05 M 504.79 747.83 C 510.99 757.85 519.12 766.74 528.99 773.23 C 542.29 766.20 556.50 760.97 571.09 757.36 C 565.07 748.04 556.09 740.03 545.35 736.68 C 530.98 732.50 516.06 739.10 504.79 747.83 M 839.90 740.28 C 839.48 741.46 839.06 742.65 838.67 743.86 C 843.37 745.91 848.52 746.31 853.59 745.90 C 849.33 743.35 844.57 741.86 839.90 740.28 M 1038.24 762.17 C 1028.95 802.62 1008.13 839.79 981.05 871.00 C 956.89 898.62 928.43 922.89 895.72 939.80 C 876.40 949.67 855.11 958.41 833.01 956.77 C 831.80 951.15 836.41 945.73 836.84 939.99 C 840.98 919.78 831.14 899.73 818.71 884.36 C 791.42 850.26 751.89 829.79 718.98 801.97 C 706.89 791.26 696.87 778.47 687.99 765.03 C 685.25 765.89 682.49 766.63 679.71 767.33 C 704.71 806.80 743.56 834.45 781.57 860.33 C 803.86 875.35 823.38 897.22 828.72 924.25 C 832.79 943.61 824.82 965.03 808.88 976.82 C 787.78 991.54 766.21 1005.79 742.99 1016.98 C 703.33 1037.12 659.47 1049.05 615.00 1051.03 C 558.81 1054.21 502.41 1045.79 448.33 1030.73 C 406.74 1019.41 368.25 996.65 338.83 965.10 C 315.18 939.98 297.26 909.79 284.87 877.68 C 281.24 878.95 277.61 880.25 273.90 881.28 C 286.45 913.49 304.46 943.70 327.74 969.30 C 359.20 1004.31 401.21 1029.33 446.71 1041.17 C 523.94 1062.20 607.31 1071.68 685.31 1049.24 C 729.28 1035.11 770.87 1013.91 808.99 987.92 C 812.62 985.65 815.84 982.38 820.13 981.40 C 869.59 977.96 915.55 954.48 953.50 923.57 C 989.84 893.68 1020.38 856.26 1040.35 813.54 C 1050.28 791.46 1055.80 767.49 1058.11 743.45 C 1051.39 749.54 1044.17 755.39 1038.24 762.17 M 844.95 776.85 C 837.58 782.79 830.03 789.71 827.33 799.11 C 825.49 805.55 828.28 812.32 833.06 816.74 C 853.07 804.20 869.04 786.18 889.53 774.35 C 889.96 765.61 891.87 757.04 894.13 748.61 C 876.48 755.54 859.81 765.06 844.95 776.85 M 912.64 764.45 C 910.62 774.99 910.95 785.78 911.06 796.46 C 922.05 790.59 933.52 784.51 941.36 774.51 C 945.59 768.99 948.65 761.99 947.89 754.92 C 947.18 750.57 942.14 748.11 938.12 749.40 C 928.43 751.76 919.54 757.35 912.64 764.45 M 500.03 755.00 C 517.78 781.56 548.77 794.70 578.00 804.37 C 577.95 803.05 577.90 801.74 577.85 800.44 C 548.92 790.70 517.61 777.91 501.46 750.27 C 499.86 751.48 497.96 753.17 500.03 755.00 M 482.09 769.41 C 489.78 778.26 495.86 788.48 504.54 796.47 C 521.44 813.69 541.15 827.83 561.78 840.23 C 567.60 830.14 573.93 820.04 576.79 808.63 C 546.26 797.89 513.36 784.38 495.48 755.72 C 490.47 759.68 486.16 764.49 482.09 769.41 M 664.34 771.32 C 669.11 799.84 671.94 828.97 681.64 856.39 C 683.57 862.42 688.05 867.18 692.98 870.96 C 707.48 881.65 724.53 887.98 740.06 896.90 C 748.95 902.34 758.80 909.75 759.78 921.00 C 759.96 930.10 754.80 938.41 748.99 945.04 C 736.46 959.10 719.65 968.71 702.14 975.19 C 679.14 983.69 654.50 987.65 630.00 987.02 C 610.68 986.37 590.67 983.48 573.89 973.24 C 551.14 958.88 533.39 938.33 514.07 919.93 C 502.28 908.12 489.91 896.45 474.90 888.83 C 467.75 907.28 465.93 930.16 448.45 942.50 C 429.11 954.64 403.07 951.17 384.12 939.89 C 369.18 930.72 363.54 910.45 369.09 894.27 C 373.21 882.02 387.89 874.78 400.15 878.68 C 406.48 880.95 412.78 886.78 412.09 894.04 C 412.31 899.80 407.26 903.75 402.64 906.17 C 404.07 912.00 409.47 916.87 415.71 916.28 C 425.65 915.56 434.33 907.98 437.85 898.87 C 442.80 884.25 433.11 866.51 418.04 862.94 C 407.28 860.22 396.07 862.60 385.68 865.74 C 367.16 871.28 348.72 879.16 329.00 878.35 C 319.50 878.51 308.86 875.32 303.75 866.70 C 298.82 870.12 293.71 873.27 288.39 876.06 C 290.22 879.56 291.59 883.27 293.18 886.89 C 315.19 938.03 353.53 982.96 403.32 1008.69 C 432.17 1023.94 464.29 1031.25 496.01 1037.83 C 541.36 1046.57 588.00 1050.51 634.03 1045.38 C 698.06 1038.97 757.46 1009.55 808.55 971.61 C 823.36 958.94 829.17 937.32 823.10 918.86 C 815.82 893.93 796.50 874.72 775.35 860.74 C 738.41 836.48 701.71 809.22 677.34 771.65 C 675.03 766.01 668.60 771.09 664.34 771.32 M 476.77 775.80 C 484.77 785.29 491.45 795.92 500.54 804.46 C 517.40 821.68 537.07 835.87 557.70 848.21 C 558.38 846.84 559.07 845.49 559.77 844.14 C 537.14 829.76 515.16 813.94 496.63 794.44 C 490.51 787.51 485.26 779.88 479.54 772.63 C 478.61 773.68 477.67 774.72 476.77 775.80 M 649.52 775.37 C 654.84 802.17 657.92 829.46 665.35 855.81 C 667.88 864.32 670.46 873.55 677.48 879.55 C 691.01 891.65 709.67 895.20 724.19 905.74 C 731.49 910.72 735.76 920.30 732.87 928.94 C 728.56 943.09 716.40 953.37 703.47 959.62 C 679.28 970.94 651.84 972.80 625.57 970.54 C 606.90 968.74 587.62 965.08 571.91 954.22 C 539.37 931.56 518.67 893.73 481.08 878.06 C 478.82 879.31 477.61 882.43 476.83 884.90 C 503.24 899.48 522.52 923.38 544.27 943.73 C 557.87 956.81 572.26 970.23 590.44 976.50 C 604.68 981.57 619.95 983.32 635.00 983.00 C 671.51 982.15 710.10 973.89 738.51 949.58 C 746.07 942.79 753.94 934.74 755.35 924.22 C 756.14 916.62 750.99 910.06 745.24 905.76 C 728.61 893.03 707.67 887.62 691.07 874.85 C 682.05 868.44 676.82 858.21 674.17 847.70 C 667.64 823.20 664.43 798.00 660.50 773.00 C 656.70 773.02 653.15 774.45 649.52 775.37 M 614.89 786.22 C 616.24 794.71 617.96 803.14 619.23 811.65 C 632.12 816.93 644.18 824.07 655.34 832.39 C 652.28 813.86 648.96 795.38 645.62 776.90 C 635.14 779.06 625.04 782.86 614.89 786.22 M 458.77 802.03 C 467.41 798.65 476.29 795.89 485.36 793.94 C 481.92 788.88 478.02 784.17 474.36 779.28 C 468.45 786.33 463.56 794.19 458.77 802.03 M 582.26 799.30 C 581.90 815.45 572.97 829.53 565.07 843.03 C 559.73 852.69 553.91 864.51 558.62 875.52 C 559.94 874.55 561.23 873.54 562.58 872.63 C 560.89 877.36 557.92 881.46 555.80 885.98 C 562.04 882.88 567.02 877.86 571.66 872.76 C 571.69 873.46 571.74 874.86 571.77 875.55 C 578.60 871.20 583.84 864.19 585.09 856.09 C 585.03 853.66 587.48 853.65 589.26 853.66 C 589.20 864.54 582.14 874.69 572.70 879.77 C 563.31 884.80 557.18 896.63 560.25 907.11 C 562.14 904.39 563.85 901.50 566.29 899.22 C 564.91 904.90 561.99 910.06 560.45 915.70 C 566.89 911.70 570.36 904.87 574.29 898.72 C 574.24 899.86 574.12 902.15 574.07 903.29 C 583.00 893.31 592.67 883.32 597.57 870.60 C 603.06 855.95 601.31 839.82 597.73 824.93 C 596.62 822.45 601.09 820.55 601.48 823.56 C 605.44 837.81 606.75 853.31 602.83 867.71 C 597.65 886.81 581.97 900.05 569.69 914.62 C 568.71 917.31 566.99 922.04 569.53 924.01 C 572.28 921.11 574.15 917.41 577.48 915.09 C 575.88 920.39 572.87 925.10 570.76 930.20 C 575.98 927.23 580.72 923.50 585.22 919.55 C 585.66 919.66 586.54 919.87 586.98 919.98 C 607.73 905.77 618.65 880.71 618.97 856.00 C 619.44 832.99 614.77 810.30 610.87 787.73 C 601.12 791.05 591.64 795.09 582.26 799.30 M 453.05 809.02 C 435.84 817.12 418.15 825.17 404.01 838.20 C 394.66 846.87 385.91 856.18 375.96 864.18 C 387.35 860.84 398.96 857.12 411.00 857.96 C 429.70 857.10 445.28 875.89 443.10 894.02 C 441.50 909.35 425.99 923.31 410.22 919.82 C 403.50 917.85 396.99 910.39 398.97 903.16 C 402.60 901.47 406.79 899.26 407.91 895.09 C 409.12 887.57 400.94 881.63 394.01 881.96 C 385.21 881.21 376.44 886.92 373.35 895.16 C 367.29 910.66 373.88 930.41 389.02 938.02 C 404.18 945.74 422.65 948.87 438.94 942.85 C 448.87 939.26 455.91 930.44 459.86 920.94 C 466.63 905.36 467.95 887.36 478.50 873.51 C 491.70 856.37 511.37 846.34 528.21 833.37 C 513.92 822.94 500.26 811.38 488.76 797.89 C 476.33 799.45 464.50 804.10 453.05 809.02 M 333.16 815.90 C 329.61 833.90 320.89 851.01 307.30 863.49 C 309.33 869.21 316.22 872.61 322.12 873.73 C 337.73 875.66 354.17 872.99 367.67 864.67 C 380.15 856.74 389.86 845.42 400.69 835.52 C 379.36 825.61 356.57 818.54 333.16 815.90 M 619.96 816.64 C 620.70 819.12 619.98 822.95 623.07 823.92 C 635.55 829.16 647.28 836.10 658.12 844.20 C 657.45 841.99 657.48 839.18 655.30 837.83 C 644.56 829.20 632.66 821.98 619.96 816.64 M 621.59 827.89 C 623.60 844.29 624.05 861.13 620.29 877.32 C 650.52 897.12 677.35 925.73 687.42 961.20 C 704.91 956.27 723.40 945.54 729.01 927.15 C 732.13 917.46 723.66 909.35 715.88 905.24 C 701.40 897.12 684.26 892.87 672.49 880.55 C 664.61 872.51 663.04 860.87 659.34 850.77 C 648.08 841.20 635.15 833.70 621.59 827.89 M 483.16 874.28 C 521.20 890.44 542.37 928.54 575.32 951.64 C 590.84 961.92 609.79 964.68 627.91 966.73 C 643.53 967.74 659.33 967.63 674.74 964.59 C 665.90 933.40 642.07 909.04 616.16 890.88 C 605.90 913.83 584.39 929.51 562.03 939.41 C 563.11 936.12 564.50 932.94 566.05 929.85 C 565.11 926.31 564.15 922.73 564.23 919.04 C 560.50 921.57 556.60 923.89 552.35 925.42 C 553.73 920.50 555.58 915.73 557.86 911.17 C 553.58 904.78 554.94 896.78 557.78 890.13 C 554.24 891.37 550.54 892.16 546.78 892.09 C 549.30 887.44 552.32 883.08 555.82 879.12 C 550.80 870.90 552.44 860.69 555.90 852.21 C 547.79 847.01 539.62 841.87 531.92 836.08 C 515.44 848.47 496.49 858.13 483.16 874.28 M 900.62 842.63 C 893.92 845.59 891.66 854.25 893.36 860.89 C 896.48 870.17 909.75 873.77 916.89 866.80 C 917.36 862.54 919.67 858.88 921.03 854.95 C 920.23 845.71 909.23 838.86 900.62 842.63 M 619.21 881.15 C 618.71 882.99 618.24 884.85 617.79 886.72 C 644.86 905.79 669.59 931.09 678.98 963.66 C 680.41 963.31 681.83 962.96 683.29 962.66 C 674.27 928.07 647.57 901.31 619.21 881.15 Z"
       id="path181"
       style="fill:#000000" />
    <path
       fill="#4f4f4f"
       opacity="1.00"
       d=" M 660.10 138.22 C 673.59 122.72 696.16 115.40 716.09 120.88 C 716.04 121.71 715.94 123.36 715.89 124.19 C 709.61 124.45 703.42 122.10 697.16 123.48 C 684.31 124.82 672.41 131.27 663.50 140.50 C 661.93 142.82 658.31 140.58 660.10 138.22 Z"
       id="path183"
       style="fill:#000000" />
    <path
       fill="#4f4f4f"
       opacity="1.00"
       d=" M 720.19 158.09 C 724.36 156.75 728.97 160.60 728.03 164.97 C 727.66 169.79 720.82 171.88 717.65 168.35 C 714.40 165.36 715.86 159.19 720.19 158.09 Z"
       id="path185"
       style="fill:#000000" />
    <path
       fill="#4f4f4f"
       opacity="1.00"
       d=" M 197.21 673.16 C 200.56 672.17 205.01 673.26 205.78 677.15 C 207.49 683.38 198.09 687.59 194.27 682.60 C 191.49 679.44 193.56 674.52 197.21 673.16 Z"
       id="path187"
       style="fill:#000000" />
    <path
       fill="#4f4f4f"
       opacity="1.00"
       d=" M 163.20 704.01 C 165.91 703.16 165.99 706.64 166.77 708.33 C 172.18 725.12 188.02 736.69 204.85 740.27 C 207.88 740.50 207.01 745.29 204.03 744.20 C 184.97 740.71 167.53 726.71 162.16 707.75 C 161.82 706.35 161.59 704.66 163.20 704.01 Z"
       id="path189"
       style="fill:#000000" />
    <path
       fill="#4f4f4f"
       opacity="1.00"
       d=" M 952.87 817.91 C 954.19 817.86 955.52 817.83 956.86 817.83 C 962.91 836.68 958.87 859.31 943.97 872.98 C 941.20 871.50 941.82 868.67 943.95 866.99 C 955.95 853.82 957.45 834.46 952.87 817.91 Z"
       id="path191"
       style="fill:#000000" />
    <path
       fill="#4f4f4f"
       opacity="1.00"
       d=" M 903.30 851.31 C 907.44 849.27 912.86 853.00 911.71 857.66 C 911.17 862.73 903.53 864.12 901.05 859.83 C 898.86 857.09 900.10 852.64 903.30 851.31 Z"
       id="path193"
       style="fill:#000000" />
  </g>
</svg>
