<?xml version="1.0" encoding="UTF-8" standalone="no"?>
<svg
   xmlns:dc="http://purl.org/dc/elements/1.1/"
   xmlns:cc="http://creativecommons.org/ns#"
   xmlns:rdf="http://www.w3.org/1999/02/22-rdf-syntax-ns#"
   xmlns:svg="http://www.w3.org/2000/svg"
   xmlns="http://www.w3.org/2000/svg"
   id="svg3934"
   version="1.1"
   viewBox="0 0 210 297"
   height="297mm"
   width="210mm">
  <title
     id="title4596">Chibi Princess</title>
  <defs
     id="defs3928" />
  <metadata
     id="metadata3931">
    <rdf:RDF>
      <cc:Work
         rdf:about="">
        <dc:format>image/svg+xml</dc:format>
        <dc:type
           rdf:resource="http://purl.org/dc/dcmitype/StillImage" />
        <dc:title>Chibi Princess</dc:title>
        <dc:date>2020-04-10</dc:date>
        <dc:creator>
          <cc:Agent>
            <dc:title>Lena London</dc:title>
          </cc:Agent>
        </dc:creator>
        <dc:source>http://www.supercoloring.com/coloring-pages/cute-chibi-princess</dc:source>
        <dc:language>csk, princess</dc:language>
      </cc:Work>
    </rdf:RDF>
  </metadata>
  <g
     id="layer1">
    <path
       id="path4504"
       d="m 86.265234,31.957259 v 5.29e-4 c -0.106468,0 -0.202282,0.385022 -0.270266,0.990638 -0.08324,0.49182 -0.101804,1.192707 -0.101804,2.120802 v 0.0052 c -1.1e-5,0.228849 -0.0019,0.416809 -0.0036,0.612881 -7.94e-4,0.098 -5.29e-4,0.21622 -0.0021,0.306443 -1.3e-5,7.94e-4 1.1e-5,0.0019 0,0.0026 -0.0043,0.270957 -0.0114,0.507732 -0.02223,0.713136 -0.02707,0.513607 -0.07801,0.833081 -0.171047,1.013892 -2.65e-4,5.29e-4 -7.94e-4,0.0013 -0.0011,0.0021 -0.130987,0.245195 -0.344855,0.215824 -0.69143,0.06356 -1.120746,-0.492379 -3.127021,-0.728686 -4.356841,-0.61133 -0.01241,7.94e-4 -0.02339,0.0027 -0.03565,0.0036 -0.03463,0.0035 -0.07109,0.0057 -0.104386,0.0098 -0.486926,0.04566 -0.841542,0.14665 -0.944129,0.312642 -0.01328,0.02148 -0.02138,0.04866 -0.02585,0.07958 -0.161567,0.02719 -0.204269,0.09001 -0.132291,0.229444 -0.08413,0.09263 -0.132808,0.196853 -0.132808,0.314193 0,0.249835 0.186828,0.454234 0.414962,0.454234 0.01998,0 0.04735,0.01056 0.07803,0.02585 0.06409,0.09964 0.14958,0.214931 0.239779,0.33383 0.224811,0.355878 0.525068,0.76836 0.922424,1.258837 2.276248,2.80969 3.439584,5.108609 3.439584,6.796484 0,1.153443 -0.188466,1.311016 -1.400948,1.171507 -1.001689,-0.115258 -1.618866,-0.630159 -2.165244,-1.806094 -0.280657,-0.604038 -0.623176,-1.130797 -0.900202,-1.420066 l -0.119891,-0.315227 -0.144693,0.102835 c -0.03042,-0.01349 -0.05931,-0.02267 -0.08475,-0.02326 -0.73164,-0.01662 -3.845246,3.149272 -3.845246,3.909841 0,0.835771 -0.233455,0.831458 -1.935797,-0.03824 -5.027782,-2.568615 -11.01716,-0.429427 -12.412681,4.43384 -0.775512,2.702591 -0.64517,2.594737 -2.038117,1.697053 -3.023762,-1.948661 -6.89995,-1.52023 -9.445934,0.933275 -0.710809,0.581856 -1.28492,1.233633 -1.620573,1.869655 -0.46867,0.563835 -1.039376,1.255665 -1.255739,1.508434 -1.506993,1.760564 -5.998991,1.663925 -8.625314,-0.185518 -0.74205,-0.522549 -0.994219,-0.499774 -1.393195,0.12609 -0.798124,1.251998 -0.574122,3.209814 0.643371,5.619814 1.274345,2.522534 3.619141,4.319383 6.283339,4.84053 0.321212,0.07845 0.647305,0.139222 0.977717,0.178801 1.070957,0.215635 1.111753,0.427916 0.691946,1.212328 -1.039865,1.943008 -1.40857,4.003657 -0.937926,5.241542 0.01794,0.0472 0.02922,0.08638 0.04496,0.130741 -0.05352,0.608155 -0.193162,1.090268 -0.464572,1.569929 -0.02328,0.01312 -0.04148,0.02606 -0.06615,0.03928 -0.97994,0.524449 -2.27961,2.999377 -3.843176,7.318417 -0.489952,1.353399 -1.678368,3.248816 -2.641182,4.211627 -0.471656,0.471659 -0.865658,0.954222 -1.127061,1.35754 -0.313963,0.361304 -0.495697,0.604869 -0.458372,0.635103 0.03803,0.03081 0.08026,0.06126 0.122991,0.09198 -0.0085,0.06941 -0.0032,0.127093 0.0217,0.167431 0.07418,0.120026 0.341784,0.279477 0.714685,0.446484 0.249036,0.144799 0.596069,0.275561 0.987536,0.374137 0.275518,0.08927 0.567214,0.174599 0.865063,0.249597 1.932157,0.486524 2.220098,0.725154 1.999361,1.655715 -1.126929,4.750859 -5.160775,25.178565 -6.376352,32.290535 -2.036774,11.91649 -2.318929,17.27556 -1.311549,24.89564 2.02336,15.30519 7.210974,27.49455 15.853294,37.25095 2.385897,2.69346 4.743734,5.05127 6.213576,6.27765 0.589992,0.51945 1.041082,0.85709 1.272273,0.92605 0.0532,0.0309 0.09206,0.0465 0.104386,0.0341 0.0046,-0.005 0.0046,-0.0179 0.0062,-0.0284 0.014,-0.004 0.02932,-0.006 0.03876,-0.0155 0.0039,-0.004 0.0035,-0.0169 0.0057,-0.0243 0.01646,-0.005 0.03083,-0.0117 0.04186,-0.0227 0.151686,-0.15168 -0.862869,-2.65014 -2.254125,-5.55211 -4.722993,-9.85153 -6.797313,-18.64218 -6.895703,-29.22199 -0.06728,-7.23431 0.514151,-13.50099 1.252638,-13.50099 0.25791,0 0.46922,0.41344 0.46922,0.91881 0,1.34468 2.924109,9.73248 7.139617,20.47937 4.001786,10.20203 8.144722,22.03966 8.144722,23.27248 0,0.42226 -1.743753,2.6381 -3.875215,4.92373 -9.807257,10.51662 -19.644037,25.86753 -23.638351,36.88974 -0.649666,1.79274 -0.955125,2.57446 -1.436087,2.91713 l -3.224093,-0.0791 c -0.553017,-0.0135 -1.236909,-0.0363 -1.90531,-0.0543 -0.137009,-0.0108 -0.274331,-0.0221 -0.410828,-0.032 -0.302132,-0.0482 -0.60942,-0.0956 -0.892969,-0.1478 -3.345223,-0.61638 -8.942089,-0.21402 -8.942089,0.64286 0,0.27446 1.203647,0.4701 2.674772,0.4346 1.471125,-0.0355 4.921202,0.10256 7.666715,0.30696 4.095103,0.30485 4.940121,0.50652 4.703589,1.12292 -0.158581,0.41325 -0.544198,1.76717 -0.856795,3.00861 -0.750784,2.98163 -0.111548,4.32379 2.998782,6.29728 4.072758,2.58415 8.312764,3.63487 13.939203,3.45406 4.846851,-0.15576 4.903036,-0.14409 6.708632,1.44125 2.780228,2.44108 6.062453,3.61747 10.97349,3.86799 1.246185,0.097 2.522268,0.112 3.808037,0.0289 2.718427,-0.0719 4.640278,-0.32778 5.901449,-0.78961 0.876184,-0.32085 1.422098,-0.50345 1.873271,-0.5426 0.392007,0.0172 0.812025,0.13024 1.322398,0.34519 0.186598,0.10054 0.386596,0.21516 0.625287,0.36071 0.863725,0.52667 1.920124,0.95775 2.380732,0.97513 0.450844,0.27236 0.847214,0.54727 1.149802,0.80047 0.09159,0.13033 0.175104,0.269 0.241845,0.41547 0.894255,1.96268 3.804478,5.00099 5.454446,5.69476 2.505972,1.0537 4.274707,-0.6527 5.046721,-4.86794 0.301479,-1.64608 0.55172,-1.85298 3.252522,-2.69078 2.82601,-0.8767 3.0212,-0.87509 5.72781,0.0481 1.93428,0.65972 2.84868,1.25635 2.95228,1.92649 0.33897,2.19274 1.78219,5.34538 2.66288,5.81671 0.59567,0.31872 1.39978,0.32938 2.19005,0.0289 1.4731,-0.56007 4.74627,-3.81188 5.71283,-5.6756 0.43261,-0.83416 1.42473,-1.53335 2.73007,-1.92444 1.12772,-0.33787 2.18076,-0.82512 2.33991,-1.08262 0.16692,-0.27008 1.19967,-0.14606 2.44119,0.293 3.45542,1.22206 9.28865,1.44835 13.25345,0.51418 4.04698,-0.95354 5.72881,-1.75184 7.8326,-3.71708 1.17258,-1.09532 1.57497,-1.35186 4.39973,-1.41283 0.39145,0.0224 0.81555,0.0489 1.30897,0.0806 0.36684,0.0236 0.73457,0.0372 1.10277,0.045 0.12787,0.0171 0.2908,0.0274 0.493,0.0274 0.18782,0 0.34314,-0.009 0.46715,-0.0238 1.20508,-0.0183 2.40589,-0.11865 3.57859,-0.29043 3.96789,-0.31981 6.44916,-1.23662 9.1457,-3.18998 2.2337,-1.61809 3.14153,-2.55829 3.23804,-3.98942 0.0485,-0.26573 0.0361,-0.55723 -0.0346,-0.93483 -0.0622,-0.49254 -0.18357,-1.0458 -0.35605,-1.69395 -0.50494,-1.89745 -0.73237,-2.83481 -0.70332,-3.21118 0.12008,-0.0307 0.29464,-0.0504 0.48628,-0.0667 0.0142,0.008 0.0239,0.0115 0.0388,0.0207 0.31691,0.19585 4.27183,0.40992 8.78861,0.47542 4.51678,0.0655 8.64498,0.29918 9.1736,0.51935 0.68389,0.28484 0.88,0.21432 0.73639,-0.26458 0.2374,-0.15051 0.007,-0.44309 -0.80616,-0.81288 -0.0702,-0.0319 -0.21948,-0.0638 -0.40927,-0.0956 -1.4017,-0.39148 -4.2623,-0.52366 -9.97252,-0.56689 -5.71131,-0.0432 -8.09872,-0.24028 -8.446,-0.69711 -0.26628,-0.35027 -0.90192,-1.78324 -1.41231,-3.18431 -3.46755,-9.51876 -11.64134,-22.74419 -20.60236,-33.33491 l -1.73323,-2.04794 c -0.62252,-0.9505 -0.82767,-1.64761 -0.84956,-2.52284 l 0.3855,-2.6448 c 0.31588,-2.1673 1.07388,-5.65893 1.68414,-7.75922 l 1.10949,-3.81888 1.25006,2.37349 c 2.18414,4.1469 5.90929,7.21352 8.76225,7.21352 1.01602,0 0.99155,-0.11172 -0.46457,-2.12184 -2.00015,-2.76112 -3.22348,-6.21668 -3.6835,-10.59108 -0.088,-1.45733 -0.12555,-3.1267 -0.12764,-5.11855 -7.9e-4,-0.77536 0.003,-1.47917 0.009,-2.14922 0.23146,-4.13229 0.9136,-8.87944 2.0438,-14.34848 0.60442,-2.92472 1.08805,-5.33055 1.2025,-5.96708 0.21638,-0.078 0.60157,0.008 1.17358,0.25115 0.16864,0.0965 0.34291,0.1971 0.53071,0.31161 0.80264,0.48937 1.8648,0.8423 2.67478,0.97461 0.10185,0.02 0.19209,0.0331 0.26458,0.0357 0.65747,0.0715 1.0742,-0.0353 0.8971,-0.37931 -1.86901,-3.63087 -2.11438,-4.78074 -2.32854,-10.91716 l -0.22531,-6.45904 2.50838,2.41795 c 2.92043,2.81493 6.0981,4.47806 8.80049,4.62658 0.47819,0.0507 0.93925,0.0525 1.37976,0.003 0.43175,-0.0202 0.79628,-0.0676 1.10691,-0.13488 1.00435,-0.16357 1.60714,-0.45359 1.60714,-0.82113 0,-0.19234 -1.3244,-1.71515 -2.94297,-3.38429 -3.54151,-3.65213 -7.62175,-11.45883 -9.53844,-18.24902 -1.05933,-3.75283 -1.27434,-5.62042 -1.27434,-11.06341 0,-6.08377 0.0739,-6.58789 1.04593,-7.10809 0.90597,-0.48486 1.66638,-1.414676 2.19573,-2.513536 1.7e-4,-2.6e-4 2.5e-4,-7.9e-4 5.3e-4,-0.001 0.50258,-0.83174 0.74992,-1.70259 0.76171,-2.66547 0.11846,-1.08782 -0.002,-2.143022 -0.43718,-2.95641 -0.003,-0.0049 -0.004,-0.0086 -0.007,-0.01344 -0.0424,-0.50632 0.0593,-0.842685 0.35915,-1.206646 0.0349,-0.01228 0.0641,-0.02508 0.10232,-0.03721 0.53008,-0.168241 1.24522,-0.986137 1.58957,-1.81746 0.8955,-2.161926 -0.0905,-4.348454 -2.28772,-5.073592 -1.60611,-0.530069 -1.65681,-0.629859 -1.41387,-2.785359 0.15697,-1.392589 0.11782,-2.039069 -0.35863,-2.734201 -0.22774,-0.4415 -0.55175,-0.799415 -0.96118,-1.058849 -0.74671,-0.6755 -1.5724,-1.0628 -2.04794,-0.938446 -0.33895,0.08865 -0.54574,0.08498 -0.65371,-0.06201 -0.0314,-0.06746 -0.0587,-0.142409 -0.0801,-0.230476 -0.0288,-0.202475 -0.007,-0.499113 0.0553,-0.922941 0.24682,-1.681742 -0.0447,-3.044856 -1.01079,-4.504637 -0.23549,-0.404788 -0.52148,-0.779854 -0.86041,-1.128096 -0.0385,-0.04482 -0.0745,-0.08867 -0.11421,-0.133842 -1.79906,-2.049023 -4.39104,-2.781051 -6.47867,-1.829861 -1.22643,0.558798 -1.46159,0.48173 -2.53473,-0.827857 -5.88592,-7.182816 -10.27398,-10.876534 -16.77986,-14.124202 -7.54666,-3.767452 -14.99259,-5.671658 -25.23194,-6.452497 -8.360979,-0.637595 -9.824947,-1.279527 -10.541981,-4.622974 -0.168254,-0.784532 -0.26298,-1.5225 -0.28784,-2.229837 1.5e-4,-0.328634 0.0032,-0.626417 0.0088,-0.909505 0.08729,-1.528215 0.5412,-2.925046 1.389062,-4.337204 0.555636,-0.925433 0.869699,-1.823153 0.697632,-1.995225 -0.484764,-0.484762 -1.685099,-0.459608 -2.841172,-0.08578 -0.588759,0.0972 -1.072206,0.333248 -1.519285,0.743622 -0.15058,0.106317 -0.293987,0.217283 -0.421164,0.336931 l -1.390097,1.30793 -2.538346,-1.732192 c -1.533922,-1.047081 -2.456847,-1.620785 -3.011186,-1.636078 -0.136052,-0.05734 -0.246952,-0.09663 -0.301789,-0.09663 -0.02125,0 -0.04207,0.009 -0.06253,0.02273 -0.03043,-0.0093 -0.06688,-0.02273 -0.08268,-0.02273 z m 0.913122,1.668114 2.545583,1.628325 c 1.546619,0.989361 2.979581,1.797555 3.1843,1.795756 0.204719,-0.0019 0.762892,-0.689719 1.240234,-1.528588 0.195887,-0.344249 0.424135,-0.643795 0.666626,-0.884185 0.479753,-0.38224 0.971923,-0.634587 1.306899,-0.639754 0.08532,2.62e-4 0.163607,0.0013 0.233576,0.0036 0.01315,5.29e-4 0.03131,-3.7e-5 0.04393,5.29e-4 7.93e-4,3.4e-5 0.0019,-3.7e-5 0.0026,0 0.05094,0.0021 0.08697,0.0085 0.129191,0.01291 0.04638,0.0051 0.09793,0.0085 0.134361,0.01757 0.08695,0.02162 0.144478,0.05649 0.176215,0.110588 0.0049,0.01061 0.01101,0.02035 0.01344,0.03256 0.0033,0.01675 0.0029,0.03582 0.0016,0.05581 -0.0127,0.0476 -0.02716,0.09791 -0.04237,0.149863 -0.07081,0.183248 -0.234664,0.447926 -0.498162,0.850077 -0.915694,1.397524 -1.196539,5.216546 -0.592728,8.06359 l 0.38344,1.807641 c -0.08898,0.03611 -0.207937,0.06045 -0.36122,0.07545 -0.255717,-0.0064 -0.524063,0.0049 -0.800984,0.02585 -0.05572,1.94e-4 -0.09841,0.0016 -0.158131,0.0016 h -0.384471 c -0.949582,0 -2.965873,0.434694 -4.480864,0.966348 -1.514991,0.531654 -3.155913,1.129223 -3.646289,1.328084 -0.291174,0.118081 -0.495382,0.154527 -0.634588,0.09354 -0.02993,-0.06029 -0.100758,-0.232514 -0.197403,-0.476975 -0.01513,-0.05123 -0.03744,-0.134514 -0.05374,-0.190685 -0.0021,-0.05193 -0.0057,-0.0993 -0.0057,-0.157613 0,-1.292992 -1.673616,-4.712232 -3.445785,-7.039882 -1.163325,-1.527964 -1.18555,-1.655712 -0.288869,-1.655712 0.534439,0 1.813644,0.429297 2.84272,0.953947 1.029073,0.524653 1.994575,0.830061 2.145604,0.679029 0.08913,-0.08913 0.16524,-0.663326 0.215493,-1.435055 0.0724,-0.496718 0.130341,-1.097031 0.162263,-1.74408 l 0.139526,-2.8267 c 0.0085,-0.02838 0.01635,-0.05292 0.02376,-0.07338 z m 8.121986,12.667445 c 1.234681,0.0049 2.260317,0.301572 3.337264,0.873331 0.472606,0.25091 1.09076,0.46223 1.884644,0.642337 0.67114,0.2368 1.49129,0.360844 2.63653,0.415481 0.81646,0.09034 1.73041,0.168436 2.7745,0.234608 18.6229,1.180352 32.67447,7.48946 41.38662,18.582331 l 2.03967,2.597255 0.0982,0.146246 -1.46503,2.784843 c -0.80943,1.538756 -1.47122,3.354427 -1.47122,4.034896 v 0.703315 c -0.0995,0.144894 -0.1976,0.247833 -0.31162,0.293524 l -0.047,-0.02429 -1.05937,-0.783415 c -1.57271,-1.16276 -3.5255,-1.589085 -5.25239,-1.35444 -0.0324,0.004 -0.0645,0.0087 -0.0966,0.01344 -1.60744,0.242671 -3.00737,1.062578 -3.70158,2.405023 -0.13034,0.252053 -0.23983,0.504113 -0.33538,0.756026 -0.20806,0.401799 -0.30989,0.794909 -0.33383,1.280025 -0.24307,1.694257 0.28856,3.444409 1.62626,5.432226 l 1.69757,2.522326 -1.70429,1.85932 c -1.95474,2.132983 -2.19986,2.231231 -2.19986,0.877982 0,-1.957276 -2.95878,-9.277447 -5.39967,-13.359391 -1.28793,-2.153822 -3.33278,-4.758725 -5.5175,-7.164422 -0.53803,-0.606147 -1.08395,-1.187096 -1.63556,-1.738395 -0.0638,-0.06524 -0.12741,-0.127608 -0.1912,-0.192235 -2.10854,-2.136159 -4.19147,-3.929846 -5.71851,-4.810559 -2.09482,-1.208172 -3.0628,-1.469152 -2.85616,-1.03663 -0.0506,0.02897 -0.0796,0.07691 -0.0796,0.149344 0,0.232556 0.57049,0.663425 1.3193,1.016477 0.38369,0.291115 0.84473,0.619138 1.40663,0.98857 5.26961,3.464563 10.0615,9.253506 13.44672,15.820739 0.0778,0.154099 0.15659,0.306824 0.23358,0.461987 0.0207,0.04122 0.0409,0.08274 0.0615,0.124023 0.17234,0.348925 0.34302,0.699842 0.51004,1.051616 10e-4,0.0021 0.002,0.0045 0.003,0.0067 0.004,0.0078 0.007,0.01551 0.0108,0.02326 0.10748,0.226637 0.21096,0.453297 0.31574,0.680061 1.75543,3.884372 3.00668,7.967615 3.57188,11.952761 0.49303,3.47638 0.002,12.086686 -0.75965,13.319076 -0.17697,0.28635 -1.02112,-0.87904 -1.87585,-2.5895 -2.86491,-5.733206 -9.02876,-10.949865 -21.04626,-17.813382 -6.6605,-3.803991 -9.76644,-5.944126 -10.17561,-7.010424 -0.0352,-0.09167 -0.0419,-0.205946 -0.032,-0.330729 0.15976,-0.467812 0.56718,-1.186492 1.10588,-1.959054 6.1737,-6.913912 7.08634,-17.687385 2.09186,-25.145751 -0.90027,-1.344388 -2.08814,-2.525969 -2.65462,-2.644283 l -0.31471,-0.340548 0.22531,0.326594 c -0.75463,-0.118991 -0.62231,0.164663 0.68471,1.533239 2.42975,2.544181 3.88855,6.474719 4.16512,10.577132 0.0229,0.777771 0.0144,1.595463 -0.0284,2.474785 -0.0337,0.692153 -0.0803,1.343282 -0.14366,1.966804 -0.16255,1.094811 -0.41437,2.170607 -0.76378,3.203424 -0.82718,2.44506 -1.55344,4.122182 -3.30315,6.291604 -0.30141,0.368498 -0.62157,0.745675 -0.96791,1.135332 -2.467296,2.752069 -6.572057,6.453735 -14.089057,13.086022 -7.694539,6.788939 -14.304259,13.743795 -17.386017,18.293965 -1.13787,1.68005 -2.442022,4.01795 -3.631822,6.42442 -0.406823,0.79588 -0.78341,1.59342 -1.133779,2.39468 -0.998072,2.20123 -1.821884,4.29698 -2.24431,5.82136 -1.998239,7.21089 -1.838248,15.28108 0.448554,22.62859 l 0.855244,2.74763 c -0.0037,0.0123 -0.0084,0.0223 -0.01447,0.0284 -0.0429,0.0429 -0.150622,-7.9e-4 -0.30489,-0.10903 l -1.129647,-1.06919 c -0.09567,-0.0906 -0.195315,-0.19243 -0.294039,-0.29145 -0.526286,-0.56317 -1.125654,-1.24671 -1.743565,-1.97921 -2.030375,-2.53924 -4.266726,-6.05458 -5.754169,-9.14983 -3.77109,-7.84729 -5.547897,-16.46559 -5.561417,-26.98078 -0.0052,-4.06311 0.266877,-8.64838 0.604097,-10.189556 1.243621,-5.683672 1.269217,-5.881863 0.697632,-5.349543 -1.195303,1.113193 -2.205945,6.851299 -2.467549,14.010509 -0.321326,8.79353 0.532532,15.41508 2.914549,22.59862 l 1.585434,4.78007 -1.366324,2.69596 c -0.75138,1.48278 -1.941947,4.89448 -2.645834,7.58145 -0.248644,0.94916 -0.467537,2.02221 -0.662492,3.16828 -0.257437,1.24034 -0.420167,2.40707 -0.523484,3.85765 -0.676031,6.38945 -0.645017,13.96566 0.245981,18.74821 0.248962,1.33633 0.587822,2.8037 0.98702,4.32428 0.640535,2.83798 1.527357,5.60699 2.709397,8.54418 0.792175,2.12659 1.622403,4.09492 2.421556,5.68182 1.000477,1.98668 1.722731,3.61219 1.605071,3.61219 -0.06879,0 -0.265784,-0.16304 -0.545703,-0.43357 -0.342585,-0.35596 -0.851818,-0.89809 -1.326536,-1.40043 -1.697837,-1.88197 -4.167002,-4.84129 -5.849771,-7.08174 -8.72881,-11.62158 -13.612767,-28.59431 -12.811104,-44.52234 0.349261,-6.93939 4.407239,-31.1615 7.744746,-46.228183 0.0075,-0.03391 0.01781,-0.06851 0.02946,-0.103355 0.02532,-0.06112 0.05096,-0.119909 0.077,-0.175183 0.224488,-0.447429 0.733271,-0.931185 1.330669,-1.266589 0.0199,-0.01032 0.03747,-0.02 0.05788,-0.03049 0.02032,-0.01042 0.04874,-0.02734 0.07028,-0.03876 0.0914,-0.04699 0.183555,-0.09286 0.277501,-0.131773 0.8817,-0.365213 2.666216,-1.503969 3.965651,-2.531113 2.420713,-1.913467 4.625361,-3.261233 4.843632,-2.96106 0.04046,0.05564 0.279442,0.444187 0.578776,0.93586 0.0834,0.155313 0.181938,0.318389 0.296106,0.48886 0.125143,0.206841 0.228018,0.374856 0.363283,0.599964 1.373148,2.285132 4.02339,3.615767 7.762836,3.897953 3.484583,0.262953 6.166217,-0.943774 8.715229,-3.921726 0.365517,-0.427016 0.674166,-0.755295 0.947745,-1.012341 0.494853,-0.365522 0.90546,-0.550013 1.360641,-0.620117 0.05657,0.0195 0.112025,0.04415 0.1664,0.07855 1.140444,0.721386 1.800418,0.58003 3.400308,-0.748277 0.842269,-0.540191 1.464424,-1.353568 1.626775,-2.245341 0.02755,-0.114181 0.04599,-0.224343 0.04599,-0.324527 0,-0.11843 0.0034,-0.21971 0.0098,-0.314709 0.0019,-0.02677 0.0032,-0.05501 0.0062,-0.0801 0.0033,-0.03223 0.0066,-0.06416 0.01138,-0.09354 0.05463,-0.264374 0.208965,-0.424405 0.567407,-0.516247 0.338306,-0.04189 0.86478,0.0031 1.689819,0.09612 4.040129,0.455382 6.834032,-1.499608 7.92303,-5.543849 0.544997,-2.023954 0.167304,-4.339045 -0.969965,-6.288503 -0.307562,-0.629237 -0.6932,-1.170842 -1.154451,-1.578716 L 84.854932,68.21599 c 0.02373,-0.09308 0.07042,-0.202097 0.132292,-0.323493 l 0.857313,-1.08934 c 3.59728,-4.573204 1.367716,-10.15588 -3.91914,-11.032403 -0.863783,-0.241339 -1.713731,-0.332282 -2.433445,-0.215489 -0.161975,0.0263 -0.301273,0.04656 -0.435115,0.06459 -0.524388,-0.0322 -0.847288,-0.09989 -1.03663,-0.238228 -0.08244,-0.111392 -0.163462,-0.25671 -0.245977,-0.43615 -0.02339,-0.131032 -0.03127,-0.284832 -0.03153,-0.468704 -7.93e-4,-0.644398 -0.363238,-1.871461 -0.805635,-2.726965 -0.664437,-1.284878 -0.696735,-1.815552 -0.185002,-3.050977 0.722678,-1.744705 2.596518,-3.004111 2.939357,-1.975591 0.435642,1.306926 2.164027,2.556833 3.526917,2.550232 0.770589,-0.0038 3.349612,-0.688724 5.731433,-1.52187 2.830108,-0.989955 4.763069,-1.465199 6.350516,-1.458825 z M 69.065767,48.79344 c 3.562318,-0.0075 7.147367,2.361404 7.147367,6.355683 v 2.165244 l 0.09354,-0.0078 -0.0026,0.186037 1.167889,-0.279054 2.035016,-0.163298 c 0.908823,-0.07295 1.563682,-0.12238 2.083078,-0.117822 0.691798,0.116806 1.328925,0.325888 1.899108,0.615466 0.329909,0.260715 0.691946,0.617016 1.178224,1.103292 0.591079,0.591081 0.99024,1.019868 1.253154,1.409215 0.210671,0.471636 0.355306,0.987044 0.426847,1.54151 -0.008,0.284353 -0.04149,0.605687 -0.09354,0.993738 -0.167367,1.247834 -0.909817,2.864083 -1.857766,4.04368 l -1.579232,1.965254 1.309481,0.857829 c 1.766668,1.157568 2.785875,3.279508 2.785875,5.801196 0,4.56978 -2.798332,6.973851 -7.477578,6.423898 l -2.711979,-0.318844 v 1.775603 c 0,2.046774 -1.799357,3.633901 -3.505729,3.092318 -0.271285,-0.0861 -0.466373,-0.184052 -0.599448,-0.326597 -0.0013,-0.0024 -0.0028,-0.0048 -0.0041,-0.0072 -0.0094,-0.0172 -0.01892,-0.03429 -0.02739,-0.05271 -0.112768,-0.260792 -0.11375,-0.658889 -0.0646,-1.288293 0.02347,-0.300385 0.02864,-0.553757 0.02119,-0.768946 0.198456,-1.878433 -0.726393,-1.885468 -1.185458,0.20464 -0.437441,1.991656 -4.018441,5.96012 -6.208924,6.880717 -0.262112,0.110156 -0.497237,0.199461 -0.722953,0.278534 -0.68289,0.180399 -1.398704,0.27993 -2.121318,0.305409 -0.620051,-0.0381 -1.363718,-0.162922 -2.39417,-0.368969 -4.152267,-0.830276 -6.113838,-3.033861 -6.113838,-6.868832 0,-1.484337 0.325753,-3.085135 0.751377,-3.692798 0.369467,-0.527492 0.548955,-0.795038 0.250629,-0.899686 0.0032,-0.01016 0.01704,-0.04104 0.01704,-0.04496 0,-0.0089 -0.02756,-0.01056 -0.06718,-0.0083 -0.0058,-0.106318 -0.08326,-0.125201 -0.235127,-0.07596 -0.117999,-0.0967 -0.349708,-0.06007 -0.702284,0.09043 -0.424942,0.02096 -0.972648,0.06323 -1.70429,0.121957 -1.289603,0.103516 -2.057394,0.159377 -2.628778,0.06718 -0.456134,-0.186846 -0.903131,-0.43212 -1.326536,-0.725537 -0.249539,-0.242975 -0.523483,-0.550543 -0.871781,-0.94723 -0.875964,-0.997669 -1.412346,-1.92795 -1.608688,-2.836002 -0.01606,-0.216855 -0.02635,-0.445045 -0.02635,-0.699699 0,-0.37465 0.02985,-0.734901 0.08423,-1.081071 0.263361,-0.932106 0.892683,-1.872983 1.893943,-2.874243 0.83938,-0.83938 1.42344,-1.334926 2.02365,-1.620573 0.547237,-0.176395 1.141193,-0.295214 1.778185,-0.349848 0.09185,-0.0021 0.175538,-0.0078 0.273883,-0.0078 0.379521,0 0.698119,-0.01209 0.969452,-0.03411 l 1.383377,-0.01913 -0.393258,-0.267169 c 0.185764,-0.25577 -0.275918,-0.675502 -1.382861,-1.305345 -3.596804,-2.046563 -4.824497,-7.683267 -2.237073,-10.270691 1.550389,-1.55039 4.400738,-2.47409 6.274554,-2.032953 0.717608,0.168942 2.051298,0.86328 2.963643,1.542542 0.237455,0.176792 0.457414,0.327224 0.660942,0.452687 0.55971,0.571865 0.933397,0.782087 1.205611,0.551386 l 0.208772,0.159681 0.05219,-0.309541 c 0.369999,-0.154191 0.544153,-0.65214 0.544153,-1.509469 0,-0.695161 0.447286,-2.14004 0.993738,-3.211174 1.260398,-2.470592 3.687315,-3.588462 6.124689,-3.593579 z m 0.448035,11.238074 c -0.05697,-0.02713 -0.232122,0.172894 -0.495059,0.494027 -0.227457,0.08646 -0.462026,0.326488 -0.586013,0.61495 -0.500239,0.389493 -1.122722,0.532448 -1.937348,0.447 -0.847719,-0.08892 -2.429941,0.306687 -3.540868,0.885735 -1.104651,0.575773 -2.356675,0.913456 -2.781744,0.75034 -0.841285,-0.322831 -1.079313,0.581999 -0.282671,1.074354 0.311121,0.192283 0.298993,0.805765 -0.03359,1.680517 -0.288096,0.757753 -0.383783,2.124964 -0.212388,3.038575 0.04252,0.22664 0.07016,0.415788 0.09043,0.588595 -0.105986,0.568053 -0.230632,0.94506 -0.354499,0.988052 -0.06586,0.02286 -0.122264,0.05069 -0.174149,0.08113 -0.01331,2.65e-4 -0.02336,0.0036 -0.03721,0.0036 -0.433017,0 -0.787548,0.229317 -0.787548,0.509532 0,0.280212 0.515702,0.516649 1.146183,0.525547 1.4313,0.02011 3.942937,2.17288 3.964617,3.398242 0.01442,0.815613 0.06534,0.837822 0.599445,0.142629 0.198819,-0.03826 0.355809,-0.200205 0.393774,-0.405143 0.47802,-0.364567 1.240346,-0.604615 2.009699,-0.604615 0.898226,0 2.101646,-0.250381 2.673736,-0.556557 0.283056,-0.151484 0.522105,-0.245702 0.731739,-0.283186 0.26629,0.03304 0.548413,0.128212 0.869199,0.286806 0.308218,0.30448 1.024636,0.547743 1.5968,0.541567 1.019241,-0.01106 1.017177,-0.03239 -0.0894,-0.891418 -1.07157,-0.831847 -1.095097,-0.992333 -0.430982,-2.918169 0.386524,-1.120857 1.068374,-2.111848 1.51567,-2.20245 1.138098,-0.230521 1.018998,-1.108974 -0.150378,-1.108974 -0.320463,0 -0.609552,-0.142497 -0.838708,-0.388091 -0.07475,-0.09851 -0.153284,-0.212839 -0.232545,-0.329179 -5.29e-4,-0.01 -0.0031,-0.01937 -0.0031,-0.02946 0,-0.164012 -0.113196,-0.443891 -0.299204,-0.77928 -0.264824,-0.661323 -0.863343,-1.541751 -1.455208,-2.109949 -0.19862,-0.190677 -0.361506,-0.372049 -0.501264,-0.550354 -0.357941,-0.551638 -0.551352,-1.036413 -0.539501,-1.388028 -7.7e-5,-0.0075 5.29e-4,-0.01519 5.29e-4,-0.02273 0.0044,-0.07568 0.01844,-0.145383 0.04238,-0.20774 0.09086,-0.236765 0.107945,-0.449088 0.06459,-0.598929 0.07839,-0.393147 0.120544,-0.65032 0.0646,-0.676961 z m -22.38933,0.542602 c 0.458909,-0.02212 0.557588,0.264777 0.557588,1.081072 0,1.154414 -0.256997,1.320681 -2.523876,1.632458 -1.388157,0.190918 -2.793328,0.180377 -3.122808,-0.02326 -0.376838,-0.2329 -0.507426,-0.107778 -0.351917,0.337447 0.0771,0.220731 0.300157,0.373165 0.700733,0.473355 -0.0075,0.02561 -0.0076,0.05084 0.0072,0.07493 0.165923,0.26847 1.474023,0.327834 3.006016,0.136424 0.389176,-0.04863 0.710938,-0.08477 1.003557,-0.112654 1.008179,-0.01236 1.57726,0.04116 1.992127,0.276984 0.121364,0.07935 0.243099,0.175075 0.370004,0.289907 0.237162,0.241594 0.458642,0.576008 0.75551,1.042829 l 1.0728,1.686718 -1.617988,0.584978 c -2.522471,0.912138 -5.040074,0.704234 -6.935493,-0.57309 -1.964701,-1.324012 -3.789535,-3.838792 -4.012676,-5.453933 -0.01275,-0.156644 -0.01773,-0.315095 -0.01963,-0.474387 0.0024,-0.137263 0.0098,-0.25522 0.02273,-0.353468 0.03676,-0.15436 0.09238,-0.284199 0.173117,-0.374655 0.198599,-0.119324 0.590899,-0.0087 1.368909,0.262517 1.464921,0.510675 4.300596,0.348983 6.965466,-0.397391 0.242676,-0.06797 0.435623,-0.109413 0.588595,-0.11679 z m 18.849496,1.952337 c 4.411612,0 6.734479,5.371388 3.742923,8.654766 -2.167046,2.378441 -5.518957,2.433016 -7.578865,0.212908 -0.24203,-0.290981 -0.463241,-0.619419 -0.665075,-0.978233 -0.564801,-1.279345 -0.687118,-3.363482 -0.269235,-4.750099 0.262519,-0.56505 0.590928,-1.052698 0.969965,-1.461926 1.013817,-0.886164 2.695384,-1.677416 3.800287,-1.677416 z m -0.201022,1.528587 c -0.238903,0 -0.49062,0.06462 -0.744657,0.171567 -1.566394,0.508473 -3.080948,2.069203 -3.080948,3.40496 0,1.309648 0.9022,3.083835 1.994191,3.922241 0.595278,0.457039 1.293876,0.651127 2.00298,0.637686 0.04994,0.0063 0.102209,0.0155 0.146243,0.0155 0.09436,0 0.201375,-0.02098 0.313161,-0.05116 1.696757,-0.242359 3.335647,-1.619187 3.64267,-3.419946 0.03097,-0.102466 0.05271,-0.200076 0.05271,-0.286806 0,-0.0424 -0.0061,-0.08472 -0.0078,-0.127124 0.0034,-0.0635 0.0078,-0.126865 0.0078,-0.191202 0,-0.992658 -0.462283,-2.036863 -1.250569,-2.825152 -0.788289,-0.788286 -1.832494,-1.250569 -2.82515,-1.250569 -0.04103,0 -0.08317,0.0058 -0.124542,0.0078 -0.04204,-0.0016 -0.08405,-0.0078 -0.126089,-0.0078 z m 0.281635,1.118278 c 0.94056,0.01093 1.901304,0.480899 2.469619,1.4981 0.671726,1.202295 0.658942,1.481391 -0.122992,2.674773 -0.400132,0.610682 -0.905666,1.008192 -1.441254,1.219047 -0.875356,0.181626 -1.862416,-0.01019 -2.638084,-0.456303 -0.581242,-0.508355 -0.973066,-1.302303 -0.973066,-2.321822 0,-1.665748 1.331116,-2.629763 2.705777,-2.613795 z m 87.802909,4.121195 c 0.76257,0.0074 1.53866,0.22488 2.2996,0.674378 0.66871,0.395017 1.22049,0.863184 1.65675,1.398365 0.0178,0.02201 0.0357,0.0439 0.0532,0.06615 1.29691,1.643777 1.51631,3.91628 0.62631,6.717935 -0.0904,0.284569 -0.14587,0.492421 -0.14159,0.642339 -0.005,0.04095 -0.006,0.07843 -0.003,0.112654 -0.15111,0.442992 5.3e-4,0.479978 0.58653,0.250114 0.093,-0.01469 0.19606,-0.03648 0.31213,-0.0677 0.25653,-0.02125 0.5621,-0.05685 0.96273,-0.110588 1.84986,-0.248115 2.13048,-0.140559 2.65979,1.021128 0.52067,1.142762 0.46961,1.814285 -0.50385,4.295862 -0.22644,0.413832 -0.38308,0.740177 -0.43305,0.973582 -0.16737,0.449149 0.0157,0.647708 0.56276,0.634588 0.27416,0.04279 0.65272,0.05943 1.19166,0.05943 0.1294,0 0.25249,0.0028 0.3731,0.0072 0.0191,7.94e-4 0.039,0.0011 0.0579,0.0021 0.0191,7.94e-4 0.0364,0.0027 0.0553,0.0036 1.12638,0.07658 1.95704,0.512352 2.44016,1.112075 0.1964,0.369284 0.28681,0.838668 0.28681,1.422654 0,0.455359 -0.0749,0.861962 -0.21136,1.211294 -0.31173,0.465738 -0.80463,0.896313 -1.495,1.236102 -0.0606,0.02984 -0.10411,0.05486 -0.16019,0.0832 -0.0889,0.01032 -0.17954,0.01654 -0.27337,0.01654 -0.70987,0 -0.97432,0.151735 -0.81959,0.87023 -0.0431,0.20511 0.0396,0.441473 0.23668,0.759127 0.11431,0.314986 0.25275,0.669562 0.43873,1.11466 0.97398,2.331082 0.55984,4.033842 -1.37718,5.663742 -1.05492,0.887646 -2.36281,1.314996 -3.43131,1.231956 -0.007,-5.3e-4 -0.0135,-0.001 -0.0202,-0.002 -0.63878,-0.0536 -1.19059,-0.2909 -1.54874,-0.722436 -0.43349,-0.52233 -0.84574,-0.75708 -1.24075,-0.71365 -0.0715,-0.0274 -0.14181,-0.0356 -0.21084,-0.0243 l -0.0305,-0.0227 -0.0134,0.0305 c -0.0568,0.0161 -0.11215,0.0476 -0.1664,0.0899 -0.17437,0.0581 -0.31795,0.23023 -0.46457,0.5364 -0.25374,0.331516 -0.50077,0.792196 -0.74104,1.392676 -0.45175,1.12903 -1.23732,2.27509 -1.74563,2.54713 -2.84017,1.52001 -6.54412,-0.53243 -7.84035,-4.344956 l -0.69298,-2.03812 -0.0708,-0.006 -0.0398,-0.14211 -1.61179,0.015 -1.58699,-0.12196 c -3.79362,-0.29199 -5.44921,-1.38562 -5.45186,-3.60133 v -0.0031 -0.0021 c 0,-0.0011 5.3e-4,-0.0021 5.3e-4,-0.0031 0.003,-1.54791 2.21458,-4.542359 3.35638,-4.542359 0.57078,0 0.77791,-0.325757 0.65836,-0.817522 l 0.0439,-0.02687 -0.0388,-0.03514 0.008,-0.0057 -0.0444,-0.04134 c -0.002,-0.006 -0.003,-0.01154 -0.005,-0.01757 0.008,-0.179697 -0.1279,-0.409569 -0.41806,-0.75861 -0.19066,-0.2617 -0.4327,-0.537562 -0.7307,-0.817521 -0.008,-0.0071 -0.0147,-0.01455 -0.0222,-0.02169 -0.0265,-0.02845 -0.0449,-0.04912 -0.0724,-0.07855 -0.47518,-0.509572 -0.86996,-0.965581 -1.20251,-1.395781 -1.82969,-2.61312 -2.00882,-5.744194 -0.22117,-7.53184 0.23617,-0.236165 0.4442,-0.420685 0.64595,-0.57671 0.48831,-0.283006 1.04525,-0.474422 1.64641,-0.565338 0.34053,-0.0057 0.73716,0.02331 1.22732,0.07855 1.21407,0.136845 2.89418,0.737582 3.73362,1.33532 0.30676,0.218432 0.59599,0.411033 0.86197,0.581875 0.31147,0.278757 0.56441,0.427929 0.75964,0.447519 0.0723,0.03408 0.13064,0.05736 0.15761,0.05736 0.009,0 0.0184,-0.0042 0.0289,-0.01291 0.0122,0.0043 0.0307,0.01291 0.0367,0.01291 0.0293,0 0.0738,-0.0976 0.12402,-0.235646 0.0564,-0.09256 0.0967,-0.222117 0.12248,-0.384989 0.16598,-0.466408 0.36509,-1.149242 0.54932,-1.917195 1.04775,-4.367533 3.59604,-7.024045 6.31951,-6.997507 z m -39.16505,2.00298 c -0.0222,0.0034 -0.04,0.01193 -0.0537,0.02532 -0.21984,0.214357 0.28478,1.13162 1.12137,2.03812 0.83661,0.906496 2.40313,2.761059 3.48145,4.121195 1.62922,2.055024 2.03829,2.333442 2.42104,1.64951 0.32366,-0.57835 0.0496,-1.578189 -0.92243,-3.364135 -0.76081,-1.397841 -1.57609,-2.541963 -1.81177,-2.541963 -0.64468,0 -0.51993,0.652306 0.39274,2.052071 0.45173,0.69283 -0.327,-0.0013 -1.73065,-1.542542 -1.31593,-1.444855 -2.5658,-2.489295 -2.89801,-2.437577 z m -69.277425,7.232116 c 0.181523,0.0096 0.37134,0.06431 0.573093,0.158131 l 0.924491,0.856794 1.389063,1.287778 -1.767335,1.673799 c -1.534022,1.452703 -3.947046,5.304869 -3.947046,6.300906 0,0.759204 1.66828,-1.12133 2.579687,-2.907831 1.294064,-2.536577 3.952891,-4.52169 6.056479,-4.52169 1.30642,0 1.596457,0.172252 1.353405,0.805638 -0.170087,0.443238 -0.309541,1.207251 -0.309541,1.697569 0,0.495306 -1.075457,1.615438 -2.420009,2.52026 -1.331018,0.895717 -3.534209,2.42434 -4.895824,3.39721 -0.68627,0.490336 -1.259231,0.851323 -1.794205,1.118793 -0.525021,0.223737 -1.040157,0.404482 -1.538925,0.534334 -0.427448,0.08105 -0.873985,0.115755 -1.379244,0.115755 -1.230368,0 -2.237073,-0.128198 -2.237073,-0.284736 0,-0.156538 0.661932,-1.130869 1.471228,-2.165242 0.809297,-1.034372 1.963854,-3.395622 2.565218,-5.247224 0.06672,-0.205452 0.140338,-0.413174 0.216524,-0.620636 0.188071,-0.473046 0.364877,-0.905833 0.532784,-1.301213 0.523766,-1.161248 1.110258,-2.164604 1.539441,-2.5678 l 0.895554,-0.841811 c 0.06336,-0.0081 0.127087,-0.0122 0.192235,-0.0088 z m 53.757959,2.28048 2.177646,1.907379 c 1.23857,1.084469 5.08831,3.665164 8.55452,5.73505 3.4662,2.06988 8.07712,5.028774 10.24691,6.575306 l 3.52796,2.51406 c 0.11075,0.15241 0.17528,0.27605 0.18086,0.37776 l -2.19108,0.74155 c -2.83306,0.95909 -5.48934,2.736006 -6.26938,4.193536 -0.1529,0.2857 -0.25438,0.52413 -0.30903,0.71572 -0.0755,0.12816 -0.1056,0.22127 -0.0884,0.27596 -0.0255,0.0987 -2.4e-4,0.15411 0.0723,0.16691 0.13548,0.29079 0.72854,0.0808 1.68465,-0.67128 1.44237,-1.13457 4.77698,-2.26182 7.29051,-2.53886 0.33568,-0.002 0.67276,0.005 1.0108,0.0253 0.70403,0.0421 1.24337,0.0934 1.68516,0.17932 0.49025,0.18778 0.91818,0.49676 1.3901,0.95911 0.58724,0.63016 1.06247,1.23201 1.06247,1.35083 0,0.0896 -0.90537,0.17024 -2.18592,0.2098 -1.21347,-0.20049 -2.4842,-0.14401 -3.74033,0.13281 -2.61368,0.27487 -4.17379,1.14193 -6.26215,3.23029 -2.24309,2.24308 -3.16688,4.26159 -3.46749,7.5768 -0.50523,5.57173 3.14676,10.86398 8.62014,12.49123 5.43873,1.61695 11.24212,-0.8435 13.77797,-5.8415 0.12502,-0.2464 0.24429,-0.50937 0.36019,-0.77773 0.33048,-0.68888 0.58161,-1.3954 0.75395,-2.12701 0.2205,-0.78295 0.36548,-1.51699 0.38499,-2.06292 0.025,-0.69852 0.0616,-1.17419 0.14883,-1.49861 0.0812,-0.19949 0.17447,-0.36003 0.28371,-0.49042 0.18343,-0.14057 0.44776,-0.17621 0.83509,-0.17621 1.39521,0 1.49548,-0.69029 0.53227,-0.9524 -0.17623,-0.0671 -0.41271,-0.11316 -0.71314,-0.12557 -0.86128,-0.0356 -1.07607,-0.15226 -0.5395,-0.29249 0.42423,-0.11086 0.68458,-0.27747 0.7984,-0.45114 l 0.85731,-0.37413 -1.25315,-0.27182 c -0.0931,-0.0306 -0.20176,-0.0532 -0.32195,-0.0698 -0.64653,-0.14053 -0.9983,-0.22518 -1.08158,-0.31058 0.0554,-0.0588 0.13151,-0.12761 0.24029,-0.21446 0.12823,-0.0526 0.29143,-0.11145 0.51315,-0.18655 1.44457,-0.48928 0.94138,-1.47804 -0.55966,-1.09967 -0.31318,0.0789 -0.52332,0.13041 -0.65215,0.15451 -0.0171,0.002 -0.0391,0.005 -0.0553,0.007 -0.0243,-0.006 -0.0483,-0.0125 -0.0708,-0.0186 0.0482,-0.0536 0.31298,-0.19319 0.82114,-0.45475 1.58398,-0.81528 1.42566,-1.5493 -0.19688,-1.23507 -0.0918,0.0116 -0.19155,0.0276 -0.29456,0.0455 -0.16149,-0.008 -0.3291,-0.0146 -0.52761,-0.0139 -0.34546,0.001 -0.60997,-0.006 -0.82424,-0.03 -0.50678,-0.29839 -0.55404,-1.09637 -0.27286,-2.59519 l 0.22738,-1.21285 c 0.13966,-0.16308 0.29985,-0.22564 0.48369,-0.19017 l 0.13178,0.12351 0.40979,0.50643 c 0.61703,0.76198 1.00164,1.10554 1.23248,1.03663 l 0.26769,0.25166 0.0357,-1.39578 c 0.002,-0.0571 0.004,-0.0854 0.006,-0.13591 0.0197,-0.461 0.14408,-0.49047 0.37724,-0.0816 0.0569,0.13013 0.10328,0.23243 0.18087,0.41702 0.29444,0.70053 1.75751,5.28581 3.25148,10.18956 l 2.43086,7.97781 c 0.09,0.56324 0.10548,0.9777 0.0594,1.32447 l -0.99167,1.69395 c -4.85902,8.30111 -20.80236,16.64788 -35.40921,18.53737 -0.54526,0.0705 -1.08822,0.13204 -1.62884,0.18604 -1.30078,0.0304 -2.82108,0.0447 -4.73976,0.0517 -2.343206,0.009 -4.278416,-0.0128 -5.96863,-0.0832 -13.127866,-1.4674 -24.109714,-8.31196 -30.920076,-19.62516 -0.223705,-0.37161 -0.391462,-0.66312 -0.528651,-0.92759 -0.210201,-0.50673 -0.32377,-0.97702 -0.341064,-1.46554 0.05389,-0.46843 0.241549,-1.04071 0.548802,-1.93787 0.455967,-1.33137 1.381339,-3.45193 2.056206,-4.71289 0.593122,-1.10823 0.913109,-1.62722 1.081072,-1.66605 l 0.1788,0.79427 c 0.08658,1.99843 0.878726,4.09323 2.234488,5.97535 0.98638,1.50935 2.24554,2.70936 3.736724,3.56309 4.692634,2.97957 10.569951,2.26285 14.777392,-2.12649 7.685251,-8.0175 0.856612,-21.42159 -10.245371,-20.11092 l -1.022675,0.12041 -1.270725,0.006 c 0.215712,-0.24671 0.527278,-0.57752 0.946714,-1.01751 0.999836,-1.04883 1.578086,-1.51238 2.436542,-1.708416 0.06077,-0.0139 0.122666,-0.0268 0.186037,-0.0382 0.06173,-0.0109 0.124071,-0.0213 0.189134,-0.03 0.467752,-0.008 1.057971,0.0421 1.874822,0.12505 3.072019,0.312106 4.923308,0.957406 7.215579,2.515096 2.07795,1.41203 2.215139,0.71512 0.531236,-1.07901 -0.05217,-0.0684 -0.08875,-0.12327 -0.146246,-0.19637 -0.245761,-0.31244 -0.62701,-0.65575 -1.105358,-1.01182 -1.296114,-1.112846 -2.877949,-2.047756 -4.188375,-2.456186 l -1.555978,-0.48524 c -0.406111,-0.24023 -0.290771,-0.64938 1.085723,-2.0283 l 3.785299,-3.341909 c 3.17201,-2.800279 7.191092,-6.439051 8.931238,-8.085812 l 0.837673,-0.792718 z m 54.429236,0.581877 c -0.10997,-0.01643 -0.35481,0.195623 -0.82734,0.623218 -0.54257,0.490988 -1.11514,0.764331 -1.27227,0.607198 -0.15715,-0.157133 -1.06159,0.03845 -2.0097,0.434599 -0.50355,0.210397 -0.96995,0.341662 -1.40508,0.403077 -0.26695,0.0172 -0.5259,0.02606 -0.77825,0.02842 -0.26268,-0.02103 -0.51285,-0.07071 -0.74776,-0.157613 -0.66404,-0.245655 -1.31171,-0.34246 -1.43919,-0.214974 -0.40406,0.404054 0.41027,1.318266 1.17409,1.318266 0.49603,0 0.73381,0.56484 0.73381,1.741495 0,0.776767 0.0922,1.671355 0.21755,2.220537 -0.0187,0.248936 -0.0453,0.459097 -0.0816,0.636654 -0.0633,0.211044 -0.14815,0.373641 -0.26149,0.495059 -0.004,4.7e-5 -0.008,0.0011 -0.0119,0.0011 -0.416,0 -1.07113,0.380968 -1.45572,0.84646 -0.51786,0.626809 -0.54492,0.766556 0.21601,0.617533 0.14524,0.08162 0.41703,0.01611 0.85679,-0.186553 3.02068,-0.64648 5.61516,0.151016 5.61516,1.766819 0,0.567362 0.24695,1.031978 0.54829,1.031978 0.0512,0 0.0971,-0.02469 0.14056,-0.05943 0.27644,0.142814 0.35972,-0.114858 0.26975,-0.798917 0.0113,-0.176514 0.009,-0.370565 -0.0129,-0.57516 -0.089,-0.84828 0.34497,-1.958152 0.9555,-2.821016 0.16839,-0.168836 0.31229,-0.349631 0.42271,-0.52555 0.45583,-0.49412 0.95824,-0.824238 1.40198,-0.824238 1.15257,0 2.38797,-0.555807 2.38797,-1.073838 0,-0.250229 -0.63036,-0.456353 -1.40095,-0.457853 -0.79716,-0.0019 -1.34704,-0.260723 -1.88826,-0.933792 -0.17324,-0.371289 -0.42623,-0.793242 -0.71055,-1.159621 -0.0173,-0.02228 -0.0322,-0.0461 -0.0491,-0.06873 -0.38901,-0.809453 -0.63591,-1.703959 -0.57154,-2.165241 0.0681,-0.488077 0.0934,-0.73338 -0.0165,-0.749827 z m -2.72645,2.08773 c 0.12529,-0.003 0.25175,0.0039 0.37827,0.01757 0.95473,0.348461 2.4091,1.787136 2.80603,2.763655 0.005,0.0699 0.009,0.137438 0.016,0.210325 0.0163,0.170601 0.0262,0.3204 0.0346,0.466638 -0.003,0.03592 -0.01,0.07126 -0.0145,0.106971 -0.14507,0.443695 -0.51636,1.03002 -0.95188,1.465543 -1.52345,1.523441 -3.82591,1.07896 -4.72013,-0.491961 -0.18852,-0.343146 -0.31327,-0.735759 -0.35605,-1.169953 0.006,-0.307904 0.0384,-0.620475 0.0992,-0.921391 0.31896,-0.954899 1.25061,-1.998622 2.11046,-2.368849 0.19472,-0.04635 0.39492,-0.07373 0.5979,-0.07855 z m -14.77067,13.435358 c 0.22638,0.0104 0.62253,0.18877 1.30276,0.54053 0.87217,0.45102 2.82083,0.94748 4.33048,1.10329 2.08006,0.21468 2.74506,0.48406 2.74506,1.1126 0,1.317636 2.4362,4.549166 4.06486,5.391396 2.33289,1.20639 4.28433,1.00544 6.07405,-0.62684 0.0165,-0.0143 0.0322,-0.0299 0.0486,-0.0444 0.66069,-0.53935 1.25507,-1.1806 1.62936,-1.78077 0.23078,-0.29229 0.41081,-0.54332 0.4563,-0.66921 0.15478,-0.42836 0.82634,-0.43417 2.5802,-0.0227 2.25204,0.52829 2.36113,0.6339 2.17144,2.10737 -1.13844,8.84348 -1.81889,19.26216 -1.9699,27.90114 -0.14865,4.47133 -0.0926,8.09017 0.17002,11.0386 0.15486,2.38017 0.39736,4.23287 0.73483,5.33559 0.50233,1.64134 0.83186,3.06558 0.73226,3.16518 -0.43464,0.43465 -3.40308,-1.8737 -4.99608,-3.88503 -3.21393,-4.05791 -6.04863,-10.83214 -11.49955,-27.48359 -4.98976,-15.24269 -7.03646,-20.617756 -8.2393,-21.575426 -0.30492,-0.67877 -0.4886,-1.18022 -0.55138,-1.51205 0.0432,-0.0673 0.11077,-0.10044 0.21601,-0.0956 z m -68.904326,0.86868 c -0.183274,0.005 -0.642194,0.39518 -1.376659,1.2392 -2.369973,2.723446 -4.875103,8.923406 -5.326289,12.887066 -0.04678,0.41099 -0.07855,0.80585 -0.07855,1.1622 3e-6,2.23374 0.384045,1.67731 1.041281,-1.50792 0.870701,-4.21987 2.348193,-7.9143 4.360973,-10.90528 1.224786,-1.820026 1.684703,-2.883266 1.379244,-2.875266 z m -1.444871,5.153166 c -0.078,0.0111 -0.176101,0.0526 -0.295074,0.12609 -0.776102,0.47966 -2.47496,4.32856 -2.459281,5.57175 0.0079,0.6244 0.586301,-0.0662 1.493449,-1.78335 1.356029,-2.56678 1.806908,-3.99223 1.260906,-3.91449 z m 14.229104,0.67541 c 1.88251,0.0272 3.609144,0.48564 5.103566,1.2976 1.07251,0.61974 2.049479,1.4125 2.888195,2.34197 1.402511,1.64085 2.33917,3.76348 2.645317,6.22288 l 0.285252,2.29237 -0.727085,-2.32648 c -0.827514,-2.64742 -3.260045,-5.39638 -5.672005,-6.40994 -3.721021,-1.56365 -8.590375,-0.19995 -11.117667,3.1135 -0.399823,0.52419 -0.743231,1.20113 -1.022163,1.95751 -0.523779,1.0285 -0.709792,1.81313 -0.702799,3.03289 -0.145256,1.28656 -0.109286,2.57146 0.155549,3.62665 0.406775,1.62074 2.646809,4.27598 4.625038,5.48235 2.214581,1.35049 0.862343,1.17397 -1.808673,-0.23616 -1.234983,-0.652 -2.93329,-2.16234 -3.773932,-3.35587 -1.37654,-1.9544 -1.528588,-2.55803 -1.528588,-6.07456 0,-1.98472 0.02527,-2.99007 0.329179,-3.87315 0.366201,-0.71946 0.82473,-1.47986 1.326533,-2.21692 0.109731,-0.14762 0.206849,-0.28105 0.331764,-0.44649 2.37458,-3.1448 4.98883,-4.48125 8.662519,-4.42815 z m 45.204993,0.99632 c 0.77002,-0.009 1.53754,0.0618 2.28771,0.21756 2.94739,0.61188 3.86363,1.4197 4.7532,4.19044 0.69144,2.15359 0.91617,2.27985 1.8309,1.02888 0.21449,-0.29333 0.37477,-0.43583 0.53278,-0.3576 0.10464,0.11586 0.21427,0.27491 0.33073,0.48214 0.17238,0.39433 0.37463,1.03557 0.65526,2.00091 0.73184,2.51745 0.77907,3.43243 0.28887,5.62291 -0.69434,3.10264 -2.9178,6.00394 -5.68079,7.4135 -0.69709,0.35564 -1.43202,0.66339 -1.96577,0.83561 -0.13188,0.0378 -0.26228,0.0734 -0.39377,0.10904 -0.10776,0.0236 -0.20271,0.0394 -0.26562,0.0372 -0.36143,-0.0124 0.20321,-0.47689 1.2547,-1.03198 4.23743,-2.23698 6.05,-7.95691 3.85455,-12.16257 -0.64977,-1.24471 -2.02369,-2.93281 -3.05356,-3.75171 -4.74355,-3.77177 -12.33297,-1.37865 -14.44873,4.55632 -0.58901,1.65227 -0.70529,1.75945 -0.72399,0.66714 -0.0332,-1.92988 2.39297,-6.4326 4.13411,-7.6724 1.96552,-1.39958 4.29935,-2.15699 6.60942,-2.1854 z m 31.52107,3.26182 c -0.11122,0 -0.21415,0.1249 -0.29817,0.33021 -0.0895,-0.0256 -0.13228,0.17354 -0.1509,0.59221 -0.0373,0.23763 -0.0605,0.50362 -0.0605,0.78962 0,0.94164 -0.13067,2.83323 -0.29042,4.20336 -0.27093,2.32352 -0.2366,2.42465 0.50953,1.50223 0.51444,-0.63597 0.69619,-0.83855 0.77205,-0.5612 0.018,0.30209 0.0369,0.58818 0.062,0.77825 5.3e-4,0.014 0.001,0.0234 0.002,0.0377 0.0331,1.15053 0.0683,1.16689 0.47335,0.22428 0.61535,-1.432 0.61535,-6.36809 0,-6.36809 -0.28021,0 -0.50901,-0.34398 -0.50901,-0.7643 0,-0.42031 -0.22931,-0.76429 -0.50953,-0.76429 z m -79.740866,2.11822 c 0.118999,0.005 0.236966,0.0273 0.350367,0.0636 h 5.29e-4 c 0.344612,0.12462 0.647636,0.40014 0.80822,0.77308 v 5.3e-4 c 0.04438,0.1471 0.05852,0.30619 0.02585,0.47593 -0.09398,0.48802 -0.569812,0.96434 -1.057818,1.05834 -0.170164,0.0328 -0.330089,0.0178 -0.477491,-0.0269 -0.372792,-0.16073 -0.648086,-0.46361 -0.772562,-0.80822 -1.29e-4,-2.7e-4 -2.51e-4,-8e-4 -5.29e-4,-0.001 -0.03024,-0.095 -0.04832,-0.19366 -0.05684,-0.29301 v -5.3e-4 c 0.109053,-0.5706 0.522325,-1.12174 1.132229,-1.2392 0.0035,-7.9e-4 0.0068,-7.9e-4 0.01035,-0.002 2.65e-4,1e-5 7.94e-4,0 0.0011,0 0.01222,1.6e-4 0.02447,-0.002 0.03669,-10e-4 z m 51.164316,1.10381 c 0.0676,-0.006 0.1341,-0.002 0.19999,0.008 0.28448,0.12088 0.53391,0.3443 0.69091,0.6413 0.10159,0.29778 0.11129,0.6514 0.003,0.93483 -0.18817,0.49037 -0.59333,0.74948 -1.00097,0.77205 -0.14847,-0.0121 -0.29493,-0.0415 -0.43357,-0.0868 -0.10922,-0.0447 -0.20953,-0.10181 -0.30127,-0.16847 -0.003,-0.002 -0.005,-0.004 -0.008,-0.006 -0.12186,-0.11108 -0.22365,-0.25767 -0.29353,-0.43977 -0.29137,-0.75931 0.44633,-1.595 1.1436,-1.6552 z m 33.49667,6.12159 c 0.004,-0.002 0.007,-8e-4 0.0103,0.003 0.10388,0.10387 0.65574,1.88385 1.22628,3.95532 1.51741,5.50923 5.58553,13.46354 8.63565,16.88527 l 2.48305,2.78588 c -0.0136,0.0541 -0.0431,0.0991 -0.0868,0.13694 l -1.55081,-0.017 c -0.32844,-0.004 -0.66768,-0.0342 -1.01389,-0.0873 -2.5015,-0.48081 -5.87594,-2.49253 -8.20467,-4.98213 -1.80217,-1.92667 -2.2339,-2.56849 -2.32079,-4.08192 l 0.0393,-3.37705 c 0.15608,-4.43294 0.5989,-11.13315 0.78238,-11.22051 z m -98.798107,7.81916 c 0.259905,-0.0565 1.345679,1.21326 2.519227,2.96261 2.532145,3.77453 7.272002,8.65936 10.673766,10.99984 5.47421,3.76635 14.908659,7.08587 20.138305,7.08587 0.167052,0 0.321884,0.004 0.471807,0.009 1.442604,0.28117 1.929532,0.54827 1.985926,0.98547 -0.06879,0.51866 -0.621271,1.2626 -1.647963,2.28616 -1.126434,1.12301 -3.005251,2.0992 -5.876644,3.05356 -4.487365,1.49145 -6.805748,3.06162 -8.036719,5.44205 -0.676891,1.30897 -5.327002,19.41096 -5.81153,22.51645 -0.111946,0.32682 -0.217803,0.61999 -0.31781,0.87592 -0.468678,0.63696 -1.49135,1.64772 -2.668572,2.60346 l -2.537311,2.05982 c -0.166503,0.11311 -0.315773,0.21181 -0.380339,0.23874 -0.0021,-0.003 -0.0042,-0.007 -0.0062,-0.0108 l -1.368909,-8.4274 c -1.281819,-7.8919 -3.576468,-18.18591 -4.190958,-18.8004 -0.669504,-0.66951 -0.674044,0.43149 -0.01188,2.98328 1.222767,4.71227 3.205538,16.16862 4.140314,23.92361 0.4836,4.01199 0.784963,9.5477 0.892453,14.90813 0.009,0.7111 0.01582,1.4288 0.0186,2.15956 0.01143,2.99207 -0.0083,5.47291 -0.06046,7.53959 -0.102232,2.99952 -0.29554,5.43072 -0.590145,6.7262 -0.382342,1.68128 -1.140873,3.85927 -1.685687,4.84002 -0.544811,0.98079 -0.878438,1.40509 -0.741556,0.94309 0.897835,-3.03034 1.296477,-6.34273 1.263489,-10.67635 0.02275,-0.40256 0.01812,-0.83545 -0.02016,-1.21233 -0.01334,-0.54208 -0.03138,-1.09549 -0.05684,-1.67018 -0.479957,-10.83196 -2.636922,-18.50911 -11.557953,-41.13444 -8.105923,-20.55807 -8.648139,-22.61867 -7.119979,-27.06036 1.83548,-5.33491 1.810056,-5.3276 4.333586,-1.23455 1.230191,1.99531 3.080314,4.65712 4.111376,5.9154 2.025904,2.47234 5.692074,5.58992 6.097305,5.1847 0.137437,-0.13744 -0.318138,-1.9421 -1.012344,-4.0101 -1.830406,-5.45262 -2.493486,-11.68084 -1.820561,-17.09611 0.302123,-2.43127 0.677281,-4.62748 0.833544,-4.88032 0.0098,-0.0158 0.02349,-0.0257 0.04082,-0.0295 z m 81.946937,0.29404 c 0.0231,0.027 0.16113,0.37047 0.3452,0.84284 l 0.10335,0.41444 c 0.69388,2.79152 4.95343,13.19721 6.72982,16.43983 0.99781,1.82139 2.51053,4.19147 3.36155,5.26686 l 1.49914,1.89497 -0.30076,1.62471 -1.26091,5.65133 c -3.35619,15.04094 -3.0451,23.20015 1.17203,30.74541 l 0.60203,1.07694 c 0.15495,0.40727 0.25031,0.73305 0.26406,0.92346 l -1.07332,-0.55552 c -0.68537,-0.35442 -1.37663,-0.91925 -2.05155,-1.63866 -0.20285,-0.22217 -0.40492,-0.45359 -0.60565,-0.6904 -2.99292,-3.659 -5.51542,-10.24788 -5.51542,-15.3355 0,-1.32566 -0.22932,-2.55223 -0.50953,-2.72541 -0.13771,-0.0851 -0.24513,0.0761 -0.32608,0.40152 l -0.0574,-0.40152 -0.0176,0.8077 c -0.22253,1.597 -0.0734,5.16326 0.43667,7.54166 0.48679,2.26984 0.37635,3.1258 -1.03715,8.04912 -2.88538,10.04999 -3.1823,18.83133 -0.86403,25.5602 v 5.2e-4 c 0.92899,2.69605 0.25542,2.69274 -1.70119,-0.008 -2.58678,-3.57094 -4.50561,-11.01587 -5.21105,-18.17925 -0.0389,-1.05598 -0.0622,-2.23514 -0.0744,-3.64681 -0.0241,-2.799 0.04,-5.65807 0.15192,-7.54786 0.19399,-1.24469 0.46553,-2.35443 0.82269,-3.27887 0.18946,-0.49038 0.11329,-0.89142 -0.1695,-0.89142 -0.82636,0 -1.65358,3.01197 -1.98179,7.2161 l -0.16743,2.14251 -0.22582,1.6862 -4.18218,-3.57446 c -1.9154,-1.63684 -3.61498,-3.33483 -4.24573,-4.21008 -0.13475,-0.33158 -0.27415,-0.72579 -0.42323,-1.19217 -2.52366,-11.12493 -5.03431,-20.61898 -5.87561,-22.17746 -1.23996,-2.29696 -3.50865,-3.74238 -8.38554,-5.34334 -0.93692,-0.30757 -1.75245,-0.61296 -2.4691,-0.92398 -1.40802,-0.67457 -2.46675,-1.35864 -3.21479,-2.07532 -0.43097,-0.47283 -0.73601,-0.98177 -0.93276,-1.54616 l -0.3607,-1.03508 c 0.13782,-0.23604 0.41739,-0.4397 0.83561,-0.62994 l 3.33416,-0.66249 c 13.89548,-2.75961 27.33383,-10.24875 32.28899,-17.99477 z m -40.50606,4.68291 c -0.29149,-2.6e-4 -0.62671,0.002 -1.00924,0.004 -1.09165,0.007 -1.87044,0.0502 -2.36988,0.13953 -0.68675,-0.1006 -0.92306,0.15043 -0.62373,0.49971 0.099,0.16567 0.35839,0.36722 0.77928,0.61236 0.47712,0.27791 0.98417,0.43827 1.49552,0.48835 0.0984,0.0393 0.17948,0.0615 0.23357,0.0615 0.0993,0 0.22107,-0.0188 0.3576,-0.0527 0.70879,-0.0507 1.40627,-0.3178 2.02468,-0.79375 0.19697,-0.12459 0.35448,-0.25488 0.45993,-0.37723 0.32689,-0.28733 0.40545,-0.43706 0.0816,-0.51108 -0.0554,-0.0391 -0.14624,-0.0523 -0.26975,-0.0357 -0.26345,-0.0247 -0.63125,-0.0345 -1.15962,-0.0351 z m 0.90124,16.14527 c 0.57361,0.0824 0.86169,0.25989 1.08676,0.63614 0.007,0.0954 0.0103,0.19838 0.0103,0.31884 0,0.96461 0.72906,2.05409 1.95854,3.09955 0.35719,0.3469 0.79184,0.66733 1.33118,0.98599 1.31556,0.8581 2.94825,1.64424 4.77181,2.24896 6.2972,2.08824 7.18145,3.16811 9.20202,11.23652 0.66797,2.6673 1.19289,5.02114 1.36942,6.0911 -0.0357,0.22845 -0.10285,0.41775 -0.20774,0.57309 -0.16047,0.0926 -0.35981,0.1802 -0.58911,0.2589 -0.5125,0.0961 -1.19784,0.20047 -1.93993,0.28836 l -2.36885,0.2806 c -0.13379,-0.1365 -0.26923,-0.34582 -0.41186,-0.62167 l -0.98237,-3.21685 -1.17925,-3.86437 -2.8019,-0.35347 c -2.86581,-0.36164 -17.675018,0.0386 -23.342245,0.63097 -0.837284,0.0875 -1.499989,0.19361 -2.003496,0.3173 l -0.510045,0.0305 -0.04393,0.14056 c -0.387528,0.15018 -0.593762,0.3203 -0.593762,0.51263 0,0.3693 -0.390695,1.94104 -0.86868,3.49332 -0.814663,2.64563 -0.966145,2.81832 -2.420007,2.75332 -2.414857,-0.10802 -3.515436,-0.3958 -3.775998,-1.02836 -0.0043,-0.37094 0.06162,-0.96136 0.175699,-1.6862 0.268341,-1.27642 0.734775,-3.24206 1.288294,-5.36815 1.739331,-6.68082 2.95458,-8.30663 7.419702,-9.92807 2.971011,-1.07889 5.010483,-1.93873 6.472991,-2.82154 0.05,-0.0174 0.129048,-0.0708 0.218075,-0.13745 1.765226,-1.1142 2.649424,-2.28464 3.333647,-3.99408 0.07116,-0.1778 1.562155,-0.48679 3.313495,-0.68678 0.96752,-0.11048 1.61778,-0.17656 2.08721,-0.18965 z m -2.75384,4.51135 c -0.24324,0 -0.41478,0.0726 -0.49195,0.18397 -0.14903,0.0887 -0.24237,0.2014 -0.24237,0.32556 0,0.28022 0.45863,0.50953 1.01906,0.50953 0.007,0 0.0136,-0.001 0.0207,-0.001 0.003,5e-5 0.006,0.001 0.009,0.001 0.009,0 0.0174,-0.003 0.0263,-0.003 0.53397,-0.015 0.96274,-0.23585 0.96274,-0.50643 0,-0.28021 -0.45863,-0.50953 -1.01906,-0.50953 -0.0549,0 -0.10764,0.004 -0.1602,0.008 -0.0409,-0.004 -0.0818,-0.008 -0.12454,-0.008 z m 11.0231,14.54072 c 0.78225,0.002 1.29738,0.0173 1.45366,0.0486 1.12483,0.22496 1.30797,0.32904 1.2144,2.37919 l -0.091,-0.41032 0.0207,0.84078 -0.0847,-0.33124 0.0889,1.11982 c -0.002,0.0256 -0.003,0.0428 -0.004,0.0687 -0.009,0.1399 -0.0197,0.26338 -0.0289,0.39998 l -0.0207,-0.0605 0.0176,0.10697 c -0.0254,0.3719 -0.0519,0.72873 -0.0806,1.0604 -0.12585,1.04546 -0.26536,1.87652 -0.37775,2.14819 -0.31709,0.13158 -1.36023,0.36227 -2.52388,0.55242 -3.47357,0.56756 -18.356747,0.96591 -20.740336,0.555 l -1.70274,-0.29352 c -0.174236,-0.1679 -0.311179,-0.42156 -0.435631,-0.81287 l -0.468188,-2.80706 c -0.327051,-1.9615 -0.546605,-3.626 -0.487825,-3.699 0.209542,-0.26022 18.77548,-0.88174 24.25123,-0.86558 z m 3.6127,2.72696 0.94671,2.81017 c 0.42391,1.259 0.73917,2.38835 0.82166,2.90421 -0.0172,0.16809 -0.0701,0.25611 -0.16226,0.25374 -0.0124,-0.0108 -0.0237,-0.0224 -0.0362,-0.0331 -0.20697,-0.17782 -0.39645,-0.3803 -0.57464,-0.60048 -0.13441,-0.23233 -0.26617,-0.48134 -0.38964,-0.74311 -2.3e-4,-5.3e-4 -2.5e-4,-0.001 -5.3e-4,-0.002 -0.23749,-0.68857 -0.42625,-1.53464 -0.48937,-2.3704 l -0.12764,-1.68465 z m -28.814775,0.91623 c 0.124053,-0.0237 0.137618,0.69433 0.158129,2.05 0.03236,2.13708 -0.153951,2.7606 -0.952395,3.18792 -0.968155,0.51814 -0.973891,0.46539 -0.225827,-2.14716 0.596773,-2.08416 0.879499,-3.06388 1.020093,-3.09076 z m 37.103675,3.84265 c 0.0302,0.002 0.0414,0.008 0.0568,0.0135 0.0498,0.0757 0.0988,0.17287 0.14728,0.28629 0.6901,2.16676 3.20368,16.16157 3.68866,20.72483 0.94267,8.8697 -0.21507,19.15751 -2.59623,23.07301 -0.60076,0.98788 -1.1546,1.52155 -1.62109,1.6309 -0.21191,-0.0101 -0.39739,-0.0414 -0.55862,-0.0982 -0.5397,-0.36543 -0.86816,-1.55808 -0.86816,-3.50418 0,-2.06918 -0.37746,-2.43374 -1.42989,-1.38131 -0.0302,0.0302 -0.0535,0.0439 -0.0734,0.0501 0.0364,-0.32806 0.15714,-0.87134 0.34055,-1.54771 0.12477,-0.35031 0.27462,-0.74501 0.44958,-1.17719 0.46908,-1.15869 0.83549,-2.4181 1.10588,-3.76618 0.52326,-1.81305 0.6328,-2.99132 0.54415,-5.16609 0.0449,-2.06102 -0.0846,-4.27131 -0.39067,-6.61975 -0.5337,-4.09472 -3.12362,-17.66552 -3.89692,-20.41943 -0.2739,-0.97547 -0.0179,-1.15659 2.36006,-1.66656 1.28377,-0.27534 2.41898,-0.45159 2.74195,-0.43202 z m -44.23864,0.23203 c 0.485735,-2.6e-4 1.16741,0.0877 2.059305,0.26407 l 2.622579,0.51831 -0.461471,1.59887 c -1.050726,3.64212 -3.499569,17.27444 -4.045746,22.52214 -0.614601,5.90516 -0.513556,6.71237 1.704287,13.62139 0.610246,1.90101 0.634579,2.32278 0.108522,1.88619 -0.0694,-0.0576 -0.136414,-0.10159 -0.202055,-0.13952 -0.230833,-0.18223 -0.372575,-0.239 -0.45217,-0.11318 -0.467048,0.0615 -0.691139,0.76196 -0.388607,1.71514 0.165333,0.52092 0.07112,1.55017 -0.209288,2.28772 -1.255781,3.30295 -3.530854,-0.006 -4.890659,-7.11326 -0.865917,-4.52575 -0.961411,-13.24083 -0.207221,-18.89342 0.656494,-4.92037 3.039546,-17.18 3.477307,-17.88831 0.109429,-0.17702 0.399481,-0.2658 0.885217,-0.26614 z m 35.57922,0.84129 c 0.0509,-0.003 0.11474,0.01 0.18397,0.0289 l 1.14877,1.13688 c 1.40969,1.3952 1.76314,2.34469 2.836,7.62538 1.10198,5.42401 2.1492,12.45232 2.55747,16.83928 0.0677,1.30507 0.11667,2.34835 0.13901,3.21427 -0.0483,0.6356 -0.14025,1.3523 -0.27027,2.11822 -0.6214,3.05636 -2.03737,7.46242 -2.98793,8.91315 -0.0685,0.10457 -0.11893,0.19717 -0.17208,0.29146 -0.0243,0.0336 -0.0438,0.0673 -0.0594,0.10077 -0.49134,0.93277 -0.17067,1.33583 1.02939,1.33583 0.57149,0 1.01073,0.53162 1.21802,1.47537 0.17825,0.81158 0.78506,1.89334 1.34875,2.40347 1.60495,1.45246 3.47029,0.11916 4.91753,-3.51504 2.66712,-6.69744 3.08583,-15.3731 1.30483,-27.02729 -0.42113,-2.75568 -0.67286,-5.10301 -0.55914,-5.21673 0.11372,-0.11372 1.93946,1.38959 4.05712,3.34088 l 1.74925,1.61179 2.06137,1.98541 c 0.018,0.0329 0.0377,0.0657 0.0548,0.0987 l 0.33693,3.30419 c 1.072,10.50818 4.68362,19.70163 8.27599,21.06745 1.0116,0.38461 1.61313,0.39245 1.83761,-0.0801 v -5.3e-4 c 0.21893,-0.0263 0.35502,-0.0625 0.35502,-0.10232 0,-0.0203 -0.0307,-0.12623 -0.0837,-0.29455 0.0572,-0.30152 -0.0939,-0.81357 -0.42478,-1.64848 -0.12124,-0.45279 -0.28117,-0.96806 -0.48783,-1.56425 -0.62302,-1.79736 -1.24447,-5.14295 -1.40353,-7.55613 l -0.26975,-4.08657 c 0.0712,-0.003 0.16197,0.0339 0.27492,0.10904 l 2.63498,3.19464 c 8.20049,9.94365 15.18795,21.32843 19.21743,31.06012 10e-4,0.003 0.002,0.005 0.003,0.008 0.51573,1.29509 1.01002,2.59535 1.45934,3.83439 0.46369,1.33781 0.86388,2.63439 1.18804,3.87573 0.95629,3.66203 0.57867,4.44762 -3.10369,6.45181 -2.25859,1.22928 -5.00139,2.1091 -7.71167,2.57038 -1.1108,0.0647 -2.45582,0.0932 -4.26227,0.10025 -1.1402,0.004 -2.02556,0.0121 -2.80965,0.0248 -0.38536,-0.0697 -0.75647,-0.15308 -1.10742,-0.25374 -1.58856,-0.45559 -1.8934,-0.34113 -3.98581,1.50069 -3.34367,2.94322 -6.42025,3.8362 -13.13821,3.8132 -4.17262,-0.0143 -6.11408,-0.24419 -7.59954,-0.90072 -1.9206,-0.84883 -2.03458,-0.84521 -3.05666,0.0977 -1.52495,1.40678 -4.53905,2.09041 -9.23406,2.09341 -3.90977,0.003 -9.68173,-1.09222 -10.60194,-2.01073 -0.23809,-0.23766 -1.49932,0.0447 -2.80241,0.62684 -4.721483,2.10945 -16.88594,1.55296 -18.891871,-0.86403 -0.522956,-0.63013 -0.860903,-0.61461 -2.485636,0.11265 -0.290724,0.13013 -0.610703,0.24188 -0.971518,0.33848 -1.277728,0.27334 -3.273845,0.44775 -5.751586,0.50385 -0.405813,0.005 -0.816467,0.01 -1.270723,0.0103 -2.445691,0.005 -3.969686,-0.0152 -5.135088,-0.14417 -7.94e-4,-10e-5 -0.0016,-5.3e-4 -0.0026,-5.3e-4 -0.487926,-0.0738 -0.958908,-0.15592 -1.404567,-0.24908 -0.799074,-0.20433 -1.525657,-0.51042 -2.506306,-0.96997 -1.614045,-0.75638 -3.563072,-2.06292 -4.331001,-2.9037 -1.338424,-1.46538 -1.491205,-1.5066 -3.688665,-0.99684 -0.40839,0.0947 -0.883237,0.16464 -1.398365,0.21653 -0.731052,-0.0101 -1.543698,-0.017 -2.561601,-0.0212 -1.100296,-0.005 -1.999485,-0.0176 -2.811713,-0.0393 -1.897682,-0.18311 -3.794321,-0.51646 -5.305619,-0.97669 -2.993135,-0.91148 -6.934083,-3.67812 -7.199045,-5.05395 -0.008,-0.0416 -0.01365,-0.0866 -0.01913,-0.13229 -0.008,-0.0816 -0.0132,-0.16524 -0.01603,-0.25115 -0.09745,-3.99701 6.885802,-19.47305 13.036931,-28.71505 5.578128,-8.38106 15.824882,-21.1434 16.975706,-21.1434 0.223409,0 0.679077,1.13673 1.012341,2.52594 l 0.47594,1.98541 c 0.0235,0.19492 0.03876,0.36478 0.03876,0.48885 0,0.09 -0.04381,0.25409 -0.10542,0.44856 l -3.927409,7.93956 c -0.680305,1.3228 -1.366806,2.71728 -2.051556,4.16564 -4.767318,9.80396 -7.21914,16.11484 -8.956558,22.9495 -0.933119,3.67073 -1.149374,5.10716 -0.715719,4.92219 l -0.01963,0.17259 0.06305,-0.1974 c 0.04825,-0.029 0.100624,-0.0691 0.162264,-0.13074 0.13384,-0.13384 0.826519,-2.25454 1.538923,-4.71289 2.056653,-7.09708 4.088796,-12.08403 9.319328,-22.86941 4.04939,-8.34986 4.979464,-9.92353 5.421374,-9.17101 0.309088,0.52634 0.534818,4.22985 0.536918,8.80566 0.0032,6.835 -0.144949,8.30702 -1.102775,10.94869 -0.608653,1.67866 -1.016005,3.14291 -0.90537,3.25354 0.534779,0.53478 2.782636,-1.65841 3.751707,-3.66024 1.872718,-3.86852 2.594674,-9.31878 2.594674,-19.58588 v -8.38243 c 0.05523,-0.57188 0.124132,-1.03389 0.214974,-1.41542 l 1.379243,-2.14923 c 0.876695,-1.36621 1.677808,-2.40049 1.780255,-2.29805 0.102441,0.10245 -0.03443,1.88837 -0.304374,3.96824 -1.033378,7.96193 -0.221062,18.45418 1.804024,23.3009 0.903351,2.16201 2.64782,4.17132 3.621484,4.17132 1.11537,0 2.713014,-1.95012 2.713014,-3.31142 0,-1.01896 0.254863,-1.27383 1.273823,-1.27383 1.297009,0 1.68352,-0.91525 0.771528,-1.82728 -0.276347,-0.27635 -1.104588,-2.2137 -1.840196,-4.30516 -1.232402,-3.50393 -1.31645,-4.26266 -1.070737,-9.66143 0.258149,-5.67213 0.982001,-10.70527 2.735234,-19.01434 0.724778,-3.43492 1.072713,-4.16136 2.518709,-5.26428 1.109808,-0.84649 2.022051,-1.17007 2.696477,-0.95601 1.013489,0.32167 1.01392,0.3332 0.02635,1.95285 -0.426246,0.69906 -0.71189,1.35791 -0.861446,1.93115 -0.02024,0.073 -0.03748,0.14485 -0.05116,0.21497 -0.01072,0.0515 -0.01807,0.1006 -0.02635,0.15038 -0.0016,0.0113 -0.0044,0.0229 -0.0057,0.0341 -0.149844,0.95897 0.15398,1.5906 0.920872,1.5906 0.07112,0 0.154739,-0.0194 0.243398,-0.0475 0.04287,0.0293 0.0778,0.0481 0.0987,0.0481 0.06614,0 0.187656,-0.082 0.339516,-0.21136 0.355732,-0.15309 0.744159,-0.46314 1.158068,-0.93018 0.914861,-0.84129 1.771986,-1.92854 1.771986,-2.46445 0,-0.86556 -0.678259,-0.48396 -2.107366,1.18546 -0.462079,0.53977 -0.873692,0.92115 -1.137915,1.07849 -0.09338,0.0355 -0.164933,0.0389 -0.216524,0.0109 -0.04006,-0.069 -0.05923,-0.16461 -0.05478,-0.28681 0.271888,-1.20079 2.476325,-3.30638 3.677295,-3.46645 0.02815,-0.002 0.0572,-0.007 0.08475,-0.007 0.01646,-7.9e-4 0.03361,-0.003 0.04961,-0.003 0.484005,5.3e-4 0.801826,0.0331 0.972035,0.20205 0.07082,0.14591 0.115416,0.31941 0.130741,0.51987 -0.09418,0.35364 -0.311264,0.87759 -0.640271,1.66501 -0.424008,1.01477 -0.634362,1.9815 -0.467672,2.14819 0.4484,0.4484 1.768367,-1.52351 2.098064,-3.13418 0.05906,-0.28854 0.156567,-0.55731 0.274402,-0.78083 1.72e-4,-2.6e-4 2.51e-4,-7.9e-4 5.29e-4,-0.001 0.154583,-0.20049 0.31142,-0.3571 0.469739,-0.45941 0.118546,-0.019 0.25754,-0.036 0.403077,-0.0522 0.160363,0.304 -0.1455,1.26871 -0.962216,3.0763 -2.046205,4.52876 -3.867541,10.56878 -5.206402,17.26561 -0.701037,3.50654 -0.983551,5.75997 -1.097605,10.38334 -0.483992,5.88128 -0.519983,11.81666 -0.01291,17.18552 0.04763,0.50426 0.09326,0.9285 0.137975,1.31723 0.08702,1.27101 0.202562,1.97791 0.3483,2.1239 0.41188,0.41259 0.496041,-1.41989 0.313158,-6.80682 -0.0011,-0.0302 -0.0016,-0.0607 -0.0026,-0.091 -0.0062,-0.46337 -0.0081,-0.8752 -0.0181,-1.38286 -0.05511,-2.80706 -0.01294,-5.6245 0.115755,-8.41085 0.0013,-0.0286 0.0028,-0.0572 0.0041,-0.0858 0.620836,-11.87646 2.98573,-23.45447 6.536036,-31.26269 l 1.448491,-3.18585 2.651517,-0.18138 1.55236,0.0558 3.81424,0.13694 c 0.13637,0.0708 0.26588,0.15375 0.38912,0.25011 l 1.04748,2.05207 c 2.91912,5.71882 5.65659,17.04484 6.12624,25.34678 0.0487,0.86006 0.11012,1.65982 0.1788,2.38021 0.0216,2.2686 0.1559,3.2017 0.4315,2.92696 0.0757,0.27335 0.15098,0.42426 0.22169,0.42426 0.27354,0 0.36977,-1.36164 0.339,-3.3507 0.05,-1.70736 -0.0841,-3.9801 -0.37,-6.47092 -0.27089,-3.03668 -0.6641,-6.0515 -1.10433,-7.84345 -1.34575,-5.47788 -3.27552,-10.94332 -4.87515,-13.80536 -0.50102,-0.89643 -0.89505,-1.68198 -1.06505,-2.10013 -0.0659,-0.18132 -0.10153,-0.30048 -0.0894,-0.3204 0.0815,-0.0607 1.23841,-0.22739 2.57968,-0.37155 0.74588,-0.0802 1.27566,-0.11817 1.68259,-0.092 0.32465,0.058 0.61522,0.1462 0.87385,0.26096 0.24814,0.16911 0.45272,0.4249 0.69711,0.79789 0.92986,1.41915 0.55477,2.16143 -0.60565,1.19837 -0.22018,-0.18273 -0.41426,-0.30258 -0.57825,-0.36845 -0.081,-0.10142 -0.12654,-0.1232 -0.1385,-0.0455 -0.0243,-0.005 -0.0468,-0.007 -0.0692,-0.01 -0.19139,-0.0899 -0.29359,-0.054 -0.29042,0.10955 -0.11365,0.16166 -0.0977,0.4908 0.0847,0.96636 0.6037,1.57321 2.73639,1.55812 3.19516,0.24494 0.0733,-0.17806 0.10346,-0.39069 0.0894,-0.63562 0.002,-0.81655 0.0596,-0.86052 0.53743,-0.24546 0.0544,0.2196 0.18794,0.39145 0.3576,0.4594 0.51497,0.65996 0.6041,0.62538 0.61702,-0.06 0.009,-0.47212 -0.22516,-1.50405 -0.51987,-2.29288 l -0.3638,-0.9741 c 0.0273,-0.0191 0.0625,-0.0299 0.10542,-0.032 z m -40.220798,9.50692 c 0.736153,0 -0.638328,3.09033 -2.436026,5.47667 -1.108237,1.47112 -2.102213,2.67477 -2.208649,2.67477 -0.10644,0 -0.193271,-0.88784 -0.193271,-1.97301 0,-1.68421 0.333656,-2.28072 2.280997,-4.07572 1.254702,-1.15655 2.405242,-2.10271 2.556949,-2.10271 z m 58.776258,21.90771 c -0.59524,0 -0.61068,-0.0687 0.87901,3.88761 3.31895,8.8144 7.58489,24.66 8.60568,31.96446 0.20656,1.47813 0.53293,2.29533 0.80719,2.02106 0.59039,-0.59039 -0.64993,-8.93378 -2.28875,-15.39647 -2.03306,-8.01737 -7.18142,-22.47666 -8.00313,-22.47666 z m -39.925727,53.07066 c 0.323352,0.094 0.540004,0.23245 0.661974,0.42736 l -0.222726,0.93017 c -0.179049,0.7478 -0.64279,1.99046 -1.030944,2.76109 -0.130797,0.25956 -0.287068,0.50049 -0.448551,0.70951 -0.323561,0.31183 -0.694018,0.53866 -1.012343,0.58446 -0.174302,0.0251 -0.425511,-0.0379 -0.719336,-0.15608 -0.884751,-0.42534 -2.112344,-1.3154 -3.128489,-2.25515 -0.03976,-0.0405 -0.07644,-0.0753 -0.11679,-0.11678 l -0.84491,-0.86818 c -0.134625,-0.15579 -0.261789,-0.30985 -0.370003,-0.45784 l -0.871781,-1.19218 c 0.0069,-0.10002 0.06696,-0.17759 0.19482,-0.23823 l 1.969905,-0.10955 2.145607,-0.007 z m 14.416167,0.0222 4.36253,0.0196 c 3.84655,0.0177 4.3093,0.1168 3.91759,0.83819 -0.59571,1.09707 -3.06945,3.35987 -4.44676,4.06747 -0.41527,0.21336 -0.82521,0.39322 -1.1007,0.49143 -0.23577,0.004 -0.45368,-0.0439 -0.65681,-0.14779 h -5.3e-4 c -0.61305,-0.6299 -1.50686,-2.42655 -1.7601,-3.69279 z"
       style="fill:#000000;stroke-width:0.50948042" />
  </g>
</svg>
