<?xml version="1.0" encoding="UTF-8" standalone="no"?>
<svg
   xmlns:dc="http://purl.org/dc/elements/1.1/"
   xmlns:cc="http://creativecommons.org/ns#"
   xmlns:rdf="http://www.w3.org/1999/02/22-rdf-syntax-ns#"
   xmlns:svg="http://www.w3.org/2000/svg"
   xmlns="http://www.w3.org/2000/svg"
   id="svg1452"
   version="1.1"
   viewBox="0 0 210 297"
   height="297mm"
   width="210mm">
  <title
     id="title2035">Cute Butterfly over pumpkin</title>
  <defs
     id="defs1446" />
  <metadata
     id="metadata1449">
    <rdf:RDF>
      <cc:Work
         rdf:about="">
        <dc:format>image/svg+xml</dc:format>
        <dc:type
           rdf:resource="http://purl.org/dc/dcmitype/StillImage" />
        <dc:title>Cute Butterfly over pumpkin</dc:title>
        <dc:source>http://www.supercoloring.com/coloring-pages/cute-butterfly-boy-flies-over-pumpkin</dc:source>
        <dc:creator>
          <cc:Agent>
            <dc:title>Coloring books: Cute Butterflies</dc:title>
          </cc:Agent>
        </dc:creator>
        <dc:date>2020-04-02</dc:date>
        <dc:subject>
          <rdf:Bag>
            <rdf:li>insects</rdf:li>
            <rdf:li>butterfly</rdf:li>
            <rdf:li>csk</rdf:li>
          </rdf:Bag>
        </dc:subject>
      </cc:Work>
    </rdf:RDF>
  </metadata>
  <g
     id="layer1">
    <path
       id="path2022"
       d="m 75.452785,41.192521 c -8.408847,0.0047 -16.052209,5.768475 -19.571157,15.263502 -0.53493,1.443414 -1.008375,2.672447 -1.072282,2.784679 -0.147291,-0.01711 -0.679126,-0.201963 -1.463098,-0.502938 -0.62359,-0.263732 -1.37233,-0.594231 -2.209898,-0.984113 -7.524622,-3.50258 -13.428746,-4.157509 -20.703316,-2.29698 -19.553972,5.001053 -32.233223,24.385258 -26.6395444,40.725157 2.3026196,6.726282 8.2646034,14.075322 15.4028424,18.986572 5.165729,3.55412 13.333757,6.60307 21.405471,7.98936 l 1.780982,0.30591 c 0.06547,0.0326 0.10806,0.0645 0.161114,0.0969 l -0.175271,4.45245 c -0.06035,1.53187 -0.02512,3.06271 0.0664,4.24779 -0.110906,3.21249 -0.40322,4.61185 -1.187677,6.28132 -3.188696,6.78614 0.09935,16.22608 6.777726,19.45902 5.097723,2.46779 9.245189,1.04189 20.174241,-6.93558 l 6.347733,-4.63314 0.371219,2.60396 c 0.29183,2.04233 0.915068,4.01842 1.777713,5.75335 0.694502,1.55008 1.609992,2.83439 2.743311,3.85479 0.08217,0.0792 0.163486,0.16068 0.247122,0.23623 v 9.7e-4 c 1.777727,1.60606 2.599183,1.95517 4.596139,1.95517 2.87065,0 5.096377,-1.48845 5.517108,-3.68933 0.156142,-0.81687 0.05783,-3.26852 -0.218807,-5.44743 -0.100557,-0.79247 -0.159067,-1.6285 -0.194872,-2.4581 0.01733,-1.96552 0.07357,-3.63731 0.172008,-4.77903 0.135793,-0.88001 0.328257,-1.46234 0.573698,-1.46093 0.19511,8.7e-4 0.845194,0.73224 1.443502,1.62531 0.59835,0.89308 1.789714,1.77065 2.647516,1.94972 0.448941,0.0937 1.059608,0.22004 1.662322,0.34508 0.989626,0.34575 1.896308,0.51181 2.446118,0.35708 1.31225,-0.1937 1.5843,-1.65522 0.53016,-3.69368 l -0.87851,-1.69933 h 1.78861 c 2.911392,0 6.454832,-2.09021 8.849362,-5.21992 1.20437,-1.57414 2.8597,-3.6839 3.67735,-4.68868 0.88758,-1.09069 1.42822,-2.35683 1.66668,-3.90595 0.13452,-0.56846 0.20259,-1.12719 0.20792,-1.68954 0.21183,-1.41703 0.54019,-1.78907 1.48814,-2.027 0.0297,-0.008 0.0525,-0.01 0.0817,-0.0162 0.12426,-0.005 0.24992,-0.01 0.39844,-0.01 1.20401,0 1.5797,0.18034 1.81256,1.1452 0.003,0.2554 -0.0178,0.537 -0.0849,0.87308 -0.18022,0.90105 -0.0992,1.40985 0.20791,1.53604 v 0.29283 l 0.27434,-0.27323 c 0.0543,-0.009 0.11234,-0.0227 0.17417,-0.0446 0.3422,0.0209 0.91789,-0.46505 1.85064,-1.4533 0.017,-0.018 0.0311,-0.0375 0.0479,-0.0556 0.0273,-0.0285 0.0497,-0.048 0.0772,-0.0773 2.15687,-2.28521 2.50997,-5.23576 0.98411,-8.22668 -0.64422,-1.26275 -1.61141,-2.54326 -2.15001,-2.84564 -0.29305,-0.16451 -0.48059,-0.28167 -0.58024,-0.38101 -0.0344,-0.0542 -0.0621,-0.10268 -0.0817,-0.1448 0.006,-0.13785 0.26441,-0.26249 0.79688,-0.48007 0.6131,-0.25054 3.24668,-0.45504 5.8524,-0.45504 2.53776,0 3.89567,0.0812 5.33312,0.50075 1.04466,0.38878 2.16538,0.83794 3.21687,1.30744 0.0321,0.0151 0.0569,0.0259 0.0892,0.0414 5.48224,2.59951 9.49413,3.23045 12.69,1.89202 0.32112,-0.10506 0.62799,-0.22324 0.90574,-0.36689 0.85203,-0.44058 1.57277,-1.0533 2.15982,-1.74068 1.57202,-1.57344 1.84326,-2.21119 1.69714,-3.98216 -0.003,-0.0303 -0.006,-0.0532 -0.009,-0.0827 5.7e-4,-0.0549 -0.005,-0.10744 -0.008,-0.16112 -0.0119,-0.25149 -0.0422,-0.49246 -0.10665,-0.71196 -0.17692,-0.91203 -0.51443,-1.21111 -1.29654,-1.33028 -0.22267,-0.0654 -0.47014,-0.10453 -0.74898,-0.10453 -0.7814,0 -1.33803,0.38718 -1.65795,0.92534 -0.74093,0.97733 -0.5167,2.53766 1.09187,3.33661 l 0.93514,0.46483 c -0.0227,0.16659 -0.21871,0.41172 -0.55521,0.78708 l -0.93729,0.57152 c -3.04549,1.85666 -6.74179,1.55894 -13.25719,-1.06794 -4.37584,-1.76421 -6.24927,-2.22948 -8.97565,-2.22948 -3.74983,0 -10.81747,2.10395 -13.56198,4.03768 -0.3442,0.24248 -0.60348,0.42189 -0.82625,0.55737 l -0.15786,0.0914 c -0.67034,0.36244 -0.92053,0.13987 -1.81799,-0.70325 -0.67878,-0.63768 -2.55594,-1.88158 -4.17158,-2.76508 l -2.68017,-1.46637 c -0.0928,-0.0957 -0.14899,-0.17543 -0.17637,-0.24385 l 2.10975,-2.66821 c 0.59369,-0.75108 1.19526,-1.43921 1.80166,-2.09667 0.69883,-0.73446 1.34207,-1.37807 1.95081,-1.94645 2.0412,-1.83774 4.15079,-3.17201 6.32921,-3.99414 2.77831,-1.048518 3.79893,-1.133689 9.57547,-0.796871 7.31368,0.426461 10.11908,-0.07925 12.7586,-2.300246 1.89761,-1.596734 3.04359,-4.023538 3.11126,-5.851319 0.0277,-0.224588 0.0207,-0.419525 -0.0153,-0.592209 -1.4e-4,-6.88e-4 1.5e-4,-0.0014 0,-0.0026 -0.0911,-0.846729 -0.46822,-1.498611 -1.17571,-1.770092 -1.40464,-0.539019 -2.57185,0.457276 -2.899,1.672114 -0.0625,0.168051 -0.0887,0.341209 -0.0816,0.518179 -0.0487,0.764376 0.24102,1.541454 1.02548,2.031371 1.45216,0.906879 0.69203,2.238853 -2.03136,3.558681 -1.77785,0.861495 -3.30622,1.003017 -9.72353,0.898105 -3.70879,-0.0606 -5.7727,-0.03507 -7.371,0.175277 l -1.73636,0.0012 -1.55127,0.840415 c -0.0373,0.01375 -0.07,0.02395 -0.10784,0.03811 -3.54981,1.328155 -9.15029,6.182725 -11.43918,9.916225 -1.0783,1.75881 -1.7401,2.27561 -2.92623,2.28826 -1.831052,0.0179 -1.829112,0.0554 -0.370132,-6.67322 0.555322,-2.56098 0.938602,-5.611976 1.194232,-9.517781 0.2147,-2.523922 0.3263,-5.110839 0.35814,-7.709585 7.3e-4,-0.04604 4.4e-4,-0.09222 9.8e-4,-0.138241 0.0183,-1.66047 0.0119,-3.323242 -0.0424,-4.97826 C 100.79591,58.5156 93.893824,45.309023 80.180099,41.795702 78.591727,41.388783 77.008343,41.191724 75.451143,41.192609 Z m 0.26345,2.32311 c 1.433552,0.0018 2.484492,0.03329 3.376895,0.127365 1.042525,0.179524 2.03288,0.431829 2.983897,0.759855 0.470296,0.195966 0.963151,0.424326 1.537114,0.714131 7.122746,3.596348 11.783693,10.575413 13.816735,20.688079 2.743264,13.64559 2.735304,26.735284 -0.02496,39.698599 -1.098683,5.15973 -1.284253,5.56507 -2.818429,6.14416 -1.519186,0.57342 -1.61592,0.53455 -1.284567,-0.50947 1.259177,-3.9673 2.545688,-12.373112 2.84346,-18.579428 1.165421,-24.288929 -7.24875,-42.591421 -19.594021,-42.621542 -1.043942,-0.0024 -2.106406,0.158287 -3.164598,0.455038 -6.61e-4,1.84e-4 -0.0014,-1.84e-4 -0.0026,0 -2.030869,0.513401 -3.987364,1.553057 -5.763131,3.059013 -0.01376,0.01111 -0.02659,0.02369 -0.04036,0.03484 -0.08428,0.07195 -0.169083,0.142565 -0.252547,0.216634 -2.009446,1.687706 -3.767326,3.853118 -5.018536,6.333578 -0.672563,1.333328 -1.285996,2.496352 -1.362936,2.585463 -0.07701,0.08909 -1.057451,-0.378304 -2.178333,-1.039631 -0.222261,-0.131136 -0.402815,-0.246134 -0.582404,-0.361417 -0.350631,-0.275453 -0.675118,-0.551681 -0.922055,-0.801221 -0.560665,-0.872432 0.0079,-2.148016 1.796211,-5.883976 1.968496,-4.113248 5.582842,-7.906899 9.258685,-9.716997 2.162547,-1.06491 3.54238,-1.307289 7.396067,-1.303075 z m 1.038543,8.113462 c 2.934266,0.081 5.851226,1.388267 8.355128,4.021354 l 1.869155,1.964953 -2.006324,-0.05662 c -1.210009,-0.0343 -2.615483,0.38992 -3.541269,1.06902 -2.27582,1.669442 -5.001626,5.994075 -6.041823,9.58419 -1.626148,5.612537 -1.422596,5.40102 -3.302865,3.431315 -0.915704,-0.959259 -3.474027,-3.132095 -5.684749,-4.828011 l -1.290018,-0.98956 C 64.869719,65.62013 64.604087,65.391832 64.424008,65.247689 l -1.797309,-1.438065 c -0.06788,-0.09083 -0.114583,-0.168471 -0.158935,-0.24385 l 1.306347,-2.580025 c 1.070601,-2.112726 2.348169,-3.881608 3.75899,-5.296118 0.05518,-0.05553 0.109952,-0.111751 0.165471,-0.16656 2.707587,-2.64143 5.891727,-3.981341 9.056206,-3.893983 z m -38.783073,4.985864 c 5.051322,-0.0077 8.773947,1.091613 15.937353,4.708271 18.873519,9.528836 30.787593,25.894259 34.925014,47.974262 0.726654,3.87788 0.780015,5.19158 0.260182,6.33249 -0.606553,1.33125 -0.774988,0.97888 -2.236021,-4.68432 C 84.350122,101.22395 80.033959,91.894046 75.087018,85.504673 63.414415,70.428605 46.207359,61.591691 32.896572,63.836847 21.812413,65.706434 13.735358,73.847103 12.438199,84.205963 c -0.422957,2.757918 -0.315741,5.501495 0.317873,8.215789 1.466669,7.149237 6.089852,13.289318 13.627308,17.987228 7.861793,4.90003 22.079825,9.77197 34.978348,11.98567 2.549803,0.43762 5.069835,0.94117 6.651446,1.31287 0.806624,0.23109 1.533184,0.47193 2.201195,0.7261 2.208157,1.08863 6.05667,3.71364 6.058153,4.21513 0.0026,0.84385 -2.596417,0.28015 -5.968894,-1.29437 -5.242147,-2.44744 -10.560532,-3.7285 -21.898617,-5.27435 C 31.84087,119.82166 24.723772,117.29173 16.991882,110.91409 6.8832019,102.57596 2.5992815,92.076691 5.2130475,82.041788 8.9441355,67.717164 23.218635,56.637502 37.971705,56.614957 Z m 47.078331,2.540835 c 0.250283,-0.0041 0.491968,0.02373 0.721757,0.08382 1.585488,0.414601 3.770712,3.053215 4.693018,5.66734 1.186986,3.364269 0.961681,7.542374 0.04036,9.989145 -0.239037,0.55192 -0.514475,1.012266 -0.807761,1.376022 -0.183109,0.204094 -0.366271,0.372449 -0.548665,0.501853 -0.03494,0.02289 -0.06933,0.05134 -0.104526,0.07185 -0.02289,0.01443 -0.04565,0.02593 -0.06854,0.03917 -0.01059,0.0065 -0.02249,0.0079 -0.03374,0.01415 -0.499286,0.149727 -1.046522,-0.05927 -1.611156,-0.756582 -0.386051,-0.476792 -0.646246,-0.901505 -0.807749,-1.268239 -0.05689,-0.270039 -0.102674,-0.545807 -0.134986,-0.829527 0.116304,-0.260487 0.352034,-0.406362 0.703246,-0.381024 0.07053,0.139538 0.213767,0.168648 0.445237,0.09142 0.0079,-0.0026 0.01508,-0.0093 0.02289,-0.01323 0.01905,0.0026 0.0389,0.0079 0.05769,0.0093 3.45e-4,1.4e-5 7.68e-4,-2.6e-5 0.0012,0 0.287253,0.01959 0.5199,-0.06629 0.699979,-0.22099 0.655985,-0.507048 0.851558,-1.804504 0.229697,-2.966491 -0.393356,-0.734956 -0.879793,-1.093988 -1.402141,-1.082083 l -0.281946,-0.332027 -0.541045,0.641197 -0.0026,0.0033 c -0.273134,0.197757 -0.548187,0.488492 -0.817552,0.873068 -1.67472,2.391015 -0.505385,7.187871 1.941001,7.964314 1.513959,0.48051 3.567559,-0.905289 4.515586,-3.047024 0.413176,-0.933446 0.916418,-1.69716 1.11801,-1.69716 0.201634,0 0.529877,1.567599 0.72938,3.483579 0.199489,1.915955 0.505994,4.236034 0.681468,5.155693 0.05557,0.290984 0.08401,0.47232 0.114319,0.664043 -0.03705,0.449166 -0.184578,0.525536 -0.471368,0.383193 -0.123052,-0.101883 -0.233824,-0.1904 -0.41258,-0.350525 -0.46847,-0.419633 -0.949853,-0.694593 -1.448953,-0.828442 -0.139327,-0.05015 -0.283192,-0.07237 -0.431091,-0.07833 -0.122258,-0.01191 -0.245508,-0.01799 -0.370134,-0.01415 -0.01641,5.17e-4 -0.03255,-8.06e-4 -0.04896,0 -0.775635,-0.0262 -1.543716,0.326247 -2.490763,1.071197 -0.01191,0.0093 -0.02753,0.02554 -0.04022,0.03586 -0.02289,0.01761 -0.04459,0.02977 -0.06749,0.0479 -0.846158,0.665563 -2.085566,2.390932 -2.7542,3.834104 l -1.215988,2.624666 -1.640545,-3.13414 c -0.902378,-1.723517 -2.957341,-4.968892 -4.566751,-7.212084 -1.36504,-1.902578 -2.510175,-3.922213 -2.829315,-4.931436 -0.05954,-0.525377 -0.01535,-1.075193 0.07185,-1.811457 4.1e-5,-3.97e-4 -5.3e-5,-6.92e-4 0,-0.0012 0.516407,-2.752201 2.233216,-7.355508 3.719799,-9.698487 1.517069,-2.391009 3.69327,-3.942777 5.445262,-3.971276 z m -47.942692,6.045089 c 2.611588,-0.03029 5.324641,0.387245 8.639263,1.279124 3.103436,0.835083 3.84416,1.82814 1.37166,1.838675 -2.118559,0.0094 -6.95468,2.624173 -9.835658,5.318983 -3.336974,3.121358 -5.163342,6.106367 -6.452231,10.539985 -0.440084,1.513839 -0.677463,3.130196 -0.734817,4.807337 -0.0501,0.484017 -0.08382,0.943132 -0.08382,1.34444 0,1.709703 0.280353,3.59201 0.793603,5.547592 2.01e-4,7.67e-4 8.91e-4,0.0014 0.0012,0.0026 1.45104,6.307373 5.00895,12.740723 10.074061,17.531083 1.649369,1.5599 2.826427,2.82789 2.614861,2.81734 -1.10922,-0.0545 -12.889944,-5.17174 -15.580333,-6.76796 -0.6054,-0.35918 -1.210171,-0.75235 -1.810365,-1.17461 -4.201398,-2.95581 -8.149676,-7.325 -10.074062,-11.256297 -0.607932,-1.241923 -1.010655,-2.125408 -1.293275,-2.9654 -0.190784,-0.710432 -0.351112,-1.451376 -0.481175,-2.212073 -0.112083,-1.058296 -0.129549,-2.359337 -0.129549,-4.297851 0,-5.118314 0.148753,-5.89723 1.77009,-9.319655 3.184099,-6.721175 8.654504,-10.86333 16.512143,-12.501674 1.601949,-0.334022 3.131522,-0.513078 4.698473,-0.531247 z m 13.250648,4.622268 c 1.784175,0.03666 3.472485,0.428351 4.979324,1.119097 1.098773,0.596633 2.147624,1.380136 3.127605,2.360124 0.859905,0.859904 1.564422,1.747596 2.122799,2.645331 0.763701,1.51904 1.194209,3.273347 1.194209,5.212296 0,2.511167 -0.232315,3.104091 -1.861533,4.733308 -1.838696,1.838697 -3.870491,2.577245 -5.519278,2.250179 -0.01945,-0.0054 -0.03943,-0.0079 -0.05875,-0.01416 -0.02686,-0.0054 -0.05173,-0.01654 -0.07833,-0.02289 -1.007595,-0.317791 -1.890814,-1.019185 -2.49729,-2.099936 -0.03273,-0.05835 -0.05899,-0.115245 -0.08818,-0.173092 -0.05934,-0.133148 -0.121279,-0.262908 -0.172,-0.407143 -0.24181,-0.687568 -0.218155,-1.345617 -0.01742,-1.874592 0.275732,-0.584986 0.852718,-1.007529 1.686278,-1.171347 0.199582,0.01456 0.408254,0.06325 0.621596,0.155667 0.243629,0.105454 0.422307,0.186165 0.542129,0.25256 -0.0344,0.107174 -0.09751,0.220249 -0.181799,0.335296 -0.09725,0.02753 -0.176428,0.05213 -0.317883,0.086 -0.678289,0.162243 -0.988494,0.661065 -0.943831,1.096245 -0.0019,0.0079 -0.0072,0.01787 -0.0077,0.02607 -2.11e-4,0.0026 -0.0032,0.0054 -0.0033,0.0079 -2.07e-4,0.02488 0.01324,0.04856 0.02613,0.07185 0.0063,0.0119 0.0034,0.02528 0.0131,0.03705 0.09763,0.325306 0.411255,0.585672 0.943818,0.585672 2.13963,0 2.98395,-2.065058 1.465279,-3.583726 -0.610389,-0.610377 -1.358715,-0.882996 -2.119531,-0.841503 -0.104157,-0.01389 -0.207806,-0.03374 -0.312426,-0.03374 -0.123408,0 -0.32041,0.08694 -0.53778,0.209016 -0.623515,0.228413 -1.224735,0.670181 -1.731988,1.315038 -0.0325,0.04128 -0.05859,0.08362 -0.08925,0.125169 -0.0063,0.0093 -0.01244,0.01733 -0.01851,0.0262 -2.887605,3.972558 2.418232,9.287754 7.368852,7.237119 0.716809,-0.296912 1.461853,-0.803633 2.168527,-1.439149 0.02765,-0.02289 0.05504,-0.03982 0.0827,-0.06312 1.056299,-0.888816 1.865807,-1.925494 2.424342,-3.061196 0.383696,-0.677418 0.684181,-1.366984 0.862182,-2.028089 0.442511,-1.643322 0.386634,-2.792532 -0.235135,-4.858503 -0.447907,-1.488237 -0.74818,-2.772367 -0.667323,-2.853263 0.08362,-0.08362 0.411668,0.110349 0.902458,0.498597 0.31488,0.265711 0.696949,0.602515 1.082087,0.942734 2.564649,2.317116 6.922094,6.888141 8.949522,9.578739 3.593651,4.769059 4.118923,5.957685 2.172881,4.916206 -2.712483,-1.451693 -8.663235,0.445485 -11.921444,3.800351 -2.146895,2.210577 -3.186774,3.975747 -3.619652,6.656896 -0.06616,0.31857 -0.126491,0.6459 -0.17853,0.98194 -0.0532,0.24498 -0.09739,0.48994 -0.133902,0.73372 -0.09367,0.62482 -0.127285,1.29596 -0.112069,1.99762 -0.06139,1.74867 0.06484,3.43798 0.437614,4.60484 0.03533,0.11035 0.08097,0.2285 0.118685,0.34074 0.587856,3.03033 1.879966,5.61689 4.177022,8.62621 2.186972,2.86509 2.280703,2.84511 -6.058152,1.29001 -7.212731,-1.34512 -11.990412,-3.74109 -16.676471,-8.36494 -4.200142,-4.14438 -7.118435,-9.05818 -8.898354,-14.97937 -3.184916,-10.595159 1.373722,-21.14209 11.053818,-25.573792 2.209505,-1.011542 4.437008,-1.455043 6.534968,-1.411935 z m 36.538334,1.834322 c 0.324592,0 0.435418,0.250817 0.246025,0.557371 -0.147954,0.239393 -0.339783,0.439673 -0.482244,0.518179 -0.151076,-0.05647 -0.263834,-0.173672 -0.316799,-0.318963 0.01429,-0.17886 0.03652,-0.341813 0.06536,-0.493145 0.10519,-0.154759 0.279579,-0.263442 0.487695,-0.263442 z m 4.353383,12.363425 c 0.09804,-0.0079 0.193217,-0.004 0.286313,0.0093 0.521316,0.07436 0.983857,0.355142 1.379264,0.781616 0.174508,0.22226 0.343896,0.477665 0.506218,0.784897 1.260818,2.386555 0.469634,8.485339 -0.717404,9.246712 -0.260366,0.06047 -0.537074,-0.07939 -0.832795,-0.389716 -0.01787,-0.02872 -0.03546,-0.05107 -0.05332,-0.08271 -0.210088,-0.372358 -0.431806,-0.620802 -0.643375,-0.771825 -4.24e-4,-3.17e-4 -6.62e-4,-7.94e-4 -0.0012,-0.0012 -0.152584,-0.166743 -0.255697,-0.21333 -0.349454,-0.160022 -0.354335,-0.04552 -0.616158,0.289185 -0.616158,1.003705 0,0.457423 0.144988,0.876089 0.38756,1.222512 0.168488,0.273889 0.408598,0.503532 0.692357,0.677115 0.01059,0.01059 0.02144,0.02778 0.03269,0.03811 0.135806,0.124111 0.276852,0.20768 0.425653,0.255829 0.01852,0.0065 0.03678,0.01468 0.05557,0.01959 0.0079,0.0026 0.01681,0.0026 0.025,0.004 0.07834,0.01852 0.158763,0.02553 0.241671,0.02395 l 0.263449,0.325491 0.369037,-0.328758 c 0.244356,-0.02276 0.486345,-0.09011 0.718489,-0.20248 0.77725,-0.142172 0.769628,0.269655 0.464844,2.943621 -0.198788,1.743777 -0.817076,5.052267 -1.374924,7.351437 -0.923576,3.80659 -1.052912,4.03081 -1.439149,2.50817 -0.233308,-0.91966 -0.912236,-3.65092 -1.509924,-6.06905 -0.597659,-2.41812 -1.573989,-5.678765 -2.169598,-7.245835 -1.403702,-3.693138 -1.366707,-4.836711 0.265619,-8.057939 0.808118,-1.594737 1.596615,-2.711001 2.345961,-3.34858 0.435655,-0.319869 0.860052,-0.508349 1.247558,-0.537776 z m -18.682843,8.271308 c 5.736617,-0.04419 9.833139,6.732356 6.241036,10.324446 -0.914275,0.91429 -1.806505,1.34567 -2.611593,1.30198 -3.58e-4,-10e-6 -7.28e-4,3e-5 -0.0012,0 -0.400925,-0.0501 -0.795457,-0.20548 -1.180066,-0.45939 -0.232594,-0.18238 -0.452301,-0.41663 -0.655337,-0.70652 -0.698655,-0.99745 -0.995806,-1.09556 -1.564344,-0.51818 -0.565957,0.57474 -0.398807,0.97497 0.862183,2.06728 0.0093,0.008 0.0172,0.0141 0.0262,0.0218 0.08296,0.0744 0.169586,0.14164 0.259083,0.21119 0.273188,0.2171 0.541202,0.40111 0.805578,0.55193 0.500013,0.33232 0.993597,0.56885 1.360767,0.56826 0.139048,-2.9e-4 0.295721,-0.0238 0.459405,-0.0577 1.030605,-0.0218 2.071529,-0.583 3.232104,-1.69281 0.0014,-0.001 0.004,-0.003 0.0054,-0.004 0.116833,-0.0991 0.227262,-0.20265 0.330944,-0.30916 0.173397,-0.15687 0.34289,-0.31406 0.478988,-0.4681 0.78409,-0.7567 1.455317,-1.3673 1.54148,-1.3673 0.01495,0 0.0401,0.0376 0.06312,0.0685 0.05769,0.10135 0.117759,0.21821 0.180714,0.35054 0.777383,1.82037 2.947366,9.18053 3.677339,12.64646 0.638877,3.03337 0.691776,4.77939 0.246039,8.0819 -0.312738,2.31692 -0.632301,4.89548 -0.710869,5.73048 -0.110482,1.17251 -0.32745,1.40316 -0.952538,1.01241 -0.44517,-0.27829 -2.000993,-0.66969 -3.456364,-0.86981 -0.50082,-0.0689 -1.005583,-0.1823 -1.472901,-0.31897 -0.621001,-0.23955 -1.23581,-0.5362 -1.847376,-0.88286 -0.01455,-0.0153 -0.03771,-0.0306 -0.05015,-0.0458 -0.398622,-0.48613 -2.748208,-2.19197 -5.221003,-3.79055 -5.281505,-3.41435 -7.058622,-5.36367 -9.36862,-10.27762 -1.950475,-4.14914 -2.543425,-9.2662 -1.456574,-12.55939 0.02792,-0.0846 0.06695,-0.16899 0.09792,-0.25365 0.208737,-0.50369 0.450793,-1.015953 0.730463,-1.542562 2.086349,-3.591282 6.554937,-6.786352 9.949958,-6.812564 z m 26.246552,20.567246 c 0.84674,-0.0238 1.419842,0.0901 1.407592,0.39299 -0.0106,0.26788 -0.378372,1.11365 -0.816462,1.88004 -0.91781,1.60552 -1.02489,2.2295 -0.38212,2.2295 0.24979,0 0.8731,-0.87788 1.384722,-1.95081 0.51166,-1.07293 1.19732,-1.9508 1.52407,-1.9508 1.01987,0 4.06346,1.73156 6.47183,3.6817 0.51749,0.41903 0.92483,0.73768 1.25734,0.96996 l 0.56282,0.5345 0.16111,-0.12305 c 0.45561,0.17293 0.71512,0.0239 1.04401,-0.37231 1.0225,-1.23204 3.58396,-2.46136 5.13063,-2.46136 1.62757,0 3.60437,2.01719 4.27718,4.36318 0.48197,1.68064 -0.13349,3.08124 -0.7174,1.63292 -0.0941,-0.2333 -0.18136,-0.0419 -0.24385,0.38973 -0.12424,0.13734 -0.14622,0.67144 -0.16437,1.72873 -0.008,0.47042 -0.018,0.81592 -0.0348,1.08317 -0.10611,0.25474 -0.32653,-0.0441 -0.83933,-0.7762 -0.72055,-1.02871 -1.12801,-1.21662 -2.67473,-0.9939 -0.35524,0.0153 -0.72449,0.0727 -1.10059,0.17527 -2.29602,0.38976 -3.67067,0.61656 -4.41869,0.63141 -0.39655,-0.0938 -0.75264,-0.24093 -1.05598,-0.44635 -0.0771,-0.062 -0.15385,-0.1208 -0.2362,-0.1905 -0.0516,-0.092 -0.10203,-0.18357 -0.16222,-0.2961 -0.5589,-1.04433 -1.27928,-1.4012 -1.56979,-0.94819 -0.0824,-0.0138 -0.13179,0.0166 -0.13179,0.10453 0,0.07 0.0105,0.14255 0.0294,0.21773 -0.0133,0.079 -0.0294,0.15322 -0.0294,0.25146 0,0.50821 0.56388,1.18837 1.28349,1.7701 9.7e-4,9.8e-4 0.003,0.003 0.003,0.003 0.20488,0.2011 0.42715,0.35745 0.6684,0.47792 0.76073,0.48002 1.56509,0.79373 2.0651,0.66296 0.77827,-0.2035 0.98744,0.0627 0.9569,1.21925 -0.0216,0.8143 -0.228,1.9643 -0.4594,2.55499 -0.0589,0.15071 -0.10038,0.23707 -0.14696,0.34181 -0.15955,0.0898 -0.34692,0.076 -0.56172,-0.0424 -0.0254,-0.062 -0.045,-0.0931 -0.074,-0.16873 -0.4905,-1.27825 -3.00683,-2.19211 -4.19661,-1.52408 -0.0502,0.0281 -0.0801,0.0537 -0.12306,0.0806 l -0.25146,0.003 0.0587,0.0262 -0.0587,9.7e-4 0.12622,0.0502 c -0.6363,0.46492 -0.0726,0.75675 2.04335,1.10168 0.58025,0.0946 1.32916,0.60581 1.66341,1.13653 0.47652,0.75673 0.37582,1.17764 -0.46703,1.95078 -0.16849,0.15457 -0.27099,0.24575 -0.38536,0.34837 -0.24769,0.19819 -0.37358,0.27931 -0.35926,0.21554 0.0723,-0.11008 0.20426,-0.28791 0.40388,-0.55302 0.19511,-0.25904 0.31878,-0.44577 0.38427,-0.58784 0.26757,-0.23669 0.23135,-0.31578 -0.10452,-0.34728 -0.1011,-0.0297 -0.24821,-0.0403 -0.4496,-0.0403 -0.49737,0 -0.90464,-0.40579 -0.90464,-0.90138 0,-0.15561 -0.021,-0.2805 -0.061,-0.38101 0.004,-0.0174 0.0165,-0.0478 0.0185,-0.063 0.0285,-0.18089 -0.0161,-0.27242 -0.16219,-0.27432 -0.0888,-0.0297 -0.22605,-0.0119 -0.40714,0.0458 -0.17217,0.004 -0.38169,0.038 -0.64229,0.10771 -0.68976,0.18485 -1.59177,0.33979 -2.00523,0.344 -0.27955,0.003 -0.84654,0.35827 -1.44351,0.86001 -0.67556,0.3135 -1.10499,0.73767 -1.29873,1.27803 l -1.09296,1.17026 -2.104302,-1.07228 c -1.15686,-0.58979 -2.362212,-1.15943 -2.679091,-1.26498 -0.320023,-0.10663 -0.03945,-0.92113 0.631405,-1.83214 0.01665,-0.0226 0.02744,-0.0389 0.04357,-0.061 0.05887,-0.0718 0.1126,-0.14615 0.161116,-0.22318 0.95982,-1.33061 0.92219,-1.60701 0.06853,-4.2663 -0.299422,-0.93278 -0.543577,-1.5579 -0.766382,-1.95297 -0.02703,-0.12742 -0.07224,-0.2026 -0.140424,-0.22862 -0.20394,-0.27747 -0.394862,-0.33698 -0.597661,-0.2275 -0.118025,-0.0474 -0.213251,0.01 -0.276509,0.17526 -0.380521,0.25336 -0.66829,0.22486 -0.883949,-0.12411 -0.5346,-0.865 -1.410846,-0.7089 -1.410846,0.25147 0,0.45982 -0.472175,0.83605 -1.049433,0.83605 -1.722775,0 -1.196485,2.85534 0.915532,4.96736 0.993343,0.99333 1.806014,2.01015 1.806014,2.25888 0,0.71571 7.27262,5.08535 7.85981,4.72243 0.29059,-0.17962 1.26526,-0.16515 2.16635,0.0327 1.4296,0.31402 1.55675,0.49219 0.99391,1.39344 -0.35477,0.56807 -1.57104,1.55296 -2.70304,2.18921 l -9.7e-4,9.7e-4 c -0.84971,0.4776 -1.63491,0.79372 -2.42108,0.95581 -0.22625,0.0201 -0.45288,0.0397 -0.71196,0.0566 -0.421232,0.0276 -0.835032,0.0261 -1.245372,0.0106 -0.13764,-0.0138 -0.27499,-0.0267 -0.41367,-0.0458 -0.89317,-0.15384 -1.855491,-0.47743 -2.966486,-0.97975 -3.099976,-1.4016 -5.870014,-3.9963 -7.366667,-6.90183 -2.360925,-4.58339 0.01985,-14.72839 4.145452,-17.66608 1.201937,-0.85537 4.39019,-1.57616 6.253001,-1.62857 z m -2.261051,7.36232 c -0.419691,-0.003 -0.828037,0.0657 -1.187679,0.21664 -0.45132,0.18944 -0.590224,0.324 -0.383193,0.47571 -0.455886,0.25329 -0.202783,0.28026 0.785971,0.30592 0.118155,0.0359 0.193785,0.0654 0.338563,0.10558 0.944605,0.26278 2.192379,1.00256 2.772709,1.64381 0.70787,0.78219 1.182262,0.84702 1.268232,0.4213 0.008,-0.01 0.0188,-0.0169 0.0261,-0.0284 0.004,-0.004 0.008,-0.008 0.0106,-0.0119 0.0106,-0.0179 0.0155,-0.0409 0.0229,-0.0621 0.003,-0.0119 0.006,-0.0244 0.008,-0.0381 0.0106,-0.0418 0.0261,-0.0782 0.0261,-0.13179 0,-0.25783 -0.12027,-0.53171 -0.321142,-0.79796 -0.0623,-0.14714 -0.12622,-0.2958 -0.21555,-0.46265 -0.52296,-0.9772 -1.89248,-1.62716 -3.151536,-1.63619 z m -50.74044,3.54998 c 0.475348,0.2721 0.920967,1.20901 0.920967,2.43197 0,1.11881 0.232197,2.84341 0.516004,3.83302 0.02627,0.0916 0.04392,0.16476 0.0664,0.2482 0.05672,0.36417 0.112917,0.64748 0.167651,0.83824 0.06264,0.74871 -0.276395,1.11043 -1.312872,1.84847 l -0.846944,0.60309 c -0.329764,0.11458 -0.58111,0.11458 -0.775098,-0.0152 -0.02812,-0.0502 -0.05702,-0.11285 -0.08274,-0.18177 l -0.260169,-1.73964 c -0.332065,-2.21434 -0.13917,-4.33583 0.647729,-7.14132 0.02819,-0.10059 0.05967,-0.18935 0.09361,-0.26997 0.253015,-0.28151 0.557841,-0.45388 0.865455,-0.45503 z m 3.489014,0.40387 c 0.238912,0.0138 0.53045,0.0533 0.915529,0.11538 7.482129,1.20595 11.853176,2.16546 15.203621,3.33553 l 3.310487,1.15502 -4.175936,0.24058 -0.354892,0.003 c -2.808661,0.0227 -6.94714,0.39674 -9.196631,0.8317 -2.249488,0.435 -4.494343,0.95038 -4.989132,1.14523 -0.945525,0.37252 -1.546379,-1.41448 -1.599179,-4.64623 0.0011,-0.75622 0.05663,-1.32961 0.172,-1.71018 0.0056,-0.0119 0.01367,-0.0203 0.01959,-0.0317 0.188613,-0.19869 0.422199,-0.34416 0.694535,-0.43872 z m 45.466087,1.05595 c 0.904946,0.003 1.830105,0.40216 1.848477,1.02983 2.36e-4,0.008 0.0031,0.0143 0.0031,0.0218 -2.57e-4,0.051 -0.0082,0.0997 -0.01963,0.14697 -0.0011,0.004 -9.04e-4,0.009 -0.0031,0.0142 -0.09792,0.34822 -0.51179,0.58244 -1.032007,0.68258 -0.05332,0.008 -0.102674,0.0217 -0.157851,0.0261 -0.02329,0.003 -0.04816,0.003 -0.07184,0.005 -0.669123,0.0346 -1.430733,-0.17666 -1.839768,-0.6695 -0.203764,-0.24554 -0.303527,-0.43205 -0.305896,-0.58676 0.04909,-0.0662 0.0897,-0.12901 0.164373,-0.20358 0.325267,-0.32527 0.865688,-0.46888 1.414116,-0.46701 z m -15.451823,5.24931 c 4.252137,0.0267 6.714519,1.24496 9.089945,4.49707 0.585886,0.80213 0.974954,1.37548 1.204015,1.83543 9.66e-4,9.7e-4 0.0026,0.004 0.0026,0.006 6.35e-4,9.8e-4 0.0014,0.003 0.0026,0.004 0.05981,0.12093 0.101215,0.22914 0.139341,0.33638 0.01389,0.0374 0.02832,0.0759 0.04036,0.11207 0.154542,0.51593 0.0561,0.90709 -0.218821,1.42936 -0.356981,0.67807 -0.924395,1.41751 -1.261703,1.64272 -0.10982,0.0733 -0.203537,0.13192 -0.291751,0.1829 -0.183241,0.0611 -0.376696,0.0934 -0.578052,0.10345 -0.102807,0.003 -0.208195,2.4e-4 -0.314615,-0.005 -0.02897,-0.003 -0.05769,-0.004 -0.08706,-0.006 -0.299888,-0.0829 -0.694316,-0.23431 -1.293273,-0.47245 -0.339755,-0.13507 -0.684724,-0.31375 -1.024385,-0.52254 -0.05981,-0.0368 -0.118025,-0.079 -0.177447,-0.11764 -0.536518,-0.37893 -1.111195,-0.8535 -1.724377,-1.4228 -0.114451,-0.10625 -0.207613,-0.20564 -0.309164,-0.30808 -0.595411,-0.65078 -1.025748,-1.2932 -1.175699,-1.77662 -0.0565,-0.32766 0.03744,-0.58899 0.288484,-0.76858 0.06668,-0.0164 0.13312,-0.0326 0.220977,-0.0326 0.306558,0 0.55737,-0.40107 0.55737,-0.89048 0,-0.4957 -0.08468,-0.71749 -1.313953,-0.66951 -0.0054,-4.3e-4 -0.01059,-6.6e-4 -0.01627,-9.8e-4 -0.980179,-0.17851 -2.389848,-0.0497 -3.665379,0.38863 -0.907088,0.11392 -1.708777,0.21199 -2.99804,0.38102 -0.811917,0.10639 -1.355593,0.17079 -1.731999,0.18398 -0.267353,-0.0395 -0.487351,-0.0966 -0.643362,-0.17092 -0.04631,-0.15553 0.08349,-0.42036 0.304797,-0.83388 0.209043,-0.39058 0.453757,-0.74136 0.735915,-1.05595 0.404007,-0.39526 0.834583,-0.74105 1.293275,-1.03528 1.220076,-0.69703 2.845232,-1.02673 4.945591,-1.0135 z m -14.03989,0.53235 c 2.502631,0.004 4.77328,0.14498 5.767483,0.38536 0.265409,0.0879 0.439281,0.17495 0.523632,0.25909 0.0079,0.0352 5.7e-4,0.0713 -0.03705,0.1089 -0.149964,0.14995 -2.309944,0.28646 -5.032667,0.34182 -1.480154,-0.0982 -2.988369,-0.061 -4.487285,0.0937 -2.914683,0.12531 -4.558203,0.44692 -6.552382,1.1855 -10.324968,3.82405 -13.786013,10.46212 -8.216882,15.75991 3.418596,3.25203 9.089649,4.21767 14.871596,2.53104 2.600227,-0.75858 2.671637,-0.75266 1.430444,0.13825 -0.718331,0.51561 -2.833246,1.87896 -4.69957,3.02854 -2.6271,1.61819 -3.969077,2.08899 -5.940574,2.08688 -2.238139,-0.003 -4.171478,-0.60787 -5.792531,-1.79949 -0.755776,-0.59325 -1.463475,-1.29981 -2.096678,-2.09342 -0.442175,-0.58664 -0.848498,-1.23813 -1.218159,-1.95624 -2.775105,-5.39089 -2.244307,-10.64559 1.462009,-14.46554 2.874176,-2.96227 6.69135,-4.43536 13.707874,-5.2885 1.827118,-0.22215 4.154185,-0.31936 6.310711,-0.3157 z m 40.761075,0.91443 c 0.25769,0.036 0.52047,0.0926 0.78599,0.19486 9.7e-4,5.4e-4 9.7e-4,5.6e-4 0.003,9.8e-4 l -1.01133,0.8132 c -0.5885,0.47327 -1.04144,0.77883 -1.38581,0.94165 -0.39649,0.0948 -0.64872,0.10264 -0.74134,-0.0468 -0.0592,-0.14239 -0.0579,-0.3701 -0.004,-0.67603 0.0252,-0.12464 0.0668,-0.24018 0.1208,-0.34836 0.25119,-0.4523 0.85596,-0.74945 1.73744,-0.83279 z m -10.75879,0.48335 c -0.144381,0 -0.2621,0.0119 -0.367965,0.0327 -0.453861,-0.0239 -0.832291,0.12545 -1.05487,0.48554 -0.176387,0.28538 -0.06549,0.67618 0.246038,0.86871 0.149236,0.0923 0.282833,0.34782 0.384278,0.6793 0.01323,0.113 0.0135,0.17689 0.02937,0.30264 0.03082,0.24454 0.08415,0.49683 0.137169,0.74788 0.004,0.0741 0.01522,0.14536 0.01522,0.21989 0,0.87967 0.394598,1.99378 0.876339,2.47553 0.244131,0.24419 0.55225,0.43135 0.898108,0.56933 0.360062,0.18781 0.774314,0.27356 1.219261,0.26454 0.0758,0.004 0.15183,0.005 0.2286,0.004 0.0452,5e-4 0.0905,-0.003 0.13607,-0.003 0.05,-0.003 0.0999,-0.006 0.15024,-0.0106 0.8708,-0.0422 1.77045,-0.30552 2.498372,-0.81538 0.7242,-0.50725 1.10836,-0.96365 1.15937,-1.38037 l 0.21338,-0.16764 -0.10995,-0.0556 0.22751,-0.19594 -0.29827,-0.12517 -0.28848,-0.14696 c -0.27945,-0.30345 -0.77807,-0.58457 -1.50665,-0.84803 -1.013282,-0.36641 -2.382732,-1.1694 -3.042702,-1.78426 -0.223,-0.20776 -0.447058,-0.37571 -0.670572,-0.52579 -0.0041,-0.0135 -0.01849,-0.0318 -0.01849,-0.0436 0,-0.3014 -0.477482,-0.54759 -1.061395,-0.54759 z m -30.333229,1.15175 c 2.631969,0.0242 4.760062,0.54409 5.616171,1.60136 0.158512,0.19576 0.322898,0.35516 0.497499,0.49641 0.201461,0.31519 0.560454,0.48626 1.273678,0.57044 0.537801,0.1118 1.214241,0.15877 2.132604,0.16546 1.608272,0.0119 3.04205,0.21237 3.185291,0.44416 0.143257,0.23179 -0.227394,1.39924 -0.822989,2.59418 -1.29342,2.59491 -5.885601,6.14363 -11.591587,8.95713 -3.180781,1.56837 -4.888698,2.04934 -7.803209,2.19574 -1.580805,0.0795 -2.983726,0.009 -4.227103,-0.20139 -1.724478,-0.37654 -3.254152,-1.02446 -4.442648,-1.89419 -0.747156,-0.62594 -1.357082,-1.38782 -1.827789,-2.29808 -1.860645,-3.59809 0.642918,-7.4003 6.72983,-10.22212 2.701328,-1.25228 5.922953,-2.03223 8.851543,-2.3035 0.632856,-0.0434 1.233083,-0.0772 1.789687,-0.0969 0.02567,-5.2e-4 0.0516,-9.8e-4 0.07728,-0.003 0.200733,-0.006 0.370862,-0.003 0.561725,-0.006 z m 31.120297,1.37384 c 0.257795,-0.008 0.748695,0.21295 1.67864,0.65643 1.07867,0.51437 1.8743,1.20037 1.76792,1.52407 -0.28644,0.87168 -2.245845,1.01348 -3.039434,0.2199 -0.3517,-0.35171 -0.63276,-1.02317 -0.673844,-1.55564 0.01191,-0.31627 0.05028,-0.60443 0.118686,-0.79687 0.03811,-0.0289 0.08534,-0.046 0.148058,-0.0479 z m -37.898036,2.06946 c -4.430336,-0.11234 -7.351775,5.7029 -3.672986,9.38171 1.20621,1.20619 2.157611,1.62966 3.665378,1.62966 2.887282,0 5.295033,-2.45892 5.295033,-5.40717 0,-0.0581 -0.0079,-0.10943 -0.0093,-0.16655 9.4e-4,-0.13932 -0.0065,-0.27809 -0.02184,-0.41696 -0.153365,-2.25126 -1.198682,-3.7242 -3.280002,-4.58633 -0.679629,-0.28151 -1.344028,-0.41831 -1.976937,-0.43436 z m 22.014023,0.4213 c 0.196671,0 0.965929,0.65016 1.709121,1.44567 1.606434,1.71955 3.943304,3.0133 5.444177,3.0133 0.112599,0 0.208395,0.004 0.297189,0.0119 0.09778,0.0377 0.185941,0.0771 0.256914,0.12624 0.114319,0.0907 0.197729,0.1939 0.255829,0.31679 0.0054,0.014 0.01191,0.0277 0.01747,0.0424 0.03771,0.40082 -0.102016,1.1172 -0.391913,2.42871 -0.593638,2.68621 -0.783072,2.93524 -2.308952,3.04268 -3.065059,0.21601 -8.072097,-2.85237 -8.072097,-4.94667 0,-1.2075 2.177247,-5.48119 2.792307,-5.48119 z m -22.409178,1.32158 c 1.181694,-0.0556 2.94677,0.73344 3.583728,1.68736 0.781564,1.17051 0.420783,3.68544 -0.688017,4.79426 -0.613102,0.61311 -1.74179,1.11474 -2.508164,1.11474 -0.769285,0 -1.56269,-0.30209 -2.250178,-0.77728 -2.047819,-1.71103 -1.783826,-5.73234 1.396702,-6.7418 0.139975,-0.0445 0.297111,-0.0693 0.465929,-0.0772 z m 33.749303,0.24385 c 0.168131,-0.0147 0.365357,0.008 0.58132,0.0566 0.384238,0.20516 0.948106,0.66572 1.889836,1.47181 1.307271,1.11897 2.752854,2.76123 3.212508,3.65012 0.390539,0.75522 0.577674,1.37519 0.480074,1.5317 -0.0454,0.0133 -0.09001,0.0259 -0.143694,0.0317 -3.31701,-0.37007 -7.301607,-4.16526 -6.419578,-6.14197 0.127549,-0.28568 0.233202,-0.48622 0.363611,-0.5922 0.01323,-9.8e-4 0.02276,-0.006 0.03599,-0.008 z m -14.689803,6.37602 c 0.259229,0.1463 0.728611,0.45601 1.218159,0.78055 l 0.03585,0.0326 c 2.010201,1.83807 4.654966,2.95016 7.019409,2.95016 2.180992,0 2.790641,0.54253 2.859788,2.68996 -0.03638,0.74381 -0.147067,1.26362 -0.363585,1.64272 -0.23315,0.28944 -0.576913,0.51624 -1.051616,0.69671 -0.356863,0.1357 -0.675342,0.23468 -0.985193,0.31243 -0.895261,0.0618 -1.928947,0.0251 -2.942537,-0.0892 -0.532164,-0.1273 -1.141151,-0.30295 -1.881128,-0.53343 -3.219602,-1.0028 -3.90922,-2.01704 -3.90922,-5.75879 z m 2.036797,9.56459 c 0.421366,0.004 1.263317,0.15782 2.166358,0.40715 0.640437,0.17682 1.54787,0.29202 2.473337,0.34073 0.53255,0.0594 1.019225,0.0635 1.504473,0.0142 0.283468,-0.0119 0.558297,-0.0294 0.806649,-0.0587 2.452222,-0.29042 2.579745,-0.23989 2.306783,0.91333 -0.158895,0.67134 -0.681163,1.53495 -1.160456,1.91815 -1.724696,1.37891 -4.525868,0.8421 -6.64057,-1.2726 -1.08316,-1.08313 -1.859112,-2.08051 -1.724364,-2.21534 0.03374,-0.0337 0.127286,-0.0482 0.26779,-0.0468 z m 87.553116,3.49228 c -0.11035,0.0224 -0.19018,0.0951 -0.2493,0.21338 l -0.0937,-0.0556 0.0348,0.22751 c -0.0939,0.3415 -0.10346,0.89906 -0.10346,1.66995 0,1.3674 -0.49799,4.07568 -1.10713,6.01895 -0.60916,1.94328 -1.11053,4.49036 -1.11475,5.6608 v 0.009 c -9.7e-4,0.0395 -0.006,0.0892 -0.006,0.12518 v 0.0105 0.28414 c 0,0.67567 -0.0971,1.20856 -0.23624,1.41738 l -0.24494,-0.12199 -0.37449,-0.19269 -0.67711,-0.47247 c -1.99352,-1.39139 -5.90007,-2.75647 -9.07253,-3.16895 -3.18045,-0.41353 -14.04404,1.12793 -15.8568,2.13259 l -0.57045,0.14914 0.31463,0.1622 c 0.15035,0.25835 1.51345,1.04933 3.17549,1.83215 1.93652,0.91207 5.39811,3.50972 8.77207,6.58178 3.06555,2.79124 6.64111,5.71166 7.94582,6.49033 l 2.03462,1.21489 c -0.0284,0.2385 -0.15553,0.58981 -0.36795,1.01786 -0.016,0.0263 -0.0281,0.0483 -0.0446,0.0751 l -0.59655,0.7087 c -0.74092,0.88051 -1.63178,2.92549 -1.97911,4.54388 -0.64622,3.01129 -0.70084,12.54214 -0.1339,13.92558 l -9.8e-4,0.0261 0.009,-0.006 c 0.03,0.0681 0.0611,0.11975 0.0947,0.14045 0.22769,0.14071 0.88364,-0.26275 1.45764,-0.89703 0.57403,-0.63427 1.49646,-1.39553 2.04987,-1.69171 0.8052,-0.43092 0.6611,0.14539 -0.72176,2.88484 -0.95045,1.88281 -1.99424,4.09212 -2.31984,4.90967 -0.55921,1.40408 -0.63231,1.29891 -1.3096,-1.90834 -1.34232,-6.3564 -5.7909,-15.82931 -9.51017,-20.24938 -0.44361,-0.52726 -0.80186,-0.90803 -1.09841,-1.17788 -0.25482,-0.32465 -0.44804,-0.53778 -0.52035,-0.53778 -0.003,0 -0.004,0.0106 -0.006,0.0119 l -0.24386,-0.29065 0.0381,0.38646 c -0.32371,0.0428 -0.28756,0.77138 0.0783,2.21316 0.0499,0.1963 0.0897,0.38934 0.12848,0.5824 v 1.71893 c 0,0.86971 -0.009,1.54886 -0.0414,2.13913 -0.57823,2.45682 -2.2499,5.1444 -5.36144,8.92774 l -2.10756,2.56262 c -0.0766,-0.024 -0.19991,-0.0736 -0.31352,-0.11763 l -3.38234,-1.70152 c -4.26629,-2.14648 -8.73808,-3.37997 -13.52822,-3.72959 -2.31364,-0.37374 -4.19069,-0.47388 -5.00873,-0.14588 -0.0574,0.0229 -0.16838,0.0459 -0.307,0.0698 -7.48058,0.11934 -16.208592,0.59891 -17.337308,0.9852 -1.042819,0.35688 -1.174855,0.0337 -1.773363,-4.35557 -0.355553,-2.60733 -1.150744,-5.88215 -1.767908,-7.27739 -0.399508,-0.90312 -0.800114,-1.5567 -1.264984,-1.9791 l -0.04896,-0.12954 -0.09685,0.0133 c -1.03231,-0.80925 -2.393553,-0.55021 -4.726784,0.64011 -1.969106,1.00457 -5.639142,4.57768 -5.635767,5.48663 7.81e-4,0.21924 0.913467,1.90442 2.029175,3.74376 1.211834,1.99777 2.053044,4.12218 2.08906,5.27652 0.05981,1.92103 0.04247,1.93459 -2.93817,2.37427 -3.169202,0.46753 -6.358027,1.75912 -9.482944,3.84065 l -1.529506,1.01786 c -0.01562,0.004 -0.06682,0.0317 -0.07516,0.0317 -0.102807,0 -0.118287,-1.07683 -0.07079,-2.60833 l 0.187237,-2.44286 c 0.546243,-7.10708 1.724232,-13.0788 3.653404,-18.53043 0.884172,-2.49857 1.486729,-4.66402 1.338987,-4.8117 -1.231812,-1.23181 -11.924699,16.69632 -11.924699,19.99354 0,1.34448 -0.934715,0.40412 -2.598534,-2.61484 -2.813014,-5.10418 -8.369788,-12.20089 -14.636451,-18.69048 -5.93236,-6.14338 -15.978364,-14.7424 -16.552423,-14.16834 -0.175149,0.17516 0.907111,1.79065 2.404759,3.59025 5.480331,6.58529 11.384286,16.54716 16.728776,28.22566 1.664953,3.63817 3.235047,7.14961 3.489012,7.80321 0.253962,0.65361 0.988528,2.5148 1.632936,4.13566 l 1.020032,2.56587 c 0.004,0.0527 0.01059,0.10823 -0.0026,0.12198 -0.02911,0.0291 -0.343421,-0.13164 -0.76312,-0.36468 l -2.512529,-1.70695 c -4.574255,-3.10631 -13.462426,-7.23471 -19.979391,-9.28154 -7.735592,-2.42959 -8.186126,-2.50522 -8.593543,-1.44351 -0.192393,0.50151 -0.281968,0.95522 -0.198129,1.00914 0.08386,0.0539 1.746062,0.77451 3.693681,1.60135 7.542658,3.20223 17.2939,9.84789 22.872932,15.58791 l 2.96213,3.04704 c 0.0026,0.0284 0.01191,0.0576 0.01324,0.086 l -1.93665,2.6486 c -1.081782,1.47941 -2.799439,4.28289 -3.816693,6.23016 -0.385607,0.73814 -0.819817,1.44603 -1.281304,2.11517 -0.698387,0.91742 -1.541858,1.9035 -2.436323,2.84783 -0.220668,0.20199 -0.44175,0.3945 -0.664058,0.56934 -1.39289,1.0955 -2.97214,2.47669 -3.50861,3.0699 -0.614052,0.67901 -0.918617,1.40846 -0.951452,2.15764 -0.0049,0.0235 -0.02395,0.0594 -0.02395,0.0783 0,0.045 0.01191,0.0958 0.01742,0.1437 0.05767,1.90171 1.903413,3.91594 5.291766,5.57372 1.531431,0.74927 2.795489,1.52427 3.007852,1.82888 -0.100969,0.28511 -0.430374,0.87258 -0.879605,1.59917 -0.243611,0.33724 -0.509465,0.69246 -0.804488,1.06248 -2.282277,2.86256 -3.846084,5.98131 -3.846084,7.66932 0,0.0426 0.0086,0.088 0.01204,0.13178 -2.2e-5,9.1e-4 1.6e-5,0.003 0,0.003 -2.51e-4,0.0133 0.0041,0.0265 0.0044,0.0391 0.0056,0.0561 0.0077,0.11101 0.01851,0.16874 0.01059,0.0598 0.0281,0.12093 0.0479,0.18288 0.08552,0.3134 0.239725,0.64339 0.456132,0.97541 0.165533,0.29403 0.376497,0.57371 0.643374,0.84041 0.124095,0.12398 0.270398,0.24786 0.425648,0.37012 0.03659,0.0322 0.07016,0.0653 0.107769,0.0969 3.334672,2.80593 5.904865,1.51834 8.604428,-4.30985 l 0.08382,-0.1818 c 0.305107,-0.5991 0.578849,-1.18161 0.792512,-1.71022 l 0.818635,-1.7679 c 0.153763,0.13007 0.367661,0.37572 0.6031,0.67168 l 0.366866,0.70215 c 2.172681,4.1621 7.562993,7.20512 14.44268,8.15375 3.217246,0.44362 5.028209,0.99201 6.003718,1.81472 0.210642,0.19216 0.437019,0.38042 0.677128,0.56608 2.179628,1.81195 3.000913,2.22137 5.35599,2.85544 h 0.0012 c 3.5405,0.95303 5.897535,0.92525 9.860698,-0.11762 1.839332,-0.48401 5.852393,-0.92097 8.917951,-0.97214 0.0384,-6.4e-4 0.0667,-9.7e-4 0.104542,-0.003 1.05202,0.0919 2.15019,0.0453 3.25822,-0.12622 2.20919,-0.16528 3.28672,-0.52963 5.03377,-1.44785 1.55206,-0.81575 3.13358,-1.85897 3.51515,-2.31876 0.38159,-0.4598 1.74552,-0.99903 3.0307,-1.19748 6.22916,-0.96132 10.75543,-3.46551 13.76122,-7.61487 l 1.66884,-2.30571 -0.0162,1.91271 c -0.0533,0.99449 -0.40793,2.83711 -0.8524,4.33379 -0.38631,1.30084 -0.66053,2.44264 -0.70432,2.8881 l -0.008,0.0239 0.004,0.003 c -0.008,0.0926 -0.006,0.1617 0.0106,0.17635 0.0975,0.0818 1.26767,0.82851 2.60071,1.65905 0.75459,0.47014 1.37302,0.79641 2.08469,1.03854 l 0.74244,0.47573 1.31397,-0.0317 c 1.03479,0.13299 2.35143,0.21812 4.21948,0.30591 6.36701,0.2992 10.35538,-0.44348 11.4174,-2.12716 0.15401,-0.24414 0.23932,-0.54131 0.25257,-0.91879 2e-5,-7.7e-4 -3e-5,-9.8e-4 0,-0.003 0.0668,-0.22883 0.0461,-0.47677 -0.0621,-0.8023 -0.0802,-0.51325 -0.23693,-1.13 -0.48116,-1.89093 -0.47692,-1.48601 -0.75481,-3.4544 -0.61725,-4.37405 l 0.25038,-1.67212 h 2.72155 c 1.29885,0.26485 2.65305,0.28871 4.04637,0.0816 0.0232,-0.003 0.049,-0.004 0.0718,-0.006 0.34935,-0.0414 0.69601,-0.0965 1.04072,-0.16004 0.50884,-0.0381 0.96825,-0.0914 1.37601,-0.17091 0.0592,-0.0119 0.11736,-0.0255 0.17527,-0.0381 1.02772,-0.19916 1.8867,-0.51918 2.93055,-1.03309 3.9004,-1.92026 8.73586,-6.65019 13.55003,-13.25611 3.25577,-4.46755 5.54143,-6.82875 7.89246,-7.87069 0.38988,-0.14708 0.79694,-0.28863 1.20945,-0.41693 0.69013,-0.17699 1.3988,-0.26019 2.15329,-0.26019 1.27593,0 2.31984,-0.23367 2.31984,-0.51818 0,-0.0611 -0.0766,-0.14748 -0.19704,-0.24712 l 0.47682,-0.10664 -1.47943,-0.48987 c -0.54547,-0.27668 -1.21293,-0.57565 -1.96712,-0.85784 -8.01104,-2.99731 -17.28208,-3.97515 -24.38394,-2.57132 -2.43109,0.48059 -4.51375,0.78022 -4.62771,0.66624 -0.3666,-0.36658 4.83869,-15.36267 6.88985,-19.84984 1.94185,-4.2481 2.03355,-4.34819 4.31854,-4.69084 1.28414,-0.19257 3.11428,-0.82489 4.06707,-1.40432 l 1.6841,-1.02331 c 0.0446,0.0169 0.0904,0.0395 0.13608,0.063 l 1.50555,1.58067 c 0.87656,0.92017 3.85108,3.06326 6.61008,4.7627 2.98824,1.84066 5.18743,3.3294 6.9541,4.73222 0.42184,0.34448 0.8418,0.68895 1.2334,1.02983 0.0567,0.0499 0.1151,0.10028 0.1709,0.15023 0.23771,0.209 0.44792,0.41196 0.67276,0.61834 1.09961,1.05535 2.01908,2.12146 2.87722,3.31593 0.59869,0.83331 1.06131,1.42333 1.40868,1.74614 0.18791,0.2454 0.33534,0.34075 0.4387,0.26888 0.0588,0.008 0.1126,0.005 0.15677,-0.0273 l 0.24821,0.31135 -0.0893,-0.66624 c 0.15573,-0.80867 -0.10782,-2.92348 -0.70323,-6.72002 -1.11445,-7.10697 -2.48712,-11.01171 -5.05119,-14.37083 -0.90669,-1.18831 -1.36784,-1.80046 -1.46637,-2.12499 -0.0289,-0.17519 0.0302,-0.27787 0.17744,-0.32441 0.15831,-0.038 0.40317,-0.0391 0.73155,-0.0391 0.73831,0 3.28897,-1.03142 5.66734,-2.29154 3.11925,-1.65264 5.22875,-2.37303 7.57133,-2.58545 0.50392,-0.0456 0.96673,-0.10347 1.39345,-0.16548 l 2.13368,-0.0196 -9.8e-4,-9.7e-4 -0.0958,-0.086 -0.31135,-0.27979 c 0.0758,-0.0377 0.12847,-0.0744 0.12847,-0.10782 0,-0.20099 -1.19935,-1.28085 -2.66601,-2.39932 -6.94137,-5.29353 -14.07228,-8.29482 -19.83025,-8.34644 -1.04755,-0.009 -1.72355,-0.0215 -2.18921,-0.0903 -0.56904,-0.14952 -0.81506,-0.35477 -0.90573,-0.68257 -0.0477,-0.24374 -0.0486,-0.56518 -0.049,-0.99392 -0.004,-4.00916 -4.98851,-11.49398 -10.99504,-16.51213 -2.54955,-2.12997 -3.68927,-3.0672 -4.19879,-2.96431 z m 1.88548,3.65667 c 0.16619,0.0369 0.37232,0.13789 0.62595,0.30807 l 2.93056,2.90444 c 4.13028,4.09354 7.34349,9.27438 7.85111,12.65953 0.0557,0.37166 0.0966,0.72645 0.12742,1.05922 7e-5,7.9e-4 -7e-5,9.8e-4 0,0.003 l -0.13826,1.71021 c -0.0589,0.0236 -0.12662,0.0368 -0.20683,0.0337 -0.17616,-0.0909 -0.71134,-0.31862 -1.32921,-0.57261 -1.02424,-0.6588 -2.12094,-1.72602 -2.12715,-2.35033 -0.018,-1.79932 -0.64004,-3.62291 -1.23557,-3.62291 -0.30364,0 -0.40642,0.37831 -0.22862,0.84149 0.17716,0.46318 0.17238,1.59184 -0.0105,2.50818 -0.0589,0.29422 -0.12345,0.53207 -0.19812,0.73591 -0.20434,0.42955 -0.51158,0.68368 -1.07447,0.89701 -0.15522,0.0222 -0.32485,0.0367 -0.52363,0.037 -0.80482,0.003 -2.16512,0.37004 -3.02309,0.81754 -1.55944,0.8134 -1.5616,0.8112 -2.72699,-1.81581 -1.32194,-2.97972 -1.49314,-6.20907 -0.51926,-10.21559 0.0253,-0.0749 0.0423,-0.13922 0.0685,-0.21554 0.32926,-0.95694 0.61847,-1.97427 0.823,-2.83693 z m -17.88923,10.0218 c 0.46524,0.006 0.93594,0.0106 1.38035,0.0283 1.13614,0.0463 2.19708,0.14855 3.19292,0.30156 2.99761,0.73529 6.91117,2.76048 8.76554,4.33379 0.0895,0.0943 0.17958,0.18911 0.26018,0.28411 0.0543,0.0649 0.0935,0.1171 0.14479,0.17963 0.2573,0.31559 0.47317,0.60897 0.65425,0.88178 0.0221,0.15002 -0.0133,0.28156 -0.11763,0.38645 -0.2076,0.20762 -0.67469,0.0797 -1.03745,-0.28304 -0.36275,-0.36274 -0.87937,-0.6586 -1.14849,-0.6586 -0.26913,0 0.417,1.05895 1.52516,2.35358 2.12444,2.48199 2.99995,4.66236 2.18375,5.43873 -0.26878,0.25568 -1.40863,0.84309 -2.53321,1.30526 -1.89193,0.77756 -2.21131,0.75755 -4.27935,-0.26562 -1.22925,-0.60818 -4.15059,-2.78213 -6.49143,-4.8302 -2.34084,-2.04808 -5.43165,-4.6915 -6.86808,-5.87527 -1.43643,-1.18376 -2.68742,-2.35273 -2.78032,-2.59744 -0.17422,-0.45851 3.77895,-0.9075 7.14894,-0.98303 z M 41.914677,180.6683 c 0.193263,-0.0579 1.389779,1.11989 4.160696,3.95278 6.745828,6.89668 12.623822,14.72915 15.888356,21.17141 1.327939,2.62057 1.391767,3.08494 0.895935,6.58613 -0.293366,2.0716 -0.670552,3.98696 -0.837149,4.2565 -0.166582,0.26953 -0.793935,0.75304 -1.394519,1.07446 -0.543227,0.29074 -0.859297,0.36827 -1.089695,0.19379 -0.101216,-0.15147 -0.218556,-0.34878 -0.354891,-0.6031 -9.77e-4,-9.8e-4 -0.0013,-0.004 -0.0026,-0.005 -0.195216,-0.54968 -2.312419,-5.59322 -4.704994,-11.20732 -3.87623,-9.09546 -7.475175,-16.34542 -11.948665,-24.0704 -0.482868,-0.83385 -0.728846,-1.31406 -0.612891,-1.34881 z m 131.976293,0.50839 c 1.54121,-0.0264 3.0983,0.41721 4.13239,1.45112 1.66185,1.66156 2.3838,5.287 1.41412,7.09888 -0.87999,1.64426 -2.25887,2.21046 -4.29133,1.76246 -3.38755,-0.7466 -6.33814,-3.9146 -6.34445,-6.81256 -0.005,-2.10494 2.5206,-3.45576 5.08927,-3.4999 z m 10.31464,0.33421 1.17355,0.0729 c 0.0293,9.8e-4 0.058,0.005 0.087,0.006 3.8082,0.46509 9.6127,2.5194 13.81782,5.21012 l 3.23426,2.07054 -1.99107,0.6891 c -1.09499,0.37936 -3.47775,1.44334 -5.29504,2.36448 -1.96049,0.99372 -3.80408,1.68396 -5.20903,1.97911 -0.65732,0.0791 -1.32562,0.10439 -2.01611,0.0772 -0.32515,-0.092 -2.12493,-0.48568 -4.03552,-0.88288 -2.29262,-0.47662 -3.13401,-0.78449 -3.20053,-1.26061 6.3e-4,-0.0935 0.0238,-0.19107 0.0708,-0.29827 0.0668,-0.15227 0.14127,-0.39351 0.21664,-0.66407 0.2139,-0.56196 0.45767,-1.20326 0.69672,-1.89092 0.82041,-2.36024 1.38482,-2.9447 3.23863,-3.35185 2.40847,-0.52899 2.83007,-1.63743 0.47246,-1.2421 -1.04397,0.17501 -2.30375,0.47926 -2.79993,0.67602 -0.0289,0.0119 -0.0566,0.0137 -0.0849,0.0219 -0.24155,-0.004 -0.43902,-0.0272 -0.59221,-0.0796 -0.6981,-0.43148 -0.96188,-2.0028 -0.22534,-2.89026 0.28642,-0.34512 0.84597,-0.53929 1.60244,-0.60529 0.25489,-0.008 0.53162,-0.009 0.83931,-0.003 z m -17.58224,6.41086 c 0.35829,-0.006 0.61774,0.0906 0.84694,0.28086 0.62063,0.51509 0.42966,0.93707 -1.09842,2.30897 -0.57355,0.2996 -0.84085,0.53383 -0.79796,0.65752 -0.28786,0.24683 -0.45887,0.46013 -0.48443,0.60201 -0.85103,0.99815 -0.45173,1.20582 1.16701,-0.0185 0.20829,-0.15755 0.40693,-0.28786 0.6009,-0.40497 0.51831,-0.25513 0.9711,-0.42669 1.37493,-0.49205 1.18391,-0.0708 2.12894,0.95561 3.13522,3.23102 2.08305,4.71011 2.24693,6.09309 0.81101,6.86155 -0.65848,0.35239 -3.36292,1.01864 -6.00915,1.48052 -2.64621,0.4619 -5.50736,1.19925 -6.35861,1.63946 -0.85122,0.4402 -1.6854,0.80121 -1.85392,0.80121 -0.1926,0 -0.28404,-1.01221 -0.3059,-2.37863 v -1.25734 c 0.0359,-2.64494 0.27288,-5.93023 0.63574,-7.0107 0.91469,-2.72354 2.03955,-3.8325 5.41478,-5.33857 1.45466,-0.64907 2.3247,-0.95091 2.92186,-0.96235 z m -77.026179,4.12804 c 0.317062,0 0.443529,0.34339 0.281948,0.7642 -0.349878,0.91176 -5.802324,3.9838 -5.802324,3.26911 0,-0.18778 0.134669,-0.43965 0.357061,-0.72282 0.134895,-0.14788 0.234673,-0.26088 0.408228,-0.44852 1.248631,-1.26841 3.7033,-2.86197 4.755087,-2.86197 z m 84.045569,1.32376 c 0.43235,0.0224 1.82284,0.18732 3.5108,0.42238 2.65016,0.36904 4.40278,1.02538 6.54912,2.45048 3.00723,1.99667 3.675,2.02513 1.95515,0.0849 -0.21416,-0.24159 -0.36308,-0.4135 -0.47681,-0.55193 -0.0755,-0.12424 -0.10079,-0.22695 -0.0708,-0.29501 0.13973,0.0488 0.39213,0.17766 0.78817,0.38537 0.20082,0.10532 0.4242,0.25769 0.66078,0.44307 0.3205,0.2715 0.66538,0.58961 1.02874,0.94273 1.67146,1.69578 3.64058,4.43652 4.56567,6.54259 0.59521,1.35509 1.36825,4.05811 1.71784,6.0059 0.21772,1.21316 0.36908,2.26645 0.43762,2.94905 -0.0879,0.44207 -0.22099,0.59872 -0.59548,0.41477 -0.44293,-0.31234 -1.06162,-0.79979 -1.75049,-1.39778 -1.20718,-1.04795 -4.6541,-3.41656 -7.6595,-5.26345 -6.00009,-3.6872 -7.92967,-5.69296 -9.73987,-10.12305 -0.64763,-1.58493 -1.13458,-2.90316 -1.10929,-2.99479 0.0426,-0.008 0.10544,-0.0135 0.18832,-0.0152 z m -102.337597,0.72611 -0.288496,1.29436 c -0.376446,1.69077 -1.318373,9.52983 -1.741776,14.49167 -0.306466,3.59154 -0.327834,3.63103 -2.507092,4.55695 -2.579005,1.09575 -2.539575,1.22643 -1.408664,-4.68433 0.630143,-3.29347 2.475944,-8.76721 4.018086,-12.19358 0.177698,-0.35538 0.352735,-0.72045 0.534507,-1.05596 0.611024,-1.12781 1.0952,-1.95486 1.393435,-2.40911 z m 20.364747,0.20683 c 0.03506,0.0106 0.06933,0.0238 0.101215,0.0436 l 0.337466,1.16916 c 0.201037,0.69735 0.578899,3.95296 0.839331,7.23495 0.556102,7.0076 1.493755,9.08756 4.873736,10.80452 l 2.293722,1.16483 -1.759212,1.40323 c -0.26452,0.21106 -0.49438,0.37799 -0.71087,0.52471 -0.602956,0.25909 -1.244697,0.42445 -1.978013,0.50185 -0.143626,-0.0345 -0.29191,-0.0792 -0.452869,-0.13934 -0.760778,-0.28397 -2.114862,-0.3716 -3.008932,-0.19487 -0.894068,0.17666 -2.398951,0.88366 -3.344226,1.57088 -1.292823,0.93995 -2.321721,1.20593 -4.154172,1.07447 -2.433472,-0.17449 -2.43604,-0.17622 -2.129337,-2.0662 0.168872,-1.04058 1.322277,-3.60168 2.563696,-5.69129 3.136839,-5.28009 3.275,-6.43981 1.222525,-10.27437 l -1.38363,-2.58546 c -0.03652,-0.18974 -0.04709,-0.35744 -0.03043,-0.50186 0.156461,-0.0914 0.453438,-0.24885 0.903543,-0.48007 l 0.471381,-0.16438 c 0.907935,-0.3165 2.498703,-1.22263 3.534732,-2.01285 z m 54.65294,2.5256 c 0.15509,0.0215 0.33815,0.23465 0.60853,0.59439 0.0387,0.0516 0.0767,0.11272 0.11537,0.16546 l 2.16199,4.49054 c 3.43563,7.13405 4.52138,11.5068 4.5319,18.25394 0.004,2.47124 -0.0469,3.78422 -0.22425,4.47203 -0.156,0.3151 -0.38285,0.52083 -0.71196,0.69563 -0.51134,0.0322 -1.6273,0.41161 -2.56695,0.88395 -0.98107,0.49317 -2.86368,1.93536 -4.18355,3.20489 l -2.28066,2.19466 c 0.0147,-0.0445 0.24029,-0.63779 0.32875,-0.87525 l 0.68585,-1.51862 c 1.47155,-3.25655 1.51034,-8.36509 0.0882,-11.49689 -0.57446,-1.26503 -1.32191,-2.47166 -1.66122,-2.68125 -0.44801,-0.27692 -0.43845,-0.71508 0.0337,-1.60138 0.55019,-1.03275 0.52868,-1.12071 -0.14043,-0.56934 -0.63092,0.51991 -1.21791,0.25992 -2.90442,-1.28565 l -1.21927,-1.11693 c -0.2247,-0.33956 -0.37464,-0.62549 -0.45394,-0.85999 0.0105,-0.23183 0.0846,-0.48158 0.22643,-0.76857 l 1.48597,-1.8071 c 3.4124,-4.14846 4.684,-6.17187 5.4409,-8.65778 l 0.51274,-1.68409 c 0.0408,-0.0258 0.0823,-0.0387 0.12622,-0.0326 z m -30.62062,8.05903 c 2.91509,0.0266 5.99977,0.38032 8.64143,1.05596 13.36025,3.41697 21.64165,12.23146 19.38065,20.62821 l -0.38319,1.42499 -0.32659,0.93621 -0.15676,-0.2874 -1.13543,-2.24037 c -0.73539,-1.45071 -2.13942,-3.63534 -3.11888,-4.85415 -1.71267,-2.13121 -7.10419,-6.65254 -7.93275,-6.65254 -0.22063,0 1.45576,1.81845 3.72525,4.04095 4.47901,4.38632 7.04704,8.78757 7.48422,12.82717 0.21076,1.94698 -0.16849,3.24814 -2.16417,7.42545 l -2.4189,5.06534 -1.46636,-2.05857 c -0.80628,-1.13248 -2.60783,-2.61288 -4.00393,-3.28871 -0.80257,-0.38851 -1.4022,-0.75668 -1.87024,-1.15393 -0.37984,-0.40396 -0.74557,-0.89215 -1.12128,-1.50992 -0.0527,-0.1245 -0.10348,-0.2503 -0.14806,-0.38537 -0.7208,-2.18407 -3.3628,-6.23977 -6.23451,-9.8117 -0.0315,-0.0392 -0.0621,-0.0796 -0.0937,-0.11869 -1.14927,-1.42258 -2.32871,-2.77022 -3.44004,-3.87548 -4.14182,-4.11914 -8.67284,-6.81649 -13.01985,-7.74877 -0.33002,-0.0708 -0.63611,-0.14919 -0.93185,-0.22861 -1.04868,-0.36272 -1.8007,-0.71115 -1.90836,-0.91444 0.27031,-0.71939 3.85712,-2.09478 6.87027,-2.74331 1.88735,-0.23554 4.03546,-0.32566 6.08972,-0.25148 1.03171,0.10612 2.09421,0.26921 3.13521,0.48989 2.27845,0.48305 4.23843,0.78226 4.35556,0.66513 0.11722,-0.11722 -1.12055,-0.67708 -2.74985,-1.24319 -1.53814,-0.53447 -3.36529,-0.84971 -5.65644,-0.97214 -1.02317,-0.0843 -2.06481,-0.10243 -3.10474,-0.0556 -3.42023,0.0146 -4.64567,0.21827 -8.11565,1.89092 -0.11128,0.0541 -0.22579,0.10492 -0.33419,0.16111 -0.82989,0.40518 -1.74374,0.86171 -2.89029,1.44461 -0.004,0.003 -0.008,9.8e-4 -0.0119,0.003 -0.0185,0.004 -0.0365,0.006 -0.0533,0.009 -0.23027,-0.0717 -0.31474,-0.32214 -0.33856,-0.71305 0.15721,-1.45396 4.82479,-5.08374 7.82498,-6.05272 1.96183,-0.63358 4.7074,-0.93452 7.6225,-0.90789 z m 48.08747,0.0468 c 0.12662,-0.0278 0.13471,0.19641 0.003,0.69454 -8.9e-4,0.004 -0.003,0.009 -0.003,0.0119 -0.19844,0.60849 -0.58785,1.57661 -1.22796,2.98716 -0.93904,2.06926 -3.0368,7.73553 -4.66146,12.59204 -1.62466,4.85652 -3.13779,8.99504 -3.36274,9.19662 -0.22499,0.20165 -0.24858,-0.0804 -0.0523,-0.62702 0.19637,-0.54657 0.62789,-2.67851 0.95907,-4.73767 0.86178,-5.35829 1.39392,-6.89735 4.80624,-13.91579 1.75378,-3.60715 3.09877,-5.8485 3.5391,-6.20186 z m -60.17004,0.48879 -0.79142,0.70435 -0.70107,0.54429 c -2.08903,1.62305 -3.517012,3.31176 -3.540182,4.18574 v 9.8e-4 c -0.003,0.0837 -0.009,0.15839 -0.0207,0.22644 -0.0372,0.062 -0.0724,0.13481 -0.11207,0.18179 0,0 -10e-4,9.7e-4 -10e-4,9.7e-4 -0.036,0.0423 -0.0726,0.0787 -0.11101,0.1089 0,0 -0.001,9.7e-4 -0.001,9.7e-4 -0.14258,0.11141 -0.30504,0.13452 -0.49097,0.0762 -0.41711,-0.21484 -0.963441,-0.80328 -1.51644,-1.71022 -0.468068,-0.76772 -0.868992,-1.60391 -1.029831,-2.11737 0.0065,-0.0511 0.01191,-0.10294 0.02395,-0.15242 0.0893,-0.26954 0.244079,-0.52229 0.472466,-0.75441 0.0823,-0.0746 0.170393,-0.14801 0.27324,-0.21771 1.196468,-0.57923 3.471125,-1.0726 5.496427,-1.07556 z m -65.732865,2.40695 c 0.03984,0.003 0.103548,0.0191 0.174179,0.0381 0.248504,0.0843 0.555755,0.19562 0.917701,0.33311 1.982086,0.80131 6.067273,2.75827 8.655596,4.20532 1.875288,1.04845 4.962354,3.07218 6.859375,4.49818 l 2.528856,1.90073 0.07621,0.0664 0.256914,0.27433 c 0.195652,0.23405 0.317156,0.41663 0.372304,0.58023 l -1.028738,1.09406 c -0.36164,0.38495 -0.653974,0.67383 -0.908994,0.87959 -0.158327,0.1126 -0.295352,0.20377 -0.411497,0.27435 -0.05213,0.0249 -0.103072,0.0451 -0.152412,0.0599 -0.239301,-0.0486 -0.493119,-0.17379 -0.776177,-0.37667 -0.131652,-0.11392 -0.244794,-0.20799 -0.409327,-0.35925 -0.02633,-0.028 -0.06059,-0.0617 -0.08811,-0.0903 -0.043,-0.0588 -0.08189,-0.10492 -0.127418,-0.16983 -1.293958,-1.84738 -8.257406,-7.80184 -12.248032,-10.47358 -2.069244,-1.38537 -3.76226,-2.60399 -3.76226,-2.70848 0,-0.0211 0.02481,-0.0295 0.07185,-0.0261 z m 45.064389,2.08142 c 0.356664,0.005 0.56826,0.078 0.56826,0.2297 0,0.22273 -0.429874,1.13341 -0.955807,2.02373 -0.360766,0.61075 -0.645929,1.0277 -0.891583,1.2824 -0.207732,0.11023 -0.449046,0.16204 -0.75768,0.16112 -0.03149,-0.006 -0.156818,-0.0331 -0.195943,-0.0414 -0.03162,-0.0267 -0.06231,-0.046 -0.09473,-0.0783 -0.162031,-0.16202 -1.394863,-0.50277 -2.740056,-0.75658 l -2.446122,-0.46049 2.197928,-0.96886 c 1.871536,-0.82468 4.245719,-1.40758 5.315713,-1.39126 z m -7.47662,4.62554 c 0.472744,0.008 0.934637,0.0397 1.38363,0.0991 1.685053,0.22288 2.804294,0.53705 3.38015,0.87524 0.200402,0.16463 0.33552,0.34399 0.372304,0.53887 0.01429,0.0756 0.0119,0.14482 0.0012,0.21228 -0.299386,0.4276 -1.481939,0.81673 -3.578289,1.0331 -3.87536,0.39999 -9.117627,2.88791 -12.666052,6.01135 -4.02776,3.54538 -4.26087,4.91807 -0.271072,1.59591 1.946202,-1.62054 4.869485,-3.55654 6.496876,-4.30222 1.777198,-0.81435 4.807299,-1.48888 6.988913,-1.71893 1.414035,-0.0548 2.282251,0.0696 2.545185,0.38754 -0.22713,0.42643 -1.325346,1.54953 -2.642065,2.68346 -8.587671,7.39547 -12.107902,27.5813 -6.873535,39.41446 l 0.996084,2.25235 c -0.138215,0.23044 -0.676335,0.28758 -1.71239,0.28521 -4.297573,-0.11935 -10.190068,-2.72033 -12.659529,-5.4986 -0.16559,-0.1863 -0.315238,-0.37348 -0.448517,-0.56063 -0.641351,-0.9007 -1.524332,-2.49629 -1.962767,-3.54563 l -0.674944,-1.61442 c -0.0065,-0.11696 -0.0026,-0.22376 0.02937,-0.30699 l 3.253828,-0.29498 c 3.925309,-0.35594 6.121662,-1.71519 6.420666,-3.78077 0.07264,-0.27652 0.07978,-0.56436 0.01958,-0.88178 -0.0909,-0.9079 -0.48677,-1.92167 -1.219257,-3.02854 -0.792943,-1.19823 -1.796806,-3.54148 -2.23057,-5.20686 -0.484546,-1.86029 -0.970269,-3.25236 -1.562174,-4.31092 -0.03241,-0.063 -0.06245,-0.111 -0.09367,-0.16546 -0.96159,-1.62968 -2.220065,-2.41055 -4.215129,-2.81626 -0.15961,-0.0325 -0.319458,-0.0657 -0.488794,-0.0937 -0.292611,-0.0633 -0.587366,-0.10532 -0.882862,-0.12516 l -2.664937,-0.33311 2.475516,-3.35949 c 0.217366,-0.29503 0.441015,-0.58672 0.668409,-0.87524 0.938859,-1.04599 2.002859,-2.18551 3.105825,-3.29198 1.098838,-1.10233 2.164374,-2.08516 3.214692,-2.96975 5.052051,-3.9423 10.810711,-6.37972 15.494283,-6.30744 z m 28.204966,1.83975 c 1.86317,-0.0197 4.0068,0.45643 6.0919,1.41194 3.94892,1.80964 10.30842,7.76406 13.63384,12.76622 4.68796,7.0517 7.10954,18.07546 5.05227,22.99921 -1.77568,4.24976 -6.86722,8.01416 -12.18924,9.01047 l -1.34552,0.25149 c -0.37032,-0.0364 -0.48982,-0.17992 -0.38319,-0.68039 l 0.5835,-1.33249 c 1.29683,-2.96114 1.2579,-10.54071 -0.0773,-15.10998 -0.55984,-1.91596 -1.25248,-3.48358 -1.5393,-3.48358 -0.28681,0 -0.38819,0.43893 -0.22534,0.9754 0.55595,1.83215 1.01092,5.12187 1.18224,7.95017 -9.8e-4,0.2551 -0.009,0.445 -0.009,0.72066 0,1.40462 -0.009,2.52573 -0.037,3.46942 -1.0169,7.87761 -6.11256,12.52347 -13.79059,12.52347 -5.333192,0 -9.770633,-3.34772 -12.729206,-9.6027 -2.969753,-6.27861 -2.761901,-5.97403 -2.47117,-3.61531 0.402539,3.26554 2.773996,7.88968 5.591138,10.90141 l 1.994351,2.1326 0.459393,0.49751 c -0.08694,0.0673 -0.239197,0.15116 -0.450688,0.24494 -0.0012,5.2e-4 -0.0026,5.6e-4 -0.004,9.8e-4 l -1.927943,0.48552 c -2.667138,0.67165 -6.586531,0.72109 -9.277196,0.17201 -0.0026,-4.2e-4 -0.004,-6.7e-4 -0.0065,-9.8e-4 -0.555386,-0.13674 -1.093916,-0.30084 -1.611157,-0.50185 -1.155839,-0.56923 -2.916457,-1.88655 -4.249966,-3.21467 -3.907301,-3.89161 -5.318121,-7.78354 -5.488807,-15.65868 -0.004,-0.5196 -0.01059,-1.03014 -0.0119,-1.62747 -8.73e-4,-0.32348 0.0026,-0.60631 0.0026,-0.91227 0.08151,-6.44531 1.221348,-12.1566 3.305036,-16.70483 1.244515,-2.56158 2.71104,-4.7328 4.265208,-6.32704 2.09303,-1.89399 5.503162,-3.34171 7.02158,-2.85979 1.03718,0.32919 1.029017,0.46047 -0.293921,4.37515 -0.910874,2.69527 -1.359761,5.26229 -1.587209,9.14003 -0.107173,1.22399 -0.150506,2.38673 -0.125168,3.44112 -0.05623,4.15821 0.323864,6.05328 0.728281,4.619 l 0.183982,0.76966 0.04142,-1.93449 c 0.104792,-0.71862 0.205642,-1.65635 0.293935,-2.88701 0.726282,-10.12353 3.669216,-17.80674 7.286114,-19.58857 0.0389,-0.0165 0.07845,-0.0304 0.117494,-0.0457 0.418086,-0.14783 0.848501,-0.24507 1.293287,-0.28629 0.419712,-0.0235 0.8616,0.0179 1.324843,0.11325 3.820637,1.07032 10.218329,6.91302 13.802569,12.83261 2.14428,3.54137 3.16001,4.15345 1.90401,1.14741 -1.44759,-3.4646 -5.79049,-9.52718 -8.69805,-12.14135 l -1.967132,-1.76791 c -0.23208,-0.27986 -0.44773,-0.543 -0.56173,-0.70543 l 0.60962,-0.60961 0.0958,-0.0631 0.788172,-0.48009 c 0.12133,-0.074 0.246,-0.1358 0.36904,-0.20249 0.85489,-0.39118 1.89063,-0.59535 3.03723,-0.60744 z m -81.040991,0.46485 c -2.476031,-0.11829 -4.884351,0.84184 -7.145686,2.88483 -2.465106,2.22709 -3.01245,3.76412 -3.87874,10.89924 -0.324463,2.6724 -0.957843,5.90147 -1.407581,7.17615 -0.5135335,1.45553 -0.7761065,2.70675 -0.7914225,3.77425 l -0.203576,0.68582 0.284132,0.3821 c 0.157563,0.91102 0.5466805,1.65605 1.1767955,2.24801 0.254965,0.23952 0.678388,0.48701 1.194214,0.72609 0.355708,0.2023 0.802603,0.3797 1.329197,0.52581 0.0019,5e-4 0.0036,5.8e-4 0.0055,9.8e-4 1.939515,0.66402 4.326242,1.11566 5.239513,0.8317 0.38613,-0.12001 1.988347,-0.36845 3.559779,-0.55192 l 2.85653,-0.33421 0.246024,6.55892 c 0.254657,6.78987 1.022778,9.44999 3.097115,10.72722 0.309788,0.19074 1.056894,0.3215 1.938829,0.3832 1.056398,0.20031 2.155228,0.15205 3.175492,-0.10017 1.605416,-0.20292 2.330779,-0.59654 3.201622,-1.60897 0.62235,-0.72352 0.94979,-1.32157 1.12237,-2.31004 0.136082,-0.46119 0.175778,-1.02443 0.15676,-1.83215 -3.9e-5,-9.7e-4 3.8e-5,-0.004 0,-0.005 2.84e-4,-0.005 8.03e-4,-0.009 0.0012,-0.0142 0.02711,-0.45601 0.03465,-0.9346 0.01742,-1.44133 -0.0073,-4.17557 -1.035977,-8.57048 -2.836933,-12.10652 l -0.305902,-0.60199 c -0.12759,-0.32312 -0.253605,-0.64474 -0.38864,-0.97213 -0.108431,-0.26293 -0.02918,-0.55595 0.228611,-0.88614 l 3.023091,-2.15764 c 2.145024,-1.53066 4.169337,-3.53876 5.006548,-4.96735 2.560684,-4.36948 1.638969,-6.70462 -3.452003,-8.74051 -4.153669,-1.66107 -5.390311,-2.43699 -8.899448,-5.58678 -2.531059,-2.27187 -5.074618,-3.46873 -7.550643,-3.587 z m -1.165911,2.05423 c 0.408943,-0.003 0.850939,0.009 1.360772,0.0424 0.281229,0.018 0.524271,0.0394 0.765294,0.061 0.754616,0.17302 1.522033,0.44938 2.296987,0.84368 7.35e-4,3.8e-4 0.0015,7.1e-4 0.0022,9.8e-4 1.311714,0.71816 2.754025,1.83454 4.480751,3.40736 1.85698,1.69149 4.32421,3.19244 6.967149,4.23908 3.787805,1.50003 4.10504,1.75232 4.264112,3.39431 0.346937,3.58105 -6.871831,9.47317 -14.870509,12.13699 -4.189547,1.39524 -10.247464,2.16916 -12.693274,1.62205 -0.657732,-0.14716 -1.616217,-0.73174 -2.129334,-1.29874 -0.139136,-0.15375 -0.246988,-0.29 -0.340737,-0.42455 -0.145943,-0.53266 -0.163718,-1.24998 -0.0479,-2.27194 0.131268,-0.49832 0.309364,-1.09745 0.554106,-1.88984 0.604119,-1.95589 1.265134,-5.05276 1.468547,-6.88116 0.959493,-8.62419 2.10935,-10.99749 6.047267,-12.48534 0.649945,-0.24557 1.268014,-0.41243 1.874598,-0.4964 z m 130.982382,9.57219 c 0.13399,0.13398 -0.10743,1.08576 -0.53778,2.11519 -0.35472,0.84862 -0.99699,1.80685 -1.55779,2.45701 -0.17756,0.19539 -0.35326,0.37308 -0.51819,0.52144 -0.32137,0.27167 -0.55193,0.34203 -0.55193,0.036 0,-0.66985 2.91004,-5.38519 3.16569,-5.12956 z m 17.28399,1.03201 c 0.51458,0.008 1.03618,0.0251 1.56652,0.0511 5.66115,0.2773 11.42612,1.28351 11.42612,1.99434 0,0.21507 -0.7641,0.84161 -1.69825,1.39344 -0.93415,0.55183 -3.7761,3.80448 -6.31615,7.22733 -2.12994,2.87019 -3.9331,5.09882 -5.59113,6.87679 -0.26171,0.27398 -0.52602,0.55858 -0.78382,0.81754 -0.0795,0.0804 -0.15954,0.16439 -0.2384,0.24276 -0.1118,0.11076 -0.22221,0.2155 -0.33311,0.32332 -1.86921,1.80618 -3.60384,3.05094 -5.48881,4.00612 -4.02446,2.03934 -10.76318,2.46269 -10.76318,0.67603 0,-0.40202 0.37095,-1.61849 0.8241,-2.70303 0.28874,-0.69105 0.58033,-1.17648 0.94274,-1.53605 0.19651,-0.1736 0.40811,-0.32754 0.63794,-0.46374 0.30194,-0.15762 0.64664,-0.27742 1.06684,-0.36905 3.17839,-0.69299 7.06784,-2.6772 9.65494,-4.87809 0.35698,-0.28256 0.67195,-0.55528 0.8992,-0.80339 0.0211,-0.0232 0.0224,-0.028 0.0424,-0.05 1.17922,-1.1392 2.09559,-2.21835 2.09559,-2.51034 0,-0.32974 -0.94056,0.31674 -2.09015,1.43588 -2.22628,2.16735 -8.12143,5.04983 -10.37997,5.3647 -0.20879,0.0119 -0.39359,0.008 -0.53232,-0.0249 -0.25683,-0.0618 -0.25066,-0.43567 0.0317,-1.16698 0.47923,-0.93975 1.34088,-2.47115 2.36229,-4.16941 1.74602,-2.90306 2.35461,-3.98097 2.2088,-4.37406 0.005,-0.0156 0.0392,-0.0815 0.0392,-0.0882 0,-0.11829 -0.16878,-0.15108 -0.44416,-0.12185 -0.0225,-0.003 -0.0521,8.7e-4 -0.0783,9.8e-4 -0.0643,-0.004 -0.11829,-0.0106 -0.19378,-0.0106 -0.74867,0.003 -2.0549,0.55641 -3.5391,1.40214 -0.0253,0.0144 -0.0508,0.028 -0.0762,0.0424 -0.23839,0.1257 -0.47096,0.25392 -0.68475,0.38428 -0.097,0.0592 -0.24298,0.1696 -0.35705,0.24603 -1.62589,1.03093 -3.35843,2.33022 -4.79863,3.67953 l -2.31876,2.17286 c -0.12584,0.0836 -0.23476,0.14883 -0.32876,0.19815 v -1.92902 c 0,-2.66526 1.42171,-5.16103 4.18029,-7.33946 5.35167,-4.22623 11.3374,-6.11952 19.05625,-5.99721 z m -21.18013,0.30809 c 0.10466,0.0299 0.13485,0.1768 0.0796,0.45177 l -1.27912,2.6486 c -1.0089,2.08881 -2.14836,5.28205 -2.53321,7.09561 -0.63259,2.98094 -0.54739,7.48975 0.12306,8.5979 0.0493,0.17414 0.093,0.2961 0.12079,0.2961 0.0162,0 0.14648,-0.11418 0.26019,-0.2112 0.63299,-0.31749 2.28329,-1.69851 4.11497,-3.47595 5.84399,-5.67087 6.066,-5.71188 3.43785,-0.63684 -4.44659,8.58656 -5.73492,14.65608 -3.87438,18.25393 0.3863,0.74715 0.54985,1.20325 0.51164,1.52625 -0.10692,0.17569 -0.29435,0.33969 -0.58458,0.55192 v 9.8e-4 c -0.0455,0.0332 -0.11988,0.0618 -0.1818,0.0925 -1.01177,0.21069 -3.73378,0.42274 -6.71024,0.50402 -5.64861,0.15421 -6.68725,0.0333 -8.74812,-1.01351 -2.20862,-1.12183 -2.30453,-1.27017 -1.72765,-2.67691 0.93774,-2.28656 0.75025,-12.62646 -0.30806,-16.99113 -0.50635,-2.08827 -0.92098,-3.93106 -0.92098,-4.09537 0,-0.16435 0.81266,0.2158 1.80603,0.84476 2.01502,1.27583 3.73873,4.07244 3.82322,6.20295 0.0305,0.77119 0.22936,2.02313 0.44089,2.78251 0.1008,0.3621 0.19817,0.56797 0.32332,0.57151 l 0.0403,0.27762 0.13715,-0.38758 c 0.28205,-0.32709 0.70183,-1.40156 1.45114,-3.5271 2.20564,-6.25676 5.66129,-12.70274 8.4531,-15.76755 z m -95.864705,3.83628 c 0.744094,-0.005 1.509476,0.20762 2.3514,0.61942 1.96655,0.96188 2.543187,1.98997 3.603338,6.41304 0.422595,1.7632 0.533118,1.75173 -3.724166,0.37558 -1.779017,-0.57506 -4.695951,-1.10296 -6.481625,-1.17353 l -3.052481,-0.1208 c -0.05627,-0.0133 -0.122139,-0.024 -0.164379,-0.0414 l 2.26541,-2.6301 c 2.02978,-2.35642 3.565485,-3.42983 5.202503,-3.4422 z m -5.94276,8.24736 c 0.683049,-9.8e-4 1.396697,0.018 2.116267,0.0566 0.393082,0.0399 0.792522,0.0845 1.209453,0.14369 4.88585,0.69336 8.904188,2.28106 10.95149,4.32833 1.053389,1.05341 1.284488,1.42151 0.937297,1.92143 l -0.662971,0.55955 c -0.05095,0.043 -0.105453,0.0796 -0.15785,0.11973 -0.78298,0.35995 -2.206872,0.69634 -3.615284,0.82409 l -1.479438,0.1339 c -0.615974,-0.0395 -1.168184,-0.11234 -1.575234,-0.22426 -0.198788,-0.11207 -0.343963,-0.27538 -0.469184,-0.50729 l -0.437627,-1.63619 c -1.027359,-3.84116 -3.849789,-4.11715 -5.221007,-0.51056 -0.587125,1.54426 -1.783641,1.36325 -5.097997,-0.77292 -3.008894,-1.9393 -2.510921,-3.58792 0.286306,-4.226 0.906014,-0.13518 2.009269,-0.20666 3.215779,-0.21012 z m -15.096942,1.55128 c 1.13822,-0.0304 3.344238,5.52412 4.036593,10.27436 0.256598,1.76051 0.38035,2.90715 0.366862,3.78514 -0.02977,0.47215 -0.08142,0.91391 -0.163293,1.30959 -0.08598,0.32722 -0.203752,0.63567 -0.359242,0.96126 -0.24929,0.52198 -0.461377,0.87789 -0.73917,1.13542 -0.03577,0.0308 -0.06932,0.0628 -0.106685,0.0925 -0.513418,0.40272 -1.268087,0.5133 -2.835845,0.60417 -3.89705,0.2258 -4.25272,-0.49975 -4.619004,-9.44266 l -0.288483,-7.04662 1.9508,-0.69562 c 1.072942,-0.38305 2.265941,-0.81453 2.650783,-0.95799 0.0344,-0.0133 0.06997,-0.0187 0.106685,-0.0196 z m 19.362141,3.7198 c 0.312251,0.0704 0.599638,0.72552 0.857829,1.96822 0.609898,2.93545 -0.308657,7.56313 -2.204452,11.10063 -1.753196,3.27144 -3.654269,4.02243 -5.373409,2.12281 -0.943196,-1.04223 -0.936242,-1.17925 0.161113,-3.2321 0.630104,-1.17875 1.917856,-3.16818 2.860886,-4.42196 0.943033,-1.25382 2.016079,-3.46397 2.38516,-4.91076 0.46962,-1.84091 0.911409,-2.71736 1.312873,-2.62684 z"
       style="fill:#000000;stroke-width:0.5573718" />
  </g>
</svg>
