<?xml version="1.0" encoding="UTF-8" standalone="no"?>
<!-- Created with Inkscape (http://www.inkscape.org/) -->

<svg
   xmlns:dc="http://purl.org/dc/elements/1.1/"
   xmlns:cc="http://creativecommons.org/ns#"
   xmlns:rdf="http://www.w3.org/1999/02/22-rdf-syntax-ns#"
   xmlns:svg="http://www.w3.org/2000/svg"
   xmlns="http://www.w3.org/2000/svg"
   xmlns:sodipodi="http://sodipodi.sourceforge.net/DTD/sodipodi-0.dtd"
   xmlns:inkscape="http://www.inkscape.org/namespaces/inkscape"
   width="210mm"
   height="297mm"
   viewBox="0 0 210 297"
   version="1.1"
   id="svg2756"
   inkscape:version="0.92.4 (5da689c313, 2019-01-14)"
   sodipodi:docname="cute_horse.svg">
  <title
     id="title3361">Cute Horse</title>
  <defs
     id="defs2750" />
  <sodipodi:namedview
     id="base"
     pagecolor="#ffffff"
     bordercolor="#666666"
     borderopacity="1.0"
     inkscape:pageopacity="0.0"
     inkscape:pageshadow="2"
     inkscape:zoom="1.979899"
     inkscape:cx="345.12714"
     inkscape:cy="376.29166"
     inkscape:document-units="mm"
     inkscape:current-layer="layer1"
     showgrid="false"
     inkscape:window-width="3840"
     inkscape:window-height="2004"
     inkscape:window-x="-16"
     inkscape:window-y="-16"
     inkscape:window-maximized="1" />
  <metadata
     id="metadata2753">
    <rdf:RDF>
      <cc:Work
         rdf:about="">
        <dc:format>image/svg+xml</dc:format>
        <dc:type
           rdf:resource="http://purl.org/dc/dcmitype/StillImage" />
        <dc:title>Cute Horse</dc:title>
        <dc:date>2020-04-21</dc:date>
        <dc:creator>
          <cc:Agent>
            <dc:title>Cute Horses</dc:title>
          </cc:Agent>
        </dc:creator>
        <dc:source>http://www.supercoloring.com/coloring-pages/cute-horse-and-butterfly</dc:source>
        <dc:subject>
          <rdf:Bag>
            <rdf:li>csk</rdf:li>
            <rdf:li>horse</rdf:li>
            <rdf:li>animals</rdf:li>
          </rdf:Bag>
        </dc:subject>
        <cc:license
           rdf:resource="http://creativecommons.org/licenses/by-sa/4.0/" />
      </cc:Work>
      <cc:License
         rdf:about="http://creativecommons.org/licenses/by-sa/4.0/">
        <cc:permits
           rdf:resource="http://creativecommons.org/ns#Reproduction" />
        <cc:permits
           rdf:resource="http://creativecommons.org/ns#Distribution" />
        <cc:requires
           rdf:resource="http://creativecommons.org/ns#Notice" />
        <cc:requires
           rdf:resource="http://creativecommons.org/ns#Attribution" />
        <cc:permits
           rdf:resource="http://creativecommons.org/ns#DerivativeWorks" />
        <cc:requires
           rdf:resource="http://creativecommons.org/ns#ShareAlike" />
      </cc:License>
    </rdf:RDF>
  </metadata>
  <g
     inkscape:label="Layer 1"
     inkscape:groupmode="layer"
     id="layer1">
    <path
       inkscape:connector-curvature="0"
       id="path3352"
       d="m 50.554101,120.84738 c -4.005755,0.15007 -8.189547,1.40394 -10.963734,4.44363 -1.928998,2.16965 -3.60481,4.70327 -4.361888,7.5308 -0.08074,1.61562 -1.601012,2.65807 -2.713532,3.6352 -0.792749,0.55178 -1.926796,1.7407 -2.8915,0.86804 -1.243403,-0.97679 -2.622669,-1.88374 -4.245712,-2.02397 -2.317827,-0.60409 -4.797566,0.4986 -6.147137,2.42296 -0.566971,0.70265 -1.054831,1.54466 -1.3261,2.36696 -0.635558,0.89533 -1.824423,0.65538 -2.698334,1.16981 -1.627273,0.77111 -3.693647,1.82647 -3.864173,3.85941 -0.269663,1.59761 1.129184,2.90911 2.603322,3.17618 4.095435,0.91567 8.339084,0.67809 12.507326,0.7836 4.956795,0.095 9.968256,0.0743 14.869635,0.68853 1.918288,0.79814 3.734943,1.96189 5.817054,2.36956 6.057409,1.45638 12.937262,-0.89129 16.529685,-6.05543 0.838802,-1.14574 1.36804,-2.47839 2.239173,-3.60392 3.159031,-0.30375 6.341346,-0.1739 9.494037,-0.5226 1.537839,-0.31197 3.35986,-0.32594 4.430194,-1.65937 1.364161,-1.18552 0.986805,-3.48447 -0.406218,-4.49559 -1.407237,-1.24409 -3.354024,-1.41525 -5.145473,-1.42368 -1.394019,-0.13919 -1.338895,-1.82953 -1.926303,-2.78014 -0.994399,-2.0389 -3.415511,-3.2143 -5.626805,-2.74786 -1.238505,0.28452 -2.438667,-0.43002 -3.072737,-1.47777 -2.058698,-2.71299 -4.973869,-4.78044 -8.16332,-5.94953 -1.591474,-0.44392 -3.293277,-0.53005 -4.93746,-0.57482 z m 122.948939,0.4245 c -1.25818,-0.0484 -2.02094,1.45679 -1.3837,2.49432 0.34678,0.79766 1.17269,1.23524 1.99895,1.30499 0.71293,0.4865 1.40684,1.31516 1.47879,2.16489 -0.65276,0.56878 -1.67718,0.13326 -2.38531,0.68429 -1.69202,1.06048 -1.50678,3.36502 -1.23839,5.07342 0.2854,1.27185 -0.0796,0.93659 -0.58799,0.003 -1.82458,-2.96898 -4.51057,-5.48087 -7.70766,-6.8981 -2.05668,-0.79958 -4.23862,0.46813 -5.76701,1.78804 -2.86561,2.54324 -3.86756,7.23098 -1.62993,10.49315 0.60752,0.96462 1.45515,1.73917 2.22304,2.57062 -1.84386,2.05112 -4.17582,3.98881 -4.86128,6.78803 -0.50266,2.37111 0.80502,4.70391 2.29307,6.45021 1.6235,1.70367 4.13171,1.98911 6.35299,2.17276 1.88217,0.10547 3.80926,-0.37028 5.65475,0.008 0.57544,0.65329 0.0395,1.69919 0.50443,2.45436 0.62807,1.71605 3.02912,2.72223 4.48542,1.37887 0.85696,-0.56967 1.26602,-1.56686 1.93296,-2.27208 1.30235,0.55355 2.30258,1.68174 3.55435,2.36424 2.32071,1.74512 5.42181,2.4633 8.22872,1.60099 3.19556,-0.85297 5.42023,-4.17648 5.0274,-7.45631 -0.0909,-1.62887 -0.79452,-3.16214 -1.13362,-4.71614 2.16461,-0.52175 4.41952,-1.33352 5.79758,-3.19324 2.43325,-2.9722 2.80623,-7.88322 -0.0756,-10.69476 -1.37297,-1.32668 -3.27487,-2.15522 -5.20501,-1.85382 -3.08704,0.17789 -5.93313,1.50751 -8.68346,2.80621 -0.24452,0.0425 -0.98689,0.49049 -1.00114,0.2333 0.82137,-1.37929 2.28801,-2.41622 2.5579,-4.09664 0.26524,-1.35391 -0.66748,-2.60651 -1.65193,-3.4425 -0.67396,-0.74033 0.62362,-1.38154 1.21515,-1.56449 1.25736,-0.56211 2.73534,0.01 3.93027,-0.70227 0.63556,-0.62469 0.75897,-1.91785 0.0945,-2.55791 -0.73715,-0.33568 -1.66383,-0.39836 -2.33146,0.1649 -2.17877,1.44846 -4.14489,3.2466 -6.47889,4.44587 -1.41403,-1.70256 -2.22172,-3.83673 -3.11019,-5.84309 -0.28285,-0.90923 -0.66056,-2.15498 -1.83848,-2.14491 l -0.13323,-0.009 c -0.0416,-0.007 -0.0866,0.046 -0.12596,0 z m -122.629801,1.45456 c 2.684753,-0.0906 5.465948,0.44653 7.618064,2.14384 4.478498,2.88944 7.084632,8.40404 6.309859,13.68574 -0.633895,5.49945 -4.836483,10.22519 -10.147853,11.69189 -3.487286,1.0869 -7.385231,0.59788 -10.627791,-0.88088 2.656172,-0.47232 5.693296,-0.25253 8.004349,-1.89299 1.334689,-1.01167 1.438971,-3.20317 0.189545,-4.32918 -1.92812,-2.08011 -4.958389,-2.47014 -7.648883,-2.44284 -0.677065,0.0709 -1.20731,-0.46039 -1.056108,-1.14089 -0.212396,-1.93902 -1.915194,-3.33268 -3.490848,-4.26548 -0.905597,-0.6462 -2.122118,-0.51807 -3.014731,-1.10345 -0.325091,-1.0509 0.464318,-2.12091 0.714189,-3.12774 1.042772,-2.53202 3.185725,-4.42648 5.265153,-6.13921 2.206642,-1.83827 5.138312,-2.13351 7.885055,-2.19881 z m 111.251861,5.13398 c 1.73543,-0.12328 3.14164,1.08017 4.3431,2.16247 -1.92066,-1.34545 -4.81274,-1.42704 -6.67392,0.0654 -1.90643,1.77206 -2.82079,4.86275 -1.3985,7.20263 1.37041,2.44586 4.80245,3.66796 7.29254,2.17968 1.92045,-0.82459 3.38236,-2.77499 3.22333,-4.92051 -0.0407,-1.06261 -0.38867,-2.10818 -0.97253,-2.99512 1.87438,2.06543 3.30182,4.45521 4.50842,6.96096 -1.81848,5.11324 -3.52228,10.28231 -4.55929,15.61871 -1.9089,0.23382 -3.95608,0.20441 -5.92298,0.2283 -2.11514,0.009 -4.65241,-0.44009 -5.73413,-2.51006 -1.61832,-2.50315 -0.59173,-5.90252 1.58602,-7.75363 1.14742,-1.14843 2.63751,-1.84923 3.97911,-2.73353 -0.2419,-0.58114 -1.21084,-0.99741 -1.76556,-1.63028 -1.31172,-1.22334 -3.07521,-2.50413 -2.95293,-4.52027 -0.0693,-1.8383 -0.1859,-3.91219 1.22681,-5.32308 0.98965,-1.0611 2.25224,-2.19709 3.82051,-2.03167 z m 13.07474,1.55509 c 1.2561,-0.005 1.80285,1.88403 0.84234,2.62754 -0.20121,0.17381 -0.7319,0.7703 -0.96103,0.45175 0.25062,-0.59558 0.24648,-1.3959 -0.43358,-1.71072 -0.25957,-0.48364 -1.01525,-0.26695 -1.30621,-0.60314 0.42985,-0.54665 1.17207,-0.8212 1.85848,-0.76543 z m -107.729898,0.86353 c 1.829639,0.0178 3.102056,1.69968 3.620653,3.28042 0.299745,0.80376 -0.129875,2.1888 0.85386,2.5984 2.135606,0.12773 4.673363,-0.40368 6.394571,1.21834 0.534546,0.27772 1.10338,1.12361 0.301116,1.4704 -1.659242,1.58098 -4.151356,1.18489 -6.241517,1.31707 -1.948498,0.006 -3.897008,9.6e-4 -5.845506,0.002 -0.09761,-1.3288 0.41203,-2.63794 0.215583,-3.98401 0.0423,-1.77082 -0.851587,-3.46594 -0.505051,-5.22117 0.161234,-0.53934 0.683253,-0.72378 1.206291,-0.68187 z m 95.761528,0.44872 c 2.41431,-0.13458 4.39431,2.48223 3.6467,4.75853 -0.4928,1.63825 -2.16529,2.96934 -3.89257,2.93215 -1.68619,-0.44859 -3.14962,-1.93016 -3.60068,-3.63703 -0.21092,-2.10859 1.80856,-4.01417 3.84655,-4.05365 z m 17.31308,0.15685 c 1.45833,-0.0633 2.14574,1.85946 1.21415,2.87885 -0.10968,0.29118 -0.77817,0.68259 -0.92651,0.37363 0.30412,-0.59584 0.25513,-1.46175 -0.49898,-1.67681 -0.38198,-0.34493 -1.13621,-0.10833 -1.3595,-0.66611 0.17003,-0.67971 0.97341,-0.85138 1.57084,-0.90956 z m -3.19253,3.28397 c 0.44708,0.13149 0.41888,1.08909 -0.11749,0.73819 -0.33243,-0.168 -0.97089,-0.163 -1.10515,-0.47476 0.3052,-0.42637 0.78279,-0.21705 1.22264,-0.26343 z m -2.91761,0.61767 c 0.81584,0.19733 0.77915,1.20565 1.53268,1.46426 0.49691,0.55925 1.47171,0.93624 1.99957,0.19196 0.39096,-0.20127 0.22137,-0.75252 0.61708,-0.99433 0.33517,0.45357 1.251,0.20632 1.24382,0.85748 -1.03164,1.39947 -3.28238,1.2519 -4.60471,0.37302 -0.45762,-0.48324 -1.41106,-1.15189 -0.78844,-1.89239 z m 17.77572,1.12514 c 2.99039,0.075 5.00329,3.45229 4.27893,6.20341 -0.68129,3.20654 -3.79622,5.82979 -7.14008,5.52059 -0.50649,0.11402 -1.31638,-0.12343 -1.64181,0.35762 0.8699,2.70328 2.91467,5.38071 2.07466,8.34589 -0.67362,1.84622 -2.21526,3.42147 -4.01073,4.18065 -2.47853,0.69682 -4.92511,-0.73132 -6.98875,-1.98973 -1.12101,-0.69122 -1.98796,-1.6981 -2.88853,-2.66508 1.12482,-4.48619 2.22124,-9.02594 2.94667,-13.57069 0.57708,-2.06993 2.78063,-2.88297 4.41636,-3.94888 1.16576,-0.6682 2.37277,-1.26872 3.64855,-1.69801 -1.41359,1.54118 -3.05385,3.51283 -2.48222,5.768 0.3862,1.48919 1.45428,2.72528 2.59788,3.7 2.4335,1.3697 5.94329,0.97546 7.55683,-1.46486 1.21474,-1.83191 1.17314,-4.3645 0.15988,-6.27244 -0.75855,-1.31092 -2.23563,-1.9074 -3.56678,-2.45314 0.34639,-0.005 0.69277,-0.009 1.03914,-0.0134 z m -154.859146,0.55712 c 2.698099,-0.13374 5.054538,2.48038 4.706443,5.15093 -0.146866,0.79671 0.0023,1.1526 0.81751,0.97315 2.534722,0.0914 5.343045,-0.28523 7.512634,1.27471 0.855758,0.47646 1.102266,1.76219 0.216192,2.34051 -1.298186,1.04174 -3.092658,0.73319 -4.653992,0.94936 -8.385313,0.32226 -16.783306,0.33518 -25.173003,0.20165 -2.264039,-0.16742 -4.668487,0.0374 -6.759387,-0.9754 -1.060491,-0.54825 -0.821529,-1.98693 0.08965,-2.55246 1.180674,-1.00157 2.757793,-1.06761 4.216544,-1.12392 1.256106,-0.12274 1.301104,-1.6263 1.605946,-2.55003 0.627028,-2.13472 2.942229,-3.51656 5.119447,-3.04418 2.276601,0.37123 4.059295,2.06206 5.670503,3.61401 0.642683,-0.60355 1.279871,-1.22122 1.848189,-1.916 1.256351,-1.29116 2.966966,-2.30756 4.783351,-2.34233 z m 70.738386,0.83265 c -1.6698,0.17306 -2.43682,1.99318 -2.89035,3.39238 -0.52196,1.57002 -0.30437,3.7362 -2.03591,4.55263 -0.85347,0.3491 -2.06126,1.38602 -2.86734,0.41239 -0.76802,-0.71724 -1.45192,-1.93765 -2.60454,-2.04257 -1.56258,0.38865 -2.25276,2.09984 -2.81708,3.44506 -0.72929,2.2308 -1.08478,4.57556 -2.02682,6.74295 -1.22268,3.05149 -2.83181,5.99319 -3.471,9.25838 -1.318086,5.47687 -0.67677,11.20485 0.62424,16.61375 -0.30123,1.26618 -1.720181,1.83781 -2.646144,2.59385 -3.392192,2.23798 -6.424793,4.99447 -9.889041,7.10487 -0.595247,0.30363 -1.094567,-0.53622 -1.607633,-0.7406 -4.603943,-3.43316 -8.930734,-7.24167 -13.764803,-10.36399 -3.662066,-2.37912 -7.408727,-4.72979 -11.514017,-6.26723 -2.061592,-0.56969 -4.23765,-0.91034 -6.365064,-0.51496 -3.349267,0.26732 -6.228287,2.22774 -9.19646,3.61397 -9.111455,4.97765 -17.808349,10.67737 -26.4214089,16.46317 -3.248313,2.28875 -6.632279,4.43609 -9.57905403,7.11595 -0.28466297,0.29519 -0.73496607,0.66334 -0.58618947,1.05913 -0.1921463,0.5214 0.60004047,0.71814 0.97314247,0.39847 2.97172403,-1.70636 5.58896703,-3.96069 8.45671303,-5.83341 4.2024599,-2.88659 8.4157469,-5.80626 12.6968709,-8.54632 1.893879,1.9273 4.371966,3.69413 7.215631,3.44084 1.952541,0.009 3.601154,-1.22838 5.489713,-1.38616 2.779847,0.0741 5.48806,2.00934 8.277774,0.95571 1.912522,-0.61769 3.840923,-1.5807 5.903652,-1.21141 2.137914,0.23981 4.311311,0.63552 6.462256,0.29204 1.866317,-0.33915 3.178401,-2.52112 5.201194,-2.02501 2.560596,1.07123 5.372575,0.0808 7.622388,-1.26091 1.178799,-0.57296 2.080084,0.902 2.951627,1.4464 2.492911,2.05386 4.985283,4.10837 7.477854,6.16264 2.454615,-1.85924 4.793534,-3.90615 7.318858,-5.65113 0.833939,-0.0105 1.462548,0.94399 2.22545,1.32921 1.730865,1.23797 3.951791,0.60556 5.877601,0.53653 1.18806,0.96462 1.47128,2.63311 2.27869,3.88409 1.20238,2.42883 2.48861,4.86073 3.63767,7.28797 -2.17784,1.31613 -4.76663,1.69596 -7.08063,2.72228 -6.905981,2.72477 -13.702317,6.39707 -18.636472,12.06923 -1.528511,1.73388 -2.609169,3.78853 -3.610974,5.85521 -2.525781,-1.18569 -5.041308,-2.57441 -7.862041,-2.91761 -6.261836,-1.00479 -12.835159,1.76055 -16.737768,6.71138 -5.424593,6.58902 -8.751408,14.54438 -12.729003,22.01054 -0.352677,0.69188 -1.009164,0.6372 -1.598693,0.24222 -6.509762,-3.2429 -13.583507,-5.15888 -20.6315769,-6.83561 -3.378762,-0.6987 -6.782813,-1.50569 -10.24372103,-1.589 -0.75171097,-0.10863 -1.18597107,0.87665 -0.71213797,1.38493 0.99110597,0.83801 2.404871,0.2992 3.567663,0.62858 7.177124,1.03994 14.1767619,3.08189 21.0413459,5.40394 2.443354,0.95406 5.078983,1.67629 7.163133,3.29378 0.452446,0.5921 -0.31328,1.34044 -0.526238,1.89419 -1.495864,2.27004 -3.172343,4.54832 -5.428155,6.11201 -0.887399,0.23353 -1.540874,0.94031 -2.418746,1.25348 3.878997,1.64252 8.046571,2.51217 12.207629,3.0608 3.452107,0.15907 6.719885,-1.44212 9.492771,-3.35026 0.810373,-0.65997 1.800788,-0.16083 2.46706,0.4366 3.50736,2.80363 6.947069,5.72322 10.098401,8.92421 -1.861501,0.90434 -4.106228,1.42936 -6.141957,2.08871 -3.601377,1.05284 -7.219639,2.05584 -10.827168,3.0822 -4.673058,-4.10312 -9.567652,-7.98759 -14.964671,-11.10341 -7.363225,-4.37246 -15.3767489,-7.63476 -23.66959293,-9.75133 -0.662885,-0.0721 -1.586083,-0.41266 -2.12324277,0.1057 -0.4691222,0.81892 0.45249377,1.75242 1.32738877,1.58719 4.11528603,0.77906 8.04403903,2.41118 11.96444793,3.88624 9.113541,3.59596 17.573736,8.82614 24.835701,15.404 0.373676,0.34096 0.900898,0.85032 0.1132,1.03189 -4.862029,1.87254 -9.626279,4.00524 -14.414247,6.06775 -4.047332,-3.70244 -8.189031,-7.41033 -13.0637389,-10.00347 -3.143984,-1.68453 -6.277902,-3.47728 -9.67157003,-4.61122 -0.648801,-0.30601 -1.61572017,0.21475 -1.07608897,0.92954 2.550414,1.74137 5.625271,2.61836 8.256588,4.21742 4.3127639,2.50332 8.5929869,5.30527 12.0613129,8.94513 0.412932,0.5484 1.090032,1.146 0.959817,1.88876 -3.53853,2.20016 -7.094263,4.40122 -10.8026639,6.31119 -1.371414,-0.68938 -2.303131,-2.12233 -3.53007,-3.06838 -1.975895,-1.59482 -3.976939,-3.25733 -6.29884303,-4.32194 -0.59062997,-0.27709 -1.13360197,0.4036 -0.74848887,0.91866 0.044178,0.79209 1.02713987,1.07415 1.53390187,1.55872 2.82278303,1.57332 5.01209403,4.00272 7.24920403,6.29726 -2.803166,2.34775 -5.876407,4.42451 -8.360412,7.12446 -0.319971,0.41135 -0.7162278,1.12714 -0.276143,1.54419 1.11519197,-0.0143 1.84467297,-1.17007 2.75593,-1.67499 4.797202,-3.85425 9.7250999,-7.57788 15.1158969,-10.5685 13.793888,-7.84793 28.877161,-13.32052 44.381019,-16.63946 2.310889,-0.48036 4.637399,-0.88007 6.957112,-1.31473 -0.255637,2.72214 0.68883,5.32572 1.601106,7.83177 1.092084,3.59937 1.277914,7.40673 1.559928,11.15389 2.557667,1.44946 5.347264,2.6699 8.335077,2.76605 2.24195,0.0625 4.837186,-0.079 6.543641,-1.72085 0.368988,-0.37837 0.5283,-0.96776 0.819337,-1.30439 -0.747562,-3.09826 -1.472544,-6.20636 -2.301268,-9.28745 -0.827341,-3.0945 -0.782577,-6.32456 -0.346513,-9.46402 0.161866,-0.49843 -0.03562,-1.30905 0.359345,-1.64635 1.046346,-0.12123 2.334912,-0.88632 3.280351,-0.12959 1.354267,1.77639 2.200797,3.95128 3.044117,6.01488 0.8929,2.0854 1.22595,4.31884 1.86701,6.47791 0.33845,1.31287 1.39148,2.31138 2.70565,2.60877 3.39752,0.90685 7.07627,0.84109 10.45326,-0.12838 1.06829,-0.33997 2.57696,-1.09943 2.24906,-2.46102 -0.8578,-2.94455 -2.45772,-5.6131 -3.68738,-8.41108 -0.50346,-1.3366 -1.52269,-2.64692 -1.35334,-4.1241 0.67747,-0.89816 2.04544,-0.54182 3.02782,-0.65443 16.76204,-0.0929 33.48809,1.89448 49.87307,5.36222 15.28715,3.27662 30.23863,8.67975 43.67218,16.72771 3.58644,2.12364 6.91355,4.64432 10.14432,7.26946 0.49966,0.32439 1.19429,0.82677 1.77855,0.57287 0.21141,-0.92067 -0.72654,-1.68386 -1.25446,-2.34321 -0.89881,-0.95816 -2.1345,-1.71547 -2.70896,-2.91672 1.00716,-2.14736 3.1692,-3.59671 4.00762,-5.82795 0.0606,-0.37648 -0.0359,-0.77359 -0.48929,-0.77634 -1.18601,0.29611 -1.85368,1.53046 -2.63006,2.38259 -0.86823,0.98784 -1.48396,2.24861 -2.61715,2.97181 -3.13645,-1.24242 -5.96665,-3.25401 -8.76022,-5.12735 -0.60323,-0.38945 -1.48024,-1.15721 -0.74654,-1.86207 2.78417,-3.1603 6.08076,-5.81903 9.28165,-8.54196 1.62734,-1.4982 3.61108,-2.53908 5.2286,-4.03711 0.38572,-0.43167 1.20554,-1.20658 0.62038,-1.76372 -0.87539,-0.32144 -1.61521,0.61177 -2.33417,0.96989 -5.59002,3.94118 -10.58891,8.63214 -15.50818,13.36381 -4.86403,-2.15558 -9.78188,-4.23597 -14.62741,-6.40565 0.14412,-0.92198 1.20394,-1.46798 1.79872,-2.13471 7.22404,-6.28671 15.29247,-11.70112 24.0304,-15.67107 2.17804,-1.09133 4.73924,-1.45646 6.64428,-3.04865 0.35772,-0.40626 -0.007,-1.04102 -0.5656,-0.83991 -2.91509,0.45044 -5.59544,1.82582 -8.28137,2.98221 -7.74338,3.47479 -14.6579,8.49381 -21.26654,13.75982 -1.39996,1.05557 -2.58476,2.37217 -3.92406,3.47836 -0.55834,0.36153 -1.16373,0.85889 -1.82048,0.36221 -5.17687,-1.78834 -10.48384,-3.17147 -15.7536,-4.64597 1.15525,-2.18866 3.30261,-3.61411 5.06429,-5.28187 6.13366,-5.24358 12.56971,-10.24271 19.77717,-13.91714 7.67705,-4.0499 15.96197,-7.05587 24.58478,-8.24678 0.68516,-0.19663 1.50808,-0.1037 2.13635,-0.42107 0.35982,-0.50599 0.14855,-1.40037 -0.60011,-1.30196 -4.45594,0.0187 -8.78317,1.32506 -13.03174,2.54094 -12.1658,3.66357 -23.13889,10.60413 -32.62929,18.9524 -2.61099,2.32722 -5.06304,4.82534 -7.65891,7.16923 -8.07819,-1.65055 -16.20923,-3.04242 -24.40981,-3.92556 -9.82027,-1.10703 -19.69276,-1.8998 -29.5805,-1.86001 -1.29037,-0.30198 -0.73261,-1.87945 -0.61827,-2.79105 0.51881,-2.42768 1.0048,-4.92296 2.13037,-7.1396 1.14809,-1.39076 3.15815,-1.49314 4.73781,-2.17826 3.41033,-1.08817 6.64522,-2.65752 10.06893,-3.68054 2.34889,-0.32147 4.83412,-0.44185 7.07923,0.44156 4.72856,1.68399 9.13824,4.19689 13.81457,6.05538 4.5141,1.90952 8.60583,4.6436 13.08433,6.62077 1.87302,0.78248 4.14494,0.76602 5.81832,-0.49042 2.53186,-1.49455 4.36277,-3.98043 5.1904,-6.78671 0.45124,-1.65414 1.11002,-3.34304 1.01415,-5.07881 -0.0602,-0.50499 -0.16044,-0.77029 -0.63645,-1.0016 -1.58527,-0.99748 -3.44381,-1.4317 -5.06194,-2.38454 -6.02928,-2.936 -12.13581,-5.76757 -17.87683,-9.23564 -0.77223,-0.84476 0.49337,-1.75532 1.00074,-2.36981 1.39399,-1.40794 2.60703,-2.97749 3.84862,-4.51425 3.52719,1.07217 7.05869,2.16517 10.71379,2.70837 4.10593,0.87254 8.33125,0.47455 12.47794,0.99557 3.07447,0.21525 6.11588,0.66346 9.15813,1.143 1.67048,0.27906 2.79549,-1.23944 3.81868,-2.29206 2.69519,-3.12295 3.88356,-7.40467 3.54073,-11.47907 -0.13352,-0.6498 -0.47591,-1.25094 -0.84234,-1.78036 -1.49426,-0.9526 -3.37357,-0.44721 -5.037,-0.70894 -7.19309,-0.29138 -14.2072,-2.09942 -21.2681,-3.40164 -3.62163,-0.94689 -7.24508,-2.17391 -10.49746,-4.01973 -1.63605,-1.13424 -2.34057,-3.13048 -3.06718,-4.90144 1.89576,0.92113 3.48373,2.39485 5.24236,3.55163 3.13735,-2.54514 6.20763,-5.19413 9.38565,-7.67613 0.68447,-0.30568 1.0149,0.84212 1.55072,1.11341 1.06751,1.26614 2.63842,2.0911 4.32203,1.9671 1.71519,0.0344 3.45928,-0.38083 4.86148,-1.38917 0.78531,-0.0461 0.81184,1.10275 1.38795,1.49514 2.01522,1.94941 5.11704,2.54306 7.80512,1.98625 1.82517,-0.655 3.00538,-2.36905 4.16177,-3.83097 0.28303,-0.20995 0.24437,-0.98339 0.67911,-0.63567 1.33214,0.86795 2.57645,2.08939 4.26136,2.28116 2.45519,0.50754 5.3086,-0.72443 6.30272,-3.08717 -0.008,-0.40685 0.14057,-0.90802 0.66975,-0.68186 1.90826,0.52827 3.85418,0.91861 5.81947,1.13059 3.40391,0.72047 5.42442,3.92976 8.35073,5.54334 0.72699,0.34144 0.91161,-0.81131 0.39301,-1.14028 -3.57668,-3.85847 -7.83933,-7.00654 -12.02867,-10.16126 -4.40855,-3.13394 -8.98221,-6.36955 -14.31095,-7.68533 -4.53872,-0.74266 -9.01973,1.07726 -12.83051,3.39736 -7.26144,4.27446 -14.0776,9.28545 -20.39679,14.85834 -0.71133,0.72073 -1.52141,-0.77995 -2.27555,-1.02211 -3.09258,-2.06871 -6.01834,-4.46283 -8.20635,-7.50602 -4.05651,-4.93781 -8.80922,-9.24928 -12.79116,-14.24569 -0.31475,-0.31172 -0.47838,-0.67772 0.0418,-0.86354 3.61955,-2.41537 7.55051,-4.38184 10.85596,-7.25102 2.26015,-1.98909 4.88617,-4.11286 5.45751,-7.24474 0.90326,-3.97003 -1.31982,-8.02876 -4.54573,-10.26587 -2.62223,-1.95834 -5.86956,-2.79195 -9.05368,-3.22843 -1.68311,-0.26214 -3.22505,-0.96147 -4.45555,-2.12554 -2.05182,-1.80735 -4.21827,-3.6197 -5.73783,-5.91365 -0.14735,-1.64174 -1.95985,-2.31371 -3.30699,-2.76198 -1.9675,-0.64679 -4.40226,-0.37751 -5.81584,-2.15823 -1.01342,-1.15321 -1.98581,-2.52736 -3.41357,-3.17376 -0.11648,0.0173 -0.22957,0.002 -0.34457,0.002 z m 81.94861,0.3143 c 1.74115,0.28962 3.25846,1.66307 3.88893,3.30334 0.18839,2.03878 -1.64101,3.94019 -3.60795,4.26984 -2.15114,0.39706 -4.16624,-1.58114 -4.01853,-3.72361 -0.007,-1.96886 1.69906,-3.93277 3.73755,-3.84957 z m -81.7318,1.36191 c 0.98265,0.84843 1.93547,1.91296 2.30174,3.16347 -0.45299,0.85977 -1.62048,0.82783 -2.46223,0.99615 -0.54489,0.11706 -1.5017,0.67704 -1.54721,-0.29915 -0.14892,-1.49064 0.74257,-2.83634 1.7077,-3.86047 z m 67.01477,0.11625 c 0.85666,-0.0437 1.87478,0.39791 1.94931,1.32799 -0.18443,0.61493 -0.42271,1.77219 -1.32861,1.28078 -0.84069,-0.31211 -2.45801,-0.68437 -2.15278,-1.90632 0.26973,-0.55593 0.9698,-0.70985 1.53208,-0.70245 z m -2.11463,3.84714 c 1.09165,0.1084 2.26522,0.22783 3.24704,0.68187 0.48921,0.74394 -0.10652,1.71942 -0.16511,2.54092 -0.15394,0.97121 -0.85401,2.22698 -2.02098,1.80885 -0.81871,-0.31552 -1.8685,-0.58258 -2.32356,-1.38251 -0.0314,-1.20574 0.27842,-2.58437 0.85689,-3.56132 0.1229,-0.0684 0.2673,-0.0853 0.40572,-0.0878 z m -10.6537,0.095 c -2.70881,-0.0367 -5.27578,2.16375 -5.38346,4.9287 -0.16983,2.2786 1.16467,4.47194 3.14598,5.55566 2.24109,1.40714 5.27445,0.3861 6.90397,-1.49718 2.39866,-2.8853 0.70938,-7.84481 -2.89736,-8.7724 -0.57308,-0.16696 -1.17334,-0.23091 -1.76913,-0.21478 z m -47.24309,0.958 c 1.51983,0.0105 3.22807,0.55428 4.05909,1.88452 0.19557,1.33408 -1.40818,1.76609 -2.38955,2.00139 -3.37835,0.56812 -6.91272,0.81381 -10.03884,2.37341 -0.59556,0.32264 -1.23219,0.6583 -1.84658,0.18933 -1.07627,-0.76497 -2.25956,-1.53812 -2.9915,-2.66992 3.85424,-1.92185 7.94219,-3.73601 12.3129,-3.76716 0.29806,-0.0121 0.59623,-0.0117 0.89448,-0.0117 z m 47.31394,0.50626 c 2.06132,0.37938 4.18573,2.19312 3.82514,4.47416 -0.19778,1.78442 -1.68726,3.50468 -3.60107,3.28312 -2.05933,-0.0482 -4.39656,-1.77112 -3.94263,-4.03937 0.28871,-1.64722 1.65622,-3.10077 3.21837,-3.66522 0.15271,-0.0264 0.3357,-0.0445 0.50019,-0.0527 z m -64.84806,1.29349 c 0.65832,0.1057 0.95517,0.75844 0.0927,0.83325 -1.32026,0.52501 -1.44419,2.21522 -1.57204,3.43719 -0.0974,3.44626 0.59533,6.9777 2.17391,10.05351 0.39415,0.64625 1.05633,1.73378 1.94634,1.39164 0.83048,-0.61216 0.82662,-1.7901 1.50382,-2.54701 1.06147,-1.78799 2.55645,-3.43452 3.68103,-5.03949 -2.1276,-1.67639 -4.20028,-3.47299 -5.75347,-5.71411 1.87509,1.54405 3.62246,3.2364 5.43858,4.84875 3.0238,-1.55034 6.24661,-2.77543 9.63239,-3.14406 1.74719,-0.22046 3.58086,-0.39072 5.14762,-1.23234 1.68881,-0.12075 3.03969,1.27437 3.93617,2.55305 1.73772,2.27675 4.5341,3.50768 7.28789,4.02032 2.98225,0.47668 6.1543,1.03069 8.3375,3.30451 1.4838,1.52469 3.39455,3.1786 3.33846,5.48528 0.2852,2.8076 -0.95449,5.59143 -3.06053,7.42967 -2.38464,2.07736 -5.04819,3.99143 -8.08004,4.98318 -1.83289,0.57957 -4.00044,0.0225 -5.31625,-1.328 -0.23202,-0.39656 -0.29338,-0.95906 0.28582,-0.85264 0.80972,-0.20999 0.32663,-1.23922 -0.23313,-1.45153 -1.09004,-0.59201 -2.76396,-0.53326 -3.55891,0.50444 -0.20018,0.39039 0.0782,0.78261 -0.0224,1.18993 0.12286,0.48015 0.69744,-0.0233 0.82659,0.50141 1.55478,1.47816 3.30091,2.83408 5.41477,3.38672 1.23177,0.31127 -1.09372,0.82587 -1.53228,1.23263 -3.913,1.82877 -7.76382,4.26371 -12.13694,4.64517 -2.68503,0.23194 -5.01675,-1.43317 -6.86596,-3.19471 -0.63514,-0.42496 -1.3214,-1.23865 -2.1515,-1.05937 -0.46576,0.58417 0.26102,1.33244 0.52745,1.86877 2.10551,3.17656 6.16672,4.39327 9.81971,4.08961 0.78225,0.075 1.99103,-0.39085 2.25097,0.69137 2.98126,5.6722 7.74934,10.08416 11.73946,15.01845 4.05803,4.76602 7.67703,10.18004 8.71385,16.46617 0.31631,2.52087 0.27551,5.11919 -0.0277,7.64568 -0.29342,2.07793 -0.99614,4.11807 -1.04762,6.22036 0.22385,2.10897 2.15705,3.43463 3.74238,4.5708 5.32928,3.35771 11.1851,5.76454 16.61856,8.9337 0.59914,0.46977 1.59995,0.82226 1.78053,1.58213 -0.68707,3.52123 -3.07093,6.56617 -6.00803,8.52978 -1.0039,0.41825 -2.04281,1.57068 -3.15943,0.84892 -6.70329,-3.22031 -13.34321,-6.57969 -20.0911,-9.70299 -3.23579,-1.29929 -6.6029,-2.77228 -10.15906,-2.65044 -2.87039,0.46868 -5.42044,2.01127 -8.14705,2.94329 -6.18738,2.48573 -12.77068,4.0374 -19.45165,4.18705 -2.05061,0.22974 -4.15298,-0.0306 -6.173006,0.42831 -2.293886,0.84248 -3.193858,3.4031 -3.876829,5.5397 -1.295866,4.64575 -1.606872,9.51141 -1.6771,14.31366 -0.007,3.68951 1.715817,7.13995 1.695873,10.80273 -0.655128,0.83221 -1.951803,0.78723 -2.921242,0.84779 -2.48186,-0.0626 -5.014695,-0.56224 -7.285543,-1.5672 -1.509972,-0.7519 -1.065857,-2.58415 -1.300752,-3.93799 -0.417772,-2.98683 -2.072748,-5.68643 -2.046804,-8.75377 -0.297541,-4.46059 0.528675,-9.01353 -0.49789,-13.41031 -0.752649,-2.52619 -1.711822,-5.01737 -1.954651,-7.64725 -0.867488,-7.11983 -0.366363,-14.44116 1.755086,-21.31787 0.888008,-3.1393 1.371321,-6.5108 3.36913,-9.19919 3.980888,-5.66059 10.115533,-9.34898 16.301858,-12.16432 3.28923,-1.39483 6.63246,-2.7541 10.13109,-3.51227 1.15157,-0.22702 1.67194,1.11365 2.70863,1.33709 2.03465,0.79404 4.89927,0.51116 6.11505,-1.50423 0.0377,-0.52661 0.68746,-0.7819 0.16371,-1.28397 -1.25072,-2.67059 -2.41202,-5.39445 -3.78074,-8.00842 -2.97801,-6.21872 -5.5362,-12.75292 -6.60751,-19.58313 -0.0231,-2.24667 -0.36066,-4.54098 0.0475,-6.75905 0.5705,-1.22126 0.50633,-2.65822 -0.27257,-3.77615 -1.59579,-2.70375 -1.72864,-5.98317 -1.82664,-9.03745 0.0533,-2.49385 0.11761,-5.29795 1.88294,-7.25526 0.0592,-0.0252 0.12464,-0.038 0.18894,-0.0315 z m 85.36277,2.42589 c -1.88443,0.12195 -3.51086,1.38729 -4.62288,2.83828 -0.77223,1.48283 -0.71617,3.30966 -0.2828,4.88993 0.70388,1.56911 2.26117,2.67883 3.85987,3.21614 2.62754,0.77095 5.30307,-1.15675 6.40687,-3.45716 1.35588,-3.11828 -0.99152,-7.25689 -4.45634,-7.44723 -0.3015,-0.0137 -0.60271,-0.0435 -0.90472,-0.04 z m -11.69587,0.53713 c 1.10388,0.44056 2.3324,0.61431 3.43355,1.01129 1.01941,0.57866 0.25258,1.8954 0.0702,2.74321 -0.32535,0.99503 -0.64474,2.57674 -2.01834,2.48886 -0.92133,-0.0991 -1.96965,-0.35959 -2.59061,-1.05792 -0.5525,-1.21521 0.16132,-2.67748 0.3379,-3.94646 0.15686,-0.41149 0.21322,-1.20545 0.76725,-1.23898 z m -71.2065,2.547 c 0.90071,0.93484 1.93798,1.81254 2.60151,2.92911 -0.78806,1.68601 -2.03304,3.14811 -3.09626,4.63923 -1.52731,-2.9526 -1.5248,-6.38223 -1.81124,-9.62484 0.55616,0.1195 1.1729,1.097 1.74955,1.5203 0.18548,0.17873 0.37097,0.35747 0.55644,0.5362 z m 83.04347,-1.26986 c 2.23873,-0.12652 4.18167,2.09769 3.74844,4.28437 -0.17344,1.53489 -1.40916,2.98227 -3.05023,3.04114 -2.11088,0.32756 -4.46487,-1.1923 -4.51084,-3.44385 -0.11109,-2.10257 1.73361,-3.94627 3.81263,-3.88166 z m -71.34517,3.89559 c -1.29309,0.27296 -2.1142,1.49787 -2.99443,2.38723 -0.99996,1.2158 -1.84507,2.88162 -1.41589,4.4514 0.29256,0.55222 1.14956,0.39894 1.23595,-0.23132 0.58418,-1.57032 1.20516,-3.19662 2.56902,-4.27084 0.54703,-0.54012 1.68236,-1.03733 1.49553,-1.96648 -0.15731,-0.32466 -0.57076,-0.36996 -0.89018,-0.36999 z m 6.06533,1.88694 c -3.34632,0.20358 -5.78613,3.26517 -6.43896,6.36206 -0.47848,2.4017 0.8342,4.78229 2.39016,6.51707 1.17121,1.21755 2.9933,1.55149 4.61379,1.51997 3.12303,-0.35473 5.7784,-3.04124 6.09928,-6.17258 0.4734,-3.6002 -1.93066,-7.67755 -5.69539,-8.19368 -0.32059,-0.0441 -0.64601,-0.0502 -0.96888,-0.0328 z m 52.25899,0.37242 c 0.9472,0.20699 2.01783,0.46071 2.79892,1.04459 -0.34222,0.75678 -1.06421,1.46353 -1.81184,1.83486 -0.99916,-0.26323 -1.67035,-1.53319 -1.52543,-2.53549 0.0302,-0.28051 0.2918,-0.36316 0.53835,-0.34396 z m -76.58572,0.47961 c 0.61979,1.81195 1.2878,3.66765 1.71402,5.55433 0.45206,2.4654 0.69703,4.98476 0.6398,7.49315 0.22405,3.72275 0.38077,7.51502 1.67802,11.05761 1.80749,5.6371 4.49456,10.92948 7.05165,16.24428 0.47983,1.22828 1.17626,2.43846 1.32149,3.76235 -0.74509,0.91799 -2.17588,0.8029 -3.23916,0.62736 -1.61547,-0.57637 -2.38338,-2.31265 -3.24324,-3.67403 -4.16868,-7.58051 -7.90806,-15.66676 -8.80407,-24.35779 -0.26514,-3.7566 -0.44481,-7.60751 0.70267,-11.24508 0.64391,-1.82224 1.01319,-3.83081 2.12613,-5.43494 0.0164,-0.009 0.0327,-0.0259 0.0527,-0.0272 z m 21.93111,2.025 c -0.0374,1.03455 -0.30798,2.11746 -0.0382,3.14711 0.58509,0.70938 1.58939,-0.19229 2.32536,0.005 0.80173,0.36625 0.14308,1.58787 0.91804,2.06256 0.15752,0.91729 0.45082,0.0261 0.96164,-0.172 1.15803,-0.84379 2.37082,-2.09899 2.33323,-3.63278 1.28169,1.72135 0.75141,4.09778 -0.0105,5.90305 -0.50312,1.22928 -1.63384,2.23275 -3.02691,2.17264 -1.64842,0.33919 -3.54724,-0.0684 -4.53873,-1.5255 -1.75793,-2.3256 -1.30449,-5.84636 0.84552,-7.77488 0.0457,0.0106 0.26008,-0.41343 0.23089,-0.18505 z m 20.65944,2.97756 c -1.21914,0.2378 -1.80778,1.61901 -2.08133,2.70687 -0.24564,0.78195 0.18479,1.66248 1.03674,1.78218 0.99593,0.43097 2.06891,-0.42069 2.17336,-1.44548 0.28206,-0.84901 0.39885,-2.00655 -0.40028,-2.59727 -0.13718,-0.27023 -0.41969,-0.46274 -0.72849,-0.4463 z M 46.51741,173.0948 c 3.809284,0.0737 7.275488,2.10976 10.489385,4.00818 2.738961,1.7562 5.584502,3.43545 8.08994,5.49555 0.483336,0.29302 0.436287,0.90235 -0.09387,1.0882 -1.703103,0.81854 -3.688994,0.56779 -5.484591,0.29975 -0.806248,-0.29148 -1.743543,-0.93979 -2.561545,-0.27674 -1.272441,1.01124 -2.48247,2.2556 -4.196553,2.44163 -2.386754,0.46459 -4.643762,-0.72039 -6.994881,-0.84536 -1.603661,0.0976 -2.72913,1.50198 -4.332814,1.65621 -2.48063,0.53564 -4.992021,-0.18488 -7.284934,-1.1542 -1.682643,-0.49594 -3.017086,1.02669 -4.62643,1.17966 -2.041906,0.32716 -4.435292,0.43375 -6.141114,-0.91987 -0.457791,-0.4674 -1.181729,-1.25819 -0.390586,-1.77006 2.052136,-1.79705 4.56928,-2.97059 6.895497,-4.38934 4.281277,-2.31765 8.535321,-4.88003 13.196519,-6.3231 1.128774,-0.31184 2.273473,-0.49915 3.435972,-0.49051 z m 44.05784,9.25726 c 0.59164,1.15632 1.13281,2.42409 1.27714,3.71393 -0.18159,0.67684 -1.23506,0.35004 -1.77366,0.48951 -1.13167,-0.0775 -2.519432,0.18178 -3.387565,-0.67724 -0.319103,-1.04855 1.003328,-1.65964 1.6696,-2.21052 0.722795,-0.46167 1.441765,-0.94095 2.214485,-1.31568 z m 35.53088,0.34942 c 0.95908,0.60084 1.53809,1.77627 2.37006,2.58394 4.88795,5.55575 10.48981,10.56979 14.35684,16.9455 3.40514,5.48439 5.99088,11.98518 4.92323,18.523 -0.59999,4.32028 -3.49553,7.77937 -6.44524,10.78623 -0.44155,0.7202 -1.12063,1.0016 -0.71091,-0.13418 0.36638,-2.80319 0.69798,-5.61989 0.83346,-8.44415 0.19441,-4.35816 -0.5337,-8.79542 -2.53308,-12.7005 -4.17168,-8.37902 -11.69089,-14.36188 -16.83663,-22.05588 -0.53073,-0.92437 -1.19737,-1.96815 -1.48351,-2.89701 1.61671,-1.1321 3.55211,-1.76499 5.32412,-2.60332 l 0.12657,-0.006 z m 57.11925,5.51548 c 4.47734,0.78328 8.43708,3.35038 12.22634,5.76436 1.96864,1.4252 4.17036,2.65301 5.75287,4.5278 -1.2797,0.15741 -2.37446,-0.83069 -3.51773,-1.26684 -0.71752,-0.2679 -1.42554,-0.71433 -2.15217,-0.86958 -0.28149,0.2945 -0.57916,0.68084 -0.79874,1.13543 -0.37447,1.24287 -0.51642,2.79632 -1.85182,3.42386 -2.1333,1.06376 -4.58701,-0.30646 -6.02979,-1.92371 -0.55994,-0.64457 -1.29785,-1.10399 -1.90613,-1.67758 -0.28437,0.35764 -0.66601,0.72301 -0.87201,1.20692 -0.85532,2.10144 -2.28697,4.15996 -4.54415,4.86023 -2.03385,0.51695 -4.27181,-0.48857 -5.61541,-2.0244 -0.48024,-0.59512 -0.68693,-1.3478 -1.01432,-1.9905 -0.1664,-0.14855 -0.47677,0.0161 -0.45235,-0.33063 -1.05788,0.76376 -2.38457,1.1014 -3.55027,1.70068 -1.6847,0.773 -3.89806,0.68996 -5.1953,-0.80507 -0.44134,-0.43518 -1.24277,-1.16279 -0.49837,-1.72584 3.61888,-3.23304 7.95491,-5.56428 12.26678,-7.75899 2.44754,-1.11191 5.03209,-2.35476 7.75257,-2.24614 z m -31.42697,23.99972 c 3.32342,1.35849 6.76495,2.41649 10.31119,3.00649 5.78854,1.16563 11.61504,2.14755 17.43455,3.12909 1.26487,0.21941 1.99494,1.54892 1.70333,2.75794 -0.50263,2.86239 -2.01765,5.44749 -3.44917,7.94722 -0.46143,0.93757 -1.53592,1.21526 -2.50114,1.02737 -6.28866,-0.43784 -12.65695,-0.40482 -18.86349,-1.57537 -2.72201,-0.60507 -5.43768,-1.36622 -8.07003,-2.27877 -0.35662,-0.78116 0.33805,-1.67267 0.49148,-2.45453 1.03515,-3.4814 1.18058,-7.23241 0.56341,-10.8049 -0.075,-0.78651 -0.90829,-2.4805 0.47521,-1.52182 0.63488,0.25576 1.26977,0.51152 1.90466,0.76728 z m 31.67283,5.7565 c 0.70549,-0.0555 1.45179,0.31354 1.33155,1.11852 0.31631,3.9831 -0.70917,8.34821 -3.77739,11.08003 -0.46414,0.20784 -1.10974,0.74418 -1.58842,0.46561 0.28884,-1.71687 1.42414,-3.18162 2.0694,-4.80234 0.99209,-2.02544 1.47343,-4.28506 1.37625,-6.52838 0.0697,-0.42848 -0.0127,-1.3067 0.58861,-1.33344 z m -125.082344,1.03551 c 3.238634,0.0354 6.630239,0.76438 9.318425,2.63905 0.972896,1.03088 0.441479,2.53633 0.02484,3.68001 -2.265714,1.05613 -4.5714,2.16237 -6.301222,4.02426 -6.484111,6.60447 -10.644946,15.00318 -15.651744,22.68249 -1.336294,2.09755 -2.818389,4.31997 -5.243216,5.25211 -1.540569,0.71423 -3.142964,1.59573 -4.877532,1.52824 0.458236,-0.9119 1.689194,-1.46138 1.77127,-2.547 0.341567,-0.81679 -0.04488,-0.45157 -0.75695,-0.15259 -1.683252,0.59871 -3.090818,1.8926 -4.942615,2.03408 -1.681378,0.20321 -3.468748,0.20901 -4.999544,-0.5117 0.46836,-1.18473 1.705822,-1.93944 2.322806,-3.07594 5.909278,-9.12792 9.613307,-19.52843 15.948794,-28.39228 2.691619,-3.79769 6.888489,-6.83545 11.64265,-7.09329 0.57522,-0.0492 1.159042,-0.0688 1.744047,-0.0674 z m 8.41795,8.63838 c 0.809881,0.0118 0.0539,0.9607 0.07511,1.36797 -1.24973,4.85648 -2.129066,9.87425 -1.679139,14.90489 0.228614,4.00155 1.288027,7.87987 2.419636,11.70311 0.854587,2.97918 0.777855,6.09094 0.52271,9.14088 -1.779507,0.59881 -3.74604,0.76939 -5.595752,1.21369 -1.253527,0.10418 -2.515328,0.84139 -3.763242,0.49521 -2.038777,-1.01733 -3.35474,-3.01876 -5.087291,-4.44728 -2.448791,-2.30867 -5.108572,-4.39082 -7.724033,-6.49163 3.378633,-5.91853 6.79739,-11.82962 10.642262,-17.45992 2.652633,-3.72884 5.488178,-7.51223 9.340761,-10.07993 0.26841,-0.13574 0.541214,-0.34266 0.848997,-0.34699 z m 96.320454,19.53369 c 1.01857,0.75285 0.62479,2.28882 0.38053,3.35157 -0.91173,2.84877 -2.59126,5.58481 -5.07122,7.33179 -0.91824,0.61505 -2.07761,0.34341 -3.05447,0.81146 -0.36446,-0.0117 -1.16281,0.0105 -0.65643,-0.53956 0.88248,-1.23562 2.43415,-1.74477 3.38084,-2.93578 1.90696,-2.01926 3.52028,-4.43215 4.11362,-7.17897 0.16026,-0.37455 0.47591,-0.80374 0.90713,-0.84051 z m -60.53463,5.14427 c 0.49984,0.0725 -0.13151,0.78902 -0.13153,1.08684 -1.03114,3.37415 -1.66723,6.90718 -1.70363,10.43995 0.29294,2.41728 1.44245,4.64016 2.44799,6.82907 0.60998,1.31604 1.37815,2.69544 1.50846,4.13721 -0.61975,0.63255 -1.69183,0.42932 -2.4995,0.57552 -2.59146,0.0623 -5.25284,0.22651 -7.77572,-0.43442 -1.40985,-1.21858 -1.20506,-3.28021 -2.00108,-4.85802 -0.99857,-2.55583 -2.61872,-4.85672 -3.15149,-7.5914 -0.57362,-2.54304 -1.00318,-5.13742 -1.188893,-7.73707 -0.114371,-0.92453 0.786903,-1.49287 1.631073,-1.43877 4.27694,-0.21569 8.63703,-0.16959 12.86432,-1.00891 z m -16.513732,3.41356 c 0.729938,1.3363 0.662311,2.98377 0.951849,4.46234 -0.07113,0.8362 0.633133,1.9305 0.01055,2.63488 -0.910261,0.034 -2.490204,0.34826 -2.784992,-0.85809 -0.08672,-2.02598 0.782402,-3.94297 1.490286,-5.80494 0.08953,-0.15156 0.165897,-0.35385 0.332462,-0.43419 z m 18.695582,21.15479 c 0.43718,0.13233 1.33517,-0.047 1.4691,0.44872 -0.40318,1.22435 -1.96589,1.0532 -2.9697,1.26321 -2.47758,0.17288 -5.04295,0.42615 -7.47326,-0.19681 -0.52959,-0.23894 -1.03534,-0.55398 -1.43942,-0.97496 2.00551,-0.70665 4.11249,0.078 6.18396,-0.11624 1.43381,0.0646 2.8211,-0.34517 4.22932,-0.42396 z m -31.462095,6.81622 c 1.967645,0.45817 3.908878,1.13958 5.959361,1.12878 1.864876,0.17389 3.784593,-0.39381 5.597229,0.069 0.23991,0.4159 -0.522465,0.77133 -0.797015,1.03819 -2.086294,1.39895 -4.806178,0.97434 -7.136813,0.56893 -1.478626,-0.41626 -3.34847,-0.79267 -4.129008,-2.27142 -0.177124,-0.44895 0.05871,-0.64164 0.506246,-0.53351 z"
       style="opacity:1;fill:#000000;stroke-width:0.57343817" />
  </g>
</svg>
