<?xml version="1.0" encoding="UTF-8" standalone="no"?>
<svg
   xmlns:dc="http://purl.org/dc/elements/1.1/"
   xmlns:cc="http://creativecommons.org/ns#"
   xmlns:rdf="http://www.w3.org/1999/02/22-rdf-syntax-ns#"
   xmlns:svg="http://www.w3.org/2000/svg"
   xmlns="http://www.w3.org/2000/svg"
   width="210mm"
   height="297mm"
   viewBox="0 0 210 297"
   version="1.1"
   id="svg2037">
  <title
     id="title2620">D is for Donut</title>
  <defs
     id="defs2031" />
  <metadata
     id="metadata2034">
    <rdf:RDF>
      <cc:Work
         rdf:about="">
        <dc:format>image/svg+xml</dc:format>
        <dc:type
           rdf:resource="http://purl.org/dc/dcmitype/StillImage" />
        <dc:title>D is for Donut</dc:title>
        <dc:subject>
          <rdf:Bag>
            <rdf:li>csk</rdf:li>
            <rdf:li>letters</rdf:li>
            <rdf:li>d</rdf:li>
          </rdf:Bag>
        </dc:subject>
        <dc:date>2020-04-10</dc:date>
        <dc:creator>
          <cc:Agent>
            <dc:title>Lena London</dc:title>
          </cc:Agent>
        </dc:creator>
        <dc:source>http://www.supercoloring.com/coloring-pages/doughnut</dc:source>
        <cc:license
           rdf:resource="http://creativecommons.org/licenses/by-sa/4.0/" />
      </cc:Work>
      <cc:License
         rdf:about="http://creativecommons.org/licenses/by-sa/4.0/">
        <cc:permits
           rdf:resource="http://creativecommons.org/ns#Reproduction" />
        <cc:permits
           rdf:resource="http://creativecommons.org/ns#Distribution" />
        <cc:requires
           rdf:resource="http://creativecommons.org/ns#Notice" />
        <cc:requires
           rdf:resource="http://creativecommons.org/ns#Attribution" />
        <cc:permits
           rdf:resource="http://creativecommons.org/ns#DerivativeWorks" />
        <cc:requires
           rdf:resource="http://creativecommons.org/ns#ShareAlike" />
      </cc:License>
    </rdf:RDF>
  </metadata>
  <path
     id="path2607"
     d="m 124.06891,100.69255 c -2.89303,0.006 -5.80364,0.14871 -8.71885,0.41134 -29.672474,2.48532 -56.808667,16.92629 -78.102204,41.66775 -24.329293,28.26873 -32.4153084,59.0612 -22.937102,87.35177 3.367174,10.05033 8.587558,18.80884 15.385108,26.08781 0.915908,1.02937 1.817801,1.9854 2.668053,2.78071 1.311032,1.22631 2.667325,2.39581 4.065902,3.51606 12.164052,9.96425 28.01343,16.13174 46.529461,17.72604 19.276462,1.65981 40.666232,-2.83136 58.793312,-12.34289 20.69159,-10.85719 34.19137,-24.35096 43.89086,-43.87227 10.87245,-21.882 16.12033,-49.08356 13.03228,-67.55143 -5.7936,-34.64826 -33.52243,-55.57277 -73.27718,-55.7599 -0.44324,-0.006 -0.88556,-0.0157 -1.32964,-0.015 z m 0.0672,1.5167 c 6.43804,-0.0183 12.81411,0.33734 16.81345,1.07332 12.57124,2.31345 22.17186,6.15353 25.16952,10.06812 6.12331,7.99634 6.41898,9.56898 8.24357,10.68152 1.09956,0.67045 2.56335,1.26762 3.70181,1.26888 1.80681,0.32 6.66525,5.81848 6.85443,6.85702 0.0747,0.41017 2.06007,5.26881 3.47118,9.43944 0.80029,2.36527 1.42428,4.2463 1.93218,5.84925 0.61635,2.1348 1.16754,4.13367 1.54616,5.72523 0.32064,1.68382 0.41327,3.0844 0.42426,4.8948 0.0378,6.23792 -1.38208,10.34607 -6.20272,17.95032 -4.59171,7.24313 -5.04282,8.45835 -6.2823,16.89199 -1.79337,12.20263 -3.82684,14.45743 -13.03435,14.46217 -4.44127,0.002 -5.68278,0.21349 -6.47247,1.10174 -2.9738,3.34501 -11.10303,14.27557 -11.6117,15.61352 -0.65767,1.72977 -0.19545,4.19897 1.8154,9.70121 1.39176,3.80823 1.14531,6.75025 -0.81804,9.7467 -2.37056,3.61789 -7.88012,5.21224 -9.98337,2.88819 -0.57303,-0.63321 -1.49279,-2.47563 -2.0438,-4.09277 -1.18154,-3.46762 -5.73588,-7.67865 -7.60161,-7.02955 -0.6207,0.21594 -2.25927,1.98147 -3.64112,3.92328 -8.50657,11.95355 -14.18617,14.71463 -32.135504,15.62333 -4.089519,0.20703 -8.424924,0.66972 -9.634038,1.02785 -1.209138,0.35814 -5.448826,2.56341 -9.421645,4.90099 -3.972822,2.33755 -8.575816,4.70398 -10.228834,5.2591 -5.716715,1.9199 -16.520501,0.72957 -24.501348,-2.70008 -3.864785,-1.6608 -11.645127,-9.41938 -15.997472,-15.95303 C 9.9175367,225.49427 7.9546818,199.61547 18.912561,173.76148 24.354922,160.92074 33.42193,147.99672 45.364176,136.0599 63.222299,118.20993 83.164432,107.627 106.94543,103.37921 c 4.25188,-0.75949 10.75264,-1.15163 17.19068,-1.16996 z m 43.39993,10.28361 v 5.3e-4 c 0.008,-7.9e-4 0.022,0.004 0.0305,0.004 l 1.57561,0.99632 c 3.24947,2.05434 8.71047,6.36742 10.62519,8.39122 l 0.11989,0.1266 c 5.04951,4.67664 7.63623,9.36429 7.63623,9.36429 l -0.0331,-0.0227 c 3.74244,5.17157 7.68897,15.09459 9.26765,23.41666 1.22508,6.46023 1.22321,20.27594 -0.004,28.42204 -3.48349,23.11357 -13.02456,45.0306 -25.79843,60.11157 -3.07675,3.49569 -6.42414,6.79164 -10.01179,9.86297 -0.007,0.006 -0.013,0.0121 -0.0196,0.0176 -16.86628,13.89322 -37.24754,22.63471 -58.56283,25.10132 -5.606163,0.46371 -11.977957,0.62656 -17.483174,0.44855 -1.09266,-0.0494 -2.140797,-0.10835 -3.05666,-0.19019 -5.48255,-0.48945 -16.321481,-2.8476 -21.52065,-4.68238 -3.529838,-1.24574 -10.710338,-4.47831 -14.307655,-6.33243 -0.97949,-0.58793 -1.708724,-1.07429 -1.911509,-1.31517 0.612553,0.082 2.299909,0.46355 4.293793,0.98235 2.424279,0.63079 4.534466,0.9335 7.169071,0.99375 2.174279,0.19788 4.10677,0.16568 5.986716,-0.12867 3.846158,-0.1955 4.985845,-0.96838 19.035014,-8.59845 l 4.273124,-2.3213 c 0.368377,-0.11012 0.745985,-0.2046 1.132229,-0.28939 0.511966,-0.079 1.202576,-0.15854 1.95027,-0.23668 l 6.462654,-0.32918 c 18.088787,-0.91989 23.806837,-3.40991 31.540707,-13.73507 1.82969,-2.44273 3.5121,-4.51541 4.27933,-5.30201 0.23719,-0.20338 0.41097,-0.31246 0.52348,-0.33486 1.37407,0.19399 4.86385,4.17747 5.41879,6.23838 1.42615,5.29624 5.12235,7.33442 9.77512,5.39037 3.10534,-1.2975 4.5185,-2.59233 6.0017,-5.49837 1.53831,-3.01425 1.51179,-7.17622 -0.0687,-10.86342 -0.29015,-0.6769 -0.53022,-1.25919 -0.75241,-1.81902 -0.44454,-1.22542 -0.77557,-2.26008 -0.91261,-3.13727 -0.0115,-0.086 -0.0243,-0.17284 -0.0331,-0.2527 -0.009,-0.0773 -0.0141,-0.15205 -0.0207,-0.22789 -0.0896,-2.27839 1.27507,-4.15225 4.72167,-8.47855 2.75571,-3.45902 5.33762,-6.90013 5.73763,-7.6476 0.008,-0.0151 0.0167,-0.0256 0.0248,-0.0403 0.30364,-0.40852 0.58207,-0.70868 0.91364,-0.93379 0.73172,-0.33123 2.01795,-0.38499 4.81159,-0.38499 2.62156,0 4.75543,-0.19561 6.5164,-0.70177 0.62636,-0.12337 1.08486,-0.29759 1.51412,-0.55862 4.05428,-1.86335 5.75012,-6.13243 7.08225,-14.96652 1.22571,-8.12858 1.6404,-9.18771 7.04402,-17.96738 2.77722,-4.51236 4.45152,-8.51784 5.04206,-12.78062 0.2558,-1.2676 0.39325,-2.45636 0.3912,-3.54552 -0.001,-0.8415 -0.12229,-1.93632 -0.32505,-3.18378 -0.47293,-4.49002 -1.91679,-9.55901 -4.32687,-15.87449 -1.18063,-3.09375 -3.03372,-7.6263 -3.22254,-8.0957 -0.94374,-2.34618 -4.91695,-7.53693 -7.59348,-7.53981 -3.31,-0.004 -6.0378,-3.66079 -10.02301,-9.89678 l -0.99839,-1.56424 c 0.009,-0.0504 0.0334,-0.0852 0.0894,-0.0904 z m -30.68908,2.54765 v 5.3e-4 c -1.09649,0 -2.35866,0.78162 -3.28765,1.82315 -0.5405,0.47224 -0.89229,1.05427 -1.07849,1.68465 -2.6e-4,7.9e-4 -0.001,5.3e-4 -0.001,0.002 -0.16173,0.40658 -0.2527,0.81482 -0.2527,1.20148 0,0.96981 0.39236,1.89578 1.13379,2.71973 0.41812,0.51725 0.9556,0.96657 1.60558,1.3038 1.50195,0.90336 2.89316,0.81161 4.9413,-0.24753 4.45949,-2.30608 2.23048,-8.48734 -3.06079,-8.48734 z m -34.38549,0.6289 c -1.79255,0 -2.577123,1.50804 -1.47589,2.83497 0.96842,1.16685 2.1354,1.19377 3.067,0.0713 1.05392,-1.26992 0.15811,-2.90629 -1.59111,-2.90629 z m 34.80769,0.71882 c 0.45262,0.023 0.90558,0.26604 1.63762,0.74569 1.61567,1.05863 2.10177,3.05495 1.15704,4.37131 -0.0128,0.0118 -0.0216,0.0222 -0.0346,0.0341 -0.65701,0.59459 -1.76418,0.93343 -2.84996,0.99891 -0.99661,-0.0619 -1.99936,-0.39378 -2.58589,-0.98031 -1.4138,-1.4138 -0.95664,-3.46986 1.01596,-4.57336 0.71712,-0.40117 1.16665,-0.59964 1.60714,-0.59376 0.0173,-1.7e-4 0.0355,-0.002 0.0527,-0.002 z m 23.58616,4.99298 c -0.65501,0.0436 -1.33467,0.44118 -2.09083,1.19734 -1.51182,1.51182 -1.57079,2.41215 -0.27854,4.25711 0.002,0.003 0.006,0.006 0.008,0.009 0.057,0.0853 0.1221,0.16444 0.19016,0.24185 0.0293,0.0343 0.0601,0.0669 0.091,0.10025 0.0341,0.0344 0.0637,0.0721 0.10025,0.10439 0.5421,0.5449 1.25337,0.94102 1.76526,0.94102 1.37396,0 2.41716,-0.9766 2.86598,-2.20555 5.3e-4,-10e-4 8e-4,-0.003 0.001,-0.004 0.39498,-0.75334 0.40946,-1.57174 0.11162,-2.27842 -0.14136,-0.52392 -0.40198,-1.01848 -0.81597,-1.43247 -0.66165,-0.66164 -1.29318,-0.97281 -1.9482,-0.92914 z m -53.54971,0.56896 5.3e-4,5.3e-4 c -0.0212,0 -0.0381,0.004 -0.0589,0.004 -0.0198,-2.3e-4 -0.0352,-0.003 -0.0553,-0.003 -0.0768,0 -0.14188,0.0173 -0.21446,0.0238 -1.57907,0.1221 -2.16586,1.08618 -1.15704,2.09497 0.29996,0.29996 0.79511,0.39055 1.30793,0.32659 8e-4,1.5e-4 5.3e-4,-1.6e-4 0.002,0 0.28081,0.0501 0.51464,-0.0216 0.76688,-0.22117 0.56355,-0.23944 1.03542,-0.63717 1.12861,-1.12603 0.16272,-0.85387 -0.22025,-1.09916 -1.71979,-1.09916 z m 53.30269,0.8015 v 10e-4 c 0.78222,0.0915 1.68412,1.1101 1.77922,2.02313 -0.16963,0.79364 -0.72352,1.33747 -1.50171,1.44849 -0.21682,0.031 -0.41526,0.0302 -0.59635,0.004 -0.17256,-0.0686 -0.33854,-0.16025 -0.47852,-0.30024 -0.45934,-0.45933 -0.50811,-1.53551 -0.24392,-2.3089 0.0306,-0.0466 0.0579,-0.0934 0.092,-0.14005 0.28084,-0.38407 0.61357,-0.61907 0.94929,-0.7276 z m -89.991921,2.62878 c -0.756782,0.002 -1.425493,0.61346 -1.556493,1.75183 -0.152575,1.3259 0.06628,1.72508 0.942062,1.71773 0.14745,-0.001 0.277593,-0.019 0.414443,-0.0305 0.01818,7e-5 0.03696,-0.003 0.0553,-0.003 1.399225,-0.13388 2.220029,-0.79161 2.103747,-1.65003 0.106521,-0.32489 -0.0269,-0.58227 -0.448551,-0.93379 -0.02902,-0.037 -0.06015,-0.0683 -0.08992,-0.10284 -0.06642,-0.16634 -0.201797,-0.29922 -0.376719,-0.36432 -0.33814,-0.25891 -0.70001,-0.38484 -1.043866,-0.38395 z m 0.212392,0.9679 c 0.172744,0 0.330055,0.0701 0.443899,0.18397 0.113845,0.11383 0.183971,0.27167 0.183971,0.44441 -5.3e-4,0.25856 -0.159073,0.4822 -0.383958,0.57775 -0.07509,0.0319 -0.157541,0.0491 -0.243912,0.0491 -0.08636,0 -0.168833,-0.0172 -0.243914,-0.0491 -0.225235,-0.0957 -0.384471,-0.31866 -0.384471,-0.57775 v -0.001 c 0,-0.0859 0.01902,-0.1681 0.05064,-0.24288 1.32e-4,-2.7e-4 -1.38e-4,-0.001 0,-0.001 0.03176,-0.0748 0.07828,-0.14219 0.134877,-0.19896 0.113844,-0.11385 0.270136,-0.18397 0.442867,-0.18397 z m 8.662519,4.38319 c -1.395719,0.0211 -2.816418,0.44759 -3.637502,1.26866 -1.713651,1.71367 -1.576914,3.42575 0.398425,4.97954 3.766119,2.96242 8.717746,0.0203 7.707022,-3.41168 -0.09608,-0.45496 -0.313889,-0.85652 -0.607714,-1.21078 -0.111823,-0.15542 -0.231849,-0.31071 -0.371554,-0.46508 -0.721987,-0.79779 -2.09295,-1.18173 -3.488677,-1.16066 z m -0.114205,1.24541 c 0.793033,-0.0169 1.603875,0.18706 2.235007,0.62941 0.189079,0.15626 0.344811,0.2964 0.48214,0.42944 0.08995,0.10201 0.177604,0.20743 0.251666,0.32504 0.169257,0.26882 0.268902,0.51206 0.305406,0.74724 0.0073,0.0813 0.0093,0.16063 0.0098,0.23926 -0.04779,0.18138 -0.140528,0.37552 -0.275952,0.59842 -0.567413,0.93393 -2.066904,1.41195 -3.424079,1.37769 -0.02418,-0.001 -0.04818,-0.002 -0.07235,-0.003 -0.110664,-0.004 -0.219726,-0.0121 -0.327628,-0.0232 -0.194664,-0.023 -0.386765,-0.0573 -0.574125,-0.0992 -0.08822,-0.0214 -0.17541,-0.0443 -0.2589,-0.0713 -0.02633,-0.008 -0.05095,-0.0166 -0.077,-0.0243 -0.263427,-0.0923 -0.496903,-0.21489 -0.690914,-0.36587 -0.280155,-0.34367 -0.478526,-0.9584 -0.478526,-1.57768 0,-1.36184 1.410983,-2.14961 2.895431,-2.18127 z m 77.099685,0.81028 c -0.42067,0.004 -0.8267,0.14678 -1.3348,0.43977 -0.47643,0.18906 -0.8813,0.50538 -1.17512,0.90795 -7.9e-4,8e-4 -0.002,0.001 -0.002,0.002 -1.42822,1.63826 -0.73437,4.14143 1.65985,4.94234 0.61217,0.20477 1.26723,0.0793 1.8526,-0.27079 0.43182,-0.10979 0.83341,-0.32336 1.16272,-0.65267 0.63974,-0.63974 0.83153,-1.61665 0.65267,-2.53732 0.10468,-1.39492 -0.19307,-1.89539 -1.40456,-2.44739 -0.48165,-0.21945 -0.86726,-0.34752 -1.22939,-0.37776 l -5.2e-4,5.3e-4 c -0.061,-0.005 -0.12129,-0.007 -0.18139,-0.007 z m -0.22582,1.29501 c 0.26222,-0.003 0.55909,0.0556 0.88676,0.18139 0.0188,0.007 0.0345,0.018 0.0527,0.0258 0.37151,0.31665 0.63201,0.81876 0.63201,1.47949 0,0.66313 -0.13512,1.10293 -0.44029,1.38493 -0.0738,0.0452 -0.15419,0.085 -0.23926,0.11782 -0.32268,0.12376 -0.59398,0.19326 -0.83664,0.22686 -0.38313,-0.0466 -0.77999,-0.24239 -1.13843,-0.60203 -0.11235,-0.29281 -0.17053,-0.67981 -0.17053,-1.19527 0,-0.4602 0.0986,-0.81904 0.26975,-1.08779 0.28679,-0.25924 0.58863,-0.43076 0.8847,-0.5178 0.0342,-0.002 0.0637,-0.0129 0.0992,-0.0134 z m -19.60139,0.43047 c -0.70565,0 -3.41665,2.53614 -5.55728,4.94905 -0.31354,0.34681 -0.6193,0.69539 -0.90434,1.0449 -0.0835,0.10113 -0.1462,0.18938 -0.22583,0.28835 -0.14254,0.18039 -0.28471,0.36011 -0.41599,0.53744 -0.42826,0.5638 -0.8,1.08873 -1.00304,1.48673 -1.76257,3.45494 -0.48259,2.90044 1.942,-0.84129 1.14485,-1.76682 3.3049,-3.98835 4.80022,-4.93665 2.42166,-1.53577 2.95786,-2.52853 1.36426,-2.52853 z m -6.57221,1.28054 c -0.72229,-0.13493 -5.23069,4.77101 -5.23069,5.74797 0,0.43767 1.27165,-0.5889 2.82515,-2.281 1.55348,-1.69207 2.66188,-3.23914 2.46342,-3.43752 -0.0151,-0.0151 -0.0346,-0.0246 -0.0579,-0.0289 z m -5.35058,0.78807 c -0.0204,-0.003 -0.0435,-0.002 -0.0692,0.005 -0.0444,0.0111 -0.10102,0.0472 -0.15916,0.0858 -0.0578,0.0274 -0.11763,0.0813 -0.17931,0.14882 -0.13222,0.12139 -0.27552,0.27197 -0.43409,0.48163 -0.50721,0.67058 -0.91518,1.51883 -0.9033,1.88464 0.0111,0.3658 0.43486,0.1161 0.94206,-0.55449 0.34093,-0.45074 0.62467,-0.97214 0.77825,-1.38286 0.0208,-0.0453 0.0392,-0.0871 0.0527,-0.12971 0.0289,-0.0897 0.0339,-0.15505 0.045,-0.22686 0.007,-0.0467 0.0286,-0.10779 0.0274,-0.14521 -0.003,-0.10289 -0.0391,-0.15661 -0.10025,-0.1664 z m -4.76043,1.70015 c -0.35081,0 -0.80101,0.42386 -0.99994,0.94206 -0.19894,0.5182 -0.26278,0.94206 -0.14314,0.94206 0.11958,0 0.56834,-0.42386 0.99839,-0.94206 0.4507,-0.54307 0.51231,-0.94206 0.14469,-0.94206 z m -63.295878,1.95647 c -1.856592,-0.0203 -4.516086,0.98085 -6.710701,2.65152 -0.815388,0.62073 -1.461884,1.24097 -1.941999,1.84381 -1.298935,1.51176 -1.466914,2.99954 -0.279572,3.84473 0.07141,0.0644 0.141925,0.12841 0.224276,0.18862 1.521765,1.11276 3.234275,1.0117 6.221325,-0.3669 2.790571,-1.28794 4.624277,-3.15925 5.117002,-4.83227 0.122825,-0.33161 0.19272,-0.65492 0.191202,-0.96273 0.02048,-0.42466 -0.06883,-0.83676 -0.305406,-1.21956 -0.07241,-0.11718 -0.206738,-0.21486 -0.396359,-0.29301 -2.65e-4,-1.3e-4 -7.94e-4,1.4e-4 -0.0011,0 -0.163748,-0.17232 -0.347101,-0.33623 -0.576709,-0.48007 -0.393468,-0.2465 -0.923155,-0.36736 -1.542024,-0.37414 z m -0.241845,1.50534 c 2.381581,0.0417 2.395289,2.07229 -1.588535,4.40696 -1.436446,0.84181 -3.386936,1.40284 -4.804357,1.54047 -0.717481,0.0283 -1.29015,-0.0674 -1.589566,-0.3116 -0.07656,-0.22025 -0.109937,-0.44631 -0.103354,-0.67697 0.454075,-1.14049 2.133793,-2.92554 3.5233,-3.6251 1.908133,-0.96067 3.479969,-1.35272 4.562512,-1.33376 z m 14.807364,2.11873 c -1.154317,0.003 -2.270557,0.48568 -3.265435,1.43557 -0.452329,0.3897 -0.818263,0.8308 -1.100706,1.30534 -1.530652,2.21125 -1.282086,4.12019 0.770496,6.17276 0.847706,0.84771 1.813321,1.36128 2.794661,1.58543 0.3718,0.12989 0.701776,0.22069 0.896586,0.22686 0.224324,0.007 0.503398,-0.0511 0.799951,-0.13384 2.217852,-0.24383 4.210913,-1.93153 4.739246,-4.68499 0.323477,-1.68581 0.07268,-2.32924 -1.523939,-3.92586 -0.06413,-0.0642 -0.129236,-0.11935 -0.193786,-0.18035 -0.01513,-0.0131 -0.02742,-0.0273 -0.04289,-0.0403 -0.362082,-0.33782 -0.730094,-0.62748 -1.101741,-0.86765 -0.918524,-0.59358 -1.85638,-0.89569 -2.772441,-0.89297 z m 0.147796,1.38596 c 0.134379,-0.004 0.269086,-0.003 0.403074,0.005 0.36168,0.0211 0.717137,0.0898 1.058852,0.19534 2.331069,0.95295 3.272285,4.39353 1.231448,6.24044 -1.516989,1.37278 -4.055727,1.32123 -5.350061,-0.10903 -1.919078,-2.12057 -0.942019,-5.25429 1.463477,-6.1402 0.38757,-0.11249 0.790067,-0.17883 1.19321,-0.19172 z m 43.412853,4.78989 c -12.54596,0.14431 -25.919879,5.55666 -36.907826,14.76551 -3.957907,3.16611 -7.346595,6.62992 -9.908439,10.22004 -0.296984,0.41618 -0.578041,0.83132 -0.85421,1.2454 -0.04345,0.0617 -0.08469,0.12328 -0.12764,0.18501 -5.952914,8.55747 -7.113278,16.77656 -3.392043,24.38249 2.880156,5.88679 8.852463,9.6614 17.241326,10.89649 v -0.001 c 5.017821,0.73944 5.693799,0.73882 11.134204,-0.004 22.430518,-3.06691 41.787738,-19.73343 44.797268,-38.57232 1.22246,-7.65234 -0.81204,-13.87481 -6.0415,-18.47794 -3.9535,-3.48004 -8.23967,-4.72703 -15.94114,-4.63848 z m 2.15594,1.78025 c 5.16729,0.0279 6.41641,0.29422 9.02012,1.47071 5.11398,2.31074 8.17536,6.6925 9.13588,12.07988 0.0725,1.11157 0.0999,2.47324 0.0992,4.3186 -5.2e-4,1.27067 -0.0139,2.31027 -0.0475,3.22513 -0.7777,5.30699 -3.18393,11.02739 -7.2626,16.45223 -6.49018,8.63229 -17.63032,16.06721 -28.910382,19.29391 -6.089189,1.74183 -16.569644,2.20246 -21.092252,0.92708 -8.77779,-2.47536 -13.210738,-6.80123 -14.628048,-14.27459 -2.827454,-14.90909 14.478736,-34.04582 37.711392,-41.69978 1.04728,-0.34503 1.92986,-0.61503 2.76521,-0.84026 0.28186,-0.0727 0.56426,-0.14137 0.84646,-0.2098 2.54433,-0.59946 4.84193,-0.72126 9.89242,-0.74207 0.91347,-0.004 1.73194,-0.005 2.47013,-0.001 z M 61.607111,153.356 c -1.09624,0 -2.002597,1.29505 -2.068608,2.51768 -0.05219,0.32927 -0.01521,0.64109 0.127643,0.90537 0.04046,0.10768 0.08765,0.21191 0.148309,0.31006 0.459592,0.74362 1.431449,0.85883 2.347146,0.52761 0.254555,-0.0647 0.491061,-0.18319 0.723468,-0.3669 0.520457,-0.34821 0.96134,-0.84757 1.187524,-1.46244 0.485005,-1.3185 -0.643622,-2.43138 -2.465482,-2.43138 z m 0.263551,1.27228 c 0.447127,0.0728 0.792716,0.45919 0.792716,0.92604 0,0.24533 -0.0966,0.46753 -0.251664,0.63562 -0.507503,0.25899 -1.121569,0.25708 -1.432989,-0.0636 -0.01214,-0.0158 -0.02658,-0.0291 -0.03772,-0.0455 -0.09744,-0.14392 -0.154773,-0.31699 -0.159679,-0.50178 0.01252,-0.51404 0.446366,-0.88245 1.08934,-0.95084 z m 115.347998,1.05006 c -0.21679,0.0114 -0.43449,0.0915 -0.63614,0.2589 -1.07294,0.89057 -1.11013,2.23783 -0.0734,2.65617 1.35302,0.54595 1.75484,0.44439 2.13062,-0.53485 0.001,-0.003 0.002,-0.008 0.003,-0.0114 0.12827,-0.17391 0.16453,-0.41556 0.10541,-0.73846 -2.6e-4,-0.004 2.7e-4,-0.009 0,-0.0134 0.0873,-0.21456 0.0943,-0.4012 -0.007,-0.50177 -0.0349,-0.0349 -0.0755,-0.0452 -0.11886,-0.0465 -0.25157,-0.63327 -0.82389,-1.09728 -1.40198,-1.06867 h -5.3e-4 z m 0.0641,1.02991 c 0.0258,-5.3e-4 0.053,0.001 0.0811,0.006 0.075,0.0127 0.15806,0.0448 0.24443,0.0982 0.0864,0.0534 0.16883,0.11111 0.24391,0.17157 0.075,0.0605 0.14307,0.12369 0.19999,0.18397 0.0265,0.0281 0.041,0.0527 0.0625,0.0796 -0.0531,0.0986 -0.1056,0.19995 -0.15193,0.32143 -0.0237,0.0619 -0.0294,0.0895 -0.0491,0.14366 -0.0918,0.0232 -0.19251,0.0403 -0.30541,0.0403 -0.17272,0 -0.32903,-0.0743 -0.44287,-0.19482 -0.0572,-0.0606 -0.10346,-0.13244 -0.13539,-0.21239 -0.0319,-0.0795 -0.0501,-0.16589 -0.0501,-0.25735 0,-0.0909 0.0186,-0.16722 0.0501,-0.22686 1.6e-4,-2.7e-4 -1.7e-4,-0.001 0,-0.001 0.0158,-0.0295 0.0356,-0.0548 0.0579,-0.076 0.0509,-0.0482 0.11726,-0.074 0.19482,-0.076 z M 68.654763,162.9642 c -0.26946,0.0411 -0.163328,0.78106 0.37052,2.08205 0.593637,1.44666 0.799398,1.58515 1.01234,0.68471 0.0068,-0.0288 0.0082,-0.061 0.01344,-0.091 0.08697,-0.11602 0.07362,-0.33914 0.0036,-0.59997 -0.05376,-0.49808 -0.236903,-1.02374 -0.520382,-1.36529 -0.42154,-0.50792 -0.717857,-0.73518 -0.879534,-0.71055 z m -5.292183,1.81333 c -0.07577,0.004 -0.14488,0.0171 -0.207221,0.0382 -0.458888,0.1549 0.07179,0.72842 1.235064,1.33222 1.352312,0.70191 2.041737,1.52045 2.041737,2.42517 0,1.01719 0.18162,1.18416 0.711583,0.65422 0.391253,-0.39132 0.548423,-1.13854 0.3483,-1.65984 -0.461078,-1.20154 -2.99295,-2.8643 -4.129463,-2.79001 z m -3.654557,1.14825 c -0.850453,0.006 -0.625742,0.4027 0.913638,1.61592 1.226751,0.96682 2.041737,2.17539 2.041737,3.02875 0,0.78104 0.18779,1.60837 0.418062,1.83865 0.710962,0.71098 0.838192,0.48542 0.838192,-1.49396 0,-2.15375 -2.403231,-5.00123 -4.211629,-4.98936 z m -25.347808,2.50527 c -1.12612,0 -2.474267,2.07556 -2.474267,3.80907 0,0.36653 0.548804,0.54476 1.259872,0.57258 0.638133,0.10689 1.449244,-0.0151 2.070674,-0.28578 7.94e-4,-2.6e-4 0.0013,-7.9e-4 0.0021,-10e-4 0.447754,-0.14917 0.824627,-0.35084 1.030943,-0.59945 1.016823,-1.22515 -0.210367,-3.4954 -1.889291,-3.4954 z m 111.527045,0.62735 0.001,5.3e-4 c -0.23662,0 -0.45318,0.0258 -0.65371,0.0687 -0.33039,0.0111 -0.54539,0.0897 -0.68213,0.2589 -0.94191,0.55574 -1.05311,1.70653 0.0501,2.55023 0.0141,0.0131 0.03,0.0255 0.0455,0.0372 0.001,7.9e-4 0.001,0.002 0.002,0.002 1.47549,1.07891 1.84683,1.06852 2.8019,-0.0822 0.26593,-0.32041 0.41875,-0.64854 0.47852,-0.96221 0.009,-0.0312 0.0223,-0.0597 0.0284,-0.092 0.0229,-0.12022 0.0143,-0.23676 -0.009,-0.35036 -0.086,-0.80656 -0.85192,-1.43092 -2.0624,-1.43092 z m -111.400953,0.82114 c 0.487096,0.18851 0.85421,0.62644 0.85421,1.06402 0,0.16346 -0.05585,0.32511 -0.145211,0.47594 -0.184433,0.0945 -0.431313,0.15193 -0.725019,0.15193 -0.902869,0 -1.177806,-0.29003 -0.917258,-0.96893 0.196104,-0.511 0.562108,-0.74037 0.933278,-0.72296 z m 111.365293,0.43563 c 0.53858,0 0.97875,0.28294 0.97875,0.62839 0,0.0447 -0.0159,0.084 -0.0243,0.12609 -0.24212,0.27852 -0.63023,0.3967 -0.99373,0.36948 -0.21608,-0.11472 -0.4247,-0.28966 -0.55191,-0.49557 -0.21351,-0.34545 0.0526,-0.62839 0.59118,-0.62839 z m 5.21984,14.67869 c -0.46033,-0.004 -0.91371,0.0413 -1.35651,0.1385 -7.60569,1.6705 -9.01595,10.89156 -2.18023,14.25907 2.71613,1.33806 4.03982,1.31622 7.19491,-0.11678 4.80625,-2.1829 5.9732,-8.03328 2.30064,-11.53677 -0.43746,-0.41733 -0.89382,-0.7746 -1.35599,-1.10019 -0.63191,-0.53847 -1.17955,-0.85872 -1.85002,-1.03301 -0.91849,-0.38352 -1.84766,-0.60174 -2.7528,-0.61082 z m -0.26252,1.39113 c 6.26731,-0.0921 9.4493,8.20727 3.57136,11.24686 -4.66254,2.4111 -9.43405,-0.31357 -9.43405,-5.38675 0,-2.55347 2.16513,-5.26556 4.56975,-5.72523 0.44346,-0.0848 0.87512,-0.12874 1.29294,-0.13488 z m 15.97525,10.93887 c -1.21158,0 -2.41077,2.2763 -1.90272,3.61167 0.31987,0.84071 1.94829,1.02485 3.56722,0.40359 1.82077,-0.69869 0.94645,-3.34297 -0.94309,-3.90467 -0.0738,-0.0245 -0.14816,-0.0421 -0.22221,-0.0563 -0.0336,-0.007 -0.0662,-0.0142 -0.10025,-0.0196 -0.0193,-0.002 -0.0386,-0.003 -0.0579,-0.004 -0.11174,-0.0152 -0.22402,-0.0295 -0.34107,-0.0295 z m 0.45992,1.25625 c 0.24662,0 0.47085,0.0988 0.63924,0.25529 0.0795,0.16664 0.14866,0.35401 0.19275,0.58136 0.0406,0.20935 0.0306,0.38418 -0.0171,0.53123 -0.17732,0.26522 -0.52638,0.45811 -0.94361,0.50333 -0.45714,-0.0639 -0.81339,-0.45461 -0.81339,-0.92863 0,-0.51819 0.42387,-0.94258 0.94206,-0.94258 z m -127.506941,1.25626 c -2.456183,0 -3.725884,2.61844 -2.072225,4.27209 1.043223,1.04316 2.736901,0.94091 3.912423,-0.23461 1.775375,-1.77537 0.743945,-4.03748 -1.840198,-4.03748 z m 16.243969,1.28209 c -0.739018,-0.0144 -2.011145,0.53034 -2.8267,1.20975 -1.885603,1.57133 -0.879144,1.58124 1.971456,0.0207 1.785559,-0.97756 1.946582,-1.20904 0.855244,-1.23042 z m -16.378846,0.092 c 0.368403,0.0551 0.701908,0.16926 0.950847,0.31057 0.07878,0.12682 0.126092,0.28127 0.126092,0.46715 0,0.2465 -0.100441,0.45897 -0.269751,0.62477 -0.235881,0.11196 -0.51385,0.20633 -0.829407,0.25115 -0.354275,0.0503 -0.636149,0.0468 -0.853694,-0.0109 -0.172652,-0.0809 -0.287359,-0.19658 -0.346234,-0.33021 -0.02328,-0.0771 -0.03521,-0.15513 -0.04651,-0.23409 0.0052,-0.4207 0.445993,-0.90871 1.268656,-1.07849 z m 19.195211,3.92947 c -1.66597,-0.0125 -4.900139,1.29222 -6.343282,2.7125 -0.26951,0.19067 -0.468704,0.36182 -0.468704,0.47594 0,0.0128 0.0054,0.0201 0.0062,0.032 -1.048054,1.24822 -0.305162,1.07051 3.134175,-0.67231 1.704343,-0.86368 3.589605,-1.57045 4.188375,-1.57045 0.822415,0 0.910138,-0.17767 0.362768,-0.72502 -0.171463,-0.17148 -0.479526,-0.24968 -0.879533,-0.2527 z m 77.041297,2.23397 c -0.0553,0 -0.10511,0.007 -0.15969,0.008 -5.71835,0.0834 -7.58921,3.17267 -3.23391,5.51439 0.56125,0.30178 1.33819,0.47519 2.19367,0.54209 0.97586,0.21325 1.84072,0.15913 2.90473,-0.1633 1.25388,-0.22527 2.39343,-0.63605 3.03134,-1.21336 1.54313,-1.39644 1.53976,-1.86625 -0.0253,-3.43132 -0.91812,-0.9181 -2.03843,-1.23495 -4.43487,-1.25264 -0.0249,-1.9e-4 -0.0472,-0.003 -0.0724,-0.003 -0.0128,0 -0.0244,0.001 -0.0372,0.001 -0.0341,-1.3e-4 -0.062,-0.001 -0.0966,-0.001 -0.0115,0 -0.0216,0.001 -0.0331,0.001 -0.0124,-6e-5 -0.0247,-0.001 -0.0372,-0.001 z m -74.353088,0.0543 c -0.07933,9e-5 -0.160925,0.003 -0.24443,0.009 -2.004123,0.15009 -5.18828,2.06587 -8.395869,5.19555 -0.02045,0.02 -0.03751,0.039 -0.05788,0.0589 -1.387911,1.18134 -2.528107,2.36065 -3.028757,3.27215 -0.561972,0.69609 -0.914153,1.22445 -0.914153,1.42885 0,0.47174 1.767747,-0.83978 3.92844,-2.91455 3.186377,-3.05972 5.610442,-4.8335 7.580416,-5.51801 0.136842,-0.0409 0.270676,-0.0798 0.393774,-0.10438 0.234796,-0.0469 0.415565,-0.10062 0.597381,-0.15452 0.269656,-0.0458 0.531905,-0.0713 0.784964,-0.0713 1.077473,0 1.2389,-0.17444 0.679545,-0.73381 -0.31731,-0.3173 -0.768128,-0.46876 -1.323433,-0.46818 z m 74.352568,1.20148 5.3e-4,5.3e-4 c 2.10552,0 3.42615,0.34026 3.89123,0.98753 0.14842,0.31018 0.15092,0.67931 0.001,1.10433 -0.17965,0.28036 -0.46542,0.53742 -0.80357,0.66714 -1.12726,0.43263 -4.98581,0.42181 -6.25439,0.002 -0.24551,-0.1506 -0.45356,-0.2977 -0.6134,-0.43925 -0.0333,-0.0538 -0.07,-0.10521 -0.093,-0.16536 -0.12828,-0.33431 -0.15984,-0.6341 -0.10801,-0.89969 0.0849,-0.24115 0.24204,-0.467 0.47698,-0.64492 0.016,-0.0111 0.029,-0.0222 0.0455,-0.0331 0.10912,-0.0766 0.22993,-0.14495 0.36794,-0.19792 0.54647,-0.20962 1.93661,-0.38137 3.08922,-0.38137 z m -63.358924,6.49004 c -0.01786,-0.002 -0.03905,-1.5e-4 -0.06305,0.006 -0.719738,0.18956 -4.10001,4.10663 -4.10001,4.83227 0,0.33344 0.212193,0.59612 0.471292,0.58187 0.616826,-0.0312 4.087066,-5.04881 3.735171,-5.4007 -0.01127,-0.0112 -0.02553,-0.0175 -0.04341,-0.0196 z m 1.947685,1.048 c -0.724987,0 -2.341975,2.40547 -2.341975,3.48403 0,0.69132 0.639284,0.14831 1.884122,-1.59991 0.999177,-1.40324 1.116229,-1.88412 0.457853,-1.88412 z M 57.530378,227.8745 c -0.488609,-0.014 -0.994722,0.16481 -1.418003,0.58808 -1.189312,1.18935 -1.22673,1.65991 -0.208772,2.67787 0.128135,0.12813 0.269208,0.2323 0.414962,0.32039 0.348459,0.34994 0.84487,0.4518 1.358056,0.30903 0.138689,0.001 0.259424,-0.0301 0.371554,-0.0837 0.683602,-0.19855 1.245471,-0.72747 1.355474,-1.50016 0.05945,-0.41753 -0.0037,-0.79652 -0.144695,-1.12397 -0.0039,-0.009 -0.0069,-0.018 -0.01085,-0.0269 -0.31083,-0.69279 -0.991971,-1.13986 -1.717726,-1.16065 z m -11.812715,2.3027 c -0.200493,0.0112 -0.404582,0.0477 -0.610817,0.11317 -1.265832,0.40174 -1.797055,2.74481 -0.839224,3.70262 0.35935,0.35934 0.965415,0.4575 1.591117,0.37155 0.05589,0.01 0.110048,0.0181 0.159679,0.0181 0.07351,0 0.147259,-0.007 0.22066,-0.0191 0.0734,-0.013 0.146113,-0.0332 0.218591,-0.0579 0.187065,-0.0639 0.36572,-0.17417 0.536919,-0.30282 0.425264,-0.21917 0.777184,-0.51717 0.962215,-0.86506 0.160867,-0.17675 0.259932,-0.37377 0.259932,-0.58395 0,-0.16607 -0.05086,-0.32876 -0.132808,-0.48576 -0.003,-0.0194 -0.0063,-0.0386 -0.0098,-0.0579 -0.0031,-0.15592 -0.02863,-0.30696 -0.08217,-0.44649 -0.03675,-0.0958 -0.101663,-0.18603 -0.180351,-0.27336 -0.414517,-0.71038 -1.209262,-1.16206 -2.093928,-1.1126 z m 50.120455,0.66869 c -0.612701,0.02 -1.240769,0.23658 -1.68207,0.68472 -0.95408,0.96874 -0.942203,1.10823 0.157096,1.92339 0.005,0.003 0.01093,0.006 0.01601,0.0104 0.0551,0.053 0.121888,0.0961 0.199988,0.12867 1.35595,0.78139 3.308326,0.0185 3.308326,-1.38854 0,-0.88166 -0.978201,-1.39138 -1.999361,-1.35806 z m -0.05168,1.04335 v 0.001 c 0.450342,0.0493 0.672978,0.29766 0.481108,0.60823 -0.205568,0.33261 -0.47221,0.60069 -0.60978,0.62064 -0.009,2.6e-4 -0.01796,0.003 -0.02687,0.003 -0.134778,-0.01 -0.409919,-0.28485 -0.619598,-0.62425 -0.0948,-0.15346 -0.08677,-0.29315 -0.0052,-0.40256 0.194361,-0.11203 0.470956,-0.18115 0.780315,-0.20619 z m -32.669323,6.97994 c -0.55875,0.0164 -1.144813,0.16862 -1.669664,0.50074 -0.747228,0.47292 -0.760532,0.73958 -0.07958,1.56011 0.971997,1.17117 2.633188,1.28547 3.666958,0.25167 1.190376,-1.19032 -0.241446,-2.36171 -1.917714,-2.31252 z m 77.891365,18.80763 c -0.0633,0.002 -0.14296,0.0499 -0.24184,0.14883 -0.22629,0.22631 -0.91949,1.5447 -1.53996,2.93057 -1.29483,2.8921 -0.45112,3.45815 0.99271,0.66611 0.83124,-1.60747 1.23177,-3.76188 0.78909,-3.74551 z m -4.85603,1.20252 c -0.34547,0 -0.62787,0.43719 -0.62787,0.97255 0,0.53535 -0.43102,1.80745 -0.95808,2.8267 -0.59409,1.14884 -0.70142,1.85363 -0.28215,1.85363 0.37196,0 1.08537,-0.98065 1.58595,-2.17868 1.07018,-2.5613 1.14446,-3.4742 0.28215,-3.4742 z"
     style="fill:#1a1a1a;stroke-width:0.62811393" />
  <text
     id="text821"
     y="80.819672"
     x="20.454828"
     style="font-style:normal;font-weight:normal;font-size:10.58333302px;line-height:1.25;font-family:sans-serif;letter-spacing:0px;word-spacing:0px;fill:none;fill-opacity:1;stroke:#000000;stroke-width:2.64583325;stroke-miterlimit:4;stroke-dasharray:none;stroke-opacity:1"
     xml:space="preserve"><tspan
       style="font-style:normal;font-variant:normal;font-weight:normal;font-stretch:normal;font-size:77.6111145px;font-family:'Berlin Sans FB Demi';-inkscape-font-specification:'Berlin Sans FB Demi';fill:none;stroke:#000000;stroke-width:2.64583325;stroke-miterlimit:4;stroke-dasharray:none;stroke-opacity:1"
       y="80.819672"
       x="20.454828"
       id="tspan819">Dd</tspan></text>
  <text
     id="text825"
     y="53.641323"
     x="130.7926"
     style="font-style:normal;font-weight:normal;font-size:10.58333302px;line-height:1.25;font-family:sans-serif;text-align:start;letter-spacing:0px;word-spacing:0px;text-anchor:start;fill:#000000;fill-opacity:1;stroke:none;stroke-width:0.26458332"
     xml:space="preserve"><tspan
       style="font-style:normal;font-variant:normal;font-weight:normal;font-stretch:normal;font-size:19.7555542px;font-family:Forte;-inkscape-font-specification:Forte;text-align:start;text-anchor:start;stroke-width:0.26458332"
       y="53.641323"
       x="130.7926"
       id="tspan823">is for</tspan><tspan
       id="tspan827"
       style="font-style:normal;font-variant:normal;font-weight:normal;font-stretch:normal;font-size:19.7555542px;font-family:'Nirmala UI';-inkscape-font-specification:'Nirmala UI';text-align:start;text-anchor:start;stroke-width:0.26458332"
       y="78.670502"
       x="130.7926">Donut</tspan></text>
</svg>
