<?xml version="1.0" encoding="UTF-8" standalone="no"?>
<svg
   xmlns:dc="http://purl.org/dc/elements/1.1/"
   xmlns:cc="http://creativecommons.org/ns#"
   xmlns:rdf="http://www.w3.org/1999/02/22-rdf-syntax-ns#"
   xmlns:svg="http://www.w3.org/2000/svg"
   xmlns="http://www.w3.org/2000/svg"
   id="svg2037"
   version="1.1"
   viewBox="0 0 210 297"
   height="297mm"
   width="210mm">
  <title
     id="title2620">D is for Donut</title>
  <defs
     id="defs2031" />
  <metadata
     id="metadata2034">
    <rdf:RDF>
      <cc:Work
         rdf:about="">
        <dc:format>image/svg+xml</dc:format>
        <dc:type
           rdf:resource="http://purl.org/dc/dcmitype/StillImage" />
        <dc:title>D is for Donut</dc:title>
        <dc:subject>
          <rdf:Bag>
            <rdf:li>csk</rdf:li>
            <rdf:li>letters</rdf:li>
            <rdf:li>d</rdf:li>
          </rdf:Bag>
        </dc:subject>
        <dc:date>2020-04-10</dc:date>
        <dc:creator>
          <cc:Agent>
            <dc:title>Lena London</dc:title>
          </cc:Agent>
        </dc:creator>
        <dc:source>http://www.supercoloring.com/coloring-pages/letter-d-is-for-donut</dc:source>
      </cc:Work>
    </rdf:RDF>
  </metadata>
  <g
     id="layer1">
    <path
       id="path2607"
       transform="scale(0.26458333)"
       d="m 405.5293,62.087891 c -1.25375,0 -7.5376,1.12901 -13.9668,2.507812 -6.35588,1.363117 -20.29853,3.199832 -31.18164,4.117188 l -19.08789,1.214843 v 0.371094 l -1.1875,0.09766 0.50586,27.894532 c 0.1799,9.92114 0.17241,18.26689 0.0371,23.21484 -0.13342,1.79871 -0.27261,3.53102 -0.43555,4.64648 -0.56568,-0.0474 -5.32192,-1.60037 -10.78906,-3.52929 -31.77369,-11.21041 -65.42055,6.37163 -78.35547,40.94336 -19.55611,52.26836 -4.30706,114.97906 31.96875,131.45703 h 0.006 c 13.40752,6.09023 38.84354,5.98376 50.99805,-0.2168 5.61168,-2.86292 7.94907,-3.7356 9.26953,-2.92187 0.0824,0.10068 0.17667,0.18402 0.25,0.30273 0.0949,0.15356 0.27087,0.29259 0.49023,0.42969 0.19011,0.29956 0.36621,0.64738 0.5293,1.07226 1.13662,2.96228 6.48893,3.45087 31.68164,2.89844 l 30.31445,-0.66406 0.61719,-116.91797 C 407.58061,105.44611 406.96367,62.087891 405.5293,62.087891 Z M 97.435547,67.232422 c -3.029597,0.01184 -6.032912,0.04179 -8.970703,0.08984 l -42.732422,0.701172 -0.0039,0.83789 -1.183594,-0.01367 V 180.21094 c 0,28.26168 0.182277,53.67742 0.458984,73.64453 0.08145,23.49113 0.29475,39.40986 0.63086,40.28711 0.137272,0.35788 0.572227,0.67183 1.285156,0.95508 v 0.01 h 0.01758 c 3.74682,1.47327 15.930967,1.97359 43.232422,1.92774 29.08602,-0.0491 49.5567,-0.87925 65.36914,-3.36524 l 9.15625,-0.12109 6.98242,-3.45313 c 14.1957,-4.32242 24.33486,-11.14145 35.56836,-21.76562 27.66209,-26.16122 38.32364,-70.19255 28.3711,-117.17774 -8.2069,-38.74427 -29.93092,-65.137805 -62.4961,-76.644528 l -8.68945,-4.111328 -6.88672,-0.08789 c -2.40816,-0.465751 -4.85558,-0.874534 -7.35742,-1.201172 -7.83413,-1.022755 -25.41432,-1.73199 -43.63086,-1.859375 -3.03609,-0.02122 -6.0915,-0.02746 -9.121095,-0.01563 z m 300.740233,4.058594 0.63867,108.117184 0.64063,108.35547 -24.92774,-0.66797 c -23.80853,-0.63843 -24.95669,-0.90793 -25.68164,-6.00976 -0.3685,-2.59549 -0.94055,-4.17797 -1.83203,-4.7793 -0.33297,-0.2767 -0.70697,-0.35027 -1.12109,-0.25 -1.38478,0.15538 -3.31037,1.73159 -6.01367,4.76563 -2.48739,2.79157 -7.95666,6.5303 -12.15821,8.30859 -4.20155,1.77837 -12.7483,3.14992 -18.99218,3.04687 -23.52463,-0.3885 -37.38476,-9.6354 -48.60157,-32.41992 -7.67534,-15.5913 -7.85937,-16.67861 -7.85937,-46.87109 0,-23.67308 1.00542,-33.78717 4.28515,-43.1875 4.684,-13.4252 19.75563,-32.21233 30.16211,-37.59375 4.41956,-2.28542 9.28022,-3.7726 14.27539,-4.54297 2.34718,-0.13414 4.9975,-0.19141 8.24415,-0.19141 2.89394,0 5.27399,0.0543 7.4414,0.15821 8.19619,1.23116 15.93781,4.3944 21.88477,9.39843 3.83852,3.22989 7.62552,5.875 8.41601,5.875 0.18709,0 0.36887,-0.88611 0.53321,-2.38867 0.44065,-0.0813 0.62082,-4.12591 0.57421,-10.33008 0.19654,-5.62636 0.33008,-12.44458 0.33008,-20.16406 V 77.810547 c 0.23396,-0.305651 0.4995,-0.57624 0.7793,-0.833985 L 368,75.542969 c 10.77196,-0.820018 21.9672,-2.165228 24.87891,-2.990235 l 3.58593,-1.015625 z M 51.667969,76.332031 h 50.789061 c 44.26224,0 52.7307,0.612121 65.87891,4.765625 32.84589,10.375971 53.26114,36.232004 60.5957,76.746094 10.87277,60.05828 -13.42705,110.53949 -60.15625,124.97266 -13.53079,4.17923 -22.06348,4.79882 -66.31836,4.79882 H 53.082031 c -0.791954,-6.48878 -1.414062,-52.50586 -1.414062,-107.22265 z m 56.974611,14.244141 v 1.820312 89.298826 0.27735 0.34375 88.68164 3.05859 l 15.36523,-1.43164 c 19.68953,-1.83862 28.40107,-6.47199 36.65821,-19.49219 9.54394,-15.04916 12.39285,-31.37279 11.68945,-68.55469 0.009,-5.7927 -0.13788,-11.32616 -0.44531,-16.59374 -0.88713,-24.28108 -2.13029,-32.14539 -6.15235,-42.54102 -9.00588,-23.27709 -25.58364,-34.867188 -49.85937,-34.867188 z m 7.12304,9.494138 h 9.14258 c 21.68245,0 34.82812,18.91646 38.93946,55.41407 0.43132,8.20141 0.58398,18.27291 0.58398,31.23632 0,9.39581 -0.0127,16.49292 -0.0937,22.37696 -1.10527,16.06361 -3.14615,26.64373 -6.89453,34.55664 -0.44911,0.89869 -0.90259,1.7869 -1.36328,2.6289 -0.003,0.006 -0.005,0.0135 -0.008,0.0195 -0.0246,0.0434 -0.0495,0.0856 -0.0742,0.12891 -0.27443,0.4988 -0.55817,0.95972 -0.83594,1.4375 -2.09485,3.31851 -4.60901,6.16121 -7.63086,8.81445 -6.76822,5.94251 -10.24269,7.19141 -19.98047,7.19141 H 115.7655 v -81.88281 z m 406.58594,26.11524 c -0.76864,3.1e-4 -1.58038,0.1903 -2.4082,0.46289 -2.35072,0.53326 -4.69819,1.60055 -6.36719,3.26953 -2.05183,2.05178 -3.73242,5.12407 -3.73242,6.83008 0,1.706 -2.38872,4.68627 -5.30859,6.625 -3.54463,2.35353 -4.47435,3.54792 -3.43555,5.49804 -0.15761,0.34984 -0.003,0.58078 0.43164,0.72461 0.23055,0.33079 0.50109,0.68178 0.82031,1.06641 2.5951,3.12647 2.45126,6.78135 -0.83984,21.57422 -1.1026,4.94805 -1.89475,9.76364 -2.28906,13.52539 -0.73425,3.48696 -1.24805,5.99506 -1.24805,6.17969 0,0.21664 0.48898,0.40788 1.21484,0.53906 0.042,0.1341 0.0674,0.32864 0.1211,0.41601 3.07608,4.97704 7.60138,-4.27248 10.77539,-22.0332 2.46467,-13.79108 3.90907,-16.98312 8.48437,-18.72266 6.47981,-2.46363 7.08422,-5.85098 1.58985,-8.92578 -2.61498,-1.46338 -3.2074,-3.97615 -2.34571,-6.10546 1.12305,-1.44823 2.7874,-2.7626 4.89649,-3.6875 0.4162,-0.0689 0.84771,-0.11524 1.30273,-0.11524 2.70395,0 4.82227,-1.56389 4.82227,-3.56055 0,-2.22949 -2.29433,-3.37563 -5.22071,-3.48632 -0.008,-0.002 -0.016,-0.004 -0.0273,-0.006 -0.22413,-0.0446 -0.4527,-0.0684 -0.68945,-0.0684 -0.0809,0 -0.17233,0.0224 -0.25586,0.0273 -0.10588,-0.003 -0.18063,-0.027 -0.28906,-0.0273 z M 447.25,128.55859 c -1.26505,0 -2.36301,0.34309 -3.26953,0.87696 -0.17273,0.0762 -0.34528,0.14876 -0.51563,0.2539 -0.8657,0.53514 -1.32412,1.09637 -1.41796,1.76172 -0.66244,1.30424 -0.69836,2.87121 0.21874,4.35547 1.26894,2.05313 3.43021,2.15583 5.1875,0.94531 0.50529,-0.1528 1.00721,-0.46036 1.51563,-0.96875 0.41495,-0.41506 0.688,-0.8694 0.84961,-1.33593 0.2589,-0.44349 0.32324,-0.97481 0.14258,-1.54883 0.034,-0.13236 0.0907,-0.24384 0.11718,-0.38086 0.4441,-2.28987 -0.74809,-3.95899 -2.82812,-3.95899 z m 132.55078,14.13282 c -1.79223,0.0931 -3.56844,0.9047 -4.68164,2.54101 -1.21485,0.0827 -2.28967,0.0935 -3.38086,0.11133 -0.1251,-0.1739 -0.23912,-0.27587 -0.36914,-0.48633 -1.2946,-2.09465 -2.7412,-2.39007 -4.19141,-0.84961 -2.91571,3.09714 -9.95125,34.70125 -8.31445,37.34961 2.46267,3.98471 6.57237,0.19931 8.53516,-7.85547 4.00958,-16.45339 6.87054,-21.20312 12.76562,-21.20312 4.06428,0 5.64844,-1.33078 5.64844,-4.74805 0,-2.9164 -2.52579,-4.68822 -5.24414,-4.85547 h -0.002 c -0.25484,-0.0157 -0.5096,-0.0172 -0.76563,-0.004 z m -38.09766,0.0703 c -11.98155,-0.20001 -25.25901,15.84801 -19.77148,30.28125 1.35073,3.55272 3.72108,7.26807 5.27148,8.25391 1.52739,0.97117 3.7973,1.49064 6.25977,1.63671 0.65284,0.0744 1.31352,0.0824 1.97656,0.0547 0.003,7.6e-4 0.0415,0.0191 0.0449,0.0195 0.008,0.002 0.0507,-0.0199 0.0605,-0.0195 0.22753,-0.0113 0.45362,-0.0239 0.68164,-0.0469 3.62219,-0.20043 7.27328,-1.1621 9.43555,-2.82227 9.50835,-7.30025 12.41532,-25.182 5.36133,-32.97656 -2.71106,-2.99567 -5.96549,-4.32488 -9.32032,-4.38086 z m -97.81445,0.18359 v 0.002 c -0.66705,-0.0773 -1.47303,0.16812 -2.4082,0.74609 -2.88061,1.78036 -8.57279,31.13649 -6.88867,35.52539 0.34771,0.90672 1.66512,1.64872 3.60742,2.2207 0.63931,0.46366 1.3157,0.83431 2.00195,1.12696 0.7697,0.34189 1.52212,0.59375 2.13867,0.59375 0.0302,0 0.0514,-0.009 0.082,-0.01 0.0151,2.1e-4 0.0342,0.01 0.0508,0.01 0.27326,0 0.52536,-0.037 0.76562,-0.0977 0.67544,-0.082 1.26956,-0.2356 1.76563,-0.47266 2.89016,0.26502 6.06542,0.30325 9.22265,0.20899 1.70744,0.54295 3.8818,0.50342 6.17578,0.041 1.55048,-0.0965 3.03761,-0.49245 4.4668,-1.15429 2.64174,-0.57628 4.72829,-1.34942 5.72461,-2.34571 1.70593,-1.70594 2.7663,-3.40801 3.19531,-5.17968 0.26419,-0.63827 0.44922,-1.27927 0.44922,-1.92383 0,-0.49262 -0.17709,-1.13669 -0.48633,-1.87305 -0.64607,-2.64223 -2.53351,-5.51938 -5.71289,-8.83789 -7.07762,-7.38752 -5.62116,-12.69981 2.89453,-10.5625 4.1573,1.04341 5.67578,0.44196 5.67579,-2.25391 0,-0.23051 -0.0609,-0.42271 -0.084,-0.63867 0.034,-0.0809 0.084,-0.15881 0.084,-0.24219 0,-0.5231 -0.19068,-0.99117 -0.51954,-1.40429 -2.84054,-6.14049 -17.4628,-3.68393 -21.33398,4.8125 -2.40057,5.2687 -1.83973,6.81701 5.03516,13.91015 4.17339,4.3058 5.89094,7.43752 5.2539,9.15821 -0.87643,0.70485 -2.26267,1.2146 -4.11328,1.49219 -1.26901,-0.0653 -2.80603,-0.31007 -4.63672,-0.76954 -3.18999,-0.80064 -5.80078,-0.46614 -5.80078,0.74219 0,1.20829 -1.98632,1.67787 -4.41406,1.04297 -0.89159,-0.23316 -1.55653,-0.48811 -2.08203,-0.84375 -0.0843,-0.054 -0.17297,-0.10131 -0.26367,-0.14844 -0.003,-0.002 -0.004,-0.002 -0.008,-0.004 -1.6317,-1.38431 -1.14161,-4.52664 1.01563,-14.80469 2.38477,-11.36169 2.03699,-17.73151 -0.85352,-18.06641 z m -119.36523,0.71094 c -5.20593,0.13554 -10.44507,3.23852 -15.03906,9.40234 -4.55167,6.10701 -5.05515,10.40426 -5.76758,48.90235 -0.0643,3.47604 -0.08,6.42763 -0.11133,9.52929 -0.0102,1.01378 -0.0341,2.09137 -0.0371,3.07422 -0.22953,34.45192 1.91224,45.65037 9.28711,53.56641 6.82835,7.32934 16.23223,6.8956 23.5957,-0.88477 2.1416,-1.92681 3.8664,-4.10957 5.26758,-6.84375 0.001,-0.002 0.004,-0.002 0.004,-0.004 4.85869,-8.01848 5.46915,-18.12807 5.49414,-52.54297 2.6e-4,-0.34571 0.008,-0.60511 0.008,-0.95508 0,-0.14918 -0.004,-0.21903 -0.004,-0.36719 8e-5,-0.30217 0.004,-0.51445 0.004,-0.82031 0,-34.13753 -0.64907,-41.54143 -4.20508,-48.04883 -5.16074,-9.44412 -11.80065,-14.18013 -18.49414,-14.00781 z m 215.5625,6.70313 -0.002,0.002 c 0.0227,0.002 0.0347,0.006 0.0566,0.008 0.66388,0.20315 1.37428,0.54986 2.19727,1.06641 4.18424,2.62604 5.09324,11.95693 2.43555,18.14453 -0.12926,0.22639 -0.24912,0.46877 -0.38477,0.67578 -1.70022,2.59487 -4.14808,4.3968 -6.61328,5.25781 -0.28309,0.0861 -0.56672,0.19661 -0.84766,0.25977 -0.0839,0.0215 -0.16609,0.0277 -0.25,0.0469 -0.42221,0.0848 -0.83406,0.1212 -1.24414,0.15235 -0.20296,0.008 -0.41169,0.0465 -0.61132,0.043 -1.76489,-0.0295 -3.37177,-0.52607 -4.4043,-1.55859 -0.7547,-0.7549 -1.36194,-3.96748 -1.51758,-7.50781 0.34923,-4.38957 1.96617,-9.47496 4.53516,-12.60547 0.26192,-0.31918 0.49019,-0.57317 0.73242,-0.85352 1.84354,-1.77713 3.93602,-2.85725 5.91797,-3.13085 z m -215.20703,1.93945 c 9.2273,0 13.29209,7.93958 15.10547,32.36328 0.0975,6.04919 0.12109,13.56443 0.12109,23.42383 0,12.69914 -0.0532,21.47491 -0.24219,28.12695 -1.44125,12.7754 -4.22455,21.44526 -8.28125,25.50195 -0.63217,0.63217 -1.23599,1.14431 -1.83594,1.63672 -2.03026,1.33664 -4.15574,2.25264 -5.95312,2.4668 -0.16709,0.0197 -0.2991,0.0209 -0.45899,0.0371 -2.1634,-0.46988 -4.2764,-1.90026 -6.20312,-4.26172 -0.43266,-0.55864 -0.86526,-1.1038 -1.30274,-1.77148 -0.0411,-0.063 -0.0708,-0.13588 -0.11132,-0.19922 -1.58909,-2.67448 -2.84818,-10.25119 -3.75196,-20.05274 -0.26876,-7.1924 -0.34765,-17.09538 -0.34765,-31.38086 0,-26.6395 0.36157,-40.64682 2.43359,-48.00781 1.06376,-2.4398 2.15531,-4.43514 3.30664,-5.92578 1.85887,-1.53698 4.28908,-1.95703 7.52149,-1.95703 z M 438.625,209.27344 v 32.84179 c 0,5.65355 0.0984,10.82545 0.23633,15.625 l -0.3711,18.51563 1.70704,-0.0801 c 0.0699,0.22749 0.13717,0.53907 0.20898,0.61328 2.73861,2.81997 20.69442,0.92813 32.17383,-2.58789 0.0265,-0.005 0.0423,-0.0127 0.0684,-0.0176 2.44958,-0.47149 4.23314,-1.1782 5.89844,-2.28711 0.42935,-0.21864 0.87188,-0.43417 1.23437,-0.6582 8.56736,-5.29491 15.82031,-19.06711 15.82031,-30.04101 0,-10.15491 -6.47673,-22.10451 -14.69531,-27.11524 -5.96886,-3.63911 -11.99712,-4.79218 -25.07031,-4.79883 h -1.41406 c -0.13909,-7.8e-4 -0.27333,-0.01 -0.41211,-0.01 H 441 Z m 239.09375,5.05859 c -0.33411,0.008 -0.70024,0.0543 -1.10352,0.13086 -0.96094,0.18225 -1.83431,0.72325 -2.57812,1.53906 -0.37342,0.28169 -0.71834,0.65124 -1.03711,1.08399 -1.09149,0.92214 -1.72461,2.73713 -1.72461,5.24414 0,1.05578 -0.12145,1.97722 -0.33008,2.77734 -0.84518,2.17637 -2.29008,3.1582 -4.57617,3.1582 -6.08935,0 -5.95998,7.21061 0.1582,8.81055 4.19248,1.09625 4.7461,3.2344 4.7461,18.29102 0,10.44126 1.14923,18.20192 2.95898,20.01172 1.82151,1.81908 5.13928,2.48426 8.43946,2.32812 1.80559,0.42539 3.60017,0.17308 5.56835,-0.76953 0.99342,-0.38276 1.8645,-0.91372 2.54493,-1.60547 0.22299,-0.21195 0.40978,-0.43113 0.5664,-0.6582 0.0227,-0.0291 0.042,-0.0585 0.0606,-0.0879 0.0968,-0.14945 0.1797,-0.30216 0.25,-0.45508 0.16743,-0.30648 0.30385,-0.63329 0.4082,-0.97852 0.042,-0.12612 0.10629,-0.24456 0.13086,-0.375 0.004,-0.0268 0.004,-0.0477 0.008,-0.0742 0.004,-0.0272 0.0141,-0.0504 0.0254,-0.0781 0.48377,-2.54948 -0.47792,-4.12689 -2.35547,-3.87109 -0.17197,0.0234 -0.29363,0.0239 -0.45899,0.0449 -0.70768,-0.1155 -1.52965,-0.17578 -2.53515,-0.17578 -1.62868,0 -2.8149,-0.0461 -3.69141,-0.40235 -2.09764,-1.6054 -2.40449,-5.92995 -2.41602,-15.65429 9.5e-4,-0.65519 0.004,-1.22443 0.008,-1.82227 10e-4,-1.10029 0.0295,-1.79485 0.0371,-2.74023 0.18595,-8.95349 1.11312,-10.07526 5.26757,-10.66797 3.21631,-0.45886 5.21555,-2.05503 5.95313,-3.7793 0.37803,-0.4935 0.59961,-1.06939 0.59961,-1.73047 0,-1.85968 -1.59413,-3.09666 -4.28516,-3.44922 -0.0639,-0.01 -0.12444,-0.019 -0.18945,-0.0273 -0.27364,-0.0306 -0.56855,-0.044 -0.86328,-0.0566 -0.14476,-0.006 -0.27058,-0.0273 -0.42188,-0.0273 -0.38135,0 -0.69277,-0.0188 -1.02929,-0.0312 -1.6382,-0.067 -2.79977,-0.34843 -3.58399,-0.9375 -0.11754,-0.095 -0.2514,-0.17343 -0.35156,-0.28711 -0.0435,-0.0446 -0.0767,-0.10101 -0.11719,-0.14844 -0.814,-1.05561 -1.0293,-2.85076 -1.0293,-5.89258 0,-4.95778 -0.71167,-6.68889 -3.05078,-6.63477 z m -227.22461,4.4375 h 10.79102 c 15.0277,0 22.44531,7.46743 22.44531,22.59961 0,4.97376 -0.38992,8.86557 -1.33594,12.04102 -1.07025,2.7116 -2.51803,5.21043 -4.33398,7.35351 -1.62176,1.59322 -3.64001,2.97519 -6.1543,4.27539 -3.81358,1.97202 -10.18609,3.58399 -14.16797,3.58399 h -7.24414 v -24.92578 z m 136.25391,7.67774 c -1.17899,0.0492 -2.4985,0.26962 -4.0625,0.62304 -4.15688,0.93931 -11.02802,1.55847 -15.27149,1.37696 l -0.85351,-0.0371 c -0.29783,-0.0847 -0.60474,-0.14454 -0.92774,-0.14454 -0.0435,0 -0.0819,0.0118 -0.125,0.0137 -0.0264,-4.8e-4 -0.0496,-0.0137 -0.0742,-0.0137 -0.1799,0 -0.34747,0.0276 -0.50976,0.0742 l -5.22656,-0.22265 v 23.41992 c 0,12.88014 0.7505,24.16448 1.66601,25.08008 0.91563,0.91547 3.31768,1.35269 5.33984,0.96875 2.81764,-0.53498 3.95562,-5.0156 4.86524,-19.16797 0.79593,-12.3825 2.13066,-18.52741 5.33203,-21.21289 1.13273,-0.73451 2.38564,-1.20736 3.75977,-1.4043 1.54442,-0.22133 2.89133,-0.26202 4.09375,-0.13476 5.68066,1.35629 8.17968,9.03981 8.17968,24.82031 0,16.05257 0.42616,17.63281 4.74805,17.63281 3.64736,0 4.47675,-1.72169 4.66406,-12.9082 0.0302,-1.51009 0.084,-2.75542 0.084,-4.74414 0,-0.295 -0.0156,-0.56159 -0.0156,-0.85352 10e-4,-0.6984 0.0156,-1.02644 0.0156,-1.7793 0,-18.61356 -0.50192,-20.79298 -6.0918,-26.38281 -3.78202,-3.78202 -6.05277,-5.15147 -9.58984,-5.0039 z m -58.6875,0.24023 c -2.7788,-0.0245 -5.7428,0.40709 -8.84961,1.33789 -12.0003,3.59538 -17.74987,12.18252 -17.43946,26.0625 0.17915,8.01021 1.37725,11.24555 6.33399,15.98633 1.94502,2.50651 4.39263,4.50168 7.33594,5.68945 0.65624,0.26483 1.28582,0.44201 1.92773,0.65821 14.41172,6.24254 30.15063,-2.24083 32.14648,-19.94727 1.94208,-17.23059 -6.78043,-28.98781 -20.27539,-29.74805 -0.38928,-0.0219 -0.78271,-0.0356 -1.17968,-0.0391 z m 83.27148,1.57812 1.07617,20.54102 c 0.9343,17.79948 1.80128,21.12419 6.4961,24.92578 0.96861,0.78436 2.02242,1.42351 3.10937,1.99414 2.27547,1.41779 4.77302,2.15154 7.36328,2.19727 0.003,4e-5 0.004,-5e-5 0.008,0 3.79222,0.3377 7.70238,-0.39866 11.18359,-2.26172 3.16532,-1.69402 4.58984,-1.69402 4.58984,0 0,1.3516 2.13666,2.45703 4.74805,2.45703 4.4465,0 4.74805,-1.58169 4.74805,-24.92578 0,-0.25795 -0.004,-0.35476 -0.004,-0.60742 8e-5,-0.24083 0.004,-0.33416 0.004,-0.58008 0,-19.17589 -0.23928,-22.93543 -3.17578,-23.60156 -0.0302,-0.007 -0.0565,-0.0213 -0.0879,-0.0274 -10e-4,-2.8e-4 -0.003,2.7e-4 -0.004,0 -0.43272,-0.0865 -0.92463,-0.11133 -1.47852,-0.11133 -0.53646,0 -1.01055,0.0241 -1.43359,0.0977 -0.0692,0.0121 -0.11903,0.0458 -0.18555,0.0606 -1.91233,0.41527 -2.6798,1.98582 -2.96289,7.00586 -0.27326,2.64363 -0.47482,6.13315 -0.6582,10.99804 -0.24,6.368 -0.44972,10.53497 -0.91797,13.47461 -0.33865,1.26393 -0.71698,2.4187 -1.13477,3.47657 -2.01263,4.13952 -5.36859,5.45409 -10.6289,4.85547 l -5.04883,-0.57618 c -0.17272,-0.20334 -0.34733,-0.40475 -0.5332,-0.6289 -0.56364,-0.76371 -1.07674,-1.67483 -1.53516,-2.75 L 624.2911,247.8516 c -0.66014,-18.74912 -0.81847,-19.54157 -6.36719,-19.57226 -0.0265,-4.8e-4 -0.0414,-0.0137 -0.0644,-0.0137 -0.0151,0 -0.0306,0.01 -0.0469,0.01 -0.0639,-2.4e-4 -0.11077,-0.006 -0.17578,-0.006 -0.0113,-2.6e-4 -0.0258,-0.004 -0.0371,-0.004 -0.008,0 -0.016,0.004 -0.0273,0.004 -0.042,-4e-5 -0.0694,-0.004 -0.11133,-0.004 z m -85.22461,7.33594 h 0.002 c 0.64535,-0.034 1.28067,0.007 1.91015,0.0918 0.49036,0.0744 0.97,0.18423 1.45117,0.29297 0.003,6.6e-4 0.004,-6.9e-4 0.008,0 2.20467,0.62991 4.33964,2.00953 6.47851,4.14844 1.34933,1.34931 2.39621,2.95968 3.15235,4.72461 0.83512,2.35522 1.29936,4.99537 1.42382,7.60546 -0.0831,3.77367 -1.24396,7.62838 -3.52343,10.88282 -4.38864,6.26563 -15.52328,7.08019 -21.06055,1.54296 -5.79715,-5.79717 -4.8704,-21.31453 1.54297,-25.80664 3.10677,-2.17605 5.93615,-3.34098 8.61523,-3.48242 z m -57.18554,144.96875 c -10.93429,0.0227 -21.93501,0.56207 -32.95313,1.55469 C 323.8208,391.5183 221.25881,446.09838 140.7793,539.60938 48.826067,646.45182 18.264747,762.83282 54.087891,869.75781 c 12.726327,37.9855 32.456913,71.08854 58.148439,98.59961 3.4617,3.89053 6.87043,7.50387 10.08398,10.50977 4.95508,4.63487 10.08123,9.05504 15.36719,13.28906 45.97437,37.66015 105.87753,60.97035 175.85938,66.99605 72.85593,6.2733 153.69913,-10.7012 222.21093,-46.6503 78.20447,-41.03506 129.22723,-92.03512 165.88672,-165.81645 41.09273,-82.70363 60.92723,-185.51268 49.25586,-255.3125 -21.89707,-130.95406 -126.69895,-210.03883 -276.95312,-210.7461 -1.67524,-0.0227 -3.34698,-0.0593 -5.02539,-0.0566 z m 0.2539,5.73242 c 24.33275,-0.0692 48.4313,1.27499 63.54688,4.05665 47.51338,8.74374 83.79916,23.25743 95.1289,38.05273 23.14322,30.22239 24.26072,36.16622 31.15681,40.37109 4.15581,2.53399 9.68827,4.791 13.99108,4.79576 6.82891,1.20947 25.19152,21.9911 25.90652,25.9163 0.28239,1.55027 7.78609,19.9136 13.11942,35.67662 3.02472,8.9396 5.38311,16.04902 7.30273,22.10742 2.32952,8.06853 4.41275,15.62332 5.84376,21.63867 1.21186,6.36401 1.56197,11.65754 1.60351,18.5 0.14287,23.57639 -5.22362,39.10328 -23.44336,67.84375 -17.35449,27.37561 -19.05949,31.96857 -23.74414,63.84375 -6.77809,46.12018 -14.46363,54.64224 -49.26367,54.66015 -16.7859,0.008 -21.47824,0.8069 -24.46289,4.16407 -11.23956,12.64255 -41.96419,53.9549 -43.88672,59.01172 -2.48568,6.53771 -0.73874,15.87011 6.86133,36.66601 5.26019,14.39331 4.32874,25.51273 -3.0918,36.83789 -8.9596,13.67392 -29.78313,19.69983 -37.73242,10.91602 -2.16578,-2.39324 -5.64202,-9.35673 -7.72461,-15.46875 -4.46563,-13.10597 -21.67889,-29.02165 -28.73047,-26.56836 -2.34595,0.81615 -8.53898,7.489 -13.76172,14.82812 -32.15081,45.17878 -53.61704,55.61438 -121.45703,59.04883 -15.45645,0.78248 -31.84223,2.53121 -36.41211,3.88477 -4.56997,1.3536 -20.59399,9.68849 -35.60937,18.52344 -15.01539,8.83483 -32.41253,17.77882 -38.66016,19.87692 -21.60648,7.2563 -62.43969,2.7574 -92.60352,-10.20505 -14.60706,-6.27704 -44.01308,-35.60081 -60.462886,-60.29492 -55.106316,-82.72449 -62.52498,-180.53413 -21.109375,-278.25 20.569557,-48.53193 54.838561,-97.3786 99.974611,-142.49414 67.49527,-67.46446 142.86711,-107.46294 232.74804,-123.51758 16.0701,-2.87051 40.63991,-4.3526 64.97266,-4.42188 z m 164.03125,38.86719 v 0.002 c 0.0302,-0.003 0.0831,0.0137 0.11524,0.0137 l 5.95507,3.76562 c 12.28147,7.76444 32.92147,24.06584 40.15821,31.71485 l 0.45312,0.47851 c 19.08477,17.67548 28.86133,35.39258 28.86133,35.39258 l -0.125,-0.0859 c 14.14463,19.54608 29.06067,57.05042 35.02734,88.50391 4.63023,24.41662 4.62313,76.63346 -0.0137,107.42187 -13.16594,87.35838 -49.22666,170.19442 -97.50586,227.19336 -11.62866,13.21206 -24.28022,25.66917 -37.83984,37.27735 -0.0265,0.0227 -0.0493,0.0456 -0.0742,0.0664 -63.74657,52.50983 -140.77812,85.54853 -221.33984,94.87113 -21.18864,1.7526 -45.27101,2.3681 -66.07813,1.6953 -4.12974,-0.1867 -8.0912,-0.4095 -11.55273,-0.7188 -20.72145,-1.8499 -61.68749,-10.7626 -81.33789,-17.6972 -13.34112,-4.7083 -40.48002,-16.9259 -54.07618,-23.9336 -3.70201,-2.2221 -6.45817,-4.0603 -7.2246,-4.9707 2.31516,0.3099 8.69257,1.752 16.22851,3.7128 9.16263,2.3841 17.13814,3.5282 27.0957,3.7559 8.21775,0.7479 15.52165,0.6262 22.62696,-0.4863 14.53666,-0.7389 18.84414,-3.66 71.94336,-32.49806 l 16.15039,-8.77344 c 1.39229,-0.4162 2.81947,-0.77328 4.27929,-1.09375 1.93499,-0.29858 4.54517,-0.5992 7.3711,-0.89453 l 24.42578,-1.24414 c 68.36708,-3.47675 89.97861,-12.88788 119.20898,-51.91211 6.91537,-9.23236 13.27406,-17.06608 16.17383,-20.03906 0.89647,-0.76868 1.55328,-1.18096 1.97852,-1.26562 5.19333,0.73319 18.38305,15.78885 20.48047,23.57812 5.39017,20.01729 19.36007,27.72064 36.94531,20.37305 11.73675,-4.90394 17.07783,-9.79776 22.68359,-20.78125 5.81409,-11.39241 5.71386,-27.12272 -0.25976,-41.0586 -1.09663,-2.55836 -2.00398,-4.75914 -2.84375,-6.875 -1.68015,-4.63154 -2.93128,-8.54205 -3.44922,-11.85742 -0.0435,-0.32504 -0.0917,-0.65324 -0.125,-0.95508 -0.034,-0.29215 -0.0532,-0.57469 -0.0781,-0.86132 -0.33864,-8.61124 4.81919,-15.69356 17.84571,-32.04493 10.41528,-13.07346 20.17366,-26.07921 21.68554,-28.90429 0.0302,-0.0571 0.0631,-0.0968 0.0937,-0.15235 1.14762,-1.54401 2.19995,-2.67848 3.45313,-3.52929 2.76555,-1.2519 7.62691,-1.45508 18.18554,-1.45508 9.90826,0 17.97328,-0.73934 24.62891,-2.65235 2.36735,-0.46628 4.10029,-1.12475 5.72266,-2.11132 15.32326,-7.04259 21.73275,-23.17769 26.76757,-56.56641 4.63261,-30.72219 6.19992,-34.7252 26.62305,-67.9082 10.49658,-17.05459 16.82468,-32.1934 19.05664,-48.30469 0.96677,-4.79093 1.48627,-9.28388 1.47852,-13.40039 -0.004,-3.18047 -0.46218,-7.3184 -1.22852,-12.0332 -1.78745,-16.97016 -7.24455,-36.12852 -16.35351,-59.99805 -4.46223,-11.69292 -11.46606,-28.82384 -12.17969,-30.59794 -3.56691,-8.86745 -18.58375,-28.48604 -28.69977,-28.49693 -12.51024,-0.0151 -22.82005,-13.83604 -37.88226,-37.40513 l -3.77344,-5.91211 c 0.034,-0.19049 0.12624,-0.32214 0.33789,-0.3418 z m -115.99023,9.62891 v 0.002 c -4.14422,0 -8.91464,2.95413 -12.42578,6.89063 -2.04284,1.78484 -3.37243,3.98465 -4.07618,6.36718 -10e-4,0.003 -0.004,0.002 -0.004,0.006 -0.61127,1.53665 -0.95508,3.07963 -0.95508,4.54102 0,3.66542 1.48294,7.16515 4.28516,10.2793 1.58033,1.95496 3.61174,3.65316 6.06836,4.92773 5.67666,3.41427 10.93477,3.0675 18.67578,-0.93555 16.85476,-8.71589 8.43014,-32.07812 -11.56836,-32.07812 z m -129.96094,2.37695 c -6.77499,0 -9.74029,5.69968 -5.57813,10.71484 3.66017,4.41015 8.07079,4.51187 11.5918,0.26954 3.98332,-4.7997 0.59759,-10.98438 -6.01367,-10.98438 z m 131.55664,2.7168 c 1.71069,0.0869 3.42265,1.00551 6.18945,2.81836 6.10647,4.00112 7.94368,11.54626 4.37305,16.52148 -0.0484,0.0446 -0.0817,0.0839 -0.13086,0.12891 -2.48319,2.24727 -6.66775,3.52791 -10.77148,3.77539 -3.76672,-0.23395 -7.55663,-1.48827 -9.77344,-3.70508 -5.3435,-5.3435 -3.61565,-13.11445 3.83984,-17.28516 2.71038,-1.51623 4.40938,-2.26636 6.07422,-2.24414 0.0654,-6.4e-4 0.13421,-0.008 0.19922,-0.008 z m 89.14453,18.87109 c -2.47563,0.16479 -5.04441,1.66746 -7.90234,4.52539 -5.71397,5.71397 -5.93683,9.11677 -1.05274,16.08985 0.008,0.0113 0.0237,0.0219 0.0312,0.0332 0.21544,0.32239 0.46148,0.62149 0.71875,0.91406 0.11074,0.12964 0.22697,0.25279 0.34375,0.37891 0.12889,0.13001 0.24069,0.2723 0.37891,0.39453 2.04888,2.05946 4.73717,3.55664 6.67187,3.55664 5.19292,0 9.13571,-3.69109 10.83204,-8.33594 0.002,-0.004 0.003,-0.0118 0.004,-0.0156 1.49284,-2.84727 1.54757,-5.94041 0.42188,-8.61133 -0.53428,-1.98017 -1.5193,-3.84938 -3.08399,-5.41406 -2.50072,-2.50069 -4.88761,-3.67677 -7.36328,-3.51172 z m -202.39258,2.15039 0.002,0.002 c -0.0801,0 -0.14405,0.0137 -0.22266,0.0137 -0.0748,-8.7e-4 -0.13302,-0.0117 -0.20898,-0.0117 -0.29027,0 -0.53623,0.0653 -0.81055,0.0898 -5.96814,0.46145 -8.18591,4.10522 -4.37305,7.91797 1.13371,1.13371 3.00514,1.47611 4.94336,1.23438 0.003,5.6e-4 0.002,-6.1e-4 0.006,0 1.06133,0.18935 1.94509,-0.0818 2.89844,-0.83594 2.12995,-0.90497 3.91341,-2.4082 4.26562,-4.25586 0.61501,-3.22723 -0.83244,-4.1543 -6.5,-4.1543 z m 201.45899,3.0293 v 0.004 c 2.95642,0.34582 6.36517,4.19566 6.72461,7.64648 -0.64112,2.99958 -2.73459,5.05501 -5.67578,5.47461 -0.81948,0.11716 -1.56948,0.11427 -2.25391,0.0156 -0.6522,-0.25927 -1.2795,-0.60567 -1.80859,-1.13476 -1.73609,-1.73605 -1.92039,-5.80351 -0.92188,-8.72656 0.11565,-0.17613 0.21877,-0.35295 0.34766,-0.5293 1.06144,-1.4516 2.31902,-2.33981 3.58789,-2.75 z m -340.12696,9.93555 c -2.86028,0.008 -5.38769,2.31859 -5.88281,6.62109 -0.57666,5.01128 0.25051,6.52 3.56055,6.49219 0.55729,-0.004 1.04917,-0.0718 1.5664,-0.11524 0.0687,2.3e-4 0.13967,-0.0117 0.20899,-0.0117 5.28841,-0.506 8.39066,-2.9919 7.95117,-6.23632 0.4026,-1.22793 -0.10168,-2.20072 -1.69531,-3.5293 -0.10968,-0.13984 -0.22733,-0.2582 -0.33985,-0.38867 -0.25103,-0.62869 -0.7627,-1.13091 -1.42382,-1.37696 -1.27801,-0.97855 -2.64571,-1.45453 -3.94532,-1.45117 z m 0.80274,3.6582 c 0.65289,0 1.24745,0.26513 1.67773,0.69531 0.43028,0.43023 0.69532,1.02681 0.69532,1.67969 -0.002,0.97723 -0.60122,1.82246 -1.45118,2.18359 -0.2838,0.12057 -0.59543,0.18555 -0.92187,0.18555 -0.3264,0 -0.63811,-0.065 -0.92188,-0.18555 -0.85128,-0.3617 -1.45312,-1.20435 -1.45312,-2.18359 v -0.004 c 0,-0.32466 0.0719,-0.63533 0.1914,-0.91797 5e-4,-10e-4 -5.2e-4,-0.004 0,-0.004 0.12004,-0.28271 0.29587,-0.53739 0.50977,-0.75195 0.43028,-0.4303 1.02099,-0.69532 1.67383,-0.69532 z m 32.74023,16.56641 c -5.27516,0.0797 -10.64473,1.69166 -13.74804,4.79492 -6.47679,6.47686 -5.95999,12.94772 1.50586,18.82031 14.23415,11.19655 32.94896,0.0768 29.1289,-12.89453 -0.36314,-1.71954 -1.18635,-3.23724 -2.29687,-4.57617 -0.42264,-0.58742 -0.87628,-1.17437 -1.4043,-1.75782 -2.72877,-3.01526 -7.91036,-4.46635 -13.18555,-4.38671 z m -0.43164,4.70703 c 2.99729,-0.0639 6.06189,0.70703 8.44727,2.3789 0.71463,0.59059 1.30322,1.12022 1.82226,1.62305 0.33997,0.38555 0.67126,0.78401 0.95118,1.22852 0.63971,1.01601 1.01632,1.93535 1.15429,2.82421 0.0276,0.30728 0.0352,0.60712 0.0371,0.9043 -0.18062,0.68553 -0.53113,1.41926 -1.04297,2.26172 -2.14455,3.52981 -7.81192,5.33652 -12.9414,5.20703 -0.0914,-0.004 -0.18209,-0.008 -0.27344,-0.0117 -0.41826,-0.0151 -0.83046,-0.0456 -1.23828,-0.0879 -0.73574,-0.0869 -1.46179,-0.21664 -2.16992,-0.375 -0.33343,-0.0809 -0.66297,-0.16748 -0.97852,-0.26953 -0.0995,-0.0302 -0.19256,-0.0627 -0.29101,-0.0918 -0.99563,-0.34885 -1.87806,-0.81218 -2.61133,-1.38281 -1.05885,-1.29891 -1.8086,-3.6223 -1.8086,-5.96289 0,-5.14711 5.33285,-8.12448 10.94336,-8.24414 z m 291.40039,3.0625 c -1.58993,0.0147 -3.12453,0.55473 -5.04492,1.66211 -1.80068,0.71455 -3.3309,1.91011 -4.4414,3.43164 -0.003,0.003 -0.008,0.004 -0.008,0.008 -5.39799,6.19185 -2.77558,15.65266 6.27344,18.67969 2.31371,0.77397 4.78953,0.29989 7.00195,-1.02344 1.63208,-0.41495 3.1499,-1.22216 4.39453,-2.4668 2.41792,-2.41791 3.14281,-6.11014 2.4668,-9.58984 0.39564,-5.27214 -0.72973,-7.1637 -5.30859,-9.25 -1.82041,-0.82942 -3.27784,-1.31344 -4.64649,-1.42774 l -0.002,0.002 c -0.23068,-0.0192 -0.45841,-0.0275 -0.68555,-0.0254 z m -0.85351,4.89453 c 0.99107,-0.0113 2.11312,0.21027 3.35156,0.68554 0.0711,0.0265 0.13043,0.0682 0.19922,0.0977 1.40413,1.19679 2.38867,3.09455 2.38867,5.5918 0,2.50632 -0.51066,4.16855 -1.66406,5.23437 -0.27893,0.17084 -0.58277,0.32146 -0.9043,0.44532 -1.21958,0.46775 -2.24497,0.73043 -3.16211,0.85742 -1.44805,-0.17613 -2.948,-0.91612 -4.30273,-2.27539 -0.42463,-1.10669 -0.64453,-2.56939 -0.64453,-4.51758 0,-1.73934 0.37251,-3.09558 1.01953,-4.11133 1.08393,-0.9798 2.22474,-1.62806 3.34375,-1.95703 0.12926,-0.008 0.24082,-0.0489 0.375,-0.0508 z m -74.08399,1.62695 c -2.66702,0 -12.9133,9.58542 -21.0039,18.70508 -1.185,1.31078 -2.34066,2.62824 -3.41797,3.94922 -0.31559,0.38222 -0.55255,0.71578 -0.85352,1.08984 -0.53873,0.68179 -1.07609,1.36103 -1.57226,2.03125 -1.61862,2.1309 -3.02362,4.11489 -3.79102,5.61914 -6.66168,13.05804 -1.82396,10.96232 7.33985,-3.17968 4.32699,-6.67775 12.49097,-15.07408 18.14257,-18.65821 9.15273,-5.80448 11.17931,-9.55664 5.15625,-9.55664 z m -24.83984,4.83985 c -2.72992,-0.50998 -19.76953,18.03216 -19.76953,21.7246 0,1.65419 4.80624,-2.22575 10.67773,-8.62109 5.87142,-6.39522 10.06063,-12.24244 9.31055,-12.99219 -0.0571,-0.0571 -0.13069,-0.0931 -0.21875,-0.10937 z m -20.22266,2.97851 c -0.077,-0.0123 -0.1645,-0.007 -0.26172,0.0176 -0.16781,0.042 -0.38182,0.17833 -0.60156,0.32422 -0.21845,0.10356 -0.44461,0.30723 -0.67773,0.5625 -0.49973,0.45879 -1.04131,1.02789 -1.64063,1.82031 -1.91701,2.53448 -3.45896,5.74046 -3.41406,7.12305 0.0419,1.38255 1.64357,0.43881 3.56055,-2.09571 1.28855,-1.70358 2.36094,-3.67423 2.9414,-5.22656 0.0786,-0.17121 0.1482,-0.32904 0.19922,-0.49023 0.10923,-0.33903 0.12797,-0.58602 0.16992,-0.85743 0.0265,-0.1765 0.10805,-0.40739 0.10352,-0.54882 -0.0113,-0.38886 -0.14781,-0.59191 -0.37891,-0.62891 z m -17.99218,6.42578 c -1.3259,0 -3.02744,1.602 -3.7793,3.56055 -0.7519,1.95855 -0.9932,3.56055 -0.54102,3.56055 0.45196,0 2.14809,-1.602 3.77344,-3.56055 1.70347,-2.05255 1.93631,-3.56055 0.54688,-3.56055 z M 214.1875,530.0332 c -7.01704,-0.0767 -17.06867,3.70714 -25.36328,10.02149 -3.08178,2.34606 -5.52523,4.6903 -7.33984,6.96875 -4.90936,5.71374 -5.54424,11.33683 -1.05665,14.53125 0.2699,0.2434 0.53641,0.48532 0.84766,0.71289 5.75155,4.20571 12.22403,3.82377 23.51367,-1.38672 10.54704,-4.86777 17.47758,-11.94045 19.33985,-18.26367 0.46422,-1.25333 0.72839,-2.4753 0.72265,-3.63867 0.0774,-1.60502 -0.26013,-3.16258 -1.15429,-4.60938 -0.27368,-0.44288 -0.78137,-0.81205 -1.49805,-1.10742 -0.001,-4.9e-4 -0.003,5.3e-4 -0.004,0 -0.61889,-0.65129 -1.31188,-1.27081 -2.17969,-1.81445 -1.48712,-0.93166 -3.48909,-1.38844 -5.82812,-1.41407 z m -0.91406,5.68946 c 9.00125,0.1576 9.05306,7.8323 -6.00391,16.65625 -5.42909,3.18164 -12.80102,5.30205 -18.1582,5.82226 -2.71174,0.10696 -4.87616,-0.25477 -6.00781,-1.17773 -0.28937,-0.83244 -0.41551,-1.68681 -0.39063,-2.5586 1.71619,-4.31051 8.06473,-11.05716 13.31641,-13.70117 7.21184,-3.63088 13.15264,-5.11267 17.24414,-5.04101 z m 55.96484,8.00781 c -4.36277,0.0113 -8.58163,1.83564 -12.3418,5.42578 -1.70959,1.47288 -3.09265,3.14002 -4.16015,4.93359 -5.78514,8.35748 -4.84568,15.57234 2.91211,23.33008 3.20393,3.20398 6.8535,5.14501 10.5625,5.99219 1.40523,0.49092 2.65238,0.8341 3.38867,0.85742 0.84784,0.0265 1.90261,-0.19325 3.02344,-0.50586 8.38243,-0.92156 15.91526,-7.30025 17.91211,-17.70703 1.22259,-6.37156 0.27468,-8.80342 -5.75977,-14.83789 -0.24238,-0.24265 -0.48845,-0.45109 -0.73242,-0.68164 -0.0572,-0.0495 -0.10364,-0.10321 -0.16211,-0.15234 -1.3685,-1.27677 -2.75941,-2.37157 -4.16406,-3.2793 -3.47159,-2.24345 -7.01624,-3.38528 -10.47852,-3.375 z m 0.5586,5.23828 c 0.50789,-0.0162 1.01702,-0.01 1.52343,0.0195 1.36698,0.0797 2.71044,0.33932 4.00196,0.73828 8.81034,3.6017 12.36769,16.60549 4.65429,23.58594 -5.7335,5.18846 -15.32873,4.9936 -20.2207,-0.41211 -7.25321,-8.01475 -3.56039,-19.85871 5.53125,-23.20703 1.46483,-0.42517 2.98608,-0.67589 4.50977,-0.72461 z m 164.08007,18.10352 c -47.4178,0.54542 -97.96489,21.00157 -139.49414,55.80664 -14.95902,11.9664 -27.76666,25.05799 -37.44922,38.62695 -1.12246,1.57296 -2.18472,3.142 -3.22851,4.70703 -0.16422,0.2332 -0.3201,0.46591 -0.48242,0.69922 -22.4992,32.34319 -26.88483,63.40747 -12.82032,92.1543 10.88563,22.24928 33.45813,36.51553 65.16407,41.18359 v -0.004 c 18.96499,2.79474 21.51987,2.79238 42.08203,-0.0156 84.77677,-11.59147 157.9379,-74.58305 169.3125,-145.78516 4.62032,-28.92223 -3.0691,-52.44023 -22.83399,-69.83789 -14.94236,-13.15291 -31.14208,-17.86593 -60.25,-17.53125 z m 8.14844,6.72851 c 19.5299,0.10556 24.251,1.11202 34.0918,5.5586 19.32843,8.7335 30.89898,25.29449 34.52929,45.65624 0.27402,4.20118 0.37769,9.34768 0.375,16.32227 -0.002,4.80253 -0.0527,8.73172 -0.17968,12.18945 -2.93934,20.05792 -12.03378,41.67831 -27.44922,62.18164 -24.52982,32.62598 -66.63428,60.72648 -109.26758,72.92188 -23.01426,6.58329 -62.62543,8.32428 -79.71875,3.50391 -33.1759,-9.35566 -49.93035,-25.70541 -55.28711,-53.95118 -10.68644,-56.34931 54.72278,-128.67711 142.53125,-157.60547 3.95822,-1.30405 7.29394,-2.32455 10.45117,-3.17578 1.0653,-0.27477 2.13264,-0.53433 3.19922,-0.79296 9.61637,-2.26568 18.30021,-2.72604 37.38867,-2.80469 3.45251,-0.0142 6.54595,-0.019 9.33594,-0.004 z m -209.17969,5.8125 c -4.14327,0 -7.56887,4.89466 -7.81836,9.51563 -0.19725,1.24448 -0.0575,2.42302 0.48243,3.42187 0.15292,0.40698 0.33127,0.80092 0.56054,1.17188 1.73704,2.81053 5.4102,3.24599 8.8711,1.99414 0.9621,-0.24454 1.85598,-0.69238 2.73437,-1.38672 1.96708,-1.31607 3.63341,-3.20343 4.48828,-5.52735 1.83309,-4.9833 -2.43259,-9.18945 -9.31836,-9.18945 z m 0.9961,4.8086 c 1.68993,0.27514 2.99609,1.73552 2.99609,3.5 0,0.92723 -0.36511,1.76704 -0.95117,2.40234 -1.91812,0.97886 -4.239,0.97163 -5.41602,-0.24024 -0.0459,-0.0597 -0.10047,-0.10989 -0.14258,-0.17187 -0.36827,-0.54395 -0.58497,-1.19807 -0.60351,-1.89649 0.0473,-1.94282 1.68705,-3.33523 4.11719,-3.59374 z m 435.96093,3.96874 c -0.81935,0.0431 -1.64216,0.34595 -2.40429,0.97852 -4.05521,3.36593 -4.19577,8.45794 -0.27735,10.03906 5.11378,2.06344 6.63247,1.67958 8.05274,-2.02148 0.004,-0.0113 0.008,-0.0312 0.0117,-0.043 0.48483,-0.6573 0.62188,-1.57061 0.39843,-2.79102 -0.001,-0.0151 10e-4,-0.0338 0,-0.0508 0.32996,-0.81093 0.35628,-1.51634 -0.0273,-1.89648 -0.1319,-0.13191 -0.28522,-0.17087 -0.44922,-0.17578 -0.95083,-2.39344 -3.11394,-4.14717 -5.29883,-4.03907 h -0.002 z m 0.24219,3.89258 c 0.0977,-0.002 0.20023,0.004 0.30664,0.0215 0.28347,0.048 0.59739,0.16926 0.92383,0.37109 0.32655,0.20183 0.63811,0.41993 0.92188,0.64844 0.28346,0.22866 0.54072,0.46748 0.75585,0.69531 0.10016,0.10621 0.15507,0.19911 0.23633,0.30078 -0.20069,0.37266 -0.39911,0.75571 -0.57422,1.21485 -0.0896,0.23395 -0.11109,0.33834 -0.18554,0.54296 -0.34696,0.0877 -0.72759,0.15235 -1.1543,0.15235 -0.6528,0 -1.24357,-0.28071 -1.67383,-0.73633 -0.21619,-0.22904 -0.39104,-0.50056 -0.51172,-0.80273 -0.12056,-0.30048 -0.18945,-0.62698 -0.18945,-0.97266 0,-0.34356 0.0704,-0.63201 0.18945,-0.85742 6.1e-4,-0.001 -6.4e-4,-0.004 0,-0.004 0.0597,-0.11149 0.13447,-0.20698 0.21875,-0.28711 0.19248,-0.18227 0.4432,-0.27981 0.73633,-0.28711 z m -410.5625,23.64453 c -1.01843,0.15534 -0.6173,2.95202 1.40039,7.86915 2.24367,5.46772 3.02135,5.99112 3.82617,2.58789 0.0257,-0.10885 0.0311,-0.23037 0.0508,-0.34375 0.3287,-0.43851 0.27823,-1.28177 0.0137,-2.26758 -0.20319,-1.88251 -0.89538,-3.86926 -1.9668,-5.16016 -1.59322,-1.9197 -2.71316,-2.77864 -3.32422,-2.68555 z m -20.00195,6.85352 c -0.28638,0.0151 -0.54758,0.0648 -0.7832,0.14453 -1.73438,0.58545 0.27133,2.75308 4.66796,5.03516 5.1111,2.65289 7.7168,5.7466 7.7168,9.16601 0,3.8445 0.68644,4.47558 2.68945,2.47266 1.47875,-1.47904 2.07278,-4.30317 1.31641,-6.27344 -1.74266,-4.54125 -11.31194,-10.8257 -15.60742,-10.54492 z m -13.8125,4.33984 c -3.21431,0.0227 -2.36501,1.52203 3.45312,6.10743 4.63654,3.65412 7.7168,8.22193 7.7168,11.44726 0,2.95196 0.70976,6.07887 1.58008,6.94922 2.6871,2.68717 3.16797,1.83464 3.16797,-5.64648 0,-8.14016 -9.08308,-18.90229 -15.91797,-18.85743 z m -95.80274,9.46875 c -4.2562,0 -9.35156,7.84464 -9.35156,14.39649 0,1.38531 2.07422,2.05895 4.76172,2.16406 2.41184,0.40403 5.47746,-0.0572 7.82617,-1.08008 0.003,-10e-4 0.005,-0.003 0.008,-0.004 1.6923,-0.56376 3.1167,-1.326 3.89648,-2.26563 3.84311,-4.63049 -0.79509,-13.21094 -7.14063,-13.21094 z m 421.51954,2.3711 0.004,0.002 c -0.89431,0 -1.71279,0.0976 -2.4707,0.25977 -1.24872,0.0419 -2.06131,0.33917 -2.57813,0.97851 -3.55997,2.10044 -3.98027,6.44989 0.18946,9.63867 0.0533,0.0495 0.11329,0.0964 0.17187,0.14063 0.004,0.003 0.004,0.008 0.008,0.008 5.57666,4.07777 6.98013,4.03852 10.58985,-0.31055 1.00509,-1.21099 1.58269,-2.45119 1.80859,-3.63671 0.034,-0.11793 0.0844,-0.22558 0.10742,-0.34766 0.0865,-0.45438 0.054,-0.89487 -0.0351,-1.32422 -0.32504,-3.04842 -3.21988,-5.4082 -7.79492,-5.4082 z m -421.04297,3.10351 c 1.84099,0.71248 3.22851,2.36764 3.22851,4.02149 0,0.6178 -0.21108,1.22876 -0.54883,1.79883 -0.69707,0.35716 -1.63016,0.57421 -2.74023,0.57421 -3.41242,0 -4.45155,-1.09615 -3.4668,-3.6621 0.74118,-1.93131 2.1245,-2.79823 3.52735,-2.73243 z m 420.9082,1.64649 c 2.03558,0 3.69922,1.06936 3.69922,2.375 0,0.16894 -0.06,0.31759 -0.0918,0.47656 -0.9151,1.05267 -2.382,1.49933 -3.75586,1.39648 -0.81668,-0.43362 -1.60514,-1.0948 -2.08594,-1.87304 -0.80696,-1.30564 0.19865,-2.375 2.23438,-2.375 z m 19.72852,55.47851 c -1.73983,-0.0151 -3.45338,0.15599 -5.12696,0.52344 -28.74591,6.3137 -34.07602,41.16498 -8.24023,53.89258 10.26569,5.05723 15.26861,4.97466 27.19336,-0.44141 18.16535,-8.25033 22.57585,-30.36198 8.69531,-43.60351 -1.65339,-1.57731 -3.37822,-2.92763 -5.125,-4.15821 -2.38832,-2.03516 -4.45813,-3.24556 -6.99219,-3.90429 -3.47146,-1.44953 -6.98329,-2.27428 -10.40429,-2.3086 z m -0.99219,5.25782 c 23.68747,-0.3481 35.71388,31.01959 13.49805,42.50781 -17.6222,9.11282 -35.65626,-1.18515 -35.65626,-20.35938 0,-9.65091 8.18316,-19.90133 17.27149,-21.63867 1.67607,-0.3205 3.30756,-0.48656 4.88672,-0.50976 z m 60.3789,41.34375 c -4.5792,0 -9.11159,8.60332 -7.1914,13.65039 1.20896,3.17748 7.36363,3.87346 13.48242,1.52539 6.88165,-2.64072 3.57715,-12.63485 -3.56445,-14.75782 -0.27893,-0.0926 -0.55997,-0.15922 -0.83985,-0.21289 -0.12699,-0.0264 -0.25013,-0.0538 -0.3789,-0.0742 -0.0729,-0.008 -0.14581,-0.0118 -0.21875,-0.0156 -0.42233,-0.0575 -0.84667,-0.11133 -1.28907,-0.11133 z m 1.73829,4.74804 c 0.9321,0 1.77958,0.37343 2.41601,0.96485 0.30047,0.62985 0.56188,1.33802 0.72852,2.19726 0.15345,0.79125 0.11583,1.45203 -0.0645,2.00781 -0.67018,1.00241 -1.98947,1.73144 -3.5664,1.90235 -1.72778,-0.24151 -3.07422,-1.7182 -3.07422,-3.50977 0,-1.95851 1.60203,-3.5625 3.56055,-3.5625 z m -481.91602,4.74805 c -9.28321,0 -14.08208,9.89647 -7.83203,16.14648 3.94289,3.94266 10.34419,3.5562 14.78711,-0.88671 6.71008,-6.71006 2.81176,-15.25977 -6.95508,-15.25977 z m 61.39453,4.8457 c -2.79314,-0.0544 -7.60118,2.00442 -10.68359,4.57227 -7.12669,5.93888 -3.32275,5.97634 7.45117,0.0781 6.74857,-3.69471 7.35716,-4.56962 3.23242,-4.65039 z m -61.9043,0.34766 c 1.39239,0.20825 2.65288,0.63974 3.59375,1.17383 0.29776,0.47932 0.47657,1.06305 0.47657,1.76562 0,0.93162 -0.37962,1.73468 -1.01953,2.36133 -0.89152,0.42316 -1.94211,0.77982 -3.13477,0.94922 -1.33899,0.19011 -2.40434,0.17668 -3.22656,-0.041 -0.65254,-0.30576 -1.08608,-0.74299 -1.3086,-1.24804 -0.088,-0.29141 -0.13307,-0.58634 -0.17578,-0.88477 0.0197,-1.59005 1.68564,-3.43448 4.79492,-4.07617 z m 72.54883,14.85156 c -6.29658,-0.0472 -18.52021,4.88397 -23.97461,10.25195 -1.01862,0.72065 -1.77148,1.36751 -1.77148,1.79883 0,0.0484 0.0204,0.0761 0.0234,0.1211 -3.96115,4.71768 -1.15337,4.04605 11.8457,-2.54102 6.44161,-3.2643 13.56701,-5.93555 15.83008,-5.93555 3.10834,0 3.43989,-0.67151 1.37109,-2.74023 -0.64805,-0.64811 -1.81238,-0.94366 -3.32422,-0.95508 z m 291.17969,8.44336 c -0.20901,0 -0.39723,0.0275 -0.60352,0.0312 -21.61269,0.31521 -28.68363,11.9912 -12.22265,20.8418 2.12126,1.14058 5.0577,1.79601 8.29101,2.04883 3.68829,0.80598 6.95706,0.60144 10.97852,-0.61719 4.73907,-0.85142 9.04603,-2.40398 11.45703,-4.58594 5.8323,-5.27788 5.81956,-7.05352 -0.0957,-12.96875 -3.47006,-3.46998 -7.70431,-4.66751 -16.76172,-4.73437 -0.0941,-7.2e-4 -0.17857,-0.01 -0.27344,-0.01 -0.0484,0 -0.0923,0.004 -0.14062,0.004 -0.12889,-5e-4 -0.23447,-0.004 -0.36524,-0.004 -0.0435,0 -0.0815,0.004 -0.125,0.004 -0.0469,-2.3e-4 -0.0934,-0.004 -0.14062,-0.004 z m -281.01953,0.20508 c -0.29983,3.1e-4 -0.60822,0.0115 -0.92383,0.0352 -7.57464,0.56727 -19.60925,7.80801 -31.73242,19.63672 -0.0773,0.0756 -0.14176,0.14745 -0.21875,0.22266 -5.24565,4.46491 -9.55505,8.92215 -11.44727,12.36719 -2.12399,2.63089 -3.45507,4.62785 -3.45507,5.40039 0,1.78295 6.68125,-3.17398 14.84765,-11.01563 12.043,-11.56429 21.20482,-18.26834 28.65039,-20.85547 0.5172,-0.15458 1.02303,-0.30178 1.48828,-0.39453 0.88742,-0.17726 1.57064,-0.38026 2.25782,-0.58398 1.01917,-0.1731 2.01035,-0.26953 2.96679,-0.26953 4.07234,0 4.68246,-0.65932 2.56836,-2.77344 -1.19928,-1.19925 -2.90316,-1.7717 -5.00195,-1.76953 z m 281.01758,4.54101 0.002,0.002 c 7.95787,0 12.94925,1.28604 14.70703,3.73242 0.56096,1.1723 0.57038,2.56745 0.004,4.17383 -0.67899,1.05963 -1.75906,2.0312 -3.03711,2.52148 -4.26051,1.63514 -18.844,1.59423 -23.63867,0.008 -0.92788,-0.56919 -1.71424,-1.12516 -2.31836,-1.66015 -0.12586,-0.20334 -0.26464,-0.39763 -0.35157,-0.625 -0.48483,-1.2635 -0.60409,-2.39659 -0.4082,-3.40039 0.32088,-0.91144 0.91477,-1.76505 1.80274,-2.4375 0.0605,-0.042 0.10951,-0.0838 0.17187,-0.125 0.41242,-0.28951 0.86901,-0.54785 1.39063,-0.74805 2.06539,-0.79226 7.31946,-1.44141 11.67578,-1.44141 z m -239.4668,24.5293 c -0.0675,-0.008 -0.1476,-5.6e-4 -0.23828,0.0234 -2.72027,0.71645 -15.4961,15.52109 -15.4961,18.26367 0,1.26025 0.80199,2.25308 1.78126,2.19922 2.33131,-0.11792 15.44718,-19.08213 14.11718,-20.41211 -0.0426,-0.0425 -0.0965,-0.0662 -0.16406,-0.0742 z m 7.36133,3.96094 c -2.74011,0 -8.85156,9.09152 -8.85156,13.16797 0,2.61286 2.41619,0.56057 7.12109,-6.04688 3.77642,-5.30358 4.21882,-7.12109 1.73047,-7.12109 z m -63.86133,44.24609 c -1.84671,-0.0529 -3.75958,0.6229 -5.35938,2.22266 -4.49504,4.49518 -4.63646,6.27368 -0.78906,10.12109 0.48429,0.48427 1.01748,0.878 1.56836,1.21094 1.31701,1.32261 3.19321,1.70757 5.13281,1.16797 0.52418,0.004 0.9805,-0.11382 1.4043,-0.31641 2.58369,-0.75042 4.70729,-2.74952 5.12305,-5.66992 0.22469,-1.57807 -0.0138,-3.01044 -0.54688,-4.24805 -0.0147,-0.034 -0.0259,-0.0679 -0.041,-0.10156 -1.17479,-2.61842 -3.74918,-4.30814 -6.49219,-4.38672 z m -44.64648,8.70313 c -0.75777,0.0423 -1.52913,0.18032 -2.3086,0.42773 -4.78425,1.51839 -6.79202,10.37407 -3.17187,13.99414 1.35817,1.35814 3.64881,1.72915 6.01367,1.4043 0.21124,0.0378 0.41593,0.0684 0.60351,0.0684 0.27784,0 0.55657,-0.0246 0.83399,-0.0723 0.27742,-0.0491 0.55224,-0.12539 0.82617,-0.21875 0.70702,-0.24151 1.38225,-0.65829 2.0293,-1.14453 1.6073,-0.82836 2.93739,-1.95467 3.63672,-3.26953 0.608,-0.66803 0.98242,-1.41265 0.98242,-2.20703 0,-0.62767 -0.19221,-1.24259 -0.50195,-1.83594 -0.0113,-0.0733 -0.0239,-0.1458 -0.0371,-0.21875 -0.0117,-0.5893 -0.1082,-1.16014 -0.31055,-1.6875 -0.1389,-0.36208 -0.38424,-0.7031 -0.68164,-1.0332 -1.56668,-2.6849 -4.57044,-4.39201 -7.91406,-4.20508 z m 189.43164,2.52734 c -2.31572,0.0756 -4.68952,0.89413 -6.35743,2.58789 -3.60597,3.66138 -3.56108,4.18858 0.59375,7.26953 0.0189,0.0113 0.0413,0.024 0.0605,0.0391 0.20825,0.20031 0.46068,0.36307 0.75586,0.48632 5.12485,2.95329 12.50391,0.0699 12.50391,-5.24804 0,-3.33226 -3.69714,-5.25875 -7.55664,-5.13282 z m -0.19532,3.94336 v 0.004 c 1.70208,0.18633 2.54354,1.12502 1.81836,2.29883 -0.77695,1.2571 -1.78473,2.2703 -2.30468,2.3457 -0.034,0.001 -0.0679,0.0117 -0.10157,0.0117 -0.5094,-0.0378 -1.5493,-1.07661 -2.34179,-2.35938 -0.3583,-0.58 -0.32794,-1.10796 -0.0195,-1.52148 0.73459,-0.42342 1.77999,-0.68466 2.94922,-0.7793 z M 238.55273,902.8125 c -2.11181,0.062 -4.32685,0.63732 -6.31054,1.89258 -2.82417,1.78741 -2.87445,2.79527 -0.30078,5.89648 3.67369,4.42647 9.95221,4.85845 13.85937,0.95117 4.49906,-4.49884 -0.91255,-8.92614 -7.24805,-8.74023 z m 294.39258,71.08398 c -0.23924,0.008 -0.54034,0.18856 -0.91406,0.5625 -0.85527,0.85535 -3.47523,5.83824 -5.82031,11.07618 -4.89385,10.93077 -1.70504,13.07017 3.75195,2.51757 3.1417,-6.07547 4.65551,-14.21815 2.98242,-14.15625 z m -18.35351,4.54493 c -1.30572,0 -2.37305,1.65237 -2.37305,3.67578 0,2.02337 -1.62906,6.83131 -3.62109,10.68359 -2.24538,4.34207 -2.65105,7.00586 -1.06641,7.00586 1.40583,0 4.10218,-3.70639 5.99414,-8.23437 4.04478,-9.68051 4.32553,-13.13086 1.06641,-13.13086 z"
       style="fill:#1a1a1a;stroke-width:2.37397385" />
  </g>
</svg>
