<?xml version="1.0" encoding="UTF-8" standalone="no"?>
<svg
   xmlns:dc="http://purl.org/dc/elements/1.1/"
   xmlns:cc="http://creativecommons.org/ns#"
   xmlns:rdf="http://www.w3.org/1999/02/22-rdf-syntax-ns#"
   xmlns:svg="http://www.w3.org/2000/svg"
   xmlns="http://www.w3.org/2000/svg"
   id="svg2"
   height="666.28467pt"
   width="588pt"
   version="1.1"
   viewBox="0 0 588 666.28467">
  <title
     id="title815">Donkey</title>
  <metadata
     id="metadata8">
    <rdf:RDF>
      <cc:Work
         rdf:about="">
        <dc:format>image/svg+xml</dc:format>
        <dc:type
           rdf:resource="http://purl.org/dc/dcmitype/StillImage" />
        <dc:title>Donkey</dc:title>
        <dc:source>https://publicdomainvectors.org/en/free-clipart/Donkey-vector-drawing/82214.html</dc:source>
        <dc:date>2020-03-13</dc:date>
      </cc:Work>
    </rdf:RDF>
  </metadata>
  <defs
     id="defs6" />
  <path
     transform="scale(0.74999999)"
     id="path4"
     d="m 362.7168,2.9355469 c -0.42752,0.6193024 -0.74187,1.0060232 -0.83985,1.6933593 -30.69302,11.8271918 -50.99269,41.0181878 -60.95117,71.3808598 -6.50035,20.906266 -16.20179,39.574924 -28.60351,57.716794 -2.18086,4.08907 -2.50349,-0.38493 -3.82813,-1.85547 4.20813,-3.636 6.14215,-10.16659 2.29492,-14.80859 -6.10102,-5.84773 -14.82844,-7.59004 -22.9414,-8.50391 14.00665,-9.449063 31.35928,-13.534247 44.05664,-24.833981 3.55925,-2.695333 2.86769,-8.598043 -1.375,-9.964843 -16.79416,-7.133867 -35.8809,-0.571503 -49.82227,9.707031 4.29645,-5.912934 9.78683,-11.948707 9.88281,-19.681641 -0.37244,-4.426933 -5.36786,-6.573879 -9.34179,-5.882812 -11.30746,-0.192 -19.13989,9.777151 -23.59375,18.646484 -4.26574,-12.635867 -11.23478,-24.969024 -22.16211,-32.96289 -5.55967,-4.392534 -14.89276,-4.201596 -19.0625,1.960937 -5.29474,7.191467 -2.60846,16.622708 -0.0859,24.359375 -11.34201,-8.216667 -23.97255,-16.598475 -38.35547,-17.546875 -8.3894,-0.464667 -20.6878,6.392126 -16.0957,16.255859 8.37404,11.772134 23.10648,16.118314 35.98047,21.248047 -18.449,-1.6664 -47.72926,-4.652968 -59.013675,15.884769 -4.35788,10.83906 7.586125,18.74034 16.927735,19.86914 -2.72224,3.57853 -2.75969,5.71234 -6.01563,8.71875 C 97.020364,117.38819 84.749577,100.74061 79.216797,80.191406 68.837501,49.049699 18.115055,5.5753385 17.193359,4.7871094 17.198008,4.528124 17.16949,4.3278761 17.037109,4.3554688 v 0.00195 c -0.11404,0.024 -0.294082,0.1942906 -0.560547,0.5878906 C 6.575534,34.260246 -3.4453322,62.094998 3.5234375,92.519531 17.216396,139.78821 55.457665,183.43855 103.27148,196.98828 c 1.78923,21.01 5.24412,38.89168 5.80469,59.97461 -5.1757,31.7876 -17.063462,62.20845 -22.177732,93.99219 -19.604703,9.10746 -27.889646,34.44359 -18.839844,53.79492 4.720048,10.55301 17.442585,19.13673 26.863281,25.58594 0.111527,0.81498 0.220591,1.62996 0.339844,2.44336 3.378797,28.64293 16.944271,57.70785 41.728511,73.83398 3.44791,1.11347 2.40321,5.14625 3.24024,7.83399 3.3788,19.27453 20.58024,34.86316 40.15039,36.20703 15.08556,0.88306 31.76859,-1.3448 43.51758,-11.75 7.92098,-7.48707 13.06555,-17.89132 13.80273,-28.83399 -1.0098,-2.38053 3.28174,-6.25903 4.4336,-2.95703 15.31977,28.25907 36.97252,52.4485 61.92187,72.5293 2.68,19.3896 7.51269,38.58768 14.53906,56.90234 7.26058,16.2412 8.72079,34.47744 9.40039,52.0625 -3.12554,33.17733 -5.27934,67.27691 -32.30091,84.625 -29.00005,4.72267 -49.13318,29.4871 -54.55846,57.97656 -0.28028,7.06467 7.97832,9.40639 13.58789,9.86719 14.83599,0.69107 29.44195,-2.68816 43.86328,-5.75976 -6.94573,11.55706 -15.00497,25.8019 -9.44531,39.4707 6.81902,11.78733 22.48869,12.17176 34.54101,13.51562 43.1219,2.03494 81.16682,-36.74497 81.55079,-79.28711 2.07334,-27.75986 -10.02082,-54.36774 -6.83399,-82.16601 2.34212,-34.40227 7.64042,-70.22543 25.83984,-100.17383 53.06247,9.8676 108.19893,-3.14876 154.27344,-30.14062 13.16963,17.20106 17.23985,40.27845 16.31836,61.70312 1.49743,21.53987 -0.15313,46.88064 -17.62305,62.16211 -11.94097,10.29 -22.72989,21.88549 -33.82617,32.94336 -20.0424,7.4104 -37.66731,25.0327 -39.20312,47.14844 0.53753,4.60746 -0.53671,10.94343 3.5332,14.20703 24.68825,7.2568 51.4886,-0.19323 72.5293,-14.01563 13.13122,-7.90946 27.33608,-19.23473 29.25586,-35.55273 3.11002,-35.59253 20.81132,-67.38414 36.70703,-98.59961 1.84297,-2.45733 2.60981,-6.64183 5.2207,-8.0625 5.98968,27.60627 2.30528,58.05226 -13.39844,81.97266 -8.75416,14.24466 -23.30604,24.57364 -29.67968,40.39257 -1.53582,4.60747 -6.33633,6.83506 -8.83204,10.82813 -7.94785,11.40347 -14.5904,25.2259 -12.82421,39.4707 0.61432,12.51694 10.98123,23.84194 23.72851,24.30274 19.92723,0.80626 38.39665,-8.29327 55.94336,-16.625 12.47852,-5.60574 24.03482,-16.20253 26.37695,-30.2168 4.1851,-16.16453 -1.2295,-32.63512 -0.5,-48.95313 -1.07506,-23.5748 3.9932,-46.72908 7.98633,-69.80468 3.45559,-20.2728 11.32705,-39.39228 18.12305,-58.70508 4.14669,-18.16107 -10.86576,-32.59755 -23.03711,-43.50195 -12.32493,-29.1804 3.99288,-60.58857 21.23242,-84.00977 8.56218,-11.28827 17.31619,-22.99983 21.46289,-36.70703 -0.1152,17.7772 -9.81197,54.01471 -11.69336,72.17578 -4.07051,28.57972 -3.00418,37.71696 -1.4082,38.57031 -11.40985,34.43706 4.24288,75.12168 35.04687,94.13477 1.95818,0.88307 1.3046,-0.99859 1.07422,-2.38086 6.56563,4.99133 14.47536,7.25829 22.5,8.41016 0.69112,-0.38387 -0.61504,-0.84538 -0.15429,-1.49805 -0.2434,-0.0601 -0.48825,-0.13973 -0.73243,-0.20508 -2.56985,-14.48666 2.09951,-32.5019 -5.83593,-45.67773 0.88309,-0.576 8.98413,4.10923 6.83398,0.61523 -0.0187,-0.006 -0.0361,-0.0139 -0.0547,-0.0195 -3.58575,-14.00068 -11.83347,-34.32135 -21.09765,-45.28711 -5.9992,-7.70316 -15.37975,-12.70666 -25.10547,-13.32812 -6.40627,-43.38762 21.01819,-71.98866 12.5293,-158.45508 -7.37192,-34.93987 -29.02582,-64.77855 -53.44532,-90.02735 -12.05616,-11.16933 -20.96436,-25.35607 -33.86523,-35.73047 -10.25157,-9.60653 -24.3047,-14.84756 -38.35742,-14.16796 -32.94327,1.52426 -63.69716,15.17434 -96.17969,19.4746 -42.15817,5.26014 -86.73529,0.058 -124.78516,-19.63476 1.22866,-1.1404 3.18656,-1.59499 4.03125,-3.13086 -17.46992,1.3016 -22.23043,-25.33724 -41.00195,-20.46484 -4.64201,-9.6104 -14.484,-14.7667 -24.4668,-17.08204 -5.57885,-13.09666 -17.23056,-22.79078 -29.93945,-28.62304 -2.92956,-7.35654 -8.24776,-14.15192 -13.96484,-18.84766 41.78958,-21.0024 73.89506,-62.45074 80.33398,-109.185545 C 379.97045,50.848741 372.49994,26.771413 362.7168,2.9355469 Z M 62.400391,58.130859 c 7.114672,13.572801 9.892267,23.676373 15.382812,37.878907 6.584815,16.268134 17.62722,30.225814 29.333987,43.107424 -0.5529,1.29013 -1.19258,2.54518 -1.82227,3.80078 -3.47094,6.11253 -2.51882,16.26066 -4.72656,20.36133 1.32848,3.4748 1.08994,9.09596 1.32031,13.49609 0.0499,1.194 0.0843,2.38815 0.10352,3.59375 l 0.0195,0.42969 c -0.23805,3.69746 1.55738,9.2838 0.36328,12.01367 C 60.95018,179.58143 28.983914,144.31155 14.005859,104.11914 2.2376638,73.31834 9.7285407,43.677059 16.025391,11.828125 16.246164,10.340658 16.496523,8.8562469 16.746094,7.3730469 25.010372,15.806496 53.015147,39.383294 62.400391,58.130859 Z M 362.35352,6.4804689 c 9.76785,30.7997631 14.25828,63.7021661 3.46093,94.5625011 -14.1679,41.94707 -46.25801,74.50604 -88.98828,87.89844 0.45307,-4.97227 -0.0768,-6.0966 0.11133,-11.0918 0.25341,-4.596 0.6915,-9.17566 0.92188,-13.77539 -0.2803,-6.16627 -0.85026,-12.35921 -2.57422,-18.31055 -0.90614,-2.61466 -3.23183,-5.95176 -0.27539,-8.12109 12.82792,-15.88801 23.84347,-33.73912 29.89843,-53.347658 8.09376,-31.8452 26.60569,-62.726865 57.19532,-77.6972657 0.0637,-0.035391 0.16287,-0.077041 0.25,-0.1171874 z m 0.10937,3.5117187 c -2.55174,1.7224344 -4.72254,3.9152444 -6.79492,6.1699214 -11.68373,15.847734 -19.99612,33.931973 -25.95508,52.628907 -9.8062,33.334934 -19.86624,69.587924 -48.14062,92.414064 16.97845,-11.65307 28.97215,-29.25267 36.8125,-48.06641 14.04504,-30.597332 18.30041,-65.383391 37.39062,-93.630858 2.19902,-3.1865 4.27387,-6.478947 6.6875,-9.5156244 z M 16.666016,12.099609 v 0.002 c -0.26608,0 -0.506591,0.158536 -0.683594,0.605469 16.682811,17.8968 24.312548,41.939407 31.285156,64.869141 C 57.561392,108.69177 69.232445,143.31702 98.125,161.78516 71.171414,141.45862 60.785547,107.99612 51.589844,77.083984 45.24308,53.873984 35.180476,30.936921 18.363281,13.367188 17.957443,12.941721 17.251162,12.111476 16.666016,12.099609 Z M 181.51367,47.138672 c 17.85771,-0.157333 27.87035,19.722082 35.13477,33.291016 6.24309,-7.563867 13.41206,-16.608377 23.75195,-18.91211 2.70687,-0.7832 5.93166,1.584398 5.0332,4.644531 -0.84085,7.690667 -3.44357,15.991844 -9.07617,21.589844 13.46911,-6.235333 28.5627,-11.218175 43.52539,-9.609375 5.11428,1.286133 0.32157,6.783378 -2.30469,8.142578 -13.03908,7.959334 -30.43913,12.103657 -38.40234,26.275394 9.15732,2.18853 21.09058,0.0687 28.77734,7.38281 3.26362,3.014 0.0235,7.84464 -3.34765,9.02344 -9.30321,3.9124 -20.40828,2.9331 -29.18164,-1.92383 -1.42831,-0.57987 -1.53164,-2.20352 -2.00391,-3.45899 -2.74528,15.91494 -8.8965,41.75401 -29.35742,45.24414 1.83147,2.34587 4.40026,3.75831 7.20312,4.57618 -7.96705,1.75853 -13.23347,-6.06996 -15.42968,-12.57422 -1.70092,-6.05494 -5.25372,-12.81233 -1.98242,-18.98633 -0.0231,-0.63733 0.0317,-1.26688 0.0586,-1.89648 -8.32796,14.11026 -19.00975,26.96866 -32.04883,36.96679 -5.39072,3.732 -11.23922,8.0589 -18.15039,7.74024 0.38012,2.0964 0.95669,4.16723 1.38672,6.25976 -9.787,-3.8088 -6.98402,-16.47264 -4.71484,-24.45117 4.3118,-10.49347 9.8131,-20.72183 17.83007,-28.88477 -8.9423,4.33867 -12.0371,15.69915 -20.58007,20.86329 -7.69062,5.456 -17.50438,11.78774 -27.19922,8.45507 -0.21502,2.49574 0.36854,4.92744 1.12109,7.27344 -6.29685,-3.27906 -4.89012,-12.45544 -3.0625,-17.98437 5.49438,-13.29254 16.6393,-25.61535 29.82813,-31.13282 5.52894,-1.30546 11.68705,-1.96465 16.38281,-5.43945 -15.19691,0.61053 -32.88167,4.10005 -46.98047,-4.53516 -4.5153,-2.27293 -7.60541,-8.93348 -2.31836,-12.41601 18.18023,-14.233067 43.67806,-10.429669 64.71875,-9.980469 -15.68837,-6.323734 -32.62034,-13.453113 -42.35742,-28.070313 -2.5533,-3.440133 0.0185,-6.506787 3.55469,-7.117187 15.00877,-3.018 29.12008,5.693103 42.10156,11.970703 6.31989,2.012 5.73626,10.204758 10.5664,13.890625 -3.76658,-11.288267 -10.91512,-25.198913 -3.33203,-36.195313 0.28796,-0.01333 0.57135,-0.01748 0.85547,-0.02148 z m -62.10156,79.042968 c 4.24779,0.26091 8.50409,0.38315 12.74805,0 -7.14307,4.44869 -14.46572,9.01804 -19.80469,15.6543 -0.56057,0.98666 -2.13848,0.38437 -1.67774,-0.75977 2.11175,-5.35613 5.1828,-10.37533 8.73438,-14.89453 z m 114.88672,3.38672 c 8.67736,4.83014 18.82707,8.18564 28.77148,5.7207 10.85055,15.362 8.45015,35.37133 7.26758,53.14453 -1.12115,23.35214 -4.69282,46.59181 -4.66211,69.97461 4.61513,24.51934 12.47065,48.28753 17.63867,72.70313 -11.11932,-14.58254 -26.2303,-25.81786 -42.18359,-34.22266 -16.75576,-6.98786 -34.43734,-12.87801 -52.75195,-13.27734 -26.30855,1.50506 -52.42549,10.71657 -73.54297,26.10937 -6.84591,6.63854 -14.75998,12.98531 -21.17969,20.23438 4.684241,-21.77414 12.46008,-42.73 18.36914,-64.17774 2.94109,-10.30533 1.50066,-21.02211 0.75195,-31.51172 -1.76619,-19.72 -3.06987,-39.51738 -5.29296,-59.17578 3.17914,2.22694 7.07433,2.26649 10.79101,1.86328 6.58098,-2.1156 13.02531,-6.68086 18.75391,-11.01953 -3.0294,8.29347 -5.57603,20.72886 2.86328,26.81446 8.58906,5.70946 19.42892,0.1152 26.01758,-6.03907 11.44182,-9.9904 20.55689,-22.86412 25.96679,-37.07812 0.66808,10.90813 3.79759,26.38429 16.87891,28.26562 14.10263,0.672 21.95456,-13.96335 24.28516,-26.01562 0.97909,-7.38733 1.81838,-14.83316 1.25781,-22.3125 z m 60.33203,57.33203 c 0.78709,-0.0133 1.50037,0.32014 2.08398,1.21094 9.68332,7.32586 12.92877,20.21342 12.76368,31.82422 2.38434,19.5356 -5.20293,38.91432 -1.59375,58.38086 -8.88855,-13.5652 -11.06153,-30.25127 -13.70313,-45.94727 -1.04436,-6.48493 -4.87283,-14.99075 -12.61719,-14.67969 3.62838,10.14014 -0.27724,21.58683 -4.09375,31.19336 -5.8169,-17.89226 4.09048,-37.41567 1.0918,-55.9414 3.11003,-1.3592 6.36247,-2.37806 9.57617,-3.45313 2.00424,-0.39933 4.4841,-2.57642 6.49219,-2.58789 z m 17.92578,19.93945 c 4.92613,2.19227 9.08462,5.92116 12.60547,9.92969 5.17571,3.95853 8.79244,9.95963 11.57227,15.83789 2.4765,21.63587 5.18476,43.31367 10.31054,64.51953 0.75255,1.67787 -1.09954,1.12054 -1.88281,0.42188 -17.46992,-12.93547 -24.94922,-35.01661 -27.75977,-55.75781 -0.61049,-8.88854 -5.34804,-17.02103 -3.79687,-26.10157 -0.008,-2.9872 -0.5612,-5.92014 -1.04883,-8.84961 z m -94.90234,18.85157 c -10.27078,1.27853 -12.30961,16.9063 -3.82422,21.85937 4.58825,2.91413 11.2124,0.47201 13.32031,-4.40039 4.15055,-6.90347 -1.10285,-17.55498 -9.49609,-17.45898 z m -58.00977,0.0703 c -12.11376,1.83147 -14.49829,23.75102 -0.57226,24.92969 14.04504,-0.6296 12.25214,-22.05769 0.57226,-24.92969 z m -7.67969,7.87109 c 0.72568,3.70134 1.68044,8.77687 5.9961,9.76367 3.78194,1.16334 5.87499,-2.48129 7.89844,-4.88476 -0.85622,3.7704 -3.13173,8.62368 -7.67774,8.43555 -5.93977,-0.9292 -7.94458,-8.23472 -6.2168,-13.31446 z m 58.36524,0.60547 c 1.436,2.67227 1.81588,8.29463 6.16992,9.17383 3.90865,1.15947 6.0461,-2.31868 7.91211,-4.92188 -0.71799,3.4248 -3.62442,7.17553 -7.52539,6.5918 -4.85319,-1.02893 -6.47984,-6.52042 -6.55664,-10.84375 z m 132.5293,1.35547 c 6.23925,2.3344 13.26953,5.66359 14.95507,12.82813 4.96454,14.598 10.23176,29.24218 18.625,42.28124 -12.26349,-3.19826 -21.61342,-14.00275 -24.76953,-26.07421 -2.14629,-7.7444 -5.42489,-15.18509 -7.17187,-23.02149 -0.70648,-1.96973 -1.33151,-3.95567 -1.63867,-6.01367 z m -57,4.2832 c -2.81438,22.09654 12.1608,43.4838 33.33203,49.51953 -5.56734,-7.16453 -7.41058,-16.62543 -6.87305,-25.52929 5.83227,21.66653 23.03423,42.01225 46.36328,44.51172 -4.90693,-8.55827 -6.92746,-18.20414 -8.59766,-27.82227 7.84035,11.41493 24.00423,17.59267 36.95118,13.71094 -9.35698,-3.8396 -13.09921,-14.03388 -15.54883,-23.06055 6.84973,4.89533 15.12655,7.97216 23.53515,5.58789 2.38052,-0.68346 4.64689,-1.68175 7.14258,-1.80469 40.12322,21.0868 87.15673,28.2785 131.92578,21.71289 26.37766,-3.54773 51.68094,-12.5899 78.0586,-16.07617 15.62694,-1.94666 33.40397,-0.37278 45.07617,11.44922 19.85044,17.05907 34.86366,38.9633 48.26367,61.24024 15.89569,28.09013 27.64353,59.18997 29.94727,91.5957 1.72778,16.5484 -5.37442,32.32907 -14.89649,45.42187 -12.32493,16.9708 -24.57266,34.74809 -30.21679,55.2129 -3.87794,14.70546 -4.79984,32.0601 3.68554,45.30664 12.05616,9.9828 27.03079,24.76496 21.27149,42.04296 -17.46992,46.34334 -29.75684,95.91267 -24.30469,145.75 -11.97937,-6.22013 -25.11048,-10.55932 -38.66406,-10.82812 -5.45215,0.3456 -10.90589,0.72962 -16.28125,1.80469 -9.44528,2.22693 -14.53236,3.86211 -22.5186,9.42944 6.02808,-14.43667 15.03212,-21.48603 24.01664,-33.84937 24.49628,-32.59773 26.80096,-78.59603 10.06055,-115.14843 -12.63209,-23.42134 -30.52476,-43.88471 -50.83594,-60.97071 -28.98854,-22.03893 -51.25878,-52.48676 -64.46679,-86.35156 -0.65274,-1.22866 -0.68993,-2.99451 -1.8418,-3.80078 3.41719,15.9724 10.86598,30.7545 18.89062,44.8457 7.37192,11.59534 15.39518,22.76787 24.76368,32.78907 7.83266,8.56226 17.12531,15.6276 25.6875,23.42187 2.34212,1.91987 -2.07337,2.72638 -3.14844,3.83984 -50.64356,31.75294 -111.80726,43.69356 -170.97461,40.89063 -0.49913,-2.534 1.42021,-4.91505 2.11133,-7.33398 3.03324,-11.86427 3.03304,-25.03338 -2.03516,-36.39844 -3.87793,-8.21654 -9.94335,-15.62645 -17.69922,-20.42578 11.90258,10.90426 21.00095,26.53042 18.58203,43.23242 -0.15357,15.74213 -11.70925,27.56829 -17.00781,41.62109 -11.94099,29.10374 -17.97065,60.66364 -17.85547,92.10938 -0.34556,19.77373 6.52735,38.70289 8.10157,58.24609 1.19025,19.77373 -2.11119,40.96775 -14.24415,57.09375 5.68252,-20.2728 -9.69155,-40.50554 -29.37304,-44.65234 -6.56946,-1.72774 -13.44165,-1.19034 -20.08789,-0.23047 -5.53663,1.68947 -10.97682,3.56931 -16.27539,5.87305 3.88561,-22.00054 28.20417,-33.36421 30.40039,-55.90235 2.94493,-16.2796 3.98225,-32.82905 4.98437,-49.30078 0.9138,-33.0584 -0.10375,-69.2268 -19.23242,-97.67773 -10.33221,-18.35307 -19.96845,-37.05057 -30.29297,-55.36524 -0.86775,-1.49746 -1.55565,-3.11128 -2.28516,-4.68554 -0.90997,-1.19027 -1.86703,-2.34178 -2.75781,-3.57032 5.12579,14.55174 12.75534,28.06704 18.6836,42.27344 -9.09588,-6.4888 -16.7094,-14.78264 -24.37696,-22.8457 -14.83984,-15.47334 -27.16543,-33.05739 -41.52148,-48.95313 -3.09851,-4.56906 -8.73867,-9.21602 -10.44727,-13.55469 7.81347,-5.87453 14.72976,-12.97732 20.19727,-21.11718 7.74052,-12.40174 14.37886,-25.91685 17.07422,-40.35352 1.08542,-4.22893 1.72824,-8.52974 2.32226,-12.83203 11.04999,-5.52951 23.8207,-15.54974 28.7168,-26.79297 8.57755,-19.6584 -1.25575,-46.40308 -22.49609,-52.73828 -3.09468,-26.512 -9.69893,-52.48792 -16.76368,-78.20898 -2.8451,-9.7756 -3.38974,-20.08472 -1.76562,-30.13672 2.03112,2.99493 3.6629,6.267 5.84375,9.1582 3.72436,-3.36347 6.65252,-7.44145 9.69727,-11.37305 z m 81.41992,12.53125 c 14.88206,1.34387 22.29083,19.10899 37.45703,19.53125 -15.58855,4.0392 -31.71693,-4.79125 -37.45703,-19.53125 z m -178.60157,33.99414 c 8.94614,0.0693 17.85908,1.43343 26.49805,4.35157 9.54895,2.44186 18.96726,5.95097 27.42578,11.0039 16.57531,8.79627 33.26567,20.50573 42.26172,37.36133 0.40699,3.67827 1.20448,7.33038 1.16992,11.05078 -3.65908,-0.23413 -7.12649,1.06776 -10.69726,1.3711 -19.22843,-27.48734 -52.20198,-43.37137 -85.29883,-45.1875 -27.39513,0.5184 -54.14917,11.5875 -74.76367,29.4375 -4.06992,4.76493 -9.02574,9.27237 -12.98047,14.3789 -4.123669,-0.85613 -8.424627,-1.40847 -12.517579,-0.0527 -0.345559,-16.05307 13.158829,-27.06864 24.324219,-36.41797 20.65289,-16.07613 47.7474,-27.50612 74.57812,-27.29492 z m 0.32618,22.79688 c 3.32983,0.0362 6.65729,0.24945 9.9707,0.64648 28.04787,3.65907 55.42415,17.93871 72.41797,40.82618 3.23673,2.634 -1.27106,4.5879 -2.5957,6.61523 7.75588,-4.6228 17.99672,-4.92274 25.11523,1.09766 10.89663,9.952 18.28432,23.41771 14.69818,38.27664 -3.17651,16.70704 -22.47941,27.68469 -25.69726,30.64648 0.34859,-2.54187 0.68869,-5.08308 1.08984,-7.60937 7.96706,-3.7244 17.51855,-12.05666 14.08985,-21.61719 -3.2713,-5.29853 -10.06287,0.91015 -11.37983,5.47922 -6.54259,14.89746 -5.45933,31.79222 -10.98828,47.03515 -5.34848,14.78227 -12.87178,29.06403 -23.70313,40.6211 -9.81386,10.29 -23.14106,15.93402 -35.86914,21.69336 -12.24814,5.68253 -26.37738,7.94904 -39.55468,4.33984 -11.31898,-2.6876 -21.63851,-8.48599 -31.85938,-13.86133 -5.12195,-2.61093 -9.86845,-5.95029 -13.98828,-9.94336 -13.02757,-12.55533 -21.94333,-28.87361 -27.78711,-45.88281 -5.260171,-15.08947 -4.375784,-32.06002 -12.177734,-46.30469 -1.750832,-4.06986 -9.504166,-5.52886 -9.96875,0.23047 -1.359197,8.37013 6.212954,13.82202 12.28711,17.73828 0.63864,4.86917 0.851571,5.66387 0.851571,5.66387 C 76.880643,412.1431 63.178775,388.8545 75.492188,370.0293 c 5.490545,-9.476 14.958394,-19.20938 26.953122,-17.32032 2.98333,0.6796 5.83666,1.85501 8.80078,2.61914 -1.40911,-2.1848 -5.33679,-3.01007 -6.28515,-4.9414 19.56222,-25.40086 51.85453,-41.53731 84.04297,-41.1875 z m 516.67578,31.94922 c 13.20802,15.66533 23.34511,33.81175 31.29297,52.66015 14.55186,33.1736 12.93856,70.84006 6.14257,105.70313 -5.31834,22.83097 -12.24888,49.19012 -9.12304,72.91406 -0.29371,0.0375 -0.58867,0.0805 -0.8125,0.10938 -0.80631,0.80626 -4.82721,0.46632 -2.63867,2.34765 -1.40917,-0.96547 -3.24146,0.83274 -3.95899,0.61524 0.31417,-30.03307 6.23773,-63.78327 11.96485,-92.11328 8.63897,-49.60694 -7.33425,-99.9822 -32.86719,-142.23633 z m -518.56836,2.24218 v 0.002 H 185.625 c -11.54933,0.15746 -22.87432,3.4914 -31.37891,11.6582 17.83851,-7.66373 38.62118,-10.49867 57.51172,-5.25 3.302,0.70267 6.43164,2.02094 9.69141,2.88867 -3.79731,-2.66853 -8.42435,-3.78722 -12.61328,-5.69922 -6.83439,-2.1848 -14.30661,-3.53054 -21.72461,-3.59961 z m -3.36328,8.73829 c -0.0999,0.016 -0.19659,0.15635 -0.26953,0.50195 -2.27302,34.76707 1.68203,69.40054 3.83984,104.0332 0.52219,2.18854 -0.17301,5.41395 0.99805,6.75782 0.4569,-11.36507 0.55701,-22.76855 1.14062,-34.17188 0.0269,-25.30267 0.42378,-50.76419 -4.97461,-75.63672 -0.0576,-0.4108 -0.42721,-1.53051 -0.73437,-1.48437 z m 35.8457,133.02343 c -15.24299,14.01427 -39.25945,14.59055 -56.44141,3.95508 -1.78538,-1.03666 -7.66356,-6.29639 -5.04882,-2.11133 14.66704,18.46814 44.22345,16.74005 60.00781,0.53711 0.49529,-0.80626 0.99095,-1.57459 1.48242,-2.38086 z m 17.33594,23.15235 c -1.53199,15.39653 -12.18197,30.29407 -27.49024,34.40234 -10.26309,2.68773 -21.54427,3.80227 -31.84961,0.96094 -16.56762,-2.45733 -30.72809,-15.12774 -35.65039,-31.13867 -0.29948,-0.92147 -0.53437,-1.88193 -0.71484,-2.8418 15.70757,7.37187 32.0841,15.78018 49.96484,14.82031 16.64442,-0.0773 31.19605,-9.40712 45.74024,-16.20312 z m 497.56054,66.11328 c 9.98873,-0.19282 18.60183,7.18875 25.03907,14.28711 9.52206,9.906 18.19742,29.35744 23.26562,41.95117 0.0291,0.0327 0.0476,0.0782 0.0664,0.12305 -8.09866,-2.89683 -13.20965,-11.88871 -21.95313,-14.1211 2.07336,4.64587 6.18085,8.4086 10.51953,11.01953 2.11176,1.11347 4.95365,1.95757 4.64649,5.0293 2.18042,13.22787 -3.02804,33.63673 5.23242,43.04102 -5.24463,-1.61951 -10.38656,-4.54605 -12.83008,-9.63672 -7.79426,-14.51347 -12.47972,-31.21578 -24.68945,-42.96485 -9.36849,-13.0928 -19.61926,-31.56126 -12.09375,-47.34179 -0.1152,-0.26867 -0.26892,-0.80542 -0.3457,-1.07422 1.06187,-0.19078 2.10926,-0.29255 3.14257,-0.3125 z m -427.68554,7.26172 c 5.6902,4.83786 14.09243,7.44858 16.37695,15.28125 6.49651,15.58853 16.95526,29.56495 20.33789,46.34375 9.32625,36.01493 8.00435,73.71849 4.54492,110.46289 -0.4953,8.33186 -2.72574,17.04831 -8.07422,23.53711 -6.60401,-3.2252 -14.13217,-4.2621 -21.17773,-5.06836 -3.08699,-0.0387 -6.16665,-10e-4 -9.23828,-0.19336 -1.93897,-0.2304 -11.16492,2.18861 -6.04297,-1.45899 13.24641,-7.75586 18.90875,-23.11318 23.32422,-37.05078 7.37192,-28.75813 8.82355,-59.43711 1.92773,-88.42578 -5.25249,-13.66866 -11.623,-26.91333 -15.89258,-40.92773 -2.32292,-7.41027 -4.41573,-14.89774 -6.08593,-22.5 z m 294.34375,0 c 21.11748,20.6568 43.80908,43.65581 49.68359,73.75781 -10.67393,13.4768 -19.96564,28.45109 -28.10547,43.73242 -9.25329,19.7352 -13.86076,41.35208 -15.62695,62.96875 -10.55875,-10.5204 -25.95404,-15.05299 -40.62109,-14.16992 -1.95816,0.11467 -3.80289,0.42323 -5.72266,0.61523 -5.0298,0.99827 -7.56258,1.62008 -12.362,3.46301 11.8258,-12.24813 22.80622,-22.39143 35.78387,-33.3341 11.86419,-12.01787 16.3571,-29.29598 17.125,-45.76758 0.69112,-19.50493 0.38411,-40.23905 -8.98437,-57.93945 -3.07163,-6.87267 -6.66871,-14.24049 -11.12258,-20.46049 7.25673,-4.26186 13.19507,-7.83582 19.95266,-12.86568 z m -32.25586,170.93554 c 1.99656,16.43334 -4.0696,33.67393 -16.39453,44.8086 -9.94442,9.44533 -24.87972,14.74348 -37.74219,14.70508 -1.95817,-0.80627 -5.53045,-0.38477 -5.14648,-3.41797 -2.99485,-21.77014 14.62945,-39.89145 33.09765,-48.26172 7.83267,-3.83947 17.08583,-7.44999 26.18555,-7.83399 z m 86.54297,18.9668 c 5.95129,0 11.90341,0.80676 17.58593,2.49609 9.44528,16.35654 3.14867,37.28294 -8.7539,50.64454 -14.78224,15.31973 -35.93973,30.79296 -58.43946,24.72656 -9.90601,-3.2252 -14.55029,-14.74499 -13.39843,-24.45899 2.84126,-20.00413 15.47202,-38.54766 34.20898,-46.80273 8.90775,-4.26187 18.89085,-6.56707 28.79688,-6.60547 z m -341.40821,4.22461 c -0.2918,0.99827 -1.78421,1.07515 -2.6289,1.57422 0.26492,24.64987 -15.88453,48.72428 -37.45508,60.16602 -6.57331,1.26706 -13.97279,1.65086 -20.5,-0.23047 -3.36344,-0.2304 -7.49068,-1.65123 -8.41602,-5.29883 7.95938,-30.94667 37.36986,-54.09921 69,-56.21094 z m 27.64844,37.16602 c 8.66968,0.0387 17.31369,1.95807 25.13867,5.83593 -3.12538,28.22067 -23.11532,53.67835 -49.98828,63.04688 -6.63089,3.99307 -15.14548,0.88223 -20.37109,-3.64844 -7.88642,-7.64067 -6.04381,-19.84952 -2.26953,-29.06445 5.6518,-13.0544 14.19752,-26.91652 27.58984,-32.90625 6.40052,-2.18854 13.15815,-3.30207 19.90039,-3.26367 z"
     style="stroke-width:0.3839542" />
</svg>
