<?xml version="1.0" encoding="UTF-8" standalone="no"?>
<svg
   xmlns:dc="http://purl.org/dc/elements/1.1/"
   xmlns:cc="http://creativecommons.org/ns#"
   xmlns:rdf="http://www.w3.org/1999/02/22-rdf-syntax-ns#"
   xmlns:svg="http://www.w3.org/2000/svg"
   xmlns="http://www.w3.org/2000/svg"
   viewBox="0 0 588 666.28467"
   version="1.1"
   width="588pt"
   height="666.28467pt"
   id="svg2">
  <title
     id="title815">Donkey</title>
  <metadata
     id="metadata8">
    <rdf:RDF>
      <cc:Work
         rdf:about="">
        <dc:format>image/svg+xml</dc:format>
        <dc:type
           rdf:resource="http://purl.org/dc/dcmitype/StillImage" />
        <dc:title>Donkey</dc:title>
        <dc:source>https://publicdomainvectors.org/en/free-clipart/Donkey-vector-drawing/82214.html</dc:source>
        <dc:date>2020-03-13</dc:date>
      </cc:Work>
    </rdf:RDF>
  </metadata>
  <defs
     id="defs6" />
  <path
     style="stroke-width:0.28796566"
     d="m 12.777546,3.2673388 c -0.08553,0.018 -0.219718,0.1468 -0.419566,0.442 C 4.9322087,25.695539 -2.5841818,46.571075 2.6423954,69.389475 12.912114,104.84098 41.218275,135.33368 77.078639,145.49598 c 1.34192,15.7575 4.307966,31.4141 4.728396,47.2263 -3.881777,23.8407 -12.797194,46.6562 -16.632897,70.494 -14.703527,6.8306 -20.917826,25.8334 -14.130475,40.3469 3.541978,7.9191 13.092308,14.36037 20.158985,19.19817 1.733554,-0.5471 -1.246891,-1.4686 -1.50894,-2.1309 -12.805833,-9.5605 -22.310089,-28.98907 -13.07503,-43.10797 4.117909,-7.107 11.219142,-14.407 20.21519,-12.9902 2.237493,0.5097 4.377078,1.3909 6.600173,1.964 -1.056834,-1.6386 -4.002723,-2.2577 -4.713998,-3.7062 16.189428,-21.0214 44.004027,-33.5825 70.511267,-30.4062 21.0359,2.7443 41.56785,13.4537 54.31321,30.6193 2.42755,1.9755 -0.95317,3.4412 -1.94665,4.9617 5.81691,-3.4671 13.49695,-3.6917 18.83583,0.8236 8.17247,7.464 13.55743,19.1382 10.86783,30.2824 -2.67578,14.07341 -20.65102,22.74688 -19.60241,23.54438 8.34813,-4.1179 18.09635,-11.70898 21.80822,-20.23278 6.43316,-14.7438 -0.94164,-34.8035 -16.8719,-39.5549 -2.32101,-19.884 -7.27402,-39.3649 -12.57258,-58.6557 -2.13383,-7.3317 -2.54274,-15.0635 -1.32465,-22.6025 1.52334,2.2462 2.7472,4.6996 4.38284,6.868 2.79327,-2.5226 4.99045,-5.5808 7.27401,-8.5295 -2.11078,16.5724 9.11988,32.6121 24.9983,37.1389 -4.1755,-5.3734 -5.55773,-12.4689 -5.15458,-19.1468 4.3742,16.2499 17.27506,31.5092 34.77185,33.3838 -3.6802,-6.4187 -5.1949,-13.6524 -6.44755,-20.866 5.88026,8.5612 18.00361,13.1946 27.71382,10.2833 -7.01773,-2.8797 -9.82539,-10.5252 -11.66261,-17.2952 5.1373,3.6715 11.34584,5.9781 17.65229,4.1899 1.78539,-0.5126 3.48439,-1.2613 5.35616,-1.3535 30.09241,15.8151 65.36821,21.2087 98.945,16.2845 19.78324,-2.6608 38.76018,-9.4424 58.54342,-12.0571 11.72021,-1.46 25.05302,-0.2794 33.80717,8.5871 14.88783,12.7943 26.14728,29.2228 36.19729,45.9305 11.92177,21.0676 20.73352,44.3928 22.46132,68.6971 1.29584,12.4113 -4.03152,24.2467 -11.17307,34.0663 -9.2437,12.7281 -18.4298,26.0609 -22.6629,41.4095 -2.90845,11.0291 -3.59957,24.0451 2.76447,33.98 9.04212,7.4871 20.27278,18.5737 15.9533,31.5322 -13.10244,34.7575 -22.31734,71.9338 -18.22823,109.3118 -8.98453,-4.6651 -18.83295,-7.9191 -28.99814,-8.1207 -4.08911,0.2592 -8.17822,0.5472 -12.20974,1.3535 -7.08396,1.6702 -13.70717,4.9242 -19.69685,9.0997 4.52106,-10.8275 14.08152,-18.1418 20.81991,-27.4143 18.37221,-24.4483 20.10001,-58.9466 7.5447,-86.3609 -9.47407,-17.566 -22.89327,-32.9145 -38.12665,-45.729 -21.74141,-16.5292 -38.44342,-39.3649 -48.34943,-64.7635 -0.48955,-0.9215 -0.51834,-2.2461 -1.38224,-2.8508 2.56289,11.9793 8.14943,23.066 14.16791,33.6344 5.52894,8.6965 11.54742,17.0763 18.57379,24.5922 5.8745,6.4217 12.84326,11.7202 19.2649,17.5659 1.75659,1.4399 -1.55502,2.0446 -2.36132,2.8797 -37.98267,23.8147 -83.8556,32.7705 -128.23111,30.6683 -0.37435,-1.9005 1.06547,-3.6859 1.58381,-5.5001 2.27493,-8.8982 2.27493,-18.7754 -1.52622,-27.2992 -2.90845,-6.1624 -7.45831,-11.7202 -13.27521,-15.3197 8.92693,8.1782 15.75172,19.8984 13.93753,32.4249 -0.11518,11.8066 -8.78295,20.6759 -12.75687,31.2155 -8.95574,21.8278 -13.4768,45.4986 -13.39041,69.0829 -0.25917,14.8303 4.89542,29.027 6.07608,43.6844 0.89269,14.8303 -1.58381,30.726 -10.68353,42.8205 4.26189,-15.2046 -7.26825,-30.3803 -22.02937,-33.4904 -4.92709,-1.2958 -10.08168,-0.8927 -15.06636,-0.1728 -4.15247,1.2671 -8.23294,2.6781 -12.20687,4.4059 2.91421,-16.5004 21.15396,-25.0242 22.80112,-41.9278 2.2087,-12.2097 2.98621,-24.621 3.7378,-36.9748 0.68535,-24.7938 -0.0777,-51.9202 -14.4242,-73.2584 -7.74916,-13.7648 -14.9771,-27.7887 -22.72049,-41.5247 -0.65081,-1.1231 -1.16627,-2.3325 -1.7134,-3.5132 -0.68248,-0.8927 -1.39951,-1.7566 -2.06759,-2.678 3.84434,10.9138 9.56622,21.0502 14.01241,31.705 -6.82191,-4.8666 -12.53227,-11.0867 -18.28294,-17.134 -11.12988,-11.605 -20.37357,-24.7938 -31.14061,-36.7156 -2.32388,-3.4268 -6.5541,-6.9112 -7.83555,-10.1652 5.8601,-4.4059 11.04637,-9.7332 15.147,-15.8381 5.80539,-9.3013 10.78431,-19.4377 12.80583,-30.2652 1.3304,-5.1834 1.78539,-10.5107 2.61761,-15.7517 5.97529,-2.7933 13.13987,-9.0421 10.56834,-16.2125 -2.45347,-3.9739 -7.39208,-0.8927 -8.3798,2.5341 -4.90694,11.1731 -4.09487,23.8436 -8.24158,35.2758 -4.01136,11.0867 -9.65261,21.799 -17.77612,30.4668 -7.3604,7.7175 -17.35569,11.9505 -26.90175,16.27 -9.18611,4.2619 -19.78324,5.9609 -29.66622,3.254 -8.48923,-2.0157 -16.22975,-6.364 -23.8954,-10.3955 -3.84146,-1.9582 -7.40071,-4.4635 -10.490579,-7.4583 -9.77068,-9.4165 -16.457242,-21.655 -20.84008,-34.4119 -3.945129,-11.3171 -3.282808,-24.0452 -9.13427,-34.7287 -1.313124,-3.0524 -7.127151,-4.1467 -7.475589,0.1728 -1.019398,6.2776 4.659284,10.3668 9.214901,13.304 0.76023,3.3404 1.120187,6.7672 1.618367,10.1652 2.534098,21.4822 12.707925,43.2812 31.29611,55.3758 2.58593,0.8351 1.80266,3.8587 2.43043,5.8745 2.5341,14.4559 15.43496,26.1473 30.11257,27.1552 11.31417,0.6623 23.82628,-1.0079 32.63802,-8.8118 5.94074,-5.6153 9.79948,-13.4192 10.35237,-21.6262 -0.75735,-1.7854 2.46211,-4.6939 3.326,-2.2174 11.48983,21.1943 27.72822,39.3362 46.44023,54.3968 2.01,14.5422 5.63548,28.9405 10.90526,42.6765 5.44543,12.1809 6.5397,25.8593 7.0494,39.0481 0.26204,19.0058 -1.95529,39.077 -12.06001,55.6062 -3.68596,2.1021 -6.29781,5.6729 -9.82539,7.8614 -21.75004,3.542 -39.18924,22.1158 -43.2582,43.4829 -0.21021,5.2985 5.98393,7.0551 10.19111,7.4007 11.12699,0.5183 22.0812,-2.0158 32.8972,-4.3195 -5.2093,8.6678 -11.2537,19.3513 -7.08396,29.6029 5.11427,8.8405 16.86615,9.1285 25.90539,10.1364 32.34142,1.5262 60.87594,-27.5584 61.16391,-59.465 1.55501,-20.8199 -7.51591,-40.7759 -5.12579,-61.6246 1.75659,-25.8017 5.73052,-52.6689 19.38009,-75.1302 39.79685,7.4007 81.14872,-2.3614 115.7046,-22.6053 9.87722,12.9008 12.92966,30.2075 12.23854,46.276 1.12307,16.1549 -0.11518,35.1606 -13.21762,46.6217 -8.95573,7.7175 -17.04757,16.414 -25.36978,24.7074 -15.0318,5.5578 -28.24943,18.7754 -29.40129,35.3622 0.40315,3.4556 -0.40315,8.207 2.64928,10.6547 18.51619,5.4426 38.6162,-0.1439 54.39672,-10.5107 9.84842,-5.9321 20.50315,-14.4271 21.94298,-26.6656 2.33252,-26.6944 15.60774,-50.538 27.52952,-73.9496 1.38223,-1.843 1.95816,-4.9818 3.91633,-6.0473 4.49226,20.7047 1.72779,43.5404 -10.05,61.4807 -6.56562,10.6835 -17.47952,18.4298 -22.25975,30.294 -1.15186,3.4556 -4.75143,5.1258 -6.62321,8.1206 -5.96089,8.5526 -10.94269,18.9193 -9.61805,29.6029 0.46074,9.3877 8.23582,17.8826 17.79628,18.2282 14.94542,0.6047 28.79656,-6.2201 41.95659,-12.4689 9.35889,-4.2043 18.02665,-12.1522 19.78325,-22.6629 3.13882,-12.1234 -0.92149,-24.4771 -0.37436,-36.7156 -0.8063,-17.6811 2.99484,-35.0455 5.98969,-52.3522 2.59169,-15.2046 8.49498,-29.5453 13.59198,-44.0299 3.11002,-13.6208 -8.14943,-24.4483 -17.27794,-32.6266 -9.2437,-21.8853 2.99484,-45.4409 15.9245,-63.0068 6.42163,-8.4662 12.98725,-17.2492 16.09728,-27.5296 -0.0864,13.3329 -5.26974,27.50328 -6.68078,41.12408 -4.11719,28.90746 -3.42823,44.15867 -2.00625,40.543 1.65525,-32.91327 4.77069,-47.94628 9.09018,-69.31328 6.47923,-37.2052 -5.50015,-74.9863 -24.64986,-106.6769 9.90602,11.749 17.50831,25.3582 23.4692,39.4945 10.9139,24.8802 9.70444,53.1296 4.60745,79.2769 -4.03152,17.3068 -9.30348,37.31844 -6.76939,55.25874 0.57594,-14.8302 2.07555,-32.27904 6.91337,-46.50454 6.82479,-23.5556 9.70445,-48.695 4.95301,-72.9129 -5.52894,-26.2049 -21.7702,-48.5827 -40.08482,-67.5193 -9.04212,-8.377 -15.72292,-19.0173 -25.39857,-26.7981 -7.68868,-7.2049 -18.22823,-11.1356 -28.76777,-10.6259 -24.70745,1.1432 -47.7735,11.3804 -72.1354,14.6056 -31.61863,3.9451 -65.05144,0.043 -93.58884,-14.7266 0.92149,-0.8553 2.39012,-1.195 3.02364,-2.3469 -13.10244,0.9762 -16.67321,-19.0029 -30.75185,-15.3486 -3.48151,-7.2078 -10.86207,-11.0751 -18.34917,-12.8116 -4.18414,-9.8225 -12.9239,-17.0936 -22.45557,-21.4678 -2.19717,-5.5174 -6.1855,-10.6144 -10.47331,-14.1362 31.34219,-15.7518 55.42187,-46.837705 60.25106,-81.888805 1.27569,-19.2736 -4.32788,-37.331014 -11.66524,-55.2079137 -0.3542,0.5131 -0.61625,0.7973483 -0.65656,1.4271483 7.59653,23.4512994 11.22177,48.5978654 2.98019,72.1534654 -10.62593,31.460305 -35.59831,58.747905 -67.64601,68.792205 0.3398,-3.7292 0.84662,-7.4411 0.98772,-11.1875 0.19006,-3.447 0.51834,-6.8824 0.69112,-10.3322 -0.21022,-4.6247 -0.6364,-9.2696 -1.92937,-13.7331 -0.6796,-1.961 -2.42467,-4.4635 -0.20734,-6.0905 9.62094,-11.916005 17.88267,-25.303505 22.42389,-40.009905 6.07032,-23.8839 19.20443,-47.8945 42.14665,-59.1222999 0.17278,-0.096 0.51546,-0.2902 0.68824,-0.3873 l -0.0461,-0.266 C 248.4153,12.301175 233.17039,34.215375 225.69481,57.007875 c -4.87526,15.6797 -11.21627,31.0225 -20.51756,44.628905 -1.63564,3.0668 -2.81342,-1.6299 -3.8069,-2.732805 3.1561,-2.727 4.60745,-7.6253 1.72203,-11.1068 -4.57577,-4.3858 -11.12123,-5.6931 -17.20595,-6.3785 10.50499,-7.0868 23.51816,-10.1508 33.04118,-18.6256 2.66944,-2.0215 2.15111,-6.4476 -1.03091,-7.4727 -12.59562,-5.3504 -26.9104,-0.4291 -37.36643,7.2798 3.22234,-4.4347 7.34025,-8.9615 7.41224,-14.7612 -0.27933,-3.3202 -4.02576,-4.9299 -7.00621,-4.4116 -8.48059,-0.144 -14.35509,7.3316 -17.69549,13.9836 -3.1993,-9.4769 -8.42587,-18.7264 -16.62137,-24.7218 -4.16975,-3.2944 -11.17019,-3.1504 -14.2975,1.4715 -3.97105,5.3936 -1.95529,12.466 -0.0634,18.2685 -8.50651,-6.1625 -17.98058,-12.4487 -28.76777,-13.16 -6.292049,-0.3485 -15.515591,4.7946 -12.071519,12.1924 6.28053,8.8291 17.329769,12.0888 26.985259,15.9361 -13.83675,-1.2498 -35.797011,-3.4902 -44.260322,11.9131 -3.26841,8.1293 5.690202,14.0556 12.696406,14.9022 -2.041676,2.6839 -3.567894,6.061705 -6.009843,8.316505 C 71.267411,89.818675 63.56145,75.555675 59.411865,60.143775 51.556162,36.573775 37.016776,12.626575 12.772947,3.4836751 27.83643,11.257575 39.57679,24.507475 46.580115,39.847975 c 5.336004,10.1796 7.639729,21.5081 11.757638,32.16 4.938611,12.2011 13.220504,22.6687 22.000577,32.329905 -0.414671,0.9676 -0.895573,1.9092 -1.367837,2.8509 -2.60321,4.5844 -1.889055,12.1953 -3.544857,15.2708 0.996361,2.6061 0.817822,6.8219 0.990602,10.122 0.03744,0.8955 0.06335,1.7911 0.07775,2.6953 l 0.0144,0.3226 c -0.178539,2.7731 1.16914,6.963 0.273567,9.0104 C 45.71334,134.68658 21.737319,108.23408 10.503778,78.089775 1.6776314,54.989175 7.2969036,32.757239 12.019541,8.8705388 c 0.16558,-1.1156 0.352758,-2.2283 0.539936,-3.3407 0.03974,-0.2194 0.115474,-0.6583 0.15147,-0.878 0.14571,-0.4884 0.323385,-1.4387 0.06623,-1.3851 z M 271.85055,7.4926751 c -1.91497,1.2921 -3.54486,2.9375999 -5.09987,4.6293999 -8.7628,11.8858 -14.99726,25.4487 -19.46648,39.4714 -7.35465,25.0012 -14.89935,52.190905 -36.10514,69.310505 12.73384,-8.7398 21.72989,-21.940105 27.61015,-36.050405 10.53378,-22.948 13.72444,-49.0377 28.0421,-70.2233 1.65004,-2.391 3.20793,-4.8602999 5.01924,-7.1386999 z m -259.350515,1.5839 c -0.19956,0 -0.380403,0.1186 -0.513155,0.4538 12.512108,13.4225999 18.233986,31.4544999 23.463442,48.6517999 7.72036,23.3367 16.474516,49.305505 38.143932,63.156605 C 53.379065,106.09388 45.589593,80.997675 38.692816,57.813575 33.932743,40.406075 26.385163,23.202975 13.772267,10.025675 13.467888,9.7065751 12.938895,9.0842751 12.500035,9.0753751 Z M 136.13521,35.353375 c 13.39328,-0.118 20.90343,14.7928 26.35174,24.9695 4.68232,-5.6729 10.05864,-12.4574 17.81356,-14.1852 2.03015,-0.5874 4.44906,1.1893 3.77522,3.4844 -0.63064,5.768 -2.58305,11.9938 -6.8075,16.1923 10.10183,-4.6765 21.42176,-8.4143 32.64378,-7.2077 3.83571,0.9646 0.2419,5.0883 -1.72779,6.1077 -9.77931,5.9695 -22.82992,9.0767 -28.80233,19.7055 6.86799,1.6414 15.81796,0.052 21.58303,5.5376 2.44771,2.2605 0.0173,5.8831 -2.51106,6.7672 -6.97741,2.9343 -15.30537,2.2 -21.88539,-1.4427 -1.07123,-0.4349 -1.14898,-1.653 -1.50318,-2.5946 -2.05896,11.936205 -6.67217,31.316305 -22.01786,33.933905 1.3736,1.7594 3.30009,2.8191 5.40224,3.4325 -5.97529,1.3189 -9.92618,-4.5527 -11.57334,-9.4309 -1.27569,-4.5412 -3.93937,-9.6094 -1.4859,-14.2399 -0.0173,-0.478 0.023,-0.9503 0.0432,-1.4225 -6.24597,10.5827 -14.25718,20.2267 -24.03649,27.7253 -4.04304,2.799 -8.42876,6.0444 -13.61214,5.8054 0.28509,1.5723 0.71704,3.1244 1.03956,4.6938 -7.34025,-2.8566 -5.2381,-12.3537 -3.53622,-18.3376 3.23385,-7.8701 7.3604,-15.5415 13.37313,-21.6637 -6.70673,3.254 -9.02773,11.775 -15.43496,15.6481 -5.767959,4.092 -13.128358,8.8405 -20.399491,6.341 -0.161261,1.8718 0.276447,3.6946 0.84086,5.4541 -4.722637,-2.4593 -3.668683,-9.3416 -2.297966,-13.4883 4.120788,-9.9694 12.480428,-19.210205 22.372047,-23.348305 4.14671,-0.9791 8.76568,-1.4744 12.2875,-4.0805 -11.39768,0.4579 -24.661379,3.0755 -35.235478,-3.4009 -3.386477,-1.7047 -5.7046,-6.7009 -1.739313,-9.3128 13.635172,-10.6748 32.758971,-7.8211 48.539491,-7.4842 -11.76628,-4.7428 -24.46556,-10.0903 -31.768369,-21.0532 -1.91497,-2.5801 0.0144,-4.881 2.66656,-5.3388 11.256579,-2.2635 21.839319,4.2705 31.575429,8.9787 4.73992,1.509 4.30221,7.6542 7.92482,10.4186 -2.82494,-8.4662 -8.18686,-18.8992 -2.49954,-27.1465 0.21597,-0.01 0.42907,-0.014 0.64216,-0.017 z m -37.009349,59.2806 c -5.35904,3.3376 -10.853421,6.764405 -14.859024,11.743305 -0.420429,0.74 -1.603968,0.2879 -1.25841,-0.5702 1.583812,-4.0171 3.887537,-7.780805 6.551219,-11.170205 3.187785,0.1958 6.381315,0.288 9.566215,0 z m 76.598869,2.5428 c 6.50802,3.622605 14.11896,6.139405 21.57727,4.290705 8.13791,11.5215 6.33812,26.5274 5.45119,39.8573 -0.84086,17.5141 -3.51894,34.9446 -3.49591,52.4817 3.46135,18.3895 9.35313,36.2146 13.22915,54.5263 -8.33949,-10.9369 -19.67382,-19.3628 -31.63879,-25.6664 -12.56682,-5.2409 -25.82764,-9.6583 -39.5636,-9.9578 -19.73141,1.1288 -39.31883,8.0371 -55.156944,19.5817 -5.134428,4.9789 -11.0694,9.739 -15.884186,15.1758 3.513181,-16.3306 9.344485,-32.0477 13.776277,-48.1335 2.205817,-7.729 1.125946,-15.7661 0.564413,-23.6333 -1.324642,-14.79 -2.303726,-29.6375 -3.971047,-44.3813 2.384356,1.6702 5.307207,1.699 8.094715,1.3966 4.935733,-1.5867 9.767793,-5.0106 14.064242,-8.2646 -2.27205,6.2201 -4.181259,15.5473 2.14822,20.1115 6.4418,4.2821 14.57107,0.086 19.51256,-4.5297 8.58137,-7.4928 15.41768,-17.1483 19.47511,-27.8088 0.50106,8.1811 2.84799,19.789 12.65898,21.2 10.57697,0.504 16.46587,-10.4733 18.21382,-19.5125 0.73432,-5.5405 1.36496,-11.1242 0.94453,-16.733705 z m 45.24805,42.999005 c 0.59032,-0.01 1.12594,0.239 1.56365,0.9071 7.26249,5.4944 9.6958,15.1614 9.57198,23.8695 1.78826,14.6517 -3.90194,29.1853 -1.19506,43.7852 -6.66641,-10.1739 -8.29629,-22.6889 -10.27749,-34.4609 -0.78327,-4.8637 -3.65429,-11.2422 -9.46256,-11.0089 2.72128,7.6051 -0.20733,16.1894 -3.06971,23.3943 -4.36268,-13.4192 3.06683,-28.0623 0.81782,-41.9566 2.33252,-1.0194 4.77159,-1.7825 7.18187,-2.5888 1.50318,-0.2995 3.36343,-1.9323 4.8695,-1.9409 z m 13.44511,14.9541 c 3.6946,1.6442 6.81327,4.4404 9.45391,7.4468 3.88178,2.9689 6.59442,7.4698 8.67929,11.8785 1.85738,16.2269 3.88754,32.4854 7.73188,48.3898 0.56441,1.2584 -0.82358,0.8408 -1.41103,0.3168 -13.10244,-9.7016 -18.71201,-26.2625 -20.81992,-41.8184 -0.45787,-6.6664 -4.01136,-12.7655 -2.84798,-19.5759 -0.006,-2.2404 -0.42043,-4.4405 -0.78615,-6.6376 z m -71.17647,14.1391 c -7.70308,0.9589 -9.23218,12.6791 -2.86814,16.3939 3.44119,2.1856 8.4086,0.3542 9.98953,-3.3001 3.11291,-5.1776 -0.82646,-13.1658 -7.12139,-13.0938 z m -43.50873,0.052 c -9.08532,1.3736 -10.87359,17.8136 -0.42907,18.6976 10.53378,-0.4722 9.18898,-16.5436 0.42907,-18.6976 z m -5.75932,5.9033 c 0.54426,2.776 1.26129,6.5829 4.49803,7.323 2.83646,0.8725 4.40587,-1.8603 5.92345,-3.6629 -0.64216,2.8278 -2.3498,6.4677 -5.75931,6.3266 -4.45483,-0.6969 -5.95801,-6.1769 -4.66217,-9.9867 z m 43.77366,0.455 c 1.077,2.0042 1.36208,6.2201 4.62761,6.8795 2.93149,0.8696 4.53546,-1.7393 5.93497,-3.6917 -0.53849,2.5686 -2.71839,5.3821 -5.64412,4.9443 -3.63989,-0.7717 -4.86086,-4.8896 -4.91846,-8.1321 z m 99.39711,1.0165 c 4.67944,1.7508 9.9521,4.2475 11.21626,9.6209 3.7234,10.9485 7.67429,21.9315 13.96922,31.7108 -9.19762,-2.3987 -16.20959,-10.5021 -18.57667,-19.5557 -1.60972,-5.8083 -4.06895,-11.3891 -5.37919,-17.2664 -0.52986,-1.4773 -0.99925,-2.9661 -1.22962,-4.5096 z m 18.31462,12.61 c 11.16155,1.0079 16.71928,14.3321 28.09393,14.6488 -11.69141,3.0294 -23.78885,-3.5938 -28.09393,-14.6488 z m -133.95011,25.4965 c 6.7096,0.052 13.39328,1.0741 19.87251,3.2627 7.16171,1.8314 14.2255,4.4634 20.56939,8.2531 12.43148,6.5972 24.94934,15.3802 31.69638,28.0219 0.30524,2.7587 0.90421,5.4973 0.87829,8.2876 -2.74431,-0.1756 -5.34464,0.8006 -8.02272,1.0281 -14.42132,-20.6155 -39.15181,-32.5286 -63.97445,-33.8907 -20.54635,0.3888 -40.6118,8.6908 -56.072674,22.0783 -3.052436,3.5737 -6.770072,6.9544 -9.736119,10.7843 -3.092751,-0.6421 -6.317966,-1.0568 -9.38768,-0.04 -0.259169,-12.0398 9.868583,-20.3015 18.242624,-27.3135 15.489669,-12.0571 35.811409,-20.6299 55.934449,-20.4715 z m -1.1749,42.7428 h -1.11443 c -8.662,0.1181 -17.15699,2.6176 -23.53543,8.7427 13.37888,-5.7478 28.96647,-7.873 43.13438,-3.9365 2.4765,0.527 4.82342,1.5147 7.26825,2.1655 -2.84798,-2.0014 -6.31797,-2.8394 -9.45967,-4.2734 -5.12579,-1.6386 -10.7296,-2.6493 -16.2931,-2.7011 z m -2.52258,6.5512 c -0.0749,0.012 -0.14686,0.118 -0.20157,0.3772 -1.70476,26.0753 1.26129,52.0498 2.87965,78.0243 0.39164,1.6414 -0.12958,4.0603 0.74871,5.0682 0.34268,-8.5238 0.41755,-17.0764 0.85526,-25.6289 0.0202,-18.977 0.31676,-38.072 -3.73203,-56.7264 -0.0432,-0.3081 -0.31965,-1.149 -0.55002,-1.1144 z m 26.88448,99.7686 c -11.43224,10.5107 -29.44449,10.9426 -42.33096,2.966 -1.33904,-0.7775 -5.74779,-4.7226 -3.78674,-1.5838 11.00028,13.8511 33.16788,12.5553 45.00615,0.4031 0.37147,-0.6047 0.74295,-1.1806 1.11155,-1.7853 z m 13.00165,17.3643 c -1.14899,11.5474 -9.13715,22.7205 -20.61835,25.8017 -7.69732,2.0158 -16.15775,2.8509 -23.88675,0.7199 -12.42572,-1.843 -23.04589,-11.3458 -26.73761,-23.354 -0.22461,-0.6911 -0.40027,-1.411 -0.53562,-2.1309 11.78068,5.5289 24.06242,11.8353 37.47298,11.1154 12.48331,-0.058 23.39721,-7.0551 34.30535,-12.1521 z m 373.54905,48.0327 c -0.25917,0 -0.51834,0 -0.7775,0.029 -0.60473,0.6047 -4.2043,0.4607 -2.5629,1.8717 -1.55501,-1.0654 -3.80115,2.3613 -3.05244,-1.1518 -10.71232,26.464 1.03668,58.9753 25.11061,73.8344 1.46863,0.6623 0.97908,-0.7487 0.8063,-1.7854 4.92422,3.7435 10.85631,5.4425 16.87479,6.3064 0.51834,-0.2879 -0.46074,-0.6335 -0.11518,-1.123 -4.43468,-1.0943 -9.09972,-3.3404 -11.17307,-7.6599 -5.8457,-10.8851 -9.35889,-23.4116 -18.51619,-32.2234 -7.02637,-9.8196 -14.71505,-23.6708 -9.07092,-35.5062 -0.0864,-0.2015 -0.20158,-0.6047 -0.25917,-0.8063 8.49499,-1.5262 15.80931,4.6075 21.13668,10.482 7.14155,7.4295 13.64826,22.01796 17.44941,31.46326 0.23037,0.2591 -0.0417,1.10883 0.71991,0.7775 -2.62049,-10.5108 -8.89683,-26.10706 -15.95199,-34.45806 -4.86662,-6.2489 -12.69928,-10.1364 -20.61834,-10.05 z m -100.38483,6.9975 c 15.83811,15.4926 32.85688,32.7417 37.26276,55.3182 -8.00545,10.1076 -14.97422,21.3383 -21.07909,32.7993 -6.93997,14.8014 -10.39556,31.0139 -11.7202,47.2264 -7.91906,-7.8903 -19.46648,-11.2883 -30.46677,-10.626 -1.46862,0.086 -2.85086,0.3168 -4.29069,0.4608 -3.77235,0.7487 -7.5447,1.5262 -11.14427,2.9084 8.86935,-9.1861 18.97694,-17.1051 28.71018,-25.3121 8.89814,-9.0134 12.26734,-21.9718 12.84327,-34.3255 0.51834,-14.6287 0.28796,-30.1788 -6.7384,-43.4541 -2.30372,-5.1545 -5.8745,-9.9636 -9.2149,-14.6286 5.44255,-3.1964 10.76992,-6.5944 15.83811,-10.3668 z m -220.75735,0 c 4.26765,3.6284 10.56834,5.5866 12.28173,11.4611 4.87238,11.6914 12.71657,22.1733 15.25354,34.7574 6.99469,27.0112 6.00409,55.2894 3.40952,82.8477 -0.37148,6.2489 -2.04456,12.7857 -6.05592,17.6523 -4.95301,-2.4189 -10.60002,-3.1964 -15.88419,-3.8011 -2.31524,-0.029 -4.62473,0 -6.92845,-0.144 -1.45423,-0.1728 -8.37404,1.6414 -4.53258,-1.0943 9.93481,-5.8169 14.18231,-17.3355 17.49391,-27.7887 5.52894,-21.5686 6.61745,-44.577 1.44559,-66.3185 -3.93937,-10.2515 -8.71672,-20.1863 -11.9189,-30.6971 -1.74219,-5.5577 -3.3116,-11.1731 -4.56425,-16.8748 z m 340.57698,26.2337 c 1.55502,3.4844 4.63625,6.3064 7.89026,8.2646 1.58382,0.8351 3.71476,1.4686 3.48439,3.7724 1.72779,10.4819 -2.73826,26.98239 5.06819,33.40143 -2.27492,-11.0003 1.58382,-24.96403 -4.52106,-35.10043 0.66232,-0.432 6.7384,3.0812 5.12579,0.4607 -6.42163,-1.9294 -10.28037,-9.0709 -17.04757,-10.7987 z m -144.01162,101.9686 c 1.49742,12.325 -3.05244,25.2546 -12.29614,33.6056 -7.45831,7.084 -18.66017,11.0579 -28.30702,11.0291 -1.46863,-0.6047 -4.14671,-0.288 -3.85874,-2.5629 -2.24613,-16.3276 10.97149,-29.9196 24.82264,-36.1973 5.8745,-2.8796 12.81447,-5.5865 19.63926,-5.8745 z m 64.90746,14.2255 c 4.46347,0 8.92693,0.6048 13.18882,1.8718 7.08396,12.2674 2.36132,27.9615 -6.56561,37.9827 -11.08668,11.4898 -26.95359,23.0948 -43.82838,18.545 -7.42951,-2.4189 -10.91389,-11.0579 -10.05,-18.3434 2.13095,-15.0031 11.60502,-28.9118 25.65774,-35.1031 6.68081,-3.1964 14.16791,-4.9242 21.59743,-4.953 z m -256.05619,3.1677 c -0.21885,0.7487 -1.33904,0.8063 -1.97256,1.1806 0.19869,18.4874 -11.91314,36.5429 -28.09105,45.1242 -4.92998,0.9503 -10.47908,1.2383 -15.37449,-0.1727 -2.52258,-0.1728 -5.61821,-1.2383 -6.31221,-3.974 5.96953,-23.21 28.0277,-40.5743 51.75031,-42.1581 z m 20.73641,27.875 c 6.50226,0.029 12.98437,1.4687 18.85311,4.3771 -2.34404,21.1655 -17.33553,40.2576 -37.49025,47.284 -4.97317,2.9948 -11.36025,0.6623 -15.27946,-2.7357 -5.91481,-5.7305 -4.53258,-14.8878 -1.70187,-21.799 4.23885,-9.7908 10.64897,-20.1864 20.69321,-24.6787 4.80039,-1.6414 9.86858,-2.4765 14.92526,-2.4477 z"
     id="path4" />
</svg>
