<?xml version="1.0" encoding="UTF-8" standalone="no"?>
<svg
   xmlns:dc="http://purl.org/dc/elements/1.1/"
   xmlns:cc="http://creativecommons.org/ns#"
   xmlns:rdf="http://www.w3.org/1999/02/22-rdf-syntax-ns#"
   xmlns:svg="http://www.w3.org/2000/svg"
   xmlns="http://www.w3.org/2000/svg"
   id="svg4403"
   version="1.1"
   viewBox="0 0 210 297"
   height="297mm"
   width="210mm">
  <title
     id="title4989">E is for egg</title>
  <defs
     id="defs4397" />
  <metadata
     id="metadata4400">
    <rdf:RDF>
      <cc:Work
         rdf:about="">
        <dc:format>image/svg+xml</dc:format>
        <dc:type
           rdf:resource="http://purl.org/dc/dcmitype/StillImage" />
        <dc:title>E is for egg</dc:title>
        <dc:source>http://www.supercoloring.com/coloring-pages/letter-e-is-for-egg</dc:source>
        <dc:creator>
          <cc:Agent>
            <dc:title>Lena London</dc:title>
          </cc:Agent>
        </dc:creator>
        <dc:date>2020-04-05</dc:date>
        <dc:subject>
          <rdf:Bag>
            <rdf:li>csk</rdf:li>
            <rdf:li>easter</rdf:li>
            <rdf:li>egg</rdf:li>
            <rdf:li>letters</rdf:li>
          </rdf:Bag>
        </dc:subject>
      </cc:Work>
    </rdf:RDF>
  </metadata>
  <g
     id="layer1">
    <path
       id="path4976"
       d="m 13.506146,6.0804753 v 0.017571 0.6345864 30.0255583 0.09663 0.0088 0.317293 30.448271 h 21.88497 0.403074 0.01963 21.520134 0.748792 L 57.679153,64.686211 C 57.4725,63.17852 57.306913,61.379187 57.284344,60.468899 l 0.05168,-1.086239 h -0.06046 V 58.748579 H 44.906292 33.867687 l -1.331185,-0.0181 V 48.5988 38.449547 h 8.547799 0.679029 8.534879 0.05788 0.634072 l -0.187587,-4.281908 -0.187585,-4.281908 -0.316777,-0.0062 v -0.310576 h -8.88111 -7.078123 l -1.802474,-0.03514 v -6.9603 -0.299723 -6.660576 h 10.78384 10.783837 v -0.63406 h 0.05788 l -0.05788,-1.321366 v -1.813326 c 0,-1.085822 0.06344,-1.9399597 0,-2.6153439 V 6.0980452 H 33.805161 15.619707 Z m 1.903243,1.9208128 h 18.011819 0.383958 18.262449 l 0.133326,1.3962972 v 1.1410157 0.317293 2.22002 H 41.417104 30.633264 V 13.7105 h -0.03566 l 0.03566,1.760616 v 6.802686 0.317293 6.494694 l -0.03617,1.716691 0.03617,5.29e-4 v 0.668694 h 9.198407 7.392312 l 1.170988,0.02273 v 2.514576 2.515092 l -1.141532,0.02223 h -7.421768 -9.198407 v 0.634585 h -0.02842 l 0.02842,1.900661 v 9.503812 0.01344 10.129615 l -0.0279,1.922878 h 0.0279 12.295892 0.0739 c 10.055971,4.2e-5 11.839815,0.01146 12.369786,0.820105 v 1.717209 2.074291 c -1.408837,0.422466 -5.877988,0.463021 -19.664431,0.463021 H 15.409389 V 36.863607 Z m 63.46796,12.6901809 c -5.848453,0.0043 -8.94439,0.794828 -12.868981,3.285071 -8.564552,5.434411 -12.810299,19.139306 -9.403562,30.355253 1.093216,3.599172 1.829052,4.937956 4.322734,7.517887 0.486637,0.545044 1.007324,1.061048 1.555977,1.551326 2.410802,2.302137 3.964903,3.216516 6.896738,4.164605 2.522733,0.815795 4.448506,1.138417 7.594883,1.183389 1.522225,0.102547 3.029908,0.07777 4.497917,-0.06615 4.297944,-0.150948 5.519319,-0.489866 8.49509,-2.013313 4.822352,-2.468803 6.983339,-5.250246 7.62589,-10.088274 0.169095,-0.950282 0.261532,-1.948248 0.265618,-2.99775 l 0.0031,-0.752925 0.145212,-2.877859 -2.763139,-0.711068 C 91.662754,48.319866 91.10602,48.118089 93.035139,48.044834 l 0.931212,-0.01707 2.025198,-0.03773 1.391647,-0.02532 -0.02585,-0.634585 h 0.05478 l -0.01551,-0.295074 c 0.08832,-0.197514 0.160518,-0.434414 0.232543,-0.721402 0.642278,-2.559039 -0.258885,-10.003697 -1.666566,-13.766072 -1.518753,-4.059227 -4.341993,-7.479964 -7.865155,-9.590628 -0.03799,-0.02334 -0.0766,-0.04538 -0.114721,-0.06821 -0.176681,-0.103966 -0.354772,-0.2045 -0.53485,-0.30179 -0.04491,-0.02372 -0.0897,-0.04823 -0.134876,-0.07131 -0.116557,-0.0616 -0.231431,-0.126765 -0.349332,-0.185519 -2.673213,-1.332117 -4.198649,-1.641559 -8.086328,-1.638659 z m 0.03721,1.959054 c 5.00081,-0.03504 7.716417,1.177413 11.089246,4.638994 3.945606,4.049429 5.332491,7.723931 5.332491,14.127818 v 4.627626 l -1.154967,0.01654 H 83.914767 71.70621 71.677272 l 0.05116,0.66249 -0.02376,5.29e-4 0.06977,0.638723 0.209804,3.986318 c 0.4435,8.449744 3.448489,12.184176 9.75496,12.122774 2.900002,-0.02823 3.732283,-0.319357 5.353679,-1.872752 0.219245,-0.21005 0.425569,-0.439762 0.62425,-0.679546 0.02609,-0.02998 0.05087,-0.06144 0.07648,-0.09199 0.03716,-0.04614 0.07523,-0.09086 0.11162,-0.137974 0.19875,-0.250505 0.383974,-0.51665 0.551905,-0.803053 1.330785,-2.152034 1.962777,-5.008594 1.605071,-7.675499 -0.132948,-0.991182 -0.159882,-1.591789 -0.05995,-1.903243 0.08956,-0.122479 0.199015,-0.211013 0.336415,-0.266134 0.07262,0.0035 0.154864,0.02225 0.249079,0.05839 0.468829,0.179909 1.87176,0.518163 3.117641,0.751893 0.43915,0.08238 0.789869,0.152861 1.075386,0.234093 0.404026,0.201176 0.732171,0.428371 0.981334,0.701249 0.193958,0.433314 0.208256,1.118206 0.208256,2.293919 0,1.542365 -0.392829,3.744471 -0.872813,4.893241 -1.18039,2.825083 -5.115221,5.95254 -8.915735,7.086388 -1.63207,0.486918 -4.789382,0.868307 -7.215579,0.886767 -1.210575,-0.01503 -2.363971,-0.07201 -3.458705,-0.175699 -9.920502,-1.089424 -16.313158,-7.06274 -17.737937,-16.161805 -0.07284,-1.023686 -0.1135,-2.174209 -0.130741,-3.489709 -0.0011,-0.349462 -0.004,-0.672923 -0.0026,-1.059365 0.0051,-1.41279 0.05519,-2.699147 0.151929,-3.896921 0.024,-0.170905 0.04769,-0.34195 0.07441,-0.514181 1.731102,-11.157227 8.547771,-18.114966 18.466572,-18.886185 0.234516,-0.01507 0.463351,-0.03204 0.707967,-0.04444 0.458536,-0.02324 0.853707,-0.03883 1.249018,-0.05426 0.210392,-0.0055 0.425699,-0.01356 0.628386,-0.01499 z m 57.190301,0.574642 c -0.20474,0 -0.42185,0.04391 -0.64234,0.116272 -0.62919,0.142216 -1.25706,0.433857 -1.70377,0.880566 -0.54825,0.548249 -0.99684,1.369873 -0.99684,1.825729 0,0.455853 -0.6383,1.252916 -1.41851,1.770951 -0.95058,0.631156 -1.20388,0.947786 -0.92139,1.472261 -0.0406,0.09204 0.003,0.151995 0.11782,0.190169 0.0617,0.0885 0.13472,0.182335 0.22014,0.285256 0.69332,0.835406 0.65512,1.811766 -0.22428,5.764503 -0.29319,1.318443 -0.50497,2.601542 -0.61081,3.605467 -0.204,0.967716 -0.33435,1.60941 -0.33435,1.659847 0,0.05746 0.12505,0.107585 0.31264,0.142627 0.0127,0.0461 0.0271,0.08507 0.0445,0.11317 0.82192,1.329893 2.03077,-1.142762 2.87889,-5.88853 0.65855,-3.68505 1.045,-4.53798 2.26756,-5.002794 1.73144,-0.658294 1.89289,-1.563267 0.42478,-2.384867 -0.6997,-0.391573 -0.85745,-1.064022 -0.6258,-1.633493 0.29971,-0.385901 0.74298,-0.736115 1.30483,-0.982885 0.11195,-0.01869 0.22786,-0.03101 0.35037,-0.03101 0.72251,0 1.28829,-0.417848 1.28829,-0.951364 0,-0.595201 -0.61172,-0.90219 -1.39268,-0.932242 -5.3e-4,-2e-5 -10e-4,1.9e-5 -0.002,0 -0.0215,-0.0024 -0.043,-0.0048 -0.0651,-0.0067 -0.0417,-0.0056 -0.083,-0.01292 -0.12609,-0.01292 -0.0142,0 -0.0304,0.004 -0.045,0.0047 -0.0344,-0.0011 -0.0655,-0.0047 -0.10128,-0.0047 z m -20.06906,0.634586 c -0.37191,0 -0.69669,0.102982 -0.95033,0.272335 -0.0201,0.01081 -0.0405,0.01765 -0.0605,0.02997 -0.22584,0.139576 -0.35255,0.284139 -0.38189,0.456303 -0.1828,0.350658 -0.18679,0.776803 0.061,1.177706 0.3436,0.555949 0.9349,0.585088 1.40767,0.24753 0.12802,-0.04338 0.25556,-0.124822 0.38447,-0.253731 0.11044,-0.11044 0.18307,-0.230919 0.22634,-0.355017 0.0678,-0.11562 0.0837,-0.254333 0.0398,-0.403593 0.01,-0.03803 0.0213,-0.07473 0.0289,-0.114205 0.11867,-0.611866 -0.19973,-1.0573 -0.75551,-1.0573 z m -37.991988,1.903243 c -3.315684,0 -5.405545,4.03644 -5.985681,11.559502 l -0.272336,3.530017 -0.08423,0.768946 h 0.02479 l -0.05271,0.682127 6.280753,-0.182417 6.280753,-0.182935 -0.22996,-5.074627 c -0.3015,-6.653585 -1.602065,-10.001969 -4.341338,-10.868586 -0.401643,-0.152419 -0.82739,-0.232027 -1.276925,-0.232027 -0.0495,0 -0.09784,0.0035 -0.146759,0.0052 -0.06527,-0.0019 -0.129844,-0.0052 -0.196371,-0.0052 z M 141.5743,27.66572 c -1.85699,0 -4.18356,1.311132 -4.90927,2.76624 -1.25584,2.518135 -1.13862,5.616516 0.26562,7.020761 0.33112,0.331115 0.7927,0.573386 1.31362,0.731221 0.49979,0.201033 1.03172,0.265464 1.56786,0.211357 0.93756,-0.01378 1.87228,-0.261506 2.51974,-0.758611 3.60953,-2.771314 3.06257,-9.970968 -0.75757,-9.970968 z m 10.30169,0 c -0.66901,0 -1.39363,0.28739 -1.66811,0.648023 -0.31458,0.02238 -0.62186,0.03444 -0.91106,0.03979 -0.0313,-0.04394 -0.0622,-0.08659 -0.0946,-0.139009 -0.34591,-0.559708 -0.73335,-0.637961 -1.12086,-0.226343 -0.77909,0.827577 -2.65892,9.271066 -2.22157,9.97872 0.65805,1.064742 1.75703,0.05422 2.28152,-2.098063 0.98425,-4.038934 1.85044,-5.590612 3.23081,-5.788277 0.56453,-0.08084 0.99627,-0.34754 1.26969,-0.675928 0.19577,-0.116126 0.29633,-0.286303 0.27336,-0.491961 0.20411,-0.618815 -0.0949,-1.246952 -1.03921,-1.246952 z m -36.83082,0.03566 c -0.15856,0.0067 -0.34212,0.07336 -0.55036,0.202054 -0.76973,0.475721 -2.29125,8.320225 -1.84123,9.492962 0.0921,0.239963 0.43896,0.436364 0.94981,0.588594 0.15324,0.112456 0.31759,0.209767 0.48318,0.286287 0.0181,0.0087 0.0362,0.0182 0.0543,0.02635 0.0127,0.0055 0.0251,0.0098 0.0377,0.01497 0.19714,0.08497 0.38679,0.136941 0.54519,0.136941 0.008,0 0.0152,-0.0011 0.0233,-0.0011 0.004,6.4e-5 0.01,0.0011 0.0139,0.0011 0.0142,0 0.0265,-0.0035 0.0403,-0.0041 0.25688,-0.0092 0.47389,-0.06186 0.64802,-0.146243 0.77579,0.0705 1.6333,0.09382 2.47944,0.06769 0.44229,0.131982 0.99988,0.118067 1.58543,0.0041 0.44277,-0.02257 0.86686,-0.129717 1.27279,-0.324011 0.6861,-0.153122 1.2257,-0.357013 1.48673,-0.618051 0.443,-0.443 0.72564,-0.884534 0.84646,-1.343586 0.0814,-0.183409 0.12712,-0.369411 0.12712,-0.555006 0,-0.131043 -0.0462,-0.301995 -0.12815,-0.497644 -0.17187,-0.706922 -0.67618,-1.476605 -1.52704,-2.364713 -1.8912,-1.973988 -1.5029,-3.392636 0.77256,-2.821533 1.11084,0.278802 1.5167,0.117801 1.5167,-0.602546 0,-0.06108 -0.005,-0.118962 -0.0108,-0.176218 0.007,-0.01945 0.0108,-0.03945 0.0108,-0.05943 0,-0.123711 -0.0393,-0.235659 -0.10903,-0.336412 -0.70745,-1.698041 -4.68658,-1.043459 -5.7304,1.247468 -0.64145,1.407824 -0.4919,1.821754 1.34513,3.717086 1.11256,1.147871 1.57407,1.983838 1.40715,2.444295 -0.23399,0.189799 -0.60431,0.327993 -1.10122,0.402558 -0.33927,-0.01738 -0.75012,-0.08331 -1.23972,-0.206187 -0.85239,-0.213937 -1.54977,-0.12495 -1.54977,0.197919 0,0.322871 -0.53054,0.448178 -1.17926,0.278537 -0.19208,-0.05023 -0.34936,-0.100758 -0.47749,-0.167949 -0.0461,-0.03715 -0.0964,-0.06985 -0.15141,-0.09819 l -5.3e-4,-5.29e-4 c -0.43599,-0.369895 -0.30514,-1.209476 0.2713,-3.955833 0.66172,-3.152669 0.53529,-4.865933 -0.32091,-4.829677 z m -36.551772,0.211873 c 2.137217,0.09504 3.511775,3.388725 3.51813,8.79171 h -5.29e-4 l 0.0041,3.013255 h -4.16202 -4.08037 l 0.0041,-0.627354 0.328147,-2.385901 c 0.782767,-5.697104 1.56179,-7.795308 3.165697,-8.526092 0.352711,-0.160708 0.691047,-0.248008 1.013375,-0.264584 0.07051,-0.0036 0.140348,-0.0041 0.209291,-0.0011 z m 62.303682,1.767334 c 0.0139,0.0016 0.0246,0.0016 0.0388,0.0031 0.0117,0.0013 0.02,0.0033 0.0315,0.0047 0.17428,0.05495 0.36191,0.149595 0.57723,0.284736 1.11795,0.701673 1.36067,3.194405 0.6506,4.847768 -0.0346,0.06056 -0.0676,0.125491 -0.10387,0.180866 -0.46683,0.712475 -1.14351,1.208289 -1.82056,1.429888 -0.20169,0.05749 -0.40136,0.09243 -0.59479,0.10542 -0.52515,0.01791 -1.01353,-0.110746 -1.3162,-0.413411 -0.20348,-0.203481 -0.3748,-1.068769 -0.41445,-2.024682 v -5.29e-4 c 0.0975,-1.167254 0.53903,-2.518614 1.2206,-3.349149 0.0752,-0.09159 0.1412,-0.165306 0.21033,-0.244945 0.4742,-0.452221 1.01078,-0.740805 1.52083,-0.823722 z m -26.43094,15.688964 v 0.05788 h -0.63407 v 8.774658 c 0,1.576895 0.0219,3.061695 0.0574,4.379579 l -0.0935,4.606954 h 0.38654 c 0.0236,0.109291 0.0476,0.186613 0.0724,0.211357 v 5.29e-4 c 0.23259,0.232593 2.51613,0.422714 5.07463,0.422712 4.22892,2e-6 4.65191,-0.115314 4.65191,-1.268656 0,-0.07948 -0.003,-0.152736 -0.008,-0.222724 0.004,-0.03096 0.008,-0.06147 0.008,-0.09457 0,-0.198072 -0.0633,-0.357335 -0.20877,-0.485756 -0.34931,-0.396534 -1.24476,-0.465003 -3.43855,-0.464572 h -0.0563 c -0.0367,-6.8e-5 -0.065,-0.0011 -0.10232,-0.0011 h -2.60139 l -0.88728,-0.04702 v -2.648386 -2.696474 l 3.17138,-0.317294 c 0.0108,-0.0011 0.0193,-0.0026 0.03,-0.0036 1.8014,-0.01246 2.49659,-0.126998 2.7218,-0.619599 0.28723,-0.176734 0.42013,-0.388572 0.42013,-0.645441 0,-0.256865 -0.1329,-0.468704 -0.42013,-0.645437 -0.22521,-0.492602 -0.9204,-0.607134 -2.7218,-0.619602 -0.0107,-0.0011 -0.0192,-0.0026 -0.03,-0.0036 -3.14149,-0.314148 -3.17138,-0.33827 -3.17138,-2.537312 0,-2.198455 0.0305,-2.223249 3.16569,-2.537315 1.93326,-0.193659 2.86131,-0.474903 3.21893,-1.025776 0.0293,-0.02363 0.054,-0.04839 0.0739,-0.07441 0.13965,-0.128773 0.20154,-0.2881 0.20154,-0.485759 0,-0.0043 -10e-4,-0.0081 -10e-4,-0.01241 8e-5,-0.0053 10e-4,-0.01011 10e-4,-0.0155 0,-0.37393 -0.17438,-0.602943 -0.73122,-0.727604 -0.0432,-0.01098 -0.093,-0.02066 -0.14159,-0.03049 -0.57613,-0.116586 -1.57092,-0.153718 -3.11816,-0.161748 -0.15331,-7.94e-4 -0.28456,-0.0036 -0.44907,-0.0036 h -0.27078 -2.84841 z M 73.598088,47.96474 h 6.845061 c 4.575207,-0.0011 6.509359,-0.03961 7.315314,1.004075 l 0.03256,0.262515 0.05943,1.112078 c 0.324009,6.086062 -0.254886,8.695063 -2.198314,9.907405 -3.62457,2.261068 -8.200882,1.398614 -10.124964,-1.907895 -0.637289,-1.095179 -1.334916,-3.878172 -1.550294,-6.184635 l -0.336413,-3.601847 z m 57.962352,2.050005 c -3.03868,-0.03975 -5.77588,3.140885 -5.77588,7.15822 0,1.214594 0.22699,2.306611 0.62425,3.242696 0.0714,0.20256 0.16064,0.386678 0.26666,0.563272 v 5.29e-4 c 1.4398,2.681015 4.41839,3.781028 7.39696,2.186945 0.92003,-0.492387 1.17945,-0.450151 1.21905,0.300757 -0.0416,0.796012 -0.26555,1.497926 -0.62994,2.083594 -0.89229,1.060561 -2.67534,1.529006 -5.06119,1.246436 -2.8189,-0.333854 -3.18172,-0.242051 -3.18172,0.808736 0,0.652267 0.35713,1.330397 0.79324,1.506368 0.43611,0.175972 2.1705,0.342474 3.85454,0.370004 2.16145,0.03535 3.06105,-0.164705 4.21628,-1.151353 0.3365,-0.189283 0.63132,-0.398557 0.86248,-0.629417 0.32762,-0.327197 0.57818,-0.63673 0.77515,-1.042831 0.90671,-1.186104 0.91622,-2.488168 0.91622,-8.505942 V 57.44996 57.068074 50.481912 l -0.73794,0.05012 c -0.0505,-0.01812 -0.10354,-0.02997 -0.16071,-0.02997 -0.003,0 -0.006,5.29e-4 -0.009,5.29e-4 -0.002,-2.1e-5 -0.004,-5.29e-4 -0.006,-5.29e-4 -0.0236,0 -0.0484,0.0038 -0.0723,0.0052 -0.072,-0.004 -0.1485,-0.0052 -0.23048,-0.0052 -0.0145,0 -0.028,0.0024 -0.0424,0.0026 -0.003,-5.29e-4 -0.007,-0.0026 -0.01,-0.0026 -0.0105,0 -0.0202,0.0039 -0.0305,0.0047 -0.20601,0.0076 -0.39837,0.04239 -0.56844,0.0987 -0.95679,0.045 -2.31705,-0.114398 -3.0949,-0.369485 -0.43931,-0.144063 -0.87952,-0.215495 -1.31362,-0.221176 z m 15.04869,0.342614 c -1.35152,-0.0026 -2.18603,0.168016 -2.90008,0.572577 -0.34841,0.153353 -0.62706,0.373086 -0.91312,0.681612 -0.10629,0.09732 -0.21368,0.199723 -0.32401,0.310057 -1.17748,1.177486 -1.72242,2.511639 -1.93632,4.737695 -0.25742,2.679123 -0.0667,3.37325 1.41232,5.130954 0.007,0.0085 0.015,0.01579 0.0222,0.02429 0.10199,0.154615 0.20845,0.304136 0.32401,0.443384 0.28585,0.344429 0.677,0.622721 1.12706,0.836126 5.3e-4,2.64e-4 0.001,7.93e-4 0.002,0.0011 1.5789,0.991775 3.43399,1.037582 5.23947,0.07131 1.00689,-0.538877 1.2268,-0.446791 1.2268,0.513149 0,0.643366 -0.38522,1.69672 -0.85627,2.340941 -0.051,0.0698 -0.10183,0.134519 -0.15348,0.195855 -0.135,0.14374 -0.27864,0.274939 -0.42943,0.395324 -0.64275,0.431213 -1.60405,0.442913 -3.85765,0.210323 -0.90932,-0.09385 -1.64566,-0.127201 -2.21485,-0.09818 -0.0271,-0.0056 -0.0544,-0.0114 -0.0796,-0.01551 -0.28154,-0.09789 -0.4519,-0.07733 -0.54571,0.08837 -1.11623,0.214646 -1.09779,0.858679 0.0176,1.974038 v 5.29e-4 c 0.58037,0.580356 2.53821,0.818647 4.44624,0.709517 1.02335,0.0046 1.76156,-0.08455 2.41381,-0.35915 0.31104,-0.08425 0.59693,-0.181997 0.84284,-0.29404 2.64307,-1.204261 3.27112,-3.309728 3.27112,-10.966257 v -7.041946 l -0.31729,-0.02997 v -0.0098 l -0.15297,-0.0047 -0.24443,-0.02273 c -0.12742,-0.186746 -0.29216,-0.249907 -0.50177,-0.250113 h -5.3e-4 c -0.011,0 -0.0212,0.0019 -0.032,0.0021 -0.007,-1.8e-4 -0.0128,-0.0021 -0.0196,-0.0021 -0.0267,0 -0.0519,0.0064 -0.078,0.0088 -0.0358,0.0031 -0.0714,0.0058 -0.10593,0.01138 -0.004,7.94e-4 -0.008,0.0016 -0.0119,0.0026 -0.13768,0.02323 -0.26259,0.06513 -0.37104,0.121438 l -0.38447,-0.03617 c -1.67794,-0.158215 -2.93247,-0.250854 -3.91449,-0.252698 z m -14.60324,2.067058 c 0.74783,0.0063 1.52627,0.347649 2.24379,1.140499 1.32962,1.469216 1.36044,5.41641 0.0527,6.724137 -1.43068,1.430689 -3.84128,1.231379 -4.99298,-0.412893 -2.25685,-3.222117 0.0257,-7.474122 2.69648,-7.451743 z m 14.75879,0.119374 c 0.56598,-0.01289 1.17195,0.129649 1.79679,0.464053 1.0103,0.5407 1.32756,1.321538 1.32756,3.266985 0,1.406207 -0.29513,3.108912 -0.65629,3.783748 -0.01,0.01815 -0.0215,0.03545 -0.032,0.05323 -0.0749,0.08534 -0.15224,0.169294 -0.23409,0.251148 -0.13253,0.132524 -0.26121,0.253775 -0.38757,0.368453 -0.8037,0.518205 -2.0475,0.687123 -3.02618,0.449586 -0.338,-0.145103 -0.67772,-0.345573 -1.01492,-0.610817 -0.12532,-0.09857 -0.24015,-0.205103 -0.35037,-0.314193 -2.27898,-3.265398 -0.40681,-7.64422 2.57711,-7.712189 z M 84.7142,76.491163 c -0.130553,-0.0043 -0.242922,0.01685 -0.335378,0.06201 -0.378994,0.136337 -0.429154,0.631296 -0.181901,1.616437 1.32429,5.276379 1.478907,4.963248 -2.890779,5.865792 -8.219067,1.697619 -17.035401,6.93928 -23.602696,14.032735 C 43.323842,113.59983 34.113879,140.75406 31.338649,175.80035 l -0.548804,6.93033 c -0.03059,0.0594 -0.0582,0.11537 -0.09147,0.17776 l -3.505729,4.62711 c -5.068709,6.69019 -8.629466,14.06826 -9.048027,18.74769 -0.187388,2.09498 0.120506,6.81359 0.696599,10.67377 1.952573,13.0834 4.910602,21.87446 8.115782,24.11946 0.535787,0.37528 1.116558,0.63351 1.711524,0.78496 0.35116,0.13378 0.694513,0.21084 1.020612,0.21084 0.04561,0 0.09321,-0.007 0.139525,-0.01 0.04736,0.006 0.09254,0.01 0.133842,0.01 0.188106,0 0.384516,-0.031 0.583943,-0.0775 1.922807,-0.20156 3.655672,-1.42744 4.137732,-3.34812 0.37737,-1.50354 0.4499,-1.52165 2.322338,-0.58756 1.087342,0.54246 2.602243,0.79594 3.463356,0.57981 0.473297,-0.11879 0.848309,-0.14583 1.162203,-0.0703 0.276548,0.12051 0.557795,0.33698 0.875398,0.67076 0.06112,0.0908 0.121174,0.18805 0.179835,0.29766 0.377449,0.70527 1.961835,2.84901 3.521231,4.76353 l 2.605008,3.19774 c 0.0429,0.10646 0.0709,0.2007 0.08527,0.2837 l -2.875277,0.0134 c -2.955714,0.0136 -5.624923,0.92185 -7.735962,2.51871 -0.0019,0.001 -0.0038,0.003 -0.0057,0.004 -0.04634,0.0316 -0.09479,0.0609 -0.14056,0.093 -0.567942,0.39825 -1.087671,0.89497 -1.560113,1.48363 -1.246315,1.40468 -2.174462,3.12277 -2.684074,5.08444 -0.362537,1.39555 -0.777954,4.63747 -0.923456,7.20421 -0.172932,3.05054 -0.5689,4.8573 -1.143601,5.21674 -0.656701,0.41074 -0.931844,0.11237 -1.086755,-1.17822 -0.125897,-1.04883 -0.351787,-1.76191 -0.673343,-2.14405 l -0.077,-0.47905 -0.305406,0.18346 c -0.270441,-0.21685 -0.571741,-0.12449 -1.098127,0.30125 -0.110813,0.0791 -0.224412,0.16698 -0.34313,0.27443 -1.185685,1.07302 -4.988012,2.82548 -6.389274,2.97603 -0.332763,-0.0565 -0.369552,-0.31025 -0.09767,-0.90019 0.05229,-0.0633 0.105154,-0.127 0.167948,-0.19637 1.262957,-1.39558 2.480647,-4.52863 2.038118,-5.24465 -0.183689,-0.29722 -1.923883,0.18736 -3.866947,1.07693 -5.560876,2.54585 -9.579736,3.36026 -16.6206907,3.36828 -1.7607854,0.003 -3.14659693,0.0462 -4.17132158,0.12401 -0.44821712,-0.0646 -1.03246552,-0.0401 -1.48776452,0.0785 -0.2653203,0.0691 -0.3417375,0.13362 -0.2707845,0.18706 -0.1969929,0.0744 -0.2750061,0.15891 -0.2170409,0.25271 0.4087837,0.66143 5.8697018,0.77176 10.6355262,0.44495 0.083689,-0.005 0.1646499,-0.0106 0.2475301,-0.0156 1.1570819,-0.0699 2.2239669,-0.17444 3.1011029,-0.31213 0.92892,-0.12367 1.759328,-0.26602 2.394686,-0.43151 2.002817,-0.52165 4.77441,-1.52694 6.159314,-2.23346 1.384905,-0.70651 2.518192,-1.1218 2.518192,-0.92294 0,1.16705 -2.083179,4.07665 -3.164665,4.41989 -1.541452,0.48924 -1.597008,1.0849 -0.51573,1.38856 0.156225,0.10062 0.453753,0.14817 0.84801,0.15139 0.295196,0.0301 0.625891,0.0481 0.995805,0.0481 1.500898,0 3.91877,-0.66109 5.708695,-1.56012 2.641329,-1.32667 3.03736,-1.50026 3.095418,-0.69143 l -0.138491,1.22629 -0.05375,0.47749 c -0.124201,0.46358 -0.295669,0.92663 -0.48369,1.27794 -0.115142,0.21516 -0.198745,0.41611 -0.2589,0.60256 -0.36516,0.39942 -0.385154,0.56936 -0.105421,0.52451 -0.04957,0.77777 0.523605,0.98989 1.273307,0.0444 0.414552,-0.52279 1.360282,-1.29069 2.101681,-1.70688 1.263457,-0.70927 1.373465,-0.58732 1.753383,1.94614 0.579469,3.86419 3.608507,9.84052 6.368603,12.56512 2.459461,2.42782 5.635006,4.21232 8.900747,5.00226 0.833266,0.20156 2.091087,0.33925 3.573942,0.41807 2.647103,0.26803 5.580348,0.22336 8.537982,-0.093 2.113881,-0.13994 4.06691,-0.36229 5.47615,-0.66095 4.681897,-0.99219 9.64108,-2.98779 11.414807,-4.59301 0.763495,-0.69093 2.218926,-0.98595 5.502508,-1.08209 0.729382,0.0538 1.565976,0.0299 2.475299,-0.0589 3.663169,-0.11898 5.488538,-0.54319 9.087302,-1.98644 2.659891,-1.06669 6.156611,-2.8304 7.770581,-3.91964 2.85652,-1.92786 2.93512,-1.9431 2.93212,-0.57465 -10e-4,0.77319 -0.57218,2.34016 -1.26865,3.48247 -0.30961,0.50782 -0.55912,0.92491 -0.74621,1.26712 -0.13901,0.16589 -0.23538,0.29834 -0.27957,0.401 l -0.2775,0.37828 0.20515,-0.003 c -0.20965,0.72909 0.43441,0.66403 2.18902,0.33486 3.14839,-0.59063 5.77249,-1.96617 8.26823,-4.33462 l 1.90014,-1.8035 c 0.0782,-0.008 0.13003,0.0127 0.14986,0.0651 l 0.004,1.64124 c 2.6e-4,0.14279 -0.008,0.29832 -0.0186,0.4558 -0.97874,2.28105 -1.18433,5.00821 -2.49339,7.01661 l -0.0667,0.11473 0.0698,-0.077 c 0.0722,0.51927 0.83855,0.0167 2.09031,-1.65983 0.12288,-0.1646 0.23691,-0.35386 0.34675,-0.55296 0.39827,-0.20926 0.6422,-0.34012 1.09347,-0.57618 4.0679,-2.12781 6.77976,-1.9127 8.15351,-1.52548 0.47543,1.08847 1.17686,2.0747 2.10633,2.94193 0.35303,0.3294 0.73243,0.63095 1.14102,0.90691 0.33513,0.24921 0.69028,0.48072 1.07022,0.68834 0.32036,0.17507 0.7319,0.32808 1.22163,0.46199 3.92855,1.42938 10.02875,1.39972 20.40495,0.0977 4.23826,-0.53184 10.55755,-1.29403 14.04307,-1.69395 7.00522,-0.80377 11.88078,-2.14397 14.66423,-4.03489 0.9224,-0.58799 1.58004,-1.23812 2.02106,-1.97353 0.50826,-0.78444 0.76533,-1.63573 0.76533,-2.55693 v -1.07421 c 5e-5,-0.0124 0.001,-0.0243 0.001,-0.0367 2.1e-4,-0.42222 0.0357,-0.71543 0.23719,-0.92294 l 4.07985,-0.2222 c 0.91166,0.005 1.85847,-0.0633 2.82051,-0.20103 4.52266,-0.46805 7.66332,-1.71857 10.84843,-4.31808 0.68423,-0.50887 1.29698,-1.04325 1.81074,-1.59679 l 2.35128,-2.16783 0.42943,1.70944 c 0.27081,1.07903 0.0464,2.51175 -0.60823,3.88454 -0.70576,1.48 -1.02701,2.33899 -0.95602,2.82514 l -0.15658,0.25786 0.16795,-0.19222 c 0.0922,0.3883 0.47439,0.50954 1.16169,0.50954 1.89884,0 8.25896,-2.75442 8.25996,-3.57707 5.3e-4,-0.45193 -1.358,-0.16967 -3.63182,0.75449 -1.99817,0.81211 -3.73424,1.37605 -3.85765,1.25264 -0.12341,-0.12342 0.11644,-0.86124 0.53279,-1.6392 0.5506,-1.0288 0.57802,-3.2908 0.23616,-5.04205 -0.13268,-0.81704 -0.35859,-1.55081 -0.67541,-2.06344 -0.0229,-0.037 -0.0776,-0.044 -0.15606,-0.0279 -0.004,-0.005 -0.009,-0.0101 -0.0129,-0.0145 -0.0332,-0.0332 -0.0693,-0.0603 -0.10748,-0.0832 -0.0824,-0.19944 -0.15211,-0.34366 -0.18707,-0.34366 -0.0288,0 -0.0464,0.0992 -0.0548,0.26976 -0.58595,-0.0384 -1.59954,0.70657 -3.34812,2.42414 -3.99212,3.92134 -8.13448,5.69566 -14.12833,6.05079 l -2.15284,0.12763 c -1.45204,-0.0214 -2.35081,-0.0908 -2.87373,-0.24855 l -0.78548,-1.26349 c -0.15279,-0.39336 -0.44554,-0.85646 -0.84594,-1.36065 l -0.0879,-0.14157 c -1.61425,-2.59678 -2.75501,-3.55529 -6.31641,-5.30667 -3.57453,-1.75784 -4.45394,-2.07189 -8.96845,-2.12183 -1.45798,-0.18066 -2.71542,-0.22329 -3.48299,-0.0677 -0.0771,0.0156 -0.20713,0.0382 -0.30437,0.0563 -3.08067,-0.006 -5.49272,-0.0404 -5.80947,-0.0873 0.009,-0.0105 0.0211,-0.0228 0.0315,-0.0341 0.0354,-0.0399 0.0896,-0.0917 0.1416,-0.14211 0.0441,-0.0417 0.097,-0.0887 0.15089,-0.13643 0.78415,-0.55829 2.65849,-1.82745 4.83795,-3.27111 2.87832,-1.90655 5.91641,-4.20714 6.75152,-5.11235 1.97029,-2.13565 2.53018,-7.01174 1.11828,-9.74205 -0.24062,-0.4653 -0.41836,-0.82426 -0.52244,-1.13843 -0.091,-0.3506 -0.11035,-0.65588 -0.0501,-0.9803 0.14229,-0.54019 0.57713,-1.16492 1.38596,-2.26808 6.76488,-9.22653 11.63525,-24.93913 12.52895,-40.42078 0.37307,-6.46264 0.48582,-6.90689 1.89032,-7.4409 2.0644,-0.78486 3.16712,-3.38275 2.35748,-5.55418 -0.10947,-0.2936 -0.18978,-0.64297 -0.24494,-1.0082 0.001,-0.62097 0.007,-1.34313 0.0109,-2.05311 0.0154,-0.0762 0.029,-0.15511 0.0486,-0.22427 0.6878,-2.43284 0.63481,-5.01057 -0.12971,-7.26829 l 0.002,-0.0264 -0.003,0.0222 c -0.0962,-0.28364 -0.20176,-0.56304 -0.3204,-0.83561 -0.56459,-1.29711 -1.06401,-3.7983 -1.11001,-5.55832 -0.0929,-3.55646 -1.42616,-6.09527 -4.08244,-7.77265 -0.94048,-0.5939 -1.73863,-1.43664 -1.77353,-1.87275 -0.0349,-0.4361 -0.10635,-1.38586 -0.15865,-2.11047 -0.0523,-0.72461 -0.88753,-2.11019 -1.85622,-3.07888 -0.96874,-0.96862 -2.86001,-4.22614 -4.20238,-7.23876 C 160.59537,121.31966 136.44,96.655946 113.14949,87.402073 c -2.99385,-1.189532 -6.03282,-2.700105 -6.75308,-3.356385 -0.24585,-0.224015 -0.49054,-0.415044 -0.7276,-0.57671 -0.39483,-0.407241 -0.68805,-0.571312 -0.97669,-0.504362 -0.65437,-0.212285 -1.10949,-0.05596 -1.10949,0.522449 0,0.08661 -0.01,0.164214 -0.0279,0.234096 -0.40036,0.195752 -0.87617,0.317881 -1.33791,0.360701 -0.75541,-0.25377 -1.63014,-0.910569 -2.08307,-1.786456 -1.469191,-2.841088 -3.528472,-3.194638 -3.528472,-0.605647 0,0.945541 -0.505116,1.162719 -2.700094,1.162719 -0.48923,0 -0.891513,-0.0096 -1.234032,-0.03824 -0.919041,-0.252235 -1.615067,-0.580848 -1.714625,-0.851112 -0.04263,-0.115729 -0.188883,-0.330136 -0.39584,-0.598929 -0.07245,-0.146095 -0.144897,-0.295974 -0.222726,-0.471805 -0.77659,-1.754434 -3.444071,-3.911986 -5.180563,-4.309814 -0.162393,-0.05182 -0.313674,-0.08769 -0.442868,-0.09198 z m 2.170928,2.889747 c 0.13944,0.01188 0.322503,0.135557 0.563274,0.335378 0.54633,0.453422 1.437129,1.682869 1.979723,2.732135 1.309474,2.532229 0.847432,10.414072 -0.675928,11.527978 -1.167379,0.853612 -1.339874,1.563727 -0.37982,1.563727 2.26667,0 9.007949,-8.749752 9.473322,-12.130524 0.280722,-0.622887 0.472961,-0.859337 0.666109,-0.797885 0.04616,0.04264 0.0911,0.08335 0.143661,0.135911 1.359341,1.359337 0.967883,7.748122 -0.641821,10.476362 -1.769584,2.999224 -1.297707,3.963779 1.21543,2.484602 2.332112,-1.372632 4.365962,-4.548921 5.367632,-8.383466 l 0.50488,-1.932183 c 0.22193,-0.239575 0.43217,-0.113313 0.71417,0.240297 l 0.0186,0.02376 0.27182,0.685228 c 0.99751,2.512428 0.43659,6.41047 -1.25058,8.692494 -0.74707,1.01047 -1.25042,2.160497 -1.11879,2.555398 0.0836,0.250968 0.48902,0.03743 1.02888,-0.485759 0.0856,-0.0747 0.17253,-0.169629 0.25993,-0.266131 0.24181,-0.258069 0.50104,-0.563036 0.76688,-0.911574 1.32275,-1.734206 1.89297,-3.305924 2.09858,-5.785175 l 0.26975,-3.252515 c 0.0764,-0.03258 0.16432,-0.0499 0.26717,-0.05168 l 3.00033,1.177189 c 6.06331,2.379335 15.28202,7.561371 21.01629,11.813749 12.12658,8.992764 25.22329,24.301164 33.63722,38.802804 1.1131,1.96687 2.18831,3.96507 3.21169,6.00015 l 0.53434,1.06247 c 0.46105,0.96367 0.90003,1.91963 1.30638,2.86236 l 1.66139,3.85454 -2.27118,2.27118 c -0.006,0.005 -0.0121,0.0103 -0.0181,0.0155 -0.57897,0.48816 -1.08778,1.04394 -1.51671,1.65209 -1.72399,2.13477 -2.2335,4.04099 -1.69963,6.1681 0.58652,2.3369 3.18091,4.70307 5.15679,4.70307 1.34428,0 1.59557,0.22309 1.25005,1.11001 -0.23786,0.61055 -0.86043,2.99443 -1.38389,5.29787 -0.84698,3.72867 -0.84667,4.43974 0.006,6.47971 0.60542,1.44897 1.5135,2.43067 2.46962,2.67064 0.44998,0.1129 0.76355,0.23627 0.97307,0.41754 0.13904,0.16817 0.2385,0.3379 0.30386,0.51832 0.0702,0.30786 0.0477,0.71968 -0.0362,1.29139 -0.0125,0.085 -0.0201,0.16871 -0.0274,0.2527 -0.0474,0.004 -0.0757,0.0519 -0.0791,0.15038 -0.002,0.0736 0.0255,0.17929 0.0661,0.29765 0.004,0.12836 0.0172,0.25734 0.0362,0.38758 5.3e-4,0.005 0.001,0.01 0.002,0.015 0.002,0.0261 0.005,0.0518 0.008,0.0775 2.6e-4,0.002 7.9e-4,0.004 0.001,0.006 0.0289,0.26428 0.0972,0.50859 0.21393,0.7493 0.38875,1.02761 1.25925,2.26339 2.81792,4.0933 2.5e-4,0.007 0.002,0.015 0.002,0.0217 0,0.51842 0.46814,1.12198 1.04024,1.34152 0.0516,0.0198 0.0999,0.0423 0.14625,0.0661 0.94373,1.70023 0.65223,6.96224 -0.93741,17.25683 -4.39547,28.46526 -20.64531,46.63223 -48.77583,54.53104 -17.97232,5.04645 -33.755059,5.88388 -46.82402,2.48357 l -2.232422,-0.58084 c -0.05164,-0.0357 -0.0987,-0.0714 -0.135392,-0.1075 l 2.270662,-2.51354 c 4.545338,-5.03113 5.088707,-8.51487 2.21847,-14.22394 -1.710171,-3.40162 -12.544139,-16.77348 -14.001729,-17.28163 -1.417812,-0.49429 -0.284705,1.21158 4.775417,7.18923 5.015466,5.92487 8.046262,10.62121 8.932789,13.81517 0.194466,1.0078 0.229269,1.98065 0.133326,2.97915 -0.01347,0.14006 -0.03088,0.27844 -0.04909,0.41651 -0.587462,2.73227 -2.486403,5.89909 -4.68395,7.57525 -3.958053,3.01894 -10.781181,5.48933 -16.692523,6.04408 -2.965534,0.27829 -6.676535,0.95973 -8.246525,1.51411 -3.788013,1.33765 -7.611938,3.91139 -7.611938,5.1232 0,0.0627 0.005,0.11634 0.01291,0.1659 l -0.330211,0.38394 0.3669,-0.25477 c 0.162809,0.35555 0.760336,0.062 2.15129,-0.99891 4.974717,-3.79439 17.763218,-5.6211 22.569165,-3.22355 1.143098,0.57023 2.20318,0.91186 2.355929,0.75912 0.190124,-0.19013 0.170863,-0.44966 -0.01085,-0.74105 0.02053,-0.0754 -0.07101,-0.18764 -0.260966,-0.32763 -0.458364,-0.47723 -1.275715,-0.99928 -2.321822,-1.43349 l -1.993162,-0.82735 0.105937,-0.0367 1.920298,-0.43355 c 1.2613,-0.28487 2.015061,-0.35438 2.731098,0.0811 0.21006,0.16346 0.449873,0.37335 0.715203,0.61288 5.29e-4,0 0.0011,0 0.0016,0.003 0.513623,0.55571 1.081977,1.39372 1.862934,2.62515 2.371521,3.73951 2.446507,6.91223 0.225827,9.55137 -1.961364,2.33093 -6.991564,4.78039 -11.706262,5.70043 -5.159528,1.00684 -11.931821,1.33421 -15.629537,0.75549 -11.230192,-1.75763 -17.479029,-11.69247 -16.565396,-26.33688 0.426135,-6.83041 2.111124,-10.17359 6.187218,-12.27626 0.872455,-0.45006 1.593474,-0.76122 2.300118,-0.96066 0.536924,-0.11172 1.094629,-0.20372 1.657781,-0.2713 0.648666,-0.036 1.361162,-0.006 2.223635,0.076 2.893605,0.27507 3.82402,0.74812 7.136516,3.62924 4.06414,3.53488 4.559702,4.39146 2.540413,4.39146 -0.478203,0 -0.891839,0.151 -1.107943,0.37 -0.100314,0.0829 -0.160713,0.17438 -0.160713,0.27182 0,0.0115 0.004,0.0216 0.0057,0.0326 -7.94e-4,0.0108 -0.0057,0.0211 -0.0057,0.032 0,0.9974 5.524688,0.11549 7.922514,-1.26453 4.145603,-2.38591 4.503761,-7.04209 0.86093,-11.19104 -0.398859,-0.45428 -0.747421,-0.82519 -1.054716,-1.13223 -0.287475,-0.30181 -0.518158,-0.51102 -0.699699,-0.64544 -0.03792,-0.0308 -0.07222,-0.0558 -0.10542,-0.0791 -1.011333,-0.76415 -0.862616,0.16119 0.702283,2.62878 2.304598,3.63397 2.445986,6.42699 0.421161,8.32921 -0.753713,0.70808 -1.793121,1.2891 -2.407086,1.36426 -0.188603,-0.0243 -0.414676,-0.0965 -0.68058,-0.22066 -2.685359,-1.62843 -12.577395,-11.48746 -15.038358,-15.14068 -1.710116,-2.53861 -1.913287,-3.21579 -1.30483,-4.3527 0.396319,-0.74054 0.593304,-2.01272 0.4377,-2.82671 -0.253547,-1.32633 -0.09772,-1.44302 1.500167,-1.12344 1.128675,0.22574 1.854215,0.0499 2.877859,-0.80512 0.651828,-0.36767 1.247765,-0.91316 1.74253,-1.61954 0.644634,-0.92034 0.967396,-1.58733 0.917258,-2.49235 0.09339,-1.39784 -0.507114,-3.09555 -1.800924,-5.65857 -1.092393,-2.16402 -1.610997,-3.66213 -1.801958,-5.4529 -0.02222,-0.69504 -0.007,-1.47803 0.03204,-2.42827 l 0.131775,-3.21583 c 0.172797,-0.65291 0.459997,-1.05534 0.939993,-1.27796 l 3.9672,-0.0243 c 0.03464,-2.1e-4 0.0649,-0.001 0.09922,-0.002 3.955229,0.41338 5.69297,-0.15517 6.786149,-2.1978 0.895853,-1.6739 -0.501959,-4.33512 -3.639052,-6.9293 -2.242574,-1.85446 -4.046823,-2.76205 -6.204792,-2.89646 -0.342503,-0.0441 -0.70095,-0.0435 -1.117761,0.001 -1.021006,0.0531 -2.134478,0.24738 -3.417361,0.57981 -2.138201,0.55406 -4.256701,1.00769 -4.707723,1.00769 -1.362914,0 2.618028,-3.74846 7.504967,-7.06624 5.483193,-3.72255 6.111062,-5.29823 0.951365,-2.38745 -5.174194,2.91896 -7.894511,5.1696 -9.304343,7.69824 -0.439473,0.5311 -0.758023,0.99641 -0.905888,1.35289 -0.508492,0.57697 -1.05986,0.90915 -1.656228,1.00046 -0.41737,-0.009 -0.876927,-0.0662 -1.330153,-0.16847 -0.406022,-0.15328 -0.829003,-0.39169 -1.271757,-0.72657 -0.617458,-0.467 -1.646685,-0.75448 -2.824115,-0.86455 -0.234381,-0.0276 -0.476504,-0.043 -0.724506,-0.0481 -0.194289,-0.0251 -0.379352,-0.0424 -0.537435,-0.0413 -0.231119,0.002 -0.485396,0.0273 -0.754475,0.0703 -1.407295,0.093 -2.820945,0.40304 -3.875732,0.93431 -0.640503,0.32261 -1.524632,0.90866 -2.38125,1.55443 -0.447611,0.31492 -0.871546,0.65585 -1.265039,1.01906 -0.10151,0.0883 -0.194152,0.17353 -0.288871,0.25993 -0.425802,0.34285 -0.790288,0.67993 -1.057817,0.99426 l -0.966866,0.91467 c 0.003,-0.0273 0.01004,-0.0827 0.01292,-0.10904 0.02409,-0.22063 0.06657,-0.45918 0.118856,-0.70693 l 0.237194,-0.62736 c 2.197094,-5.80871 7.902429,-14.43084 13.673584,-20.66437 1.972736,-2.13079 3.161985,-3.78431 3.419946,-4.48603 l 0.382407,-0.42116 -0.350366,0.33125 c 0.176127,-0.61751 -0.590106,-0.25827 -2.463933,1.57148 -3.044719,2.97309 -2.959502,3.47212 -1.597318,-9.36326 4.094654,-38.58256 15.955388,-65.57876 34.115229,-77.651595 4.487365,-2.983193 14.13765,-6.799114 16.267742,-6.432166 1.070903,0.184491 1.092422,0.414991 0.29352,3.133662 -0.478239,1.627475 -1.764731,3.816566 -2.889228,4.915976 -1.412097,1.380583 -1.722001,1.981793 -1.021128,1.981793 0.564351,0 1.391727,-0.589179 2.242241,-1.468644 0.635039,-0.560083 1.194641,-1.265489 1.675868,-2.086179 0.73366,-1.082471 1.344282,-2.248185 1.621605,-3.246829 0.365977,-1.317857 0.66731,-3.929411 0.66921,-5.80378 0.0021,-2.076906 0.05642,-2.86511 0.376206,-2.917135 0.01818,-0.003 0.03744,-0.0038 0.05736,-0.0021 z m 6.910689,4.742344 c 0.770578,0.0039 1.354132,0.103098 1.723411,0.279054 0.150945,0.09132 0.255415,0.208327 0.311092,0.3576 -0.05923,0.434747 -0.429324,1.162878 -1.060919,2.400371 -0.660651,1.294427 -1.80346,2.898058 -2.539378,3.563607 l -1.253154,1.133263 c 0.03011,-0.110741 0.06923,-0.234513 0.128156,-0.388088 0.0481,-0.125338 0.09322,-0.316505 0.136428,-0.538469 l 0.355533,-1.019577 c 0.387856,-1.112692 0.580909,-2.8706 0.428914,-3.906221 -0.256,-1.744234 -0.140269,-1.878492 1.769917,-1.88154 z m 8.473903,1.267624 c 0.21062,0 0.38096,0.01193 0.51831,0.04186 0.2184,0.165426 0.35983,0.401228 0.4253,0.709002 -0.025,0.257786 -0.10628,0.597701 -0.23616,1.050581 -0.2842,0.990952 -0.99595,2.632178 -1.58182,3.647323 -0.58587,1.015151 -0.90461,1.322769 -0.70796,0.683678 0.19665,-0.639082 0.3576,-2.280308 0.3576,-3.647321 0,-2.032619 0.22342,-2.48512 1.22473,-2.48512 z m 14.59601,26.007722 c -0.73787,0 -1.87843,1.05076 -2.90525,2.67735 -1.51522,2.40026 -1.72199,3.44319 -1.99471,10.06502 -0.003,0.0771 -0.005,0.14882 -0.008,0.22531 l -0.092,-0.5979 0.0744,1.13172 c -0.2541,7.63041 0.52748,12.16915 2.53318,14.719 3.63935,4.62668 7.30223,-0.68822 7.98969,-11.59413 l 0.33125,-5.25859 1.495,1.40456 c 1.11643,1.04884 1.495,1.16553 1.495,0.46096 0,-0.48663 -0.73242,-1.58703 -1.65933,-2.52336 -0.14902,-0.17959 -0.30644,-0.3621 -0.47232,-0.54571 -0.19229,-0.21283 -0.37612,-0.42953 -0.55501,-0.64647 -0.73469,-1.03013 -1.40623,-2.37346 -1.67586,-3.44423 -0.82611,-3.28081 -2.9211,-6.07353 -4.55632,-6.07353 z m -10.5823,0.92397 c -0.0658,-0.002 -0.13226,-0.002 -0.19947,0.003 -0.48886,0.0332 -1.01737,0.25117 -1.61438,0.64234 -1.34726,0.88277 -3.42459,6.01417 -3.42459,8.45943 0,0.0625 -0.0157,0.14102 -0.0455,0.23306 -2.6e-4,7.9e-4 -2.1e-4,0.002 -5.3e-4,0.003 -10e-4,0.003 -0.002,0.006 -0.004,0.008 -0.0233,0.0705 -0.0604,0.15472 -0.0992,0.23978 -0.0156,0.0363 -0.0332,0.0705 -0.0491,0.10645 -0.35422,0.71341 -1.14917,1.81957 -2.071193,2.84014 -2.456526,2.71907 -2.482583,4.14297 -0.03359,1.84226 l 1.498613,-1.40767 0.43047,4.6297 c 0.58969,6.33907 2.00488,11.02815 3.6835,12.2039 1.82096,1.27546 3.49831,0.25937 5.25394,-3.18327 0.84255,-1.65217 1.14323,-3.06164 1.264,-7.42021 0.1653,-1.81271 0.19915,-3.75593 0.0734,-5.75366 0.012,-4.84279 -0.12925,-8.66097 -0.33383,-8.66097 -0.21882,0 -0.92696,-0.9827 -1.57354,-2.18333 -0.93375,-1.73386 -1.76853,-2.56501 -2.75539,-2.60191 z m 10.54302,0.5395 c 1.01773,0.14745 2.51551,1.94717 2.96055,3.7698 0.49997,2.04769 0.13648,2.09282 -3.03341,0.37569 -1.65988,-0.89917 -2.12656,-1.32458 -1.9296,-2.01383 0.0814,-0.18555 0.20929,-0.39464 0.37724,-0.64803 0.55459,-0.83672 1.09907,-1.32808 1.62522,-1.48363 z m -10.70477,0.54932 c 0.14465,0.0337 0.29053,0.0939 0.4377,0.18036 0.63788,0.68287 1.60775,2.43888 1.97094,3.50831 -0.10248,0.52082 -0.46262,1.01739 -1.08676,1.54771 -0.5701,0.33559 -1.27877,0.74745 -2.04587,1.18649 l -2.89594,1.65726 c -0.009,-0.0113 -0.0166,-0.0252 -0.0243,-0.0398 -0.001,-0.004 -0.003,-0.008 -0.004,-0.0129 l 0.58084,-2.60139 c 0.46478,-2.08007 1.32467,-3.98133 2.13682,-4.9196 0.39166,-0.32361 0.66831,-0.50019 0.9307,-0.50643 z m 8.14834,4.42506 c 0.81772,0.0345 3.0493,1.07901 4.6085,2.05672 0.77533,0.61837 1.321,1.22706 1.68104,1.8743 0.0827,1.02712 0.084,3.35176 -0.0104,5.85701 -0.11715,3.11236 -0.27195,4.57928 -0.34365,3.25975 -0.12161,-2.23669 -0.77203,-4.28752 -1.61178,-5.65237 v -5.3e-4 c -0.12843,-0.2553 -0.25938,-0.46878 -0.38861,-0.62838 -0.0174,-0.0214 -0.0296,-0.0355 -0.0465,-0.0563 -0.10346,-0.16948 -0.20831,-0.32045 -0.31522,-0.42737 -0.0659,-0.0659 -0.13194,-0.12261 -0.19793,-0.17466 -0.37117,-0.40153 -0.617,-0.53053 -0.93792,-0.38913 -0.41997,-0.0839 -0.83147,0.0351 -1.20355,0.40721 -0.37399,0.37398 -1.07123,2.05311 -1.54926,3.73156 -0.37905,1.3309 -0.59179,2.06831 -0.69194,1.95492 -0.022,-0.80803 -0.005,-2.27476 0.0341,-4.45606 0.009,-0.22726 0.0149,-0.4033 0.0243,-0.65009 0.1296,-3.4117 0.43324,-6.40083 0.67438,-6.64197 0.05,-0.05 0.14427,-0.0701 0.2744,-0.0646 z m -5.38417,1.93476 c 0.0657,-0.006 0.11184,0.003 0.13643,0.0274 0.19669,0.19669 0.48891,2.59792 0.64906,5.33559 0.0655,1.11989 0.11172,1.97164 0.13435,2.60191 -0.006,0.52749 -0.0145,0.95007 -0.0263,1.30535 -0.0782,0.29257 -0.27202,-0.14211 -0.62787,-1.08934 -0.7215,-1.92056 -1.72552,-3.0241 -2.79414,-3.17087 -0.11624,-0.0297 -0.23311,-0.049 -0.35089,-0.0517 -0.11701,-0.003 -0.24645,0.0341 -0.38343,0.0997 -0.20433,0.0558 -0.40939,0.14465 -0.6134,0.27182 -0.61055,0.38056 -1.45065,1.66334 -1.86707,2.85099 l -0.70177,2.00246 c -0.0391,-0.50602 -0.062,-1.29111 -0.077,-2.44895 l -0.0145,-1.10639 c -0.008,-2.55875 0.23383,-2.81283 3.14141,-4.79454 1.52764,-1.04117 2.9353,-1.79343 3.39514,-1.83348 z m 8.33489,6.85126 c 0.338,0 0.63416,0.12037 0.80306,0.29869 0.0611,0.14556 0.10662,0.30203 0.1297,0.45941 -0.087,0.2901 -0.47298,0.51056 -0.93276,0.51056 -0.30222,0 -0.56952,-0.0968 -0.74414,-0.24443 -0.0355,-0.10905 -0.054,-0.21999 -0.0568,-0.33021 0.055,-0.2142 0.13019,-0.40168 0.22169,-0.55811 0.16116,-0.0835 0.36061,-0.13591 0.57929,-0.13591 z m -12.02045,1.27073 c 0.15954,0.003 0.30814,0.0323 0.43873,0.0796 0.0282,0.0121 0.0564,0.0242 0.0816,0.0388 0.11142,0.14391 0.20227,0.34334 0.26045,0.59996 -0.003,0.0112 -0.003,0.0217 -0.007,0.0331 -0.0987,0.29615 -0.25909,0.52967 -0.4439,0.69608 -0.23401,0.0321 -0.50944,0.0395 -0.83768,0.0171 -0.0265,-0.002 -0.0446,-0.002 -0.0703,-0.004 -0.14071,-0.1407 -0.24164,-0.28224 -0.30748,-0.41961 0.004,-0.0414 0.005,-0.0817 0.0139,-0.12506 0.0626,-0.30078 0.16664,-0.53593 0.29146,-0.7121 0.16301,-0.12319 0.36199,-0.19955 0.57981,-0.20412 z m 21.20697,14.74638 c -3.55122,-0.0335 -7.29052,0.98557 -10.3203,3.14296 -2.66146,1.89512 -1.58755,2.13253 1.89343,0.41858 2.44994,-1.20628 4.06158,-1.49965 8.23309,-1.49965 5.95328,0 7.96129,0.99637 9.91309,4.9196 1.73656,3.49059 0.67704,6.52737 -3.66076,10.49186 -1.89658,1.73337 -3.27392,3.32568 -3.06131,3.53829 0.73254,0.73255 6.7848,-4.70783 8.16746,-7.34167 0.49253,-0.93823 0.76753,-2.09217 0.83715,-3.28817 0.037,-0.25674 0.062,-0.50751 0.062,-0.74518 0,-0.5722 -0.0727,-1.14526 -0.20981,-1.70997 -0.1829,-1.01175 -0.51375,-1.969 -0.9958,-2.75952 -2.03715,-3.34076 -6.29239,-5.12403 -10.85826,-5.16713 z m 47.0669,11.98429 c 0.79776,0.0247 1.56829,0.55305 2.37711,1.58129 1.95938,2.49095 1.51415,7.05374 -0.84181,8.62687 -0.38388,0.25632 -1.43919,0.47042 -2.34456,0.47542 -0.57834,0.003 -1.09658,-0.11704 -1.55184,-0.33383 -0.32529,-0.26026 -0.67015,-0.57249 -1.048,-0.95033 -0.18568,-0.18569 -0.34987,-0.35698 -0.50074,-0.5209 -1.06887,-1.85817 -0.87819,-4.78819 0.99735,-7.01714 1.06912,-1.27058 2.00836,-1.88934 2.91249,-1.86138 z m -92.704421,5.00899 c -0.599786,-0.009 -1.379125,0.10151 -2.25516,0.33693 -1.213898,0.32622 -1.618954,1.56276 -1.764231,7.39852 -0.474866,2.73714 -0.498565,4.7051 -0.08992,7.799 0.01799,0.19654 0.04166,0.39176 0.06305,0.58756 0.116046,3.04023 0.490535,4.87156 1.380794,7.46363 2.375557,6.91666 6.971536,12.19447 12.402863,14.24306 3.812825,1.43813 12.652235,0.85474 15.594395,-1.0294 1.74296,-1.11618 0.28779,-1.25822 -2.86598,-0.27957 -0.44993,0.13963 -0.9146,0.25547 -1.38544,0.35864 -1.18601,0.11507 -2.503908,0.22839 -3.775479,0.31678 -0.643279,0.0447 -1.201349,0.0773 -1.71876,0.1018 -2.925588,-0.16496 -5.75568,-0.92233 -7.84293,-2.21279 -6.365251,-3.93532 -10.592324,-13.2467 -10.610723,-23.37325 -0.0088,-4.85746 0.567534,-8.23049 1.604037,-9.67537 0.358015,-0.4098 0.766331,-0.67358 1.225248,-0.78704 0.02143,-0.001 0.04244,-0.004 0.06408,-0.004 0.670719,0 1.219563,-0.2857 1.219563,-0.63459 0,-0.3905 -0.474247,-0.59846 -1.245402,-0.60978 z m 98.170751,3.17397 c 0.17915,-0.006 0.35848,0.021 0.53692,0.0713 l 1.50947,1.65623 c 1.55599,1.70721 1.88774,2.61835 1.88774,5.18056 0,3.43191 -1.74196,8.12866 -3.76618,10.15287 -1.16664,1.16664 -2.92034,1.56189 -4.17081,1.07074 -0.0587,-0.0409 -0.10495,-0.0716 -0.16795,-0.11576 -0.84069,-0.58885 -1.21338,-1.19758 -1.3472,-2.47788 -7e-5,-8e-4 7e-5,-0.001 0,-0.002 -0.012,-0.11545 -0.0175,-0.25142 -0.0259,-0.37827 -0.18302,-3.76227 1.5716,-10.36058 3.94291,-13.31185 l 1.46658,-1.82573 c 0.0451,-0.008 0.0903,-0.0187 0.13436,-0.0202 z m 5.04775,12.36617 c 0.47754,0.0607 0.78962,1.59126 0.78962,4.36045 0,3.10406 -0.32224,4.47143 -1.44797,6.14743 -1.02397,1.52447 -2.45194,2.38438 -3.6959,2.39882 -1.22043,-0.21841 -2.02829,-0.91491 -2.36161,-1.81229 -0.29378,-1.21836 0.50237,-2.75592 2.47581,-4.89686 1.42036,-1.54091 2.87535,-3.64185 3.2334,-4.66896 0.0692,-0.19843 0.13705,-0.3727 0.20412,-0.53175 l 0.3328,-0.65009 c 0.16859,-0.25144 0.32681,-0.36492 0.46973,-0.34675 z m 1.02061,12.64315 c 0.49911,0.0126 0.34483,0.64903 -0.47697,1.90325 -0.45835,0.69952 -1.0775,1.19881 -1.74253,1.44022 -0.0882,0.0126 -0.17107,0.0278 -0.26613,0.0372 -0.7251,0.0715 -1.44941,0.0352 -1.91565,-0.0744 -0.48266,-0.31342 0.18962,-1.00751 2.05827,-2.20038 1.17163,-0.74792 1.95482,-1.11572 2.34301,-1.10588 z M 49.529269,198.631 c 0.805264,0.005 1.422521,0.19315 2.25516,0.54105 3.070804,1.28306 6.877889,5.27453 6.637837,6.95927 -0.180662,1.26793 -0.558302,1.36942 -5.087543,1.36942 -6.552514,0 -7.198735,0.63509 -7.050733,6.92981 0.08451,3.59419 0.481764,5.38807 1.744597,7.88014 2.164397,4.27124 2.164458,6.86088 0,7.84706 -2.070622,0.94345 -3.274542,0.23482 -4.890141,-2.87837 -0.666271,-1.28387 -1.468673,-2.33423 -1.783355,-2.33423 -0.2433,0 -0.401047,0.21756 -0.48369,0.57774 -0.06162,0.0492 -0.08862,0.15347 -0.06822,0.3204 -0.01212,0.0673 -0.02016,0.14251 -0.02016,0.23409 0,0.002 0.0016,0.009 0.0016,0.0114 -1.5e-4,0.009 -0.0016,0.0163 -0.0016,0.0259 0,0.0287 0.0097,0.0848 0.02016,0.14263 0.0079,1.03738 0.330645,2.54483 0.931212,3.98218 0.315243,0.75449 0.546616,1.45284 0.698148,2.09187 0.07788,0.3819 0.140912,0.74818 0.183967,1.08417 0.135414,1.42774 -0.250269,2.43984 -1.157552,2.9254 -2.898904,1.55145 -5.40784,-0.0213 -7.314797,-4.58525 -0.877909,-2.10112 -1.570657,-2.7106 -1.927532,-2.22622 -0.116044,0.0576 -0.184957,0.25189 -0.205672,0.57981 -0.006,0.035 -0.01095,0.0728 -0.01603,0.11007 -0.0016,0.006 -0.0019,0.0151 -0.0031,0.0217 -0.131405,1.01371 0.05931,2.85487 0.693497,5.22604 0.07349,0.27476 0.133064,0.50633 0.190688,0.73432 0.02442,0.14818 0.0686,0.41105 0.08888,0.53485 0.03244,0.19798 0.05113,0.38598 0.06305,0.56895 -2.09e-4,0.30911 -0.009,0.60392 -0.02998,0.87282 -0.03173,0.21544 -0.08114,0.41912 -0.15141,0.60927 -0.192427,0.24905 -0.474652,0.49486 -0.866098,0.81183 -1.904283,1.54198 -2.141747,1.52162 -4.400248,-0.37879 -3.045738,-2.56283 -5.498538,-10.3692 -7.428479,-23.64198 -0.368388,-2.53351 -0.602481,-4.16207 -0.691947,-5.35006 -0.0075,-0.12033 -0.0173,-0.24937 -0.02325,-0.3638 -0.0041,-0.0778 -0.0077,-0.15399 -0.01033,-0.22789 -0.0036,-0.082 -0.004,-0.15252 -0.0067,-0.231 -0.0043,-0.29656 0.0052,-0.5632 0.02842,-0.81132 0.003,-0.0284 0.005,-0.061 0.0083,-0.0884 0.001,-0.008 0.0021,-0.0189 0.0031,-0.0274 0.11157,-0.98065 0.451093,-1.69584 1.050065,-2.93316 2.474658,-5.11196 9.790454,-8.24635 13.379545,-5.73246 0.389803,0.27303 0.814435,0.48561 1.288812,0.64337 0.329713,0.13137 0.688898,0.22086 1.108974,0.26407 l 0.571024,0.28525 1.046967,-0.23771 c 1.660877,-0.0635 3.806251,-0.46122 6.72982,-1.20768 2.513526,-0.64176 3.859453,-0.93614 4.894791,-0.92914 z m 38.030237,4.84828 c -0.105103,-0.0282 -0.170691,0.24111 -0.263033,0.75654 -0.01167,0.007 -0.02286,0.0151 -0.03359,0.0258 -0.03177,0.0318 -0.0441,0.0884 -0.04858,0.15555 -0.05601,0.0361 -0.08937,0.11666 -0.107487,0.23151 -0.0097,0.0524 -0.01704,0.11025 -0.01704,0.18345 0,0.006 0.0013,0.0126 0.0016,0.0186 -8e-5,0.008 -0.0016,0.0122 -0.0016,0.0202 0,0.21702 0.08207,0.5006 0.221176,0.80719 0.137747,0.57673 0.413094,1.15512 0.77773,1.55804 0.577863,0.63853 1.343308,1.00906 2.187463,1.12241 0.195797,0.0593 0.378095,0.0941 0.533818,0.0941 0.154575,0 0.334069,-0.033 0.526582,-0.0863 1.067864,-0.11613 2.186302,-0.59804 3.171383,-1.4459 1.641176,-1.41257 1.689942,-2.4113 0.54932,-1.99316 -0.125595,0.0221 -0.286464,0.097 -0.471289,0.22066 -0.188055,0.10293 -0.391604,0.22653 -0.618567,0.3855 -1.743553,1.22124 -3.592882,1.35368 -4.779552,0.49868 -0.168137,-0.14546 -0.336013,-0.30407 -0.504881,-0.48628 -0.02437,-0.0263 -0.04348,-0.0449 -0.06718,-0.0703 -0.151151,-0.19786 -0.281832,-0.42119 -0.386541,-0.67075 -0.361119,-0.86073 -0.544753,-1.29197 -0.669726,-1.32551 z m 79.429774,41.19645 c 0.31995,0.003 0.46574,0.37046 0.69092,0.96273 0.25822,0.67918 0.44316,1.31407 0.55138,1.92133 0.0734,1.15256 -0.0829,2.44621 -0.46198,3.59617 -1.04538,2.15628 -3.59415,4.35886 -8.20312,7.49153 -2.5275,1.7179 -5.02373,3.7769 -5.54695,4.57543 -0.56881,0.86811 -2.35534,1.89401 -4.44366,2.55229 -1.9209,0.60553 -3.4928,1.40541 -3.4928,1.77715 0,0.37177 0.49944,0.5133 1.11,0.31473 8.36698,-2.72127 10.39765,-3.12285 16.01711,-3.16725 4.9613,-0.0392 6.58668,0.20545 9.19789,1.38337 3.70662,1.67206 6.4055,4.19262 7.69256,6.75204 0.009,0.0185 0.0182,0.0372 0.0274,0.0558 0.13122,0.26522 0.2448,0.53078 0.34519,0.79582 0.15953,0.55234 0.27807,1.12318 0.3452,1.71876 0.0546,0.48395 0.0843,0.88736 0.0966,1.2547 -0.12565,1.18857 -0.65033,2.28553 -1.62626,3.18998 -2.41832,2.24121 -6.70973,3.32208 -18.93321,4.76972 -5.93107,0.70245 -12.63883,1.54451 -14.90659,1.87122 -0.65487,0.0944 -1.28872,0.17282 -1.91254,0.24391 -2.28391,0.19492 -4.23362,0.306 -5.90455,0.32348 -9.29635,-0.15361 -13.41799,-4.02605 -11.79049,-11.31556 0.71479,-3.20162 2.96748,-7.42514 4.7935,-8.98808 0.64671,-0.55357 3.45918,-1.80002 6.25027,-2.76987 10.49651,-3.64736 18.95979,-8.76446 25.87904,-15.64814 2.6749,-2.66114 3.69181,-3.66689 4.22506,-3.66128 z m -38.87876,22.42705 c 0.0304,0 0.0487,0 0.0543,0.005 0.0881,0.0712 -0.68798,1.67518 -1.72444,3.56412 -2.25442,4.10869 -2.90549,7.81847 -1.96732,10.83967 -0.57696,-0.29311 -1.38782,-0.56965 -2.53215,-0.75034 -1.38398,-0.21852 -3.56062,0.78026 -5.71386,2.08669 0.1773,-0.59669 0.31636,-1.23489 0.40927,-1.87896 0.15368,-0.58386 0.24981,-1.11091 0.25322,-1.50792 0.003,-0.33752 -0.0482,-0.72511 -0.13694,-1.11 -0.066,-0.95274 -0.26705,-1.76342 -0.62735,-2.24327 -0.20867,-0.27792 -0.37341,-0.48088 -0.52711,-0.59531 l -0.0165,-0.044 -0.0186,0.0222 c -0.43909,-0.29032 -0.80404,0.16756 -1.86656,1.73789 -1.37198,2.02772 -7.35833,5.87084 -8.05687,5.17229 -0.14112,-0.1411 0.0518,-0.83317 0.42892,-1.53789 0.26083,-0.48736 0.4629,-1.60428 0.58032,-2.80964 3e-5,0 -3e-5,0 0,0 0.031,-0.2241 0.0548,-0.44511 0.0729,-0.66249 0.12733,-1.17231 0.14432,-2.25864 -0.007,-2.72542 -0.0534,-0.53213 -0.15207,-0.8754 -0.30541,-0.8754 -0.18967,0 -1.11768,0.72917 -2.06189,1.62005 -3.502,3.30424 -13.368975,7.23325 -18.882053,7.73752 -0.04059,0.003 -0.07968,0.006 -0.120406,0.009 -0.340204,0.0201 -0.638109,0.0296 -0.960665,0.045 -0.208569,0 -0.411062,-0.003 -0.599964,-0.0172 l -2.721279,-0.19635 0.213423,-3.58687 c 0.01423,-0.23935 0.02577,-0.4689 0.0341,-0.68988 3.4e-5,0 -3.2e-5,-0.003 0,-0.003 0.01892,-0.29276 0.02291,-0.58367 0.01241,-0.8728 -0.01871,-2.711 -0.731298,-4.15055 -3.221509,-7.32825 -1.121912,-1.43163 -1.537343,-1.98927 -1.370975,-2.30838 0.168656,-0.12123 0.336952,-0.229 0.508495,-0.32142 0.101922,-0.0371 0.208706,-0.0737 0.337965,-0.11472 0.716383,-0.22738 3.934886,0.24085 7.152018,1.04024 3.492945,0.86794 5.679189,1.22621 9.940994,1.35083 2.633945,0.28673 5.163444,0.46138 7.134966,0.46249 1.69348,0 4.27593,-0.20214 7.15202,-0.52451 4.65234,-0.16896 7.36445,-0.57018 11.75226,-1.52495 3.76143,-0.81852 6.94521,-1.44685 7.40109,-1.46349 z"
       style="fill:#000000;stroke-width:0.63433897" />
  </g>
</svg>
