<?xml version="1.0" encoding="UTF-8" standalone="no"?>
<svg
   xmlns:dc="http://purl.org/dc/elements/1.1/"
   xmlns:cc="http://creativecommons.org/ns#"
   xmlns:rdf="http://www.w3.org/1999/02/22-rdf-syntax-ns#"
   xmlns:svg="http://www.w3.org/2000/svg"
   xmlns="http://www.w3.org/2000/svg"
   id="svg3213"
   version="1.1"
   viewBox="0 0 210 297"
   height="297mm"
   width="210mm">
  <title
     id="title3796">Easter Egg with Stars</title>
  <defs
     id="defs3207" />
  <metadata
     id="metadata3210">
    <rdf:RDF>
      <cc:Work
         rdf:about="">
        <dc:format>image/svg+xml</dc:format>
        <dc:type
           rdf:resource="http://purl.org/dc/dcmitype/StillImage" />
        <dc:title>Easter Egg with Stars</dc:title>
        <dc:date>2020-04-05</dc:date>
        <dc:creator>
          <cc:Agent>
            <dc:title>Painter</dc:title>
          </cc:Agent>
        </dc:creator>
        <dc:source>http://www.supercoloring.com/coloring-pages/easter-egg-with-stars</dc:source>
        <dc:subject>
          <rdf:Bag>
            <rdf:li>csk</rdf:li>
            <rdf:li>easter</rdf:li>
            <rdf:li>egg</rdf:li>
          </rdf:Bag>
        </dc:subject>
      </cc:Work>
    </rdf:RDF>
  </metadata>
  <g
     id="layer1">
    <path
       id="path3786"
       d="m 104.25021,21.319629 c -2.73924,0.02817 -5.479397,0.278621 -8.212937,0.746207 -1.400059,0.171569 -2.571123,0.428749 -3.974952,0.817005 -0.165013,0.04564 -0.329187,0.0976 -0.494027,0.144694 -2.611906,0.680456 -5.214424,1.56352 -7.801073,2.655651 C 50.81161,39.597671 23.194431,84.358593 16.32741,134.98659 c -1.145123,8.44256 -1.55634,25.4105 -0.817521,33.72404 3.344268,37.63127 19.551682,65.84933 46.585788,81.10719 8.015782,4.52405 15.841763,7.37631 25.71729,9.24078 0.01909,0.004 0.03826,0.007 0.05736,0.0109 0.254487,0.0479 0.511178,0.095 0.768429,0.14159 0.895409,0.16474 1.795614,0.31718 2.701645,0.45527 1.85438,0.29371 3.775141,0.56144 5.789827,0.80098 1.48636,0.17673 4.075542,0.25171 6.898802,0.24598 4e-4,3e-5 0.005,4.9e-4 0.006,5.2e-4 0.0668,0.005 0.22631,0.003 0.42478,-0.002 3.66198,-0.0186 7.65117,-0.17388 10.20764,-0.45475 38.12855,-4.18903 66.73202,-30.78374 76.49043,-71.11917 10.26407,-42.4255 -1.32659,-96.729688 -28.31507,-132.658572 -12.43345,-16.55224 -26.42211,-27.457786 -40.87348,-32.295185 -2.63577,-0.960969 -4.89067,-1.564856 -7.35665,-1.930631 -3.44348,-0.655531 -6.90198,-0.969375 -10.36216,-0.933793 z m 0.80718,1.508435 c 6.39212,0 8.12215,0.186674 12.5305,1.353922 11.19072,2.963089 23.2974,10.466643 33.50029,20.763073 9.80231,9.892175 17.25313,20.681047 24.56594,35.57199 10.97106,22.340151 16.58739,44.369691 17.64595,69.245901 0.0741,2.42189 0.11978,4.88287 0.13229,7.25434 -0.009,0.74243 -0.0191,1.49099 -0.0341,2.26291 -0.0399,2.04498 -0.0933,3.91446 -0.16071,5.67614 -2.65355,48.99123 -29.39383,84.45009 -71.14914,92.81449 -7.32773,1.46788 -23.139306,1.82862 -30.328386,0.69194 C 51.944249,252.1674 24.593827,222.18692 17.84308,177.43671 16.519486,168.6627 16.249238,149.17768 17.310813,139.07781 21.041598,103.58297 36.287901,68.377429 57.482521,46.317585 68.658264,34.685618 80.06084,27.497251 92.632313,24.158215 c 4.29768,-1.141482 6.06235,-1.330151 12.425077,-1.330151 z m 11.25203,7.311181 c -0.0218,0 -0.0512,0.01735 -0.0863,0.04806 -0.3607,0.227031 -1.06472,1.248238 -1.68155,2.465483 -1.00104,1.975464 -1.60511,2.578029 -2.82153,2.813264 -0.85131,0.164627 -2.26392,0.438418 -3.13883,0.608232 l -1.5906,0.30851 2.27118,2.376598 c 1.9929,2.085028 2.22652,2.564109 1.90686,3.910354 -0.20038,0.843891 -0.39148,2.16734 -0.42478,2.940907 -0.0121,0.281922 -0.002,0.530128 0.016,0.750859 -0.0266,0.162687 -0.0765,0.444005 -0.0765,0.469738 0,0.112115 0.0524,0.169408 0.18707,0.161748 0.0124,0.01429 0.0256,0.02429 0.0408,0.02429 0.005,0 0.0182,-0.0049 0.0243,-0.0057 0.007,0.0028 0.0136,0.0057 0.0207,0.0057 0.15,0 1.41562,-0.579279 2.81275,-1.287259 l 2.54041,-1.287258 2.60811,1.321366 c 0.99228,0.502827 1.90108,0.885611 2.41639,1.034044 0.21902,0.07677 0.36914,0.110416 0.40308,0.07648 0.004,-0.0037 0.006,-0.01234 0.009,-0.0186 0.005,-0.0027 0.0134,-0.0041 0.017,-0.0078 0.004,-0.0035 0.006,-0.01123 0.009,-0.01654 0.004,-0.0025 0.0109,-0.0036 0.014,-0.0067 0.14342,-0.143418 0.0421,-1.527787 -0.22479,-3.076814 l -0.4687,-2.721797 1.90221,-1.955954 c 0.0967,-0.09943 0.17969,-0.19237 0.27285,-0.290422 l 0.0351,-0.03411 c 0.95358,-0.935868 1.53063,-1.525815 1.63763,-1.9358 0.0377,-0.06474 0.063,-0.118343 0.063,-0.146243 0,-0.02732 -0.0233,-0.0568 -0.0579,-0.08785 -0.002,-0.0063 -0.003,-0.01288 -0.005,-0.01912 l 0.16537,-0.16795 -0.31471,-0.03669 c -0.38712,-0.324053 -1.45935,-0.504597 -3.36827,-0.794266 -2.15987,-0.327752 -2.37008,-0.50546 -3.41943,-2.884061 -0.61498,-1.394029 -1.35916,-2.53473 -1.65365,-2.53473 -0.008,0 -0.0171,0.0037 -0.0253,0.0052 -0.005,-0.0014 -0.0114,-0.0052 -0.016,-0.0052 z m 0,2.644283 c 0.0254,0 0.051,0.0085 0.0765,0.01499 0.23221,0.255355 0.65012,1.0302 1.03611,1.949236 0.67401,1.604785 1.12965,2.040702 2.13217,2.040702 0.70112,0 1.65277,0.145039 2.11512,0.322461 0.72215,0.277117 0.64604,0.526172 -0.54209,1.7663 -1.22497,1.278602 -1.34651,1.709658 -1.0635,3.774445 l 0.2403,1.75545 c 0.006,0.249047 -0.008,0.431003 -0.0444,0.51263 l -1.91358,-0.975651 -2.03657,-1.039212 -2.03657,1.039212 -1.91358,0.975651 c -0.0363,-0.08199 -0.0504,-0.264964 -0.0444,-0.515731 l 0.2403,-1.752349 c 0.28301,-2.064787 0.16147,-2.495843 -1.0635,-3.774445 -1.18813,-1.240128 -1.26424,-1.489183 -0.54209,-1.7663 0.46235,-0.177422 1.41536,-0.322461 2.11822,-0.322461 1.01603,0 1.4426,-0.419359 2.08152,-2.045869 0.22876,-0.58238 0.47236,-1.105975 0.678,-1.478463 3.2e-4,-5.82e-4 7.1e-4,-9.71e-4 10e-4,-0.0016 0.12542,-0.187995 0.23319,-0.332944 0.31885,-0.430467 0.0544,-0.02901 0.10837,-0.04857 0.16226,-0.04857 z m -28.769302,0.189654 -0.454236,0.905369 c -0.501444,0.831072 -1.296236,2.353083 -2.12597,4.104659 l -0.813903,1.717725 c -1.080421,2.068356 -1.632474,2.852296 -2.341975,3.195672 l -4.333587,0.668176 c -1.621742,0.250103 -3.109187,0.522145 -4.146515,0.747242 -0.645478,0.08655 -1.113621,0.143174 -1.24282,0.144176 -0.03505,2.7e-4 -0.03947,0.03076 -0.01705,0.08682 l -0.350882,0.04909 0.173632,0.174667 c 0.01684,0.356219 1.551647,2.096675 3.569806,4.032311 l 3.898988,3.739306 -0.681096,4.016293 c -0.374727,2.208781 -0.80042,4.64884 -0.945679,5.422408 -0.145256,0.773567 -0.118049,1.406633 0.06046,1.406633 0.178507,0 2.483305,-1.09315 5.121651,-2.429309 l 4.797123,-2.429827 4.629174,2.469099 c 1.691434,0.902076 3.2205,1.628466 4.113445,1.974041 l 1.098124,0.592211 -0.173632,-0.89762 c -0.01952,-0.225734 -0.0889,-0.714896 -0.181901,-1.323948 -0.106818,-0.993598 -0.286896,-2.297253 -0.519864,-3.700034 l -0.861447,-5.186762 2.043285,-2.056723 0.306959,-0.308509 1.511535,-1.477944 c 1.036207,-1.012989 1.954077,-1.954626 2.614307,-2.672189 l 1.32551,-1.33377 -0.71314,-0.111103 c -1.77436,-0.390555 -8.413193,-1.471706 -9.631453,-1.548744 -0.01929,-0.0036 -0.04755,-0.0084 -0.06615,-0.01188 -0.06084,-0.03459 -0.121394,-0.07347 -0.181901,-0.117306 -0.411933,-0.48455 -1.508385,-2.431719 -2.658237,-4.746479 -1.162709,-2.340634 -2.265929,-4.308502 -2.656168,-4.76095 z m 0.09922,3.304706 c 0.107834,5e-4 0.65105,0.877131 1.338419,2.115116 l 0.646988,1.286743 c 0.605684,1.204648 1.044474,2.077299 1.465543,2.731617 l 0.925526,1.792655 2.812748,0.374655 c 1.547133,0.20591 3.614825,0.513869 4.595069,0.684713 l 1.275889,0.222726 c 0.0205,0.160599 -0.44356,0.78 -1.187523,1.616438 l -1.804541,1.62729 -3.498495,3.155363 0.848526,4.528407 c 0.325538,1.73727 0.566225,3.234134 0.658876,4.029728 -0.08889,0.306107 -0.29927,0.406461 -0.670242,0.339514 -0.735386,-0.334494 -1.959348,-0.946346 -3.376538,-1.701189 l -3.926377,-2.091346 -0.282671,0.139528 -0.02945,-0.01447 -0.633037,0.342098 -2.987931,1.476396 c -2.163202,1.068843 -4.032729,1.843916 -4.154268,1.722374 -0.121542,-0.121539 0.09918,-2.074396 0.490408,-4.339785 l 0.711067,-4.119129 -0.191719,-0.190169 0.0067,-0.03514 -0.482139,-0.436149 -2.578656,-2.555918 c -0.03266,-0.03237 -0.0537,-0.05347 -0.08578,-0.08526 -0.0024,-0.0025 -0.0043,-0.0048 -0.0067,-0.0072 -1.96e-4,-1.9e-4 -3.26e-4,-3.22e-4 -5.19e-4,-5.15e-4 -0.774739,-0.781871 -1.463558,-1.506459 -2.013312,-2.106332 -1.15724,-1.448615 -0.136266,-1.572459 3.72432,-2.046902 1.687782,-0.20742 3.416744,-0.563187 3.842141,-0.790133 0.0086,-0.0046 0.01923,-0.01375 0.02842,-0.01964 0.113448,-0.02839 0.19763,-0.05332 0.211875,-0.06925 0.0197,-0.02203 0.09647,-0.158173 0.214974,-0.379823 0.544672,-0.70685 1.355691,-2.088615 2.072741,-3.57084 0.965105,-1.994969 1.883042,-3.62685 2.03967,-3.626136 z m 43.119332,18.185453 -1.65933,3.30936 c -0.32202,0.64225 -0.58569,1.156476 -0.85318,1.679483 -0.92919,1.726406 -1.35985,1.863899 -3.20187,2.115635 -1.28797,0.176014 -3.00065,0.450461 -3.80597,0.609779 l -1.464,0.289907 2.68615,2.720247 c 2.90953,2.946131 2.85321,2.674816 1.72599,8.297167 -0.0978,0.487781 -0.13689,0.858779 -0.10025,1.124479 -0.10872,0.324284 -0.1004,0.497726 0.19585,0.457854 0.003,0.05079 0.01,0.07958 0.0217,0.07958 0.0119,0 0.10759,-0.04188 0.16382,-0.06408 0.51627,0.09582 1.58766,-0.392936 3.51555,-1.455725 l 2.72386,-1.5012 3.26957,1.612304 c 0.86222,0.42518 1.65974,0.782799 2.27996,1.033013 0.46277,0.219043 0.81962,0.369305 0.92966,0.373621 l 0.23048,0.12919 -0.008,-0.04702 0.0139,0.0072 -0.0129,-0.0987 c 0.0196,-0.002 0.0339,-0.0067 0.0413,-0.01499 0.11261,-0.126241 -0.0345,-1.792912 -0.32712,-3.704167 l -0.52916,-3.456635 c 0.0111,-0.01824 0.019,-0.03425 0.0305,-0.05271 l 2.67529,-2.708878 2.70888,-2.74247 -3.83387,-0.618566 -2.89957,-0.46767 c -0.54098,-0.195874 -0.92315,-0.451657 -1.26194,-0.836642 l -1.12964,-2.363163 c -0.80144,-1.67681 -1.63306,-3.156913 -1.84795,-3.289723 -0.0175,-0.01081 -0.0409,-0.0081 -0.0672,5.19e-4 z m 0.1142,2.787943 0.76481,1.513086 0.44649,0.911056 c 0.29658,0.605726 0.54318,1.077886 0.77411,1.452626 0.27201,0.489656 0.50713,0.8641 0.73381,1.119828 0.47773,0.538967 0.94464,0.642331 1.77715,0.660424 0.9097,0.01977 2.06375,0.197395 2.5647,0.395324 0.79703,0.31491 0.68109,0.582126 -0.92811,2.137855 -0.60816,0.587954 -1.01093,0.987009 -1.26969,1.369425 l -0.6258,0.542086 0.27078,1.57303 c 0.0293,0.36069 0.0705,0.760928 0.12919,1.270206 l 0.3328,2.887163 c -0.26348,-0.0858 -1.33729,-0.592789 -2.54868,-1.206643 l -0.0646,-0.03256 -2.35179,-1.192176 h -5.2e-4 l -0.2713,-0.137459 -2.20658,1.293461 c -0.88663,0.519602 -1.70895,0.964319 -2.14871,1.169437 -0.14476,0.04456 -0.26718,0.06846 -0.36122,0.06201 -0.071,-0.274825 0.0411,-1.448437 0.28164,-2.844789 l 0.50075,-2.906797 -2.07533,-1.9358 -1.54823,-1.444356 c -0.10739,-0.23419 -0.12976,-0.423304 -0.0512,-0.568441 l 1.40457,-0.224793 c 0.54623,-0.08753 1.15635,-0.191315 1.71152,-0.288872 0.18779,-0.02253 0.36478,-0.05363 0.5302,-0.09715 0.24227,-0.04426 0.54036,-0.09634 0.69608,-0.12764 0.67303,-0.135282 1.49947,-1.158725 2.27635,-2.8174 l 1.12293,-2.396752 c 0.058,-0.07345 0.10584,-0.125283 0.13384,-0.135393 z m -66.731323,7.155119 c -0.153038,0 -1.466064,2.38791 -2.917653,5.306653 -2.961015,5.953789 -1.96741,5.324943 -10.252085,6.491594 -2.3207,0.326806 -4.219382,0.782564 -4.219382,1.012857 0,0.230291 1.841,2.102422 4.091223,4.16047 4.586748,4.195016 4.528997,4.015205 3.324862,10.307899 -0.421899,2.204794 -0.767394,4.465751 -0.767394,5.023982 0,0.898359 0.62022,0.691187 5.399153,-1.80454 l 5.39967,-2.819985 5.34076,2.826703 c 3.400594,1.799828 5.343342,2.578769 5.346443,2.143538 0.0028,-0.375981 -0.383662,-3.136591 -0.858861,-6.135026 L 73.16425,85.4692 c 3.71e-4,-5.61e-4 0.0012,-9.87e-4 0.0016,-0.0016 l 4.181657,-3.934642 c 2.30083,-2.164456 4.183206,-4.114906 4.183206,-4.334619 0,-0.219712 -1.898682,-0.666932 -4.219379,-0.993738 -8.284679,-1.166651 -7.29107,-0.537805 -10.252089,-6.491594 -1.451588,-2.918743 -2.764612,-5.306653 -2.91765,-5.306653 z m 0,3.068548 c 0.155919,0 1.257678,1.964666 2.448428,4.365625 0.110077,0.221948 0.220768,0.436853 0.331248,0.65164 0.6136,1.259289 1.064876,2.145789 1.531172,2.721797 0.05046,0.07991 0.101577,0.162089 0.149344,0.235128 l 0.313159,0.639236 0.161747,0.02171 c 0.008,0.0098 0.01543,0.01911 0.02325,0.02842 0.0025,0.003 0.0055,0.0062 0.0078,0.0088 0.117078,0.138213 0.218482,0.241289 0.281636,0.261482 0.348747,0.111522 2.672508,0.475938 5.164026,0.809771 l 3.95583,0.529682 c 0.260311,0.341961 -0.477067,1.135341 -3.028238,3.703651 l -0.05788,0.05839 -0.0708,0.07131 -3.283003,3.30419 -0.254248,0.234612 0.0036,0.0186 -0.06925,0.06925 v 5.16e-4 l -0.128157,0.129191 0.838708,4.731493 c 0.414984,2.34124 0.686787,4.368141 0.656291,4.833813 -0.02347,0.02816 -0.0498,0.052 -0.07855,0.07235 -0.125947,-0.0229 -0.284139,-0.06426 -0.47801,-0.127641 -6.11e-4,-2.01e-4 -9.36e-4,-3.17e-4 -0.0015,-5.15e-4 -0.775147,-0.317987 -2.301499,-1.077453 -4.018359,-2.013316 l -4.35374,-2.372981 -4.283461,2.316138 c -1.852935,1.001864 -3.037007,1.627749 -3.777546,1.949752 -0.274069,0.107326 -0.504992,0.188889 -0.690399,0.24288 -0.03664,0.0074 -0.07173,0.01348 -0.102835,0.01654 -0.151323,-0.06502 -0.246841,-0.203647 -0.294556,-0.425815 0.0179,-0.104521 0.04695,-0.22357 0.08682,-0.362252 0.141528,-0.492268 0.536567,-2.696456 0.877983,-4.897892 l 0.620633,-4.002339 -0.0072,-0.0072 -0.08165,-0.08217 v -5.16e-4 l -0.03565,-0.03617 0.0093,-0.05168 -0.76326,-0.706933 -2.832901,-2.851507 -0.0098,-0.01033 -0.04134,-0.04134 -2.962095,-2.982245 -0.472321,-0.475425 c 0.002,-0.100637 0.03467,-0.191217 0.106452,-0.271817 l 4.197678,-0.562239 c 2.491518,-0.333833 4.815279,-0.698249 5.164024,-0.809771 0.06867,-0.02196 0.180816,-0.138171 0.312642,-0.298688 l 0.161748,-0.02171 0.0062,-0.01292 0.30644,-0.625803 c 0.09941,-0.151982 0.202727,-0.312783 0.313161,-0.493509 0.526399,-0.729507 1.049861,-1.803829 1.888257,-3.473172 l 0.517279,-1.030431 c 0.889479,-1.716402 1.618012,-2.977594 1.742014,-2.977594 z m 91.932883,9.481074 -2.75332,5.488553 c -1.51438,3.018737 -2.86807,5.488554 -3.00808,5.488554 -1.01442,0 -10.73197,1.618837 -10.93473,1.821595 -0.0122,0.0122 -0.005,0.04292 0.01,0.08217 -0.018,0.0072 -0.0568,0.01707 -0.0636,0.02273 -0.0118,0.0098 -0.005,0.03584 0.01,0.06925 -0.005,0.0092 -0.01,0.01862 -0.01,0.02739 0,0.130974 0.86218,1.079854 2.08153,2.328539 0.5436,0.591797 1.15862,1.242608 1.83038,1.92908 l 4.11344,4.20388 -0.91209,5.114414 c -0.50173,2.81297 -0.92662,5.40255 -0.94413,5.75417 -9.9e-4,0.02 0.002,0.0368 0.002,0.0563 l -0.14417,0.71417 0.30644,-0.15968 c 0.023,0.0165 0.0469,0.0284 0.0729,0.0284 0.14779,0 2.54493,-1.2083 5.32732,-2.68511 l 5.05913,-2.68511 5.18831,2.73885 c 2.85349,1.5066 5.28811,2.63957 5.41052,2.51716 0.12241,-0.12241 -0.23795,-2.72997 -0.80098,-5.79447 l -1.02371,-5.571757 4.19509,-4.217313 c 1.97061,-1.980909 3.53917,-3.72914 3.86953,-4.289144 0.0584,-0.08251 0.0912,-0.141632 0.0749,-0.156062 -5.7e-4,-5.05e-4 -0.005,-0.0016 -0.005,-0.0021 9e-5,-0.01088 0.002,-0.02399 -0.003,-0.02945 -0.14259,-0.142592 -2.7769,-0.631796 -5.85442,-1.087274 -1.90931,-0.282575 -3.53292,-0.535501 -4.56199,-0.7059 -0.93117,-0.386726 -1.46153,-0.993418 -2.0898,-2.132169 -0.32974,-0.653243 -0.76561,-1.523627 -1.19941,-2.389002 -0.10786,-0.221647 -0.19115,-0.393396 -0.31109,-0.63717 -0.36166,-0.735047 -0.71139,-1.425509 -1.03922,-2.058273 z m 0.11886,3.309876 2.06344,4.114477 c 1.0125,2.018824 2.02844,3.818864 2.4846,4.427636 l 0.0114,0.02274 0.005,5.16e-4 c 0.0737,0.09667 0.13514,0.168608 0.17467,0.193789 0.28022,0.17853 1.92003,0.483904 3.6437,0.678511 1.72367,0.194601 3.78596,0.48383 4.58318,0.642855 l 0.3266,0.06511 c 0.91045,0.489117 0.0269,1.365634 -2.28462,3.656624 -0.62276,0.617228 -1.13482,1.130993 -1.56373,1.596287 l -1.98437,1.815391 0.03,0.187071 -0.23564,0.23926 0.77824,4.507222 c 0.42795,2.47882 0.6573,4.62766 0.50953,4.77542 -0.14775,0.14775 -2.13213,-0.72967 -4.40955,-1.94976 l -4.14083,-2.21795 -4.60282,2.42414 c -4.24973,2.23834 -4.58415,2.33631 -4.362,1.27848 0.83232,-3.9634 1.30563,-6.11653 1.22628,-7.639328 l 0.24391,-1.552361 -1.44797,-1.308447 c -0.5253,-0.637116 -1.22651,-1.337196 -2.15026,-2.268079 -1.93949,-1.954456 -3.11009,-3.481972 -2.68511,-3.503663 0.4144,-0.02113 2.59481,-0.308742 4.84518,-0.639236 l 4.09123,-0.600998 1.32808,-2.56005 c 0.3912,-0.656112 0.80119,-1.411336 1.20406,-2.23914 1.09588,-2.251707 2.12763,-4.096001 2.31769,-4.146516 z m -45.53882,0.50953 c -0.15663,-0.0015 -1.05439,1.588823 -1.99523,3.533634 l -0.41444,0.856279 c -0.99518,1.991313 -1.38214,2.534558 -2.48047,2.798279 l -2.32079,0.23306 c -1.66772,0.167479 -3.18415,0.495708 -3.686079,0.778764 l -0.441317,0.08733 0.0021,0.0021 -0.0021,5.15e-4 0.300239,0.31006 c 0.204607,0.530575 1.142957,1.611255 2.379697,2.701642 l 1.57768,1.390613 c 0.59759,0.652862 0.91459,1.13528 1.01441,1.801958 l -0.0196,0.14986 -0.4377,2.374532 c -0.33431,1.814412 -0.60771,3.560163 -0.60771,3.879353 0,0.2853 0.0492,0.45977 0.23875,0.50333 0.0197,0.0458 0.0431,0.077 0.0744,0.077 0.0319,0 0.13438,-0.04 0.27078,-0.10025 0.52204,-0.12486 1.49153,-0.59895 3.28456,-1.52859 l 3.14192,-1.629354 3.36776,1.746144 c 1.51137,0.78361 2.86756,1.35883 3.40444,1.46348 0.0289,0.009 0.0652,0.0227 0.078,0.0238 0.004,3.3e-4 0.007,-0.005 0.0109,-0.006 0.0759,0.009 0.13255,0.007 0.154,-0.0145 0.1538,-0.1538 -0.032,-1.91298 -0.41238,-3.909322 l -0.67334,-3.534669 2.75952,-2.813781 2.83083,-2.887162 -0.70021,-0.138493 c -0.0146,-0.01521 -0.0292,-0.03038 -0.0486,-0.04238 -0.33826,-0.209058 -2.093,-0.538792 -3.8995,-0.732253 l -2.00763,-0.214974 c -0.53001,-0.12288 -0.8946,-0.297482 -1.22783,-0.644922 -0.30548,-0.330438 -0.60263,-0.822301 -0.97875,-1.54306 l -0.66095,-1.458826 c -0.87482,-1.930616 -1.7187,-3.511462 -1.87533,-3.512962 z m -0.11421,2.817915 1.3255,2.615343 c 0.40437,0.797973 0.76913,1.405734 1.15756,1.87017 l 0.41651,0.849045 0.74672,0.08423 c 0.6868,0.330452 1.53598,0.442479 2.73213,0.448551 2.07258,0.01051 2.09756,0.684885 0.0977,2.610694 -0.99367,0.956863 -1.43915,1.396574 -1.58336,2.141987 l -0.15916,0.161232 5.1e-4,0.0031 -0.0651,0.06615 -0.0408,0.04186 0.28836,1.673283 c 0.0265,0.276344 0.0559,0.565629 0.092,0.907955 l 0.32815,3.117124 c -0.1745,-0.0626 -0.62356,-0.26939 -1.18649,-0.540022 l -1.38131,-0.776179 -2.58227,-1.451591 -2.87321,1.409216 c -2.08558,1.022852 -2.66938,1.230576 -2.67374,0.803568 2.2e-4,-0.01832 5.4e-4,-0.03798 0.001,-0.05736 0.006,-0.0693 0.023,-0.150612 0.0491,-0.245462 0.53204,-1.934927 0.78174,-3.109026 0.66663,-4.052983 0.006,-0.110826 0.005,-0.218165 -0.005,-0.323495 l 0.11576,-0.623734 -0.34675,-0.355016 0.0191,-0.19327 -1.52911,-1.381313 c -0.0361,-0.03558 -0.0638,-0.06522 -0.10128,-0.101801 -0.0152,-0.01485 -0.0253,-0.02561 -0.0403,-0.04031 -0.009,-0.0095 -0.017,-0.01787 -0.0264,-0.02739 -2.00727,-2.045253 -2.27944,-2.395752 0.0941,-2.776575 0.82868,-0.03181 1.49461,-0.118083 2.05207,-0.295074 0.33531,-0.05205 0.62888,-0.108021 0.87023,-0.18035 l 0.6258,-0.0708 0.0439,-0.0863 0.0264,-0.0031 0.13849,-0.282152 c 0.4536,-0.398007 0.80871,-1.062043 1.4025,-2.274798 z M 84.599727,104.81117 c -0.155919,0 -1.250942,1.9503 -2.433442,4.33462 -2.341655,4.72156 -1.969449,4.4727 -7.984526,5.33921 -1.132674,0.16317 -2.184649,0.35919 -2.90525,0.53072 l -1.090372,0.16226 0.155546,0.15813 c -0.1153,0.22915 1.319118,1.79533 3.240114,3.53157 l 2.205548,1.99316 1.332736,1.35237 -0.758608,4.79712 c -0.428361,2.70944 -0.669595,5.0355 -0.535887,5.1692 0.133709,0.13371 2.17098,-0.80768 4.526856,-2.09187 l 3.255098,-1.77405 1.070221,-0.53795 4.34082,2.34714 c 2.410574,1.30339 4.467661,2.28491 4.571296,2.18127 0.103635,-0.10363 -0.177665,-2.32902 -0.625284,-4.94492 l -0.637689,-3.72639 c 0.0057,-0.55909 0.08442,-1.031 0.259932,-1.46916 l 3.048395,-3.07165 c 1.561451,-1.5735 2.802792,-3.00175 3.121773,-3.56464 0.0589,-0.0855 0.100957,-0.15669 0.09974,-0.18965 l 0.15141,-0.15451 -0.766876,-0.10129 c -0.689419,-0.17763 -1.898666,-0.40593 -3.224093,-0.59686 -6.015075,-0.86651 -5.642353,-0.61765 -7.984009,-5.33921 -1.182502,-2.38432 -2.277522,-4.33462 -2.433444,-4.33462 z m -45.143496,0.2589 -1.105358,2.2226 c -0.485619,0.86938 -1.061601,1.94656 -1.668116,3.144 l -2.291334,4.52479 c -0.0867,0.10691 -0.173225,0.21385 -0.250629,0.29559 -0.02547,0.0207 -0.0509,0.0409 -0.07648,0.0599 l -4.701003,0.63614 c -2.672322,0.36172 -5.189873,0.77384 -5.593974,0.9157 -0.108021,0.0379 -0.141451,0.13245 -0.108004,0.27906 l -0.08062,0.0134 0.04548,0.046 0.08268,0.0832 c 0.03836,0.0911 0.09355,0.19519 0.169499,0.31575 0.09799,0.36764 0.544151,0.87147 1.286226,1.58801 0.500976,0.55268 1.116741,1.19855 1.877922,1.96423 l 4.008024,4.03127 -0.636138,4.00338 c -0.349879,2.2018 -0.758105,4.63592 -0.907439,5.40949 -0.14933,0.77356 -0.07043,1.40931 0.175702,1.41231 0.246134,0.003 2.560786,-1.09003 5.143355,-2.42931 l 4.695319,-2.43499 4.8519,2.55695 c 2.668485,1.40631 4.962409,2.44162 5.097365,2.30115 0.134959,-0.14047 -0.183198,-2.67188 -0.706935,-5.6255 l -0.855245,-4.82296 c 0.05008,-0.3154 0.135105,-0.60463 0.259932,-0.88366 l 3.460772,-3.26182 c 1.943996,-1.83224 3.558108,-3.57065 3.787367,-4.06487 l 0.154511,-0.15555 -0.181901,-0.0362 c -0.04952,-0.0472 -0.133146,-0.0972 -0.249081,-0.14883 -9.15e-4,-0.0227 -0.0079,-0.0392 -0.02325,-0.0481 -0.05167,-0.0296 -0.223428,-0.0733 -0.460952,-0.12454 -0.873977,-0.26447 -2.408491,-0.55517 -4.292761,-0.7953 -2.796183,-0.35634 -5.270614,-0.78476 -5.498373,-0.95239 -0.227761,-0.16762 -1.440833,-2.4365 -2.695961,-5.04207 -1.011854,-2.10055 -1.974638,-3.83251 -2.420522,-4.39456 z m 45.143496,2.80965 c 0.172609,0 1.082196,1.58872 2.021583,3.53053 l 1.707907,3.53054 2.865975,0.34313 c 0.663366,0.0794 1.230643,0.14572 1.742011,0.20929 0.941541,0.14939 1.372579,0.21694 1.933215,0.30489 1.095531,0.25848 1.177655,0.61394 0.473358,1.46089 -0.455189,0.4946 -1.008343,1.0781 -1.659847,1.73685 -0.0059,0.006 -0.01058,0.011 -0.01654,0.017 -0.05498,0.0554 -0.09246,0.0934 -0.149347,0.15089 l -0.07028,0.0713 -2.552817,2.57917 -0.138493,0.13022 0.0016,0.008 -0.0098,0.01 v 5.2e-4 l -0.166399,0.16795 0.589111,2.93263 c 1.029459,5.12605 1.085019,5.07097 -3.029789,2.99878 l -3.618383,-1.8221 -3.303675,1.81591 c -0.911767,0.50117 -1.772589,0.95578 -2.425692,1.28519 -0.0012,5.9e-4 -0.0019,4.4e-4 -0.0031,0.001 -0.684085,0.26546 -1.147416,0.39203 -1.224214,0.31523 -0.04448,-0.0445 -0.06104,-0.23713 -0.05788,-0.52039 4.7e-5,-8e-4 -4.8e-5,-0.002 0,-0.003 0.01593,-0.26492 0.05481,-0.58321 0.116271,-0.92501 0.466659,-2.59484 0.757121,-4.0312 0.726572,-5.05137 l 0.209807,-1.08469 -0.0584,-0.0589 -0.0021,-0.002 0.01344,-0.0682 -1.271241,-1.20303 -0.392224,-0.39635 c -0.322704,-0.33267 -0.701093,-0.70867 -1.147733,-1.15962 -0.01083,-0.0109 -0.01752,-0.0179 -0.02842,-0.0289 l -0.08733,-0.0884 c -1.332564,-1.34662 -2.382515,-2.49971 -2.659785,-2.90576 l 1.524452,-0.26407 c 0.939972,-0.16258 2.768066,-0.44323 4.062286,-0.62373 0.833892,-0.1163 1.373653,-0.20015 1.804024,-0.41962 l 0.445968,-0.0708 0.306957,-0.58653 c 0.407567,-0.53178 0.823613,-1.37407 1.505852,-2.78433 0.94017,-1.94343 1.850522,-3.53363 2.023131,-3.53363 z m -44.978647,0.5116 c 0.18465,0 1.155372,1.81811 2.156973,4.04057 l 1.821077,4.0411 4.645194,0.63459 c 2.512687,0.34338 4.571442,0.78476 4.638995,0.99167 -0.27962,0.37105 -0.753152,0.92016 -1.370976,1.58595 -0.540043,0.54762 -1.170466,1.1663 -1.887225,1.834 l -3.264916,3.04115 0.68058,3.80649 c 1.097828,6.13975 1.288349,5.94217 -3.321762,3.44578 l -4.056083,-2.19624 -3.999238,2.03553 c -2.292162,1.16686 -3.493588,1.78174 -4.133083,2.05569 -0.176196,0.0595 -0.307065,0.0942 -0.382921,0.0997 -0.03836,-0.0306 -0.07268,-0.0673 -0.100769,-0.11369 -0.009,-0.0923 -0.0046,-0.25063 0.0083,-0.45062 0.176464,-0.58092 0.559253,-2.54994 0.888834,-4.593 l 0.64027,-3.96875 -0.07906,-0.0796 v -5.2e-4 l -0.06563,-0.0661 0.0057,-0.0331 -0.396357,-0.3607 -2.966228,-2.98897 -0.01292,-0.0129 c -0.0033,-0.003 -0.0055,-0.006 -0.0088,-0.009 -2.176335,-2.19348 -2.950167,-3.08935 -2.801897,-3.39566 0.164875,-0.0445 0.371416,-0.0931 0.617016,-0.14521 0.797751,-0.0381 2.788088,-0.27114 4.689635,-0.55397 l 3.7791,-0.56224 1.970421,-4.0411 c 1.083611,-2.22253 2.121151,-4.04057 2.305804,-4.04057 z m 85.23924,8.4925 -0.38654,0.76946 c -0.4757,0.63833 -1.26939,2.0153 -2.09134,3.67265 l -1.73013,3.48816 c -0.35216,0.41341 -0.73396,0.70113 -1.23197,0.9126 l -3.80442,0.50643 c -2.55144,0.33971 -4.76292,0.74268 -4.91391,0.89555 -0.15098,0.15287 1.30703,1.7774 3.2396,3.61012 l 3.51348,3.33261 -0.60565,3.90984 c -0.33319,2.15045 -0.72147,4.3126 -0.863,4.80487 -0.37734,1.3125 0.32449,1.12752 4.71703,-1.24178 l 1.87327,-1.01028 c 1.18293,-0.55505 2.11933,-0.94464 2.34197,-0.94464 0.0355,0 0.0913,0.0117 0.15762,0.0295 l 3.87573,1.98437 c 2.35823,1.20754 4.38708,2.09675 4.50825,1.97559 0.12116,-0.12116 -0.13509,-2.25632 -0.56947,-4.74493 l -0.79014,-4.52479 3.45612,-3.48299 c 1.90076,-1.91544 3.34515,-3.59345 3.20963,-3.72897 -0.13552,-0.13552 -2.33954,-0.52502 -4.89738,-0.86558 l -3.87315,-0.51573 c -0.18739,-0.0805 -0.3586,-0.17099 -0.51573,-0.27544 -0.23648,-0.17031 -0.44828,-0.38023 -0.65267,-0.63045 -1.5e-4,-1.8e-4 -3.7e-4,-3.3e-4 -5.2e-4,-5.2e-4 l -1.56476,-3.2091 -0.0207,-0.0429 c -0.11386,-0.23354 -0.22153,-0.44193 -0.33383,-0.66715 -0.15625,-0.31346 -0.31524,-0.63662 -0.46354,-0.92552 -0.41963,-0.81752 -0.79235,-1.50799 -1.07177,-1.98851 z m -0.19379,2.95383 c 0.0625,0.006 0.17106,0.11315 0.30438,0.27698 l 1.48208,2.95796 c 0.95738,1.91119 1.78476,3.52741 1.83916,3.59151 0.0544,0.0641 1.88828,0.38271 4.07521,0.70797 l 3.74705,0.55759 c 0.0435,0.0571 0.0695,0.11905 0.078,0.18707 l -2.73523,2.76365 -2.88613,2.91662 0.59841,3.43545 c 0.32908,1.88956 0.48424,3.54963 0.3452,3.68866 -0.13904,0.13904 -1.74259,-0.48229 -3.5636,-1.38027 l -1.69964,-0.8382 -1.31827,-0.7369 -0.0858,0.045 -0.20722,-0.10231 -3.39824,1.80454 c -1.86902,0.99245 -3.39825,1.5622 -3.39825,1.26607 0,-0.29612 0.25804,-2.019 0.57309,-3.82819 l 0.57258,-3.28921 -0.13436,-0.1359 -2.85202,-2.882 c -0.006,-0.006 -0.01,-0.0103 -0.0155,-0.016 l -0.01,-0.01 c -2.19629,-2.22154 -2.71006,-2.99154 -1.99575,-2.99154 0.53074,0 2.38621,-0.24786 4.12327,-0.55036 l 3.15846,-0.54984 1.72444,-3.56412 1.53014,-3.16312 c 0.0463,-0.0713 0.0837,-0.12454 0.10697,-0.14779 0.0108,-0.0108 0.0247,-0.0151 0.0413,-0.0134 z m 48.92518,2.36264 c -0.16055,0 -1.01946,1.47461 -1.90841,3.27732 -1.71684,3.48156 -1.56576,3.38772 -6.65851,4.15634 -0.91421,0.13796 -1.69713,0.34095 -2.01693,0.50849 -0.0932,0.0349 -0.15658,0.0676 -0.15658,0.0941 0,0.003 0.009,0.0138 0.01,0.0181 -0.006,0.0102 -0.01,0.0204 -0.01,0.03 0,0.1774 1.15351,1.4908 2.56367,2.91869 l 2.34766,2.37711 c 0.0658,0.30689 0.0769,0.66629 0.0496,1.09916 l -0.3514,1.85208 c -0.28497,1.50264 -0.5178,3.17614 -0.5178,3.71916 0,0.89427 0.31733,0.81888 3.36982,-0.80202 l 3.37034,-1.78956 3.27887,1.80196 3.27835,1.80247 -0.0222,-1.45365 c -0.0122,-0.79938 -0.22625,-2.48898 -0.47594,-3.75481 -0.45119,-2.28732 -0.4384,-2.3172 2.06809,-4.87464 0.53932,-0.55029 1.01301,-1.06094 1.4242,-1.51774 0.64808,-0.63257 1.09761,-1.1331 1.09761,-1.26659 0,-0.0159 -0.009,-0.0321 -0.0217,-0.0491 0.013,-0.0265 0.0217,-0.0489 0.0217,-0.0625 0,-0.1774 -0.978,-0.47018 -2.17351,-0.6506 -5.09275,-0.76862 -4.94168,-0.67478 -6.65851,-4.15634 -0.88896,-1.80271 -1.74786,-3.27732 -1.90841,-3.27732 z m 0.0114,3.07216 c 0.15659,0.031 0.6096,0.74662 1.11053,1.7198 0.0572,0.11922 0.11409,0.22829 0.17053,0.35346 0.13916,0.30861 0.27779,0.5867 0.41806,0.84078 0.80399,1.63957 1.35439,2.19676 2.14871,2.19676 0.62,0 1.86293,0.14728 2.7621,0.32712 l 0.99271,0.19843 c 0.21016,0.39969 -0.22182,1.05682 -1.26659,2.06086 -0.60711,0.58344 -1.00847,0.98074 -1.26659,1.36322 -0.22452,0.26286 -0.39222,0.49304 -0.5023,0.71314 l -0.093,0.0868 0.015,0.0941 c -0.22161,0.59037 -0.0935,1.2077 0.18087,2.48098 0.15215,0.70604 0.2562,1.37327 0.30179,1.87534 0.0107,0.346 0.0101,0.63616 -0.01,0.81132 -0.007,0.0188 -0.0157,0.0338 -0.0253,0.0434 -0.14558,0.14559 -1.30807,-0.34665 -2.58331,-1.09399 l -2.31872,-1.35909 -2.24172,1.31361 c -0.58037,0.34012 -1.13867,0.64508 -1.5968,0.87902 -0.51757,0.23171 -0.9091,0.39436 -1.0387,0.42426 -0.27327,-0.17502 0.005,-2.66229 0.52969,-4.61522 0.0465,-0.17329 -0.0524,-0.46845 -0.25529,-0.82889 l 0.0548,-0.51367 -1.20354,-0.99993 c -0.14503,-0.15718 -0.29607,-0.31485 -0.45579,-0.47078 -0.0557,-0.0543 -0.0941,-0.0927 -0.14676,-0.14417 -0.0292,-0.0299 -0.0495,-0.0519 -0.0796,-0.0827 l -1.07901,-1.10536 c -0.59134,-0.68525 -0.37869,-0.80032 0.40928,-1.0232 0.64677,-0.18294 1.88461,-0.35543 2.75074,-0.38344 1.37123,-0.0444 1.72951,-0.38141 2.77244,-2.6081 0.28603,-0.61069 0.57125,-1.15115 0.82527,-1.59216 0.32552,-0.54988 0.60277,-0.93761 0.72037,-0.9617 z m -23.66574,14.07667 -3.31866,6.64093 c -1.8253,3.65263 -3.38449,6.71367 -3.46439,6.80217 -0.0799,0.0885 -3.33296,0.63944 -7.22953,1.22422 -3.89658,0.58477 -7.18837,1.15291 -7.3148,1.26245 -0.0118,0.0103 0.004,0.0475 0.0331,0.0977 -0.002,4.7e-4 -0.0481,0.007 -0.0496,0.008 -0.0574,0.014 0.33702,0.47508 1.01183,1.20458 0.35206,0.5139 1.04308,1.19773 2.01952,2.12028 0.59171,0.60851 1.25078,1.2771 1.94096,1.97043 0.0347,0.0349 0.0627,0.0642 0.0977,0.0992 8.2e-4,8.2e-4 0.001,0.002 0.002,0.003 l 5.28546,5.30355 -1.26555,7.2068 c -0.69613,3.96377 -1.17553,7.29681 -1.06557,7.40678 0.204,0.20399 10.33356,-4.92699 12.13724,-6.14795 0.87897,-0.59501 1.77831,-0.25817 7.79952,2.91972 3.93358,2.07607 5.70605,2.92454 6.40426,2.97708 0.0205,0.009 0.11833,0.0579 0.12196,0.0579 0.003,0 -0.001,-0.0405 -5.1e-4,-0.0537 0.19716,-0.0155 0.27432,-0.12316 0.27285,-0.30695 -0.004,-0.50475 -0.46487,-3.43086 -1.0232,-6.50245 -0.55831,-3.0716 -1.01492,-6.08969 -1.01492,-6.70657 0,-0.74472 1.71846,-2.80993 5.11441,-6.14639 2.81298,-2.76369 5.11442,-5.17687 5.11442,-5.36246 0,-0.0114 -0.0117,-0.0238 -0.0331,-0.0377 -4.1e-4,-2e-4 0.001,-0.002 5.1e-4,-0.002 -1.2e-4,-4e-5 -0.005,-0.001 -0.005,-0.001 -0.34701,-0.21596 -3.12994,-0.72527 -6.48384,-1.17926 -3.58654,-0.48545 -6.93092,-0.99853 -7.4321,-1.14049 -0.38012,-0.10768 -1.31787,-1.48881 -2.52905,-3.66128 l -1.41851,-2.78174 c -0.46045,-0.90304 -0.91168,-1.75979 -1.33377,-2.53628 z m -5.2e-4,3.07061 2.86133,5.70508 c 1.44692,2.88506 2.81024,5.38191 3.20187,5.87819 l 0.11576,0.23048 1.54926,0.2005 c 1.2499,0.22616 3.06338,0.51704 5.11389,0.80719 l 5.02657,0.71107 c 0.67731,0.34018 0.49551,0.84392 -0.38757,1.81694 -0.001,0.002 -0.003,0.004 -0.005,0.005 l -3.02256,3.03495 c -0.007,0.007 -0.0118,0.0118 -0.0191,0.0191 l -0.061,0.0615 -2.91816,2.93057 -0.005,0.005 -1.6955,1.59267 0.016,0.0935 -0.0439,0.0445 -0.0951,0.0951 1.0759,6.27662 c 0.59166,3.45209 1.01588,6.34139 0.94258,6.4208 -0.0733,0.0794 -2.72374,-1.21975 -5.88956,-2.88665 l -5.75572,-3.03082 -5.82032,3.05717 c -2.95345,1.55124 -5.40637,2.67647 -5.76916,2.65772 -0.0109,-0.0873 -0.0136,-0.20244 -0.01,-0.34054 0.0987,-0.75136 0.51558,-3.25138 1.03611,-6.18516 l 1.07745,-6.07353 -0.11989,-0.1204 0.002,-0.008 -0.14262,-0.13333 -4.43953,-4.45812 -4.40748,-4.42557 c 0.001,-0.13802 0.0591,-0.25486 0.17467,-0.35657 l 2.00453,-0.2682 c 1.35965,-0.18168 4.26808,-0.5891 6.46317,-0.90537 l 3.99097,-0.57464 0.0114,-0.0233 0.077,-0.009 1.1963,-2.52956 1.69293,-3.37654 z m -86.306872,2.79569 c -0.164097,0 -0.907413,1.24218 -1.652096,2.76056 -1.33079,2.71343 -1.400222,2.76726 -4.070035,3.12746 -0.642273,0.0866 -1.251061,0.18776 -1.777153,0.28628 -0.07888,0.0107 -0.15231,0.0241 -0.221173,0.0398 -0.592365,0.11615 -1.028245,0.22473 -1.149803,0.29714 -0.237286,0.14136 0.536364,1.24263 1.71876,2.4474 l 2.049487,2.08825 c 0.03457,0.0729 0.06322,0.14666 0.0863,0.22117 l -0.348298,3.00137 c -0.03445,0.29681 -0.06109,0.57861 -0.08372,0.85111 -0.08886,0.60168 -0.149151,1.11245 -0.155546,1.36787 -0.0018,0.0726 0.0036,0.13022 0.0093,0.18811 -0.01597,0.13026 -0.03152,0.25872 -0.03152,0.30954 0,0.0523 0.04989,0.0752 0.139525,0.0739 0.02389,0.20413 0.06196,0.32918 0.118338,0.32918 0.197135,0 1.465754,-0.62242 2.819468,-1.38338 l 1.916161,-1.07693 0.582911,-0.28577 2.597774,1.41335 c 1.257734,0.68454 2.408487,1.16524 2.791045,1.18132 l 0.409276,0.20102 -0.254249,-1.47846 c -0.04445,-0.52606 -0.125449,-1.1646 -0.241845,-1.8402 l -0.464055,-2.69286 c 0.01024,-0.0621 0.02444,-0.12376 0.04186,-0.18552 l 2.134235,-2.09444 c 1.208479,-1.18604 2.095161,-2.32154 1.970423,-2.52336 -0.06482,-0.10489 -0.473887,-0.24332 -1.067117,-0.37931 -0.0927,-0.0287 -0.197835,-0.0512 -0.316778,-0.0682 -0.492628,-0.10126 -1.074203,-0.19826 -1.687753,-0.27492 -2.832614,-0.3539 -2.850753,-0.36742 -4.204909,-3.12849 -0.748012,-1.52516 -1.494716,-2.77296 -1.658816,-2.77296 z m 0,3.06855 c 0.117234,0 0.311327,0.21647 0.520382,0.54932 l 0.406178,0.79634 c 0.02476,0.0485 0.04962,0.0926 0.07441,0.13952 0.0099,0.0233 0.02073,0.0452 0.03049,0.0687 0.76604,1.84938 1.891657,2.53783 4.150135,2.53783 h 0.422714 c 0.16954,0.0368 0.340553,0.0734 0.474388,0.10904 0.152069,0.0523 0.282532,0.10455 0.376721,0.15503 -0.09097,0.23245 -0.507592,0.66628 -1.304314,1.48828 -0.0033,0.003 -0.0055,0.006 -0.0088,0.009 l -5.16e-4,5.2e-4 c -0.16166,0.16687 -0.299495,0.31369 -0.430982,0.45578 -3.07e-4,3.3e-4 -7.25e-4,7e-4 -0.001,0.001 -0.61165,0.54057 -0.905161,0.91037 -0.988055,1.48104 -0.154646,0.53132 -0.107841,1.1399 0.03256,2.16421 l 0.25373,1.84899 c -0.0025,0.15029 -0.0133,0.26217 -0.02997,0.34209 -0.0011,0.003 -0.002,0.006 -0.0031,0.009 -0.03459,0.01 -0.07335,0.0154 -0.11524,0.0171 l -1.822627,-1.0387 -2.038117,-1.16117 -2.072225,1.12293 -1.960089,1.06247 c -0.03492,-0.0279 -0.06152,-0.0684 -0.08681,-0.11111 l 0.320911,-2.13992 c 0.268663,-1.79158 0.229706,-2.30174 -0.707967,-3.3693 -0.04123,-0.0472 -0.07387,-0.09 -0.118856,-0.13953 -6.64e-4,-7.3e-4 -0.0014,-0.002 -0.0021,-0.003 -0.02428,-0.0267 -0.05785,-0.0604 -0.0832,-0.0878 -0.123317,-0.1335 -0.250116,-0.2691 -0.401008,-0.42478 l -0.03876,-0.0398 -0.401008,-0.41341 -0.987536,-1.01958 c 0.143621,-0.10132 0.429699,-0.21316 0.814419,-0.31936 h 0.544153 c 2.258475,0 3.384098,-0.68845 4.150135,-2.53783 0.354005,-0.85464 0.817901,-1.55391 1.030944,-1.55391 z m 36.198307,4.86224 -1.717723,3.40651 c -0.128849,0.25558 -0.230023,0.45329 -0.341582,0.67334 -0.139171,0.27324 -0.278546,0.54801 -0.401527,0.77515 -0.0012,0.002 -0.0029,0.005 -0.0041,0.008 -0.0012,0.002 -0.0024,0.005 -0.0036,0.007 -0.07763,0.1431 -0.152501,0.27565 -0.226343,0.40204 -0.01023,0.0174 -0.02031,0.0351 -0.03049,0.0522 -0.05776,0.0976 -0.114848,0.1873 -0.171564,0.27544 -0.04759,0.0726 -0.09531,0.14488 -0.143145,0.21084 -0.01198,0.0171 -0.02366,0.034 -0.03566,0.0506 -0.882597,1.18331 -1.90151,1.30076 -5.376415,1.82521 -1.195512,0.18042 -2.17351,0.47247 -2.17351,0.64906 0,4.1e-4 0.001,0.002 0.001,0.002 -5.3e-5,8.4e-4 -0.001,0.002 -0.001,0.003 0,0.012 0.0062,0.0305 0.01654,0.0527 -0.01043,0.0151 -0.01654,0.0301 -0.01654,0.0444 0,0.1611 0.545735,0.77787 1.339454,1.54616 0.358089,0.39018 0.748014,0.80583 1.182872,1.24954 1.35168,1.37916 1.974083,2.0235 2.193666,2.68303 l -0.469739,3.06545 c -0.29283,1.91043 -0.438541,3.63899 -0.323495,3.84111 0.115049,0.20212 1.619602,-0.41397 3.343465,-1.36942 l 1.452624,-0.80512 1.764749,-0.89039 3.483508,1.75442 3.56671,1.79575 -0.3483,-2.2164 c -0.59548,-3.7885 -0.89767,-5.08932 -0.47284,-6.00118 0.25749,-0.33227 0.62801,-0.73298 1.11518,-1.23559 0.29208,-0.24483 0.63301,-0.52097 1.04231,-0.86609 1.43581,-1.2107 2.6107,-2.3696 2.6107,-2.57556 0,-0.35913 -0.81487,-0.54787 -5.40226,-1.25057 -1.69808,-0.26011 -2.0874,-0.46009 -3.1936,-2.60191 -0.11443,-0.23288 -0.2249,-0.4562 -0.35708,-0.73277 -0.2032,-0.42513 -0.40866,-0.83051 -0.60617,-1.19941 z m 0.0124,3.15329 1.338425,2.64118 c 1.04161,2.05552 1.60589,2.64119 2.54455,2.64119 0.66333,0 1.94148,0.14727 2.84065,0.32711 l 0.98392,0.19637 c 0.11127,0.22805 0.0184,0.54266 -0.27079,0.95911 -0.22344,0.29049 -0.50694,0.61677 -0.82992,0.9555 l -0.3669,0.37414 -0.0615,0.063 c -0.28044,0.27513 -0.5126,0.5118 -0.71055,0.72399 l -1.34617,1.37201 0.47749,2.62878 c 0.26276,1.44588 0.3369,2.61822 0.16433,2.60552 -0.17258,-0.0127 -1.34801,-0.56349 -2.61173,-1.22421 l -1.34152,-0.70125 -0.62631,-0.34985 -0.0217,0.0108 -0.307992,-0.16123 -2.473751,1.25367 -2.473751,1.25367 0.324528,-2.59725 c 0.109497,-0.53574 0.164853,-0.99423 0.161747,-1.40302 0.170014,-1.76922 -0.08879,-2.09642 -1.676384,-3.72225 l -1.896007,-1.94149 c 0.0052,-0.007 0.01268,-0.0137 0.0186,-0.0207 l 2.708362,-0.43149 c 2.608803,-0.41507 2.807375,-0.5577 4.096907,-2.94453 z m -55.739749,8.09511 -0.02067,0.0413 -0.01292,-0.0258 -0.347782,0.69556 c -0.617812,0.93502 -1.935361,3.34937 -3.360518,6.19342 -1.832456,3.65686 -3.617592,6.65513 -3.967199,6.66213 -1.662359,0.0346 -11.526609,1.63622 -13.253972,2.12183 l -0.505395,0.0677 0.133842,0.13591 c -0.0017,10e-4 -0.0075,0.003 -0.0088,0.005 -0.0773,0.0773 0.470008,0.72501 1.406632,1.6986 0.878315,1.00997 2.131196,2.34751 3.554305,3.77548 l 5.208985,5.22604 -1.021128,6.13658 c -0.561604,3.37519 -1.137959,6.65449 -1.280541,7.28741 -0.142584,0.63291 -0.07441,1.15083 0.151413,1.15083 0.225817,0 3.279424,-1.51786 6.786147,-3.37292 l 6.37584,-3.3724 6.553088,3.42614 c 3.046857,1.5932 5.684174,2.84981 6.516397,3.12074 0.140081,0.0571 0.240345,0.0927 0.251148,0.0811 0.0011,-0.001 -8.07e-4,-0.0181 0,-0.0207 0.01265,-9e-4 0.02962,3.5e-4 0.03462,-0.005 0.13738,-0.13738 -0.322876,-3.44113 -1.022675,-7.34168 l -0.778249,-4.33772 c -0.225419,-1.63229 -0.349006,-2.80213 -0.288353,-2.96157 l 5.197099,-5.23586 c 2.340684,-2.35825 3.861139,-3.71288 4.314465,-4.55941 0.312915,-0.35929 0.488265,-0.5968 0.448035,-0.6382 -0.0054,-0.006 -0.02418,-0.0128 -0.03876,-0.0196 0.0094,-0.013 0.03876,-0.0447 0.03876,-0.0486 0,-0.005 -0.01363,-0.0108 -0.03101,-0.0176 l 0.08526,-0.0858 -0.576707,-0.076 c -0.689284,-0.58737 -3.093545,-0.76486 -7.661031,-1.40147 -2.670014,-0.37214 -5.036029,-0.87428 -5.980515,-1.24695 -0.507301,-0.52735 -1.096372,-1.51729 -2.013831,-3.27577 -0.525277,-1.05695 -1.108691,-2.25157 -1.72289,-3.54604 -1.096216,-2.31036 -2.128197,-4.30763 -2.716114,-5.29321 z m -0.147277,2.80035 2.924884,5.87613 c 1.299882,2.61139 1.976263,4.09609 2.757455,4.99762 0.106006,0.20637 0.363943,0.71875 0.371555,0.72761 4.23e-4,5e-4 0.01081,0.003 0.01188,0.003 0.0012,0.002 0.01426,0.0271 0.01499,0.0279 0.01728,0.0201 0.357256,0.0857 0.818039,0.16744 1.059878,0.49111 2.58351,0.63003 5.361945,0.99942 7.37203,0.9801 7.194322,0.4484 1.930633,5.78517 l -3.272153,3.31763 -1.199927,1.12551 0.01344,0.0775 -0.176215,0.1788 1.153417,6.52105 c 0.528121,2.98542 0.938778,5.40606 1.050065,6.16603 -0.04636,0.0587 -0.09835,0.1085 -0.16278,0.14108 -0.199363,-0.0759 -0.604414,-0.26329 -1.050581,-0.47284 -0.830688,-0.43956 -2.10254,-1.11574 -4.617291,-2.46703 l -5.820315,-3.12746 -5.590873,2.93884 c -3.07507,1.61627 -5.715222,2.81449 -5.866826,2.66288 -0.151604,-0.1516 0.208489,-2.99018 0.799952,-6.30814 l 1.075386,-6.03271 -0.180867,-0.18138 0.01705,-0.10129 -0.131259,-0.1266 10e-4,-0.006 -0.161229,-0.14986 -2.93729,-2.84117 -1.275374,-1.28106 c -5.324042,-5.34627 -5.562047,-4.69007 2.107882,-5.81463 2.109727,-0.30932 4.35392,-0.67163 4.987293,-0.80512 0.145016,-0.0306 0.29433,-0.10085 0.451136,-0.21084 l 0.747757,-0.12505 2.900082,-5.78466 0.0801,-0.15969 z m 41.539064,7.34891 c -0.212143,-0.13141 -1.393476,1.93253 -2.625162,4.58628 l -1.083138,2.33371 c -0.232838,0.43772 -0.455226,0.84941 -0.650089,1.19682 -0.516144,0.72377 -1.043307,1.16091 -1.772502,1.45573 l -3.90829,0.49816 c -2.845945,0.36268 -5.174361,0.82553 -5.174361,1.02888 0,0.20336 1.627855,1.9564 3.617352,3.89537 l 1.422651,1.38699 0.665594,0.66973 1.518253,1.52859 -0.792199,4.52892 c -0.441468,2.52392 -0.803087,4.87648 -0.804088,5.2281 -5.26e-4,0.20632 0.01764,0.35788 0.09509,0.44701 0.0075,0.024 0.01758,0.044 0.02791,0.062 0.0271,0.0839 0.06573,0.13022 0.116271,0.13022 0.04734,0 0.209034,-0.0635 0.447003,-0.17053 0.657405,-0.19246 1.934427,-0.82736 4.425051,-2.09806 l 4.346506,-2.21744 4.529439,2.27531 c 1.417243,0.71179 2.710698,1.30341 3.601331,1.66295 0.656793,0.29182 1.090961,0.449 1.145148,0.39481 0.0025,-0.003 0.004,-0.0113 0.0062,-0.0155 0.0023,-6.1e-4 0.0086,0.001 0.0098,0 0.0013,-0.001 -2.2e-5,-0.0159 0.001,-0.0186 0.0078,-0.002 0.01954,-0.002 0.02377,-0.007 0.141661,-0.14166 -0.131908,-2.51491 -0.607716,-5.2741 l -0.849042,-4.9227 1.254704,-1.26297 2.35231,-2.16421 c 1.923222,-1.76952 3.504101,-3.45434 3.612181,-3.84059 l 0.13333,-0.13385 -0.25218,-0.0486 c -0.503831,-0.30983 -2.464494,-0.73626 -4.902547,-1.04696 l -4.136181,-0.5271 c -0.533903,-0.21215 -0.933243,-0.50382 -1.308965,-0.95602 l -1.843297,-3.76256 c -1.24066,-2.53228 -2.429033,-4.7117 -2.641184,-4.84311 z m 0.0062,2.71818 0.739489,1.41851 1.121378,2.40606 c 0.624996,1.34109 1.047189,2.25554 1.500169,2.89905 l 0.518314,1.06298 1.007173,0.14263 c 0.893567,0.34249 2.172348,0.48208 4.3155,0.71882 1.758106,0.19421 3.196188,0.53466 3.196188,0.75602 0,0.22136 -1.376736,1.64835 -3.059764,3.17138 l -3.060276,2.76935 0.758092,4.30619 c 0.199958,1.13623 0.377758,2.16429 0.513664,2.96261 0.054,0.44711 0.08972,0.81586 0.09974,1.06402 -0.0012,0.1554 -0.009,0.27664 -0.02687,0.34003 -0.03655,0.005 -0.106079,-0.008 -0.179835,-0.0222 -0.617421,-0.26817 -1.996231,-0.95183 -3.601847,-1.79317 l -3.95428,-2.07171 -3.992004,2.07636 c -3.821954,1.9884 -3.980529,2.02676 -3.728971,0.8909 0.144505,-0.65251 0.520134,-2.6824 0.834573,-4.51083 l 0.571542,-3.32435 -3.120739,-2.81327 c -1.71649,-1.54714 -3.119639,-2.95591 -3.117641,-3.13055 0.002,-0.17463 1.442217,-0.47655 3.200323,-0.67076 2.129681,-0.23526 3.409191,-0.37768 4.317047,-0.72089 0.517594,-0.0892 0.897763,-0.16268 0.932244,-0.19327 l 0.106455,-0.0155 0.402042,-0.82476 c 0.538049,-0.65064 1.023493,-1.60232 1.769401,-3.07268 z m 85.407187,5.56813 -0.24237,0.48163 c -0.44541,0.58059 -1.34711,2.16797 -2.27738,4.04368 l -1.70067,3.42976 c -0.18557,0.22546 -0.37675,0.4169 -0.58446,0.57671 -0.25181,0.17273 -0.53586,0.30988 -0.87643,0.42323 l -3.7393,0.49506 c -2.62444,0.34735 -4.77181,0.76866 -4.77181,0.93638 0,0.0221 0.0296,0.073 0.0796,0.14417 l -0.2651,0.0527 1.60767,1.49241 c 0.32218,0.3573 0.76604,0.81388 1.26347,1.31775 0.0512,0.0529 0.11238,0.11313 0.16537,0.16743 0.1657,0.16741 0.29765,0.30346 0.48111,0.48834 l 0.0543,0.0543 2.75693,2.77813 0.62942,0.63458 -0.58601,3.5047 c -0.32214,1.92782 -0.71361,4.13829 -0.86971,4.91185 h 5.2e-4 c -0.0788,0.39056 -0.11694,0.74443 -0.11524,0.99993 -0.003,0.0497 -0.001,0.0934 0.006,0.13126 0.0133,0.17086 0.0507,0.27544 0.11421,0.27544 0.0375,0 0.19135,-0.0582 0.42426,-0.1571 0.34768,-0.10449 0.91747,-0.37316 1.72858,-0.79272 0.74857,-0.3537 1.59571,-0.76099 2.53266,-1.22421 l 4.39663,-2.17351 4.05092,2.17351 c 2.22786,1.19551 4.23686,2.17403 4.46484,2.17403 0.22797,0 0.0677,-2.19313 -0.35605,-4.87361 l -0.7705,-4.8736 3.42408,-3.45044 c 0.88246,-0.88927 1.67224,-1.71798 2.281,-2.38073 0.6903,-0.75152 1.14257,-1.28547 1.14257,-1.37459 0,-0.16772 -2.20365,-0.59639 -4.89738,-0.95291 l -3.622,-0.47956 c -0.54839,-0.10475 -0.96597,-0.19667 -1.12706,-0.25787 -0.0756,-0.0587 -0.14795,-0.12554 -0.21963,-0.19379 -0.09,-0.12647 -0.21179,-0.32652 -0.35553,-0.57722 l -1.69447,-3.41633 c -0.2666,-0.53756 -0.53013,-1.04789 -0.7829,-1.5229 -0.78983,-1.59034 -1.45047,-2.75333 -1.58802,-2.75333 -0.009,0 -0.0222,0.008 -0.0362,0.0186 z m 0.12195,2.80242 1.70791,3.39204 c 0.68559,1.36139 1.14411,2.24979 1.6614,2.8639 l 0.40204,0.81236 0.8537,0.12092 c 0.88433,0.37575 2.13553,0.5334 4.26278,0.78341 l 2.87063,0.33694 c -0.002,0.0356 -0.008,0.0746 -0.0196,0.11782 l -2.79621,2.82618 -0.0191,0.0196 -2.90266,2.93264 v 5.1e-4 l -0.0196,0.0196 0.35398,2.6696 c 0.1948,1.46845 0.48214,3.30881 0.63821,4.08916 l 0.10645,0.53227 c -0.0703,0.3835 -0.28157,0.51089 -0.68937,0.43666 l -2.74195,-1.42213 -3.60805,-1.87172 -0.31005,0.15348 -0.12609,-0.0625 -1.94149,1.08572 -1.38699,0.68626 -3.72742,1.84485 c -0.007,-0.007 -0.0126,-0.0169 -0.0191,-0.0248 -0.002,-0.009 -0.003,-0.0186 -0.005,-0.0279 l 0.72605,-4.01061 0.73897,-4.08088 -2.91351,-2.94401 -2.78174,-2.8112 c 6.5e-4,-0.0262 0.002,-0.0524 0.007,-0.077 0.011,-0.0281 0.0251,-0.0552 0.0434,-0.0811 l 3.7238,-0.52296 c 2.01089,-0.28218 3.72182,-0.58223 4.00493,-0.69815 l 0.17621,-0.0248 1.53118,-3.16466 c 0.10605,-0.21019 0.18227,-0.35466 0.29197,-0.57361 l 0.71158,-1.42007 c 0.56709,-1.06293 1.0341,-1.81752 1.19631,-1.90582 z m -45.12075,9.96269 -0.25166,0.50178 c -0.46387,0.61438 -1.4366,2.38431 -2.44326,4.48293 -1.24811,2.602 -2.47708,4.97716 -2.7311,5.27875 -0.25402,0.30159 -2.85022,0.84826 -5.76916,1.2144 -2.91894,0.36614 -5.5039,0.78074 -5.74435,0.92139 -0.0857,0.0502 0.085,0.34811 0.43408,0.80667 1e-4,1.2e-4 -9e-5,3.9e-4 0,5.1e-4 0.10626,0.47895 0.77507,1.17364 1.90944,2.26343 0.45012,0.45152 0.97928,0.97071 1.57769,1.5658 0.009,0.009 0.0147,0.0147 0.0238,0.0238 l 3.12022,3.13727 c 0.44675,0.52277 0.73767,0.93509 0.90279,1.27796 l -0.7984,4.80694 c -0.46806,2.81835 -0.8506,5.47971 -0.8506,5.91437 0,0.063 0.003,0.12355 0.009,0.18242 -5e-5,0.002 -0.001,0.009 -0.001,0.0114 -7.5e-4,0.061 -0.004,0.10922 -0.006,0.16174 -5e-5,0.002 -0.002,0.0149 -0.002,0.0171 0,0 0,5.2e-4 0,5.2e-4 l -0.11213,0.55655 0.33848,-0.18139 c 0.0318,0.0252 0.0651,0.0419 0.10025,0.0419 0.17981,0 2.56815,-1.1866 5.30717,-2.63704 l 4.98006,-2.63705 5.21931,2.68097 c 1.61515,0.82964 3.08687,1.5248 4.10776,1.95595 0.77155,0.35702 1.27649,0.55958 1.32292,0.51315 0.007,-0.007 0.0114,-0.0237 0.0145,-0.0501 0.017,0.003 0.0304,0.005 0.0341,0.002 7.3e-4,-7.3e-4 -1.1e-4,-0.0111 5.1e-4,-0.0124 0.004,-0.002 0.0133,-0.001 0.016,-0.004 0.15222,-0.15223 -0.1666,-2.81122 -0.70848,-5.90869 l -0.98547,-5.63169 4.2416,-4.21887 c 1.89325,-1.88341 3.08705,-3.23203 3.50987,-3.95531 0.0552,-0.0819 0.093,-0.14956 0.1142,-0.20206 l 0.19534,-0.19585 0.0289,-0.0289 -0.16743,-0.0253 c -0.001,-0.0644 -0.0245,-0.11041 -0.0734,-0.13539 -0.34842,-0.1779 -2.70469,-0.6065 -5.23637,-0.9524 -2.53167,-0.34591 -4.9576,-0.72618 -5.39089,-0.84491 -0.3787,-0.10377 -1.56187,-1.9498 -2.77812,-4.29121 -0.001,-0.003 -0.003,-0.005 -0.004,-0.007 l -0.416,-0.83716 c -0.19456,-0.39121 -0.37409,-0.73717 -0.5612,-1.10484 -0.0351,-0.0693 -0.07,-0.13789 -0.10491,-0.20619 -1.14296,-2.23607 -2.08955,-3.93609 -2.24276,-3.99097 z m 0.0946,2.82877 2.21899,4.3956 c 0.97888,1.93903 1.51913,3.09648 2.14767,3.82974 l 0.42581,0.86868 1.14515,0.14573 c 0.95475,0.30754 2.31839,0.44632 4.57233,0.72812 4.30616,0.53838 4.3032,0.51376 0.51367,4.33255 l -2.22261,2.24017 -1.29812,1.18701 0.0181,0.10232 -0.008,0.008 0.62993,4.2416 c 0.34658,2.33302 0.75766,4.67344 0.91364,5.20072 0.0139,0.0469 0.0237,0.0894 0.0289,0.12816 1.6e-4,0.002 3.6e-4,0.005 5.2e-4,0.007 0.0709,0.5855 -0.92741,0.2003 -4.45244,-1.6583 l -4.70669,-2.4815 -4.62659,2.48719 c -0.75984,0.40847 -1.3565,0.72466 -1.88568,1.00097 -1.37181,0.61071 -2.27604,0.90381 -2.52336,0.80615 -0.0171,-0.12458 0.0144,-0.3055 0.0698,-0.54002 0.15852,-0.67114 0.57355,-3.03565 0.92191,-5.25446 l 0.63303,-4.03437 -3.58893,-3.49798 c -2.62467,-2.55799 -3.36834,-3.55764 -2.76675,-3.71967 0.45247,-0.12187 2.74472,-0.50385 5.09374,-0.84905 l 3.60805,-0.5302 0.39532,-0.0506 0.004,-0.008 0.26303,-0.0387 2.16886,-4.66019 1.18391,-2.54454 c 0.10366,-0.19188 0.21848,-0.41266 0.31161,-0.5793 0.41338,-0.72141 0.71042,-1.18899 0.8108,-1.26297 z m -39.960871,25.81031 -0.02377,0.047 -0.02119,-0.0424 -0.285771,0.57619 c -0.44128,0.5982 -1.256755,2.02255 -2.090828,3.68144 l -1.805059,3.59047 c -0.188928,0.18844 -0.395226,0.34502 -0.627869,0.47543 l -3.795117,0.5364 c -2.317314,0.32771 -4.33482,0.71747 -4.483447,0.86609 -0.0094,0.009 -0.01306,0.0248 -0.01085,0.0455 -0.03638,0.0157 -0.06098,0.0297 -0.06098,0.0408 0,0.0287 0.08794,0.13712 0.244946,0.30747 9.39e-4,0.001 0.0011,0.002 0.0021,0.003 0.411263,0.60464 1.476782,1.81331 2.789494,3.1378 l 2.88096,2.90731 c 0.133242,0.52825 0.132104,1.18534 0.04031,2.11408 l -0.310057,1.7415 c -0.342882,1.92448 -0.733955,3.90178 -0.86868,4.39405 -0.143936,0.52591 -0.141576,0.80862 0.210838,0.80305 l -0.03566,0.24908 1.158584,-0.61753 c 0.690583,-0.30557 1.658366,-0.79626 3.07268,-1.54048 l 3.802354,-2.00091 4.04368,2.03295 c 1.302263,0.65476 2.484241,1.20312 3.271633,1.52911 0.534871,0.25071 0.882489,0.38825 0.918808,0.35036 0.0046,-0.005 0.0076,-0.0177 0.01033,-0.0326 0.01834,-1e-5 0.03195,-0.002 0.03824,-0.009 0.107371,-0.10737 -0.145219,-2.13088 -0.561205,-4.49688 l -0.756026,-4.30206 3.03289,-3.05977 c 0.0062,-0.006 0.01136,-0.0118 0.01757,-0.0181 l 0.114205,-0.11524 c 0.266086,-0.26848 0.516617,-0.52903 0.758608,-0.78393 0.75439,-0.78498 1.393679,-1.47903 1.78232,-1.93993 0.165182,-0.18644 0.273672,-0.32707 0.345716,-0.43719 0.01099,-0.0161 0.02238,-0.0322 0.03101,-0.046 0.04545,-0.077 0.07021,-0.13637 0.04857,-0.15606 -0.009,-0.008 -0.04517,-0.0199 -0.06821,-0.03 0.0074,-0.0316 0.0089,-0.0578 -0.0036,-0.0703 -0.148627,-0.14862 -2.179079,-0.53981 -4.511868,-0.86971 l -3.307292,-0.46767 c -0.409165,-0.0871 -0.729244,-0.16412 -0.801502,-0.20878 -0.06973,-0.0431 -0.230024,-0.28397 -0.441833,-0.64337 l -0.346234,-0.68884 -1.197343,-2.57091 C 87.5308,226.9872 86.832659,225.66326 86.40178,224.98991 Z m -0.06459,3.02204 c 0.01731,2.2e-4 0.03196,0.006 0.04392,0.0181 0.0038,0.004 0.01171,0.0159 0.01602,0.0207 l 1.488797,3.01842 c 0.658093,1.33454 1.041619,2.143 1.549778,2.67839 l 0.322977,0.65474 0.967899,0.11937 c 0.815811,0.26955 1.987891,0.43809 3.879866,0.7245 l 1.914612,0.28991 c 0.08205,0.0609 0.135358,0.12798 0.165883,0.20102 l -2.422591,2.47685 -1.971974,2.01693 -0.365869,0.31988 0.0067,0.047 -0.241329,0.24702 0.649055,3.70778 c 0.229047,1.30803 0.41226,2.40659 0.513665,3.0639 0.01649,0.22697 0.02527,0.40819 0.01757,0.48472 -0.08783,-0.009 -0.23786,-0.052 -0.419613,-0.11214 -0.369239,-0.19195 -1.294159,-0.68353 -2.822051,-1.50688 l -3.257164,-1.75493 -3.059763,1.54461 c -1.682901,0.84953 -3.166065,1.43829 -3.295922,1.30844 -0.129861,-0.12986 0.0248,-1.67503 0.343648,-3.43338 l 0.579811,-3.1967 -0.07958,-0.0806 -0.01447,-0.0145 0.0021,-0.0103 -0.149344,-0.13901 -2.40864,-2.43913 -0.04134,-0.0419 c -1.60157,-1.62172 -2.329103,-2.33684 -1.843815,-2.75694 l 1.465543,-0.22169 c 1.947201,-0.29477 3.130058,-0.46463 3.947565,-0.75189 l 1.132228,-0.14366 1.622642,-3.21841 0.03049,-0.0605 0.06098,-0.12144 1.343586,-2.66547 c 2.43e-4,-2.9e-4 2.75e-4,-7.5e-4 5.18e-4,-0.001 0.14146,-0.16726 0.258271,-0.27269 0.327629,-0.27182 z m 37.352761,7.213 -0.26924,0.54622 c -0.38451,0.48616 -1.00698,1.52635 -1.61644,2.73368 l -1.31568,2.60552 c -0.22624,0.20457 -0.48636,0.36421 -0.8046,0.4961 l -2.36265,0.2868 c -1.62404,0.19684 -3.14738,0.4715 -3.38532,0.6103 -0.0394,0.023 -0.0453,0.0781 -0.0258,0.15606 l -0.42426,0.0816 2.53111,2.63188 c 0.93616,0.97339 1.52162,1.59847 1.86914,2.11254 0.35841,0.6886 0.28359,1.31413 0.091,2.64841 -0.19645,1.36066 -0.48106,2.99168 -0.63201,3.62459 -0.35466,1.48701 -0.11485,1.45767 3.41117,-0.42168 l 2.95124,-1.57303 3.18172,1.6061 c 1.75009,0.88345 3.24355,1.53357 3.31866,1.44487 0.0751,-0.0887 -0.10286,-1.72396 -0.39533,-3.6344 l -0.52658,-3.43855 2.31614,-2.36885 2.57297,-2.63188 -0.42634,-0.0822 c 0.0211,-0.0807 0.0162,-0.1374 -0.0238,-0.16123 -0.23795,-0.14191 -1.83802,-0.41838 -3.55534,-0.61392 l -2.10736,-0.23978 c -1.02618,-0.30705 -1.40475,-0.93159 -2.45463,-3.12797 -8.2e-4,-0.002 -10e-4,-0.003 -0.002,-0.005 -0.002,-0.003 -0.003,-0.006 -0.005,-0.01 -0.14142,-0.29588 -0.28346,-0.57668 -0.42375,-0.8475 -0.63657,-1.24771 -1.20116,-2.17971 -1.34668,-2.17971 -0.003,0 -0.009,0.004 -0.0124,0.005 z m 0.10593,2.81791 1.0573,2.12494 c 1.1996,2.4103 2.0721,2.95819 4.73098,2.97139 1.80907,0.009 1.77325,0.49106 -0.1757,2.34094 -0.84754,0.80446 -1.23632,1.23486 -1.36064,1.92392 l -0.16898,0.17208 0.12351,0.5519 c 0.009,0.40448 0.0581,0.89799 0.13177,1.53893 0.16961,1.47681 0.16531,2.68562 -0.01,2.68562 -0.17514,0 -1.23063,-0.51282 -2.34559,-1.13946 l -2.02727,-1.13947 -1.97972,1.13947 c -1.08881,0.62664 -2.12309,1.13946 -2.29857,1.13946 -0.17549,0 -0.16615,-1.22346 0.0207,-2.71869 0.33006,-2.64171 0.28834,-2.76364 -1.46089,-4.29948 -1.39001,-1.22045 -1.76845,-1.80917 -1.13068,-2.05156 0.11057,-0.0297 0.23238,-0.0596 0.36173,-0.0889 0.23678,-0.0355 0.53399,-0.0529 0.89814,-0.0548 2.63859,-0.0139 3.45397,-0.55455 4.48344,-2.97294 l 0.57103,-1.34152 c 0.25477,-0.42153 0.4684,-0.72128 0.57671,-0.78135 9.5e-4,-5.2e-4 0.002,-3e-5 0.003,-5.2e-4 z"
       style="fill:#000000;stroke-width:0.51144904" />
  </g>
</svg>
