<?xml version="1.0" encoding="UTF-8" standalone="no"?>
<svg
   xmlns:dc="http://purl.org/dc/elements/1.1/"
   xmlns:cc="http://creativecommons.org/ns#"
   xmlns:rdf="http://www.w3.org/1999/02/22-rdf-syntax-ns#"
   xmlns:svg="http://www.w3.org/2000/svg"
   xmlns="http://www.w3.org/2000/svg"
   width="689.97058"
   height="692.08771"
   viewBox="0 0 182.55471 183.11488"
   version="1.1"
   id="svg8">
  <title
     id="title814">Star</title>
  <defs
     id="defs2" />
  <metadata
     id="metadata5">
    <rdf:RDF>
      <cc:Work
         rdf:about="">
        <dc:format>image/svg+xml</dc:format>
        <dc:type
           rdf:resource="http://purl.org/dc/dcmitype/StillImage" />
        <dc:title>Star</dc:title>
        <dc:date>2020-03-12</dc:date>
      </cc:Work>
    </rdf:RDF>
  </metadata>
  <g
     id="layer1"
     transform="translate(-13.762231,-56.87899)">
    <path
       style="fill:#000000;stroke-width:0.22678432"
       d="m 133.65131,220.74594 c -15.36012,-10.58636 -28.088,-19.30952 -28.28419,-19.3848 -0.42831,-0.16435 0.0904,-0.51202 -31.87003,21.35932 -13.658086,9.34656 -24.86252,16.91672 -24.898751,16.82258 -0.05468,-0.14217 5.332623,-21.03934 15.613318,-60.56325 0.990851,-3.80932 1.80155,-7.1422 1.80155,-7.40643 0,-0.35814 -6.648167,-6.12682 -26.125486,-22.66932 l -26.12549,-22.18894 0.895734,-0.16151 c 0.492649,-0.0888 15.591354,-0.88592 33.552673,-1.7713 23.068318,-1.13713 32.733247,-1.689 32.916811,-1.87955 0.14292,-0.14837 5.589139,-14.91436 12.102715,-32.813308 6.513562,-17.898954 11.917796,-32.682289 12.009406,-32.851857 0.20732,-0.383792 -1.46202,-4.902133 12.17931,32.965248 6.42543,17.836587 11.81405,32.567457 11.9747,32.735267 0.22577,0.23582 7.77706,0.71027 33.25948,2.08968 18.13207,0.98153 33.25488,1.81373 33.60624,1.84936 0.56022,0.0567 -2.60059,2.79547 -25.68332,22.25334 -14.4772,12.20371 -26.32217,22.31287 -26.32217,22.46479 0,0.15191 3.56458,14.20267 7.92129,31.22389 8.77059,34.26578 9.50983,37.17472 9.44708,37.17472 -0.0238,0 -12.61075,-8.66156 -27.97087,-19.24793 z M 82.428721,208.85103 c 12.209179,-8.34872 22.367659,-15.22373 22.574389,-15.27779 0.23056,-0.0603 9.03225,5.86863 22.76846,15.33711 12.31592,8.48947 22.59356,15.4354 22.83918,15.4354 0.29598,0 0.44659,-0.15356 0.44659,-0.45536 0,-0.25045 -3.12649,-12.6675 -6.94776,-27.59346 -4.42576,-17.28713 -6.87481,-27.24082 -6.74683,-27.42109 0.11051,-0.15564 9.61974,-8.21602 21.13163,-17.91197 13.88863,-11.69778 20.9078,-17.75068 20.86264,-17.9907 -0.0497,-0.2641 -0.46536,-0.40888 -1.54064,-0.53662 -0.80993,-0.0962 -13.00108,-0.79007 -27.09147,-1.54193 -14.09038,-0.75185 -25.65843,-1.40657 -25.70677,-1.45491 -0.0483,-0.0483 -4.36521,-11.95455 -9.59303,-26.45822 -5.22782,-14.503674 -9.60835,-26.473541 -9.73452,-26.599711 -0.15097,-0.150977 -0.3499,-0.153377 -0.58194,-0.0069 -0.19801,0.124903 -4.56659,11.7922 -9.966229,26.617111 -5.28752,14.51712 -9.641906,26.41681 -9.676415,26.44376 -0.03454,0.0269 -12.181555,0.65564 -26.993441,1.39705 -18.37411,0.91974 -27.013774,1.43111 -27.192144,1.60948 -0.197399,0.1974 -0.183496,0.37004 0.05674,0.70477 0.17501,0.24384 9.553991,8.27229 20.842183,17.84104 11.288186,9.56874 20.645122,17.51275 20.793184,17.65336 0.206217,0.19584 -1.397658,6.67154 -6.855438,27.67907 -5.161545,19.86729 -7.058914,27.50265 -6.886064,27.71091 0.131218,0.15811 0.409711,0.22262 0.61887,0.14335 0.209159,-0.0793 10.369616,-6.97491 22.578804,-15.32363 z"
       id="path843" />
  </g>
</svg>
