<?xml version="1.0" encoding="UTF-8" standalone="no"?>
<svg
   xmlns:dc="http://purl.org/dc/elements/1.1/"
   xmlns:cc="http://creativecommons.org/ns#"
   xmlns:rdf="http://www.w3.org/1999/02/22-rdf-syntax-ns#"
   xmlns:svg="http://www.w3.org/2000/svg"
   xmlns="http://www.w3.org/2000/svg"
   xmlns:sodipodi="http://sodipodi.sourceforge.net/DTD/sodipodi-0.dtd"
   xmlns:inkscape="http://www.inkscape.org/namespaces/inkscape"
   id="svg8"
   version="1.1"
   viewBox="0 0 210 297"
   height="297mm"
   width="210mm"
   sodipodi:docname="gingerbread_man.svg"
   inkscape:version="0.92.4 (5da689c313, 2019-01-14)">
  <sodipodi:namedview
     pagecolor="#ffffff"
     bordercolor="#666666"
     borderopacity="1"
     objecttolerance="10"
     gridtolerance="10"
     guidetolerance="10"
     inkscape:pageopacity="0"
     inkscape:pageshadow="2"
     inkscape:window-width="1029"
     inkscape:window-height="520"
     id="namedview8"
     showgrid="false"
     inkscape:zoom="0.2102413"
     inkscape:cx="396.85039"
     inkscape:cy="561.25984"
     inkscape:window-x="0"
     inkscape:window-y="0"
     inkscape:window-maximized="0"
     inkscape:current-layer="svg8" />
  <title
     id="title905">Gingerbread Man</title>
  <defs
     id="defs2" />
  <metadata
     id="metadata5">
    <rdf:RDF>
      <cc:Work
         rdf:about="">
        <dc:format>image/svg+xml</dc:format>
        <dc:type
           rdf:resource="http://purl.org/dc/dcmitype/StillImage" />
        <dc:title>Gingerbread Man</dc:title>
        <dc:date>2020-04-11</dc:date>
        <dc:creator>
          <cc:Agent>
            <dc:title>Public domain</dc:title>
          </cc:Agent>
        </dc:creator>
        <dc:source>http://www.supercoloring.com/coloring-pages/simple-gingerbread-man</dc:source>
        <dc:subject>
          <rdf:Bag>
            <rdf:li>csk</rdf:li>
            <rdf:li>acb</rdf:li>
            <rdf:li>christmas</rdf:li>
          </rdf:Bag>
        </dc:subject>
      </cc:Work>
    </rdf:RDF>
  </metadata>
  <g
     id="layer1">
    <path
       style="opacity:1;fill:#000000;stroke-width:0.5220539"
       d="m 104.53184,24.31478 c -5.646642,0.0012 -11.263736,1.048119 -16.549721,3.023229 C 77.976265,30.919 69.545944,38.183366 63.629216,46.919048 c -3.455559,5.247702 -5.980715,11.161608 -7.149531,17.343661 -0.941236,6.452014 -1.044035,13.060734 0.002,19.503889 1.8746,8.705216 6.071597,16.856322 11.912439,23.566502 1.230436,1.08732 -0.06432,0.67492 -0.962467,0.49604 -7.202838,-1.63098 -14.245268,-3.99807 -21.218678,-6.456 -4.929065,-1.698087 -9.948753,-3.789887 -15.255807,-3.639417 -8.32991,0.507505 -16.207936,5.743507 -19.772234,13.314617 -3.5232977,7.10038 -3.0650604,16.04265 1.420743,22.61865 2.700664,4.06952 6.638356,7.38029 11.31344,8.91045 5.78593,1.99063 11.799715,3.20339 17.641621,5.01074 6.007018,1.8174 12.071927,3.52744 17.847301,6.00621 0.820461,0.42009 1.874994,0.82525 1.869034,1.91195 0.776442,4.86248 0.343441,9.82646 0.140882,14.72936 -0.549771,7.18834 -2.064099,14.3497 -5.085987,20.92957 -3.075892,6.48666 -5.985352,13.05426 -8.514041,19.77466 -3.777276,10.04274 -7.355307,20.20409 -9.776795,30.67001 -0.781335,3.15486 -1.066627,6.45713 -0.397544,9.66052 1.899619,10.53595 10.798831,19.6076 21.50025,21.08984 6.029511,1.044 12.376082,-0.44365 17.492099,-3.73751 5.863335,-4.07834 9.776719,-10.30642 13.02839,-16.53336 3.653353,-7.0095 6.081373,-14.54929 8.640047,-22.00144 2.047152,-5.55392 3.903282,-11.204 6.475762,-16.54376 0.20594,-0.63977 0.72925,-1.04592 0.88282,-0.12194 4.6256,10.43133 8.97928,21.00541 14.05781,31.23727 3.30442,6.54607 6.39272,13.49969 11.92252,18.5224 3.89236,3.55452 8.94256,5.9066 14.19843,6.41757 3.19574,0.0919 6.44557,0.0461 9.58152,-0.62909 6.90456,-2.11296 13.06008,-6.94694 16.27261,-13.4761 2.97257,-5.91004 3.4408,-12.99188 1.37905,-19.25952 -1.1109,-3.01964 -2.36768,-5.98471 -3.51856,-8.99239 -5.86608,-14.63629 -11.74675,-29.2821 -16.64853,-44.27551 -1.6453,-5.27139 -2.82296,-10.72941 -3.23901,-16.24412 -0.0276,-3.17556 -0.27488,-6.40788 0.33296,-9.54497 0.3874,-2.18215 1.84471,-4.02928 3.792,-5.05055 4.84049,-2.66671 10.2709,-3.95125 15.54998,-5.47268 7.41683,-1.9639 15.10267,-3.72043 21.6649,-7.88422 4.30787,-2.79403 7.66725,-7.05502 9.11622,-12.00585 2.65763,-8.41096 0.0278,-18.19729 -6.52812,-24.10942 -5.41297,-5.01215 -13.35218,-7.155291 -20.54712,-5.549549 -6.43898,1.806192 -12.35081,5.051949 -18.59761,7.376149 -4.13611,1.54151 -8.2631,3.20862 -12.6195,4.00098 -0.70999,-0.17343 0.21244,-1.01292 0.40243,-1.28755 4.53615,-5.29267 7.76391,-11.585596 10.26224,-18.056414 2.46172,-7.01972 3.00208,-14.660637 2.00038,-22.01036 -1.9866,-14.61711 -10.93958,-28.036911 -23.56651,-35.631105 -7.13949,-4.327775 -15.35555,-7.028401 -23.74176,-7.156338 -0.88569,-0.02999 -1.77205,-0.0365 -2.65815,-0.02624 z m 0.98802,5.341879 c 12.67429,0.121347 25.29318,5.809153 33.41768,15.627187 4.63929,5.568749 8.0048,12.231097 9.60209,19.309221 0.99818,5.103231 0.85286,10.358254 0.41878,15.518272 -0.52538,6.368492 -3.29994,12.285575 -6.5872,17.68578 -1.91964,3.144581 -4.2889,5.959821 -6.90973,8.534171 -1.46666,1.54652 -1.4184,4.1172 -0.30589,5.84151 1.54902,2.02319 4.43547,1.94506 6.72059,1.71176 6.71229,-0.88364 12.95156,-3.69733 19.22509,-6.08806 1.61543,1.67415 3.41039,3.698 5.94652,3.67886 1.64481,0.14838 3.65015,-0.78544 5.0217,0.47617 0.84531,0.99475 0.26186,2.54197 -0.85343,3.01506 -2.71239,1.17502 -4.90219,3.7425 -5.07142,6.76636 -0.45078,4.67121 4.4673,8.756 8.98143,7.72568 1.03547,-0.0959 2.91672,-0.22957 2.95275,1.2406 0.11266,1.41717 -1.3496,2.3413 -2.35775,3.07139 -1.95126,1.358 -3.84925,3.28646 -3.96768,5.79777 -0.61762,1.09869 -2.14025,1.1492 -3.20098,1.59507 -6.3599,1.79966 -12.93167,3.45451 -18.59984,6.98416 -3.23211,1.84653 -4.96238,5.45044 -5.45832,9.02283 -1.13812,8.3991 0.12569,16.9574 2.48605,25.04164 2.7519,9.52386 6.52514,18.70997 9.98305,27.99022 3.39711,8.8389 6.77136,17.69557 10.47802,26.40592 0.30494,0.43382 0.22465,1.09594 -0.40684,0.81673 -2.5345,-0.97964 -2.98536,-4.04406 -5.02462,-5.59474 -2.51768,-2.38383 -6.57315,-2.73681 -9.51131,-0.92788 -2.41739,1.23824 -3.9685,3.84263 -3.91847,6.55626 0.09,0.80592 -0.19804,1.62717 0.004,2.4094 0.20366,-0.15785 0.0521,0.87395 0.0479,1.21134 -0.006,1.35158 -0.95017,2.73601 -2.40941,2.70815 -1.81206,0.26728 -2.84485,-1.47691 -3.54957,-2.84687 -1.58682,-3.49161 -5.84066,-5.22195 -9.4787,-4.25404 -3.27675,0.7516 -6.25416,3.74719 -6.0651,7.26327 -0.0791,1.26589 0.22308,2.56506 0.11287,3.7867 -3.66491,-7.05436 -6.84907,-14.35316 -10.09132,-21.60669 -2.70865,-6.04572 -5.06454,-12.27181 -8.28152,-18.0735 -0.80542,-1.31875 -1.94367,-3.16919 -3.76246,-2.79991 -2.1605,0.33217 -3.18678,2.56847 -4.23455,4.2223 -3.724219,6.92225 -6.196871,14.42657 -8.723236,21.84623 -1.012735,2.7603 -1.642183,5.68604 -3.019912,8.29117 -0.58927,0.81712 -1.659712,0.0243 -2.473653,0.20188 -2.346947,0.061 -4.587146,1.28191 -6.170829,2.96817 -1.092475,1.2781 -1.789144,2.84065 -2.823373,4.14992 -1.24993,0.93476 -3.568698,0.6148 -3.965374,-1.08794 -0.791713,-2.82598 0.233144,-6.09855 -1.525378,-8.67304 -1.744057,-2.36098 -4.60634,-4.22256 -7.623513,-3.78017 -3.187255,0.32341 -5.989752,2.53241 -7.291951,5.42485 -0.690295,1.3001 -2.155689,2.67132 -3.731658,1.97708 -1.466401,-0.42552 -2.020866,-2.09367 -1.669257,-3.4715 0.53363,-3.34773 -0.453856,-7.29765 -3.535431,-9.12068 -1.048436,-0.31824 -0.38314,-1.40512 -0.187249,-2.10259 3.664651,-10.47294 7.444492,-20.9302 12.340546,-30.89987 3.330661,-7.02199 5.525419,-14.59794 6.136415,-22.36007 0.459735,-5.74151 0.554958,-11.52028 0.281761,-17.27276 -0.06531,-1.07997 -0.385489,-2.17164 -0.403109,-3.21378 -0.906608,-0.84435 -1.628886,-1.93006 -2.794822,-2.48687 -5.954827,-3.30546 -12.587323,-5.09183 -19.053801,-7.10092 -3.752889,-1.16694 -7.61053,-2.04239 -11.341557,-3.23414 -0.807064,-0.25652 -0.491089,-0.5913 0.220595,-0.59517 1.344521,-0.21395 2.72746,0.3359 4.084313,-0.0359 2.669844,-0.48892 5.196895,-2.35004 5.919391,-5.05096 1.05254,-3.38603 -0.517825,-7.43859 -3.779368,-8.97944 -1.060905,-0.50301 -2.468191,-1.29563 -2.143082,-2.71509 0.22172,-1.53923 2.114354,-1.4873 3.261643,-1.42737 2.742613,0.47919 5.869925,-0.48941 7.388455,-2.94281 1.594556,-2.39992 1.850371,-5.74126 0.128056,-8.14892 -0.491583,-0.82539 -1.220235,-1.4689 -1.782929,-2.23812 3.376734,1.02813 6.745872,2.31867 10.18898,3.22808 5.355101,1.41362 10.789164,3.08682 16.385003,2.92084 1.459436,-0.15568 2.538672,-1.42954 3.19941,-2.6434 0.77506,-1.96645 -0.805072,-3.81601 -1.959069,-5.25134 C 70.780531,101.81478 67.527768,97.564313 65.304282,92.746967 62.147327,86.104189 60.659162,78.652042 61.190818,71.301232 61.797493,56.668753 70.537396,42.73083 83.314079,35.55257 90.047204,31.717343 97.791237,29.638328 105.51976,29.656718 Z m 14.91219,36.838454 c -2.65581,0.03867 -4.97762,2.236153 -5.3011,4.848364 -0.39604,1.630407 0.0848,3.443307 1.04411,4.795365 1.16121,1.405136 2.98121,2.247243 4.777,2.403277 2.57433,-0.318422 5.16105,-2.103659 5.6866,-4.770248 0.76193,-2.976289 -1.17169,-6.335542 -4.18876,-7.038188 -0.65453,-0.1835 -1.33829,-0.267101 -2.01785,-0.23857 z m -31.614849,0.01184 c -3.03708,-0.0099 -5.669159,2.724994 -5.617779,5.748263 -0.170279,2.319854 1.121303,4.697677 3.326662,5.557482 1.295821,0.671018 2.852092,1.034763 4.222304,0.345651 2.423902,-0.668058 4.180688,-3.008845 4.157061,-5.52236 0.148378,-2.809403 -1.897164,-5.598938 -4.73112,-6.016884 -0.446788,-0.08524 -0.902397,-0.123713 -1.357128,-0.112071 z m 30.457549,24.848512 c -2.77592,0.483038 -4.68315,2.857962 -7.29141,3.779802 -5.83662,2.576043 -12.823092,1.502726 -17.959868,-2.17692 -1.253303,-0.638955 -2.589066,-1.973235 -4.11119,-1.461152 -1.214532,0.453342 -1.877857,1.985034 -1.57228,3.199626 1.097095,2.075444 3.29933,3.255939 5.245064,4.416487 3.519287,2.006092 7.554414,3.094642 11.616394,2.910742 5.08737,-0.0831 10.24038,-1.73062 14.22114,-4.94027 1.1335,-1.04518 2.63036,-2.49039 2.09434,-4.192736 -0.35772,-0.950944 -1.24609,-1.526661 -2.24219,-1.535579 z m 58.77696,10.792855 c 4.26148,-0.15943 8.49584,1.46158 11.59836,4.40177 3.22206,3.00594 5.66087,7.12108 6.01801,11.54794 0.13377,2.35075 0.005,4.72869 -0.83212,6.95439 -1.3894,4.17259 -4.04604,8.16315 -8.1306,10.05565 -2.57023,1.29079 -5.21181,2.47375 -7.94702,3.37621 -1.05742,0.37962 0.095,-0.26863 0.45881,-0.48452 2.67217,-1.46516 4.75389,-4.3578 4.45173,-7.50554 -0.38417,-3.51564 -3.52403,-6.76113 -7.18497,-6.6103 -1.45981,-0.0353 -3.19014,0.60087 -4.37976,-0.52307 -0.76516,-1.04301 -0.29707,-2.61336 0.90577,-3.10609 2.4207,-1.09551 4.46948,-3.2423 4.88647,-5.93651 0.71801,-3.5654 -1.7442,-7.44789 -5.34989,-8.14602 -1.96553,-0.56409 -4.04506,-0.0199 -5.99732,-0.52757 3.33546,-2.31565 7.49152,-3.43784 11.50253,-3.49634 z m -145.462371,1.06246 c 1.568292,0.0815 3.303314,0.10299 4.677077,0.95949 0.784136,1.17974 0.515556,2.76733 1.295805,4.00106 0.896841,1.94349 2.985051,2.74767 4.593615,3.94801 0.740372,0.66191 0.803906,1.92261 0.406817,2.74996 -1.63457,0.5749 -3.45769,0.1395 -5.151079,0.54067 -2.682788,0.31765 -5.183734,2.11795 -6.00169,4.74717 -1.262361,3.49813 0.669557,7.61386 4.001344,9.14179 1.035945,0.47885 2.241106,1.39302 1.837091,2.69926 -0.181725,1.40964 -1.886596,1.61697 -2.996929,1.38299 -2.955848,-0.58159 -6.111336,0.82786 -7.758593,3.32477 -0.484026,0.55399 -1.186199,1.51163 -2.030713,0.89003 -4.391034,-2.10271 -8.39956,-5.5504 -10.056287,-10.25599 -1.195887,-3.30335 -1.255259,-6.92321 -0.773087,-10.3694 0.91087,-3.23751 2.690798,-6.30423 5.059348,-8.71374 3.432632,-3.24945 8.23003,-4.97897 12.897281,-5.04607 z m 7.020193,1.51212 c 2.188622,0.65718 3.630516,2.63466 5.67731,3.59379 2.57482,1.27164 3.373261,4.64579 2.716331,7.2317 -0.667288,1.7689 -2.193178,3.28328 -3.993905,3.86034 -2.282838,0.41029 -4.873283,-0.36799 -6.922307,1.01251 -1.322384,1.14166 -1.169328,3.59567 0.361968,4.50983 1.782712,1.22712 3.994319,2.23341 4.748011,4.44112 0.959744,2.38013 0.292929,5.19409 -1.639049,6.9006 -1.769412,1.66657 -4.343265,1.49468 -6.618565,1.19369 -1.256737,-0.19768 -2.245841,0.68123 -3.032385,1.5305 -0.993484,0.4272 -2.167292,-0.21528 -2.733655,-1.03189 0.531478,-1.29158 1.811381,-2.20927 3.004268,-2.85815 1.581039,-0.64804 3.263891,-0.60251 4.914739,-0.36424 1.621883,0.15982 3.456429,-0.89116 3.544765,-2.64765 0.265009,-1.39943 -0.702924,-2.64092 -1.869845,-3.28651 -1.466598,-1.25089 -3.254361,-2.34763 -4.127544,-4.12428 -0.877998,-2.87594 0.414472,-6.41522 3.285517,-7.63765 1.663376,-0.84463 3.532689,-0.63731 5.32418,-0.36745 1.534671,-0.11602 3.251322,-1.15124 3.204717,-2.86824 -0.01973,-2.02225 -1.882649,-3.29925 -3.528328,-4.07433 -1.45987,-0.90166 -2.639261,-2.31826 -2.910663,-4.07155 -0.171267,-0.5516 -0.206389,-1.10406 0.59444,-0.94214 z m 125.342908,1.43769 c 0.84584,0.0513 1.20847,1.13135 2.1392,1.05635 1.88513,0.0284 3.7604,-0.49999 5.54376,0.25388 2.68583,0.85961 4.31292,3.76615 3.99494,6.49509 0.0458,2.27542 -2.16864,3.53788 -3.64317,4.88611 -0.88171,0.72557 -2.07415,1.201 -2.43106,2.39444 -0.56431,1.4864 0.14128,3.45782 1.78869,3.84675 2.15957,0.62946 4.42026,-0.43324 6.51752,0.54651 3.74638,1.41467 4.65904,6.86839 1.9239,9.65782 -1.34194,1.5546 -3.61099,1.95869 -4.78602,3.69127 -0.88313,0.65473 -2.02819,1.12302 -3.10888,1.14914 0.0837,-2.51535 1.97457,-4.73138 4.19478,-5.79358 1.40232,-0.69922 2.98393,-2.19448 2.35332,-3.91643 -0.5518,-1.44518 -2.01373,-2.6702 -3.63908,-2.34005 -2.41956,0.31585 -5.30352,0.24237 -6.99325,-1.78368 -2.38022,-2.7601 -1.61901,-7.49108 1.56572,-9.34159 1.30447,-0.91359 3.38849,-1.63864 3.44639,-3.51978 0.1608,-1.21708 -0.48973,-2.43994 -1.63856,-2.90903 -1.23349,-0.56733 -2.6512,-0.27034 -3.96924,-0.38955 -1.65719,0.09 -3.42158,-0.25819 -4.57069,-1.56042 -0.40922,-0.41166 -0.99305,-0.7493 -1.19251,-1.31288 0.80128,-0.38377 1.59416,-1.06254 2.50424,-1.11037 z m -60.2901,20.66089 c -3.98923,0.1243 -8.000432,2.55212 -9.328645,6.42881 -1.810846,4.76402 0.32782,10.68004 4.892625,13.02826 4.15885,2.35078 9.68976,0.93347 12.74375,-2.58741 4.05823,-4.41937 2.77383,-12.36835 -2.39587,-15.37589 -1.76475,-1.0744 -3.85172,-1.57895 -5.91186,-1.49377 z m 0.57,5.27051 c 2.05632,0.16575 4.20353,1.5296 4.46143,3.69778 0.2611,1.63469 0.31195,3.60994 -1.19249,4.68974 -1.47176,1.46617 -3.91614,2.03997 -5.75484,0.87587 -1.38167,-0.75385 -2.72842,-2.13065 -2.52878,-3.84156 -0.12648,-1.73266 0.3955,-3.77264 2.12807,-4.59898 0.89155,-0.44679 1.89478,-0.89712 2.88661,-0.82285 z m -0.69541,21.55919 c -4.547042,0.21146 -8.618859,3.76358 -9.510567,8.21718 -1.075921,4.28834 0.915111,9.1987 4.838935,11.33053 3.801392,2.33996 8.986802,1.57676 12.190692,-1.44442 1.64756,-1.47276 3.05985,-3.43137 3.08414,-5.72796 0.36636,-1.56959 0.14482,-3.21299 -0.0541,-4.79025 -1.17939,-4.29588 -5.49369,-7.30796 -9.84868,-7.58303 -0.2336,-0.0118 -0.4668,-0.008 -0.70047,-0.002 z m 0.57303,5.53766 c 2.74978,0.0696 5.26811,2.6726 4.86571,5.49074 -0.31755,3.24641 -4.37487,5.67684 -7.227,3.81191 -2.35433,-1.32249 -3.405752,-4.59668 -1.90077,-6.92894 0.86114,-1.48195 2.53162,-2.47595 4.26206,-2.37371 z m -57.506481,69.92259 c 1.776378,1.45913 3.197595,3.68578 3.057996,6.03993 -7.49e-4,1.87626 -0.87709,4.30708 0.729955,5.82864 1.604499,1.35131 4.434621,1.80959 5.912879,0.0225 1.330968,-1.94739 2.498559,-4.15637 4.497624,-5.5142 1.831486,-0.83668 3.936565,-0.87095 5.870043,-0.38948 2.102396,0.61399 3.708256,2.48948 4.325329,4.53088 0.451884,2.15609 -0.577018,4.45323 0.08662,6.61375 0.944708,1.73722 3.158999,3.25888 5.141015,2.2595 1.848062,-0.87408 2.769389,-2.85741 3.758375,-4.47823 1.557993,-1.78318 3.924998,-3.06376 6.327861,-2.98959 1.337585,0.0626 1.241366,1.94761 0.284492,2.50016 -1.043788,0.82202 -2.635915,0.4214 -3.532022,1.53456 -1.541398,1.53197 -2.090261,3.84028 -3.951364,5.09539 -3.364638,2.70643 -9.0073,1.42312 -10.696742,-2.62075 -0.583787,-1.99518 -0.238728,-4.13944 -0.135553,-6.20447 0.05071,-1.8817 -1.763928,-3.29454 -3.448418,-3.69211 -1.529876,-0.38599 -3.226974,0.3095 -3.95312,1.73541 -1.138371,1.6966 -1.841748,3.89925 -3.895013,4.7403 -2.122482,1.19645 -4.905584,1.53555 -6.978403,0.0274 -1.461922,-1.08052 -3.278254,-2.34005 -3.221133,-4.36648 -0.177383,-2.28893 0.223317,-4.77156 -0.698346,-6.95351 -0.647123,-1.04683 -0.585403,-2.55381 0.08761,-3.55854 0.121346,-0.0958 0.272033,-0.17127 0.430297,-0.161 z m 108.994071,1.973 c 2.78687,-0.12963 5.53617,1.62668 6.59323,4.26458 0.7603,1.53919 2.08564,3.21381 4.00078,3.02275 0.73676,0.0372 1.34731,0.45814 1.42239,1.21949 0.31231,0.7707 0.10419,1.96437 -0.9233,1.93744 -3.05129,0.18133 -5.8261,-1.90485 -7.02542,-4.6108 -0.80699,-1.73715 -2.59116,-3.48012 -4.66827,-2.91934 -1.2437,0.38755 -2.49647,1.15936 -3.15475,2.30847 -0.46778,1.84129 0.39869,3.76103 -0.0138,5.59269 -0.31546,3.02184 -2.70562,5.70681 -5.80315,5.99366 -2.92341,0.45325 -6.23704,-0.94214 -7.39401,-3.7831 -0.71039,-1.17286 -1.40495,-2.4775 -2.76218,-3.012 -1.93835,-1.26406 -4.68102,-0.0822 -5.46015,1.98524 -0.38631,1.96137 0.35867,3.96878 -0.0924,5.92827 -0.18034,1.07493 -0.51884,2.30116 -1.40241,3.00475 -0.94458,-0.27594 -0.99098,-1.60543 -1.24498,-2.42059 -0.43762,-2.79372 -0.6406,-5.76048 0.36082,-8.42958 0.76811,-1.75538 2.45497,-2.85161 4.2748,-3.27258 2.75805,-0.90228 5.88837,0.24922 7.55414,2.61006 1.11704,1.39333 1.61187,3.43491 3.40965,4.1907 1.78623,0.87118 4.50191,0.37972 5.17771,-1.70178 0.55462,-1.28232 0.41613,-2.76753 0.43898,-4.1408 -0.13516,-1.85333 -0.10385,-3.93282 1.33262,-5.32917 1.34444,-1.50327 3.37219,-2.41054 5.38014,-2.43836 z m -110.500072,2.75404 c 0.622597,2.26083 -0.294685,4.6356 0.498606,6.8754 1.211395,4.52811 6.933376,7.08477 11.099771,4.90649 2.437648,-0.94918 3.964763,-3.20438 5.172507,-5.4067 0.748345,-1.80656 3.938027,-1.80786 4.50587,0.14444 0.887844,2.69449 -0.22602,5.81002 1.286788,8.3498 1.332091,2.09572 3.472786,3.86496 6.054589,3.95495 0.52114,0.19337 1.174598,0.44677 1.769078,0.16535 1.56928,-0.10261 3.143058,-0.63447 4.45378,-1.50906 2.252609,-1.4221 2.641964,-4.49853 4.910577,-5.84763 0.395292,-0.37035 1.284751,-0.27642 0.811624,0.40889 -1.934251,4.42486 -4.530636,8.55389 -7.174219,12.57212 -2.06023,3.45942 -5.602488,5.67838 -9.204493,7.26365 -6.25713,2.57405 -13.974879,1.69639 -19.396611,-2.53853 -5.902186,-4.37423 -8.944574,-12.10219 -7.830099,-19.31623 0.538583,-3.16736 1.422322,-6.31125 2.518172,-9.3422 0.09905,-0.14207 0.40579,-1.11629 0.52406,-0.68073 z m 110.505162,1.47847 c 1.8468,-0.0596 2.84149,1.80639 3.59526,3.21593 1.45364,2.59569 4.3389,4.29331 7.33005,4.17097 1.34448,-0.28906 1.57208,0.43452 1.2914,1.61899 0.0604,6.03751 -2.89586,11.91872 -7.59283,15.68032 -4.73329,3.92918 -11.39495,4.89699 -17.29082,3.78306 -4.51574,-0.96326 -8.38462,-3.9496 -11.27291,-7.47275 -0.61469,-0.96541 -1.64321,-1.72198 -1.98951,-2.82659 1.09668,-1.54629 2.00216,-3.3087 1.95103,-5.25467 0.18173,-1.7703 -0.33864,-3.66992 0.39516,-5.33529 0.97644,-1.33314 3.1654,-1.53165 4.21383,-0.16772 1.04367,1.04231 1.32171,2.61475 2.43941,3.62082 1.51488,1.68731 3.60819,3.20704 5.99841,2.93693 1.76314,-10e-4 3.58436,-0.49907 5.07779,-1.4448 2.27697,-1.54466 3.38752,-4.30793 3.35393,-6.9973 0.15272,-1.5592 -0.38261,-3.25357 0.31473,-4.70201 0.57662,-0.52142 1.41567,-0.8165 2.18507,-0.82591 z"
       id="path882" />
  </g>
</svg>
