<?xml version="1.0" encoding="UTF-8" standalone="no"?>
<svg
   xmlns:dc="http://purl.org/dc/elements/1.1/"
   xmlns:cc="http://creativecommons.org/ns#"
   xmlns:rdf="http://www.w3.org/1999/02/22-rdf-syntax-ns#"
   xmlns:svg="http://www.w3.org/2000/svg"
   xmlns="http://www.w3.org/2000/svg"
   xmlns:sodipodi="http://sodipodi.sourceforge.net/DTD/sodipodi-0.dtd"
   xmlns:inkscape="http://www.inkscape.org/namespaces/inkscape"
   id="svg2628"
   version="1.1"
   viewBox="0 0 210 297"
   height="297mm"
   width="210mm"
   sodipodi:docname="grape.svg"
   inkscape:version="0.92.4 (5da689c313, 2019-01-14)">
  <sodipodi:namedview
     pagecolor="#ffffff"
     bordercolor="#666666"
     borderopacity="1"
     objecttolerance="10"
     gridtolerance="10"
     guidetolerance="10"
     inkscape:pageopacity="0"
     inkscape:pageshadow="2"
     inkscape:window-width="1029"
     inkscape:window-height="520"
     id="namedview8"
     showgrid="false"
     inkscape:zoom="0.2102413"
     inkscape:cx="396.85039"
     inkscape:cy="561.25984"
     inkscape:window-x="0"
     inkscape:window-y="0"
     inkscape:window-maximized="0"
     inkscape:current-layer="svg2628" />
  <title
     id="title3338">Grape</title>
  <defs
     id="defs2622" />
  <metadata
     id="metadata2625">
    <rdf:RDF>
      <cc:Work
         rdf:about="">
        <dc:format>image/svg+xml</dc:format>
        <dc:type
           rdf:resource="http://purl.org/dc/dcmitype/StillImage" />
        <dc:title>Grape</dc:title>
        <dc:date>2020-04-10</dc:date>
        <dc:source>http://www.supercoloring.com/coloring-pages/grape-4</dc:source>
        <dc:subject>
          <rdf:Bag>
            <rdf:li>csk</rdf:li>
            <rdf:li>acb</rdf:li>
            <rdf:li>fruits</rdf:li>
            <rdf:li>grape</rdf:li>
          </rdf:Bag>
        </dc:subject>
      </cc:Work>
    </rdf:RDF>
  </metadata>
  <g
     id="layer1">
    <path
       id="path3198"
       transform="scale(0.26458333)"
       d="M 526.9707 216.21875 C 526.65814 216.20775 526.30974 216.23038 525.91992 216.27148 C 525.08797 216.35938 523.41208 217.07137 521.3457 218.14062 C 519.80887 218.80883 518.18445 219.70515 516.58008 220.83789 C 515.16415 221.70281 513.70922 222.64091 512.2832 223.61719 C 506.67469 227.45696 497.51655 232.77786 491.93555 235.44141 C 480.85416 240.73006 475.29102 247.39727 475.29102 255.38672 C 475.29102 259.38374 474.18704 260.51577 466.72852 264.17383 C 446.6503 274.0211 448.74528 287.99303 473.78125 311.24805 C 476.77101 314.0251 479.48506 316.83419 481.46289 319.13281 C 483.39483 321.49023 484.62092 323.31893 484.69141 324.10352 C 484.5493 327.00142 479.97556 331.9915 476.99805 332.71289 C 476.7675 332.73289 476.52737 332.74426 476.28711 332.75586 L 476.28516 332.75586 C 474.71121 332.50335 472.74238 330.97013 470.94922 328.85156 C 469.25066 326.39584 467.57746 322.8448 466 318.25977 C 461.35889 304.77024 455.53895 295.99951 445.2168 286.93164 C 433.56599 276.69653 430.07562 274.82041 420.54297 273.69141 C 414.4266 272.96704 411.16604 273.61561 403.44141 277.08203 L 395.9082 280.46289 C 394.82696 280.67545 393.76482 280.79225 392.69336 280.83008 C 392.57657 280.82908 392.45972 280.82206 392.3418 280.81836 L 387.96875 279.47852 L 383.99023 278.21484 C 367.15012 272.86583 365.01417 272.74587 352.82812 276.44727 C 338.21026 280.88732 332.44852 285.92906 330.98828 295.55078 C 329.57846 304.84051 331.763 310.07913 341.29492 320.26953 C 349.30833 328.83644 350.28625 333.4747 346.49609 344.95898 C 345.06747 349.28771 345.22733 351.63534 347.37305 357.46094 C 347.72715 358.67164 348.24233 359.87239 348.89062 361.03906 C 351.55097 366.54887 354.97954 369.49718 360.30859 370.96875 C 361.60037 371.50819 362.87452 371.855 364.07617 371.97461 C 367.48028 373.20411 371.25976 376.15681 376.49414 381.64062 C 386.54762 392.1733 391.98276 394.83204 406.66211 396.38867 C 418.48084 397.642 420.97384 399.35827 414.95312 402.10156 C 411.48156 403.68326 408.71495 403.09212 394.85742 397.79492 C 384.04518 393.66205 379.87026 392.31141 372.66016 391.87695 C 366.16343 390.86544 360.00034 390.839 353.90625 391.80664 C 346.6081 392.10296 343.17841 392.95419 338.73633 395.07617 C 329.87052 399.31143 327.05378 402.44471 324.57812 410.81641 C 323.50262 414.45345 321.13665 418.78059 319.32227 420.43164 C 315.55746 423.85737 298.08153 433.22383 295.44531 433.22852 C 292.56382 433.23652 286.9715 438.28988 282.81836 444.39453 C 281.32833 446.22348 280.25645 448.10815 279.55469 450.15234 C 274.61336 460.98995 277.92165 469.77104 289.57031 476.59766 C 296.17765 480.46982 296.41016 480.86647 296.41016 488.35156 C 296.41016 497.48022 299.24778 504.95579 305.9082 513.36523 C 312.4553 521.63174 320.17388 523.74177 331.6543 520.4043 C 333.2647 519.93613 334.70246 519.5594 336.04883 519.23438 C 341.69766 518.76998 346.05271 518.83854 349.21094 519.48242 C 350.22078 520.01658 351.19641 520.70351 352.19727 521.56445 L 356.38086 525.16211 L 352.55859 529.80078 C 347.62701 535.78551 341.91406 547.80654 341.91406 552.19922 C 341.91406 552.51141 341.8984 552.77833 341.875 553.03711 C 341.8629 553.11611 341.85548 553.1986 341.83398 553.27344 C 341.67596 553.56711 341.51872 553.86635 341.33594 554.09766 C 340.75525 554.68911 339.67312 555.15193 337.96484 555.55078 C 337.16338 555.59798 336.25015 555.625 335.09766 555.625 C 331.34918 555.625 324.17897 557.03764 319.16211 558.76367 C 316.74994 559.59362 314.55805 560.32988 312.85742 560.89258 L 309.9668 561.76367 C 309.932 561.76467 309.8908 561.77148 309.85742 561.77148 L 307.82617 559.49023 C 307.29109 558.70768 306.74846 557.92197 306.11523 556.92188 C 301.47726 549.59666 284.43517 535.61088 273.76953 530.37695 C 269.14362 528.10693 265.21257 526.75141 260.97852 526.19922 C 260.73893 526.16142 260.49189 526.11902 260.25195 526.09375 C 259.26365 525.95466 258.30623 525.85849 257.41797 525.86719 C 257.18523 525.86919 256.88087 525.90812 256.63281 525.91602 C 252.624 525.89332 248.12865 526.47543 242.44336 527.61719 C 237.62837 528.58418 234.44461 529.78642 230.92969 532.20898 C 230.89609 532.23548 230.84429 532.25745 230.8125 532.28125 C 230.7789 532.30775 230.74864 532.33408 230.71484 532.35938 C 229.10115 533.49035 227.41645 534.85573 225.45508 536.61914 C 215.52408 545.54797 210.8599 554.85203 209.88672 568.19531 C 209.52392 571.38841 209.49409 574.65595 209.79688 577.93359 C 210.343 589.48632 213.39103 597.08938 221.01172 606.58594 L 226.01953 612.82617 L 222.30469 613.81836 C 216.96836 615.24547 206.42541 622.18013 200.3457 628.25977 C 195.68815 632.91728 193.73546 637.07721 190.44141 649.38086 C 190.36061 649.68284 190.25453 649.967 190.13672 650.23633 C 189.30446 651.14066 187.9 652.04961 185.92969 652.9375 C 175.89938 653.41844 153.35419 670.38861 148.49414 681.25781 C 141.66367 696.53383 141.03271 705.58368 145.75195 720.63867 C 147.42622 725.97982 148.74117 730.14243 148.81641 730.34766 C 148.56174 730.43756 148.24898 730.5186 147.86914 730.58398 L 143.43359 730.58398 L 141.18164 730.34766 C 136.96972 729.90745 132.69672 730.1394 128.50977 730.92188 C 118.25339 731.9485 111.44857 735.49839 102.82617 743.66406 C 101.42637 744.98966 100.00639 746.63902 98.636719 748.45508 C 96.946438 750.55532 95.498477 752.77568 94.332031 755.08398 C 91.406794 760.23779 89.312336 765.52595 89.298828 768.76172 C 89.290928 770.67329 89.06048 771.55205 88.064453 771.7832 L 85.609375 771.625 C 85.39655 771.5838 85.20646 771.55417 84.96875 771.50391 C 82.595437 771.0018 76.416423 770.44183 71.238281 770.25977 C 63.370363 769.98348 60.04557 770.7869 51 775.16016 C 45.659754 777.74203 40.421676 781.24897 35.945312 785.06641 C 33.842266 786.75574 32.017485 788.49753 30.46875 790.31836 C 27.540119 793.50227 25.282644 796.71502 24.058594 799.64453 C 21.087565 806.75522 21.213701 819.03593 24.371094 829.98242 C 25.55331 834.08109 27.489475 837.91033 30.027344 841.38281 C 31.434966 843.40433 33.072985 845.25902 34.96875 846.96094 C 43.810929 855.36872 56.679818 860.60632 70.597656 860.63281 C 87.749904 860.66681 104.44146 852.60064 113.01953 840.13281 C 115.84435 836.02707 118.30527 833.74149 119.88281 833.36523 C 119.90591 833.36497 119.92602 833.36328 119.94922 833.36328 C 120.2297 833.36328 120.45714 833.37131 120.69531 833.38281 C 121.71193 833.69803 122.04035 835.35704 121.34766 838.4668 C 119.06018 848.73611 121.57269 863.83638 127.4668 875.23438 C 133.27901 886.47389 148.66173 897.61165 161.76758 900.07031 L 166.96875 901.04492 C 167.01175 901.14886 167.05415 901.25941 167.09375 901.37695 L 167.83594 908.07031 L 168.10547 911.8457 C 168.95955 923.78274 173.6891 933.73285 181.71289 940.48438 C 189.30086 946.86923 207.31161 956.32825 214.03125 957.45508 C 235.24536 961.01233 247.61286 957.00953 264.63867 941.08203 C 269.80021 936.25342 276.01172 922.54325 276.01172 915.97852 C 276.01172 915.79559 276.03739 915.62489 276.05469 915.44922 C 276.7001 913.54694 277.71672 912.21381 279.49023 910.87695 C 280.06594 910.52243 280.69425 910.17192 281.43164 909.82031 C 288.40214 906.49633 299.11219 896.81877 302 891.23438 C 304.79948 885.82073 305.56078 881.81863 305.70898 871.70117 L 305.73828 869.63867 L 306.22656 863.82422 C 306.26136 863.76562 306.30346 863.72038 306.33984 863.66406 L 317.63867 861.90625 C 324.13782 860.89583 332.39452 858.6504 335.98438 856.91602 C 339.45979 855.23685 341.76897 854.6571 343.1875 855.22656 C 343.76144 855.82373 344.32019 856.79244 344.92188 858.1875 C 344.97287 858.58719 345.02287 858.99094 345.0293 859.46875 C 345.0715 862.59574 357.71696 872.81878 366.83008 877.0918 C 372.11056 879.56788 375.25948 880.57242 381.23828 880.9707 C 388.50087 882.38285 395.21362 882.43649 401.85156 881.07227 C 408.63226 880.76348 410.88462 879.80573 415.66406 876.84961 C 419.54775 874.44753 424.9332 871.47405 427.63477 870.24219 C 433.46616 867.58314 439.91499 860.28801 443.40625 852.39844 C 444.65372 849.57936 445.47219 845.56799 445.88477 841.1543 C 446.11229 839.75984 446.31805 838.32911 446.47656 836.8125 C 447.08333 831.00707 446.89598 827.72033 445.28125 822.80664 C 444.75348 819.76265 444.00391 817.08576 443.02539 815.12891 L 439.78906 808.65625 L 445.10742 805.79297 C 446.51462 805.03514 448.28889 803.71364 450.23633 802.06055 C 453.60158 799.49028 457.03355 796.05275 460.26172 792.15625 C 464.71117 787.22956 468.72925 782.08079 470.53711 778.53711 C 472.20471 775.26835 474.41335 769.14499 475.44531 764.92969 C 476.47739 760.71434 477.46198 757.0801 477.63281 756.85352 C 477.80365 756.6275 481.2886 757.922 485.37695 759.73047 C 489.6417 761.61687 497.86593 763.39929 504.67188 763.91406 C 515.90073 764.76332 516.81757 765.12306 521.81641 770.65625 C 529.8784 779.57987 540.92103 783.68982 554.46875 782.80469 C 561.41163 782.35103 567.92114 780.85061 571.99219 778.76367 L 577.2207 776.08203 C 577.86515 775.84732 578.16842 775.75201 578.51172 775.64062 L 580.375 785.10938 C 582.58432 796.3391 585.46188 804.57775 589.98828 811.32031 C 590.29253 811.82722 590.59156 812.28395 590.87695 812.6582 C 591.00886 812.83055 591.17871 813.01843 591.32422 813.19531 C 595.60707 818.91276 601.24389 823.57835 608.93164 828.20312 C 623.39654 836.90496 639.62169 839.22877 655.78125 834.91406 C 663.8903 832.74892 678.18805 819.33061 682.01172 810.29883 C 683.76493 806.15786 686.07718 796.76736 687.14648 789.43164 L 688.81836 777.93945 C 689.62132 776.73136 690.76224 776.26288 692.58008 776.09375 L 698.75391 776.09375 C 726.7463 776.09375 748.70397 751.51641 748.51953 720.38867 C 748.46733 711.61408 747.98551 708.40793 744.25391 700.33984 C 742.49654 695.56902 740.21115 691.10243 737.52734 687.14258 C 731.7026 677.18677 726.36863 672.89734 718.11523 670.88867 C 713.07656 669.6624 713.1143 669.89117 716.33008 660.76172 C 718.06031 655.84981 718.55244 650.48302 717.80273 644.55664 C 717.78003 644.36615 717.7719 644.18995 717.75 643.99609 C 717.64493 643.15201 717.47325 642.23848 717.26953 641.29492 C 716.25756 636.12048 714.3682 630.54221 711.56836 624.48242 C 708.5492 617.94788 702.80409 608.95661 698.80078 604.50391 L 691.52148 596.41016 L 696.13086 591.16016 C 702.14756 584.30746 706.76008 574.59107 710.15625 561.62109 C 712.56026 552.44017 712.65249 549.90574 710.89062 541.22266 C 708.49415 529.41175 703.29008 517.44223 697.6582 510.78516 C 695.4084 508.12581 688.48468 502.54035 682.27344 498.37305 C 671.73543 491.30284 670.28742 490.78296 660.61523 490.64062 L 650.25 490.49023 L 650.12109 485.00781 C 649.86749 473.99593 647.35455 467.24177 639.87891 457.48828 L 632.92969 448.42383 C 632.78758 448.1226 632.68295 447.85235 632.61719 447.61133 L 635.16406 445.78711 L 637.91602 444.08789 C 641.01708 442.17129 646.82375 437.76847 650.82227 434.30469 C 665.50747 421.58333 685.04183 416.17826 694.62891 422.18359 C 703.07967 427.47705 703.04897 428.91977 694.1582 443.4375 C 691.39106 447.95593 690.18139 452.60288 690.37305 456.89453 C 690.29485 460.59843 691.41473 463.81505 693.69141 466.49609 C 695.29151 468.66619 697.43423 470.52552 700.12695 471.91797 C 702.70879 473.25312 710.80483 474.88836 718.11523 475.55469 C 731.60365 476.78413 735.18718 478.66444 733.17383 483.45117 C 729.51933 492.13951 733.10403 502.58635 741.25977 507.02344 C 741.78436 507.30879 742.30175 507.66391 742.81641 508.05078 C 743.94509 509.1493 744.9788 510.20383 745.89258 511.20117 C 746.53827 511.9389 747.15238 512.6851 747.73828 513.43945 C 751.86186 519.50367 754.82031 528.26505 754.82031 535.93945 C 754.82031 541.169 753.89508 546.66515 752.66016 550.2207 C 752.12293 551.16079 751.52475 552.07715 750.86719 552.96484 C 750.53686 553.35217 750.18502 553.72961 749.82227 554.10352 C 748.43231 554.34314 745.03279 557.35711 742.11133 560.50977 C 741.45781 561.14397 740.88112 561.77867 740.41602 562.41602 C 738.65079 564.51097 737.33594 566.42047 737.33594 567.2793 C 737.33594 568.70645 740.19964 572.84788 743.69922 576.48242 C 749.09491 582.08606 749.88196 583.21152 749.31836 588.33398 C 749.29186 588.48517 749.28131 588.60178 749.25781 588.75977 C 749.22761 588.94496 749.22342 589.10152 749.19922 589.2832 C 749.14702 589.69487 749.11041 590.0639 749.04688 590.52734 C 748.1035 597.43341 748.30676 598.07053 751.92773 599.44727 C 758.83747 602.07434 762.18445 599.99769 763.32812 592.37109 C 764.1309 587.01728 763.6271 584.10211 761.04492 579.14844 C 760.13814 577.40872 759.48274 576.12956 758.97852 575.07617 C 758.68674 574.32586 758.46131 573.70277 758.31055 573.22266 C 758.32945 572.64118 758.54352 572.14088 758.99219 571.64062 C 759.16189 571.53821 759.33213 571.43641 759.49805 571.33398 C 759.60841 571.33198 759.69118 571.32227 759.8125 571.32227 C 760.95664 571.32227 763.33293 569.73474 765.08984 567.79297 C 766.44586 566.29427 767.57363 564.52734 768.50781 562.57227 C 769.81424 560.24241 770.64137 557.60676 771.04102 554.52539 C 774.07866 538.06887 767.68361 515.07917 754.70898 503.35742 C 747.42599 496.77764 747.10693 495.12065 751.45898 486.58984 C 760.7014 468.47332 747.62165 457.02146 720.29102 459.30078 C 717.80212 459.50828 715.85484 459.62746 714.14453 459.69141 C 710.52643 459.44196 708.37314 458.92664 707.66406 457.88867 C 707.70606 456.5754 709.12399 454.46604 711.58594 451.23828 C 717.24782 443.8151 718.08159 436.40028 714.22266 427.14648 C 714.17356 427.0142 714.13146 426.87412 714.08008 426.74414 C 713.85406 426.17487 713.56918 425.58337 713.25586 424.98242 C 713.20066 424.86677 713.15473 424.75703 713.09766 424.64062 C 708.15479 414.53788 699.20298 407.52813 688.05273 405.0293 C 677.74933 402.72031 662.66057 406.20148 645.37891 414.88086 C 637.69687 418.73904 628.38073 422.80462 624.67773 423.91406 C 622.28688 424.6304 620.58405 425.09775 619.13672 425.04102 C 617.74838 424.77494 616.53646 424.14832 615.37891 423.18945 C 613.53805 421.34058 611.44806 417.94083 607.97656 412.14844 C 604.71351 406.70376 602.94966 402.34737 602.55859 397.58789 C 602.59639 396.14037 602.7036 394.50556 602.88086 392.44141 C 603.08117 390.11103 603.59925 387.29004 604.33984 384.23438 C 604.73582 382.8234 605.16165 381.37486 605.68164 379.79102 C 611.41465 362.32741 615.69886 355.53463 625.09375 349.01562 C 627.43479 347.39121 629.40791 345.72778 631.04297 344.02539 C 632.29244 342.88939 633.2035 341.7726 633.84375 340.55273 C 638.41962 333.64273 637.56177 326.1012 631.24414 317.81836 C 630.21641 316.47097 627.26281 314.02614 623.38086 311.13867 C 620.72442 308.89632 618.01064 306.90384 616.07812 305.91797 C 616.01733 305.88697 615.91663 305.82956 615.85352 305.79688 C 608.02989 300.4168 599.24371 294.86805 594.15234 292.24805 C 592.96644 291.60136 591.94779 291.12271 591.12695 290.84375 C 590.51191 290.54437 590.03365 290.4187 589.67773 290.50586 C 588.74056 290.45766 588.26758 290.88108 588.26758 291.79688 C 588.26758 291.98225 588.08763 292.35997 587.76758 292.88477 C 586.10663 294.65946 583.83048 297.27901 581.41211 300.26367 C 572.91138 310.7553 569.69843 321.6109 569.19727 341.53125 L 568.97266 350.4707 C 568.54043 352.82195 567.93072 354.38453 566.91406 355.90039 L 561.08789 361.52734 C 556.79998 365.6692 551.09972 370.17526 548.41992 371.53711 L 543.54688 374.01367 L 547.14258 370.11133 C 552.72997 364.05019 554.09304 356.80518 551.51562 346.86914 L 549.30664 338.3457 L 555.25586 331.98633 C 556.42067 330.86466 557.49352 329.66987 558.46289 328.39258 C 558.46489 328.38958 558.4657 328.38681 558.4707 328.38281 C 565.06027 320.43145 566.85381 313.47245 565.75 301.65234 C 564.44444 287.67164 558.79727 276.85428 544.95898 261.82617 C 535.48103 251.53322 533.35855 248.25582 532.67578 242.84961 C 532.22175 239.25509 531.29159 231.72291 530.60742 226.11328 C 529.62115 218.02691 529.16142 216.30885 526.97266 216.22656 L 526.9707 216.21875 z M 516.8418 232.38281 C 517.57215 232.38281 517.78167 234.00147 517.61133 236.35547 C 517.50475 236.98047 517.40767 237.59009 517.27539 238.26758 C 516.85601 240.41625 516.49132 242.38377 516.18359 244.20312 C 515.84419 245.4696 515.47351 246.74242 515.03516 247.97656 C 512.47645 255.18055 512.48617 255.56108 516.70703 267.43164 C 517.07289 268.64431 517.50307 269.92284 517.98828 271.25781 C 522.0521 284.1782 523.21547 297.15483 520.95312 305.55664 C 520.03981 308.9484 518.39323 312.92382 517.29688 314.39453 C 516.9484 314.86184 516.65288 315.19595 516.37305 315.45117 C 515.46966 315.64929 514.46358 315.07356 513.24219 313.76953 C 512.82557 313.18616 512.42361 312.62658 511.85938 311.75586 C 509.965 308.83263 503.08568 302.75476 496.57227 298.25195 C 478.9893 286.09693 474.90494 277.47018 481.5625 266.55078 C 483.28532 263.7251 484.69608 259.23832 484.69922 256.58398 C 484.70722 250.90817 489.115 246.21386 497.86328 242.55859 C 501.19278 241.16746 506.6427 238.30716 509.97266 236.20508 C 513.30261 234.10297 516.39343 232.38281 516.8418 232.38281 z M 519.4082 248.94141 C 520.15594 248.87721 521.48272 249.78853 523.77734 251.83398 C 526.08667 254.47203 529.49594 258.01046 533.33008 261.68164 C 543.55827 271.47499 548.90131 279.17105 551.03516 287.9375 C 551.41507 290.36052 551.70654 292.96742 551.85742 295.50977 C 551.91222 296.4341 551.94782 297.21754 551.98633 298.02539 C 551.96743 298.5251 551.95915 298.96048 551.93945 299.49414 C 551.84725 301.80844 551.74355 303.67081 551.62109 305.36914 C 550.58256 311.63773 547.92957 317.2271 542.49805 325.28711 C 540.77927 327.83764 539.52591 329.68943 538.26562 331.0918 C 537.62217 331.73673 537.00097 332.31481 536.4043 332.80078 C 533.24333 335.11514 528.84149 335.5329 517.39844 336.64648 C 512.50951 337.12218 507.2126 338.00776 505.62891 338.61523 C 504.00405 339.2385 505.46283 336.62127 509.1543 332.07227 L 510.25 330.78516 C 511.33344 329.51576 512.35234 328.23894 513.32812 326.95898 C 520.22384 318.57149 521.18913 316.77586 524.02344 309.02148 C 528.45372 296.90079 527.97074 285.68661 522.41211 271.61133 C 519.42507 264.04757 517.91503 258.37374 517.82031 254.18555 C 517.85431 252.94267 517.9618 251.77921 518.21484 250.77148 C 518.4881 249.68313 518.77014 248.99612 519.4082 248.94141 z M 472.08008 271.88086 C 472.58098 272.1771 473.04672 272.7227 473.45312 273.4707 C 473.61678 273.99068 473.71459 274.60052 473.71875 275.30469 C 473.71886 275.36569 473.72266 275.4059 473.72266 275.46875 C 473.72266 280.8806 480.84832 292.05482 487.27344 296.7168 C 503.27694 308.32859 506.72411 311.21268 509.83398 315.58008 L 511.9082 318.49219 L 512.24219 319.07812 C 512.52187 320.0991 512.25349 321.12963 511.26758 322.69727 L 507.21094 327.51172 C 498.2654 338.11886 491.05951 348.49331 487.73047 355.56055 C 485.89725 359.452 484.9207 363.72375 484.77734 367.66016 C 484.74714 367.93867 484.70508 368.22882 484.70508 368.4707 C 484.70508 368.74343 484.73183 369.04952 484.76953 369.36719 C 484.78843 369.9292 484.81973 370.47709 484.87109 371.01758 C 484.87509 373.04074 485.20776 374.47776 485.97852 375.92383 C 486.49423 377.23514 487.16461 378.376 488.00586 379.27148 C 489.82215 381.20502 490.84044 383.54569 490.26758 384.47266 C 488.61657 387.14403 481.68957 386.38851 469.36328 382.18945 C 457.25685 378.06527 450.63077 374.357 435.00586 362.97266 C 425.84704 356.29955 425.23428 355.45107 423.84961 347.41406 C 422.68283 340.64176 422.97027 336.77437 425.25586 328.40625 C 429.82255 311.68687 428.95575 298.79183 422.46094 286.80273 C 422.24853 286.41022 422.0997 286.08536 421.92773 285.73633 C 421.77731 285.41938 421.5937 285.05817 421.47461 284.7793 L 421.47461 284.77734 C 421.23763 284.22193 421.0703 283.74869 420.96289 283.3418 C 420.89599 283.08366 420.85301 282.85144 420.83789 282.64648 C 420.72677 280.94664 422.67911 281.40123 427.14844 283.66211 C 436.54722 288.98294 442.17633 295.96152 449.875 311.44922 C 459.62115 331.05584 465.56569 338.4178 473.38281 340.57617 C 480.56917 342.56044 487.41667 339.02719 491.29492 331.33594 C 493.71015 326.54645 493.73973 325.51817 491.60547 320.41016 C 491.30122 319.68114 490.72128 318.70925 489.96484 317.59766 C 489.19461 316.32061 488.14419 314.94241 486.79688 313.41016 C 484.40338 310.48891 481.42282 307.23223 478.43359 304.35352 C 465.51411 291.91176 460.4658 284.01424 462.57617 278.70508 C 463.22342 277.67026 464.02064 276.61428 464.92969 275.64062 C 465.67214 275.0217 466.52974 274.44032 467.5625 273.90625 C 469.75546 272.77225 471.16865 272.07315 472.08008 271.88086 z M 413.66992 282.62891 C 417.05158 282.56851 422.32353 295.421 423.15234 305.74609 C 423.69259 312.47683 423.06884 318.88748 421.21094 325.75195 C 419.79626 330.97813 418.8664 338.10026 419.01758 342.18555 C 419.00958 342.78431 419.02756 343.32375 419.06836 343.77344 C 419.14396 344.5669 419.18291 345.10971 419.24414 345.81055 C 419.40515 348.15075 419.51253 349.99681 419.45508 350.0332 C 419.40068 350.0192 419.3305 349.98899 419.23828 349.93359 C 419.18838 349.90189 419.15868 349.8942 419.0918 349.8418 C 419.0616 349.8225 419.0216 349.78567 418.99023 349.76367 C 415.71369 347.04118 397.00797 325.96705 387.71094 314.42578 C 374.70251 298.27709 369.25238 293.21531 359.17578 287.93359 L 354.91602 285.69922 L 353.94727 285.12891 C 354.03907 285.07071 354.13499 285.01411 354.24414 284.95508 L 361.9375 283.59961 C 368.74735 282.40098 372.1801 282.73829 381.55078 285.51562 C 395.44542 289.63411 396.36032 289.64278 404.90039 285.76758 C 408.66249 284.06052 412.60863 282.6467 413.66992 282.62891 z M 346.48438 289.41992 C 346.73056 289.41192 346.98774 289.41383 347.25391 289.42383 C 351.86748 289.59988 359.35853 292.48534 364.85742 296.46875 C 370.30489 300.41483 381.71115 312.84045 384.89062 318.29297 C 386.29238 320.69663 383.49612 320.62909 365.48242 317.82031 C 356.77329 316.46239 351.84267 316.28444 351.21094 317.30664 C 350.57161 318.34112 347.94506 316.20299 345.31641 313.18164 C 345.29141 313.15294 345.26934 313.1206 345.24414 313.0918 C 344.65147 312.40678 344.05828 311.67812 343.49023 310.93164 C 343.42463 310.84644 343.3591 310.75845 343.29492 310.67383 C 341.44169 308.20082 339.8687 305.57098 339.4043 303.7207 C 338.23793 299.07355 341.21134 291.04582 344.57812 289.75391 C 345.1017 289.55299 345.74579 289.44452 346.48438 289.41992 z M 593.10742 302.19336 L 593.11523 302.19336 C 595.45518 302.24046 599.19835 304.08632 604.80664 307.74023 C 615.13571 314.46991 619.84126 319.5614 622.71094 327.10938 C 624.11537 331.37147 618.42723 332.66039 614.16211 333.4668 C 616.48554 334.47355 618.16943 335.27723 618.65234 335.64453 L 618.24414 336.00391 C 617.28093 336.29871 615.84803 337.37248 614.22461 338.84766 C 612.79198 339.89688 611.23897 341.50237 609.64258 343.58203 C 606.42817 347.26978 603.22935 351.61771 601.43555 355.14258 C 596.4999 364.84122 593.6336 376.40105 593.14453 386.70117 C 593.12183 387.04813 593.11822 387.38642 593.10352 387.73047 C 593.07702 388.47715 593.06651 389.21454 593.07031 389.94531 C 593.0702 390.69079 593.06631 391.43786 593.09961 392.16406 C 593.14081 393.09092 593.19451 394.00415 593.28711 394.89453 C 593.29011 394.92853 593.29492 394.95853 593.29492 394.99023 C 593.68021 399.08237 594.53678 402.76905 595.90625 405.77344 C 598.99428 412.5479 605.25309 422.59161 609.1875 427.54102 C 609.1915 427.54502 609.19552 427.55305 609.19922 427.56055 L 610.83398 430.17383 L 610.99609 430.44336 L 611.90039 430.33594 C 611.98389 430.38504 612.07971 430.46252 612.15039 430.48633 C 616.02305 431.80572 629.99189 427.41557 644.75586 420.23828 C 652.9546 416.25258 664.53216 411.78652 670.48242 410.3125 C 672.9994 409.68892 674.94243 409.22425 676.57812 408.9082 C 679.50333 408.5688 682.43906 408.66213 685.29688 409.10547 C 686.52721 409.43769 687.88586 409.87248 689.61133 410.45898 C 694.37784 412.07915 700.13905 415.56796 703.11523 418.63867 C 710.31803 426.06975 710.42737 435.65813 703.42188 445.78711 C 700.28933 450.31631 698.45129 453.41964 697.72656 455.78906 C 696.92058 458.23839 697.2194 460.08625 698.73828 461.38281 C 698.95031 461.70483 699.21091 461.97532 699.53516 462.17578 C 699.56536 462.19468 699.60806 462.21146 699.63867 462.22656 C 702.36088 464.67101 704.65577 464.8652 718.83984 463.9043 C 734.12652 462.86863 735.27058 463.00886 740.44336 466.50391 C 747.71116 471.41442 748.21676 477.13147 741.95117 483.54102 C 739.41216 486.13846 737.33594 488.91053 737.33594 489.70312 C 737.33594 493.50639 741.51634 498.94609 749.03125 504.91797 C 749.97609 505.66881 750.85363 506.43283 751.70508 507.20703 C 753.47964 508.98458 755.12205 510.69776 756.49023 512.31445 C 761.74756 519.01174 764.56061 527.22086 766.10156 539.38281 C 767.2488 548.43792 767.03577 553.6893 764.69141 557.02734 C 763.41215 558.4695 761.44813 559.73412 758.61133 561.14453 C 757.90459 561.39398 757.16461 561.63464 756.35156 561.85352 C 750.60339 563.40138 747.87762 564.98529 747.7832 567.36133 C 747.54812 567.85955 747.51684 568.3536 747.71484 568.87109 C 748.08297 569.83011 748.65661 570.64403 749.17773 571.04492 C 749.69511 571.81065 750.33536 572.63526 751.12891 573.53906 C 752.90797 575.56531 754.67815 578.3771 755.82422 580.83398 C 756.35025 582.13225 756.74247 583.33492 757.03516 584.43359 C 757.32202 585.97666 757.38467 587.41466 757.19531 588.55078 C 756.99197 589.35843 756.7337 589.99116 756.44336 590.45312 C 756.40106 590.50492 756.36566 590.56988 756.32031 590.61523 C 755.06275 591.87302 754.5957 591.07472 754.5957 587.67383 C 754.5957 582.6127 751.38754 577.16365 745.3457 571.9668 C 744.26071 571.03348 743.49478 570.14915 743.01172 569.30469 C 742.89909 569.09568 742.79239 568.88649 742.70508 568.6875 C 741.53308 565.81124 744.0267 563.48509 750.19727 561.74023 C 759.15278 559.20788 762.22333 556.6352 762.94727 549.29102 C 763.47852 546.39624 763.43507 542.922 762.83008 538.77344 C 761.24109 521.91081 753.14968 507.07539 742.24805 501.86523 C 741.71918 501.61238 741.23436 501.30053 740.77148 500.95508 C 739.92842 500.14732 739.19005 499.34878 738.54492 498.56445 C 737.75576 497.36638 737.13935 495.93733 736.72266 494.25586 C 735.8243 490.63076 735.82618 488.7938 737.20312 486.33594 C 737.23332 486.29814 737.25536 486.25734 737.28516 486.21875 C 737.86853 485.47709 738.36234 484.71269 738.79688 483.92969 C 738.81577 483.90319 738.8268 483.88427 738.8457 483.85938 C 741.23546 480.62675 742.0246 478.01881 741.30078 475.73828 C 741.08308 475.05343 740.81927 474.4328 740.51562 473.85352 C 740.29982 473.13265 739.81981 472.47242 739.09766 471.87109 C 739.09466 471.86909 739.09484 471.86328 739.08984 471.86328 C 737.35164 470.10501 734.60991 469.01688 730.16016 468.33789 C 730.12616 468.32989 730.08946 468.33191 730.05469 468.32031 C 726.61146 467.80327 722.16254 467.52504 716.32812 467.38281 C 705.92502 467.12921 701.69078 466.81687 699.35352 465.71094 C 698.65714 465.2244 697.99649 464.65075 697.25 463.9043 C 697.08068 463.73497 696.93518 463.53908 696.77148 463.36133 C 693.59551 458.37968 695.41902 448.50142 701.03906 440.85938 C 703.23792 437.86939 704.6263 435.53427 705.30469 433.4375 L 706.34961 431.95703 L 705.78906 430.80859 C 705.85446 428.91705 705.28827 427.08676 704.14844 424.95703 C 701.4423 419.90055 696.50128 416.40739 689.08203 414.31055 C 676.48815 410.75133 670.87811 412.42765 639.49023 429.11914 C 632.94273 432.60088 626.28338 434.93255 622.4707 435.08203 C 618.82644 435.2249 615.8655 436.22225 615.38867 437.46484 C 615.37737 437.49504 615.38064 437.52799 615.36914 437.55859 C 615.11175 437.70033 614.9375 437.83818 614.9375 437.96094 C 614.9375 438.17184 615.47505 438.96326 616.21289 439.96094 C 617.4121 442.06228 619.75991 445.09301 622.66992 448.16992 C 625.02876 450.66411 627.44354 453.61823 629.40039 456.31836 C 630.84323 458.43799 632.14509 460.56206 633.20312 462.57617 C 635.32023 467.71826 636.96998 474.91586 637.62891 480.97656 C 637.63091 481.24189 637.63672 481.45359 637.63672 481.72852 C 637.65562 486.45644 637.43735 490.21071 637.05078 492.61328 L 636.65234 494.42383 C 636.60474 494.57274 636.55294 494.67624 636.50195 494.79492 C 636.47555 494.80622 636.45504 494.81867 636.43164 494.82617 L 633.80859 491.34766 C 631.94347 488.87505 631.02837 484.58866 630.91211 477.7832 C 630.70726 465.74594 627.4929 458.88036 618.85938 452.04297 C 611.79797 446.45067 602.75827 442.22876 600.64453 443.53516 C 599.87309 444.01179 599.22679 447.00606 599.20898 450.19141 C 599.16098 458.3132 593.94332 469.26248 590.10938 469.31445 C 589.99145 469.31408 589.89237 469.31421 589.78125 469.3125 C 587.18963 469.2747 587.3164 468.65294 590.75195 460.29883 C 596.89746 445.35477 595.00969 431.88713 585.53906 423.10547 C 583.73139 421.42936 582.48299 420.33577 581.41406 419.79492 L 580.59961 418.98047 L 580.29297 419.20703 L 580.06641 419.01758 L 579.55664 419.43359 C 578.25871 419.63466 576.88408 420.8015 574.57422 422.94336 C 572.3003 425.05188 564.77196 429.81826 557.84375 433.53516 C 539.95782 443.13073 537.35981 445.68933 534.24805 456.7793 C 531.60842 466.18696 523.98007 477.16602 520.08398 477.16602 C 519.01264 477.16602 516.80848 475.69948 515.18555 473.90625 C 512.26352 470.67744 512.30774 470.58267 519.7793 464.09961 C 524.62174 459.89787 529.10868 453.89981 532.31055 447.35352 C 536.86605 438.03985 538.25466 436.60846 548.29297 430.87695 C 570.63417 418.12082 574.13867 413.97727 574.13867 400.29492 C 574.13867 399.78669 574.1573 399.27891 574.1875 398.77344 C 574.2102 398.42156 574.2481 398.07173 574.2832 397.72266 C 574.3059 397.53708 574.31404 397.35038 574.33594 397.16602 C 574.35864 397.00085 574.38315 396.83993 574.40625 396.67578 C 574.98777 392.61857 576.4859 388.86797 578.4082 386.32812 C 578.59869 386.17922 578.75866 386.04192 578.9668 385.88477 C 580.28899 384.88523 581.41993 384.01452 582.48047 383.18945 C 582.85351 383.08741 583.22933 383.01953 583.60547 383.01953 C 585.03545 383.01953 587.47271 381.61965 589.02148 379.9082 C 591.34812 377.33715 591.65356 375.23663 590.78125 367.81445 C 589.72567 358.83312 589.83726 355.71508 584.2832 353.32227 C 586.32267 356.43172 587.31789 361.24606 585.75195 363.33398 C 585.51422 363.65052 585.24225 363.87906 584.94922 364.04883 C 585.04102 364.70519 585.10257 365.37145 585.09766 366.04883 C 585.09466 366.63151 585.04842 367.0953 585.01562 367.59375 C 584.85878 369.14799 584.52296 370.53599 584.01953 371.64844 C 580.39757 370.49579 578.17557 356.20622 576.50781 374.31836 C 576.44471 374.54989 576.38261 374.78191 576.30664 375.00195 C 575.97366 375.96292 575.30106 376.95202 574.32031 377.97656 C 572.226 379.77622 568.57825 382.18604 564.76758 384.19531 C 556.73045 388.43315 553.45521 389.27552 545.39453 389.16992 C 539.59201 389.09392 533.26101 387.90771 529.63867 386.21875 C 522.50001 382.89031 524.9689 381.40482 534.15039 383.50586 C 542.51796 385.42061 550.86678 381.86225 564.16992 370.70703 C 573.60782 362.33855 579.29956 364.61259 577.88477 358.43359 C 577.82397 358.02268 577.78647 357.65481 577.76758 357.31836 C 580.36869 355.95306 579.77742 354.86447 580.16406 351.21094 C 577.96237 350.17597 577.35006 348.63882 577.28906 344.22461 L 577.75781 337.08203 C 578.80735 328.27243 581.41288 316.28829 583.26953 312.9707 C 584.03009 311.61169 584.46373 310.94965 584.88477 311.08398 C 585.30584 311.21827 585.71295 312.1487 586.42188 313.97656 C 594.78286 326.4054 603.39942 331.42945 617.26953 329.19922 C 616.23315 328.84704 615.48236 328.60628 614.09766 328.12695 C 597.90945 322.52328 590.45982 316.48094 589.88477 308.45508 C 589.92257 306.87657 590.02026 305.49297 590.2168 304.40625 C 590.2395 304.32015 590.25734 304.23248 590.27734 304.15039 C 590.76392 302.82205 591.66905 302.16447 593.10742 302.19336 z M 354.2832 320.25391 C 354.94304 320.25391 362.75719 321.34254 371.64844 322.67188 C 380.53955 324.00116 388.13672 324.76957 388.5293 324.37695 C 388.9218 323.9844 394.05177 329.07294 399.92969 335.6875 C 400.06235 335.83702 400.20076 335.97967 400.33398 336.12891 C 404.42018 340.98465 409.4604 346.21428 415.06445 351.45312 C 425.39122 361.45481 435.88264 370.12577 445.3457 376.31641 C 445.70514 376.55153 445.70514 377.02304 445.3457 377.36523 C 442.96676 379.6288 419.07042 385.48899 416.42773 384.45703 C 414.71289 383.78749 408.35735 383.19133 402.30273 383.13086 C 387.74399 382.98459 381.89869 379.82958 375.07812 368.4375 C 370.25076 360.37457 369.21444 359.53427 362.96875 358.59766 C 354.92428 357.39131 353.67756 355.0008 355.94922 345.14844 C 358.1452 335.62411 357.96686 329.61374 355.33594 324.57031 C 354.09786 322.19701 353.62337 320.25391 354.2832 320.25391 z M 536.92578 338.875 L 536.92969 338.875 C 539.59078 338.97731 541.69977 345.25087 540.66406 350.30469 C 540.60056 350.56839 540.533 350.83068 540.45703 351.09375 C 539.65093 353.60527 535.74111 359.0711 531.51367 363.54102 C 529.02878 366.16843 527.28914 368.22774 526.11719 369.93359 C 524.51232 372.05245 523.97544 373.58904 524.31836 374.90039 C 524.33726 374.96219 524.34026 375.01037 524.35156 375.07031 C 524.31036 375.26129 524.29723 375.42321 524.33203 375.53516 C 524.62457 376.38575 523.41234 377.30672 520.70703 378.30078 C 520.48782 378.30378 520.29842 378.31055 520.05664 378.31055 C 517.22543 378.31055 511.90929 379.37141 508.24023 380.66602 C 498.99506 383.92786 498.23367 383.76438 492.55859 377.30078 C 491.1782 375.72851 490.14595 374.30849 489.44141 372.89258 C 488.80879 371.34956 488.43754 369.75262 488.33984 368.09375 C 488.41464 364.79978 489.96208 360.81061 493.00781 354.77539 C 497.58652 345.7026 504.08081 342.47519 521.03906 340.8457 C 528.23993 340.15378 535.13885 339.29605 536.37109 338.94141 C 536.55894 338.88741 536.74255 338.8679 536.92578 338.875 z M 448.86133 379.77344 C 449.98982 379.68044 454.86544 381.3562 460.66406 383.87695 C 467.29101 386.75778 475.45212 389.57881 478.80078 390.14453 L 484.29297 391.07031 C 484.33417 391.3122 484.31413 391.58515 484.23633 391.88672 L 476.56055 400.26562 C 471.97885 405.26537 466.11257 412.32164 463.52344 415.94727 C 455.6661 426.95049 445.34255 437.77484 440.32617 440.27734 C 430.09034 445.38371 419.91503 441.44692 409.95703 428.52539 C 406.29913 423.77872 399.90896 416.06865 395.75586 411.39258 C 391.03051 406.07183 389.37784 403.36075 391.3418 404.14258 C 407.97451 410.76382 410.61061 411.47523 415.46484 410.6875 C 420.00697 409.95042 422.93063 408.61712 424.60742 406.21875 C 425.45453 405.249 426.04088 403.58357 426.3457 401.63477 C 426.86769 399.29218 426.89143 396.62985 426.33008 394.20312 C 426.25188 393.80919 426.16492 393.43342 426.05078 393.10938 L 425.66211 388.41992 C 426.36865 387.903 427.53357 387.3728 429.40625 386.73047 L 432.00781 386.06055 C 443.41983 383.12627 448.45042 381.28581 448.60156 379.98633 C 448.70474 379.91113 448.72941 379.85722 448.79102 379.79297 C 448.81752 379.78897 448.83223 379.77714 448.86133 379.77344 z M 502.42969 391.11914 C 503.94683 391.07904 504.17471 391.95614 503.99609 394.9668 L 503.8457 396.24023 C 503.7917 396.70383 503.78373 397.34058 503.79883 398.05469 C 503.63328 402.10842 504.81613 410.88428 506.53906 418.13867 C 508.90705 428.10933 509.93009 435.6332 509.63672 441.60156 C 509.59892 442.29775 509.54112 442.9725 509.47461 443.63672 C 509.18056 446.38092 508.57764 448.7843 507.66016 450.9375 C 506.47686 453.71466 503.83027 457.48715 501.77734 459.32227 C 498.44097 462.30462 497.46213 462.45771 492.58008 460.76172 C 487.92873 459.14582 487.05964 458.068 486.71094 453.50195 C 486.48568 450.55283 484.10142 442.59711 481.41406 435.82227 C 477.05653 424.83767 476.64406 422.42346 477.5957 413.53711 C 477.76238 411.98244 477.92896 410.7145 478.10547 409.55078 C 478.72437 406.86686 479.63511 404.44219 480.79297 402.28125 C 481.59139 401.24158 482.61542 400.14218 483.9375 398.83008 C 484.23457 398.55379 484.49527 398.30287 484.82617 398.00391 C 486.45821 396.52951 488.16021 395.20202 489.63086 394.20312 C 490.93351 393.42833 492.2585 392.83326 493.7168 392.40039 C 495.11435 392.31839 497.63618 391.9663 499.83008 391.52734 C 500.956 391.30208 501.80251 391.13562 502.42969 391.11914 z M 524.85742 395.81836 L 524.85938 395.81836 C 527.27927 395.69063 530.44909 396.99955 536.33203 399.88867 C 543.3793 403.34959 547.21404 404.18385 555.70898 404.11328 C 561.25563 404.06678 565.83144 404.49757 566.25781 405.08203 C 566.26181 405.13273 566.26984 405.18379 566.27734 405.23633 C 566.20744 406.09938 565.65016 407.18346 564.67969 408.42383 C 561.74617 412.09923 555.22984 417.04827 548.61914 420.27148 C 543.07729 422.97366 536.21444 427.14158 533.36914 429.53516 C 530.52508 431.92888 526.90037 436.74133 525.31641 440.22852 L 522.56836 446.28516 L 522.47266 442.64648 C 522.46466 442.42387 522.4313 442.10757 522.4082 441.82422 L 522.40234 441.00977 C 522.37964 437.95183 520.57125 429.25327 518.375 421.67773 C 516.79399 416.22422 515.83088 412.32365 515.52148 409.31836 C 515.40243 407.8296 515.42235 406.52161 515.56445 405.33008 C 515.99252 402.69129 517.33179 400.81473 519.64648 398.6582 C 521.54601 396.88853 522.97605 395.91898 524.85742 395.81836 z M 365.16016 398.91602 C 365.82729 398.92732 366.49221 398.94688 367.14453 398.98438 C 373.64343 399.35136 376.32351 399.58031 379.22852 401.45703 C 379.32372 401.52053 379.42315 401.58973 379.51953 401.65625 C 381.26 402.83924 383.12028 404.61224 385.9668 407.39258 C 390.35604 411.67977 398.13254 420.95271 403.24609 427.99805 C 412.3944 440.60247 421.31072 447.35352 428.80469 447.35352 C 430.30909 447.35352 431.09327 448.07625 430.54883 448.95703 C 429.662 450.39197 414.19724 458.20135 403.7832 462.53711 C 400.15248 463.92518 396.89313 464.91519 393.89453 465.42773 C 383.50298 466.69951 373.60002 461.49378 356.7207 447.13086 C 342.39775 434.94321 336.74189 431.36675 328.76953 429.45117 L 324.25586 428.36523 L 327.44336 424.91406 C 329.19661 423.01613 331.51428 418.47229 332.5918 414.81836 C 333.66926 411.16435 335.67683 407.19758 337.05469 406 C 340.96133 402.60459 349.90946 399.93741 358.92188 399.14844 C 360.0096 399.09254 361.1323 399.04636 362.31445 399.00781 L 365.16016 398.91602 z M 471.34766 412.16406 L 472.37891 419.38867 C 472.94704 423.36111 475.69944 432.63308 478.49414 439.99023 C 481.2888 447.34742 483.14397 454.4857 482.61914 455.85352 C 481.98312 457.51103 479.68683 458.34751 475.73242 458.35938 C 469.13095 458.38207 459.7846 461.07907 451.52539 465.03711 C 449.82487 465.78224 448.28911 466.52314 447.23047 467.2168 C 447.05926 467.32905 446.89972 467.44363 446.73047 467.55664 C 444.8195 468.65463 443.01771 469.81211 441.39648 471.00977 C 431.64802 478.21139 425.83454 488.28389 424.13281 500.92188 L 423.30078 507.09375 C 422.46929 507.95401 421.02706 508.66975 418.70117 509.54297 L 411.16797 511.81445 C 403.31494 514.18214 394.55607 515.52108 385.74414 515.70312 C 378.34946 515.8562 370.80265 516.78246 368.97656 517.75977 C 368.44124 518.04663 367.83805 518.30657 367.2207 518.54688 C 367.1145 518.56577 367.01693 518.57694 366.91602 518.58984 C 366.56611 518.63594 365.71303 518.72279 365.45508 518.76172 C 363.80558 519.0089 362.33181 518.99761 361.00195 518.78516 C 358.14384 517.2495 354.46875 513.69513 354.46875 511.98047 C 354.46875 509.97524 343.83068 505.41406 339.15625 505.41406 L 337.94531 505.41406 L 335.85352 504.87695 L 336.07422 504.61914 L 338.63867 502.82422 C 340.67323 501.39915 344.74948 495.011 347.69727 488.63086 C 350.75546 482.01177 353.48485 477.76041 355.62695 476.25 C 355.64095 476.242 355.65162 476.23786 355.66602 476.22656 C 356.05931 476.02133 356.47691 475.83118 356.91406 475.66016 C 359.21604 475.00622 365.78371 474.37989 372.10547 474.24023 C 384.5669 473.96471 397.9568 470.146 414.78125 462.0625 C 420.35609 459.38399 422.55459 458.31727 422.99805 458.69727 C 422.91075 458.91875 422.87737 459.0467 422.76172 459.32227 C 422.64947 459.5891 422.52266 460.05961 422.39453 460.61523 C 422.2596 460.87186 422.13593 461.11232 421.97266 461.41797 C 421.06682 463.11059 420.09157 469.75191 419.80273 476.17578 C 419.3899 485.35795 418.38528 489.37315 415.11523 494.95312 C 412.82745 498.85689 410.95703 502.45381 410.95703 502.94727 C 410.95703 505.45808 414.40475 503.22565 418.18359 498.27148 C 421.73011 493.62176 422.62316 490.44563 423.57812 479.05273 C 425.04613 461.54026 427.83548 455.9353 438.92578 448.23047 C 447.92918 441.9755 457.39596 431.96764 466.41406 419.16797 L 471.34766 412.16406 z M 321.30469 433.16602 L 321.30469 433.16797 C 321.9915 433.14147 322.67485 433.14569 323.35742 433.17969 C 332.45846 433.63009 341.39948 439.36417 356.03711 452.04883 C 364.23579 459.15366 372.96114 465.84557 375.42773 466.91797 C 379.90815 468.86605 379.90946 468.86787 376.21289 469.85742 C 368.24455 471.99051 352.66028 469.1196 334.85352 462.23633 C 330.12636 460.409 325.82644 458.87971 321.86523 457.5918 C 319.05133 456.56199 316.68929 455.83245 314.40625 455.36133 C 305.35092 452.92984 298.73821 452.28247 294.32617 453.40234 C 293.15589 453.69904 292.07356 453.92317 291.06836 454.10742 C 289.23628 453.96796 287.92346 453.78606 287.3418 453.58594 C 287.78279 452.4788 289.08874 450.39509 290.80078 448.15039 C 291.41775 447.34157 292.19186 446.51667 293.07227 445.69141 C 294.85477 444.17842 296.91665 442.63027 299.11328 441.17188 C 299.14198 441.14918 299.17227 441.13459 299.20117 441.11719 C 301.12811 439.92773 303.2503 438.77801 305.53711 437.7168 C 311.52544 434.93797 316.49697 433.34105 321.30469 433.16602 z M 583.74609 434.83203 C 583.99781 434.92843 584.21075 435.08341 584.4043 435.29102 C 584.95123 436.09987 585.56101 437.85113 585.94531 439.90039 C 586.80606 444.48904 582.10636 460.09795 578.26953 467.45312 C 576.7906 469.73592 574.96082 471.2075 571.61133 472.93164 C 569.48965 473.78691 566.83872 474.80471 564.1582 475.77344 C 557.38635 478.22061 552.51614 481.53663 545.7207 488.33203 C 540.64174 493.41107 535.60414 497.48496 534.52539 497.38477 C 533.09321 497.2521 531.86792 497.02772 530.81445 496.73828 C 530.72905 496.70048 530.69044 496.68859 530.60352 496.65039 C 529.24859 496.05787 528.02895 495.34934 527.11328 494.67383 C 525.79075 492.93574 526.733 490.53527 530.11719 487.81836 C 535.81411 483.24456 544.01883 469.79666 545.33203 462.88281 C 545.39663 462.5419 545.46549 462.2704 545.53125 461.94922 C 545.9798 460.57128 546.33086 459.26847 546.53711 458.10547 C 546.55981 457.9781 546.58793 457.87674 546.61133 457.75391 C 548.14007 453.32657 550.58853 451.30665 556.56445 448.35352 C 560.62442 446.34727 568.16594 442.47728 573.32031 439.75391 C 578.37441 437.08344 582.9714 434.91635 583.74609 434.83203 z M 298.91016 457.13672 C 300.76997 457.12542 302.77329 457.245 304.85547 457.48047 C 306.76088 457.82025 308.87943 458.32931 311.31641 459.01562 C 319.17657 461.22926 350.07289 472.25064 350.99023 473.16797 C 351.25858 473.43594 350.53134 474.62313 349.375 475.80469 C 348.21872 476.98621 346.31299 480.4228 345.13672 483.44336 C 341.18451 493.59252 337.36983 498.50105 328.91211 504.32617 C 319.60678 510.73497 315.35357 511.49084 311.76172 507.37305 C 306.92034 501.82281 305.82422 497.47226 305.82422 483.79102 C 305.82422 477.50468 305.65954 473.45349 304.77734 470.63672 C 304.69904 470.2325 304.61549 469.90952 304.52539 469.76367 C 304.51139 469.73717 304.46491 469.70343 304.44531 469.67773 C 302.92516 466.04776 299.77102 464.75278 293.27148 462.97266 L 290.45508 462.19922 L 288.26758 461.21875 C 287.97323 460.93491 287.78546 460.65788 287.6875 460.39062 L 290.91797 458.97461 C 292.95844 458.08003 294.84502 457.51302 296.80273 457.21875 C 297.48314 457.17375 298.18186 457.14162 298.91016 457.13672 z M 613.02539 457.16602 L 613.02734 457.16602 C 614.32675 457.01499 616.56551 459.02938 619.25977 463.00586 C 619.33607 463.11811 619.40248 463.24252 619.47656 463.35742 C 619.81596 463.91966 620.13858 464.49125 620.44922 465.07031 C 621.89723 467.93542 622.78906 471.32563 622.78906 474.26172 C 622.78906 477.58623 622.61414 480.24965 622.39844 480.17969 C 622.18263 480.11019 618.7128 478.63315 614.68945 476.90039 L 608.36133 474.17578 L 608.35352 474.16797 C 607.98388 473.92457 607.70966 473.70163 607.48633 473.48242 L 609.5918 468.44727 C 610.81032 465.53098 611.80859 461.65183 611.80859 459.82617 C 611.80859 458.13054 612.24711 457.25897 613.02539 457.16602 z M 481.85156 466.62305 C 483.08658 466.62805 484.24117 466.71185 485.29492 466.88281 C 499.14183 469.09705 513.28365 477.9062 511.8418 483.41992 C 511.35692 485.27431 512.26432 486.94777 514.36914 488.07422 C 517.06874 489.51898 518.09551 491.29198 517.58984 492.97266 C 517.56714 493.03876 517.54028 493.10183 517.51758 493.16797 C 516.90288 494.81187 514.82129 496.3521 511.38086 497.38281 C 507.92875 498.41716 505.10547 499.84682 505.10547 500.56055 C 505.10547 501.2742 502.10343 503.80902 498.43555 506.19141 C 494.7677 508.57387 490.12741 512.5503 488.12305 515.0293 C 484.30508 519.75133 482.70595 520.06566 473.72266 517.87305 C 470.70202 517.13581 460.49852 516.20353 451.04883 515.80078 C 434.88742 515.11223 433.78735 514.85557 432.53516 511.4707 C 430.05582 504.76847 435.39356 488.35387 442.19531 481.76562 C 450.16823 474.04285 468.58153 467.0647 480.58984 466.64453 L 480.58984 466.64258 C 481.0187 466.62758 481.43989 466.62125 481.85156 466.62305 z M 589.78516 478.96289 L 589.78711 478.96289 C 595.7137 479.07951 601.44801 480.19652 606.74609 482.25391 C 608.10283 482.85232 609.4969 483.48837 611.02148 484.2168 C 611.4861 484.43866 611.88723 484.64349 612.32422 484.85938 C 618.39508 488.20976 623.68252 492.9418 627.74219 498.95703 C 630.44682 502.96435 631.60849 505.02317 631.97461 508.22852 C 631.98591 508.38461 632.01214 508.52341 632.02344 508.68555 C 632.05364 509.17685 632.06814 509.74608 632.08594 510.29688 L 631.87695 515.61133 C 631.78885 517.86189 631.5809 520.02907 631.29688 522.13672 C 629.651 532.82749 625.0163 541.95135 617.33203 549.60156 C 612.83451 554.07924 608.88094 556.07106 599.41602 558.625 C 595.35174 559.72163 592.3394 560.45342 589.70703 560.92578 C 586.27477 561.30109 582.86387 561.44165 579.64844 561.33594 C 577.80898 561.14885 575.80236 560.85191 573.36328 560.43359 C 568.06873 559.52552 563.06638 557.30887 558.61523 554.125 C 555.49489 551.72678 552.46752 548.80397 549.80469 545.60547 C 544.46395 538.7804 540.86955 530.23076 540.03711 521.05078 C 539.33657 513.3249 539.81251 511.11691 543.60742 504.46094 C 547.63731 497.39243 550.89891 493.09142 555.38086 489.69336 L 555.38867 489.68945 C 555.86686 489.32926 556.36472 488.98203 556.86328 488.63477 C 559.21676 487.0409 561.91743 485.61973 565.20898 484.14258 C 573.35843 480.48531 581.74964 478.80552 589.78516 478.96289 z M 659.05078 499.25781 C 659.3418 499.25481 659.57748 499.25981 659.85547 499.25781 C 660.66758 499.26581 661.47424 499.28067 662.25781 499.32227 C 662.3644 499.33027 662.47035 499.33235 662.57617 499.34375 C 668.99154 500.07928 675.80638 503.37765 682.54883 508.95312 C 683.92545 510.14572 685.29995 511.39526 686.5918 512.64258 C 687.43773 513.45933 688.18076 514.19936 688.90234 514.92578 C 697.69636 524.49657 701.72805 535.83475 701.875 551.23047 C 701.9272 556.66687 701.878 559.70727 701.21875 562.31836 C 701.03318 562.96972 700.8296 563.615 700.61133 564.25 C 699.7047 566.48945 698.18393 568.75283 695.625 572.41406 C 690.77723 579.35002 687.23497 582.49347 680.74023 585.625 C 671.64586 590.00989 664.37613 591.81428 660.2832 590.69531 C 658.8977 590.31664 656.89367 587.1007 655.83008 583.55078 C 653.02427 574.18583 647.58264 566.36354 639.14258 559.47656 C 637.14487 557.63801 635.08093 556.0377 632.9707 554.69922 C 630.63545 552.96003 628.62621 551.52019 627.82227 551.07031 C 625.59866 549.82587 625.91369 548.45273 630.4707 539.47461 C 634.69092 531.16014 635.74799 527.04675 636.24023 517.07031 C 636.57208 510.34975 637.38907 504.36666 638.05469 503.77539 C 639.76504 502.2556 649.68648 500.00474 656.55664 499.36328 C 657.39634 499.32208 658.26377 499.26648 659.05078 499.25781 z M 519.70703 503.38086 C 520.93296 503.40126 522.14102 503.51727 523.31836 503.73242 C 533.19736 505.53896 534.84471 506.65442 535.30078 515.70312 C 535.13826 518.0154 535.26418 520.46053 535.67578 522.98828 C 536.71749 534.07515 540.97251 542.42912 550.72656 553.10156 L 557.93359 560.98633 L 555.62305 564.01172 L 554.49023 565.07812 C 552.36425 567.07538 548.98401 572.00486 546.97852 576.0293 L 543.62305 582.75977 C 542.98854 582.67207 542.17251 582.22939 541.1582 581.52734 L 537.94531 578.8457 C 529.83679 572.06848 514.59984 567.85226 500.39648 568.45898 L 488.62891 568.96094 L 485.78711 563.46875 C 481.45845 555.10114 482.73977 535.35489 488.35547 523.87695 C 494.03791 512.26239 506.92943 503.79034 518.47656 503.39258 C 518.88895 503.37828 519.29839 503.37406 519.70703 503.38086 z M 427.68359 520.31445 C 427.74559 520.31845 427.77589 520.34262 427.8125 520.35742 C 427.7747 520.47723 427.7523 520.58666 427.65625 520.74219 C 427.58065 520.86427 427.36655 521.0606 427.20898 521.22656 C 426.44975 521.85665 425.07974 522.78955 422.93164 524.11719 C 418.73024 526.7138 415.78438 527.76796 414.63477 527.16406 C 414.4953 527.04274 414.35897 526.91014 414.22461 526.75 C 414.14261 526.58446 414.0957 526.3894 414.0957 526.15234 C 414.0957 525.47543 417.27267 523.74205 421.15625 522.30273 C 424.84087 520.93712 427.00793 520.26765 427.68359 520.31641 L 427.68359 520.31445 z M 457.13672 521.2832 C 458.15281 521.2719 459.17923 521.27602 460.20117 521.29102 C 466.33285 521.37192 472.31061 521.87259 475.04688 522.60938 C 481.67771 524.39489 481.67846 524.39687 480.44531 530.20312 C 480.04604 532.08382 479.71914 535.9615 479.51172 540.32031 C 478.74323 545.49278 478.76027 550.98919 479.42188 555.87695 C 479.69928 562.44339 480.51085 564.96441 482.77539 568.02734 L 485.79688 572.11719 C 485.36926 572.65611 484.6583 573.3229 483.65234 574.12695 L 479.31836 576.66406 C 475.54057 578.87807 470.27451 583.43929 467.61523 586.79688 C 464.956 590.15445 462.23874 594.22519 461.58008 595.8457 C 460.49052 598.5266 459.749 598.62555 453.32422 596.91992 C 451.30565 596.38402 448.76561 596.0541 445.95508 595.88867 C 443.88503 595.595 442.27151 595.4763 441.74805 595.63281 C 441.6271 595.67061 441.26486 595.72341 441.01953 595.76953 C 436.75932 595.82283 432.10648 596.23083 427.47656 596.96289 L 421.30859 597.15625 C 419.97041 596.4056 418.76711 594.4994 416.73438 590.58789 L 415.58984 588.16992 C 414.91433 586.74202 414.36622 585.49084 413.86914 584.29492 C 412.34811 580.03029 412.00479 575.8356 411.9043 566.59375 C 411.76181 553.48457 412.22778 550.72129 415.75586 543.8418 C 417.39478 540.64602 419.90778 537.30303 422.33594 534.91992 C 422.72935 534.55444 423.10515 534.21072 423.48242 533.86523 C 424.06247 533.36705 424.63412 532.91312 425.17188 532.57031 C 427.52216 531.07177 430.6336 528.87635 433.18164 526.99414 C 433.83591 526.56207 434.38427 526.16204 434.83789 525.78125 C 434.94183 525.70155 435.11305 525.58573 435.21094 525.50977 C 439.12203 522.45976 442.09679 521.80493 454.13281 521.35547 C 455.11466 521.31767 456.12067 521.29496 457.13672 521.28516 L 457.13672 521.2832 z M 388.20508 524.25977 C 388.99262 524.25882 389.74574 524.27027 390.49023 524.29297 C 395.49637 524.5205 400.29037 525.52567 404.28711 527.33984 C 405.95335 528.09617 407.22906 528.74936 408.2168 529.4082 C 409.79312 531.11001 410.25866 533.43211 409.88086 537.71484 C 409.69037 538.32611 409.50057 538.93122 409.25195 539.64453 C 407.71474 544.05399 407.16559 547.73061 406.47266 558.22266 C 406.44996 558.54051 406.41166 558.80989 406.36328 559.07227 C 406.06999 559.58288 405.7246 560.01169 405.29102 560.34766 C 403.442 560.93027 399.82114 561.51178 395.48633 561.94922 C 394.01163 562.01612 392.87824 562.08904 390.95117 562.1582 C 377.85168 562.62913 374.2976 563.37105 366.23633 567.32812 C 361.05816 569.87001 356.32941 572.20644 355.73047 572.51953 C 353.74646 573.55614 351.13594 560.2272 351.92188 553.08008 C 353.19136 541.53585 359.61214 532.41433 369.57617 528.00781 C 374.17243 525.97507 379.39749 524.7688 384.62695 524.37891 C 385.79494 524.30901 386.98376 524.26128 388.20508 524.25977 z M 259.63672 534.46875 C 259.95439 534.46958 260.21744 534.47873 260.51953 534.48633 C 265.40874 534.75467 269.94375 536.15153 275.22656 538.79297 C 283.97539 543.16736 298.78823 556.28387 300.99414 561.60938 C 302.63066 565.56026 302.22985 567.16454 297.38086 576.14258 C 294.38292 581.69331 290.75348 590.92364 289.31445 596.65234 C 286.92474 606.16591 286.20448 607.28808 280.96484 609.61328 C 277.80971 611.01337 271.13144 613.2087 266.12695 614.49219 C 263.93514 615.0542 262.03839 615.52121 260.41797 615.91016 C 257.98082 616.1271 255.64789 616.0584 253.21875 615.71484 C 251.86361 615.32461 251.3803 615.17975 249.33594 614.5957 C 237.22764 611.13634 234.28014 609.43471 228.32422 602.47656 C 217.44413 589.76567 215.29934 571.52004 222.66992 554.38672 C 226.90326 544.54608 234.43322 539.00294 247.81641 535.88086 C 250.8739 535.16766 253.62114 534.7241 256.20703 534.54102 C 257.3266 534.49562 258.46387 534.4677 259.63672 534.4707 L 259.63672 534.46875 z M 622.60938 553.66211 C 623.67145 553.73921 624.75216 554.2318 626.33594 555.05078 C 632.78937 558.38795 643.08465 568.0488 647.00391 574.44531 C 652.65101 583.66184 656.17278 597.47253 654.95312 605.60547 C 654.52881 608.43497 653.78186 611.24322 652.79102 613.99219 C 652.13723 615.64849 651.37953 617.37845 650.48828 619.23828 C 650.12809 619.9898 649.76411 620.7205 649.39258 621.43555 C 643.59535 631.80219 634.1213 640.50125 623.29492 644.62305 C 605.42887 651.42491 583.82209 650.11386 568.82031 641.32227 C 560.51582 636.45556 557.74896 633.05386 556.66602 624.12695 C 556.83874 620.85109 556.49626 617.01039 555.75195 613.00391 C 555.062 607.19557 553.6822 602.19886 551.30469 596.74609 L 547.02344 586.92383 C 547.03144 586.87093 547.04328 586.81463 547.05078 586.76172 L 550.70898 578.94922 C 552.74864 574.59433 556.32129 569.43344 558.64453 567.47852 C 562.45335 564.27374 564.05879 563.99899 574.9707 564.69922 C 577.85444 564.88442 580.72161 564.93818 583.53906 564.87695 C 583.55036 564.87795 583.55121 564.87881 583.56641 564.88281 C 584.05298 564.91301 584.67822 564.87681 585.36133 564.81641 C 597.6104 564.32416 608.6827 561.57912 615.23047 557.18164 C 619.12728 554.56447 620.84318 553.53545 622.61328 553.66406 L 622.60938 553.66211 z M 341.53516 563.60352 C 342.55774 563.60052 343.35655 563.68852 343.86328 563.88281 C 345.2894 564.43009 347.24916 567.82056 348.2168 571.41406 C 349.7677 577.17353 349.6139 578.34387 346.91406 581.30078 C 341.51158 587.21775 339.29092 591.74034 338.4707 601.38672 C 337.41143 607.24775 337.11712 613.7857 337.64648 620.78516 C 337.81724 623.04441 337.90731 624.79292 338.00781 626.58789 C 338.00281 628.03571 337.99219 632.3808 337.99219 632.37891 C 337.97069 632.36761 337.9358 632.33846 337.9082 632.31836 C 337.836 632.18078 336.37288 630.28662 334.49805 627.9082 C 330.10546 622.33586 323.18842 618.76577 314.23047 617.35352 C 313.81211 617.28062 313.3664 617.22284 312.92188 617.16992 C 310.10483 616.79953 307.10887 616.62332 303.92188 616.66992 L 297.98242 616.75586 C 293.6153 616.61639 292.34064 616.11433 291.74805 614.50977 C 291.73215 614.45727 291.71547 614.40403 291.70117 614.34961 L 291.70117 609.18555 C 291.70117 595.40546 300.18025 579.25621 311.52734 571.41992 C 316.30842 568.11809 334.37702 563.63272 341.53516 563.60547 L 341.53516 563.60352 z M 398.08789 565.30273 C 404.84164 565.30573 406.20966 567.6706 407.13281 574.06836 C 407.3199 575.36315 407.70187 577.05251 408.15039 578.85156 C 408.18059 578.971 408.2183 579.11299 408.25 579.23828 C 409.21896 583.04956 410.5858 587.44605 411.94727 590.83984 C 414.00439 595.96791 415.1542 600.59236 414.5 601.11719 C 413.84584 601.64194 409.95878 604.72682 405.86328 607.97461 C 391.54284 619.33088 384.27551 634.08596 383.92383 652.51758 C 383.88493 654.57844 383.83393 656.22745 383.78516 657.81055 L 383.57422 660.9082 C 383.46461 661.30169 383.3477 661.596 383.2207 661.83203 L 381.83984 660.72266 C 381.31974 660.21888 380.80138 659.71935 380.16211 659.08008 C 376.85921 655.77719 358.09098 648.20312 353.20898 648.20312 C 351.49956 648.20312 349.16134 645.23129 346.76953 640.01758 C 344.89741 635.93671 343.61728 631.07476 342.875 625.92188 C 342.75969 622.99777 342.73445 619.39171 342.74609 614.4668 C 342.75509 610.13621 342.81569 606.5707 342.98438 603.51367 C 344.10954 596.29013 346.30661 589.86091 349.50391 585.66016 C 351.80344 582.63899 357.74014 577.54516 362.69727 574.33789 C 370.04917 569.5812 374.172 568.15533 385.07617 566.60742 C 390.83636 565.78976 395.01797 565.3016 398.08789 565.30273 z M 505.83594 573.68359 L 505.83398 573.6875 C 513.70126 573.6988 520.14314 574.64307 525.64844 576.83398 C 525.65644 576.83698 525.65842 576.8418 525.66602 576.8418 C 528.7921 578.23263 531.68684 579.94853 534.33398 581.96094 C 539.33411 586.02159 543.57678 591.73663 547.67383 599.55859 C 548.39625 600.93793 548.96996 602.18581 549.44531 603.44141 C 549.52811 603.68065 549.61947 603.91945 549.69922 604.1582 C 549.8213 604.5131 549.93519 604.87312 550.04102 605.23633 C 550.10152 605.42946 550.15664 605.62365 550.21484 605.81641 C 551.13331 609.30457 551.37548 613.43001 551.38281 620.74219 C 551.38681 627.2601 551.21446 631.10131 550.55859 634.17773 C 549.47013 637.64409 547.94379 640.92885 545.99805 643.98438 C 540.71514 651.50634 531.25599 658.57032 521.19141 662.33594 C 516.47021 664.10234 508.5251 665.97223 503.53125 666.49414 L 498.48047 667.02148 L 494.48242 667.0293 L 495.29297 656.92383 C 496.4582 642.40761 493.43488 630.73101 485.28516 618.25781 C 480.3068 610.63836 476.87506 607.17818 472.20508 605.07227 C 468.5285 603.41438 465.89443 601.14723 465.88086 599.63867 C 465.88177 599.4633 465.91435 599.26938 465.93555 599.08203 C 466.5487 594.12329 475.25398 584.50605 484.12109 579.1582 C 492.52994 574.0871 494.19435 573.66579 505.83594 573.68359 z M 660.63867 597.99023 L 670.05469 597.99023 C 679.23667 597.99023 679.67707 598.1886 688.0293 606.08789 C 697.4218 614.97095 704.10192 627.1465 706.44141 638.07617 C 706.60279 640.00233 706.68775 642.0417 706.69531 644.2793 C 706.70661 648.21654 706.68831 650.866 706.45703 653.04883 C 706.2775 653.66833 706.0788 654.27324 705.84375 654.85352 C 703.57199 660.45954 695.94518 671.00438 690.77539 676.16211 C 688.51149 677.94809 686.059 679.53305 683.41602 680.92188 C 680.93801 682.03565 677.97902 683.23941 675.18164 684.22266 C 671.98272 685.34695 668.3356 686.18332 664.80469 686.72266 C 663.6841 686.81226 662.51619 686.88597 661.23438 686.93359 C 657.60905 687.0689 654.19579 687.03392 651.70508 686.89258 C 651.04967 686.71796 650.50739 686.49897 650.10938 686.23047 C 649.16922 685.59645 647.51102 680.50642 646.42773 674.91797 C 644.16062 663.22301 639.6254 653.28545 634.82227 649.49609 L 633.24023 648.24805 C 632.71949 647.55443 632.31049 646.94197 632.0293 646.44141 L 636.08789 643.24805 C 648.9932 633.09669 657.51475 619.36476 659.55078 605.44336 L 660.63867 597.99023 z M 443.93555 600.49023 L 443.93555 600.49219 C 452.22182 600.54959 454.83207 601.49089 464.42383 606.34766 C 470.17986 609.26224 473.65399 611.39853 476.38867 613.9668 C 476.54552 614.11306 476.69874 614.26365 476.85352 614.41211 C 478.43789 615.97759 479.79581 617.71779 481.22852 619.90625 C 491.60513 635.75668 493.81843 653.05548 487.60156 669.67188 C 483.53264 680.54681 471.80492 692.94697 460.67188 698.14258 C 449.57552 703.32102 431.59156 704.18997 420.55273 700.08008 C 409.41518 695.93341 406.05674 693.60107 398.90039 685.04688 C 390.28356 674.74683 386.79843 659.89052 389.2832 644.04492 C 391.0854 632.55274 395.16624 624.91376 404.48047 615.59961 C 415.55052 604.52949 424.52682 600.71431 439.99805 600.50977 C 441.45033 600.48707 442.7518 600.48263 443.93555 600.49023 z M 285.25195 612.66992 C 285.97765 612.70772 286.55013 613.15019 286.97461 613.9668 C 286.99201 614.33417 286.99609 614.7554 286.99609 615.25195 C 286.99609 616.97799 286.04099 618.38867 284.875 618.38867 C 283.70901 618.38867 279.43477 620.15496 275.37695 622.3125 C 272.39631 623.89726 269.76444 625.22488 268.49609 625.79688 C 267.59335 625.80817 266.92756 625.35559 266.09961 624.52734 C 265.65256 624.05736 265.20884 623.5919 264.68164 623.01367 C 264.59704 622.92067 264.54154 622.85293 264.46289 622.76562 C 264.08671 622.34592 263.77679 621.97167 263.53711 621.64062 C 263.46781 621.54313 263.37615 621.42904 263.32422 621.33984 C 263.31622 621.32854 263.31033 621.31794 263.30273 621.30664 C 262.56017 619.98948 263.83775 619.59126 268.60352 618.39844 C 272.24516 617.48704 277.5448 615.69816 280.37891 614.42578 C 281.65483 613.85299 282.50858 613.49316 283.33984 613.15039 C 283.55705 613.07329 283.97994 612.9356 284.12695 612.87891 C 284.53378 612.72319 284.91019 612.65216 285.25195 612.66992 z M 306.72852 620.58594 C 308.09628 620.56324 309.37915 620.59098 310.5332 620.67578 C 317.64332 621.19282 326.10662 624.99907 330.44727 629.63281 C 340.42275 640.28193 345.81012 666.47383 341.21094 681.96094 C 338.3792 691.49646 329.27024 700.88855 316.80859 707.11914 C 307.07918 711.98377 291.03449 713.69669 283.07227 710.72266 C 274.84934 707.65134 268.45013 702.79976 263.98828 696.44531 C 262.92009 694.86744 261.91399 693.11906 260.93555 691.23438 C 258.02088 685.20327 256.51514 678.14491 256.56641 670.16992 C 256.6965 649.93679 264.91649 632.69687 277.48828 626.2832 C 283.24017 623.34882 297.15414 620.74196 306.72852 620.58594 z M 239.56445 620.7793 C 247.98141 620.8326 256.01139 622.82144 260.71289 626.66016 L 263.92969 629.28711 C 264.15514 630.30924 263.93069 631.46453 263.29297 632.86133 L 260.55273 637.21875 C 258.11029 641.10237 255.53073 646.39724 254.81836 648.98633 C 254.53062 650.03212 254.30224 651.81882 254.10156 653.85156 C 252.91378 659.59096 252.48827 665.86323 252.88281 672.52344 C 253.13672 676.80901 253.54857 680.8922 253.9668 683.82617 C 254.09311 684.95738 254.24016 685.89614 254.41211 686.54297 C 254.51363 687.00468 254.61222 687.3934 254.70508 687.61133 C 254.94394 688.17202 255.01212 688.62293 254.85156 689.00391 C 254.39733 689.63573 253.27167 690.091 251.17773 690.55664 C 250.8056 690.56064 250.45244 690.56836 250.01562 690.56836 C 242.59699 690.56836 232.46356 693.47473 227.12695 697.13086 C 226.19505 697.76933 225.29647 698.33184 224.49023 698.80859 C 223.15805 699.39964 222.18166 699.6676 221.32227 699.60547 C 220.13564 698.84737 217.81995 697.01598 215.38867 694.88281 C 207.5396 687.99621 199.12305 669.51035 199.12305 659.1543 C 199.12305 643.68027 205.85255 631.70746 218.11328 625.36719 C 223.71412 622.47086 230.86192 620.9653 237.87695 620.79492 C 238.44066 620.78122 239.00332 620.7757 239.56445 620.7793 z M 554.86523 637.37891 C 554.89433 637.37391 554.93163 637.37481 554.97656 637.38281 L 554.97656 637.38477 C 555.60865 637.50344 557.72092 638.96739 560.07617 640.94922 C 562.76795 643.21418 565.53158 645.06445 566.21484 645.06445 C 566.89807 645.06445 564.27818 648.24142 560.39453 652.125 C 555.63958 656.87991 553.84887 658.6895 552.12695 658.75977 C 551.97993 658.76077 551.83241 658.75377 551.68164 658.73438 C 551.64764 658.73038 551.61959 658.73056 551.58789 658.72656 C 551.51719 658.71856 551.44095 658.69609 551.36914 658.68359 C 550.5192 658.48555 549.59249 657.92889 548.25586 657.13281 C 546.58138 656.13551 545.09116 655.28357 544.77148 655.13477 C 544.74128 655.08187 544.72107 655.02708 544.69727 654.97266 C 544.68597 654.65555 546.25286 651.75323 548.31055 648.17188 C 549.6146 646.32395 551.01304 643.9559 552.01562 641.89844 C 553.01818 640.24278 554.00896 638.63819 554.80273 637.41797 C 554.81593 637.39737 554.83613 637.38441 554.86523 637.37891 z M 626.93945 649.19531 L 626.93945 649.19922 C 628.63635 649.29562 629.6252 650.33448 631.74805 652.62109 C 636.54635 657.78964 639.86906 664.95338 641.56055 672.56055 C 642.04452 675.89386 642.29879 679.55878 642.32227 683.62109 C 642.34497 686.84858 642.32824 689.38157 642.24414 691.46484 C 641.57241 695.59281 640.34022 699.46711 638.46289 702.79102 C 635.28253 708.4221 625.8345 715.04846 609.12109 723.37109 C 601.49246 727.16986 586.22415 727.67602 577.28516 724.42578 C 572.66559 722.74601 571.91812 721.82982 572.57812 718.66016 C 572.98892 716.68611 573.22347 713.82258 573.32227 710.57227 C 574.21726 703.5465 573.90783 696.81087 572.33203 690.11328 C 571.99754 687.57382 571.60258 685.29358 571.13086 683.66797 C 569.90421 679.44106 566.50933 672.85136 563.58594 669.02148 C 558.48199 662.33486 558.37013 661.90285 560.80078 658.19336 C 562.19293 656.06855 565.46052 653.03745 568.0625 651.45508 C 572.3958 648.81988 573.41142 648.76736 580.13867 650.83594 C 589.63069 653.75479 610.47819 653.69834 620.21289 650.73047 C 623.0503 649.86541 624.83586 649.32978 626.16406 649.21484 C 626.44072 649.18844 626.69707 649.18391 626.93945 649.19531 z M 351.07617 653.01953 C 351.12107 653.01753 351.17127 653.02153 351.2168 653.01953 L 354.79883 653.44336 C 371.68855 655.44371 384.63536 666.07666 387.91992 680.64844 C 391.69374 697.39046 388.79798 713.69886 380.45312 722.71484 C 377.81199 725.56842 373.69176 730.06539 371.29883 732.70898 C 368.90595 735.35257 364.31635 738.24921 361.09961 739.14258 C 348.39227 742.67167 334.36521 740.34815 321.74023 732.62695 C 318.55566 730.67932 316.53033 729.31977 314.9668 727.91016 C 314.44737 727.40506 313.94611 726.89343 313.46484 726.37695 C 312.22057 724.91518 311.20824 723.21231 309.89453 720.67188 C 309.24561 719.41715 308.77959 718.48232 308.47656 717.75 L 308.47656 717.74805 C 308.35713 716.33023 309.14195 715.44176 311.73047 714.04492 C 326.87826 708.42934 338.68699 698.74422 343.7168 687.70312 C 346.1949 682.26341 346.89712 677.53718 346.84375 666.59375 L 346.78516 654.33789 C 347.3191 653.54876 348.24061 653.3568 349.75977 653.14258 C 350.1739 653.08398 350.6138 653.04378 351.07617 653.02148 L 351.07617 653.01953 z M 541.01562 659.66406 L 541.01758 659.66406 C 544.54928 659.61266 547.52692 661.23375 551.20508 664.64258 C 553.55568 666.82098 556.13111 668.60156 556.92969 668.60156 C 556.95239 668.60156 556.97344 668.60937 556.99414 668.60938 C 559.61177 671.2943 561.84404 674.33102 563.65039 677.71094 C 566.45684 684.38131 568.86655 693.50167 569.34961 700.88672 C 569.35018 700.89472 569.34908 700.90451 569.34961 700.91211 C 569.37611 701.69118 569.40504 702.46486 569.40234 703.25977 C 569.39934 704.33289 569.35804 705.37806 569.29492 706.4082 C 567.42198 728.18841 545.25596 751.03635 521.43359 754.9375 C 515.95778 755.83423 511.6293 756.25919 507.55273 756.23047 C 506.9838 756.22247 506.41896 756.20795 505.85547 756.18945 C 501.83284 756.02845 497.94957 755.41158 493.33594 754.27734 C 487.22421 752.77491 483.64621 751.51786 480.61719 749.43164 C 480.57939 749.40514 480.54609 749.37766 480.50977 749.35156 C 478.71222 748.09627 477.09949 746.54763 475.25391 744.46484 C 467.55803 735.77998 464.07202 728.42081 463.18164 719.01172 C 463.13934 718.38375 463.09514 717.7965 463.05469 717.10156 C 463.05169 717.03546 463.04667 716.98838 463.04297 716.92188 L 463.01172 716.46484 L 462.9043 714.5918 C 462.71948 705.66263 465.35094 701.34945 473.83594 694.86133 C 478.0853 691.61199 484.07362 685.17192 487.14062 680.55273 C 492.70859 672.16668 492.73341 672.15384 502.67969 671.13477 C 514.413 669.93269 520.28982 668.20659 531.17773 662.75977 C 535.18702 660.75408 538.26875 659.70379 541.01562 659.66406 z M 188.90625 661.0957 C 191.95225 661.1403 193.76803 662.8343 194.77539 666.24805 C 198.11667 677.5711 204.96742 690.32337 211.29297 696.99023 L 218.12891 704.19531 L 215.25586 709.5918 C 214.2047 711.21321 213.27343 713.0907 212.61719 714.82422 C 211.15099 718.09767 210.10742 721.29784 210.10742 722.74219 C 210.10742 724.02783 210.08382 724.82913 209.62109 725.2168 C 209.41065 725.33056 209.17762 725.4108 208.92188 725.46484 C 207.85476 725.59524 205.83008 725.09071 201.91797 724.07617 C 197.41477 722.90807 191.18943 721.95117 188.08203 721.95117 C 180.66975 721.95117 167.06466 726.04705 164.59766 729.01953 C 164.38082 729.2807 164.18764 729.46839 163.98633 729.68359 C 162.54343 730.45764 161.67016 730.90154 161.23242 731.0918 C 159.96718 730.75806 158.68579 728.87513 156.76562 725.11133 C 152.08496 715.93641 151.10134 702.48311 154.30273 691.4707 C 157.42153 680.74236 167.34998 669.76883 179.06445 664.10547 C 181.29071 663.02917 183.22898 662.24899 184.92773 661.74805 C 184.94893 661.74005 184.97149 661.73807 184.99219 661.73047 C 185.70875 661.56115 186.41697 661.42625 187.10742 661.33203 C 187.78717 661.23873 188.3513 661.16562 188.90625 661.0957 z M 709.10156 676.61523 C 711.80041 676.63413 714.59527 677.39464 718.10547 678.86133 C 722.52366 680.70732 725.37554 682.43401 727.98633 685.43945 C 728.48817 686.04248 728.98491 686.66191 729.49023 687.35742 C 731.23309 689.77481 732.98194 692.8892 735.1543 697.19922 C 741.28821 709.36877 742.11428 719.71275 737.93359 731.98242 C 734.87611 740.95555 720.7273 756.84525 711.6875 761.45703 C 703.64058 765.56201 690.18785 767.44225 684.7832 765.21875 C 682.28913 764.19261 679.02572 760.35142 676.44922 755.40039 C 671.60458 746.09081 660.828 737.80183 648.18945 733.66797 C 642.35613 731.75999 639.89527 730.0119 638.68945 726.91602 C 636.31806 720.8275 637.22946 714.11934 641.32812 707.50195 C 643.23505 704.42326 645.14953 699.71424 645.71094 696.78711 C 646.0681 695.67385 646.32617 694.69437 646.32617 694.12109 C 646.32617 693.4376 646.37697 692.91844 646.5293 692.50391 C 647.20228 691.98917 648.13415 691.62955 649.36719 691.375 L 655.76953 691.83789 C 666.12222 692.58673 686.02849 687.16395 697.875 680.36719 C 700.75462 678.71508 703.15294 677.62646 705.42969 677.06641 C 705.43269 677.06573 705.4375 677.0625 705.4375 677.0625 C 706.59245 676.81948 707.71677 676.68336 708.82617 676.625 C 708.91727 676.624 709.00852 676.61719 709.09961 676.61719 L 709.10156 676.61523 z M 394.15234 686.27344 L 399.02344 691.82812 C 400.09868 693.05477 401.79204 694.50175 403.75195 695.94727 C 404.19903 696.28705 404.66246 696.61546 405.13086 696.94141 C 405.22346 697.00531 405.3168 697.06699 405.41016 697.13086 C 405.98805 697.52642 406.5645 697.92033 407.17188 698.29492 C 409.21674 699.59126 411.35305 700.77605 413.31055 701.66602 L 422.72461 705.94727 L 414.87891 707.00586 C 410.56386 707.58794 403.90753 709.07058 400.08594 710.30078 L 400.08398 710.30078 C 391.41881 713.09003 391.72862 713.12133 392.85938 709.55859 C 393.37928 707.92051 393.88304 702.0106 393.97852 696.42578 L 394.15234 686.27344 z M 251.31836 694.53711 C 251.64685 694.52811 251.96413 694.52811 252.27148 694.53711 L 252.27148 694.53906 C 256.36949 694.65623 258.66273 696.36031 261.14844 700.09766 C 267.23233 709.24487 283.27488 717.24414 295.5332 717.24414 C 295.76716 717.24414 295.94526 717.25195 296.16406 717.25195 C 298.7734 717.5528 300.56244 717.8454 301.83984 718.38867 C 303.03471 719.22463 303.96738 720.64093 305.32812 723.12695 C 306.8465 725.90094 307.93662 728.52312 308.67188 731.12695 C 309.35186 734.47788 309.6776 738.17167 309.62109 741.73633 C 309.48034 743.35196 309.25572 745.00599 308.88086 746.75391 C 308.12235 750.29071 307.69084 752.1427 306.54883 753.33594 C 306.11491 753.69839 305.62125 754.03141 305.0957 754.34961 C 303.8111 754.98325 301.97346 755.44772 299.10156 756.12891 C 294.59989 757.19662 287.3874 760.56823 283.07227 763.625 C 278.75714 766.68173 271.79515 771.61864 267.60156 774.5957 C 260.32047 779.76455 254.23903 781.11132 247.76758 778.98828 C 241.08909 776.79725 228.5708 769.80129 225.07227 766.30273 C 219.80682 761.03732 214.32594 742.60727 214.37695 730.33594 C 214.44885 713.0802 225.17257 699.97009 242.51172 695.93945 C 246.18189 695.08632 249.01894 694.59871 251.31836 694.53711 z M 456.95312 704.96289 L 456.95117 704.96484 C 457.10916 704.97284 457.2083 704.99544 457.23438 705.02344 C 457.41692 705.24681 457.87283 709.13741 458.30078 713.76562 L 458.34375 714.45508 C 458.67181 719.87352 458.91256 724.41324 458.87695 724.54492 C 458.84295 724.67683 456.52143 722.85962 453.7168 720.50781 C 447.19798 715.04141 435.26743 709.07595 428.2168 707.75391 C 424.54888 707.06599 426.63435 706.77878 434.49414 706.88672 C 440.96685 706.97552 448.84738 706.49806 452.00586 705.82617 L 455.82812 705.00977 C 456.28326 704.97957 456.72927 704.95159 456.95312 704.96289 z M 418.55664 711.88672 C 426.06048 711.80202 431.822 712.66596 437.41211 715.17969 C 437.97775 715.44728 438.54706 715.72087 439.12695 716.01562 C 439.15345 716.02692 439.17773 716.04143 439.20312 716.05273 C 439.21112 716.05573 439.21516 716.06055 439.22266 716.06055 C 439.51292 716.2087 439.81034 716.37487 440.10352 716.5293 C 444.90129 719.16658 449.75668 723.10188 455.67969 728.82227 L 463.98047 736.83594 C 464.02317 736.91344 464.06547 736.99208 464.10742 737.07031 C 464.83165 738.74631 465.47892 740.62693 466.01172 742.70312 L 466.70312 750.41016 C 467.68694 761.35242 467.40821 763.22348 463.50195 771.92773 C 457.90958 784.38929 444.12053 797.84767 434.35352 800.375 C 430.45157 801.38466 427.94672 802.01955 425.7832 802.36719 C 423.24718 802.56334 420.51181 802.56806 417.50391 802.39648 C 415.8987 802.23283 414.21505 802.0397 411.83398 801.73828 C 398.81279 800.09097 389.85558 795.28381 382.04492 785.75195 C 373.64762 775.50414 371.27904 767.45166 372.33789 752.74805 C 372.85277 745.59779 374.01355 739.93203 376.22656 735.17188 C 376.25606 735.10878 376.29247 735.0514 376.32227 734.98828 C 378.11127 731.65213 380.39215 728.59466 383.0625 725.86523 C 386.76179 722.403 391.59724 719.34222 397.94141 716.23828 C 404.87011 712.84839 408.88861 711.99718 418.55664 711.88867 L 418.55664 711.88672 z M 629.31055 723.82227 L 629.3125 723.82422 C 629.92561 723.91642 630.67106 725.05456 631.07422 726.5957 C 631.2768 727.37024 631.29163 728.05596 631.19336 728.61133 C 630.88684 729.02776 630.3889 729.45454 629.6875 729.89648 C 627.91997 730.34202 622.81548 732.37214 617.42383 734.79883 C 612.02353 737.22937 606.5381 740.07377 604.29102 741.57812 C 602.50806 742.30969 601.18642 742.70216 600.89453 742.48828 C 600.84043 742.03217 600.82227 741.43851 600.82227 740.63086 C 600.82227 737.41924 602.84332 735.91842 614.35156 730.58203 C 621.79345 727.13117 628.41364 724.10049 629.06055 723.84961 C 629.14145 723.81561 629.22286 723.81087 629.31055 723.82227 z M 568.6543 726.33789 L 577.28516 729.08594 C 586.67369 732.07724 590.06679 734.18624 591.05469 738.93359 C 591.12349 740.78337 591.12841 742.86637 591.00781 745.06836 C 590.93301 746.43749 590.80869 747.70409 590.63672 748.90039 C 588.64449 756.28869 582.69969 762.55363 572.48242 768.07227 C 555.20658 777.40343 540.69705 777.31286 529.81836 767.80273 C 529.48803 767.51398 529.22834 767.2673 528.96094 767.01562 C 528.30247 766.32289 527.75574 765.67046 527.4375 765.125 C 526.92156 763.75205 528.33252 762.69219 532.17188 760.45312 C 541.93798 754.75799 559.91116 738.77599 565.51562 730.80273 L 568.6543 726.33789 z M 186.18555 726.7793 C 188.55493 726.7906 191.06377 726.92229 193.5332 727.12109 C 193.8048 727.14759 194.04492 727.15905 194.32227 727.18555 C 206.36421 728.44421 208.4238 729.41828 209.37305 734.28711 C 213.07328 753.26627 220.08008 772.98987 225.08789 778.52344 C 226.88422 780.50829 227.4106 782.76291 226.7207 785.51172 C 225.40213 790.7653 213.61866 802.01994 204.85547 806.39648 C 191.77776 812.92785 177.52636 809.72765 165.98828 797.66797 C 157.30702 788.59431 153.38453 777.10615 153.43555 760.91016 C 153.47795 747.52511 157.49322 739.52982 167.50781 732.89648 C 173.77605 728.74452 179.00077 726.92292 186.18555 726.7793 z M 314.84766 734.51172 C 315.49493 734.51472 318.28783 735.89958 321.05664 737.58789 C 332.91176 744.81631 350.5016 747.02662 364.66797 743.06836 C 367.13816 742.37814 367.65059 743.21271 367.79102 750.9082 C 367.66988 753.10959 367.72517 755.51793 367.88867 757.99609 C 368.02345 767.37344 368.84773 771.86193 371.39062 777.46289 C 375.48742 786.48636 375.45705 786.28711 372.73047 786.28711 C 371.55638 786.28711 368.2026 787.89115 365.27734 789.85352 L 359.96094 793.42383 L 355.38477 784.33789 C 348.59597 770.86074 334.89121 760.85421 317.17969 756.43945 C 315.30246 755.97159 314.00996 755.59701 313.09961 755.21875 C 312.13904 754.64729 311.62118 754.03073 311.74219 753.48438 C 311.78219 753.30409 311.88093 752.48235 311.94141 752.08984 C 311.99131 751.99044 312.02341 751.90856 312.08008 751.80273 C 312.95407 750.16968 313.66992 745.61027 313.66992 741.66992 C 313.66992 737.72958 314.2004 734.50858 314.84766 734.51172 z M 638.21484 737.82031 C 638.98024 737.84681 639.78492 737.89661 640.65625 737.9707 C 652.3102 738.96075 659.16341 742.89584 666.51172 752.81445 C 674.09292 763.04715 680.06135 780.83495 678.57422 788.76172 C 676.47715 799.94031 662.75216 816.32692 649.97656 822.90625 C 647.23818 824.31647 640.17699 825.88229 634.28516 826.38281 C 621.66373 827.45472 614.97985 824.76702 602.63281 813.66602 C 596.12734 807.81701 594.61571 805.26169 591.67773 795.15039 C 583.81537 768.09113 588.87571 758.72997 619.47461 743.73828 C 629.48034 738.83574 632.85714 737.64468 638.21484 737.82031 z M 141.02539 737.87305 C 141.60825 737.86905 142.14932 737.88002 142.63477 737.91602 C 146.86758 738.22254 148.56934 738.5896 149.08008 739.69141 C 149.15448 739.99415 149.21387 740.37225 149.27344 740.75391 C 149.26444 741.0026 149.24126 741.26646 149.19336 741.56641 C 147.89981 749.64836 148.4902 766.06882 150.40625 775.30273 C 152.65537 786.14178 155.16942 792.21612 159.67188 797.54688 C 160.30409 798.38773 160.9472 799.15662 161.60938 799.75586 C 161.72139 799.85753 161.81486 799.9636 161.92383 800.06641 L 162.16992 800.33008 C 163.15113 801.65461 163.78288 802.61591 164.0918 803.31055 L 157.21484 805.88867 C 148.7373 809.06597 136.33027 817.57019 131.83789 823.28125 C 131.47936 823.7371 131.12826 824.15517 130.78711 824.55273 C 129.36563 825.44357 128.02411 826.13193 126.78516 826.54492 C 125.98579 826.36275 125.38414 826.20847 124.11133 825.96484 C 120.10701 825.19938 117.5293 820.01117 117.5293 812.72266 C 117.5293 811.60286 117.09425 809.91391 116.37695 807.9043 C 116.12017 807.14563 115.85377 806.41625 115.54688 805.79297 C 112.50005 798.3501 106.46834 787.87846 101.54883 782.27539 C 100.19341 780.73168 98.990117 778.96913 98.177734 777.44141 C 97.257873 775.26217 97.282357 773.39873 97.779297 770.29102 C 97.859917 769.78618 97.966676 769.32921 98.058594 768.84766 C 98.349277 767.60604 98.705807 766.36022 99.113281 765.11328 C 103.42744 754.2937 114.3116 743.82063 126.28516 740.20898 C 130.75581 738.86045 136.94549 737.90306 141.02539 737.87305 z M 308.7832 759.94531 C 332.945 760.27791 356.04744 781.13859 356.37695 805.78516 C 356.63612 825.15539 346.358 841.9135 329.61719 849.41016 C 325.1501 851.41055 317.87095 852.72157 308.43359 853.22266 C 294.95602 853.93816 293.46569 853.69829 284.62695 849.41016 C 274.05803 844.28262 267.25552 837.38548 261.94336 826.41211 C 257.2011 816.61584 257.93389 799.8176 263.60156 788.4707 C 268.47945 778.70501 287.46435 763.78996 298.42578 761.10938 C 301.85729 760.27021 305.33152 759.89784 308.7832 759.94531 z M 72.572266 777.13672 L 72.572266 777.14062 C 73.82293 777.17462 75.189367 777.22762 76.802734 777.30664 C 78.259311 777.37774 79.563958 777.48597 80.841797 777.60352 C 82.45245 777.85296 84.149002 778.16018 86.070312 778.57227 C 87.630297 778.90675 88.95285 779.25552 90.136719 779.66602 C 92.10414 780.49653 93.90437 781.53076 95.558594 782.79883 C 96.792689 783.87165 98.028242 785.19203 99.464844 786.94531 C 107.46606 796.70968 109.97582 805.12928 109.23047 819.70703 C 108.93446 825.49613 108.7117 828.60022 107.86914 830.98828 C 106.61768 833.41228 104.61663 836.01799 102.125 838.55273 C 98.686904 841.95344 92.642026 846.23926 88.408203 848.24219 C 76.631089 853.81363 66.893299 854.48511 55.548828 850.50977 C 41.389845 845.54827 36.461995 841.1242 33.335938 830.55664 C 31.877694 825.62712 30.751253 817.9571 30.832031 813.51562 C 30.94313 807.41 32.191571 802.49419 35.042969 798.1582 C 37.258193 795.2663 40.215607 792.3939 43.564453 789.72461 C 46.975685 787.2935 51.153861 784.92707 56.287109 782.47461 C 63.094496 779.22233 67.599383 777.56425 72.314453 777.15625 C 72.404373 777.15225 72.481066 777.14422 72.572266 777.13672 z M 238.96289 783.22852 C 239.532 783.23652 240.0752 783.70176 240.62891 784.59766 C 241.12125 785.39434 243.62799 786.50573 246.19727 787.07031 C 248.76655 787.63463 251.24257 788.70052 251.69922 789.43945 C 252.15589 790.17828 251.66642 795.33487 250.61133 800.89648 L 248.69336 811.00977 L 243.09961 810.25781 C 240.02349 809.84524 234.57156 810.29621 230.98242 811.26367 C 227.39326 812.23017 220.90917 815.41091 216.57422 818.32812 L 208.75586 823.58789 C 208.72256 823.57989 208.68736 823.58387 208.6543 823.57617 L 206.24609 819.90039 C 203.84524 816.23621 203.94311 816.0955 211.7168 812.15625 C 222.88788 806.49542 231.44758 798.23183 234.54883 790.11133 C 236.34539 785.40706 237.71085 783.21041 238.96289 783.22852 z M 376.37695 790.10352 C 376.96251 790.10452 377.53745 790.20883 378.15234 790.41797 C 379.4065 791.10346 381.10774 792.15467 383.05469 793.42188 C 383.96121 794.1074 384.94922 794.87498 386.13867 795.82031 C 397.85147 805.12974 406.64978 808.7029 420.37109 809.72852 L 431.60156 810.56836 C 431.89674 810.74562 432.18192 810.95552 432.45312 811.21094 L 435.7832 817.66992 C 436.84438 819.72587 437.57788 821.41255 438.07031 823.05664 C 438.31674 824.04143 438.52431 825.03783 438.68555 826.04492 C 438.93537 828.10427 438.88273 830.36616 438.58789 833.42188 C 437.68315 842.78523 434.64101 851.04301 430.18555 856.2207 C 427.49176 859.3511 415.91033 867.09616 408.41016 870.95898 C 406.79618 871.65771 405.2015 872.31074 403.71289 872.86523 C 400.56311 873.61479 395.44833 874.15869 390.87695 874.1582 C 374.39734 874.1562 359.74134 866.07774 351.01953 852.18945 C 348.74076 848.56084 348.79922 847.79608 351.75977 841.99023 C 356.09556 833.48736 360.68121 815.33801 360.7168 806.56641 C 360.71717 806.46247 360.72456 806.3649 360.72656 806.26172 C 360.72956 806.14607 360.74029 806.01189 360.74219 805.90039 C 360.74519 805.54814 360.77596 805.2025 360.78906 804.84961 C 361.11849 800.38387 362.72309 797.07495 365.88281 794.54883 C 366.88971 793.85967 367.9628 793.17467 369.07227 792.51953 C 370.21279 791.93533 371.46743 791.39682 372.86914 790.9082 C 374.01371 790.50931 374.93365 790.2302 375.78711 790.13477 L 375.78711 790.13672 C 375.98672 790.11442 376.18177 790.10302 376.37695 790.10352 z M 167.01367 808.88281 C 167.30596 808.87881 167.59794 808.88785 167.89258 808.90625 L 167.89062 808.9043 C 169.65843 809.01541 171.53875 809.52749 174.35156 810.49414 C 174.35656 810.49614 174.36229 810.49795 174.36719 810.50195 C 175.2181 810.93324 176.37247 811.34853 177.66602 811.67969 C 182.93228 813.59205 189.27648 816.35524 192.10547 817.96094 C 193.88027 819.23812 195.57707 820.67141 197.18164 822.23633 C 201.9363 827.41897 207.02255 835.84616 210.24023 844.31445 C 218.13321 865.08708 209.35447 884.6679 189.86328 889.76758 C 180.9708 892.09414 161.15861 892.69304 155.86523 890.79492 C 144.02557 886.54945 133.71014 872.29207 129.95898 858.69141 C 128.72962 852.94411 128.55817 847.13252 129.45508 841.66797 C 129.52288 841.36183 129.58183 841.0577 129.65625 840.74805 C 129.98889 839.80842 130.38715 838.91001 130.86719 838.07031 C 132.10056 835.91277 133.13516 832.61599 133.16602 830.74414 C 133.16902 830.59749 133.18444 830.4409 133.21484 830.28125 C 134.28956 828.22541 135.79316 826.17544 137.56641 824.18359 C 143.07035 818.802 152.60166 812.50826 159.46094 810.48047 C 162.88569 809.46804 164.96767 808.90768 167.01367 808.88281 z M 244.50391 818.85547 C 245.13364 818.84277 245.72326 818.84207 246.27539 818.85547 C 252.90101 819.01648 254.27371 821.21775 258.50781 829.40625 C 261.75052 835.67747 267.09442 842.42969 272.81836 848.04297 C 276.49261 851.90069 280.09651 855.03274 282.90625 856.55664 C 283.26969 856.75355 283.74243 856.97423 284.16992 857.18555 C 286.45331 858.59025 288.61241 859.62584 290.51367 860.13672 C 295.45395 861.46424 297.80341 862.57777 298.62305 864.875 L 298.20312 871.88086 C 298.15063 872.75654 298.0371 873.67144 297.93555 874.58008 C 294.96888 888.7431 288.88081 896.17751 276.84766 900.67969 C 265.50781 904.92251 254.081 905.83793 245.73242 903.23047 C 244.96261 902.851 243.98446 902.49471 242.87891 902.19727 C 233.03319 898.20865 219.37809 889.46935 215.86328 884.76172 C 212.83947 880.71161 212.82007 880.2747 215.33984 872.47266 C 218.81282 861.71922 218.63419 854.12806 214.65625 843.49609 L 212.16406 836.83984 C 211.89568 835.57998 211.87938 834.61578 212.21875 833.76172 L 215.04883 830.73047 C 219.77465 825.66303 231.573 819.64366 237.59766 819.22852 C 240.35466 819.03859 242.61472 818.8937 244.50391 818.85547 z M 209.02344 884.79492 C 209.64791 884.75372 210.2682 884.99141 211.02734 885.52734 L 211.03125 885.53125 C 211.03225 885.53325 211.03152 885.53406 211.0332 885.53906 L 211.0332 885.54102 C 211.1978 885.82448 211.37596 886.15739 211.57812 886.53516 C 211.72292 886.80577 212.00834 887.15111 212.35156 887.53125 C 214.9331 891.32045 222.47617 896.53578 231.21484 901.29492 C 232.80833 902.22246 234.23884 902.99254 235.3125 903.44922 C 246.18842 908.96431 257.95153 913.38867 263.99805 913.38867 C 264.48862 913.38867 264.92574 913.39567 265.3125 913.41797 C 265.4715 913.42597 265.5861 913.44808 265.72852 913.45898 C 266.76268 913.64343 267.45034 914.2334 267.80664 915.19336 C 267.80667 915.64161 267.75574 916.17251 267.62695 916.87305 C 267.61485 916.92445 267.6089 916.96155 267.5957 917.01367 C 264.53305 929.21625 257.41167 937.62175 242.85742 946.20898 C 236.79627 949.78529 222.6611 951.5467 215.59961 949.60742 C 211.24484 948.41143 202.08458 944.28174 194.02344 939.94727 C 191.26223 938.2752 188.90359 936.63693 186.88281 934.9668 C 181.85427 930.1826 178.09989 923.39333 176.48242 916.16211 C 176.40942 914.73439 176.37109 913.1632 176.37109 911.25586 L 176.37109 903.25781 C 177.7406 900.39539 181.45669 898.6111 191.37891 894.51953 C 197.74848 891.89291 204.46799 888.32864 206.31055 886.59766 L 207.81836 885.18164 C 208.24405 884.97755 208.64449 884.82501 209.02344 884.80078 L 209.02344 884.79492 z "
       style="fill:#000000;stroke-width:1.56913376" />
  </g>
</svg>
