<?xml version="1.0" encoding="UTF-8" standalone="no"?>
<svg
   xmlns:dc="http://purl.org/dc/elements/1.1/"
   xmlns:cc="http://creativecommons.org/ns#"
   xmlns:rdf="http://www.w3.org/1999/02/22-rdf-syntax-ns#"
   xmlns:svg="http://www.w3.org/2000/svg"
   xmlns="http://www.w3.org/2000/svg"
   id="svg2682"
   version="1.1"
   viewBox="0 0 210 297"
   height="297mm"
   width="210mm">
  <title
     id="title3262">Heart</title>
  <defs
     id="defs2676" />
  <metadata
     id="metadata2679">
    <rdf:RDF>
      <cc:Work
         rdf:about="">
        <dc:format>image/svg+xml</dc:format>
        <dc:type
           rdf:resource="http://purl.org/dc/dcmitype/StillImage" />
        <dc:title>Heart</dc:title>
        <dc:date>2020-04-11</dc:date>
        <dc:creator>
          <cc:Agent>
            <dc:title>Public domain</dc:title>
          </cc:Agent>
        </dc:creator>
        <dc:source>http://www.supercoloring.com/coloring-pages/simple-heart-1</dc:source>
        <dc:subject>
          <rdf:Bag>
            <rdf:li>csk</rdf:li>
            <rdf:li>shapes</rdf:li>
            <rdf:li>heart</rdf:li>
          </rdf:Bag>
        </dc:subject>
      </cc:Work>
    </rdf:RDF>
  </metadata>
  <g
     id="layer1">
    <path
       id="path3252"
       d="m 139.72373,64.570514 c -4.47225,-0.03174 -9.32831,0.357953 -11.81579,1.087027 -7.67165,2.248548 -13.35068,6.661544 -20.06432,15.593427 -1.49208,1.985076 -2.75818,3.609941 -2.81338,3.609941 -0.0551,0 -1.18791,-1.509256 -2.51768,-3.353906 -0.8916,-1.236818 -2.08584,-2.670446 -3.395828,-4.11902 -1.70349,-2.02207 -3.214585,-3.539984 -4.932043,-4.983697 -1.569295,-1.440904 -3.005826,-2.610656 -4.009718,-3.203431 -4.007553,-2.366369 -7.39196,-3.595298 -11.952788,-4.169176 -2.307815,-0.348891 -4.76449,-0.483492 -7.402555,-0.421485 -5.417861,-0.02072 -9.21882,0.644334 -14.609716,2.448054 -7.659648,2.562815 -13.577476,6.329817 -19.022199,12.108506 -7.80505,8.283791 -13.334503,18.600257 -15.350121,28.638486 -0.263748,1.31353 -0.428741,2.97813 -0.506828,4.80027 -0.225992,3.00047 -0.137407,6.02183 0.26502,9.07352 0.218146,2.20518 0.544223,4.2395 0.967992,5.80796 3.482905,12.89101 11.300981,25.07595 26.245827,40.90795 2.673138,2.83181 10.897208,10.87173 18.275807,17.8663 20.076153,19.03125 26.879136,26.22257 31.895069,33.71426 2.312651,3.45414 4.683451,8.43754 5.698641,11.97824 0.27851,0.97134 0.78178,0.42991 1.24874,-1.34231 0.54683,-2.07532 2.24515,-5.66328 4.06811,-8.76209 0.002,-0.003 0.003,-0.005 0.004,-0.008 0.59495,-0.98686 1.22838,-1.96742 1.87235,-2.92569 0.0228,-0.0321 0.0462,-0.0671 0.0689,-0.0988 5.61088,-7.84958 11.66312,-14.20626 30.46292,-31.99464 13.50757,-12.78086 19.98896,-19.32414 25.74424,-25.99055 11.26391,-13.04714 17.70207,-24.73783 20.07628,-36.45503 0.3314,-1.63555 0.5028,-4.09157 0.53678,-6.75723 0.0952,-3.28098 -0.0401,-6.7015 -0.41775,-9.14613 -0.1719,-1.50951 -0.39159,-2.83095 -0.6588,-3.78662 -2.48047,-8.871397 -7.60768,-17.926599 -14.39111,-25.416339 -4.25879,-4.702221 -9.9282,-8.534462 -16.34282,-11.160726 -0.14115,-0.05882 -0.28228,-0.118639 -0.42372,-0.175932 -0.23245,-0.09274 -0.46716,-0.181453 -0.70149,-0.271007 -0.40951,-0.158036 -0.81995,-0.312738 -1.23225,-0.458167 -0.18038,-0.06374 -0.3629,-0.123068 -0.54426,-0.184914 -0.34814,-0.11777 -0.69623,-0.235463 -1.04661,-0.344375 -2.02987,-0.644778 -4.11392,-1.177371 -6.23916,-1.575889 -1.81212,-0.339799 -4.35686,-0.510242 -7.04022,-0.529289 z m -66.856574,6.570069 c 3.907269,-0.02852 8.1378,0.287631 10.317013,0.883392 7.395092,2.021705 13.24374,6.63272 19.443681,15.329157 1.11156,1.559156 2.21288,2.843851 2.44656,2.854572 0.017,7.78e-4 0.0425,-0.01388 0.0651,-0.02249 0.009,0.005 0.0275,0.02216 0.0329,0.02174 0.0229,-0.0017 0.0848,-0.06163 0.16245,-0.145237 0.35663,-0.296553 0.95054,-1.019233 1.51301,-1.866362 2.43772,-3.671479 6.78177,-8.570152 9.56911,-10.790899 3.21167,-2.558821 5.95023,-4.011474 9.90228,-5.252458 0.18337,-0.05758 0.34488,-0.103741 0.5143,-0.154222 0.69526,-0.185523 1.40084,-0.34758 2.11417,-0.488862 1.48727,-0.218357 3.40293,-0.245283 7.5156,-0.232075 4.26267,0.01369 6.73924,0.110564 9.1147,0.57795 0.84995,0.187216 1.69544,0.406094 2.53714,0.642332 1.29213,0.393872 2.70891,0.909683 4.48885,1.5961 10.20743,3.936399 18.96055,12.511553 24.8818,24.374983 4.17961,8.373976 5.70308,15.900316 4.81526,23.790276 -1.90112,16.89529 -12.30282,32.37241 -38.17167,56.79784 -10.28135,9.70767 -17.63842,16.86675 -23.05663,22.54829 -0.47909,0.49712 -0.93061,0.97404 -1.376,1.44563 -0.0117,0.0125 -0.0242,0.0257 -0.036,0.0381 -2.31587,2.45356 -4.20284,4.5895 -5.76228,6.5289 -3.38222,4.13579 -5.44155,7.41471 -6.93765,10.69058 -0.68659,1.50335 -1.43272,3.16526 -1.65824,3.69229 -0.14854,0.34714 -0.26963,0.53182 -0.34662,0.54726 -0.0246,-0.0278 -0.052,-0.0696 -0.0794,-0.11155 -0.004,-0.0258 -0.008,-0.0518 -0.01,-0.0868 -0.0143,-0.33491 -0.86609,-2.31851 -1.89256,-4.40799 C 98.662977,211.16456 91.948349,203.55729 71.876707,184.7078 66.500871,179.65931 59.621438,173.0232 56.588723,169.96184 39.646281,152.8593 31.162457,139.6616 28.372473,126.06607 c -0.746093,-3.63571 -0.847439,-11.17189 -0.197638,-14.74073 1.535223,-8.43179 6.206247,-17.685521 12.83843,-25.435046 6.278754,-7.336554 15.659183,-12.564086 25.682854,-14.312507 0.506758,-0.08839 1.080265,-0.161953 1.697165,-0.223094 0.06009,-0.0054 0.116962,-0.01199 0.177428,-0.01722 0.0067,-5.79e-4 0.0135,-0.0017 0.02021,-0.0023 0.383599,-0.03303 0.77484,-0.06267 1.170874,-0.08909 0.269363,-0.01696 0.539407,-0.03361 0.819013,-0.04642 0.736591,-0.03376 1.504892,-0.05344 2.286345,-0.05914 z"
       style="fill:#000000;stroke-width:0.38330385" />
  </g>
</svg>
