<?xml version="1.0" encoding="UTF-8" standalone="no"?>
<svg
   xmlns:dc="http://purl.org/dc/elements/1.1/"
   xmlns:cc="http://creativecommons.org/ns#"
   xmlns:rdf="http://www.w3.org/1999/02/22-rdf-syntax-ns#"
   xmlns:svg="http://www.w3.org/2000/svg"
   xmlns="http://www.w3.org/2000/svg"
   xmlns:sodipodi="http://sodipodi.sourceforge.net/DTD/sodipodi-0.dtd"
   xmlns:inkscape="http://www.inkscape.org/namespaces/inkscape"
   id="svg8"
   version="1.1"
   viewBox="0 0 210 297"
   height="297mm"
   width="210mm"
   sodipodi:docname="hummingbird.svg"
   inkscape:version="0.92.4 (5da689c313, 2019-01-14)">
  <sodipodi:namedview
     pagecolor="#ffffff"
     bordercolor="#666666"
     borderopacity="1"
     objecttolerance="10"
     gridtolerance="10"
     guidetolerance="10"
     inkscape:pageopacity="0"
     inkscape:pageshadow="2"
     inkscape:window-width="1029"
     inkscape:window-height="520"
     id="namedview8"
     showgrid="false"
     inkscape:zoom="0.2102413"
     inkscape:cx="396.85039"
     inkscape:cy="561.25984"
     inkscape:window-x="0"
     inkscape:window-y="0"
     inkscape:window-maximized="0"
     inkscape:current-layer="svg8" />
  <title
     id="title905">Hummingbird</title>
  <defs
     id="defs2" />
  <metadata
     id="metadata5">
    <rdf:RDF>
      <cc:Work
         rdf:about="">
        <dc:format>image/svg+xml</dc:format>
        <dc:type
           rdf:resource="http://purl.org/dc/dcmitype/StillImage" />
        <dc:title>Hummingbird</dc:title>
        <dc:date>2020-04-21</dc:date>
        <dc:creator>
          <cc:Agent>
            <dc:title>SuperColoring</dc:title>
          </cc:Agent>
        </dc:creator>
        <dc:source>http://www.supercoloring.com/coloring-pages/hummingbird-6</dc:source>
        <dc:subject>
          <rdf:Bag>
            <rdf:li>csk</rdf:li>
            <rdf:li>acb</rdf:li>
            <rdf:li>animals</rdf:li>
            <rdf:li>birds</rdf:li>
          </rdf:Bag>
        </dc:subject>
        <cc:license
           rdf:resource="http://creativecommons.org/licenses/by-sa/4.0/" />
      </cc:Work>
      <cc:License
         rdf:about="http://creativecommons.org/licenses/by-sa/4.0/">
        <cc:permits
           rdf:resource="http://creativecommons.org/ns#Reproduction" />
        <cc:permits
           rdf:resource="http://creativecommons.org/ns#Distribution" />
        <cc:requires
           rdf:resource="http://creativecommons.org/ns#Notice" />
        <cc:requires
           rdf:resource="http://creativecommons.org/ns#Attribution" />
        <cc:permits
           rdf:resource="http://creativecommons.org/ns#DerivativeWorks" />
        <cc:requires
           rdf:resource="http://creativecommons.org/ns#ShareAlike" />
      </cc:License>
    </rdf:RDF>
  </metadata>
  <g
     id="layer1">
    <path
       style="opacity:1;fill:#000000;stroke-width:0.44418854"
       d="m 33.527142,41.685124 c -2.847933,0.07806 -6.229727,1.282251 -7.107018,4.293521 -1.126585,3.822181 0.770103,7.698129 2.32993,11.103755 0.932134,1.964794 2.227431,3.766859 3.35516,5.568068 -6.202373,-2.135009 -12.256472,-4.89501 -18.741806,-6.082425 -1.965129,-0.237369 -3.8839443,1.478757 -3.7174762,3.483238 -0.1265659,3.794223 2.2031752,7.113021 4.0922652,10.216325 5.897704,8.705267 12.934134,16.568537 19.987874,24.340626 16.80279,17.745008 34.241369,34.874618 51.939169,51.723208 2.326817,2.20892 4.699148,4.36866 7.077784,6.52139 -7.197062,6.82147 -13.81661,14.25914 -19.49647,22.3954 -15.720655,22.36681 -26.475013,47.81777 -34.78343,73.75047 -0.538525,1.95228 -1.414959,3.86238 -1.724295,5.85526 0.280593,1.0196 1.4588,0.10594 2.023141,-0.14656 12.998839,-7.86092 23.845909,-18.95482 32.596882,-31.29777 3.146551,-4.35134 5.671769,-9.12004 8.282338,-13.77523 0.470338,-0.97022 1.26226,-1.50421 2.217938,-1.88675 12.244747,-7.55861 23.288142,-16.85314 34.539092,-25.78001 7.64033,-6.26222 15.42791,-12.3614 22.75209,-18.9921 5.66525,-6.39681 9.88129,-14.24779 11.4526,-22.6836 1.0457,-7.26778 0.41002,-14.70547 -1.17207,-21.83589 -0.78604,-5.63947 -0.54321,-11.43754 -0.41959,-17.1495 0.34309,-3.865098 1.93899,-7.568578 3.98929,-10.826158 2.02826,-3.18771 5.83402,-4.316164 9.03799,-5.929161 11.70425,-5.096704 23.92647,-8.928332 36.21098,-12.359694 0.74612,-0.33056 2.03218,-0.620762 2.11466,-1.544752 -0.96612,-0.832595 -2.50941,-0.400483 -3.69797,-0.490989 -10.37734,0.767693 -20.63707,2.674751 -30.83469,4.686971 -3.76221,0.687244 -7.42807,1.824578 -11.16128,2.603837 -4.6219,0.735291 -9.13197,-0.574778 -13.71454,-0.962032 -5.15909,-0.345972 -10.59763,0.287448 -15.02473,3.159444 -3.95148,2.254675 -7.3643,5.494383 -9.42363,9.587016 -1.80254,3.13609 -3.15891,6.51959 -3.94154,10.05029 -0.27577,0.942188 -0.99441,-0.77279 -1.42711,-1.05234 C 100.19582,83.795996 86.646846,71.506796 72.19316,60.676642 62.878541,53.872777 53.112243,47.455388 42.338905,43.199925 39.527506,42.140923 36.534204,41.589531 33.527142,41.685173 Z m 1.004625,1.788029 c 5.873834,0.31859 11.210896,3.138005 16.349473,5.747707 14.279088,7.816582 27.238567,17.902395 39.174564,28.929507 10.677846,10.130756 20.878886,21.152025 27.771296,34.271923 2.29512,4.53253 4.2196,9.334 5.00535,14.36918 -0.0347,0.64535 -0.74956,-0.56389 -0.93347,-0.7036 C 111.4582,110.69186 97.008277,98.474882 81.682923,88.149503 69.99204,80.258918 57.319188,73.977267 44.581337,67.982863 40.879928,66.048573 36.19866,65.256841 33.689372,61.605938 31.391918,57.909422 29.081401,53.982236 28.17519,49.732564 c -0.558039,-2.223085 0.254413,-5.070032 2.714582,-5.732815 1.171387,-0.4189 2.416568,-0.519712 3.641995,-0.526596 z M 13.232408,58.721317 c 4.104564,0.343286 7.910341,2.167864 11.796687,3.404083 21.920082,7.993295 42.965863,18.616062 62.032304,32.128382 13.052731,9.243268 24.730211,20.642658 33.841141,33.817618 2.26212,3.64234 5.08978,7.51364 4.91778,11.99193 -0.23503,4.37223 -4.20712,7.28101 -7.96156,8.73369 -7.39468,2.9756 -15.48306,2.78864 -23.307764,3.16831 C 72.509584,131.40086 50.654833,110.55347 30.525732,88.095915 24.331328,80.953346 17.950076,73.828188 13.233279,65.601033 12.335258,63.726409 11.097798,61.593599 11.618755,59.450917 11.89119,58.83447 12.63565,58.722644 13.232408,58.721317 Z M 187.02636,73.186071 c -9.1998,3.299374 -18.55502,6.250459 -27.43991,10.373363 -2.70689,1.196849 -5.41846,2.562454 -8.34241,3.084165 0.62499,-2.152873 1.73107,-4.176911 2.65212,-6.223849 1.50362,-1.564596 3.94497,-1.521635 5.90245,-2.161132 9.05136,-2.157288 18.20316,-3.904254 27.4169,-5.151502 z m -49.02902,5.181032 c 4.59139,-0.045 9.22535,0.921925 13.66226,1.650971 -0.34265,2.111321 -1.62383,4.064212 -2.50427,6.017606 -1.56633,3.255622 -4.76195,5.270432 -6.41421,8.488782 -4.36888,7.699218 -5.46119,16.714038 -6.25497,25.386098 -0.40512,5.60278 -0.68521,11.21606 -0.89194,16.83003 -4.06329,-11.82779 -10.91959,-22.56595 -19.08536,-31.97637 -0.97,-1.33736 -3.1642,-2.56418 -2.14878,-4.48338 1.48269,-7.056878 4.95196,-14.033192 11.10109,-18.091276 3.67882,-2.404209 8.10656,-3.973958 12.53618,-3.822461 z m 2.17928,1.527779 c -2.22786,0.04247 -3.89717,2.242 -3.48409,4.401101 0.0727,2.422625 2.81957,4.090301 5.03701,3.196076 2.59861,-0.53996 3.57192,-4.027043 1.93552,-6.008692 -0.78987,-1.103926 -2.14508,-1.68406 -3.48844,-1.588485 z m 0.74698,1.855704 c 1.96463,0.274068 2.10094,3.792477 -0.026,3.845864 -0.58801,0.07286 -1.37151,0.120036 -0.54483,-0.267202 1.11215,-0.793932 1.50329,-2.527283 0.57086,-3.578662 z m 9.69059,8.847326 c -3.4144,5.88448 -4.27118,12.924018 -3.99055,19.622568 0.4657,8.83066 3.30944,17.46121 2.41505,26.35498 -0.83965,10.1808 -5.94159,19.6957 -13.08523,26.86986 -10.82007,9.37758 -22.17059,18.12154 -33.36877,27.03813 -4.542761,3.58277 -9.178142,7.04573 -13.856724,10.44846 7.736673,-7.08353 15.518784,-14.12366 22.938684,-21.54701 5.99414,-6.00498 12.08505,-11.9532 17.52243,-18.4758 2.714,-3.49339 5.60079,-6.93962 7.62751,-10.89144 0.29244,-1.14521 0.9873,-2.17541 1.27085,-3.27668 -0.32154,-8.98652 -0.02,-17.99757 0.44637,-26.9684 0.5801,-8.80808 1.8095,-18.03336 6.79611,-25.551748 1.70275,-2.27252 3.64387,-4.73895 6.47977,-5.607017 -0.39851,0.661357 -0.79701,1.322727 -1.1955,1.984097 z m -30.82165,21.117178 c 5.34974,7.26735 9.93662,15.11372 13.19592,23.52642 1.2991,3.46935 2.77899,6.97318 3.12108,10.69517 -0.61609,3.00982 -2.463,5.60018 -4.10991,8.14408 -6.62262,9.18585 -14.80758,17.09064 -22.79674,25.07184 -3.17002,3.09601 -6.35976,6.19778 -9.627008,9.17632 7.886328,-9.57712 15.773318,-19.42254 20.914038,-30.80629 1.44314,-2.93762 2.02974,-6.20155 3.24133,-9.19844 0.96359,-1.88666 2.82366,-3.21293 3.36785,-5.34501 1.24866,-3.43858 0.47926,-7.23828 -1.15312,-10.40528 -1.26074,-3.50249 -1.02601,-7.32213 -2.25122,-10.84227 -0.98688,-3.61281 -2.64063,-6.98392 -4.17983,-10.38179 0.0925,0.12172 0.18508,0.2435 0.27761,0.36525 z m 1.29354,38.18718 c -1.68014,5.95141 -4.5751,11.5194 -7.77505,16.79241 -8.51555,13.60414 -19.418061,25.542 -31.00644,36.57441 -1.328165,1.56902 -0.565257,-0.40143 -0.338984,-1.34082 4.398367,-15.85924 8.58981,-31.78487 13.013959,-47.63096 7.805025,-0.86138 16.053915,-0.68586 23.525135,-3.66726 0.82465,-0.25119 1.78883,-0.67528 2.58138,-0.72778 z m -28.792455,6.69841 c -4.467604,16.55143 -8.89666,33.13252 -13.66124,49.59032 -0.05758,0.88325 -0.752767,1.51552 -0.938848,2.306 0.03408,1.15933 -1.084049,2.24777 -1.511293,3.33821 -6.938539,12.4756 -16.0485,23.80298 -26.95797,33.02725 -3.128974,2.50256 -6.31493,4.97037 -9.729219,7.08259 8.065378,-25.61724 18.618831,-50.6894 33.592632,-73.06641 5.519348,-8.21235 11.862981,-15.91801 19.169505,-22.61804 0.321647,-0.38152 0.0054,0.28272 0.03647,0.34008 z"
       id="path890" />
  </g>
</svg>
