<?xml version="1.0" encoding="UTF-8" standalone="no"?>
<!-- Created with Inkscape (http://www.inkscape.org/) -->

<svg
   xmlns:dc="http://purl.org/dc/elements/1.1/"
   xmlns:cc="http://creativecommons.org/ns#"
   xmlns:rdf="http://www.w3.org/1999/02/22-rdf-syntax-ns#"
   xmlns:svg="http://www.w3.org/2000/svg"
   xmlns="http://www.w3.org/2000/svg"
   xmlns:sodipodi="http://sodipodi.sourceforge.net/DTD/sodipodi-0.dtd"
   xmlns:inkscape="http://www.inkscape.org/namespaces/inkscape"
   width="210mm"
   height="297mm"
   viewBox="0 0 210 297"
   version="1.1"
   id="svg2143"
   inkscape:version="0.92.4 (5da689c313, 2019-01-14)"
   sodipodi:docname="juice_and_cake.svg">
  <title
     id="title2748">Juice and Cake</title>
  <defs
     id="defs2137" />
  <sodipodi:namedview
     id="base"
     pagecolor="#ffffff"
     bordercolor="#666666"
     borderopacity="1.0"
     inkscape:pageopacity="0.0"
     inkscape:pageshadow="2"
     inkscape:zoom="0.98994949"
     inkscape:cx="185.40329"
     inkscape:cy="458.66486"
     inkscape:document-units="mm"
     inkscape:current-layer="layer1"
     showgrid="false"
     inkscape:window-width="3840"
     inkscape:window-height="2004"
     inkscape:window-x="-16"
     inkscape:window-y="-16"
     inkscape:window-maximized="1" />
  <metadata
     id="metadata2140">
    <rdf:RDF>
      <cc:Work
         rdf:about="">
        <dc:format>image/svg+xml</dc:format>
        <dc:type
           rdf:resource="http://purl.org/dc/dcmitype/StillImage" />
        <dc:title>Juice and Cake</dc:title>
        <dc:date>2020-04-21</dc:date>
        <dc:creator>
          <cc:Agent>
            <dc:title>SuperColoring</dc:title>
          </cc:Agent>
        </dc:creator>
        <dc:source>http://www.supercoloring.com/coloring-pages/cocktail-and-cake</dc:source>
        <dc:subject>
          <rdf:Bag>
            <rdf:li>csk</rdf:li>
            <rdf:li>cake</rdf:li>
            <rdf:li>landscape</rdf:li>
          </rdf:Bag>
        </dc:subject>
        <cc:license
           rdf:resource="" />
      </cc:Work>
    </rdf:RDF>
  </metadata>
  <g
     inkscape:label="Layer 1"
     inkscape:groupmode="layer"
     id="layer1">
    <path
       inkscape:connector-curvature="0"
       id="path2739"
       d="m 200.24928,88.606894 c -0.0716,-0.957143 -1.12841,-1.182268 -1.80225,-1.575568 -0.67974,-1.042853 -0.37647,-2.404339 -0.40292,-3.590972 0.46259,-3.287862 0.0827,-6.62161 -0.17103,-9.91078 -1.05351,-9.106613 -4.49254,-17.737705 -8.4557,-25.93321 -0.71275,-1.214399 -1.27721,-2.631688 -2.39517,-3.531905 -0.45301,-0.116781 -1.02071,0.03436 -1.06303,0.605763 -0.52631,2.833692 -0.93496,5.725175 -2.15415,8.37469 -0.83066,2.005668 -2.49243,3.877063 -4.70923,4.371112 -0.75135,0.19497 -1.70973,0.529399 -1.9502,1.343864 0.049,1.025328 0.27503,2.035012 0.23394,3.076881 0.24634,2.431446 -0.26413,4.839976 -1.42538,6.988441 -1.76053,3.580016 -4.09141,6.916141 -6.98286,9.660537 -1.25443,0.557771 -2.58564,-0.267379 -3.86634,-0.375744 -2.55235,-0.624951 -5.24727,-0.89368 -7.63776,-2.031155 -1.16109,-0.690337 -0.30826,-2.120245 -0.2546,-3.147226 1.16367,-7.802485 1.4232,-15.72321 1.22551,-23.602252 -0.0334,-2.707209 -0.43535,-5.38932 -0.70571,-8.069897 0.0707,-0.547723 -0.16971,-1.537333 0.65422,-1.475274 4.15201,-0.811894 8.38577,-1.18337 12.52204,-2.076176 0.75898,-0.318363 1.75261,-0.218047 2.32762,-0.879343 1.68784,-2.117231 1.27168,-5.008022 1.16367,-7.519818 -0.52366,-6.144211 -0.9423,-12.318479 -2.04023,-18.392183 -0.0809,-0.9357507 -0.73185,-1.7260146 -1.64313,-1.9619215 -1.32715,-0.4844114 -3.00698,0.5531037 -2.85687,2.0387275 -0.12196,6.667409 0.97141,13.290641 1.26897,19.936388 -0.026,0.562924 0.16743,1.22463 -0.0178,1.738796 -2.98241,1.004541 -6.1714,1.15045 -9.25815,1.695483 -1.1231,0.164006 -2.24619,0.328001 -3.36928,0.491996 -1.17284,-2.423148 -1.86793,-5.213202 -3.76846,-7.205754 -0.52363,-0.640531 -1.46428,-0.567614 -1.96154,-1.192986 -0.72355,0.421607 -1.66958,0.360543 -2.31198,0.988216 -3.84906,2.181634 -7.96455,3.892578 -12.25883,4.97803 -4.78756,1.296856 -9.94418,1.792353 -14.749,0.31321 -9.6841,-2.814471 -18.2304,-8.558359 -27.978236,-11.20245 -6.942352,-2.040674 -14.382371,-2.355969 -21.453809,-0.790329 -4.055525,0.791593 -8.169164,2.170895 -11.204028,5.098118 -5.295195,4.793442 -8.355448,11.550115 -9.955856,18.407611 -0.616567,2.128143 -0.608993,4.385157 -1.197059,6.508286 -3.957985,0.09194 -7.917742,0.290273 -11.874809,0.311547 -0.663446,-5.424217 -0.948339,-10.960159 -2.536991,-16.217961 -1.542379,-4.428449 -5.18697,-8.440725 -9.965514,-9.240442 -2.506578,-0.526558 -5.226708,0.232644 -7.012286,2.092878 -3.114512,3.172778 -4.434208,7.601227 -5.468233,11.811477 -1.02737,4.328284 -1.528938,8.768196 -1.506271,13.21727 -0.30313,4.820301 -0.131324,9.664534 0.515343,14.449215 0.174972,2.371634 0.570833,4.739411 1.544431,6.924794 1.35885,3.711826 3.768374,6.978124 6.817511,9.479591 1.050555,1.000997 2.432072,1.873793 3.949374,1.591677 3.502043,-0.308467 6.697304,-2.522761 8.545665,-5.460756 1.716778,-3.923099 2.675996,-8.129081 3.68193,-12.277856 0.537957,-2.058014 0.720827,-4.196766 1.253608,-6.248179 0.622995,-1.136815 2.193464,-0.897764 3.268491,-1.15731 3.030413,-0.258509 6.141942,-0.512589 9.135048,0.17132 0.713901,4.510138 1.779798,8.979923 3.576138,13.189968 2.0698,4.85992 4.589926,9.687277 8.390237,13.429419 3.056818,2.679561 6.876446,4.425024 10.805077,5.389978 7.92469,1.825208 16.13921,0.191492 23.799556,-2.051358 8.825623,-2.596543 17.212523,-6.415933 25.651773,-10.028286 2.58777,-1.05545 5.35416,-2.26664 8.16931,-1.48099 4.95325,1.221908 9.51342,3.704674 13.75702,6.471813 1.51474,0.947938 2.95736,2.124059 4.64823,2.728935 1.52754,-0.268319 2.55404,-1.640447 3.53679,-2.729292 1.44007,-1.642694 2.28571,-3.663769 3.23391,-5.600226 0.29319,-0.594062 0.92146,-1.384196 1.6582,-0.899439 3.34013,1.078149 6.89772,1.370032 10.16023,2.67377 1.60651,0.733586 1.62714,2.750101 2.03506,4.221983 0.41808,2.276375 0.4257,4.661849 -0.0291,6.927582 -0.46605,1.819762 -1.76188,3.272413 -3.32479,4.246411 -0.77111,0.476611 -1.01181,1.416997 -1.73635,1.908464 0.66547,0.274283 0.58763,1.158207 1.22328,1.519733 0.94596,0.52232 1.54788,1.47921 1.62693,2.56603 0.42767,3.93054 -1.13549,7.714 -2.73705,11.21367 -0.18174,0.42172 -0.7132,1.24393 0.0197,1.44837 0.2509,0.16404 0.52062,0.44028 0.9028,0.33667 2.91061,-0.44317 5.58947,-1.80088 8.25728,-2.98275 5.32013,-2.42943 10.23189,-5.757 14.33658,-9.93403 3.22018,-3.200156 6.01293,-6.86748 7.90584,-11.010388 0.53329,-0.922203 1.16181,-2.502947 2.51497,-2.153705 0.70051,0.169894 1.89459,0.05748 1.87561,-0.889132 -0.0145,-0.03673 0.004,-0.07455 0,-0.111671 z m -6.34583,-9.688454 c -2.41797,-4.909727 -5.21841,-9.656929 -8.75607,-13.852074 -1.41945,-1.822756 -3.08499,-3.439779 -4.5324,-5.234509 1.42038,-1.323099 3.08518,-2.403679 4.17676,-4.046676 1.49623,-1.878785 2.02336,-4.27623 2.89543,-6.445763 0.45629,-9.3e-4 0.60829,1.391489 0.95522,1.879303 3.15498,7.508874 6.31718,15.19932 6.97479,23.400162 0.27439,2.893439 0.29797,5.803311 0.4263,8.709131 -0.71334,-1.469851 -1.42668,-2.939713 -2.14003,-4.409574 z m 0.0224,6.526156 c -6.0392,-1.097034 -11.94232,-2.841006 -17.88464,-4.359346 -1.43855,-0.418603 -2.94896,-0.719789 -4.34135,-1.22046 -0.11602,-1.140024 0.96102,-2.023387 1.62357,-2.843513 2.74094,-3.233659 4.91372,-7.011152 6.12536,-11.083034 0.37909,-1.189344 0.28005,-2.444518 0.3338,-3.669895 4.94502,4.936522 8.87779,10.842438 11.94405,17.100092 0.87065,1.969615 1.79375,3.978167 2.24555,6.077831 z m -0.76936,6.59929 c -2.349,5.232531 -6.544,9.390984 -10.99479,12.901544 -4.08071,3.13087 -8.69077,5.54643 -13.47453,7.42116 -0.32164,0.12188 -1.18407,0.40929 -1.03846,-0.22891 0.43247,-1.60045 1.3978,-3.03819 1.52284,-4.7301 0.30159,-2.46327 0.50048,-5.06605 -0.29064,-7.457931 -0.1893,-0.353674 -0.53722,-0.84622 0.0659,-1.000513 1.24356,-0.456008 2.62427,-0.488042 3.89652,-0.90294 5.52932,-1.482816 11.02615,-3.184349 16.27899,-5.473894 1.5989,-0.766603 3.18657,-1.558757 4.78511,-2.325631 -0.2503,0.599075 -0.50061,1.19815 -0.75093,1.797215 z m -0.15074,-4.090779 c -0.58379,0.785845 -1.65628,1.081326 -2.46547,1.611655 -5.29817,2.533522 -10.88837,4.426266 -16.54875,5.977504 -1.29579,0.300742 -2.65456,0.710508 -3.93982,0.8269 0.0459,-1.063142 1.00265,-1.812199 1.12388,-2.876443 1.27828,-3.227015 0.83732,-6.799835 0.0943,-10.095477 -0.0251,-0.412521 -0.16794,-0.957403 0.0469,-1.300875 6.68487,1.56578 13.29761,3.422103 19.93317,5.183394 0.57035,0.224963 1.28639,0.316916 1.75573,0.673342 z M 172.17215,33.41737 c 0.17148,0.918411 -0.44007,1.742891 -1.35447,1.89995 -4.08303,1.055839 -8.30996,1.41153 -12.46912,2.059094 -3.9252,0.490062 -7.85466,1.138025 -11.79753,1.308665 1.49309,-0.610538 3.1887,-0.519503 4.7591,-0.865255 5.41106,-0.928977 10.87754,-1.51418 16.27936,-2.484083 0.98473,-0.245793 2.03826,-0.358609 2.95963,-0.800063 0.55846,-0.374178 0.33532,-1.207982 0.92569,-1.513035 -0.26797,-2.620063 -0.1361,-5.266823 -0.42761,-7.890268 -0.30372,-4.525956 -1.03327,-9.031491 -1.14293,-13.561347 -0.13481,-0.864132 0.47132,-0.2827 0.45391,0.202111 0.91794,6.664093 1.41157,13.39288 1.77742,20.106023 0.0213,0.512448 0.0363,1.025274 0.0365,1.538208 z m -16.08286,20.001665 c -0.046,6.024989 0.0942,12.107941 -1.09398,18.038631 -0.26156,1.260759 -0.36556,2.655014 -0.80484,3.809386 -2.9241,-0.341203 -5.77153,-1.234819 -8.62603,-1.954867 -0.62816,-0.123145 -0.91414,-0.655807 -0.75103,-1.270505 -0.0164,-8.369494 -0.2417,-16.790285 0.0124,-25.129257 0.3421,-1.798046 0.63266,-3.613584 0.93239,-5.415109 1.64423,-0.61486 3.50349,-0.535547 5.24054,-0.850896 1.32494,-0.06353 2.7652,-0.570855 4.02695,-0.07984 0.76336,0.934185 0.61484,2.249678 0.82407,3.380605 0.18261,3.1536 0.22508,6.313597 0.23951,9.471833 z m -2.46161,-18.791793 c -0.0567,0.800193 -1.20088,0.717088 -1.76895,0.964134 -1.4668,0.261621 -2.99617,0.657115 -4.48921,0.427182 -0.62233,-0.484951 -0.12517,-1.46823 -0.0124,-2.101813 0.63419,-1.755651 1.39329,-3.610419 2.81409,-4.876018 0.68401,-0.321994 1.16177,0.668556 1.53928,1.071418 0.88844,1.359714 1.75821,2.877902 1.91726,4.515097 z m -0.28028,43.897584 c -0.36617,1.297677 -1.15834,2.481965 -1.75601,3.702047 -0.72666,1.138425 -1.4428,2.682878 -2.9048,2.947492 -1.34752,-0.197693 -1.73999,-1.808656 -2.21188,-2.858725 -0.56237,-1.919365 -1.15335,-3.880434 -1.26364,-5.884492 0.0172,-0.962362 1.26034,-0.674617 1.84729,-0.523976 2.04707,0.524257 4.11743,1.167088 6.12937,1.813128 0.16555,0.232364 0.17751,0.530578 0.15967,0.804526 z m -7.52051,-46.799709 c -0.47495,1.634127 -0.7502,3.419176 -1.57221,4.914297 -13.5613,1.935604 -27.12261,3.871056 -40.68393,5.806487 -0.0848,1.062267 -0.55005,2.120396 -0.23393,3.196914 0.0457,0.593457 0.19776,1.525784 0.99883,1.422032 4.77408,-0.05175 9.45509,-1.175321 14.17143,-1.802649 8.13509,-1.204881 16.26997,-2.489917 24.44561,-3.340003 0.73649,-0.216611 0.30515,0.773334 0.34774,1.171464 -0.48363,2.720411 -0.74171,5.487896 -0.81673,8.259054 -0.30869,6.964705 -0.12366,13.947204 -0.21495,20.908927 -0.28597,0.739215 -1.29852,-0.145034 -1.87298,-0.09238 -7.3464,-1.787469 -14.63178,-3.852397 -22.04539,-5.346114 -0.91299,-0.119277 -1.99223,-0.389962 -2.82664,0.01448 -0.4662,0.793117 0.26882,1.921472 1.2054,1.839653 6.98669,1.387491 13.88695,3.196234 20.79989,4.899776 1.77058,0.580438 3.95529,0.829407 5.19084,2.397413 0.92926,1.630551 0.88134,3.644873 1.32885,5.449164 0.52121,1.399149 -0.92979,0.04991 -1.53488,-0.120422 -4.10933,-2.165461 -8.37271,-4.334616 -13.02328,-4.9971 -3.89154,-0.523803 -7.5062,1.430816 -10.96361,2.913502 C 108.04414,84.131005 97.190135,88.71473 85.635342,90.257195 78.991421,91.095958 71.736854,90.729678 65.990168,86.938086 61.190955,83.811345 58.429575,78.557033 56.125077,73.487178 54.210974,69.16462 52.867412,64.555203 52.594241,59.817229 52.227659,54.507632 52.110684,49.093204 53.19054,43.852321 c 1.5467,-6.00445 4.541254,-11.692048 8.924142,-16.10629 1.754452,-1.787642 3.958958,-3.101665 6.397783,-3.702231 5.263063,-1.627007 10.8156,-2.411674 16.321258,-1.854119 8.654969,0.76227 16.683897,4.458743 24.419547,8.192479 5.82867,2.640559 11.87423,5.593225 18.4278,5.499349 4.87065,0.02118 9.68401,-1.067897 14.18928,-2.880366 1.32683,-0.485816 2.65369,-0.972042 3.98837,-1.436229 l -0.0279,0.140183 z m -1.89269,7.462449 c -1.09073,0.636078 -2.50306,0.600911 -3.72773,0.890936 -10.47406,1.535118 -20.96134,3.065731 -31.48145,4.227039 -0.95332,0.02182 -2.02856,0.347545 -2.91263,0.09724 3.2399,-0.875184 6.6187,-1.141526 9.92561,-1.673519 8.57741,-1.16577 17.15505,-2.336694 25.72342,-3.560687 0.77912,0.0032 1.7149,-0.363049 2.40579,-0.123393 0.028,0.04386 0.0565,0.09054 0.067,0.142376 z m -1.51583,170.558814 c -0.21538,-0.98317 -1.47783,-1.07415 -2.30137,-1.15851 -1.88407,0.17729 -2.95189,-1.68492 -3.887,-2.9976 -3.58113,-5.42663 -8.44351,-10.09536 -14.26554,-13.05015 -1.12668,-0.54261 -2.10513,-1.56115 -2.1121,-2.86855 -0.2549,-3.30508 -0.80946,-6.99897 -3.44313,-9.32946 -1.1748,-0.85854 -2.02278,-2.04826 -2.52936,-3.40864 -1.60945,-3.56432 -2.34163,-7.43598 -3.6688,-11.10436 -2.42775,-7.17732 -4.93085,-14.35688 -8.16422,-21.21737 -1.46343,-2.84839 -3.314822,-5.52166 -5.541023,-7.82553 -2.830872,-2.70401 -6.189081,-4.9555 -10.022333,-5.92373 -2.070676,-0.5024 -4.203076,-0.66929 -6.311231,-0.94811 -2.788067,-0.30894 -5.55365,0.25456 -8.307921,0.58218 -2.633893,0.59017 -5.146012,1.80226 -7.289173,3.43835 -1.046634,0.71614 -1.540142,1.89852 -2.301375,2.85411 -2.087596,1.01307 -4.510409,0.64702 -6.763998,0.80676 -11.64733,0.51481 -23.284429,1.31373 -34.891201,2.4183 -1.001818,0.12967 -2.011005,0.1784 -3.018992,0.23928 -0.505145,1.42697 -0.426394,3.12205 -0.626896,4.65274 -1.08099,14.35916 -1.579015,28.7551 -2.383367,43.13171 -1.520706,30.0782 -3.21043,60.1477 -4.7017597,90.22734 -0.061691,1.41254 -0.09151,2.82619 -0.1373522,4.2393 0.7301069,0.0778 1.3530799,0.0912 2.1975369,-0.0149 8.334554,-0.1156 16.644322,-0.85648 24.959785,-1.37981 1.676349,-0.11483 3.352676,-0.22963 5.029036,-0.34442 1.617953,1.77 3.447871,3.39967 5.689597,4.32585 5.715754,2.47364 12.055217,2.93467 18.210761,3.07446 5.209389,-0.0313 10.498868,-0.027 15.590439,-1.26275 3.86413,-0.91212 7.264085,-3.3265 9.568983,-6.53565 3.853218,-5.32977 6.166662,-11.55846 8.611461,-17.60984 4.443443,-11.31217 8.112253,-22.90872 11.687783,-34.519 0.69832,-2.05413 1.07964,-4.27192 1.86087,-6.26375 0.72134,-1.61551 2.76769,-1.51797 4.02602,-2.50237 2.78064,-1.74622 4.10536,-4.99489 4.59155,-8.11851 0.31756,-0.67869 -0.0388,-2.19362 1.10997,-1.84088 2.38942,0.082 4.88641,-0.19377 7.17435,0.61876 0.25477,0.37432 -0.46957,0.76106 -0.64105,1.0596 -1.64993,1.4067 -2.67719,3.37997 -3.20293,5.46063 -0.79147,2.84418 -1.70564,5.64961 -2.64141,8.43985 -0.2089,0.53756 -0.0891,1.24347 0.50249,1.45664 0.46709,0.63909 1.17664,-0.0563 1.71067,-0.19485 2.24583,-1.67219 4.8039,-2.8698 7.26481,-4.203 2.14599,-1.14837 4.07108,-3.01006 4.55419,-5.48154 0.47675,-1.59983 0.18904,-3.36297 0.91061,-4.88081 0.63312,-0.68487 1.73779,-0.18185 2.51655,-0.62159 0.62211,-0.20037 1.45193,-0.70547 1.38607,-1.42016 z m -6.69755,4.57539 c -0.48353,1.85939 -0.89829,4.0084 -2.70114,5.05164 -1.72457,1.13782 -3.51752,2.32321 -5.55356,2.78377 -0.45649,-0.0509 0.0268,-0.78943 -0.0559,-1.07308 0.54021,-2.78937 1.39767,-5.66718 3.09028,-7.96606 0.56085,-0.5513 1.42082,-1.04354 2.20702,-0.96197 0.0267,1.1108 -0.92157,2.02108 -1.40231,2.97346 -0.36712,0.76203 -1.1561,1.49809 -1.0526,2.39474 0.32211,0.43101 1.06281,0.38037 1.50857,0.19764 1.61975,-1.29285 2.44408,-3.27175 3.81274,-4.76857 0.15001,0.42154 0.23824,0.92621 0.14684,1.36843 z m -0.63258,-5.93266 c -1.77976,0.06 -3.5413,-0.57076 -5.3172,-0.75752 -2.35279,-0.47472 -4.81145,-0.51031 -7.06512,-1.36297 -1.04189,-0.55953 -0.70773,-1.97601 -1.40868,-2.80965 -1.1415,-2.09194 -2.98179,-3.65337 -4.62505,-5.33282 0.96778,-1.33366 1.61009,-3.11213 3.10034,-3.9579 2.19478,0.84442 4.17301,2.22198 6.08184,3.57195 3.74941,2.85926 6.90593,6.56791 9.23387,10.64891 z m -15.43743,-1.90107 c -0.0499,0.84307 -1.52428,1.25777 -1.63252,0.22054 -0.003,-0.60217 0.41595,-1.67562 -0.4031,-1.93177 -1.15484,-0.3539 -1.96083,0.89507 -2.04232,1.90274 -0.26947,1.9857 -0.30136,4.13268 0.51086,6.00133 0.31938,0.54563 0.83893,1.51408 1.60572,1.18698 0.73362,0.97875 0.60393,0.64493 0.57729,-0.27469 0.73073,-0.88738 -0.39838,-1.86848 -0.16637,-2.81893 -0.0515,-0.4809 0.40385,-1.34415 0.88382,-1.02116 0.94178,3.0322 -0.77179,6.44089 -3.5253,7.88368 -3.6621,2.10232 -8.90944,1.45225 -11.49113,-2.05322 -1.97237,-2.5374 -1.81135,-6.00304 -1.61469,-9.04078 0.0864,-1.50712 0.76856,-3.26888 2.43147,-3.57936 1.8078,-0.37474 3.69643,-0.21295 5.47946,-0.76845 1.57065,-0.25702 2.90417,-1.27604 4.4714,-1.49552 1.59405,0.20182 2.72942,1.5946 3.65641,2.79045 0.57939,0.90159 1.23887,1.89113 1.259,2.99816 z m -2.32538,-16.721 c -0.0363,0.60874 -0.78382,0.83676 -1.25399,0.51198 -0.6429,-0.27997 -1.44525,-0.0787 -2.01105,-0.46006 0.54411,-1.01038 1.95565,-1.72699 1.78327,-3.01992 -0.23782,-0.50107 -0.88671,-0.85901 -1.37569,-0.41707 -1.55794,0.7509 -2.99588,1.93676 -3.57546,3.62236 -0.5225,1.45162 -0.63062,3.44533 0.65379,4.53296 0.46878,0.36526 1.60675,0.38005 1.50912,-0.45782 0.0544,-0.7498 0.0912,-1.83073 1.11328,-1.83798 0.82077,0.24646 2.08723,0.25108 2.45269,1.18308 -0.47974,2.30814 -2.48099,3.89607 -4.27223,5.24761 -3.26344,1.88461 -7.83479,2.19304 -10.86093,-0.28697 -2.369384,-2.11508 -2.867106,-5.55893 -2.732304,-8.57486 0.234859,-3.50506 1.566774,-7.47883 4.930954,-9.14665 4.18467,-2.01649 9.60327,-0.54186 12.39161,3.0967 1.15852,1.77466 1.10744,3.98117 1.24694,6.00664 z m -6.09403,-12.60287 c -1.16363,0.65003 -2.62693,0.38354 -3.92542,0.48261 -3.16602,0.0132 -6.48054,1.32309 -8.226223,4.07854 -2.657111,4.24427 -3.537761,9.75776 -1.701285,14.4925 0.0282,1.08377 1.099941,1.71094 1.596744,2.58516 0.735099,1.06327 2.145904,1.7768 2.358934,3.132 -0.21306,1.1212 -0.96642,2.07868 -1.16354,3.22092 -0.884712,3.44653 -0.78365,7.31603 1.14734,10.40757 1.64246,2.65982 4.29182,5.00895 7.48591,5.43855 0.67206,0.0576 1.75432,-0.13318 1.76762,0.85144 -4.7e-4,1.66047 -0.82471,3.20054 -1.19363,4.80064 -3.28208,10.51853 -6.51328,21.06757 -10.414766,31.37654 -2.563926,6.54089 -5.152301,13.12007 -8.644782,19.23054 -0.557555,0.77862 -0.972377,1.84704 -1.894105,2.21048 -1.27702,-0.73914 -1.555505,-2.3697 -1.985864,-3.66724 -1.640642,-6.32391 -1.077112,-12.91291 -1.233879,-19.38227 -0.125079,-6.75402 0.212613,-13.50059 0.584587,-20.2419 1.165565,-21.98862 2.360149,-43.97794 4.055805,-65.93265 0.710152,-8.38312 1.939796,-16.80583 4.519841,-24.82536 0.585678,-1.46306 1.000932,-3.15894 2.229906,-4.22924 0.752547,-0.31565 1.183943,0.75694 1.582829,1.2121 2.841638,4.72221 4.737338,9.93816 6.690418,15.06255 2.39822,6.46888 4.33318,13.10227 6.36356,19.69652 z M 110.51453,70.580548 c -0.1266,-2.094596 -2.35045,-3.963269 -4.43916,-3.196352 -2.37815,0.69226 -3.40953,4.172457 -1.49184,5.879057 1.28265,1.174576 3.55112,1.323726 4.73222,-0.08881 0.75279,-0.640077 1.27283,-1.585185 1.19878,-2.593895 z m -1.89771,0.0065 c -0.0614,0.915051 -0.87664,1.965953 -1.83798,1.898265 -1.09311,-0.388612 -1.68788,-1.919365 -0.84585,-2.813348 0.89806,-0.666136 2.72847,-0.539458 2.68383,0.915083 z m -5.96673,1.234431 c -0.001,-2.035358 -2.38972,-3.465191 -4.205235,-2.595603 -1.090671,0.537762 -2.318532,1.583898 -2.184691,2.920546 0.235464,1.405188 1.217986,2.850557 2.761434,2.930604 1.641442,0.250882 3.419802,-0.874038 3.587182,-2.593939 0.0355,-0.218415 0.0502,-0.440438 0.0413,-0.661608 z m -1.77265,0.07984 c -0.0412,1.047271 -1.394789,1.668905 -2.184696,1.008322 -0.868982,-1.023502 0.432206,-2.744288 1.634756,-2.110435 0.38464,0.213045 0.5903,0.671214 0.54994,1.102113 z M 98.323699,58.716672 c -0.145207,-0.595132 -1.046677,-0.498716 -1.508573,-0.726931 -3.6568,-0.843657 -7.351761,-1.614085 -11.091504,-1.966384 -0.824448,-0.141955 -0.746972,0.993272 -0.984305,1.497963 -0.934174,3.930597 -1.878601,7.906723 -2.056285,11.956337 0.09313,0.466369 -0.102747,1.135292 0.602867,1.031109 3.687722,0.91934 7.407499,1.867051 11.212218,2.156309 0.668016,0.172995 1.158564,-0.343548 1.250625,-0.96086 0.966803,-3.924785 1.778891,-7.893909 2.464269,-11.877803 0.05132,-0.367835 0.111012,-0.737421 0.110688,-1.10974 z m -1.885992,17.334032 c 0.0054,-1.248746 -1.2601,-2.118884 -2.439278,-1.894926 -1.024237,0.192226 -2.084441,1.028504 -2.233829,2.096476 0.163974,1.012687 1.081726,1.758265 1.9033,2.282954 1.168438,0.612926 2.225476,-0.609393 2.617394,-1.599013 0.108181,-0.281241 0.165465,-0.583744 0.152413,-0.885491 z M 96.029583,60.636717 c -0.70987,3.242778 -1.056325,6.6259 -2.406909,9.676171 -0.332063,0.52188 -1.089613,-0.107717 -1.574056,-0.03187 -2.140309,-0.496458 -4.389565,-0.686102 -6.44168,-1.505137 -1.02831,-0.611186 -0.449417,-2.008013 -0.403662,-2.952926 0.468065,-2.419593 0.886453,-4.905114 1.813972,-7.208423 1.446373,-0.167549 2.953639,0.2518 4.415927,0.444501 1.379701,0.331642 2.868254,0.358706 4.177664,0.896014 0.247738,0.148524 0.48049,0.357572 0.418744,0.681705 z m -0.575068,78.344013 c -0.411657,0.98596 -1.380274,1.65176 -1.836379,2.6355 -1.997662,3.60579 -2.66221,7.7493 -3.605027,11.71359 -2.95486,13.21063 -3.164351,26.80676 -4.051041,40.25899 -1.031951,18.57758 -2.250607,37.14975 -2.789947,55.75032 -0.117699,7.22217 -0.236306,14.45677 0.152003,21.6723 0.197023,3.24192 0.991371,6.53229 2.762407,9.28575 0.452215,0.43682 1.078171,1.19591 0.429343,1.72409 -1.560249,1.30695 -3.55884,1.99009 -5.474283,2.60396 -5.68789,1.45488 -11.612466,1.04288 -17.428935,1.09898 -2.967231,-0.0217 -5.962076,-0.0144 -8.830341,-0.85442 -3.075261,-0.82755 -6.252792,-1.66355 -8.95649,-3.41186 -1.548926,-1.13654 -1.523201,-3.78704 0.05132,-4.87355 2.088654,-1.7767 4.863875,-2.40499 7.406062,-3.26167 4.679773,-1.44584 9.640723,-2.14919 14.087981,-4.2901 1.528712,-0.71521 2.736693,-2.17645 2.805526,-3.90822 0.264786,-1.37234 -0.18261,-2.76669 -1.114386,-3.79264 -2.053638,-2.68901 -5.140383,-4.52232 -6.751735,-7.55906 -0.574312,-1.03946 -0.424589,-2.39062 0.511314,-3.1587 2.484277,-2.76433 6.225123,-3.78838 9.346149,-5.64171 0.977293,-0.51772 2.168172,-1.08208 2.313422,-2.3281 0.643264,-3.32121 -0.466639,-6.65658 -1.599608,-9.74367 -0.257245,-1.12061 -0.887554,-2.28905 -0.649443,-3.45418 1.310058,-3.1398 4.609255,-5.01816 5.663019,-8.29266 0.09454,-1.61895 -1.538748,-2.59682 -2.786003,-3.25945 -4.123471,-2.15465 -9.220487,-2.0376 -12.919423,-5.05611 -1.353275,-1.03919 -1.905731,-2.96365 -1.156835,-4.5246 1.088261,-2.67067 4.115638,-3.7069 6.669083,-4.44531 4.351124,-1.19977 9.057918,-1.01058 13.251065,-2.81446 1.308935,-0.64284 2.637566,-2.04655 2.33153,-3.61343 -0.907542,-3.00364 -2.812451,-5.61019 -3.617744,-8.66066 -0.499634,-1.82706 -0.820029,-3.95046 0.04559,-5.72658 1.474928,-2.44277 4.442007,-3.45937 6.03832,-5.7914 1.116795,-1.81338 0.06958,-4.0271 -0.998329,-5.60387 -1.331623,-2.0078 -3.279327,-3.52834 -5.351538,-4.68423 -2.709715,-1.82702 -3.725168,-5.32867 -3.073207,-8.42382 0.465374,-2.99163 2.260525,-5.47289 3.769854,-8.01821 0.710692,-1.52361 -0.463646,-3.12896 -1.57464,-4.09877 -2.711595,-2.27402 -6.375483,-2.7999 -9.760701,-3.16082 -1.705023,-0.24495 -3.843236,-0.93972 -4.183467,-2.89153 -0.537524,-2.18204 0.590205,-4.50026 2.508512,-5.60325 3.636856,-2.16926 8.065477,-2.32733 12.214263,-2.34728 3.102011,-0.0148 6.328204,0.0798 9.131537,1.586 2.447997,1.23263 5.003171,2.5008 6.887121,4.55447 0.08276,0.11941 0.149323,0.26158 0.133992,0.41037 z M 94.86605,76.375085 c -0.224217,0.681251 -1.312079,0.107069 -0.788903,-0.442189 0.121946,-0.324046 0.792587,0.297447 0.788903,0.442189 z M 93.918587,39.408433 c 0.162676,-1.544269 -1.093081,-3.00969 -2.655587,-3.041854 -1.320042,-0.08254 -3.02339,0.02874 -3.659523,1.409337 -0.335154,0.829364 -1.427283,1.738494 -0.803975,2.683267 0.48009,0.660237 1.026463,1.282854 1.628606,1.826807 1.049962,0.605881 2.403733,1.103182 3.530231,0.370169 1.151077,-0.654889 1.870941,-1.941881 1.960248,-3.247726 z m -1.886554,0.292553 c 0.04905,1.408797 -2.400783,2.112239 -3.006524,0.716321 -0.693546,-1.071203 0.418927,-2.790098 1.68053,-2.241078 0.620186,0.255354 1.419936,0.748862 1.325994,1.524757 z m -5.796428,-2.253913 c 0.09346,-2.281453 -2.769894,-3.88548 -4.677569,-2.653124 -1.764218,1.02535 -1.81087,3.909367 -0.245663,5.118645 1.354723,0.885481 3.504193,0.735909 4.43303,-0.681704 0.301272,-0.542365 0.479269,-1.162864 0.490202,-1.783817 z m -0.503048,14.799278 c -1.012547,-3.300515 -2.64958,-6.37786 -3.999214,-9.54999 -3.299585,1.51122 -6.626137,2.969564 -9.984832,4.338418 -0.484119,0.297674 -1.173214,0.68338 -1.16698,1.186666 0.391421,2.433314 1.551692,4.67328 2.547049,6.906935 0.523317,0.87567 0.83482,2.022803 1.694479,2.626319 1.839004,-0.362812 3.550261,-1.267231 5.295853,-1.94335 1.840377,-0.750386 3.628721,-1.652742 5.306572,-2.700727 0.04667,-0.179164 0.309515,-0.544071 0.307073,-0.864271 z M 84.553952,37.275115 c 0.04106,1.287802 -1.85507,1.831388 -2.46831,0.697889 -0.803833,-1.126778 0.841919,-2.380429 1.868684,-1.700636 0.344163,0.206055 0.605233,0.595855 0.599626,1.002747 z M 84.025233,175.57666 c -0.545476,1.61202 -2.254032,2.41842 -3.504247,3.42793 -2.447609,1.8458 -3.918432,4.94807 -3.544503,8.02034 0.204726,3.06406 1.891307,5.70196 3.122507,8.42592 0.393235,1.06603 0.916066,2.21457 0.566857,3.34449 -1.502739,1.27442 -3.616447,1.12961 -5.438219,1.55618 -4.631857,0.70465 -9.556991,1.259 -13.537676,3.94167 -2.410377,1.57742 -3.845612,4.70305 -3.059735,7.53102 0.811462,2.34014 3.262722,3.50379 5.346936,4.48465 3.128686,1.32826 6.467998,2.05389 9.667883,3.17826 0.820753,0.36249 2.290691,0.96008 1.679958,2.12771 -0.563908,1.37248 -2.072243,1.96787 -2.91335,3.14503 -1.496915,1.77004 -2.981838,4.12274 -2.267818,6.53617 0.643296,3.3655 2.503055,6.42012 2.688831,9.8727 -0.158647,1.10408 -1.439124,1.57628 -2.224883,2.17352 -3.123003,1.75347 -6.718177,2.94495 -9.168779,5.70445 -1.518447,1.57224 -2.434308,4.21912 -1.076312,6.16478 1.139203,1.87819 3.047559,3.11548 4.535506,4.68606 1.278878,1.35937 3.120087,2.71136 3.119935,4.75951 0.07973,1.78372 -1.714541,2.73802 -3.148717,3.23714 -5.307176,1.85724 -10.984824,2.54139 -16.230742,4.61205 -0.472267,0.21683 -0.965549,0.37803 -1.45614,0.54513 0.06515,-5.64209 0.195845,-11.28 0.602997,-16.90165 0.980199,-19.32011 1.688125,-38.65792 2.994618,-57.95745 1.11981,-19.2975 1.861304,-38.61455 2.954763,-57.91346 2.091506,-0.90534 4.46327,-0.49746 6.674637,-0.49774 0.669388,0.0874 1.922531,0.008 1.882685,0.97007 0.75501,2.17651 2.571975,4.1143 4.938855,4.43527 3.35339,0.58342 7.00051,0.74015 9.900625,2.69499 0.609274,0.48173 1.23873,1.27342 0.769358,2.06856 -0.724791,1.79103 -2.212512,3.13437 -2.832341,4.99861 -1.420855,3.42236 -1.52922,7.45584 0.180579,10.79781 0.874643,1.99011 2.770391,3.22203 4.677331,4.09134 1.956704,1.25156 3.68515,3.21241 4.090779,5.55414 -0.0065,0.0618 0.0076,0.12313 0.0076,0.1848 z M 83.150351,52.160923 c -2.400827,1.104522 -4.8481,2.157605 -7.330131,3.030542 -0.877355,-0.232893 -0.814097,-1.431702 -1.245947,-2.092652 -0.510168,-1.369351 -1.174014,-2.781962 -1.575212,-4.129219 1.694251,-1.059425 3.658745,-1.651111 5.468946,-2.504232 0.706543,-0.228788 1.542756,-0.814898 2.285493,-0.545293 0.934434,1.841608 1.831625,3.787422 2.362797,5.768521 0.01955,0.156422 0.05132,0.313988 0.03403,0.472333 z m -2.679917,10.318796 c -0.56958,-0.955425 -1.891599,-1.028104 -2.828215,-1.48261 -3.716125,-1.267642 -7.49176,-2.483446 -11.38652,-3.053144 -0.502162,-0.117441 -1.086684,0.02723 -1.161297,0.623081 -1.837438,4.98609 -3.233735,10.126938 -4.675311,15.236994 0.06807,0.296831 0.323928,0.460297 0.456137,0.711297 1.80173,0.79652 3.730333,1.294166 5.590005,1.947585 2.918007,0.846337 5.847996,1.818974 8.88823,2.089594 0.914294,0.138055 0.923759,-1.044483 1.210272,-1.622534 1.460819,-4.668861 2.877081,-9.369907 3.883048,-14.159579 -0.02139,-0.161391 0.132901,-0.09594 0.02366,-0.290684 z M 80.302938,33.914044 c -0.223363,-1.005622 -1.187908,-1.664735 -1.92507,-2.30305 -0.903026,-0.64966 -1.844492,0.361515 -2.337115,1.055774 -0.861657,1.234224 0.14001,3.177207 1.635877,3.20976 0.243211,0.212981 0.599983,-0.109402 0.931819,-0.06979 0.784354,-0.236923 1.618039,-1.060042 1.694489,-1.89269 z m -2.041203,0.08038 c -0.09345,0.894642 -1.503851,0.0672 -0.761535,-0.396963 0.338718,-0.294886 0.817792,-0.05489 0.761535,0.396963 z m -0.15856,29.637645 c -0.928081,4.257312 -2.282728,8.419635 -3.589988,12.577744 -2.151847,-0.05445 -4.159546,-1.016252 -6.23933,-1.489244 -1.639594,-0.554864 -3.466768,-0.867016 -4.867786,-1.952209 -0.418841,-0.687161 0.09443,-1.577686 0.157081,-2.321514 0.868096,-3.34895 1.860504,-6.699519 3.44181,-9.779998 0.314333,-0.712053 1.203066,-0.0484 1.752971,-0.06385 3.171849,0.777655 6.41024,1.43477 9.372598,2.855959 l -0.02226,0.141177 z M 76.169732,40.989566 c -2.904394,-2.919563 -5.562023,-6.175327 -8.965468,-8.531641 -0.477637,-0.69454 -0.901707,0.550727 -1.46891,0.70462 -3.308975,2.559193 -6.240044,5.600637 -8.955356,8.765981 -0.119428,0.304794 -0.521685,0.492482 -0.249033,0.768937 1.302506,2.061795 3.177369,3.701075 4.862956,5.445771 1.221324,1.164268 2.442476,2.390174 3.866313,3.28796 3.547668,-2.628404 6.506979,-5.982928 9.690205,-9.033674 0.330561,-0.458363 1.221324,-0.951125 1.219293,-1.407954 z m -6.83995,4.028817 c -1.345788,1.377022 -2.71824,2.726256 -4.161113,4.002001 -2.135155,-2.16183 -4.270137,-4.323822 -6.405011,-6.485955 2.519348,-2.42802 4.911175,-5.003798 7.51057,-7.339076 0.327591,-0.374794 0.775646,-0.389768 1.079792,0.03166 1.974768,1.937764 4.135961,3.725147 5.949305,5.802759 -1.324493,1.329527 -2.649018,2.659066 -3.973543,3.988604 z M 51.108584,146.44987 c -1.510787,27.55215 -2.681376,55.12271 -4.138446,82.67812 -0.715877,13.21865 -1.309291,26.44763 -2.222916,39.65234 -0.304729,2.54399 -0.237236,5.25027 -1.428255,7.58407 -0.572951,1.13802 -1.658436,2.18918 -3.034983,2.00603 -0.673828,0.0689 -1.580711,-0.26582 -1.337133,-1.11467 2.082906,-35.23837 3.957812,-70.49106 6.074481,-105.72841 0.571655,-9.36728 1.062905,-18.74288 1.550752,-28.11242 0.154649,-1.02305 0.215563,-2.08792 0.607643,-3.05573 1.440841,0 2.881651,0 4.322482,0 -0.131205,2.03022 -0.262409,4.06044 -0.393625,6.09067 z M 50.091899,55.6074 c -0.0054,0.572897 0.0076,1.145264 -0.05532,1.707325 -5.906047,0.444533 -11.903711,0.562384 -17.672124,2.026228 -2.67323,0.869965 -5.43595,1.972661 -7.429183,4.024247 -0.64066,0.535719 -0.646894,1.947336 0.336655,2.057387 0.915062,-0.0108 1.172047,-1.134169 1.963608,-1.406302 2.121757,-1.219218 4.316918,-2.403268 6.693652,-3.018906 0.830271,-0.09778 0.720383,1.140554 0.762098,1.685003 -0.203074,3.926989 -1.291336,7.78763 -2.353073,11.56052 -0.870517,2.995526 -2.341427,6.061916 -5.119424,7.730411 -1.425629,1.062234 -3.498758,1.51996 -5.068946,0.452787 -3.512011,-2.339016 -5.538574,-6.276615 -6.944789,-10.144246 -2.055831,-5.794126 -1.888865,-12.056739 -1.753112,-18.128196 0.283056,-5.622515 0.644528,-11.301956 2.196306,-16.738987 0.910621,-2.744515 2.022241,-5.520049 3.846239,-7.798552 1.411368,-1.525762 3.645888,-2.323945 5.66021,-1.741951 2.933619,0.618295 5.361607,2.686054 6.777719,5.287134 2.543678,4.79878 3.016745,10.409227 2.688517,15.755795 -0.08578,0.551192 -0.08351,1.740039 -0.961962,1.499076 -2.769797,-0.413936 -5.353688,-1.813377 -7.368669,-3.746301 -0.426534,-0.32933 -1.297828,-1.064893 -1.716259,-0.3562 -0.433276,1.248281 0.769898,2.307664 1.604059,3.053901 2.192924,1.834283 4.910148,3.041573 7.773476,3.269183 3.600144,0.400474 7.218817,0.636154 10.841865,0.605719 1.760199,0.05921 3.520366,0.118294 5.280566,0.177435 0.04051,0.726196 0.0065,1.458939 0.01783,2.18749 z m -5.81151,87.42279 c -0.180774,8.33522 -0.857865,16.65136 -1.26735,24.9773 -1.174306,20.48024 -2.074728,40.97734 -3.580653,61.43651 -1.090002,16.43515 -1.628649,32.90733 -2.907009,49.32898 -1.436434,0.1722 -2.9949,0.49671 -4.388344,-0.0139 -0.563108,-0.72374 -0.04116,-1.75969 -0.131172,-2.59939 2.067121,-30.30776 3.383608,-60.66371 5.375004,-90.97591 0.964977,-12.63646 1.580625,-25.29681 2.441061,-37.93788 0.26147,-2.05665 0.183054,-4.27691 1.141516,-6.15578 0.603785,-0.90664 1.90089,-0.77058 2.834556,-0.65435 0.6244,0.63695 0.385824,1.7865 0.482391,2.5945 z m -6.352503,-2.02502 c -0.133549,3.13651 -0.51798,6.26454 -0.648039,9.40488 -1.501388,24.39034 -2.57366,48.80659 -4.378339,73.17615 -1.20244,18.13445 -1.957525,36.30079 -3.22937,54.4292 -0.160473,0.47092 0.19819,1.51885 -0.605612,1.37995 -5.435442,0.44999 -10.92377,0.6916 -16.352212,0.92863 -0.681791,-1.39796 -0.402138,-3.03707 -0.481267,-4.55028 1.991882,-34.36631 3.737507,-68.75483 5.440164,-103.13979 0.563594,-10.10424 0.989923,-20.21995 1.824105,-30.30441 0.07044,-0.48059 0.898197,-0.2091 1.237769,-0.38078 5.707208,-0.59643 11.45989,-0.71441 17.192801,-1.03232 z"
       style="opacity:1;fill:#000000;stroke-width:0.6402905" />
  </g>
</svg>
