<?xml version="1.0" encoding="UTF-8" standalone="no"?>
<svg
   xmlns:dc="http://purl.org/dc/elements/1.1/"
   xmlns:cc="http://creativecommons.org/ns#"
   xmlns:rdf="http://www.w3.org/1999/02/22-rdf-syntax-ns#"
   xmlns:svg="http://www.w3.org/2000/svg"
   xmlns="http://www.w3.org/2000/svg"
   id="svg8"
   version="1.1"
   viewBox="0 0 210 297"
   height="297mm"
   width="210mm">
  <title
     id="title929">Knight on Horse</title>
  <defs
     id="defs2" />
  <metadata
     id="metadata5">
    <rdf:RDF>
      <cc:Work
         rdf:about="">
        <dc:format>image/svg+xml</dc:format>
        <dc:type
           rdf:resource="http://purl.org/dc/dcmitype/StillImage" />
        <dc:title>Knight on Horse</dc:title>
        <dc:date>2020-04-10</dc:date>
        <dc:creator>
          <cc:Agent>
            <dc:title>Nata Silina</dc:title>
          </cc:Agent>
        </dc:creator>
        <dc:source>http://www.supercoloring.com/coloring-pages/cartoon-knight-on-horse</dc:source>
        <dc:subject>
          <rdf:Bag>
            <rdf:li>csk</rdf:li>
            <rdf:li>knight</rdf:li>
            <rdf:li>horse</rdf:li>
          </rdf:Bag>
        </dc:subject>
      </cc:Work>
    </rdf:RDF>
  </metadata>
  <g
     id="layer1">
    <path
       id="path840"
       transform="scale(0.26458333)"
       d="m 326.23633,106.48633 v 0.004 c -0.0705,9.3e-4 -0.14082,0.0163 -0.21289,0.0352 -0.0669,0.007 -0.1373,0.0386 -0.20703,0.0801 -0.0287,0.014 -0.0571,0.0246 -0.0859,0.041 -0.0631,0.0287 -0.12731,0.0636 -0.19141,0.11133 -2.43334,0.20625 -3.26927,1.61019 -3.28906,5.35938 -0.0159,2.97035 -1.3292,23.51562 -2.91797,45.6582 -1.50277,20.94414 -2.74401,58.53404 -2.88867,86.11133 -0.0672,4.55393 -0.11184,8.87219 -0.10742,12.57422 0.0125,10.37056 -0.037,19.56649 -0.11719,26.98633 -0.10738,8.28208 -0.25784,14.28569 -0.43945,15.48242 l -7.73828,-4.12891 c -6.63747,-3.54183 -10.62185,-4.31553 -25.62305,-4.375 -3.37611,-0.11709 -6.83622,-0.0958 -10.2793,0.0547 -13.26275,0.24593 -19.12121,1.29142 -27.79492,4.53515 -14.64425,5.47658 -25.97958,5.12378 -55.06055,-1.70898 l -20.07422,-4.7168 -19.09375,5.51563 c -5.56634,1.60782 -9.51523,2.7362 -13.55664,3.52539 -3.36858,0.58456 -6.89801,1.00874 -10.90429,1.29102 -6.86621,0.39133 -16.5329,0.35758 -32.048831,0.15624 -6.91143,-0.19628 -14.835464,-0.48449 -24.175781,-0.85742 -33.566955,-1.34022 -37.347969,-1.38444 -37.748047,1.45899 -0.813302,0.16293 -1.301174,0.34424 -1.371094,0.54883 -0.382784,1.11974 3.696888,6.96577 9.066406,12.99023 l 9.763672,10.95313 -5.025391,4.68554 c -5.721894,5.33671 -13.771088,20.29047 -14.392578,26.46875 -0.02347,0.19408 -0.06055,0.40512 -0.06055,0.57031 0,0.0249 0.0073,0.0457 0.0078,0.0703 -4.03e-4,0.0287 -0.0078,0.0658 -0.0078,0.0937 v 0.002 0.002 c 1.1e-4,0.30108 0.01379,0.5845 0.04297,0.84961 -0.01172,0.11634 -0.04297,0.25704 -0.04297,0.35742 0,0.0897 0.06016,0.17012 0.160157,0.24414 0.87346,3.43605 6.188968,3.11405 31.261718,-0.53515 24.273445,-3.53266 67.951159,-4.13686 80.517579,-1.11328 11.57661,2.78569 31.68061,2.77764 45.78906,-0.01 8.62107,-0.51147 17.92361,-0.53086 27.92188,-0.084 0.5578,0.0733 1.05808,0.13111 1.64062,0.21094 24.9265,3.41485 33.46997,3.24938 49.78321,-0.9629 15.23091,-3.93275 26.33345,-2.94529 42.40429,3.76954 l 7.0879,2.96093 0.26757,36.64063 0.11719,39.625 c 0.0865,29.14443 0.0672,54.68934 -0.0234,68.74219 -0.0486,2.35029 -0.10018,4.51941 -0.1582,6.39062 -0.32908,5.03883 -0.81547,8.17405 -1.51367,10.65625 -4.29137,12.56362 -16.20922,18.70177 -19.70117,31.25977 -2.20463,8.82288 9.34737,6.82129 8.12304,10.24023 -0.627,1.63397 0.007,4.35229 1.40821,6.04102 0.1957,0.23584 0.35841,0.45026 0.51562,0.66211 -0.15246,1.63286 -0.48712,3.19876 -1.02539,4.5039 -1.43073,1.5001 -3.66666,4.94611 -5.45703,8.51172 -1.80387,3.59259 -2.75506,5.44039 -3.13867,5.73047 -0.0617,-0.57562 -0.0681,-1.22469 -0.0117,-1.91211 0.0979,-0.60438 0.21789,-1.30114 0.37891,-2.17969 0.69019,-3.76649 -0.077,-8.4259 -2.00196,-12.14844 -5.51788,-8.24071 -0.88151,-9.74788 0.19873,-11.81567 0.61871,-2.53321 -6.8042,-11.56518 -6.8042,-11.56518 -0.22605,-0.60919 0.38145,-2.00665 1.76172,-4.2168 2.19832,-3.51988 1.68243,-5.16288 -4.17578,-13.32031 -4.24726,-5.91432 -5.82569,-9.5889 -4.33398,-10.08594 2.10701,-0.70235 2.69847,-2.61401 1.9414,-5.13477 0.17125,-1.68011 -0.98431,-3.33607 -3.92187,-6.44726 -0.003,-0.003 -0.007,-0.008 -0.01,-0.0117 -0.31774,-0.36321 -0.6521,-0.72867 -1.0039,-1.0957 -4.70943,-4.91558 -5.03899,-6.05902 -2.78516,-9.66797 2.27137,-3.63704 1.88274,-4.78834 -3.49609,-10.33789 -3.32897,-3.43465 -6.05274,-8.04058 -6.05274,-10.23633 0,-2.48213 -3.3434,-6.39398 -8.83789,-10.33985 -3.00184,-2.15576 -5.65873,-4.54619 -7.25781,-6.42382 -0.9918,-1.23568 -1.58008,-2.22765 -1.58008,-2.77735 0,-0.17575 -0.0598,-0.38227 -0.16992,-0.61328 -0.0128,-0.0265 -0.0363,-0.0599 -0.0508,-0.0879 -0.8458,-1.79297 -4.16814,-4.88941 -8.125,-7.46289 -3.48929,-2.26949 -7.25328,-5.05482 -9.57422,-7.03711 -0.39351,-0.65133 -1.26712,-1.44165 -2.43164,-2.28906 -2.09123,-1.87435 -6.48247,-4.81597 -10.49219,-6.98633 -6.61186,-3.5788 -8.58761,-3.99352 -11.01172,-2.15039 -0.2705,0.17083 -0.54106,0.36284 -0.82031,0.58984 -0.2496,0.20296 -0.45266,0.36282 -0.66211,0.52735 -0.49379,-0.0302 -0.84951,-0.14288 -1.03125,-0.37891 0.1533,-0.66595 0.51169,-1.70046 1.10156,-3.25195 3.47475,-9.13924 2.45829,-27.94969 -1.98047,-36.65039 -3.97016,-7.78216 -11.75936,-13.88779 -19.02734,-15.25586 -0.51247,-0.11452 -1.01578,-0.19879 -1.50391,-0.24414 -0.81631,-0.16668 -1.54037,-0.18241 -2.19726,-0.043 -5.63922,0.0703 -5.86482,1.62195 -8.65821,31.36328 -2.28562,24.33536 -1.83071,23.32957 -18.47265,40.79492 -1.11834,1.1737 -2.12197,2.19477 -3.06445,3.12695 -3.78692,3.38567 -6.80931,5.58937 -9.03321,6.57227 -1.35943,0.44232 -2.73883,0.61133 -4.32812,0.61133 -8.59026,0 -17.1909,8.44243 -20.3086,19.93359 -2.12182,7.82064 -5.07159,10.74677 -34.904296,34.63281 -45.699148,36.5898 -48.519938,38.82777 -46.324219,41.38477 0.27916,0.59441 0.893855,1.06473 1.853516,1.41797 0.10145,0.0469 0.198391,0.0941 0.30664,0.13867 0.192635,0.0892 0.405727,0.16899 0.652344,0.23438 1.921631,0.63768 4.564608,0.95167 7.042969,0.73828 1.144811,-0.0987 2.040223,-0.15071 2.833984,-0.17188 2.682425,0.22337 3.608603,0.89521 3.884766,2.86328 0.0359,0.33563 0.06968,0.67604 0.08594,1.08789 0.0068,0.14589 0.0099,0.31596 0.01367,0.47266 0.01323,0.51874 0.02036,1.05515 0.02148,1.69336 0.03061,18.24695 9.523886,32.65076 22.574218,34.25195 10.296824,1.26335 20.226672,-4.63728 21.902344,-13.01562 0.774622,-3.87311 2.622732,-6.24092 5.351564,-6.85547 16.90949,-3.80799 90.58308,-14.48424 91.65039,-13.28125 3.15115,3.5517 6.08337,16.37247 7.16601,31.33203 0.0265,0.36283 0.0355,0.776 0.0586,1.14844 -0.0367,4.39982 -0.16129,9.6536 -0.35938,16.1582 -0.16558,5.43783 -0.33854,10.41336 -0.5332,15.14453 -2.2614,26.5753 -7.99403,65.00547 -17.96289,121.34375 -9.75602,55.13541 -12.79745,76.23099 -11.23047,77.9043 0.0159,0.0151 0.0585,0.0342 0.0781,0.0508 0.007,0.10696 0.02,0.18398 0.043,0.20703 0.0709,0.0711 0.39018,0.15293 0.88086,0.24024 0.0488,0.0612 0.10009,0.11171 0.15625,0.14648 0.19091,0.11792 0.76828,0.2468 1.5586,0.38086 1.93504,0.4998 4.99852,0.91244 9.4375,1.28125 6.90256,0.75179 16.47114,1.49299 28.20507,2.16016 21.01513,1.19459 38.69065,2.95181 39.2793,3.90429 0.58867,0.95248 7.11731,43.12978 14.50781,93.72656 7.39052,50.59688 14.8107,97.51674 16.49024,104.26754 l 3.05468,12.2734 h 0.0801 11.31836 0.99024 10.33007 l 0.38868,-52.04094 0.46093,-31.67187 c 0.6495,-44.67761 1.57016,-81.75163 2.08399,-84.375 1.02434,-0.24454 5.11944,-0.352 11.21484,-0.3418 9.98559,0.18671 25.64849,0.69292 43.19922,1.4336 29.39889,1.2407 54.19162,1.51737 55.09375,0.61523 0.27439,-0.27439 0.13185,-1.28748 -0.28125,-2.73633 3.8e-4,-0.002 -3.4e-4,-0.004 0,-0.008 0.0227,-0.0979 0.0376,-0.19962 0.041,-0.30469 1.5e-4,-0.0113 0.004,-0.0219 0.004,-0.0332 v -0.0195 -0.0117 c 0,-1.44563 -0.50819,-2.88586 -1.17773,-3.46484 -0.0934,-0.0809 -0.19042,-0.14291 -0.28906,-0.1875 -1.28788,-3.21615 -3.15174,-7.24794 -5.39258,-11.51563 -4.80495,-9.1511 -8.76469,-17.30122 -8.79492,-18.11133 -0.0302,-0.80337 18.51239,-1.45978 41.31054,-1.4707 h 1.27539 41.2168 l 7.7832,5.63867 c 1.27835,0.92602 2.55081,1.94524 3.81446,3.04297 l 3.6582,3.6582 c 1.7407,1.74067 3.40063,3.50983 4.98633,5.31641 0.008,0.008 0.0159,0.014 0.0234,0.0254 9.44743,11.43209 17.65276,26.97421 22.41992,43.19727 2.87123,9.77098 4.83273,26.04258 5.75195,46.39257 0.0896,8.8941 0.10616,20.10471 0.10352,34.61719 l -0.004,21.81052 -1.33594,40.541 h 1.32813 1.6914 v 0.2051 l 2.37891,-0.2051 h 4.20508 0.0176 0.2246 7.87891 l 0.14258,-0.5078 c 0.19049,-0.057 0.32422,-0.1173 0.32422,-0.1797 0,-0.042 0.18871,-0.8203 0.27148,-1.1855 0.70277,-0.7423 1.21133,-1.7695 1.75196,-3.1914 4.34214,-11.4207 13.87609,-53.01639 17.57617,-76.6836 2.17406,-13.905 5.92528,-35.25113 8.33594,-47.43164 1.28312,-6.4834 2.1365,-11.2039 2.6289,-14.7793 l 1.5332,-7.3457 -1.51367,-2.01563 c -0.1886,-0.52686 -0.42411,-0.98456 -0.71679,-1.38867 -0.008,-0.008 -0.01,-0.0198 -0.0176,-0.0273 -0.30236,-1.18545 -0.79226,-1.90828 -1.48047,-2.20508 -2.80252,-4.48354 -4.67599,-9.50268 -5.63281,-14.67969 -0.10545,-2.07621 -0.15039,-4.47663 -0.15039,-7.44141 0,-3.70631 0.0861,-6.58076 0.27734,-9 0.71509,-3.46658 1.85969,-6.83055 3.48047,-9.96484 l 1.81054,-3.49805 c 0.98986,-1.1611 2.00042,-1.96908 3.61719,-2.56054 l 24.01758,-0.54492 26.33984,-0.59766 -6.37304,-105.18945 c -0.64967,-6.53734 -1.23044,-12.29509 -1.5918,-15.64258 -0.30992,-4.30625 -0.56478,-8.08 -0.61523,-9.8125 0.27174,-1.10283 0.85394,-1.69462 1.84765,-1.75196 2.07451,-0.11981 5.90426,2.02871 12.24805,6.40039 14.00746,9.65299 19.40988,21.26647 19.30859,41.50391 -0.0593,11.86553 -1.41318,19.70712 -5.47851,31.7168 -11.08437,30.23323 -25.18669,69.74433 -12.23047,95.60351 8.37577,21.99606 38.33359,38.73399 83.57812,31.63672 0,-0.60162 -2.74147,-5.07772 -6.09179,-9.94726 -4.48649,-6.52086 -12.68321,-23.64741 -14.91797,-30.64649 -0.33903,-1.33961 -0.4359,-2.27691 -0.16211,-2.55078 0.0499,-0.0499 0.12848,-0.0812 0.2207,-0.10351 1.11723,0.28346 3.56678,1.51149 6.4082,3.26757 8.73396,5.39789 30.63532,7.33474 38.0918,3.36914 2.99993,-1.59545 4.67944,-3.12669 5.00977,-4.70703 0.48484,-1.04039 0.15266,-2.07403 -1.00391,-3.08203 -1.38837,-1.68208 -4.13904,-3.48239 -8.29883,-5.51562 -20.11438,-9.83165 -23.17579,-29.23589 -11.3125,-71.68164 5.15585,-18.44727 6.35005,-25.01457 6.61719,-41.35547 0.58564,-6.83603 0.58189,-12.86426 0.0137,-18.49024 -0.002,-0.0302 -0.002,-0.0556 -0.006,-0.084 -0.23508,-12.10027 -1.27001,-15.78299 -4.94726,-23.62305 -7.32465,-15.61625 -15.86421,-24.36236 -31.34961,-32.10937 -9.16468,-4.58491 -18.32841,-7.71905 -27.3125,-9.4043 -5.24323,-1.04043 -10.56334,-1.60156 -15.84961,-1.60156 -1.27472,0 -2.74313,0.10537 -4.33594,0.28906 -9.25447,0.58299 -18.13978,2.85524 -26.42969,6.83398 l -1.13281,0.54297 c -0.86181,0.37758 -1.62819,0.74982 -2.32812,1.11719 l -8.19922,3.93555 c -0.24794,-0.27099 -0.52982,-0.62574 -0.84375,-1.06836 l -4.57032,-9.95899 c -7.54399,-16.43542 -20.61352,-27.3794 -39.11718,-32.75586 -8.10871,-2.35608 -16.13078,-4.2832 -17.82813,-4.2832 -1.05849,0 -1.76686,-1.07631 -2.26758,-5.36328 l -0.87695,-52.57031 -0.14062,-8.47266 c 0.24491,-25.11394 0.0431,-38.60203 -0.74414,-44.59375 l -0.0977,-5.84766 v -0.002 -0.002 l -10.59375,-0.26563 -11.26172,-0.28711 -21.85547,-0.55273 -0.47656,-5.69141 v -2.46679 c 0,-10.40251 -6.50148,-23.87652 -14.4375,-29.91602 -3.39984,-2.58739 -10.86194,-5.88674 -16.58203,-7.33203 l -9.28516,-2.3457 c 0.0416,-0.40967 0.34203,-0.8809 0.89063,-1.43555 l 10.74414,-6.17969 c 23.87372,-13.73095 32.66687,-27.62538 32.52929,-51.40039 -0.0378,-6.55835 -1.33263,-17.66864 -2.87695,-24.68945 -3.81687,-17.35179 -3.76073,-32.29016 0.13672,-36.1875 1.67142,-1.67141 4.06781,-2.92929 6.96875,-3.7832 5.14836,-0.94885 12.13169,-1.22315 18.79492,-0.78907 7.13998,0.95766 14.67535,3.12668 21.40235,6.4961 14.92452,7.47545 20.88259,17.9713 21.0625,37.09961 0.0998,10.6024 -0.92693,14.75596 -6.13868,24.86132 -1.72887,3.35226 -3.29818,6.69924 -4.43359,9.38868 -0.3258,0.54599 -0.60516,1.0511 -0.82422,1.50586 -0.73134,1.1673 -1.00092,2.07596 -0.81055,2.92382 -0.11263,0.41794 -0.1875,0.77057 -0.1875,0.98438 0,8.13267 20.22284,-2.89225 32.04297,-17.46875 9.61554,-11.85789 14.95296,-23.36795 18.3125,-39.48047 4.57161,-15.97886 -4.45978,-42.25766 -12.55859,-50.48828 -9.91034,-10.89045 -21.67562,-16.0455 -36.97852,-16.18945 -13.89819,-0.13074 -13.28979,-1.68285 2.50391,-6.38282 3.51711,-1.04665 6.23037,-1.64768 8.70313,-1.8789 0.35714,-0.0117 0.71702,-0.0367 1.07226,-0.041 1.42401,-0.017 2.82089,0.0417 4.18945,0.14258 1.26705,0.17631 2.56751,0.44892 3.99024,0.83203 29.64219,10.94784 28.24409,34.98029 37.65039,55.39648 0.50419,-0.73135 1.02764,-1.53354 1.58398,-2.47656 0.96042,-1.49157 2.01728,-3.50184 3.21289,-6.02148 4.66235,-9.47365 9.81634,-22.82242 12.07227,-32.44336 5.73411,-24.45448 0.60505,-43.17836 -15.42578,-56.31445 -9.98926,-8.18542 -18.49177,-12.61223 -29.13477,-14.5918 -2.70686,-0.68613 -5.47019,-1.03829 -8.77539,-1.20899 -0.41208,-0.0687 -0.8233,-0.14136 -1.23633,-0.20312 -4.67297,-0.70075 -9.37794,-0.60005 -14.00586,0.21094 -7.84826,0.32334 -11.12026,1.51574 -17.25976,5.125 -11.21087,6.59057 -20.54568,17.02776 -26.26172,29.36523 -4.54964,9.81997 -6.88788,10.4304 -6.92187,1.80469 -0.034,-8.83417 -8.83674,-24.5112 -18.57813,-33.08594 -10.3163,-9.08075 -18.18167,-11.42798 -31.96289,-9.53906 -24.56504,3.36702 -47.44123,29.36601 -52.48047,59.64453 -0.74305,4.46464 -0.48818,7.17823 0.57617,8.10156 l -0.10937,1.22852 0.91601,-0.88086 c 1.5521,0.15606 4.03848,-1.8769 7.2168,-6.17578 6.18161,-8.36103 18.32766,-13.46895 32.15234,-13.52149 0.0597,-2.1e-4 0.11609,0.002 0.17578,0.002 2.73922,0.0383 5.46537,0.19415 8.0254,0.46289 7.94951,1.0195 13.67969,3.76485 17.50586,8.54687 1.76188,2.57025 3.24501,5.59974 4.39062,8.86914 1.17902,4.13264 1.7404,9.04469 1.74414,14.8125 0.008,10.10567 -0.77907,12.95234 -4.72656,17.1543 -6.77522,7.21171 -14.58973,7.98362 -30.58008,3.02148 -5.43175,-1.68561 -9.89891,-2.69319 -13.95703,-3.13672 -5.32071,-0.82949 -9.44391,-0.73557 -12.03516,0.30079 -5.88536,0.5267 -7.16573,-0.25077 -9.6914,-4.10547 -1.52346,-2.32505 -3.61335,-4.08261 -5.01563,-4.32422 l -0.94336,-1.05664 -6.2832,5.79687 c -12.91744,10.59275 -39.49699,35.48796 -39.5,37.67774 -0.002,1.4109 3.97537,4.32455 8.83594,6.47461 4.86057,2.1501 8.83593,4.59977 8.83593,5.44336 0,0.84363 -3.09261,9.41335 -6.87304,19.04296 -8.93167,22.75095 -8.89143,24.40821 0.58789,24.40821 7.43395,0 7.458,0.0265 6.77734,7.36523 -1.29161,13.92412 -2.3867,16.13678 -9.7168,19.64063 -3.95163,1.88885 -7.52106,4.47615 -7.93359,5.75 -1.07767,3.32761 29.14668,17.76108 42.83008,20.45312 l 11.24023,2.21289 c 0.004,0.0986 -0.009,0.20201 -0.0312,0.3086 l -6.97851,5.08593 c -17.8105,12.98408 -31.65609,33.60349 -38.48828,57.31836 -4.77528,16.5752 -4.31101,20.88641 2.44531,22.7168 4.95519,1.34245 5.43156,2.09858 3.89844,6.19922 -1.5402,4.11968 -2.61288,4.52836 -9.08203,3.45898 -4.034,-0.66686 -10.06338,-1.22303 -13.4004,-1.23437 -0.22439,-7.9e-4 -0.41632,-0.0178 -0.6289,-0.0254 -2.4075,-0.49281 -4.24077,-1.07588 -5.55274,-1.76953 -0.83085,-0.75345 -1.50367,-1.77734 -2.12304,-3.13672 -1.9758,-4.33644 -1.78352,-4.90822 1.64843,-4.9082 2.09873,0 3.36584,-1.22452 3.7461,-2.90626 l 0.38086,-0.0391 -0.3086,-0.41211 c 0.26389,-2.05685 -0.69255,-4.64813 -2.99218,-6.55664 -1.68245,-1.39631 -5.29354,-6.35211 -8.02539,-11.01367 -10.51736,-17.9424 -10.46512,-17.04144 -10.52344,-182.32617 -0.0395,-111.7648 -0.83744,-165.92524 -2.94922,-200.31445 -1.59189,-25.92304 -2.90235,-47.79538 -2.91406,-48.60547 -0.009,-0.61939 -1.05291,-1.15043 -2.50782,-1.36719 -0.1418,-0.0318 -0.30809,-0.0405 -0.46484,-0.0566 -0.0352,-0.008 -0.0699,-0.0193 -0.10547,-0.0234 -0.19759,-0.14366 -0.4014,-0.21435 -0.61328,-0.2207 -0.0745,-0.0208 -0.15037,-0.0324 -0.22656,-0.0312 z m 0.41406,80.67773 c 0.0128,0.005 0.0246,0.028 0.0371,0.0703 0.0498,0.16707 0.10016,0.6318 0.15039,1.35937 0.42259,11.52073 0.80143,32.62952 1.11133,61.72852 0.14041,24.13536 0.2207,53.18348 0.2207,88.10546 0,67.55835 0.29496,117.36527 0.85742,147.53516 l 0.125,42.00391 4.49219,9.74609 c 0.0686,0.14891 0.14477,0.30162 0.21485,0.45117 0.9607,2.7066 2.11881,4.72393 3.51562,6.77735 1.52871,2.69537 2.9884,4.97644 3.93945,6.02734 0.8079,0.89269 1.36331,1.66218 1.64453,2.21875 -0.76441,0.22299 -2.0524,0.42127 -3.63086,0.59766 -3.66521,-0.23585 -9.78823,-0.52896 -16.59179,-0.77149 l -16.11914,-0.57422 c -0.71325,-0.45346 -0.99901,-0.98813 -0.83789,-1.62109 l 1.83008,-2.28125 c 1.36852,-1.13843 2.7928,-2.93375 4.21289,-5.2207 4.52609,-5.50179 7.28433,-8.66299 8.97851,-20.14844 l 0.4961,-1.09375 v -0.002 l 0.0156,-2.91602 c 0.0117,-0.10696 0.0234,-0.22747 0.0352,-0.33594 2.44822,-10.56476 2.87046,-35.59607 2.89062,-166.7832 0.002,-0.31079 0.002,-0.50648 0.004,-0.81836 0.53162,-91.43941 1.60689,-164.37356 2.4082,-164.05469 z m 149.50977,55.15235 c 4.74141,0.0765 9.09423,0.7697 11.70312,2.10742 27.33237,14.01486 33.37877,58.96521 12.09375,89.9082 -1.50637,2.18991 -2.62839,4.02875 -3.41797,5.52539 -0.82877,0.78198 -1.4414,1.9937 -1.4414,2.98242 0,0.20119 0.0376,0.35135 0.0996,0.46485 -0.22829,2.02273 2.2406,0.83681 7.07031,-4.36133 6.32988,-6.81275 11.83611,-17.54172 16.81836,-32.76953 4.23768,-12.95213 10.62546,-26.63346 16.53906,-36.10352 2.90937,-4.2367 5.95516,-7.98971 9.0625,-11.15429 3.79427,-3.10509 9.62319,-6.98409 13.69336,-9.06055 18.31676,-9.34434 51.98253,0.75255 65.25976,19.57422 4.50747,6.38973 6.81965,14.42931 6.91407,23.75195 0.008,0.77865 -0.0153,1.57474 -0.0391,2.37109 -0.0189,0.55366 -0.0416,1.11025 -0.0703,1.66993 -0.0416,0.75527 -0.0816,1.51114 -0.15039,2.28125 -0.002,0.0268 -0.003,0.053 -0.008,0.0801 -7.2e-4,0.009 -9.5e-4,0.0183 -0.002,0.0274 -0.49739,5.47832 -1.67726,11.32513 -3.54688,17.48047 l -4.02734,13.25781 c -0.15345,0.2527 -0.29746,0.44518 -0.4336,0.56836 l -4.5,-11.07227 c -7.39853,-18.20369 -20.1343,-29.06278 -35.38281,-30.34179 -0.73636,-0.0869 -1.45696,-0.14844 -2.13867,-0.14844 -0.22828,0 -0.46742,0.0193 -0.69922,0.0254 -0.10318,-6.3e-4 -0.20541,-0.006 -0.30859,-0.006 -10.07743,0.0227 -25.62811,6.80972 -34.32813,14.98242 -3.38162,3.17667 -11.33427,9.68545 -17.67383,14.46289 -7.10505,3.97986 -15.08959,16.084 -4.92187,8.125 13.96762,-10.93228 25.85736,-16.7453 37.14844,-17.76367 0.5111,-0.0132 1.01339,-0.0348 1.54101,-0.0352 1.79498,-7e-4 3.69055,0.0713 5.73047,0.20118 1.28111,0.0816 2.52293,0.21842 3.74609,0.38086 4.40304,0.8428 8.78768,2.42107 13.24805,4.73828 12.45086,6.46831 22.11701,19.40414 24.30078,32.41015 0.0654,0.42858 0.1378,0.85388 0.19336,1.28711 0.004,0.0392 0.006,0.0798 0.0137,0.11914 0.0745,0.59328 0.1339,1.19364 0.18946,1.79492 0.87613,11.12795 -2.41203,26.63827 -8.29883,38.45313 -2.69087,5.4006 -7.56099,12.91292 -10.82227,16.69336 l -2.45898,2.85156 c -1.43312,1.44503 -2.48535,2.41314 -3.17969,2.90039 l 1.22656,-4.76953 c 0.83384,-3.24038 1.4533,-11.65282 1.37696,-18.69336 -0.12586,-11.62723 -3.14062,-21.74045 -8.53907,-29.91992 -0.004,-0.009 -0.01,-0.0167 -0.0176,-0.0254 -1.2533,-2.01046 -2.6423,-3.79148 -4.21485,-5.43555 -18.57929,-14.32973 -72.24635,-26.79393 -77.13086,1.60157 -0.68216,4.26623 0.43451,15.09437 2.67774,25.96679 5.27486,25.56628 5.05157,37.12658 -0.94336,48.95703 -2.23423,4.40905 -4.83017,8.16858 -8.30469,11.72266 -0.36472,0.35792 -0.71551,0.71739 -1.09766,1.07422 -0.0227,0.0189 -0.041,0.0405 -0.0625,0.0605 -0.008,0.008 -0.0157,0.012 -0.0195,0.0195 -1.90783,1.77411 -4.06316,3.53903 -6.4375,5.31836 -5.27285,3.82635 -12.0006,7.72987 -20.95117,12.30468 -8.60579,4.39862 -13.54281,6.66791 -18.125,7.80078 -2.68441,0.32089 -5.76811,0.45499 -9.87695,0.57813 -2.50662,0.0752 -4.65303,0.0849 -6.67969,0.0527 -15.71153,-2.02888 -44.99057,-11.2509 -40.92187,-13.49609 1.33855,-0.7386 17.24406,-6.82888 35.34765,-13.53516 32.76019,-12.13572 32.94811,-12.17932 39.69336,-8.97851 8.27584,3.92715 15.40733,2.48103 20.6543,-4.18946 9.6528,-12.27153 5.87218,-28.10965 -7.67969,-32.16992 -6.74653,-2.02129 -9.96071,-5.49214 -26.5,-28.60937 -10.3525,-14.46992 -18.82422,-27.16651 -18.82422,-28.21485 0,-3.25059 7.10674,-2.13531 25.64453,4.02344 21.30418,7.07796 29.21691,6.08263 38.85157,-4.89062 11.39788,-12.98151 10.19542,-38.66345 -2.49805,-53.34766 -5.50908,-6.37305 -6.52149,-7.38506 -16.82422,-7.96484 -2.84383,-0.40512 -6.00542,-0.6007 -9.5957,-0.60157 -3.61648,-8.8e-4 -6.84018,0.13546 -9.78125,0.42383 -12.59535,0.94367 -20.79443,4.60119 -26.72266,11.64649 -6.5331,7.76419 -6.2883,3.48683 0.63281,-11.0918 5.46199,-11.50512 17.10269,-24.0468 27.27344,-29.8125 3.64437,-1.77586 7.43184,-3.05988 11.29297,-3.79883 3.09604,-0.4852 6.41057,-0.71489 9.56055,-0.66406 z m -305.42578,53.97851 c 5.45684,0.15296 11.43629,1.44723 21.51171,3.76758 26.54803,6.11394 41.44204,6.36191 53.44141,0.88867 6.90415,-3.14917 13.36876,-4.10798 29.55273,-4.37695 18.22506,-0.30316 21.9449,0.22742 30.93165,4.41016 l 7.32031,3.4082 1.99609,1.08594 c 0.34099,0.32349 0.63394,0.67372 0.89844,1.05273 v 23.41992 c 0,13.31694 -0.66256,24.18245 -1.47266,24.14844 -0.81009,-0.0351 -6.33469,-1.77354 -12.27539,-3.86328 -5.83697,-2.05324 -10.8634,-3.23911 -15.98828,-3.57813 -0.88568,-0.16822 -1.60596,-0.2734 -2.05273,-0.27929 -0.61101,-0.008 -1.5776,0.0768 -2.72266,0.21289 -5.11889,0.17461 -10.58941,1.13707 -17.24805,2.88476 -9.48649,2.48991 -16.05523,2.84098 -30.72265,1.64453 -7.09302,-0.57881 -13.65861,-0.96505 -19.90039,-1.20312 -0.13214,-0.0246 -0.23411,-0.0414 -0.36719,-0.0664 -7.56833,-1.42039 -12.6717,-1.50382 -22.22461,-0.004 -6.11897,0.22548 -11.98698,0.64229 -17.70899,1.29296 -9.71494,1.10479 -19.11012,0.75952 -30.4414,-1.11914 -18.97784,-3.14634 -52.304626,-3.12851 -76.285158,0.043 -9.181067,1.2141 -19.987734,2.7074 -24.013671,3.31836 l -0.441407,0.0664 c -3.486984,0.26226 -5.828318,0.31395 -6.255859,0.0762 -0.06782,-0.10001 -0.125132,-0.21138 -0.166016,-0.33984 l 1.820313,-5.22461 c 0.252623,-0.72463 0.712885,-1.6264 1.271484,-2.60156 0.550273,-0.91533 1.138904,-1.85587 1.78125,-2.82227 2.369371,-3.43114 5.709212,-7.42459 9.039063,-10.66797 l 4.978515,-4.84961 4.080078,-3.25586 -0.384765,-0.3457 1.140625,-1.10938 -4.771484,-3.66601 c -2.54606,-1.95706 -5.093773,-3.57716 -5.798829,-3.69336 l -1.453125,-1.30469 c -0.448928,-0.4032 -0.866632,-0.79656 -1.296875,-1.19336 -0.879972,-1.00662 -1.851774,-2.1947 -2.845703,-3.53906 l -4.417968,-5.97266 45.927734,1.35938 c 0.208668,0.006 0.351759,0.0103 0.558594,0.0156 11.924539,0.64618 21.488664,0.87854 29.613284,0.66211 15.79895,0.0987 20.65458,-0.77444 29.35547,-3.36133 12.87107,-3.82673 19.02114,-5.51697 26.03711,-5.32031 z m 241.73046,38.64844 c 0.14627,-0.0193 0.27258,-0.0116 0.375,0.0254 0.29632,0.10685 1.81579,1.94732 4.13086,4.94531 2.59563,3.63657 6.70732,9.41517 14.29102,20.14063 9.54659,13.50157 18.20169,25.65374 19.23437,27.0039 4.84819,6.33846 -1.41579,0.25967 -22.62695,-21.95703 -9.26879,-9.70818 -14.76613,-15.49356 -17.80273,-19.21094 l -3.27735,3.37696 15.68946,15.74219 c 6.78039,6.80356 12.36454,12.537 15.86718,16.24218 0.68894,0.76124 1.42555,1.57066 1.91602,2.13086 0.52172,0.66274 1.02227,1.30429 1.40234,1.83399 -3.29717,-1.60298 -32.38859,-20.38639 -42.95703,-27.62305 l -2.85351,2.94141 19.88086,12.40429 c 15.0267,9.37619 28.16139,17.82541 29.1875,18.77539 3.05958,2.83253 1.004,2.06021 -19.54102,-7.33203 -10.80125,-4.9378 -25.33449,-11.57083 -32.29688,-14.74023 l -11.32617,-5.1543 c -0.003,-0.96926 0.9927,-2.68783 2.69727,-4.46289 l 1.99609,-2.08008 21.01953,-19.22656 c 0.0552,-0.0615 0.10271,-0.11841 0.16016,-0.18164 0.29253,-0.32341 0.59466,-0.61231 0.89453,-0.91406 0.0711,-0.0653 0.13258,-0.12597 0.20703,-0.19336 0.98347,-0.89002 1.9263,-1.59934 2.71289,-2.09766 0.39383,-0.21211 0.74401,-0.35225 1.01953,-0.38867 z m -17.88867,46.87305 c 0.89348,-0.034 2.59231,0.28346 4.36328,0.8457 l 3.86719,1.22851 c 0.10469,0.0775 0.17485,0.14304 0.26367,0.21485 l -4.47461,2.23047 c -1.51128,0.75345 -2.67634,1.77073 -3.46093,2.99609 -3.07726,3.10643 -3.07387,7.26483 0.94921,8.80859 3.18671,1.22291 7.24653,1.51597 11.00977,1.04493 0.44069,-0.0378 0.87819,-0.087 1.3125,-0.15235 4.26429,-0.0949 6.67599,-0.8864 8.06055,-2.55468 3.4854,-4.19966 5.80183,-3.87796 19.8125,2.74804 11.83646,5.59775 12.23756,6.03247 12.44922,13.47656 l 0.21875,7.69336 -25.5293,9.4375 v 0.002 c -14.04166,5.19118 -26.63617,9.82567 -27.98633,10.29883 -0.27288,0.0956 -0.53067,0.14863 -0.77539,0.17773 -0.38075,-0.0151 -0.69011,-0.0799 -0.91602,-0.20312 -0.27628,-0.39175 -0.50003,-0.98676 -0.63085,-1.71485 0.53701,-2.87327 3.33247,-5.30258 7.72265,-6.625 4.73908,-1.42753 9.14405,-4.61613 10.93359,-7.58594 0.2298,-0.31407 0.39908,-0.60955 0.51954,-0.88867 0.19804,-0.2982 0.33007,-0.57821 0.33007,-0.81836 0,-0.13946 -0.0189,-0.26609 -0.0469,-0.38476 0.0227,-0.16101 0.0469,-0.32276 0.0469,-0.47852 0,-3.34042 -2.012,-3.34423 -6.92773,-0.0215 -2.13056,1.44071 -5.52383,3.21999 -7.54297,3.95508 -0.73992,0.26946 -1.31599,0.43362 -1.76953,0.48242 -0.0979,-0.082 -0.18733,-0.18198 -0.27539,-0.28516 -0.41526,-0.56549 -0.71058,-1.37684 -0.90039,-2.42187 0.0684,-0.50699 0.15785,-1.06912 0.28711,-1.74415 1.48002,-7.74226 -0.24794,-10.46289 -6.64649,-10.46289 -0.95943,0 -1.82442,-0.0398 -2.61914,-0.0957 -1.38565,-0.38578 -2.43363,-0.92188 -2.84961,-1.47656 1.39518,-4.57943 9.93036,-26.89443 10.60743,-27.57422 0.0918,-0.0922 0.29975,-0.14138 0.59765,-0.15234 z m -209.8789,5.88476 c 1.98957,0.0113 4.80427,3.47058 8.20507,10.13672 1.08784,2.13233 1.87335,3.88202 2.41797,5.74219 0.62911,3.20492 0.92696,6.9463 0.93555,11.42383 -0.0908,2.91371 -0.30395,6.46897 -0.61133,10.97851 -0.51694,7.58419 -0.91458,12.36717 -1.54492,15.73242 -0.96531,3.68062 -2.14464,5.94765 -4.10156,8.25196 -0.49374,0.54104 -1.00793,1.088 -1.58789,1.66797 l -1.21094,1.21093 -1.82422,1.74805 c -0.90673,0.78316 -1.65653,1.3547 -2.10156,1.58008 l -2.65821,-8.125 c -2.29536,-7.01533 -2.38224,-12.7376 -0.50976,-33.58203 1.24139,-13.81905 2.74692,-25.618 3.34765,-26.21875 0.36813,-0.36813 0.78501,-0.54926 1.24415,-0.54688 z m 225.47461,2.61524 c 0.21805,0.0639 0.44699,0.15892 0.68945,0.30859 1.51517,0.93642 1.36721,1.85427 -0.49024,3.03125 -1.01299,0.6418 -2.34505,1.08988 -3.75976,1.35937 -1.88515,0.17915 -3.95687,0.2072 -5.88477,0.0371 -1.30061,-0.27628 -2.31838,-0.76869 -2.75586,-1.47656 -0.62143,-1.0055 -0.23245,-2.38212 0.86524,-3.06055 0.0227,-0.0113 0.0413,-0.0179 0.0625,-0.0293 0.58983,0.0677 1.22665,0.22262 1.88281,0.45703 0.0302,0.12661 0.0508,0.26454 0.0508,0.41992 0,1.14388 1.76743,2.08008 3.92774,2.08008 0.36585,0 0.71402,-0.0342 1.05078,-0.0859 0.80405,0.1595 1.39634,-0.0794 1.97461,-0.68554 0.49757,-0.32126 0.81144,-0.71877 0.87304,-1.15626 0.23849,-0.37986 0.49871,-0.70875 0.76758,-0.98046 0.24907,-0.0896 0.49733,-0.16275 0.7461,-0.2168 z m 58.06054,9.75195 c 6.36703,-0.13342 12.15182,5.58486 9.81641,14.44336 l -0.60547,2.29492 c -0.32164,0.70613 -0.6657,1.38989 -1.03711,2.04492 l -0.86133,-4.58008 c -1.35768,-7.22313 -6.60481,-10.84692 -11.37695,-7.85546 -6.12544,3.83981 -4.04648,13.43476 1.49805,15.625 0.75299,0.60536 1.3493,0.81026 2.20703,0.60156 1.09973,0.22942 2.19998,0.0227 3.28515,-0.61524 1.15673,-0.0782 1.69997,0.31406 1.24219,1.05469 -0.22261,0.36019 -0.48937,0.64764 -0.77344,0.90235 -0.10431,0.0525 -0.21051,0.11133 -0.31445,0.1582 -1.32488,0.38411 -2.68189,0.50362 -4.01758,0.38672 -0.0964,-0.0151 -0.19268,-0.0377 -0.28906,-0.0566 -1.72248,-0.5003 -3.57786,-1.78393 -5.7207,-3.82813 -0.97297,-1.10528 -1.87144,-2.38613 -2.61914,-3.83203 -2.20547,-4.26489 -2.43559,-6.72185 -0.89649,-9.59766 2.6115,-4.87959 6.6427,-7.06635 10.46289,-7.14648 z m -257.74609,44.04883 c 1.01481,-0.0265 1.98695,0.36018 3.20312,1.02148 4.19014,2.27789 3.95292,2.65893 -7.19336,11.57813 -3.36202,2.69028 -5.88664,4.58028 -7.81445,5.79101 1.70974,1.95071 3.84368,4.47746 6.33789,7.66016 2.0011,-1.95616 4.73675,-4.38802 7.77539,-6.86328 l 9.92383,-8.08399 c 0.74153,-0.41215 1.34985,-0.70414 1.73633,-0.80664 v -0.002 l 1.2832,0.66406 4.21875,2.49219 3.73242,2.20312 c 0.78336,0.73936 1.21666,1.41378 1.14453,1.89454 l -13.75781,8.77734 c -4.02845,2.56989 -7.89938,4.90115 -10.91211,6.60352 1.76899,2.45767 3.59468,5.08362 5.47461,7.96093 1.98043,-1.51384 4.76843,-3.38207 8.81445,-5.9707 7.74083,-4.9525 14.75131,-9.00586 15.58008,-9.00586 0.82876,0 3.85618,2.02122 6.72657,4.49023 l 5.21875,4.48829 -17.41602,8.27734 c -5.33025,2.53305 -10.14225,4.72132 -13.63867,6.24023 1.5094,2.56646 3.01342,5.25034 4.49414,8.04688 3.09064,-1.37756 8.29095,-3.73448 14.66211,-6.66797 l 15.01172,-6.91016 4.29101,4.56836 4.29102,4.56641 -19.07617,9.03516 c -5.75331,2.72532 -10.26925,4.83456 -13.76368,6.44921 1.33374,2.95309 2.61352,6.00574 3.83204,9.14258 3.07811,-1.59834 7.38935,-3.79405 12.24804,-6.22461 l 15.70508,-7.85742 4.35742,4.35742 c 2.272,2.27199 3.91263,4.40479 4.15821,5.31641 -0.0178,0.0227 -0.0442,0.0517 -0.0684,0.0781 l -5.91797,2.45704 c -3.6828,1.5287 -12.37158,5.07796 -19.3086,7.88671 -3.01583,1.22112 -5.70693,2.28976 -7.90625,3.1504 0.21226,0.65207 0.43323,1.29658 0.63868,1.95507 0.71891,2.30421 1.41944,4.69909 2.10937,7.14063 2.61442,-1.47038 6.50569,-3.09857 12.12109,-5.26953 l 12.91797,-4.99414 c 1.53391,-0.46893 2.74299,-0.80469 3.10547,-0.80469 0.64954,0 1.58056,0.62177 2.59766,1.5664 l 2.49023,3.41797 c 2.29708,3.15334 3.78438,6.19474 3.30469,6.75782 -0.47967,0.56307 -8.87473,3.42543 -18.65625,6.36132 -7.27711,2.18423 -11.85507,3.57634 -14.86914,4.33985 0.75943,3.05755 1.49686,6.17059 2.21289,9.31836 2.6236,-1.20801 6.7954,-2.5548 13.34766,-4.47071 l 14.67773,-4.29101 c 0.30531,-0.0302 0.59343,-0.0532 0.85547,-0.0566 1.22208,-0.0151 2.00468,0.26758 2.66601,0.79883 l 1.50977,3.3125 c 0.76029,1.66862 1.30522,3.27516 1.51172,4.34961 -0.51103,0.85273 -2.60438,2.01629 -5.54297,3.27929 -3.08434,1.01386 -7.17,2.29645 -11.5957,3.6211 -6.31491,1.89017 -11.93736,3.48318 -15.07813,4.29882 0.67526,3.24486 1.32779,6.48958 1.95508,9.72657 2.31525,-1.09137 6.12377,-2.31857 12.23828,-4.1836 9.89182,-3.01723 14.74851,-4.52479 17.46094,-4.55468 v 0.002 c 2.71243,-0.0302 3.28113,1.41874 4.59961,4.3125 2.1151,4.64217 1.90289,4.76139 -17.18164,9.54687 l -15.42383,3.86719 c 0.588,3.22382 1.15159,6.40436 1.6875,9.52539 2.58345,-1.06998 6.82408,-2.19435 13.88086,-4.01367 8.47981,-2.18619 13.1565,-3.23363 15.88867,-3.31641 0.593,-0.0189 1.09274,0.0114 1.52149,0.082 1.22668,0.95903 2.6557,2.70917 3.79687,4.50781 1.59964,4.53003 -2.15352,6.46527 -15.07812,9.25781 -7.63465,1.64955 -15.04934,3.32793 -18.2461,4.11328 0.51157,3.17811 0.98706,6.22069 1.4336,9.15039 0.30122,-0.10495 0.58475,-0.20776 0.90429,-0.31445 9.63416,-2.42952 27.61683,-6.40595 32.76367,-7.23828 0.38812,0.0412 0.73726,0.10756 1.04102,0.20508 0.42953,0.17272 0.77424,0.4184 1.07422,0.73437 0.80233,1.34461 1.80623,3.3783 2.5664,5.11719 0.6188,1.89717 -0.034,2.96088 -4.23046,4.61133 -3.73793,1.07886 -9.00094,2.6346 -14.95508,4.42968 -6.96376,2.09952 -13.27065,3.87017 -17.34766,4.91407 0.54931,3.89966 1.00654,7.1815 1.36914,9.94531 3.38299,-1.35432 8.47751,-3.00286 16.20899,-5.39453 12.23986,-3.7863 17.89858,-5.48158 20.84765,-5.60547 v -0.002 c 2.28855,-0.096 2.94493,0.75514 3.7793,2.3125 0.002,0.004 0.004,0.008 0.006,0.0117 0.008,0.0151 0.0116,0.0228 0.0195,0.0391 0.01,0.0189 0.0159,0.0341 0.0254,0.0508 0.16532,0.31068 0.29835,0.60304 0.44141,0.90234 0.12151,0.27629 0.22221,0.53663 0.29883,0.77735 0.0957,1.17259 -0.50584,2.14688 -2.58399,3.32617 -2.55806,0.90383 -11.42299,3.91452 -21.80469,7.39648 -11.28351,3.78444 -21.22586,6.88086 -22.09375,6.88086 -0.0757,0 -0.14782,-0.0324 -0.2207,-0.0625 l -0.25781,0.0859 c 0,0 -0.0298,-0.27351 -0.0312,-0.28906 C 238.57214,532.87702 227.30606,513.14834 191.74023,462.6543 l 0.67579,-1.00782 c 0.002,-0.0155 -5.5e-4,-0.0293 0.002,-0.0449 0.42926,-0.7152 1.03107,-1.57823 1.69922,-2.49414 l 0.61523,-0.91797 c 0,0 0.0382,0.0402 0.0391,0.041 1.36313,-1.80108 3.00384,-3.8073 4.76954,-5.8125 0.13795,-0.14022 0.26397,-0.27895 0.40429,-0.41992 0.0509,-0.0499 0.0891,-0.0904 0.14063,-0.14063 5.72473,-5.60405 8.1678,-7.67848 10.40039,-7.74023 z m -38.42383,0.73828 c 0.4214,0.29858 0.72826,1.09749 0.9375,2.28906 l -0.0137,2.01953 -0.94531,12.03125 c -1.85182,23.55349 -5.68516,43.06549 -9.6504,49.11719 -0.67738,1.03381 -1.50303,2.079 -2.44726,3.13281 -0.21026,0.22904 -0.43813,0.4704 -0.66211,0.70703 -7.28816,7.68764 -21.46869,15.81983 -41.24609,23.57032 -12.4215,4.86784 -25.926612,11.12251 -30.013676,13.90039 l -7.43164,5.05078 1.220703,-4.86328 c 1.672671,-6.66448 -3.731936,-9.43386 -13.925781,-7.13477 -4.219635,0.95165 -7.84742,1.55496 -8.060547,1.3418 -0.21309,-0.21317 12.44357,-10.73832 28.125,-23.39063 l 28.511721,-23.0039 6.41992,6.80664 c 4.71139,4.99555 8.08276,6.80664 12.66797,6.80664 0.22817,0 0.4497,-0.0177 0.67578,-0.0215 0.17805,0.008 0.3588,0.0215 0.5332,0.0215 0.69151,0 1.4377,-0.088 2.21094,-0.23242 11.28169,-1.47383 19.46614,-10.11481 21.56055,-19.92579 0.0106,-0.0416 0.0191,-0.083 0.0293,-0.125 0.031,-0.14813 0.0616,-0.29632 0.0898,-0.44531 0.55179,-2.50148 0.61305,-4.98401 0.1875,-7.46289 -0.35014,-2.50991 -1.12925,-4.99033 -2.39649,-7.34765 -0.87334,-1.76096 -2.00634,-3.37125 -3.39257,-4.76563 l -3.4375,-3.91406 c -1.24,-1.94532 -0.32856,-3.59731 4.43945,-8.5 l 5.48828,-5.36719 z m 10.62891,22.83594 c 0.009,-9.9e-4 0.0187,0.003 0.0273,0.002 0.58348,0.0726 1.29925,0.73065 2.29297,1.74609 1.76903,1.80768 3.7261,4.14898 5.79101,6.85743 1.26361,1.69574 2.61937,3.57765 4.03125,5.57812 9.32313,13.50557 20.10587,33.08329 27.78907,51.07812 0.36601,0.8572 0.74793,1.85549 1.14062,2.9336 0.50029,1.4448 0.99855,2.90025 1.48828,4.38867 6.30332,19.82763 14.66533,60.20234 16.63282,81.95703 3.24481,35.87826 3.9774,33.96537 -15.49415,40.4961 -15.89827,5.33223 -21.56129,7.30897 -23.25195,7.20507 -0.17847,-0.39004 -0.24968,-1.04244 -0.21679,-1.85742 0.0933,-0.22753 0.17496,-0.42791 0.27539,-0.68945 2.74297,-7.14807 7.12525,-39.85277 7.13281,-53.23438 0.004,-6.90848 -0.23968,-12.50078 -1.0332,-17.84961 l 0.0586,-8.10351 -5.25586,-10.23438 c -3.22365,-7.94812 -8.0397,-17.4478 -15.22656,-30.87109 l -15.2168,-28.42187 -2.39453,-4.66407 2.62109,-9.65039 c 1.46054,-5.37751 3.78244,-16.23007 5.16016,-24.11719 1.03589,-5.93019 1.6719,-9.37616 2.32617,-11.11523 0.41455,-0.92149 0.83734,-1.37505 1.32227,-1.43359 z m -43.45703,2.35156 c 5.72432,0.11225 11.78077,5.45034 13.13867,11.63281 1.18413,5.39138 -1.46645,12.94001 -5.57227,17.26367 -2.41666,2.22108 -5.27308,3.52351 -8.13476,4.00782 -4.51211,0.54028 -9.13899,-0.95825 -11.97657,-3.70313 -0.92895,-1.13979 -1.80367,-2.87394 -2.47461,-4.8125 -0.15076,-0.76267 -0.23443,-1.56348 -0.22461,-2.41406 l 0.0352,-2.9375 4.44727,4.17773 c 0.98919,0.92931 1.98351,1.68318 2.98046,2.29297 1.53593,1.1966 3.07629,1.97852 4.15626,1.97852 0.1995,0 0.41958,-0.0302 0.63671,-0.0586 0.20523,0.0378 0.39354,0.0566 0.55664,0.0566 0.34564,0 0.77749,-0.10436 1.25196,-0.26953 2.90866,-0.26154 5.83068,-1.83442 8.74804,-4.75195 4.82176,-4.82173 4.88463,-5.1756 1.57032,-8.83789 -2.69455,-2.97744 -8.73352,-4.24208 -13.93555,-3.66211 -1.9742,0.11603 -3.78816,0.54156 -5.14258,1.38281 -0.88565,0.42762 -1.66841,0.93793 -2.28125,1.55078 -1.84081,1.84082 -3.08592,2.17529 -3.08594,0.83008 0,-3.5235 10.56152,-13.20667 14.79297,-13.71094 0.17341,-0.004 0.33346,-0.0156 0.51368,-0.0156 z m 313.02539,5.56836 v 0.002 c 6.90062,0.0382 13.92495,0.72189 18.89257,2.10156 15.32013,4.25488 27.10444,18.62895 27.82618,33.65235 0.003,2.26537 -0.0801,3.68927 -0.6875,4.52148 -0.87304,1.01768 -2.75357,1.25754 -6.53321,1.27149 -0.16176,4.5e-4 -0.28571,0.004 -0.45508,0.004 -0.26872,-1.1e-4 -0.47241,-0.004 -0.72265,-0.008 -1.27007,-0.008 -2.34107,-0.0422 -3.21289,-0.12305 -2.58206,-0.28271 -3.4638,-1.25827 -4.13867,-4.17773 -10e-4,-0.0397 -0.008,-0.0689 -0.008,-0.10938 -0.0378,-1.77653 -0.43704,-3.73541 -1.11132,-5.74804 -1.17226,-4.87964 -3.71419,-8.9622 -8.45508,-13.70313 -0.1081,-0.10809 -0.19143,-0.18399 -0.29688,-0.28906 -0.68976,-0.79805 -1.36229,-1.45624 -2.0039,-1.95117 -5.04231,-4.73212 -7.37309,-5.3125 -15.36524,-5.3125 -18.54489,0 -29.55322,8.04306 -34.05664,24.88086 l -1.03125,3.85742 c 12.16585,2.44528 6.40412,-1.51606 10.98438,-10.53711 4.42801,-8.54094 15.39257,-9.31641 15.39257,-9.31641 -0.0302,0.0189 -0.0573,0.0401 -0.0879,0.0605 2.21379,-0.44277 4.2687,-0.6725 6.20703,-0.66797 2.41796,0.008 4.66585,0.35869 6.85352,1.06055 v 0.002 c 5.60304,1.79792 4.59339,2.04 -8.35742,2.00977 -3.58617,-0.008 -5.99859,-0.0301 -7.86133,-0.0762 -2.3424,1.91158 -4.12,3.84504 -5.46094,5.71485 3.41318,0.0563 7.8328,0.16403 12.82813,0.32617 12.13228,0.39349 20.09023,1.66814 21.33789,2.72656 -0.15874,0.2812 -0.38443,0.55863 -0.68945,0.82422 -1.44998,0.43824 -4.83612,0.73828 -10.6504,0.73828 -7.08608,0 -17.13145,0.58125 -22.32421,1.29297 -1.13122,0.15496 -2.10621,0.28084 -2.97852,0.38281 -0.26797,-0.0189 -0.44128,-0.0519 -0.68555,-0.0742 -0.73844,2.33623 -0.88892,4.28556 -0.86718,5.58984 4.10672,-0.41 9.95721,-0.6894 18.0039,-0.86719 2.84323,-0.0627 5.44895,-0.095 7.81641,-0.0957 8.74877,-0.004 14.19258,0.41665 16.32226,1.23242 0.12737,0.19616 0.2223,0.41171 0.29297,0.64453 -22.67251,2.94599 -48.28484,3.63427 -68.59961,3.67774 -4.58513,0 -7.7214,0.28082 -9.57617,0.84375 l -2.87695,0.13867 0.58398,19.14648 c 0.0302,0.96733 0.043,1.80165 0.0664,2.71875 l 0.21289,-0.0273 0.26758,52.67773 -0.18946,-0.20117 c 0.0151,4.56881 0.0391,8.61872 0.0391,14.8125 0,32.23291 -0.14135,42.46411 -1.54688,45.96289 -0.0227,0.0537 -0.0419,0.12356 -0.0644,0.17383 -0.0635,0.14438 -0.13629,0.25015 -0.20508,0.37109 -0.0722,0.12435 -0.14051,0.26162 -0.21875,0.36329 -0.0302,0.0382 -0.0604,0.0644 -0.0898,0.0996 -0.41265,0.4839 -0.90459,0.71424 -1.49219,0.87305 -2.98398,0.74045 -3.81317,-1.33834 -5.88477,-14.50391 -2.28631,-14.53022 -3.49803,-24.98749 -3.77148,-34.16796 -6.4e-4,-3.79389 0.0554,-7.67015 0.16992,-11.50977 0.22791,-3.6915 0.61426,-7.36892 1.16406,-11.25 2.83937,-20.04333 3.58296,-22.9565 7.26172,-23.27148 -0.28195,-3.25267 -0.0609,-5.41202 -2.68554,-6.16993 -3.51043,-1.01359 -6.38282,-3.10708 -6.38282,-4.65234 0,-7.0091 14.19464,-41.53081 20.29688,-49.36328 6.04906,-7.76425 14.91351,-15.80837 22.88476,-20.95117 4.30402,-2.29213 9.11054,-3.95539 14.14454,-5.00781 3.5748,-0.43102 7.64595,-0.6458 11.77539,-0.62305 z m -286.69532,44.99414 v 0.002 c 1.86113,-0.0832 4.0371,3.43588 10.07227,14.51953 4.9138,9.02419 9.52349,17.95354 10.24414,19.84375 0.50898,1.33505 0.56316,2.21722 0.10742,2.75391 -0.58357,0.35641 -1.44432,0.60175 -2.43164,0.66211 -0.0697,-0.004 -0.14211,-0.004 -0.21094,-0.0117 -0.0686,-0.008 -0.13612,-0.0103 -0.20703,-0.0254 -0.0314,-0.004 -0.0628,-0.0118 -0.0937,-0.0156 -2.55038,-0.6294 -6.55242,-5.8877 -12.77148,-16.75195 -7.49926,-13.10067 -8.9926,-16.33933 -7.4961,-18.74023 0.19718,-0.21733 0.36276,-0.41881 0.5918,-0.65821 0.45999,-0.48079 0.91604,-0.90767 1.35547,-1.29492 0.28044,-0.16479 0.55726,-0.27073 0.83984,-0.2832 z m 290.9043,6.38086 h 19.78711 c 36.28687,0 65.97461,0.69551 65.97461,1.54492 0,0.84941 -14.22444,26.25673 -31.61133,56.46094 -17.38692,30.20424 -32.28515,55.63076 -33.10742,56.5039 -0.82224,0.87315 -14.1241,-20.77897 -29.5586,-48.11523 -15.43443,-27.33619 -30.22607,-53.45829 -32.86914,-58.04883 l -3.46875,-6.02539 c -0.0601,-0.1474 -0.16407,-0.36889 -0.21093,-0.49414 2.70221,-0.52966 22.0576,-1.22568 45.06445,-1.82617 z m -300.45703,3.92773 c 1.2233,0 17.50242,27.67453 16.69922,28.38867 -0.36737,0.32656 -9.17338,2.02641 -19.56836,3.77735 -24.7308,4.16564 -24.55355,4.18448 -27.0586,-3.00196 -4.26721,-12.24096 -3.26256,-13.86011 13.51172,-21.79882 8.55852,-4.05049 15.94589,-7.36524 16.41602,-7.36524 z m 249.68359,0.58008 c 0.77152,1.09863 2.56301,4.02559 5.02344,8.16406 15.24522,26.31202 61.33237,108.71539 61.38086,110.07032 0.0386,1.08011 -14.13217,26.54793 -31.49023,56.5957 l -30.73243,53.19922 c -0.39076,0.6237 -0.61855,0.96272 -0.83984,1.29101 l -1.08399,-14.23047 c -0.96803,-12.69127 -2.56505,-149.59374 -2.54687,-198.22265 z m 136.92383,10.46875 c 0.16403,0.44194 0.31296,1.77742 0.45117,3.78711 4.6e-4,6.36397 -0.3375,48.88705 -0.83984,104.34961 L 541.25,758.48242 510.92969,704.80469 c -16.34049,-28.92813 -29.66822,-53.20951 -30.11719,-54.85742 0.0265,-0.13418 0.0749,-0.29405 0.10742,-0.43555 1.6495,-3.8733 56.22352,-98.94296 61.69922,-107.54883 z m -428.20508,6.65625 c 0.72023,-0.0151 4.16145,8.12002 6.13672,13.83984 0.28728,1.94809 0.48185,3.67044 0.49024,4.74414 -0.20856,0.35528 -0.52618,0.64764 -0.9004,0.92774 -0.54049,0.0559 -1.13628,0.0957 -1.80664,0.0957 -4.77138,0 -11.41227,-15.637 -7.65429,-18.02344 1.34544,-0.85434 3.02581,-1.56882 3.73437,-1.58398 z m -54.656248,5.86133 h 5.673829 c 6.357509,0 7.628635,0.59182 6.664062,3.10547 -0.655623,1.70853 -1.212139,4.58092 -1.236328,6.38281 -0.0076,0.55242 -0.188333,1.29247 -0.474609,2.11523 l 10.978515,1.45118 c 6.249082,-4.69259 15.141671,-11.01963 17.96875,-12.64063 0.25784,-0.11263 0.509823,-0.22134 0.710939,-0.28711 h 0.002 c 0.46428,0.19314 1.00085,0.60902 1.58008,1.19141 0.98255,1.30231 2.24332,3.44116 3.39648,5.85937 3.53657,7.41627 2.55685,9.92857 -4.75,10.48828 -0.22295,0.002 -0.427352,0.008 -0.660152,0.008 -0.510943,0 -1.003192,0.0423 -1.484375,0.10547 -5.178032,-0.53088 -5.843696,5.16453 -7.826172,9.2832 -0.131716,0.55498 -0.309657,1.13429 -0.529297,1.71094 -0.697632,1.5513 -1.805204,3.21933 -3.058593,4.50195 -3.387784,2.66207 -9.722,3.97637 -14.335938,2.7207 -0.160743,-0.0438 -0.298471,-0.0938 -0.447265,-0.14062 -0.619371,-0.31181 -1.223013,-0.67128 -1.800782,-1.09375 -0.368164,-0.2691 -0.66897,-0.51505 -0.916015,-0.75196 -0.595537,-1.44748 1.16447,-3.22711 5.126953,-4.7207 2.970346,-1.11957 7.830435,-3.23976 10.800781,-4.71094 2.590227,-0.89533 2.552267,-4.02033 3.271484,-6.47461 -0.468366,-0.65321 -1.970514,-0.82216 -4.464843,-0.33203 -1.201119,0.0189 -2.551567,0.23435 -3.960938,0.64258 -4.523558,1.06288 -11.712071,3.55133 -13.55664,4.33789 -4.140688,5.38946 -3.516026,0.29857 -6.921876,-14.40625 l -0.898437,-3.88086 c -0.28165,-2.61577 0.02192,-3.75871 1.148437,-4.46484 z m 271.169918,5.89062 c 7.25974,0 9.6695,0.35981 11.35938,2.69336 l 2.39844,5.36524 c 0.0686,0.15345 0.1227,0.26192 0.18945,0.41015 0.57227,1.78451 0.96875,3.47372 0.96875,4.4375 0,1.2697 0.77617,2.38533 2.22266,3.32813 l 0.39062,1.08984 2.3418,0.20703 c 3.78749,1.35338 9.6024,2.10743 17.00586,2.10743 1.44681,0 2.70759,0.004 3.82031,0.0195 3.69726,0.61398 6.38641,1.33509 7.27539,2.00781 0.0378,0.60249 -0.1399,1.37921 -0.41601,2.39258 -0.66267,2.43027 -1.77266,9.05786 -2.46485,14.72851 -0.57649,4.72271 -1.43682,8.65887 -2.0918,9.82618 -0.65694,-0.0265 -1.81677,-0.237 -3.32031,-0.58204 -1.25979,-0.42357 -2.99023,-1.04602 -4.73828,-1.67187 -1.89443,-0.69974 -3.92463,-1.45825 -6.11523,-2.30078 l -12.60352,-4.84766 -4.50391,4.23242 -1.47656,1.38672 c -1.64412,1.47115 -2.54679,2.16637 -2.89453,0.96289 l 1.03125,-14.62695 c 1.38518,-19.62792 -0.23392,-21.99736 -15.25781,-22.33789 -12.58613,-0.28536 -15.10139,-3.48365 -10.41797,-5.94922 2.31529,-1.04693 5.91629,-1.96886 10.72656,-2.56641 1.99917,-0.19162 4.17717,-0.3125 6.57031,-0.3125 z m -8.94335,17.81641 c 2.48856,0.0393 4.24626,0.12427 5.32812,0.27734 0.0444,0.008 0.0913,0.0159 0.13477,0.0234 1.7452,0.27099 1.56107,0.741 -0.25977,1.52344 -2.16025,0.92833 -6.80014,1.7502 -10.31055,1.82617 -3.51041,0.076 -6.38281,0.99107 -6.38281,2.0332 0,0.19276 0.0325,0.38653 0.0918,0.58008 v 0.002 c 0.11837,0.38684 0.35074,0.77234 0.67383,1.14844 9.7e-4,10e-4 2.6e-4,0.003 0.002,0.004 0.16146,0.18746 0.34632,0.36921 0.55078,0.55078 0.41092,0.36472 0.90354,0.71727 1.45703,1.04492 0.19442,0.1149 0.40477,0.22476 0.61328,0.33399 0.0895,0.0469 0.17183,0.0968 0.26367,0.14257 0.0367,0.0189 0.0763,0.0323 0.11329,0.0508 2.54316,1.23968 5.90994,1.99416 8.6289,1.6582 0.58502,0.0227 1.16231,0.0113 1.71485,-0.0488 1.05699,-0.11414 1.9325,-0.0712 2.63086,0.11133 0.60348,0.31219 0.93554,0.82156 0.93554,1.54492 0,1.42148 -3.09263,3.16581 -6.87304,3.875 -1.47139,0.27591 -2.68056,0.5698 -3.65821,0.88086 -1.8253,0.10772 -2.56063,0.39933 -2.39258,1.13086 -1.49075,1.25862 0.19654,2.73917 5.06836,4.4375 5.5204,1.92442 6.88519,3.57841 4.75586,6.38086 -0.17382,0.16479 -0.30252,0.31068 -0.49219,0.48242 -3.68963,3.33906 -4.12089,3.706 -7.32421,1.91016 -1.04849,-0.73996 -2.26017,-1.83826 -3.77149,-3.34961 -6.38975,-6.38971 -8.31356,-17.43217 -4.14453,-23.79492 1.63009,-2.48784 3.00574,-3.74397 5.54883,-4.32813 2.12702,-0.28989 4.58532,-0.45398 7.09766,-0.43164 z m -20.38282,31.31445 c 0.24594,-0.0227 0.73178,0.24946 1.40039,0.75391 0.44943,0.49939 0.92848,1.04366 1.55274,1.81445 2.47095,3.05099 6.58607,6.34172 9.14453,7.31446 0.0489,0.0189 0.083,0.0381 0.13086,0.0566 0.48081,0.33524 0.92461,0.63 1.27539,0.82812 1.73615,0.98045 2.60356,2.3065 2.9082,5.46875 0.11698,2.32154 0.0895,5.35965 -0.0703,9.29297 -0.0113,0.28195 -0.0238,0.48926 -0.0352,0.75977 -0.23678,3.92829 -0.6647,7.09946 -1.14453,8.72851 -1.29321,-0.82137 -2.3418,-3.23282 -2.34179,-5.75781 0,-1.89022 -0.87799,-3.72968 -1.95313,-4.08984 -1.07512,-0.36019 -3.62017,-5.07397 -5.6543,-10.47461 -2.03412,-5.40065 -4.38456,-11.58602 -5.22461,-13.7461 -0.0827,-0.21241 -0.13211,-0.37077 -0.18945,-0.54297 -0.0268,-0.25209 0.037,-0.39037 0.20117,-0.40625 z m 45.28321,0.76563 c 3.70454,0.0994 9.3883,2.25522 18.10742,5.48437 6.33695,2.3469 8.79765,3.48443 9.74023,5.70313 l 0.53711,3.22461 c 0.0132,0.39246 0.0332,0.76229 0.0332,1.21093 0,5.77282 3.86308,23.26378 6.82422,30.89454 0.93079,2.3986 -1.36915,4.11651 -9.85351,7.36328 -11.94512,4.57115 -18.45766,5.04379 -26.91992,1.95312 l -4.16016,-1.51953 c -0.0979,-0.13455 -0.19106,-0.27896 -0.2832,-0.42383 l -0.52539,-23.83789 c -0.23539,-10.70313 0.0424,-20.06992 0.67382,-25.13086 0.93235,-3.56095 2.64776,-5.00699 5.82618,-4.92187 z m -17.78125,11.03515 c 0.54268,0.0627 0.98827,0.20673 1.35351,0.47852 1.25013,1.54515 1.64063,6.7582 1.64063,19.10937 0,10.80125 -0.22019,19.61215 -0.49024,19.57813 -2.54303,-0.30954 -4.49791,-1.82271 -5.7539,-4.32227 -0.0565,-0.14702 -0.11108,-0.29744 -0.16407,-0.45312 -0.76594,-2.42343 -1.18019,-5.91838 -1.34961,-10.82031 -0.007,-0.22111 -0.0151,-0.43616 -0.0215,-0.66407 -0.005,-0.15458 -0.004,-0.35073 -0.008,-0.50781 0.37474,-12.2581 2.3426,-21.6536 4.79297,-22.39844 z m 223.42578,19.58789 h 0.96875 l 4.96093,1.07032 c 17.78128,3.83493 30.26828,11.08018 39.66993,23.94531 0.10771,0.14778 0.21335,0.30008 0.32031,0.44922 0.34469,0.48011 0.68691,0.96525 1.02344,1.46094 0.10658,0.15647 0.21058,0.31673 0.3164,0.47461 0.38786,0.58132 0.77327,1.1688 1.15039,1.77148 4.40663,7.04247 8.09424,15.55499 11.3418,25.81641 2.40888,7.61144 12.19402,118.77566 12.23828,134.0332 l 0.0156,4.7207 c -3.37682,0.12057 -15.42508,0.3689 -35.97657,0.67969 H 511.79297 414.4375 c -7.8333,-0.0881 -13.58423,-0.19307 -15.4707,-0.32422 -0.288,-0.18784 -0.52856,-0.38793 -0.74414,-0.60351 -0.27024,-0.27024 -0.51211,-0.56096 -0.74024,-0.86915 -0.41454,-1.43922 -0.74059,-4.02599 -0.99023,-7.81054 -0.12851,-6.8476 -0.26848,-19.29308 -0.35352,-32.61524 -0.19351,-30.19615 -0.61773,-34.1372 -4.4414,-41.24218 -0.0113,-0.0227 -0.0304,-0.0488 -0.041,-0.0723 -1.56692,-3.71989 -3.70221,-6.67412 -6.60742,-9.62695 -0.95516,-1.148 -1.87624,-2.16608 -2.67969,-2.91602 -2.80543,-2.61838 -5.10156,-5.49099 -5.10156,-6.38281 0,-0.62793 2.41871,-1.17035 5.89648,-1.43945 l 6.35156,-0.18164 h 8.13282 c 0.59731,1.56839 0.91277,4.78228 1.22265,10.42968 v 7.93164 c 0,8.57379 0.37805,16.75522 0.88477,20.22071 l 0.0957,3.64062 h 0.002 l 6.95507,0.0488 c 8.41372,0.79423 27.07914,0.93359 68.55469,0.93359 h 74.10742 l 0.0391,-0.98242 h 1.56054 l 0.0801,-10.31445 c 0.50457,-11.63773 0.86059,-33.47954 0.87109,-58.14844 l 0.0156,-27.48633 c 0.002,-0.87511 0.0176,-1.97551 0.0176,-2.80859 v -27.33594 l 0.043,-5.58008 c 0.13455,-0.32693 0.27891,-0.62264 0.43164,-0.88672 z m -244.68164,4.53126 c 1.16134,-3.8e-4 3.09286,2.81112 4.44726,6.55664 1.40449,3.88406 4.43378,8.93739 6.83203,11.44726 l 18.10743,9.5957 0.002,0.0293 c 3.54961,1.34245 4.20034,2.28393 2.41406,3.41602 -0.68467,0.43392 -1.23738,0.75165 -1.74414,1.00586 -0.0949,0.0302 -0.21421,0.0763 -0.30469,0.10351 -5.17919,-1.4344 -10.27927,-4.89032 -15.76172,-7.49805 l -1.53515,2.16016 -4.05274,4.9043 c -10.62641,12.8595 -15.57617,27.34531 -15.57617,45.58398 0,16.86497 2.83986,28.51138 8.11914,33.28906 0.86412,0.78203 1.56541,1.32133 2.19922,1.67774 0.10413,0.0627 0.20748,0.11411 0.31055,0.16211 1.14636,0.5393 2.08318,0.36434 3.31445,-0.5 0.39693,-0.21354 0.82848,-0.46568 1.30859,-0.76563 0.7953,-0.4967 1.57518,-0.90692 2.28125,-1.2207 0.8095,-0.11263 1.52379,0.073 2.01758,0.58789 0.93983,0.98041 7.65289,15.92311 14.91992,33.20508 7.26685,17.28204 14.42719,34.29422 15.91016,37.80469 l 2.05274,4.86132 c -0.35022,0.50593 -1.38489,0.83846 -3.14649,1.04297 -0.38435,0.0265 -0.75027,0.0555 -1.18359,0.0781 -2.27544,-0.0151 -5.28709,-0.0702 -9.11524,-0.17188 -10.01717,-0.45649 -42.25422,-2.09522 -81.1875,-4.14062 -66.09523,-3.4724 -78.61012,-4.59098 -79.03125,-7.07031 -0.0121,-0.0707 -6e-5,-0.26496 0,-0.39649 0.0398,-0.63655 0.10017,-1.36498 0.17969,-2.18359 2.21741,-19.00188 23.66865,-134.20832 25.9375,-138.50391 0.38267,-0.25474 0.83197,-0.52116 1.33203,-0.79687 5.18493,-2.18483 25.7723,-9.35416 49.59375,-17.23633 27.00315,-8.93496 50.01576,-16.5808 51.13867,-16.99024 0.0702,-0.0264 0.14326,-0.0371 0.22071,-0.0371 z m 167.53515,14.0039 c 1.28327,-0.0265 3.48344,2.53167 8.20313,10.15234 0.67423,1.08866 1.39984,2.2795 2.18164,3.58204 4.69073,7.81515 11.40122,19.60972 21.14258,36.94336 16.41479,29.20834 29.98082,53.39171 30.61132,54.56836 -0.63537,0.44781 -2.46406,0.79852 -5.93945,1.07031 -8.2292,0.40535 -24.02922,0.71144 -43.30273,0.80469 -2.23869,0.0113 -4.61365,0.012 -6.9336,0.0195 -1.79255,0.004 -3.53134,0.01 -5.36328,0.01 -16.06276,-0.003 -30.43915,-0.0995 -41.61914,-0.24805 -12.94586,-0.24451 -18.80535,-0.701 -20.56445,-1.49414 l 28.65625,-49.80859 c 11.34172,-19.71371 21.46763,-37.16996 27.20117,-46.92969 2.50367,-4.08446 4.43102,-7.13661 5.47852,-8.62695 0.0794,-0.0265 0.16074,-0.0411 0.24804,-0.043 z m -79.05273,5.65234 1.31054,27.46876 c 0.24567,5.14716 0.41521,9.75438 0.54493,13.95117 l -0.27149,14.38672 c -1.25612,0.44027 -6.72501,1.19428 -13.0039,1.76953 l -6.41016,0.58789 -6.63281,-0.043 -14.93555,-18.39063 c -7.74143,-9.53306 -13.92008,-17.66511 -14.6543,-19.24609 0.82982,-0.48563 3.24782,-1.54144 6.56641,-2.91016 5.06605,-1.9288 12.37677,-4.66326 20.76953,-7.75 z m 255.08789,12.26368 c 1.65165,-0.0113 3.48871,-0.003 5.55078,0.0117 3.7378,0.0264 6.86329,0.10949 9.62695,0.2871 0.87137,0.13342 1.74554,0.27628 2.625,0.44141 2.20075,0.41284 4.42634,0.92529 6.66992,1.53516 0.0378,0.0113 0.0743,0.018 0.11133,0.0293 0.0113,0.003 0.0258,0.008 0.0371,0.0117 0.46171,0.12624 0.92564,0.26381 1.38867,0.39844 22.29842,6.63984 42.90575,23.05764 48.52539,42.38867 4.86906,16.74894 3.08777,44.5584 -4.75781,74.29492 -7.93372,30.07053 -8.10945,43.81102 -0.74414,58.34961 0.0404,0.0801 0.0897,0.15973 0.13086,0.24024 1.98225,4.43263 4.62994,8.21099 7.93555,11.29883 1.38822,1.47303 2.76064,2.71691 4.00781,3.54297 l 5.84375,3.86914 c -1.27521,0.34015 -4.28774,0.45538 -9.57031,0.47265 -0.11755,3.8e-4 -0.21247,-0.004 -0.32813,-0.004 -10.93678,-0.39776 -24.03997,-5.85887 -27.00781,-11.4043 -3.55219,-6.63731 -2.48854,-39.37154 1.96484,-60.46875 5.91319,-28.01144 7.121,-57.7679 2.92969,-72.18555 -11.94815,-35.38302 -45.26472,-43.96693 -58.34765,-35.38046 1.29331,0.10129 2.55902,1.72827 3.77539,1.86093 26.52056,3.87806 41.37143,18.56636 45.55468,44.83203 2.32158,14.57617 1.17728,26.95925 -5.89062,63.70117 -4.61885,24.01085 -4.84547,37.79323 -0.92383,56.30664 2.93212,13.84207 14.3183,40.35297 20.05273,46.68946 0.18256,0.20182 0.34511,0.39421 0.50196,0.58398 0.51806,0.95286 0.76313,1.61856 0.6875,2.01367 -0.53265,0.14325 -1.22445,0.25531 -2.03516,0.34375 -2.73082,-0.30387 -8.40239,-0.88607 -15.58398,-1.58203 -9.54917,-0.92538 -19.19631,-3.1837 -23.94336,-5.60547 -14.1343,-7.21077 -24.01834,-24.09223 -25.39844,-43.38086 -0.10923,-1.52692 -0.18354,-2.92228 -0.2168,-4.26367 0.39255,-6.07166 1.58802,-12.85037 3.58985,-20.64648 1.37397,-4.52614 3.20488,-10.07374 5.65625,-17.32813 5.46984,-16.18718 10.89477,-35.40338 12.05468,-42.70312 2.65138,-16.68586 0.11074,-34.01267 -6.6875,-45.61328 -5.21625,-8.9009 -20.07076,-20.17172 -28.9746,-21.98438 -0.29821,-0.0609 -0.57589,-0.14688 -0.85743,-0.22851 -2.05568,-1.0904 -3.89391,-2.55375 -5.33984,-4.19532 -0.40554,-0.69664 -0.76489,-1.46291 -1.06445,-2.32226 l -1.44141,-4.13477 c 10.25762,-0.92324 6.04572,0.9517 14.19595,-2.84769 -6.95628,-4.58162 -5.07144,-0.99451 -15.59829,-3.22848 l 5.31054,-4.56836 c 2.92044,-2.51202 10.36048,-6.04204 16.53321,-7.8457 2.435,-0.71154 4.95535,-1.20575 7.52539,-1.53906 0.64993,-0.0113 1.20997,-0.0376 1.92578,-0.041 z m -328.30859,2.45508 c 1.83379,0.12923 4.67683,3.41389 11.88281,12.45312 6.32706,7.93671 12.34966,15.5346 13.38281,16.88477 0.54095,0.70696 0.92724,1.32162 1.12695,1.75 3.04939,2.60141 4.80661,6.40775 4.8086,10.41601 -1.47899,11.23831 -24.75529,17.99259 -27.16602,19.80469 -1.86666,1.09992 -5.77069,2.14746 -7.59765,3.16797 -3.00075,1.23518 -5.39224,2.08544 -6.91993,2.44336 -0.18705,-0.23282 0.0591,-0.7245 0.91211,-1.52149 1.62056,-1.66858 2.06534,-2.15338 4.63282,-3.64648 13.21315,-7.03495 17.53667,-11.04677 5.0332,-6.95313 -11.62235,3.77866 -12.65668,3.88344 -12.69922,0.86133 0.0381,-1.26089 0.88272,-2.35576 2.42578,-3.25586 1.80906,-0.69464 4.82159,-1.17293 9.66992,-1.67969 13.02644,-2.14654 2.75795,-5.76458 -5.72461,-5.41796 -5.25487,0.19124 -6.38281,-0.49755 -6.38281,-3.9043 0,-2.02492 0.52806,-3.13796 1.5332,-3.2832 0.33506,-0.0484 0.72255,0.0115 1.16211,0.17968 13.55717,6.07824 20.45049,-1.57071 5.65235,-4.86914 -3.43897,-0.77015 -6.00776,-1.85654 -7.33399,-3.01172 -0.33981,-0.61141 -0.54567,-1.3072 -0.66406,-2.13476 l -0.15625,-1.08789 c 0.22896,-0.68973 0.69529,-1.06069 1.59375,-1.0625 1.83189,-0.004 5.42035,1.47607 12.25586,4.6582 12.53071,4.79452 8.94223,-2.14076 0.19531,-6.39844 -5.67066,-2.858 -10.31055,-6.33757 -10.31054,-7.73437 0,-1.36989 0.51689,-2.49037 1.15429,-2.5332 0.0564,0.008 0.11644,0.022 0.17578,0.0371 26.17914,16.8395 29.81791,17.0168 3.99024,-6.05468 -0.66101,-0.96151 -1.03034,-1.81666 -1.10352,-2.61524 0.42187,-1.06843 1.2769,-2.58344 2.28125,-3.95703 0.73152,-1.00036 1.3559,-1.59385 2.18946,-1.53515 z m 44.24218,52.76953 v 0.002 l 5.46485,4.11523 c 1.13619,0.85561 2.17906,1.71709 3.16797,2.58789 3.33451,3.46232 6.92445,8.33898 8.90039,12.28125 0.20144,0.40215 0.3598,0.76483 0.54492,1.15039 1.86587,5.03298 2.83354,11.10961 3.24804,19.00977 0.9614,18.31756 -0.27591,31.95102 -3.15625,36.78711 -0.72083,0.68368 -1.53485,1.34969 -2.39843,1.97656 -5.78252,4.81671 -3.66813,5.40452 1.69922,5.35156 1.50829,0.008 2.12562,0.93255 2.24218,2.83985 -0.0627,1.64368 -0.69149,3.10918 -1.84179,4.33008 -10.28779,8.04446 1.43031,5.47657 3.67773,13.72656 1.11126,4.12694 5.06996,12.56887 8.79688,18.75781 3.72687,6.18913 6.14494,11.25195 5.37304,11.25196 -3.19997,0 -19.96622,-19.22023 -22.88281,-26.23243 -0.13493,-0.32428 -0.22917,-0.55444 -0.35352,-0.85351 -0.21241,-0.33487 -0.40288,-0.62132 -0.63671,-1.00196 -7.20401,-11.72745 -5.6235,-29.84168 -5.39844,-32.0625 -0.36771,-4.33239 -0.57359,-11.36946 -0.81055,-22.66601 -0.0132,-0.62665 -0.0276,-1.09642 -0.041,-1.69922 0.26611,-10.64939 -0.25337,-19.6632 -1.51954,-26.76758 -0.31147,-1.94596 -0.6887,-3.62576 -1.15625,-5.19922 -9.9e-4,-0.004 -0.003,-0.008 -0.004,-0.0117 -0.9151,-3.36328 -2.0498,-6.13245 -3.4043,-8.24804 -2.05821,-4.1277 -3.92513,-6.91081 -4.39844,-6.4375 -0.17431,0.17423 -0.1897,0.89505 -0.0976,1.93945 -1.16548,-0.74389 -1.00875,-0.008 0.0156,2.57031 0.214,0.53783 0.40983,1.05514 0.60742,1.57422 0.36662,1.90692 0.86278,4.11194 1.46289,6.41602 1.36444,5.23842 2.23162,10.1354 2.61915,15.44726 0.0567,4.7514 -0.18709,10.42195 -0.67383,17.80469 -0.23411,3.55102 -0.42181,6.67516 -0.59375,9.67774 -0.18928,1.58783 -0.36049,3.1172 -0.58594,4.82812 -2.63943,20.03131 -0.6822,32.35169 8.0918,50.9043 4.8727,10.30337 7.5719,13.31623 17.91601,20.00195 l 10.17774,6.57813 c -7.77566,1.63107 -12.15106,1.65682 -20.67578,1.25585 l -0.44532,0.004 c -0.0302,-0.008 -0.0533,-0.018 -0.082,-0.0293 -115.50729,-1.80888 -96.84457,2.3268 -81.64844,-6.01367 1.57319,-0.62887 2.93338,-0.93289 4.06641,-0.91211 3.77029,1.28534 5.07433,2.62191 7.25391,-2.66406 0.0928,-0.034 0.18784,-0.0672 0.29492,-0.0781 0.14649,-0.0151 0.3095,9.5e-4 0.48047,0.0352 0.44617,0.21695 0.92195,0.54773 1.39844,0.94141 0.44303,0.51209 0.84812,1.16246 1.12304,1.8789 5.2867,3.38363 4.32628,-0.0264 3.88086,-4.26367 0.0382,-0.0382 0.0818,-0.0635 0.12891,-0.082 0.34979,0.35981 0.82326,1.02786 1.41015,2.03711 3.56892,4.9155 6.17823,5.03357 4.5293,-1.54492 2.67975,4.45742 16.22458,5.64001 14.20898,1.39844 -1.7761,-3.90271 -2.45647,-5.57217 -2.07226,-5.4668 l 2.19336,2.47656 c 9.24458,9.53012 3.03553,-2.59247 2.80273,-6.31055 0.0257,-0.0264 0.0593,-0.0389 0.0996,-0.0352 9.49922,9.4097 10.54684,14.97099 6.51953,-0.97461 17.39643,20.24107 2.05277,1.28423 6.6211,-2.81641 0.0573,-0.034 0.1266,-0.0491 0.20703,-0.0469 25.97637,24.3007 3.72652,0.83053 10.87109,-3.57617 0.32164,-0.17991 0.62662,-0.40383 0.91602,-0.64844 l 0.002,-0.002 0.006,-0.008 c 0.0784,-0.0665 0.15916,-0.12929 0.23438,-0.19922 1.01519,-0.86007 1.71875,-1.82508 1.71875,-2.48828 0,-0.0302 -0.0344,-0.14309 -0.0527,-0.21679 0.0306,-0.15799 0.0527,-0.31487 0.0527,-0.46289 0,-1.32745 -8.77379,-23.15461 -19.4961,-48.50586 l -18.45508,-43.63868 c -0.32927,-0.94238 -0.62754,-1.81169 -0.72656,-2.21875 0.45741,-0.34885 1.04154,-0.75355 1.7168,-1.19726 l 16.97461,-8.03125 15.20312,-7.19531 c 1.5697,-0.48034 3.09827,-0.84169 4.6875,-1.13086 z M 261.6582,837.96094 c 3.1077,-0.0227 10.05487,0.24639 17.93946,0.71679 l 17.74023,1.0586 c 1.36967,0.86502 1.36144,3.22163 0.98633,9.60351 l -0.56445,9.58985 -15.53321,4.74023 c -8.88774,2.71091 -16.46183,4.91089 -17.19531,4.99805 -0.0907,-0.0227 -0.18037,-0.0684 -0.26953,-0.13867 -1.21494,-2.28446 -5.61695,-29.65455 -4.82422,-30.44727 0.0751,-0.0752 0.68481,-0.11391 1.7207,-0.12109 z m 46.87305,2.26172 15.18359,0.45312 c 3.78894,0.24227 8.08959,0.407 12.34571,0.46484 7.94459,0.46232 13.25662,1.2351 12.5,1.9375 -0.95379,0.88551 -9.68708,3.9193 -19.40821,6.74219 h -0.002 c -9.72113,2.82289 -18.33639,5.1309 -19.14648,5.13086 -0.78308,-2.6e-4 -1.42467,-3.10361 -1.46875,-6.96875 -9.6e-4,-0.0832 -0.004,-0.16219 -0.004,-0.24609 v -0.18555 z m 188.9375,4.91015 h 37.01367 37.01367 l -3.78711,8.34571 c -0.0521,0.11527 -0.0951,0.232 -0.14648,0.34765 -0.9075,1.61828 -1.53338,3.29606 -1.95703,5.33399 -2.49487,8.45487 -2.21223,17.20594 0.81445,25.30664 0.0593,0.16327 0.12205,0.32655 0.18555,0.48828 0.69188,1.78076 1.50068,3.53153 2.45898,5.23633 l 5.23243,9.30859 -4.30274,21.42188 c -2.36621,11.78212 -5.61587,31.58444 -7.22266,44.00585 -3.5698,27.59339 -6.35411,43.80327 -9.1914,53.51567 -1.32204,4.5253 -3.35651,7.3638 -5.27735,7.3632 -0.79362,-10e-5 -1.38412,-0.4987 -1.83203,-2.1816 -0.46386,-3.4569 -0.83818,-10.2347 -1.09961,-19.5762 -0.0809,-5.75001 -0.16193,-12.06089 -0.23828,-19.04489 -0.008,-2.86141 -0.0197,-5.51216 -0.0234,-8.78516 -0.0752,-55.46631 -1.23672,-62.85058 -14.125,-89.8457 -3.90509,-8.17939 -8.32597,-14.86838 -14.54102,-21.89063 -4.21697,-5.47548 -8.52869,-9.97029 -12.62891,-12.99804 z m -174.75781,16.63477 c -0.0215,0.1217 -0.0225,0.23874 -0.0293,0.35742 -0.0102,-0.0461 -0.0735,-0.27848 -0.0762,-0.30078 0.0295,-0.0302 0.0648,-0.048 0.10547,-0.0566 z m -49.95899,16.75 c 4.25558,0 11.83633,0.56311 16.84766,1.25 l 9.11133,1.24804 -0.004,31.64649 c -0.003,17.40525 -0.58626,49.54148 -1.29492,71.41406 -1.23025,37.97083 -1.36889,39.69303 -5.20703,39.75973 -1.08156,-0.015 -2.08338,-0.1248 -2.91797,-0.3066 -2.4723,-1.9928 -4.10008,-14.0711 -14.27149,-82.16797 -4.27536,-28.62278 -8.27403,-54.47299 -8.88671,-57.44336 -1.06563,-5.16628 -0.77857,-5.40039 6.62304,-5.40039 z m 19.3086,152.64842 c 8.27063,-0.3156 9.91079,10.4163 9.84765,11.3633 -0.0631,0.9471 -14.39453,1.2637 -14.39453,1.2637 0,0 -3.72374,-12.3113 4.54688,-12.627 z m 252.80078,0.3438 v 0 c 0.22072,0 0.44881,0.01 0.68359,0.029 7.51298,0.7577 5.30274,13.5098 5.30274,13.5098 l -13.06836,-0.7578 c 0,0 0.23662,-12.6795 7.08203,-12.7832 z"
       style="fill:#000000;stroke-width:1.96386516" />
  </g>
</svg>
