<?xml version="1.0" encoding="UTF-8" standalone="no"?>
<svg
   xmlns:dc="http://purl.org/dc/elements/1.1/"
   xmlns:cc="http://creativecommons.org/ns#"
   xmlns:rdf="http://www.w3.org/1999/02/22-rdf-syntax-ns#"
   xmlns:svg="http://www.w3.org/2000/svg"
   xmlns="http://www.w3.org/2000/svg"
   width="210mm"
   height="297mm"
   viewBox="0 0 210 297"
   version="1.1"
   id="svg2043">
  <title
     id="title2626">Ladybug on leaf</title>
  <defs
     id="defs2037" />
  <metadata
     id="metadata2040">
    <rdf:RDF>
      <cc:Work
         rdf:about="">
        <dc:format>image/svg+xml</dc:format>
        <dc:type
           rdf:resource="http://purl.org/dc/dcmitype/StillImage" />
        <dc:title>Ladybug on leaf</dc:title>
        <dc:source>http://www.supercoloring.com/coloring-pages/ladybird-on-a-leaf</dc:source>
        <dc:date>2020-04-02</dc:date>
        <dc:subject>
          <rdf:Bag>
            <rdf:li>landscape</rdf:li>
            <rdf:li>csk</rdf:li>
            <rdf:li>insects</rdf:li>
            <rdf:li>ladybug</rdf:li>
          </rdf:Bag>
        </dc:subject>
      </cc:Work>
    </rdf:RDF>
  </metadata>
  <g
     id="layer1">
    <path
       id="path2613"
       transform="scale(0.26458333)"
       d="m 514.81445,130.8125 c -0.8157,-0.007 -1.74753,0.0497 -2.77539,0.16406 -1.36709,0.0726 -2.81687,0.20274 -4.44336,0.45899 -5.59793,0.8822 -11.65621,2.45862 -13.46093,3.50195 -1.80473,1.04333 -5.42518,2.39027 -8.04493,2.99219 -9.74158,2.23851 -59.48497,29.30611 -84.58984,46.02929 -10.90303,7.2629 -29.56134,18.4718 -51.17578,30.74414 -25.6591,14.56887 -48.28862,30.94776 -84.58399,61.2168 -8.45548,7.0515 -13.18018,10.07643 -14.875,9.52735 -10.24823,-3.31997 -13.22495,-3.73411 -16.9082,-2.36133 -10.60007,3.95074 -20.35727,19.04111 -39.10937,60.49609 -7.7566,17.14745 -15.95798,32.60379 -22.30078,42.02735 -5.51776,8.19764 -12.46364,18.59126 -15.4375,23.0957 -2.9739,4.50455 -8.74573,12.02973 -12.82422,16.72265 l -6.28321,7.22657 c -0.59344,0.35338 -1.12455,0.58203 -1.61133,0.70898 -0.039,0.002 -0.0779,0.001 -0.11718,0.002 l -8.85352,-8.80273 -9.45117,-9.39453 -3.06836,3.32812 c -0.0782,0.0847 -0.21529,0.26968 -0.30078,0.36719 -0.0922,0.0945 -0.17745,0.15381 -0.27149,0.25586 -1.55686,1.69051 -3.79423,4.88157 -6.27734,8.76367 -5.27137,7.83795 -11.596812,18.06831 -13.785155,22.65235 -1.421412,2.97762 -3.612726,8.49984 -4.873047,12.27343 -1.260363,3.77352 -5.473763,13.72622 -9.361328,22.11719 -17.893678,38.6219 -23.625192,60.41059 -24.373047,92.64649 -0.20572,8.86828 -0.4793,17.30673 -0.605469,18.75195 -0.126122,1.44525 0.719243,13.91487 1.876954,27.71094 1.157725,13.79607 1.790832,34.71496 1.40625,46.48437 -0.733221,22.43637 -0.289977,21.02577 -13.458985,42.67188 -3.746736,6.15862 -4.491652,9.3599 -1.919922,10.74804 0.533957,0.49297 1.249218,0.73063 2.095703,0.64453 0.915258,0.15308 1.987968,0.23205 3.263672,0.23243 9.328041,0.004 27.754484,9.36937 44.785156,21.60937 4.512666,3.63145 9.365128,7.70628 14.025388,11.79883 4.81243,4.31036 9.37267,8.53903 13.01563,12.09961 3.96872,4.44744 6.91892,8.22411 6.95117,9.03516 0.0403,1.01075 -3.89985,2.30518 -8.75391,2.87695 -3.80122,0.44783 -6.75108,1.23988 -8.71679,2.29297 -0.53585,0.23924 -0.97279,0.50166 -1.26563,0.80859 -0.56824,0.40876 -0.97948,0.85845 -1.22851,1.35156 -2.19622,2.82373 -3.04707,1.7667 29.31445,29.3125 22.51954,19.16856 30.59728,24.72952 45.19726,31.11133 17.87525,7.81342 23.31096,8.67596 39.46094,6.25781 17.65995,-2.64427 29.07184,-7.90371 40.52539,-18.67578 7.78632,-7.3231 11.38588,-9.77059 14.54493,-9.89648 6.17843,-0.24605 9.91478,4.15726 9.99804,11.78125 0.0404,3.66217 0.51142,7.06433 1.04883,7.56054 0.5373,0.49599 1.54848,5.29554 2.24414,10.66602 0.69562,5.37044 3.45753,15.95554 6.13672,23.52344 2.67927,7.56794 7.77073,23.46947 11.31445,35.33594 10.69913,35.8272 23.70081,67.55882 40.85352,99.71288 13.08537,24.5297 17.40343,29.9935 23.51758,29.75 l 4.60351,-0.1855 0.96289,-2.4883 c 0.22564,-0.3428 0.37993,-0.7414 0.46289,-1.1934 l 2.5586,-6.6113 c 2.19231,-5.6609 5.69118,-12.8644 7.77343,-16.0078 3.90112,-5.8903 4.42508,-11.1738 1.16993,-11.8067 -3.16411,-0.6151 -22.32241,-26.06859 -30.67774,-40.75973 -11.65243,-20.48821 -17.21853,-36.76217 -29.99609,-87.67773 -12.90872,-51.43828 -12.65381,-55.56754 4.45898,-72.14844 10.96033,-10.61972 22.4487,-16.51131 32.56446,-16.69727 3.62732,-0.0673 5.4159,0.1322 7.48632,1.7168 0.0302,0.0227 0.073,0.0621 0.10743,0.0859 1.23118,0.96533 2.56871,2.41722 4.46093,4.60156 9.5092,10.97692 14.34888,18.13264 16.54297,24.46289 4.1328,11.92422 22.80317,24.45649 41.56055,27.90039 16.80408,3.08531 51.25609,-3.69215 61.29883,-12.05859 3.43986,-2.86575 11.77016,-9.01513 18.51367,-13.66406 10.56128,-7.28096 14.35784,-10.93045 27.38281,-26.34571 26.73543,-31.64194 27.3523,-32.49588 36.51758,-50.30078 6.99545,-13.58959 15.56202,-38.50262 21.3125,-61.73047 1.56461,-4.42802 3.23981,-8.86091 4.98047,-13.20117 4.54734,-9.8417 11.44885,-23.38201 14.35156,-27.62695 4.77551,-6.98374 6.49222,-13.77901 4.04883,-16.03516 -0.12208,-0.11301 -0.42922,-0.17793 -0.81836,-0.21875 -0.46367,-0.44232 -1.0347,-0.76395 -1.73633,-0.90039 -0.85372,-0.16592 -4.02317,0.61914 -7.33203,1.76563 -0.004,6.8e-4 -0.008,0.001 -0.0117,0.002 -8.93061,1.43063 -21.78652,4.30358 -29.60156,6.90234 -0.76815,0.2555 -1.40733,0.45802 -1.98242,0.63086 -1.49178,0.20447 -2.6324,0.22906 -3.35157,0.0703 -0.40633,-0.48378 -0.53548,-1.4145 -0.66992,-2.90821 -0.20145,-2.24296 0.38819,-6.0261 1.31055,-8.41015 3.08243,-7.96672 14.01949,-27.94304 19.71875,-36.01172 11.13676,-15.76687 19.7027,-30.39527 23.79687,-40.64649 5.29743,-13.26395 9.34073,-25.28728 11.08204,-32.47265 0.69713,-2.49188 1.08808,-4.64263 0.95507,-5.48633 0.008,-0.57226 -0.0484,-1.00116 -0.19726,-1.21289 -0.74888,-1.05778 -8.2816,-3.91159 -16.73633,-6.34375 -8.45477,-2.43213 -17.44767,-5.74894 -19.98437,-7.36914 -0.0113,-0.008 -0.024,-0.0197 -0.0391,-0.0234 -1.21228,-0.95841 -2.45063,-2.03064 -3.88867,-3.35938 -0.33411,-0.30878 -0.61867,-0.58402 -0.92969,-0.8789 -4.19629,-4.67052 -7.56554,-11.16872 -8.18164,-16.48633 -0.3795,-3.27817 -1.38345,-6.59858 -2.22851,-7.37891 -0.0302,-0.0302 -0.0551,-0.0708 -0.0801,-0.10742 -0.16063,-0.94284 -0.27629,-1.85802 -0.34961,-2.74023 0.29972,-6.24193 4.16478,-20.91752 8.37109,-30.48438 2.78691,-6.33872 6.8435,-12.16749 13.46289,-19.33594 6.20081,-6.71527 9.61864,-11.52255 9.89258,-13.91015 0.40203,-3.50495 0.0491,-3.76806 -9.07031,-6.75195 -5.22036,-1.70839 -14.19821,-3.13222 -19.94922,-3.16211 -5.751,-0.0302 -12.74234,-0.4837 -15.53711,-1.00977 -10.69561,-2.01369 -20.31971,-15.12722 -30.45508,-41.50195 -5.88491,-15.31404 -31.24285,-61.05189 -34.58789,-62.38477 -2.37717,-0.94723 -3.50582,-0.16635 -6.69336,4.61914 -10.68215,16.03744 -11.72045,17.17661 -15.99218,17.56055 -7.37277,0.66269 -15.17634,-6.10392 -19.95313,-17.29688 -5.20135,-12.18766 -5.0432,-28.92082 0.45117,-47.9082 2.564,-8.86038 17.93057,-35.36581 32.2461,-55.62109 6.12321,-8.66368 11.25795,-16.39303 11.41015,-17.17578 0.15194,-0.78276 3.72838,-6.1144 7.94531,-11.84766 10.35395,-14.07677 11.58303,-22.26454 3.83008,-24.20117 -0.30878,-0.11592 -0.61254,-0.23322 -0.95508,-0.32227 -0.5622,-0.14611 -1.26046,-0.21924 -2.07617,-0.22656 z m -14.84961,17.05469 c 0.14136,0.29102 0.0489,0.77218 -0.19531,1.42383 -0.0922,0.15496 -0.21026,0.3498 -0.31836,0.52734 l -2.58203,3.6543 c -2.55787,3.62483 -8.31647,12.10504 -12.79687,18.84375 -5.86719,8.82474 -9.54814,13.10199 -13.16016,15.29492 -2.81189,1.70717 -18.3421,17.47803 -35.35156,35.89844 -45.98994,49.80513 -63.73712,74.00605 -54.625,74.48828 2.25864,0.11958 3.21814,-0.93778 5.43359,-5.98243 1.47965,-3.36944 7.46557,-12.40536 13.30078,-20.08203 0.6666,-0.87695 1.52035,-1.94865 2.44531,-3.08984 6.60016,-7.69735 15.93985,-18.20592 29.86915,-33.67187 7.88927,-8.75971 14.8542,-16.38083 21.10546,-23.17188 9.30637,-9.82146 16.21702,-16.74318 16.18164,-15.76172 -0.0378,1.04345 -3.76738,7.87481 -8.28906,15.17969 -15.1152,24.4187 -19.59151,39.074 -18.47265,60.48242 0.82235,15.7344 3.98817,26.10377 10.43359,33.72461 0.0548,0.0775 0.10737,0.16922 0.16406,0.24609 0.93717,1.26681 2.35057,2.61274 4.03125,3.94727 12.54701,11.06618 25.37002,12.71357 36.16016,4.69336 1.59205,-1.06743 3.06097,-2.28279 4.36328,-3.63477 2.60292,-2.14528 4.85473,-3.49604 5.55273,-3.24218 0.0737,0.0367 0.14411,0.0894 0.21289,0.14062 0.73622,0.7816 4.461,7.11123 8.42383,14.33203 4.0337,7.35002 7.88873,13.8763 8.56836,14.50391 0.10129,0.0933 0.22961,0.28229 0.34375,0.42383 0.95652,1.77513 1.85124,3.45882 2.71875,5.11523 2.08475,4.64089 5.28576,12.63532 10.6211,26.39453 6.23433,16.07772 8.36169,19.89631 14.05468,25.23047 8.09405,7.58332 14.0076,9.38551 29.92383,9.12109 l 11.69922,-0.19531 -4.80273,9.375 c -16.09905,31.41487 -18.57016,43.6775 -12.83008,63.74414 2.55889,8.94562 4.24041,11.71927 12.26367,20.25 11.81726,12.56482 19.91338,18.04518 28.58203,19.34961 l 4.08594,0.61719 c 1.5733,0.67268 2.23061,1.38744 2.25,2.29101 l -2.32422,8.05469 c -3.62631,12.58715 -9.25635,23.80058 -19.93359,39.69727 -28.60063,42.58178 -33.61155,51.90912 -35.38672,65.83203 -1.8838,14.77447 7.38603,21.85845 21.49414,16.42383 13.12728,-5.05686 18.5938,-6.87977 20.41992,-6.70508 0.20636,0.0227 0.38815,0.0647 0.54492,0.11719 0.0726,0.0427 0.13068,0.0982 0.17188,0.16211 0.37455,0.58136 -1.29813,4.97028 -3.7168,9.75195 -2.4186,4.78174 -9.45802,20.83149 -15.64258,35.66406 -29.90109,71.71351 -29.36812,70.78703 -57.03906,98.93555 -28.92699,29.42619 -39.30999,37.90139 -51.14649,41.7539 -6.63231,2.15861 -12.08716,3.60025 -16.92968,4.31836 -1.45338,0.127 -2.94401,0.23786 -4.51758,0.31836 -1.41026,0.0718 -2.66206,0.12539 -3.81641,0.16016 -7.27997,-0.33865 -13.70335,-2.85429 -21.90625,-7.75195 -13.35398,-7.97318 -15.92964,-10.48121 -25.42578,-24.72852 -9.16191,-13.74561 -20.12102,-22.97755 -29.5293,-24.87695 -6.0232,-1.21606 -25.22515,2.55172 -34.38476,6.74609 -1.39884,0.64056 -3.17283,1.85405 -5.26563,3.58008 -2.559,1.70271 -4.92394,4.02916 -8.68359,8.26367 -1.10929,1.14694 -2.17684,2.22374 -3.37695,3.52344 -11.3929,12.338 -11.9545,13.24797 -13.30274,21.57226 -2.17137,13.40671 -0.86017,25.66188 6.5,60.7461 4.45357,21.22892 25.93105,75.29474 41.64258,107.47266 1.53581,3.41971 3.70644,7.64027 5.86523,11.48046 2.39796,4.42236 4.5495,8.02436 6.29493,10.39066 5.37755,7.29 5.55514,8.0709 3.12109,13.5898 -0.79226,1.7963 -1.37798,3.1475 -1.97266,3.9024 -1.78397,2.2642 -3.62936,-0.8442 -11.23437,-13.4415 -9.54565,-15.81175 -16.27209,-30.25878 -33.23242,-71.3769 -0.21619,-0.52347 -0.42805,-1.08467 -0.64258,-1.62696 -2.31568,-6.56027 -4.4604,-13.1546 -6.43555,-19.77539 -9.06781,-32.9938 -15.44872,-79.59506 -14.83398,-110.82617 0.16894,-4.42605 0.43915,-8.84877 0.79492,-13.26953 1.16391,-11.92955 1.42032,-13.67554 4.27734,-29.60742 2.53924,-14.16012 1.33991,-19.06855 -4.67578,-19.12891 -4.10831,-0.0427 -4.22822,0.1396 -6.61133,9.99805 -1.33504,5.52272 -2.47601,12.47116 -2.5332,15.43945 -0.0574,2.96833 -0.90768,11.78447 -1.89062,19.5918 l -1.78516,14.19336 -6.73828,-0.63477 c -9.107,-0.85852 -16.35646,2.69123 -31.93359,15.63086 -18.22707,15.14094 -27.16436,18.84416 -40.35547,16.72071 -21.09405,-3.39561 -40.79492,-11.19117 -53.16211,-20.79688 -1.17606,-0.99311 -2.44619,-2.07892 -3.82422,-3.27344 -0.42939,-0.40203 -0.87628,-0.80039 -1.2793,-1.20703 -2.30593,-2.32698 -7.53932,-7.51128 -11.6289,-11.52344 -5.78335,-5.6739 -6.82619,-7.31948 -4.69727,-7.40429 1.50553,-0.0609 4.02971,-1.51002 5.60937,-3.22071 1.08717,-1.17736 1.63942,-2.27818 1.69727,-3.74804 l 0.14453,-0.125 0.12305,-0.0996 -0.002,-0.008 0.41601,-0.35937 -1.12891,-2.61133 c -0.30126,-1.1139 -0.7478,-2.41056 -1.33789,-3.96875 -3.83725,-10.1325 -7.48615,-15.57733 -19.06445,-28.43555 -13.98385,-15.52966 -26.65261,-23.30628 -51.916015,-31.86914 -5.318355,-1.80257 -10.125942,-3.70006 -10.685547,-4.21679 -0.559642,-0.51678 0.94611,-3.82117 3.34961,-7.3418 2.403556,-3.52055 5.332524,-10.16231 6.503906,-14.75977 2.032108,-7.9762 1.52952,-40.75579 -0.816406,-53.32226 C 69.947077,631.70671 67.541674,606.21352 67.183594,595 c -0.0102,-1.84184 -0.0044,-3.67532 0.01563,-5.50586 0.416817,-11.73241 3.017667,-36.71093 5.09375,-48.1875 3.589111,-19.84097 7.777621,-31.23047 20.511719,-55.76172 1.696199,-3.26755 5.964218,-11.68605 9.482422,-18.70898 3.51824,-7.02297 8.86647,-16.17222 11.88867,-20.33008 L 118.5,440.56055 c 0.91093,-0.37758 1.94247,-0.16124 3.56055,0.59179 l 1.88086,1.73633 c 2.98481,2.75618 6.27948,3.97417 10.95312,4.05078 6.2691,0.10243 7.40145,-0.54364 18.23633,-10.43164 13.4836,-12.30523 23.26624,-25.09627 31.85742,-41.65234 3.384,-6.52135 9.37477,-17.77762 13.31445,-25.01563 3.93967,-7.23794 9.45167,-17.9687 12.25,-23.84375 2.79831,-5.87505 9.25495,-16.72201 14.34571,-24.10547 14.34807,-20.81003 15.40318,-21.6015 23.58789,-17.66796 3.44436,1.65537 6.81339,1.49266 10.66601,-0.73047 1.08934,-0.45513 2.20862,-1.27763 3.57813,-2.53516 1.89687,-1.57265 3.92464,-3.57757 6.14258,-6.05273 1.03253,-1.15223 2.17222,-2.34803 3.34179,-3.52735 2.53316,-2.38328 5.71569,-5.1955 9.17188,-8.14843 0.3103,-0.2233 0.62776,-0.45454 0.89648,-0.62696 3.0881,-1.9822 9.51895,-6.92021 14.29102,-10.97265 39.08875,-33.19385 53.51598,-43.07714 117.48828,-80.46875 43.12055,-25.20384 55.81638,-31.88744 76.19922,-39.90039 4.66594,-1.77978 8.38826,-3.1062 9.70312,-3.39258 z M 309.70312,272.77734 c -5.5723,0.061 -7.71054,0.67348 -10.9121,3.77344 -1.71376,1.3136 -3.11477,2.92574 -4.1504,4.7207 -1.86621,2.63843 -2.55645,4.96456 -2.55078,8.06641 0.0113,5.76731 3.6001,10.30088 8.36914,12.73242 1.24785,0.67922 2.5612,1.15528 3.9004,1.45117 0.19313,0.0488 0.38768,0.0769 0.58203,0.11719 0.13228,0.0246 0.26389,0.0487 0.39648,0.0664 4.94279,0.92003 10.24283,-0.22843 13.94922,-4.24219 1.61849,-2.06082 1.62328,-3.32996 0.68359,-5.23828 -5.25005,-4.18025 -6.99299,-5.51427 -8.71875,-3.61914 v 0.002 c -1.90957,2.00082 -2.80372,1.91145 -4.29883,0.0547 -0.54754,-0.67995 -0.92551,-1.30468 -1.17968,-1.87891 -0.0722,-0.34042 -0.15967,-0.64218 -0.21485,-1.02148 l -0.10937,-0.75586 c 0.29631,-1.88532 3.10356,-2.55351 7.72656,-1.49024 4.28109,1.8987 7.17816,2.35617 9.67774,5.23047 0.001,0.001 0.002,7e-4 0.004,0.002 0.54491,0.48795 1.38791,1.44293 2.59375,2.90039 4.26354,5.15324 7.86858,18.36242 9.5586,35.01758 l 0.65625,6.47265 c -0.0484,0.56922 -0.11955,1.09327 -0.23633,1.55274 -0.20259,0.66006 -0.46172,1.26163 -0.79492,1.80273 -0.0265,0.0367 -0.0447,0.0827 -0.0723,0.12109 -0.0404,0.0629 -0.0944,0.11805 -0.13672,0.17969 -0.48087,0.60888 -1.11427,1.11275 -1.88476,1.58594 l -4.26368,1.89453 c -4.27003,1.89728 -10.10467,5.98439 -12.96679,9.08399 -9.36382,10.1406 -18.53559,34.74256 -18.40039,49.36132 l 0.0351,3.7461 c -0.15534,0.9408 -0.33595,1.71723 -0.56836,2.28125 l -9.57226,3.83398 c -5.58834,2.23657 -10.7257,4.67648 -11.41407,5.42188 -0.68832,0.74547 -6.13269,3.88915 -12.09765,6.98632 -2.74757,1.42659 -5.33024,2.96907 -7.90039,4.7168 -0.19238,0.11112 -0.43948,0.27589 -0.70703,0.4668 -0.17537,0.11036 -0.32321,0.19263 -0.51563,0.32226 -0.0189,0.003 -0.0738,0.0312 -0.0859,0.0312 -0.18935,0.008 -0.78491,0.47052 -1.62109,1.20704 -0.13493,0.10166 -0.2453,0.17586 -0.38477,0.2832 -0.87223,0.53748 -1.58492,1.10505 -2.02539,1.625 -0.39273,0.32277 -0.78907,0.65561 -1.20312,1.00586 -2.59442,2.1445 -5.28293,4.56568 -8.21875,7.40429 l -11.82031,11.42579 -12.48438,-6.95313 c -12.5895,-7.00966 -18.22642,-10.87769 -20.06055,-16.55469 -0.32897,-1.67924 -0.58007,-3.60993 -0.70898,-5.6875 0.0623,-2.6112 0.48592,-5.62857 1.16797,-9.3457 0.42603,-2.32191 0.76357,-4.5499 1.01758,-6.50195 0.13874,-0.57899 0.21516,-1.20926 0.21875,-1.86524 0.17661,-1.67629 0.2624,-3.00043 0.16406,-3.44336 -0.85824,-3.86959 -3.27574,-2.2347 -5.97656,4.04102 -8.83122,20.52019 -4.96317,32.84084 13.0625,41.63281 3.74933,1.82873 9.63607,5.25464 13.08398,7.61133 l 3.54883,2.42578 c 1.03709,1.39676 1.39301,2.81882 1.22656,4.51367 -0.0737,0.38007 -0.17288,0.78838 -0.28906,1.21875 l -1.97461,4.29492 c -6.91577,15.04003 -12.91267,36.49452 -15.8457,56.68555 -0.64437,4.43626 -1.70437,8.64467 -2.35352,9.34766 -0.6492,0.70307 -4.05663,1.34628 -7.57226,1.43359 -3.51563,0.0873 -11.03111,1.31586 -16.70118,2.72656 -11.93711,2.96984 -18.0138,4.07993 -21.00976,3.69922 -0.55751,-0.17801 -1.1096,-0.3461 -1.58789,-0.46875 -0.002,-4.9e-4 -0.002,-0.004 -0.004,-0.004 -0.14056,-0.0835 -0.267,-0.17373 -0.37695,-0.27539 -3.02492,-2.79323 -5.46733,-0.43922 -6.45899,6.22265 -0.6811,4.57561 0.13723,8.01365 1.53711,9.14063 l 0.008,0.96679 0.43359,-0.70117 c 0.0181,0.0113 0.0384,0.0101 0.0566,0.0215 0.92274,0.5808 2.13486,-0.0999 3.39063,-2.40039 0.86384,-1.58242 2.06623,-2.70366 3.85937,-3.53516 1.17233,-0.48321 2.61025,-0.81375 4.45508,-1.04688 3.4352,-0.43438 9.00221,-1.90285 12.37305,-3.26367 3.51423,-1.41876 7.3806,-2.37588 11.11328,-2.86133 2.22323,-0.22828 4.43018,-0.33493 6.53711,-0.33984 0.0787,-1.9e-4 0.15617,-1.1e-4 0.23437,0 1.82572,0.0854 3.51675,0.32879 4.99609,0.73438 4.36938,1.19705 4.59087,2.03488 6.66016,25.11914 l 2.14063,23.8789 -1.92969,0.13086 c -0.82155,-0.17159 -2.53382,-0.0991 -5.31836,0.32422 -0.13013,0.0189 -0.27147,0.0488 -0.40234,0.0723 l -0.10743,0.008 c -11.64711,0.80568 -36.00542,9.622 -55.43945,20.06445 -13.15632,7.06938 -16.45656,8.9347 -24.75,17.44922 -3.35128,2.9794 -6.71051,6.27178 -9.83789,9.58008 -0.19158,0.18444 -0.63801,0.57806 -0.78711,0.72656 -0.58051,0.57899 -1.31441,1.44125 -2.10937,2.41992 -3.51715,3.92334 -6.539796,7.69693 -8.652348,10.8418 -5.694278,7.12433 -5.738199,9.38217 -1.169922,8.77344 2.359612,-0.31408 3.99247,-1.88154 6.18945,-5.93164 0.97191,-1.79176 2.11834,-3.59542 3.39063,-5.4043 1.72442,-1.81266 3.47884,-3.66605 5.61523,-5.99023 4.74346,-5.15861 8.2423,-8.85839 11.32227,-11.88477 20.84052,-17.53493 51.59337,-32.75102 78.60937,-37.27148 l 4.82227,-0.80664 2.79297,16.6289 2.6914,16.02344 -7.33984,7.82617 -5.68945,5.52149 c -7.22258,7.00792 -14.5368,13.66143 -16.25196,14.7832 -0.97467,0.6376 -1.62964,1.90403 -1.99023,3.9082 -0.0117,0.0427 -0.016,0.09 -0.0273,0.13086 -0.39205,1.41664 -0.43341,3.10948 -0.42774,5.68164 0.007,3.04528 0.44284,6.86817 1.04883,9.67383 0.60802,4.73295 1.49538,10.36518 2.73828,17.27344 2.35967,13.11537 4.63982,17.61488 7.99024,15.76953 2.56887,-1.41494 2.32412,-17.19385 -0.40626,-26.17578 -1.29589,-4.26286 -2.2202,-10.6885 -2.05468,-14.27735 0.15118,-3.27976 0.48752,-5.17754 2.35937,-7.97851 1.6214,-2.11631 3.72976,-4.63742 6.01172,-7.25977 0.98014,-1.07966 2.04867,-2.24539 3.2793,-3.57812 6.65662,-7.20881 12.14801,-12.13618 13.28125,-11.91602 1.0626,0.20674 5.20427,8.48062 9.20312,18.38672 2.51719,6.23562 5.61029,12.78276 8.98633,19.25781 0.44543,0.88192 0.90152,1.76494 1.36328,2.60547 12.03327,22.47662 27.27803,43.389 34.73828,46.13672 3.29284,1.21274 4.7179,1.23663 7.02735,-0.81055 l 0.44531,0.0293 0.6582,-1.07812 c 0.37607,-0.38378 0.76798,-0.79609 1.20508,-1.27344 0.0495,-0.0548 0.11732,-0.14914 0.16797,-0.20508 0.43404,-0.47955 0.86896,-0.99052 1.30273,-1.57227 0.001,-0.002 0.003,-0.003 0.004,-0.004 2.4491,-3.05972 5.61395,-7.70629 7.76953,-11.51953 4.32888,-7.65755 4.8503,-8.16671 5.97656,-5.83985 2.24179,4.63166 12.16988,16.66537 18.79883,22.78711 4.44083,4.10094 8.76845,7.10113 13.21094,9.08399 3.22624,1.61559 6.38362,2.47645 9.71875,2.68164 0.004,6e-4 0.01,0.001 0.0137,0.002 6.39561,0.72034 13.31009,-0.38913 21.32813,-3.23047 10.80351,-3.82855 24.4671,-11.59756 28.96875,-16.47265 l 2.32812,-2.51954 10.57031,8.71875 0.32618,0.30079 c 0.84929,0.7836 1.66639,1.51818 2.45703,2.21679 0.0915,0.0892 0.15154,0.14795 0.24414,0.23828 2.52344,2.45435 4.52075,4.07258 6.55859,5.18164 7.77317,5.30737 12.61947,4.66226 19.23633,-0.83593 4.08325,-3.39292 6.52959,-4.52359 7.13477,-3.29883 0.50634,1.02538 5.88093,3.5302 11.9414,5.56445 7.8062,2.62001 11.04656,4.4069 11.11524,6.13086 0.0684,1.72396 1.03928,2.48437 3.32812,2.60547 1.8175,0.0964 2.74574,0.6946 2.12109,1.37109 -0.61077,0.66142 -0.007,2.88942 1.33985,4.94922 1.91418,2.92619 3.49665,7.96642 4.5293,13.47266 0.36737,3.19653 0.63094,6.95701 0.83984,11.79492 0.0877,2.03637 0.18141,3.81695 0.2793,5.4375 -0.13985,1.54942 -0.35773,2.97411 -0.6836,4.18359 -0.71686,2.66124 -0.78438,5.31749 -0.14843,5.9043 0.89382,0.82537 1.68241,0.49636 2.35546,-0.64453 0.12095,-0.11943 0.24492,-0.39603 0.37305,-0.8125 2.79681,-6.50279 3.16314,-28.34661 -0.4668,-38.48633 l -3.07031,-8.56445 c 0.43011,0.0737 0.8832,0.17744 1.33984,0.28515 l 6.25,2.82813 c 12.85792,5.8179 22.60108,17.39329 25.96876,30.85352 0.90995,3.63669 2.1601,4.9758 3.35156,3.85351 0.39715,-0.37379 0.78856,-1.01954 1.1582,-1.94727 1.48577,-3.72873 -2.39292,-11.9158 -8.18164,-19.7539 -1.03483,-1.46876 -2.15426,-2.90373 -3.33789,-4.29297 -1.41044,-1.96554 -2.78474,-3.64044 -3.98633,-4.75 -0.62457,-0.57657 -1.49643,-1.24267 -2.47461,-1.93164 -2.67039,-2.43099 -5.36879,-4.46202 -7.90039,-5.76758 -3.22843,-1.66488 -5.88489,-3.34662 -5.90039,-3.73633 -0.0189,-0.38986 8.00696,-4.57521 17.82617,-9.29882 19.06126,-9.16944 43.26229,-25.44538 43.15235,-29.02149 -0.0862,-2.80343 0.15026,-2.90948 -14.27344,6.44727 -12.44697,8.07428 -37.0578,20.50019 -51.35938,25.93164 -6.80844,2.58572 -8.45612,2.39517 -20.74609,-2.4043 -7.34332,-2.86775 -13.2387,-5.72627 -13.09961,-6.35352 0.13909,-0.62728 1.60829,-3.34762 3.26758,-6.04492 4.80846,-7.8167 10.14813,-19.40164 13.14258,-28.51367 1.52341,-4.63551 4.94288,-14.33089 7.59765,-21.54687 2.65486,-7.21603 5.86162,-17.24432 7.125,-22.28125 l 1.24219,-4.94532 c 0.64573,-1.8023 1.18999,-3.19127 1.58594,-4.00976 l 3.9414,1.4707 c 2.45976,0.9199 9.44169,4.8567 15.51758,8.74609 l 9.60938,6.14844 c 0.67907,0.65171 1.13732,1.32733 1.43945,2.11914 l 0.0195,12.38672 c 0.008,7.47164 -0.33811,14.00374 -0.76758,14.51367 -0.43014,0.50941 0.02,1.66487 0.99805,2.56836 0.36624,0.33789 0.77258,0.52127 1.1875,0.58594 0.12132,0.18898 0.24707,0.30645 0.38672,0.30078 0.11339,-0.004 0.24451,-0.13222 0.38476,-0.34765 1.59032,-0.30463 3.0185,-2.16821 2.46094,-4.16993 -0.28384,-1.01983 0.4102,-5.13053 1.54492,-9.13672 2.54283,-8.97887 3.15705,-18.97342 1.38672,-22.56835 -1.30858,-2.65716 -11.3815,-8.91535 -28.24023,-17.55274 -1.96604,-1.00732 -3.4379,-1.76968 -4.59961,-2.42773 -2.04389,-1.49889 -3.15627,-2.85271 -3.67774,-4.57618 -0.0113,-0.64913 0.0184,-1.37926 0.0899,-2.32421 0.20183,-2.71835 0.42945,-7.26061 0.50391,-10.09571 0.0745,-2.83517 0.54521,-5.6013 1.04687,-6.14453 0.50151,-0.54297 0.32631,-14.90664 -0.39063,-31.91992 l -1.26757,-30.05078 c 0.0378,-0.30992 0.0795,-0.5638 0.13281,-0.6211 0.1183,-0.12812 0.76507,-0.33742 1.78906,-0.5996 l 17.89649,-3.09376 c 4.93708,-0.85364 8.87761,-1.6016 12.02539,-2.30664 l 8.55273,-1.39648 0.45508,-1.56055 c 1.65301,-1.03797 2.03169,-2.17033 1.63477,-3.5957 -0.28007,-1.00547 0.46428,-2.88341 1.65234,-4.16992 2.78026,-3.01089 0.68634,-7.26411 -3.49219,-7.09766 -2.60901,0.10356 -3.62017,1.08173 -5.22851,5.05469 -0.49603,1.22525 -0.94151,2.14282 -1.44532,2.88867 -0.161,0.16857 -0.32037,0.3418 -0.48632,0.49805 -1.31638,1.06 -2.7667,1.83915 -4.63477,2.48828 -0.008,0.002 -0.0121,0.001 -0.0234,0.002 -0.58201,0.14778 -1.22832,0.29686 -1.94726,0.45117 -9.11815,1.95742 -28.8782,4.83185 -30.10352,4.37891 -0.55824,-0.20674 -2.31197,-9.43755 -3.89453,-20.51172 -1.5826,-11.07417 -4.25149,-24.4951 -5.93164,-29.82226 -0.75103,-2.38122 -1.28474,-4.63214 -1.62305,-6.52735 -0.2502,-2.25199 -0.17091,-3.99657 0.26563,-4.81836 1.30926,-1.07754 6.85474,-4.63303 13.12304,-8.38867 6.70557,-4.01767 14.79506,-10.12661 17.97852,-13.57422 4.85911,-5.2622 5.80264,-7.40379 5.88476,-13.35156 0.0794,-5.7258 -0.4564,-7.06614 -2.80273,-6.98828 -2.35948,0.0782 -3.26583,1.09304 -4.83789,5.41992 -4.17453,11.49014 -9.8587,16.85341 -27.51367,25.96094 l -6.32422,3.26172 -6.93359,-13.00977 c -8.73604,-16.39257 -16.89757,-25.61304 -26.39454,-29.82226 l -6.12109,-2.7129 c -0.2691,-0.27137 -0.49674,-0.56441 -0.66406,-0.90234 0.0113,-0.44904 0.0603,-1.11674 0.11133,-1.7793 l 0.91406,-4.58593 c 0.98245,-4.92983 1.3484,-10.82589 1.2168,-16.73243 0.11225,-5.7332 -0.43116,-10.92421 -1.67969,-15.79492 -0.55457,-2.6469 -1.22988,-5.06603 -2.03125,-7.09179 -2.92653,-7.39816 -5.68751,-11.25955 -13.9375,-19.5 -5.65761,-5.65109 -10.33802,-11.091 -10.40235,-12.08789 -0.19653,-3.04768 9.79684,-20.60396 15.70118,-27.9375 1.81485,-2.08489 3.6692,-3.91991 5.54687,-5.48633 9.28256,-7.49089 19.8257,-8.79163 24.03711,-2.21289 0.25852,0.40449 0.42608,0.76357 0.54688,1.11132 -0.10356,1.09061 -0.61746,2.29173 -1.5586,3.55469 -0.55457,0.51858 -1.22941,1.09141 -2.09375,1.77149 -3.54221,2.78704 -4.68357,4.65526 -4.35547,7.11718 0.32277,2.42392 1.13794,3.05632 4.96289,2.85352 2.40291,0.24038 4.90605,-0.17896 7.08204,-1.05078 7.36629,-2.21179 8.27077,-8.15373 3.70117,-20.53906 -3.23101,-8.75721 -8.58388,-12.47477 -18.68164,-12.97852 l -7.25586,-0.36328 -5.86328,6.34961 c -0.002,0.002 -0.003,0.003 -0.004,0.004 -5.22115,4.59043 -12.2133,12.35409 -18.24414,19.86914 -9.63141,10.6629 -12.14752,14.30837 -13.26758,18.74218 -1.26157,4.99413 -1.95567,5.97215 -3.68359,5.17578 -2.55991,-1.17974 -16.59726,-0.67942 -23.15039,0.82618 l -2.95313,0.67773 c -0.92345,-0.17265 -1.50865,-0.57756 -1.85742,-1.26953 l -0.57227,-8.90234 c -1.19399,-18.50016 -4.66306,-28.91385 -13.6914,-41.10352 -6.30403,-8.5114 -11.86634,-11.56771 -20.88282,-11.47266 z m 45.31446,75.09571 7.66211,0.45312 c 5.06668,0.30017 9.74352,1.03736 10.39258,1.63672 0.64909,0.59912 0.14685,4.1925 -1.11915,7.98828 -2.95131,8.84781 -1.45359,14.54925 5.58204,21.24024 4.42871,4.21194 6.8655,5.35183 11.35546,5.31445 3.14431,-0.0265 6.61722,-1.02204 7.7168,-2.21289 0.23131,-0.25021 0.46813,-0.4624 0.70117,-0.66211 0.91692,-0.38495 1.73157,-0.58456 2.21289,-0.48633 0.73229,2.01415 -0.20195,10.91914 -2.26171,21.08399 l -1.94141,9.58593 -1.10742,-0.0742 -14.76172,-2.28711 c -8.7164,-1.35053 -17.93693,-2.26106 -20.49219,-2.02148 -0.38181,0.0378 -1.03386,0.0198 -1.59765,0.0273 -0.31824,-0.0113 -0.64603,-0.0428 -0.96094,-0.0488 -1.43936,-0.0488 -3.1679,-0.15123 -4.76758,-0.22266 -2.64586,-0.22072 -5.56732,-0.54189 -8.31836,-0.95117 -6.04917,-0.90013 -16.32679,-1.38103 -22.83789,-1.07031 -5.86628,0.28006 -9.14617,0.48081 -10.60352,-0.7461 -0.22072,-0.22034 -0.40838,-0.46184 -0.56054,-0.73242 -0.99583,-1.9573 0.17163,-6.01444 2.4375,-14.1543 1.26228,-4.5343 2.78563,-8.77702 3.38476,-9.42578 0.5991,-0.64887 3.83217,0.25797 7.1836,2.01367 3.35142,1.75575 8.67537,3.08864 11.83203,2.96289 5.17262,-0.2056 6.30452,-0.96105 11.45508,-7.66406 4.41807,-5.74986 6.59235,-10.61042 7.41406,-17.2168 0.51889,-2.51371 0.74701,-4.92525 0.55664,-7.03515 -0.20977,-2.32429 0.43396,-4.62528 1.44336,-5.29492 z m -126.62696,2.82031 c -0.2343,-0.0162 -0.45324,0.073 -0.65429,0.25391 -0.0824,-0.0181 -0.15086,-0.0492 -0.23828,-0.0645 -0.18051,-0.0367 -0.34461,-0.0365 -0.49414,-0.006 -0.001,2.5e-4 -0.004,-3e-4 -0.006,0 -2.23676,-0.28248 -2.34783,2.17101 -0.91602,9.74414 2.36842,12.5273 4.98525,18.45542 13.55469,30.71485 4.28946,6.13659 8.37354,12.81781 9.07812,14.84961 1.5738,4.53883 3.45815,6.41064 4.89063,4.85937 1.7068,-1.84841 -4.32939,-14.1264 -15.55664,-31.68945 -1.29115,-2.56071 -2.41618,-5.06476 -3.32422,-7.40625 -1.01427,-3.01663 -1.88571,-6.37678 -2.34961,-9.32031 -0.40114,-2.54521 -0.96793,-4.92135 -1.58398,-6.86133 -0.40694,-1.71218 -0.77906,-2.86333 -1.20313,-3.55664 -0.18686,-0.63249 -0.34428,-1.03825 -0.45312,-1.13867 -0.26116,-0.24099 -0.50984,-0.36267 -0.74415,-0.37891 z m 230.25,1.5332 c -0.35446,-0.0115 -0.87749,0.27756 -1.52929,0.80469 -0.29518,0.0488 -0.76109,0.48289 -1.55078,1.46094 -7.80322,8.0124 -25.5821,35.18675 -24.98047,39.70117 0.30198,2.26734 1.09561,2.92903 2.40234,1.97852 0.49905,0.13228 0.94161,-0.0483 1.33789,-0.58399 l -0.01,-0.004 c 0.21278,-0.28724 0.41318,-0.67322 0.60351,-1.15625 0.10507,-0.26532 0.33597,-0.72085 0.48828,-1.05859 1.33387,-1.89063 2.9184,-4.54682 4.82422,-8.16602 3.13376,-5.95143 8.87588,-15.54702 12.76172,-21.32421 1.3818,-2.05438 2.52034,-3.94079 3.50195,-5.66602 1.7189,-2.72097 2.72612,-4.93786 2.51954,-5.66016 -0.008,-0.0665 -0.0228,-0.11865 -0.0488,-0.16015 -0.008,-0.0121 -0.004,-0.035 -0.0117,-0.041 -0.002,-0.002 -0.008,-0.002 -0.008,-0.004 -0.002,-0.002 -0.003,-0.008 -0.004,-0.008 -0.079,-0.0729 -0.17872,-0.10946 -0.29688,-0.11328 z m -75.64843,7.26953 1.45703,1.95313 c 0.77389,1.56661 1.6152,3.07398 1.9043,3.38867 2.14665,2.36632 4.00069,2.8057 5.41015,1.2793 0.90342,-0.97836 2.44347,-1.03843 3.42188,-0.13477 0.16403,0.1513 0.28663,0.32407 0.38672,0.50586 0.0189,0.88635 -0.22581,1.9117 -0.69141,2.97852 -0.14702,0.20012 -0.31269,0.40279 -0.5,0.60351 -0.192,0.20621 -0.40636,0.41396 -0.64258,0.61719 -0.93536,0.80502 -1.73745,1.32164 -2.5039,1.58008 -2.56664,0.399 -5.31509,-1.53656 -7.27735,-5.47852 -0.26608,-0.53383 -0.50392,-1.10607 -0.71289,-1.68554 -0.13417,-0.50028 -0.249,-1.00095 -0.3125,-1.49805 l -0.41211,-3.23047 c 0.12586,-0.52469 0.27363,-0.84577 0.47266,-0.87891 z m -42.16407,0.36329 c 0.18154,0.091 0.1214,1.06929 -0.0176,3.01757 -0.085,1.195 -0.25687,2.19641 -0.53516,3.07617 -0.60234,1.22703 -1.42805,2.36045 -2.43359,3.32813 -0.10092,0.097 -0.21638,0.17753 -0.32032,0.27148 -1.27321,0.83944 -2.99258,1.5368 -5.35546,2.2461 -3.52094,1.05705 -5.97232,0.73898 -7.34375,-0.94922 -2.84085,-3.49781 0.20238,-8.13475 3.40039,-5.18164 1.01049,0.93308 2.35783,1.32628 3.7832,1.2832 0.3292,0.0246 0.65155,0.004 0.97266,-0.0957 2.5048,-0.41731 5.08067,-2.11015 6.41601,-4.68945 0.82891,-1.60114 1.25206,-2.39763 1.43359,-2.30664 z m 218.08008,45.77343 c -0.81149,-0.12308 -1.70205,0.90137 -3.3125,3.40039 -4.10955,6.37731 -9.63732,18.13467 -13.63867,29.00391 l -2.72656,7.4043 c -0.55642,1.02338 -1.17086,1.84508 -1.94922,2.57812 l -13.66406,8.23828 c -8.22365,4.95912 -20.12433,12.64735 -26.44336,17.08399 -10.12082,7.10596 -17.80889,13.99418 -21.40821,18.95508 -1.76307,2.01293 -2.39865,3.39547 -2.21874,4.53515 -0.0378,0.28384 -0.0411,0.55297 -0.01,0.79883 0.53507,4.01363 1.13681,3.64538 17.13086,-10.52539 12.41223,-10.99729 38.83367,-27.81088 50.88476,-32.38086 2.56895,-0.97433 3.92777,-1.55653 4.64063,-2.44336 0.71286,-0.88683 0.7787,-2.08101 0.75976,-4.2793 -0.0427,-5.21688 7.41291,-26.50982 11.94532,-34.10547 1.77275,-2.97078 2.29091,-5.84667 1.29883,-7.19336 -0.12737,-0.17272 -0.24385,-0.3058 -0.36329,-0.43945 -0.0302,-0.0609 -0.0647,-0.1216 -0.11718,-0.13672 -0.27679,-0.28356 -0.5381,-0.45311 -0.8086,-0.49414 z m -237.22851,13.14258 1.26562,4.89258 c 0.69808,2.69144 1.8655,9.0692 2.58985,14.17383 0.72438,5.10455 2.99906,17.09667 5.05664,26.64648 2.05757,9.54992 4.70623,24.13786 5.88476,32.41797 2.33496,16.40508 2.28309,51.84888 -0.0879,59.92773 -0.81588,2.78019 -1.82426,7.88231 -2.24023,11.3379 -1.65899,13.78106 -9.24472,35.05035 -23.77149,66.64648 -17.5666,38.20773 -31.67595,65.51571 -36.60351,70.84961 l -3.42969,3.71094 -7.20898,-9.71289 c -8.42858,-11.35405 -19.5262,-29.47463 -26.76954,-42.96875 -3.13312,-6.43866 -5.6561,-12.20292 -7.70703,-17.98243 -0.52023,-2.43545 -1.68656,-6.68762 -2.96093,-10.66406 -1.55678,-4.85752 -3.95002,-17.78973 -5.31836,-28.74023 -6.43465,-51.49425 -0.67183,-97.98761 15.51562,-125.19336 7.00422,-11.77153 8.17846,-13.01654 6.66797,-7.05078 -1.32881,5.24795 2.90594,17.75347 7.39844,21.84375 8.4517,7.6992 30.0763,5.94993 41.37304,-3.34571 7.30122,-6.00786 10.60404,-11.21343 12.77149,-20.42187 0.45381,-1.57436 0.74711,-3.13496 0.88476,-4.67969 1.69282,-14.22875 -8.97214,-26.07507 -23.95117,-25.96875 -4.71435,0.0302 -4.64686,-0.0304 5.42774,-5.23633 5.60874,-2.89874 15.82649,-6.44375 22.70508,-7.87695 z m 56.1875,4.32617 c 7.81563,-0.0276 22.67377,5.09227 34.79687,12.58985 4.9609,3.0681 4.64152,4.49924 -1.29687,5.79101 -12.85365,2.79602 -24.26907,22.24789 -20.28125,34.5625 3.95898,12.22583 14.86178,19.04706 28.47851,17.9375 1.60513,-0.0548 3.22447,-0.23056 4.85938,-0.54101 1.04462,-0.19843 2.03086,-0.48967 2.99805,-0.89453 4.77176,-1.51975 8.02223,-4.24145 11.57812,-9.30469 0.7381,-1.05101 1.32981,-1.81209 1.86719,-2.42188 0.35149,-0.35036 0.65311,-0.64301 0.93945,-0.91797 1.78171,-1.20389 2.49209,1.77484 4.08398,11.23828 0.68448,4.06946 2.92218,14.88349 4.97461,24.0293 4.3135,19.22128 5.05315,53.75119 1.55274,72.44141 -1.28916,6.88297 -2.68172,12.94646 -3.09766,13.46875 -0.41423,0.52346 -2.08202,-0.275 -3.70703,-1.77539 -1.62504,-1.50063 -7.27931,-3.14249 -12.56445,-3.64649 -4.46933,-0.42648 -6.90299,-0.632 -9.57031,0.23438 -0.14098,0.0378 -0.2808,0.0763 -0.46875,0.16015 -0.81903,0.30199 -1.67555,0.70276 -2.625,1.23829 -1.18171,0.55336 -2.34381,1.27108 -3.63282,2.22851 -0.35867,0.26646 -0.68996,0.55596 -1.04297,0.82813 -1.74648,1.22464 -3.70077,2.63364 -6.2207,4.47461 -6.71138,4.90303 -12.35566,14.49401 -13.73047,23.33984 -1.35484,8.71786 1.20492,20.66823 5.22657,24.39844 4.77951,4.43516 19.79512,5.33006 30.6582,1.82617 l 10.36719,-3.34766 -5.11329,16.63282 c -6.30096,20.4935 -12.962,34.73077 -19.67187,42.0332 l -4.01953,4.37695 c -0.25814,0.17197 -0.49936,0.30821 -0.72266,0.40625 -0.6813,-0.0854 -1.45114,-0.35467 -2.44531,-0.7539 -0.0488,-0.0189 -0.10913,-0.0534 -0.16016,-0.0723 l -4.57226,-3.26953 c -5.92169,-5.16185 -14.31218,-14.06964 -20.26172,-21.65039 -18.71431,-27.19438 -33.14137,-69.6891 -34.48828,-106.73047 -0.64645,-17.77939 1.5918,-50.33881 5.08593,-73.91992 0.75595,-5.10131 2.50355,-17.62561 3.88282,-27.83203 1.3793,-10.20647 4.60865,-26.50289 7.17578,-36.2168 l 0.002,0.002 c 1.77925,-6.73266 3.66284,-12.85274 4.98828,-16.42969 0.61198,-1.52628 1.14865,-2.74782 1.48243,-3.21875 0.8692,-0.87536 2.50693,-1.28718 4.69531,-1.29492 z m -214.60157,15.89649 c -1.99814,0.0794 -2.87147,4.24785 -1.79296,8.55859 2.23959,8.9514 10.09106,19.53935 24,32.34961 7.554,6.95883 15.23388,13.43835 17.06445,14.40039 2.70042,1.4188 3.97368,1.69031 3.85547,0.82227 0.0927,-0.0427 0.11694,-0.13712 0.10742,-0.26563 0.24692,0.0488 0.43192,0.0381 0.52344,-0.0605 v -0.002 c 0.55744,-0.60397 -1.98316,-3.33538 -7.08008,-7.72266 -2.59704,-2.70901 -5.97865,-6.07116 -10.16406,-10.11132 -17.35412,-16.75155 -17.92205,-17.47922 -21.60547,-27.60938 -1.19897,-3.29741 -2.40604,-6.11423 -3.36133,-8.01367 -0.009,-0.0189 -0.0167,-0.0303 -0.0254,-0.0488 -0.68908,-1.36327 -1.26266,-2.30719 -1.52149,-2.29687 z m 337.16993,2.92578 c -0.2823,-0.01 -0.54099,0.0643 -0.76758,0.2207 -0.008,0.004 -0.012,0.012 -0.0195,0.0195 -0.55518,0.3447 -0.90519,1.11588 -0.95508,2.20117 -0.0302,0.24605 -0.0619,0.48657 -0.0664,0.76758 -0.002,0.10318 -0.0369,0.27914 -0.0664,0.44922 -0.24038,1.07641 -0.93111,3.18287 -1.82617,5.67774 -0.66312,1.79739 -1.41782,3.74938 -2.26954,5.78515 -4.49786,10.75185 -4.92424,16.35724 -1.10351,14.47266 5.3e-4,0 0.001,-0.004 0.002,-0.004 0.13342,3.4e-4 0.26733,-0.0213 0.39258,-0.0742 0.41242,0.0227 0.79302,-0.0997 1.08008,-0.41015 l 0.002,-0.004 c 0.81105,-0.87844 1.88473,-3.49078 2.9707,-6.71094 2.313,-5.01426 4.6524,-11.46771 5.375,-15.63672 0.40634,-2.34387 -0.0497,-4.98939 -1.01367,-5.8789 -0.003,-0.003 -0.008,-0.004 -0.0117,-0.008 -0.001,-0.001 -0.003,-0.001 -0.004,-0.002 -0.0427,-0.0427 -0.0863,-0.0618 -0.13086,-0.0996 -0.57924,-0.49771 -1.1174,-0.74914 -1.58789,-0.76562 z m 2.07812,39.68945 c -0.64734,0.0323 -1.24884,0.18045 -1.7832,0.40234 -0.45698,0.0378 -0.77728,0.12138 -0.91406,0.26954 -0.0302,0.0302 -0.0502,0.0667 -0.0801,0.0996 -0.002,0.003 -0.01,0.003 -0.01,0.004 -0.0624,0.0669 -0.10491,0.13862 -0.1582,0.20703 -0.0488,0.0624 -0.0998,0.12319 -0.14063,0.18555 -0.0378,0.0548 -0.0686,0.11165 -0.0996,0.16797 -0.95765,0.96438 -1.1963,2.25966 -0.11328,3.25976 0.89632,0.82753 5.1606,2.36689 9.47266,3.42383 16.57633,4.06292 28.28136,12.02577 35.92969,24.44141 0.69849,1.13382 1.36275,1.7658 1.94922,2.03906 0.0427,0.0227 0.0799,0.0377 0.12109,0.0547 0.0608,0.0227 0.12066,0.049 0.17773,0.0645 0.0714,0.0189 0.14102,0.0234 0.21094,0.0234 0.36473,0.0378 0.68756,-0.0769 0.94336,-0.34375 l -0.002,0.01 c 0.95444,-0.99342 1.03515,-3.86123 -0.63086,-6.98633 -1.45062,-2.72104 -3.75177,-5.53688 -6.57031,-8.28516 -0.59116,-0.6514 -1.19416,-1.27406 -1.8086,-1.83789 -1.75324,-1.60993 -3.81699,-3.18751 -6.0957,-4.70117 -9.33385,-6.64883 -20.90512,-11.85244 -29.73633,-12.49024 -0.2251,-0.0163 -0.44633,-0.0186 -0.66211,-0.008 z m -204.43555,31.6211 c -6.08052,0.16043 -13.34739,2.55499 -19.34374,6.67773 -12.52816,8.61377 -18.31842,22.39126 -15.10352,35.94336 1.5069,6.35218 3.10146,8.86545 9.00976,14.2207 4.50403,4.08216 9.46559,7.12607 13.32422,8.17383 15.02155,4.07898 23.41112,2.63484 32.02735,-6.39453 1.23088,-1.28988 2.4644,-2.73633 3.72461,-4.3418 1.01435,-1.29226 1.90683,-2.5204 2.70117,-3.71484 l 4.13086,-4.53125 -0.13086,-4.06836 c 1.15457,-4.64205 0.76164,-9.60773 -0.9043,-16.41016 -1.83091,-7.47583 -3.23244,-9.76133 -9.42187,-15.37109 -3.99882,-3.6243 -9.70738,-7.66114 -12.6875,-8.9707 -2.04241,-0.89748 -4.5623,-1.28582 -7.32618,-1.21289 z m 92.35157,2.71679 c -3.21407,0.0235 -6.49584,0.72013 -10.24024,2.06836 -0.93963,0.33865 -2.06108,0.96873 -3.26367,1.76953 -1.15661,0.67378 -2.38918,1.62637 -3.64062,2.78906 -0.51614,0.43197 -1.02093,0.84469 -1.53321,1.30469 -0.44844,0.38801 -0.87883,0.79763 -1.30078,1.22657 -4.2294,4.01937 -7.80952,8.47696 -7.36523,10.07226 0.28006,1.00535 -0.38931,2.8001 -1.48828,3.99024 -2.91976,3.16195 -1.00264,18.4965 2.98242,23.85156 3.53355,4.74829 9.54012,8.09993 16.1582,9.73242 0.43317,0.11036 0.86776,0.22248 1.33203,0.31055 7.42874,1.55221 15.46454,0.94447 21.58008,-2.34961 2.47646,-1.33395 5.10487,-3.6235 7.48828,-6.32227 3.97229,-4.49786 7.25402,-10.13654 7.9668,-14.40234 0.44534,-2.66563 -1.10547,-9.81791 -3.44727,-15.89649 l -4.25781,-11.05078 -8.06055,-3.80078 c -4.75587,-2.24028 -8.77777,-3.32313 -12.91015,-3.29297 z m -283.9668,48 c -0.46941,-0.0168 -0.87979,0.25602 -1.33594,0.75 -1.7806,1.92832 0.86508,7.03547 5.91016,12.61719 2.50397,2.99267 6.73169,6.94416 9.72656,9.03711 0.93974,0.65681 2.54,1.8304 3.94336,2.84765 15.83563,12.18675 20.11862,15.10437 21.0957,14.10547 0.0721,-0.0737 0.12782,-0.16805 0.17579,-0.27539 0.12434,-0.27893 0.036,-0.69309 -0.21875,-1.21875 l 0.55664,0.36914 -0.61914,-0.5 c -0.01,-0.0189 -0.0171,-0.0377 -0.0274,-0.0547 l 0.002,-0.002 0.7246,0.47071 -0.67382,-0.54883 c 0.9243,-1.75639 -1.79853,-4.52708 -11.1543,-11.16211 -2.85392,-2.47317 -6.22646,-5.29126 -10.16797,-8.48828 -4.49112,-3.64279 -10.27488,-9.4241 -12.85547,-12.84571 -2.72988,-3.6196 -4.04932,-5.06456 -5.08203,-5.10156 z m 154.89844,37.23047 c -2.2789,-0.009 -4.84202,0.27507 -7.87305,0.80664 -6.84019,1.19977 -8.71875,1.83745 -12.66211,6.24805 -2.95814,2.32426 -5.28783,5.23052 -7.00781,8.72851 -2.56599,3.76952 -3.27871,6.40716 -3.58789,11.14454 -0.8632,13.22762 0.67207,17.74651 8.28906,24.45703 5.54004,4.88046 8.17885,6.08994 14.26563,6.52734 9.73889,0.6997 17.89418,-2.43548 24.25781,-9.32227 6.36828,-6.89193 8.79817,-12.72129 8.69922,-20.87109 -0.0983,-8.09219 -2.10306,-13.51807 -7.07227,-18.79297 -1.33262,-1.58955 -2.83398,-2.94926 -4.46484,-4.10156 -4.19558,-3.36312 -7.83017,-4.80465 -12.84375,-4.82422 z M 230.4707,757.13672 c -1.33004,-0.0823 -3.23622,1.16571 -6.33398,4.03125 -2.54083,2.35052 -5.06722,4.8025 -7.56836,7.2793 -0.005,0.004 -0.0107,0.008 -0.0156,0.0117 -0.55891,0.44111 -1.55638,1.47272 -2.59961,2.56836 -2.21521,2.19504 -4.40221,4.48433 -6.5332,6.82813 -9.44573,10.12052 -17.01752,19.52977 -19.02734,24.06445 -1.12774,2.54442 -1.74679,4.63245 -1.89844,6.24219 -0.24257,1.16398 -0.15184,2.02692 0.30469,2.53516 0.0679,0.73666 0.37443,1.03764 0.87695,0.89062 0.41279,0.22035 0.9259,0.32106 1.54492,0.29688 0.0771,-0.003 0.19202,-0.0822 0.3418,-0.22657 1.0486,-1.01631 3.76231,-5.33507 6.53125,-10.45312 5.93414,-10.96861 21.01115,-28.7049 31.68164,-37.26953 4.6825,-3.7584 5.37313,-4.88183 3.85547,-6.28321 -0.33809,-0.31219 -0.71681,-0.48819 -1.16016,-0.51562 z"
       style="fill:#000000;stroke-width:1.61421454" />
  </g>
</svg>
