<?xml version="1.0" encoding="UTF-8" standalone="no"?>
<svg
   xmlns:dc="http://purl.org/dc/elements/1.1/"
   xmlns:cc="http://creativecommons.org/ns#"
   xmlns:rdf="http://www.w3.org/1999/02/22-rdf-syntax-ns#"
   xmlns:svg="http://www.w3.org/2000/svg"
   xmlns="http://www.w3.org/2000/svg"
   id="svg2043"
   version="1.1"
   viewBox="0 0 210 297"
   height="297mm"
   width="210mm">
  <title
     id="title2626">Ladybug on leaf</title>
  <defs
     id="defs2037" />
  <metadata
     id="metadata2040">
    <rdf:RDF>
      <cc:Work
         rdf:about="">
        <dc:format>image/svg+xml</dc:format>
        <dc:type
           rdf:resource="http://purl.org/dc/dcmitype/StillImage" />
        <dc:title>Ladybug on leaf</dc:title>
        <dc:source>http://www.supercoloring.com/coloring-pages/ladybird-on-a-leaf</dc:source>
        <dc:date>2020-04-02</dc:date>
        <dc:subject>
          <rdf:Bag>
            <rdf:li>landscape</rdf:li>
            <rdf:li>csk</rdf:li>
            <rdf:li>insects</rdf:li>
            <rdf:li>ladybug</rdf:li>
          </rdf:Bag>
        </dc:subject>
      </cc:Work>
    </rdf:RDF>
  </metadata>
  <g
     id="layer1">
    <path
       id="path2613"
       d="m 99.453836,275.94538 0.25477,-0.65831 c 0.0597,-0.0907 0.10057,-0.1964 0.12252,-0.31598 l 0.677104,-1.74891 c 0.58005,-1.49778 1.50589,-3.40365 2.05682,-4.23536 1.03217,-1.55847 1.17072,-2.95643 0.30946,-3.12388 -0.83717,-0.16276 -5.906484,-6.89763 -8.117164,-10.78466 -3.08304,-5.42084 -4.55549,-9.72648 -7.93622,-23.19789 -3.415431,-13.60971 -3.348231,-14.70229 1.17953,-19.08932 2.89992,-2.8098 5.93974,-4.36829 8.6162,-4.41749 0.95973,-0.0178 1.43308,0.0349 1.98088,0.45416 0.008,0.006 0.019,0.0161 0.0281,0.0224 0.32575,0.25541 0.68005,0.6395 1.1807,1.21744 2.515974,2.90431 3.796474,4.79773 4.376994,6.47261 1.09347,3.15495 6.0329,6.47077 10.99579,7.38197 4.44608,0.81632 13.5616,-0.97656 16.21874,-3.19018 0.91013,-0.75823 3.11426,-2.38532 4.89848,-3.61535 2.79434,-1.92642 3.79915,-2.89229 7.24534,-6.97091 7.07375,-8.37193 7.23675,-8.59764 9.66173,-13.30852 1.85088,-3.59558 4.11725,-10.18736 5.63873,-16.33306 0.41397,-1.17158 0.85725,-2.34448 1.3178,-3.49284 1.20315,-2.60395 3.02939,-6.18623 3.7974,-7.30937 1.26352,-1.84778 1.71776,-3.6458 1.07128,-4.24274 -0.0323,-0.0299 -0.11364,-0.0473 -0.2166,-0.0581 -0.12268,-0.11703 -0.27365,-0.20182 -0.45929,-0.23792 -0.22588,-0.0439 -1.06459,0.16354 -1.94006,0.46688 -0.001,1.8e-4 -0.002,5.3e-4 -0.003,7.1e-4 -2.36289,0.37852 -5.76444,1.13849 -7.83217,1.82608 -0.20324,0.0676 -0.37246,0.12155 -0.52462,0.16728 -0.3947,0.0541 -0.69624,0.0602 -0.88652,0.0182 -0.10751,-0.128 -0.14205,-0.37398 -0.17762,-0.76919 -0.0533,-0.59345 0.10299,-1.59436 0.34703,-2.22514 0.81556,-2.10786 3.70937,-7.3934 5.2173,-9.52824 2.9466,-4.17165 5.21272,-8.04189 6.29597,-10.75419 1.40161,-3.50942 2.47157,-6.69079 2.93229,-8.59192 0.18445,-0.65931 0.28788,-1.22838 0.25269,-1.45161 0.002,-0.15141 -0.0129,-0.26481 -0.0523,-0.32083 -0.19814,-0.27987 -2.1911,-1.0349 -4.42808,-1.67841 -2.23699,-0.6435 -4.61659,-1.52127 -5.28776,-1.94995 -0.003,-0.002 -0.006,-0.005 -0.01,-0.006 -0.32075,-0.25358 -0.64843,-0.53721 -1.02891,-0.88877 -0.0884,-0.0817 -0.16368,-0.1548 -0.24597,-0.23282 -1.11027,-1.23574 -2.00184,-2.95485 -2.16485,-4.3618 -0.10041,-0.86735 -0.36596,-1.74584 -0.58955,-1.9523 -0.008,-0.008 -0.0145,-0.019 -0.0211,-0.0287 -0.0425,-0.24946 -0.0733,-0.49135 -0.0927,-0.72477 0.0793,-1.65151 1.10185,-5.53446 2.21477,-8.06569 0.73737,-1.67712 1.81108,-3.21922 3.56246,-5.11587 1.64063,-1.77675 2.54479,-3.04864 2.61727,-3.68036 0.10637,-0.92735 0.0129,-0.99743 -2.39995,-1.78692 -1.38122,-0.45201 -3.75664,-0.82851 -5.27826,-0.83642 -1.52162,-0.008 -3.3715,-0.12801 -4.11095,-0.2672 -2.82988,-0.53279 -5.37603,-4.002353 -8.05768,-10.980668 -1.55705,-4.05184 -8.26636,-16.153461 -9.1514,-16.506119 -0.62896,-0.250623 -0.92787,-0.04391 -1.77124,1.222251 -2.82632,4.243238 -3.10089,4.54445 -4.23112,4.646033 -1.95071,0.175336 -4.01515,-1.614554 -5.27901,-4.576024 -1.37619,-3.224652 -1.33459,-7.652087 0.11913,-12.67583 0.67839,-2.344308 4.74424,-9.357085 8.53189,-14.716294 1.6201,-2.292265 2.97883,-4.33754 3.0191,-4.544644 0.0402,-0.207103 0.98611,-1.617523 2.10184,-3.134449 2.73948,-3.724478 3.06486,-5.890947 1.01356,-6.403347 -0.0817,-0.03067 -0.16188,-0.06199 -0.25251,-0.08555 -0.2975,-0.07732 -0.74008,-0.07668 -1.28399,-0.01614 -0.36171,0.01921 -0.74546,0.05343 -1.1758,0.121228 -1.48112,0.233415 -3.08357,0.650302 -3.56107,0.926349 -0.4775,0.276047 -1.43586,0.632724 -2.129,0.791982 -2.57746,0.592272 -15.73845,7.754057 -22.38078,12.178733 -2.88476,1.921641 -7.821344,4.887163 -13.540164,8.134221 -6.78897,3.854679 -12.776391,8.188248 -22.379541,16.196932 -2.23718,1.865709 -3.48716,2.66623 -3.93558,2.520951 -2.711512,-0.878407 -3.499568,-0.988448 -4.474095,-0.625234 -2.804603,1.045301 -5.386189,5.038126 -10.347682,16.006423 -2.052266,4.536928 -4.221869,8.62646 -5.900069,11.119776 -1.459907,2.16896 -3.297984,4.91887 -4.084819,6.11067 -0.786842,1.19183 -2.313734,3.18269 -3.392835,4.42436 l -1.66232,1.91211 c -0.157015,0.0935 -0.297619,0.15399 -0.426411,0.18758 -0.01033,5.8e-4 -0.02087,4.2e-4 -0.03127,6.7e-4 l -2.342434,-2.32878 -2.500402,-2.486 -0.812028,0.88062 c -0.02068,0.0224 -0.05675,0.0712 -0.07937,0.097 -0.02438,0.025 -0.04681,0.0408 -0.07169,0.0678 -0.411921,0.44728 -1.003896,1.29165 -1.660884,2.31879 -1.394716,2.07379 -3.06834,4.78062 -3.647339,5.99348 -0.376082,0.78783 -0.956327,2.24891 -1.289787,3.24734 -0.333471,0.99841 -1.447904,3.63172 -2.476489,5.85183 -4.734369,10.21871 -6.250856,15.98374 -6.448726,24.51282 -0.05443,2.3464 -0.126748,4.57908 -0.16013,4.96146 -0.03337,0.38239 0.18994,3.68179 0.496251,7.332 0.306315,3.65021 0.474081,9.18454 0.372327,12.29853 -0.193998,5.93629 -0.07664,5.56329 -3.56094,11.29049 -0.991324,1.62947 -1.18878,2.47643 -0.508343,2.84371 0.141276,0.13043 0.330626,0.19313 0.554592,0.17035 0.242162,0.0405 0.526199,0.0617 0.863729,0.0618 2.468044,0.001 7.343182,2.47904 11.849214,5.71754 1.193976,0.96082 2.47803,2.03855 3.711058,3.12137 1.273289,1.14045 2.480026,2.25958 3.443891,3.20165 1.050058,1.17672 1.830463,2.17614 1.838997,2.39073 0.01065,0.26743 -1.031883,0.60979 -2.316186,0.76107 -1.00574,0.11849 -1.786304,0.32797 -2.306398,0.6066 -0.141776,0.0633 -0.257559,0.13285 -0.335038,0.21406 -0.150348,0.10815 -0.258709,0.22719 -0.324598,0.35766 -0.581082,0.74711 -0.806645,0.46724 7.755675,7.7554 5.958295,5.07168 8.095861,6.54294 11.958773,8.23146 4.729491,2.0673 6.167687,2.2954 10.440703,1.6556 4.672527,-0.69963 7.691833,-2.09105 10.722253,-4.94116 2.06013,-1.93757 3.01263,-2.5851 3.84846,-2.61841 1.63471,-0.0651 2.62334,1.09999 2.64537,3.11717 0.0107,0.96895 0.13523,1.86886 0.27742,2.00015 0.14216,0.13123 0.40944,1.40133 0.5935,2.82227 0.18405,1.42093 0.91503,4.22159 1.6239,6.22393 0.70889,2.00235 2.05573,6.20975 2.99334,9.34942 2.83081,9.47928 6.270851,17.87473 10.809171,26.38216 3.46217,6.49016 4.60481,7.93578 6.22251,7.87136 z m -1.27126,-4.29171 c -0.47201,0.59909 -0.96002,-0.22333 -2.97218,-3.55635 -2.52562,-4.18354 -4.30536,-8.00602 -8.79278,-18.88519 -0.0572,-0.1385 -0.11329,-0.28716 -0.17005,-0.43064 -0.61269,-1.73574 -1.18045,-3.48028 -1.70304,-5.23203 -2.399191,-8.72961 -4.087221,-21.05956 -3.924571,-29.32279 0.0447,-1.17106 0.11611,-2.34104 0.21024,-3.5107 0.30795,-3.15636 0.37601,-3.61836 1.13193,-7.83367 0.67184,-3.74653 0.35409,-5.0451 -1.23756,-5.06107 -1.08699,-0.0113 -1.1183,0.0368 -1.74883,2.64518 -0.35323,1.46122 -0.65512,3.29975 -0.67025,4.08511 -0.0152,0.78537 -0.24009,3.1177 -0.50016,5.18339 l -0.47263,3.75552 -1.78295,-0.16807 c -2.40956,-0.22715 -4.3277,0.71214 -8.44915,4.13575 -4.822578,4.00604 -7.18717,4.98585 -10.677318,4.42402 -5.581132,-0.89842 -10.793384,-2.96084 -14.065536,-5.50235 -0.311164,-0.26276 -0.647463,-0.55037 -1.012068,-0.86642 -0.113608,-0.10637 -0.23194,-0.21186 -0.338573,-0.31945 -0.61011,-0.61568 -1.994491,-1.9871 -3.076527,-3.04865 -1.530177,-1.50122 -1.805998,-1.9369 -1.242721,-1.95934 0.398338,-0.0161 1.065816,-0.39926 1.48377,-0.85188 0.287645,-0.31151 0.433972,-0.60301 0.449277,-0.99191 l 0.03824,-0.0328 0.03259,-0.0266 -6.62e-4,-0.002 0.110154,-0.0948 -0.298481,-0.69117 c -0.07971,-0.29472 -0.197972,-0.63797 -0.354099,-1.05024 -1.015274,-2.68089 -1.980555,-4.1213 -5.04398,-7.52337 -3.699894,-4.10889 -7.052256,-6.16662 -13.736532,-8.43221 -1.407148,-0.47693 -2.679092,-0.97852 -2.827154,-1.11524 -0.148072,-0.13673 0.250689,-1.01113 0.886615,-1.94263 0.635941,-0.93148 1.410549,-2.68915 1.720477,-3.90556 0.537662,-2.11037 0.404748,-10.78327 -0.215945,-14.10815 -0.425347,-2.2785 -1.061646,-9.02354 -1.156388,-11.99045 -0.0027,-0.48732 -0.0013,-0.97213 0.004,-1.45646 0.110283,-3.1042 0.798298,-9.71304 1.347595,-12.74955 0.949619,-5.24959 2.057896,-8.26323 5.427126,-14.75379 0.448786,-0.86454 1.578008,-3.09179 2.508866,-4.94994 0.930867,-1.85816 2.346214,-4.27898 3.145838,-5.37908 l 1.143943,-1.5733 c 0.241016,-0.0999 0.513773,-0.0425 0.941888,0.15674 l 0.497635,0.45952 c 0.789732,0.72924 1.661464,1.05144 2.898032,1.07171 1.658699,0.0271 1.958375,-0.14383 4.825104,-2.76003 3.567535,-3.25576 6.155715,-6.6399 8.428799,-11.02036 0.89535,-1.72544 2.480878,-4.703969 3.523254,-6.619025 1.042369,-1.91504 2.500662,-4.75404 3.241055,-6.30848 0.740386,-1.55444 2.448625,-4.424255 3.795555,-6.377794 3.796261,-5.505989 4.075624,-5.715482 6.241161,-4.674733 0.91132,0.437985 1.80234,0.394966 2.82168,-0.193238 0.28822,-0.12042 0.58435,-0.338387 0.9467,-0.671109 0.50188,-0.416096 1.03828,-0.946431 1.62511,-1.601317 0.27319,-0.304861 0.57487,-0.621053 0.88432,-0.933081 0.67023,-0.630577 1.51264,-1.374972 2.42709,-2.156268 0.0821,-0.05908 0.16609,-0.120259 0.23719,-0.165877 0.81706,-0.524458 2.51843,-1.831003 3.78104,-2.903213 10.342231,-8.782538 14.159111,-11.397162 31.085115,-21.29036 11.40898,-6.668515 14.76847,-8.437193 20.16143,-10.557287 1.23453,-0.470898 2.21906,-0.821619 2.56695,-0.89739 0.0374,0.077 0.0129,0.204489 -0.0517,0.376903 -0.0244,0.041 -0.0557,0.09217 -0.0843,0.139145 l -0.68285,0.966979 c -0.67677,0.95907 -2.20037,3.203086 -3.38581,4.986035 -1.55236,2.334881 -2.52657,3.466348 -3.48225,4.046561 -0.74398,0.45169 -4.85265,4.624419 -9.35307,9.498152 -12.16817,13.177609 -16.863784,19.580681 -14.45287,19.708269 0.5976,0.03164 0.85139,-0.247895 1.43756,-1.582625 0.39149,-0.891498 1.97526,-3.282553 3.51916,-5.313671 0.17637,-0.232027 0.40217,-0.515435 0.6469,-0.817374 1.74629,-2.03659 4.21762,-4.817091 7.90308,-8.909125 2.08737,-2.317673 3.93002,-4.334037 5.584,-6.130835 2.46231,-2.598595 4.2907,-4.430147 4.28134,-4.170469 -0.01,0.276079 -0.99668,2.083725 -2.19304,4.016473 -3.99923,6.460781 -5.18345,10.338334 -4.88742,16.002645 0.21758,4.16306 1.05495,6.906708 2.7603,8.923056 0.0145,0.0205 0.0283,0.04471 0.0433,0.06505 0.24796,0.335175 0.62227,0.69119 1.06695,1.044283 3.31973,2.927927 6.71221,3.363765 9.5671,1.241751 0.42123,-0.282423 0.81015,-0.603845 1.15472,-0.961555 0.68869,-0.567606 1.2841,-0.924945 1.46878,-0.857778 0.0195,0.0097 0.0381,0.02373 0.0563,0.03729 0.19479,0.206797 1.18043,1.881448 2.22893,3.791951 1.06725,1.944693 2.08752,3.671596 2.26734,3.83765 0.0268,0.0247 0.0605,0.07458 0.0907,0.112027 0.25308,0.469671 0.48965,0.915017 0.71918,1.353276 0.55159,1.227901 1.39893,3.343184 2.81057,6.983642 1.6495,4.253896 2.21232,5.264016 3.71859,6.675346 2.14155,2.00642 3.70603,2.48366 7.9172,2.4137 l 3.09531,-0.0518 -1.27074,2.48034 c -4.25954,8.31185 -4.91312,11.55656 -3.39439,16.86586 0.67704,2.36686 1.12182,3.10065 3.24464,5.35774 3.12665,3.32444 5.26858,4.77454 7.56216,5.11967 l 1.08144,0.16296 c 0.41627,0.17798 0.58985,0.3671 0.59498,0.60617 l -0.61464,2.13131 c -0.95946,3.33035 -2.44907,6.29734 -5.27409,10.50334 -7.56725,11.26643 -8.89324,13.73385 -9.36292,17.41762 -0.49842,3.90908 1.95442,5.78339 5.68719,4.34548 3.47326,-1.33796 4.91958,-1.81982 5.40274,-1.7736 0.0546,0.006 0.10267,0.0169 0.14415,0.0308 0.0192,0.0113 0.0345,0.0262 0.0454,0.0431 0.0991,0.15382 -0.3435,1.31472 -0.98344,2.57987 -0.63992,1.26517 -2.50258,5.51185 -4.13891,9.4363 -7.91133,18.9742 -7.77011,18.72875 -15.09138,26.17638 -7.6536,7.78568 -10.40099,10.0284 -13.53273,11.04771 -1.7548,0.57113 -3.19802,0.95237 -4.47927,1.14237 -0.38454,0.0336 -0.77863,0.063 -1.19497,0.0843 -0.37313,0.019 -0.70469,0.0334 -1.01011,0.0426 -1.92616,-0.0896 -3.62559,-0.75549 -5.79594,-2.05133 -3.53324,-2.10957 -4.21492,-2.77293 -6.72744,-6.54253 -2.42409,-3.63686 -5.32357,-6.07939 -7.812844,-6.58194 -1.59364,-0.32175 -6.67417,0.67522 -9.09765,1.78498 -0.37011,0.16948 -0.83949,0.49019 -1.39321,0.94687 -0.67707,0.45051 -1.30246,1.06612 -2.2972,2.1865 -0.2935,0.30346 -0.57627,0.58841 -0.8938,0.93229 -3.014371,3.26443 -3.162701,3.50494 -3.519421,5.70741 -0.57451,3.54719 -0.2276,6.78976 1.71978,16.07246 1.178341,5.61682 6.860871,19.92207 11.017881,28.43581 0.40635,0.9048 0.9807,2.02129 1.55188,3.03734 0.63446,1.17009 1.20374,2.1234 1.66555,2.74947 1.42281,1.92881 1.4696,2.13496 0.82559,3.59518 -0.20962,0.47528 -0.36469,0.8329 -0.52203,1.03261 z m 35.338784,-66.13176 c 0.10508,-0.0989 0.20872,-0.2697 0.30652,-0.51516 0.39311,-0.98656 -0.63285,-3.15279 -2.16445,-5.22662 -0.2738,-0.38861 -0.57032,-0.76843 -0.88349,-1.136 -0.37318,-0.52005 -0.73684,-0.96311 -1.05476,-1.25668 -0.16525,-0.15255 -0.39555,-0.32884 -0.65436,-0.51113 -0.70654,-0.6432 -1.42044,-1.18052 -2.09026,-1.52595 -0.85419,-0.4405 -1.5571,-0.88548 -1.5612,-0.98859 -0.005,-0.10315 2.1186,-1.21076 4.7166,-2.46055 5.04329,-2.42608 11.44633,-6.73219 11.41724,-7.67837 -0.0228,-0.74174 0.0395,-0.76975 -3.77677,1.70589 -3.29326,2.13632 -9.80455,5.424 -13.58851,6.86107 -1.8014,0.68414 -2.23756,0.6337 -5.48928,-0.63616 -1.94292,-0.75876 -3.50278,-1.51534 -3.46598,-1.6813 0.0368,-0.16597 0.42585,-0.8857 0.86487,-1.59936 1.27224,-2.06817 2.68468,-5.13308 3.47696,-7.54397 0.40307,-1.22648 1.30784,-3.79179 2.01025,-5.70102 0.70243,-1.90924 1.55078,-4.56229 1.88505,-5.89498 l 0.32862,-1.30882 c 0.17085,-0.47686 0.31521,-0.84443 0.41997,-1.06099 l 1.04265,0.38939 c 0.65081,0.24339 2.49811,1.28497 4.10569,2.31404 l 2.54234,1.6266 c 0.17967,0.17243 0.30131,0.35145 0.38125,0.56095 l 0.005,3.27726 c 0.002,1.97687 -0.0894,3.7049 -0.20303,3.83982 -0.11381,0.13478 0.005,0.44052 0.26377,0.67957 0.0969,0.0894 0.20454,0.13801 0.31432,0.15512 0.0321,0.05 0.0654,0.0812 0.10235,0.0797 0.03,-0.001 0.0649,-0.035 0.10201,-0.092 0.42077,-0.0806 0.79839,-0.57361 0.65087,-1.10323 -0.0751,-0.26983 0.1088,-1.35772 0.40903,-2.41769 0.67279,-2.37566 0.83508,-5.01971 0.36668,-5.97087 -0.34623,-0.70304 -3.01127,-2.35922 -7.47181,-4.64453 -0.52018,-0.26652 -0.90946,-0.46811 -1.21683,-0.64222 -0.54078,-0.39658 -0.83527,-0.75493 -0.97324,-1.21093 -0.003,-0.17175 0.005,-0.36485 0.0239,-0.61487 0.0534,-0.71923 0.11364,-1.92105 0.13334,-2.67117 0.0197,-0.75014 0.14431,-1.48182 0.27704,-1.62555 0.13269,-0.14366 0.0859,-3.94419 -0.10379,-8.44562 l -0.33493,-7.95058 c 0.01,-0.082 0.0208,-0.14916 0.0349,-0.16432 0.0313,-0.0339 0.20267,-0.0893 0.4736,-0.15867 l 4.73476,-0.81902 c 1.30627,-0.22586 2.34883,-0.42365 3.18168,-0.61019 l 2.26333,-0.36935 0.11993,-0.41269 c 0.43736,-0.27463 0.5376,-0.57456 0.43258,-0.95169 -0.0741,-0.26603 0.12284,-0.76261 0.43718,-1.103 0.73561,-0.79663 0.1819,-1.92222 -0.92367,-1.87818 -0.6903,0.0274 -0.95802,0.28608 -1.38356,1.33726 -0.13124,0.32418 -0.2489,0.56699 -0.3822,0.76433 -0.0426,0.0446 -0.0849,0.0907 -0.12881,0.13204 -0.34829,0.28046 -0.73219,0.4863 -1.22645,0.65805 -0.002,5.4e-4 -0.003,8.6e-4 -0.006,0.001 -0.15399,0.0391 -0.3251,0.0783 -0.51532,0.11913 -2.41251,0.5179 -7.64082,1.27825 -7.96502,1.15841 -0.1477,-0.0547 -0.61145,-2.49702 -1.03017,-5.42706 -0.41873,-2.93004 -1.12471,-6.48073 -1.56925,-7.89021 -0.19871,-0.63003 -0.33997,-1.22582 -0.42948,-1.72726 -0.0662,-0.59584 -0.0453,-1.05751 0.0702,-1.27494 0.34641,-0.2851 1.81332,-1.22543 3.47181,-2.21911 1.77418,-1.06301 3.91486,-2.67927 4.75715,-3.59145 1.28564,-1.39229 1.53531,-1.95937 1.55704,-3.53305 0.021,-1.51495 -0.12106,-1.86944 -0.74186,-1.84884 -0.62428,0.0207 -0.86402,0.28927 -1.27996,1.43409 -1.10451,3.0401 -2.60828,4.45925 -7.27949,6.86895 l -1.67341,0.86299 -1.83425,-3.44228 c -2.31141,-4.3372 -4.47087,-6.77694 -6.98361,-7.89063 l -1.61947,-0.71768 c -0.0712,-0.0718 -0.13172,-0.14915 -0.17599,-0.23856 0.003,-0.11881 0.0162,-0.29576 0.0297,-0.47106 l 0.24151,-1.21328 c 0.25994,-1.30435 0.35673,-2.86442 0.32191,-4.42719 0.0297,-1.51691 -0.11412,-2.89012 -0.44446,-4.178829 -0.14673,-0.700327 -0.32492,-1.340493 -0.53695,-1.876476 -0.77431,-1.957429 -1.50493,-2.979179 -3.68774,-5.159466 -1.49691,-1.495182 -2.73546,-2.934142 -2.75248,-3.197904 -0.052,-0.806365 2.59203,-5.451736 4.15422,-7.39207 0.48018,-0.551626 0.97075,-1.037133 1.46755,-1.451583 2.45601,-1.981965 5.24547,-2.32626 6.35974,-0.585637 0.0684,0.107023 0.11316,0.2021 0.14512,0.29411 -0.0274,0.288557 -0.16334,0.606687 -0.41235,0.940845 -0.14673,0.137208 -0.32526,0.288412 -0.55395,0.468348 -0.93721,0.737406 -1.23967,1.231582 -1.15286,1.882966 0.0854,0.641327 0.30141,0.808899 1.31343,0.755242 0.63577,0.0636 1.29805,-0.04762 1.87378,-0.27829 1.949,-0.585202 2.18802,-2.156914 0.97898,-5.433866 -0.85487,-2.317012 -2.27081,-3.300892 -4.94251,-3.434177 l -1.91998,-0.09589 -1.55115,1.679817 c -4.5e-4,4.03e-4 -6.9e-4,8.39e-4 -0.001,0.0012 -1.38143,1.214552 -3.23152,3.268785 -4.82718,5.257142 -2.54831,2.821228 -3.213944,3.785414 -3.510294,4.958528 -0.33379,1.321364 -0.51779,1.580107 -0.97497,1.369403 -0.67731,-0.312141 -4.39139,-0.179791 -6.12524,0.218565 l -0.78093,0.179258 c -0.24433,-0.04568 -0.39925,-0.152704 -0.49153,-0.335789 l -0.15165,-2.355219 c -0.31591,-4.894832 -1.23383,-7.649925 -3.62258,-10.875109 -1.66794,-2.251975 -3.139601,-3.06068 -5.525211,-3.035531 -1.47434,0.01614 -2.03995,0.177887 -2.88703,0.998085 -0.45343,0.347557 -0.82381,0.774226 -1.09782,1.249144 -0.49377,0.698083 -0.67682,1.313616 -0.67532,2.134314 0.003,1.525934 0.95261,2.725344 2.21442,3.368689 0.33016,0.17971 0.67748,0.305635 1.03181,0.383925 0.0511,0.01291 0.10271,0.02034 0.15413,0.03099 0.035,0.0065 0.0701,0.01291 0.10518,0.0176 1.30778,0.243424 2.71016,-0.06021 3.69081,-1.122185 0.657091,-0.711595 0.940801,-1.412228 0.795481,-1.963192 -0.18128,-0.687171 -0.0157,-0.60349 0.83509,0.424829 1.12806,1.363462 2.08178,4.857946 2.52893,9.264623 l 0.17388,1.71265 c -0.0128,0.150606 -0.0318,0.289428 -0.0627,0.410995 -0.0536,0.174642 -0.12189,0.333916 -0.21005,0.477081 -0.007,0.0097 -0.0121,0.02195 -0.0194,0.03212 -0.0107,0.01663 -0.0247,0.03115 -0.0359,0.04746 -0.12723,0.161098 -0.29477,0.294303 -0.49863,0.419502 l -1.1282,0.501246 c -1.12978,0.501988 -2.673551,1.583334 -3.430821,2.403436 -2.47751,2.683035 -4.90401,9.19247 -4.86824,13.06035 l 0.009,0.99077 c -0.0411,0.24892 -0.0886,0.45473 -0.15009,0.60396 l -2.53279,1.0141 c -1.47858,0.59176 -2.83803,1.23767 -3.02016,1.43489 -0.18212,0.19724 -1.62263,1.02879 -3.20086,1.84825 -0.72696,0.37745 -1.41017,0.78551 -2.09019,1.24793 -0.0509,0.0294 -0.11613,0.0733 -0.18692,0.12381 -0.0464,0.0292 -0.0856,0.0508 -0.13651,0.0851 -0.005,8.1e-4 -0.0195,0.008 -0.0227,0.008 -0.0501,0.002 -0.2076,0.12446 -0.42884,0.31933 -0.0357,0.0269 -0.0652,0.0465 -0.1021,0.0749 -0.23078,0.14221 -0.41944,0.29286 -0.53598,0.43043 -0.10391,0.0854 -0.20867,0.17325 -0.31822,0.26592 -0.68644,0.5674 -1.39784,1.20803 -2.17461,1.95908 l -3.127515,3.02299 -3.302866,-1.83951 c -3.330973,-1.85464 -4.822532,-2.87804 -5.30781,-4.38008 -0.08704,-0.4443 -0.153334,-0.95523 -0.187441,-1.50492 0.01648,-0.69088 0.128378,-1.48924 0.308836,-2.47273 0.112721,-0.61434 0.201943,-1.20379 0.26915,-1.72027 0.03671,-0.15319 0.05732,-0.31989 0.05827,-0.49345 0.04673,-0.44352 0.06941,-0.79421 0.04339,-0.9114 -0.227075,-1.02383 -0.866767,-0.591 -1.581359,1.06945 -2.336593,5.4293 -1.313514,8.68896 3.455778,11.01517 0.99201,0.48385 2.549851,1.39028 3.462111,2.01382 l 0.938786,0.64207 c 0.274397,0.36956 0.36846,0.74583 0.32442,1.19426 -0.0195,0.10056 -0.04555,0.20854 -0.07629,0.32241 l -0.522622,1.1365 c -1.829797,3.97934 -3.416467,9.6558 -4.192499,14.99801 -0.17049,1.17376 -0.450535,2.28681 -0.622289,2.47281 -0.171767,0.18602 -1.073576,0.35658 -2.003754,0.37968 -0.930177,0.0231 -2.91849,0.34819 -4.418695,0.72144 -3.158362,0.78577 -4.766283,1.07949 -5.558964,0.97876 -0.147507,-0.0471 -0.293393,-0.092 -0.419941,-0.12445 -5.07e-4,-1.3e-4 -7.2e-4,-0.001 -0.0012,-0.001 -0.03719,-0.0221 -0.07062,-0.0459 -0.09971,-0.0728 -0.800344,-0.73904 -1.446532,-0.11606 -1.708908,1.64656 -0.180209,1.21063 0.03643,2.12008 0.406816,2.41826 l 0.0019,0.25611 0.114787,-0.1858 c 0.0048,0.003 0.01017,0.003 0.01501,0.006 0.244141,0.15367 0.564509,-0.0268 0.896763,-0.63547 0.22856,-0.41868 0.546763,-0.715 1.021197,-0.935 0.31018,-0.12785 0.690924,-0.2155 1.179034,-0.27718 0.908898,-0.11493 2.381857,-0.50349 3.273724,-0.86354 0.929808,-0.37538 1.952709,-0.62856 2.940313,-0.757 0.588231,-0.0604 1.172112,-0.0888 1.729569,-0.0901 0.02082,-5e-5 0.04131,4.5e-4 0.062,4.8e-4 0.483054,0.0226 0.930358,0.0868 1.321768,0.19411 1.156063,0.31672 1.214801,0.53811 1.762301,6.64582 l 0.566255,6.318 -0.510402,0.035 c -0.217367,-0.0454 -0.6707,-0.0265 -1.407442,0.0855 -0.03443,0.005 -0.07146,0.0129 -0.106086,0.0191 l -0.02886,0.002 c -3.081631,0.21317 -9.526097,2.54613 -14.668016,5.30903 -3.480944,1.87044 -4.354357,2.36394 -6.548664,4.61674 -0.886694,0.7883 -1.775243,1.65925 -2.602695,2.53457 -0.05069,0.0488 -0.168939,0.15319 -0.208388,0.19248 -0.153593,0.15319 -0.347985,0.38136 -0.55832,0.6403 -0.930577,1.03805 -1.729978,2.03649 -2.288924,2.86857 -1.506611,1.88498 -1.518253,2.48211 -0.309563,2.32105 0.624314,-0.0831 1.056316,-0.49775 1.6376,-1.56934 0.257151,-0.47407 0.56037,-0.95144 0.896995,-1.43004 0.456253,-0.4796 0.920623,-0.96962 1.485878,-1.58456 1.255039,-1.36488 2.180842,-2.34393 2.99575,-3.14466 5.514055,-4.63945 13.650368,-8.66525 20.798352,-9.86129 l 1.276008,-0.21374 0.738973,4.39969 0.711933,4.23962 -1.941716,2.07081 -1.505562,1.46079 c -1.910973,1.85418 -3.84611,3.61466 -4.299911,3.91146 -0.257882,0.1687 -0.431295,0.50369 -0.526702,1.03396 -0.0031,0.0113 -0.0039,0.0237 -0.0069,0.0345 -0.103729,0.37482 -0.114593,0.82277 -0.113092,1.50332 0.0018,0.80573 0.116934,1.81744 0.277269,2.55977 0.160873,1.25226 0.39566,2.74247 0.724511,4.57028 0.62433,3.47011 1.227726,4.66022 2.11419,4.17197 0.679681,-0.37437 0.61484,-4.54895 -0.107571,-6.92542 -0.342872,-1.12788 -0.587387,-2.82805 -0.543595,-3.7776 0.04,-0.86777 0.12904,-1.36995 0.624302,-2.11104 0.428994,-0.55994 0.986791,-1.22665 1.59056,-1.92048 0.259329,-0.28566 0.542218,-0.59456 0.867821,-0.94718 1.761231,-1.90733 3.213903,-3.21056 3.51374,-3.15231 0.281148,0.0547 1.377129,2.24363 2.435159,4.86462 0.666006,1.64984 1.484397,3.38215 2.377642,5.09534 0.117853,0.23334 0.238214,0.4669 0.360388,0.68929 3.183803,5.94694 7.217653,11.48005 9.191513,12.20705 0.87123,0.32087 1.24817,0.3271 1.85921,-0.21455 l 0.11777,0.008 0.17398,-0.28555 c 0.0995,-0.10154 0.20329,-0.21048 0.31894,-0.33678 0.0131,-0.0145 0.0311,-0.0394 0.0445,-0.0542 0.11484,-0.12688 0.22993,-0.26241 0.3447,-0.41633 3.6e-4,-4.5e-4 7.6e-4,-7.5e-4 0.001,-10e-4 0.64799,-0.80955 1.48537,-2.03869 2.0557,-3.04761 1.14535,-2.02606 1.28331,-2.1609 1.5813,-1.54525 0.59314,1.22546 3.21993,4.40943 4.97384,6.02914 1.17497,1.08504 2.319921,1.87864 3.495331,2.40327 0.85361,0.42746 1.68892,0.65558 2.57134,0.70987 0.001,1.6e-4 0.003,2.7e-4 0.004,4.2e-4 1.69217,0.19059 3.52158,-0.10283 5.64302,-0.8546 2.85843,-1.01297 6.473554,-3.06848 7.664614,-4.35835 l 0.61571,-0.66678 2.79668,2.30655 0.0864,0.0797 c 0.22471,0.20733 0.4411,0.40201 0.65029,0.58685 0.0242,0.0236 0.0399,0.0391 0.0644,0.063 0.66766,0.64938 1.19604,1.07723 1.73522,1.37067 2.05665,1.40424 3.33902,1.23373 5.08973,-0.221 1.08036,-0.89771 1.72779,-1.19676 1.88791,-0.87271 0.13397,0.2713 1.55603,0.93392 3.15953,1.47215 2.06539,0.69321 2.92244,1.16583 2.94061,1.62196 0.0181,0.45613 0.27487,0.6572 0.88046,0.68924 0.48088,0.0255 0.72695,0.18413 0.56168,0.36312 -0.1616,0.175 -0.002,0.76438 0.35439,1.30937 0.50646,0.77422 0.9248,2.10755 1.19802,3.56441 0.0972,0.84575 0.16702,1.84096 0.22229,3.12099 0.0232,0.53879 0.0479,1.00983 0.0738,1.4386 -0.037,0.40995 -0.0946,0.78696 -0.18082,1.10697 -0.18967,0.70412 -0.20746,1.40709 -0.0392,1.56235 0.23649,0.21838 0.44499,0.13123 0.62307,-0.17063 0.032,-0.0316 0.0649,-0.10508 0.0988,-0.21527 0.73999,-1.72053 0.8371,-7.49991 -0.12332,-10.18271 l -0.81219,-2.26576 c 0.1138,0.0195 0.2334,0.0466 0.35422,0.0751 l 1.65375,0.74819 c 3.40199,1.53932 5.98008,4.60237 6.87111,8.16372 0.24076,0.96221 0.57129,1.31652 0.88653,1.01958 z M 109.3273,188.93424 c -0.0683,0.0455 -0.13204,0.0814 -0.19112,0.10734 -0.18026,-0.0226 -0.3842,-0.0935 -0.64724,-0.19913 -0.0129,-0.005 -0.0286,-0.0145 -0.0421,-0.0195 l -1.20977,-0.86504 c -1.56678,-1.36574 -3.78676,-3.72225 -5.36091,-5.72799 -4.951494,-7.19518 -8.768794,-18.43854 -9.125164,-28.23907 -0.17104,-4.70413 0.42113,-13.31898 1.34562,-19.55815 0.20001,-1.34972 0.66234,-4.6633 1.02727,-7.36375 0.36494,-2.70046 1.21953,-7.01249 1.89875,-9.58263 l 6.1e-4,5.7e-4 c 0.47076,-1.78135 0.96908,-3.40068 1.31977,-4.34708 0.16192,-0.40383 0.30399,-0.72692 0.3923,-0.85152 1.05132,-1.05878 6.343224,0.44903 10.448914,2.98821 1.31257,0.81177 1.22787,1.19077 -0.34333,1.53255 -3.40086,0.73978 -6.4211,5.88631 -5.36599,9.14455 1.04748,3.23475 3.93212,5.03949 7.53488,4.74592 0.42469,-0.0145 0.85333,-0.0612 1.2859,-0.14334 0.27639,-0.0525 0.53692,-0.1293 0.79282,-0.23642 1.26253,-0.4021 2.12284,-1.12236 3.06367,-2.46201 0.19529,-0.27808 0.35179,-0.47934 0.49397,-0.64068 0.093,-0.0927 0.17252,-0.17032 0.24828,-0.24307 0.47141,-0.31853 0.65944,0.46961 1.08063,2.97348 0.1811,1.07671 0.77331,3.93796 1.31635,6.35779 1.14128,5.08563 1.33708,14.22194 0.41093,19.16706 -0.34109,1.82112 -0.70967,3.42512 -0.81972,3.56331 -0.1096,0.1385 -0.55096,-0.0728 -0.98091,-0.46978 -0.42996,-0.39704 -1.92574,-0.83108 -3.3241,-0.96443 -1.18251,-0.11284 -1.8266,-0.16723 -2.53233,0.062 -0.0373,0.01 -0.0744,0.0199 -0.12413,0.0421 -0.2167,0.0799 -0.44294,0.18582 -0.69415,0.32751 -0.31266,0.14641 -0.62012,0.33632 -0.96117,0.58964 -0.0949,0.0705 -0.18298,0.14738 -0.27638,0.21939 -0.46209,0.32402 -0.97914,0.69652 -1.64587,1.18361 -1.77572,1.29726 -3.26869,3.83484 -3.63244,6.1753 -0.35847,2.3066 0.31876,5.46856 1.38282,6.45551 1.26458,1.17347 5.23709,1.4104 8.11128,0.48333 l 2.74335,-0.88553 -1.35309,4.40038 c -1.66713,5.42224 -3.42928,9.18948 -5.2046,11.12158 z m 35.66899,-52.43016 c 0.25253,-0.26284 0.27392,-1.02126 -0.16688,-1.84811 -0.38381,-0.71994 -0.99267,-1.4651 -1.73841,-2.19225 -0.15641,-0.17235 -0.31606,-0.33707 -0.47863,-0.48625 -0.46388,-0.42596 -1.00979,-0.84343 -1.6127,-1.24392 -2.46958,-1.75917 -5.53107,-3.13595 -7.86766,-3.3047 -0.23823,-0.0173 -0.45845,0.026 -0.64696,0.10428 -0.12091,0.01 -0.20594,0.0325 -0.24213,0.0717 -0.008,0.008 -0.0129,0.0174 -0.0208,0.0261 -6.6e-4,6.8e-4 -0.003,6.5e-4 -0.003,10e-4 -0.0165,0.0177 -0.0274,0.0366 -0.0415,0.0547 -0.0129,0.0165 -0.0268,0.0329 -0.0376,0.0494 -0.01,0.0145 -0.0178,0.0292 -0.026,0.0441 -0.25338,0.25516 -0.31655,0.59787 -0.03,0.86248 0.23715,0.21895 1.36508,0.62644 2.50598,0.90609 4.38582,1.07498 7.48295,3.1817 9.50657,6.46667 0.18481,0.29999 0.36041,0.46736 0.51558,0.53966 0.0113,0.006 0.0216,0.01 0.0325,0.0145 0.0161,0.006 0.0315,0.0129 0.0466,0.017 0.0189,0.005 0.0373,0.006 0.0558,0.006 0.0965,0.01 0.18196,-0.0203 0.24964,-0.0909 z m -0.48286,-16.83776 c 0.18861,-0.23464 0.20606,-0.55093 0.20105,-1.13256 -0.0113,-1.3803 1.96147,-7.014 3.16067,-9.02368 0.46904,-0.78602 0.60641,-1.54698 0.34392,-1.90329 -0.0337,-0.0457 -0.0646,-0.0807 -0.0962,-0.11606 -0.008,-0.0161 -0.0171,-0.0325 -0.031,-0.0365 -0.29293,-0.3001 -0.52225,-0.11267 -1.09038,0.76893 -1.08732,1.68733 -2.55004,4.79853 -3.60873,7.67435 l -0.72126,1.95906 c -0.14722,0.27077 -0.31001,0.48775 -0.51595,0.6817 l -3.61503,2.17995 c -2.17584,1.3121 -5.32452,3.3462 -6.99643,4.52006 -2.6778,1.88012 -4.71212,3.70283 -5.66444,5.0154 -0.46648,0.53259 -0.6344,0.89832 -0.5868,1.19986 -0.01,0.0751 -0.0113,0.14641 -0.003,0.21146 0.14157,1.06194 0.30075,0.96438 4.53251,-2.78497 3.28407,-2.9097 10.27475,-7.35827 13.46327,-8.56741 0.6797,-0.25779 1.03949,-0.41166 1.2281,-0.6463 z m -94.358164,95.08475 c 0.277443,-0.2689 0.995487,-1.41123 1.728102,-2.76538 1.570075,-2.90211 5.559064,-7.59485 8.382298,-9.86091 1.238912,-0.99441 1.4215,-1.29202 1.019953,-1.6628 -0.35781,-0.3304 -0.890184,-0.0807 -1.983006,0.9302 -0.672262,0.62191 -1.340613,1.27092 -2.002372,1.92624 -0.0012,0.001 -0.0027,0.002 -0.004,0.003 -0.147879,0.11671 -0.411782,0.38979 -0.687803,0.67968 -0.58611,0.58077 -1.164677,1.1866 -1.728502,1.80673 -2.499184,2.67772 -4.5027,5.16713 -5.034466,6.36693 -0.29838,0.67321 -0.461979,1.22571 -0.502103,1.65162 -0.06418,0.30797 -0.04037,0.53588 0.08042,0.67035 0.01798,0.19491 0.09898,0.27464 0.231938,0.23574 0.109218,0.0583 0.244899,0.0852 0.408681,0.0788 0.0204,-8.1e-4 0.05123,-0.022 0.09086,-0.0602 z m 58.625424,-65.42165 c 1.051,-1.19006 1.91879,-2.68192 2.10738,-3.81058 0.11783,-0.70528 -0.2923,-2.59798 -0.9119,-4.20627 l -1.12648,-2.92381 -2.1327,-1.00538 c -2.23702,-1.05376 -3.86054,-1.1393 -6.12501,-0.32394 -0.24861,0.0896 -0.54569,0.2564 -0.863874,0.46828 -0.30602,0.17827 -0.63183,0.43024 -0.96294,0.73787 -0.13656,0.11429 -0.27043,0.22325 -0.40597,0.34496 -0.11865,0.10266 -0.23256,0.21132 -0.3442,0.32481 -1.11903,1.06346 -2.0663,2.24287 -1.94875,2.66496 0.0741,0.266 -0.10283,0.74092 -0.3936,1.05581 -0.77252,0.8366 -0.26529,4.89346 0.78909,6.31032 0.93492,1.25632 2.52445,2.14334 4.275484,2.57527 0.11461,0.0292 0.22932,0.0589 0.35216,0.0822 1.96552,0.41069 4.09147,0.24985 5.70954,-0.62171 0.65523,-0.35294 1.35116,-0.95873 1.98177,-1.67278 z m 22.14524,-24.70405 c 0.21459,-0.23242 0.49848,-0.92369 0.78581,-1.77569 0.61198,-1.32669 1.23082,-3.03382 1.42201,-4.13687 0.10751,-0.62015 -0.0129,-1.32008 -0.26796,-1.55543 -9.2e-4,-8.4e-4 -0.002,-0.001 -0.003,-0.002 -3.3e-4,-3.3e-4 -8.8e-4,-8.1e-4 -10e-4,-10e-4 -0.0113,-0.0113 -0.0229,-0.0163 -0.0347,-0.0263 -0.24521,-0.2107 -0.46333,-0.25433 -0.6232,-0.14398 -0.002,0.001 -0.003,0.003 -0.005,0.005 -0.14689,0.0912 -0.23986,0.29553 -0.25306,0.58268 -0.008,0.0651 -0.0161,0.12882 -0.0173,0.20317 -5.2e-4,0.0273 -0.01,0.0738 -0.0178,0.1188 -0.0636,0.2848 -0.24644,0.84203 -0.48326,1.50213 -0.17545,0.47556 -0.37487,0.99174 -0.60022,1.53037 -1.19006,2.84476 -1.30289,4.32782 -0.29199,3.82919 1.4e-4,0 4.2e-4,-6.1e-4 5.6e-4,-6.1e-4 0.0353,9e-5 0.0705,-0.006 0.10364,-0.02 0.10912,0.006 0.21018,-0.026 0.28613,-0.10815 z m -58.489815,62.08272 -0.90777,0.98183 -1.90752,-2.56981 c -2.23006,-3.00409 -5.16613,-7.79863 -7.082595,-11.36895 -0.828972,-1.70356 -1.496283,-3.22844 -2.038924,-4.7576 -0.137644,-0.64438 -0.446392,-1.76968 -0.783569,-2.82178 -0.411897,-1.28522 -1.045289,-4.70713 -1.40733,-7.60445 -1.702501,-13.62452 -0.177711,-25.92548 4.105219,-33.12367 1.853199,-3.11455 2.164189,-3.44386 1.764539,-1.86542 -0.35158,1.38852 0.76877,4.69691 1.95741,5.77913 2.23618,2.03708 7.95743,1.5743 10.94636,-0.88517 1.93178,-1.58958 2.80576,-2.96673 3.37923,-5.40313 0.12007,-0.41655 0.19762,-0.82963 0.23404,-1.23834 0.44789,-3.76469 -2.37355,-6.89909 -6.33675,-6.87096 -1.24734,0.008 -1.22962,-0.008 1.43595,-1.3854 1.48398,-0.76696 4.18731,-1.70477 6.00727,-2.08397 l 3.309581,-0.68966 0.33492,1.2948 c 0.1847,0.71211 0.49312,2.39955 0.68477,3.75015 0.19166,1.35058 0.79362,4.52323 1.33802,7.04995 0.5444,2.52675 1.24523,6.38646 1.55705,8.57724 0.61779,4.34051 0.60412,13.71863 -0.0232,15.85616 -0.21587,0.73559 -0.48239,2.08566 -0.59245,2.99995 -0.43894,3.64624 -2.44645,9.27368 -6.289991,17.63349 -4.64783,10.10913 -8.38054,17.33435 -9.68429,18.74561 z m 0.86494,-14.78934 c 1.68494,-1.82349 2.3275,-3.36565 2.30132,-5.52195 -0.026,-2.14106 -0.55622,-3.57702 -1.87099,-4.97267 -0.35259,-0.42057 -0.74985,-0.78029 -1.18135,-1.08517 -1.61466,-1.29429 -2.9152,-1.51273 -5.48147,-1.06267 -1.8098,0.31744 -2.30638,0.48591 -3.349726,1.65288 -0.782674,0.61496 -1.399217,1.38385 -1.854295,2.30936 -0.678919,0.99735 -0.867463,1.6952 -0.949266,2.94863 -0.228389,3.49981 0.177436,4.69558 2.192764,6.47107 1.465803,1.29129 2.164303,1.61114 3.774763,1.72687 2.57675,0.18513 4.73454,-0.64422 6.41825,-2.46635 z m 10.83413,-20.61548 c 0.32567,-0.34128 0.652111,-0.72367 0.985541,-1.14845 0.26838,-0.34191 0.50451,-0.66697 0.71468,-0.983 l 1.09333,-1.19879 -0.0346,-1.07654 c 0.30548,-1.22821 0.20116,-2.54184 -0.23962,-4.34165 -0.48443,-1.97798 -0.85492,-2.58291 -2.492541,-4.06716 -1.05802,-0.95893 -2.56869,-2.02688 -3.35718,-2.37337 -1.72924,-0.75986 -4.74861,-0.14092 -7.0563,1.44571 -3.31474,2.27906 -4.84667,5.92465 -3.99606,9.51031 0.3987,1.68068 0.82034,2.34527 2.38358,3.76218 1.19169,1.08007 2.50438,1.88578 3.52531,2.163 3.97445,1.07923 6.19415,0.69678 8.47386,-1.69224 z M 114.9115,104.66473 c 0.0563,-0.076 0.10928,-0.17784 0.15964,-0.30564 0.0278,-0.0702 0.089,-0.19088 0.1293,-0.28024 0.35292,-0.50023 0.77216,-1.20303 1.27641,-2.16061 0.82914,-1.57465 2.34808,-4.113537 3.37621,-5.642085 0.3656,-0.543555 0.66698,-1.042654 0.9267,-1.499121 0.45479,-0.719924 0.72111,-1.306497 0.66645,-1.497604 -0.002,-0.0176 -0.006,-0.03099 -0.0129,-0.04197 -0.002,-0.0032 -0.001,-0.0097 -0.003,-0.0113 -6.3e-4,-5.81e-4 -0.002,-5.33e-4 -0.002,-0.0011 -5.5e-4,-5.49e-4 -7.1e-4,-0.0016 -10e-4,-0.0016 -0.0836,-0.07716 -0.25334,-0.0032 -0.48328,0.182761 -0.0781,0.01291 -0.20128,0.127685 -0.41022,0.386459 -2.0646,2.119948 -6.7685,9.31013 -6.60932,10.50457 0.0799,0.5999 0.2896,0.77459 0.63534,0.5231 0.13204,0.035 0.24908,-0.0129 0.35393,-0.15464 z m -10.31706,4.29457 -0.293,-0.0197 -3.90541,-0.60538 c -2.306214,-0.35733 -4.745994,-0.59773 -5.422074,-0.53434 -0.10102,0.01 -0.27325,0.005 -0.42242,0.007 -0.0842,-0.003 -0.17105,-0.0113 -0.25437,-0.0129 -0.38083,-0.0129 -0.83824,-0.04 -1.26149,-0.0589 -0.70005,-0.0584 -1.4728,-0.1435 -2.20068,-0.25179 -1.60051,-0.23816 -4.31978,-0.36516 -6.04251,-0.28295 -1.552121,0.0741 -2.420361,0.12704 -2.805951,-0.19758 -0.0584,-0.0583 -0.10794,-0.12204 -0.1482,-0.19363 -0.26348,-0.51787 0.0453,-1.59158 0.64481,-3.74525 0.33398,-1.1997 0.73744,-2.32208 0.89596,-2.49373 0.15851,-0.17168 1.01346,0.0684 1.900191,0.53293 0.88673,0.46454 2.29575,0.81707 3.13095,0.7838 1.36859,-0.0544 1.66803,-0.2545 3.03078,-2.028005 1.16895,-1.521317 1.74402,-2.807119 1.96143,-4.555056 0.13729,-0.665088 0.19762,-1.302977 0.14725,-1.861221 -0.0555,-0.614968 0.11514,-1.224108 0.38221,-1.401284 l 2.02719,0.119936 c 1.34056,0.07942 2.57807,0.274417 2.7498,0.432997 0.17174,0.158516 0.0384,1.109611 -0.29656,2.113911 -0.78087,2.340983 -0.38447,3.849079 1.47704,5.619402 1.171764,1.11441 1.816654,1.4162 3.004624,1.40631 0.83193,-0.007 1.75068,-0.27037 2.04161,-0.58545 0.0612,-0.0662 0.12381,-0.12219 0.18547,-0.17503 0.2426,-0.10185 0.45842,-0.15496 0.58577,-0.12897 0.19375,0.53291 -0.0534,2.88922 -0.59838,5.57867 z m -0.24803,-11.044944 c -0.0508,0.05456 -0.1075,0.109444 -0.17,0.163214 -0.24748,0.212995 -0.45941,0.349961 -0.6622,0.41834 -0.67909,0.105569 -1.40632,-0.406895 -1.9255,-1.449872 -0.0704,-0.141244 -0.13366,-0.292512 -0.18895,-0.44583 -0.0355,-0.132365 -0.0657,-0.264828 -0.0825,-0.396354 l -0.10896,-0.854565 c 0.0333,-0.138823 0.0726,-0.224085 0.12526,-0.232851 l 0.38543,0.517114 c 0.20476,0.414498 0.42733,0.813419 0.50382,0.89668 0.56797,0.626089 1.05849,0.742361 1.43141,0.338501 0.23903,-0.258856 0.64641,-0.275095 0.90528,-0.036 0.0434,0.04003 0.0757,0.08588 0.10218,0.13398 0.005,0.234513 -0.0597,0.506008 -0.18289,0.788269 -0.0389,0.05295 -0.0828,0.106215 -0.13236,0.159323 z M 38.576801,159.62528 c 0.01908,-0.0195 0.03401,-0.0442 0.0467,-0.0726 0.0329,-0.0738 0.0097,-0.18329 -0.05771,-0.32237 l 0.14733,0.0975 -0.164059,-0.13221 c -0.0026,-0.005 -0.0044,-0.01 -0.0071,-0.0145 1.37e-4,-2.3e-4 4.3e-4,-3.9e-4 5.65e-4,-6.2e-4 l 0.191503,0.12462 -0.178156,-0.14512 c 0.244556,-0.46471 -0.475742,-1.19776 -2.951124,-2.95328 -0.7551,-0.65436 -1.647504,-1.39998 -2.690363,-2.24586 -1.188276,-0.96382 -2.718783,-2.49343 -3.401563,-3.39873 -1.050592,-1.393 -1.311937,-1.56961 -1.698143,-1.15137 -0.471118,0.5102 0.229015,1.86109 1.563858,3.33792 0.662509,0.79181 1.780968,1.83725 2.573361,2.39101 0.248638,0.17378 0.672272,0.48444 1.043579,0.75359 4.189844,3.22441 5.322777,3.99652 5.581297,3.73223 z M 89.387206,97.705526 c -0.0267,0.02567 -0.057,0.04697 -0.0845,0.07183 -0.33687,0.2221 -0.79211,0.40654 -1.41729,0.594209 -0.93158,0.279678 -1.57982,0.195836 -1.94268,-0.250833 -0.75164,-0.925462 0.0532,-2.152458 0.89934,-1.371114 0.26736,0.246878 0.624,0.351108 1.00113,0.339711 0.0871,0.0065 0.17258,8.08e-4 0.25754,-0.02567 0.66273,-0.110412 1.34402,-0.558098 1.69733,-1.24054 0.43863,-0.847269 0.44821,-0.84283 0.37467,0.188137 -0.0225,0.316176 -0.0681,0.58102 -0.14173,0.81379 -0.15937,0.324651 -0.37775,0.624378 -0.6438,0.880409 z M 54.775083,130.91607 c 0.147491,-0.1598 -0.525015,-0.88263 -1.873575,-2.04343 -0.687134,-0.71676 -1.581769,-1.6061 -2.689159,-2.67506 -4.591609,-4.43218 -4.741942,-4.62505 -5.716513,-7.30532 -0.317226,-0.87244 -0.636267,-1.61728 -0.889021,-2.11984 -0.0023,-0.005 -0.0048,-0.008 -0.0071,-0.0129 -0.182318,-0.3607 -0.33412,-0.61064 -0.402602,-0.60791 -0.528676,0.021 -0.759512,1.12388 -0.474157,2.26443 0.59256,2.36839 2.670204,5.16991 6.350276,8.55929 1.998664,1.84119 4.03041,3.55559 4.514749,3.81013 0.714485,0.37539 1.051142,0.44703 1.019865,0.21736 0.02454,-0.0113 0.03101,-0.0362 0.02849,-0.0702 0.06533,0.0129 0.114464,0.01 0.138677,-0.0161 z m 12.324522,-22.16066 c 0.45159,-0.48906 -1.14551,-3.73752 -4.116055,-8.38441 -0.341615,-0.677521 -0.638848,-1.340156 -0.8791,-1.959675 -0.26836,-0.798149 -0.499065,-1.686951 -0.621806,-2.465761 -0.106135,-0.673419 -0.256417,-1.302349 -0.419414,-1.815637 -0.107668,-0.453013 -0.205663,-0.75726 -0.317864,-0.940699 -0.04944,-0.167346 -0.09125,-0.275014 -0.120049,-0.301584 -0.138193,-0.127523 -0.263874,-0.128814 -0.370263,-0.03309 -0.02179,-0.0048 -0.03953,-0.01291 -0.06266,-0.01695 -0.04776,-0.0097 -0.09156,-0.0097 -0.131123,-0.0016 -3.57e-4,6.5e-5 -8.23e-4,-3.2e-5 -0.0012,4.8e-5 -0.591808,-0.07474 -0.621492,0.574386 -0.242658,2.578111 0.626644,3.314515 1.318992,4.883237 3.586323,8.126877 1.134919,1.62364 2.215609,3.39151 2.402029,3.92909 0.4164,1.2009 0.9148,1.69599 1.29381,1.28555 z m 15.25263,-31.865747 c -0.50524,0.529382 -0.74197,0.505798 -1.13755,0.01453 -0.14487,-0.179904 -0.24474,-0.345086 -0.31199,-0.497016 -0.0191,-0.09007 -0.0422,-0.170106 -0.0568,-0.270462 l -0.0292,-0.199549 c 0.0784,-0.498825 0.82132,-0.675614 2.04449,-0.394288 0.0609,0.02228 0.11316,0.04649 0.15799,0.0686 0.12395,0.150768 -0.0417,0.56081 -0.43292,1.017246 -0.0844,0.09847 -0.16183,0.185166 -0.234,0.260792 z"
       style="fill:#000000;stroke-width:0.42709425" />
  </g>
</svg>
