<?xml version="1.0" encoding="UTF-8" standalone="no"?>
<svg
   xmlns:dc="http://purl.org/dc/elements/1.1/"
   xmlns:cc="http://creativecommons.org/ns#"
   xmlns:rdf="http://www.w3.org/1999/02/22-rdf-syntax-ns#"
   xmlns:svg="http://www.w3.org/2000/svg"
   xmlns="http://www.w3.org/2000/svg"
   xmlns:sodipodi="http://sodipodi.sourceforge.net/DTD/sodipodi-0.dtd"
   xmlns:inkscape="http://www.inkscape.org/namespaces/inkscape"
   width="210mm"
   height="297mm"
   viewBox="0 0 595.27559 841.88976"
   version="1.1"
   id="svg158"
   sodipodi:docname="locked_heart.svg"
   inkscape:version="0.92.4 (5da689c313, 2019-01-14)">
  <title
     id="title971">Locked Heart</title>
  <metadata
     id="metadata164">
    <rdf:RDF>
      <cc:Work
         rdf:about="">
        <dc:format>image/svg+xml</dc:format>
        <dc:type
           rdf:resource="http://purl.org/dc/dcmitype/StillImage" />
        <dc:title>Locked Heart</dc:title>
        <dc:source>http://www.supercoloring.com/coloring-pages/locked-heart</dc:source>
        <dc:subject>
          <rdf:Bag>
            <rdf:li>acb</rdf:li>
            <rdf:li>tattoo</rdf:li>
          </rdf:Bag>
        </dc:subject>
        <dc:date>2020-05-15</dc:date>
        <dc:creator>
          <cc:Agent>
            <dc:title>Public domain</dc:title>
          </cc:Agent>
        </dc:creator>
        <cc:license
           rdf:resource="http://creativecommons.org/licenses/by-sa/4.0/" />
      </cc:Work>
      <cc:License
         rdf:about="http://creativecommons.org/licenses/by-sa/4.0/">
        <cc:permits
           rdf:resource="http://creativecommons.org/ns#Reproduction" />
        <cc:permits
           rdf:resource="http://creativecommons.org/ns#Distribution" />
        <cc:requires
           rdf:resource="http://creativecommons.org/ns#Notice" />
        <cc:requires
           rdf:resource="http://creativecommons.org/ns#Attribution" />
        <cc:permits
           rdf:resource="http://creativecommons.org/ns#DerivativeWorks" />
        <cc:requires
           rdf:resource="http://creativecommons.org/ns#ShareAlike" />
      </cc:License>
    </rdf:RDF>
  </metadata>
  <defs
     id="defs162" />
  <sodipodi:namedview
     pagecolor="#ffffff"
     bordercolor="#666666"
     borderopacity="1"
     objecttolerance="10"
     gridtolerance="10"
     guidetolerance="10"
     inkscape:pageopacity="0"
     inkscape:pageshadow="2"
     inkscape:window-width="3840"
     inkscape:window-height="2004"
     id="namedview160"
     showgrid="false"
     inkscape:zoom="1.3350176"
     inkscape:cx="547.91424"
     inkscape:cy="493.31875"
     inkscape:window-x="-16"
     inkscape:window-y="-16"
     inkscape:window-maximized="1"
     inkscape:current-layer="svg158"
     units="mm" />
  <g
     id="#ffffffff"
     transform="translate(0,91.889765)" />
  <g
     id="g1121"
     transform="matrix(0.81765073,0,0,0.81765073,3.4051759,23.821982)">
    <path
       style="opacity:1;fill:#ffffff"
       inkscape:connector-curvature="0"
       id="path4"
       d="m 376.13,48.14 c 10.35,-4.12 21.82,2.26 27.23,11.22 -6.06,-1.31 -12.2,-2.96 -18.46,-2.25 -8.49,0.81 -15.79,6.92 -19.36,14.48 -5.3,10.89 -5.86,23.34 -5,35.22 1.25,13.58 6.17,28.75 18.39,36.24 5.97,3.76 12.17,-0.99 18.01,-2.46 -0.59,3.55 -2.23,7.21 -5.94,8.37 -11.18,4.74 -23.77,-3.47 -27.98,-13.97 -7.47,-17.67 -10.93,-37.58 -7.51,-56.6 2.37,-12.19 8.73,-24.99 20.62,-30.25 z"
       transform="translate(0,91.889767)" />
    <path
       style="opacity:1;fill:#ffffff"
       inkscape:connector-curvature="0"
       id="path6"
       d="m 299.44,96.42 c 14.73,-14.21 32.73,-26.62 53.47,-29.32 -1.27,6.16 -2.66,12.31 -3.53,18.54 -11.36,5.72 -21.3,14.44 -27.85,25.39 8.19,-7.15 16.9,-14.31 27.74,-16.87 0.21,6.67 1.4,13.26 1.92,19.9 0.43,1.9 -1.96,2.27 -3.16,2.96 -24.53,8.76 -42.25,30.46 -51.81,54.05 -1.73,6.56 -9.61,6.1 -14.99,6.8 0.72,-11.73 5.34,-22.64 8.08,-33.94 -5.77,10.62 -8.74,22.45 -12.64,33.82 -7.44,-0.04 -14.78,-1.99 -21.35,-5.48 6.75,-28.92 23.19,-55.04 44.12,-75.85 z"
       transform="translate(0,91.889767)" />
    <path
       style="opacity:1;fill:#ffffff"
       inkscape:connector-curvature="0"
       id="path8"
       d="m 367.26,82.35 c 1.52,-5.93 3.83,-12.76 9.68,-15.69 20.67,1.83 39.19,13.46 54.08,27.32 18.2,17.2 32.81,38.34 41.65,61.82 -3.16,8.81 -8.4,17.21 -16.31,22.49 -3.61,-11.92 -7.07,-24.07 -12.96,-35.09 3.59,12.66 7.74,25.23 9.57,38.31 -3.21,2.85 -6.58,5.53 -10.34,7.61 -6.96,-28.86 -24.43,-56.81 -51.94,-69.83 -7.55,-3.84 -15.99,-5.1 -24.29,-6.13 -1.29,-7.19 -1.35,-14.53 -0.98,-21.8 17.25,-0.77 33.27,7.7 45.67,19.09 -9.6,-14.96 -25.3,-27.88 -43.83,-28.1 z"
       transform="translate(0,91.889767)" />
    <path
       style="opacity:1;fill:#ffffff"
       inkscape:connector-curvature="0"
       id="path10"
       d="m 471.26,118.25 c 9.04,0.18 13.81,9.09 14.34,17.1 1.62,22.18 -9.14,44.13 -26.11,58.15 -8.99,7.52 -19.53,14.2 -31.44,15.43 -3.71,0.36 -9.05,-0.78 -9.83,-5.1 -0.32,-6.79 4.55,-12.12 7.99,-17.46 0.72,1.25 1.43,2.51 2.16,3.77 -2.49,3.82 -4.7,8.1 -3.99,12.83 7.89,0.42 14.61,-4.7 21.01,-8.63 12.22,-8.9 25.27,-18.92 30.11,-33.9 3.53,-14 3.59,-29.58 -4.24,-42.19 z"
       transform="translate(0,91.889767)" />
    <path
       style="opacity:1;fill:#ffffff"
       inkscape:connector-curvature="0"
       id="path12"
       d="m 320.93,157.02 c 9.02,-11.62 21.25,-21.17 35.57,-25.15 3.63,6.38 6.65,13.44 12.4,18.27 6.24,5.4 15.37,8.02 23.28,5 4.29,-1.63 6.98,-5.56 9.67,-9.06 10.08,9.14 18.1,20.69 22.5,33.6 -4.99,5.52 -9.83,11.64 -11.47,19.07 -1.3,5 -0.24,11.08 4.1,14.32 3.98,3.09 9.34,2.41 14.06,2.35 0.11,8.01 -1.12,15.96 -2.85,23.77 -26.93,12.04 -47.63,34.74 -61.36,60.45 -8.32,-13.75 -17.62,-27.07 -29.34,-38.16 -6.14,-4.86 -4.65,-13.61 -7.83,-20.12 -3.86,-11.91 -13.91,-24.52 -27.91,-22.01 -0.11,-9.27 0.4,-18.65 2.99,-27.6 1.08,-5.18 7.49,-5.81 10.81,-9.24 7.83,-5.41 13.61,-17.87 5.38,-25.49 z"
       transform="translate(0,91.889767)" />
    <path
       style="opacity:1;fill:#ffffff"
       inkscape:connector-curvature="0"
       id="path14"
       d="m 374.56,131.86 c 5.19,0.76 10.61,2.21 14.37,6.13 -5.74,1.55 -11.02,-1.73 -14.37,-6.13 z"
       transform="translate(0,91.889767)" />
    <path
       style="opacity:1;fill:#ffffff"
       inkscape:connector-curvature="0"
       id="path16"
       d="m 83.79,139.03 c 18.67,6.41 38.45,8.62 57.1,15.02 17.95,6.32 34.98,18.11 43.54,35.55 8.52,17.43 8.44,37.49 7.12,56.4 -2.28,11.33 -4.59,24.09 -14.25,31.64 -2.09,-17.58 -9.98,-33.81 -19.17,-48.7 -4.59,-7.26 -9,-14.74 -14.98,-20.97 12.06,17.23 21.9,36.54 25.71,57.37 -11.1,-6.88 -25.63,-9.14 -37.57,-3.05 -6.49,2.75 -9.91,9.41 -11.66,15.88 C 109.08,266.22 99.68,252.33 97.76,236.12 95.74,215.03 99.43,193.81 97.28,172.71 95.85,160.5 90.15,149.36 83.79,139.03 Z"
       transform="translate(0,91.889767)" />
    <path
       style="opacity:1;fill:#ffffff"
       inkscape:connector-curvature="0"
       id="path18"
       d="m 236.46,171.79 c -0.21,-6.49 4.45,-12.06 9.59,-15.5 0.33,4.4 -0.62,9.14 1.34,13.26 3.69,6.83 11.45,9.88 18.61,11.53 17.89,4.22 41.07,-0.74 49.05,-19.11 2.17,0.13 4.33,0.28 6.5,0.49 0.65,7.54 -4.6,13.81 -10.85,17.26 -18.96,10.97 -43.62,13.04 -63.44,3.08 -4.51,-2.43 -9.58,-5.69 -10.8,-11.01 z"
       transform="translate(0,91.889767)" />
    <path
       style="opacity:1;fill:#ffffff"
       inkscape:connector-curvature="0"
       id="path20"
       d="m 475.53,185.73 c 1.39,-1.92 2.79,-3.82 4.22,-5.71 3.26,17.59 5.22,35.47 4.85,53.38 -0.96,-0.01 -2.86,-0.03 -3.82,-0.04 1.24,-16.11 -1.99,-31.96 -5.25,-47.63 z"
       transform="translate(0,91.889767)" />
    <path
       style="opacity:1;fill:#ffffff"
       inkscape:connector-curvature="0"
       id="path22"
       d="m 462.06,199.91 c 4.18,-3.93 7.99,-8.26 12.51,-11.83 2.39,14.38 2.22,29.17 -0.07,43.55 -3.09,0.63 -6.24,0.4 -9.35,0.13 0.26,-10.71 -1.84,-21.26 -3.09,-31.85 z"
       transform="translate(0,91.889767)" />
    <path
       style="opacity:1;fill:#ffffff"
       inkscape:connector-curvature="0"
       id="path24"
       d="m 251.23,192.19 c 1.42,0.06 2.85,0.12 4.28,0.2 -1.7,13.49 -4.17,26.91 -3.27,40.59 -0.88,0.06 -2.63,0.17 -3.51,0.22 -0.84,-13.71 0.74,-27.42 2.5,-41.01 z"
       transform="translate(0,91.889767)" />
    <path
       style="opacity:1;fill:#ffffff"
       inkscape:connector-curvature="0"
       id="path26"
       d="m 257.61,193.83 c 4.91,0.45 9.77,1.34 14.67,1.93 -2.99,11.85 -4.06,24.07 -4.69,36.24 -3.07,0 -6.14,0 -9.21,-0.02 -1.67,-12.63 -1.82,-25.45 -0.77,-38.15 z"
       transform="translate(0,91.889767)" />
    <path
       style="opacity:1;fill:#ffffff"
       inkscape:connector-curvature="0"
       id="path28"
       d="m 278.38,195.63 c 3.65,-0.75 7.35,-1.25 11.06,-1.61 -1.99,13.17 -2.14,26.61 -0.3,39.8 -3.55,-0.34 -7.09,-0.74 -10.63,-1.16 -2.01,-12.25 -1.53,-24.74 -0.13,-37.03 z"
       transform="translate(0,91.889767)" />
    <path
       style="opacity:1;fill:#ffffff"
       inkscape:connector-curvature="0"
       id="path30"
       d="m 445.92,210.86 c 2.76,-2.44 6.24,-3.86 9.48,-5.55 0.45,9.01 0.58,18.1 -1,27.02 -3.51,0.73 -7.05,1.28 -10.61,1.65 1.34,-7.64 0.87,-15.51 2.13,-23.12 z"
       transform="translate(0,91.889767)" />
    <path
       style="opacity:1;fill:#ffffff"
       inkscape:connector-curvature="0"
       id="path32"
       d="m 498.31,212.58 c 17.31,-9.75 40.09,1.88 46.41,19.6 0.17,2.7 -0.61,5.32 -1.09,7.95 -5.88,-7.45 -12.18,-15.4 -21.74,-18.11 -7.28,-2.47 -15.1,-1.27 -22.34,0.7 5.65,-5.12 13.03,-7.46 20.51,-8.07 -7.53,-2.32 -15.44,0.09 -21.69,4.48 -0.02,-2.18 -0.05,-4.36 -0.06,-6.55 z"
       transform="translate(0,91.889767)" />
    <path
       style="opacity:1;fill:#ffffff"
       inkscape:connector-curvature="0"
       id="path34"
       d="m 565.5,220.51 c 16.33,-13.28 38.79,-11.93 58.57,-11.33 19.29,1.64 38.74,2.79 58.05,0.67 -11.21,14.36 -22.54,28.72 -31.75,44.49 -8.47,13.54 -15.16,30.4 -30.76,37.21 -2.34,1.49 -5,2.44 -7.74,1.46 2.92,-10.05 1.18,-20.69 -5.34,-28.94 5.12,-6.56 12.35,-10.68 19.85,-13.98 -8.89,2.12 -17.56,5.79 -24.58,11.74 -13.2,-5.13 -30.2,-4.24 -40.04,6.96 -4.6,5.02 -1.02,11.71 0.76,17.11 -4.36,-3.59 -7.77,-8.46 -8.03,-14.28 -2.44,-17.29 -2.98,-38.3 11.01,-51.11 z"
       transform="translate(0,91.889767)" />
    <path
       style="opacity:1;fill:#ffffff"
       inkscape:connector-curvature="0"
       id="path36"
       d="m 302.59,225.45 c 8.91,-1.32 16.37,5.56 19.77,13.18 5.69,12.3 8.77,27.16 3.4,40.1 -6.82,13.24 -19.71,24.02 -34.73,26.08 -5.73,0.96 -11.6,-1.59 -15.03,-6.22 4.57,1.49 9,4.21 14,3.73 7.16,-0.56 13.25,-5.27 17.55,-10.76 9.51,-12.3 12.85,-29.63 7.23,-44.3 -2.02,-5.6 -7.3,-8.81 -11.7,-12.37 4.12,-4.15 9.44,-0.54 13.48,1.67 -3.41,-3.96 -8.36,-5.95 -13.39,-6.91 -0.2,-1.4 -0.39,-2.8 -0.58,-4.2 z"
       transform="translate(0,91.889767)" />
    <path
       style="opacity:1;fill:#ffffff"
       inkscape:connector-curvature="0"
       id="path38"
       d="m 501.97,227.94 c 15.48,-7.5 34.21,3.66 40.33,18.49 0.68,6.2 0.55,12.48 1.55,18.66 -12.85,-12.96 -28.92,-22.1 -45.92,-28.46 0.52,-3.18 0.26,-7.51 4.04,-8.69 z"
       transform="translate(0,91.889767)" />
    <path
       style="opacity:1;fill:#ffffff"
       inkscape:connector-curvature="0"
       id="path40"
       d="m 662.65,255.97 c 1.96,-3.04 3.19,-6.93 6.46,-8.87 9.32,-2.01 18.37,3.76 23.75,11.01 14.76,19.42 19.5,49.64 2.54,69.23 -0.78,-1.11 -1.53,-2.21 -2.29,-3.3 4.52,-6.77 8.41,-14.19 9.48,-22.37 -1.45,2.72 -2.73,5.53 -4.3,8.18 -0.52,-15.12 -1.22,-31.61 -11.15,-43.97 -5.7,-7.46 -15.32,-10.74 -24.49,-9.91 z"
       transform="translate(0,91.889767)" />
    <path
       style="opacity:1;fill:#ffffff"
       inkscape:connector-curvature="0"
       id="path42"
       d="m 185.28,293.25 c 19.23,-27.73 52.73,-45.84 86.77,-43.91 14.14,0.18 27.54,5.48 39.85,12.05 0.19,5.49 -1.08,10.87 -2.79,16.05 -7.6,-1.4 -14.59,-5.03 -22.26,-6.23 -31.15,-7.02 -65.69,6.31 -83.39,33.02 -6.17,-3.47 -12.14,-7.28 -18.18,-10.98 z"
       transform="translate(0,91.889767)" />
    <path
       style="opacity:1;fill:#ffffff"
       inkscape:connector-curvature="0"
       id="path44"
       d="m 413.69,266.7 c 15.77,-11.85 35.53,-18.5 55.33,-17.37 31.58,0.56 60.25,18.92 79.05,43.47 -5.93,4 -12.07,7.7 -18.18,11.42 -3.81,-3.94 -6.72,-8.65 -10.75,-12.38 -18.87,-18.46 -47.25,-26.32 -72.97,-20.56 -25.92,5.05 -51.55,20.85 -61.84,46.05 -6.49,15.77 -6.25,33.36 -3.63,49.94 -8.89,-3.94 -19.28,-4.07 -28.15,-0.03 1.98,-15.89 2.78,-32.59 -3.04,-47.83 -4.38,-12.04 -12.74,-22.22 -22.54,-30.31 1.89,-3.86 3.73,-7.75 5.78,-11.54 10.83,10.14 22.08,20.64 28.24,34.43 1.73,3.67 2.39,8.48 6.49,10.37 3.45,-6.58 5.37,-13.96 9.86,-19.98 10.02,-13.82 22.85,-25.33 36.35,-35.68 z"
       transform="translate(0,91.889767)" />
    <path
       style="opacity:1;fill:#ffffff"
       inkscape:connector-curvature="0"
       id="path46"
       d="m 52.16,261.12 c 13.69,-9.98 36.03,-6.89 43.71,9.06 5.42,9.52 13.93,16.61 22.07,23.71 -2.03,2.92 -4.11,5.82 -6.18,8.72 -8.81,-2 -18,0.04 -26.07,3.72 7.91,-2.16 16.31,-1.55 23.47,2.62 -1.54,12.9 0.48,25.92 5.92,37.71 -8.12,4.9 -17.87,3.4 -26.45,0.69 C 75.19,343.2 62.34,337.17 50.56,329.49 42.55,324.55 34.8,318.56 25.42,316.51 c -5.37,-1.3 -10.58,1.18 -15.53,2.93 9.15,-22.33 21.45,-44.91 42.27,-58.32 z"
       transform="translate(0,91.889767)" />
    <path
       style="opacity:1;fill:#ffffff"
       inkscape:connector-curvature="0"
       id="path48"
       d="m 660.65,260.52 c 3.79,-0.56 7.65,-0.39 11.42,0.37 -4.77,1.42 -9.53,2.81 -14.3,4.21 0.94,-1.54 1.9,-3.06 2.88,-4.58 z"
       transform="translate(0,91.889767)" />
    <path
       style="opacity:1;fill:#ffffff"
       inkscape:connector-curvature="0"
       id="path50"
       d="m 646.13,285.18 c 5.76,-11.23 17.3,-19.47 29.94,-20.64 3.11,-0.54 5.38,2.07 7.25,4.14 6.2,7.29 8.63,16.93 9.78,26.22 0.81,7.77 1.19,15.98 -2.06,23.29 -8.62,-17.25 -24.49,-32.8 -44.91,-33.01 z"
       transform="translate(0,91.889767)" />
    <path
       style="opacity:1;fill:#ffffff"
       inkscape:connector-curvature="0"
       id="path52"
       d="m 141.44,270.68 c 7.27,-0.91 15.73,-0.66 21.45,4.55 0.08,0.66 0.26,1.98 0.34,2.64 -8.65,2.59 -14.97,9.09 -18.05,17.48 -4.18,-4.09 -9.26,-8.25 -7.25,-14.85 -2.08,3.69 -3.29,7.76 -4.22,11.88 -5.37,-1.91 -5.2,-8.47 -4.29,-13.08 1.08,-5.47 7.05,-7.96 12.02,-8.62 z"
       transform="translate(0,91.889767)" />
    <path
       style="opacity:1;fill:#ffffff"
       inkscape:connector-curvature="0"
       id="path54"
       d="m 569.06,277.25 c 5.1,-8.38 17.83,-7.8 26.36,-5.65 9.39,1.61 12.37,16.16 4.21,21.02 -1.11,-4.54 -2.68,-8.98 -5.24,-12.91 3.6,6.83 -2.19,11.8 -7,15.58 -2.36,-9.14 -9.81,-14.95 -18.33,-18.04 z"
       transform="translate(0,91.889767)" />
    <path
       style="opacity:1;fill:#ffffff"
       inkscape:connector-curvature="0"
       id="path56"
       d="m 208.71,307.57 c 15.98,-22.46 44.81,-34.7 72.07,-30.49 -8.18,5.19 -13.14,15.75 -8.94,25.06 3.05,6.34 10.26,9.93 17.17,9.5 13.53,-0.03 25.01,-8.64 34.09,-17.87 8.95,6.85 16.62,15.69 20.94,26.19 6.15,14.84 6.01,31.39 3.87,47.06 -0.97,6.95 -6.24,12.09 -9.25,18.17 -19.77,-20.06 -47.38,-30.8 -74.67,-35.68 -8.54,-2.48 -16.45,2.81 -20.3,10.19 0.72,-6.9 0.56,-14.22 -2.96,-20.41 -6.69,-13.97 -19.77,-23 -32.02,-31.72 z"
       transform="translate(0,91.889767)" />
    <path
       style="opacity:1;fill:#ffffff"
       inkscape:connector-curvature="0"
       id="path58"
       d="m 393.22,312.28 c 15.7,-25.03 46.97,-37.32 75.73,-35.54 21.53,1.71 42.32,12.96 54.84,30.69 -10.68,8.3 -22.54,15.91 -29.56,27.86 -4.52,6.57 -5.72,14.68 -5.74,22.48 -4.06,-7.14 -12.39,-10.53 -20.33,-8.37 -26.92,5.14 -54.25,15.58 -73.71,35.53 -3.08,-6.31 -8.76,-11.58 -9.29,-18.92 -2.37,-18.09 -1.95,-37.82 8.06,-53.73 z"
       transform="translate(0,91.889767)" />
    <path
       style="opacity:1;fill:#ffffff"
       inkscape:connector-curvature="0"
       id="path60"
       d="m 279.5,281.45 c 6.48,-2.56 10.71,3.84 8.45,9.67 -2.74,-2.14 -5.49,-4.25 -8.24,-6.38 -0.05,-0.82 -0.15,-2.47 -0.21,-3.29 z"
       transform="translate(0,91.889767)" />
    <path
       style="opacity:1;fill:#ffffff"
       inkscape:connector-curvature="0"
       id="path62"
       d="m 281.94,295.14 c -1.92,-1.58 -2.51,-4.3 0.1,-5.59 1.66,1.66 2.26,4.22 -0.1,5.59 z"
       transform="translate(0,91.889767)" />
    <path
       style="opacity:1;fill:#ffffff"
       inkscape:connector-curvature="0"
       id="path64"
       d="m 532.01,315.01 c 13.59,-8.1 26.73,-17.73 41.82,-22.77 5.48,6.69 7.69,16.72 4.15,24.76 -6.27,7.74 -14.65,13.43 -22.4,19.58 -3.96,3.79 -9.57,0.23 -14.21,1.92 -15.55,4.88 -28.12,15.73 -42.51,22.98 2.18,-8.76 8.12,-15.81 14.64,-21.75 -5.59,2.75 -10.7,6.31 -15.95,9.63 5.73,-16.05 20.98,-25.39 34.46,-34.35 z"
       transform="translate(0,91.889767)" />
    <path
       style="opacity:1;fill:#ffffff"
       inkscape:connector-curvature="0"
       id="path66"
       d="m 155.08,316.89 c -3.39,-7.96 -1.43,-17.76 3.9,-24.47 3.1,0.23 5.95,1.51 8.64,2.99 16.45,8.79 32.51,18.36 47.58,29.36 8.52,6.32 16.59,14.12 20.03,24.42 -5.54,-3.37 -10.83,-7.17 -16.6,-10.16 6.92,5.97 13.34,13.19 15.27,22.41 -13.93,-7.42 -26.51,-17.56 -41.53,-22.78 -4.84,-2.07 -10.73,1.85 -14.86,-2.13 -7.78,-6.14 -16.3,-11.75 -22.43,-19.64 z"
       transform="translate(0,91.889767)" />
    <path
       style="opacity:1;fill:#ffffff"
       inkscape:connector-curvature="0"
       id="path68"
       d="m 622.17,304.44 c 9.98,-3.21 20.86,-5.96 31.22,-2.82 14.27,3.88 23.67,17.07 28.76,30.24 13.34,34.58 8.38,72.76 18.95,107.97 -9.62,-8.68 -20.54,-16.47 -33.27,-19.69 -12.34,-3.09 -25.67,-4.11 -36.47,-11.46 -10.21,-6.75 -16.79,-17.32 -24.6,-26.47 -1.91,-3.06 -6.06,-6.9 -3.13,-10.57 8.06,-11.24 14.33,-23.7 18.69,-36.81 11.76,-0.16 21.54,7.22 27.56,16.81 -5.9,-10.25 -11.73,-24.97 -25.49,-25.51 0.24,-7.3 -0.47,-14.6 -2.22,-21.69 z"
       transform="translate(0,91.889767)" />
    <path
       style="opacity:1;fill:#ffffff"
       inkscape:connector-curvature="0"
       id="path70"
       d="m 118.78,313.7 c 0.62,-5 3.74,-9.35 8.24,-11.57 -1.94,7.38 -1.86,15.08 -0.48,22.55 1.26,-5.62 1.18,-12.24 5.54,-16.56 2.14,-2.26 6.76,-1.88 7.04,1.74 4.46,20.01 18.38,35.75 30.31,51.71 1.45,5.21 0.18,11.44 4.06,15.88 9.15,10.94 21.65,18.28 33.14,26.47 -2.03,1.24 -4.05,3.29 -6.64,2.81 -8.61,-0.74 -15.82,-5.91 -23.43,-9.47 4.96,4.17 10.58,7.46 15.62,11.52 3.34,2.36 7.03,5.64 11.42,4.8 3.72,-1.49 5.99,-5.08 9.16,-7.37 -0.8,6.26 -6.91,13.38 -13.74,10.87 -30.17,-11.61 -53.11,-36.53 -69.19,-63.9 -6.58,-12.01 -13.34,-25.36 -11.05,-39.48 z"
       transform="translate(0,91.889767)" />
    <path
       style="opacity:1;fill:#ffffff"
       inkscape:connector-curvature="0"
       id="path72"
       d="m 606.15,302.22 c 8.12,3.62 9.18,13.81 8.35,21.59 -1.86,13.42 -8.73,25.52 -15.81,36.84 -16.01,24.32 -37.6,46.43 -65.43,56.63 -6.62,1.82 -12.13,-5.01 -12.74,-11.04 3.98,3.24 8.25,10.05 14.17,6.48 7.67,-4.66 14.82,-10.24 21.95,-15.69 -9.17,4.18 -19.65,13.19 -30.04,7.77 10.54,-10.14 25.05,-16.21 33.71,-28.46 3.25,-4.49 1.48,-10.48 3.73,-15.28 11.49,-15.69 25.37,-30.91 29.53,-50.5 0.17,-3.49 4.12,-5.13 6.81,-2.94 4.86,4.29 4.82,11.34 6.12,17.21 1.49,-7.47 1.49,-15.2 -0.35,-22.61 z"
       transform="translate(0,91.889767)" />
    <path
       style="opacity:1;fill:#ffffff"
       inkscape:connector-curvature="0"
       id="path74"
       d="m 162.38,335.82 c 4.72,2.76 9.06,6.11 13.23,9.64 -0.83,1.44 -1.64,2.89 -2.45,4.35 -4.07,-4.27 -7.5,-9.09 -10.78,-13.99 z"
       transform="translate(0,91.889767)" />
    <path
       style="opacity:1;fill:#ffffff"
       inkscape:connector-curvature="0"
       id="path76"
       d="m 557.57,345.23 c 4.06,-3.23 8.13,-6.46 12.58,-9.14 -2.76,4.98 -6.34,9.42 -10,13.75 -0.87,-1.54 -1.72,-3.08 -2.58,-4.61 z"
       transform="translate(0,91.889767)" />
    <path
       style="opacity:1;fill:#ffffff"
       inkscape:connector-curvature="0"
       id="path78"
       d="m 188.37,348.51 c 5.61,-1.56 10.59,2.36 15.24,4.88 17.91,11.26 35.61,22.87 52.72,35.31 3.16,2.43 7.34,5.89 5.97,10.39 -1.71,5.2 -4.67,11.26 -10.45,12.7 -5.45,0.36 -10.53,-2.32 -15.55,-4.09 -17.31,-7.6 -33.02,-18.49 -47.84,-30.13 -3.63,-3.46 -9.6,-6.65 -8.8,-12.51 0.37,-6.21 1.66,-14.61 8.71,-16.55 m 21.81,39.04 c 11.31,7.51 21.81,16.59 34.32,22.09 8.65,3.32 17.98,-6.43 13.34,-14.88 -0.42,5.73 -5.7,11.27 -11.71,9.28 -11.96,-5.53 -24.03,-10.86 -35.95,-16.49 z"
       transform="translate(0,91.889767)" />
    <path
       style="opacity:1;fill:#ffffff"
       inkscape:connector-curvature="0"
       id="path80"
       d="m 539.39,348.48 c 5.48,-1.55 11.28,2.24 12.5,7.7 1.07,5.07 3.51,11.65 -1.01,15.73 -5.85,5.9 -12.67,10.76 -19.45,15.52 -14.1,9.58 -28.54,19.46 -45.25,23.82 -10.86,4.17 -21.35,-14.83 -11.19,-21.19 13.37,-10.21 27.62,-19.17 41.55,-28.57 7.47,-4.54 14.63,-9.91 22.85,-13.01 m -44.24,51.73 c -4.63,2.21 -10.11,6.23 -15.21,2.85 -3.36,-1.46 -3.68,-5.37 -4.47,-8.46 -5.36,8.23 4.43,18.44 13.01,14.91 11.99,-5.03 22.06,-13.63 32.76,-20.86 -8.86,3.47 -17.33,7.85 -26.09,11.56 z"
       transform="translate(0,91.889767)" />
    <path
       style="opacity:1;fill:#ffffff"
       inkscape:connector-curvature="0"
       id="path82"
       d="m 97.58,415.35 c -18.84,-12.3 -24.87,-36.86 -22.06,-58.09 3.1,0.74 6.11,1.8 9.01,3.1 -3.02,13.42 -2.12,29.57 8.7,39.4 5.05,3.56 3.72,10.26 4.35,15.59 z"
       transform="translate(0,91.889767)" />
    <path
       style="opacity:1;fill:#ffffff"
       inkscape:connector-curvature="0"
       id="path84"
       d="m 106.71,421.32 c -7.31,-21.31 1.39,-44.7 13.8,-62.32 1.33,2.07 2.7,4.12 4.12,6.13 -9.49,17.84 -13.84,40.26 -4.86,59.15 4.46,9.73 14.19,15.56 24.31,17.9 0.73,2.46 1.42,4.94 2.07,7.44 -16.78,-1.63 -33.32,-12.22 -39.44,-28.3 z"
       transform="translate(0,91.889767)" />
    <path
       style="opacity:1;fill:#ffffff"
       inkscape:connector-curvature="0"
       id="path86"
       d="m 250.56,372.23 c 2.17,-4.23 2.95,-12.34 9.46,-11.24 17.95,1.96 35.14,8.55 51.02,16.94 8.47,4.78 17,10.3 22.53,18.51 3.61,5.25 2.64,11.96 1.65,17.86 -1.42,-0.76 -2.83,-1.53 -4.23,-2.31 1.22,-9.55 -5.78,-16.3 -13.47,-20.49 4.75,4.2 10.09,9.6 7.63,16.58 -10.36,-4.51 -20.51,-10.65 -32.13,-10.95 -5.5,0.17 -9.92,-3.35 -14.73,-5.4 -3.74,-1.76 -8.11,-2.78 -10.69,-6.29 -4.63,-5.64 -11.22,-9.01 -17.04,-13.21 z"
       transform="translate(0,91.889767)" />
    <path
       style="opacity:1;fill:#ffffff"
       inkscape:connector-curvature="0"
       id="path88"
       d="m 462.6,362.6 c 4.62,-0.95 9.39,-2.17 14.13,-1.38 3.22,2.76 3.93,7.21 5.43,10.97 -6.96,4.99 -14.05,9.78 -19.85,16.13 -8.16,2.92 -15.41,9.02 -24.44,8.96 -10.77,0.97 -20.33,6.46 -30,10.83 -2.36,-6.21 2.12,-11.14 5.95,-15.43 -7.28,3.87 -13.55,10.81 -11.2,19.66 -1.7,0.56 -3.39,1.13 -5.08,1.69 -0.33,-5.41 -1.49,-11.29 1.21,-16.31 3.31,-6.42 9.35,-10.76 15.12,-14.82 14.77,-9.77 31.52,-16.32 48.73,-20.3 z"
       transform="translate(0,91.889767)" />
    <path
       style="opacity:1;fill:#ffffff"
       inkscape:connector-curvature="0"
       id="path90"
       d="m 87.1,361.69 c 7.26,0.8 14.49,2.48 21.85,1.85 -6.06,10.36 -9.44,21.99 -11.97,33.65 -10.26,-8.59 -12.07,-23.02 -9.88,-35.5 z"
       transform="translate(0,91.889767)" />
    <path
       style="opacity:1;fill:#ffffff"
       inkscape:connector-curvature="0"
       id="path92"
       d="m 126.56,368.58 c 4.27,4.92 9.74,10.29 8.89,17.41 -0.84,17.08 2.95,33.85 6.71,50.39 -9.8,-2.4 -18.12,-9.77 -21,-19.53 -5.25,-15.93 -1.83,-33.52 5.4,-48.27 z"
       transform="translate(0,91.889767)" />
    <path
       style="opacity:1;fill:#ffffff"
       inkscape:connector-curvature="0"
       id="path94"
       d="m 343.65,385.61 c 4.56,-9.44 14.36,-17.48 25.45,-15.55 8.78,0.14 15.26,7.35 19.63,14.22 3.23,5.03 0.34,10.87 -1.12,15.96 -2.33,-5.76 -5.23,-11.72 -10.63,-15.2 -6.79,-4.62 -16.37,-3.85 -22.69,1.25 -4.38,3.37 -6.49,8.65 -8.99,13.4 -1.39,-4.49 -3.56,-9.41 -1.65,-14.08 z"
       transform="translate(0,91.889767)" />
    <path
       style="opacity:1;fill:#ffffff"
       inkscape:connector-curvature="0"
       id="path96"
       d="m 597.89,394.31 c 5.4,6.29 10.09,13.13 14.97,19.83 -3.7,7.2 -11.66,10.36 -19.27,11.36 1.81,-10.34 3.42,-20.73 4.3,-31.19 z"
       transform="translate(0,91.889767)" />
    <path
       style="opacity:1;fill:#ffffff"
       inkscape:connector-curvature="0"
       id="path98"
       d="m 149.81,397.31 c 7.13,6.18 13.7,13.12 21.88,17.97 2.59,2 6.54,3.18 7.28,6.76 3.65,12.51 6.01,25.49 11.65,37.33 16.08,36.07 43.39,65.4 70.92,93.07 34.35,33.62 69.7,66.19 104.75,99.08 27.02,-24.32 53.28,-49.53 79.74,-74.47 24.67,-23.67 49.57,-47.36 70.35,-74.61 11.43,-14.75 21.29,-30.91 27.58,-48.54 3.35,-10.11 6.3,-20.35 9.45,-30.52 1.19,-5.35 7.04,-7.03 10.88,-10.08 7.02,-4.47 12.62,-10.7 19.02,-15.95 -2.48,31.41 -13.75,61.6 -28.89,89.02 -11.51,20.74 -26.54,39.21 -42.05,57.04 -44.8,49.19 -97.39,90.25 -146.06,135.38 -33.7,-31.74 -69.44,-61.24 -103.39,-92.69 -33.75,-32.25 -67.29,-66.21 -88.84,-108.14 -12.64,-25.16 -22.31,-52.4 -24.27,-80.65 z"
       transform="translate(0,91.889767)" />
    <path
       style="opacity:1;fill:#ffffff"
       inkscape:connector-curvature="0"
       id="path100"
       d="m 269.17,408.86 c 0.44,-3.67 2.35,-7.05 3.45,-10.57 1.39,0.7 2.78,1.42 4.17,2.14 -2.73,2.62 -4.88,5.97 -7.62,8.43 z"
       transform="translate(0,91.889767)" />
    <path
       style="opacity:1;fill:#ffffff"
       inkscape:connector-curvature="0"
       id="path102"
       d="m 456.44,400.66 c 1.47,-0.76 2.96,-1.52 4.44,-2.27 0.38,2.34 0.73,4.68 1.01,7.04 -1.87,-1.53 -3.68,-3.13 -5.45,-4.77 z"
       transform="translate(0,91.889767)" />
    <path
       style="opacity:1;fill:#ffffff"
       inkscape:connector-curvature="0"
       id="path104"
       d="m 285.33,409.38 c 8.81,-2.26 17.94,0.79 26.01,4.26 14.74,6.57 27.79,16.17 41.5,24.55 3.08,1.9 6.22,4.78 5.65,8.79 -0.97,7.68 -4.61,15.36 -10.46,20.51 -2.95,0.27 -5.69,-1.11 -8.32,-2.22 -20.11,-9.2 -39.32,-20.23 -58.18,-31.75 -4.49,-2.69 -7.98,-8.06 -6.66,-13.42 1.75,-4.82 5.6,-8.98 10.46,-10.72 m -7.11,14.47 c 1.12,5 6.24,7.47 10.49,9.44 6.6,2.7 12.76,6.32 19.24,9.3 -8.27,-6.93 -17.45,-12.81 -24.84,-20.75 1.73,-3.27 3.34,-6.6 4.59,-10.08 -5.72,0.79 -10.34,6.27 -9.48,12.09 z"
       transform="translate(0,91.889767)" />
    <path
       style="opacity:1;fill:#ffffff"
       inkscape:connector-curvature="0"
       id="path106"
       d="m 434.33,409.41 c 7.48,-1.9 16.7,-0.96 21.39,5.91 4.97,5.73 2.08,14.71 -4.16,18.19 -19.35,11.71 -38.96,23.15 -59.66,32.34 -2.71,1.07 -6.58,3.04 -8.79,0.04 -4.67,-5.6 -8.29,-12.53 -8.61,-19.93 0.1,-5 5.16,-7.29 8.74,-9.7 16.35,-10.05 32.11,-22.25 51.09,-26.85 m 11.33,2.62 c 1.05,3.38 2.53,6.61 4.15,9.76 -7.15,7.84 -16.12,13.61 -24.09,20.52 8.36,-4.62 17.54,-7.82 25.53,-13.05 7.36,-4.84 2.58,-16.81 -5.59,-17.23 z"
       transform="translate(0,91.889767)" />
    <path
       style="opacity:1;fill:#ffffff"
       inkscape:connector-curvature="0"
       id="path108"
       d="m 258.68,421.82 c 3.25,-3.34 6.32,-6.84 9.06,-10.61 -2.16,4.68 -3.16,9.74 -3.3,14.88 -1.92,-1.43 -3.84,-2.85 -5.76,-4.27 z"
       transform="translate(0,91.889767)" />
    <path
       style="opacity:1;fill:#ffffff"
       inkscape:connector-curvature="0"
       id="path110"
       d="m 208.96,427.89 c 6.52,-2.68 8.74,-9.69 12.61,-14.91 1.41,0.83 2.82,1.67 4.24,2.52 -0.49,8.13 -2.38,16.8 1.14,24.54 5.1,11.06 15.29,18.62 25.68,24.36 14.37,8.1 28.47,16.91 43.8,23.1 8.95,3.85 20.39,2.53 26.88,-5.19 3.07,-2.84 3.85,-8.18 8.43,-9.1 -0.65,7.27 -3.55,14.02 -5.46,20.99 -5.71,20 -11.52,40.12 -13.76,60.87 -0.82,5.05 3.48,9.04 7.82,10.63 7.71,2.82 16.07,2.69 24.14,3.59 21.16,0.65 42.56,1.38 63.51,-2.27 5.57,-1.05 12.74,-4.36 12.6,-10.98 -2.88,-28.04 -12.15,-54.84 -19.64,-81.86 0.73,-0.16 2.19,-0.48 2.92,-0.64 4.54,10.76 16.16,18.87 28.09,15.4 16.46,-5.13 30.93,-14.9 45.97,-23.07 11.06,-5.97 22,-13.66 27.89,-25.11 3.89,-7.9 2.32,-16.94 1.09,-25.28 1.7,-0.84 3.39,-1.69 5.09,-2.55 3,6.46 6.92,13.53 14.14,15.9 6.04,2.31 12.1,-1.05 17.85,-2.65 -2.85,29.36 -18.95,55.29 -37.15,77.71 -18.91,23.57 -40.83,44.47 -62.56,65.4 -25.65,24.45 -51.69,48.48 -77.5,72.76 -24.26,-21.58 -47.61,-44.28 -71.36,-66.46 -25.12,-23.88 -50.38,-47.83 -71.95,-75.04 -16.84,-21.65 -31.98,-46.42 -34.25,-74.37 6.29,1.99 13.36,5.41 19.74,1.71 z"
       transform="translate(0,91.889767)" />
    <path
       style="opacity:1;fill:#ffffff"
       inkscape:connector-curvature="0"
       id="path112"
       d="m 467.17,414.71 c 2.48,2.28 4.83,4.7 7.14,7.16 -1.72,1.07 -3.45,2.13 -5.18,3.19 -0.67,-3.45 -1.34,-6.9 -1.96,-10.35 z"
       transform="translate(0,91.889767)" />
    <path
       style="opacity:1;fill:#ffffff"
       inkscape:connector-curvature="0"
       id="path114"
       d="m 592.02,430.33 c 9.28,-1.49 18.84,-5.39 22.92,-14.53 1.92,1.5 3.81,3.03 5.7,4.59 -7.3,8.65 -18.6,12.28 -29.36,14.28 0.24,-1.45 0.48,-2.9 0.74,-4.34 z"
       transform="translate(0,91.889767)" />
    <path
       style="opacity:1;fill:#ffffff"
       inkscape:connector-curvature="0"
       id="path116"
       d="m 235.21,420.5 c 4.45,0.39 8.81,1.52 12.87,3.38 6.46,2.54 8.75,10.2 15.25,12.77 13.49,6.46 25.8,14.96 38.89,22.14 2.87,1.71 6.8,2.69 7.58,6.45 -11.17,1.95 -20.71,-5.3 -30.51,-9.27 8.05,5.2 15.65,11.29 24.24,15.54 4.66,2.43 8.57,-1.45 11.33,-4.76 1.55,0.17 3.1,0.36 4.65,0.55 -0.53,6.52 -7.33,10.99 -13.55,10.32 -5.44,-0.48 -10.42,-2.99 -15.28,-5.31 -12.45,-6.35 -24.59,-13.29 -36.66,-20.34 -6.75,-3.97 -13.16,-8.94 -17.43,-15.6 -2.95,-4.75 -1.73,-10.62 -1.38,-15.87 z"
       transform="translate(0,91.889767)" />
    <path
       style="opacity:1;fill:#ffffff"
       inkscape:connector-curvature="0"
       id="path118"
       d="m 483,425 c 4.45,-2.84 9.73,-3.89 14.92,-4.29 0.45,5.22 1.53,10.99 -1.5,15.68 -6.05,9.81 -16.74,15.1 -26.35,20.76 -12.86,6.91 -25.22,15.25 -39.18,19.8 -7.26,2.71 -15.2,-1.57 -17.91,-8.59 1.54,-0.78 3.09,-1.56 4.64,-2.33 2.91,3.91 7.54,8.28 12.72,5.24 8.19,-4.53 15.62,-10.38 23.6,-15.32 -8.6,3.39 -16.58,8.84 -25.96,9.9 -1.95,0.23 -3.44,-1.32 -5.02,-2.17 15.55,-9.47 31.14,-18.98 47.31,-27.41 5.3,-2.53 7.71,-8.39 12.73,-11.27 z"
       transform="translate(0,91.889767)" />
    <path
       style="opacity:1;fill:#ffffff"
       inkscape:connector-curvature="0"
       id="path120"
       d="m 598.81,438.71 c 9.9,-1.98 18.71,-7.49 25.35,-15.03 6.53,3.52 13.2,6.91 20.41,8.81 7.02,2.12 14.61,2 21.35,5.13 -7.23,12.09 -20.87,17.95 -33.91,21.47 -16.78,5.06 -34.59,3.29 -51.55,7.39 2.72,-7.35 5.45,-14.7 7.92,-22.14 1.13,-4.6 6.81,-4.23 10.43,-5.63 z"
       transform="translate(0,91.889767)" />
    <path
       style="opacity:1;fill:#ffffff"
       inkscape:connector-curvature="0"
       id="path122"
       d="m 666.54,443.57 c 1.28,-2.36 3,-4.45 5.27,-5.93 -0.42,10.3 -6.83,19.3 -14.58,25.61 -11.99,10.32 -28.53,12.34 -43.67,13.75 5.08,-3.95 11.77,-3.88 17.55,-6.12 -11.36,1.13 -22.65,3.22 -34.11,3.11 -7.67,-0.13 -14.89,2.74 -22.24,4.48 2.12,-6.01 7.99,-9.33 14.17,-9.41 16.56,-0.67 33.46,-0.66 49.43,-5.72 11.1,-3.37 22.22,-9.43 28.18,-19.77 z"
       transform="translate(0,91.889767)" />
    <path
       style="opacity:1;fill:#ffffff"
       inkscape:connector-curvature="0"
       id="path124"
       d="m 336.51,476.94 c 2.88,0.56 5.66,1.51 8.34,2.71 -3.17,19.12 -8.46,37.92 -9.82,57.31 -0.26,3.33 0.36,8.56 4.9,8.08 17.38,0.19 34.78,-0.14 52.14,0.69 4.03,0.83 5.94,-3.27 5.67,-6.66 -0.25,-20.31 -6.85,-39.81 -9.34,-59.85 2.78,-0.85 5.55,-1.76 8.31,-2.7 6.54,25.42 14.72,50.53 18.6,76.55 1.53,6.64 -6.71,7.79 -11.36,8.84 -25.31,3.89 -51.31,3.82 -76.58,-0.33 -4.18,-0.98 -11.31,-2.75 -9.71,-8.51 4.11,-25.85 11.71,-51 18.85,-76.13 z"
       transform="translate(0,91.889767)" />
    <path
       style="opacity:1;fill:#ffffff"
       inkscape:connector-curvature="0"
       id="path126"
       d="m 580.62,490.48 c 26.47,-8.3 52.46,8.38 70.35,26.56 8.78,9.91 21.41,16.4 34.9,15.27 -17.37,12.62 -35.31,24.5 -53.18,36.42 -10.96,7.11 -21.96,14.41 -34.27,19.01 3.94,-20.89 3.96,-42.4 -1.39,-63.06 6.9,-1.99 13.42,1.06 19.35,4.27 -6.09,-5.16 -13.28,-9.67 -21.4,-10.49 -3.49,-9.98 -8.62,-19.15 -14.36,-27.98 z"
       transform="translate(0,91.889767)" />
    <path
       style="opacity:1;fill:#ffffff"
       inkscape:connector-curvature="0"
       id="path128"
       d="m 550.49,520.66 c 4.58,-6.95 9.07,-13.96 13.52,-20.99 6.25,1.64 9.68,7.6 12.48,12.93 10.88,21.42 13,46.67 8.05,70.02 -5.1,25.13 -14.55,49.97 -31.12,69.84 -6.87,7.94 -13.63,16.05 -21.56,22.98 3.72,-17.25 4.88,-35.23 1.5,-52.63 -2.67,-15.62 -9.6,-30.01 -13.91,-45.16 -1.56,-8.21 -1.44,-18.08 4.74,-24.46 8.12,-8.94 15.81,-18.27 22.78,-28.13 11.72,9.57 13.84,25.43 13.47,39.62 1.24,-14.99 1.08,-32.4 -9.95,-44.02 z"
       transform="translate(0,91.889767)" />
    <path
       style="opacity:1;fill:#ffffff"
       inkscape:connector-curvature="0"
       id="path130"
       d="m 155.13,583.87 c -6.11,-28.07 8.79,-54.01 16.64,-79.98 3.73,4.06 1,9.8 1.24,14.62 0.96,-2.94 1.72,-5.95 2.72,-8.88 0.69,1.97 1.53,4.05 0.94,6.18 -2.81,13.84 -11.58,25.64 -14.29,39.52 -1.06,5.01 -0.39,10.17 -1.08,15.22 -1.19,4.78 -3.83,9.03 -6.17,13.32 z"
       transform="translate(0,91.889767)" />
    <path
       style="opacity:1;fill:#ffffff"
       inkscape:connector-curvature="0"
       id="path132"
       d="m 180.23,517.19 c 5.35,7.18 10.47,14.54 16.2,21.42 -13.05,3.47 -22.69,13.4 -30.34,24.01 1.94,-15.91 9.85,-30.15 14.14,-45.43 z"
       transform="translate(0,91.889767)" />
    <path
       style="opacity:1;fill:#ffffff"
       inkscape:connector-curvature="0"
       id="path134"
       d="m 177.85,572.94 c 6.22,-9.72 16.02,-18.59 28.15,-18.89 3.56,-0.54 5.88,2.67 8.06,4.92 6.9,7.89 14.59,15.04 21.64,22.8 -5.94,3.25 -12.07,6.36 -17.14,10.94 6.9,-4.11 15.24,-7.8 23.28,-4.58 4.94,3.29 8.55,8.17 13.08,11.97 2.79,2.78 7.33,5.25 6.59,9.87 -0.63,15.73 -10.89,29.52 -23.87,37.72 -30.81,20.3 -67.54,29.54 -103.87,33.4 25.07,-31.34 22.74,-74.92 44.08,-108.15 z"
       transform="translate(0,91.889767)" />
    <path
       style="opacity:1;fill:#ffffff"
       inkscape:connector-curvature="0"
       id="path136"
       d="m 423.72,648.61 c 8.09,-7.49 15.8,-15.48 24.82,-21.88 5.79,12.09 9.01,25.62 7.86,39.05 -2.71,29.25 -22.57,54.51 -48.1,67.98 0.55,-9.2 1,-18.6 -1.47,-27.58 -2.62,-10.54 -8.23,-19.95 -13.79,-29.15 8.96,-8.43 17.68,-17.12 27.08,-25.08 7.68,8.03 10.36,18.95 10.16,29.78 1.7,-11.37 -0.2,-23.42 -6.56,-33.12 z"
       transform="translate(0,91.889767)" />
    <path
       style="opacity:1;fill:#ffffff"
       inkscape:connector-curvature="0"
       id="path138"
       d="m 468.17,648.25 c 9.73,5.64 21.37,4.35 31.02,-0.72 -5.6,17.81 -17.8,34.51 -35.47,41.73 4.27,-13.2 5.89,-27.19 4.45,-41.01 z"
       transform="translate(0,91.889767)" />
    <path
       style="opacity:1;fill:#ffffff"
       inkscape:connector-curvature="0"
       id="path140"
       d="m 189.63,697.86 c 2.93,-6.61 5.8,-13.63 11.65,-18.25 -2.5,7.3 -6.09,14.47 -5.8,22.4 -0.6,6.41 2.25,13.48 8.42,16.16 10.87,5.44 23.95,0.83 32.6,-6.66 2.9,-2.37 2.42,-6.45 -0.41,-8.64 -1.74,4.07 -3.64,8.42 -7.74,10.64 0.67,-8.22 7.45,-16.75 16.26,-16.13 4.59,0.48 2.83,5.67 2.29,8.67 -1.3,-1.6 -2.54,-3.24 -3.76,-4.89 1.63,6.9 -3.29,13.48 -8.36,17.58 -14.58,7.68 -35.44,9.99 -48.05,-2.49 -8.91,-9.75 -2.76,-24.11 5.77,-31.84 -1.14,4.44 -2.39,8.87 -2.87,13.45 z"
       transform="translate(0,91.889767)" />
    <path
       style="opacity:1;fill:#ffffff"
       inkscape:connector-curvature="0"
       id="path142"
       d="m 282.13,723.1 c 4.59,-3.17 9.75,-8.56 15.83,-6.13 3.22,5.05 -0.34,11.07 -2.45,15.85 -2.94,-3.9 2.52,-9.8 -2.51,-12.51 -13.35,17.23 -42.82,22.29 -58.68,5.78 1.09,-3.12 4.02,-0.48 5.94,0.12 -0.2,-1.48 -0.4,-2.95 -0.6,-4.42 11.16,10.9 30.44,10.73 42.47,1.31 z"
       transform="translate(0,91.889767)" />
    <path
       style="opacity:1;fill:#ffffff"
       inkscape:connector-curvature="0"
       id="path144"
       d="m 301.65,740.69 c 3.89,-1.58 8.13,-1.77 12.29,-1.6 -3.61,2.57 -8.16,2.24 -12.29,1.6 z"
       transform="translate(0,91.889767)" />
    <g
       transform="translate(0,91.889765)"
       id="#030303ff">
      <path
         style="opacity:1;fill:#030303"
         inkscape:connector-curvature="0"
         id="path147"
         d="m 376.33,41.43 c 10.29,-3.16 21.81,1.63 28.01,10.16 2.21,2.76 3.62,6.39 6.9,8.11 23.23,12.21 41.5,32.03 56.09,53.5 5.45,-0.21 11.74,-0.71 15.92,3.53 8.4,7.96 8.71,20.62 7.6,31.36 -0.48,4.89 -2.34,9.87 -0.6,14.73 4.18,14.09 5.97,28.72 7.61,43.27 18.62,-8.68 40.62,2.26 49.09,19.97 4.38,-9.12 11,-17.26 20.01,-22.12 17.51,-9.86 38.4,-9.02 57.83,-8.32 24.86,1.58 49.69,3.83 74.6,4.32 -9.6,13.24 -19.19,26.58 -27.3,40.85 10.52,-0.08 19.98,5.82 25.61,14.52 11.27,15.56 16.15,35.75 12.36,54.67 -1.97,9.2 -6.98,17.35 -12.57,24.77 3.51,12.81 6.02,25.9 7.23,39.13 3.05,30.49 5.6,61.25 14.05,90.83 -16.32,-3.14 -27.13,-17.58 -42.19,-23.68 -5.01,22.56 -26.48,38.03 -48.79,40.35 8.02,5.16 16.48,9.75 23.48,16.36 7.08,5.89 12.92,13.64 21.56,17.38 11.65,4.46 24.32,2.05 36.44,2.99 -20.89,28.08 -49.68,48.99 -77.66,69.53 -11.46,7.89 -23.34,16.83 -37.69,18 -4.79,14.73 -10.32,29.39 -18.91,42.38 -11.56,17.69 -27.27,32.17 -43.36,45.67 -4.89,4.17 -11.05,8.56 -17.84,6.5 0.14,-6.58 3.34,-12.46 4.55,-18.81 3.72,-17.45 4.25,-35.72 0.45,-53.21 -3.57,-17.75 -12.53,-33.88 -15.88,-51.69 -14.73,14.05 -29.17,28.46 -44.44,41.96 4.66,7.39 8.53,16.23 16.63,20.47 10.78,4.18 22.19,-0.03 32.94,-2.05 0.3,7.95 -2.75,15.44 -5.54,22.73 -8.05,19.61 -23.39,36.85 -43.42,44.56 -3.93,1.17 -5.48,5.26 -7.75,8.24 -11.01,15.79 -27.99,26.11 -45.33,33.67 -2.8,1.13 -7.34,2.2 -8.84,-1.33 -1.77,-4.41 -0.05,-9.2 -0.1,-13.76 0.87,-15.76 -6.03,-30.78 -15.21,-43.21 -6.13,3.43 -11.95,14.81 -19.83,9.15 -29.67,-25.31 -56.48,-53.96 -87.19,-78.07 -3.16,10.75 -7.17,21.74 -14.98,30.06 -13.52,13.81 -30.81,24.01 -49.27,29.6 -6.08,3.11 -8.39,10.25 -9.8,16.46 -1.13,5.5 -2.07,12.42 2.65,16.56 4.86,4.9 12.11,5.67 18.65,5.2 0.82,-10.89 6.27,-23.13 17.93,-25.74 5.66,-1.8 12.4,1.27 13.36,7.45 1.56,8.3 -4.7,15.06 -9.59,20.95 10.51,6.85 25.56,6.34 35.98,-0.63 5.76,-3.83 13.27,-10.69 20.35,-5.86 6.36,6.42 1.71,16.14 -0.76,23.33 6.51,0.67 13.04,0.05 19.53,-0.54 -2.6,6.37 -9.67,10.96 -16.58,8.88 -5.92,-1.31 -9.23,-6.74 -12.27,-11.46 -11.87,8.91 -27.7,13.26 -42.23,9.13 -8.12,-2.18 -14.73,-7.67 -20.68,-13.37 -14.85,5.51 -34.27,5.15 -45.21,-7.79 -8.09,-9.28 -6.56,-22.95 -0.78,-33 -9.9,2.21 -19.96,3.69 -30.08,4.4 -15.63,0.76 -31.44,-1.44 -46.92,1.67 5.26,-11.12 16.21,-17.97 22.57,-28.39 11.77,-19.11 15.91,-41.53 22.32,-62.75 0.99,-3.78 3.07,-7.71 1.6,-11.65 -4.22,-14.74 -4.03,-30.67 0.29,-45.36 4.23,-15.42 12.68,-29.37 16.22,-45 1.16,-3.68 -1.54,-6.91 -2.98,-10.06 C 158.43,480.83 154,470.09 149.59,459.37 128.31,458.46 107.7,445.11 99.89,425.02 98.24,420.2 92.75,418.93 89.46,415.54 73.1,400.8 67.89,376.78 71.85,355.69 55.37,349.41 41.87,337.82 26.59,329.38 c -8.24,-4.7 -17.06,0.06 -25.22,2.21 -1.83,-11.51 2.37,-22.76 7.22,-32.98 8.33,-17.19 19.65,-33.45 35.2,-44.83 11.8,-8.85 28.32,-13.58 41.98,-5.99 -4.29,-21.75 -1.03,-43.88 -0.76,-65.79 0.12,-14.12 -4.1,-27.93 -10.71,-40.31 -3.25,-5.66 -4.97,-12.05 -5.34,-18.56 10.53,3.2 20.77,7.56 31.92,8.24 25.75,3.81 53.33,7.47 74.02,24.79 18.58,14.38 28.52,37.64 29.71,60.75 0.51,11.98 0.56,24.07 -1.41,35.94 9.6,-6.51 19.91,-12.06 30.98,-15.63 -0.35,-16.55 0.87,-33.12 3.33,-49.48 1.09,-4.56 -3.84,-7.21 -5.26,-11.06 -3.19,-7.81 0.74,-16.5 6.29,-22.15 3.41,-3.94 8.89,-6.04 10.89,-11.12 11.41,-26.77 29.03,-50.93 51.3,-69.69 16.8,-13.76 37.37,-24.09 59.4,-24.99 6.39,0.23 10.36,-5.75 16.2,-7.3 m -0.2,6.71 c -11.89,5.26 -18.25,18.06 -20.62,30.25 -3.42,19.02 0.04,38.93 7.51,56.6 4.21,10.5 16.8,18.71 27.98,13.97 3.71,-1.16 5.35,-4.82 5.94,-8.37 -5.84,1.47 -12.04,6.22 -18.01,2.46 -12.22,-7.49 -17.14,-22.66 -18.39,-36.24 -0.86,-11.88 -0.3,-24.33 5,-35.22 3.57,-7.56 10.87,-13.67 19.36,-14.48 6.26,-0.71 12.4,0.94 18.46,2.25 -5.41,-8.96 -16.88,-15.34 -27.23,-11.22 m -76.69,48.28 c -20.93,20.81 -37.37,46.93 -44.12,75.85 6.57,3.49 13.91,5.44 21.35,5.48 3.9,-11.37 6.87,-23.2 12.64,-33.82 -2.74,11.3 -7.36,22.21 -8.08,33.94 5.38,-0.7 13.26,-0.24 14.99,-6.8 9.56,-23.59 27.28,-45.29 51.81,-54.05 1.2,-0.69 3.59,-1.06 3.16,-2.96 -0.52,-6.64 -1.71,-13.23 -1.92,-19.9 -10.84,2.56 -19.55,9.72 -27.74,16.87 6.55,-10.95 16.49,-19.67 27.85,-25.39 0.87,-6.23 2.26,-12.38 3.53,-18.54 -20.74,2.7 -38.74,15.11 -53.47,29.32 m 67.82,-14.07 c 18.53,0.22 34.23,13.14 43.83,28.1 -12.4,-11.39 -28.42,-19.86 -45.67,-19.09 -0.37,7.27 -0.31,14.61 0.98,21.8 8.3,1.03 16.74,2.29 24.29,6.13 27.51,13.02 44.98,40.97 51.94,69.83 3.76,-2.08 7.13,-4.76 10.34,-7.61 -1.83,-13.08 -5.98,-25.65 -9.57,-38.31 5.89,11.02 9.35,23.17 12.96,35.09 7.91,-5.28 13.15,-13.68 16.31,-22.49 -8.84,-23.48 -23.45,-44.62 -41.65,-61.82 -14.89,-13.86 -33.41,-25.49 -54.08,-27.32 -5.85,2.93 -8.16,9.76 -9.68,15.69 m 104,35.9 c 7.83,12.61 7.77,28.19 4.24,42.19 -4.84,14.98 -17.89,25 -30.11,33.9 -6.4,3.93 -13.12,9.05 -21.01,8.63 -0.71,-4.73 1.5,-9.01 3.99,-12.83 -0.73,-1.26 -1.44,-2.52 -2.16,-3.77 -3.44,5.34 -8.31,10.67 -7.99,17.46 0.78,4.32 6.12,5.46 9.83,5.1 11.91,-1.23 22.45,-7.91 31.44,-15.43 16.97,-14.02 27.73,-35.97 26.11,-58.15 -0.53,-8.01 -5.3,-16.92 -14.34,-17.1 m -150.33,38.77 c 8.23,7.62 2.45,20.08 -5.38,25.49 -3.32,3.43 -9.73,4.06 -10.81,9.24 -2.59,8.95 -3.1,18.33 -2.99,27.6 14,-2.51 24.05,10.1 27.91,22.01 3.18,6.51 1.69,15.26 7.83,20.12 11.72,11.09 21.02,24.41 29.34,38.16 13.73,-25.71 34.43,-48.41 61.36,-60.45 1.73,-7.81 2.96,-15.76 2.85,-23.77 -4.72,0.06 -10.08,0.74 -14.06,-2.35 -4.34,-3.24 -5.4,-9.32 -4.1,-14.32 1.64,-7.43 6.48,-13.55 11.47,-19.07 -4.4,-12.91 -12.42,-24.46 -22.5,-33.6 -2.69,3.5 -5.38,7.43 -9.67,9.06 -7.91,3.02 -17.04,0.4 -23.28,-5 -5.75,-4.83 -8.77,-11.89 -12.4,-18.27 -14.32,3.98 -26.55,13.53 -35.57,25.15 m 53.63,-25.16 c 3.35,4.4 8.63,7.68 14.37,6.13 -3.76,-3.92 -9.18,-5.37 -14.37,-6.13 m -290.77,7.17 c 6.36,10.33 12.06,21.47 13.49,33.68 2.15,21.1 -1.54,42.32 0.48,63.41 1.92,16.21 11.32,30.1 21.87,42.05 1.75,-6.47 5.17,-13.13 11.66,-15.88 11.94,-6.09 26.47,-3.83 37.57,3.05 -3.81,-20.83 -13.65,-40.14 -25.71,-57.37 5.98,6.23 10.39,13.71 14.98,20.97 9.19,14.89 17.08,31.12 19.17,48.7 9.66,-7.55 11.97,-20.31 14.25,-31.64 1.32,-18.91 1.4,-38.97 -7.12,-56.4 -8.56,-17.44 -25.59,-29.23 -43.54,-35.55 -18.65,-6.4 -38.43,-8.61 -57.1,-15.02 m 152.67,32.76 c 1.22,5.32 6.29,8.58 10.8,11.01 19.82,9.96 44.48,7.89 63.44,-3.08 6.25,-3.45 11.5,-9.72 10.85,-17.26 -2.17,-0.21 -4.33,-0.36 -6.5,-0.49 -7.98,18.37 -31.16,23.33 -49.05,19.11 -7.16,-1.65 -14.92,-4.7 -18.61,-11.53 -1.96,-4.12 -1.01,-8.86 -1.34,-13.26 -5.14,3.44 -9.8,9.01 -9.59,15.5 m 239.07,13.94 c 3.26,15.67 6.49,31.52 5.25,47.63 0.96,0.01 2.86,0.03 3.82,0.04 0.37,-17.91 -1.59,-35.79 -4.85,-53.38 -1.43,1.89 -2.83,3.79 -4.22,5.71 m -13.47,14.18 c 1.25,10.59 3.35,21.14 3.09,31.85 3.11,0.27 6.26,0.5 9.35,-0.13 2.29,-14.38 2.46,-29.17 0.07,-43.55 -4.52,3.57 -8.33,7.9 -12.51,11.83 m -210.83,-7.72 c -1.76,13.59 -3.34,27.3 -2.5,41.01 0.88,-0.05 2.63,-0.16 3.51,-0.22 -0.9,-13.68 1.57,-27.1 3.27,-40.59 -1.43,-0.08 -2.86,-0.14 -4.28,-0.2 m 6.38,1.64 c -1.05,12.7 -0.9,25.52 0.77,38.15 3.07,0.02 6.14,0.02 9.21,0.02 0.63,-12.17 1.7,-24.39 4.69,-36.24 -4.9,-0.59 -9.76,-1.48 -14.67,-1.93 m 20.77,1.8 c -1.4,12.29 -1.88,24.78 0.13,37.03 3.54,0.42 7.08,0.82 10.63,1.16 -1.84,-13.19 -1.69,-26.63 0.3,-39.8 -3.71,0.36 -7.41,0.86 -11.06,1.61 m 167.54,15.23 c -1.26,7.61 -0.79,15.48 -2.13,23.12 3.56,-0.37 7.1,-0.92 10.61,-1.65 1.58,-8.92 1.45,-18.01 1,-27.02 -3.24,1.69 -6.72,3.11 -9.48,5.55 m 52.39,1.72 c 0.01,2.19 0.04,4.37 0.06,6.55 6.25,-4.39 14.16,-6.8 21.69,-4.48 -7.48,0.61 -14.86,2.95 -20.51,8.07 7.24,-1.97 15.06,-3.17 22.34,-0.7 9.56,2.71 15.86,10.66 21.74,18.11 0.48,-2.63 1.26,-5.25 1.09,-7.95 -6.32,-17.72 -29.1,-29.35 -46.41,-19.6 m 67.19,7.93 c -13.99,12.81 -13.45,33.82 -11.01,51.11 0.26,5.82 3.67,10.69 8.03,14.28 -1.78,-5.4 -5.36,-12.09 -0.76,-17.11 9.84,-11.2 26.84,-12.09 40.04,-6.96 7.02,-5.95 15.69,-9.62 24.58,-11.74 -7.5,3.3 -14.73,7.42 -19.85,13.98 6.52,8.25 8.26,18.89 5.34,28.94 2.74,0.98 5.4,0.03 7.74,-1.46 15.6,-6.81 22.29,-23.67 30.76,-37.21 9.21,-15.77 20.54,-30.13 31.75,-44.49 -19.31,2.12 -38.76,0.97 -58.05,-0.67 -19.78,-0.6 -42.24,-1.95 -58.57,11.33 m -262.91,4.94 c 0.19,1.4 0.38,2.8 0.58,4.2 5.03,0.96 9.98,2.95 13.39,6.91 -4.04,-2.21 -9.36,-5.82 -13.48,-1.67 4.4,3.56 9.68,6.77 11.7,12.37 5.62,14.67 2.28,32 -7.23,44.3 -4.3,5.49 -10.39,10.2 -17.55,10.76 -5,0.48 -9.43,-2.24 -14,-3.73 3.43,4.63 9.3,7.18 15.03,6.22 15.02,-2.06 27.91,-12.84 34.73,-26.08 5.37,-12.94 2.29,-27.8 -3.4,-40.1 -3.4,-7.62 -10.86,-14.5 -19.77,-13.18 m 199.38,2.49 c -3.78,1.18 -3.52,5.51 -4.04,8.69 17,6.36 33.07,15.5 45.92,28.46 -1,-6.18 -0.87,-12.46 -1.55,-18.66 -6.12,-14.83 -24.85,-25.99 -40.33,-18.49 m 160.68,28.03 c 9.17,-0.83 18.79,2.45 24.49,9.91 9.93,12.36 10.63,28.85 11.15,43.97 1.57,-2.65 2.85,-5.46 4.3,-8.18 -1.07,8.18 -4.96,15.6 -9.48,22.37 0.76,1.09 1.51,2.19 2.29,3.3 16.96,-19.59 12.22,-49.81 -2.54,-69.23 -5.38,-7.25 -14.43,-13.02 -23.75,-11.01 -3.27,1.94 -4.5,5.83 -6.46,8.87 m -477.37,37.28 c 6.04,3.7 12.01,7.51 18.18,10.98 17.7,-26.71 52.24,-40.04 83.39,-33.02 7.67,1.2 14.66,4.83 22.26,6.23 1.71,-5.18 2.98,-10.56 2.79,-16.05 -12.31,-6.57 -25.71,-11.87 -39.85,-12.05 -34.04,-1.93 -67.54,16.18 -86.77,43.91 M 413.69,266.7 c -13.5,10.35 -26.33,21.86 -36.35,35.68 -4.49,6.02 -6.41,13.4 -9.86,19.98 -4.1,-1.89 -4.76,-6.7 -6.49,-10.37 -6.16,-13.79 -17.41,-24.29 -28.24,-34.43 -2.05,3.79 -3.89,7.68 -5.78,11.54 9.8,8.09 18.16,18.27 22.54,30.31 5.82,15.24 5.02,31.94 3.04,47.83 8.87,-4.04 19.26,-3.91 28.15,0.03 -2.62,-16.58 -2.86,-34.17 3.63,-49.94 10.29,-25.2 35.92,-41 61.84,-46.05 25.72,-5.76 54.1,2.1 72.97,20.56 4.03,3.73 6.94,8.44 10.75,12.38 6.11,-3.72 12.25,-7.42 18.18,-11.42 -18.8,-24.55 -47.47,-42.91 -79.05,-43.47 -19.8,-1.13 -39.56,5.52 -55.33,17.37 M 52.16,261.12 c -20.82,13.41 -33.12,35.99 -42.27,58.32 4.95,-1.75 10.16,-4.23 15.53,-2.93 9.38,2.05 17.13,8.04 25.14,12.98 11.78,7.68 24.63,13.71 38.07,17.86 8.58,2.71 18.33,4.21 26.45,-0.69 -5.44,-11.79 -7.46,-24.81 -5.92,-37.71 -7.16,-4.17 -15.56,-4.78 -23.47,-2.62 8.07,-3.68 17.26,-5.72 26.07,-3.72 2.07,-2.9 4.15,-5.8 6.18,-8.72 -8.14,-7.1 -16.65,-14.19 -22.07,-23.71 -7.68,-15.95 -30.02,-19.04 -43.71,-9.06 m 608.49,-0.6 c -0.98,1.52 -1.94,3.04 -2.88,4.58 4.77,-1.4 9.53,-2.79 14.3,-4.21 -3.77,-0.76 -7.63,-0.93 -11.42,-0.37 m -14.52,24.66 c 20.42,0.21 36.29,15.76 44.91,33.01 3.25,-7.31 2.87,-15.52 2.06,-23.29 -1.15,-9.29 -3.58,-18.93 -9.78,-26.22 -1.87,-2.07 -4.14,-4.68 -7.25,-4.14 -12.64,1.17 -24.18,9.41 -29.94,20.64 m -504.69,-14.5 c -4.97,0.66 -10.94,3.15 -12.02,8.62 -0.91,4.61 -1.08,11.17 4.29,13.08 0.93,-4.12 2.14,-8.19 4.22,-11.88 -2.01,6.6 3.07,10.76 7.25,14.85 3.08,-8.39 9.4,-14.89 18.05,-17.48 -0.08,-0.66 -0.26,-1.98 -0.34,-2.64 -5.72,-5.21 -14.18,-5.46 -21.45,-4.55 m 427.62,6.57 c 8.52,3.09 15.97,8.9 18.33,18.04 4.81,-3.78 10.6,-8.75 7,-15.58 2.56,3.93 4.13,8.37 5.24,12.91 8.16,-4.86 5.18,-19.41 -4.21,-21.02 -8.53,-2.15 -21.26,-2.73 -26.36,5.65 m -360.35,30.32 c 12.25,8.72 25.33,17.75 32.02,31.72 3.52,6.19 3.68,13.51 2.96,20.41 3.85,-7.38 11.76,-12.67 20.3,-10.19 27.29,4.88 54.9,15.62 74.67,35.68 3.01,-6.08 8.28,-11.22 9.25,-18.17 2.14,-15.67 2.28,-32.22 -3.87,-47.06 -4.32,-10.5 -11.99,-19.34 -20.94,-26.19 -9.08,9.23 -20.56,17.84 -34.09,17.87 -6.91,0.43 -14.12,-3.16 -17.17,-9.5 -4.2,-9.31 0.76,-19.87 8.94,-25.06 -27.26,-4.21 -56.09,8.03 -72.07,30.49 m 184.51,4.71 c -10.01,15.91 -10.43,35.64 -8.06,53.73 0.53,7.34 6.21,12.61 9.29,18.92 19.46,-19.95 46.79,-30.39 73.71,-35.53 7.94,-2.16 16.27,1.23 20.33,8.37 0.02,-7.8 1.22,-15.91 5.74,-22.48 7.02,-11.95 18.88,-19.56 29.56,-27.86 -12.52,-17.73 -33.31,-28.98 -54.84,-30.69 -28.76,-1.78 -60.03,10.51 -75.73,35.54 M 279.5,281.45 c 0.06,0.82 0.16,2.47 0.21,3.29 2.75,2.13 5.5,4.24 8.24,6.38 2.26,-5.83 -1.97,-12.23 -8.45,-9.67 m 2.44,13.69 c 2.36,-1.37 1.76,-3.93 0.1,-5.59 -2.61,1.29 -2.02,4.01 -0.1,5.59 m 250.07,19.87 c -13.48,8.96 -28.73,18.3 -34.46,34.35 5.25,-3.32 10.36,-6.88 15.95,-9.63 -6.52,5.94 -12.46,12.99 -14.64,21.75 14.39,-7.25 26.96,-18.1 42.51,-22.98 4.64,-1.69 10.25,1.87 14.21,-1.92 7.75,-6.15 16.13,-11.84 22.4,-19.58 3.54,-8.04 1.33,-18.07 -4.15,-24.76 -15.09,5.04 -28.23,14.67 -41.82,22.77 m -376.93,1.88 c 6.13,7.89 14.65,13.5 22.43,19.64 4.13,3.98 10.02,0.06 14.86,2.13 15.02,5.22 27.6,15.36 41.53,22.78 -1.93,-9.22 -8.35,-16.44 -15.27,-22.41 5.77,2.99 11.06,6.79 16.6,10.16 -3.44,-10.3 -11.51,-18.1 -20.03,-24.42 -15.07,-11 -31.13,-20.57 -47.58,-29.36 -2.69,-1.48 -5.54,-2.76 -8.64,-2.99 -5.33,6.71 -7.29,16.51 -3.9,24.47 m 467.09,-12.45 c 1.75,7.09 2.46,14.39 2.22,21.69 13.76,0.54 19.59,15.26 25.49,25.51 -6.02,-9.59 -15.8,-16.97 -27.56,-16.81 -4.36,13.11 -10.63,25.57 -18.69,36.81 -2.93,3.67 1.22,7.51 3.13,10.57 7.81,9.15 14.39,19.72 24.6,26.47 10.8,7.35 24.13,8.37 36.47,11.46 12.73,3.22 23.65,11.01 33.27,19.69 -10.57,-35.21 -5.61,-73.39 -18.95,-107.97 -5.09,-13.17 -14.49,-26.36 -28.76,-30.24 -10.36,-3.14 -21.24,-0.39 -31.22,2.82 m -503.39,9.26 c -2.29,14.12 4.47,27.47 11.05,39.48 16.08,27.37 39.02,52.29 69.19,63.9 6.83,2.51 12.94,-4.61 13.74,-10.87 -3.17,2.29 -5.44,5.88 -9.16,7.37 -4.39,0.84 -8.08,-2.44 -11.42,-4.8 -5.04,-4.06 -10.66,-7.35 -15.62,-11.52 7.61,3.56 14.82,8.73 23.43,9.47 2.59,0.48 4.61,-1.57 6.64,-2.81 -11.49,-8.19 -23.99,-15.53 -33.14,-26.47 -3.88,-4.44 -2.61,-10.67 -4.06,-15.88 -11.93,-15.96 -25.85,-31.7 -30.31,-51.71 -0.28,-3.62 -4.9,-4 -7.04,-1.74 -4.36,4.32 -4.28,10.94 -5.54,16.56 -1.38,-7.47 -1.46,-15.17 0.48,-22.55 -4.5,2.22 -7.62,6.57 -8.24,11.57 m 487.37,-11.48 c 1.84,7.41 1.84,15.14 0.35,22.61 -1.3,-5.87 -1.26,-12.92 -6.12,-17.21 -2.69,-2.19 -6.64,-0.55 -6.81,2.94 -4.16,19.59 -18.04,34.81 -29.53,50.5 -2.25,4.8 -0.48,10.79 -3.73,15.28 -8.66,12.25 -23.17,18.32 -33.71,28.46 10.39,5.42 20.87,-3.59 30.04,-7.77 -7.13,5.45 -14.28,11.03 -21.95,15.69 -5.92,3.57 -10.19,-3.24 -14.17,-6.48 0.61,6.03 6.12,12.86 12.74,11.04 27.83,-10.2 49.42,-32.31 65.43,-56.63 7.08,-11.32 13.95,-23.42 15.81,-36.84 0.83,-7.78 -0.23,-17.97 -8.35,-21.59 m -443.77,33.6 c 3.28,4.9 6.71,9.72 10.78,13.99 0.81,-1.46 1.62,-2.91 2.45,-4.35 -4.17,-3.53 -8.51,-6.88 -13.23,-9.64 m 395.19,9.41 c 0.86,1.53 1.71,3.07 2.58,4.61 3.66,-4.33 7.24,-8.77 10,-13.75 -4.45,2.68 -8.52,5.91 -12.58,9.14 m -369.2,3.28 c -7.05,1.94 -8.34,10.34 -8.71,16.55 -0.8,5.86 5.17,9.05 8.8,12.51 14.82,11.64 30.53,22.53 47.84,30.13 5.02,1.77 10.1,4.45 15.55,4.09 5.78,-1.44 8.74,-7.5 10.45,-12.7 1.37,-4.5 -2.81,-7.96 -5.97,-10.39 -17.11,-12.44 -34.81,-24.05 -52.72,-35.31 -4.65,-2.52 -9.63,-6.44 -15.24,-4.88 m 351.02,-0.03 c -8.22,3.1 -15.38,8.47 -22.85,13.01 -13.93,9.4 -28.18,18.36 -41.55,28.57 -10.16,6.36 0.33,25.36 11.19,21.19 16.71,-4.36 31.15,-14.24 45.25,-23.82 6.78,-4.76 13.6,-9.62 19.45,-15.52 4.52,-4.08 2.08,-10.66 1.01,-15.73 -1.22,-5.46 -7.02,-9.25 -12.5,-7.7 M 97.58,415.35 c -0.63,-5.33 0.7,-12.03 -4.35,-15.59 -10.82,-9.83 -11.72,-25.98 -8.7,-39.4 -2.9,-1.3 -5.91,-2.36 -9.01,-3.1 -2.81,21.23 3.22,45.79 22.06,58.09 m 9.13,5.97 c 6.12,16.08 22.66,26.67 39.44,28.3 -0.65,-2.5 -1.34,-4.98 -2.07,-7.44 -10.12,-2.34 -19.85,-8.17 -24.31,-17.9 -8.98,-18.89 -4.63,-41.31 4.86,-59.15 -1.42,-2.01 -2.79,-4.06 -4.12,-6.13 -12.41,17.62 -21.11,41.01 -13.8,62.32 m 143.85,-49.09 c 5.82,4.2 12.41,7.57 17.04,13.21 2.58,3.51 6.95,4.53 10.69,6.29 4.81,2.05 9.23,5.57 14.73,5.4 11.62,0.3 21.77,6.44 32.13,10.95 2.46,-6.98 -2.88,-12.38 -7.63,-16.58 7.69,4.19 14.69,10.94 13.47,20.49 1.4,0.78 2.81,1.55 4.23,2.31 0.99,-5.9 1.96,-12.61 -1.65,-17.86 -5.53,-8.21 -14.06,-13.73 -22.53,-18.51 -15.88,-8.39 -33.07,-14.98 -51.02,-16.94 -6.51,-1.1 -7.29,7.01 -9.46,11.24 M 462.6,362.6 c -17.21,3.98 -33.96,10.53 -48.73,20.3 -5.77,4.06 -11.81,8.4 -15.12,14.82 -2.7,5.02 -1.54,10.9 -1.21,16.31 1.69,-0.56 3.38,-1.13 5.08,-1.69 -2.35,-8.85 3.92,-15.79 11.2,-19.66 -3.83,4.29 -8.31,9.22 -5.95,15.43 9.67,-4.37 19.23,-9.86 30,-10.83 9.03,0.06 16.28,-6.04 24.44,-8.96 5.8,-6.35 12.89,-11.14 19.85,-16.13 -1.5,-3.76 -2.21,-8.21 -5.43,-10.97 -4.74,-0.79 -9.51,0.43 -14.13,1.38 M 87.1,361.69 c -2.19,12.48 -0.38,26.91 9.88,35.5 2.53,-11.66 5.91,-23.29 11.97,-33.65 -7.36,0.63 -14.59,-1.05 -21.85,-1.85 m 39.46,6.89 c -7.23,14.75 -10.65,32.34 -5.4,48.27 2.88,9.76 11.2,17.13 21,19.53 -3.76,-16.54 -7.55,-33.31 -6.71,-50.39 0.85,-7.12 -4.62,-12.49 -8.89,-17.41 m 217.09,17.03 c -1.91,4.67 0.26,9.59 1.65,14.08 2.5,-4.75 4.61,-10.03 8.99,-13.4 6.32,-5.1 15.9,-5.87 22.69,-1.25 5.4,3.48 8.3,9.44 10.63,15.2 1.46,-5.09 4.35,-10.93 1.12,-15.96 -4.37,-6.87 -10.85,-14.08 -19.63,-14.22 -11.09,-1.93 -20.89,6.11 -25.45,15.55 m 254.24,8.7 c -0.88,10.46 -2.49,20.85 -4.3,31.19 7.61,-1 15.57,-4.16 19.27,-11.36 -4.88,-6.7 -9.57,-13.54 -14.97,-19.83 m -448.08,3 c 1.96,28.25 11.63,55.49 24.27,80.65 21.55,41.93 55.09,75.89 88.84,108.14 33.95,31.45 69.69,60.95 103.39,92.69 48.67,-45.13 101.26,-86.19 146.06,-135.38 15.51,-17.83 30.54,-36.3 42.05,-57.04 15.14,-27.42 26.41,-57.61 28.89,-89.02 -6.4,5.25 -12,11.48 -19.02,15.95 -3.84,3.05 -9.69,4.73 -10.88,10.08 -3.15,10.17 -6.1,20.41 -9.45,30.52 -6.29,17.63 -16.15,33.79 -27.58,48.54 -20.78,27.25 -45.68,50.94 -70.35,74.61 -26.46,24.94 -52.72,50.15 -79.74,74.47 -35.05,-32.89 -70.4,-65.46 -104.75,-99.08 -27.53,-27.67 -54.84,-57 -70.92,-93.07 -5.64,-11.84 -8,-24.82 -11.65,-37.33 -0.74,-3.58 -4.69,-4.76 -7.28,-6.76 -8.18,-4.85 -14.75,-11.79 -21.88,-17.97 m 119.36,11.55 c 2.74,-2.46 4.89,-5.81 7.62,-8.43 -1.39,-0.72 -2.78,-1.44 -4.17,-2.14 -1.1,3.52 -3.01,6.9 -3.45,10.57 m 187.27,-8.2 c 1.77,1.64 3.58,3.24 5.45,4.77 -0.28,-2.36 -0.63,-4.7 -1.01,-7.04 -1.48,0.75 -2.97,1.51 -4.44,2.27 m -171.11,8.72 c -4.86,1.74 -8.71,5.9 -10.46,10.72 -1.32,5.36 2.17,10.73 6.66,13.42 18.86,11.52 38.07,22.55 58.18,31.75 2.63,1.11 5.37,2.49 8.32,2.22 5.85,-5.15 9.49,-12.83 10.46,-20.51 0.57,-4.01 -2.57,-6.89 -5.65,-8.79 -13.71,-8.38 -26.76,-17.98 -41.5,-24.55 -8.07,-3.47 -17.2,-6.52 -26.01,-4.26 m 149,0.03 c -18.98,4.6 -34.74,16.8 -51.09,26.85 -3.58,2.41 -8.64,4.7 -8.74,9.7 0.32,7.4 3.94,14.33 8.61,19.93 2.21,3 6.08,1.03 8.79,-0.04 20.7,-9.19 40.31,-20.63 59.66,-32.34 6.24,-3.48 9.13,-12.46 4.16,-18.19 -4.69,-6.87 -13.91,-7.81 -21.39,-5.91 m -175.65,12.41 c 1.92,1.42 3.84,2.84 5.76,4.27 0.14,-5.14 1.14,-10.2 3.3,-14.88 -2.74,3.77 -5.81,7.27 -9.06,10.61 m -49.72,6.07 c -6.38,3.7 -13.45,0.28 -19.74,-1.71 2.27,27.95 17.41,52.72 34.25,74.37 21.57,27.21 46.83,51.16 71.95,75.04 23.75,22.18 47.1,44.88 71.36,66.46 25.81,-24.28 51.85,-48.31 77.5,-72.76 21.73,-20.93 43.65,-41.83 62.56,-65.4 18.2,-22.42 34.3,-48.35 37.15,-77.71 -5.75,1.6 -11.81,4.96 -17.85,2.65 -7.22,-2.37 -11.14,-9.44 -14.14,-15.9 -1.7,0.86 -3.39,1.71 -5.09,2.55 1.23,8.34 2.8,17.38 -1.09,25.28 -5.89,11.45 -16.83,19.14 -27.89,25.11 -15.04,8.17 -29.51,17.94 -45.97,23.07 -11.93,3.47 -23.55,-4.64 -28.09,-15.4 -0.73,0.16 -2.19,0.48 -2.92,0.64 7.49,27.02 16.76,53.82 19.64,81.86 0.14,6.62 -7.03,9.93 -12.6,10.98 -20.95,3.65 -42.35,2.92 -63.51,2.27 -8.07,-0.9 -16.43,-0.77 -24.14,-3.59 -4.34,-1.59 -8.64,-5.58 -7.82,-10.63 2.24,-20.75 8.05,-40.87 13.76,-60.87 1.91,-6.97 4.81,-13.72 5.46,-20.99 -4.58,0.92 -5.36,6.26 -8.43,9.1 -6.49,7.72 -17.93,9.04 -26.88,5.19 -15.33,-6.19 -29.43,-15 -43.8,-23.1 -10.39,-5.74 -20.58,-13.3 -25.68,-24.36 -3.52,-7.74 -1.63,-16.41 -1.14,-24.54 -1.42,-0.85 -2.83,-1.69 -4.24,-2.52 -3.87,5.22 -6.09,12.23 -12.61,14.91 m 258.21,-13.18 c 0.62,3.45 1.29,6.9 1.96,10.35 1.73,-1.06 3.46,-2.12 5.18,-3.19 -2.31,-2.46 -4.66,-4.88 -7.14,-7.16 m 124.85,15.62 c -0.26,1.44 -0.5,2.89 -0.74,4.34 10.76,-2 22.06,-5.63 29.36,-14.28 -1.89,-1.56 -3.78,-3.09 -5.7,-4.59 -4.08,9.14 -13.64,13.04 -22.92,14.53 M 235.21,420.5 c -0.35,5.25 -1.57,11.12 1.38,15.87 4.27,6.66 10.68,11.63 17.43,15.6 12.07,7.05 24.21,13.99 36.66,20.34 4.86,2.32 9.84,4.83 15.28,5.31 6.22,0.67 13.02,-3.8 13.55,-10.32 -1.55,-0.19 -3.1,-0.38 -4.65,-0.55 -2.76,3.31 -6.67,7.19 -11.33,4.76 -8.59,-4.25 -16.19,-10.34 -24.24,-15.54 9.8,3.97 19.34,11.22 30.51,9.27 -0.78,-3.76 -4.71,-4.74 -7.58,-6.45 -13.09,-7.18 -25.4,-15.68 -38.89,-22.14 -6.5,-2.57 -8.79,-10.23 -15.25,-12.77 -4.06,-1.86 -8.42,-2.99 -12.87,-3.38 M 483,425 c -5.02,2.88 -7.43,8.74 -12.73,11.27 -16.17,8.43 -31.76,17.94 -47.31,27.41 1.58,0.85 3.07,2.4 5.02,2.17 9.38,-1.06 17.36,-6.51 25.96,-9.9 -7.98,4.94 -15.41,10.79 -23.6,15.32 -5.18,3.04 -9.81,-1.33 -12.72,-5.24 -1.55,0.77 -3.1,1.55 -4.64,2.33 2.71,7.02 10.65,11.3 17.91,8.59 13.96,-4.55 26.32,-12.89 39.18,-19.8 9.61,-5.66 20.3,-10.95 26.35,-20.76 3.03,-4.69 1.95,-10.46 1.5,-15.68 -5.19,0.4 -10.47,1.45 -14.92,4.29 m 115.81,13.71 c -3.62,1.4 -9.3,1.03 -10.43,5.63 -2.47,7.44 -5.2,14.79 -7.92,22.14 16.96,-4.1 34.77,-2.33 51.55,-7.39 13.04,-3.52 26.68,-9.38 33.91,-21.47 -6.74,-3.13 -14.33,-3.01 -21.35,-5.13 -7.21,-1.9 -13.88,-5.29 -20.41,-8.81 -6.64,7.54 -15.45,13.05 -25.35,15.03 m 67.73,4.86 c -5.96,10.34 -17.08,16.4 -28.18,19.77 -15.97,5.06 -32.87,5.05 -49.43,5.72 -6.18,0.08 -12.05,3.4 -14.17,9.41 7.35,-1.74 14.57,-4.61 22.24,-4.48 11.46,0.11 22.75,-1.98 34.11,-3.11 -5.78,2.24 -12.47,2.17 -17.55,6.12 15.14,-1.41 31.68,-3.43 43.67,-13.75 7.75,-6.31 14.16,-15.31 14.58,-25.61 -2.27,1.48 -3.99,3.57 -5.27,5.93 m -330.03,33.37 c -7.14,25.13 -14.74,50.28 -18.85,76.13 -1.6,5.76 5.53,7.53 9.71,8.51 25.27,4.15 51.27,4.22 76.58,0.33 4.65,-1.05 12.89,-2.2 11.36,-8.84 -3.88,-26.02 -12.06,-51.13 -18.6,-76.55 -2.76,0.94 -5.53,1.85 -8.31,2.7 2.49,20.04 9.09,39.54 9.34,59.85 0.27,3.39 -1.64,7.49 -5.67,6.66 -17.36,-0.83 -34.76,-0.5 -52.14,-0.69 -4.54,0.48 -5.16,-4.75 -4.9,-8.08 1.36,-19.39 6.65,-38.19 9.82,-57.31 -2.68,-1.2 -5.46,-2.15 -8.34,-2.71 m 244.11,13.54 c 5.74,8.83 10.87,18 14.36,27.98 8.12,0.82 15.31,5.33 21.4,10.49 -5.93,-3.21 -12.45,-6.26 -19.35,-4.27 5.35,20.66 5.33,42.17 1.39,63.06 12.31,-4.6 23.31,-11.9 34.27,-19.01 17.87,-11.92 35.81,-23.8 53.18,-36.42 -13.49,1.13 -26.12,-5.36 -34.9,-15.27 -17.89,-18.18 -43.88,-34.86 -70.35,-26.56 m -30.13,30.18 c 11.03,11.62 11.19,29.03 9.95,44.02 0.37,-14.19 -1.75,-30.05 -13.47,-39.62 -6.97,9.86 -14.66,19.19 -22.78,28.13 -6.18,6.38 -6.3,16.25 -4.74,24.46 4.31,15.15 11.24,29.54 13.91,45.16 3.38,17.4 2.22,35.38 -1.5,52.63 7.93,-6.93 14.69,-15.04 21.56,-22.98 16.57,-19.87 26.02,-44.71 31.12,-69.84 4.95,-23.35 2.83,-48.6 -8.05,-70.02 -2.8,-5.33 -6.23,-11.29 -12.48,-12.93 -4.45,7.03 -8.94,14.04 -13.52,20.99 m -395.36,63.21 c 2.34,-4.29 4.98,-8.54 6.17,-13.32 0.69,-5.05 0.02,-10.21 1.08,-15.22 2.71,-13.88 11.48,-25.68 14.29,-39.52 0.59,-2.13 -0.25,-4.21 -0.94,-6.18 -1,2.93 -1.76,5.94 -2.72,8.88 -0.24,-4.82 2.49,-10.56 -1.24,-14.62 -7.85,25.97 -22.75,51.91 -16.64,79.98 m 25.1,-66.68 c -4.29,15.28 -12.2,29.52 -14.14,45.43 7.65,-10.61 17.29,-20.54 30.34,-24.01 -5.73,-6.88 -10.85,-14.24 -16.2,-21.42 m -2.38,55.75 c -21.34,33.23 -19.01,76.81 -44.08,108.15 36.33,-3.86 73.06,-13.1 103.87,-33.4 12.98,-8.2 23.24,-21.99 23.87,-37.72 0.74,-4.62 -3.8,-7.09 -6.59,-9.87 -4.53,-3.8 -8.14,-8.68 -13.08,-11.97 -8.04,-3.22 -16.38,0.47 -23.28,4.58 5.07,-4.58 11.2,-7.69 17.14,-10.94 -7.05,-7.76 -14.74,-14.91 -21.64,-22.8 -2.18,-2.25 -4.5,-5.46 -8.06,-4.92 -12.13,0.3 -21.93,9.17 -28.15,18.89 m 245.87,75.67 c 6.36,9.7 8.26,21.75 6.56,33.12 0.2,-10.83 -2.48,-21.75 -10.16,-29.78 -9.4,7.96 -18.12,16.65 -27.08,25.08 5.56,9.2 11.17,18.61 13.79,29.15 2.47,8.98 2.02,18.38 1.47,27.58 25.53,-13.47 45.39,-38.73 48.1,-67.98 1.15,-13.43 -2.07,-26.96 -7.86,-39.05 -9.02,6.4 -16.73,14.39 -24.82,21.88 m 44.45,-0.36 c 1.44,13.82 -0.18,27.81 -4.45,41.01 17.67,-7.22 29.87,-23.92 35.47,-41.73 -9.65,5.07 -21.29,6.36 -31.02,0.72 m -278.54,49.61 c 0.48,-4.58 1.73,-9.01 2.87,-13.45 -8.53,7.73 -14.68,22.09 -5.77,31.84 12.61,12.48 33.47,10.17 48.05,2.49 5.07,-4.1 9.99,-10.68 8.36,-17.58 1.22,1.65 2.46,3.29 3.76,4.89 0.54,-3 2.3,-8.19 -2.29,-8.67 -8.81,-0.62 -15.59,7.91 -16.26,16.13 4.1,-2.22 6,-6.57 7.74,-10.64 2.83,2.19 3.31,6.27 0.41,8.64 -8.65,7.49 -21.73,12.1 -32.6,6.66 -6.17,-2.68 -9.02,-9.75 -8.42,-16.16 -0.29,-7.93 3.3,-15.1 5.8,-22.4 -5.85,4.62 -8.72,11.64 -11.65,18.25 m 92.5,25.24 c -12.03,9.42 -31.31,9.59 -42.47,-1.31 0.2,1.47 0.4,2.94 0.6,4.42 -1.92,-0.6 -4.85,-3.24 -5.94,-0.12 15.86,16.51 45.33,11.45 58.68,-5.78 5.03,2.71 -0.43,8.61 2.51,12.51 2.11,-4.78 5.67,-10.8 2.45,-15.85 -6.08,-2.43 -11.24,2.96 -15.83,6.13 m 19.52,17.59 c 4.13,0.64 8.68,0.97 12.29,-1.6 -4.16,-0.17 -8.4,0.02 -12.29,1.6 z" />
      <path
         style="opacity:1;fill:#030303"
         inkscape:connector-curvature="0"
         id="path149"
         d="m 210.18,387.55 c 11.92,5.63 23.99,10.96 35.95,16.49 6.01,1.99 11.29,-3.55 11.71,-9.28 4.64,8.45 -4.69,18.2 -13.34,14.88 -12.51,-5.5 -23.01,-14.58 -34.32,-22.09 z" />
      <path
         style="opacity:1;fill:#030303"
         inkscape:connector-curvature="0"
         id="path151"
         d="m 495.15,400.21 c 8.76,-3.71 17.23,-8.09 26.09,-11.56 -10.7,7.23 -20.77,15.83 -32.76,20.86 -8.58,3.53 -18.37,-6.68 -13.01,-14.91 0.79,3.09 1.11,7 4.47,8.46 5.1,3.38 10.58,-0.64 15.21,-2.85 z" />
      <path
         style="opacity:1;fill:#030303"
         inkscape:connector-curvature="0"
         id="path153"
         d="m 278.22,423.85 c -0.86,-5.82 3.76,-11.3 9.48,-12.09 -1.25,3.48 -2.86,6.81 -4.59,10.08 7.39,7.94 16.57,13.82 24.84,20.75 -6.48,-2.98 -12.64,-6.6 -19.24,-9.3 -4.25,-1.97 -9.37,-4.44 -10.49,-9.44 z" />
      <path
         style="opacity:1;fill:#030303"
         inkscape:connector-curvature="0"
         id="path155"
         d="m 445.66,412.03 c 8.17,0.42 12.95,12.39 5.59,17.23 -7.99,5.23 -17.17,8.43 -25.53,13.05 7.97,-6.91 16.94,-12.68 24.09,-20.52 -1.62,-3.15 -3.1,-6.38 -4.15,-9.76 z" />
    </g>
  </g>
</svg>
