<?xml version="1.0" encoding="UTF-8" standalone="no"?>
<svg
   xmlns:dc="http://purl.org/dc/elements/1.1/"
   xmlns:cc="http://creativecommons.org/ns#"
   xmlns:rdf="http://www.w3.org/1999/02/22-rdf-syntax-ns#"
   xmlns:svg="http://www.w3.org/2000/svg"
   xmlns="http://www.w3.org/2000/svg"
   xmlns:sodipodi="http://sodipodi.sourceforge.net/DTD/sodipodi-0.dtd"
   xmlns:inkscape="http://www.inkscape.org/namespaces/inkscape"
   width="721pt"
   height="750pt"
   viewBox="0 0 721 750"
   version="1.1"
   id="svg158"
   sodipodi:docname="locked_heart.svg"
   inkscape:version="0.92.4 (5da689c313, 2019-01-14)">
  <title
     id="title971">Locked Heart</title>
  <metadata
     id="metadata164">
    <rdf:RDF>
      <cc:Work
         rdf:about="">
        <dc:format>image/svg+xml</dc:format>
        <dc:type
           rdf:resource="http://purl.org/dc/dcmitype/StillImage" />
        <dc:title>Locked Heart</dc:title>
        <dc:source>http://www.supercoloring.com/coloring-pages/locked-heart</dc:source>
        <dc:subject>
          <rdf:Bag>
            <rdf:li>acb</rdf:li>
            <rdf:li>tattoo</rdf:li>
          </rdf:Bag>
        </dc:subject>
        <dc:date>2020-05-15</dc:date>
        <dc:creator>
          <cc:Agent>
            <dc:title>Public domain</dc:title>
          </cc:Agent>
        </dc:creator>
        <cc:license
           rdf:resource="http://creativecommons.org/licenses/by-sa/4.0/" />
      </cc:Work>
      <cc:License
         rdf:about="http://creativecommons.org/licenses/by-sa/4.0/">
        <cc:permits
           rdf:resource="http://creativecommons.org/ns#Reproduction" />
        <cc:permits
           rdf:resource="http://creativecommons.org/ns#Distribution" />
        <cc:requires
           rdf:resource="http://creativecommons.org/ns#Notice" />
        <cc:requires
           rdf:resource="http://creativecommons.org/ns#Attribution" />
        <cc:permits
           rdf:resource="http://creativecommons.org/ns#DerivativeWorks" />
        <cc:requires
           rdf:resource="http://creativecommons.org/ns#ShareAlike" />
      </cc:License>
    </rdf:RDF>
  </metadata>
  <defs
     id="defs162" />
  <sodipodi:namedview
     pagecolor="#ffffff"
     bordercolor="#666666"
     borderopacity="1"
     objecttolerance="10"
     gridtolerance="10"
     guidetolerance="10"
     inkscape:pageopacity="0"
     inkscape:pageshadow="2"
     inkscape:window-width="3840"
     inkscape:window-height="2004"
     id="namedview160"
     showgrid="false"
     inkscape:zoom="1.3350176"
     inkscape:cx="743.3804"
     inkscape:cy="314.36925"
     inkscape:window-x="-16"
     inkscape:window-y="-16"
     inkscape:window-maximized="1"
     inkscape:current-layer="#ffffffff" />
  <g
     id="#ffffffff">
    <path
       fill="#ffffff"
       opacity="1.00"
       d=" M 376.13 48.14 C 386.48 44.02 397.95 50.40 403.36 59.36 C 397.30 58.05 391.16 56.40 384.90 57.11 C 376.41 57.92 369.11 64.03 365.54 71.59 C 360.24 82.48 359.68 94.93 360.54 106.81 C 361.79 120.39 366.71 135.56 378.93 143.05 C 384.90 146.81 391.10 142.06 396.94 140.59 C 396.35 144.14 394.71 147.80 391.00 148.96 C 379.82 153.70 367.23 145.49 363.02 134.99 C 355.55 117.32 352.09 97.41 355.51 78.39 C 357.88 66.20 364.24 53.40 376.13 48.14 Z"
       id="path4" />
    <path
       fill="#ffffff"
       opacity="1.00"
       d=" M 299.44 96.42 C 314.17 82.21 332.17 69.80 352.91 67.10 C 351.64 73.26 350.25 79.41 349.38 85.64 C 338.02 91.36 328.08 100.08 321.53 111.03 C 329.72 103.88 338.43 96.72 349.27 94.16 C 349.48 100.83 350.67 107.42 351.19 114.06 C 351.62 115.96 349.23 116.33 348.03 117.02 C 323.50 125.78 305.78 147.48 296.22 171.07 C 294.49 177.63 286.61 177.17 281.23 177.87 C 281.95 166.14 286.57 155.23 289.31 143.93 C 283.54 154.55 280.57 166.38 276.67 177.75 C 269.23 177.71 261.89 175.76 255.32 172.27 C 262.07 143.35 278.51 117.23 299.44 96.42 Z"
       id="path6" />
    <path
       fill="#ffffff"
       opacity="1.00"
       d=" M 367.26 82.35 C 368.78 76.42 371.09 69.59 376.94 66.66 C 397.61 68.49 416.13 80.12 431.02 93.98 C 449.22 111.18 463.83 132.32 472.67 155.80 C 469.51 164.61 464.27 173.01 456.36 178.29 C 452.75 166.37 449.29 154.22 443.40 143.20 C 446.99 155.86 451.14 168.43 452.97 181.51 C 449.76 184.36 446.39 187.04 442.63 189.12 C 435.67 160.26 418.20 132.31 390.69 119.29 C 383.14 115.45 374.70 114.19 366.40 113.16 C 365.11 105.97 365.05 98.63 365.42 91.36 C 382.67 90.59 398.69 99.06 411.09 110.45 C 401.49 95.49 385.79 82.57 367.26 82.35 Z"
       id="path8" />
    <path
       fill="#ffffff"
       opacity="1.00"
       d=" M 471.26 118.25 C 480.30 118.43 485.07 127.34 485.60 135.35 C 487.22 157.53 476.46 179.48 459.49 193.50 C 450.50 201.02 439.96 207.70 428.05 208.93 C 424.34 209.29 419.00 208.15 418.22 203.83 C 417.90 197.04 422.77 191.71 426.21 186.37 C 426.93 187.62 427.64 188.88 428.37 190.14 C 425.88 193.96 423.67 198.24 424.38 202.97 C 432.27 203.39 438.99 198.27 445.39 194.34 C 457.61 185.44 470.66 175.42 475.50 160.44 C 479.03 146.44 479.09 130.86 471.26 118.25 Z"
       id="path10" />
    <path
       fill="#ffffff"
       opacity="1.00"
       d=" M 320.93 157.02 C 329.95 145.40 342.18 135.85 356.50 131.87 C 360.13 138.25 363.15 145.31 368.90 150.14 C 375.14 155.54 384.27 158.16 392.18 155.14 C 396.47 153.51 399.16 149.58 401.85 146.08 C 411.93 155.22 419.95 166.77 424.35 179.68 C 419.36 185.20 414.52 191.32 412.88 198.75 C 411.58 203.75 412.64 209.83 416.98 213.07 C 420.96 216.16 426.32 215.48 431.04 215.42 C 431.15 223.43 429.92 231.38 428.19 239.19 C 401.26 251.23 380.56 273.93 366.83 299.64 C 358.51 285.89 349.21 272.57 337.49 261.48 C 331.35 256.62 332.84 247.87 329.66 241.36 C 325.80 229.45 315.75 216.84 301.75 219.35 C 301.64 210.08 302.15 200.70 304.74 191.75 C 305.82 186.57 312.23 185.94 315.55 182.51 C 323.38 177.10 329.16 164.64 320.93 157.02 Z"
       id="path12" />
    <path
       fill="#ffffff"
       opacity="1.00"
       d=" M 374.56 131.86 C 379.75 132.62 385.17 134.07 388.93 137.99 C 383.19 139.54 377.91 136.26 374.56 131.86 Z"
       id="path14" />
    <path
       fill="#ffffff"
       opacity="1.00"
       d=" M 83.79 139.03 C 102.46 145.44 122.24 147.65 140.89 154.05 C 158.84 160.37 175.87 172.16 184.43 189.60 C 192.95 207.03 192.87 227.09 191.55 246.00 C 189.27 257.33 186.96 270.09 177.30 277.64 C 175.21 260.06 167.32 243.83 158.13 228.94 C 153.54 221.68 149.13 214.20 143.15 207.97 C 155.21 225.20 165.05 244.51 168.86 265.34 C 157.76 258.46 143.23 256.20 131.29 262.29 C 124.80 265.04 121.38 271.70 119.63 278.17 C 109.08 266.22 99.68 252.33 97.76 236.12 C 95.74 215.03 99.43 193.81 97.28 172.71 C 95.85 160.50 90.15 149.36 83.79 139.03 Z"
       id="path16" />
    <path
       fill="#ffffff"
       opacity="1.00"
       d=" M 236.46 171.79 C 236.25 165.30 240.91 159.73 246.05 156.29 C 246.38 160.69 245.43 165.43 247.39 169.55 C 251.08 176.38 258.84 179.43 266.00 181.08 C 283.89 185.30 307.07 180.34 315.05 161.97 C 317.22 162.10 319.38 162.25 321.55 162.46 C 322.20 170.00 316.95 176.27 310.70 179.72 C 291.74 190.69 267.08 192.76 247.26 182.80 C 242.75 180.37 237.68 177.11 236.46 171.79 Z"
       id="path18" />
    <path
       fill="#ffffff"
       opacity="1.00"
       d=" M 475.53 185.73 C 476.92 183.81 478.32 181.91 479.75 180.02 C 483.01 197.61 484.97 215.49 484.60 233.40 C 483.64 233.39 481.74 233.37 480.78 233.36 C 482.02 217.25 478.79 201.40 475.53 185.73 Z"
       id="path20" />
    <path
       fill="#ffffff"
       opacity="1.00"
       d=" M 462.06 199.91 C 466.24 195.98 470.05 191.65 474.57 188.08 C 476.96 202.46 476.79 217.25 474.50 231.63 C 471.41 232.26 468.26 232.03 465.15 231.76 C 465.41 221.05 463.31 210.50 462.06 199.91 Z"
       id="path22" />
    <path
       fill="#ffffff"
       opacity="1.00"
       d=" M 251.23 192.19 C 252.65 192.25 254.08 192.31 255.51 192.39 C 253.81 205.88 251.34 219.30 252.24 232.98 C 251.36 233.04 249.61 233.15 248.73 233.20 C 247.89 219.49 249.47 205.78 251.23 192.19 Z"
       id="path24" />
    <path
       fill="#ffffff"
       opacity="1.00"
       d=" M 257.61 193.83 C 262.52 194.28 267.38 195.17 272.28 195.76 C 269.29 207.61 268.22 219.83 267.59 232.00 C 264.52 232.00 261.45 232.00 258.38 231.98 C 256.71 219.35 256.56 206.53 257.61 193.83 Z"
       id="path26" />
    <path
       fill="#ffffff"
       opacity="1.00"
       d=" M 278.38 195.63 C 282.03 194.88 285.73 194.38 289.44 194.02 C 287.45 207.19 287.30 220.63 289.14 233.82 C 285.59 233.48 282.05 233.08 278.51 232.66 C 276.50 220.41 276.98 207.92 278.38 195.63 Z"
       id="path28" />
    <path
       fill="#ffffff"
       opacity="1.00"
       d=" M 445.92 210.86 C 448.68 208.42 452.16 207.00 455.40 205.31 C 455.85 214.32 455.98 223.41 454.40 232.33 C 450.89 233.06 447.35 233.61 443.79 233.98 C 445.13 226.34 444.66 218.47 445.92 210.86 Z"
       id="path30" />
    <path
       fill="#ffffff"
       opacity="1.00"
       d=" M 498.31 212.58 C 515.62 202.83 538.40 214.46 544.72 232.18 C 544.89 234.88 544.11 237.50 543.63 240.13 C 537.75 232.68 531.45 224.73 521.89 222.02 C 514.61 219.55 506.79 220.75 499.55 222.72 C 505.20 217.60 512.58 215.26 520.06 214.65 C 512.53 212.33 504.62 214.74 498.37 219.13 C 498.35 216.95 498.32 214.77 498.31 212.58 Z"
       id="path32" />
    <path
       fill="#ffffff"
       opacity="1.00"
       d=" M 565.50 220.51 C 581.83 207.23 604.29 208.58 624.07 209.18 C 643.36 210.82 662.81 211.97 682.12 209.85 C 670.91 224.21 659.58 238.57 650.37 254.34 C 641.90 267.88 635.21 284.74 619.61 291.55 C 617.27 293.04 614.61 293.99 611.87 293.01 C 614.79 282.96 613.05 272.32 606.53 264.07 C 611.65 257.51 618.88 253.39 626.38 250.09 C 617.49 252.21 608.82 255.88 601.80 261.83 C 588.60 256.70 571.60 257.59 561.76 268.79 C 557.16 273.81 560.74 280.50 562.52 285.90 C 558.16 282.31 554.75 277.44 554.49 271.62 C 552.05 254.33 551.51 233.32 565.50 220.51 Z"
       id="path34" />
    <path
       fill="#ffffff"
       opacity="1.00"
       d=" M 302.59 225.45 C 311.50 224.13 318.96 231.01 322.36 238.63 C 328.05 250.93 331.13 265.79 325.76 278.73 C 318.94 291.97 306.05 302.75 291.03 304.81 C 285.30 305.77 279.43 303.22 276.00 298.59 C 280.57 300.08 285.00 302.80 290.00 302.32 C 297.16 301.76 303.25 297.05 307.55 291.56 C 317.06 279.26 320.40 261.93 314.78 247.26 C 312.76 241.66 307.48 238.45 303.08 234.89 C 307.20 230.74 312.52 234.35 316.56 236.56 C 313.15 232.60 308.20 230.61 303.17 229.65 C 302.97 228.25 302.78 226.85 302.59 225.45 Z"
       id="path36" />
    <path
       fill="#ffffff"
       opacity="1.00"
       d=" M 501.97 227.94 C 517.45 220.44 536.18 231.60 542.30 246.43 C 542.98 252.63 542.85 258.91 543.85 265.09 C 531.00 252.13 514.93 242.99 497.93 236.63 C 498.45 233.45 498.19 229.12 501.97 227.94 Z"
       id="path38" />
    <path
       fill="#ffffff"
       opacity="1.00"
       d=" M 662.65 255.97 C 664.61 252.93 665.84 249.04 669.11 247.10 C 678.43 245.09 687.48 250.86 692.86 258.11 C 707.62 277.53 712.36 307.75 695.40 327.34 C 694.62 326.23 693.87 325.13 693.11 324.04 C 697.63 317.27 701.52 309.85 702.59 301.67 C 701.14 304.39 699.86 307.20 698.29 309.85 C 697.77 294.73 697.07 278.24 687.14 265.88 C 681.44 258.42 671.82 255.14 662.65 255.97 Z"
       id="path40" />
    <path
       fill="#ffffff"
       opacity="1.00"
       d=" M 185.28 293.25 C 204.51 265.52 238.01 247.41 272.05 249.34 C 286.19 249.52 299.59 254.82 311.90 261.39 C 312.09 266.88 310.82 272.26 309.11 277.44 C 301.51 276.04 294.52 272.41 286.85 271.21 C 255.70 264.19 221.16 277.52 203.46 304.23 C 197.29 300.76 191.32 296.95 185.28 293.25 Z"
       id="path42" />
    <path
       fill="#ffffff"
       opacity="1.00"
       d=" M 413.69 266.70 C 429.46 254.85 449.22 248.20 469.02 249.33 C 500.60 249.89 529.27 268.25 548.07 292.80 C 542.14 296.80 536.00 300.50 529.89 304.22 C 526.08 300.28 523.17 295.57 519.14 291.84 C 500.27 273.38 471.89 265.52 446.17 271.28 C 420.25 276.33 394.62 292.13 384.33 317.33 C 377.84 333.10 378.08 350.69 380.70 367.27 C 371.81 363.33 361.42 363.20 352.55 367.24 C 354.53 351.35 355.33 334.65 349.51 319.41 C 345.13 307.37 336.77 297.19 326.97 289.10 C 328.86 285.24 330.70 281.35 332.75 277.56 C 343.58 287.70 354.83 298.20 360.99 311.99 C 362.72 315.66 363.38 320.47 367.48 322.36 C 370.93 315.78 372.85 308.40 377.34 302.38 C 387.36 288.56 400.19 277.05 413.69 266.70 Z"
       id="path44" />
    <path
       fill="#ffffff"
       opacity="1.00"
       d=" M 52.16 261.12 C 65.85 251.14 88.19 254.23 95.87 270.18 C 101.29 279.70 109.80 286.79 117.94 293.89 C 115.91 296.81 113.83 299.71 111.76 302.61 C 102.95 300.61 93.76 302.65 85.69 306.33 C 93.60 304.17 102.00 304.78 109.16 308.95 C 107.62 321.85 109.64 334.87 115.08 346.66 C 106.96 351.56 97.21 350.06 88.63 347.35 C 75.19 343.20 62.34 337.17 50.56 329.49 C 42.55 324.55 34.80 318.56 25.42 316.51 C 20.05 315.21 14.84 317.69 9.89 319.44 C 19.04 297.11 31.34 274.53 52.16 261.12 Z"
       id="path46" />
    <path
       fill="#ffffff"
       opacity="1.00"
       d=" M 660.65 260.52 C 664.44 259.96 668.30 260.13 672.07 260.89 C 667.30 262.31 662.54 263.70 657.77 265.10 C 658.71 263.56 659.67 262.04 660.65 260.52 Z"
       id="path48" />
    <path
       fill="#ffffff"
       opacity="1.00"
       d=" M 646.13 285.18 C 651.89 273.95 663.43 265.71 676.07 264.54 C 679.18 264.00 681.45 266.61 683.32 268.68 C 689.52 275.97 691.95 285.61 693.10 294.90 C 693.91 302.67 694.29 310.88 691.04 318.19 C 682.42 300.94 666.55 285.39 646.13 285.18 Z"
       id="path50" />
    <path
       fill="#ffffff"
       opacity="1.00"
       d=" M 141.44 270.68 C 148.71 269.77 157.17 270.02 162.89 275.23 C 162.97 275.89 163.15 277.21 163.23 277.87 C 154.58 280.46 148.26 286.96 145.18 295.35 C 141.00 291.26 135.92 287.10 137.93 280.50 C 135.85 284.19 134.64 288.26 133.71 292.38 C 128.34 290.47 128.51 283.91 129.42 279.30 C 130.50 273.83 136.47 271.34 141.44 270.68 Z"
       id="path52" />
    <path
       fill="#ffffff"
       opacity="1.00"
       d=" M 569.06 277.25 C 574.16 268.87 586.89 269.45 595.42 271.60 C 604.81 273.21 607.79 287.76 599.63 292.62 C 598.52 288.08 596.95 283.64 594.39 279.71 C 597.99 286.54 592.20 291.51 587.39 295.29 C 585.03 286.15 577.58 280.34 569.06 277.25 Z"
       id="path54" />
    <path
       fill="#ffffff"
       opacity="1.00"
       d=" M 208.71 307.57 C 224.69 285.11 253.52 272.87 280.78 277.08 C 272.60 282.27 267.64 292.83 271.84 302.14 C 274.89 308.48 282.10 312.07 289.01 311.64 C 302.54 311.61 314.02 303.00 323.10 293.77 C 332.05 300.62 339.72 309.46 344.04 319.96 C 350.19 334.80 350.05 351.35 347.91 367.02 C 346.94 373.97 341.67 379.11 338.66 385.19 C 318.89 365.13 291.28 354.39 263.99 349.51 C 255.45 347.03 247.54 352.32 243.69 359.70 C 244.41 352.80 244.25 345.48 240.73 339.29 C 234.04 325.32 220.96 316.29 208.71 307.57 Z"
       id="path56" />
    <path
       fill="#ffffff"
       opacity="1.00"
       d=" M 393.22 312.28 C 408.92 287.25 440.19 274.96 468.95 276.74 C 490.48 278.45 511.27 289.70 523.79 307.43 C 513.11 315.73 501.25 323.34 494.23 335.29 C 489.71 341.86 488.51 349.97 488.49 357.77 C 484.43 350.63 476.10 347.24 468.16 349.40 C 441.24 354.54 413.91 364.98 394.45 384.93 C 391.37 378.62 385.69 373.35 385.16 366.01 C 382.79 347.92 383.21 328.19 393.22 312.28 Z"
       id="path58" />
    <path
       fill="#ffffff"
       opacity="1.00"
       d=" M 279.50 281.45 C 285.98 278.89 290.21 285.29 287.95 291.12 C 285.21 288.98 282.46 286.87 279.71 284.74 C 279.66 283.92 279.56 282.27 279.50 281.45 Z"
       id="path60" />
    <path
       fill="#ffffff"
       opacity="1.00"
       d=" M 281.94 295.14 C 280.02 293.56 279.43 290.84 282.04 289.55 C 283.70 291.21 284.30 293.77 281.94 295.14 Z"
       id="path62" />
    <path
       fill="#ffffff"
       opacity="1.00"
       d=" M 532.01 315.01 C 545.60 306.91 558.74 297.28 573.83 292.24 C 579.31 298.93 581.52 308.96 577.98 317.00 C 571.71 324.74 563.33 330.43 555.58 336.58 C 551.62 340.37 546.01 336.81 541.37 338.50 C 525.82 343.38 513.25 354.23 498.86 361.48 C 501.04 352.72 506.98 345.67 513.50 339.73 C 507.91 342.48 502.80 346.04 497.55 349.36 C 503.28 333.31 518.53 323.97 532.01 315.01 Z"
       id="path64" />
    <path
       fill="#ffffff"
       opacity="1.00"
       d=" M 155.08 316.89 C 151.69 308.93 153.65 299.13 158.98 292.42 C 162.08 292.65 164.93 293.93 167.62 295.41 C 184.07 304.20 200.13 313.77 215.20 324.77 C 223.72 331.09 231.79 338.89 235.23 349.19 C 229.69 345.82 224.40 342.02 218.63 339.03 C 225.55 345.00 231.97 352.22 233.90 361.44 C 219.97 354.02 207.39 343.88 192.37 338.66 C 187.53 336.59 181.64 340.51 177.51 336.53 C 169.73 330.39 161.21 324.78 155.08 316.89 Z"
       id="path66" />
    <path
       fill="#ffffff"
       opacity="1.00"
       d=" M 622.17 304.44 C 632.15 301.23 643.03 298.48 653.39 301.62 C 667.66 305.50 677.06 318.69 682.15 331.86 C 695.49 366.44 690.53 404.62 701.10 439.83 C 691.48 431.15 680.56 423.36 667.83 420.14 C 655.49 417.05 642.16 416.03 631.36 408.68 C 621.15 401.93 614.57 391.36 606.76 382.21 C 604.85 379.15 600.70 375.31 603.63 371.64 C 611.69 360.40 617.96 347.94 622.32 334.83 C 634.08 334.67 643.86 342.05 649.88 351.64 C 643.98 341.39 638.15 326.67 624.39 326.13 C 624.63 318.83 623.92 311.53 622.17 304.44 Z"
       id="path68" />
    <path
       fill="#ffffff"
       opacity="1.00"
       d=" M 118.78 313.70 C 119.40 308.70 122.52 304.35 127.02 302.13 C 125.08 309.51 125.16 317.21 126.54 324.68 C 127.80 319.06 127.72 312.44 132.08 308.12 C 134.22 305.86 138.84 306.24 139.12 309.86 C 143.58 329.87 157.50 345.61 169.43 361.57 C 170.88 366.78 169.61 373.01 173.49 377.45 C 182.64 388.39 195.14 395.73 206.63 403.92 C 204.60 405.16 202.58 407.21 199.99 406.73 C 191.38 405.99 184.17 400.82 176.56 397.26 C 181.52 401.43 187.14 404.72 192.18 408.78 C 195.52 411.14 199.21 414.42 203.60 413.58 C 207.32 412.09 209.59 408.50 212.76 406.21 C 211.96 412.47 205.85 419.59 199.02 417.08 C 168.85 405.47 145.91 380.55 129.83 353.18 C 123.25 341.17 116.49 327.82 118.78 313.70 Z"
       id="path70" />
    <path
       fill="#ffffff"
       opacity="1.00"
       d=" M 606.15 302.22 C 614.27 305.84 615.33 316.03 614.50 323.81 C 612.64 337.23 605.77 349.33 598.69 360.65 C 582.68 384.97 561.09 407.08 533.26 417.28 C 526.64 419.10 521.13 412.27 520.52 406.24 C 524.50 409.48 528.77 416.29 534.69 412.72 C 542.36 408.06 549.51 402.48 556.64 397.03 C 547.47 401.21 536.99 410.22 526.60 404.80 C 537.14 394.66 551.65 388.59 560.31 376.34 C 563.56 371.85 561.79 365.86 564.04 361.06 C 575.53 345.37 589.41 330.15 593.57 310.56 C 593.74 307.07 597.69 305.43 600.38 307.62 C 605.24 311.91 605.20 318.96 606.50 324.83 C 607.99 317.36 607.99 309.63 606.15 302.22 Z"
       id="path72" />
    <path
       fill="#ffffff"
       opacity="1.00"
       d=" M 162.38 335.82 C 167.10 338.58 171.44 341.93 175.61 345.46 C 174.78 346.90 173.97 348.35 173.16 349.81 C 169.09 345.54 165.66 340.72 162.38 335.82 Z"
       id="path74" />
    <path
       fill="#ffffff"
       opacity="1.00"
       d=" M 557.57 345.23 C 561.63 342.00 565.70 338.77 570.15 336.09 C 567.39 341.07 563.81 345.51 560.15 349.84 C 559.28 348.30 558.43 346.76 557.57 345.23 Z"
       id="path76" />
    <path
       fill="#ffffff"
       opacity="1.00"
       d=" M 188.37 348.51 C 193.98 346.95 198.96 350.87 203.61 353.39 C 221.52 364.65 239.22 376.26 256.33 388.70 C 259.49 391.13 263.67 394.59 262.30 399.09 C 260.59 404.29 257.63 410.35 251.85 411.79 C 246.40 412.15 241.32 409.47 236.30 407.70 C 218.99 400.10 203.28 389.21 188.46 377.57 C 184.83 374.11 178.86 370.92 179.66 365.06 C 180.03 358.85 181.32 350.45 188.37 348.51 M 210.18 387.55 C 221.49 395.06 231.99 404.14 244.50 409.64 C 253.15 412.96 262.48 403.21 257.84 394.76 C 257.42 400.49 252.14 406.03 246.13 404.04 C 234.17 398.51 222.10 393.18 210.18 387.55 Z"
       id="path78" />
    <path
       fill="#ffffff"
       opacity="1.00"
       d=" M 539.39 348.48 C 544.87 346.93 550.67 350.72 551.89 356.18 C 552.96 361.25 555.40 367.83 550.88 371.91 C 545.03 377.81 538.21 382.67 531.43 387.43 C 517.33 397.01 502.89 406.89 486.18 411.25 C 475.32 415.42 464.83 396.42 474.99 390.06 C 488.36 379.85 502.61 370.89 516.54 361.49 C 524.01 356.95 531.17 351.58 539.39 348.48 M 495.15 400.21 C 490.52 402.42 485.04 406.44 479.94 403.06 C 476.58 401.60 476.26 397.69 475.47 394.60 C 470.11 402.83 479.90 413.04 488.48 409.51 C 500.47 404.48 510.54 395.88 521.24 388.65 C 512.38 392.12 503.91 396.50 495.15 400.21 Z"
       id="path80" />
    <path
       fill="#ffffff"
       opacity="1.00"
       d=" M 97.58 415.35 C 78.74 403.05 72.71 378.49 75.52 357.26 C 78.62 358.00 81.63 359.06 84.53 360.36 C 81.51 373.78 82.41 389.93 93.23 399.76 C 98.28 403.32 96.95 410.02 97.58 415.35 Z"
       id="path82" />
    <path
       fill="#ffffff"
       opacity="1.00"
       d=" M 106.71 421.32 C 99.40 400.01 108.10 376.62 120.51 359.00 C 121.84 361.07 123.21 363.12 124.63 365.13 C 115.14 382.97 110.79 405.39 119.77 424.28 C 124.23 434.01 133.96 439.84 144.08 442.18 C 144.81 444.64 145.50 447.12 146.15 449.62 C 129.37 447.99 112.83 437.40 106.71 421.32 Z"
       id="path84" />
    <path
       fill="#ffffff"
       opacity="1.00"
       d=" M 250.56 372.23 C 252.73 368.00 253.51 359.89 260.02 360.99 C 277.97 362.95 295.16 369.54 311.04 377.93 C 319.51 382.71 328.04 388.23 333.57 396.44 C 337.18 401.69 336.21 408.40 335.22 414.30 C 333.80 413.54 332.39 412.77 330.99 411.99 C 332.21 402.44 325.21 395.69 317.52 391.50 C 322.27 395.70 327.61 401.10 325.15 408.08 C 314.79 403.57 304.64 397.43 293.02 397.13 C 287.52 397.30 283.10 393.78 278.29 391.73 C 274.55 389.97 270.18 388.95 267.60 385.44 C 262.97 379.80 256.38 376.43 250.56 372.23 Z"
       id="path86" />
    <path
       fill="#ffffff"
       opacity="1.00"
       d=" M 462.60 362.60 C 467.22 361.65 471.99 360.43 476.73 361.22 C 479.95 363.98 480.66 368.43 482.16 372.19 C 475.20 377.18 468.11 381.97 462.31 388.32 C 454.15 391.24 446.90 397.34 437.87 397.28 C 427.10 398.25 417.54 403.74 407.87 408.11 C 405.51 401.90 409.99 396.97 413.82 392.68 C 406.54 396.55 400.27 403.49 402.62 412.34 C 400.92 412.90 399.23 413.47 397.54 414.03 C 397.21 408.62 396.05 402.74 398.75 397.72 C 402.06 391.30 408.10 386.96 413.87 382.90 C 428.64 373.13 445.39 366.58 462.60 362.60 Z"
       id="path88" />
    <path
       fill="#ffffff"
       opacity="1.00"
       d=" M 87.10 361.69 C 94.36 362.49 101.59 364.17 108.95 363.54 C 102.89 373.90 99.51 385.53 96.98 397.19 C 86.72 388.60 84.91 374.17 87.10 361.69 Z"
       id="path90" />
    <path
       fill="#ffffff"
       opacity="1.00"
       d=" M 126.56 368.58 C 130.83 373.50 136.30 378.87 135.45 385.99 C 134.61 403.07 138.40 419.84 142.16 436.38 C 132.36 433.98 124.04 426.61 121.16 416.85 C 115.91 400.92 119.33 383.33 126.56 368.58 Z"
       id="path92" />
    <path
       fill="#ffffff"
       opacity="1.00"
       d=" M 343.65 385.61 C 348.21 376.17 358.01 368.13 369.10 370.06 C 377.88 370.20 384.36 377.41 388.73 384.28 C 391.96 389.31 389.07 395.15 387.61 400.24 C 385.28 394.48 382.38 388.52 376.98 385.04 C 370.19 380.42 360.61 381.19 354.29 386.29 C 349.91 389.66 347.80 394.94 345.30 399.69 C 343.91 395.20 341.74 390.28 343.65 385.61 Z"
       id="path94" />
    <path
       fill="#ffffff"
       opacity="1.00"
       d=" M 597.89 394.31 C 603.29 400.60 607.98 407.44 612.86 414.14 C 609.16 421.34 601.20 424.50 593.59 425.50 C 595.40 415.16 597.01 404.77 597.89 394.31 Z"
       id="path96" />
    <path
       fill="#ffffff"
       opacity="1.00"
       d=" M 149.81 397.31 C 156.94 403.49 163.51 410.43 171.69 415.28 C 174.28 417.28 178.23 418.46 178.97 422.04 C 182.62 434.55 184.98 447.53 190.62 459.37 C 206.70 495.44 234.01 524.77 261.54 552.44 C 295.89 586.06 331.24 618.63 366.29 651.52 C 393.31 627.20 419.57 601.99 446.03 577.05 C 470.70 553.38 495.60 529.69 516.38 502.44 C 527.81 487.69 537.67 471.53 543.96 453.90 C 547.31 443.79 550.26 433.55 553.41 423.38 C 554.60 418.03 560.45 416.35 564.29 413.30 C 571.31 408.83 576.91 402.60 583.31 397.35 C 580.83 428.76 569.56 458.95 554.42 486.37 C 542.91 507.11 527.88 525.58 512.37 543.41 C 467.57 592.60 414.98 633.66 366.31 678.79 C 332.61 647.05 296.87 617.55 262.92 586.10 C 229.17 553.85 195.63 519.89 174.08 477.96 C 161.44 452.80 151.77 425.56 149.81 397.31 Z"
       id="path98" />
    <path
       fill="#ffffff"
       opacity="1.00"
       d=" M 269.17 408.86 C 269.61 405.19 271.52 401.81 272.62 398.29 C 274.01 398.99 275.40 399.71 276.79 400.43 C 274.06 403.05 271.91 406.40 269.17 408.86 Z"
       id="path100" />
    <path
       fill="#ffffff"
       opacity="1.00"
       d=" M 456.44 400.66 C 457.91 399.90 459.40 399.14 460.88 398.39 C 461.26 400.73 461.61 403.07 461.89 405.43 C 460.02 403.90 458.21 402.30 456.44 400.66 Z"
       id="path102" />
    <path
       fill="#ffffff"
       opacity="1.00"
       d=" M 285.33 409.38 C 294.14 407.12 303.27 410.17 311.34 413.64 C 326.08 420.21 339.13 429.81 352.84 438.19 C 355.92 440.09 359.06 442.97 358.49 446.98 C 357.52 454.66 353.88 462.34 348.03 467.49 C 345.08 467.76 342.34 466.38 339.71 465.27 C 319.60 456.07 300.39 445.04 281.53 433.52 C 277.04 430.83 273.55 425.46 274.87 420.10 C 276.62 415.28 280.47 411.12 285.33 409.38 M 278.22 423.85 C 279.34 428.85 284.46 431.32 288.71 433.29 C 295.31 435.99 301.47 439.61 307.95 442.59 C 299.68 435.66 290.50 429.78 283.11 421.84 C 284.84 418.57 286.45 415.24 287.70 411.76 C 281.98 412.55 277.36 418.03 278.22 423.85 Z"
       id="path104" />
    <path
       fill="#ffffff"
       opacity="1.00"
       d=" M 434.33 409.41 C 441.81 407.51 451.03 408.45 455.72 415.32 C 460.69 421.05 457.80 430.03 451.56 433.51 C 432.21 445.22 412.60 456.66 391.90 465.85 C 389.19 466.92 385.32 468.89 383.11 465.89 C 378.44 460.29 374.82 453.36 374.50 445.96 C 374.60 440.96 379.66 438.67 383.24 436.26 C 399.59 426.21 415.35 414.01 434.33 409.41 M 445.66 412.03 C 446.71 415.41 448.19 418.64 449.81 421.79 C 442.66 429.63 433.69 435.40 425.72 442.31 C 434.08 437.69 443.26 434.49 451.25 429.26 C 458.61 424.42 453.83 412.45 445.66 412.03 Z"
       id="path106" />
    <path
       fill="#ffffff"
       opacity="1.00"
       d=" M 258.68 421.82 C 261.93 418.48 265.00 414.98 267.74 411.21 C 265.58 415.89 264.58 420.95 264.44 426.09 C 262.52 424.66 260.60 423.24 258.68 421.82 Z"
       id="path108" />
    <path
       fill="#ffffff"
       opacity="1.00"
       d=" M 208.96 427.89 C 215.48 425.21 217.70 418.20 221.57 412.98 C 222.98 413.81 224.39 414.65 225.81 415.50 C 225.32 423.63 223.43 432.30 226.95 440.04 C 232.05 451.10 242.24 458.66 252.63 464.40 C 267.00 472.50 281.10 481.31 296.43 487.50 C 305.38 491.35 316.82 490.03 323.31 482.31 C 326.38 479.47 327.16 474.13 331.74 473.21 C 331.09 480.48 328.19 487.23 326.28 494.20 C 320.57 514.20 314.76 534.32 312.52 555.07 C 311.70 560.12 316.00 564.11 320.34 565.70 C 328.05 568.52 336.41 568.39 344.48 569.29 C 365.64 569.94 387.04 570.67 407.99 567.02 C 413.56 565.97 420.73 562.66 420.59 556.04 C 417.71 528.00 408.44 501.20 400.95 474.18 C 401.68 474.02 403.14 473.70 403.87 473.54 C 408.41 484.30 420.03 492.41 431.96 488.94 C 448.42 483.81 462.89 474.04 477.93 465.87 C 488.99 459.90 499.93 452.21 505.82 440.76 C 509.71 432.86 508.14 423.82 506.91 415.48 C 508.61 414.64 510.30 413.79 512.00 412.93 C 515.00 419.39 518.92 426.46 526.14 428.83 C 532.18 431.14 538.24 427.78 543.99 426.18 C 541.14 455.54 525.04 481.47 506.84 503.89 C 487.93 527.46 466.01 548.36 444.28 569.29 C 418.63 593.74 392.59 617.77 366.78 642.05 C 342.52 620.47 319.17 597.77 295.42 575.59 C 270.30 551.71 245.04 527.76 223.47 500.55 C 206.63 478.90 191.49 454.13 189.22 426.18 C 195.51 428.17 202.58 431.59 208.96 427.89 Z"
       id="path110" />
    <path
       fill="#ffffff"
       opacity="1.00"
       d=" M 467.17 414.71 C 469.65 416.99 472.00 419.41 474.31 421.87 C 472.59 422.94 470.86 424.00 469.13 425.06 C 468.46 421.61 467.79 418.16 467.17 414.71 Z"
       id="path112" />
    <path
       fill="#ffffff"
       opacity="1.00"
       d=" M 592.02 430.33 C 601.30 428.84 610.86 424.94 614.94 415.80 C 616.86 417.30 618.75 418.83 620.64 420.39 C 613.34 429.04 602.04 432.67 591.28 434.67 C 591.52 433.22 591.76 431.77 592.02 430.33 Z"
       id="path114" />
    <path
       fill="#ffffff"
       opacity="1.00"
       d=" M 235.21 420.50 C 239.66 420.89 244.02 422.02 248.08 423.88 C 254.54 426.42 256.83 434.08 263.33 436.65 C 276.82 443.11 289.13 451.61 302.22 458.79 C 305.09 460.50 309.02 461.48 309.80 465.24 C 298.63 467.19 289.09 459.94 279.29 455.97 C 287.34 461.17 294.94 467.26 303.53 471.51 C 308.19 473.94 312.10 470.06 314.86 466.75 C 316.41 466.92 317.96 467.11 319.51 467.30 C 318.98 473.82 312.18 478.29 305.96 477.62 C 300.52 477.14 295.54 474.63 290.68 472.31 C 278.23 465.96 266.09 459.02 254.02 451.97 C 247.27 448.00 240.86 443.03 236.59 436.37 C 233.64 431.62 234.86 425.75 235.21 420.50 Z"
       id="path116" />
    <path
       fill="#ffffff"
       opacity="1.00"
       d=" M 483.00 425.00 C 487.45 422.16 492.73 421.11 497.92 420.71 C 498.37 425.93 499.45 431.70 496.42 436.39 C 490.37 446.20 479.68 451.49 470.07 457.15 C 457.21 464.06 444.85 472.40 430.89 476.95 C 423.63 479.66 415.69 475.38 412.98 468.36 C 414.52 467.58 416.07 466.80 417.62 466.03 C 420.53 469.94 425.16 474.31 430.34 471.27 C 438.53 466.74 445.96 460.89 453.94 455.95 C 445.34 459.34 437.36 464.79 427.98 465.85 C 426.03 466.08 424.54 464.53 422.96 463.68 C 438.51 454.21 454.10 444.70 470.27 436.27 C 475.57 433.74 477.98 427.88 483.00 425.00 Z"
       id="path118" />
    <path
       fill="#ffffff"
       opacity="1.00"
       d=" M 598.81 438.71 C 608.71 436.73 617.52 431.22 624.16 423.68 C 630.69 427.20 637.36 430.59 644.57 432.49 C 651.59 434.61 659.18 434.49 665.92 437.62 C 658.69 449.71 645.05 455.57 632.01 459.09 C 615.23 464.15 597.42 462.38 580.46 466.48 C 583.18 459.13 585.91 451.78 588.38 444.34 C 589.51 439.74 595.19 440.11 598.81 438.71 Z"
       id="path120" />
    <path
       fill="#ffffff"
       opacity="1.00"
       d=" M 666.54 443.57 C 667.82 441.21 669.54 439.12 671.81 437.64 C 671.39 447.94 664.98 456.94 657.23 463.25 C 645.24 473.57 628.70 475.59 613.56 477.00 C 618.64 473.05 625.33 473.12 631.11 470.88 C 619.75 472.01 608.46 474.10 597.00 473.99 C 589.33 473.86 582.11 476.73 574.76 478.47 C 576.88 472.46 582.75 469.14 588.93 469.06 C 605.49 468.39 622.39 468.40 638.36 463.34 C 649.46 459.97 660.58 453.91 666.54 443.57 Z"
       id="path122" />
    <path
       fill="#ffffff"
       opacity="1.00"
       d=" M 336.51 476.94 C 339.39 477.50 342.17 478.45 344.85 479.65 C 341.68 498.77 336.39 517.57 335.03 536.96 C 334.77 540.29 335.39 545.52 339.93 545.04 C 357.31 545.23 374.71 544.90 392.07 545.73 C 396.10 546.56 398.01 542.46 397.74 539.07 C 397.49 518.76 390.89 499.26 388.40 479.22 C 391.18 478.37 393.95 477.46 396.71 476.52 C 403.25 501.94 411.43 527.05 415.31 553.07 C 416.84 559.71 408.60 560.86 403.95 561.91 C 378.64 565.80 352.64 565.73 327.37 561.58 C 323.19 560.60 316.06 558.83 317.66 553.07 C 321.77 527.22 329.37 502.07 336.51 476.94 Z"
       id="path124" />
    <path
       fill="#ffffff"
       opacity="1.00"
       d=" M 580.62 490.48 C 607.09 482.18 633.08 498.86 650.97 517.04 C 659.75 526.95 672.38 533.44 685.87 532.31 C 668.50 544.93 650.56 556.81 632.69 568.73 C 621.73 575.84 610.73 583.14 598.42 587.74 C 602.36 566.85 602.38 545.34 597.03 524.68 C 603.93 522.69 610.45 525.74 616.38 528.95 C 610.29 523.79 603.10 519.28 594.98 518.46 C 591.49 508.48 586.36 499.31 580.62 490.48 Z"
       id="path126" />
    <path
       fill="#ffffff"
       opacity="1.00"
       d=" M 550.49 520.66 C 555.07 513.71 559.56 506.70 564.01 499.67 C 570.26 501.31 573.69 507.27 576.49 512.60 C 587.37 534.02 589.49 559.27 584.54 582.62 C 579.44 607.75 569.99 632.59 553.42 652.46 C 546.55 660.40 539.79 668.51 531.86 675.44 C 535.58 658.19 536.74 640.21 533.36 622.81 C 530.69 607.19 523.76 592.80 519.45 577.65 C 517.89 569.44 518.01 559.57 524.19 553.19 C 532.31 544.25 540.00 534.92 546.97 525.06 C 558.69 534.63 560.81 550.49 560.44 564.68 C 561.68 549.69 561.52 532.28 550.49 520.66 Z"
       id="path128" />
    <path
       fill="#ffffff"
       opacity="1.00"
       d=" M 155.13 583.87 C 149.02 555.80 163.92 529.86 171.77 503.89 C 175.50 507.95 172.77 513.69 173.01 518.51 C 173.97 515.57 174.73 512.56 175.73 509.63 C 176.42 511.60 177.26 513.68 176.67 515.81 C 173.86 529.65 165.09 541.45 162.38 555.33 C 161.32 560.34 161.99 565.50 161.30 570.55 C 160.11 575.33 157.47 579.58 155.13 583.87 Z"
       id="path130" />
    <path
       fill="#ffffff"
       opacity="1.00"
       d=" M 180.23 517.19 C 185.58 524.37 190.70 531.73 196.43 538.61 C 183.38 542.08 173.74 552.01 166.09 562.62 C 168.03 546.71 175.94 532.47 180.23 517.19 Z"
       id="path132" />
    <path
       fill="#ffffff"
       opacity="1.00"
       d=" M 177.85 572.94 C 184.07 563.22 193.87 554.35 206.00 554.05 C 209.56 553.51 211.88 556.72 214.06 558.97 C 220.96 566.86 228.65 574.01 235.70 581.77 C 229.76 585.02 223.63 588.13 218.56 592.71 C 225.46 588.60 233.80 584.91 241.84 588.13 C 246.78 591.42 250.39 596.30 254.92 600.10 C 257.71 602.88 262.25 605.35 261.51 609.97 C 260.88 625.70 250.62 639.49 237.64 647.69 C 206.83 667.99 170.10 677.23 133.77 681.09 C 158.84 649.75 156.51 606.17 177.85 572.94 Z"
       id="path134" />
    <path
       fill="#ffffff"
       opacity="1.00"
       d=" M 423.72 648.61 C 431.81 641.12 439.52 633.13 448.54 626.73 C 454.33 638.82 457.55 652.35 456.40 665.78 C 453.69 695.03 433.83 720.29 408.30 733.76 C 408.85 724.56 409.30 715.16 406.83 706.18 C 404.21 695.64 398.60 686.23 393.04 677.03 C 402.00 668.60 410.72 659.91 420.12 651.95 C 427.80 659.98 430.48 670.90 430.28 681.73 C 431.98 670.36 430.08 658.31 423.72 648.61 Z"
       id="path136" />
    <path
       fill="#ffffff"
       opacity="1.00"
       d=" M 468.17 648.25 C 477.90 653.89 489.54 652.60 499.19 647.53 C 493.59 665.34 481.39 682.04 463.72 689.26 C 467.99 676.06 469.61 662.07 468.17 648.25 Z"
       id="path138" />
    <path
       fill="#ffffff"
       opacity="1.00"
       d=" M 189.63 697.86 C 192.56 691.25 195.43 684.23 201.28 679.61 C 198.78 686.91 195.19 694.08 195.48 702.01 C 194.88 708.42 197.73 715.49 203.90 718.17 C 214.77 723.61 227.85 719.00 236.50 711.51 C 239.40 709.14 238.92 705.06 236.09 702.87 C 234.35 706.94 232.45 711.29 228.35 713.51 C 229.02 705.29 235.80 696.76 244.61 697.38 C 249.20 697.86 247.44 703.05 246.90 706.05 C 245.60 704.45 244.36 702.81 243.14 701.16 C 244.77 708.06 239.85 714.64 234.78 718.74 C 220.20 726.42 199.34 728.73 186.73 716.25 C 177.82 706.50 183.97 692.14 192.50 684.41 C 191.36 688.85 190.11 693.28 189.63 697.86 Z"
       id="path140" />
    <path
       fill="#ffffff"
       opacity="1.00"
       d=" M 282.13 723.10 C 286.72 719.93 291.88 714.54 297.96 716.97 C 301.18 722.02 297.62 728.04 295.51 732.82 C 292.57 728.92 298.03 723.02 293.00 720.31 C 279.65 737.54 250.18 742.60 234.32 726.09 C 235.41 722.97 238.34 725.61 240.26 726.21 C 240.06 724.73 239.86 723.26 239.66 721.79 C 250.82 732.69 270.10 732.52 282.13 723.10 Z"
       id="path142" />
    <path
       fill="#ffffff"
       opacity="1.00"
       d=" M 301.65 740.69 C 305.54 739.11 309.78 738.92 313.94 739.09 C 310.33 741.66 305.78 741.33 301.65 740.69 Z"
       id="path144" />
  </g>
  <g
     id="#030303ff">
    <path
       fill="#030303"
       opacity="1.00"
       d=" M 376.33 41.43 C 386.62 38.27 398.14 43.06 404.34 51.59 C 406.55 54.35 407.96 57.98 411.24 59.70 C 434.47 71.91 452.74 91.73 467.33 113.20 C 472.78 112.99 479.07 112.49 483.25 116.73 C 491.65 124.69 491.96 137.35 490.85 148.09 C 490.37 152.98 488.51 157.96 490.25 162.82 C 494.43 176.91 496.22 191.54 497.86 206.09 C 516.48 197.41 538.48 208.35 546.95 226.06 C 551.33 216.94 557.95 208.80 566.96 203.94 C 584.47 194.08 605.36 194.92 624.79 195.62 C 649.65 197.20 674.48 199.45 699.39 199.94 C 689.79 213.18 680.20 226.52 672.09 240.79 C 682.61 240.71 692.07 246.61 697.70 255.31 C 708.97 270.87 713.85 291.06 710.06 309.98 C 708.09 319.18 703.08 327.33 697.49 334.75 C 701.00 347.56 703.51 360.65 704.72 373.88 C 707.77 404.37 710.32 435.13 718.77 464.71 C 702.45 461.57 691.64 447.13 676.58 441.03 C 671.57 463.59 650.10 479.06 627.79 481.38 C 635.81 486.54 644.27 491.13 651.27 497.74 C 658.35 503.63 664.19 511.38 672.83 515.12 C 684.48 519.58 697.15 517.17 709.27 518.11 C 688.38 546.19 659.59 567.10 631.61 587.64 C 620.15 595.53 608.27 604.47 593.92 605.64 C 589.13 620.37 583.60 635.03 575.01 648.02 C 563.45 665.71 547.74 680.19 531.65 693.69 C 526.76 697.86 520.60 702.25 513.81 700.19 C 513.95 693.61 517.15 687.73 518.36 681.38 C 522.08 663.93 522.61 645.66 518.81 628.17 C 515.24 610.42 506.28 594.29 502.93 576.48 C 488.20 590.53 473.76 604.94 458.49 618.44 C 463.15 625.83 467.02 634.67 475.12 638.91 C 485.90 643.09 497.31 638.88 508.06 636.86 C 508.36 644.81 505.31 652.30 502.52 659.59 C 494.47 679.20 479.13 696.44 459.10 704.15 C 455.17 705.32 453.62 709.41 451.35 712.39 C 440.34 728.18 423.36 738.50 406.02 746.06 C 403.22 747.19 398.68 748.26 397.18 744.73 C 395.41 740.32 397.13 735.53 397.08 730.97 C 397.95 715.21 391.05 700.19 381.87 687.76 C 375.74 691.19 369.92 702.57 362.04 696.91 C 332.37 671.60 305.56 642.95 274.85 618.84 C 271.69 629.59 267.68 640.58 259.87 648.90 C 246.35 662.71 229.06 672.91 210.60 678.50 C 204.52 681.61 202.21 688.75 200.80 694.96 C 199.67 700.46 198.73 707.38 203.45 711.52 C 208.31 716.42 215.56 717.19 222.10 716.72 C 222.92 705.83 228.37 693.59 240.03 690.98 C 245.69 689.18 252.43 692.25 253.39 698.43 C 254.95 706.73 248.69 713.49 243.80 719.38 C 254.31 726.23 269.36 725.72 279.78 718.75 C 285.54 714.92 293.05 708.06 300.13 712.89 C 306.49 719.31 301.84 729.03 299.37 736.22 C 305.88 736.89 312.41 736.27 318.90 735.68 C 316.30 742.05 309.23 746.64 302.32 744.56 C 296.40 743.25 293.09 737.82 290.05 733.10 C 278.18 742.01 262.35 746.36 247.82 742.23 C 239.70 740.05 233.09 734.56 227.14 728.86 C 212.29 734.37 192.87 734.01 181.93 721.07 C 173.84 711.79 175.37 698.12 181.15 688.07 C 171.25 690.28 161.19 691.76 151.07 692.47 C 135.44 693.23 119.63 691.03 104.15 694.14 C 109.41 683.02 120.36 676.17 126.72 665.75 C 138.49 646.64 142.63 624.22 149.04 603.00 C 150.03 599.22 152.11 595.29 150.64 591.35 C 146.42 576.61 146.61 560.68 150.93 545.99 C 155.16 530.57 163.61 516.62 167.15 500.99 C 168.31 497.31 165.61 494.08 164.17 490.93 C 158.43 480.83 154.00 470.09 149.59 459.37 C 128.31 458.46 107.70 445.11 99.89 425.02 C 98.24 420.20 92.75 418.93 89.46 415.54 C 73.10 400.80 67.89 376.78 71.85 355.69 C 55.37 349.41 41.87 337.82 26.59 329.38 C 18.35 324.68 9.53 329.44 1.37 331.59 C -0.46 320.08 3.74 308.83 8.59 298.61 C 16.92 281.42 28.24 265.16 43.79 253.78 C 55.59 244.93 72.11 240.20 85.77 247.79 C 81.48 226.04 84.74 203.91 85.01 182.00 C 85.13 167.88 80.91 154.07 74.30 141.69 C 71.05 136.03 69.33 129.64 68.96 123.13 C 79.49 126.33 89.73 130.69 100.88 131.37 C 126.63 135.18 154.21 138.84 174.90 156.16 C 193.48 170.54 203.42 193.80 204.61 216.91 C 205.12 228.89 205.17 240.98 203.20 252.85 C 212.80 246.34 223.11 240.79 234.18 237.22 C 233.83 220.67 235.05 204.10 237.51 187.74 C 238.60 183.18 233.67 180.53 232.25 176.68 C 229.06 168.87 232.99 160.18 238.54 154.53 C 241.95 150.59 247.43 148.49 249.43 143.41 C 260.84 116.64 278.46 92.48 300.73 73.72 C 317.53 59.96 338.10 49.63 360.13 48.73 C 366.52 48.96 370.49 42.98 376.33 41.43 M 376.13 48.14 C 364.24 53.40 357.88 66.20 355.51 78.39 C 352.09 97.41 355.55 117.32 363.02 134.99 C 367.23 145.49 379.82 153.70 391.00 148.96 C 394.71 147.80 396.35 144.14 396.94 140.59 C 391.10 142.06 384.90 146.81 378.93 143.05 C 366.71 135.56 361.79 120.39 360.54 106.81 C 359.68 94.93 360.24 82.48 365.54 71.59 C 369.11 64.03 376.41 57.92 384.90 57.11 C 391.16 56.40 397.30 58.05 403.36 59.36 C 397.95 50.40 386.48 44.02 376.13 48.14 M 299.44 96.42 C 278.51 117.23 262.07 143.35 255.32 172.27 C 261.89 175.76 269.23 177.71 276.67 177.75 C 280.57 166.38 283.54 154.55 289.31 143.93 C 286.57 155.23 281.95 166.14 281.23 177.87 C 286.61 177.17 294.49 177.63 296.22 171.07 C 305.78 147.48 323.50 125.78 348.03 117.02 C 349.23 116.33 351.62 115.96 351.19 114.06 C 350.67 107.42 349.48 100.83 349.27 94.16 C 338.43 96.72 329.72 103.88 321.53 111.03 C 328.08 100.08 338.02 91.36 349.38 85.64 C 350.25 79.41 351.64 73.26 352.91 67.10 C 332.17 69.80 314.17 82.21 299.44 96.42 M 367.26 82.35 C 385.79 82.57 401.49 95.49 411.09 110.45 C 398.69 99.06 382.67 90.59 365.42 91.36 C 365.05 98.63 365.11 105.97 366.40 113.16 C 374.70 114.19 383.14 115.45 390.69 119.29 C 418.20 132.31 435.67 160.26 442.63 189.12 C 446.39 187.04 449.76 184.36 452.97 181.51 C 451.14 168.43 446.99 155.86 443.40 143.20 C 449.29 154.22 452.75 166.37 456.36 178.29 C 464.27 173.01 469.51 164.61 472.67 155.80 C 463.83 132.32 449.22 111.18 431.02 93.98 C 416.13 80.12 397.61 68.49 376.94 66.66 C 371.09 69.59 368.78 76.42 367.26 82.35 M 471.26 118.25 C 479.09 130.86 479.03 146.44 475.50 160.44 C 470.66 175.42 457.61 185.44 445.39 194.34 C 438.99 198.27 432.27 203.39 424.38 202.97 C 423.67 198.24 425.88 193.96 428.37 190.14 C 427.64 188.88 426.93 187.62 426.21 186.37 C 422.77 191.71 417.90 197.04 418.22 203.83 C 419.00 208.15 424.34 209.29 428.05 208.93 C 439.96 207.70 450.50 201.02 459.49 193.50 C 476.46 179.48 487.22 157.53 485.60 135.35 C 485.07 127.34 480.30 118.43 471.26 118.25 M 320.93 157.02 C 329.16 164.64 323.38 177.10 315.55 182.51 C 312.23 185.94 305.82 186.57 304.74 191.75 C 302.15 200.70 301.64 210.08 301.75 219.35 C 315.75 216.84 325.80 229.45 329.66 241.36 C 332.84 247.87 331.35 256.62 337.49 261.48 C 349.21 272.57 358.51 285.89 366.83 299.64 C 380.56 273.93 401.26 251.23 428.19 239.19 C 429.92 231.38 431.15 223.43 431.04 215.42 C 426.32 215.48 420.96 216.16 416.98 213.07 C 412.64 209.83 411.58 203.75 412.88 198.75 C 414.52 191.32 419.36 185.20 424.35 179.68 C 419.95 166.77 411.93 155.22 401.85 146.08 C 399.16 149.58 396.47 153.51 392.18 155.14 C 384.27 158.16 375.14 155.54 368.90 150.14 C 363.15 145.31 360.13 138.25 356.50 131.87 C 342.18 135.85 329.95 145.40 320.93 157.02 M 374.56 131.86 C 377.91 136.26 383.19 139.54 388.93 137.99 C 385.17 134.07 379.75 132.62 374.56 131.86 M 83.79 139.03 C 90.15 149.36 95.85 160.50 97.28 172.71 C 99.43 193.81 95.74 215.03 97.76 236.12 C 99.68 252.33 109.08 266.22 119.63 278.17 C 121.38 271.70 124.80 265.04 131.29 262.29 C 143.23 256.20 157.76 258.46 168.86 265.34 C 165.05 244.51 155.21 225.20 143.15 207.97 C 149.13 214.20 153.54 221.68 158.13 228.94 C 167.32 243.83 175.21 260.06 177.30 277.64 C 186.96 270.09 189.27 257.33 191.55 246.00 C 192.87 227.09 192.95 207.03 184.43 189.60 C 175.87 172.16 158.84 160.37 140.89 154.05 C 122.24 147.65 102.46 145.44 83.79 139.03 M 236.46 171.79 C 237.68 177.11 242.75 180.37 247.26 182.80 C 267.08 192.76 291.74 190.69 310.70 179.72 C 316.95 176.27 322.20 170.00 321.55 162.46 C 319.38 162.25 317.22 162.10 315.05 161.97 C 307.07 180.34 283.89 185.30 266.00 181.08 C 258.84 179.43 251.08 176.38 247.39 169.55 C 245.43 165.43 246.38 160.69 246.05 156.29 C 240.91 159.73 236.25 165.30 236.46 171.79 M 475.53 185.73 C 478.79 201.40 482.02 217.25 480.78 233.36 C 481.74 233.37 483.64 233.39 484.60 233.40 C 484.97 215.49 483.01 197.61 479.75 180.02 C 478.32 181.91 476.92 183.81 475.53 185.73 M 462.06 199.91 C 463.31 210.50 465.41 221.05 465.15 231.76 C 468.26 232.03 471.41 232.26 474.50 231.63 C 476.79 217.25 476.96 202.46 474.57 188.08 C 470.05 191.65 466.24 195.98 462.06 199.91 M 251.23 192.19 C 249.47 205.78 247.89 219.49 248.73 233.20 C 249.61 233.15 251.36 233.04 252.24 232.98 C 251.34 219.30 253.81 205.88 255.51 192.39 C 254.08 192.31 252.65 192.25 251.23 192.19 M 257.61 193.83 C 256.56 206.53 256.71 219.35 258.38 231.98 C 261.45 232.00 264.52 232.00 267.59 232.00 C 268.22 219.83 269.29 207.61 272.28 195.76 C 267.38 195.17 262.52 194.28 257.61 193.83 M 278.38 195.63 C 276.98 207.92 276.50 220.41 278.51 232.66 C 282.05 233.08 285.59 233.48 289.14 233.82 C 287.30 220.63 287.45 207.19 289.44 194.02 C 285.73 194.38 282.03 194.88 278.38 195.63 M 445.92 210.86 C 444.66 218.47 445.13 226.34 443.79 233.98 C 447.35 233.61 450.89 233.06 454.40 232.33 C 455.98 223.41 455.85 214.32 455.40 205.31 C 452.16 207.00 448.68 208.42 445.92 210.86 M 498.31 212.58 C 498.32 214.77 498.35 216.95 498.37 219.13 C 504.62 214.74 512.53 212.33 520.06 214.65 C 512.58 215.26 505.20 217.60 499.55 222.72 C 506.79 220.75 514.61 219.55 521.89 222.02 C 531.45 224.73 537.75 232.68 543.63 240.13 C 544.11 237.50 544.89 234.88 544.72 232.18 C 538.40 214.46 515.62 202.83 498.31 212.58 M 565.50 220.51 C 551.51 233.32 552.05 254.33 554.49 271.62 C 554.75 277.44 558.16 282.31 562.52 285.90 C 560.74 280.50 557.16 273.81 561.76 268.79 C 571.60 257.59 588.60 256.70 601.80 261.83 C 608.82 255.88 617.49 252.21 626.38 250.09 C 618.88 253.39 611.65 257.51 606.53 264.07 C 613.05 272.32 614.79 282.96 611.87 293.01 C 614.61 293.99 617.27 293.04 619.61 291.55 C 635.21 284.74 641.90 267.88 650.37 254.34 C 659.58 238.57 670.91 224.21 682.12 209.85 C 662.81 211.97 643.36 210.82 624.07 209.18 C 604.29 208.58 581.83 207.23 565.50 220.51 M 302.59 225.45 C 302.78 226.85 302.97 228.25 303.17 229.65 C 308.20 230.61 313.15 232.60 316.56 236.56 C 312.52 234.35 307.20 230.74 303.08 234.89 C 307.48 238.45 312.76 241.66 314.78 247.26 C 320.40 261.93 317.06 279.26 307.55 291.56 C 303.25 297.05 297.16 301.76 290.00 302.32 C 285.00 302.80 280.57 300.08 276.00 298.59 C 279.43 303.22 285.30 305.77 291.03 304.81 C 306.05 302.75 318.94 291.97 325.76 278.73 C 331.13 265.79 328.05 250.93 322.36 238.63 C 318.96 231.01 311.50 224.13 302.59 225.45 M 501.97 227.94 C 498.19 229.12 498.45 233.45 497.93 236.63 C 514.93 242.99 531.00 252.13 543.85 265.09 C 542.85 258.91 542.98 252.63 542.30 246.43 C 536.18 231.60 517.45 220.44 501.97 227.94 M 662.65 255.97 C 671.82 255.14 681.44 258.42 687.14 265.88 C 697.07 278.24 697.77 294.73 698.29 309.85 C 699.86 307.20 701.14 304.39 702.59 301.67 C 701.52 309.85 697.63 317.27 693.11 324.04 C 693.87 325.13 694.62 326.23 695.40 327.34 C 712.36 307.75 707.62 277.53 692.86 258.11 C 687.48 250.86 678.43 245.09 669.11 247.10 C 665.84 249.04 664.61 252.93 662.65 255.97 M 185.28 293.25 C 191.32 296.95 197.29 300.76 203.46 304.23 C 221.16 277.52 255.70 264.19 286.85 271.21 C 294.52 272.41 301.51 276.04 309.11 277.44 C 310.82 272.26 312.09 266.88 311.90 261.39 C 299.59 254.82 286.19 249.52 272.05 249.34 C 238.01 247.41 204.51 265.52 185.28 293.25 M 413.69 266.70 C 400.19 277.05 387.36 288.56 377.34 302.38 C 372.85 308.40 370.93 315.78 367.48 322.36 C 363.38 320.47 362.72 315.66 360.99 311.99 C 354.83 298.20 343.58 287.70 332.75 277.56 C 330.70 281.35 328.86 285.24 326.97 289.10 C 336.77 297.19 345.13 307.37 349.51 319.41 C 355.33 334.65 354.53 351.35 352.55 367.24 C 361.42 363.20 371.81 363.33 380.70 367.27 C 378.08 350.69 377.84 333.10 384.33 317.33 C 394.62 292.13 420.25 276.33 446.17 271.28 C 471.89 265.52 500.27 273.38 519.14 291.84 C 523.17 295.57 526.08 300.28 529.89 304.22 C 536.00 300.50 542.14 296.80 548.07 292.80 C 529.27 268.25 500.60 249.89 469.02 249.33 C 449.22 248.20 429.46 254.85 413.69 266.70 M 52.16 261.12 C 31.34 274.53 19.04 297.11 9.89 319.44 C 14.84 317.69 20.05 315.21 25.42 316.51 C 34.80 318.56 42.55 324.55 50.56 329.49 C 62.34 337.17 75.19 343.20 88.63 347.35 C 97.21 350.06 106.96 351.56 115.08 346.66 C 109.64 334.87 107.62 321.85 109.16 308.95 C 102.00 304.78 93.60 304.17 85.69 306.33 C 93.76 302.65 102.95 300.61 111.76 302.61 C 113.83 299.71 115.91 296.81 117.94 293.89 C 109.80 286.79 101.29 279.70 95.87 270.18 C 88.19 254.23 65.85 251.14 52.16 261.12 M 660.65 260.52 C 659.67 262.04 658.71 263.56 657.77 265.10 C 662.54 263.70 667.30 262.31 672.07 260.89 C 668.30 260.13 664.44 259.96 660.65 260.52 M 646.13 285.18 C 666.55 285.39 682.42 300.94 691.04 318.19 C 694.29 310.88 693.91 302.67 693.10 294.90 C 691.95 285.61 689.52 275.97 683.32 268.68 C 681.45 266.61 679.18 264.00 676.07 264.54 C 663.43 265.71 651.89 273.95 646.13 285.18 M 141.44 270.68 C 136.47 271.34 130.50 273.83 129.42 279.30 C 128.51 283.91 128.34 290.47 133.71 292.38 C 134.64 288.26 135.85 284.19 137.93 280.50 C 135.92 287.10 141.00 291.26 145.18 295.35 C 148.26 286.96 154.58 280.46 163.23 277.87 C 163.15 277.21 162.97 275.89 162.89 275.23 C 157.17 270.02 148.71 269.77 141.44 270.68 M 569.06 277.25 C 577.58 280.34 585.03 286.15 587.39 295.29 C 592.20 291.51 597.99 286.54 594.39 279.71 C 596.95 283.64 598.52 288.08 599.63 292.62 C 607.79 287.76 604.81 273.21 595.42 271.60 C 586.89 269.45 574.16 268.87 569.06 277.25 M 208.71 307.57 C 220.96 316.29 234.04 325.32 240.73 339.29 C 244.25 345.48 244.41 352.80 243.69 359.70 C 247.54 352.32 255.45 347.03 263.99 349.51 C 291.28 354.39 318.89 365.13 338.66 385.19 C 341.67 379.11 346.94 373.97 347.91 367.02 C 350.05 351.35 350.19 334.80 344.04 319.96 C 339.72 309.46 332.05 300.62 323.10 293.77 C 314.02 303.00 302.54 311.61 289.01 311.64 C 282.10 312.07 274.89 308.48 271.84 302.14 C 267.64 292.83 272.60 282.27 280.78 277.08 C 253.52 272.87 224.69 285.11 208.71 307.57 M 393.22 312.28 C 383.21 328.19 382.79 347.92 385.16 366.01 C 385.69 373.35 391.37 378.62 394.45 384.93 C 413.91 364.98 441.24 354.54 468.16 349.40 C 476.10 347.24 484.43 350.63 488.49 357.77 C 488.51 349.97 489.71 341.86 494.23 335.29 C 501.25 323.34 513.11 315.73 523.79 307.43 C 511.27 289.70 490.48 278.45 468.95 276.74 C 440.19 274.96 408.92 287.25 393.22 312.28 M 279.50 281.45 C 279.56 282.27 279.66 283.92 279.71 284.74 C 282.46 286.87 285.21 288.98 287.95 291.12 C 290.21 285.29 285.98 278.89 279.50 281.45 M 281.94 295.14 C 284.30 293.77 283.70 291.21 282.04 289.55 C 279.43 290.84 280.02 293.56 281.94 295.14 M 532.01 315.01 C 518.53 323.97 503.28 333.31 497.55 349.36 C 502.80 346.04 507.91 342.48 513.50 339.73 C 506.98 345.67 501.04 352.72 498.86 361.48 C 513.25 354.23 525.82 343.38 541.37 338.50 C 546.01 336.81 551.62 340.37 555.58 336.58 C 563.33 330.43 571.71 324.74 577.98 317.00 C 581.52 308.96 579.31 298.93 573.83 292.24 C 558.74 297.28 545.60 306.91 532.01 315.01 M 155.08 316.89 C 161.21 324.78 169.73 330.39 177.51 336.53 C 181.64 340.51 187.53 336.59 192.37 338.66 C 207.39 343.88 219.97 354.02 233.90 361.44 C 231.97 352.22 225.55 345.00 218.63 339.03 C 224.40 342.02 229.69 345.82 235.23 349.19 C 231.79 338.89 223.72 331.09 215.20 324.77 C 200.13 313.77 184.07 304.20 167.62 295.41 C 164.93 293.93 162.08 292.65 158.98 292.42 C 153.65 299.13 151.69 308.93 155.08 316.89 M 622.17 304.44 C 623.92 311.53 624.63 318.83 624.39 326.13 C 638.15 326.67 643.98 341.39 649.88 351.64 C 643.86 342.05 634.08 334.67 622.32 334.83 C 617.96 347.94 611.69 360.40 603.63 371.64 C 600.70 375.31 604.85 379.15 606.76 382.21 C 614.57 391.36 621.15 401.93 631.36 408.68 C 642.16 416.03 655.49 417.05 667.83 420.14 C 680.56 423.36 691.48 431.15 701.10 439.83 C 690.53 404.62 695.49 366.44 682.15 331.86 C 677.06 318.69 667.66 305.50 653.39 301.62 C 643.03 298.48 632.15 301.23 622.17 304.44 M 118.78 313.70 C 116.49 327.82 123.25 341.17 129.83 353.18 C 145.91 380.55 168.85 405.47 199.02 417.08 C 205.85 419.59 211.96 412.47 212.76 406.21 C 209.59 408.50 207.32 412.09 203.60 413.58 C 199.21 414.42 195.52 411.14 192.18 408.78 C 187.14 404.72 181.52 401.43 176.56 397.26 C 184.17 400.82 191.38 405.99 199.99 406.73 C 202.58 407.21 204.60 405.16 206.63 403.92 C 195.14 395.73 182.64 388.39 173.49 377.45 C 169.61 373.01 170.88 366.78 169.43 361.57 C 157.50 345.61 143.58 329.87 139.12 309.86 C 138.84 306.24 134.22 305.86 132.08 308.12 C 127.72 312.44 127.80 319.06 126.54 324.68 C 125.16 317.21 125.08 309.51 127.02 302.13 C 122.52 304.35 119.40 308.70 118.78 313.70 M 606.15 302.22 C 607.99 309.63 607.99 317.36 606.50 324.83 C 605.20 318.96 605.24 311.91 600.38 307.62 C 597.69 305.43 593.74 307.07 593.57 310.56 C 589.41 330.15 575.53 345.37 564.04 361.06 C 561.79 365.86 563.56 371.85 560.31 376.34 C 551.65 388.59 537.14 394.66 526.60 404.80 C 536.99 410.22 547.47 401.21 556.64 397.03 C 549.51 402.48 542.36 408.06 534.69 412.72 C 528.77 416.29 524.50 409.48 520.52 406.24 C 521.13 412.27 526.64 419.10 533.26 417.28 C 561.09 407.08 582.68 384.97 598.69 360.65 C 605.77 349.33 612.64 337.23 614.50 323.81 C 615.33 316.03 614.27 305.84 606.15 302.22 M 162.38 335.82 C 165.66 340.72 169.09 345.54 173.16 349.81 C 173.97 348.35 174.78 346.90 175.61 345.46 C 171.44 341.93 167.10 338.58 162.38 335.82 M 557.57 345.23 C 558.43 346.76 559.28 348.30 560.15 349.84 C 563.81 345.51 567.39 341.07 570.15 336.09 C 565.70 338.77 561.63 342.00 557.57 345.23 M 188.37 348.51 C 181.32 350.45 180.03 358.85 179.66 365.06 C 178.86 370.92 184.83 374.11 188.46 377.57 C 203.28 389.21 218.99 400.10 236.30 407.70 C 241.32 409.47 246.40 412.15 251.85 411.79 C 257.63 410.35 260.59 404.29 262.30 399.09 C 263.67 394.59 259.49 391.13 256.33 388.70 C 239.22 376.26 221.52 364.65 203.61 353.39 C 198.96 350.87 193.98 346.95 188.37 348.51 M 539.39 348.48 C 531.17 351.58 524.01 356.95 516.54 361.49 C 502.61 370.89 488.36 379.85 474.99 390.06 C 464.83 396.42 475.32 415.42 486.18 411.25 C 502.89 406.89 517.33 397.01 531.43 387.43 C 538.21 382.67 545.03 377.81 550.88 371.91 C 555.40 367.83 552.96 361.25 551.89 356.18 C 550.67 350.72 544.87 346.93 539.39 348.48 M 97.58 415.35 C 96.95 410.02 98.28 403.32 93.23 399.76 C 82.41 389.93 81.51 373.78 84.53 360.36 C 81.63 359.06 78.62 358.00 75.52 357.26 C 72.71 378.49 78.74 403.05 97.58 415.35 M 106.71 421.32 C 112.83 437.40 129.37 447.99 146.15 449.62 C 145.50 447.12 144.81 444.64 144.08 442.18 C 133.96 439.84 124.23 434.01 119.77 424.28 C 110.79 405.39 115.14 382.97 124.63 365.13 C 123.21 363.12 121.84 361.07 120.51 359.00 C 108.10 376.62 99.40 400.01 106.71 421.32 M 250.56 372.23 C 256.38 376.43 262.97 379.80 267.60 385.44 C 270.18 388.95 274.55 389.97 278.29 391.73 C 283.10 393.78 287.52 397.30 293.02 397.13 C 304.64 397.43 314.79 403.57 325.15 408.08 C 327.61 401.10 322.27 395.70 317.52 391.50 C 325.21 395.69 332.21 402.44 330.99 411.99 C 332.39 412.77 333.80 413.54 335.22 414.30 C 336.21 408.40 337.18 401.69 333.57 396.44 C 328.04 388.23 319.51 382.71 311.04 377.93 C 295.16 369.54 277.97 362.95 260.02 360.99 C 253.51 359.89 252.73 368.00 250.56 372.23 M 462.60 362.60 C 445.39 366.58 428.64 373.13 413.87 382.90 C 408.10 386.96 402.06 391.30 398.75 397.72 C 396.05 402.74 397.21 408.62 397.54 414.03 C 399.23 413.47 400.92 412.90 402.62 412.34 C 400.27 403.49 406.54 396.55 413.82 392.68 C 409.99 396.97 405.51 401.90 407.87 408.11 C 417.54 403.74 427.10 398.25 437.87 397.28 C 446.90 397.34 454.15 391.24 462.31 388.32 C 468.11 381.97 475.20 377.18 482.16 372.19 C 480.66 368.43 479.95 363.98 476.73 361.22 C 471.99 360.43 467.22 361.65 462.60 362.60 M 87.10 361.69 C 84.91 374.17 86.72 388.60 96.98 397.19 C 99.51 385.53 102.89 373.90 108.95 363.54 C 101.59 364.17 94.36 362.49 87.10 361.69 M 126.56 368.58 C 119.33 383.33 115.91 400.92 121.16 416.85 C 124.04 426.61 132.36 433.98 142.16 436.38 C 138.40 419.84 134.61 403.07 135.45 385.99 C 136.30 378.87 130.83 373.50 126.56 368.58 M 343.65 385.61 C 341.74 390.28 343.91 395.20 345.30 399.69 C 347.80 394.94 349.91 389.66 354.29 386.29 C 360.61 381.19 370.19 380.42 376.98 385.04 C 382.38 388.52 385.28 394.48 387.61 400.24 C 389.07 395.15 391.96 389.31 388.73 384.28 C 384.36 377.41 377.88 370.20 369.10 370.06 C 358.01 368.13 348.21 376.17 343.65 385.61 M 597.89 394.31 C 597.01 404.77 595.40 415.16 593.59 425.50 C 601.20 424.50 609.16 421.34 612.86 414.14 C 607.98 407.44 603.29 400.60 597.89 394.31 M 149.81 397.31 C 151.77 425.56 161.44 452.80 174.08 477.96 C 195.63 519.89 229.17 553.85 262.92 586.10 C 296.87 617.55 332.61 647.05 366.31 678.79 C 414.98 633.66 467.57 592.60 512.37 543.41 C 527.88 525.58 542.91 507.11 554.42 486.37 C 569.56 458.95 580.83 428.76 583.31 397.35 C 576.91 402.60 571.31 408.83 564.29 413.30 C 560.45 416.35 554.60 418.03 553.41 423.38 C 550.26 433.55 547.31 443.79 543.96 453.90 C 537.67 471.53 527.81 487.69 516.38 502.44 C 495.60 529.69 470.70 553.38 446.03 577.05 C 419.57 601.99 393.31 627.20 366.29 651.52 C 331.24 618.63 295.89 586.06 261.54 552.44 C 234.01 524.77 206.70 495.44 190.62 459.37 C 184.98 447.53 182.62 434.55 178.97 422.04 C 178.23 418.46 174.28 417.28 171.69 415.28 C 163.51 410.43 156.94 403.49 149.81 397.31 M 269.17 408.86 C 271.91 406.40 274.06 403.05 276.79 400.43 C 275.40 399.71 274.01 398.99 272.62 398.29 C 271.52 401.81 269.61 405.19 269.17 408.86 M 456.44 400.66 C 458.21 402.30 460.02 403.90 461.89 405.43 C 461.61 403.07 461.26 400.73 460.88 398.39 C 459.40 399.14 457.91 399.90 456.44 400.66 M 285.33 409.38 C 280.47 411.12 276.62 415.28 274.87 420.10 C 273.55 425.46 277.04 430.83 281.53 433.52 C 300.39 445.04 319.60 456.07 339.71 465.27 C 342.34 466.38 345.08 467.76 348.03 467.49 C 353.88 462.34 357.52 454.66 358.49 446.98 C 359.06 442.97 355.92 440.09 352.84 438.19 C 339.13 429.81 326.08 420.21 311.34 413.64 C 303.27 410.17 294.14 407.12 285.33 409.38 M 434.33 409.41 C 415.35 414.01 399.59 426.21 383.24 436.26 C 379.66 438.67 374.60 440.96 374.50 445.96 C 374.82 453.36 378.44 460.29 383.11 465.89 C 385.32 468.89 389.19 466.92 391.90 465.85 C 412.60 456.66 432.21 445.22 451.56 433.51 C 457.80 430.03 460.69 421.05 455.72 415.32 C 451.03 408.45 441.81 407.51 434.33 409.41 M 258.68 421.82 C 260.60 423.24 262.52 424.66 264.44 426.09 C 264.58 420.95 265.58 415.89 267.74 411.21 C 265.00 414.98 261.93 418.48 258.68 421.82 M 208.96 427.89 C 202.58 431.59 195.51 428.17 189.22 426.18 C 191.49 454.13 206.63 478.90 223.47 500.55 C 245.04 527.76 270.30 551.71 295.42 575.59 C 319.17 597.77 342.52 620.47 366.78 642.05 C 392.59 617.77 418.63 593.74 444.28 569.29 C 466.01 548.36 487.93 527.46 506.84 503.89 C 525.04 481.47 541.14 455.54 543.99 426.18 C 538.24 427.78 532.18 431.14 526.14 428.83 C 518.92 426.46 515.00 419.39 512.00 412.93 C 510.30 413.79 508.61 414.64 506.91 415.48 C 508.14 423.82 509.71 432.86 505.82 440.76 C 499.93 452.21 488.99 459.90 477.93 465.87 C 462.89 474.04 448.42 483.81 431.96 488.94 C 420.03 492.41 408.41 484.30 403.87 473.54 C 403.14 473.70 401.68 474.02 400.95 474.18 C 408.44 501.20 417.71 528.00 420.59 556.04 C 420.73 562.66 413.56 565.97 407.99 567.02 C 387.04 570.67 365.64 569.94 344.48 569.29 C 336.41 568.39 328.05 568.52 320.34 565.70 C 316.00 564.11 311.70 560.12 312.52 555.07 C 314.76 534.32 320.57 514.20 326.28 494.20 C 328.19 487.23 331.09 480.48 331.74 473.21 C 327.16 474.13 326.38 479.47 323.31 482.31 C 316.82 490.03 305.38 491.35 296.43 487.50 C 281.10 481.31 267.00 472.50 252.63 464.40 C 242.24 458.66 232.05 451.10 226.95 440.04 C 223.43 432.30 225.32 423.63 225.81 415.50 C 224.39 414.65 222.98 413.81 221.57 412.98 C 217.70 418.20 215.48 425.21 208.96 427.89 M 467.17 414.71 C 467.79 418.16 468.46 421.61 469.13 425.06 C 470.86 424.00 472.59 422.94 474.31 421.87 C 472.00 419.41 469.65 416.99 467.17 414.71 M 592.02 430.33 C 591.76 431.77 591.52 433.22 591.28 434.67 C 602.04 432.67 613.34 429.04 620.64 420.39 C 618.75 418.83 616.86 417.30 614.94 415.80 C 610.86 424.94 601.30 428.84 592.02 430.33 M 235.21 420.50 C 234.86 425.75 233.64 431.62 236.59 436.37 C 240.86 443.03 247.27 448.00 254.02 451.97 C 266.09 459.02 278.23 465.96 290.68 472.31 C 295.54 474.63 300.52 477.14 305.96 477.62 C 312.18 478.29 318.98 473.82 319.51 467.30 C 317.96 467.11 316.41 466.92 314.86 466.75 C 312.10 470.06 308.19 473.94 303.53 471.51 C 294.94 467.26 287.34 461.17 279.29 455.97 C 289.09 459.94 298.63 467.19 309.80 465.24 C 309.02 461.48 305.09 460.50 302.22 458.79 C 289.13 451.61 276.82 443.11 263.33 436.65 C 256.83 434.08 254.54 426.42 248.08 423.88 C 244.02 422.02 239.66 420.89 235.21 420.50 M 483.00 425.00 C 477.98 427.88 475.57 433.74 470.27 436.27 C 454.10 444.70 438.51 454.21 422.96 463.68 C 424.54 464.53 426.03 466.08 427.98 465.85 C 437.36 464.79 445.34 459.34 453.94 455.95 C 445.96 460.89 438.53 466.74 430.34 471.27 C 425.16 474.31 420.53 469.94 417.62 466.03 C 416.07 466.80 414.52 467.58 412.98 468.36 C 415.69 475.38 423.63 479.66 430.89 476.95 C 444.85 472.40 457.21 464.06 470.07 457.15 C 479.68 451.49 490.37 446.20 496.42 436.39 C 499.45 431.70 498.37 425.93 497.92 420.71 C 492.73 421.11 487.45 422.16 483.00 425.00 M 598.81 438.71 C 595.19 440.11 589.51 439.74 588.38 444.34 C 585.91 451.78 583.18 459.13 580.46 466.48 C 597.42 462.38 615.23 464.15 632.01 459.09 C 645.05 455.57 658.69 449.71 665.92 437.62 C 659.18 434.49 651.59 434.61 644.57 432.49 C 637.36 430.59 630.69 427.20 624.16 423.68 C 617.52 431.22 608.71 436.73 598.81 438.71 M 666.54 443.57 C 660.58 453.91 649.46 459.97 638.36 463.34 C 622.39 468.40 605.49 468.39 588.93 469.06 C 582.75 469.14 576.88 472.46 574.76 478.47 C 582.11 476.73 589.33 473.86 597.00 473.99 C 608.46 474.10 619.75 472.01 631.11 470.88 C 625.33 473.12 618.64 473.05 613.56 477.00 C 628.70 475.59 645.24 473.57 657.23 463.25 C 664.98 456.94 671.39 447.94 671.81 437.64 C 669.54 439.12 667.82 441.21 666.54 443.57 M 336.51 476.94 C 329.37 502.07 321.77 527.22 317.66 553.07 C 316.06 558.83 323.19 560.60 327.37 561.58 C 352.64 565.73 378.64 565.80 403.95 561.91 C 408.60 560.86 416.84 559.71 415.31 553.07 C 411.43 527.05 403.25 501.94 396.71 476.52 C 393.95 477.46 391.18 478.37 388.40 479.22 C 390.89 499.26 397.49 518.76 397.74 539.07 C 398.01 542.46 396.10 546.56 392.07 545.73 C 374.71 544.90 357.31 545.23 339.93 545.04 C 335.39 545.52 334.77 540.29 335.03 536.96 C 336.39 517.57 341.68 498.77 344.85 479.65 C 342.17 478.45 339.39 477.50 336.51 476.94 M 580.62 490.48 C 586.36 499.31 591.49 508.48 594.98 518.46 C 603.10 519.28 610.29 523.79 616.38 528.95 C 610.45 525.74 603.93 522.69 597.03 524.68 C 602.38 545.34 602.36 566.85 598.42 587.74 C 610.73 583.14 621.73 575.84 632.69 568.73 C 650.56 556.81 668.50 544.93 685.87 532.31 C 672.38 533.44 659.75 526.95 650.97 517.04 C 633.08 498.86 607.09 482.18 580.62 490.48 M 550.49 520.66 C 561.52 532.28 561.68 549.69 560.44 564.68 C 560.81 550.49 558.69 534.63 546.97 525.06 C 540.00 534.92 532.31 544.25 524.19 553.19 C 518.01 559.57 517.89 569.44 519.45 577.65 C 523.76 592.80 530.69 607.19 533.36 622.81 C 536.74 640.21 535.58 658.19 531.86 675.44 C 539.79 668.51 546.55 660.40 553.42 652.46 C 569.99 632.59 579.44 607.75 584.54 582.62 C 589.49 559.27 587.37 534.02 576.49 512.60 C 573.69 507.27 570.26 501.31 564.01 499.67 C 559.56 506.70 555.07 513.71 550.49 520.66 M 155.13 583.87 C 157.47 579.58 160.11 575.33 161.30 570.55 C 161.99 565.50 161.32 560.34 162.38 555.33 C 165.09 541.45 173.86 529.65 176.67 515.81 C 177.26 513.68 176.42 511.60 175.73 509.63 C 174.73 512.56 173.97 515.57 173.01 518.51 C 172.77 513.69 175.50 507.95 171.77 503.89 C 163.92 529.86 149.02 555.80 155.13 583.87 M 180.23 517.19 C 175.94 532.47 168.03 546.71 166.09 562.62 C 173.74 552.01 183.38 542.08 196.43 538.61 C 190.70 531.73 185.58 524.37 180.23 517.19 M 177.85 572.94 C 156.51 606.17 158.84 649.75 133.77 681.09 C 170.10 677.23 206.83 667.99 237.64 647.69 C 250.62 639.49 260.88 625.70 261.51 609.97 C 262.25 605.35 257.71 602.88 254.92 600.10 C 250.39 596.30 246.78 591.42 241.84 588.13 C 233.80 584.91 225.46 588.60 218.56 592.71 C 223.63 588.13 229.76 585.02 235.70 581.77 C 228.65 574.01 220.96 566.86 214.06 558.97 C 211.88 556.72 209.56 553.51 206.00 554.05 C 193.87 554.35 184.07 563.22 177.85 572.94 M 423.72 648.61 C 430.08 658.31 431.98 670.36 430.28 681.73 C 430.48 670.90 427.80 659.98 420.12 651.95 C 410.72 659.91 402.00 668.60 393.04 677.03 C 398.60 686.23 404.21 695.64 406.83 706.18 C 409.30 715.16 408.85 724.56 408.30 733.76 C 433.83 720.29 453.69 695.03 456.40 665.78 C 457.55 652.35 454.33 638.82 448.54 626.73 C 439.52 633.13 431.81 641.12 423.72 648.61 M 468.17 648.25 C 469.61 662.07 467.99 676.06 463.72 689.26 C 481.39 682.04 493.59 665.34 499.19 647.53 C 489.54 652.60 477.90 653.89 468.17 648.25 M 189.63 697.86 C 190.11 693.28 191.36 688.85 192.50 684.41 C 183.97 692.14 177.82 706.50 186.73 716.25 C 199.34 728.73 220.20 726.42 234.78 718.74 C 239.85 714.64 244.77 708.06 243.14 701.16 C 244.36 702.81 245.60 704.45 246.90 706.05 C 247.44 703.05 249.20 697.86 244.61 697.38 C 235.80 696.76 229.02 705.29 228.35 713.51 C 232.45 711.29 234.35 706.94 236.09 702.87 C 238.92 705.06 239.40 709.14 236.50 711.51 C 227.85 719.00 214.77 723.61 203.90 718.17 C 197.73 715.49 194.88 708.42 195.48 702.01 C 195.19 694.08 198.78 686.91 201.28 679.61 C 195.43 684.23 192.56 691.25 189.63 697.86 M 282.13 723.10 C 270.10 732.52 250.82 732.69 239.66 721.79 C 239.86 723.26 240.06 724.73 240.26 726.21 C 238.34 725.61 235.41 722.97 234.32 726.09 C 250.18 742.60 279.65 737.54 293.00 720.31 C 298.03 723.02 292.57 728.92 295.51 732.82 C 297.62 728.04 301.18 722.02 297.96 716.97 C 291.88 714.54 286.72 719.93 282.13 723.10 M 301.65 740.69 C 305.78 741.33 310.33 741.66 313.94 739.09 C 309.78 738.92 305.54 739.11 301.65 740.69 Z"
       id="path147" />
    <path
       fill="#030303"
       opacity="1.00"
       d=" M 210.18 387.55 C 222.10 393.18 234.17 398.51 246.13 404.04 C 252.14 406.03 257.42 400.49 257.84 394.76 C 262.48 403.21 253.15 412.96 244.50 409.64 C 231.99 404.14 221.49 395.06 210.18 387.55 Z"
       id="path149" />
    <path
       fill="#030303"
       opacity="1.00"
       d=" M 495.15 400.21 C 503.91 396.50 512.38 392.12 521.24 388.65 C 510.54 395.88 500.47 404.48 488.48 409.51 C 479.90 413.04 470.11 402.83 475.47 394.60 C 476.26 397.69 476.58 401.60 479.94 403.06 C 485.04 406.44 490.52 402.42 495.15 400.21 Z"
       id="path151" />
    <path
       fill="#030303"
       opacity="1.00"
       d=" M 278.22 423.85 C 277.36 418.03 281.98 412.55 287.70 411.76 C 286.45 415.24 284.84 418.57 283.11 421.84 C 290.50 429.78 299.68 435.66 307.95 442.59 C 301.47 439.61 295.31 435.99 288.71 433.29 C 284.46 431.32 279.34 428.85 278.22 423.85 Z"
       id="path153" />
    <path
       fill="#030303"
       opacity="1.00"
       d=" M 445.66 412.03 C 453.83 412.45 458.61 424.42 451.25 429.26 C 443.26 434.49 434.08 437.69 425.72 442.31 C 433.69 435.40 442.66 429.63 449.81 421.79 C 448.19 418.64 446.71 415.41 445.66 412.03 Z"
       id="path155" />
  </g>
</svg>
