<?xml version="1.0" encoding="UTF-8" standalone="no"?>
<svg
   xmlns:dc="http://purl.org/dc/elements/1.1/"
   xmlns:cc="http://creativecommons.org/ns#"
   xmlns:rdf="http://www.w3.org/1999/02/22-rdf-syntax-ns#"
   xmlns:svg="http://www.w3.org/2000/svg"
   xmlns="http://www.w3.org/2000/svg"
   xmlns:sodipodi="http://sodipodi.sourceforge.net/DTD/sodipodi-0.dtd"
   xmlns:inkscape="http://www.inkscape.org/namespaces/inkscape"
   width="210mm"
   height="297mm"
   viewBox="0 0 595.27559 841.88976"
   version="1.1"
   id="svg152"
   sodipodi:docname="mandala_pattern_2.svg"
   inkscape:version="0.92.4 (5da689c313, 2019-01-14)">
  <title
     id="title1003">Abstract Pattern</title>
  <metadata
     id="metadata158">
    <rdf:RDF>
      <cc:Work
         rdf:about="">
        <dc:format>image/svg+xml</dc:format>
        <dc:type
           rdf:resource="http://purl.org/dc/dcmitype/StillImage" />
        <dc:title>Abstract Pattern</dc:title>
        <dc:date>2020-05-17</dc:date>
        <dc:creator>
          <cc:Agent>
            <dc:title>Lena London</dc:title>
          </cc:Agent>
        </dc:creator>
        <dc:source>http://www.supercoloring.com/coloring-pages/mandala-with-abstract-pattern-0</dc:source>
        <dc:subject>
          <rdf:Bag>
            <rdf:li>acb</rdf:li>
            <rdf:li>mandala</rdf:li>
          </rdf:Bag>
        </dc:subject>
        <cc:license
           rdf:resource="http://creativecommons.org/licenses/by-sa/4.0/" />
      </cc:Work>
      <cc:License
         rdf:about="http://creativecommons.org/licenses/by-sa/4.0/">
        <cc:permits
           rdf:resource="http://creativecommons.org/ns#Reproduction" />
        <cc:permits
           rdf:resource="http://creativecommons.org/ns#Distribution" />
        <cc:requires
           rdf:resource="http://creativecommons.org/ns#Notice" />
        <cc:requires
           rdf:resource="http://creativecommons.org/ns#Attribution" />
        <cc:permits
           rdf:resource="http://creativecommons.org/ns#DerivativeWorks" />
        <cc:requires
           rdf:resource="http://creativecommons.org/ns#ShareAlike" />
      </cc:License>
    </rdf:RDF>
  </metadata>
  <defs
     id="defs156" />
  <sodipodi:namedview
     pagecolor="#ffffff"
     bordercolor="#666666"
     borderopacity="1"
     objecttolerance="10"
     gridtolerance="10"
     guidetolerance="10"
     inkscape:pageopacity="0"
     inkscape:pageshadow="2"
     inkscape:window-width="3840"
     inkscape:window-height="2004"
     id="namedview154"
     showgrid="false"
     units="mm"
     inkscape:zoom="1.2361274"
     inkscape:cx="620.86908"
     inkscape:cy="306.09253"
     inkscape:window-x="-16"
     inkscape:window-y="-16"
     inkscape:window-maximized="1"
     inkscape:current-layer="svg152" />
  <g
     id="g1025"
     transform="matrix(0.76653524,0,0,0.76653524,-18.16992,82.990488)">
    <path
       d="m 379.61,57.659763 c 62.79,-5.39 126.93,4.88 184.79,29.94 71.67,30.809997 133.37,84.089997 174.46,150.379997 21.1,33.94 36.91,71.2 46.48,110.01 18.57,74.85 14.17,155.25 -12.9,227.5 -24.1,64.74 -66.13,122.64 -120.1,165.73 -56.02,45.07 -124.97,73.89 -196.45,81.79 -38.22,4.39 -77.07,2.96 -114.9,-4.03 -78.22,-14.4 -151.43,-54.14 -206.36,-111.61 -27.23,-28.24 -50.06,-60.73 -67.47,-95.88 -31.32,-62.89 -44.55,-134.54 -38.27,-204.46 6.33,-76.17 36.5,-150.06 84.92,-209.16 48.17,-59.27 114.37,-103.699997 187.59,-125.489997 25.46,-7.6 51.72,-12.63 78.21,-14.72 m 10.53,3.38 c -38.27,2.35 -76.24,10.2 -112.12,23.78 -58.92,22.119997 -112.1,59.249997 -153.28,106.819997 -48.84,55.98 -80.67,126.6 -89.98,200.32 -9.37,72.12 2.27,146.94 33.82,212.54 17.89,37.56 42.05,72.12 71.12,101.88 49.38,50.81 113.24,87.48 182.16,104.1 69.27,16.91 143.28,13.89 210.89,-8.82 63.91,-21.32 121.84,-60.13 166.01,-110.96 47.33,-54.09 78.88,-121.86 89.37,-192.99 10.51,-69.51 1.45,-141.94 -26.4,-206.54 -16.96,-39.6 -40.76,-76.28 -69.99,-107.93 -53.48,-58.35 -125.64,-99.319997 -203.24,-115.019997 -32.3,-6.73 -65.45,-8.78 -98.36,-7.18 z"
       id="path79"
       inkscape:connector-curvature="0"
       style="opacity:1;fill:#000000" />
    <path
       d="m 388.65,80.699763 c 78.46,-5.46 158.51,15.93 223.78,59.839997 65.02,43.27 115.39,108.18 140.78,182.09 26.06,74.9 26.41,158.42 1.01,233.55 -24.02,71.98 -71.68,135.69 -133.63,179.45 -59.04,42.08 -131.08,65.44 -203.55,66.23 -36.01,0.49 -72.12,-4.31 -106.68,-14.46 -73.12,-21.19 -138.85,-66.53 -185.04,-126.99 -24.55,-31.98 -43.7,-68.1 -56.27,-106.4 -12.68,-38.33 -18.68,-78.82 -18.02,-119.17 0.89,-57.85 15.86,-115.49 43.64,-166.28 27.71,-51.11 68.03,-95.28 116.32,-127.64 52.48,-35.33 114.49,-56.489997 177.66,-60.219997 m 1.02,4.15 c -66.26,3.86 -131.2,27.079997 -185.09,65.789997 -56.47,40.31 -100.81,97.39 -125.64,162.2 -16.69,43.24 -24.7,89.8 -23.62,136.1 1.44,75.37 27.81,149.97 74,209.54 46.92,61.13 114.11,106.43 188.52,126.59 69.35,19 144.43,16.46 212.25,-7.47 40.24,-14.11 77.89,-35.54 110.57,-62.93 55.59,-46.28 96.59,-109.83 115.53,-179.66 16.78,-61.26 16.78,-126.95 0.01,-188.21 -11.22,-41.19 -30,-80.3 -55.06,-114.86 -45.72,-63.46 -112.83,-111.2 -187.9,-133.219997 -39.96,-11.77 -82.01,-16.62 -123.57,-13.87 z"
       id="path81"
       inkscape:connector-curvature="0"
       style="opacity:1;fill:#000000" />
    <path
       d="m 385.86,137.88976 c -3.08,-16.34 -0.69,-34.53 9.39,-48.109997 1.09,2.94 2.31,5.95 4.61,8.18 4.23,4.219997 8.36,8.549997 12.12,13.199997 3.8,-4.6 7.88,-8.96 12.12,-13.159997 2.32,-2.23 3.55,-5.26 4.65,-8.22 7.67,10.239997 10.89,23.419997 10.59,36.099997 0.04,13.31 -4.35,26.96 -13.53,36.8 -3.84,4.1 -8.7,7.04 -13.79,9.32 -14.21,-5.52 -23.41,-19.52 -26.16,-34.11 m 8.78,-39.199997 c -7.34,15.589997 -7.99,34.489997 -0.66,50.199997 3.79,7.75 9.84,14.95 18.03,18.17 12.4,-5.11 19.67,-18.11 22.13,-30.79 2.22,-12.61 0.94,-26.08 -4.94,-37.579997 -5.63,6.669997 -12.33,12.409997 -17.19,19.729997 -4.97,-7.29 -11.51,-13.21 -17.37,-19.729997 z"
       id="path83"
       inkscape:connector-curvature="0"
       style="opacity:1;fill:#000000" />
    <path
       d="m 293.15,109.83976 c 14.36,9.3 24.2,24.94 27.15,41.71 2.46,14.04 -0.02,30 -10.65,40.28 -5.17,1.15 -10.64,-0.45 -15.54,-2.2 -13.52,-5.38 -23.36,-17.48 -28.68,-30.73 -4.57,-11.28 -5.96,-23.91 -3.47,-35.85 2.39,2.28 4.85,4.62 7.98,5.86 5.4,2.25 10.76,4.62 15.95,7.34 1.64,-5.9 4.05,-11.53 6.25,-17.24 1.24,-2.89 0.84,-6.1 1.01,-9.17 m 3.88,8.41 c -2.95,8.12 -6.8,15.98 -8.25,24.57 -7.64,-4.45 -15.82,-7.78 -23.77,-11.6 -0.84,16.35 5.05,33.27 16.75,44.88 6.71,6.91 16,12.08 25.84,11.81 7.92,-8.93 10.72,-21.51 8.93,-33.14 -2.02,-13.9 -8.84,-27.28 -19.5,-36.52 z"
       id="path85"
       inkscape:connector-curvature="0"
       style="opacity:1;fill:#000000" />
    <path
       d="m 503.58,170.81976 c -3.78,-23.27 7.44,-48.25 27.32,-60.92 0.1,3.05 -0.29,6.24 0.96,9.12 2.23,5.72 4.59,11.4 6.31,17.3 5.29,-3 10.94,-5.27 16.5,-7.7 2.79,-1.2 5.08,-3.23 7,-5.54 0.19,0.47 0.57,1.41 0.75,1.88 3.15,18.52 -2.72,38.22 -15.12,52.27 -7.48,8.33 -17.95,14.53 -29.32,14.99 -1.45,-0.05 -3.3,0.38 -4.27,-1 -5.31,-5.6 -8.79,-12.82 -10.13,-20.4 m 3.45,-11.97 c -0.66,10.41 2.39,21.15 9.35,29.05 8.38,0.32 16.39,-3.57 22.72,-8.83 13.67,-11.65 20.85,-30.04 19.89,-47.85 -7.95,3.82 -16.14,7.14 -23.77,11.61 -1.43,-8.6 -5.34,-16.45 -8.23,-24.59 -11.7,10.14 -18.8,25.23 -19.96,40.61 z"
       id="path87"
       inkscape:connector-curvature="0"
       style="opacity:1;fill:#000000" />
    <path
       d="m 389.56,179.63976 c 11.11,-1.33 22.31,-0.53 33.46,-0.76 40.33,1.6 80.28,12.69 115.59,32.26 34.44,18.97 64.48,45.82 87.25,77.86 25.15,35.28 41.34,76.9 46.44,119.93 2.04,14.26 1.75,28.67 1.71,43.03 -1.6,40.01 -12.54,79.63 -31.83,114.74 -18.55,33.96 -44.77,63.66 -76.05,86.42 -45.17,32.96 -101.21,51.08 -157.17,49.77 -32.81,0.14 -65.55,-6.76 -95.93,-19.05 -37.35,-15.17 -71.03,-39.18 -97.68,-69.41 -25.35,-28.62 -44.31,-62.88 -55.03,-99.58 -5.88,-19.81 -9.15,-40.34 -10.3,-60.96 -0.05,-8.34 -0.01,-16.68 -0.02,-25.02 1.53,-32.86 9.14,-65.48 22.71,-95.47 20.84,-46.6 55.72,-86.76 98.85,-114.06 35.35,-22.5 76.22,-36.34 118,-39.7 m 0.11,4.22 c -35.3,3 -69.99,13.39 -101.06,30.45 -29.71,16.13 -56.03,38.33 -77.34,64.55 -25.25,31.22 -43.17,68.38 -51.49,107.67 -10.19,46.78 -6.88,96.34 9.3,141.39 13.19,36.84 34.94,70.59 63.07,97.8 28.53,27.96 63.73,49.05 101.8,61.13 30,9.42 61.72,13.53 93.1,11.6 40.77,-2.35 80.96,-14.51 116.07,-35.38 33.82,-19.99 62.96,-47.81 84.54,-80.63 21.77,-32.95 35.73,-71.01 40.42,-110.23 4.61,-36.59 0.98,-74.12 -10.08,-109.29 -12.16,-38.29 -33.39,-73.72 -61.62,-102.33 -25.14,-25.9 -55.87,-46.33 -89.41,-59.64 -37.07,-14.66 -77.59,-20.66 -117.3,-17.09 z"
       id="path89"
       inkscape:connector-curvature="0"
       style="opacity:1;fill:#000000" />
    <path
       d="m 175.63,180.55976 c 18.84,3.56 35.52,16.48 44.09,33.56 5.67,11.2 7.32,24.93 2.09,36.61 -9.47,4.14 -20.39,4 -30.06,0.58 -20.28,-7.11 -36.12,-25.66 -40.02,-46.78 2.7,0.91 5.29,2.51 8.25,2.38 6.36,-0.05 12.73,0.25 19.05,1.01 -0.75,-6.31 -1.04,-12.66 -1.01,-19.01 0.13,-2.98 -1.44,-5.62 -2.39,-8.35 m 6.52,6.12 c 0.33,8.73 0.3,17.51 1.82,26.14 -8.65,-1.5 -17.44,-1.43 -26.18,-1.83 5.13,15.17 16.82,27.94 31.32,34.67 9.12,4.28 19.9,5.31 29.45,1.79 3.32,-9.03 2.63,-19.2 -1.14,-27.97 -6.48,-15.19 -19.63,-27.46 -35.27,-32.8 z"
       id="path91"
       inkscape:connector-curvature="0"
       style="opacity:1;fill:#000000" />
    <path
       d="m 603.02,216.84976 c 8.06,-18.45 25.54,-32.53 45.35,-36.29 -0.95,2.73 -2.52,5.36 -2.4,8.34 0.05,6.35 -0.25,12.71 -1,19.02 6.3,-0.75 12.64,-1.07 18.98,-1.01 2.97,0.14 5.59,-1.45 8.32,-2.38 -3.26,17.88 -15.15,33.75 -30.87,42.67 -11.72,6.73 -26.57,9.14 -39.22,3.53 -4.79,-10.74 -3.82,-23.28 0.84,-33.88 m 3.32,3.23 c -3.59,8.62 -4.12,18.51 -0.93,27.34 9.78,3.68 20.88,2.44 30.16,-2.08 14.17,-6.8 25.56,-19.4 30.63,-34.3 -8.73,0.31 -17.52,0.27 -26.15,1.81 1.46,-8.65 1.48,-17.43 1.8,-26.17 -15.83,5.42 -29.16,17.92 -35.51,33.4 z"
       id="path93"
       inkscape:connector-curvature="0"
       style="opacity:1;fill:#000000" />
    <path
       d="m 374.7,251.87976 c -0.33,-17.22 3.8,-35.02 13.82,-49.22 1.39,4.93 4.49,9.06 8.14,12.56 5.4,5.37 10.66,10.92 15.29,16.97 5.18,-6.55 10.95,-12.6 16.85,-18.5 3.15,-3.05 5.36,-6.89 6.7,-11.04 10.14,14.52 14.33,32.68 13.76,50.24 -0.55,18.63 -7.06,37.76 -20.75,50.85 -2.6,2.11 -0.95,5.51 -0.38,8.19 1.78,6.49 3.33,13.86 0.14,20.18 -3,5.98 -9,9.49 -14.81,12.28 -5.53,4.95 -9.87,12.91 -7.09,20.41 3.1,8.55 9.74,15.21 13.16,23.61 4.17,9.22 3.46,20.1 -0.82,29.15 4.61,1.54 8.81,4.2 11.95,7.94 8.1,-2.84 15.7,-8.32 19.09,-16.44 4.68,-9.78 3.73,-21.53 9.89,-30.67 4.07,-6.16 11.66,-8.57 18.7,-9.03 -1.91,-6.81 -3.07,-14.81 1.06,-21.05 3.77,-6.1 10.89,-8.47 16.3,-12.69 1.62,-1.01 1.73,-2.98 1.66,-4.68 -0.06,-14.88 5.7,-29.29 14.39,-41.2 12.49,-17.02 31.07,-29.78 51.86,-34.06 -1.09,3.4 -2.76,6.69 -2.72,10.35 -0.37,9.09 -0.21,18.22 -1.32,27.28 7.14,-0.63 14.31,-1.27 21.49,-1.05 5.56,0.18 11.05,-0.73 16.14,-3.02 -4.23,20.8 -17.03,39.42 -34.07,51.89 -12.14,8.92 -26.97,14.66 -42.16,14.42 -2.33,-0.35 -3.87,1.61 -5,3.33 -3.54,5.54 -6.43,12.08 -12.54,15.27 -7.05,3.82 -15.37,1.82 -22.53,-0.53 -5.88,-0.09 -12.35,1.28 -16.55,5.71 -4.86,5.72 -5.46,13.53 -7.17,20.54 -1.76,8.31 -5.24,16.7 -11.85,22.32 -3.58,3.09 -7.81,5.3 -12.2,6.99 2.43,4.18 3.12,9.04 2.95,13.81 7.5,4.27 17.06,5.35 25.16,2.05 10.55,-3.76 18.47,-13.31 29.91,-14.83 6.89,-0.95 13.28,2.72 18.43,6.93 3.42,-6.77 9.07,-13.63 17.18,-14.26 6.65,-0.75 12.91,1.89 19.35,2.98 1.56,0.17 2.64,-1.2 3.7,-2.11 11.78,-12.13 28.56,-18.34 45.16,-19.83 19.15,-1.58 39.36,2.33 55.27,13.48 -4.19,1.29 -8,3.54 -11.05,6.68 -5.89,5.88 -11.9,11.67 -18.49,16.77 6.77,5.3 12.91,11.33 19.04,17.34 2.89,2.94 6.57,4.89 10.45,6.17 -14.16,10.05 -31.98,14.14 -49.18,13.82 -18.93,-0.4 -38.5,-6.82 -51.82,-20.74 -1.84,-2.35 -4.87,-1.3 -7.29,-0.66 -5.8,1.56 -11.95,3.1 -17.93,1.61 -6.02,-1.63 -10.46,-6.59 -13.34,-11.9 -2.71,-7.03 -10.23,-11.69 -17.58,-12.14 -9.52,0.69 -16.48,8.01 -24.61,12.13 -9.98,5.94 -22.73,6.17 -33.11,1.13 -1.57,4.6 -4.22,8.8 -7.96,11.95 2.88,8.09 8.34,15.71 16.49,19.09 9.76,4.65 21.49,3.72 30.62,9.86 6.18,4.08 8.56,11.69 9.06,18.72 7.01,-2.01 15.35,-3.09 21.63,1.46 5.71,3.85 7.99,10.68 12.1,15.9 1.48,2.29 4.44,1.49 6.72,1.69 17.8,0.6 34.61,9.16 47.41,21.23 12.86,11.94 22.27,27.76 25.81,45.02 -9.1,-4.5 -19.38,-2.28 -29.07,-3.4 -2.88,-0.19 -5.76,-0.35 -8.61,-0.72 0.87,7.78 1.23,15.61 1.14,23.44 -0.15,4.95 1.03,9.72 2.98,14.24 -20.79,-4.25 -39.4,-17.01 -51.87,-34.05 -8.73,-11.89 -14.48,-26.34 -14.42,-41.22 -0.07,-1.41 0.17,-3.16 -1.1,-4.13 -3.94,-3.62 -9.22,-5.36 -13.16,-8.98 -4.3,-3.61 -6.81,-9.19 -6.46,-14.81 -0.22,-4.53 1.4,-8.78 2.62,-13.04 0.14,-5.67 -1.18,-11.8 -5.13,-16.07 -4.6,-4.45 -11.17,-5.57 -17.18,-6.87 -7.55,-1.48 -15.28,-3.53 -21.5,-8.26 -5.58,-4.11 -9.32,-10.23 -11.73,-16.64 -4.2,2.36 -9,3.14 -13.76,2.98 -4.45,7.33 -5.35,17.09 -2.11,25.16 3.8,10.53 13.3,18.46 14.82,29.88 0.91,6.89 -2.7,13.28 -6.92,18.42 5.8,3.03 11.65,7.35 13.6,13.91 2.1,7.16 -0.57,14.4 -2.14,21.37 -0.83,1.95 0.6,3.69 1.92,4.95 12.13,11.81 18.38,28.58 19.84,45.22 1.55,19.11 -2.29,39.37 -13.53,55.18 -1.22,-4.2 -3.54,-7.97 -6.65,-11.03 -5.89,-5.87 -11.64,-11.92 -16.79,-18.47 -4.47,5.58 -9.23,10.94 -14.34,15.96 -3.97,3.79 -7.68,8.1 -9.1,13.54 -9.31,-13.01 -13.47,-29.25 -13.86,-45.11 -0.4,-18.14 4.5,-36.99 16.28,-51.11 1.82,-2.77 5.63,-4.5 6,-7.99 -1.35,-7.18 -4.38,-14.45 -2.55,-21.83 2.03,-7.79 9.27,-12.48 16.13,-15.69 5.47,-4.95 9.85,-12.87 7.08,-20.35 -3.59,-9.72 -11.55,-17.21 -14.5,-27.24 -2.69,-8.4 -1.55,-17.66 2.16,-25.57 -4.61,-1.54 -8.82,-4.19 -11.98,-7.92 -8.11,2.81 -15.68,8.29 -19.05,16.41 -4.69,9.76 -3.77,21.5 -9.89,30.64 -4.04,6.22 -11.68,8.57 -18.71,9.1 1.9,6.8 3.03,14.77 -1.06,21.02 -3.77,6.11 -10.91,8.46 -16.31,12.71 -2.29,1.48 -1.5,4.44 -1.69,6.72 -0.6,17.8 -9.19,34.57 -21.22,47.4 -11.96,12.86 -27.79,22.3 -45.06,25.8 1.57,-3.88 3,-7.88 2.9,-12.13 0.13,-8.52 0.19,-17.06 1.25,-25.54 -7.14,0.71 -14.32,1.28 -21.5,1.11 -5.58,-0.22 -11.08,0.75 -16.2,2.97 3.55,-17 12.7,-32.66 25.34,-44.51 12.85,-12.34 29.88,-21.09 47.92,-21.7 2.24,-0.2 5.17,0.6 6.66,-1.66 4.26,-5.41 6.59,-12.58 12.74,-16.34 7.09,-4.61 16.08,-2.69 23.56,-0.14 6.11,0.17 12.93,-1.4 17.08,-6.21 4.42,-5.72 5.09,-13.18 6.73,-19.98 1.71,-8.12 5.05,-16.27 11.34,-21.92 3.69,-3.31 8.12,-5.67 12.73,-7.44 -2.45,-4.23 -3.27,-9.15 -2.88,-13.98 -7.31,-3.64 -16.06,-5.2 -23.91,-2.36 -11.18,3.48 -19.31,13.64 -31.18,15.28 -6.92,0.95 -13.32,-2.65 -18.47,-6.89 -3.06,5.82 -7.39,11.69 -13.99,13.62 -7.14,2.05 -14.34,-0.59 -21.28,-2.16 -2,-0.84 -3.73,0.62 -5,1.96 -11.8,12.1 -28.57,18.29 -45.16,19.8 -19.15,1.58 -39.33,-2.35 -55.24,-13.48 4.68,-1.41 8.74,-4.19 12.09,-7.7 5.51,-5.59 11.27,-10.95 17.44,-15.8 -6.57,-5.15 -12.62,-10.92 -18.51,-16.82 -3.05,-3.13 -6.85,-5.39 -11.02,-6.64 13.89,-9.86 31.33,-13.97 48.21,-13.85 18.98,0.21 38.71,6.35 52.21,20.18 1.26,1.32 2.99,2.75 4.96,1.93 6.75,-1.52 13.69,-4.06 20.66,-2.36 7.81,1.98 12.49,9.25 15.71,16.11 4.94,5.53 12.86,9.8 20.38,7.1 8.79,-3.21 15.63,-10.12 24.36,-13.48 9.06,-3.85 19.6,-3.02 28.41,1.13 1.54,-4.61 4.21,-8.81 7.94,-11.96 -2.83,-8.1 -8.3,-15.7 -16.44,-19.07 -9.76,-4.68 -21.48,-3.76 -30.62,-9.88 -6.23,-4.04 -8.56,-11.69 -9.09,-18.72 -6.79,1.89 -14.74,3.05 -20.98,-1.03 -5.64,-3.5 -8.23,-9.88 -11.82,-15.16 -1.05,-1.57 -2.55,-3.12 -4.62,-2.81 -14.95,0.23 -29.55,-5.31 -41.57,-14 -17.35,-12.46 -30.4,-31.27 -34.66,-52.33 3.59,1.3 7.16,2.91 11.06,2.83 8.86,0.26 17.73,0.2 26.55,1.27 -0.58,-6.78 -1.23,-13.59 -1.05,-20.41 0.16,-5.9 -0.48,-11.83 -3.02,-17.22 17.27,3.51 33.1,12.95 45.05,25.82 12.5,13.29 21.27,30.91 21.24,49.42 0.06,1.41 -0.17,3.18 1.11,4.17 3.55,3.28 8.24,4.95 11.98,8 4.61,3.44 7.82,8.96 7.62,14.81 0.36,4.86 -1.26,9.46 -2.61,14.04 -0.15,5.89 1.32,12.33 5.69,16.57 4.6,3.97 10.82,5.05 16.58,6.33 7.58,1.48 15.34,3.54 21.59,8.31 5.57,4.1 9.27,10.23 11.69,16.61 2.98,-1.56 6.24,-2.81 9.65,-2.87 1.44,-0.3 3.34,0.5 4.52,-0.49 3.6,-7.15 4.9,-15.75 2.18,-23.41 -3.47,-11.21 -13.67,-19.34 -15.31,-31.25 -0.94,-6.9 2.72,-13.29 6.91,-18.45 -6.04,-3.1 -12.05,-7.72 -13.82,-14.61 -1.67,-6.96 0.84,-13.89 2.36,-20.62 0.84,-1.98 -0.58,-3.72 -1.91,-4.98 -13.58,-13.27 -19.78,-32.56 -20.17,-51.21 m 10.63,29.65 c 5.2,12.09 14.46,22.73 26.67,28.05 17.42,-7.56 28.06,-25.44 31.5,-43.53 3.6,-18.23 1.14,-37.75 -7.46,-54.27 -3.44,4.85 -8.08,8.64 -12.03,13.05 -4.39,4.54 -8.2,9.58 -12.04,14.58 -3.86,-5.21 -7.86,-10.33 -12.37,-15 -3.86,-4.24 -8.3,-7.94 -11.65,-12.62 -11.03,21.33 -12.11,47.65 -2.62,69.74 m -118.38,-19.75 c 1.33,12.18 0.1,24.55 2.57,36.63 -12.08,-2.48 -24.45,-1.23 -36.63,-2.57 7.79,23.86 26.89,44.11 50.71,52.34 10.95,3.79 23.22,4.31 34.2,0.36 1.88,-0.44 2.06,-2.62 2.62,-4.13 4.31,-14.39 1.16,-30.09 -5.97,-43.04 -10.12,-18.5 -27.4,-33.1 -47.5,-39.59 m 238.62,48.16 c -4.53,11.86 -5.6,25.47 -0.93,37.45 1.85,2.01 5.02,1.97 7.49,2.84 15.41,3.3 31.46,-1.49 44.45,-9.87 16.05,-10.41 28.64,-26.27 34.53,-44.52 -12.18,1.33 -24.55,0.1 -36.63,2.57 2.47,-12.09 1.24,-24.45 2.57,-36.63 -23.06,7.49 -42.56,25.58 -51.48,48.16 m -104.41,-1.56 c -1.22,6.53 -4.57,13.2 -2.37,19.87 2.06,5.78 7.61,9.7 13.18,11.71 5.57,-1.95 11.11,-5.88 13.21,-11.63 2.26,-6.67 -1.11,-13.36 -2.31,-19.9 -3.49,2.09 -6.94,4.49 -10.87,5.61 -3.93,-1.14 -7.43,-3.46 -10.84,-5.66 m -75.07,31.18 c -0.92,3.49 -1.71,7.04 -3.08,10.39 -0.26,1.03 -0.89,1.67 -1.91,1.93 -3.36,1.39 -6.93,2.18 -10.45,3.04 3.37,5.02 5.82,10.95 10.79,14.68 5.73,4.01 13.29,2.4 19.39,0.12 1.93,-4.98 3.06,-10.52 1.73,-15.78 -2.58,-7.43 -10.48,-10.32 -16.47,-14.38 m 157.19,10.78 c -4.03,5.71 -2.39,13.28 -0.12,19.37 5,1.91 10.54,3.1 15.82,1.73 7.37,-2.63 10.32,-10.48 14.35,-16.48 -3.47,-0.92 -7.01,-1.67 -10.34,-3.05 -1.07,-0.25 -1.73,-0.89 -1.98,-1.93 -1.39,-3.36 -2.18,-6.92 -3.1,-10.42 -4.98,3.41 -10.95,5.78 -14.63,10.78 m -299.83,66.19 c 0.15,1.84 2.85,2.53 3.92,4 7.17,7.35 14.84,14.2 23.03,20.39 -3.34,2.82 -7.03,5.21 -10.25,8.19 -5.99,4.95 -10.98,11 -17.12,15.8 20.08,10.58 44.76,11.91 66.02,4.09 13.59,-4.91 25.82,-14.73 31.68,-28.17 -7.42,-16.72 -24.27,-27.35 -41.71,-31.04 -18.55,-4.16 -38.58,-1.86 -55.57,6.74 m 388.58,-2.62 c -12.37,5.17 -23.23,14.55 -28.76,26.92 3.13,6.98 7.88,13.2 13.8,18.03 10.39,8.58 23.6,13.05 36.84,14.65 15.91,1.67 32.37,-1.01 46.67,-8.28 0.02,-0.17 0.06,-0.5 0.08,-0.66 -2.69,-2.07 -5.24,-4.29 -7.54,-6.78 -6,-6.2 -12.69,-11.67 -19.54,-16.9 3.32,-2.86 7.04,-5.22 10.25,-8.22 6.04,-4.96 11,-11.1 17.23,-15.84 -21.09,-10.95 -47.08,-12.04 -69.03,-2.92 m -164.49,7.63 c -9.22,1.96 -15.91,11.09 -15.5,20.41 0.63,6.72 4.43,13.25 10.54,16.37 5.75,3.29 13.08,3.3 18.83,-0.01 6.44,-3.29 10.38,-10.38 10.59,-17.5 -0.28,-6.59 -3.66,-13.16 -9.35,-16.65 -4.46,-2.7 -10.01,-4.17 -15.11,-2.62 m -128.03,8.5 c 2.17,3.42 4.48,6.91 5.64,10.81 -1.11,3.94 -3.47,7.45 -5.65,10.88 5.52,1.12 10.95,3.38 16.65,3.09 6.14,-0.52 10.71,-5.36 13.47,-10.5 0.62,-1.41 2.08,-3 1.14,-4.58 -2.7,-6.05 -7.57,-12.18 -14.66,-12.8 -5.69,-0.26 -11.09,1.98 -16.59,3.1 m 245.04,-2.34 c -5.76,2.09 -9.59,7.64 -11.66,13.16 2.03,5.56 5.9,11.11 11.67,13.21 6.68,2.26 13.39,-1.11 19.93,-2.33 -2.17,-3.43 -4.53,-6.93 -5.62,-10.85 1.1,-3.93 3.44,-7.43 5.64,-10.84 -6.55,-1.23 -13.27,-4.62 -19.96,-2.35 m -200.04,82.82 c -7.08,2.81 -9.86,10.43 -13.84,16.28 3.49,0.92 7.05,1.71 10.41,3.09 1.02,0.25 1.67,0.9 1.92,1.94 1.39,3.34 2.16,6.89 3.09,10.39 4.98,-3.39 10.88,-5.8 14.59,-10.73 4.08,-5.71 2.42,-13.33 0.16,-19.44 -5.14,-1.98 -10.96,-3.18 -16.33,-1.53 m 158.66,1.52 c -1.93,5.01 -3.09,10.59 -1.7,15.88 2.62,7.35 10.47,10.25 16.44,14.29 0.92,-3.47 1.69,-6.99 3.06,-10.32 0.26,-1.1 0.94,-1.77 2.04,-2.03 3.32,-1.37 6.85,-2.14 10.32,-3.06 -3.4,-4.97 -5.79,-10.89 -10.72,-14.6 -5.71,-4.07 -13.34,-2.43 -19.44,-0.16 m -215.73,29.35 c -16.04,10.43 -28.69,26.27 -34.55,44.56 12.17,-1.39 24.56,-0.04 36.63,-2.64 -2.46,12.11 -1.25,24.49 -2.57,36.69 22.67,-7.4 41.94,-24.98 51.03,-47.07 4.87,-11.92 6.09,-25.65 1.66,-37.89 -0.6,-2.05 -3.09,-2.12 -4.77,-2.75 -16.18,-4.63 -33.63,0.14 -47.43,9.1 m 238.72,-8.15 c -2.03,0.58 -2.12,3.03 -2.74,4.71 -4.53,15.73 -0.13,32.72 8.36,46.32 10.37,16.63 26.57,29.7 45.27,35.73 -1.32,-12.2 -0.12,-24.58 -2.57,-36.69 12.07,2.6 24.46,1.25 36.63,2.64 -7.21,-22.26 -24.31,-41.14 -45.74,-50.51 -12.25,-5.29 -26.51,-6.8 -39.21,-2.2 m -108.11,23.46 c -0.26,5.72 1.97,11.16 3.1,16.69 3.42,-2.18 6.91,-4.51 10.82,-5.64 3.94,1.09 7.44,3.46 10.88,5.63 1.13,-5.52 3.35,-10.95 3.1,-16.66 -0.77,-7.44 -7.42,-12.51 -13.94,-15 -6.54,2.46 -13.17,7.55 -13.96,14.98 m -4.74,30.16 c -8.98,11.34 -13.29,25.77 -14.29,40.05 -0.78,14.59 1.95,29.48 8.64,42.52 0.16,0.04 0.48,0.11 0.64,0.15 1.55,-1.9 3,-3.89 4.79,-5.58 6.87,-6.7 13.32,-13.87 18.9,-21.7 4.02,5.45 8.24,10.77 12.97,15.63 3.68,4.04 7.91,7.59 11.09,12.07 10.75,-20.8 12.02,-46.3 3.35,-68.06 -5.1,-12.82 -14.66,-24.13 -27.4,-29.81 -7.27,3.37 -13.78,8.38 -18.69,14.73 z"
       id="path95"
       inkscape:connector-curvature="0"
       style="opacity:1;fill:#000000" />
    <path
       d="m 94.18,291.16976 c 0.47,-0.19 1.42,-0.57 1.9,-0.75 19.43,-3.21 40.2,3.3 54.29,17.06 7.72,7.72 13.21,18.26 12.97,29.37 0.22,1.52 -1.13,2.44 -2.09,3.33 -7.22,6.24 -16.74,9.77 -26.27,9.74 -21.18,0.99 -42.53,-10.12 -53.99,-27.93 3.08,-0.1 6.3,0.28 9.2,-0.98 5.72,-2.22 11.37,-4.62 17.29,-6.28 -2.91,-5.09 -5.16,-10.52 -7.45,-15.91 -1.25,-3.02 -3.37,-5.57 -5.85,-7.65 m 8.25,2.73 c 3.81,7.87 6.71,16.22 11.68,23.49 -8.56,1.92 -16.57,5.49 -24.79,8.46 10.13,11.74 25.24,18.85 40.64,20.01 10.41,0.63 21.17,-2.38 29.06,-9.37 0.28,-8.36 -3.55,-16.41 -8.84,-22.7 -11.64,-13.64 -29.97,-20.83 -47.75,-19.89 z"
       id="path97"
       inkscape:connector-curvature="0"
       style="opacity:1;fill:#000000" />
    <path
       d="m 694.45,294.12976 c 11.17,-4.48 23.65,-5.67 35.46,-3.33 -7.12,6.28 -8.4,16.22 -13.39,23.93 5.92,1.66 11.59,4.06 17.31,6.29 2.9,1.25 6.13,0.85 9.21,1 -9.27,14.34 -24.86,24.17 -41.59,27.16 -14.07,2.48 -30.08,0.01 -40.38,-10.63 -1.2,-5.4 0.54,-11.11 2.44,-16.19 5.59,-13.35 17.71,-23.03 30.94,-28.23 m -15.65,14.57 c -7.89,6.99 -14.12,16.94 -13.82,27.79 8.93,7.92 21.54,10.72 33.17,8.91 13.9,-2 27.27,-8.83 36.48,-19.51 -8.11,-2.88 -15.93,-6.8 -24.5,-8.17 1.09,-2.96 3.03,-5.49 4.37,-8.33 2.66,-5.02 4.46,-10.44 7.06,-15.49 -15.41,-0.8 -31.23,4.46 -42.76,14.8 z"
       id="path99"
       inkscape:connector-curvature="0"
       style="opacity:1;fill:#000000" />
    <path
       d="m 60.84,424.07976 c 13.46,-9.79 31.15,-12.32 47.3,-9.52 14.89,2.6 29.33,11.85 34.97,26.34 -5.33,13.63 -18.51,22.73 -32.48,25.78 -16.82,3.66 -35.64,1.26 -49.78,-8.99 6.78,-1.78 10.86,-7.68 15.88,-12.05 1.78,-1.62 3.72,-3.05 5.42,-4.75 -4.48,-3.9 -8.88,-7.89 -13.05,-12.11 -2.25,-2.34 -5.29,-3.58 -8.26,-4.7 m 8.98,-0.59 c 6.44,5.94 12.45,12.39 19.7,17.4 -7.26,4.99 -13.27,11.43 -19.69,17.41 15.26,7.06 33.59,7.92 49.09,1.1 7.9,-3.56 15.06,-9.44 18.85,-17.37 0.98,-1.35 -0.3,-2.76 -0.83,-3.99 -6.13,-10.66 -17.75,-17.03 -29.55,-19.29 -12.63,-2.31 -25.92,-0.74 -37.57,4.74 z"
       id="path101"
       inkscape:connector-curvature="0"
       style="opacity:1;fill:#000000" />
    <path
       d="m 713.88,414.96976 c 14.23,-2.95 29.63,-1.64 42.67,5.05 2.25,1.23 4.73,2.24 6.51,4.18 -3,0.99 -5.97,2.3 -8.19,4.61 -4.23,4.2 -8.53,8.32 -13.15,12.09 4.64,3.75 8.96,7.87 13.17,12.09 2.21,2.31 5.21,3.55 8.18,4.61 -9.6,7.37 -22.08,10.54 -34.07,10.63 -12.78,0.36 -25.96,-3.14 -36.06,-11.18 -5.43,-4.15 -9.38,-9.94 -12.05,-16.17 5.4,-13.81 18.83,-22.94 32.99,-25.91 m -11.2,8.55 c -7.17,3.84 -13.87,9.63 -16.85,17.37 3.76,9.42 12.57,16.03 21.83,19.57 14.95,5.63 32.1,4.54 46.52,-2.18 -6.46,-5.93 -12.45,-12.39 -19.7,-17.42 7.27,-4.97 13.26,-11.42 19.68,-17.37 -16.04,-7.46 -35.57,-8.02 -51.48,0.03 z"
       id="path103"
       inkscape:connector-curvature="0"
       style="opacity:1;fill:#000000" />
    <path
       d="m 122.56,532.59976 c 13.81,-2.43 29.38,-0.12 39.77,9.99 1.4,1.02 0.95,2.88 0.99,4.35 -0.43,10.62 -5.94,20.47 -13.4,27.8 -14.58,13.84 -35.99,20.21 -55.73,16.22 6.95,-6.39 8.32,-16.21 13.3,-23.91 -5.91,-1.66 -11.56,-4.04 -17.27,-6.27 -2.92,-1.28 -6.16,-0.89 -9.25,-1.01 9.21,-14.38 24.87,-24.18 41.59,-27.17 m -33.21,23.27 c 8.12,2.89 15.96,6.79 24.54,8.21 -1.54,3.52 -3.74,6.71 -5.33,10.21 -2.26,4.41 -3.71,9.18 -6.24,13.45 14.75,1.11 29.8,-3.94 41.25,-13.22 8.63,-7.19 15.77,-17.61 15.44,-29.24 -8.96,-7.93 -21.57,-10.74 -33.22,-8.91 -13.88,2.04 -27.22,8.85 -36.44,19.5 z"
       id="path105"
       inkscape:connector-curvature="0"
       style="opacity:1;fill:#000000" />
    <path
       d="m 661.09,543.21976 c 5.59,-5.72 13.15,-9.34 20.99,-10.75 23.3,-3.84 48.17,7.51 60.96,27.29 -3.06,0.14 -6.26,-0.26 -9.14,0.98 -5.73,2.21 -11.39,4.64 -17.33,6.26 2.66,4.95 5,10.07 7.1,15.3 1.27,3.27 3.46,6.09 6.15,8.33 -6.73,2.19 -14.07,1.58 -21.01,0.88 -18.13,-2.85 -36.08,-13.18 -44.39,-30.04 -2.47,-5.64 -4.65,-12.13 -3.33,-18.25 m 3.89,2.07 c -0.31,8.39 3.6,16.4 8.86,22.73 11.64,13.62 29.96,20.79 47.73,19.86 -3.75,-7.91 -6.75,-16.22 -11.69,-23.51 8.56,-1.91 16.58,-5.45 24.77,-8.48 -10.11,-11.71 -25.2,-18.8 -40.57,-19.97 -10.43,-0.68 -21.2,2.38 -29.1,9.37 z"
       id="path107"
       inkscape:connector-curvature="0"
       style="opacity:1;fill:#000000" />
    <path
       d="m 182.58,634.57976 c 11.71,-6.76 26.61,-9.18 39.24,-3.51 4.87,10.92 3.78,23.7 -1.1,34.42 -8.17,18.12 -25.46,32.06 -45.07,35.66 0.91,-2.72 2.51,-5.32 2.37,-8.28 -0.05,-6.35 0.26,-12.7 1.01,-19 -6.32,0.7 -12.67,1.04 -19.03,0.99 -2.95,-0.12 -5.56,1.43 -8.26,2.37 3.25,-17.86 15.13,-33.73 30.84,-42.65 m 3.84,2.85 c -13.22,7 -23.8,19.11 -28.62,33.31 8.73,-0.35 17.52,-0.34 26.17,-1.79 -1.52,8.63 -1.5,17.42 -1.82,26.14 14.43,-4.91 26.67,-15.74 33.62,-29.26 4.96,-9.52 6.77,-21.23 2.71,-31.39 -10.39,-4.22 -22.38,-2.19 -32.06,2.99 z"
       id="path109"
       inkscape:connector-curvature="0"
       style="opacity:1;fill:#000000" />
    <path
       d="m 602.19,631.04976 c 10.9,-4.85 23.64,-3.77 34.34,1.07 18.16,8.17 32.13,25.47 35.74,45.12 -2.72,-0.95 -5.35,-2.52 -8.32,-2.38 -6.34,0.05 -12.68,-0.3 -18.98,-0.99 0.75,6.3 1.04,12.65 1.01,19 -0.13,2.96 1.45,5.57 2.38,8.29 -18.17,-3.31 -34.27,-15.53 -43.1,-31.64 -6.43,-11.57 -8.61,-26.12 -3.07,-38.47 m 3.24,3.29 c -3.3,9.01 -2.63,19.14 1.13,27.9 6.48,15.21 19.62,27.51 35.29,32.85 -0.35,-8.72 -0.27,-17.5 -1.85,-26.1 8.67,1.37 17.45,1.41 26.2,1.75 -5.41,-15.85 -17.94,-29.19 -33.44,-35.53 -8.62,-3.57 -18.53,-4.12 -27.33,-0.87 z"
       id="path111"
       inkscape:connector-curvature="0"
       style="opacity:1;fill:#000000" />
    <path
       d="m 274.01,707.80976 c 7.6,-10.03 19.21,-17.75 32.05,-18.25 1.43,0.02 3.24,-0.37 4.23,0.99 5.19,5.48 8.65,12.51 10.03,19.92 4.09,23.44 -7.27,48.57 -27.19,61.46 -0.14,-3.07 0.25,-6.29 -0.99,-9.18 -2.23,-5.73 -4.63,-11.41 -6.3,-17.34 -7.69,4.97 -17.6,6.26 -23.87,13.34 -3.69,-17.66 1.08,-36.7 12.04,-50.94 m 10.86,-5.08 c -13.62,11.64 -20.8,29.96 -19.86,47.73 5.08,-2.61 10.5,-4.46 15.55,-7.11 2.82,-1.33 5.34,-3.23 8.26,-4.34 1.38,8.58 5.31,16.41 8.2,24.53 11.68,-10.17 18.81,-25.23 19.95,-40.62 0.65,-10.42 -2.38,-21.18 -9.38,-29.05 -8.37,-0.27 -16.43,3.56 -22.72,8.86 z"
       id="path113"
       inkscape:connector-curvature="0"
       style="opacity:1;fill:#000000" />
    <path
       d="m 514.34,689.95976 c 5.37,-1.2 11.06,0.51 16.13,2.41 13.41,5.59 23.13,17.77 28.32,31.06 4.43,11.14 5.68,23.57 3.24,35.33 -6.26,-7.09 -16.18,-8.37 -23.86,-13.36 -1.68,5.92 -4.07,11.59 -6.3,17.32 -1.26,2.9 -0.86,6.13 -1.01,9.22 -14.33,-9.29 -24.17,-24.89 -27.15,-41.64 -2.47,-14.05 -0.02,-30.06 10.63,-40.34 m 2.05,3.92 c -7.92,8.93 -10.72,21.51 -8.92,33.16 2.03,13.91 8.86,27.28 19.54,36.51 3.01,-8.2 6.55,-16.22 8.5,-24.77 7.26,4.98 15.61,7.88 23.48,11.68 0.8,-15.65 -4.61,-31.75 -15.29,-43.3 -6.92,-7.64 -16.72,-13.59 -27.31,-13.28 z"
       id="path115"
       inkscape:connector-curvature="0"
       style="opacity:1;fill:#000000" />
    <path
       d="m 385.68,744.68976 c 2.63,-14.86 11.85,-29.28 26.31,-34.91 13.67,5.31 22.77,18.55 25.81,32.54 3.62,16.77 1.31,35.65 -9.05,49.68 -1.1,-2.96 -2.31,-5.98 -4.63,-8.2 -4.23,-4.18 -8.23,-8.57 -12.1,-13.07 -3.93,4.46 -7.89,8.89 -12.13,13.06 -2.34,2.24 -3.54,5.28 -4.68,8.24 -9.84,-13.44 -12.33,-31.19 -9.53,-47.34 m 5.33,-3.93 c -3.9,13.94 -2.55,29.22 3.62,42.32 5.89,-6.49 12.38,-12.45 17.37,-19.72 4.98,7.27 11.48,13.23 17.37,19.73 5.51,-11.61 7.07,-24.9 4.78,-37.5 -2.24,-11.83 -8.61,-23.49 -19.29,-29.63 -1.24,-0.52 -2.65,-1.86 -4,-0.85 -10.17,4.87 -16.83,15.05 -19.85,25.65 z"
       id="path117"
       inkscape:connector-curvature="0"
       style="opacity:1;fill:#000000" />
  </g>
</svg>
