<?xml version="1.0" encoding="UTF-8" standalone="no"?>
<svg
   xmlns:dc="http://purl.org/dc/elements/1.1/"
   xmlns:cc="http://creativecommons.org/ns#"
   xmlns:rdf="http://www.w3.org/1999/02/22-rdf-syntax-ns#"
   xmlns:svg="http://www.w3.org/2000/svg"
   xmlns="http://www.w3.org/2000/svg"
   xmlns:sodipodi="http://sodipodi.sourceforge.net/DTD/sodipodi-0.dtd"
   xmlns:inkscape="http://www.inkscape.org/namespaces/inkscape"
   width="210mm"
   height="297mm"
   viewBox="0 0 595.27559 841.88976"
   version="1.1"
   id="svg264"
   sodipodi:docname="mandala_pattern_1.svg"
   inkscape:version="0.92.4 (5da689c313, 2019-01-14)"
   inkscape:export-filename="D:\repo\acb-website\src\images\mandala_pattern_1.png"
   inkscape:export-xdpi="96"
   inkscape:export-ydpi="96">
  <title
     id="title1130">Mandala Abstract Pattern</title>
  <metadata
     id="metadata270">
    <rdf:RDF>
      <cc:Work
         rdf:about="">
        <dc:format>image/svg+xml</dc:format>
        <dc:type
           rdf:resource="http://purl.org/dc/dcmitype/StillImage" />
        <dc:title>Mandala Abstract Pattern</dc:title>
        <dc:date>2020-05-17</dc:date>
        <dc:creator>
          <cc:Agent>
            <dc:title>Lena London</dc:title>
          </cc:Agent>
        </dc:creator>
        <dc:source>http://www.supercoloring.com/coloring-pages/mandala-with-abstract-pattern</dc:source>
        <dc:subject>
          <rdf:Bag>
            <rdf:li>acb</rdf:li>
            <rdf:li>mandala</rdf:li>
          </rdf:Bag>
        </dc:subject>
        <cc:license
           rdf:resource="http://creativecommons.org/licenses/by-sa/4.0/" />
      </cc:Work>
      <cc:License
         rdf:about="http://creativecommons.org/licenses/by-sa/4.0/">
        <cc:permits
           rdf:resource="http://creativecommons.org/ns#Reproduction" />
        <cc:permits
           rdf:resource="http://creativecommons.org/ns#Distribution" />
        <cc:requires
           rdf:resource="http://creativecommons.org/ns#Notice" />
        <cc:requires
           rdf:resource="http://creativecommons.org/ns#Attribution" />
        <cc:permits
           rdf:resource="http://creativecommons.org/ns#DerivativeWorks" />
        <cc:requires
           rdf:resource="http://creativecommons.org/ns#ShareAlike" />
      </cc:License>
    </rdf:RDF>
  </metadata>
  <defs
     id="defs268" />
  <sodipodi:namedview
     pagecolor="#ffffff"
     bordercolor="#666666"
     borderopacity="1"
     objecttolerance="10"
     gridtolerance="10"
     guidetolerance="10"
     inkscape:pageopacity="0"
     inkscape:pageshadow="2"
     inkscape:window-width="3840"
     inkscape:window-height="2004"
     id="namedview266"
     showgrid="false"
     units="mm"
     inkscape:zoom="1.2361274"
     inkscape:cx="699.83714"
     inkscape:cy="188.91217"
     inkscape:window-x="-16"
     inkscape:window-y="-16"
     inkscape:window-maximized="1"
     inkscape:current-layer="svg264" />
  <g
     id="g1128"
     transform="matrix(0.76579149,0,0,0.76579149,-17.865664,107.74864)">
    <path
       d="m 378.48,25.75 c 42.5,-3.65 85.62,-0.42 127.03,9.93 69.74,17.38 134.39,54.8 183.96,106.85 58.23,60.07 95.75,139.83 104.8,223.02 7.06,62.97 -1.29,127.72 -25.02,186.55 -24.35,61.13 -64.93,115.56 -116.17,156.78 -59.21,47.87 -133.02,77.48 -208.94,83.49 -36.75,2.94 -73.94,0.92 -110.07,-6.52 C 294.2,777.65 255.69,763 220.39,742.74 151.29,703.06 94.92,641.47 61.96,568.88 26.38,491.77 18.1,402.75 37.54,320.18 53.46,252.83 87.92,189.88 136.48,140.52 199.83,74.84 287.49,33.16 378.48,25.75 m 3.2,4.17 C 328.22,34.08 275.72,49.89 228.81,75.86 162.58,112.31 107.65,168.92 73.31,236.28 45.08,291.21 30.58,353.19 31.88,414.96 c 0.74,86.76 33.26,172.62 89.33,238.75 50.83,60.56 120.93,104.79 197.67,124 45.57,11.64 93.32,14.33 139.98,8.7 59.06,-7.27 116.31,-28.76 165.54,-62.19 54.87,-36.98 99.85,-88.5 129,-147.91 31.51,-63.5 44.19,-136 36.86,-206.45 C 785.77,325.63 773.33,282.2 753.7,242.3 719.39,171.91 662.74,112.71 594,75.21 529.67,39.76 454.85,23.96 381.68,29.92 Z"
       id="path205"
       inkscape:connector-curvature="0"
       style="opacity:1;fill:#000000" />
    <path
       d="m 380.61,56.8 c 46.17,-4.12 93.18,0.83 137.42,14.73 40.57,12.76 78.84,32.87 112.27,59.19 28.43,22.4 53.48,49.09 73.92,78.98 22.53,32.98 39.39,69.82 49.63,108.42 20.07,75.71 14.4,158.13 -16.7,230.1 -27.72,65.21 -75.82,121.43 -135.59,159.4 C 541.4,746.03 469.35,765.4 398.05,762.27 318.11,759.62 239.56,728.28 179.52,675.48 150.51,650.1 125.52,620.09 106.18,586.73 82.18,545.49 66.61,499.34 60.97,451.95 56.98,418.77 57.64,385.04 62.93,352.04 74.31,281.06 108.11,213.81 158.49,162.51 216.6,102.12 297.06,63.73 380.61,56.8 m -4.32,5.18 c -8.45,9.21 -11.29,22.01 -13.19,34.01 -3.02,22.09 -1.29,44.51 2.03,66.46 30.92,-5.71 62.82,-5.71 93.74,0 3.07,-19.98 4.64,-40.31 2.78,-60.49 -1.45,-12.62 -3.83,-25.7 -11,-36.47 -1.32,-1.49 -2.28,-3.91 -4.56,-4.01 -18.65,-1.87 -37.48,-2.1 -56.19,-0.97 -4.5,0.64 -9.27,0.09 -13.61,1.47 m -58.2,10.52 c 7.9,5.51 14.46,12.73 19.7,20.78 8.61,13.16 14.97,27.71 19.83,42.64 -0.64,-8.3 -0.57,-16.62 -0.44,-24.94 1.05,-16.8 3.21,-34.5 12.89,-48.78 -17.53,2.29 -34.87,5.86 -51.98,10.3 M 453.92,62.2 c 3.52,5.17 6.13,10.92 7.94,16.9 5.43,18.4 5.61,37.87 4.56,56.88 4.19,-13.38 9.88,-26.33 17.05,-38.38 5.8,-9.68 13.06,-18.69 22.46,-25.08 C 488.81,68.04 471.46,64.5 453.92,62.2 m -207.57,39.38 c -4.89,12.84 -1.95,27.02 1.43,39.86 5.87,20.44 15.52,39.58 26.58,57.67 26.24,-17.1 55.63,-29.58 86.4,-35.65 -1.99,-9.61 -4.95,-18.99 -8.07,-28.28 -5.38,-15.23 -11.97,-30.23 -21.49,-43.37 -5.15,-7 -11.35,-13.55 -19.31,-17.33 -22.74,6.68 -44.57,16.11 -65.54,27.1 m 245.59,-8.59 c -9.06,12.89 -15.43,27.45 -20.65,42.26 -3.12,9.26 -6.05,18.62 -8.05,28.19 30.77,6.1 60.15,18.57 86.41,35.67 12.33,-20.29 23.14,-41.88 28.43,-65.16 2.2,-10.57 3.65,-22.09 -0.46,-32.39 -20.97,-10.96 -42.79,-20.43 -65.54,-27.07 -8.39,4.02 -14.82,11.05 -20.14,18.5 m -295.63,41.62 c 9.61,0.87 18.22,5.95 26.17,11.07 12.87,8.67 24.08,19.58 34.3,31.21 -6.9,-14.53 -13.02,-29.59 -15.98,-45.46 -1.53,-8.72 -2.14,-17.75 -0.31,-26.48 -15.45,8.75 -30.21,18.71 -44.18,29.66 m 387.21,-29.64 c 1.63,7.95 1.31,16.17 0.06,24.15 -2.75,16.73 -9.12,32.62 -16.43,47.83 12.19,-13.79 25.72,-26.81 41.88,-35.87 5.83,-3.04 11.98,-6.06 18.66,-6.47 -13.96,-10.95 -28.73,-20.9 -44.17,-29.64 m -442.3,84.01 c 0.07,5.21 1.79,10.23 3.77,15 6.02,13.39 15.64,24.74 25.75,35.23 10.42,10.46 21.81,19.92 33.76,28.59 17.77,-25.89 40.34,-48.38 66.14,-66.25 -15.8,-21.26 -33.55,-41.96 -56.52,-55.71 -6.79,-3.9 -14.25,-7.09 -22.16,-7.55 -18.7,14.92 -35.72,32.07 -50.74,50.69 m 456.55,-35 c -17.27,13.33 -31.54,30.08 -44.42,47.59 25.82,17.85 48.37,40.36 66.16,66.23 19.3,-14.16 37.73,-30.11 51.55,-49.82 5.81,-8.65 11.19,-18.31 11.71,-28.95 -14.65,-18.46 -31.61,-35.09 -49.76,-50.13 -1.14,-1.11 -2.82,-0.39 -4.17,-0.3 -11.62,1.9 -21.81,8.42 -31.07,15.38 m -270.61,23.63 c 9.75,23.83 19.84,47.52 29.43,71.41 14.69,-4.84 29.94,-7.94 45.38,-8.96 0.06,-25.74 0.02,-51.47 0.03,-77.2 -25.53,0.86 -50.84,6.08 -74.84,14.75 m 79.08,62.32 c 3.92,0.1 7.84,0.06 11.76,0.07 0,-25.8 0.01,-51.6 -0.01,-77.4 -3.85,-0.01 -7.7,0.02 -11.55,-0.08 -0.37,25.8 0.02,51.61 -0.2,77.41 M 422.25,163 c 0.08,25.64 0.07,51.29 0.01,76.93 15.33,1.37 30.54,4.16 45.15,9.1 9.58,-23.9 19.69,-47.58 29.43,-71.42 C 472.92,169.05 447.7,163.59 422.25,163 m -109.87,20.64 c 9.76,23.84 19.65,47.64 29.57,71.41 3.4,-1.64 6.91,-3.04 10.46,-4.33 -8.89,-22.38 -18.41,-44.5 -27.48,-66.81 -0.64,-1.61 -1.4,-3.18 -2.28,-4.67 -3.38,1.56 -6.85,2.93 -10.27,4.4 m 184.19,6.39 c -8.28,20.25 -16.92,40.35 -24.98,60.69 3.54,1.29 7.05,2.69 10.45,4.33 9.97,-23.78 19.8,-47.61 29.61,-71.45 -3.45,-1.39 -6.9,-2.79 -10.28,-4.36 -2.06,3.37 -3.18,7.2 -4.8,10.79 m -190.62,-3.38 c -22.19,10.59 -42.68,24.64 -60.83,41.21 18.28,18.1 36.21,36.6 54.71,54.43 11.61,-9.93 24.27,-18.69 38.04,-25.36 -9.84,-23.66 -19.74,-47.3 -29.37,-71.04 -0.88,0.18 -1.73,0.43 -2.55,0.76 m 209.56,-0.77 c -9.63,23.75 -19.54,47.39 -29.38,71.07 13.8,6.71 26.58,15.41 38.13,25.49 18.25,-18.15 36.42,-36.39 54.62,-54.58 -16.49,-15.02 -34.85,-28.01 -54.71,-38.18 -2.84,-1.36 -5.54,-3.15 -8.66,-3.8 M 107.9,237.66 c 9.6,-2.19 19.56,-1.09 29.11,0.8 14.91,3.11 29.06,8.97 42.78,15.45 -11.34,-9.94 -21.97,-20.84 -30.56,-33.28 -5.48,-8.07 -10.27,-16.89 -11.98,-26.59 -11.09,13.59 -20.69,28.38 -29.35,43.62 m 578.84,-43.6 c -1.67,9.43 -6.26,18.05 -11.54,25.94 -8.67,12.68 -19.42,23.82 -30.99,33.87 8.15,-3.67 16.25,-7.49 24.75,-10.32 15.02,-5.06 31.28,-9.18 47.14,-5.88 -8.66,-15.25 -18.27,-30.03 -29.36,-43.61 m -452.96,44.98 c 18.21,18.22 36.42,36.43 54.64,54.63 2.46,-2.8 5.02,-5.53 7.94,-7.87 -18,-18.47 -36.48,-36.47 -54.59,-54.82 -2.68,2.66 -5.39,5.31 -7.99,8.06 m 348.45,-8.06 c -18.16,18.18 -36.25,36.45 -54.57,54.48 2.58,2.79 5.49,5.26 7.91,8.22 18.22,-18.23 36.5,-36.4 54.65,-54.71 -2.65,-2.68 -5.31,-5.35 -7.99,-7.99 m -478.38,13.95 c -10.77,20.43 -19.93,41.81 -26.29,64.03 1.61,4.45 4.81,8.1 7.94,11.58 10.75,10.61 24.37,17.67 38.07,23.7 13.85,5.79 28.21,10.43 42.87,13.68 6.01,-30.82 18.57,-60.2 35.61,-86.51 -16.53,-9.79 -33.67,-18.84 -52,-24.78 -12.82,-3.94 -26.48,-7.32 -39.93,-4.89 -2.19,0.67 -5.35,0.65 -6.27,3.19 m 576.64,-0.24 c -20.8,5.73 -40.08,15.78 -58.54,26.73 17.06,26.21 29.4,55.54 35.64,86.2 l 0.43,0.24 c 21.2,-5 42.12,-12.08 61.1,-22.91 10.84,-6.44 21.93,-14.19 27.45,-25.93 -6.79,-22.66 -15.89,-44.64 -27.19,-65.42 -2.45,-1.53 -5.44,-1.82 -8.21,-2.33 -10.33,-1.2 -20.73,0.75 -30.68,3.42 m -491.92,61 c 23.81,9.68 47.49,19.68 71.27,29.43 6.64,-13.83 15.38,-26.55 25.38,-38.14 -18.14,-18.22 -36.37,-36.35 -54.51,-54.56 -17.18,18.73 -31.81,40.02 -42.14,63.27 m 350.33,-8.71 c 9.83,11.69 18.68,24.3 25.25,38.13 23.77,-9.71 47.41,-19.76 71.23,-29.37 -1.34,-4.07 -3.52,-7.78 -5.46,-11.57 -9.9,-18.74 -22.25,-36.17 -36.6,-51.76 -18.11,18.22 -36.43,36.24 -54.42,54.57 M 397.66,244.91 c -32.36,2.69 -63.76,15.47 -88.95,35.93 -26.9,21.64 -46.78,51.88 -55.75,85.23 -11.48,41.82 -5.43,88.1 16.59,125.48 18.95,32.73 49.48,58.6 84.96,71.77 37.29,14.11 79.77,13.85 116.88,-0.72 37.47,-14.42 69.14,-43.11 87.34,-78.87 18.54,-35.88 22.98,-78.73 12.29,-117.66 -8.98,-33.55 -29.06,-63.93 -56.18,-85.59 -32.54,-26.37 -75.47,-39.45 -117.18,-35.57 m -211.35,65.02 c -1.31,3.47 -2.84,6.86 -4.16,10.33 23.79,9.84 47.55,19.79 71.39,29.52 1.38,-3.56 2.71,-7.15 4.43,-10.56 -22.97,-9.53 -45.95,-19.03 -68.92,-28.56 -0.9,-0.32 -1.81,-0.56 -2.74,-0.73 m 443.42,2.91 c -21.24,8.77 -42.46,17.59 -63.7,26.37 1.72,3.43 3.05,7.03 4.46,10.59 23.81,-9.81 47.6,-19.66 71.37,-29.56 -1.35,-3.46 -2.87,-6.84 -4.17,-10.31 -2.82,0.45 -5.33,1.9 -7.96,2.91 m -554.24,2.43 c -4.43,17.04 -8.11,34.3 -10.18,51.8 9.05,-6.3 19.93,-9.17 30.67,-10.98 13.94,-2.05 28.12,-2.52 42.17,-1.3 -12.41,-4.66 -24.86,-9.44 -36.26,-16.29 -10.14,-5.98 -19.81,-13.32 -26.4,-23.23 m 657.6,15.93 c -14.14,10.62 -30.59,17.61 -47.17,23.44 15.18,-0.95 30.52,-0.67 45.52,2.06 9.57,1.86 19.17,4.74 27.26,10.36 -2.09,-17.5 -5.75,-34.76 -10.19,-51.8 -4.14,6.19 -9.47,11.5 -15.42,15.94 m -552.7,-6.56 c -8.47,23.89 -13.7,49 -14.53,74.36 25.73,0.1 51.46,0.2 77.19,0.07 1.14,-15.28 3.82,-30.51 8.99,-44.97 -23.89,-9.79 -47.61,-20.05 -71.65,-29.46 m 391.57,29.46 c 5.17,14.43 7.81,29.64 9,44.89 25.72,0.13 51.45,0.18 77.18,0.11 -0.92,-25.43 -5.87,-50.77 -14.77,-74.61 -23.79,9.9 -47.62,19.69 -71.41,29.61 m -470.9,5.85 c -12.67,1.76 -26.21,4.55 -36.05,13.3 -1.5,5 -0.92,10.45 -1.63,15.62 -0.92,18.56 -0.81,37.24 1.34,55.71 2.45,2.87 5.98,4.68 9.26,6.48 15.29,7.16 32.48,8.23 49.11,8.66 14.2,-0.46 28.47,-1.24 42.44,-4 -2.28,-11.79 -3.58,-23.75 -4.11,-35.75 -1.12,-19.32 0.88,-38.67 3.89,-57.74 -21.23,-3.15 -42.87,-4.95 -64.25,-2.28 m 557.6,2.3 c 5.4,30.86 5.76,62.68 -0.18,93.5 22.59,3.91 45.86,5.35 68.62,1.99 11.32,-1.97 23.23,-4.9 31.98,-12.78 2.47,-17.17 2.19,-34.7 1.8,-52.04 -0.59,-6.44 -0.56,-12.98 -1.67,-19.36 -7.5,-7.29 -18.05,-10.18 -28.02,-12.32 -23.97,-4.44 -48.58,-2.56 -72.53,1.01 m -493.08,41.08 c 0.01,3.84 0.06,7.68 -0.08,11.53 3.15,0.39 6.33,0.26 9.5,0.26 22.67,0 45.33,0 67.99,0 0.01,-3.85 0.01,-7.69 0.01,-11.53 -19.67,-0.02 -39.33,0.03 -59,-0.02 -6.13,-0.4 -12.28,-0.29 -18.42,-0.24 m 415.48,-0.08 c -0.09,3.95 -0.06,7.91 -0.05,11.87 25.8,0.1 51.59,-0.17 77.4,-0.12 0,-3.8 0.01,-7.59 -0.02,-11.39 -25.78,-0.06 -51.56,0.13 -77.33,-0.36 m -415.08,16.01 c 0.6,25.49 6.15,50.69 14.62,74.69 23.87,-9.65 47.53,-19.84 71.44,-29.41 -0.76,-3.29 -2.02,-6.44 -2.89,-9.7 -3.45,-11.59 -4.91,-23.61 -6.22,-35.59 -25.65,0.08 -51.3,0.06 -76.95,0.01 m 457.04,0.33 c -14.02,0.01 -28.04,-0.01 -42.05,0 -1.23,15.28 -4.21,30.39 -9.01,44.95 23.91,9.57 47.57,19.77 71.45,29.4 8.45,-24 14.03,-49.2 14.61,-74.68 -11.67,0.21 -23.35,-0.28 -35,0.33 M 65.35,451.21 c 2.06,17.44 5.76,34.63 10.17,51.62 7.64,-10.98 18.68,-19.02 30.33,-25.31 10.25,-5.79 21.32,-9.88 32.29,-14.06 -13.4,1.04 -26.94,0.8 -40.26,-1.02 -11.38,-1.7 -22.93,-4.63 -32.53,-11.23 m 661.55,11.11 c -13.56,1.98 -27.34,2.13 -40.99,1.19 8.08,3.07 16.22,6.01 24.01,9.79 14.65,7.04 29.11,15.97 38.57,29.53 4.39,-16.99 8.11,-34.18 10.16,-51.62 -9.38,6.45 -20.63,9.4 -31.75,11.11 M 96.67,488.49 c -7.69,5.44 -15.08,11.92 -19.21,20.57 6.7,22.45 15.78,44.18 26.84,64.83 0.66,1.69 2.74,1.74 4.22,2.29 11.52,2.59 23.46,0.45 34.69,-2.53 20.91,-5.82 40.47,-15.69 58.93,-26.98 -17.15,-26.23 -29.5,-55.64 -35.73,-86.37 -24.43,5.81 -48.76,14.08 -69.74,28.19 m 560.94,-28.2 c -6.26,30.73 -18.6,60.14 -35.75,86.38 19.97,12.17 41.23,22.85 64.1,28.28 10.74,2.28 22.45,4.07 32.98,0.02 11.65,-20.81 20.71,-43.11 27.6,-65.96 -5.64,-11.35 -16.29,-19.08 -26.92,-25.41 -19.22,-11.11 -40.49,-18.22 -62.01,-23.31 m -438.6,22.66 c -12.22,5.22 -24.68,9.92 -36.75,15.47 1.64,3.38 2.91,6.93 4.49,10.34 22.73,-9.34 45.4,-18.84 68.13,-28.16 1,-0.54 2.33,-0.69 3.06,-1.6 -1.38,-3.45 -2.95,-6.83 -4.24,-10.31 -11.63,4.58 -23.11,9.54 -34.69,14.26 M 570.3,468.69 c -1.38,3.53 -2.8,7.05 -4.4,10.49 23.74,9.94 47.55,19.73 71.33,29.59 1.6,-3.43 2.89,-6.99 4.51,-10.41 -23.69,-10.15 -47.57,-19.92 -71.44,-29.67 m -381.32,43.87 c 0.83,4.15 3.42,7.68 5.22,11.47 9.91,18.77 22.33,36.19 36.69,51.81 18.19,-18.2 36.43,-36.34 54.55,-54.59 -10.03,-11.53 -18.73,-24.24 -25.42,-37.98 -23.68,9.76 -47.26,19.79 -71.04,29.29 m 349.58,8.69 c 18.12,18.25 36.36,36.39 54.54,54.58 14.78,-16.03 27.45,-34.01 37.53,-53.35 1.52,-3.17 3.51,-6.18 4.46,-9.59 -23.57,-10.13 -47.44,-19.66 -71.1,-29.63 -6.7,13.75 -15.4,26.46 -25.43,37.99 m -250.09,3.4 c -18.01,18.38 -36.44,36.37 -54.49,54.71 2.75,2.54 5.32,5.27 8.03,7.86 18.26,-18.17 36.43,-36.43 54.66,-54.62 -2.9,-2.48 -5.42,-5.35 -8.2,-7.95 m 238.85,7.94 c 18.23,18.2 36.41,36.45 54.67,54.63 2.71,-2.59 5.27,-5.32 8.03,-7.86 -18.05,-18.34 -36.48,-36.33 -54.49,-54.71 -2.79,2.59 -5.29,5.48 -8.21,7.94 m -281.85,57.67 c 18.61,17.24 39.94,31.77 63.12,42.12 9.65,-23.82 19.6,-47.51 29.45,-71.25 -13.71,-6.69 -26.49,-15.25 -37.94,-25.34 -18.37,18 -36.39,36.34 -54.63,54.47 m 240.49,-29.13 c 9.83,23.72 19.81,47.39 29.41,71.2 4.1,-1.36 7.85,-3.55 11.67,-5.54 18.63,-9.89 36.05,-22.12 51.5,-36.5 -18.22,-18.16 -36.27,-36.49 -54.64,-54.49 -11.46,10.06 -24.21,18.66 -37.94,25.33 m -315.05,17.72 c -11.89,12.49 -23.69,26.19 -28.61,43.06 -0.53,3 -2.31,6.87 0.51,9.22 14.76,17.86 31.38,34.1 49.19,48.91 13.13,-1.09 24.61,-8.45 34.84,-16.23 17.02,-13.38 31.32,-29.91 43.92,-47.44 -25.86,-17.63 -48.36,-40.13 -66.02,-65.96 -12.08,8.47 -23.35,18.07 -33.83,28.44 m 382.32,37.58 c 12.11,16.73 25.7,32.57 41.74,45.66 10.81,8.49 22.95,16.74 37.04,17.95 18.31,-15.25 35.44,-31.98 50.44,-50.52 0.73,-1.83 -0.11,-3.97 -0.32,-5.87 -2.81,-11.86 -9.74,-22.22 -17.25,-31.62 -13.07,-16 -28.83,-29.66 -45.62,-41.62 -17.65,25.87 -40.22,48.31 -66.03,66.02 M 342.12,563.01 c -9.81,23.66 -19.76,47.28 -29.34,71.03 2.87,2.42 7.02,3.11 10.46,4.64 9.76,-23.73 19.58,-47.44 29.47,-71.13 -3.52,-1.55 -7.13,-2.87 -10.59,-4.54 m 129.17,4.58 c 9.93,23.66 19.69,47.39 29.49,71.11 3.61,-1.31 7.21,-2.69 10.65,-4.42 -9.84,-23.76 -19.63,-47.55 -29.56,-71.27 -3.45,1.69 -7.09,2.96 -10.58,4.58 m -330.32,11.32 c -10.72,2.49 -21.94,4.11 -32.84,1.79 8.62,15.14 18.15,29.83 29.21,43.3 1.17,-7.58 4.71,-14.5 8.48,-21.08 9.04,-14.71 21.1,-27.32 34.04,-38.65 -12.5,6.02 -25.41,11.31 -38.89,14.64 m 503.19,-14.62 c 7.35,6.44 14.4,13.26 20.76,20.69 9.64,11.36 18.9,24.09 21.74,39.02 11.03,-13.46 20.61,-28.11 29.15,-43.27 -4.9,0.78 -9.88,1.51 -14.84,0.99 -19.99,-1.37 -38.89,-8.92 -56.81,-17.43 m -316.83,76.12 c 23.93,8.72 49.21,13.82 74.67,14.73 0,-25.73 0,-51.46 0,-77.19 -15.3,-1.11 -30.47,-3.98 -45,-8.91 -10.06,23.71 -19.74,47.6 -29.67,71.37 m 94.92,-62.34 c 0.08,25.65 0.07,51.3 0.01,76.95 25.37,-0.67 50.56,-5.99 74.41,-14.62 -9.9,-23.81 -19.72,-47.66 -29.64,-71.47 -14.4,5.23 -29.6,7.63 -44.78,9.14 m -16.01,0.01 c 0.23,25.8 -0.18,51.6 0.2,77.4 3.85,-0.11 7.7,-0.08 11.56,-0.07 0,-25.8 0,-51.61 0,-77.41 -3.92,0 -7.84,-0.03 -11.76,0.08 m -131.83,40.88 c -8.36,13.9 -16.08,28.25 -21.82,43.45 -5.41,14.54 -9.94,29.99 -8.47,45.66 0.51,2.8 0.68,5.96 2.47,8.3 20.82,11.32 42.85,20.42 65.55,27.22 11.91,-5.76 19.67,-17.16 26.21,-28.23 10.6,-18.94 17.65,-39.72 22.49,-60.82 -30.79,-6.03 -60.13,-18.58 -86.43,-35.58 m 188.76,35.58 c 4.83,21.11 11.88,41.9 22.5,60.84 6.52,11.06 14.28,22.41 26.16,28.21 22.82,-6.69 44.74,-16.15 65.8,-27.14 1.06,-2.31 1.74,-4.78 2.1,-7.28 1.51,-12.22 -1.06,-24.48 -4.63,-36.12 -5.94,-19.12 -15.22,-36.99 -25.5,-54.09 -26.31,17 -55.65,29.55 -86.43,35.58 m -206.4,-13.21 c -5.91,6.87 -12.32,13.31 -19.04,19.38 -11.71,10.22 -24.81,19.77 -40.26,23.19 0.27,0.84 1.26,1.18 1.84,1.81 13.07,9.98 26.74,19.2 41.1,27.22 -1.61,-8.2 -1.2,-16.65 0.18,-24.84 2.8,-16.36 9.15,-31.82 16.18,-46.76 m 310.45,-0.02 c 4.5,9.72 8.88,19.53 12.03,29.79 4.1,13.45 7.04,27.8 4.34,41.82 15.13,-8.52 29.68,-18.15 43.23,-29.03 -9.66,-1.95 -18.51,-6.59 -26.56,-12.14 -12.32,-8.6 -23.19,-19.13 -33.04,-30.44 M 365.13,655.6 c -3.61,24.63 -5.6,50 -0.63,74.59 2.16,9.28 5.04,19.12 11.88,26.08 18.11,2.13 36.44,2.22 54.65,1.42 5.62,-0.65 11.37,-0.38 16.9,-1.58 7.67,-8.59 10.61,-20.21 12.58,-31.27 3.6,-22.96 1.75,-46.37 -1.64,-69.24 -9.94,1.53 -19.88,3.13 -29.93,3.62 -21.31,1.72 -42.77,-0.07 -63.81,-3.62 m -17.26,51.35 c -7.12,14.56 -15.8,29.28 -29.55,38.51 16.9,4.54 34.09,8.07 51.47,10.19 -3.26,-4.98 -5.79,-10.42 -7.52,-16.1 -5.56,-18.55 -5.78,-38.2 -4.67,-57.38 -2.51,8.52 -6,16.73 -9.73,24.78 m 118.95,-0.03 c -0.98,16.76 -3.15,34.37 -12.6,48.72 17.38,-2.08 34.53,-5.69 51.44,-10.14 -7.34,-4.96 -13.36,-11.61 -18.34,-18.89 -9.2,-13.61 -15.97,-28.8 -20.94,-44.43 0.62,8.23 0.58,16.49 0.44,24.74 z"
       id="path207"
       inkscape:connector-curvature="0"
       style="opacity:1;fill:#000000" />
    <path
       d="m 406.43,91.65 c 7.78,-2.6 17.14,0.81 20.82,8.29 4.05,7.51 1.57,17.98 -5.8,22.48 -7.81,5.27 -19.75,2.7 -24.31,-5.67 -5.49,-8.93 -0.85,-22.03 9.29,-25.1 m 2.06,4.06 c -5.32,1.49 -9.41,6.72 -9.24,12.3 -0.22,6.83 6.01,13 12.84,12.74 7.15,0.19 13.4,-6.65 12.65,-13.76 -0.39,-7.72 -8.85,-13.73 -16.25,-11.28 z"
       id="path209"
       inkscape:connector-curvature="0"
       style="opacity:1;fill:#000000" />
    <path
       d="m 291.49,114.52 c 5.38,-1.71 11.7,-0.77 16.08,2.9 5.16,4.04 7.65,11.21 5.98,17.57 -1.3,5.67 -5.74,10.46 -11.26,12.27 -8.38,2.96 -18.58,-1.65 -21.55,-10.11 -3.55,-8.83 1.45,-20 10.75,-22.63 m 3.51,3.65 c -3.36,0.69 -6.53,2.47 -8.56,5.28 -4.66,5.94 -2.27,15.35 4.38,18.72 6.87,4.08 16.67,-0.35 18.33,-8.11 2.63,-8.35 -5.61,-17.37 -14.15,-15.89 z"
       id="path211"
       inkscape:connector-curvature="0"
       style="opacity:1;fill:#000000" />
    <path
       d="m 521.43,114.62 c 6.79,-2.35 14.98,-0.15 19.35,5.64 6.09,7.59 4.19,20.21 -4.32,25.19 -8.34,5.64 -21.01,1.96 -24.92,-7.34 -4.39,-8.78 0.59,-20.46 9.89,-23.49 m 2.1,4.05 c -4.5,1.29 -8.03,5.24 -8.88,9.83 -1.48,6.54 3.26,13.53 9.77,14.9 7.56,1.95 15.67,-4.61 15.59,-12.35 0.3,-8.18 -8.67,-15.2 -16.48,-12.38 z"
       id="path213"
       inkscape:connector-curvature="0"
       style="opacity:1;fill:#000000" />
    <path
       d="m 194.47,179.55 c 10.06,-3.2 21.68,4.86 21.82,15.49 0.95,9.29 -6.95,18.25 -16.33,18.26 -9.16,0.84 -17.82,-7.06 -17.99,-16.22 -0.62,-7.84 4.95,-15.5 12.5,-17.53 m 2.06,4.11 c -4.86,0.96 -8.91,5 -9.86,9.87 -1.62,6.45 2.92,13.42 9.3,15 8.84,2.83 18.35,-6.66 15.58,-15.51 -1.56,-6.4 -8.55,-10.98 -15.02,-9.36 z"
       id="path215"
       inkscape:connector-curvature="0"
       style="opacity:1;fill:#000000" />
    <path
       d="m 620.38,179.5 c 10.04,-3.07 21.32,5.05 21.65,15.51 0.95,9.49 -7.38,18.65 -16.97,18.31 -9,0.46 -17.3,-7.33 -17.36,-16.34 -0.67,-7.89 5.01,-15.63 12.68,-17.48 m 1.22,4.3 c -4.03,1.06 -7.42,4.14 -8.76,8.1 -3.03,7.14 2.47,15.85 9.99,16.91 8.37,1.66 16.7,-6.96 14.51,-15.28 -1.27,-6.91 -8.98,-11.78 -15.74,-9.73 z"
       id="path217"
       inkscape:connector-curvature="0"
       style="opacity:1;fill:#000000" />
    <path
       d="m 396.48,264.75 c 34.91,-3.9 71.09,5.51 99.62,26.03 33.27,23.5 55.89,61.56 60.09,102.14 3.82,33.43 -4.43,68.15 -23.21,96.12 -20.66,31.45 -54.02,54.3 -90.91,61.92 -37.33,7.97 -77.76,0.58 -109.58,-20.62 -32.39,-21.06 -55.72,-55.57 -62.93,-93.56 -4.79,-24.89 -3.1,-51.05 5.23,-75.01 8.93,-26.15 25.64,-49.54 47.32,-66.64 21.27,-16.86 47.35,-27.63 74.37,-30.38 m 4.11,3.18 c -1.38,1.76 -3.84,0.9 -5.72,1.44 -28.1,3.44 -55.09,15.61 -76.15,34.55 3.89,-0.15 7.71,0.72 11.34,2.03 13.21,4.8 24.36,13.75 34.65,23.1 1.59,-12.51 5.18,-24.86 11.06,-36.04 5.42,-10.07 13.28,-19.49 24.07,-23.96 0.54,-0.15 0.68,-0.63 0.75,-1.12 m 25.25,1.92 c 6.41,2.87 11.65,7.81 15.97,13.27 9.94,12.91 15,28.94 17.37,44.89 7.87,-7.32 16.48,-13.96 26.07,-18.87 6.22,-3.05 12.97,-5.6 20.02,-5.21 -22.11,-19.99 -50.87,-32.27 -80.5,-35.09 l -1.36,-0.79 c 0.16,1.17 1.59,1.26 2.43,1.8 m -45.61,24.45 c -10.9,20.03 -13.38,43.39 -13.33,65.84 4.32,-2.33 9.36,-3.61 14.26,-2.71 12.09,1.72 22.32,9.42 30.81,17.76 8.58,-8.31 18.79,-16.11 30.96,-17.78 4.88,-0.87 9.89,0.42 14.18,2.74 0.09,-15.19 -1.15,-30.51 -5.13,-45.21 -3.56,-12.81 -9.24,-25.55 -19.01,-34.84 -7.04,-6.67 -17.17,-10.91 -26.89,-8.41 -11.68,2.84 -20.24,12.46 -25.85,22.61 m -68.75,18.67 c -1.65,5.77 0.8,11.67 2.98,16.97 5.46,11.71 13.64,21.97 22.76,31.05 8.31,-1.33 16.76,-1.25 25.15,-1.65 0.31,-8.22 0.35,-16.48 1.47,-24.65 -6.77,-6.83 -14.24,-13.03 -22.4,-18.15 -6.57,-3.95 -13.68,-7.68 -21.45,-8.27 -3.43,-0.34 -7.4,1.17 -8.51,4.7 m 184.04,-3.31 c -13.7,4.62 -25.09,14.01 -35.52,23.72 1.25,8.61 1.31,17.32 1.64,25.99 8.05,0.16 16.12,0.58 24.14,1.25 10.17,-10.17 19.34,-21.89 24.33,-35.52 1.49,-4.66 3.04,-10.6 -0.46,-14.74 -3.95,-3.35 -9.62,-2.04 -14.13,-0.7 m 20.53,4.97 c 0.44,6.6 -1.68,13.01 -4.55,18.86 -5.09,10.39 -12.28,19.6 -20.15,28.03 12.22,1.71 24.34,4.96 35.36,10.6 11.02,5.51 20.86,14.11 25.8,25.61 -1.42,-9.36 -2.59,-18.8 -5.42,-27.87 -5.98,-20.42 -16.56,-39.6 -31.04,-55.23 m -243.53,76.2 c -0.34,2.29 -0.47,4.63 -1.12,6.86 2.74,-5.45 5.94,-10.73 10.49,-14.86 13.42,-12.57 31.72,-18.17 49.49,-21.12 -5.5,-6.26 -11.02,-12.57 -15.43,-19.68 -4.85,-7.79 -9.23,-16.37 -9.5,-25.73 -18.47,20.66 -30.38,47.06 -33.93,74.53 m 96.25,-26.11 c -4.6,3.97 -4.78,10.81 -3.31,16.28 3.14,11.13 10.92,20.22 19.21,27.98 -7.98,7.52 -15.5,16.22 -18.88,26.85 -1.7,5.55 -1.98,12.56 2.46,16.95 4.37,4.39 11.32,4.11 16.83,2.41 10.61,-3.45 19.41,-10.83 26.91,-18.87 7.53,8.02 16.32,15.43 26.93,18.87 5.51,1.69 12.44,1.99 16.82,-2.39 4.28,-4.2 4.18,-10.92 2.65,-16.32 -3.24,-10.91 -10.91,-19.82 -19.05,-27.49 8.25,-7.77 16.04,-16.83 19.18,-27.94 1.41,-5.26 1.38,-11.7 -2.72,-15.79 -4.2,-4.26 -10.88,-4.23 -16.25,-2.63 -10.9,3.3 -19.87,10.88 -27.56,19.02 -7.51,-7.99 -16.28,-15.39 -26.87,-18.83 -5.33,-1.68 -11.9,-2 -16.35,1.9 m -59.27,7.01 c -11.48,4.18 -22.87,10.48 -29.96,20.73 -5.09,7.09 -7.13,16.59 -4.11,24.94 4.05,11.88 14.65,20.09 25.61,25.34 19.32,9.07 41.02,11.4 62.14,11.38 -2.39,-4.31 -3.58,-9.35 -2.71,-14.24 1.73,-12.09 9.32,-22.38 17.72,-30.83 -7.31,-7.57 -14.06,-16.26 -16.85,-26.58 -1.82,-6.16 -1.49,-13 1.84,-18.59 -18.12,-0.08 -36.51,1.75 -53.68,7.85 m 151.32,-7.85 c 2.39,4.3 3.57,9.34 2.71,14.23 -1.72,12.12 -9.37,22.37 -17.72,30.89 8.06,8.22 15.44,18 17.52,29.59 1.13,5.28 0.2,10.89 -2.56,15.52 18.15,0.09 36.58,-1.71 53.77,-7.86 11.64,-4.33 23.22,-10.78 30.32,-21.29 5.23,-7.43 6.76,-17.46 3.18,-25.91 -4.93,-12.14 -16.44,-19.97 -28,-25.11 -18.61,-7.98 -39.15,-10.13 -59.22,-10.06 m -189.43,56.43 c 1.45,7.21 1.95,14.62 3.89,21.75 5.34,22.09 16.22,42.74 31.19,59.81 0.03,-4.69 1.02,-9.33 2.79,-13.67 4.92,-12.07 12.94,-22.63 21.83,-32.06 -15.49,-2.37 -31.05,-7.13 -43.84,-16.46 -6.92,-4.91 -12.26,-11.72 -15.86,-19.37 m 269.65,15.82 c -13.54,12.01 -31.51,17.66 -49.12,20.23 8.82,9.79 17.13,20.42 21.84,32.86 1.74,4.49 2.55,9.29 2.28,14.11 20.9,-22.4 33.31,-52.04 36.32,-82.41 -3.02,5.58 -6.46,11.03 -11.32,15.21 m -159.91,24.45 c -4.91,0.9 -9.94,-0.42 -14.25,-2.76 -0.07,14.88 1.11,29.87 4.88,44.3 3.64,13.34 9.43,26.74 19.81,36.23 7.06,6.59 17.33,10.51 26.91,7.79 11.4,-2.95 19.71,-12.46 25.26,-22.39 10.91,-20.07 13.41,-43.45 13.38,-65.93 -4.33,2.35 -9.38,3.66 -14.29,2.75 -12.09,-1.74 -22.32,-9.43 -30.83,-17.76 -8.53,8.33 -18.76,16.04 -30.87,17.77 m -44.76,-3.59 c -10.1,10.82 -19.89,22.7 -24.39,37.04 -1.29,4.48 -2.28,10.74 2.21,13.78 4.58,2.56 10.12,0.81 14.75,-0.77 13.25,-5.19 24.72,-14.2 34.65,-24.25 -0.62,-8.02 -1.05,-16.09 -1.22,-24.15 -8.68,-0.34 -17.39,-0.46 -26,-1.65 m 125.27,1.65 c -0.4,8.39 -0.27,16.85 -1.6,25.18 8.72,8.53 18.45,16.23 29.51,21.49 5.44,2.29 11.52,4.9 17.49,3.21 3.95,-1.25 5.2,-5.9 4.62,-9.6 -1.32,-9.79 -6.69,-18.44 -12.24,-26.4 -4.1,-5.33 -8.18,-10.82 -13.3,-15.24 -8.13,0.86 -16.31,1.08 -24.48,1.36 M 347.4,502.27 c -8.77,5.76 -18.58,11.36 -29.4,11.18 22.32,20.32 51.4,32.99 81.45,35.67 l 1.14,0.94 c -0.04,-1.3 -1.67,-1.42 -2.53,-1.99 -6.61,-2.97 -11.98,-8.12 -16.34,-13.81 -9.98,-13.27 -14.9,-29.68 -17.17,-45.95 -5.37,5.06 -11.03,9.83 -17.15,13.96 m 111.92,-12.86 c -1.76,11.86 -4.96,23.63 -10.46,34.34 -5.3,10.21 -12.93,19.95 -23.7,24.7 -0.76,0.31 -1.79,0.65 -1.75,1.64 l 1.12,-0.99 c 30.11,-2.67 59.37,-15.35 81.6,-35.88 -5.09,0.82 -10.24,-0.55 -14.97,-2.36 -11.99,-4.8 -22.44,-12.74 -31.84,-21.45 z"
       id="path219"
       inkscape:connector-curvature="0"
       style="opacity:1;fill:#000000" />
    <path
       d="m 128.34,277.5 c 8.63,-3.05 19.14,1.8 21.85,10.67 3.25,8.74 -1.96,19.5 -11,22.04 -8.08,2.84 -17.71,-1.55 -21.03,-9.39 -4.14,-8.82 0.75,-20.52 10.18,-23.32 m 1.18,4.3 c -6.3,2.21 -10.29,10.01 -7.6,16.29 1.98,6.06 9.1,9.93 15.23,8.06 6.59,-1.56 11.14,-9.1 9.08,-15.63 -1.7,-6.98 -9.96,-11.54 -16.71,-8.72 z"
       id="path221"
       inkscape:connector-curvature="0"
       style="opacity:1;fill:#000000" />
    <path
       d="m 684.46,277.52 c 6.79,-2.26 14.99,-0.13 19.3,5.72 4.42,5.72 4.76,14.27 0.6,20.22 -4.08,6.25 -12.51,9.18 -19.58,6.76 -6.87,-2.08 -12.04,-8.96 -11.84,-16.17 -0.37,-7.25 4.61,-14.33 11.52,-16.53 m 3.58,3.61 c -4.12,0.74 -7.76,3.56 -9.54,7.34 -3.33,6.51 0.49,15.16 7.37,17.38 6.56,2.61 14.64,-1.65 16.44,-8.43 3.09,-8.49 -5.48,-18.06 -14.27,-16.29 z"
       id="path223"
       inkscape:connector-curvature="0"
       style="opacity:1;fill:#000000" />
    <path
       d="m 105.49,392.63 c 7.76,-2.56 17.07,0.84 20.75,8.29 4.2,7.74 1.4,18.62 -6.45,22.9 -8.04,4.93 -19.92,1.83 -24.04,-6.81 -4.91,-8.93 -0.12,-21.42 9.74,-24.38 m 2.09,4.05 c -5.37,1.46 -9.51,6.73 -9.33,12.34 -0.22,6.8 5.97,12.94 12.76,12.73 7.21,0.24 13.52,-6.67 12.73,-13.82 -0.43,-7.66 -8.79,-13.62 -16.16,-11.25 z"
       id="path225"
       inkscape:connector-curvature="0"
       style="opacity:1;fill:#000000" />
    <path
       d="m 707.46,392.64 c 7.79,-2.59 17.14,0.85 20.81,8.34 3.99,7.48 1.57,17.87 -5.75,22.39 -7.79,5.32 -19.78,2.79 -24.36,-5.59 -5.52,-8.92 -0.87,-22.08 9.3,-25.14 m 2.05,4.06 c -5.31,1.48 -9.41,6.68 -9.25,12.25 -0.27,6.84 5.96,13.04 12.79,12.8 7.21,0.21 13.51,-6.73 12.69,-13.89 -0.48,-7.66 -8.87,-13.57 -16.23,-11.16 z"
       id="path227"
       inkscape:connector-curvature="0"
       style="opacity:1;fill:#000000" />
    <path
       d="m 407.4,395.51 c 8.77,-3.3 19.39,4.05 18.72,13.53 0.56,9.2 -9.41,16.33 -18.06,13.67 -7.96,-2.06 -12.35,-11.47 -9.3,-19 1.51,-3.83 4.74,-6.9 8.64,-8.2 m 1.18,4.35 c -6.8,2.23 -8.55,12.16 -2.91,16.54 5.15,4.87 14.58,1.68 15.85,-5.25 2,-7.15 -6.12,-14.31 -12.94,-11.29 z"
       id="path229"
       inkscape:connector-curvature="0"
       style="opacity:1;fill:#000000" />
    <path
       d="m 129.43,507.54 c 9.97,-3.1 21.37,4.93 21.61,15.4 1.08,9.57 -7.39,18.83 -17.07,18.39 -9.02,0.43 -17.18,-7.46 -17.26,-16.45 -0.47,-7.84 5.1,-15.45 12.72,-17.34 m 2.08,4.11 c -4.58,0.81 -8.5,4.39 -9.81,8.85 -2.4,6.62 2.31,14.5 9.06,16.08 6.98,2.08 14.79,-3.31 15.77,-10.44 1.67,-8.28 -6.79,-16.5 -15.02,-14.49 z"
       id="path231"
       inkscape:connector-curvature="0"
       style="opacity:1;fill:#000000" />
    <path
       d="m 685.39,507.6 c 9.72,-3.11 20.94,4.32 21.77,14.5 1.59,9.88 -7.06,19.75 -17.1,19.23 -9.28,0.42 -17.7,-8.1 -17.11,-17.37 -0.22,-7.43 5.26,-14.52 12.44,-16.36 m 2.16,4.06 c -4.9,0.95 -8.93,5 -9.97,9.87 -1.54,6.27 2.7,13.1 8.84,14.87 6.83,2.45 14.67,-2.49 16.16,-9.42 2.35,-8.54 -6.46,-17.48 -15.03,-15.32 z"
       id="path233"
       inkscape:connector-curvature="0"
       style="opacity:1;fill:#000000" />
    <path
       d="m 193.41,605.55 c 9.65,-3.6 21.46,3.09 22.71,13.45 1.64,8.5 -4.11,17.56 -12.58,19.52 -8.94,2.6 -19.09,-3.46 -21.11,-12.52 -2.26,-8.35 2.76,-17.74 10.98,-20.45 m 2.06,4.07 c -4.63,1.36 -8.2,5.49 -8.95,10.24 -1.24,6.64 3.85,13.57 10.51,14.58 7.43,1.55 14.9,-4.92 14.98,-12.39 0.29,-8.21 -8.66,-15.32 -16.54,-12.43 z"
       id="path235"
       inkscape:connector-curvature="0"
       style="opacity:1;fill:#000000" />
    <path
       d="m 619.3,605.52 c 9.06,-3.29 20.07,2.44 22.22,11.92 2.99,10 -5.06,21.21 -15.47,21.59 -9.19,0.92 -18.17,-6.8 -18.34,-16.08 -0.71,-7.58 4.3,-15.19 11.59,-17.43 m 1.23,4.29 c -5.01,1.78 -8.62,6.89 -8.54,12.23 0.06,7.67 7.94,14.25 15.5,12.29 6.9,-1.31 11.79,-9.04 9.69,-15.8 -1.71,-6.94 -9.94,-11.46 -16.65,-8.72 z"
       id="path237"
       inkscape:connector-curvature="0"
       style="opacity:1;fill:#000000" />
    <path
       d="m 293.99,670.07 c 8.19,-1.47 16.9,3.74 19.22,11.76 2.34,6.82 -0.3,14.92 -6.14,19.12 -5.93,4.56 -14.89,4.4 -20.77,-0.17 -6.9,-5.08 -8.68,-15.54 -4.19,-22.75 2.54,-4.24 7,-7.21 11.88,-7.96 m -0.51,4.68 c -4.77,1.24 -8.48,5.48 -9.35,10.3 -1.02,6.05 2.99,12.39 8.83,14.21 7.05,2.66 15.41,-2.73 16.45,-10.07 1.85,-8.68 -7.42,-17.2 -15.93,-14.44 z"
       id="path239"
       inkscape:connector-curvature="0"
       style="opacity:1;fill:#000000" />
    <path
       d="m 522.37,670.5 c 5.61,-1.48 11.99,-0.3 16.32,3.68 6.25,5.38 7.48,15.44 2.95,22.28 -3.56,5.89 -11.03,8.87 -17.72,7.53 -7.96,-1.28 -14.12,-8.94 -13.97,-16.95 -0.12,-7.48 5.21,-14.56 12.42,-16.54 m 1.15,4.36 c -4.18,1.25 -7.65,4.74 -8.67,9.01 -1.95,6.37 2.32,13.71 8.7,15.46 7.8,2.79 16.67,-4.21 16.46,-12.32 0.19,-8.14 -8.73,-14.89 -16.49,-12.15 z"
       id="path241"
       inkscape:connector-curvature="0"
       style="opacity:1;fill:#000000" />
    <path
       d="m 406.49,693.63 c 7.76,-2.56 17.05,0.84 20.74,8.27 4.06,7.49 1.62,17.98 -5.75,22.5 -7.79,5.28 -19.73,2.74 -24.31,-5.61 -5.55,-8.94 -0.88,-22.12 9.32,-25.16 m 2.05,4.06 c -5.35,1.47 -9.46,6.73 -9.29,12.33 -0.22,6.8 5.97,12.95 12.77,12.73 7.18,0.22 13.48,-6.64 12.72,-13.77 -0.39,-7.7 -8.81,-13.69 -16.2,-11.29 z"
       id="path243"
       inkscape:connector-curvature="0"
       style="opacity:1;fill:#000000" />
  </g>
</svg>
