<?xml version="1.0" encoding="UTF-8" standalone="no"?>
<svg
   xmlns:dc="http://purl.org/dc/elements/1.1/"
   xmlns:cc="http://creativecommons.org/ns#"
   xmlns:rdf="http://www.w3.org/1999/02/22-rdf-syntax-ns#"
   xmlns:svg="http://www.w3.org/2000/svg"
   xmlns="http://www.w3.org/2000/svg"
   id="svg4604"
   version="1.1"
   viewBox="0 0 210 297"
   height="297mm"
   width="210mm">
  <title
     id="title5262">P is for Princess</title>
  <defs
     id="defs4598" />
  <metadata
     id="metadata4601">
    <rdf:RDF>
      <cc:Work
         rdf:about="">
        <dc:format>image/svg+xml</dc:format>
        <dc:type
           rdf:resource="http://purl.org/dc/dcmitype/StillImage" />
        <dc:title>P is for Princess</dc:title>
        <dc:date>2020-04-10</dc:date>
        <dc:creator>
          <cc:Agent>
            <dc:title>Lena London</dc:title>
          </cc:Agent>
        </dc:creator>
        <dc:source>http://www.supercoloring.com/coloring-pages/letter-p-is-for-princess</dc:source>
        <dc:subject>
          <rdf:Bag>
            <rdf:li>csk</rdf:li>
            <rdf:li>letters</rdf:li>
            <rdf:li>p</rdf:li>
            <rdf:li>princess</rdf:li>
          </rdf:Bag>
        </dc:subject>
      </cc:Work>
    </rdf:RDF>
  </metadata>
  <g
     id="layer1">
    <path
       id="path5198"
       transform="scale(0.26458333)"
       d="m 50.408203,64.6875 v 0.275391 l -2.126953,-0.02344 0.541016,109.328129 0.541015,109.32812 1.529297,0.0254 0.01563,1.12305 17.242188,-0.30273 c 4.71561,0.12404 10.082351,0.19923 15.787109,0.19921 h 27.232425 l 6.12305,0.10352 v -41.43359 -8.04883 -29.52539 l 0.0527,-3.86328 23.47851,-2.34571 c 45.14414,-4.51185 72.85891,-21.20717 80.14845,-48.27929 2.2501,-8.35652 2.65486,1.70751 2.77538,69.12109 l 0.14063,78.90234 h 2.05273 0.0371 v 0.11133 l 5.93554,-0.11133 h 24.37306 1.02539 31.37108 v -27.17187 c 0,-14.41356 0.48105,-26.26563 1.08203,-27.0918 0.47521,0.11105 1.65226,0.52944 3.29102,1.16211 1.34873,0.61575 2.94771,1.39218 4.61329,2.26563 16.86081,8.84231 47.36104,2.2426 62.6836,-13.56446 15.43449,-15.92255 22.38476,-37.68178 22.38476,-70.07617 0,-39.10558 -13.77537,-68.127546 -38.66601,-81.457031 -12.11088,-6.485639 -36.58985,-6.419333 -47.66994,0.128906 -9.89683,5.848981 -9.80858,5.855754 -9.80858,-0.746094 0,-3.815089 -0.87831,-5.113353 -2.9297,-4.326172 -3.57946,1.373579 -23.74351,4.150958 -38.23437,5.466797 l -13.71875,0.873047 -6.77735,0.298828 -1.1582,21.947269 c -0.63715,12.07046 -1.34138,18.9716 -1.56641,15.33594 -0.22503,-3.63566 -3.47249,-12.52871 -7.21679,-19.76172 -7.80097,-15.069582 -18.32187,-24.129715 -36.4961,-31.431645 -6.04993,-2.430709 -9.96644,-3.652523 -20.46093,-4.361328 C 144.4415,65.494201 114.99139,64.972221 90.115199,65.191414 L 77.910156,65.1875 Z m 436.369137,0.572266 c -2.62416,0.06592 -5.84796,1.203123 -8.25,3.376953 -2.10225,1.902519 -3.82226,5.161671 -3.82226,7.242187 0,2.080521 -1.87267,4.783582 -4.16016,6.007813 -0.008,0.0042 -0.0139,0.0068 -0.0215,0.01172 -0.9436,0.136511 -1.5624,0.588908 -1.84375,1.173828 -1.54443,1.252637 -1.40831,2.457255 0.0762,4.833984 1.80843,2.895791 1.55594,7.393712 -1.06641,19.005859 -1.88938,8.3665 -3.43554,16.03637 -3.43554,17.04492 0,1.00856 1.37465,1.83399 3.05468,1.83399 2.94274,0 5.33697,-6.533 8.42579,-22.99219 2.33649,-12.450473 3.15877,-14.144695 7.40039,-15.253907 2.17749,-0.569409 3.5114,-1.781422 3.90625,-2.9375 0.11981,-0.197027 0.20312,-0.402332 0.20312,-0.619141 0,-0.208327 -0.0624,-0.405453 -0.15234,-0.595703 -0.26911,-0.857068 -1.23599,-1.494141 -2.98242,-1.49414 -0.42033,0 -0.82037,-0.05159 -1.1875,-0.144532 -1.24789,-0.368428 -1.83932,-1.426165 -1.90626,-2.722656 0.11263,-1.381247 0.46958,-2.654712 1.01368,-3.75 0.98797,-1.711551 2.63004,-3.163989 4.69336,-3.457031 2.81646,-0.399999 4.39778,-1.539593 4.58203,-2.779297 0.0722,-0.235843 0.12109,-0.479625 0.12109,-0.732422 0,-2.1135 -2.02427,-3.118638 -4.64844,-3.052734 z m -67.33789,2.007812 c -3.69237,0 -6.05419,3.438752 -4.30468,6.269531 2.273,3.677772 7.3164,2.237349 7.3164,-2.089843 0,-2.299136 -1.35519,-4.179688 -3.01172,-4.179688 z m -362.759762,4.181641 23.257812,0.01172 24.89648,0.361328 4.6211,0.07617 c 48.37017,0.796186 53.76072,1.255559 64.57422,5.501953 17.55682,6.894459 28.07923,15.446072 34.44726,27.99219 4.97419,9.79999 7.39295,22.73106 6.85352,34.04883 -0.0125,0.25341 -0.0317,0.50047 -0.0469,0.75195 -0.29552,4.94387 -1.15524,9.56144 -2.63476,13.43555 -8.99338,23.54882 -42.12901,38.91995 -84.09766,39.00976 l -15.58398,0.0332 -1.375,0.004 h -0.48242 l -0.0273,2.08984 h -0.0586 v 0.6211 0.004 1.42969 l -0.76172,5.55274 c -0.73104,5.3335 -1.33008,24.14293 -1.33008,41.80078 V 276.2793 H 82.806641 56.679688 V 173.65625 Z m 381.560542,9.148437 c -5.0107,0.149443 -11.00066,2.929163 -12.20312,7.527344 -0.54576,2.086998 0.034,4.413291 1.79687,7.232422 0.539,1.071538 1.25421,2.083592 2.14844,2.976562 0.37962,0.467963 0.76495,0.938967 1.19922,1.433594 5.31387,6.052172 5.77871,7.390962 2.93945,8.480472 -1.85431,0.71159 -5.23955,0.80574 -7.52148,0.20898 -2.86685,-0.74969 -3.98541,-0.11342 -4.12109,2.375 -0.0839,0.18335 -0.12349,0.38489 -0.11329,0.60742 -0.0609,0.2414 -0.0153,0.50322 0.14649,0.77735 0.2177,1.80557 1.22586,2.64319 3.98828,2.95703 1.10052,0.22276 2.37764,0.273 3.72266,0.16211 0.0616,1.5e-4 0.10913,0.004 0.17187,0.004 4.36834,0 9.07168,-1.12832 10.45117,-2.50781 1.94824,-1.94824 2.67999,-4.59435 2.33594,-7.32422 -0.002,-1.91488 -0.77072,-3.82653 -2.28711,-5.646482 -0.80814,-1.133499 -1.80327,-2.201641 -3.00195,-3.144531 -6.90471,-5.431242 -5.46803,-11.36291 2.28125,-9.417969 3.92678,0.985569 5.26953,0.501003 5.26953,-1.898437 0,-0.06119 -0.0117,-0.115838 -0.0117,-0.175782 0.002,-0.05352 0.0117,-0.09479 0.0117,-0.15039 0,-0.155566 -0.0267,-0.304478 -0.0644,-0.449219 -0.46519,-2.888542 -3.54723,-4.134414 -7.13672,-4.027344 z m 63.95508,0.0625 c -8.69945,-0.0565 -17.04101,8.639784 -17.04101,20.181644 0,4.42165 1.45363,9.38331 3.28515,11.21484 1.39843,1.39846 3.20003,2.3164 5.18946,2.80469 2.75705,0.92204 5.74366,0.70724 8.57421,-0.4043 2.5894,-0.81774 5.07064,-2.23273 7.08399,-4.24609 7.26652,-7.26659 7.336,-22.589547 0.125,-27.314456 -2.31659,-1.517899 -4.78097,-2.220518 -7.2168,-2.236328 z m 35.70703,0.402344 c -1.42117,0.114973 -5.20036,0.351004 -8.39648,0.523438 -5.50348,0.296914 -5.9794,1.145572 -9.01172,16.033203 -1.76103,8.646039 -2.75166,16.170199 -2.20117,16.720699 0.24794,0.24783 0.49527,0.44278 0.74219,0.61328 0.23848,0.68939 0.6733,0.84455 1.22851,0.53907 2.46297,0.46247 4.67408,-2.87179 5.66602,-9.03516 1.8308,-11.375669 6.2454,-18.289061 11.67969,-18.289061 2.76112,0 3.89285,-1.004704 3.63671,-3.191407 0.2109,-0.295932 0.3418,-0.629301 0.3418,-0.988281 0,-0.736471 -0.52647,-1.265653 -1.33008,-1.601562 -0.64509,-0.860848 -1.50798,-1.392772 -2.35547,-1.324219 z m -121.41992,0.474609 c -0.38884,-0.02797 -0.86457,0.225938 -1.42383,0.785157 -0.24,0.239962 -0.5002,0.793133 -0.76953,1.529296 -0.0741,0.125178 -0.14782,0.271897 -0.22265,0.41211 -0.30274,0.492741 -0.55879,1.035787 -0.75196,1.61914 -3.05544,7.359172 -6.30964,24.355378 -4.53515,27.226568 0.96567,1.5624 3.55285,2.25463 6.03906,2.20507 0.0839,0.007 0.17113,0.0254 0.25391,0.0254 0.0476,0 0.0883,-0.005 0.13476,-0.006 0.0189,4.1e-4 0.0429,0.006 0.0625,0.006 0.15685,0 0.30353,-0.016 0.45313,-0.0273 h 0.002 c 0.25776,-0.02 0.50462,-0.0563 0.74023,-0.10742 0.50956,0.028 0.91654,-0.0748 1.21289,-0.31641 1.55392,-0.47248 2.6836,-1.31758 2.6836,-2.50976 0,-1.62855 -1.10656,-3.32849 -2.45899,-3.7793 -1.88515,-0.62837 -1.88511,-3.6778 0,-13.064454 0.85686,-4.266701 1.38992,-7.308773 1.56446,-9.433594 0.34847,-1.811144 0.22371,-3.009558 -0.42969,-3.640624 -0.30274,-0.398389 -0.74568,-0.560185 -1.34375,-0.527344 -0.004,-3.71e-4 -0.006,3.59e-4 -0.01,0 -0.12548,-0.01172 -0.23937,-0.03516 -0.37695,-0.03516 -0.0646,0 -0.12993,0.02363 -0.19531,0.0293 -0.17537,-0.233839 -0.38277,-0.373148 -0.62695,-0.390625 z m -95.43164,4.644532 c 7.02255,-0.0079 14.06506,0.903356 18.44727,2.734375 30.42867,12.713834 45.1613,67.940104 30.65429,114.908204 -7.47416,24.19849 -27.06373,39.22878 -47.79882,40.91601 -0.0302,0.002 -0.0591,0.006 -0.0899,0.008 -1.07841,0.0592 -2.16883,0.0879 -3.27344,0.0879 -3.80084,0 -7.9317,-0.48887 -11.91796,-1.31055 -6.19287,-1.53409 -12.24805,-4.35745 -17.86719,-8.59766 l -6.79297,-5.12695 v 31.59961 1.29297 1.39453 26.85938 L 282.13086,293 h -24.57227 -0.22656 -24.625 L 232.25,279.94141 v -87.08789 -0.91993 -99.228512 l 16.19922,-1.425781 c 8.90914,-0.784301 19.7243,-2.175847 24.03516,-3.091797 1.15032,-0.244422 2.08304,-0.427372 2.92187,-0.576172 1.95534,0.01247 3.34239,0.159043 4.29102,0.488281 0.22979,0.412131 0.43697,0.970716 0.63671,1.615235 0.0771,0.632723 0.11178,1.399972 0.13672,2.333984 0.0809,3.039118 0.81128,7.208172 1.62305,9.263672 0.10658,0.27031 0.20894,0.47637 0.3125,0.69727 l 0.006,1.27734 v 0.33203 l 0.60937,-0.5918 c 1.05725,1.12452 2.56029,-0.11935 6.76172,-4.585934 3.41828,-3.63405 9.24223,-7.901607 12.94141,-9.484375 4.30208,-1.840732 11.30358,-2.767529 18.32617,-2.77539 z m 180.92774,0.544921 h 0.002 c 2.94565,0.147071 4.98266,2.679511 5.63672,6.111329 0.034,0.220195 0.063,0.44915 0.0898,0.68164 0.0151,0.115276 0.0321,0.230718 0.0449,0.347657 0.0378,0.393636 0.0575,0.803564 0.0703,1.220703 0.004,0.261052 0.0152,0.518835 0.008,0.785156 -1.9e-4,0.05851 -8.6e-4,0.117085 -0.002,0.175781 -0.14281,2.733048 -1.06227,5.705232 -2.93359,8.376952 -2.16143,3.08591 -5.70094,4.82061 -8.63476,4.67188 -0.15912,-0.008 -0.31334,-0.0337 -0.46875,-0.0527 -0.82602,-0.13432 -1.57534,-0.3953 -2.20508,-0.7832 -0.8993,-1.03697 -1.50148,-2.30518 -1.84375,-3.70703 -0.0987,-0.5749 -0.1768,-1.1889 -0.23047,-1.83008 0.18973,-5.766975 3.73237,-13.968545 7.7793,-15.521485 0.73281,-0.281197 1.43059,-0.434343 2.08789,-0.472656 0.2038,-0.01206 0.40379,-0.01326 0.59961,-0.0039 z m -390.95508,0.869141 v 0.01172 2.179687 0.472657 41.521483 0.0449 0.23438 0.0117 0.22461 37.44335 l -0.0859,6.63477 0.0859,-0.01 v 0.1836 l 5.75586,-0.60156 3.12695,-0.004 c 30.50284,-0.04 45.65384,-17.54072 42.6875,-49.30664 -2.40243,-25.72702 -12.71631,-36.248535 -37.25,-38.003907 l -12.98242,-0.929687 z m 6.26953,8.933594 h 9.50976 c 20.87873,0 29.22088,12.197403 27.78516,40.628903 -0.72975,14.45106 -1.36565,16.3715 -7.4082,22.41407 -5.44062,5.44063 -8.66574,6.77958 -18.24805,7.57421 l -11.63867,0.96485 v -35.79102 -0.26562 -0.0391 z m 188.36719,8.076173 c -4.21784,-0.01 -8.64637,2.11164 -12.74024,6.49414 -7.5589,8.09181 -10.00812,18.4255 -10.39844,48.00586 -0.0469,2.09386 -0.0766,4.2688 -0.0898,6.52539 -0.24189,17.8318 0.47144,36.04323 2.2793,42.55469 0.18557,0.6689 0.44252,1.38668 0.72851,2.12304 2.01869,7.11555 5.30848,11.30413 10.57813,15.44922 3.17337,2.49617 6.54001,4.53906 7.48047,4.53907 4.58819,0 12.03269,-5.15675 15.21093,-10.53711 8.41595,-14.24707 10.03539,-83.1827 2.39258,-101.86719 -3.56114,-8.70592 -9.27684,-13.27253 -15.4414,-13.28711 z m 0.37109,7.3418 h 0.002 c 0.53259,-7.8e-4 1.04571,0.0908 1.54492,0.23046 2.00198,0.89347 3.89435,2.76694 5.60157,5.55665 0.0767,0.16001 0.15292,0.33071 0.22851,0.49609 2.70463,6.88842 3.49085,20.6776 3.48242,48.31836 -0.0113,32.81928 -0.62565,41.0733 -3.55078,47.55078 -1.02081,2.26053 -2.19796,3.97123 -3.46875,5.18555 -1.42099,1.09687 -3.02409,1.84776 -4.63867,2.21093 -5.48572,0.35184 -11.43358,-6.42893 -14.50781,-18.70117 -0.55786,-2.22695 -0.9638,-5.92227 -1.23438,-10.51953 -0.14664,-3.66429 -0.27173,-8.21764 -0.39453,-13.53125 -0.14513,-18.22974 0.95237,-40.83486 2.87891,-50.63672 0.64078,-2.48852 1.39021,-4.66093 2.24805,-6.57226 2.90543,-5.60676 7.7458,-9.57617 11.80859,-9.58789 z m 186.10937,24.60742 c -0.69462,-0.001 -1.32494,0.18179 -1.89062,0.47265 -0.47792,0.19752 -0.91817,0.47285 -1.29102,0.84571 -0.53809,0.53806 -0.88871,1.2488 -1.05078,1.98633 -0.56413,1.74821 -0.18366,3.76354 1.64453,4.91992 3.76577,2.38193 6.54299,1.39719 7.01758,-2.28516 0.0465,-0.16679 0.0759,-0.352 0.0899,-0.54883 0.21316,-0.30716 0.39487,-0.63732 0.51562,-1 0.66225,-1.98899 -1.05465,-3.53735 -3.11328,-4.02734 -0.21657,-0.0624 -0.43626,-0.11374 -0.66016,-0.1543 -0.13757,-0.0437 -0.27252,-0.0977 -0.41406,-0.125 -0.28951,-0.0557 -0.57214,-0.0834 -0.8457,-0.084 z m -78.05078,1.19726 v 0.58008 H 412 v 28.91406 c 0,15.90235 0.66066,29.5728 1.4668,30.37891 0.5173,0.51731 1.575,0.85516 2.73632,0.94531 0.3001,0.25433 0.63657,0.375 1.02344,0.375 0.14173,0 0.27593,-0.01 0.40625,-0.0293 0.54339,0.0693 0.99671,-0.1818 1.36914,-0.75196 1.76383,-1.03541 2.63838,-4.37681 3.03516,-11.25586 0.61338,-10.63458 0.81401,-10.95507 6.89648,-10.95508 14.07742,0 23.73338,-10.78567 21.25586,-23.74609 -1.80914,-9.46395 -9.71933,-13.875 -24.88476,-13.875 h -0.66016 -4.15234 z m 15.25782,8.93946 c 3.0161,0 6.28652,0.71937 8.20312,1.70507 0.2332,0.14298 0.45616,0.28699 0.63281,0.4336 1.09603,0.90961 1.88369,2.38749 2.37696,4.0957 0.11414,0.74875 0.21284,1.56377 0.29297,2.51758 0.13719,1.63044 0.16454,2.98321 0.0625,4.15234 -0.56244,2.57408 -1.81533,4.8268 -3.69727,5.83399 -2.22357,1.19002 -6.45479,2.16406 -9.4043,2.16406 -5.04185,0 -5.36328,-0.62586 -5.36328,-10.45117 0,-10.42945 0.0114,-10.45117 6.89649,-10.45117 z m 99.52929,7.08203 -0.002,0.002 c -1.73144,0.0525 -3.517,0.72143 -6.13867,2.0293 -3.42675,1.70949 -6.23047,2.23919 -6.23047,1.17773 0,-1.04416 -1.8224,-1.89619 -4.07031,-1.92383 -0.003,-6e-5 -0.002,-0.002 -0.006,-0.002 -0.0113,-2.5e-4 -0.0238,-0.004 -0.0352,-0.004 -0.002,0 -0.004,0.002 -0.008,0.002 -0.0189,-1.4e-4 -0.0399,-0.002 -0.0605,-0.002 -0.48899,0 -0.92096,0.0235 -1.30273,0.0996 -2.66064,0.53127 -2.87696,3.69786 -2.87696,20.45313 0,0.14336 0.002,0.279 0.002,0.42187 -1.9e-4,0.35305 -0.002,0.60764 -0.002,0.97266 0,20.55288 0.26493,21.94531 4.17969,21.94531 0.2812,0 0.53814,-0.0113 0.78321,-0.0312 0.20669,0.02 0.41102,0.0312 0.60937,0.0312 0.4924,0 0.90608,-0.23202 1.25391,-0.72656 0.008,-0.006 0.012,-0.0151 0.0195,-0.0215 0.0113,-0.0174 0.0258,-0.0287 0.0371,-0.0469 1.29263,-1.34648 1.47851,-4.8711 1.47851,-13.83594 0,-0.81556 0.0159,-1.50233 0.0234,-2.24218 0.0518,-3.69248 0.28196,-6.88089 0.72852,-9.53125 0.2725,-1.31105 0.58896,-2.4989 0.95898,-3.56055 10e-4,-0.003 0.002,-0.009 0.004,-0.0117 0.60623,-1.33789 1.41185,-2.41185 2.46679,-3.4668 1.86297,-1.86297 3.54353,-3.13288 5.05274,-3.82422 0.18482,-0.0204 0.35416,-0.0302 0.5332,-0.0469 1.06613,-0.004 2.22375,0.14842 3.48438,0.46484 0.63428,0.1592 1.20762,0.36557 1.74609,0.60742 2.43367,2.83242 3.82587,9.34265 4.23633,19.61329 0.43374,10.85308 0.83502,14.23389 2.74414,15.20898 0.48075,1.02095 1.14788,1.41797 2.05859,1.41797 0.52048,0 0.97767,-0.43193 1.37891,-1.17188 2.487,-0.54523 2.92588,-3.2721 3.33789,-14.5039 0.40978,-11.17104 -0.67002,-18.01823 -3.96875,-22.55469 -0.32882,-0.77518 -0.68437,-1.41123 -1.07227,-1.83984 -0.95656,-1.057 -2.27599,-1.89935 -3.81445,-2.51563 -0.54421,-0.32084 -1.10931,-0.6295 -1.71094,-0.91797 -2.40964,-1.1554 -4.08692,-1.71847 -5.81836,-1.66601 z m -50.49414,0.4375 c -1.33999,-0.066 -2.9316,0.22718 -4.72461,0.90039 -1.9039,0.71486 -5.28661,0.98091 -8.1914,0.71875 -0.42599,-0.28846 -0.91436,-0.50594 -1.42774,-0.63672 -0.26645,-0.082 -0.54068,-0.14063 -0.83008,-0.14063 -0.0265,0 -0.0513,0.007 -0.0781,0.008 -0.0302,-8.2e-4 -0.0636,-0.008 -0.0957,-0.008 -0.31522,0 -0.59649,0.0868 -0.85157,0.26368 l -4.20117,-0.78516 v 20.8125 c 0,11.44778 0.66066,21.47514 1.4668,22.28125 0.5023,0.50232 1.51327,0.83783 2.63476,0.93945 0.32467,0.2606 0.69421,0.38086 1.125,0.38086 0.6576,0 1.18384,-0.21584 1.60938,-0.71484 1.99922,-1.06674 2.89077,-5.35713 3.61523,-16.62891 0.64453,-10.02762 1.79149,-15.65545 4.14258,-18.10742 0.9464,-0.68628 2.01017,-1.17629 3.19531,-1.48242 1.05835,-0.0751 2.26197,0.11774 3.63477,0.54492 2.62673,0.81738 3.6582,-0.0163 3.6582,-2.95898 0,-0.14642 -0.0139,-0.28108 -0.0215,-0.42188 0.0113,-0.0489 0.0215,-0.0978 0.0215,-0.14648 0,-0.25259 -0.0416,-0.49089 -0.10547,-0.71875 -0.40104,-2.54812 -2.03141,-3.97423 -4.57617,-4.09961 z m 98.19727,0.084 c -0.5421,-0.011 -1.10303,-0.009 -1.68164,0.006 -19.66526,0.51565 -29.1023,25.29029 -15.00391,39.38867 3.95327,3.9533 11.47111,5.86711 17.55664,5.35938 1.56125,-0.0926 2.99709,-0.36692 4.20703,-0.84375 1.61152,-0.55761 2.96382,-1.35917 3.86524,-2.44531 3.78149,-4.55642 1.14456,-6.08954 -9.36328,-5.44336 -5.41928,0.33324 -8.93729,-0.50974 -11.05078,-2.95508 -1.70246,-2.53162 -2.61915,-6.01625 -2.61915,-10.36133 0,-7.83252 4.44706,-13.53826 10.18555,-14.86133 0.0881,-0.02 0.17719,-0.0439 0.26563,-0.0625 2.65133,-0.54515 5.56567,-0.15891 8.43554,1.37695 3.29277,1.76224 4.4387,1.52403 5.45899,-1.13476 1.84796,-4.81575 -2.12244,-7.86156 -10.25391,-8.02344 z m 34.83008,0.14258 c -16.09346,0.45619 -24.71745,19.65364 -17.03711,33.96289 0.83123,1.65647 1.88266,3.17843 3.14453,4.51758 4.38451,5.11716 6.70118,6.02734 14.90234,6.02734 9.55212,0 14.86328,-2.60915 14.86328,-7.30078 0,-0.0287 -0.0138,-0.0557 -0.0176,-0.084 0.004,-0.0768 0.0176,-0.15062 0.0176,-0.22852 0,-2.27447 -1.12588,-2.84882 -3.6582,-1.86914 -0.27931,0.10813 -0.54083,0.20119 -0.8125,0.30273 -1.69508,-0.22165 -3.8033,-0.33459 -6.21094,-0.31445 -8.80335,0.0736 -11.2351,-0.73706 -13.83984,-4.61328 L 600.85547,182 c 0.32239,-0.75742 1.10797,-1.37227 2.39062,-1.86523 h 11.24219 14.88477 v -2.08985 h 0.52343 l -0.52343,-2.72656 v -2.38281 -1.35157 c 0,-2.9056 -0.77913,-5.52237 -2.09766,-7.77734 -1.5117,-2.98428 -3.7836,-5.39288 -6.56836,-7.0293 -0.034,-0.0219 -0.0703,-0.0436 -0.10547,-0.0645 -2.6609,-1.53699 -5.78193,-2.37203 -9.1914,-2.27539 z m 79.54492,0.0703 c -1.92204,-0.0306 -4.30291,0.10634 -7.23828,0.37696 -7.44824,0.68666 -11.76579,5.42264 -12.33789,10.66992 -0.47301,2.58556 -0.0623,5.29047 1.39648,7.50586 0.22942,0.3482 0.7594,0.83761 1.48242,1.40234 1.30776,1.53793 3.05395,2.91336 5.2793,3.99219 6.18353,2.99771 9.95363,5.71608 11.30273,7.79492 0.12246,0.40993 0.19141,0.81764 0.19141,1.21875 0,0.59223 -0.0407,1.09202 -0.13672,1.52734 -1.23844,1.23934 -4.75288,1.69849 -10.58594,1.04102 -3.16327,-0.35656 -5.26161,-0.48811 -6.64843,-0.3125 -0.0797,-0.0174 -0.14587,-0.0239 -0.22071,-0.0371 -1.85888,-0.69077 -2.26367,0.0601 -2.26367,2.74023 0,0.0151 0.002,0.0299 0.002,0.0449 -1.1e-4,0.0295 -0.002,0.0499 -0.002,0.0801 0,0.006 0.002,0.0115 0.002,0.0176 0,0.005 -0.002,0.009 -0.002,0.0137 0,0.26555 0.0125,0.53559 0.0352,0.80664 v 0.002 c -0.0227,0.11456 -0.0352,0.23488 -0.0352,0.35937 0,0.37629 0.10128,0.76304 0.2793,1.14258 0.25323,1.16278 0.64689,2.19186 1.11328,2.6582 3.25372,3.25377 19.56803,1.33434 23.68945,-2.78711 7.7339,-7.73383 4.85412,-15.68546 -7.61719,-21.03124 -3.15974,-1.35444 -5.51027,-2.81928 -7.02148,-4.25 -0.68704,-0.96607 -1.03711,-1.95268 -1.03711,-2.95313 0,-0.9923 0.11186,-1.74637 0.43164,-2.32422 1.59243,-1.04656 4.50823,-1.61959 8.66016,-1.42969 0.61519,0.028 1.12918,0.0396 1.66406,0.0547 0.52192,0.1417 1.03269,0.29593 1.50781,0.47656 4.98267,1.89442 5.49207,1.63383 5.5,-2.98047 1.2e-4,-0.009 0.002,-0.0167 0.002,-0.0254 0,-0.005 -0.002,-0.009 -0.002,-0.0137 4e-5,-0.0234 0.002,-0.0389 0.002,-0.0625 0,-4.02717 -1.6265,-5.62704 -7.39258,-5.71875 z m -37.73633,0.0996 c -11.17895,0.27242 -17.57422,4.59723 -17.57422,12.11524 0,5.87941 4.47011,10.51426 13.97656,14.48632 1.03994,0.43451 1.9175,0.86627 2.69922,1.29493 1.91996,1.58351 3.04929,3.2404 3.32617,4.73828 -1.08517,1.37636 -4.58727,2.24293 -10.28125,2.16601 -2.58875,-0.0351 -4.49266,0.0337 -5.9375,0.22657 -0.0431,-0.0181 -0.0835,-0.0307 -0.12695,-0.0488 -1.89218,-0.79534 -2.88709,-0.72772 -3.33984,0.39062 -0.0491,0.0985 -0.0926,0.20929 -0.12891,0.33594 -0.003,0.0106 -0.006,0.0183 -0.01,0.0293 -0.0469,0.17231 -0.0728,0.39701 -0.0996,0.62109 -0.0113,0.0923 -0.0304,0.17013 -0.0391,0.26953 -0.0113,0.16369 -0.0159,0.36918 -0.0234,0.55664 -0.008,0.1646 -0.0195,0.30762 -0.0195,0.48828 0,0.0163 0.004,0.0325 0.004,0.0488 -1.9e-4,0.0374 -0.004,0.0634 -0.004,0.10156 0,0.0424 0.008,0.0845 0.008,0.12696 -0.002,0.0553 -0.008,0.10695 -0.008,0.16406 0,1.89239 0.62617,4.06761 1.39258,4.83398 2.68676,2.68675 18.62439,1.35942 23.33985,-1.94335 2.98752,-2.09255 4.1827,-4.1963 4.21679,-7.7168 0.32693,-1.33518 0.2126,-2.66628 -0.34375,-4.00586 -0.77707,-4.14746 -2.92737,-6.07587 -9.79492,-9.53516 -4.29804,-2.16497 -7.04026,-3.7381 -8.51953,-5.09179 -0.58507,-0.89404 -0.88672,-1.80561 -0.88672,-2.72852 0,-0.39678 0.0229,-0.74435 0.0645,-1.07031 0.41248,-0.60619 1.05619,-1.24278 1.9121,-1.95313 0.0748,-0.0621 0.15173,-0.10567 0.22657,-0.16406 0.7909,-0.26479 1.72976,-0.46808 2.80859,-0.60352 1.13541,-0.0484 2.46433,-0.0366 4.08008,0.0371 0.57725,0.0265 1.05612,0.0359 1.5625,0.0508 0.26646,0.0859 0.51612,0.15729 0.79883,0.25586 5.87973,2.04969 6.30692,1.86579 6.31054,-2.85937 0.39428,-0.59652 0.36835,-1.2548 -0.14453,-1.91797 -0.39405,-2.40349 -1.70081,-3.38086 -4.55468,-3.57812 -0.88672,-0.0613 -1.7518,-0.10171 -2.5918,-0.1211 -0.78613,-0.0181 -1.55068,-0.018 -2.29492,0 z m -160.74805,0.44531 c -0.161,0 -0.31745,0.0147 -0.46289,0.0469 -0.0189,0.004 -0.0339,0.0146 -0.0547,0.0195 -0.18741,0.0471 -0.3587,0.13314 -0.52148,0.24414 -4.08472,-0.51793 -4.1875,0.63408 -4.1875,20.09766 0,11.38404 0.66066,21.35795 1.4668,22.16406 0.50143,0.50135 1.50979,0.83554 2.6289,0.93555 0.3258,0.26385 0.69762,0.38476 1.13086,0.38476 0.53401,0 0.97627,-0.17755 1.34961,-0.5957 2.31455,-0.84593 2.83008,-5.11456 2.83008,-21.37891 0,-15.73908 -0.12436,-19.63368 -2.35742,-20.89648 -0.42724,-0.75031 -0.99663,-1.02149 -1.75,-1.02149 -0.0113,0 -0.0219,0.004 -0.0332,0.004 h -0.002 c -0.0113,-1.7e-4 -0.0219,-0.004 -0.0332,-0.004 z m 119.84961,6.76172 c 0.0401,-0.001 0.0791,0.005 0.11914,0.004 0.94262,0.11157 1.87138,0.35663 2.76758,0.73437 2.49823,1.72381 5.3064,4.86528 5.74414,6.79883 -0.12926,0.5085 -0.49233,0.92617 -1.11523,1.26367 -0.29934,0.15497 -0.67709,0.28918 -1.09571,0.41211 -1.68631,0.39849 -4.16922,0.66691 -7.0039,0.72461 -0.20372,0.003 -0.40381,0.008 -0.61524,0.01 -4.42673,-0.0234 -7.43531,-0.23925 -9.07226,-0.80274 -9.8e-4,-7.3e-4 -0.003,-8.6e-4 -0.004,-0.002 -0.65098,-0.3405 -0.88412,-0.81201 -0.81836,-1.45117 0.2967,-0.6258 0.80785,-1.41459 1.48242,-2.43555 2.28291,-3.45533 6.0712,-5.1482 9.61133,-5.25586 z m -133.49023,16.22461 -0.004,0.002 v 0.004 c -0.37039,0 -0.81236,0.49386 -1.25781,1.30664 -1.52844,2.07631 -3.11568,6.96757 -4.84375,14.68946 -2.11279,9.4409 -3.18633,11.21467 -6.04297,9.98632 -1.55493,-0.66861 -4.671,-1.53066 -7.58203,-2.14062 -0.90905,-0.25395 -1.80342,-0.47817 -2.64063,-0.63867 -0.17234,-0.13168 -0.37899,-0.21289 -0.63086,-0.21289 -0.12467,0 -0.24498,0.025 -0.36328,0.0586 -2.16589,-0.32179 -3.76149,-0.24583 -3.71875,0.46484 3.4e-4,0.006 0.0177,0.063 0.0215,0.0723 -0.0227,0.0671 -0.0527,0.1309 -0.0527,0.20898 0,0.0883 0.0957,0.38141 0.20118,0.69336 0.034,0.68186 0.27551,1.62688 0.66601,2.92188 3.59433,11.916 5.07295,19.50299 4.10547,21.06836 -0.57207,0.92563 -3.84282,1.68359 -7.26953,1.68359 -8.79606,0 -21.58626,7.06887 -27.99609,15.47266 -5.60875,7.35344 -17.88288,13.59288 -26.9629,13.77148 -0.92194,-0.0159 -1.81195,-0.0653 -2.66601,-0.15625 -3.69324,-0.50818 -7.0734,-2.18472 -9.49219,-4.52734 -1.3756,-1.77739 -2.32184,-4.06547 -2.85547,-6.91016 -1.53657,-8.19058 -4.7576,-8.47368 -8.6914,-0.76367 -5.71711,11.20516 -0.34169,25.64056 11.72461,31.48437 l 4.22265,2.04493 c -0.20031,0.52899 -1.31802,1.9739 -3.04492,4.00195 -2.93363,1.63985 -9.02901,7.89069 -13.65039,14.01172 -0.97157,1.28683 -1.90489,2.46687 -2.82422,3.59961 -6.11184,6.06638 -11.05445,10.31031 -15.05859,12.92578 -4.52973,2.04505 -9.546,2.81776 -15.98243,2.82227 -10.08013,0.007 -12.97489,-0.8538 -17.24414,-5.12305 -2.31378,-2.31382 -4.25882,-5.56104 -4.89257,-7.95703 0.034,-0.47767 0.0615,-0.92389 0.11328,-1.46485 0.0839,-0.87876 0.12891,-1.6876 0.15234,-2.44922 0.11528,-0.43809 0.24755,-0.86686 0.40039,-1.28711 2.12795,-4.6657 7.69331,-8.88281 12.68164,-8.88281 1.83319,0 3.15024,-0.27798 3.98438,-0.73437 0.5608,-0.26752 0.88105,-0.59769 0.9707,-0.97266 0.0189,-0.078 0.0468,-0.15465 0.0449,-0.23633 0.24454,-1.2963 -1.35066,-3.04497 -4.83984,-4.63476 -8.36478,-3.81124 -19.05074,-0.0697 -26.10156,7.69726 -0.14438,0.15912 -0.29029,0.31605 -0.43164,0.47852 -0.29783,0.32145 -0.6007,0.63897 -0.88477,0.97656 -2.82656,3.3592 -4.20794,5.48701 -4.73242,8.68945 -0.14929,0.43558 -0.2903,0.87519 -0.41797,1.32032 -2.58973,9.02981 0.43333,20.64417 7.58594,29.14453 l 5.375,6.38867 -8.04297,3.49023 c -10.57542,4.59006 -29.12522,4.57927 -37.79492,-0.0215 -2.96308,-1.57239 -5.16855,-3.59191 -6.60352,-5.89258 -0.97421,-1.66111 -1.61818,-3.49365 -1.875,-5.48633 -0.27704,-2.92759 0.4423,-6.0666 2.24805,-9.21289 4.11352,-7.16748 1.49873,-9.19133 -6.51953,-5.04492 -17.78966,9.19939 -15.4429,37.07092 4.39648,52.20313 19.41143,14.80585 63.78851,11.16314 89.32031,-7.33204 l 8.80664,-6.3789 -1.45117,13.24023 c -5.08758,46.38339 -17.02801,69.0294 -42.55664,80.7168 -14.11309,6.46122 -19.97342,4.54748 -23.24219,-7.5918 -3.59973,-13.36834 3.54892,-25.08837 15.34766,-25.38476 1.24585,0.0408 2.48148,0.19767 3.68359,0.45898 6.37369,1.76727 12.23633,8.34401 12.23633,14.5625 0,2.21189 0.94026,3.44095 2.08985,2.73047 1.01812,-0.62925 1.63371,-2.55178 1.89257,-5.02344 0.12246,-0.45808 0.19727,-0.9242 0.19727,-1.37109 0,-0.19351 -0.0153,-0.38069 -0.041,-0.56445 0.0265,-0.44459 0.041,-0.90056 0.041,-1.36914 0,-0.93774 -0.071,-1.86046 -0.19727,-2.76758 -0.35187,-3.94299 -1.33176,-7.92224 -2.85546,-10.09766 -7.75968,-11.07847 -25.33446,-11.33271 -37.6211,-0.54492 -7.49027,6.57657 -10.94395,14.20372 -11.28906,25.77539 -0.49693,4.40118 -0.34243,8.78933 0.57422,12.81445 l 0.75781,9.45118 c -0.10394,0.0914 -0.21613,0.17774 -0.33594,0.25976 l -12.52148,-0.79687 c -16.00471,-1.01912 -31.23215,-8.2886 -39.69336,-18.95118 -3.0928,-3.89745 -5.15047,-8.37477 -6.33985,-12.97461 -0.46133,-2.64026 -0.7716,-5.50259 -0.93164,-8.67187 -0.0798,-1.58067 -0.1395,-2.95665 -0.1875,-4.24414 1.09343,-13.55471 9.2721,-24.35116 20.80469,-19.57422 3.64798,1.51106 6.80662,4.68299 7.5293,7.5625 0.67453,2.68758 1.74601,4.23229 2.85156,4.7793 l 0.48438,1.22656 0.46289,-1 c 1.15793,-0.0302 2.23441,-1.15995 2.81445,-3.28125 0.3258,-0.90875 0.46394,-1.98963 0.42773,-3.16797 0.008,-0.18482 0.0234,-0.35453 0.0234,-0.54687 0,-14.15664 -19.15791,-22.40651 -35.8418,-15.43555 -7.30441,3.05201 -12.88825,9.10551 -16.5664,16.92187 -0.53469,1.02909 -0.97884,2.04513 -1.33984,3.12305 -6.09302,15.83433 -5.03823,37.60721 4.66015,56.74609 9.18932,18.13425 36.52339,38.43571 57.44727,42.66602 12.80058,2.58796 14.49309,3.36304 14.61914,7.82812 -0.0393,1.25394 -0.30689,2.4948 -0.81641,3.74219 -2.83136,6.01758 -12.68388,13.68144 -22,16.47266 -2.99278,0.89665 -6.09197,1.52252 -9.23828,1.92383 -2.99686,0.24453 -6.2675,0.30926 -9.90234,0.20117 -1.13757,-0.0484 -2.2134,-0.0909 -3.50977,-0.15625 -0.67712,-0.034 -1.2765,-0.0806 -1.92383,-0.11914 -1.8269,-0.1251 -3.59048,-0.28688 -5.28906,-0.48633 -17.45207,-3.05518 -32.80832,-12.32357 -36.5625,-24.51758 l -0.85937,-2.79101 c -0.0125,-0.048 -0.028,-0.0863 -0.041,-0.13086 l -1.21094,-3.93555 -2.39062,5.88281 c -1.10447,2.71918 -1.79601,5.93941 -2.10742,9.35742 -0.72925,4.6653 -0.45476,9.32539 0.73828,13.83399 0.69517,3.52853 1.77063,6.8684 3.21679,9.70312 8.05674,15.7925 30.04906,26.86114 54.14258,27.24805 l 11.64063,0.1875 -10.45118,3.02539 c -7.44985,2.1577 -17.95351,2.80532 -36.57812,2.25195 -23.40229,-0.69539 -28.50003,-1.5756 -48.88672,-8.43945 -6.7682,-2.27875 -13.95432,-4.3038 -19.91797,-5.70117 -1.7756,-0.44451 -3.40028,-0.79331 -4.92187,-1.05859 -2.78893,-0.53636 -5.10181,-0.86533 -6.51172,-0.85743 -3.69611,0.0189 -7.49791,0.69372 -11.20899,1.87305 -0.51437,0.1338 -1.02324,0.26496 -1.5625,0.41406 -2.791104,0.7711 -5.739363,2.26997 -8.603512,4.2168 -8.268533,4.9934 -14.837082,12.29217 -16.734375,19.85156 -3.62911,14.45953 5.878145,31.38582 22.365235,39.81836 5.708972,2.91991 13.995212,4.76947 18.525392,4.89453 l 2.69922,0.50586 -0.62696,-0.60742 c 1.62271,-0.29216 1.75307,-1.14597 -0.70507,-2.68359 -2.91807,-1.82533 -5.56357,-3.73511 -7.9375,-5.6875 l -2.46875,-2.39063 c -2.68833,-2.60383 -4.88288,-4.98177 -6.65039,-7.19922 -4.168562,-5.95377 -5.515645,-11.78353 -3.361333,-16.51172 4.333843,-9.51174 11.341473,-8.82845 29.142573,2.8379 20.69778,13.56467 33.61152,19.19972 47.2129,20.60351 l 10.88281,1.12305 -6.73633,6.73828 c -3.70574,3.70575 -7.36766,9.24442 -8.13672,12.30859 -0.52329,2.08498 -0.69846,4.56254 -0.60351,7.10352 -0.0435,1.64474 0.1209,3.2366 0.48828,4.75 0.76651,4.5733 2.33035,8.6916 4.32812,10.34961 1.36087,1.12943 2.33676,1.36258 3.41016,0.41797 0.93645,0.13719 1.61936,-0.52256 1.81836,-2.17383 0.0147,-0.10885 0.0234,-0.23056 0.0332,-0.34961 0.28535,-0.49588 0.58641,-1.05556 0.91016,-1.68164 3.27599,-6.33506 8.24214,-11.01272 13.8457,-13.32031 3.18957,-0.94511 6.67576,-1.38278 10.19922,-1.16602 4.42955,0.2725 8.4243,1.32112 9.66601,2.45898 0.0231,0.0227 0.0428,0.0441 0.0645,0.0664 0.14517,0.14627 0.2524,0.29404 0.30078,0.44141 0.21668,0.65892 -1.20114,2.5344 -3.83399,5.26953 -2.84392,2.4709 -7.40289,6.43691 -14.39453,12.53711 -36.71827,32.03667 -76.65593,58.17578 -88.88672,58.17578 -2.59648,0 -5.29246,1.48628 -5.99023,3.30469 -1.981361,5.16336 -1.48757,27.19513 0.74023,33.05468 0.0642,0.16895 0.11776,0.31749 0.17774,0.47657 0.16116,1.50636 0.23365,2.84825 0.19922,3.88672 -1.64221,2.18897 -8.211548,3.99774 -27.466799,9.35156 -8.151859,2.26662 -10.997673,13.72234 -9.886719,39.80078 1.053691,24.73421 4.959168,37.36334 17.304687,55.95703 l 7.107422,10.70313 c 0.01134,0.0377 0.01437,0.0624 0.02344,0.0957 -0.196158,0.57959 -0.878982,1.82078 -1.84961,3.41211 l -3.884765,4.78711 -5.859375,7.2207 c -0.415779,0.12132 -0.862041,0.23364 -1.330078,0.33984 l -17.023438,-0.71093 c -15.311312,-0.64082 -18.042969,-0.25889 -18.042969,2.52148 0,0.0113 0.0018,0.0219 0.002,0.0332 l -1.048829,0.0234 1.054688,0.0781 c 0.109417,2.50594 3.254917,3.27216 15.142578,3.7539 l 13.853516,0.5625 -1.902344,1.67188 c -0.313739,0.27553 -0.707284,0.59484 -1.056641,0.89062 l -4.607422,2.71485 c -3.787952,2.23226 -7.019213,4.9113 -8.289062,6.73632 l -1.371094,0.90039 1.060547,1.89649 c 0.642198,2.25804 2.361583,6.12936 4.396484,9.75 l 4.697266,8.35742 -7.230469,6.03516 c -3.976732,3.31993 -7.971355,6.03711 -8.876953,6.03711 -1.344862,0 -1.79987,1.21119 -1.552734,3.24609 -0.05004,0.0767 -0.09375,0.15084 -0.09375,0.19922 0,0.48684 0.233803,1.28496 0.634765,2.29492 2.055546,7.25076 9.207308,20.00457 17.691407,30.12891 29.440194,35.13228 71.133861,54.49038 138.955081,64.51568 14.277,2.1104 18.18615,3.3947 18.2793,6.0351 0.002,0.068 0.01,0.1316 0.01,0.2012 0,0.067 0.0142,0.1374 0.0176,0.2051 0.0871,1.922 0.67011,3.9396 1.37695,4.6465 0.1739,0.1738 0.40039,0.3299 0.66992,0.4707 0.14457,0.1802 0.29152,0.3541 0.44336,0.5058 3.53888,3.5389 10.24789,3.125 24.13282,-1.4883 6.96064,-2.3123 21.27068,-4.527 33.97265,-5.2597 12.07045,-0.6964 37.59109,-3.312 56.71289,-5.8125 11.84807,-1.5493 19.69681,-2.5464 25.72852,-3.0528 6.7734,-0.192 13.61567,0.105 21.53711,0.9239 1.82275,0.3167 3.80063,0.6896 6.0332,1.1152 58.72331,11.1939 114.13958,9.8153 153.34375,-3.8125 8.62171,-2.997 22.55903,-6.0011 30.9707,-6.6758 3.44584,-0.2763 6.09028,-0.4805 8.29688,-0.5488 0.34998,0.011 0.68401,0.022 1.01562,0.037 0.24265,0.011 0.46771,0.024 0.70118,0.035 2.79734,0.1564 4.99067,0.5143 7.20703,1.2988 2.59846,1.1501 5.40769,3.1159 9.95117,6.3144 14.29761,10.0651 23.30767,14.8878 29.70312,15.1797 h 0.002 c 0.26078,0.039 0.48804,0.049 0.71289,0.059 0.0265,0 0.073,0.016 0.0957,0.016 h 0.0547 c 0.0151,2e-4 0.0342,0 0.0508,0 0.0189,0 0.042,-0.012 0.0606,-0.012 0.4617,0 0.81227,-0.03 0.94531,-0.125 0.45868,-0.051 0.90646,-0.1218 1.33789,-0.2265 0.87844,-0.1422 1.64887,-0.4371 2.39453,-0.92 1.51385,-0.8196 2.86521,-2.0433 4.13086,-3.6523 2.82127,-3.5867 5.38457,-4.7307 14.74219,-5.5391 4.36206,-0.063 8.93121,-0.4964 13.3164,-1.207 13.32855,-1.884 24.80079,-6.2494 24.80079,-9.9355 0,-0.044 -0.0257,-0.1198 -0.0332,-0.1719 l 1.08008,-0.8789 -3.18945,-3.3438 c -0.89953,-1.4425 -1.97163,-3.0309 -3.1875,-4.625 -3.97195,-5.2074 -4.53587,-6.9902 -2.21289,-6.9902 5.07896,0 5.73738,-3.4414 2.11523,-11.0371 -3.32303,-6.96867 -3.26398,-7.36194 2.36328,-15.86528 3.17341,-4.79539 7.2997,-14.57597 9.16992,-21.73632 l 2.32032,-8.88477 c 1.11685,-2.14129 2.35413,-3.38711 4.0957,-4.16992 0.47675,-0.15496 0.9822,-0.30688 1.51953,-0.45508 l 7.22852,-0.7793 c 11.8586,-1.28024 22.81477,-6.5326 29.85547,-14.3125 3.146,-3.47629 3.59544,-6.35026 2.54492,-16.26757 -0.70171,-6.62427 -1.89553,-15.09988 -2.65235,-18.83594 -1.10226,-5.4415 -0.69924,-6.79297 2.02149,-6.79297 1.86807,0 3.39648,-1.30568 3.39648,-2.90235 0,-1.59653 -1.59746,-2.77273 -3.54883,-2.61328 -3.00347,0.24567 -4.10308,-3.87952 -7.16601,-26.88086 -6.74411,-50.64607 -12.3005,-111.94084 -14.55469,-160.56836 -0.63666,-13.73433 -1.33594,-25.16868 -2.16211,-35.15234 -0.39299,-6.87632 -1.20737,-14.62481 -2.1914,-20.7539 -0.83256,-6.29409 -1.76266,-12.09771 -2.85547,-17.61915 l -4.39844,-22.21679 c -0.0737,-1.58903 0.0151,-2.793 0.2793,-3.73633 l 6.25586,-6.44336 c 8.43462,-8.68929 11.52929,-16.07767 11.52929,-27.51758 0,-5.53901 -0.95329,-8.57708 -4.38476,-12.60156 -0.91892,-1.4321 -2.018,-2.71465 -3.30274,-3.80859 -1.46812,-1.66583 -3.04163,-3.00566 -4.61523,-3.85352 -5.11805,-4.00913 -6.71195,-2.4554 -5.36719,4.71289 1.83152,9.76286 -1.83273,15.51232 -13.05078,20.47461 -4.58358,2.02753 -8.78929,3.19469 -12.7793,3.47656 -1.01185,-0.0438 -2.08012,-0.10239 -3.26758,-0.18554 -0.82144,-0.0575 -1.47848,-0.11796 -2.20117,-0.17579 -2.58107,-0.43441 -5.13534,-1.18167 -7.61328,-2.23242 -4.34672,-2.12587 -8.64508,-5.53578 -13.15039,-10.30664 -14.30506,-15.14831 -23.17802,-28.41447 -19.73437,-29.50195 1.50032,-0.47384 7.65315,-2.41726 13.67382,-4.31836 14.52677,-4.58702 19.35938,-10.88411 19.35938,-25.22852 0,-6.09275 -0.91599,-13.4907 -2.03711,-16.43945 -0.84627,-2.2258 -1.29122,-3.52328 -0.88477,-4.28516 1.09913,-0.50887 2.5853,-0.88831 4.21485,-1.04296 0.13946,-0.004 0.23545,-0.0118 0.38281,-0.0156 0.0722,-9.8e-4 0.14858,-0.003 0.22266,-0.004 0.7593,-0.0113 1.59987,-0.0156 2.57226,-0.0156 1.83636,0 3.83183,-0.25624 5.88672,-0.70899 3.64672,-0.70936 7.03276,-1.93554 10.0625,-3.60156 5.07938,-2.5096 9.52743,-5.82937 11.72266,-9.17968 7.1698,-10.94246 5.56112,-30.06592 -2.91016,-34.59961 -1.42666,-0.76354 -2.91066,-1.29711 -4.38672,-1.63477 -1.75725,-0.67952 -3.58115,-0.81566 -5.35156,-0.31445 -3.13191,0.3902 -5.76496,1.83547 -7.04883,4.23437 -2.12417,3.96915 -1.50282,6.6293 0.5918,5.85352 0.0575,-4.9e-4 0.12035,-0.0226 0.1914,-0.0684 0.4009,-0.1818 0.85546,-0.49574 1.34571,-0.92774 0.30198,-0.21543 0.61783,-0.45357 0.96094,-0.73828 0.19988,-0.16592 0.39523,-0.31406 0.58984,-0.44922 2.07579,-0.96986 4.62678,0.30917 5.95898,2.68555 0.21997,0.85092 0.37606,1.89778 0.50196,3.19336 0.10431,1.07546 0.0783,2.09553 -0.0606,3.05859 -1.62153,4.82948 -7.46042,8.10629 -15.00977,8.04102 -11.42607,-0.099 -16.2783,-3.16735 -24.58007,-15.54492 -8.32736,-12.41567 -23.95697,-24.7298 -38.32227,-30.19141 l -8.50781,-3.23437 c -0.55034,-0.37644 -0.88009,-0.68517 -0.87696,-0.87891 0.002,-0.0911 0.0679,-0.20643 0.1836,-0.33984 l 5.01953,-1.93164 c 6.92311,-2.66434 16.8936,-11.36843 20.36328,-17.77539 10.42689,-19.25429 0.34811,-51.25586 -16.14258,-51.25586 -5.10463,0 -5.47838,0.54006 -4.25,6.13281 0.61213,2.78701 0.30992,5.13517 -0.84375,7.01758 -0.1062,0.16365 -0.21209,0.32847 -0.32812,0.48632 -0.0975,0.13448 -0.20164,0.26533 -0.3086,0.39454 -0.10167,0.12498 -0.20869,0.24609 -0.3164,0.36718 -3.12439,3.34327 -9.65776,4.75758 -19.14649,3.97071 -8.94788,-0.74204 -12.86171,-2.24595 -17.55078,-6.73828 -11.20055,-10.73082 -10.00967,-13.00358 7.50391,-14.32813 27.51915,-2.08126 42.49269,-13.364 42.50781,-32.03125 0.0113,-10.90643 -5.98058,-18.81595 -16.36914,-21.61328 -14.30464,-3.85184 -29.60547,3.95288 -29.60547,15.09961 0,1.54769 0.95221,3.55691 2.39063,5.57226 1.0772,2.5347 2.99542,4.67559 5.77734,5.92774 2.03683,1.5383 4.08221,2.57031 5.64648,2.57031 3.32009,0 3.31597,-0.26388 -0.0723,-4.00781 -1.99487,-2.20435 -3.31727,-6.2015 -2.9375,-8.88281 0.54066,-3.81738 2.19516,-5.0202 7.62109,-5.54102 3.26548,-0.31344 6.99934,0.24835 9.04297,1.27539 1.04383,0.91505 2.01254,2.01618 2.85938,3.30859 0.1799,0.27432 0.34168,0.54514 0.49804,0.81446 1.41804,4.09236 -0.32391,9.3118 -4.73047,12.19922 -7.77082,5.09164 -36.39888,3.21944 -49.08789,-3.21094 -9.14623,-4.63501 -22.99023,-16.17175 -22.99023,-19.1582 0,-0.7538 4.83849,-0.9348 11.01367,-0.46485 1.39695,0.17401 2.8045,0.27355 4.2168,0.31641 0.39643,0.0582 0.85008,0.1321 1.08789,0.15039 0.97769,0.0751 2.17795,3.1e-4 3.50195,-0.17383 11.36636,-0.44414 21.94225,-4.25022 27.28711,-10.15625 2.37604,-2.62547 3.17701,-4.26469 2.49609,-4.91797 l 1.60352,-1.50195 -1.53516,0.74414 c -0.0189,-0.55548 -1.16835,-0.25183 -3.42968,0.79492 -1.33769,0.34889 -3.02788,0.94183 -5.09766,1.80664 -4.39782,1.83753 -9.09695,2.82987 -13.83984,3.07617 -0.18785,0.005 -0.37191,0.0197 -0.56055,0.0234 -0.0575,0.002 -0.11448,0.002 -0.17187,0.004 -1.96604,0.0351 -3.96243,-0.0276 -5.93946,-0.16797 -14.94304,-1.38018 -29.11498,-9.81718 -34.37695,-22.4336 -3.94265,-9.45306 -14.03368,-20.1096 -22.27539,-23.52343 -5.82459,-2.41262 -6.12704,-3.10001 -4.88867,-11.11328 0.72601,-4.69778 3.17269,-11.09031 5.4375,-14.20508 0.90606,-1.24612 1.70278,-2.43835 2.38476,-3.51367 1.02335,-1.35105 1.73438,-2.50478 1.73438,-2.97461 0,-0.0619 -0.0276,-0.11221 -0.0352,-0.16993 0.008,-0.0419 0.0352,-0.10426 0.0352,-0.13476 0,-0.79678 -1.0203,-1.15757 -2.53321,-1.17969 -0.63507,-0.30259 -1.91235,-0.13939 -3.47265,0.375 -2.51482,0.5158 -5.32176,1.52231 -7.35938,2.85742 -4.83016,3.16483 -4.86924,3.11389 -7.53906,-9.46679 -1.90806,-8.99118 -3.70023,-13.78093 -5.52344,-14.38086 -0.20334,-0.15916 -0.40213,-0.23438 -0.59961,-0.23438 -0.0113,0 -0.0263,0.0137 -0.041,0.0156 -0.0265,-0.005 -0.0504,-0.0156 -0.0742,-0.0156 -0.0113,0 -0.0301,0.0161 -0.043,0.0195 -0.0151,-0.003 -0.0302,-0.0195 -0.0449,-0.0195 z m -0.0391,17.07422 h 0.002 c 1.0662,-0.0212 2.11974,2.60777 2.96484,7.89258 0.67737,4.23608 1.57464,7.04061 2.78711,8.52344 0.38994,0.55166 0.8082,0.89824 1.26367,1.02148 1.51525,0.67321 3.42481,-0.12662 5.85743,-2.32812 0.951,-0.86064 1.66212,-1.49633 2.19726,-1.92774 0.10545,0.72998 0.10917,1.8399 0.0332,3.19922 -0.10998,0.29193 -0.14638,0.42043 -0.27148,0.75 -1.20945,3.18113 -2.19922,9.84641 -2.19922,14.81055 0,0.41489 -0.012,0.74678 -0.0195,1.12695 -0.82828,3.79845 -1.73142,6.99143 -2.50781,8.30469 -0.58859,0.35028 -1.30017,0.61834 -2.17774,0.85351 -1.89585,0.50807 -4.01251,0.81183 -6.1914,0.95704 -1.0215,0.0525 -2.10723,0.0749 -3.19532,0.0957 -9.18909,-0.0412 -18.24722,-2.72256 -16.24218,-5.9668 0.70911,-1.14735 0.30273,-7.42782 -0.9043,-13.95703 -1.20703,-6.52919 -1.7884,-12.27799 -1.29102,-12.77539 0.49743,-0.49739 3.05629,0.6037 5.68555,2.44531 7.32155,5.12819 9.62771,4.09157 11.16602,-5.01367 0.89877,-5.31962 1.97672,-7.99043 3.04297,-8.01172 z m -24.53321,35.97852 h 0.002 c 1.76013,0.0344 2.80444,0.56962 3.69531,1.78515 0.008,0.12163 0.0273,0.22139 0.0273,0.35352 0,1.4466 0.81015,3.00182 1.94922,3.95703 0.58904,2.53839 -0.58719,4.23665 -4.54492,7.74023 -14.77009,13.07526 -24.95025,64.63006 -17.30664,87.64258 2.2128,6.66226 3.19237,13.9054 2.47656,18.31641 -1.44601,8.91084 -9.92416,20.4432 -18.1582,24.70117 l -4.85352,2.50977 c 0.0918,-0.57137 0.35074,-1.52411 0.77344,-2.82813 l 1.94531,-3.3418 c 2.18427,-3.74971 5.40776,-13.8724 7.16406,-22.49414 2.57042,-12.61813 5.07308,-40.08312 5.31055,-53.13867 0.17197,-3.99553 0.10964,-6.14291 -0.18555,-6.20508 -0.12963,-0.80742 -0.31747,-1.16875 -0.58007,-0.92578 -0.82511,0.76379 -2.83297,12.99129 -4.46289,27.17188 -3.95653,34.42329 -10.89853,56.30254 -19.22071,61.27539 -0.008,0.004 -0.0198,0.01 -0.0273,0.0137 -0.38506,0.17193 -0.75506,0.35595 -1.11328,0.54688 -0.83649,0.33972 -1.68433,0.52343 -2.54492,0.52343 -4.96165,0 -3.48341,3.99244 1.98632,5.36524 1.84853,0.46397 4.4654,0.21203 7.39454,-0.53711 2.42119,-0.50631 4.89829,-1.4116 7.34179,-2.64649 5.12236,-2.33163 10.1799,-5.59652 13.32031,-9.01367 2.68453,-2.92108 6.24612,-8.9278 7.91407,-13.34766 l 3.0332,-8.0371 -0.81055,14.70507 c -1.02826,18.67881 -6.09866,29.77756 -15.37695,33.6543 -8.51974,3.55975 -9.06668,5.88359 -1.00586,4.27149 l 5.05078,-1.00977 c 0.3171,0.0824 0.58594,0.22149 0.78516,0.46289 l -2.58789,14.88086 c -1.4846,8.53723 -4.5862,19.78798 -6.89258,25.00195 -8.59669,19.43426 -34.93372,38.33203 -63.95313,45.89063 -15.11901,3.93793 -39.02235,4.03893 -49.75976,0.20898 -22.14301,-7.89823 -36.20628,-27.24246 -38.67578,-45.43359 -0.68243,-6.39307 -0.0416,-12.52785 1.73633,-17.91016 2.51656,-6.7087 7.31075,-12.43969 14.66015,-16.24023 8.73774,-4.51847 15.63679,-3.80385 22.27149,2.30859 5.13834,4.73386 5.22529,4.99232 0.69726,2.08985 -10.4736,-6.71366 -24.50332,-2.96974 -30.48242,8.13281 -5.29236,9.8273 -3.10345,22.87601 5.23438,31.20703 4.51452,4.51094 6.30875,5.87662 13.32031,6.2793 5.37985,1.04424 11.82123,0.97552 18.55469,-0.0274 8.53631,-0.44659 13.32855,-1.84864 21.53124,-5.66797 12.99931,-6.05268 26.12696,-16.95568 26.12696,-21.69922 0,-0.068 -0.0142,-0.11971 -0.0293,-0.17187 0.0151,-0.0748 0.0293,-0.15128 0.0293,-0.21289 0,-0.87292 -1.15928,-0.31745 -2.89453,1.21484 -1.41808,1.01322 -3.23014,2.56807 -5.22657,4.56446 -4.56801,4.56805 -13.02437,9.9458 -19.33203,12.29296 -6.74498,2.50995 -15.66265,4.61453 -22.55859,5.64649 -1.26342,0.0227 -2.53983,0.043 -3.97461,0.0449 -2.55489,0.003 -4.64369,-0.007 -6.5293,-0.0332 -0.0556,-0.0831 -0.0942,-0.17171 -0.0937,-0.27149 0.003,-0.97005 5.25067,-4.50529 11.66211,-7.85547 15.75757,-8.23381 25.321,-20.2571 31.34961,-41.44921 0.19276,-0.58768 0.40613,-1.37856 0.63086,-2.30664 2.39932,-9.07163 4.20822,-19.74811 5.61133,-32.43165 1.73371,-15.67276 4.58033,-33.06903 6.32617,-38.65625 1.74584,-5.58724 2.72089,-10.61118 2.16602,-11.16601 -1.60131,-1.6013 -7.08789,10.27015 -8.6875,18.79687 -1.73779,9.26315 -9.63427,16.58815 -26.07227,24.1875 -8.9229,4.12509 -15.80514,5.50794 -30.75586,6.18164 -24.85682,1.12008 -32.4371,-0.43906 -41.70703,-8.57812 -5.26057,-4.61885 -9.11171,-10.29673 -11.26562,-15.97656 -0.90229,-2.66092 -1.54509,-5.33129 -1.875,-7.85742 -0.42679,-4.67933 0.50136,-8.99573 2.98046,-12.27344 0.68784,-0.90938 1.2111,-1.57508 1.62696,-2.00391 0.80655,-0.36748 1.21145,0.0121 1.40625,1.2832 0.0616,0.86047 0.0864,2.01688 0.10156,3.55665 0.0831,8.61196 7.77166,16.22495 19.70703,19.50976 10.54568,2.90238 28.77517,-0.29639 37.21289,-6.5293 2.10081,-1.55186 3.70371,-2.46598 5.25781,-2.83984 0.21128,-0.0446 0.42163,-0.0876 0.63086,-0.12109 0.0782,-0.0113 0.15614,-0.0245 0.23438,-0.0332 0.0525,-0.007 0.10529,-0.0108 0.1582,-0.0176 1.44669,-0.12803 2.93549,0.19839 4.82813,0.91797 7.07429,2.69009 19.82226,2.68245 19.82226,-0.0117 0,-1.14957 -3.33935,-2.0918 -7.41992,-2.0918 -2.74167,0 -5.40666,-0.37115 -7.99023,-1.11133 -0.003,-7.4e-4 -0.004,-8.5e-4 -0.008,-0.002 -1.64058,-0.55115 -3.18044,-1.14141 -4.6289,-1.76563 -3.95358,-1.89473 -7.69279,-4.71979 -11.19532,-8.46875 -4.09053,-4.37837 -5.13703,-7.75965 -5.2246,-16.86914 -0.0911,-9.4689 0.77217,-12.26158 5.11523,-16.54101 2.87395,-2.8318 7.85093,-5.78833 11.06055,-6.57032 l 2.8457,-0.69336 c 0.63088,0.0268 1.26421,0.0563 1.98047,0.11329 0.0548,0.004 0.10378,0.006 0.1582,0.01 l -5.50586,5.50781 c -7.04798,7.04795 -7.98541,13.43537 -2.875,20.66016 9.9e-4,0.002 0.003,0.004 0.004,0.006 0.57762,1.12924 1.38394,2.11159 2.44531,3.02344 4.032,4.43833 8.17886,6.58958 14.3125,7.41211 18.66713,2.50326 31.32958,-4.16669 44.64063,-23.51368 0.4368,-0.63481 0.88596,-1.25087 1.33984,-1.85546 2.21723,-2.4631 4.47084,-4.8921 6.44141,-6.86133 0.65276,-0.65234 1.2412,-1.21171 1.83398,-1.77735 5.74386,-4.59536 12.07432,-7.13476 18.23242,-7.13476 4.17521,0 7.5918,-0.94223 7.5918,-2.0918 0,-1.14956 -4.27966,-2.08984 -9.50977,-2.08984 -12.50861,0 -21.46996,-4.86651 -25.14257,-13.65625 -1.15707,-2.76928 -1.94792,-4.95165 -2.38672,-6.57813 l -0.40039,-2.5625 v -0.006 c 0.13039,-1.84375 1.97317,-1.04015 5.56445,2.32227 0.15723,0.14725 0.30766,0.27568 0.46289,0.41797 0.29556,0.29801 0.61486,0.58995 0.96484,0.87304 0.0189,0.0174 0.0389,0.0337 0.0586,0.0508 0.0484,0.0387 0.0915,0.0788 0.14062,0.11719 7.00736,6.0458 12.26192,6.86104 23.22852,4.09961 7.69292,-1.93709 12.57951,-5.12063 20.57226,-13.39844 11.61907,-12.03349 15.41817,-14.40521 26.18555,-16.34375 1.95697,-0.35233 3.43945,-0.54568 4.60742,-0.52343 z m 44.0918,3.43554 v 0.002 c 5.2258,1.83213 16.57189,13.96023 21.98047,25.06445 4.50769,9.25479 12.65142,16.22222 22.06054,18.1875 42.44701,8.86582 2.05657,6.89285 -10.27539,1.74023 -7.81413,-3.26496 -9.0758,-2.39066 -4.11914,2.85352 1.72094,1.82079 6.23104,7.54375 10.02149,12.7168 18.5447,25.30885 71.90752,34.16733 81.32422,13.5 2.11963,-4.6521 0.94694,-10.07064 -2.62891,-14.32422 -0.33033,-0.50958 -0.68895,-1.00472 -1.10351,-1.46289 -1.25923,-1.39144 -2.8118,-2.40144 -4.5254,-3.07422 -0.19653,-0.10742 -0.38399,-0.22401 -0.58593,-0.32617 -8.02405,-1.97071 -19.7527,2.43412 -21.41407,8.82226 -0.27363,1.11312 -0.47102,1.87748 -0.625,2.35938 -0.2211,-0.88097 -0.39941,-1.86581 -0.50195,-2.93164 -0.034,-0.347 -0.0442,-0.62383 -0.0684,-0.93946 0.31446,-2.22387 1.65308,-4.74745 3.33985,-6.07031 12.70586,-11.4789 27.30322,-5.56175 31.98046,7.90235 3.53832,10.72116 -2.39072,21.20193 -15.78125,27.89453 -9.19986,4.5981 -13.1405,5.22276 -32.91601,5.22461 -23.10849,0.002 -28.82645,1.69586 -14.11328,4.18164 3.56424,0.60217 5.81395,1.33266 7.07226,2.375 0.40298,0.56437 0.80629,1.25036 1.21289,1.99023 0.0461,0.2434 0.0762,0.49541 0.0762,0.76367 0,5.19943 7.52048,14.18659 15.18945,18.15235 7.81251,4.04001 23.77355,4.56463 30.38281,0.99804 1.10151,-0.59441 2.41608,-1.64693 3.72852,-2.90625 2.24466,-1.49805 3.78738,-3.32457 4.52734,-5.40039 0.12548,-0.19204 0.26378,-0.38685 0.37891,-0.57617 l 3.125,-5.13672 c 1.17804,0.58789 2.64618,1.91316 4.30078,3.91406 l 0.95117,1.33594 c 5.38957,7.56892 7.42979,18.00155 5.51563,28.20508 -2.37755,12.6734 -15.00294,23.18723 -27.71485,26.98438 -2.20002,0.47945 -4.47009,0.82692 -6.80859,0.99609 -2.56747,0.18557 -4.6015,0.29221 -6.31446,0.29297 -4.12078,-0.56126 -7.79549,-2.18104 -10.54101,-5.10352 -3.8778,-4.12773 -12.77446,-6.51475 -15.25391,-5.10937 l -2.51172,0.0293 1.85743,1.0625 c 0.0151,0.34696 0.15531,0.75781 0.45117,1.23633 1.7577,2.84406 1.40465,2.72398 -23.17188,-7.83398 l -15.76367,-6.77149 c -0.46598,-0.28082 -0.81207,-0.51656 -0.99609,-0.6914 -0.32089,-0.30501 -0.67489,-1.08173 -1.03516,-2.15039 l -1.22266,-12.41993 c -2.25429,-22.87777 -5.53052,-19.86231 -4.01757,3.69727 2.849,44.36297 10.06574,59.71332 31.20312,60.99609 4.24263,0.73285 8.69939,0.5205 13.19922,-0.70312 8.62001,-1.4346 13.30367,-4.85339 15.94141,-11.64063 l 0.27539,-0.25586 -0.24414,0.17774 c 0.49511,-1.28674 0.92408,-2.68154 1.28711,-4.21875 l 1.32226,-5.59766 c 0.18331,0.77704 0.33939,1.57513 0.46094,2.38282 l 0.0957,3.0996 c 0.0571,1.85156 -0.0302,3.53508 -0.25586,5.0879 -0.88993,4.23411 -3.06443,7.9162 -6.28515,10.77148 -1.07339,0.80961 -2.28577,1.56185 -3.6543,2.26953 -8.07379,4.17494 -36.18175,4.08882 -45.93164,-0.14062 -15.56364,-6.75145 -27.16215,-19.39428 -31.42383,-34.25391 -1.75034,-6.10318 -1.6056,-6.29967 3.78125,-5.10742 l 5.60352,1.24023 -6.72071,-5.51172 c -5.91462,-4.85076 -9.48404,-11.69007 -10.47851,-18.51953 -0.0627,-0.76463 -0.1276,-1.50478 -0.18164,-2.34961 -0.0435,-0.68424 -0.068,-1.2231 -0.10352,-1.84179 0.0442,-3.84279 0.94599,-7.54623 2.74609,-10.7461 0.6982,-1.10379 1.55254,-2.27928 2.55665,-3.54101 0.26796,-0.29125 0.54346,-0.57746 0.83203,-0.85352 11.26541,-10.77751 14.92527,-18.87934 16.76367,-37.11523 0.94443,-9.36889 2.75682,-17.38118 4.02734,-17.80469 1.54337,-0.51445 1.31511,-1.91197 -0.68554,-4.21094 -1.64693,-1.89253 -4.58258,-8.32459 -6.52539,-14.29492 -3.40725,-10.47027 -7.86242,-18.37594 -13.73047,-24.25586 -2.66733,-2.92337 -5.51621,-5.22325 -8.46485,-6.74805 -0.11452,-0.0592 -0.21467,-0.12323 -0.32617,-0.18359 -7.03158,-5.06639 -6.74728,-6.97613 0.24609,-9.41406 3.55238,-1.23836 6.45899,-3.09961 6.45899,-4.13672 0,-0.23686 0.019,-0.44825 0.0488,-0.64258 0.92647,-0.61996 1.89053,-1.05805 2.69531,-1.19141 z m -30.24805,6.375 c 0.84699,0.57885 -0.81473,2.81503 -4.67578,6.20508 -3.98419,3.49816 -8.72656,10.31809 -10.53711,15.1543 -2.38235,6.36392 -2.97958,7.06156 -2.16211,2.52344 1.91362,-10.6229 5.43603,-17.57005 9.57227,-18.88282 2.17549,-0.69047 3.95508,-2.13297 3.95508,-3.20507 0,-0.22867 0.0767,-0.44612 0.19726,-0.65039 1.20008,-0.55561 2.42254,-0.94864 3.65039,-1.14454 z m 11.18946,2.24805 c 1.38867,0.12699 1.68359,1.68548 1.68359,4.75195 0,2.78586 3.28488,9.36975 7.30078,14.63086 4.0159,5.26111 7.07262,9.51241 6.79297,9.44532 -2.26617,-0.54418 -23.02351,-11.43994 -27.29102,-14.26172 -2.01887,-1.75237 -3.07632,-3.31155 -3.23242,-4.78516 0.32693,-1.67944 2.40446,-3.43726 6.50196,-5.93555 4.37339,-2.66654 6.85546,-3.97268 8.24414,-3.8457 z m 7.63476,9.73438 c 2.47875,4.03213 11.7979,8.1901 13.38756,10.88504 2.86354,5.40941 3.70733,15.18564 8.39174,19.28488 3.57142,2.99107 1.25,3.21484 1.25,3.21484 0,0 3.92855,2.67857 0,0 -7.21405,-4.37573 -9.29418,-10.40234 -12.41016,-17.09765 -2.84039,-5.73064 -6.12572,-11.00771 -10.31445,-15.75782 -0.0718,-0.11656 -0.14939,-0.23929 -0.20117,-0.33594 -0.0302,-0.0583 -0.0808,-0.14142 -0.10352,-0.19335 z m -26.63476,4.39648 5.91406,4.97461 c 3.25266,2.73693 11.19749,7.12273 17.65625,9.74414 8.50681,3.45268 13.26209,6.85872 11.77148,8.03125 -0.20409,0.0906 -0.4441,0.18705 -0.69922,0.2832 -0.36888,0.0888 -0.82201,0.14649 -1.41797,0.14649 -1.14949,0 -2.08984,0.94027 -2.08984,2.08984 0,1.14957 2.82083,2.08984 6.26953,2.08984 4.89196,0 12.35025,4.71789 13.8418,7.93165 0.082,0.21225 0.1591,0.43077 0.23242,0.65429 0.11074,0.53899 0.0113,1.01692 -0.36133,1.39063 -0.69694,0.69702 -2.71149,-0.79339 -4.47461,-3.31055 -0.57339,-0.81864 -1.21559,-1.51655 -1.90429,-2.10937 -1.38312,-1.31281 -2.8455,-2.03591 -4.39453,-2.17188 -3.74438,-0.74448 -7.79302,0.8794 -10.38672,4.83789 -0.80077,1.2221 -1.372,2.3144 -1.72852,3.3125 -1.48739,1.85411 -1.41283,2.69545 -0.0293,3.91992 0.82126,1.75917 2.95522,3.1725 6.55469,4.54102 3.98166,1.51383 6.583,1.1786 10.42969,-1.3418 0.0835,-0.0548 0.16452,-0.10104 0.24805,-0.1543 0.4148,-0.19966 0.78988,-0.43421 1.14648,-0.68359 2.30351,-1.27963 4.37011,-1.87599 4.91406,-1.33203 0.65277,0.65277 0.175,8.39937 -1.0625,17.2168 -2.51565,17.9278 -9.07938,29.60547 -21.25195,37.80859 -7.54235,5.08279 -17.42407,6.02368 -24.17187,2.30078 -14.34671,-7.91537 -23.40304,-22.6787 -25.4043,-41.19922 -0.0624,-1.03755 -0.124,-2.05062 -0.17578,-3.20312 -0.14098,-3.13095 -0.15969,-6.54492 -0.0879,-9.90039 0.90277,-4.53126 4.13079,-3.73279 12.36914,0.21094 4.49163,2.15007 6.58991,2.11173 11.34179,-0.20313 3.20671,-1.56211 6.19454,-3.95715 6.63868,-5.32227 1.01911,-3.13251 -3.57463,-7.86539 -8.24805,-9.79296 -1.44756,-0.80278 -2.93041,-1.03991 -4.60742,-0.80274 -0.10734,0.014 -0.22153,0.0113 -0.32617,0.0312 -2.72659,0.52124 -4.45943,0.14172 -3.85157,-0.8418 0.0151,-0.0253 0.0479,-0.049 0.0664,-0.0742 0.47909,-0.32009 1.13788,-0.69258 1.95898,-1.11329 1.13862,-0.36487 2.59155,-0.59961 4.05664,-0.59961 2.73823,0 5.56101,-0.94027 6.27149,-2.08984 0.38457,-0.62223 0.0114,-1.15019 -0.9336,-1.52148 l 0.9336,-0.40625 -2.96094,-0.041 c -0.6381,-0.0744 -1.34352,-0.12109 -2.14062,-0.12109 -1.00245,0 -1.92089,-0.0291 -2.76758,-0.0723 -1.06923,-0.23036 -1.98494,-0.59403 -2.625,-1.04297 -0.28536,-0.32016 -0.48335,-0.72057 -0.59961,-1.20898 0.54353,-2.04277 1.59723,-5.74078 2.8418,-9.93164 z m -26.24805,4.13867 c -0.88868,0.0295 -3.01968,3.13893 -6.14063,9.73047 -6.74275,14.24091 -9.80241,30.14912 -8.1582,42.4082 0.29178,2.17578 0.60056,3.82585 0.91797,5.04688 l -0.0644,2.61133 0.29492,-1.81446 c 1.50705,4.67012 3.16977,-0.89767 4.18945,-15.36523 0.63039,-8.9443 3.18967,-21.68577 5.68945,-28.31445 3.50261,-9.2878 4.41412,-14.3404 3.27149,-14.30274 z m 83.24805,13.47461 c -0.0696,0.006 -0.12942,0.0336 -0.17969,0.084 -0.57033,0.57032 1.89398,8.29701 5.47656,17.16992 3.58258,8.87291 7.09209,19.74819 7.79883,24.16797 0.70677,4.41979 2.10475,8.03711 3.10742,8.03711 2.50307,0 2.26915,-9.77853 -0.47656,-19.85743 -2.46134,-9.03493 -13.5669,-29.78172 -15.72656,-29.60156 z m -75.07032,8.73438 c 0.17122,0.10537 0.34924,1.24748 0.56641,2.88281 l -0.0664,1.78711 c -0.0813,2.16205 -0.10925,3.89372 -0.0703,5.3125 -0.20561,0.77854 -0.47307,1.40082 -0.80469,1.73242 -1.05135,1.05138 -1.37015,-1.50873 -0.74804,-6.00195 0.56179,-4.05753 0.85254,-5.87933 1.12304,-5.71289 z m 58.13672,6.3457 c 2.09821,-0.0893 5.04492,3.88476 5.04492,3.88477 0,-10e-6 -2.36743,-1.69647 -4.91211,-1.875 -2.54464,-0.17858 -4.82031,1.56249 -4.82031,1.5625 0,-10e-6 2.5893,-3.48296 4.6875,-3.57227 z m -40.77734,0.28125 c 2.37381,0.0834 4.88476,3.69336 4.88476,3.69336 0,0 -2.94672,-1.42915 -5.35742,-1.65234 -2.41073,-0.22322 -4.82226,1.33984 -4.82226,1.33984 0,0 2.32226,-2.90318 4.82226,-3.34961 0.15625,-0.0279 0.3144,-0.0368 0.47266,-0.0312 z m 41.5957,3.35156 c 0.71441,0.0323 1.47857,0.44429 1.375,2.10156 -0.18935,3.03046 -3.03125,2.08399 -3.03125,2.08399 0,0 -1.3249,-0.31617 -1.45117,-1.89453 -0.12624,-1.57836 1.95703,-2.08203 1.95703,-2.08203 0,0 0.38239,-0.16122 0.84961,-0.20118 0.0973,-0.008 0.19872,-0.0122 0.30078,-0.008 z m -40.94531,0.32813 c 0.164,0.008 0.32084,0.0309 0.46289,0.0703 1.13643,0.31567 1.95746,3.97778 -1.38867,3.66211 -3.34613,-0.31567 -1.76953,-3.1582 -1.76953,-3.1582 0,0 1.54729,-0.6286 2.69531,-0.57422 z m 16.93359,17.02539 c -2.10527,0.0265 -4.55078,0.87992 -4.55078,2.11914 0,0.4518 1.93768,0.82226 4.30469,0.82226 0.5983,0 1.13099,-0.0585 1.58594,-0.16211 1.65996,-0.053 2.50426,-0.5016 1.90429,-1.10156 -0.0756,-0.0758 -0.16899,-0.14021 -0.26953,-0.20117 -0.002,-0.17125 -0.0378,-0.34711 -0.15234,-0.5332 -0.41824,-0.67673 -1.55911,-0.95923 -2.82227,-0.94336 z m -3.38086,7.12109 c -0.50694,0 -1.50437,0.94028 -2.21484,2.08985 -0.71048,1.1495 -0.29555,2.08984 0.92187,2.08984 1.21739,0 2.21485,-0.94034 2.21485,-2.08984 0,-1.14957 -0.41493,-2.08985 -0.92188,-2.08985 z m 9.28125,2.08985 c -1.14954,0 -2.08984,0.94028 -2.08984,2.08984 0,1.14957 0.9403,2.0918 2.08984,2.0918 1.14958,0 2.08985,-0.94223 2.08985,-2.0918 0,-1.14956 -0.94027,-2.08985 -2.08985,-2.08984 z m -7.62304,10.58593 c -2.80475,0.0287 -5.19174,0.70773 -6.05079,2.09766 -0.0733,0.11845 -0.16603,0.22358 -0.25976,0.32812 -0.17991,0.0739 -0.33528,0.12572 -0.51953,0.20313 l -1.97656,0.83203 c -0.51795,0.0125 -1.04719,-0.0602 -1.54688,-0.25195 -2.44354,-0.93767 -3.25336,-0.25569 -2.50195,1.74804 l -0.75196,0.21289 0.20508,0.22266 1.78711,1.92578 c 0.67435,1.08538 1.54173,2.32746 2.66992,3.76172 3.97036,5.04743 9.59455,6.68538 14.28321,4.90039 2.63478,-0.85663 4.9763,-2.88103 6.68945,-6.08203 0.23735,-0.44391 0.42604,-0.84993 0.58398,-1.23437 0.55658,-1.01709 0.83425,-1.78567 0.76758,-2.43555 l 0.75196,-0.95703 -1.72657,-0.71485 c -0.46443,-0.46164 -1.067,-0.95518 -1.87695,-1.56836 -0.0265,-0.0193 -0.0563,-0.0355 -0.082,-0.0547 -0.0151,-0.0129 -0.0264,-0.0243 -0.0449,-0.0371 -2.68948,-2.0384 -5.16048,-2.96287 -8.23633,-2.79102 -0.73516,-0.073 -1.46364,-0.11269 -2.16406,-0.10547 z m 1.32617,4.31836 c 0.661,0.049 1.22793,0.23185 1.55078,0.55469 0.37379,0.37387 0.17422,0.68509 -0.41992,0.88281 -0.35414,0.0204 -0.66842,0.0508 -1.10352,0.0508 -2.50359,0 -3.71565,-0.36177 -3.03711,-0.83789 0.008,-0.004 0.012,-0.007 0.0195,-0.0117 0.0113,-0.008 0.0341,-0.0174 0.0488,-0.0254 0.13531,-0.0723 0.29331,-0.14544 0.48633,-0.22265 0.0151,-0.006 0.0302,-0.01 0.0449,-0.0156 0.6875,-0.24491 1.54431,-0.37243 2.41016,-0.375 z m 3.69922,5.25391 c 1.17456,0.0596 1.74515,0.43023 1.36523,1.04492 -0.52887,0.85574 -2.78531,1.49895 -4.93359,1.73828 -1.66186,-0.0624 -3.2546,-0.34681 -4.21875,-0.86328 0.32466,-0.45524 2.47842,-1.17545 5.0957,-1.67578 1.06466,-0.20353 1.98668,-0.2799 2.69141,-0.24414 z m -29.80078,14.05664 0.95117,0.5 7.26172,4.79883 c 4.87559,3.22112 8.83221,4.70737 14.02343,5.13086 2.06393,0.42821 3.97225,0.44844 6.01758,0.11328 l 8.32422,-0.125 v 8.26758 c 0,4.54658 1.7665,11.19881 3.92578,14.7832 2.15925,3.58439 4.56068,10.07953 5.33594,14.43555 1.24214,6.97954 0.16968,10.08244 -9.0332,26.12695 -16.55709,28.86606 -13.43591,28.85559 -32.91211,0.12695 l -17.00977,-25.08984 6.32422,-12.26172 c 4.77759,-9.2637 6.38133,-15.27716 6.55859,-24.59766 z m -235.5879,32.73242 c 3.34119,0.0593 3.33688,0.20978 -0.0723,2.19531 -6.07906,3.54074 -9.92773,13.59576 -9.92774,25.9375 0,27.02298 19.99012,44.42674 53.52149,46.59766 13.48343,0.87303 15.16385,1.48792 18.22266,6.66601 2.94727,4.98928 2.99354,6.20317 0.36718,9.67383 -1.65139,2.18245 -4.51919,8.43602 -6.37304,13.89649 -3.68595,10.85677 -4.99995,11.34677 -18.71094,6.99218 -23.85581,-7.57642 -43.00965,-22.78559 -52.77539,-41.90624 -6.14223,-12.02612 -8.63829,-36.07121 -5.21289,-48.58594 0.0476,-0.17122 0.0992,-0.3398 0.14843,-0.50977 0.0778,-0.26419 0.15288,-0.5323 0.23633,-0.78515 2.72947,-8.27037 14.97065,-20.27128 20.57617,-20.17188 z m 315.63477,2.57227 c 0.31559,0.0529 0.69718,0.13813 1.17578,0.27343 1.7856,0.78369 13.11981,5.6514 25.82813,11.0918 21.18928,9.07109 23.44979,10.55855 23.51367,15.46094 0.0389,2.9831 -1.64449,6.97449 -3.74024,8.87109 -2.09574,1.89664 -7.97543,3.97414 -13.06445,4.61719 -13.02898,1.6464 -22.58443,-3.66275 -28.39258,-15.77734 -3.16305,-6.59743 -5.35809,-13.70749 -6.0957,-18.57813 -0.12283,-0.97996 -0.2061,-1.85351 -0.25977,-2.63867 -0.0612,-1.91172 0.25514,-3.14475 1.03516,-3.32031 z m -62.2793,2.35742 -0.002,0.004 c -2.49309,0.0922 -3.86045,0.58509 -4.09766,1.47071 -7.5e-4,0.003 -0.003,0.004 -0.004,0.008 -0.23358,0.59263 0.19086,1.45656 1.3164,2.58203 0.008,0.008 0.0197,0.01 0.0274,0.0176 0.0227,0.0227 0.0394,0.0449 0.0625,0.0684 0.0979,0.0979 0.21852,0.1809 0.33984,0.26367 0.11603,0.079 0.24379,0.14946 0.37891,0.21484 0.95845,0.50468 2.2958,0.76415 3.66992,0.78516 h 0.004 c 0.13682,0.0265 0.26983,0.043 0.39648,0.043 0.14778,0 0.30541,-0.0266 0.4668,-0.0625 0.25927,-0.0151 0.51588,-0.0377 0.76953,-0.0684 1.40421,0.0442 2.59428,-0.37968 3.44531,-1.26953 0.15723,-0.14249 0.29707,-0.29293 0.39844,-0.45703 0.0151,-0.0265 0.0219,-0.0505 0.0332,-0.0762 0.0378,-0.0537 0.0785,-0.10189 0.11328,-0.15821 0.12813,-0.20712 0.1616,-0.40105 0.12305,-0.58398 0.0998,-0.14816 0.17869,-0.30277 0.23047,-0.46094 0.37455,-1.14958 -2.14014,-2.19004 -5.58594,-2.3125 -0.76656,-0.0265 -1.46069,-0.0303 -2.08594,-0.008 z m 123.68555,21.68164 9.56055,0.91992 c 13.14943,1.26399 35.51116,12.1427 46.11523,22.43359 12.68939,12.31465 15.95286,19.74923 15.88672,36.18946 -0.0151,3.39666 0.12612,6.48199 0.35742,8.92383 -0.0839,2.13713 0.0764,3.34168 0.4668,3.35937 0.23735,1.12728 0.50969,1.82617 0.80469,1.82617 0.9267,0 1.76211,-1.1763 1.85547,-2.61328 0.034,-0.54909 0.10214,-0.93499 0.18945,-1.20508 0.42251,0.0669 0.84617,0.28647 1.26562,0.66211 1.76969,3.50049 4.49371,14.70799 4.55079,21.21289 0.0616,7.0097 -1.02214,11.79605 -3.91797,15.33399 -1.55963,1.5682 -3.41824,3.02901 -5.51172,4.33008 -2.04802,1.08279 -4.46603,2.02689 -7.35352,2.89062 l -9.5625,2.86133 3.98633,-8.05469 c 4.6557,-9.41008 3.32942,-16.60742 -3.06055,-16.60742 -4.54065,0 -9.50133,5.0732 -9.90234,9.95703 l -0.9707,1.53906 0.94336,-0.84179 c 0.12207,1.57069 2.06649,0.28459 4.98632,-3.33789 0.86793,-1.07687 1.55747,-1.89847 2.17383,-2.59375 1.8025,-0.98665 3.19876,-1.02771 4.14258,-0.38477 0.0794,0.18557 0.15633,0.34054 0.24023,0.55469 2.49071,6.37818 -4.46269,17.93558 -12.91406,21.46679 -9.88191,4.12891 -18.31885,3.1127 -19.26562,-2.32226 l -0.27149,-1.55859 c 9.9e-4,-0.0737 0.003,-0.1477 0.004,-0.21876 0.11263,-0.60981 0.36699,-0.8548 0.8457,-0.72656 l 1.94922,2.50391 c 3.14487,4.03714 3.25369,4.09078 3.31836,-0.30274 0.0389,-0.17801 0.0335,-0.41356 -0.0156,-0.70507 -0.0997,-2.45152 -1.33941,-4.35855 -2.91796,-5.30664 -0.74117,-0.65587 -1.47614,-0.84193 -2.14844,-0.65235 -1.26346,-0.0302 -2.51238,0.55644 -3.41406,1.95899 -1.03159,1.60448 -1.36048,5.37665 -0.73047,8.38281 0.99507,4.74822 0.33333,5.62898 -5.03711,6.70312 -6.20984,1.24192 -16.13979,-0.78979 -21.29688,-4.18554 -1.16738,-1.04565 -2.20741,-2.24577 -3.09961,-3.60743 -0.0646,-0.0986 -0.11379,-0.1947 -0.17578,-0.29296 -1.85113,-4.61277 -0.48511,-11.42249 3.53907,-13.57618 2.38891,-1.27831 5.67995,-1.81084 7.31445,-1.18359 1.63453,0.62721 2.97265,0.33031 2.97265,-0.66016 0,-3.41461 -6.70104,-4.36157 -12.22656,-1.72656 -3.24691,1.5484 -4.83849,3.29645 -5.63476,6.64844 -0.0854,0.21354 -0.15797,0.43676 -0.23243,0.6582 -0.45222,1.02388 -0.71679,2.07028 -0.71679,3.08399 0,0.26078 0.0122,0.52088 0.0273,0.78125 -0.008,0.21089 -0.0273,0.41607 -0.0273,0.63086 0,1.37582 0.27325,2.75088 0.77344,4.08789 1.42766,6.22458 6.38848,10.62379 14.08984,12.16406 10.39037,2.07806 2.60149,4.79971 -13.81836,4.82617 -14.75172,0.0227 -21.12226,-1.31849 -27.20117,-10.55078 -1.10223,-1.78424 -2.32522,-3.96298 -3.75196,-6.69531 -1.67142,-3.37731 -3.43311,-7.3828 -5.44726,-12.1836 -5.0163,-11.95661 -11.36608,-25.71048 -14.10938,-30.56445 -0.74517,-1.31853 -1.36262,-2.54971 -1.89648,-3.73047 -1.00906,-2.81756 -1.70447,-5.18465 -2.04297,-7.07226 -0.11754,-1.33898 -0.067,-2.61044 0.19336,-3.82813 1.20249,-5.62197 1.13533,-5.67379 -2.11914,-1.63476 -2.77523,3.44428 -5.89518,4.17212 -17.90625,4.17968 -7.99975,0.004 -14.5454,0.69685 -14.54688,1.53711 -0.003,1.58529 3.61313,2.77175 8.50391,3.22461 3.34386,0.54157 7.86058,0.46405 11.03516,-0.21094 0.13115,-0.0151 0.26342,-0.0302 0.39453,-0.0469 9.12057,-1.25012 9.17443,-1.22314 6.88086,3.81055 -1.27102,2.78963 -5.23878,6.09894 -8.81641,7.35351 -6.36457,2.23193 -25.91209,4.48942 -41.15625,5.2207 -1.46177,0.0113 -2.92431,0.0215 -4.36719,0.0215 -3.66565,0 -7.14081,0.0151 -10.29296,0.0469 -0.67707,-0.0491 -1.34249,-0.0997 -1.89649,-0.17187 -17.51108,-2.27369 -21.80178,-5.14666 -25.28711,-19.2793 0.27288,-0.42508 0.26186,-0.54818 -0.084,-0.34961 -0.21014,-0.86672 -0.41709,-1.76251 -0.625,-2.71484 -0.69007,-3.16131 -2.24018,-5.74805 -3.44532,-5.74805 -1.22951,0 -1.6189,1.8099 -0.88476,4.12305 0.80867,2.54782 -0.6575,7.53562 -3.84375,13.0625 -2.83514,4.91777 -9.08983,18.34805 -13.89649,29.84375 -4.80657,11.49566 -10.99439,23.22101 -13.7539,26.05664 -4.24978,4.36713 -7.33914,5.26454 -20.19336,5.86719 l -13.28125,0.62304 c -0.40142,-0.17839 -0.73459,-0.34845 -1.00195,-0.5039 l 5.89843,-3.91211 c 9.00904,-5.97449 8.78753,-9.84753 -0.24414,-4.26563 -3.87178,2.3929 -8.72118,4.35157 -10.77539,4.35157 -3.48597,0 -3.50574,-0.25474 -0.27734,-3.82227 5.38137,-5.94637 4.07738,-7.21248 -2.45508,-2.38281 -4.21191,3.11414 -7.50379,3.97411 -11.43945,2.98633 -5.34029,-1.34034 -5.4209,-1.58762 -2.44532,-7.3418 6.54845,-12.66327 1.36836,-22.7836 -6.16015,-12.03516 -3.97486,5.67489 -2.28597,8.14141 1.77344,2.58985 4.2571,-5.82195 5.49087,-3.05661 2.16406,4.85156 -2.09583,4.98202 -4.19549,6.79297 -7.87305,6.79297 -12.76539,0 -21.74918,-7.24322 -22.32812,-17.81641 0.15949,-3.35701 1.43982,-4.90532 2.79297,-4.65039 1.05228,0.84476 2.13386,2.8354 2.7246,5.78906 1.47689,7.38437 4.90235,10.45666 4.90235,4.39649 0,-6.73085 -3.84012,-14.89063 -7.00781,-14.89063 -4.05661,0 -6.52271,2.7613 -6.98438,7.24219 -0.92107,2.5177 -0.56518,5.28313 1.05469,8.67578 0.79684,3.12541 1.31139,5.70744 1.32031,6.65039 -0.22299,0.0737 -0.5002,0.11473 -0.83008,0.12305 -0.76974,-0.22564 -1.53086,-0.44946 -2.28711,-0.67578 -2.22138,-0.77322 -5.36184,-1.91041 -8.90039,-3.23438 -10.30545,-3.8558 -14.81568,-8.37375 -15.83789,-16.46289 -0.008,-0.0756 -0.0177,-0.14669 -0.0215,-0.22265 -0.0227,-0.29934 -0.0341,-0.61586 -0.0488,-0.92579 -0.0227,-0.47768 -0.0447,-0.95788 -0.0508,-1.44921 -0.004,-0.21884 -0.004,-0.44201 -0.008,-0.66602 0.0113,-3.07582 0.36509,-6.38186 1.02734,-9.73437 1.29067,-5.7574 3.55224,-11.73446 6.13086,-15.66993 l 2.82617,-4.3125 c 0.5449,-0.0631 1.19995,0.15078 2.08984,0.66211 l 7.78711,5.94336 c 22.29782,17.02031 54.53487,17.77689 89.95313,2.11328 25.14115,-11.11861 41.75318,-27.93764 49.13672,-49.74804 2.02375,-5.97793 4.14382,-10.86719 4.71094,-10.86719 0.56703,0 8.52694,11.72221 17.6875,26.05078 9.16046,14.32857 17.48638,26.3309 18.5039,26.66992 1.01749,0.33903 8.63418,-12.40842 16.92578,-28.32617 l 15.07617,-28.94141 9.35547,8.96485 c 26.02708,24.93834 78.4668,18.90653 78.4668,-9.02539 v -2.78907 c 0,-2.22469 0.015,-3.67991 0.36914,-4.59765 z m -154.12695,0.006 -0.002,0.002 c 1.58351,-0.0506 6.45001,6.71557 15.8125,21.86524 7.83916,12.68477 15.26231,23.53061 17.54688,25.7207 0.46961,0.57067 0.84156,0.97656 0.9707,0.97656 0.31219,0 1.37834,-1.4873 2.94531,-4.0293 9.5e-4,-0.002 8.6e-4,-0.004 0.002,-0.008 2.97819,-4.11564 7.43362,-11.48334 11.99219,-20.02929 7.07535,-13.26429 13.26729,-23.73203 13.83203,-23.39063 0.0113,0.0151 0.008,0.0546 0.0195,0.0762 0.22677,0.94205 -5.97966,13.47 -14.02344,28.28125 -6.03961,11.12081 -11.29662,20.64305 -13.74023,24.91992 -0.99202,0.69045 -2.46791,-0.13305 -5.25391,-3.41992 -0.79737,-1.00717 -1.67004,-2.13665 -2.61719,-3.3789 -3.11263,-4.57626 -6.93985,-10.2278 -11.3125,-16.73633 -10.75328,-16.00577 -17.14423,-27.5234 -16.7207,-30.13086 0.0756,-0.46681 0.2555,-0.70942 0.54883,-0.71875 z m 263.99804,25.78906 c 2.47514,0.88226 4.92901,4.61556 6.09571,8.94531 8.7e-4,0.003 0.003,0.006 0.004,0.01 0.3549,1.77452 0.59185,3.70892 0.67383,5.73437 -0.27931,9.41594 -6.38106,19.51319 -14.40039,23.66016 -7.57119,3.91517 -22.98744,4.3151 -24.11914,0.625 -0.44069,-1.43694 -1.2802,-6.06181 -1.86523,-10.27734 l -0.76368,-5.50391 c 0.24643,-0.76671 0.55403,-1.35358 0.9375,-1.64453 l 5.84961,2.44531 c 10.69059,4.4668 19.18485,3.73312 25.08594,-2.16797 0.74506,-0.74509 1.40544,-1.5732 1.99414,-2.44922 1.75933,-2.11196 2.74486,-4.58385 2.87696,-7.27929 0.63774,-3.85474 -0.0397,-7.59457 -2.25,-9.80469 -0.10205,-0.10205 -0.16522,-0.19004 -0.25782,-0.28906 -0.19767,-0.96102 -0.15613,-1.6695 0.13867,-2.00391 z m -269.66015,35.67578 v 0.002 c -0.31446,0.002 -0.56688,0.0806 -0.73242,0.2461 -2.21518,2.21514 1.44475,5.57788 8.19922,7.53125 9.32476,2.69665 12.56595,2.67206 16.66992,-0.23047 l 2.56054,-0.0703 -2.05664,-0.30274 c 2.94225,-2.20815 1.91639,-2.55273 -6.96875,-2.55273 -5.76287,0 -11.99097,-1.2566 -13.83984,-2.79102 -1.38667,-1.15071 -2.88821,-1.83868 -3.83203,-1.83203 z m -8.54688,9.64844 c 1.26403,1.35228 2.63296,5.25749 3.60742,9.95703 0.19427,2.93511 0.28516,6.48445 0.28516,10.67969 v 10.3164 c -1.85348,7.60094 -6.18927,13.61964 -12.82226,17.63868 -4.4428,2.69189 -10.19473,6.23597 -12.78125,7.875 -2.58652,1.63899 -4.70313,2.50015 -4.70313,1.91406 0,-2.04885 16.87761,-42.02448 22.875,-54.67188 1.40398,-2.16782 2.57494,-3.39936 3.53906,-3.70898 z m 99.3418,0.95312 c 0.11528,-0.004 0.232,0.0114 0.34766,0.0488 1.34211,0.43612 7.3748,12.85042 13.40625,27.58789 6.03144,14.73744 12.02425,28.07158 13.31836,29.63086 0.2691,0.32391 0.46669,0.57465 0.67578,0.83789 0.26986,0.63341 0.51599,1.22501 0.61328,1.53516 -0.96272,-0.18935 -4.39896,-2.22577 -12.00195,-6.81445 -14.5358,-8.77289 -18.69865,-13.40124 -21.04297,-23.40039 -2.18986,-9.34031 1.10691,-29.28315 4.68359,-29.42579 z m -10.26953,8.60938 c 0.31748,0.1183 0.57434,0.37494 0.77734,0.81836 v 12.00781 11.40039 c -0.40845,0.99515 -1.02568,1.58235 -1.97461,1.9961 l -7.33008,1.0039 c -4.92259,0.67469 -8.38268,0.99925 -11.95898,0.96289 -1.84539,-0.0635 -3.73146,-0.18003 -5.64258,-0.34179 -2.95018,-0.30841 -6.32267,-0.80756 -10.82031,-1.56055 -22.75253,-3.80908 -43.00391,-13.24567 -43.00391,-20.03906 0,-2.52613 1.36081,-2.81212 6.79297,-1.42578 2.56611,0.65486 6.72202,1.09601 11.67188,1.36523 12.81675,1.78242 29.06049,1.25975 42.62109,-1.16406 4.97628,-0.55737 8.99444,-1.25172 11.15234,-2.07617 z m -79.16602,16.63672 c 0.16479,-0.20334 6.875,2.83902 14.91016,6.76172 v 0.002 l 14.04883,6.85742 -0.86133,0.12891 -14.48633,0.0918 -15.44336,0.0977 c -0.48094,-0.47909 -0.80529,-1.08339 -0.98633,-1.8125 l 1.06446,-4.96484 c 0.80039,-3.7361 1.58912,-6.95877 1.7539,-7.16211 z m -257.87304,3.35937 6.25586,7.125 c 18.65706,21.24923 62.52197,22.66947 82.51953,2.67188 4.84395,-4.84396 5.40387,-4.96397 7.22851,-1.55469 1.08783,2.03267 5.82982,5.43195 10.53711,7.55469 l 6.9082,3.11523 c 0.47721,0.61266 0.56125,1.27066 0.33985,2.09766 l -5.55469,5.73437 c -3.77526,3.89859 -12.50666,9.86783 -19.4043,13.26563 -6.8087,3.35403 -16.3583,5.87829 -25.25195,7.05078 -1.93916,0.0624 -3.9463,0.10075 -6.09961,0.0996 -5.28619,-0.003 -9.37166,-0.10034 -12.85937,-0.32031 -29.70049,-7.62675 -44.61914,-20.77869 -44.61914,-39.34766 z m 338.01171,10.06055 c 0.76241,-0.0189 1.37868,0.0522 1.91016,0.16602 0.80908,0.28459 1.29396,0.81486 1.59961,1.61132 0.74706,1.94691 -2.26526,3.8241 -9.6582,6.01953 -2.96073,0.87927 -7.07548,1.5499 -11.85352,2.03711 -10.12286,0.67454 -23.66429,0.90737 -35.33203,0.66211 -14.49781,-0.66701 -27.02272,-2.39834 -29.55859,-4.98046 -0.64301,-0.65481 3.06325,-0.56758 8.23633,0.19335 5.31702,0.78199 13.94757,0.29027 19.85546,-1.1289 5.74783,-1.38093 17.04616,-2.32972 25.10547,-2.10938 8.05935,0.22035 18.58347,-0.48134 23.38672,-1.56054 1.30205,-0.29254 2.38704,-0.50165 3.37305,-0.66602 0.42935,-0.0427 1.09514,-0.0928 1.43359,-0.13281 0.54372,-0.0646 1.04427,-0.10113 1.50195,-0.11133 z m 5.46094,8.48437 c 1.89887,0.0926 4.18033,0.95522 7.84375,2.96094 1.56382,0.94696 3.32669,2.07513 5.51953,3.53516 6.63924,4.42046 20.13966,13.27877 30.00196,19.68359 9.8623,6.40479 25.85285,18.841 35.5332,27.63672 33.24208,30.20451 55.15378,42.05545 73.75,39.88672 6.98786,-0.81494 12.07743,-0.19804 16.27539,1.97266 5.56218,2.87629 5.9873,3.85211 4.75,10.90429 -10.07093,57.40018 -42.40296,150.70196 -73.61914,212.44727 -25.88708,51.20443 -51.48262,83.28661 -77.38867,97.00195 -16.09251,8.51978 -21.24843,15.99586 -21.25977,30.82227 -0.008,12.6751 -3.17486,16.35623 -16.75976,19.48633 -1.48366,0.34204 -3.06414,0.64164 -4.72071,0.90624 -0.003,4e-4 -0.004,-4e-4 -0.008,0 -4.30586,0.4349 -9.61697,0.7404 -16.26172,0.9629 -5.38881,0.1802 -10.49462,0.2319 -15.43359,0.1699 -23.75429,-1.1782 -51.45501,-5.9933 -73.27734,-13.42381 -29.77921,-10.13998 -46.08437,-11.38716 -71.35157,-5.45508 -18.74169,4.40001 -37.12406,6.87859 -54.91797,7.47852 -2.10697,0.0113 -4.09609,0.0215 -6.45312,0.0215 -4.8748,0 -9.40771,-0.0571 -13.72461,-0.16406 -29.00896,-1.4177 -56.10225,-8.11464 -80.15625,-20.02344 -31.09118,-15.39284 -48.91971,-37.62755 -51.73047,-64.51953 -0.83904,-8.02749 -0.9936,-11.09661 0.80469,-14.16797 l 2.80078,-3.58203 c 0.44349,-0.48782 0.87603,-0.96477 1.40625,-1.52539 19.22165,-20.32294 140.84109,-194.20969 137.89453,-197.15625 -1.5174,-1.51744 -9.74913,9.76456 -64.23828,88.05273 -51.81103,74.44037 -74.89815,106.40421 -80.38281,111.16407 -0.49553,0.33146 -0.91805,0.53061 -1.2793,0.60937 -1.40796,-0.47168 -6.97943,-4.91719 -12.86133,-10.29297 C 87.724571,867.08523 76.659987,848.51403 72.125,831.48242 c -2.999879,-11.26635 -3.843679,-37.9066 -1.5625,-49.3125 1.465973,-7.32982 0.697364,-6.9051 28.628906,-15.83008 18.669684,-5.96549 46.313104,-20.28491 55.105474,-28.54492 8.16962,-7.67501 3.67014,-6.55688 -9.33204,2.31836 -6.83969,4.6687 -17.85124,10.96755 -24.4707,13.99805 -14.77176,6.76271 -15.98947,5.59446 -15.23437,-14.64453 l 0.53125,-14.24805 c 0.0648,-0.0756 0.13925,-0.14738 0.20898,-0.2207 l 8.26758,-2.4336 c 21.26855,-6.26264 53.65285,-28.48851 88.875,-60.99804 16.11268,-14.8718 21.32397,-18.51396 26.75,-18.69727 4.07742,-0.13757 8.96762,-2.30852 12.38476,-5.49609 7.5433,-7.03654 19.47664,-10.65523 35.95508,-10.9043 11.1662,-0.16857 15.88309,-1.44052 26.48047,-7.14258 12.5461,-6.75057 18.99336,-11.72076 51.87109,-39.97851 8.69386,-7.47217 27.82884,-21.18254 42.52149,-30.4668 23.52714,-14.86662 27.32277,-16.62504 31.82226,-14.74219 2.80989,1.17581 5.47312,2.3961 5.91797,2.71094 0.44485,0.31483 -6.87131,8.68537 -16.25781,18.60156 -20.19893,21.3388 -56.44195,69.15509 -75.39844,99.47461 -19.46555,31.13382 -40.71137,73.97732 -48.06054,96.91992 -3.49599,10.91384 -6.35547,20.96048 -6.35547,22.32618 0,5.33789 3.84219,-2.0435 8.39062,-16.11915 10.65056,-32.95929 31.46876,-71.54781 67.56446,-125.23437 33.055,-49.16394 69.34173,-93.18359 76.8125,-93.18359 5.12783,0 5.13586,-0.0586 -2.38086,14.83203 -22.71882,45.0057 -45.17977,118.36392 -50.97461,166.48632 -2.07757,17.25264 2.13855,12.82661 4.97656,-5.2246 3.77911,-24.0367 13.32222,-60.41438 24.81055,-94.57813 11.64419,-34.6272 28.73622,-76.20362 32.39843,-78.81055 1.36252,-0.97013 9.67096,-1.43411 18.46289,-1.03125 l 11.50977,0.52735 c 2.44951,0.30236 4.1755,0.61304 4.75781,0.88672 l 4.14453,9.9707 c 9.86676,23.74208 18.34549,84.83908 20.45118,147.35937 0.20409,6.05923 0.46856,11.721 0.75781,16.82227 0.14816,5.32256 0.42455,9.38701 0.8457,12.10547 0.49829,5.66158 1.01038,9.2168 1.44336,9.2168 2.45046,0 2.1673,-58.50659 -0.42969,-88.83008 -3.76376,-43.9474 -11.99787,-84.11857 -20.76562,-101.30469 l -3.32227,-6.51172 c 0.042,-0.18406 0.10675,-0.35904 0.21485,-0.52148 0.53162,-0.58655 1.56024,-1.07053 2.86523,-1.44727 l 3.93555,-0.50586 c 6.73969,-0.86763 8.82612,0.002 15.75781,6.57227 18.93033,17.94266 45.20072,67.95099 61.13672,116.3789 5.08947,15.46655 9.25806,29.29027 9.26562,30.72071 0.0227,5.21163 4.41132,18.27734 6.13868,18.27734 0.9761,0 -0.10584,-8.70047 -2.40625,-19.33398 -12.03137,-55.61571 -40.229,-116.42228 -67.51368,-145.5918 l -9.3457,-9.99023 5.15234,-2.34961 c 0.23925,-0.10885 0.4679,-0.20586 0.69532,-0.29883 1.0758,-0.3617 2.06515,-0.56147 3.16601,-0.50782 z m -220.30468,2.53126 c 4.92342,0.29777 3.59052,4.68748 -4.76368,15.95312 -12.55003,16.92367 -29.88522,32.69351 -43.33203,39.41797 -6.22756,3.11425 -13.6815,7.8715 -16.56445,10.57031 -4.99879,4.67943 -19.72252,9.13267 -33.88281,10.71875 -5.04869,0.31975 -10.23742,0.37844 -15.21875,0.0977 -5.23559,-0.29518 -9.66829,-0.70005 -13.74414,-1.36328 -11.81384,-2.82475 -24.48178,-9.50457 -48.96094,-24.31446 -6.4512,-3.903 -12.11442,-5.53473 -16.86133,-4.90234 -2.94438,0.15798 -5.32645,1.30017 -7.310547,3.4082 -0.698551,0.62672 -1.365871,1.32146 -1.990234,2.11524 -5.66496,7.20181 -4.537907,16.72799 3.177734,26.84375 6.399567,8.39025 6.029317,8.67361 -3.162109,2.41797 -16.35769,-11.13294 -20.320567,-28.13665 -11.509766,-40.66211 0.990539,-1.04973 2.098431,-2.18634 3.47461,-3.5625 1.594286,-1.59432 3.126479,-2.9956 4.640624,-4.2461 0.476281,-0.32088 0.957667,-0.63924 1.460938,-0.94531 12.12678,-7.37469 20.89664,-7.22547 44.78125,0.76563 27.72013,9.27438 47.76452,12.40371 69.06055,10.7832 30.88527,-2.35023 55.48258,-12.73807 75.91992,-32.06446 4.63272,-4.3808 9.22026,-8.15549 11.96484,-9.94335 1.03147,-0.49588 1.97635,-0.85928 2.82032,-1.08789 z m 9.71289,2.7207 v 0.002 l 13.00585,3.55859 c 4.8632,1.33123 9.21953,2.71229 11.84766,3.69727 1.3378,0.78013 2.36731,1.65035 2.85547,2.42383 -0.51965,7.67584 -31.09224,37.66797 -47.03516,47.2832 -1.38931,0.74121 -2.69347,1.36996 -3.87695,1.84766 -1.69425,0.61844 -3.24668,0.95828 -4.69141,0.99219 -2.51281,-0.49429 -6.3651,-2.26818 -9.33203,-4.38086 -4.20911,-2.99713 -6.03135,-3.52628 -5.38672,-1.56641 0.14287,0.43434 0.51453,1.00224 1.03516,1.64453 0.18633,0.24378 0.40483,0.50553 0.6875,0.80078 l 0.0195,0.0176 0.0449,0.0449 c 1.51004,1.62527 3.76907,3.55405 6.13086,5.1543 3.02483,2.04937 4.71833,3.20496 5.21485,3.85742 -1.12479,0.51243 -3.00575,0.76898 -5.13672,0.7793 -2.92853,-0.22073 -6.79019,-1.02033 -9.29492,-1.97266 -1.04164,-0.39598 -1.96474,-0.65411 -2.75391,-0.79883 -1.71424,-0.68953 -2.60742,-0.49584 -2.60742,0.61133 0,0.008 0.004,0.0159 0.008,0.0234 -7.6e-4,0.0151 -0.008,0.0267 -0.008,0.041 0,2.57708 3.5523,4.60576 11.3125,6.46094 l 5.46875,1.3086 c 0.0465,0.0892 0.0532,0.17302 0.0332,0.2539 l -5.32031,0.11133 c -3.74166,0.0779 -7.97913,-1.0743 -11.62891,-2.9082 -2.22228,-1.40652 -4.46593,-3.02692 -6.30078,-4.55078 -0.71656,-0.7711 -1.32383,-1.56825 -1.75976,-2.38282 -1.70389,-3.18372 -0.72904,-4.36244 6.10351,-7.37695 12.06006,-5.32086 27.3571,-20.0651 40.02539,-38.58203 l 10.95117,-16.00977 c 0.15232,-0.16743 0.25892,-0.2555 0.38868,-0.38476 z M 635.875,538.75 c 2.10444,1.15536 6.70178,6.5641 11.17383,13.29102 3.55676,5.35011 8.34456,11.2786 13.50781,16.9746 4.89294,5.84969 9.47349,10.38793 14.20508,14.16016 5.82538,5.1823 11.18387,9.12931 14.875,10.6582 2.56789,1.06368 4.78259,2.37236 5.8789,3.38868 0.19201,0.19162 0.37004,0.37532 0.48633,0.52929 0.0151,0.0189 0.034,0.0385 0.0449,0.0566 0.0563,0.0786 0.0992,0.15148 0.13281,0.21875 0.008,0.0189 0.0198,0.0377 0.0273,0.0547 0.0189,0.0461 0.0256,0.0853 0.0332,0.125 0.004,0.0265 0.0156,0.0575 0.0156,0.084 -10e-4,0.0756 -0.034,0.17422 -0.0566,0.26757 -0.42225,1.17551 -3.37427,4.09524 -6.93164,6.8086 -4.52281,3.44969 -9.50376,5.27291 -14.10938,5.16406 -1.65437,-0.0389 -2.88173,-0.073 -3.72461,-0.13086 -0.43593,-0.18255 -0.77565,-0.35452 -0.96289,-0.51367 0.76203,-0.35981 2.9734,-0.95217 6.82032,-1.96875 5.08762,-1.34442 9.68319,-3.7685 10.21289,-5.38867 0.71705,-2.19326 -0.0446,-2.50841 -2.98047,-1.23047 -2.16862,0.94405 -7.70449,2.06041 -12.30274,2.48047 l -5.04882,0.46093 c -0.38937,-0.054 -0.71478,-0.12545 -0.96094,-0.2207 -0.1663,-0.15761 -0.30728,-0.33524 -0.42774,-0.53125 l 5.66016,-3.10156 c 4.17086,-2.28605 8.13963,-5.60434 8.81836,-7.37305 1.65241,-4.30624 -0.0499,-4.0504 -6.42578,0.96485 -2.5561,2.01063 -6.12325,3.70105 -8.49414,4.09375 -9.9e-4,1.8e-4 -0.003,0.002 -0.004,0.002 -9.8e-4,1.5e-4 -0.003,-1.5e-4 -0.004,0 -0.0824,0.0151 -0.14876,0.0101 -0.22851,0.0215 -1.0814,-0.059 -2.19415,-0.25774 -3.34766,-0.57617 -13.24267,-5.13796 -51.19531,-40.80799 -51.19531,-49.11328 0,-1.79074 4.79094,-3.75044 23.33984,-9.52344 0.69827,-0.0264 1.32579,-0.0821 1.97266,-0.13086 z m -293.70312,12.39258 c 0.85166,-0.0227 1.7969,0.1765 2.94531,0.51953 1.73832,0.519 5.79301,0.97573 10.56054,1.25977 6.99187,1.25475 12.03809,1.35613 17.48829,0.35546 4.38712,0.0616 7.48498,0.16989 7.48437,0.29688 -9.4e-4,0.19351 -3.29125,2.38309 -7.31055,4.86719 -4.0193,2.48405 -16.4809,12.99598 -27.69336,23.35937 -23.1185,21.36786 -40.57241,33.99697 -53.09179,38.41406 -4.7178,1.66455 -11.63517,3.02539 -15.37305,3.02539 h -5.19336 c -0.45948,-0.23773 -0.66954,-0.54697 -0.61523,-0.99023 l 12.05078,-12.07227 c 6.27983,-6.2917 16.89405,-16.33232 25.33203,-24.01757 3.4775,-2.98504 6.92101,-6.19933 10.19922,-9.50782 0.26457,-0.26683 0.52883,-0.53281 0.79101,-0.80078 6.26986,-6.27182 11.98591,-12.7747 14.29883,-16.45312 3.85418,-6.12956 5.57173,-8.18836 8.12696,-8.25586 z m 260.41796,0.1543 0.002,0.002 c 3.18387,-0.0661 5.5491,2.585 12.60937,12.32031 5.34055,7.36392 16.54653,18.8526 24.90235,25.53125 8.35578,6.67861 17.84968,14.96532 21.09765,18.41406 3.24794,3.44867 7.9105,8.38614 10.36133,10.97266 l 0.70508,0.74414 3.33594,3.95703 -0.62696,-0.004 -8.35742,-0.0781 c -0.008,-3.4e-4 -0.0159,3e-4 -0.0234,0 -15.6322,-0.69812 -35.16587,-12.82516 -62.7207,-38.89453 -9.99938,-9.46035 -22.80739,-20.31451 -28.46289,-24.1211 l -10.05859,-6.76953 c 0.13757,-0.0552 0.39707,-0.10428 0.73046,-0.15039 h 9.41993 c 3.96695,0.49448 7.92985,0.44266 12.19531,-0.1875 5.54177,-0.25398 10.48019,-0.74276 12.48633,-1.30859 0.8897,-0.25096 1.66955,-0.41252 2.40429,-0.42773 z m 119.85352,3.87695 c 0.44905,0.38158 1.0787,1.17994 1.96484,2.35156 3.50056,4.62815 4.17824,21.06518 1.19336,28.91602 -1.10366,2.9029 -3.92448,7.19788 -6.26953,9.54297 -2.34504,2.34495 -4.96988,4.1854 -5.83203,4.08789 -0.86219,-0.0975 -8.1186,-3.62445 -16.125,-7.83789 l -11.11719,-5.85157 c -1.17445,-0.75481 -2.01833,-1.38823 -2.55469,-1.90625 l 9.49219,-1.02734 c 5.70732,-0.61845 12.42061,-2.2585 14.91797,-3.64453 2.28714,-1.26939 4.44478,-3.03581 6.33008,-5.07422 0.18671,-0.17991 0.38858,-0.35602 0.56055,-0.53906 0.70552,-0.75096 1.41913,-1.71767 2.10742,-2.80274 2.11071,-3.05321 3.57699,-6.39068 4.04883,-9.47851 0.062,-0.26873 0.13987,-0.54591 0.1875,-0.80469 z m -20.17774,43.74023 c 0.6533,0.33714 1.31322,0.68063 1.92188,0.99414 l 1.30859,1.0293 2.42774,2.42773 c 2.78018,2.78019 5.06687,7.21278 5.08203,9.85157 0.0151,2.63879 0.63485,7.06185 1.375,9.82812 1.78896,6.68591 -2.42202,4.13925 -7.83398,-4.73633 -3.11524,-5.10882 -4.00416,-5.66175 -4.01172,-2.49609 -3.8e-4,0.19313 0.0403,0.43959 0.0762,0.67773 -0.0495,0.0522 -0.084,0.12761 -0.084,0.25196 0,0.65352 0.479,1.89297 1.24024,3.38086 1.01495,2.39814 2.55381,5.23365 4.29492,7.74609 6.01089,8.67368 5.558,12.73378 -0.7207,6.45508 -2.14224,-2.14224 -8.31965,-5.58349 -13.72657,-7.64844 -5.40691,-2.06491 -11.9631,-5.53208 -14.56835,-7.70508 l -4.46485,-3.72461 c 0.21884,-0.10015 0.49492,-0.1824 0.85352,-0.24023 l 4.86914,-0.0586 c 1.0769,-0.0113 2.17437,-0.20033 3.30664,-0.56641 2.29081,-0.61145 4.39656,-1.86908 6.89453,-4.06445 1.28753,-1.05015 2.64224,-2.28678 4.07812,-3.72266 z m -458.41601,0.25586 c 0.9388,0.003 1.88148,0.4538 3.11523,1.45703 l 2.09766,3.44922 c 4.26149,7.0074 6.80713,8.91147 14.66602,10.37305 0.91593,0.2812 1.8227,0.43344 2.73632,0.48242 l 4.50391,0.73242 c 0.19238,0.30085 0.14908,0.68237 -0.12305,1.13867 l -1.68164,1.38086 -3.50976,2.04688 c -4.00324,2.33514 -10.57029,5.53075 -14.59375,7.10156 -4.0235,1.57077 -9.25762,4.58417 -11.63086,6.69727 -8.87561,7.90276 -7.88246,1.9893 1.89453,-11.28516 2.31795,-3.14717 3.44765,-6.44012 2.50976,-7.31641 -0.93789,-0.87632 -2.14662,-0.35414 -2.68554,1.16016 -0.36473,1.02493 -1.67671,3.05668 -3.26563,5.18164 -0.14778,0.15912 -0.27777,0.29027 -0.43164,0.45899 -3.76622,4.13605 -5.64599,6.06581 -6.39648,6.16015 L 232.25,619.0625 c 1.09837,-8.56176 2.77839,-12.30545 7.24609,-16.14844 z m -15.38867,11.55469 c 2.01106,-0.034 -0.38281,14.24701 -3.80274,22.68945 -2.41615,5.96455 -3.56739,6.80407 -7.55664,5.50977 -2.51892,-0.81725 -5.14412,-1.44261 -7.75586,-1.88281 -1.33965,-0.36397 -2.75267,-0.61542 -4.21484,-0.75586 0.17265,-0.38457 -0.89232,-0.44601 -2.94531,-0.14063 -0.91077,0.008 -1.83303,0.0683 -2.75977,0.16016 -3.54622,0.10015 -6.71985,0.63084 -9.11523,1.62304 -3.45092,1.42942 -8.05078,4.85664 -10.22071,7.61524 -0.93468,1.18824 -1.64949,2.08131 -2.21875,2.69726 -0.8576,0.42116 -1.58465,0.59787 -2.1582,0.48633 -0.27538,-0.46598 -0.53649,-1.21947 -0.86914,-2.26758 -2.68424,-8.45729 8.15411,-23.5508 18.48633,-28.14648 0.83001,-0.32126 1.69212,-0.62506 2.57422,-0.91797 1.05694,-0.28309 2.09692,-0.4443 3.10156,-0.44922 2.76541,-0.0151 10.20082,-1.41428 16.52344,-3.11133 6.32263,-1.69704 12.14173,-3.09425 12.93164,-3.10937 z m 470.94531,23.97656 c 1.22109,0.0227 3.16056,1.11958 4.94922,2.90821 2.38484,2.38479 6.64291,4.91533 9.46289,5.62304 2.07772,0.5215 4.12008,1.62278 5.2793,2.75196 v 0.002 c 0.36245,0.42247 0.66373,0.89457 0.92773,1.42578 0.57404,2.35189 1.59036,18.44994 2.30469,36.67773 2.70391,68.99834 8.54488,133.05438 19.12695,209.75196 l 4.74219,34.35937 c 0.051,3.45714 -0.59891,5.59167 -2.20899,7.73633 l -4.07421,3.40039 c -7.61137,6.35426 -17.8408,9.93032 -28.45704,9.94922 -7.87184,0.0151 -11.87137,5.03448 -14.10156,17.70508 -2.42245,13.76254 -9.55305,23.54187 -21.41797,29.43359 -2.41073,1.10831 -4.74354,2.05953 -7.00586,2.85742 -9.86929,3.17565 -24.83448,2.73655 -32.39062,-0.99218 -3.52872,-1.74131 -14.04322,-9.47892 -23.36524,-17.19532 -21.58741,-17.8693 -36.69708,-26.99097 -49.75195,-30.03515 l -10.3418,-2.41211 12.48047,-12.44336 c 5.62999,-4.90821 11.44041,-11.07533 17.34766,-18.35156 29.97778,-35.23023 57.15449,-88.24675 81.75781,-159.50782 12.59728,-36.48676 25.78655,-83.72799 29.55274,-105.84375 1.46823,-8.62174 3.37468,-16.47596 4.23437,-17.45312 0.21506,-0.24416 0.54216,-0.3556 0.94922,-0.34766 z m 11.50586,102.90039 c -0.19843,-0.0472 -0.3904,0.30048 -0.57227,0.98242 -0.43785,-0.18368 -0.65485,1.37127 -0.64453,4.50586 -0.54092,5.7512 -0.89648,15.90442 -0.89648,30.17969 0,75.794 -11.24578,155.02376 -26.18945,184.51367 -2.87796,5.67965 -4.22738,10.32813 -2.99805,10.32813 1.45871,0 4.03647,-4.04038 6.93945,-10.19727 0.70647,-1.43977 1.41473,-3.01603 2.12305,-4.73047 0.0522,-0.12283 0.10409,-0.24359 0.15625,-0.36718 3.75341,-8.87203 7.70759,-20.33438 10.35742,-30.85352 10.25862,-40.72437 16.93137,-116.15635 14.36719,-162.4082 -0.81498,-14.70093 -1.7889,-21.75058 -2.64258,-21.95313 z m -617.898438,141.10547 0.101562,0.0762 8.636716,7.21875 c 8.20411,6.8578 8.79685,8.0941 9.78516,20.40625 4.04999,50.45443 67.12903,87.69687 146.67383,88.47266 6.42947,0.12094 13.00334,-0.0639 19.75781,-0.54688 15.15039,-0.94269 30.13335,-2.943 39.97656,-5.39648 25.89506,-6.45449 48.6073,-5.02802 76.65235,4.81641 26.74767,9.38896 46.97616,12.60896 80.10742,12.74996 27.41318,0.1168 40.73866,-1.8765 46.79883,-9.24996 1.61397,-1.36952 2.49023,-2.89415 2.9375,-5.43164 0.95111,-2.83643 1.41872,-6.17594 1.55664,-10.11133 1.274,-36.35297 37.92667,-36.01654 80.53711,0.74023 31.07799,26.8086 40.14555,29.0281 74.06836,18.1347 3.3346,-1.07048 4.69811,-0.034 6.60742,5.0254 1.01711,2.6947 1.41727,4.7254 1.21484,6.0684 -0.6449,1.003 -1.92948,1.7509 -3.91797,2.3301 -3.55128,0.5925 -9.68903,1.2324 -16.26367,1.6425 -20.58395,1.2843 -45.28794,-3.1645 -63.22656,-11.3847 -16.59239,-7.60338 -27.09418,-7.27432 -46.70899,1.4609 -8.62178,3.8397 -20.84925,8.282 -27.17187,9.8711 -7.14372,1.7956 -26.92409,3.1649 -52.25195,3.6192 -5.47677,0.097 -10.2363,0.181 -14.61133,0.2441 -0.56372,0.011 -1.25004,0.018 -1.79883,0.022 -3.64108,0.049 -6.87213,0.075 -9.89258,0.086 -0.59826,0 -1.24043,0.012 -1.81836,0.016 -21.70235,0.015 -29.20412,-1.2238 -54.0039,-5.8047 l -24.64844,-4.5527 -38.05664,4 c -44.02643,4.6262 -101.80305,5.0796 -130.02149,1.0156 -42.76153,-6.1584 -77.01148,-22.25522 -105.728512,-49.69134 -18.586016,-17.75716 -38.417577,-45.31157 -39.103516,-52.93359 0.364951,-0.59029 0.951745,-1.29468 1.732422,-2.07617 4.194455,-0.93275 22.402098,-16.70905 27.175781,-23.67578 z m -26.246094,55.94922 7.470703,10.17969 c 25.633017,34.91917 68.434669,62.15516 112.634769,71.67186 11.71807,2.523 31.30518,4.2536 52.94336,5.0957 0.31219,0.015 0.63018,0.025 0.94336,0.037 0.87239,0.034 1.72898,0.072 2.60742,0.1016 1.27306,0.049 2.54235,0.1001 3.83008,0.1387 7.61193,0.2502 15.37486,0.3601 23.20703,0.3007 20.81563,-0.015 41.14688,-0.853 56.32422,-2.6367 35.37622,-4.156 51.34112,-4.1496 67.50586,0.024 3.51691,0.9081 9.89638,1.7081 17.88085,2.3867 1.52395,0.1402 3.10984,0.2728 4.82813,0.3887 0.4662,0.034 0.93147,0.066 1.40625,0.1 0.31294,0.038 0.66901,0.087 0.9668,0.1211 4.34626,0.5004 11.38409,0.8106 19.74414,0.9746 30.00627,1.1907 65.57071,1.0879 79.90234,-0.9766 4.69886,-0.6769 9.64169,-1.7414 14.68555,-3.1133 0.0472,-0.011 0.0934,-0.027 0.14062,-0.039 0.80413,-0.2083 1.60091,-0.436 2.39453,-0.6661 1.12797,-0.3288 2.26168,-0.6846 3.39649,-1.0449 5.19016,-1.6479 10.43357,-3.5988 15.59765,-5.8515 22.48793,-9.8098 31.65187,-10.3306 49.5,-2.8184 17.48761,7.3604 41.32967,11.6721 60.77149,10.9922 15.26808,-0.5339 16.55709,-0.2302 21.94726,5.1758 1.61243,1.6171 2.68869,2.8057 3.36719,3.7656 0.002,0 0.008,0.014 0.008,0.014 0.31975,0.5464 0.54643,0.9864 0.75782,1.4062 0.29215,1.0503 -0.26761,1.7572 -1.54297,2.5781 -12.05991,7.763 -37.58944,8.0982 -65.84375,0.8633 -11.49302,-2.9429 -28.89079,-5.8599 -38.66211,-6.4824 -1.13042,-0.072 -2.08249,-0.1151 -3.10156,-0.1699 -0.65798,-0.3103 -1.66607,-0.3625 -2.67188,-0.1407 -11.40983,-0.4588 -16.45947,0.6184 -31.84765,5.5762 -10.92091,3.5185 -26.91146,7.4893 -35.53321,8.8242 -22.74882,3.5225 -86.99918,1.1977 -116.00195,-4.1972 -24.61993,-4.5796 -22.58321,-4.6555 -79.42383,2.959 -13.98792,1.8738 -29.24177,2.8081 -45.03906,2.8828 -4.7139,-0.055 -9.72771,-0.143 -15.57422,-0.2969 -5.37298,-0.1409 -10.64893,-0.3617 -15.8457,-0.6426 -34.03992,-2.1691 -68.46859,-7.9892 -96.73243,-16.9004 -24.71419,-7.7921 -46.050086,-19.6015 -62.541011,-34.48044 -1.627102,-1.5162 -3.25084,-3.07663 -4.873047,-4.69336 -1.306999,-1.30269 -2.603067,-2.64391 -3.884766,-4 -1.541699,-1.68718 -3.033048,-3.40389 -4.458984,-5.1543 -8.901154,-10.92714 -17.598242,-25.38728 -17.498047,-29.09375 0.02457,-0.90796 3.705881,-4.23827 8.179687,-7.40234 z M 609.65039,1035.6152 v 0 c 3.16509,0.095 20.98881,3.8613 28.56445,5.9238 1.87499,0.6683 2.97492,1.2662 3.50586,1.8945 -0.22677,0.7299 -0.89898,1.8494 -1.85547,3.002 -1.45409,1.752 -3.70381,3.1612 -5,3.1309 -3.03216,-0.072 -26.69789,-12.8783 -25.67968,-13.8965 0.0453,-0.045 0.20485,-0.064 0.46484,-0.057 z m -371.65234,12.0664 c 8.6468,0.1059 10.84548,0.651 7.83789,1.9434 -5.86024,2.5182 -19.85742,2.5182 -19.85742,0 0,-1.1681 5.30289,-2.0254 12.01953,-1.9434 z"
       style="fill:#000000;stroke-width:2.09012294" />
  </g>
</svg>
