<?xml version="1.0" encoding="UTF-8" standalone="no"?>
<svg
   xmlns:dc="http://purl.org/dc/elements/1.1/"
   xmlns:cc="http://creativecommons.org/ns#"
   xmlns:rdf="http://www.w3.org/1999/02/22-rdf-syntax-ns#"
   xmlns:svg="http://www.w3.org/2000/svg"
   xmlns="http://www.w3.org/2000/svg"
   id="svg4604"
   version="1.1"
   viewBox="0 0 210 297"
   height="297mm"
   width="210mm">
  <title
     id="title5262">P is for Princess</title>
  <defs
     id="defs4598">
    <pattern
       id="EMFhbasepattern"
       patternUnits="userSpaceOnUse"
       width="6"
       height="6"
       x="0"
       y="0" />
  </defs>
  <metadata
     id="metadata4601">
    <rdf:RDF>
      <cc:Work
         rdf:about="">
        <dc:format>image/svg+xml</dc:format>
        <dc:type
           rdf:resource="http://purl.org/dc/dcmitype/StillImage" />
        <dc:title>P is for Princess</dc:title>
        <dc:date>2020-04-10</dc:date>
        <dc:creator>
          <cc:Agent>
            <dc:title>Lena London</dc:title>
          </cc:Agent>
        </dc:creator>
        <dc:source>http://www.supercoloring.com/coloring-pages/gorgeous-princess-0</dc:source>
        <dc:subject>
          <rdf:Bag>
            <rdf:li>csk</rdf:li>
            <rdf:li>letters</rdf:li>
            <rdf:li>p</rdf:li>
            <rdf:li>princess</rdf:li>
          </rdf:Bag>
        </dc:subject>
        <cc:license
           rdf:resource="http://creativecommons.org/licenses/by-sa/4.0/" />
      </cc:Work>
      <cc:License
         rdf:about="http://creativecommons.org/licenses/by-sa/4.0/">
        <cc:permits
           rdf:resource="http://creativecommons.org/ns#Reproduction" />
        <cc:permits
           rdf:resource="http://creativecommons.org/ns#Distribution" />
        <cc:requires
           rdf:resource="http://creativecommons.org/ns#Notice" />
        <cc:requires
           rdf:resource="http://creativecommons.org/ns#Attribution" />
        <cc:permits
           rdf:resource="http://creativecommons.org/ns#DerivativeWorks" />
        <cc:requires
           rdf:resource="http://creativecommons.org/ns#ShareAlike" />
      </cc:License>
    </rdf:RDF>
  </metadata>
  <path
     style="fill:#000000;stroke-width:2.09012294"
     d="m 478.83008,178.03906 -0.004,0.002 v 0.004 c -0.37039,0 -0.81236,0.49386 -1.25781,1.30664 -1.52844,2.07631 -3.11568,6.96757 -4.84375,14.68946 -2.11279,9.4409 -3.18633,11.21467 -6.04297,9.98632 -1.55493,-0.66861 -4.671,-1.53066 -7.58203,-2.14062 -0.90905,-0.25395 -1.80342,-0.47817 -2.64063,-0.63867 -0.17234,-0.13168 -0.37899,-0.21289 -0.63086,-0.21289 -0.12468,0 -0.24498,0.025 -0.36328,0.0586 -2.16589,-0.32179 -3.76149,-0.24582 -3.71875,0.46484 3.4e-4,0.006 0.0197,0.063 0.0234,0.0723 -0.0227,0.0671 -0.0527,0.1309 -0.0527,0.20898 0,0.0883 0.0957,0.38141 0.20117,0.69336 0.034,0.68186 0.27551,1.62688 0.66601,2.92188 3.59434,11.916 5.07296,19.50299 4.10547,21.06836 -0.57207,0.92563 -3.84282,1.68359 -7.26953,1.68359 -8.79605,0 -21.58624,7.06887 -27.99609,15.47266 -5.60875,7.35344 -17.88288,13.59288 -26.96289,13.77148 -0.92194,-0.0159 -1.81196,-0.0653 -2.66602,-0.15625 -3.69324,-0.50818 -7.0734,-2.18472 -9.49219,-4.52734 -1.37559,-1.77739 -2.32183,-4.06547 -2.85546,-6.91016 -1.53658,-8.19058 -4.75761,-8.47368 -8.69141,-0.76367 -5.71711,11.20516 -0.34172,25.6406 11.72461,31.48437 l 4.22265,2.04493 c -0.20027,0.52899 -1.31801,1.9739 -3.04492,4.00195 -2.93363,1.63985 -9.02901,7.89069 -13.65039,14.01172 -0.97157,1.28683 -1.90488,2.46686 -2.82422,3.59961 -6.11184,6.06638 -11.05445,10.31031 -15.05859,12.92578 -4.52973,2.04505 -9.54599,2.81776 -15.98242,2.82227 -10.08013,0.007 -12.97489,-0.8538 -17.24414,-5.12305 -2.31378,-2.31382 -4.25883,-5.56104 -4.89258,-7.95703 0.034,-0.47767 0.0615,-0.92389 0.11328,-1.46485 0.0839,-0.87876 0.12891,-1.6876 0.15234,-2.44922 0.11528,-0.43808 0.24756,-0.86685 0.4004,-1.28711 2.1279,-4.66565 7.69331,-8.88281 12.68164,-8.88281 1.83319,0 3.15023,-0.27799 3.98437,-0.73437 0.5608,-0.26752 0.88105,-0.59769 0.9707,-0.97266 0.0189,-0.078 0.0468,-0.15465 0.0449,-0.23633 0.24453,-1.2963 -1.35067,-3.04497 -4.83985,-4.63476 -8.36478,-3.81124 -19.05074,-0.0697 -26.10156,7.69726 -0.14438,0.15912 -0.29031,0.31604 -0.43164,0.47852 -0.29783,0.32145 -0.6007,0.63897 -0.88477,0.97656 -2.82656,3.3592 -4.20794,5.48702 -4.73242,8.68945 -0.14929,0.43559 -0.2903,0.87519 -0.41797,1.32032 -2.58973,9.02981 0.43333,20.64417 7.58594,29.14453 l 5.375,6.38867 -8.04297,3.49023 c -10.57542,4.59006 -29.12522,4.57938 -37.79492,-0.0215 -2.96308,-1.57239 -5.16855,-3.59191 -6.60352,-5.89258 -0.9742,-1.66111 -1.61818,-3.49365 -1.875,-5.48633 -1.52835,-42.3105 -23.53009,17.92555 0.125,37.94532 19.41143,14.80583 63.78852,11.16314 89.32032,-7.33204 l 8.80664,-6.3789 -1.45118,13.24023 c -5.08754,46.38339 -17.02801,69.0294 -42.55664,80.7168 -14.11309,6.46122 -19.97341,4.54752 -23.24218,-7.5918 -3.59973,-13.36834 3.54891,-25.08837 15.34765,-25.38476 1.24585,0.0408 2.48149,0.19767 3.6836,0.45898 6.37369,1.76727 12.23632,8.34401 12.23633,14.5625 0,2.21189 0.94025,3.44095 2.08984,2.73047 1.01812,-0.62925 1.63372,-2.55178 1.89258,-5.02344 0.12245,-0.45808 0.19726,-0.9242 0.19726,-1.37109 0,-0.19351 -0.0151,-0.38069 -0.041,-0.56445 0.0265,-0.44459 0.041,-0.90056 0.041,-1.36914 0,-0.93774 -0.071,-1.86046 -0.19726,-2.76758 -0.35188,-3.94299 -1.33177,-7.92224 -2.85547,-10.09766 -7.75968,-11.07847 -25.33446,-11.33271 -37.6211,-0.54492 -7.49027,6.57657 -10.94395,14.20372 -11.28906,25.77539 -0.49693,4.40118 -0.34242,8.78933 0.57422,12.81445 l 0.75781,9.45118 c -0.10393,0.0915 -0.21616,0.17774 -0.33593,0.25976 l -12.52149,-0.79687 c -16.00471,-1.01915 -31.23215,-8.2886 -39.69336,-18.95118 -3.0928,-3.89745 -5.15046,-8.37473 -6.33984,-12.97461 -0.46133,-2.64022 -0.7716,-5.50259 -0.93164,-8.67187 -0.0798,-1.58067 -0.1395,-2.95665 -0.1875,-4.24414 1.09343,-13.55471 9.27214,-24.35116 20.80468,-19.57422 3.64799,1.51106 6.80662,4.68299 7.5293,7.5625 0.67453,2.68758 1.74601,4.23229 2.85156,4.7793 l 0.48438,1.22656 0.46289,-1 c 1.15793,-0.0302 2.23441,-1.15995 2.81445,-3.28125 0.3258,-0.90875 0.46395,-1.98963 0.42774,-3.16797 0.008,-0.18482 0.0234,-0.35453 0.0234,-0.54687 0,-14.15664 -19.15791,-22.4065 -35.8418,-15.43555 -7.30441,3.05201 -12.88826,9.10551 -16.56641,16.92187 -0.53469,1.02909 -0.97884,2.04513 -1.33984,3.12305 -6.09302,15.83433 -5.03822,37.60721 4.66015,56.74609 9.18932,18.13425 36.52339,38.43571 57.44727,42.66602 12.80058,2.58796 14.49309,3.36311 14.61914,7.82812 -0.0393,1.25394 -0.3069,2.4948 -0.81641,3.74219 -2.83136,6.01758 -12.68388,13.68144 -22,16.47266 -2.99277,0.89665 -6.09196,1.52252 -9.23828,1.92383 -2.99686,0.24453 -6.2675,0.30926 -9.90234,0.20117 -1.13757,-0.0484 -2.2134,-0.0909 -3.50977,-0.15625 -0.67712,-0.034 -1.27649,-0.0806 -1.92382,-0.11914 -1.8269,-0.1251 -3.59049,-0.28685 -5.28907,-0.48633 -17.45207,-3.05518 -32.80831,-12.32358 -36.5625,-24.51758 l -0.85937,-2.79101 c -0.0125,-0.048 -0.028,-0.0863 -0.041,-0.13086 l -1.21093,-3.93555 -2.39063,5.88281 c -1.10447,2.71918 -1.79601,5.93941 -2.10742,9.35742 -0.72925,4.6653 -0.45476,9.32539 0.73828,13.83399 0.69517,3.52853 1.77064,6.8684 3.2168,9.70312 8.05674,15.7925 30.04905,26.86114 54.14257,27.24805 l 11.64063,0.1875 -10.45117,3.02539 c -7.44985,2.1577 -17.95352,2.80532 -36.57813,2.25195 -23.40229,-0.69539 -28.50003,-1.5756 -48.88672,-8.43945 -6.7682,-2.27875 -13.95432,-4.3038 -19.91797,-5.70117 -1.77555,-0.44451 -3.40028,-0.79331 -4.92187,-1.05859 -2.78893,-0.53636 -5.10181,-0.86533 -6.51172,-0.85743 -3.69611,0.0189 -7.4979,0.69372 -11.20898,1.87305 -0.51437,0.1338 -1.02324,0.26492 -1.5625,0.41406 -2.791117,0.7711 -5.73937,2.26997 -8.603519,4.2168 -8.268533,4.9934 -14.837082,12.29221 -16.734375,19.85156 -3.62911,14.45953 5.878146,31.38582 22.365235,39.81836 5.708969,2.91991 13.995209,4.76947 18.525389,4.89453 l 2.69922,0.50586 -0.62695,-0.60742 c 1.62271,-0.29216 1.75306,-1.14601 -0.70508,-2.68359 -2.91807,-1.82536 -5.56357,-3.73511 -7.9375,-5.6875 l -2.46875,-2.39063 c -2.68833,-2.60383 -4.88288,-4.98177 -6.65039,-7.19922 -4.168572,-5.95377 -5.515642,-11.78353 -3.36133,-16.51172 4.33384,-9.51174 11.34148,-8.82845 29.14258,2.8379 20.69778,13.5646 33.61151,19.19972 47.21289,20.60351 l 10.88281,1.12305 -6.73633,6.73828 c -3.70574,3.70575 -7.36766,9.24442 -8.13672,12.30859 -0.52329,2.08498 -0.69846,4.56254 -0.60351,7.10352 -0.0435,1.64474 0.12091,3.2366 0.48828,4.75 0.76651,4.5733 2.3304,8.69157 4.32812,10.34961 1.36088,1.1294 2.33676,1.36258 3.41016,0.41797 0.93645,0.13719 1.61936,-0.52259 1.81836,-2.17383 0.0147,-0.10885 0.0234,-0.23056 0.0332,-0.34961 0.28536,-0.49588 0.58641,-1.05556 0.91016,-1.68164 3.27599,-6.33506 8.24215,-11.01272 13.8457,-13.32031 3.18957,-0.94511 6.67576,-1.38278 10.19922,-1.16602 4.42955,0.2725 8.42431,1.32116 9.66602,2.45898 0.0231,0.0227 0.0429,0.0441 0.0644,0.0664 0.14517,0.14627 0.2524,0.29404 0.30078,0.44141 0.21668,0.65892 -1.20113,2.5344 -3.83398,5.26953 -2.84392,2.4709 -7.40289,6.43691 -14.39453,12.53711 -36.71827,32.03667 -76.65593,58.17578 -88.88672,58.17578 -2.59648,0 -5.29247,1.48628 -5.99024,3.30469 -1.981345,5.16336 -1.48756,27.19513 0.74024,33.05468 0.0642,0.16895 0.11775,0.31749 0.17773,0.47657 0.16116,1.50636 0.23365,2.84825 0.19922,3.88672 -1.64221,2.18894 -8.211551,3.99774 -27.466796,9.35156 -8.151859,2.26662 -10.997673,13.72234 -9.886719,39.80078 1.053691,24.73421 4.959175,37.36334 17.304687,55.95703 l 7.107422,10.70313 c 0.01134,0.0378 0.01437,0.0624 0.02344,0.0957 -0.196158,0.57959 -0.878981,1.82078 -1.84961,3.41211 l -3.884765,4.78711 -5.859375,7.2207 c -0.415782,0.12132 -0.86204,0.23364 -1.330078,0.33984 l -17.023438,-0.71093 c -15.311312,-0.64082 -18.042969,-0.25889 -18.042968,2.52148 0,0.0113 0.0018,0.0238 0.002,0.0352 l -1.048829,0.0215 1.054688,0.0781 c 0.109417,2.50594 3.254917,3.27216 15.142578,3.7539 l 13.853516,0.5625 -1.902344,1.67188 c -0.313739,0.27553 -0.707284,0.59484 -1.056641,0.89062 l -4.607421,2.71485 c -3.787953,2.23226 -7.019214,4.9113 -8.289063,6.73632 l -1.371094,0.90039 1.060547,1.89649 c 0.642199,2.25804 2.361587,6.12936 4.396484,9.75 l 4.697266,8.35742 -7.230469,6.03516 c -3.976732,3.31993 -7.971355,6.03711 -8.876953,6.03711 -1.344861,0 -1.79987,1.21119 -1.552734,3.24609 -0.05004,0.0767 -0.09375,0.15084 -0.09375,0.19922 0,0.4868 0.233803,1.28496 0.634766,2.29492 2.055541,7.25076 9.207308,20.00457 17.691406,30.12891 29.440191,35.13228 71.133857,54.49038 138.955077,64.51568 14.277,2.1104 18.18615,3.3947 18.2793,6.0351 0.002,0.068 0.01,0.1316 0.01,0.2012 0,0.067 0.0142,0.1374 0.0176,0.2051 0.0871,1.922 0.67012,3.9395 1.37696,4.6465 0.17389,0.1738 0.40039,0.3299 0.66992,0.4707 0.14456,0.1802 0.29151,0.3542 0.44336,0.5058 3.53888,3.5389 10.24788,3.1251 24.13281,-1.4883 6.96064,-2.3122 21.27068,-4.527 33.97266,-5.2597 12.07045,-0.6964 37.59109,-3.312 56.71289,-5.8125 11.84807,-1.5493 19.6968,-2.5463 25.72851,-3.0528 6.7734,-0.192 13.61568,0.105 21.53711,0.9239 1.82275,0.3167 3.80064,0.6896 6.0332,1.1152 58.72332,11.1939 114.13958,9.8153 153.34375,-3.8125 8.62171,-2.997 22.55903,-6.0011 30.97071,-6.6758 3.44583,-0.2763 6.09027,-0.4805 8.29687,-0.5488 0.34999,0.011 0.68405,0.024 1.01563,0.039 0.24264,0.011 0.46771,0.022 0.70117,0.033 2.79734,0.1564 4.99068,0.5143 7.20703,1.2988 2.59846,1.1501 5.40769,3.1159 9.95117,6.3144 14.29762,10.0651 23.30768,14.8878 29.70313,15.1797 h 0.002 c 0.26079,0.039 0.48805,0.049 0.71289,0.059 0.0265,0 0.073,0.016 0.0957,0.016 h 0.0547 c 0.0151,2e-4 0.0341,0 0.0508,0 0.0189,0 0.042,-0.012 0.0606,-0.012 0.46171,0 0.81227,-0.03 0.94531,-0.125 0.45869,-0.051 0.90646,-0.1218 1.33789,-0.2265 0.87844,-0.1422 1.64887,-0.4371 2.39453,-0.92 1.51386,-0.8196 2.86521,-2.0433 4.13086,-3.6523 2.82127,-3.5867 5.38457,-4.7307 14.74219,-5.5391 4.36207,-0.063 8.93121,-0.4964 13.31641,-1.207 13.32854,-1.884 24.80078,-6.2494 24.80078,-9.9355 0,-0.044 -0.0256,-0.1198 -0.0332,-0.1719 l 1.08007,-0.8789 -3.18945,-3.3438 c -0.89953,-1.4425 -1.97163,-3.0309 -3.1875,-4.625 -3.97194,-5.2074 -4.53586,-6.9902 -2.21289,-6.9902 5.07897,0 5.73547,-3.4414 2.11328,-11.0371 -3.323,-6.96883 -3.26203,-7.36194 2.36524,-15.86528 3.1734,-4.79539 7.29969,-14.57597 9.16992,-21.73632 l 2.32031,-8.88477 c 1.11685,-2.14129 2.35413,-3.38714 4.0957,-4.16992 0.47675,-0.15496 0.9822,-0.30688 1.51953,-0.45508 l 7.22852,-0.7793 c 11.85861,-1.28024 22.81478,-6.5326 29.85547,-14.3125 3.146,-3.47629 3.59544,-6.35029 2.54492,-16.26757 -0.70171,-6.62427 -1.89553,-15.09988 -2.65234,-18.83594 -1.10226,-5.4415 -0.69925,-6.79297 2.02148,-6.79297 1.86807,0 3.39649,-1.30568 3.39649,-2.90235 0,-1.5965 -1.59746,-2.77273 -3.54883,-2.61328 -3.00348,0.24567 -4.10309,-3.87952 -7.16602,-26.88086 -6.74411,-50.64604 -12.3005,-111.94084 -14.55469,-160.56836 -0.63666,-13.7343 -1.33594,-25.16868 -2.16211,-35.15234 -0.39295,-6.87632 -1.20736,-14.62487 -2.1914,-20.7539 -0.83256,-6.29409 -1.7627,-12.09771 -2.85547,-17.61915 l -4.39844,-22.21679 c -0.0737,-1.58903 0.0151,-2.793 0.2793,-3.73633 l 6.25586,-6.44336 c 8.43462,-8.68929 11.5293,-16.07767 11.5293,-27.51758 0,-5.53901 -0.9533,-8.57708 -4.38477,-12.60156 -0.91892,-1.4321 -2.018,-2.71465 -3.30273,-3.80859 -1.46812,-1.66583 -3.04167,-3.00566 -4.61524,-3.85352 -5.11805,-4.0091 -6.71194,-2.4554 -5.36719,4.71289 1.83153,9.76286 -1.83272,15.51232 -13.05078,20.47461 -4.58358,2.02753 -8.78928,3.19469 -12.77929,3.47656 -1.01186,-0.0438 -2.08013,-0.10239 -3.26758,-0.18554 -0.82145,-0.0575 -1.47849,-0.11796 -2.20117,-0.17579 -2.58108,-0.43438 -5.13535,-1.18167 -7.61329,-2.23242 -4.34672,-2.12587 -8.64508,-5.53578 -13.15039,-10.30664 -14.30505,-15.14831 -23.17801,-28.41447 -19.73437,-29.50195 1.50032,-0.47384 7.65315,-2.41726 13.67383,-4.31836 14.52676,-4.58702 19.35937,-10.88411 19.35937,-25.22852 0,-6.09275 -0.91599,-13.4907 -2.03711,-16.43945 -0.84627,-2.2258 -1.29121,-3.52328 -0.88476,-4.28516 1.09912,-0.50887 2.5853,-0.88834 4.21484,-1.04296 0.13947,-0.004 0.23545,-0.0118 0.38281,-0.0156 0.0722,-9.8e-4 0.14663,-0.003 0.22071,-0.004 0.7593,-0.0113 1.59987,-0.0137 2.57226,-0.0137 1.83636,0 3.83183,-0.25627 5.88672,-0.70898 3.64672,-0.70938 7.03276,-1.93555 10.0625,-3.60156 5.07938,-2.50957 9.52743,-5.82937 11.72266,-9.17969 7.1698,-10.94245 5.56112,-30.06592 -2.91016,-34.59961 -1.42666,-0.76354 -2.91062,-1.2971 -4.38672,-1.63477 -1.75721,-0.67952 -3.58115,-0.81565 -5.35156,-0.31445 -3.13191,0.3902 -5.76496,1.83547 -7.04883,4.23438 -2.12417,3.9691 -1.50282,6.6293 0.5918,5.85351 0.0575,-4.9e-4 0.12035,-0.0226 0.1914,-0.0684 0.4009,-0.18179 0.85546,-0.49573 1.34571,-0.92773 0.30198,-0.21544 0.61783,-0.45357 0.96094,-0.73828 0.19989,-0.16593 0.39523,-0.31407 0.58984,-0.44922 2.07579,-0.96983 4.62678,0.30913 5.95898,2.68554 0.21997,0.85093 0.37606,1.89778 0.50196,3.19336 0.10431,1.07547 0.0784,2.09554 -0.0606,3.0586 -1.62153,4.82948 -7.46042,8.10628 -15.00977,8.04101 -11.42607,-0.099 -16.2783,-3.16734 -24.58007,-15.54492 -8.32736,-12.41567 -23.95697,-24.7298 -38.32227,-30.19141 l -8.50781,-3.23437 c -0.55038,-0.37644 -0.88009,-0.68517 -0.87696,-0.87891 0.002,-0.0911 0.0679,-0.20642 0.1836,-0.33984 l 5.02148,-1.93164 c 6.92311,-2.66434 16.89165,-11.36841 20.36133,-17.77539 10.42689,-19.25427 0.34811,-51.25586 -16.14258,-51.25586 -5.10463,0 -5.47643,0.54006 -4.24804,6.13281 0.61213,2.78701 0.30799,5.13517 -0.84571,7.01758 -0.1062,0.16365 -0.21014,0.32849 -0.32617,0.48633 -0.0975,0.13447 -0.20163,0.26531 -0.30859,0.39453 -0.10167,0.12499 -0.20869,0.24609 -0.31641,0.36719 -3.12438,3.34327 -9.65775,4.75757 -19.14648,3.9707 -8.94788,-0.74204 -12.86175,-2.24595 -17.55078,-6.73828 -11.20056,-10.73082 -10.00967,-13.00358 7.5039,-14.32813 27.51916,-2.08126 42.49266,-13.364 42.50781,-32.03125 0.0113,-10.90642 -5.98058,-18.81595 -16.36914,-21.61328 -14.30464,-3.85184 -29.60547,3.95288 -29.60547,15.09961 0,1.54769 0.95222,3.55692 2.39063,5.57227 1.0772,2.5347 2.99542,4.67558 5.77734,5.92773 2.03683,1.5383 4.08222,2.57031 5.64649,2.57031 3.32009,0 3.31595,-0.26388 -0.0723,-4.00781 -1.99487,-2.20435 -3.31727,-6.2015 -2.9375,-8.88281 0.54066,-3.81738 2.19517,-5.02019 7.6211,-5.54102 3.26551,-0.31343 6.99934,0.24836 9.04296,1.27539 1.04383,0.91505 2.01254,2.01619 2.85938,3.3086 0.1799,0.27432 0.34169,0.54513 0.49805,0.81445 1.41804,4.09236 -0.32392,9.3118 -4.73047,12.19922 -7.77082,5.09164 -36.39889,3.21944 -49.08789,-3.21094 -9.14623,-4.63501 -22.99024,-16.17175 -22.99024,-19.1582 0,-0.7538 4.83849,-0.93476 11.01367,-0.46485 1.39696,0.17401 2.80451,0.27355 4.2168,0.31641 0.3964,0.0582 0.85008,0.1321 1.08789,0.15039 0.97769,0.0751 2.17795,3e-4 3.50196,-0.17383 11.36632,-0.44414 21.94221,-4.25022 27.2871,-10.15625 2.37604,-2.62546 3.17702,-4.26473 2.4961,-4.91796 l 1.60351,-1.50196 -1.53515,0.74414 c -0.0189,-0.55547 -1.16836,-0.25183 -3.42969,0.79492 -1.33769,0.34889 -3.02787,0.94188 -5.09766,1.80664 -4.39782,1.83754 -9.09695,2.82988 -13.83984,3.07618 -0.18784,0.005 -0.37191,0.0197 -0.56055,0.0234 -0.0575,0.002 -0.11442,0.002 -0.17187,0.004 -1.96604,0.0351 -3.9625,-0.0276 -5.93945,-0.16797 -14.94305,-1.38018 -29.11499,-9.81717 -34.37696,-22.43359 -3.94265,-9.45306 -14.03368,-20.10961 -22.27539,-23.52344 -5.82459,-2.41262 -6.12703,-3.10001 -4.88867,-11.11328 0.72601,-4.69778 3.17269,-11.09031 5.4375,-14.20508 0.90607,-1.24612 1.70283,-2.43835 2.38476,-3.51367 1.02335,-1.35105 1.73438,-2.50478 1.73438,-2.97461 0,-0.0619 -0.0276,-0.11221 -0.0352,-0.16992 0.008,-0.0419 0.0352,-0.10427 0.0352,-0.13477 0,-0.79678 -1.0203,-1.15757 -2.5332,-1.17969 -0.63508,-0.30254 -1.91236,-0.13935 -3.47266,0.375 -2.51482,0.5158 -5.32176,1.52232 -7.35937,2.85743 -4.83016,3.16483 -4.86925,3.11388 -7.53907,-9.4668 -1.90805,-8.99118 -3.70023,-13.78093 -5.52343,-14.38086 -0.20334,-0.15916 -0.40213,-0.23437 -0.59961,-0.23437 -0.0113,0 -0.0263,0.0137 -0.041,0.0156 -0.0265,-0.005 -0.0504,-0.0156 -0.0742,-0.0156 -0.0113,0 -0.0301,0.0161 -0.043,0.0195 -0.0151,-0.003 -0.0302,-0.0195 -0.0449,-0.0195 z m -0.0391,17.07422 h 0.002 c 1.0662,-0.0212 2.11974,2.60777 2.96484,7.89258 0.67737,4.23608 1.57464,7.0406 2.78711,8.52344 0.38994,0.55166 0.8082,0.89824 1.26367,1.02148 1.51525,0.67321 3.42477,-0.12662 5.85743,-2.32812 0.95096,-0.86064 1.66212,-1.49633 2.19726,-1.92774 0.10545,0.72998 0.10842,1.8399 0.0332,3.19922 -0.10998,0.29193 -0.14638,0.42043 -0.27148,0.75 -1.20945,3.18113 -2.19922,9.84641 -2.19922,14.81055 0,0.41489 -0.01,0.74678 -0.0176,1.12695 -0.82828,3.79845 -1.73142,6.99143 -2.50781,8.30469 -0.58859,0.35028 -1.30017,0.61834 -2.17773,0.85351 -1.89585,0.50807 -4.01251,0.81183 -6.19141,0.95704 -1.02149,0.0525 -2.10719,0.0749 -3.19531,0.0957 -9.18909,-0.0412 -18.24723,-2.72256 -16.24219,-5.9668 0.70911,-1.14735 0.30273,-7.42782 -0.9043,-13.95703 -1.20703,-6.52919 -1.7884,-12.27799 -1.29101,-12.77539 0.49742,-0.49739 3.05628,0.6037 5.68554,2.44531 7.32155,5.12819 9.62771,4.09157 11.16602,-5.01367 0.89824,-5.31649 1.97539,-7.98732 3.04102,-8.01172 z m -24.53321,35.97852 h 0.002 c 1.76012,0.0344 2.80444,0.56962 3.69531,1.78515 0.008,0.12163 0.0254,0.22139 0.0254,0.35352 0,1.31909 0.67782,2.7231 1.66015,3.68555 2.93949,2.04156 5.31312,3.13928 8.46094,3.98632 0.84699,0.57885 -0.81476,2.81503 -4.67578,6.20508 -3.98419,3.49816 -7.01757,10.68918 -8.82812,15.52539 -5.72673,17.51182 -9.29599,19.84476 -8.47852,15.30664 0.69703,-3.86928 6.21716,-20.39796 7.29297,-23.19726 -18.05189,17.9067 -21.96745,55.85172 -15.33399,77.82812 2.2128,6.66226 3.19237,13.9054 2.47657,18.31641 -1.44601,8.91084 -9.9242,20.4432 -18.15821,24.70117 l -4.85351,2.50977 c 0.0918,-0.5714 0.35073,-1.52411 0.77344,-2.82813 l 1.94531,-3.3418 c 2.18426,-3.7497 5.40775,-13.8724 7.16406,-22.49414 2.57042,-12.61813 5.07308,-40.08312 5.31055,-53.13867 0.17197,-3.99553 0.10963,-6.14291 -0.18555,-6.20508 -0.12964,-0.80742 -0.31748,-1.16875 -0.58008,-0.92578 -0.82511,0.76379 -2.83297,12.99129 -4.46289,27.17188 -3.95652,34.42329 -10.89852,56.30254 -19.2207,61.27539 -0.008,0.004 -0.0178,0.01 -0.0254,0.0137 -0.3851,0.17193 -0.75506,0.35597 -1.11328,0.54688 -0.83649,0.33973 -1.68436,0.52343 -2.54492,0.52343 -4.96165,0 -3.48341,3.99244 1.98632,5.36524 1.84853,0.46397 4.46536,0.21203 7.39454,-0.53711 2.42112,-0.50631 4.89829,-1.4116 7.34179,-2.64649 5.12236,-2.33163 10.1799,-5.59652 13.32031,-9.01367 2.68453,-2.92108 6.24612,-8.9278 7.91407,-13.34766 l 3.0332,-8.0371 -0.81055,14.70507 c -1.02826,18.67881 -6.09866,29.77753 -15.37695,33.6543 -8.51977,3.55975 -9.06668,5.88353 -1.00586,4.27149 l 5.05078,-1.00977 c 0.3171,0.0824 0.58594,0.22149 0.78516,0.46289 l -2.58789,14.88086 c -1.4846,8.53723 -4.5862,19.78798 -6.89258,25.00195 -8.59669,19.43426 -34.9337,38.33203 -63.95313,45.89063 -15.11901,3.93793 -39.02235,4.03889 -49.75976,0.20898 -22.14301,-7.89823 -36.20628,-27.24246 -38.67578,-45.43359 -0.68243,-6.39307 -0.0416,-12.52785 1.73633,-17.91016 2.51656,-6.7087 7.31075,-12.43973 14.66015,-16.24023 8.73774,-4.5185 15.63679,-3.80385 22.27149,2.30859 5.13834,4.73386 5.22529,4.99226 0.69726,2.08985 -10.4736,-6.71366 -24.50332,-2.96974 -30.48242,8.13281 -5.29236,9.82726 -3.10346,22.87601 5.23438,31.20703 4.51448,4.5109 6.30875,5.87662 13.32031,6.2793 5.37985,1.04424 11.82123,0.97474 18.55469,-0.0274 8.53626,-0.44659 13.3286,-1.84864 21.53124,-5.66797 12.99932,-6.05268 26.12696,-16.95568 26.12696,-21.69922 0,-0.068 -0.0142,-0.11971 -0.0293,-0.17187 0.0151,-0.0748 0.0293,-0.15128 0.0293,-0.21289 0,-0.87292 -1.15928,-0.31749 -2.89453,1.21484 -1.41809,1.01322 -3.23013,2.56807 -5.22657,4.56446 -4.568,4.56805 -13.02437,9.9458 -19.33203,12.29296 -6.74498,2.50995 -15.66265,4.61453 -22.55859,5.64649 -1.26342,0.0227 -2.53983,0.043 -3.97461,0.0449 -2.55489,0.003 -4.64369,-0.007 -6.5293,-0.0332 -0.0556,-0.0831 -0.0944,-0.17171 -0.0937,-0.27149 0.003,-0.97005 5.25067,-4.50525 11.66211,-7.85547 15.75757,-8.23381 25.321,-20.2571 31.34961,-41.44921 0.19276,-0.58768 0.40613,-1.37862 0.63086,-2.30664 2.39932,-9.07166 4.20822,-19.74813 5.61133,-32.43165 1.73371,-15.67276 4.58033,-33.06903 6.32617,-38.65625 1.74584,-5.58724 2.72089,-10.61118 2.16602,-11.16601 -1.60131,-1.6013 -7.08789,10.27015 -8.6875,18.79687 -1.7378,9.26315 -9.63427,16.58816 -26.07227,24.1875 -8.9229,4.12509 -15.80514,5.50795 -30.75586,6.18164 -24.85658,1.11982 -32.4371,-0.43906 -41.70703,-8.57812 -10.999,-8.64688 -8.29503,-41.36095 -7.12691,-36.82813 0.0616,0.86047 0.0864,2.01687 0.10156,3.55665 0.0831,8.61191 7.77166,16.22495 19.70703,19.50976 10.54568,2.90238 28.77517,-0.29639 37.21289,-6.5293 2.10081,-1.55186 3.70371,-2.46598 5.25781,-2.83984 0.21128,-0.0446 0.42163,-0.0876 0.63086,-0.12109 0.0782,-0.0113 0.15614,-0.0245 0.23438,-0.0332 0.0525,-0.007 0.10529,-0.0108 0.1582,-0.0176 1.44669,-0.12797 2.93549,0.19839 4.82813,0.91797 7.07429,2.69009 19.82226,2.68239 19.82226,-0.0117 0,-1.14957 -3.33935,-2.0918 -7.41992,-2.0918 -2.74167,0 -5.40666,-0.37115 -7.99023,-1.11133 -0.003,-7.4e-4 -0.004,-7e-4 -0.008,-0.002 -1.64058,-0.55116 -3.18044,-1.14141 -4.6289,-1.76563 -3.95358,-1.89473 -7.69279,-4.71979 -11.19532,-8.46875 -4.09048,-4.37837 -5.13704,-7.75965 -5.2246,-16.86914 -0.0911,-9.4689 0.77217,-12.26158 5.11523,-16.54101 2.87395,-2.8318 7.85093,-5.78833 11.06055,-6.57032 l 2.8457,-0.69336 c 0.63088,0.0268 1.26421,0.0563 1.98047,0.11329 0.0548,0.004 0.10378,0.006 0.1582,0.01 l -5.50586,5.50781 c -7.04798,7.04795 -7.98541,13.43537 -2.875,20.66016 9.9e-4,0.002 0.003,0.004 0.004,0.006 0.57762,1.12924 1.38394,2.11159 2.44531,3.02344 4.032,4.43833 8.17886,6.58957 14.3125,7.41211 18.66713,2.50326 31.32958,-4.16669 44.64063,-23.51368 0.4368,-0.63481 0.88596,-1.25091 1.33984,-1.85546 2.21721,-2.4631 4.47084,-4.8921 6.44141,-6.86133 0.65276,-0.65234 1.2412,-1.21171 1.83398,-1.77735 5.74386,-4.59536 12.07432,-7.13476 18.23242,-7.13476 4.17521,0 7.5918,-0.94223 7.5918,-2.0918 0,-1.14956 -4.27966,-2.08984 -9.50977,-2.08984 -12.50861,0 -21.46997,-4.86651 -25.14257,-13.65625 -1.15707,-2.76928 -1.94792,-4.95165 -2.38672,-6.57813 l -0.40039,-2.5625 v -0.006 c 0.13039,-1.84375 1.97316,-1.04015 5.56445,2.32227 0.15723,0.14725 0.30766,0.27568 0.46289,0.41797 0.29556,0.29801 0.61486,0.58995 0.96484,0.87304 0.0189,0.0174 0.0389,0.0336 0.0586,0.0508 0.0484,0.0387 0.0915,0.0788 0.14062,0.11719 7.00736,6.0458 12.26192,6.86104 23.22852,4.09961 7.69292,-1.93709 12.57951,-5.12063 20.57226,-13.39844 11.61907,-12.03349 15.41817,-14.40521 26.18555,-16.34375 1.95696,-0.35232 3.43947,-0.54568 4.60742,-0.52343 z m 44.0918,3.43554 v 0.002 c 5.2258,1.83213 16.57189,13.96023 21.98047,25.06445 4.50769,9.25479 12.65145,16.22222 22.06054,18.1875 42.44701,8.86582 2.05657,6.89285 -10.27539,1.74023 -7.81413,-3.26496 -9.0758,-2.39066 -4.11914,2.85352 1.72097,1.82079 6.23104,7.54375 10.02149,12.7168 18.5447,25.30884 71.90749,34.16733 81.32422,13.5 2.11959,-4.6521 0.94694,-10.07064 -2.62891,-14.32422 -0.33033,-0.50958 -0.68902,-1.00472 -1.10351,-1.46289 -1.25923,-1.39144 -2.8118,-2.40144 -4.5254,-3.07422 -0.19653,-0.10742 -0.38399,-0.22401 -0.58593,-0.32617 -8.02405,-1.97071 -19.7527,2.43412 -21.41407,8.82226 -0.27363,1.11312 -0.47102,1.87748 -0.625,2.35938 -0.2211,-0.88097 -0.39941,-1.86581 -0.50195,-2.93164 -0.034,-0.347 -0.0442,-0.62383 -0.0684,-0.93946 0.31446,-2.22387 1.65308,-4.74745 3.33985,-6.07031 12.70586,-11.4789 27.30322,-5.56175 31.98046,7.90235 3.53832,10.72111 -2.39072,21.20192 -15.78125,27.89453 -9.19986,4.5981 -13.1405,5.22275 -32.91601,5.22461 -23.10849,0.002 -28.82645,1.69586 -14.11328,4.18164 3.56424,0.60217 5.81395,1.33266 7.07226,2.375 0.40298,0.56437 0.80629,1.25036 1.21289,1.99023 0.0461,0.2434 0.0762,0.49541 0.0762,0.76367 0,5.19943 7.52048,14.18659 15.18945,18.15235 7.81251,4.04001 23.77355,4.56463 30.38281,0.99804 1.10151,-0.59441 2.41608,-1.64693 3.72852,-2.90625 2.24466,-1.49805 3.78738,-3.32457 4.52734,-5.40039 0.12548,-0.19204 0.26382,-0.38685 0.37891,-0.57617 l 3.125,-5.13672 c 1.17804,0.58789 2.64618,1.91317 4.30078,3.91406 l 0.95117,1.33594 c 5.38957,7.56892 7.42973,18.00155 5.51563,28.20508 -2.37755,12.6734 -15.00294,23.18723 -27.71485,26.98438 -2.20002,0.47939 -4.47009,0.82692 -6.80859,0.99609 -2.56747,0.18557 -4.6015,0.29221 -6.31446,0.29297 -4.12078,-0.56126 -7.79549,-2.18107 -10.54101,-5.10352 -3.8778,-4.12773 -12.77446,-6.51475 -15.25391,-5.10937 l -2.51172,0.0293 1.85743,1.0625 c 0.0151,0.34696 0.15534,0.75781 0.45117,1.23633 1.7577,2.84406 1.40465,2.72398 -23.17188,-7.83398 l -15.76367,-6.77149 c -0.46598,-0.28082 -0.81207,-0.51656 -0.99609,-0.6914 -0.32089,-0.30501 -0.67489,-1.08173 -1.03516,-2.15039 l -1.22266,-12.41993 c -2.25429,-22.87777 -5.53052,-19.86231 -4.01757,3.69727 2.849,44.36296 10.06574,59.71332 31.20312,60.99609 4.24263,0.73285 8.69939,0.5205 13.19922,-0.70312 8.62001,-1.43463 13.30367,-4.85339 15.94141,-11.64063 l 0.27539,-0.25586 -0.24414,0.17774 c 0.49511,-1.28674 0.92408,-2.68154 1.28711,-4.21875 l 1.32226,-5.59766 c 0.18331,0.77704 0.33939,1.57509 0.46094,2.38282 l 0.0957,3.0996 c 0.0571,1.85156 -0.0302,3.53508 -0.25586,5.0879 -0.88993,4.23408 -3.06443,7.9162 -6.28515,10.77148 -1.07339,0.80961 -2.28577,1.56185 -3.6543,2.26953 -8.07379,4.17494 -36.18175,4.08878 -45.93164,-0.14062 -15.56364,-6.75145 -27.16215,-19.39428 -31.42383,-34.25391 -1.75034,-6.10318 -1.60563,-6.29967 3.78125,-5.10742 l 5.60352,1.24023 -6.72071,-5.51172 c -5.91462,-4.85076 -9.48404,-11.69005 -10.47851,-18.51953 -0.0627,-0.76463 -0.1276,-1.50478 -0.18164,-2.34961 -0.0435,-0.68424 -0.068,-1.2231 -0.10352,-1.84179 0.0442,-3.84279 0.94602,-7.54623 2.74609,-10.7461 0.6982,-1.10379 1.55254,-2.27929 2.55665,-3.54101 0.26796,-0.29125 0.54342,-0.57746 0.83203,-0.85352 11.26541,-10.77751 14.92527,-18.87934 16.76367,-37.11523 0.94443,-9.36889 2.75682,-17.38118 4.02734,-17.80469 1.54337,-0.51445 1.31511,-1.91197 -0.68554,-4.21094 -1.64693,-1.89253 -4.58264,-8.32459 -6.52539,-14.29492 -2.97621,-6.59568 -1.63991,-7.36712 -10.89844,-16.89649 2.69372,5.48218 10.03129,19.98853 8.18164,18.85157 3.57142,2.99107 1.25,3.21484 1.25,3.21484 -15.36584,-20.09459 -14.0113,-19.54114 -25.65039,-29.76953 1.14607,2.02171 2.50649,4.11498 3.9707,6.0332 4.0159,5.26111 7.07265,9.5124 6.79297,9.44532 -2.26617,-0.54418 -23.02351,-11.43994 -27.29102,-14.26172 -2.01887,-1.75237 -3.07632,-3.31155 -3.23242,-4.78516 0.32693,-1.67944 2.40446,-3.43726 6.50196,-5.93555 4.09074,-2.49422 6.51303,-3.78174 7.94726,-3.83593 l 8.10156,-1.86914 c 0.60661,-0.26059 1.28064,-0.52449 2.05078,-0.79297 3.55238,-1.23836 6.45899,-3.09961 6.45899,-4.13672 0,-0.23686 0.019,-0.44825 0.0488,-0.64258 0.92647,-0.61996 1.8905,-1.05805 2.69531,-1.19141 z m -38.05859,22.75391 5.91406,4.97461 c 3.25266,2.73693 11.19749,7.12273 17.65625,9.74414 8.50681,3.45268 13.26209,6.85872 11.77148,8.03125 -0.20409,0.0906 -0.4441,0.18705 -0.69922,0.2832 -0.36888,0.0888 -0.82201,0.14649 -1.41797,0.14649 -1.14946,0 -2.08984,0.94027 -2.08984,2.08984 0,1.14957 2.82083,2.08985 6.26953,2.08984 4.89196,0 12.35025,4.71789 13.8418,7.93165 0.082,0.21225 0.1591,0.43077 0.23242,0.65429 0.11074,0.53899 0.0113,1.01692 -0.36133,1.39063 -0.6969,0.69702 -2.71149,-0.79339 -4.47461,-3.31055 -0.57339,-0.81864 -1.21559,-1.51656 -1.90429,-2.10937 -1.38312,-1.31282 -2.8455,-2.03591 -4.39453,-2.17188 -3.74438,-0.74448 -7.79302,0.8794 -10.38672,4.83789 -0.80077,1.2221 -1.372,2.3144 -1.72852,3.3125 -1.48739,1.85411 -1.41394,2.69545 -0.0312,3.91992 0.82125,1.75917 2.95522,3.1725 6.55469,4.54102 3.98166,1.51383 6.583,1.1786 10.42969,-1.3418 0.0835,-0.0548 0.16452,-0.101 0.24804,-0.1543 0.41481,-0.19963 0.78989,-0.43421 1.14649,-0.68359 2.30351,-1.27963 4.37011,-1.87599 4.91406,-1.33203 0.65276,0.65277 0.17499,8.39937 -1.0625,17.2168 -2.51565,17.9278 -9.07938,29.60547 -21.25195,37.80859 -7.54235,5.08279 -17.4241,6.02368 -24.17188,2.30078 -14.34671,-7.91537 -23.40304,-22.6787 -25.4043,-41.19922 -0.0624,-1.03755 -0.124,-2.05062 -0.17578,-3.20312 -0.14097,-3.13095 -0.15968,-6.54492 -0.0879,-9.90039 0.90278,-4.53126 4.13079,-3.73279 12.36914,0.21094 4.49163,2.15003 6.58995,2.11175 11.3418,-0.20313 3.20674,-1.56211 6.19454,-3.95715 6.63867,-5.32227 1.01911,-3.13251 -3.57462,-7.86539 -8.24804,-9.79296 -1.44756,-0.80278 -2.93045,-1.03991 -4.60743,-0.80274 -0.10733,0.014 -0.22148,0.0114 -0.32617,0.0312 -2.72659,0.52124 -4.45942,0.14174 -3.85156,-0.8418 0.0151,-0.0253 0.0498,-0.049 0.0684,-0.0742 0.47909,-0.32009 1.13788,-0.69258 1.95898,-1.11329 1.13862,-0.36487 2.59155,-0.5996 4.05664,-0.59961 2.73823,0 5.56101,-0.94027 6.27149,-2.08984 0.38457,-0.62223 0.0114,-1.15019 -0.9336,-1.52148 l 0.9336,-0.40625 -2.96094,-0.041 c -0.6381,-0.0744 -1.34352,-0.12109 -2.14062,-0.12109 -1.00245,0 -1.92089,-0.0291 -2.76758,-0.0723 -1.06923,-0.23036 -1.98494,-0.59403 -2.625,-1.04297 -0.28536,-0.32016 -0.48335,-0.72057 -0.59961,-1.20898 0.54353,-2.04277 1.59723,-5.74078 2.8418,-9.93164 z m -26.24805,4.13867 c -0.88868,0.0295 -3.01968,3.13893 -6.14063,9.73047 -6.74275,14.24091 -9.80241,30.14912 -8.1582,42.4082 0.29178,2.17578 0.60056,3.82585 0.91797,5.04688 l -0.0644,2.61133 0.29492,-1.81446 c 1.50705,4.67012 3.16977,-0.89767 4.18945,-15.36523 0.63039,-8.9443 3.18967,-21.68577 5.68945,-28.31445 3.50261,-9.28781 4.41412,-14.3404 3.27149,-14.30274 z m 83.24805,13.47461 c -0.0696,0.006 -0.12942,0.0336 -0.17969,0.084 -0.57033,0.57031 1.89398,8.29701 5.47656,17.16992 3.58258,8.87291 7.09209,19.74819 7.79883,24.16797 0.70677,4.41978 2.10475,8.03711 3.10742,8.03711 2.50307,0 2.26911,-9.77853 -0.47656,-19.85743 -2.46134,-9.03493 -13.5669,-29.78172 -15.72656,-29.60156 z m -75.07032,8.73438 c 0.17122,0.10537 0.3492,1.24748 0.56641,2.88281 l -0.0664,1.78711 c -0.0813,2.16205 -0.10926,3.89372 -0.0703,5.3125 -0.20561,0.77854 -0.47307,1.40082 -0.80469,1.73242 -1.05135,1.05138 -1.37015,-1.50873 -0.74804,-6.00195 0.56179,-4.05753 0.85254,-5.87933 1.12304,-5.71289 z m 58.13672,6.3457 c 2.09821,-0.0893 5.04492,3.88476 5.04492,3.88477 0,-10e-6 -1.31,-0.93579 -3.02734,-1.49024 1.39161,0.8618 2.25312,2.48253 2.25391,4.24024 -3.7e-4,2.68814 -1.97999,4.86711 -4.42188,4.86718 -2.44189,-8e-5 -4.4215,-2.17905 -4.42187,-4.86718 6.3e-4,-1.79831 0.90182,-3.44976 2.34375,-4.29493 -1.43305,0.46262 -2.45899,1.23241 -2.45899,1.23243 0,-2e-5 2.5893,-3.48296 4.6875,-3.57227 z m -40.77734,0.28125 c 2.37381,0.0834 4.88476,3.69336 4.88476,3.69336 0,0 -0.97244,-0.4513 -2.22656,-0.88867 0.8707,0.91692 1.36379,2.18527 1.36524,3.51172 -3.7e-4,2.68814 -1.97999,4.86711 -4.42188,4.86718 -2.44189,-8e-5 -4.4215,-2.17905 -4.42187,-4.86718 0.002,-1.58554 0.70513,-3.07072 1.88476,-3.98047 -1.35554,0.40196 -2.35937,1.04492 -2.35937,1.04492 0,0 2.32226,-2.90318 4.82226,-3.34961 0.1561,-0.028 0.31445,-0.0365 0.47266,-0.0312 z m 17.58398,20.70508 c -2.10527,0.0265 -4.55078,0.87992 -4.55078,2.11914 0,0.4518 1.93768,0.82226 4.30469,0.82226 0.5983,0 1.13099,-0.0585 1.58594,-0.16211 1.65996,-0.053 2.50426,-0.5016 1.90429,-1.10156 -0.0756,-0.0758 -0.16899,-0.14021 -0.26953,-0.20117 -0.002,-0.17125 -0.0378,-0.34711 -0.15234,-0.5332 -0.41824,-0.67673 -1.55911,-0.95923 -2.82227,-0.94336 z m -3.38086,7.12109 c -0.50694,0 -1.5044,0.94028 -2.21484,2.08985 -0.71048,1.14946 -0.29555,2.08984 0.92187,2.08984 1.21739,0 2.21485,-0.94038 2.21485,-2.08984 0,-1.14957 -0.41493,-2.08985 -0.92188,-2.08985 z m 9.28125,2.08985 c -1.14954,0 -2.08984,0.94028 -2.08984,2.08984 0,1.14957 0.9403,2.0918 2.08984,2.0918 1.14958,0 2.08985,-0.94223 2.08985,-2.0918 0,-1.14956 -0.94027,-2.08985 -2.08985,-2.08984 z m -7.62304,10.58593 c -2.80475,0.0287 -5.19174,0.70773 -6.05079,2.09766 -0.0733,0.11845 -0.16603,0.22354 -0.25976,0.32812 -0.17991,0.0739 -0.33528,0.12572 -0.51953,0.20313 l -1.97656,0.83203 c -0.51795,0.0125 -1.04719,-0.0602 -1.54688,-0.25195 -2.44354,-0.93767 -3.25336,-0.25568 -2.50195,1.74804 l -0.75196,0.21289 0.20508,0.22266 1.78711,1.92578 c 0.67435,1.08538 1.54173,2.32746 2.66992,3.76172 3.97036,5.04743 9.59455,6.68538 14.28321,4.90039 2.63478,-0.85663 4.9763,-2.88103 6.68945,-6.08203 0.23735,-0.44391 0.42604,-0.84997 0.58398,-1.23437 0.55658,-1.01709 0.83425,-1.78567 0.76758,-2.43555 l 0.75196,-0.95703 -1.72657,-0.71485 c -0.46443,-0.46164 -1.067,-0.95518 -1.87695,-1.56836 -0.0265,-0.0193 -0.0563,-0.0355 -0.082,-0.0547 -0.0151,-0.0129 -0.0264,-0.0243 -0.0449,-0.0371 -2.68948,-2.0384 -5.16048,-2.96287 -8.23633,-2.79102 -0.73516,-0.073 -1.46364,-0.11269 -2.16406,-0.10547 z m 1.32617,4.31836 c 0.661,0.049 1.22793,0.23183 1.55078,0.55469 0.37379,0.37387 0.17422,0.68509 -0.41992,0.88281 -0.35414,0.0204 -0.66842,0.0508 -1.10352,0.0508 -2.50359,0 -3.71565,-0.36178 -3.03711,-0.83789 0.008,-0.004 0.012,-0.007 0.0195,-0.0117 0.0113,-0.008 0.0341,-0.0174 0.0488,-0.0254 0.13531,-0.0723 0.29331,-0.14544 0.48633,-0.22265 0.0151,-0.006 0.0302,-0.01 0.0449,-0.0156 0.68754,-0.24491 1.54431,-0.37243 2.41016,-0.375 z m 3.69922,5.25391 c 1.17452,0.0596 1.74515,0.43023 1.36523,1.04492 -0.52887,0.85574 -2.78531,1.49895 -4.93359,1.73828 -1.66186,-0.0624 -3.25463,-0.34681 -4.21875,-0.86328 0.32466,-0.45524 2.47842,-1.17545 5.0957,-1.67578 1.06466,-0.20353 1.98668,-0.27993 2.69141,-0.24414 z m -29.80078,14.05664 0.95117,0.5 7.26172,4.79883 c 4.87559,3.22111 8.83221,4.70736 14.02343,5.13086 2.06393,0.42821 3.97225,0.44844 6.01758,0.11328 l 8.32422,-0.125 v 8.26758 c 0,4.54657 1.7665,11.19881 3.92578,14.7832 2.15925,3.58439 4.56068,10.07953 5.33594,14.43555 1.24214,6.97954 0.16968,10.08244 -9.0332,26.12695 -16.55709,28.86606 -13.43591,28.85556 -32.91211,0.12695 l -17.00977,-25.08984 6.32422,-12.26172 c 4.77759,-9.2637 6.38133,-15.27716 6.55859,-24.59766 z m -235.5879,32.73242 c 3.34119,0.0593 3.337,0.20978 -0.0723,2.19531 -6.07906,3.54074 -9.92773,13.5958 -9.92774,25.9375 0,27.02298 19.99012,44.42674 53.52149,46.59766 13.48343,0.87303 15.16385,1.48799 18.22266,6.66601 2.94726,4.98928 2.99354,6.20317 0.36718,9.67383 -1.65139,2.18245 -4.51919,8.43602 -6.37304,13.89649 -3.68595,10.85677 -4.99995,11.34677 -18.71094,6.99218 -23.85581,-7.57636 -43.00965,-22.78566 -52.77539,-41.90624 -6.14223,-12.02612 -8.63829,-36.07121 -5.21289,-48.58594 0.0476,-0.17122 0.0992,-0.33976 0.14843,-0.50977 0.0778,-0.26419 0.15288,-0.5323 0.23633,-0.78515 2.72948,-8.27037 14.9707,-20.27128 20.57617,-20.17188 z m 315.63477,2.57227 c 0.31559,0.0529 0.69722,0.13775 1.17578,0.27343 1.7856,0.78369 13.11981,5.6514 25.82813,11.0918 21.18928,9.07109 23.44979,10.55855 23.51367,15.46094 0.0389,2.9831 -1.64449,6.97449 -3.74024,8.87109 -2.09574,1.89664 -7.97543,3.97414 -13.06445,4.61719 -13.02898,1.6464 -22.58443,-3.66275 -28.39258,-15.77734 -3.16305,-6.59743 -5.35809,-13.70749 -6.0957,-18.57813 -0.12283,-0.97996 -0.2061,-1.85351 -0.25977,-2.63867 -0.0612,-1.91172 0.25514,-3.14475 1.03516,-3.32031 z m -62.2793,2.35937 -0.002,0.002 c -2.49309,0.0922 -3.86045,0.58509 -4.09766,1.47071 -7.5e-4,0.003 -0.003,0.004 -0.004,0.008 -0.23358,0.59263 0.19086,1.45656 1.3164,2.58203 0.008,0.008 0.0178,0.01 0.0254,0.0176 0.0227,0.0227 0.0394,0.0449 0.0625,0.0684 0.0979,0.0979 0.21852,0.18285 0.33984,0.26562 0.11603,0.079 0.24383,0.14789 0.3789,0.21289 0.95846,0.50468 2.2958,0.76415 3.66993,0.78516 h 0.004 c 0.13682,0.0265 0.26987,0.0449 0.39649,0.0449 0.14778,0 0.30537,-0.0266 0.46679,-0.0625 0.25928,-0.0151 0.51589,-0.0377 0.76954,-0.0684 1.4042,0.0442 2.59427,-0.37968 3.44531,-1.26953 0.15723,-0.14249 0.29707,-0.29292 0.39844,-0.45703 0.0151,-0.0265 0.0238,-0.0524 0.0351,-0.0781 0.0378,-0.0537 0.0785,-0.10189 0.11328,-0.15821 0.12813,-0.20712 0.1616,-0.40105 0.12305,-0.58398 0.0998,-0.14816 0.17869,-0.30273 0.23047,-0.46094 0.37455,-1.14958 -2.14014,-2.19004 -5.58594,-2.3125 -0.76656,-0.0265 -1.46069,-0.0283 -2.08594,-0.006 z m 123.68555,21.67969 9.56055,0.91992 c 13.14943,1.26399 35.51116,12.14273 46.11523,22.43359 12.68939,12.31469 15.95286,19.74923 15.88672,36.18946 -0.0151,3.39666 0.12612,6.48199 0.35742,8.92383 -0.0839,2.13713 0.0764,3.34168 0.4668,3.35937 0.23735,1.12728 0.50969,1.82617 0.80469,1.82617 0.9267,0 1.76211,-1.1763 1.85547,-2.61328 0.034,-0.54909 0.10214,-0.93499 0.18945,-1.20508 0.42251,0.0669 0.84617,0.28647 1.26562,0.66211 1.76969,3.50049 4.49368,14.70799 4.55079,21.21289 0.0616,7.0097 -1.02214,11.79605 -3.91797,15.33399 -1.55963,1.5682 -3.41824,3.02901 -5.51172,4.33008 -2.04802,1.08279 -4.46603,2.02689 -7.35352,2.89062 l -9.5625,2.86133 3.98633,-8.05469 c 4.6557,-9.41008 3.32942,-16.60742 -3.06055,-16.60742 -4.54065,0 -9.50133,5.0732 -9.90234,9.95703 l -0.9707,1.53906 0.94336,-0.84179 c 0.12207,1.57069 2.06649,0.28459 4.98632,-3.33789 0.86793,-1.07687 1.55747,-1.89847 2.17383,-2.59375 1.8025,-0.98665 3.19876,-1.02771 4.14258,-0.38477 0.0794,0.18557 0.15633,0.34054 0.24023,0.55469 2.49071,6.37818 -4.46269,17.93562 -12.91406,21.46679 -9.88191,4.12895 -18.31885,3.1127 -19.26562,-2.32226 l -0.27149,-1.55859 c 9.9e-4,-0.0737 0.003,-0.1477 0.004,-0.21876 0.11263,-0.60978 0.36699,-0.8548 0.8457,-0.72656 l 1.94922,2.50391 c 3.14487,4.03714 3.25369,4.09081 3.31836,-0.30274 0.0389,-0.17801 0.0335,-0.41356 -0.0156,-0.70507 -0.0998,-2.45152 -1.33941,-4.35859 -2.91796,-5.30664 -0.74117,-0.6559 -1.47614,-0.84193 -2.14844,-0.65235 -1.26346,-0.0302 -2.51238,0.55644 -3.41406,1.95899 -1.03159,1.60448 -1.36048,5.37665 -0.73047,8.38281 0.99507,4.74822 0.33337,5.62898 -5.03711,6.70312 -6.20984,1.24192 -16.13979,-0.78979 -21.29688,-4.18554 -1.16738,-1.04565 -2.20741,-2.24577 -3.09961,-3.60743 -0.0646,-0.0986 -0.11379,-0.1947 -0.17578,-0.29296 -1.85113,-4.61277 -0.48511,-11.42249 3.53907,-13.57618 2.38888,-1.27831 5.67995,-1.81084 7.31445,-1.18359 1.63453,0.62721 2.97265,0.33031 2.97265,-0.66016 0,-3.41461 -6.70104,-4.36157 -12.22656,-1.72656 -3.24691,1.5484 -4.83849,3.29645 -5.63476,6.64844 -0.0854,0.21354 -0.15797,0.43676 -0.23243,0.6582 -0.45222,1.02388 -0.71679,2.07024 -0.71679,3.08399 0,0.26078 0.0122,0.52088 0.0273,0.78125 -0.008,0.21089 -0.0273,0.41607 -0.0273,0.63086 0,1.37582 0.27325,2.75088 0.77344,4.08789 1.4276,6.22458 6.38848,10.62379 14.08984,12.16406 10.39037,2.07806 2.60149,4.79968 -13.81836,4.82617 -14.75172,0.0227 -21.12226,-1.31849 -27.20117,-10.55078 -1.10223,-1.78424 -2.32522,-3.96298 -3.75196,-6.69531 -1.67142,-3.37731 -3.43311,-7.3828 -5.44726,-12.1836 -5.0163,-11.95661 -11.36608,-25.71048 -14.10938,-30.56445 -0.74517,-1.31853 -1.36262,-2.54971 -1.89648,-3.73047 -1.00906,-2.81756 -1.70447,-5.18465 -2.04297,-7.07226 -0.11754,-1.33898 -0.067,-2.6104 0.19336,-3.82813 1.20249,-5.62193 1.13533,-5.67379 -2.11914,-1.63476 -2.77523,3.44428 -5.89518,4.17212 -17.90625,4.17968 -7.99975,0.004 -14.5454,0.69685 -14.54688,1.53711 -0.003,1.58529 3.61313,2.77175 8.50391,3.22461 3.34386,0.54157 7.86058,0.46401 11.03516,-0.21094 0.13115,-0.0151 0.26345,-0.0302 0.39453,-0.0469 9.1206,-1.25012 9.17443,-1.22314 6.88086,3.81055 -1.27106,2.78963 -5.23878,6.09897 -8.81641,7.35351 -6.36457,2.23196 -25.91209,4.48948 -41.15625,5.2207 -1.46177,0.0113 -2.92431,0.0234 -4.36719,0.0234 -3.66565,0 -7.14084,0.0151 -10.29296,0.0469 -0.67707,-0.0491 -1.34249,-0.0997 -1.89649,-0.17188 -17.51108,-2.27369 -21.80178,-5.14666 -25.28711,-19.27929 0.27288,-0.42509 0.26188,-0.54819 -0.084,-0.34961 -0.21014,-0.86673 -0.41709,-1.76252 -0.625,-2.71485 -0.69007,-3.16131 -2.24018,-5.74804 -3.44532,-5.74804 -1.22951,0 -1.6189,1.80986 -0.88476,4.12304 0.80867,2.54782 -0.65753,7.53562 -3.84375,13.0625 -2.83518,4.91777 -9.08983,18.34805 -13.89649,29.84375 -4.80657,11.49566 -10.99439,23.22101 -13.7539,26.05664 -4.24978,4.36713 -7.33912,5.26454 -20.19336,5.86719 l -13.28125,0.62305 c -0.40142,-0.1784 -0.73459,-0.34849 -1.00195,-0.50391 l 5.89843,-3.91211 c 9.00904,-5.97449 8.78751,-9.84753 -0.24414,-4.26562 -3.87178,2.39289 -8.72118,4.35156 -10.77539,4.35156 -3.48597,0 -3.50574,-0.25473 -0.27734,-3.82227 5.38137,-5.94636 4.07738,-7.21248 -2.45508,-2.38281 -4.21191,3.11414 -7.50379,3.97411 -11.43945,2.98633 -5.34029,-1.34033 -5.4209,-1.58762 -2.44532,-7.3418 6.54846,-12.66327 1.36836,-22.7836 -6.16015,-12.03515 -3.97486,5.67488 -2.28597,8.1414 1.77344,2.58984 4.2571,-5.82195 5.49087,-3.05661 2.16406,4.85156 -2.09583,4.98202 -4.19549,6.79297 -7.87305,6.79297 -12.76539,0 -21.74919,-7.24321 -22.32812,-17.81641 0.15949,-3.35697 1.43981,-4.90531 2.79297,-4.65039 1.05224,0.84477 2.13386,2.8354 2.7246,5.78907 1.47689,7.38436 4.90235,10.45665 4.90235,4.39648 0,-6.73085 -3.84012,-14.89062 -7.00781,-14.89062 -4.05661,0 -6.52271,2.76129 -6.98438,7.24218 -0.92107,2.5177 -0.56518,5.28321 1.05469,8.67578 0.79684,3.12545 1.31139,5.70744 1.32031,6.6504 -0.22299,0.0737 -0.5002,0.11435 -0.83008,0.12304 -0.76974,-0.22564 -1.53085,-0.44946 -2.28711,-0.67578 -2.22138,-0.77321 -5.36184,-1.91041 -8.90039,-3.23437 -10.30545,-3.8558 -14.81568,-8.37372 -15.83789,-16.46289 -0.008,-0.0756 -0.0177,-0.14669 -0.0215,-0.22266 -0.0227,-0.29934 -0.034,-0.61586 -0.0488,-0.92578 -0.0227,-0.4777 -0.0447,-0.95788 -0.0508,-1.44922 -0.004,-0.21884 -0.004,-0.442 -0.008,-0.66602 0.0113,-3.07581 0.3651,-6.38185 1.02734,-9.73437 1.29067,-5.75739 3.55224,-11.73445 6.13086,-15.66992 l 2.82617,-4.3125 c 0.5449,-0.0631 1.19995,0.15081 2.08984,0.66211 l 7.78711,5.94336 c 22.29783,17.0203 54.53487,17.77689 89.95313,2.11328 25.14115,-11.11862 41.75318,-27.93764 49.13672,-49.74805 2.02375,-5.97793 4.14382,-10.86719 4.71094,-10.86719 0.56696,0 8.52694,11.72222 17.6875,26.05078 9.16043,14.32857 17.48638,26.3309 18.5039,26.66993 1.01749,0.33902 8.63418,-12.40843 16.92578,-28.32618 l 15.07617,-28.9414 9.35547,8.96484 c 26.02708,24.93834 78.4668,18.90653 78.4668,-9.02539 v -2.78906 c 0,-2.22471 0.015,-3.67991 0.36914,-4.59766 z m -154.12695,0.008 -0.002,0.002 c 1.58351,-0.0506 6.45001,6.71557 15.8125,21.86524 7.83916,12.68477 15.26231,23.53062 17.54688,25.7207 0.46961,0.57067 0.84156,0.97656 0.9707,0.97656 0.31219,0 1.3784,-1.48726 2.94531,-4.02929 9.5e-4,-0.002 7.4e-4,-0.004 0.002,-0.008 2.97819,-4.1156 7.43362,-11.48333 11.99219,-20.02929 7.07535,-13.26429 13.26729,-23.73203 13.83203,-23.39063 0.0113,0.0151 0.008,0.0542 0.0195,0.0762 0.22677,0.942 -5.97966,13.47003 -14.02344,28.28124 -6.03961,11.12081 -11.29662,20.64309 -13.74023,24.91993 -0.99202,0.69048 -2.46791,-0.13306 -5.25391,-3.41993 -0.79737,-1.00712 -1.67004,-2.13665 -2.61719,-3.3789 -3.11263,-4.57625 -6.93985,-10.22783 -11.3125,-16.73633 -10.75328,-16.00577 -17.14423,-27.5234 -16.7207,-30.13086 0.0756,-0.46681 0.2555,-0.70941 0.54883,-0.71875 z m 263.99804,25.78906 c 2.47514,0.88226 4.92901,4.61557 6.09571,8.94532 8.7e-4,0.003 0.003,0.008 0.004,0.0117 0.3549,1.77448 0.59185,3.70892 0.67383,5.73437 -0.27931,9.41594 -6.38102,19.51318 -14.40039,23.66016 -7.57119,3.91517 -22.98744,4.3151 -24.11914,0.625 -0.44069,-1.43694 -1.2802,-6.06181 -1.86523,-10.27735 l -0.76368,-5.5039 c 0.24643,-0.76672 0.55403,-1.35359 0.9375,-1.64454 l 5.84961,2.44532 c 10.69059,4.46679 19.18485,3.73312 25.08594,-2.16797 0.74506,-0.7451 1.40544,-1.5732 1.99414,-2.44922 1.75933,-2.11196 2.74482,-4.58385 2.87696,-7.2793 0.63767,-3.85474 -0.0397,-7.59457 -2.25,-9.80468 -0.10205,-0.10205 -0.16522,-0.19004 -0.25782,-0.28907 -0.19767,-0.96102 -0.15613,-1.66949 0.13867,-2.0039 z m -269.66015,35.67578 v 0.002 c -0.31446,0.002 -0.56692,0.0806 -0.73242,0.24609 -2.21518,2.21515 1.44475,5.57788 8.19922,7.53125 9.32473,2.69666 12.56592,2.67213 16.66992,-0.23047 l 2.56054,-0.0703 -2.05664,-0.30273 c 2.94225,-2.20815 1.91639,-2.55274 -6.96875,-2.55274 -5.76287,0 -11.99097,-1.2566 -13.83984,-2.79101 -1.38667,-1.15072 -2.88821,-1.83865 -3.83203,-1.83204 z m -8.54688,9.64844 c 1.26403,1.35228 2.63303,5.25749 3.60742,9.95703 0.19427,2.93511 0.28516,6.48445 0.28516,10.67969 v 10.31641 c -1.85348,7.60093 -6.18931,13.61963 -12.82226,17.63867 -4.44284,2.69189 -10.19473,6.23597 -12.78125,7.875 -2.58652,1.63895 -4.70313,2.50015 -4.70313,1.91406 0,-2.04884 16.87761,-42.02448 22.875,-54.67187 1.40398,-2.16783 2.57494,-3.39937 3.53906,-3.70899 z m 99.3418,0.95313 c 0.11528,-0.004 0.232,0.0114 0.34766,0.0488 1.34211,0.43612 7.3748,12.85041 13.40625,27.58789 6.03144,14.73743 12.02425,28.07157 13.31836,29.63086 0.2691,0.3239 0.46666,0.57464 0.67578,0.83789 0.26986,0.63341 0.51599,1.225 0.61328,1.53515 -0.96272,-0.18935 -4.39898,-2.22576 -12.00195,-6.81445 -14.5358,-8.77289 -18.69865,-13.40124 -21.04297,-23.40039 -2.18986,-9.34031 1.10691,-29.28314 4.68359,-29.42578 z m -10.26953,8.60937 c 0.31748,0.1183 0.57434,0.37495 0.77734,0.81836 v 12.00781 11.40039 c -0.40845,0.99515 -1.02568,1.58235 -1.97461,1.9961 l -7.33008,1.0039 c -4.92253,0.67473 -8.38268,0.99925 -11.95898,0.9629 -1.84539,-0.0635 -3.73146,-0.18004 -5.64258,-0.3418 -2.95015,-0.30841 -6.32267,-0.80755 -10.82031,-1.56055 -22.75253,-3.80908 -43.00391,-13.24566 -43.00391,-20.03906 0,-2.52612 1.36081,-2.81211 6.79297,-1.42578 2.56611,0.65488 6.72202,1.09602 11.67188,1.36523 12.81675,1.78243 29.06049,1.25975 42.62109,-1.16406 4.97628,-0.55737 8.99446,-1.25174 11.15234,-2.07617 z m -79.16602,16.63672 c 0.16479,-0.20334 6.875,2.83902 14.91016,6.76172 v 0.002 l 14.04883,6.85743 -0.86133,0.1289 -14.48633,0.0918 -15.44336,0.0977 c -0.48094,-0.47909 -0.80529,-1.08339 -0.98633,-1.8125 l 1.06446,-4.96484 c 0.80039,-3.7361 1.58912,-6.95873 1.7539,-7.16211 z m -257.87304,3.35938 6.25586,7.125 c 18.65706,21.24922 62.52197,22.66946 82.51953,2.67187 4.84395,-4.84395 5.40387,-4.96397 7.22851,-1.55469 1.08783,2.03267 5.82982,5.43196 10.53711,7.55469 l 6.9082,3.11524 c 0.47722,0.61266 0.56125,1.27065 0.33985,2.09765 l -5.55469,5.73438 c -3.77526,3.89858 -12.50665,9.86783 -19.4043,13.26562 -6.80869,3.35403 -16.3583,5.8783 -25.25195,7.05078 -1.93916,0.0624 -3.9463,0.10077 -6.09961,0.0996 -5.28619,-0.003 -9.37166,-0.10034 -12.85937,-0.32031 -29.70049,-7.62675 -44.61914,-20.77869 -44.61914,-39.34766 z m 338.01171,10.06054 c 0.76245,-0.0189 1.37868,0.0523 1.91016,0.16602 0.80908,0.2846 1.29396,0.81487 1.59961,1.61133 0.74706,1.94691 -2.26526,3.82408 -9.6582,6.01953 -2.96073,0.87927 -7.07548,1.54989 -11.85352,2.03711 -10.12286,0.67453 -23.66429,0.90736 -35.33203,0.66211 -14.49781,-0.66701 -27.02272,-2.39834 -29.55859,-4.98047 -0.64301,-0.65481 3.06325,-0.56773 8.23633,0.19336 5.31696,0.78198 13.94757,0.29027 19.85546,-1.12891 5.74783,-1.38092 17.04616,-2.32972 25.10547,-2.10937 8.05935,0.22034 18.58347,-0.48134 23.38672,-1.56055 1.30205,-0.29254 2.38704,-0.50164 3.37305,-0.66602 0.42935,-0.0427 1.09517,-0.0931 1.43359,-0.13281 0.54372,-0.0646 1.04433,-0.1015 1.50195,-0.11133 z m 5.46094,8.48438 c 1.89887,0.0926 4.18033,0.95522 7.84375,2.96094 1.56382,0.94696 3.32669,2.07512 5.51953,3.53515 6.63924,4.42046 20.13966,13.27877 30.00196,19.6836 9.8623,6.40478 25.85285,18.841 35.5332,27.63671 33.24208,30.20451 55.15378,42.05545 73.75,39.88672 6.98786,-0.81494 12.07743,-0.19807 16.27539,1.97266 5.56218,2.8763 5.9873,3.85211 4.75,10.9043 -10.07093,57.40017 -42.40296,150.70195 -73.61914,212.44726 -25.88708,51.20444 -51.48262,83.28662 -77.38867,97.00196 -16.09251,8.51973 -21.24843,15.99585 -21.25977,30.82226 -0.008,12.6751 -3.17489,16.35624 -16.75976,19.48633 -1.48369,0.34205 -3.06414,0.64171 -4.72071,0.90624 -0.003,4e-4 -0.004,-4e-4 -0.008,0 -4.30586,0.4349 -9.61697,0.7404 -16.26172,0.9629 -5.38881,0.1803 -10.49462,0.2323 -15.43359,0.1699 -23.75429,-1.1782 -51.45504,-5.99329 -73.27734,-13.42381 -29.77921,-10.13998 -46.08437,-11.38712 -71.35157,-5.45508 -18.74169,4.40002 -37.12406,6.8786 -54.91797,7.47852 -2.10697,0.0113 -4.09609,0.0215 -6.45312,0.0215 -4.8748,0 -9.40771,-0.0571 -13.72461,-0.16406 -29.00896,-1.4177 -56.10225,-8.11464 -80.15625,-20.02344 -31.09118,-15.3928 -48.91971,-37.62755 -51.73047,-64.51953 -0.83904,-8.02749 -0.9936,-11.09661 0.80469,-14.16797 l 2.80078,-3.58203 c 0.44349,-0.48782 0.87603,-0.96473 1.40625,-1.52539 19.22165,-20.32293 140.84109,-194.20969 137.89453,-197.15625 -1.5174,-1.51744 -9.74913,9.76459 -64.23828,88.05274 -51.81103,74.44036 -74.89815,106.4042 -80.38281,111.16406 -0.49553,0.33146 -0.91805,0.53065 -1.2793,0.60937 -1.40796,-0.47164 -6.97943,-4.91719 -12.86133,-10.29296 C 87.725271,867.08663 76.659987,848.51594 72.125,831.48438 c -2.999879,-11.26636 -3.843679,-37.90665 -1.5625,-49.3125 1.465973,-7.32983 0.697366,-6.90511 28.628906,-15.83008 18.669684,-5.9655 46.313104,-20.28496 55.105474,-28.54492 8.16958,-7.67502 3.67014,-6.55688 -9.33204,2.31835 -6.83969,4.6687 -17.85124,10.96755 -24.4707,13.99805 -14.77176,6.76271 -15.98947,5.59446 -15.23437,-14.64453 l 0.53125,-14.24805 C 105.8558,725.14511 105.93027,725.07332 106,725 l 8.26758,-2.43359 c 21.26855,-6.26264 53.65285,-28.48852 88.875,-60.99805 16.11268,-14.8718 21.32397,-18.51396 26.75,-18.69727 4.07742,-0.13757 8.96762,-2.30851 12.38476,-5.49609 7.54331,-7.03654 19.47664,-10.65523 35.95508,-10.9043 11.1662,-0.16856 15.88309,-1.44052 26.48047,-7.14258 12.5461,-6.75053 18.99337,-11.72076 51.87109,-39.97851 8.69386,-7.47216 27.82884,-21.18254 42.52149,-30.4668 23.52714,-14.86662 27.32277,-16.62499 31.82226,-14.74219 2.80989,1.17582 5.47312,2.39611 5.91797,2.71094 0.44485,0.31484 -6.87128,8.68541 -16.25781,18.60156 -20.19893,21.3388 -56.44195,69.15509 -75.39844,99.47461 -19.46555,31.13382 -40.71137,73.97732 -48.06054,96.91993 -3.49599,10.91384 -6.35547,20.96047 -6.35547,22.32617 0,5.3379 3.84219,-2.0435 8.39062,-16.11914 10.65056,-32.9593 31.46876,-71.54781 67.56446,-125.23438 33.055,-49.16394 69.34173,-93.18359 76.8125,-93.18359 5.12783,0 5.13586,-0.0586 -2.38086,14.83203 -22.71882,45.00571 -45.17977,118.36391 -50.97461,166.48633 -2.07757,17.25263 2.13855,12.82656 4.97656,-5.22461 3.77911,-24.0367 13.32222,-60.41437 24.81055,-94.57813 11.64419,-34.6272 28.73622,-76.20361 32.39843,-78.81054 1.36252,-0.97013 9.67096,-1.43411 18.46289,-1.03125 l 11.50977,0.52734 c 2.44951,0.30236 4.1755,0.61304 4.75781,0.88672 l 4.14453,9.9707 c 9.86676,23.74209 18.34549,84.83911 20.45118,147.35938 0.20409,6.05922 0.46856,11.721 0.75781,16.82226 0.14816,5.3226 0.42455,9.38701 0.8457,12.10547 0.49829,5.66158 1.01038,9.2168 1.44336,9.2168 2.45046,0 2.1673,-58.50659 -0.42969,-88.83008 -3.76376,-43.9474 -11.99787,-84.11857 -20.76562,-101.30469 l -3.32227,-6.51172 c 0.042,-0.18406 0.10675,-0.35904 0.21485,-0.52148 0.53162,-0.58654 1.56024,-1.07052 2.86523,-1.44727 l 3.93555,-0.50586 c 6.73969,-0.86758 8.82612,0.002 15.75781,6.57227 18.93033,17.94267 45.20072,67.95099 61.13672,116.37891 5.08943,15.46654 9.25806,29.29026 9.26562,30.7207 0.0227,5.21163 4.41132,18.27734 6.13868,18.27734 0.9761,0 -0.10581,-8.70047 -2.40625,-19.33398 -12.03137,-55.61571 -40.229,-116.42227 -67.51368,-145.5918 l -9.3457,-9.99023 5.15234,-2.34961 c 0.23925,-0.10885 0.46786,-0.20585 0.69532,-0.29883 1.07576,-0.3617 2.06515,-0.56144 3.16601,-0.50781 z m -220.30468,2.53125 c 4.92338,0.29782 3.59052,4.68749 -4.76368,15.95312 -12.55003,16.92367 -29.88522,32.69351 -43.33203,39.41797 -6.22756,3.11426 -13.6815,7.8715 -16.56445,10.57031 -4.99879,4.67944 -19.72252,9.13264 -33.88281,10.71875 -5.04869,0.31975 -10.23743,0.37848 -15.21875,0.0977 -5.23559,-0.29518 -9.66829,-0.70005 -13.74414,-1.36328 -11.81384,-2.82474 -24.48178,-9.50456 -48.96094,-24.31445 -6.4512,-3.90301 -12.11442,-5.53474 -16.86133,-4.90235 -2.94438,0.15799 -5.32645,1.30017 -7.310547,3.40821 -0.698551,0.62672 -1.365871,1.32142 -1.990234,2.11523 -5.66496,7.20178 -4.537907,16.728 3.177734,26.84375 6.399567,8.39025 6.029317,8.67362 -3.162109,2.41797 -16.35769,-11.13294 -20.320566,-28.13664 -11.509766,-40.66211 0.990539,-1.04973 2.098431,-2.18634 3.47461,-3.5625 1.594283,-1.59432 3.126482,-2.9956 4.640624,-4.24609 0.476281,-0.32089 0.957667,-0.63925 1.460938,-0.94532 12.12678,-7.37469 20.89664,-7.22546 44.78125,0.76563 27.72013,9.27435 47.76452,12.40371 69.06055,10.7832 30.88527,-2.35022 55.48258,-12.73806 75.91992,-32.06445 4.63272,-4.38081 9.22026,-8.15553 11.96484,-9.94336 1.03147,-0.49591 1.97635,-0.85931 2.82032,-1.08789 z m 9.71289,2.7207 v 0.002 l 13.00585,3.5586 c 4.86321,1.33122 9.21953,2.71228 11.84766,3.69726 1.3378,0.78014 2.36731,1.65035 2.85547,2.42383 -0.51965,7.67584 -31.09224,37.66797 -47.03516,47.28321 -1.38931,0.74116 -2.69347,1.36996 -3.87695,1.84765 -1.69425,0.61845 -3.24668,0.95825 -4.69141,0.99219 -2.51281,-0.49429 -6.3651,-2.26818 -9.33203,-4.38086 -4.20911,-2.99713 -6.03134,-3.52628 -5.38672,-1.56641 0.14287,0.43435 0.51453,1.00224 1.03516,1.64453 0.18633,0.24378 0.40483,0.50553 0.6875,0.80079 l 0.0195,0.0195 0.0449,0.0449 c 1.51005,1.62527 3.76907,3.55408 6.13086,5.1543 3.02483,2.04937 4.71833,3.20496 5.21485,3.85742 -1.12479,0.51243 -3.00575,0.76898 -5.13672,0.77929 -2.92853,-0.22072 -6.7902,-1.02032 -9.29492,-1.97265 -1.04165,-0.39598 -1.96474,-0.65411 -2.75391,-0.79883 -1.71424,-0.6895 -2.60742,-0.49585 -2.60742,0.61133 0,0.008 0.004,0.0139 0.008,0.0215 -7.6e-4,0.0151 -0.008,0.0263 -0.008,0.041 0,2.57707 3.5523,4.60575 11.3125,6.46094 l 5.46875,1.30859 c 0.0465,0.0892 0.0532,0.17302 0.0332,0.25391 l -5.32031,0.11132 c -3.74166,0.0779 -7.97913,-1.0743 -11.62891,-2.9082 -2.22228,-1.40651 -4.46593,-3.02691 -6.30078,-4.55078 -0.71656,-0.7711 -1.32384,-1.56825 -1.75976,-2.38281 -1.70389,-3.18373 -0.72904,-4.36244 6.10351,-7.37696 12.06006,-5.32085 27.3571,-20.0651 40.02539,-38.58203 l 10.95117,-16.00976 c 0.15232,-0.16744 0.25893,-0.25551 0.38868,-0.38477 z m 327.17773,0.54492 c 2.10444,1.15537 6.70178,6.5641 11.17383,13.29102 3.55676,5.35011 8.34456,11.2786 13.50781,16.97461 4.89294,5.84969 9.47349,10.38792 14.20508,14.16015 5.82538,5.1823 11.18387,9.12931 14.875,10.65821 2.56789,1.06367 4.78262,2.37235 5.8789,3.38867 0.192,0.19162 0.37004,0.37532 0.48633,0.5293 0.0151,0.0189 0.034,0.0385 0.0449,0.0566 0.0563,0.0786 0.0996,0.15147 0.13281,0.21875 0.008,0.0189 0.0178,0.0377 0.0254,0.0547 0.0189,0.0461 0.0276,0.0853 0.0352,0.125 0.004,0.0265 0.0156,0.0575 0.0156,0.084 -10e-4,0.0756 -0.034,0.17422 -0.0566,0.26758 -0.42225,1.17551 -3.37427,4.09523 -6.93164,6.80859 -4.52281,3.44969 -9.50376,5.27291 -14.10938,5.16406 -1.65437,-0.0389 -2.88173,-0.073 -3.72461,-0.13086 -0.43593,-0.18255 -0.77561,-0.35451 -0.96289,-0.51367 0.76207,-0.35981 2.9734,-0.95217 6.82032,-1.96875 5.08762,-1.34445 9.68319,-3.7685 10.21289,-5.38867 0.71705,-2.19326 -0.0446,-2.5084 -2.98047,-1.23047 -2.16866,0.94405 -7.70449,2.06041 -12.30274,2.48047 l -5.04882,0.46094 c -0.38937,-0.0541 -0.71478,-0.12546 -0.96094,-0.22071 -0.1663,-0.1576 -0.30728,-0.33524 -0.42774,-0.53125 l 5.66016,-3.10156 c 4.17086,-2.28605 8.13959,-5.60434 8.81836,-7.37305 1.65241,-4.3062 -0.0499,-4.0504 -6.42578,0.96485 -2.5561,2.01063 -6.12325,3.70106 -8.49414,4.09375 -9.9e-4,1.9e-4 -0.003,0.002 -0.004,0.002 -9.4e-4,1.5e-4 -0.003,-1.5e-4 -0.004,0 -0.0824,0.0151 -0.14876,0.0121 -0.22851,0.0234 -1.0814,-0.059 -2.19415,-0.25775 -3.34766,-0.57617 -13.24267,-5.13797 -51.19531,-40.808 -51.19531,-49.11328 0,-1.79074 4.79094,-3.75044 23.33984,-9.52344 0.69827,-0.0265 1.32579,-0.0821 1.97266,-0.13086 z m -293.70312,12.39258 c 0.85161,-0.0227 1.7969,0.1765 2.94531,0.51953 1.73832,0.51901 5.79301,0.97574 10.56054,1.25977 6.99187,1.25476 12.03809,1.35632 17.48829,0.35547 4.38712,0.0616 7.48498,0.16988 7.48437,0.29687 -9.4e-4,0.19351 -3.29125,2.38309 -7.31055,4.86719 -4.0193,2.48406 -16.4809,12.99599 -27.69336,23.35937 -23.1185,21.36787 -40.57241,33.99697 -53.09179,38.41407 -4.7178,1.66454 -11.63517,3.02539 -15.37305,3.02539 h -5.19336 c -0.45948,-0.23773 -0.66954,-0.54697 -0.61523,-0.99024 l 12.05078,-12.07226 c 6.27983,-6.29171 16.89405,-16.33233 25.33203,-24.01758 3.4775,-2.98503 6.92101,-6.19933 10.19922,-9.50781 0.26457,-0.26684 0.52884,-0.53282 0.79101,-0.80078 6.26987,-6.27183 11.98591,-12.7747 14.29883,-16.45313 3.85418,-6.12956 5.57173,-8.18836 8.12696,-8.25586 z m 260.41796,0.1543 0.002,0.002 c 3.18383,-0.0661 5.54914,2.58501 12.60937,12.32031 5.34059,7.36392 16.54653,18.8526 24.90235,25.53125 8.35578,6.67858 17.84968,14.96532 21.09765,18.41407 3.24794,3.44866 7.9105,8.38613 10.36133,10.97265 l 0.70508,0.74414 3.33594,3.95703 -0.62696,-0.004 -8.35742,-0.0781 c -0.008,-3.4e-4 -0.0159,3.1e-4 -0.0234,0 -15.6322,-0.69811 -35.16587,-12.82516 -62.7207,-38.89453 -9.99938,-9.46034 -22.80739,-20.3145 -28.46289,-24.12109 l -10.05859,-6.76953 c 0.13757,-0.0552 0.39707,-0.10428 0.73046,-0.15039 h 9.41993 c 3.96695,0.49447 7.92985,0.44262 12.19531,-0.1875 5.54177,-0.25399 10.48019,-0.74276 12.48633,-1.3086 0.8897,-0.25096 1.66955,-0.41254 2.40429,-0.42773 z m 119.85352,3.87695 c 0.44905,0.38158 1.07873,1.17995 1.96484,2.35156 3.50056,4.62819 4.17824,21.06518 1.19336,28.91602 -1.10366,2.9029 -3.92445,7.19788 -6.26953,9.54297 -2.34501,2.34497 -4.96988,4.1854 -5.83203,4.08789 -0.86222,-0.0975 -8.1186,-3.62444 -16.125,-7.83789 l -11.11719,-5.85156 c -1.17445,-0.75481 -2.01833,-1.38823 -2.55469,-1.90625 l 9.49219,-1.02735 c 5.70735,-0.61844 12.42061,-2.2585 14.91797,-3.64453 2.28714,-1.26939 4.44478,-3.03581 6.33008,-5.07422 0.18671,-0.1799 0.38858,-0.35606 0.56055,-0.53906 0.70548,-0.75099 1.41913,-1.71767 2.10742,-2.80274 2.11071,-3.05317 3.57699,-6.39067 4.04883,-9.47851 0.062,-0.26873 0.13987,-0.5459 0.1875,-0.80469 z m -20.17774,43.74024 c 0.6533,0.33713 1.31322,0.68062 1.92188,0.99414 l 1.30859,1.02929 2.42774,2.42774 c 2.78018,2.78018 5.06687,7.21277 5.08203,9.85156 0.0151,2.63879 0.63485,7.06185 1.375,9.82813 1.78896,6.68586 -2.42208,4.13924 -7.83398,-4.73633 -3.11524,-5.10883 -4.00416,-5.66175 -4.01172,-2.4961 -3.8e-4,0.19314 0.0403,0.43959 0.0762,0.67774 -0.0495,0.0521 -0.084,0.1276 -0.084,0.25195 0,0.65352 0.47897,1.89297 1.24024,3.38086 1.01491,2.39815 2.55381,5.23365 4.29492,7.74609 6.01089,8.67368 5.558,12.73378 -0.7207,6.45508 -2.14224,-2.14223 -8.31965,-5.58345 -13.72657,-7.64844 -5.40691,-2.0649 -11.96313,-5.53207 -14.56835,-7.70507 l -4.46485,-3.72461 c 0.21884,-0.10016 0.49492,-0.18241 0.85352,-0.24024 l 4.86914,-0.0586 c 1.0769,-0.0113 2.17437,-0.20032 3.30664,-0.56641 2.29081,-0.61145 4.39653,-1.86911 6.89453,-4.06445 1.2875,-1.05018 2.64224,-2.28678 4.07812,-3.72266 z m -458.41601,0.25586 c 0.9388,0.003 1.88148,0.45379 3.11523,1.45703 l 2.09766,3.44921 c 4.26149,7.00744 6.80713,8.91147 14.66602,10.37305 0.91593,0.2812 1.8227,0.43344 2.73632,0.48242 l 4.50391,0.73243 c 0.19238,0.30085 0.14908,0.68237 -0.12305,1.13867 l -1.68164,1.38086 -3.50976,2.04687 c -4.00324,2.33515 -10.57029,5.53075 -14.59375,7.10156 -4.0235,1.57078 -9.25763,4.58417 -11.63086,6.69727 -8.87561,7.90277 -7.88246,1.9893 1.89453,-11.28516 2.31795,-3.14717 3.44765,-6.44012 2.50976,-7.3164 -0.93789,-0.87632 -2.14662,-0.35415 -2.68554,1.16015 -0.36473,1.02494 -1.67671,3.05668 -3.26563,5.18164 -0.14778,0.15912 -0.27775,0.29027 -0.43164,0.45899 -3.76622,4.13605 -5.64599,6.06586 -6.39648,6.16015 l 1.19531,-9.32617 c 1.09837,-8.56176 2.77839,-12.30545 7.24609,-16.14843 z m -15.38867,11.55468 c 2.01106,-0.034 -0.38281,14.24701 -3.80274,22.68946 -2.41615,5.96454 -3.56739,6.80406 -7.55664,5.50976 -2.51892,-0.81725 -5.14412,-1.44261 -7.75586,-1.88281 -1.33965,-0.36397 -2.75267,-0.61545 -4.21484,-0.75586 0.17265,-0.38457 -0.89232,-0.44605 -2.94531,-0.14063 -0.91077,0.008 -1.83303,0.0683 -2.75977,0.16016 -3.54622,0.10016 -6.71985,0.63085 -9.11523,1.62305 -3.45092,1.42941 -8.05078,4.85663 -10.22071,7.61523 -0.93468,1.18825 -1.64949,2.08132 -2.21875,2.69727 -0.85759,0.42115 -1.58465,0.5979 -2.1582,0.48633 -0.27538,-0.46598 -0.53649,-1.21948 -0.86914,-2.26758 -2.68424,-8.4573 8.15411,-23.55081 18.48633,-28.14649 0.83001,-0.32126 1.69212,-0.62505 2.57422,-0.91797 1.05694,-0.28308 2.09692,-0.44426 3.10156,-0.44921 2.76541,-0.0151 10.20082,-1.41429 16.52344,-3.11133 6.32262,-1.69705 12.14173,-3.09426 12.93164,-3.10938 z m 470.94531,23.97656 c 1.22109,0.0227 3.16056,1.11958 4.94922,2.90821 2.38481,2.3848 6.64291,4.91533 9.46289,5.62305 2.07772,0.52145 4.12008,1.62278 5.2793,2.75195 v 0.002 c 0.36245,0.42248 0.66373,0.89457 0.92773,1.42578 0.57404,2.35189 1.59036,18.44994 2.30469,36.67774 2.70391,68.99833 8.54488,133.05438 19.12695,209.75195 l 4.74219,34.35937 c 0.051,3.45714 -0.59891,5.59168 -2.20899,7.73633 l -4.07421,3.40039 c -7.61137,6.35426 -17.8408,9.93032 -28.45704,9.94922 -7.87184,0.0151 -11.87137,5.03448 -14.10156,17.70508 -2.42245,13.76255 -9.55305,23.54188 -21.41797,29.43359 -2.41073,1.10831 -4.74354,2.05953 -7.00586,2.85743 -9.86929,3.1756 -24.83448,2.7365 -32.39062,-0.99219 -3.52872,-1.74134 -14.04322,-9.47892 -23.36524,-17.19531 -21.58741,-17.86931 -36.69708,-26.99098 -49.75195,-30.03516 l -10.3418,-2.41211 12.48047,-12.44336 c 5.62999,-4.90821 11.44041,-11.07533 17.34766,-18.35156 29.97778,-35.23022 57.15449,-88.24671 81.75781,-159.50781 12.59728,-36.48673 25.78655,-83.728 29.55274,-105.84375 1.46823,-8.62175 3.37468,-16.47597 4.23437,-17.45313 0.21506,-0.24416 0.54216,-0.35555 0.94922,-0.34766 z m 11.50586,102.9004 c -0.19843,-0.0472 -0.3904,0.30048 -0.57227,0.98242 -0.43785,-0.18369 -0.65485,1.37127 -0.64453,4.50586 -0.54092,5.75123 -0.89648,15.90441 -0.89648,30.17968 0,75.79401 -11.24581,155.02376 -26.18945,184.51368 -2.87796,5.67964 -4.22738,10.32812 -2.99805,10.32812 1.45871,0 4.03647,-4.04038 6.93945,-10.19726 0.70647,-1.43978 1.41473,-3.01604 2.12305,-4.73047 0.0522,-0.12284 0.10409,-0.24398 0.15625,-0.36719 3.75341,-8.87203 7.70759,-20.33437 10.35742,-30.85352 10.25862,-40.72437 16.93137,-116.15634 14.36719,-162.4082 -0.81498,-14.70093 -1.7889,-21.75058 -2.64258,-21.95312 z m -617.898438,141.10546 0.101562,0.0762 8.636716,7.21875 c 8.20411,6.8578 8.79685,8.0941 9.78516,20.40625 4.04999,50.45442 67.12903,87.69687 146.67383,88.47265 6.42947,0.12095 13.00334,-0.0639 19.75781,-0.54687 15.15039,-0.94269 30.13335,-2.94301 39.97656,-5.39649 25.89506,-6.45449 48.60732,-5.02805 76.65235,4.81641 26.74767,9.38893 46.97616,12.60903 80.10742,12.75003 27.41318,0.1167 40.73866,-1.8766 46.79883,-9.25003 1.61397,-1.36951 2.49023,-2.89418 2.9375,-5.43164 0.95111,-2.83646 1.41868,-6.17593 1.55664,-10.11133 1.27396,-36.35297 37.92667,-36.0165 80.53711,0.74023 31.07799,26.80857 40.14555,29.02817 74.06836,18.13477 3.3346,-1.0705 4.69811,-0.034 6.60742,5.0254 1.01711,2.6947 1.41723,4.7254 1.21484,6.0683 -0.6449,1.0031 -1.92948,1.7509 -3.91797,2.3301 -3.55128,0.5925 -9.68903,1.2325 -16.26367,1.6426 -20.58395,1.2843 -45.28794,-3.1646 -63.22656,-11.3848 -16.59239,-7.60322 -27.09418,-7.27438 -46.70899,1.461 -8.62178,3.8397 -20.84925,8.282 -27.17187,9.8711 -7.14372,1.7956 -26.92409,3.1648 -52.25195,3.6191 -5.47677,0.097 -10.2363,0.181 -14.61133,0.2441 -0.56372,0.011 -1.25004,0.018 -1.79883,0.022 -3.64108,0.049 -6.87213,0.075 -9.89258,0.086 -0.59826,0 -1.24043,0.013 -1.81836,0.017 -21.70235,0.015 -29.20412,-1.2237 -54.0039,-5.8046 l -24.64844,-4.5528 -38.05664,4 c -44.02643,4.6261 -101.80305,5.0796 -130.02149,1.0156 -42.76153,-6.1584 -77.01148,-22.25523 -105.728512,-49.69135 -18.586016,-17.75717 -38.417577,-45.31156 -39.103516,-52.93359 0.364951,-0.59028 0.951745,-1.29472 1.732422,-2.07617 4.194455,-0.93275 22.402098,-16.70906 27.175781,-23.67579 z m -26.246094,55.94922 7.470703,10.17969 c 25.633017,34.91917 68.434669,62.15522 112.634769,71.67192 11.71807,2.523 31.30518,4.2536 52.94336,5.0957 0.31219,0.015 0.63017,0.026 0.94336,0.037 0.87239,0.034 1.72898,0.072 2.60742,0.1015 1.27306,0.049 2.54235,0.1002 3.83008,0.1387 7.61193,0.2502 15.37486,0.3601 23.20703,0.3008 20.81563,-0.015 41.14688,-0.853 56.32422,-2.6367 35.37621,-4.156 51.34108,-4.1481 67.50586,0.023 3.51684,0.9081 9.89638,1.7081 17.88085,2.3867 1.52395,0.1403 3.10984,0.2729 4.82813,0.3887 0.4662,0.034 0.93147,0.066 1.40625,0.1 0.31294,0.038 0.66901,0.087 0.9668,0.1211 4.34626,0.5004 11.38409,0.8106 19.74414,0.9746 30.00627,1.1907 65.57071,1.088 79.90234,-0.9765 4.69886,-0.6769 9.64169,-1.7414 14.68555,-3.1133 0.0472,-0.011 0.0934,-0.027 0.14062,-0.039 0.80413,-0.2082 1.60091,-0.4359 2.39453,-0.666 1.12797,-0.3288 2.26168,-0.6846 3.39649,-1.0449 5.19016,-1.6479 10.43357,-3.5989 15.59765,-5.8516 22.48793,-9.8098 31.65187,-10.3301 49.5,-2.8184 17.48761,7.3605 41.32967,11.6721 60.77149,10.9922 15.26808,-0.5339 16.55709,-0.2302 21.94726,5.1758 1.61243,1.6171 2.68869,2.8058 3.36719,3.7656 0.002,0 0.008,0.016 0.008,0.016 0.31975,0.5463 0.54639,0.9864 0.75782,1.4062 0.29215,1.0503 -0.26757,1.7572 -1.54297,2.5781 -12.05991,7.763 -37.58944,8.0982 -65.84375,0.8633 -11.49302,-2.9429 -28.89079,-5.8599 -38.66211,-6.4824 -1.13042,-0.072 -2.08249,-0.1151 -3.10156,-0.1699 -0.65798,-0.3103 -1.66607,-0.3625 -2.67188,-0.1406 -11.40983,-0.4588 -16.4595,0.6183 -31.84765,5.5761 -10.92091,3.5185 -26.91143,7.4894 -35.53321,8.8242 -22.74879,3.5226 -86.99918,1.1977 -116.00195,-4.1972 -24.61994,-4.5796 -22.58321,-4.6555 -79.42383,2.959 -13.98792,1.8738 -29.24177,2.8081 -45.03906,2.8828 -4.7139,-0.055 -9.72771,-0.1427 -15.57422,-0.2969 -5.37298,-0.141 -10.64893,-0.3617 -15.8457,-0.6426 -34.03992,-2.1691 -68.46859,-7.9892 -96.73243,-16.9004 -24.71419,-7.7921 -46.05009,-19.6015 -62.541011,-34.48044 -1.627102,-1.51624 -3.25084,-3.07663 -4.873047,-4.69336 -1.306999,-1.30269 -2.603064,-2.64391 -3.884766,-4 -1.541695,-1.68718 -3.033048,-3.40389 -4.458984,-5.1543 -8.901154,-10.92714 -17.598242,-25.38728 -17.498047,-29.09375 0.02457,-0.90796 3.705884,-4.23828 8.179687,-7.40234 z M 609.65035,1035.6115 v 0 c 3.16509,0.095 20.98881,3.8613 28.56445,5.9238 1.87499,0.6683 2.97492,1.2662 3.50586,1.8945 -0.22677,0.7299 -0.89898,1.8494 -1.85547,3.002 -1.45406,1.752 -3.70381,3.1612 -5,3.1309 -3.03216,-0.072 -26.69789,-12.8783 -25.67968,-13.8965 0.0453,-0.045 0.20485,-0.063 0.46484,-0.057 z m -371.65234,12.0723 c 8.6468,0.1058 10.84548,0.6509 7.83789,1.9434 -5.86024,2.5181 -19.85742,2.5181 -19.85742,0 0,-1.1681 5.30289,-2.0254 12.01953,-1.9434 z"
     transform="scale(0.26458333)"
     id="path5198" />
  <text
     id="text821"
     y="57.852509"
     x="2.0780668"
     style="font-style:normal;font-weight:normal;font-size:10.58333302px;line-height:1.25;font-family:sans-serif;letter-spacing:0px;word-spacing:0px;fill:none;fill-opacity:1;stroke:#000000;stroke-width:2.64583325;stroke-miterlimit:4;stroke-dasharray:none;stroke-opacity:1"
     xml:space="preserve"><tspan
       style="font-style:normal;font-variant:normal;font-weight:normal;font-stretch:normal;font-size:77.6111145px;font-family:'Berlin Sans FB Demi';-inkscape-font-specification:'Berlin Sans FB Demi';fill:none;stroke:#000000;stroke-width:2.64583325;stroke-miterlimit:4;stroke-dasharray:none;stroke-opacity:1"
       y="57.852509"
       x="2.0780668"
       id="tspan819">Pp</tspan></text>
  <text
     id="text825"
     y="19.170935"
     x="136.33026"
     style="font-style:normal;font-weight:normal;font-size:10.58333302px;line-height:1.25;font-family:sans-serif;text-align:center;letter-spacing:0px;word-spacing:0px;text-anchor:middle;fill:#000000;fill-opacity:1;stroke:none;stroke-width:0.26458332"
     xml:space="preserve"><tspan
       style="font-style:normal;font-variant:normal;font-weight:normal;font-stretch:normal;font-size:19.7555542px;font-family:Forte;-inkscape-font-specification:Forte;text-align:center;text-anchor:middle;stroke-width:0.26458332"
       y="19.170935"
       x="136.33026"
       id="tspan823">is for</tspan><tspan
       id="tspan827"
       style="font-style:normal;font-variant:normal;font-weight:normal;font-stretch:normal;font-size:19.7555542px;font-family:'Nirmala UI';-inkscape-font-specification:'Nirmala UI';text-align:center;text-anchor:middle;stroke-width:0.26458332"
       y="44.200115"
       x="136.33026">Princess</tspan></text>
</svg>
