<?xml version="1.0" encoding="UTF-8" standalone="no"?>
<svg
   xmlns:dc="http://purl.org/dc/elements/1.1/"
   xmlns:cc="http://creativecommons.org/ns#"
   xmlns:rdf="http://www.w3.org/1999/02/22-rdf-syntax-ns#"
   xmlns:svg="http://www.w3.org/2000/svg"
   xmlns="http://www.w3.org/2000/svg"
   xmlns:sodipodi="http://sodipodi.sourceforge.net/DTD/sodipodi-0.dtd"
   xmlns:inkscape="http://www.inkscape.org/namespaces/inkscape"
   id="svg833"
   version="1.1"
   viewBox="0 0 210 297"
   height="297mm"
   width="210mm"
   sodipodi:docname="pumpkin.svg"
   inkscape:version="0.92.4 (5da689c313, 2019-01-14)">
  <sodipodi:namedview
     pagecolor="#ffffff"
     bordercolor="#666666"
     borderopacity="1"
     objecttolerance="10"
     gridtolerance="10"
     guidetolerance="10"
     inkscape:pageopacity="0"
     inkscape:pageshadow="2"
     inkscape:window-width="1029"
     inkscape:window-height="520"
     id="namedview8"
     showgrid="false"
     inkscape:zoom="0.2102413"
     inkscape:cx="396.85039"
     inkscape:cy="561.25984"
     inkscape:window-x="0"
     inkscape:window-y="0"
     inkscape:window-maximized="0"
     inkscape:current-layer="svg833" />
  <title
     id="title1424">pumpkin</title>
  <defs
     id="defs827" />
  <metadata
     id="metadata830">
    <rdf:RDF>
      <cc:Work
         rdf:about="">
        <dc:format>image/svg+xml</dc:format>
        <dc:type
           rdf:resource="http://purl.org/dc/dcmitype/StillImage" />
        <dc:title>pumpkin</dc:title>
        <dc:source>http://www.supercoloring.com/coloring-pages/pumpkin-with-leaves</dc:source>
        <dc:creator>
          <cc:Agent>
            <dc:title>Artsashina</dc:title>
          </cc:Agent>
        </dc:creator>
        <dc:date>2020-04-05</dc:date>
        <dc:subject>
          <rdf:Bag>
            <rdf:li>csk</rdf:li>
            <rdf:li>acb</rdf:li>
            <rdf:li>vegetables</rdf:li>
            <rdf:li>pumpkin</rdf:li>
          </rdf:Bag>
        </dc:subject>
      </cc:Work>
    </rdf:RDF>
  </metadata>
  <g
     id="layer1">
    <path
       id="path1406"
       d="m 101.22096,113.84938 c -0.0215,0 -0.0368,0.0677 -0.0476,0.1726 -0.10189,0.38065 -0.1023,1.37537 0.0171,2.5461 0.3795,3.72287 -0.36063,6.23602 -2.412773,8.19019 -1.776621,1.69178 -4.009344,2.70762 -13.226068,6.01979 -10.046811,3.61047 -13.12333,6.01913 -13.08292,10.24279 0.01513,1.58124 0.361907,2.83552 1.196308,4.32842 1.369883,2.45095 1.364408,2.42775 0.544671,2.42775 -1.456029,0 -7.599315,2.25381 -9.869683,3.62097 l -2.453079,1.47691 -0.1788,-4.1801 c -0.215191,-5.02372 -1.654215,-8.72716 -4.32997,-11.14454 -1.875126,-1.69407 -3.623268,-1.93046 -7.745262,-1.04645 -2.054984,0.44072 -2.374275,0.38488 -4.949571,-0.86971 -1.223499,-0.59605 -2.239393,-0.98013 -3.114021,-1.16582 -0.04972,-0.0116 -0.09912,-0.022 -0.147278,-0.0305 -1.239086,-0.23515 -2.187323,-0.0531 -3.023071,0.53227 -0.539387,0.3778 -0.842605,0.85388 -0.903303,1.51928 -0.04002,0.14967 -0.06305,0.30729 -0.06305,0.47439 0,0.0841 0.0463,0.25101 0.11317,0.45475 0.202129,1.16005 0.885169,2.7621 2.095479,5.06636 2.570753,4.89436 2.46711,5.0511 -2.213816,3.36259 -4.44641,-1.6039 -6.520627,-1.50495 -8.642885,0.41237 l -1.02681,0.9276 -0.415479,0.31729 c -0.277057,0.10319 -0.581089,0.1669 -0.937927,0.19534 l -3.517615,-0.4439 c -4.565433,-0.57664 -5.553245,-0.35484 -5.795511,1.36994 -0.01642,0.0734 -0.02305,0.14813 -0.02015,0.22634 -0.05176,1.31179 1.448369,2.82777 4.525822,4.56458 0.631089,0.35616 1.203808,0.72438 1.627291,1.0356 0.349767,0.2846 0.583421,0.51415 0.623218,0.63355 0.02308,0.0692 0.03297,0.13669 0.03256,0.20206 -0.05658,0.16348 -0.222138,0.34487 -0.485242,0.61236 -1.059598,0.5618 -3.800453,0.82045 -9.495027,0.99064 -0.429333,0.0128 -0.760288,0.0256 -1.149801,0.0382 -1.8476,0.0241 -3.3414269,0.0852 -4.4932658,0.20825 -2.9769239,0.23161 -3.6211675,0.64542 -4.4188516,1.73116 -0.8426997,1.14702 0.069845,3.5581 1.9750732,6.16035 0.6624618,0.9655 1.468579,1.91528 2.4386108,2.86546 1.4064919,1.44525 3.0343514,2.82906 4.7557824,3.96668 1.282759,0.84772 2.73718,1.70812 4.18114,2.49442 0.801245,0.45513 1.565815,0.85096 2.317688,1.19631 1.687712,0.82641 3.220555,1.47362 4.244185,1.74925 0.952129,0.25638 4.417674,0.64112 7.701339,0.85473 3.821184,0.24858 6.196161,0.59294 6.665225,0.96635 0.0108,0.009 0.0205,0.0183 0.03101,0.0274 0.0531,0.0456 0.10187,0.0933 0.146246,0.14314 0.01217,0.0135 0.02511,0.0263 0.03669,0.0403 0.01495,0.0183 0.02849,0.0373 0.04237,0.0563 0.01934,0.0264 0.03787,0.0542 0.0553,0.0832 0.0087,0.0143 0.01815,0.0281 0.02635,0.0429 0.05694,0.10522 0.102518,0.22812 0.136424,0.38343 0.04454,0.20403 0.06739,0.47147 0.07183,0.81184 -0.0021,0.41852 -0.03828,0.93763 -0.111104,1.62833 -0.194874,1.84818 -0.340781,3.27351 -0.441317,4.40334 -0.03352,0.2343 -0.06482,0.4651 -0.08837,0.68007 l -0.05478,-0.28112 -0.05013,1.41386 c -0.0046,0.12891 5.29e-4,0.25625 0.0098,0.38293 0.0021,0.0631 0.007,0.12202 0.01188,0.18035 -0.0058,0.21839 2.49e-4,0.40712 0.01447,0.57877 0.02881,0.97738 0.223139,1.2916 0.586526,1.59319 2.77549,2.30345 10.786776,-1.71543 15.578894,-7.81503 0.328634,-0.41829 0.686342,-0.83524 1.045414,-1.23042 0.908632,-0.87096 1.701501,-1.58762 2.28565,-2.06809 1.20781,-0.62458 1.308891,-0.59044 3.255098,1.09399 0.896096,0.77557 1.764971,1.29588 2.57607,1.5627 0.08837,0.0302 0.176083,0.0567 0.262517,0.0796 0.02373,0.006 0.0472,0.0118 0.07079,0.0176 0.07787,0.0189 0.155183,0.0351 0.23151,0.0481 1.03491,0.19216 1.954009,-0.0642 2.679425,-0.78962 0.639831,-0.63982 2.202564,-4.12344 2.577621,-5.60844 0.349782,-0.67187 0.739748,-1.31157 1.176671,-1.93735 0.434872,-0.50338 0.944163,-1.07246 1.52342,-1.6831 2.707971,-2.8547 3.915982,-4.76603 4.206463,-6.94945 0.230616,-1.04351 0.20961,-2.03624 -0.06201,-2.99206 -0.177792,-1.35134 -0.552066,-1.88073 -2.055688,-3.30265 -0.269206,-0.27458 -0.559615,-0.54736 -0.876432,-0.81855 -0.05594,-0.0479 -0.114366,-0.0938 -0.171051,-0.14108 -2.622507,-2.27545 -5.396521,-3.61775 -8.226372,-3.97391 l -2.17506,-0.27337 3.47989,-0.95602 c 2.995967,-0.82305 8.490326,-1.9059 11.010183,-2.20865 0.715909,-1.7e-4 1.367867,0.0526 1.975588,0.15865 0.868794,0.2989 2.163919,0.83979 3.459737,1.46089 1.959543,0.9392 5.244544,2.2137 7.299814,2.83239 l 2.088245,0.6289 c 0.86029,0.34234 1.441254,0.61965 1.527038,0.74776 l -0.871781,1.80919 c -0.595339,1.23495 -1.174607,3.61222 -1.44539,5.93142 -0.214275,1.83524 -0.508413,3.24268 -0.877467,4.22713 -0.430313,0.93213 -0.942633,1.52058 -1.482595,1.62058 -0.106971,0.0198 -0.194495,0.0286 -0.272852,0.0315 -0.277968,-0.10349 -0.323887,-0.4585 -0.172601,-1.21492 0.06251,-0.31252 0.06884,-0.64803 0.03101,-0.98702 -0.01572,-0.34822 -0.09324,-0.67444 -0.231511,-0.99115 -0.380865,-1.07036 -1.134223,-1.96575 -1.889291,-1.98282 -1.338202,-0.0302 -2.146403,3.05974 -1.242301,4.74906 0.380648,0.71126 0.148056,0.8034 -2.504755,0.99322 -3.699094,0.26466 -5.685374,1.243 -6.03064,2.96933 -0.07124,0.35622 -0.187661,0.64828 -0.331763,0.86661 -0.118962,0.14347 -0.257337,0.26817 -0.409276,0.36949 -0.07227,0.0302 -0.146167,0.0515 -0.223243,0.0517 -1.217011,0.003 -3.367378,1.58275 -4.376994,3.21634 -0.1866,0.30193 -0.336116,0.57398 -0.455787,0.81752 -0.295156,0.5157 -0.438626,0.97545 -0.333314,1.29139 0.0383,0.11492 0.162634,0.0744 0.333314,-0.0739 0.03628,-0.0233 0.07753,-0.0572 0.118856,-0.0909 0.07103,-0.0441 0.143338,-0.11099 0.212908,-0.19792 0.210947,-0.21989 0.463391,-0.53918 0.75189,-0.97513 0.721889,-1.09085 1.581296,-1.94134 2.469618,-2.47685 0.0853,-0.0514 0.171098,-0.0986 0.256831,-0.14418 0.02312,-0.0123 0.04615,-0.0248 0.06925,-0.0367 0.08965,-0.0459 0.17939,-0.0894 0.269235,-0.12867 0.382005,-0.16709 0.764834,-0.27155 1.139981,-0.31213 0.355005,0.0537 0.800986,0.21746 1.236617,0.44545 0.03493,0.25424 0.636046,0.80786 1.372526,1.25574 1.561098,0.94936 2.970361,0.56315 2.970361,-0.8139 0,-1.02824 -0.727969,-1.60061 -2.524392,-1.9849 -0.794602,-0.16997 -1.363443,-0.53251 -1.272791,-0.81132 0.03254,-0.10008 0.08707,-0.19372 0.15296,-0.28422 0.07565,-0.0925 0.165706,-0.186 0.274921,-0.28008 0.866301,-0.6719 2.962161,-1.02647 6.652824,-1.14877 2.61979,-0.0868 5.178348,-0.38203 5.68544,-0.65578 1.36915,-0.7391 2.345553,-3.18039 2.991549,-7.47964 0.400981,-2.66864 0.68784,-3.98944 1.204579,-4.91753 7.94e-4,-0.001 0.0016,-0.003 0.0026,-0.004 0.292309,-0.47835 0.638336,-0.89394 1.043863,-1.26349 0.0037,-0.003 0.0071,-0.007 0.01085,-0.0103 0.06358,-0.0575 0.120597,-0.10348 0.1788,-0.15142 0.368694,-0.28838 0.759161,-0.39044 1.903759,-0.23151 0.308036,0.069 0.661355,0.15717 1.111044,0.27751 1.306215,0.34956 5.618135,1.32083 9.581835,2.15852 9.85694,2.08316 14.81457,3.81362 17.37931,6.52673 0.41802,0.46412 0.80211,0.97988 1.13998,1.52187 0.4223,0.72581 0.73978,1.51693 0.97927,2.39366 0.24672,0.90323 0.40662,1.56487 0.47129,2.02985 l 0.002,0.25476 c -0.005,0.18868 -0.016,0.35295 -0.0357,0.48008 -0.17097,0.28664 -0.67227,0.0401 -1.58853,-0.58602 -3.88486,-2.65457 -12.29839,-3.87346 -19.80809,-2.8701 -5.26982,0.70411 -11.761338,2.40229 -14.880741,3.89278 -1.435394,0.68585 -3.916886,1.8438 -5.514393,2.57349 -4.826746,2.20471 -8.924038,5.37488 -12.167216,9.31364 -0.03803,0.0457 -0.0754,0.092 -0.11317,0.13798 -0.141023,0.17312 -0.281374,0.34691 -0.419098,0.52296 -0.151548,0.19231 -0.300225,0.38705 -0.447516,0.58291 -0.04578,0.0612 -0.09206,0.12192 -0.137462,0.18345 -0.659045,0.88937 -1.275641,1.81357 -1.846397,2.77245 -0.0054,0.009 -0.01111,0.0178 -0.01654,0.0269 -0.103425,0.17413 -0.203382,0.35077 -0.303858,0.5271 -2.579235,4.48938 -4.255796,9.67509 -4.891174,15.37322 -1.396326,12.52234 2.902301,24.64917 11.882479,33.5225 8.966023,8.85935 22.926456,15.10037 40.724646,18.20561 2.03348,0.35477 4.00655,0.76413 4.38474,0.9095 0.3782,0.14537 1.94422,0.40715 3.47989,0.58188 2.69642,0.30682 6.84471,-0.0165 8.30286,-0.61702 1.07602,-0.12296 2.59379,-0.23059 4.24211,-0.29869 0.22822,0.008 0.45802,0.0168 0.6904,0.0289 4.50167,0.23547 9.13806,-0.32667 13.78262,-1.66915 0.68114,-0.17772 1.34849,-0.37167 2.0035,-0.57981 2.12276,-0.55375 4.65595,-0.9538 7.26312,-1.13636 6.67162,-0.46717 9.97887,-1.43501 16.74627,-4.90203 3.00056,-1.53722 5.66308,-3.0417 8.0393,-4.55786 0.6454,-0.39456 1.24372,-0.77115 1.74718,-1.10743 0.29292,-0.19565 0.66032,-0.47147 1.05937,-0.78393 7.83655,-5.60879 12.02728,-11.62816 14.67714,-20.26439 0.84958,-2.76893 1.09018,-4.03211 1.15806,-7.54373 0.17715,-2.1649 0.17134,-4.34353 -0.0129,-6.51433 -0.14668,-4.65608 -0.75517,-6.93422 -2.81533,-12.284 -3.52834,-9.1623 -12.14523,-18.42772 -21.46019,-23.07508 -10.15461,-5.06626 -20.50228,-5.46587 -36.35488,-1.40353 -1.04035,0.2666 -1.22837,0.0712 -2.56987,-2.67684 -2.11056,-4.32344 -6.6468,-8.68115 -11.38122,-10.93318 -3.39455,-1.6147 -9.16709,-3.28036 -15.46469,-4.46227 l -2.3182,-0.43511 c -0.0832,-0.0511 -0.15357,-0.10433 -0.20412,-0.1602 -0.005,-0.0377 -0.008,-0.0789 -0.007,-0.12454 0.01,-0.0601 0.0229,-0.12771 0.0398,-0.20102 l 0.59221,-1.16375 c 0.44157,-0.86797 1.24209,-3.04629 1.77922,-4.84053 l 0.97668,-3.26234 0.59583,1.70016 c 0.7121,2.03205 1.99465,3.78981 3.47111,4.93665 0.2437,0.21858 0.48034,0.40449 0.70177,0.5395 0.70504,0.42986 1.36159,0.69103 2.03915,0.78238 0.28593,0.0558 0.57131,0.0865 0.85317,0.0868 1.74908,0.002 5.72709,-2.16074 7.03627,-3.82509 0.52368,-0.66576 0.76237,-1.31813 0.72812,-2.32699 0.0248,-0.45936 -0.0398,-0.93588 -0.18139,-1.42989 -0.0923,-0.49701 -0.21178,-1.04466 -0.37568,-1.69602 -0.031,-0.12334 -0.0542,-0.23736 -0.0698,-0.34675 -0.003,-0.0233 -0.006,-0.0465 -0.009,-0.0692 -0.0908,-0.83549 0.38793,-1.41158 2.56418,-3.49902 0.3582,-0.34356 0.71946,-0.71538 1.07022,-1.09347 0.44529,-0.44731 0.83429,-0.89178 1.17357,-1.34514 0.63287,-0.77617 1.13249,-1.48465 1.34669,-1.94303 0.70667,-1.51229 0.73313,-1.9551 0.23978,-4.01164 l -0.46354,-1.9327 c 0.0516,-0.2449 0.14193,-0.50211 0.26975,-0.76998 l 1.43196,-1.55339 c 0.001,-0.001 0.002,-0.002 0.003,-0.004 l 0.0377,-0.0408 c 0.48443,-0.52555 0.85863,-1.00231 1.13481,-1.44539 0.39076,-0.58557 0.64441,-1.09769 0.64441,-1.36425 0,-0.023 -0.002,-0.0454 -0.003,-0.0682 1.8e-4,-0.003 0.003,-0.008 0.003,-0.0108 0,-0.005 -0.004,-0.0143 -0.005,-0.0202 -0.014,-0.2987 -0.0886,-0.58348 -0.22118,-0.85007 -0.19643,-0.49054 -0.6012,-0.95058 -1.21956,-1.41025 -1.03751,-0.77126 -1.88115,-0.91882 -5.43688,-0.95292 -2.97395,-0.0285 -4.75707,-0.26808 -6.07612,-0.81597 -0.96217,-0.39963 -1.50157,-0.58866 -2.5032,-0.56689 -0.12777,-0.0503 -0.30706,-0.06 -0.4899,-0.0259 -0.46865,-0.0193 -0.93138,0.065 -1.54977,0.231 -0.70573,0.0991 -1.5357,0.22749 -2.61896,0.40049 -0.98613,0.15749 -1.48686,0.12533 -2.19108,-0.34571 -0.2806,-0.2157 -0.59981,-0.48296 -1.00666,-0.8351 -1.13252,-0.98018 -1.90168,-1.49763 -2.59726,-1.60455 -1.4768,-0.35714 -2.67909,0.578 -3.82095,2.85719 -0.565,1.12776 -1.27564,3.12684 -1.57923,4.44262 -0.49795,2.15803 -0.82107,3.15207 -1.3777,3.59152 -0.26093,0.11568 -0.60406,0.22728 -0.9865,0.31574 -0.0902,0.005 -0.18482,0.008 -0.28474,0.008 -1.72323,0 -3.86482,1.13271 -3.92792,2.0774 -0.10599,1.587 0.17598,2.49675 1.61127,5.20226 0.81608,1.53828 1.48363,3.17972 1.48363,3.64784 0,1.15022 1.43403,3.8856 2.5802,4.92218 0.62976,0.56955 1.76887,0.90402 3.51297,1.03043 7.9e-4,6e-5 0.002,-7e-5 0.003,0 1.08644,0.1796 2.11476,0.27033 2.55282,0.18448 l 0.031,0.002 -1.38958,1.93477 c -1.55065,2.15924 -4.41614,4.93349 -5.71387,5.62653 -0.27249,0.0696 -0.56335,0.10548 -0.88366,0.11369 -0.85714,-0.13594 -2.83214,-0.55078 -4.93665,-1.04439 -13.996584,-3.28282 -21.407428,-6.90095 -21.5098,-10.50168 -0.03603,-1.26716 0.422473,-2.39391 1.641244,-3.60908 0.03108,-0.0306 0.0632,-0.0613 0.09508,-0.092 0.154532,-0.14993 0.318381,-0.30101 0.496609,-0.45423 1.664674,-1.43109 4.38449,-3.02376 8.563819,-5.1263 3.322392,-1.67144 6.985884,-3.73831 8.141105,-4.59301 2.317723,-1.71478 3.743683,-4.25768 3.766183,-6.71535 0.0156,-1.70305 -1.69268,-6.95978 -2.26188,-6.95978 -0.009,0 -0.0171,0.006 -0.0253,0.0104 -0.0123,-0.006 -0.0236,-0.0104 -0.0341,-0.0104 z m 13.93041,4.01112 h 5.3e-4 c 0.043,-0.001 0.0854,-2.6e-4 0.12764,0.002 0.1865,0.0218 0.37745,0.0669 0.5731,0.1416 0.001,5.2e-4 0.003,0.001 0.004,0.002 0.012,0.005 0.0236,0.01 0.0357,0.0155 0.40797,0.19367 0.86603,0.5744 1.51722,1.21026 0.4108,0.40114 0.79141,0.71727 1.17409,0.96118 0.35012,0.29869 0.67005,0.45992 1.16272,0.50436 0.98911,0.238 2.1655,0.0837 3.96048,-0.39636 0.3652,-0.0977 0.67643,-0.16615 0.97462,-0.21187 0.50471,-0.0597 1.08951,-0.0415 1.72599,0.0527 0.59253,0.11708 1.31192,0.32827 2.32079,0.65267 2.50033,0.80401 3.65462,0.94793 5.82393,0.72657 0.29651,-0.0303 0.56444,-0.0526 0.81804,-0.0698 0.87948,0.011 1.58131,0.0349 2.11873,0.0858 0.44276,0.0946 0.84788,0.2481 1.28985,0.46922 2.1127,1.05705 2.12089,1.99142 0.0372,4.25194 -0.60397,0.65524 -1.03086,1.18429 -1.30999,1.69137 -0.27632,0.4473 -0.39803,0.83422 -0.39895,1.28881 -0.0567,0.67945 0.0864,1.4579 0.38758,2.54248 0.29927,1.07755 0.25479,1.98181 -0.308,3.04116 -0.0109,0.0199 -0.0212,0.0394 -0.0326,0.0594 -0.0442,0.0809 -0.0949,0.16409 -0.14521,0.24701 -0.0561,0.091 -0.1134,0.18244 -0.17622,0.27595 -0.0268,0.0401 -0.055,0.0803 -0.0832,0.12093 -0.0712,0.10259 -0.14745,0.20754 -0.22686,0.31367 -0.0538,0.0713 -0.10782,0.14275 -0.16588,0.21601 -0.0386,0.0493 -0.0796,0.10022 -0.11989,0.15038 -0.62002,0.75929 -1.45909,1.62479 -2.56418,2.67684 -1.40453,1.33713 -2.15377,2.05501 -2.46238,2.82825 -0.0125,0.0257 -0.0252,0.0517 -0.0362,0.077 l -0.006,0.006 0.006,-0.005 c -0.10442,0.24225 -0.13968,0.4691 -0.13229,0.72088 -0.0306,0.69185 0.17743,1.5791 0.51677,2.93833 0.0442,0.23231 0.10583,0.54843 0.13797,0.71933 0.12758,1.46321 -0.95431,2.76773 -3.47111,4.21112 -0.75017,0.43022 -1.63884,0.81131 -2.39623,1.05058 -0.50859,0.15023 -0.96714,0.24443 -1.29346,0.25734 -0.60414,-0.006 -1.2478,-0.22719 -1.88671,-0.6103 -1.1916,-0.74778 -2.37937,-2.09093 -3.26853,-3.55275 -0.0169,-0.0279 -0.0324,-0.0563 -0.0491,-0.0842 -0.60401,-1.07548 -1.05135,-2.25763 -1.23817,-3.42615 -0.0603,-0.37709 -0.10022,-0.677 -0.11627,-0.92707 0.0425,-0.41634 0.14304,-0.77651 0.29507,-1.06454 l 5.3e-4,-5.3e-4 c 0.12269,-0.11564 0.28618,-0.21888 0.49712,-0.33176 0.84068,-0.44992 1.14172,-0.35156 2.33216,0.75964 2.01383,1.87978 3.8652,3.05904 5.30872,3.38223 1.09753,0.2457 1.03226,0.15789 -0.46147,-0.62012 -0.95693,-0.49841 -2.6209,-1.70325 -3.69745,-2.67736 l -1.44487,-1.30741 c -0.0844,-0.17144 -0.0914,-0.29758 -0.0227,-0.39842 l 0.1018,-0.0129 2.127,0.18656 c 1.4952,0.1312 2.7187,0.15963 2.7187,0.0636 0,-0.49874 -4.39014,-1.04453 -5.60327,-0.6966 -1.4759,0.42328 -1.61788,0.19507 -0.88315,-1.41748 0.17981,-0.39464 0.34729,-0.64107 0.6599,-0.79686 0.004,-0.002 0.007,-0.004 0.0109,-0.006 0.11037,-0.0492 0.23812,-0.0906 0.38551,-0.12764 0.42559,-0.0953 1.04113,-0.12272 1.99988,-0.13177 2.91532,-0.0275 6.07267,-1.35734 8.6496,-3.64267 l 1.52239,-1.35031 -1.52239,0.93328 c -3.4949,2.14222 -5.73328,3.07596 -8.01812,3.3445 -3.02364,0.35537 -3.09215,-0.0295 -0.63458,-3.5693 1.29313,-1.86258 2.07295,-2.95492 2.77399,-3.60443 0.31499,-0.26448 0.63424,-0.47994 0.94154,-0.63717 0.64161,-0.27789 1.37507,-0.31533 2.51199,-0.33538 l 2.64274,-0.0465 -1.9048,-0.4253 c -2.25785,-0.50388 -2.10096,-0.76673 1.87948,-3.15226 1.42132,-0.85181 2.42719,-1.54875 2.23552,-1.54875 -1.00689,0 -5.77521,3.0177 -8.11785,5.13767 -2.33602,2.11398 -2.67551,2.34103 -3.1564,1.75804 l -0.25425,-0.41755 c -0.10451,-0.17142 -0.20281,-0.3502 -0.29765,-0.52762 -0.50777,-1.23159 -0.7021,-3.06394 -0.49971,-4.99917 l 0.21342,-2.03915 -0.63097,1.50016 c -0.76237,1.81177 -0.45676,4.46376 0.74156,6.43423 l 0.46767,0.76843 c 0.14176,0.31909 0.2373,0.5751 0.27543,0.77825 l -1.62005,2.77244 c -0.76096,1.30222 -1.43755,2.50967 -1.72755,3.0732 -0.12662,0.15906 -0.24466,0.29199 -0.34726,0.38447 -0.2736,-0.0464 -0.79221,-0.38523 -1.34669,-0.90537 -1.80536,-1.69351 -3.07384,-5.79697 -3.14554,-10.17561 -0.0501,-3.0585 -0.0815,-3.16825 -0.39378,-1.36787 -0.39496,2.27725 0.17143,7.19522 1.07901,9.36738 l 0.46147,1.10329 c -0.0196,0.0782 -0.0493,0.14997 -0.0858,0.21601 -0.11217,0.079 -0.29333,0.13853 -0.56585,0.18759 h -0.70177 c -1.92129,0 -3.66603,-0.89476 -5.12423,-2.62775 -0.62658,-0.74466 -1.13895,-1.12332 -1.13895,-0.84181 0,0.86307 1.2564,2.01306 2.77709,2.89698 10e-4,0.038 0.0176,0.085 0.0532,0.14263 0.14617,0.23649 0.44978,0.42995 0.6749,0.42995 0.13339,0 0.225,-0.0168 0.29042,-0.0419 0.22933,0.10684 0.45824,0.20457 0.68678,0.29352 l -0.35036,0.0315 0.4749,0.0181 c 1.05993,0.39711 2.0683,0.57944 2.7249,0.37104 0.49173,-0.15607 1.19402,0.20566 1.96836,1.01389 1.13937,1.18926 1.17615,1.35054 0.68109,3.00292 -0.33413,1.11523 -0.9035,1.91947 -1.57561,2.2257 -1.22812,0.55957 -3.44125,0.59877 -4.84725,0.1819 -0.44736,-0.16138 -0.85187,-0.39437 -1.22267,-0.69866 -1.06818,-1.05826 -2.33577,-3.4822 -2.33577,-4.60489 0,-0.46811 -0.68507,-2.14238 -1.52239,-3.7207 -0.83731,-1.57831 -1.52239,-3.32466 -1.52239,-3.8809 0,-1.15781 1.49067,-2.02107 3.49023,-2.02107 0.61989,0 1.10853,-0.17021 1.52084,-0.57774 l 0.40876,-0.0909 0.20877,-0.80822 c 0.33169,-0.67177 0.61844,-1.60512 0.9064,-2.87269 0.81332,-3.58015 2.39025,-6.45559 3.72381,-6.79029 0.16866,-0.0423 0.32419,-0.0676 0.47439,-0.0729 z m -12.58321,1.4919 c 0.0213,0.0113 0.035,0.082 0.045,0.19586 0.004,0.0725 0.005,0.20099 0.009,0.28835 l 0.0114,0.51005 c -0.005,0.24981 -0.0164,0.51349 -0.0346,0.79323 -0.23383,2.17115 -1.56069,4.30612 -3.670577,5.83996 -1.167363,0.84865 -4.883322,2.93837 -8.257379,4.64364 -3.374062,1.70527 -7.03023,3.8887 -8.125084,4.85241 -2.938158,2.58628 -3.48479,5.06847 -1.686203,7.40782 0.02098,0.0285 0.03963,0.059 0.06149,0.0868 0.04964,0.0631 0.104954,0.12675 0.159681,0.19017 0.02143,0.0251 0.04158,0.0504 0.06356,0.0755 0.01371,0.0153 0.02943,0.0306 0.04341,0.046 2.14318,2.40925 6.809578,4.66232 13.968656,6.71432 2.820953,0.80856 6.303666,1.7086 7.739056,1.99988 1.4354,0.29126 2.84698,0.72161 3.13676,0.95652 0.0323,0.0262 0.0672,0.0476 0.1018,0.0698 0.04,0.0403 0.10152,0.071 0.17777,0.0925 1.69984,0.69728 5.54661,-2.47316 8.48837,-7.09931 0.79867,-1.25597 1.52786,-2.28358 1.62006,-2.28358 0.39046,0 -2.53202,7.2837 -3.52382,8.78241 -0.28841,0.43581 -0.50496,0.77612 -0.67076,1.05678 -0.0871,0.11006 -0.16043,0.21477 -0.22117,0.31574 -0.0281,0.0444 -0.0559,0.0885 -0.076,0.12764 -0.10537,0.20359 -0.14565,0.36577 -0.108,0.44494 -0.0551,0.19209 0.0106,0.23583 0.21962,0.0708 0.12237,0.007 0.31184,-0.0382 0.56328,-0.11731 0.0822,-0.016 0.15933,-0.0291 0.25528,-0.0532 0.007,-0.002 0.0155,-0.003 0.0222,-0.004 2.63262,-0.35437 14.33125,2.62414 18.88567,4.86378 5.69906,2.8025 10.76299,8.78698 11.96465,14.13919 l 0.17311,0.76998 c -0.0693,0.20405 -0.2219,0.32679 -0.46819,0.39636 l -0.17621,0.0124 -3.07268,0.17932 c -2.48543,0.14511 -4.93858,0.61699 -7.09414,1.36478 -1.37047,0.47543 -2.65389,0.88367 -3.29489,1.05471 -0.0598,0.003 -0.12131,0.007 -0.1726,0.003 -0.19885,-0.0628 -0.33517,-0.20206 -0.42943,-0.42892 -0.0528,-0.27926 -0.0994,-0.65316 -0.13539,-1.11156 0.0154,-0.22437 0.0332,-0.45512 0.0563,-0.73432 0.13229,-1.59532 0.006,-3.12697 -0.34985,-4.54236 -0.39425,-2.48685 -1.40181,-4.05701 -3.50831,-5.86011 -1.99302,-1.70594 -6.96363,-3.67223 -12.1419,-4.8028 -11.30199,-2.46758 -16.751733,-3.79699 -17.134863,-4.18011 -0.240905,-0.24091 -0.846748,-0.43821 -1.346686,-0.43821 -1.650768,0 -9.520569,-2.66602 -12.562025,-4.25556 l -2.988448,-1.56166 -3.978569,0.50229 c -2.188022,0.27635 -5.832199,0.98447 -8.098213,1.57303 -2.266016,0.58855 -4.179662,1.01022 -4.252454,0.93741 -0.228267,-0.22826 2.629886,-1.76454 5.124751,-2.75487 2.752934,-1.09276 7.494791,-2.25442 9.242848,-2.26342 0.657889,-0.004 1.196309,-0.2021 1.196309,-0.44132 2e-6,-0.23924 -0.53842,-0.43728 -1.196309,-0.44028 -1.463622,-0.007 -2.92803,-2.04944 -3.591512,-5.01003 -0.951674,-4.24657 2.031593,-6.90988 11.63805,-10.39058 13.889384,-5.03255 15.580691,-6.13236 16.884231,-10.98228 0.30418,-1.13163 0.44516,-1.63555 0.51367,-1.60145 z m -62.092331,15.85485 c 0.04678,-0.002 0.09613,0.001 0.144177,0.002 0.366887,0.0255 0.771363,0.0929 1.221115,0.21239 0.699328,0.21147 1.527768,0.57931 2.556949,1.11879 2.575825,1.3502 2.683537,1.36794 5.384684,0.87023 1.516004,-0.27934 3.363058,-0.50798 4.104658,-0.50798 0.01119,0 0.02241,0.001 0.03359,0.002 0.216596,0.0137 0.42169,0.0367 0.617016,0.0682 3.095048,0.6497 5.996017,5.81038 6.281269,11.45667 0.180155,3.56599 -0.492104,6.73155 -1.49965,7.06158 -0.874369,0.28642 -4.008903,-2.92183 -7.140131,-7.30756 -1.141825,-1.59929 -2.322255,-3.08603 -3.457154,-4.37441 0.01228,-0.027 0.01913,-0.063 0.01913,-0.11059 0,-0.0903 -0.342537,-0.43285 -0.761193,-0.76119 -0.07415,-0.0581 -0.11027,-0.0835 -0.168981,-0.12868 -1.487313,-1.58097 -2.850745,-2.75868 -3.881416,-3.30781 -0.583258,-0.31076 0.09983,0.49456 1.517737,1.78956 2.338234,2.13557 6.203675,6.86295 6.332429,7.72717 -0.01127,0.0785 -0.06997,0.16377 -0.176734,0.25373 -0.674267,0.45705 -3.096519,1.1157 -4.339786,1.1157 -0.637815,0 -1.838425,-0.2833 -2.668055,-0.62994 -1.841826,-0.76956 -1.987656,-0.50982 -0.225309,0.40153 1.526064,0.78915 4.543759,0.86167 6.563424,0.15761 1.387784,-0.48378 1.500243,-0.44107 2.551266,0.97824 0.604737,0.81663 1.943417,2.29652 2.974496,3.28817 l 1.874303,1.80299 -1.677935,1.3286 c -0.922885,0.7307 -3.143633,2.11971 -4.935109,3.08602 l -2.985865,1.61075 c -0.199067,-0.0102 -0.407397,-0.0506 -0.620633,-0.11679 l -1.142566,-0.86092 c -0.820624,-0.61808 -4.742746,-2.73578 -8.715745,-4.70618 -3.973007,-1.97041 -7.887573,-4.02253 -8.699212,-4.56044 l -1.475879,-0.97824 1.425754,1.27228 c 0.784209,0.69975 3.325656,2.26853 5.647716,3.48609 l 4.074687,2.1363 c 0.01844,0.0461 0.02212,0.0904 0.01241,0.13333 l -1.163236,0.48162 c -0.713949,0.29552 -3.100011,0.55264 -5.30252,0.57154 -2.202505,0.0189 -3.670596,0.16709 -3.26233,0.3297 0.793773,0.31616 2.824776,0.38716 4.837945,0.25993 0.08237,0.005 0.151964,0.0111 0.254249,0.0124 0.501259,0.006 0.814827,-0.0368 0.861962,-0.10335 1.062281,-0.10815 2.051021,-0.27167 2.766756,-0.48421 2.262301,-0.67183 2.266223,-0.67127 4.75475,0.66508 1.161759,0.62387 2.442594,1.39022 3.165182,1.88153 0.617323,0.45588 1.018905,0.80773 1.029393,0.92811 0.0086,0.0989 -0.354986,0.32696 -0.941028,0.61857 l -1.681033,0.63769 c -2.954565,1.12038 -5.805738,1.85349 -8.662005,2.21175 -1.086795,0.0248 -2.442589,0.0264 -4.247801,0.0284 -1.465239,0.002 -2.617121,0.0123 -3.529501,0.031 -1.085642,-0.11342 -2.183855,-0.27146 -3.302641,-0.48369 -1.966051,-0.37295 -3.660485,-0.59198 -3.765661,-0.4868 -0.105176,0.10517 1.237003,0.55739 2.982763,1.00459 2.087385,0.53471 4.321433,0.76897 7.724077,0.80564 -0.282432,0.0836 -0.146499,0.13271 0.452168,0.14211 0.662461,0.0104 1.616324,-0.0466 2.534729,-0.13488 h 1.396297 c 1.226047,0.0507 1.695651,0.18558 1.564245,0.57826 l -0.839224,0.87385 c -0.766614,0.79858 -2.274673,1.91512 -3.351217,2.48099 -1.076545,0.56588 -1.704832,1.03793 -1.396296,1.04903 0.797488,0.0288 2.462937,-0.86761 4.055565,-2.10013 l -0.12609,0.16278 0.218591,-0.23358 c 0.557432,-0.43676 1.103391,-0.91324 1.597834,-1.40508 1.137285,-1.13127 2.777723,-2.22435 3.915008,-2.60914 1.076545,-0.36425 2.25081,-0.78272 2.609659,-0.93018 0.525545,-0.21596 0.669685,0.17691 0.740524,2.02003 0.04837,1.25851 0.316474,3.92565 0.595829,5.92729 0.566555,4.05955 0.311546,7.08163 -0.731737,8.67389 -0.382172,0.58327 -0.458989,0.91466 -0.170532,0.73639 0.899049,-0.55564 1.453303,-2.22365 1.640207,-4.71186 0.0081,-0.0175 0.01569,-0.0413 0.02273,-0.0734 0.02767,-0.12626 0.03544,-0.42674 0.02791,-0.84439 0.07235,-1.9623 -0.05243,-4.34336 -0.391708,-7.04919 -0.24285,-1.93676 -0.29156,-3.92397 -0.108519,-4.41575 0.203377,-0.54641 1.862773,-1.65961 4.267438,-2.86287 2.16422,-1.08296 4.807096,-2.63491 5.872509,-3.44837 l 1.936835,-1.47898 -0.01344,3.39256 c -0.01029,0.3123 -0.01294,0.61659 -0.0036,0.89504 2.1e-5,5.3e-4 -1.8e-5,0.001 0,0.002 l -0.01138,2.75797 c -7.94e-4,0.003 -0.0021,0.005 -0.0031,0.008 l -2.700094,4.0938 c -1.486805,2.2541 -2.21623,3.64058 -1.621089,3.08147 0.59514,-0.5591 1.899822,-2.27202 2.899563,-3.80648 l 1.499135,-2.30167 0.345196,-0.41652 0.929659,2.47272 c 0.886367,2.35778 3.51737,7.09363 3.940847,7.09363 0.101764,0 -0.583848,-1.52953 -1.52394,-3.39928 -1.355971,-2.69688 -2.654292,-6.22675 -2.967778,-7.89254 -0.04295,-0.34406 -0.05683,-0.63311 -0.03927,-0.85318 0.329631,-0.82867 5.471388,1.28657 7.533389,3.10162 1.427588,1.25661 1.924137,1.52954 1.566312,0.86093 -0.814332,-1.52159 -3.899313,-3.53344 -6.664709,-4.34599 -1.49471,-0.43919 -2.236327,-0.76859 -2.465483,-1.48673 -0.01294,-0.14755 -0.02003,-0.30886 -0.0186,-0.49299 l 0.116271,-1.12758 c 0.01569,-0.152 0.03288,-0.29358 0.05064,-0.43305 0.07229,-0.30015 0.155419,-0.62 0.257347,-0.98702 0.383088,-1.37934 0.67259,-1.65646 1.987995,-1.90324 0.534945,-0.10037 1.07833,-0.15421 1.62729,-0.1664 0.103984,-0.001 0.211114,-0.002 0.320911,-0.003 3.320216,0.0283 6.819352,1.62795 9.845394,4.5589 0.886712,0.85885 1.432486,1.42082 1.768883,1.91719 0.229835,0.4537 0.395298,0.91777 0.494027,1.39423 0.02318,0.24027 0.03101,0.50498 0.03101,0.81442 0,2.55621 -1.249022,4.97847 -4.069004,7.88996 -1.572326,1.62333 -2.649545,3.23827 -3.276285,4.9134 -1.214263,3.2454 -1.789448,4.45038 -2.58899,4.85293 -0.285467,0.11848 -0.605253,0.16868 -0.97255,0.17777 -0.845722,-0.0203 -1.900513,-0.58586 -3.229777,-1.73633 -1.105643,-0.95693 -2.2036,-1.73943 -2.440162,-1.73943 -1.197141,0 -3.21075,1.6156 -5.419307,4.34909 -0.438914,0.54324 -0.883406,1.05754 -1.332735,1.54771 -0.725609,0.73524 -1.382607,1.37787 -1.981274,1.93735 -0.303707,0.2749 -0.595982,0.53078 -0.877464,0.76791 -1.38557,1.11938 -2.821334,2.01664 -4.313949,2.69389 -2.072164,0.94022 -4.877152,1.13911 -5.683375,0.48731 -0.04271,-0.0612 -0.08333,-0.11708 -0.12919,-0.18707 -0.03092,-0.0472 -0.05302,-0.0872 -0.08113,-0.13177 -0.116951,-0.41705 -0.111882,-1.56689 0.0186,-2.65049 0.07998,-0.66413 0.191238,-1.71519 0.302824,-2.81481 0.171214,-0.93631 0.285496,-1.75412 0.340547,-2.46238 0.04064,-0.24105 0.06563,-0.57607 0.06563,-0.94672 0,-0.13791 -0.01434,-0.27573 -0.03514,-0.41289 -2.17e-4,-0.007 -7.93e-4,-0.0139 -0.0011,-0.0212 -0.0013,-0.0255 -0.0026,-0.0509 -0.0041,-0.076 -0.0053,-0.12082 -0.01394,-0.23646 -0.02532,-0.34675 -0.02265,-1.61704 -0.614421,-2.26422 -2.953824,-2.67115 -0.750811,-0.16261 -1.645388,-0.27408 -2.665987,-0.33022 -0.871955,-0.0819 -1.866315,-0.16314 -3.016356,-0.25476 -6.981071,-0.5562 -7.022745,-0.5659 -11.198798,-2.58485 -8.293046,-4.00934 -13.9490447,-9.18699 -15.0461097,-13.77384 -0.1991643,-0.83271 -0.029191,-1.35431 0.6371704,-1.9575 0.8004911,-0.72461 1.8709204,-0.84952 9.0180543,-1.05214 0.06898,-0.002 0.118005,-0.004 0.186035,-0.006 2.830077,-0.0205 4.862115,-0.11183 6.30039,-0.32504 2.763452,-0.29089 3.474278,-0.80829 3.831808,-1.93477 0.335449,-1.0569 -8.47e-4,-1.45807 -2.338875,-2.78949 -2.671935,-1.52156 -4.242357,-2.96325 -4.375961,-3.92224 0.01901,-0.1188 0.0504,-0.23928 0.09819,-0.3638 0.0858,-0.22359 0.189706,-0.37873 0.380338,-0.47904 0.460825,-0.11675 2.489904,-0.005 4.713924,0.26768 l 4.32015,0.52917 1.739429,-1.57149 c 0.223523,-0.20193 0.435332,-0.37799 0.643372,-0.5395 0.752223,-0.52718 1.472813,-0.84963 2.276345,-0.96686 1.236983,-0.10173 2.834992,0.32035 5.534546,1.25574 5.695699,1.97351 6.249696,1.01747 2.816365,-4.86121 -0.786564,-1.34678 -1.339662,-2.43995 -1.674831,-3.32796 -0.13676,-0.3856 -0.241067,-0.73922 -0.314711,-1.06195 -0.183817,-0.92624 -0.0069,-1.53783 0.518316,-1.92185 0.463608,-0.33899 0.939946,-0.52333 1.505334,-0.5426 z m 122.677261,35.89031 c 3.75534,0.0167 7.63318,0.35152 10.15339,0.96997 7.94254,1.94908 14.38628,5.86244 20.78839,12.62507 4.3992,4.64694 7.38395,9.5052 9.32812,15.18357 1.02254,2.98654 1.6823,5.99812 1.99471,8.98498 0.16782,2.38737 0.19324,4.95789 0.0708,7.31118 -0.88449,10.24858 -5.92626,19.68813 -14.49678,26.16481 -1.32438,1.00081 -2.99373,2.19042 -3.70986,2.64325 l -1.30224,0.82321 1.42317,-1.71049 c 4.46916,-5.3716 7.37359,-10.91615 8.79894,-16.79639 0.64104,-2.64459 1.01088,-5.38163 1.13172,-8.15351 -0.45739,4.349 -1.35749,8.75433 -2.89853,11.47475 -0.2587,0.45668 -0.50758,0.84733 -0.74931,1.19424 -1.39456,3.53869 -3.28932,6.86079 -5.65444,9.81284 -5.45539,6.80921 -12.88288,11.02164 -21.63072,12.26799 -1.56126,0.22244 -2.66312,0.36849 -3.37654,0.41548 l -0.16123,0.01 c -1.49234,0.0714 -0.92969,-0.39789 1.08159,-1.74097 5.99772,-4.00513 11.13432,-11.82218 13.12943,-19.98173 1.18836,-4.86015 1.5862,-13.50377 0.8661,-18.80816 -2.08267,-15.34113 -10.67717,-28.62441 -22.41362,-34.64129 l -2.36265,-1.21181 -0.23047,-0.12661 2.2102,-0.009 c 3.10259,-0.0128 9.36637,1.13751 12.916,2.37195 7.6524,2.66125 14.01,8.51306 18.08727,16.64859 1.70843,3.40891 2.10145,3.54414 0.63252,0.21756 -1.44188,-3.26532 -3.56291,-6.42789 -6.05906,-9.16688 -0.22554,-0.26539 -0.45674,-0.5259 -0.6935,-0.78187 -0.009,-0.0108 -0.0259,-0.0279 -0.0362,-0.0398 -1.11832,-1.20385 -2.36143,-2.30305 -3.72691,-3.29696 -0.002,-0.001 -0.004,-0.003 -0.006,-0.004 -1.46388,-1.12386 -2.98391,-2.08473 -4.51808,-2.83807 -4.89274,-2.40251 -9.44967,-3.46117 -17.98598,-4.17804 -3.96739,-0.33318 -7.30933,-0.70147 -7.42642,-0.81856 -0.4976,-0.49759 4.8317,-1.28278 10.10429,-1.4888 0.78844,-0.0308 1.54627,-0.0482 2.27842,-0.0506 5.12504,-0.0174 9.00125,0.67814 13.45189,2.35335 10.54915,3.15836 20.98845,17.21526 23.62388,33.11839 -0.019,-11.04963 -9.30789,-25.48596 -16.27652,-30.42192 -3.28685,-2.23278 -7.10411,-3.89516 -11.17865,-4.94543 -0.63566,-0.17281 -1.22762,-0.3165 -1.82779,-0.42427 -6.28225,-1.31568 -13.06167,-1.21358 -19.38797,0.45527 -1.77238,0.46753 -2.24534,0.47781 -2.24534,0.0481 0,-0.53742 4.57013,-1.80946 10.43916,-2.90525 2.07683,-0.38776 4.92366,-0.56697 7.84448,-0.55397 z m -49.63262,0.0227 c 2.64215,0.003 5.04631,0.1829 6.55567,0.55087 2.83661,0.69154 5.75024,2.06559 7.24348,3.27319 0.62547,0.60743 1.03826,1.27268 0.96274,1.59783 -0.0202,0.0872 -0.0503,0.15853 -0.0935,0.21601 -0.33001,0.22422 -1.33199,-0.0543 -4.19768,-0.99529 -8.2892,-2.37043 -7.04772,-1.17189 -0.43511,0.83819 1.87841,0.57431 1.77021,0.59045 -2.68201,0.40308 -19.84465,-0.83518 -37.829972,10.57016 -42.187604,26.75289 -1.366819,5.0759 -1.277064,12.82198 0.214974,18.5198 2.695591,10.29397 9.908958,21.25443 17.674373,26.85572 1.486252,1.07205 3.026955,2.18749 3.423563,2.47892 2.611054,1.91862 -6.677007,-2.14779 -11.339359,-4.96455 -10.730127,-6.48259 -16.93563,-14.10202 -20.20135,-24.80314 -0.07733,-0.25339 -0.139158,-0.47224 -0.206706,-0.7028 -0.360892,-1.44714 -0.643398,-2.93141 -0.846976,-4.45244 -0.102984,-1.3823 -0.130471,-3.13646 -0.141595,-5.84151 -0.01251,-3.04334 0.01357,-4.9311 0.141595,-6.41717 0.154805,-1.16633 0.356746,-2.30146 0.605647,-3.40961 0.06414,-0.24046 0.127024,-0.47828 0.202054,-0.73794 4.207569,-14.56161 13.97526,-23.04797 29.68036,-25.78809 4.321534,-1.37622 13.400694,-0.85139 18.476924,-0.16349 -4.29611,-2.68445 -12.64335,-1.40428 -16.954538,-1.54494 l 4.132048,-0.82475 c 2.78577,-0.55607 6.57598,-0.84455 9.97304,-0.84078 z m 28.00242,5.55367 c 0.24388,-0.002 0.48801,-0.002 0.73225,10e-4 0.44419,0.005 0.88611,0.0209 1.32602,0.0419 13.87277,1.00971 27.35361,13.11218 31.9257,30.19661 0.82644,3.08814 1.37352,6.1737 1.65675,9.20874 0.0329,1.15938 0.0462,2.53777 0.0512,4.29431 0.007,2.50787 -0.0335,4.53598 -0.15245,6.30918 -0.99538,8.49869 -4.21756,16.02819 -9.32191,21.30051 -0.39886,0.40314 -0.80649,0.79612 -1.21698,1.17977 -0.95629,0.87171 -1.96967,1.67114 -3.04064,2.38745 -3.84256,2.57005 -9.81861,4.67012 -15.89619,5.58622 -1.60749,0.2423 -3.18979,0.41994 -4.56716,0.52555 -0.51465,0.0215 -0.99493,0.0378 -1.4671,0.0527 -0.18979,-0.004 -0.37963,-0.007 -0.56895,-0.0129 l -2.11615,-0.0713 c -0.0816,-0.0272 -0.14929,-0.0568 -0.18449,-0.092 -0.107,-0.107 0.91061,-1.30324 2.39211,-2.84582 0.10895,-0.0971 0.2098,-0.1826 0.32039,-0.28267 1.14859,-1.03942 2.19984,-2.1581 3.1626,-3.37034 1.39771,-1.60893 2.33208,-3.01049 3.26233,-4.82399 3.39256,-6.61377 5.3163,-16.07012 5.3113,-26.11572 -0.001,-3.26022 -0.20589,-6.38274 -0.59789,-9.35809 -0.0656,-0.65745 -0.13789,-1.23396 -0.21808,-1.67742 -0.0726,-0.40158 -0.14981,-0.7998 -0.22892,-1.19527 -2.23497,-12.43638 -8.00656,-21.96188 -16.73645,-27.265 -1.11729,-0.67872 -2.22653,-1.25316 -2.79725,-1.46296 -0.25673,-0.16245 -0.45843,-0.30171 -0.5829,-0.40618 0.36501,-0.29151 1.40251,-0.7381 2.77192,-1.13895 1.52269,-0.44571 3.06328,-0.73583 4.60953,-0.8816 0.7117,-0.0488 1.4398,-0.0773 2.17145,-0.0837 z m -22.0586,1.37614 v 5.3e-4 c 1.13964,0.005 2.24115,0.0265 3.23753,0.0589 1.01143,0.0954 2.06822,0.226 3.20239,0.39532 l 1.40404,0.20981 c 0.0127,0.0724 -0.0178,0.15314 -0.0863,0.24236 l -2.64739,1.3932 c -4.25777,2.24047 -7.03053,4.37552 -10.45259,8.04964 -4.95663,5.32171 -7.8584,11.17704 -9.64282,19.45669 -5.3e-4,0.003 -0.001,0.005 -0.002,0.008 -0.0295,0.13677 -0.0611,0.26859 -0.0899,0.4067 -0.005,0.0228 -0.009,0.0483 -0.0134,0.0713 -0.0597,0.28525 -0.11339,0.5679 -0.16123,0.85111 -1.04993,5.90131 -1.08909,14.99627 -0.047,20.76359 1.59659,8.83657 5.02278,17.09398 9.15706,22.26686 0.70127,0.89687 1.41715,1.68993 2.14095,2.36523 1.073,1.09347 2.07223,2.11315 2.14044,2.18643 -0.003,0.0366 -0.0127,0.0679 -0.0351,0.091 -0.21322,-0.0611 -0.814,-0.20566 -1.6247,-0.38499 -0.95694,-0.21166 -3.2568,-0.80614 -5.1108,-1.32137 -3.1592,-0.87795 -3.51642,-1.10395 -5.68493,-3.59513 -7.324973,-8.41495 -10.527596,-15.18929 -11.771891,-24.89977 -0.434854,-3.39364 -0.617154,-4.1129 -0.645954,-2.55126 -0.05685,3.08098 0.673129,7.78708 1.720308,11.09131 1.792784,5.65691 4.479996,10.26857 10.122377,17.37155 0.98505,1.24003 -5.082753,-2.42592 -8.416537,-5.08496 -8.627481,-6.8813 -15.244405,-18.17999 -16.992246,-29.01477 -0.790942,-4.90304 -0.327175,-12.29793 1.015442,-16.18971 4.508243,-13.06787 17.524346,-22.23263 34.241841,-24.10912 0.0107,-0.001 0.0209,-0.002 0.0315,-0.003 1.10616,-0.0607 2.30408,-0.10138 3.5109,-0.1204 0.0527,-5.3e-4 0.10203,-0.002 0.15503,-0.003 0.44855,-0.003 0.89857,-0.003 1.34513,-0.002 z m 11.37863,1.64021 c 0.0721,-0.004 0.14786,-0.002 0.22738,0.004 h 5.3e-4 c 0.10178,0.007 0.20947,0.0228 0.32246,0.045 l 1.81488,0.9183 c 1.24888,0.63185 2.43561,1.3485 3.56463,2.14405 1.73099,1.33638 3.55204,2.97813 5.16248,4.67827 4.25647,4.90262 7.27694,11.54152 9.0935,19.97397 1.27003,5.89546 1.37619,18.37233 0.20981,24.64242 -1.67367,8.99717 -4.35459,15.1789 -8.58552,19.79621 -2.25029,2.4558 -6.18011,5.49682 -7.10345,5.49682 -0.17974,0 0.1919,-0.6166 0.82579,-1.36994 1.71738,-2.04099 3.65352,-6.13048 4.6762,-9.87691 0.57712,-2.11424 0.80138,-3.70579 0.86662,-6.88589 0.0151,-0.17421 0.0332,-0.34656 0.0465,-0.52193 0.072,-0.94465 0.0567,-1.61225 -0.0253,-1.77354 2.6e-4,-0.29654 0.002,-0.56463 0.002,-0.88521 -0.0101,-3.7081 -0.18831,-7.28201 -0.39636,-7.94164 -0.23859,-0.75642 -0.32291,1.17141 -0.22841,5.21984 0.25096,10.74717 -1.86551,18.08492 -6.6368,23.011 l -1.8557,1.91616 c -0.41579,0.22105 -0.81856,0.35912 -1.19993,0.39946 l -2.22002,-0.0372 c -3.42725,-0.0573 -3.7506,-0.11385 -7.45019,-1.30793 -3.45063,-1.11373 -6.13662,-3.18266 -8.55141,-6.58668 -5.53253,-7.79897 -8.40209,-17.22618 -8.84804,-29.06696 -0.20147,-5.34968 -0.0957,-7.738 0.50126,-11.30835 1.65388,-9.89092 6.01395,-18.21104 12.41836,-24.0099 0.78675,-0.69562 1.59783,-1.36367 2.41433,-1.99316 1.62451,-1.21976 3.35572,-2.29597 5.19038,-3.20963 3.80297,-1.89386 4.2155,-1.86003 2.26911,0.18604 -5.40487,5.68171 -8.53659,14.21862 -9.46041,25.78809 -0.46585,5.83395 -0.009,15.97706 0.90124,20.0241 0.35452,1.57579 0.37068,1.51405 0.1757,-0.65267 -0.1184,-1.31578 -0.33341,-5.42623 -0.47801,-9.13433 -0.66216,-16.98077 3.22829,-29.94165 11.00605,-36.6665 l 1.14463,-0.9896 c 0.0647,-0.0132 0.1334,-0.0217 0.20567,-0.0253 z"
       style="fill:#000000;stroke-width:0.43496767" />
  </g>
</svg>
