<?xml version="1.0" encoding="UTF-8" standalone="no"?>
<svg
   xmlns:dc="http://purl.org/dc/elements/1.1/"
   xmlns:cc="http://creativecommons.org/ns#"
   xmlns:rdf="http://www.w3.org/1999/02/22-rdf-syntax-ns#"
   xmlns:svg="http://www.w3.org/2000/svg"
   xmlns="http://www.w3.org/2000/svg"
   viewBox="0 0 795.13133 806.44055"
   height="806.44055"
   width="795.13135"
   id="svg2"
   version="1.1">
  <title
     id="title817">Santa and Rudolf</title>
  <metadata
     id="metadata8">
    <rdf:RDF>
      <cc:Work
         rdf:about="">
        <dc:format>image/svg+xml</dc:format>
        <dc:type
           rdf:resource="http://purl.org/dc/dcmitype/StillImage" />
        <dc:title>Santa and Rudolf</dc:title>
        <dc:source>https://publicdomainvectors.org/en/free-clipart/Santa-and-raindeer-coloring-book-vector-illustration/18574.html</dc:source>
        <cc:license
           rdf:resource="http://creativecommons.org/licenses/by-sa/4.0/" />
      </cc:Work>
      <cc:License
         rdf:about="http://creativecommons.org/licenses/by-sa/4.0/">
        <cc:permits
           rdf:resource="http://creativecommons.org/ns#Reproduction" />
        <cc:permits
           rdf:resource="http://creativecommons.org/ns#Distribution" />
        <cc:requires
           rdf:resource="http://creativecommons.org/ns#Notice" />
        <cc:requires
           rdf:resource="http://creativecommons.org/ns#Attribution" />
        <cc:permits
           rdf:resource="http://creativecommons.org/ns#DerivativeWorks" />
        <cc:requires
           rdf:resource="http://creativecommons.org/ns#ShareAlike" />
      </cc:License>
    </rdf:RDF>
  </metadata>
  <defs
     id="defs6" />
  <path
     id="path833"
     d="M 255.38281,0 C 232.2166,0 227.47898,1.1477619 218.13086,9.0136719 203.16276,21.608502 189.00781,51.499258 189.00781,70.517578 c 0,2.01992 0.12796,4.054714 0.34766,6.089844 0.33899,4.61845 1.30825,9.07054 2.92187,13.53125 0.18751,0.53774 0.38675,1.074308 0.59375,1.611328 3.62118,10.20426 9.52861,19.66332 16.61524,26.75195 2.33056,2.62474 4.62792,4.57752 7.3457,6.18164 4.35459,3.0097 8.96373,5.09821 13.625,5.97266 8.28454,1.5542 12.43941,3.75306 13.62305,9.67969 l -0.6582,14.28515 c -0.36269,2.21825 -0.80433,4.62259 -1.3418,7.29883 -3.20642,15.96599 -2.87431,20.95285 2.02734,30.43164 4.56768,8.8329 4.84883,11.64157 1.27344,12.71094 -1.23458,0.36926 -4.29955,1.20769 -8.14453,2.23633 -3.77752,0.46119 -8.97387,1.8875 -14.66797,3.86914 -8.0386,2.20207 -16.95546,6.215 -25.70508,11.30859 -4.68407,2.54146 -8.72911,5.09598 -11.51953,7.40625 -3.15399,2.22291 -6.21854,4.54644 -9.13281,6.94141 -2.26229,1.50452 -4.00759,2.44726 -4.69727,2.44726 -1.14109,0 -2.79037,1.32611 -4.74414,3.60157 -1.47627,0.14516 -2.65293,1.6625 -2.74219,3.55468 -1.51575,2.11744 -3.12569,4.58491 -4.79492,7.37305 -1.00894,1.29409 -1.94898,2.58148 -2.80078,3.85742 -2.6743,4.00589 -5.82456,10.05826 -8.83008,16.6836 -1.21795,2.32571 -2.12571,4.37505 -2.55664,5.85351 -2.41891,5.78584 -4.6073,11.69736 -6.16992,16.89649 -2.12981,7.08634 -4.1572,12.62295 -6.15039,16.75781 -2.11336,3.43529 -4.56814,6.32494 -7.76172,9.26367 -0.0351,0.0119 -0.0684,0.0318 -0.10351,0.043 -8.71032,2.76456 -28.701177,25.37263 -28.701177,32.45898 0,0.58308 -0.161563,1.28229 -0.441406,2.06641 -1.65399,3.28631 -3.913323,6.78024 -6.568359,10.28516 -5.458981,6.82632 -13.221029,14.68974 -20.152344,20.42968 -4.360744,3.40506 -8.674844,6.15439 -12.546875,7.87891 -0.363206,0.0796 -0.706124,0.13086 -1.011719,0.13086 -12.685284,0 -31.544893,12.33345 -38.644531,25.27344 -5.155038,9.39554 -6.214841,16.38827 -4.578125,30.2207 1.632549,13.79707 0.445203,21.71111 -5.0957034,33.92578 -8.2162896,18.11255 -9.5539533,47.12268 -2.7910156,60.57227 0.704308,1.40066 1.7814198,2.73782 3.1445312,3.99218 1.6566846,2.30473 3.6122938,3.9115 5.8749998,4.57422 0.852616,0.24974 1.696143,0.48289 2.539063,0.71289 11.105482,5.01232 26.708953,6.71997 34.248047,2.01172 2.373437,-1.48224 4.013547,-2.28455 5.255859,-2.36328 1.3049,1.19491 2.719947,3.13001 4.287109,5.8125 8.979268,25.20265 32.089365,54.9472 53.779296,70.2793 5.71854,4.81447 10.45323,7.83203 13.08594,7.83203 0.0712,0 0.13646,0.0118 0.20703,0.0137 1.12483,0.63628 2.05146,1.20106 2.64844,1.66992 0.39551,0.39529 0.72622,0.76735 1.00586,1.11914 0.40959,1.01963 -1.04278,1.71216 -4.0918,2.69141 -2.10425,0.6759 -3.81376,1.23887 -5.55078,1.8125 -2.77122,0.33268 -5.19699,1.19746 -7.29883,2.625 -9.37688,3.92149 -10.09119,8.06727 -10.14258,22.81055 -0.18767,1.49933 -0.33896,3.08694 -0.46875,4.72851 -0.14992,1.72521 -0.27596,3.5003 -0.35547,5.38282 -0.003,0.0595 -0.007,0.10096 -0.01,0.16015 -0.93873,16.29302 -2.490154,20.06096 -9.23633,23.41016 -0.687421,0.34129 -1.473311,0.78673 -2.298828,1.27929 -0.762653,0.0975 -1.559322,0.1504 -2.40625,0.1504 -3.401765,0 -9.618605,4.82037 -13.814453,10.71289 -1.458819,2.04873 -3.198426,3.96165 -5.001953,5.59375 -3.16743,2.2644 -6.398249,4.11583 -8.935547,5.07422 -0.202224,0.0271 -0.397924,0.0469 -0.578125,0.0469 -2.223441,0 -4.174219,0.44997 -5.851563,1.3457 -10.537426,5.07574 -13.875261,23.60683 -7.65625,36.85938 0.485643,3.27685 1.787693,5.1256 4.587891,6.85351 0.0018,10e-4 0.0041,0.003 0.0059,0.004 0.913237,0.97023 1.908151,1.86802 2.992188,2.67383 13.715145,10.19514 70.3172,12.60951 107.04687,4.5664 14.23637,-3.11769 38.88308,-6.23756 54.76954,-6.93359 24.43996,-1.07127 28.6403,-0.67713 31.49218,4.7207 0.17337,0.35862 0.34407,0.7293 0.51953,1.12891 1.68096,3.82834 6.09854,7.28362 10.56641,8.45508 2.1296,0.8431 4.50574,1.55912 7.10156,2.11328 7.8567,1.6774 26.33899,6.14701 41.07032,9.93359 5.92221,1.52229 12.02492,2.71715 18.22265,3.60352 5.3351,1.22578 11.46298,1.89495 18.06055,2.08594 4.67592,0.82748 11.63853,0.59107 19.71289,-0.4375 29.76597,-1.52988 57.98247,-9.61962 75.75781,-23.08789 6.79057,-5.14506 8.04474,-8.46261 6.11524,-16.1504 -1.18112,-4.70594 -3.74368,-8.1787 -9.29688,-11.78515 -0.34915,-0.23104 -0.71054,-0.4616 -1.08594,-0.6875 -0.25849,-0.1579 -0.53234,-0.31772 -0.80273,-0.47656 -0.0249,-0.0146 -0.0492,-0.0303 -0.0742,-0.0449 -0.008,-0.005 -0.0173,-0.009 -0.0254,-0.0137 -2.84477,-1.66359 -6.32926,-3.38398 -10.65039,-5.29492 -20.64009,-9.12806 -22.32283,-12.28466 -14.1543,-26.57422 7.17135,-12.54475 7.11406,-32.18307 0.80274,-45.76758 -0.53652,-1.56446 -1.20778,-2.93735 -2.05274,-4.2207 -1.54966,-2.70299 -3.50582,-4.91602 -5.99219,-6.88281 -4.42158,-4.30953 -9.23727,-7.47141 -11.82226,-7.51953 -8.84964,-0.16177 0.41722,-4.95012 24.42187,-12.61719 2.0157,-0.64382 4.11455,-1.38452 6.22266,-2.16016 4.20921,-0.88374 8.64608,-2.77102 13.09961,-5.41406 4.10108,-1.90179 7.60838,-3.75168 9.74219,-5.23047 10.93204,-7.57672 31.64648,-38.40582 31.64648,-47.09961 0,-12.11575 6.31138,-5.41872 8.64453,9.17188 0.79411,4.96611 3.02283,10.28573 6.39258,15.6875 0.0124,0.0228 0.0228,0.0476 0.0352,0.0703 1.17086,2.13914 2.82304,4.43776 4.85156,6.82617 0.28045,0.35378 0.56627,0.70517 0.85547,1.0586 2.74672,3.56185 5.97722,6.97831 9.76172,10.33007 9.84772,9.15636 22.27034,17.62858 35.84179,23.95899 10.17965,4.7482 20.05873,9.38651 25.8125,12.10351 4.13365,2.32528 7.3477,4.42469 10.00196,6.60743 3.87546,3.93428 7.93331,9.59501 11.68164,16.2246 0.96074,1.82128 1.9624,3.76596 3.07812,5.96485 0.92201,1.81709 1.80858,3.68138 2.66992,5.55469 2.16819,4.93022 4.08727,10.07436 5.58985,15.20507 1.79305,6.1226 2.46804,11.06705 1.98437,14.93946 -1.1291,4.76994 -4.13001,8.00258 -9.00195,9.68554 -1.40449,0.36122 -2.9933,0.7175 -4.80078,1.08008 -1.48549,0.19153 -3.07233,0.30078 -4.78906,0.30078 -0.94151,0 -1.93625,0.0925 -2.96289,0.25586 -12.76951,1.30978 -23.28987,7.9225 -30.54883,19.26367 -2.61663,3.124 -4.58763,6.30068 -5.5293,9.26758 -0.98455,3.10207 -1.38325,5.98718 -1.25195,8.56836 -0.0914,3.75259 1.11131,6.74304 3.56054,8.82617 1.36687,1.39421 3.10153,2.44562 5.16993,3.08594 2.20028,1.00787 4.82957,1.79406 7.89257,2.33985 3.02327,0.53877 5.74642,0.9872 8.28125,1.36328 0.50146,0.29107 0.94245,0.58364 1.23829,0.87109 0.35626,0.34616 0.73266,0.65671 1.11914,0.94727 3.82356,4.07748 11.64074,3.18186 20.67968,-1.83789 0.72485,-0.39634 1.46641,-0.83456 2.21289,-1.28711 3.68989,-1.7281 7.16386,-4.44129 11.25391,-8.28711 0.20962,-0.17893 0.41429,-0.34107 0.625,-0.52344 6.69152,-5.79148 13.34443,-10.78501 17.18164,-13.02149 1.15015,-0.35581 2.27177,-0.5523 3.39844,-0.57031 0.0143,3.6e-4 0.0287,0.002 0.043,0.002 0.0808,-9.9e-4 0.16128,0.005 0.24219,0.006 0.82375,0.0444 1.65251,0.1891 2.50195,0.4336 3.04777,1.46598 7.46173,4.21124 11.6914,7.3789 13.89358,10.40509 25.87938,14.33999 31.86915,10.46485 2.47279,-1.59991 8.51338,-2.9082 13.42382,-2.9082 3.90505,0 6.1809,-0.47222 7.60157,-2.39844 2.30666,-1.5076 3.11523,-4.50301 3.11523,-9.57227 0,-0.47905 -0.015,-0.95704 -0.0371,-1.43554 0.0107,-0.26341 0.0371,-0.51874 0.0371,-0.78711 0,-3.07921 -0.64503,-6.24264 -1.8125,-9.37696 -4.12283,-14.52978 -18.34178,-27.92252 -34.28906,-30.47265 -2.33119,-0.37281 -4.49893,-0.86851 -6.4336,-1.41602 -1.18364,-0.56127 -2.21139,-1.11728 -3.15625,-1.66406 -1.37205,-1.00369 -2.36092,-2.11572 -2.99218,-3.43555 -0.3122,-1.014 -0.52404,-2.11615 -0.63086,-3.32031 2.61777,-11.24285 12.18235,-35.97993 18.34179,-47.39844 2.42207,-3.3695 5.03756,-6.46002 7.87305,-9.29687 2.15852,-1.88017 4.66768,-3.85901 7.37695,-5.82617 4.15523,-2.80498 8.73826,-5.49377 13.11524,-7.55469 8.77323,-4.13075 17.54818,-9.94737 25.48828,-16.58594 1.66411,-1.15378 3.20934,-2.25202 4.45117,-3.19922 5.42196,-4.13545 11.32569,-11.16682 16.16406,-18.55469 4.44873,-6.14237 7.75285,-12.26088 9.41993,-17.87304 1.6216,-5.45903 3.4319,-10.22515 4.80664,-12.90039 0.18183,-0.17449 0.36073,-0.33534 0.54296,-0.47461 1.62392,-0.0977 3.59149,0.56932 5.75977,1.95703 1.43459,1.51112 3.03776,3.3572 4.61719,5.36523 3.25358,4.13619 6.74239,6.51271 10.15625,7.42383 2.52665,1.26857 4.70117,1.15188 7.08789,-0.22656 8.45207,-2.89909 14.73338,-15.17175 12.75195,-31.84961 -0.41786,-3.51729 -1.53314,-7.48916 -2.99805,-11.17774 l -0.002,-0.0781 -0.01,0.0488 c -1.68147,-4.22654 -3.82602,-8.07546 -5.98633,-10.375 -1.1482,-1.22221 -2.38562,-2.85328 -3.62305,-4.68164 -2.84911,-5.59963 -5.7887,-11.48912 -8.30078,-16.64063 -2.44493,-6.65992 -7.32452,-15.19297 -11.24219,-19.51758 -6.10312,-6.73676 -7.94216,-14.6858 -9.70703,-42.0039 -2.49546,-38.62568 -4.54357,-42.10923 -35.32226,-60.0625 -14.15752,-8.25847 -19.96865,-13.91357 -20.75196,-20.1875 -4.17659,-33.45229 -18.77692,-54.26103 -49.81445,-70.99805 -19.84674,-10.7024 -23.17076,-19.51083 -10.33789,-27.91601 0.86695,-0.53342 1.81463,-1.10446 2.82031,-1.69922 0.22649,-0.12606 0.44194,-0.25103 0.67578,-0.37696 13.00039,-7.00115 36.00632,-27.98559 43.92383,-40.0664 1.95022,-2.9757 3.75649,-7.62825 5.30078,-13.07422 0.39955,-1.09354 0.71008,-2.13042 0.90235,-3.0918 0.0695,-0.34764 0.12723,-0.72752 0.19336,-1.08398 3.18714,-13.20304 4.7977,-29.59801 3.18164,-39.55664 -0.77561,-4.77958 -2.38548,-9.05014 -4.64063,-12.50391 -0.0571,-0.11741 -0.11148,-0.24434 -0.16992,-0.35352 -1.13559,-2.12189 -2.71693,-3.77186 -4.66016,-4.99218 -0.40556,-0.3168 -0.81716,-0.61995 -1.24219,-0.89844 -11.4127,-7.47793 -29.26368,-1.74425 -54.85742,17.62695 -12.68489,9.60082 -17.85849,12.0392 -16.08203,7.57617 4.37508,-10.99171 9.84405,-83.6433 8.15625,-108.359371 -1.78636,-26.15999 -13.22323,-56.011906 -26.08789,-68.097656 -10.97845,-10.31373988 -28.02,-10.56003112 -38.0293,-0.5507811 -10.62129,10.6213001 -9.00638,29.8025981 5.70118,67.7675781 14.06579,36.30834 19.6953,56.40113 9.25195,33.02148 -11.27591,-25.243636 -14.71777,-31.835332 -20.375,-33.441402 -0.74634,-0.59969 -1.48945,-1.062885 -2.23242,-1.416016 -0.9142,-0.564199 -1.77268,-0.853515 -2.56641,-0.853515 -0.25603,0 -0.51358,0.0242 -0.77344,0.0625 -2.52863,-0.008 -5.14414,1.255597 -8.02734,3.648437 -1.93292,1.60418 -3.28913,4.05461 -4.08594,7.1875 -0.0877,0.17444 -0.17754,0.341785 -0.26367,0.521485 -3.98281,8.30982 -3.58297,12.482205 2.9082,30.353511 11.19245,30.81487 21.591,65.56533 24.19141,80.13086 0.35075,4.27865 0.31625,7.88469 -0.16992,10.55664 -1.10227,2.44496 -3.49064,3.24414 -8.0918,3.24414 -3.35167,0 -6.04581,-0.93659 -8.89062,-3.56835 -0.93922,-0.95857 -1.90638,-2.01947 -2.91211,-3.20704 -2.35567,-2.99413 -4.96649,-7.17001 -8.21485,-12.92578 -11.05398,-19.58658 -21.98293,-30.29492 -30.91797,-30.29492 -2.96437,0 -4.9317,1.24054 -5.90234,3.67578 -1.04874,1.43502 -1.30525,3.6568 -0.69726,7.01172 -0.0221,1.41523 0.35555,3.11247 1.14648,5.35352 0.98398,4.0196 2.58445,8.74896 4.85156,14.21875 2.60128,6.27608 4.52661,12.20226 5.44922,16.37695 0.38433,2.45849 0.43217,4.34179 0.0566,5.32031 -0.11273,0.29376 -0.22043,0.51187 -0.33008,0.76953 -4.16073,2.29413 -17.16775,-5.67554 -24.02929,-15 -0.86269,-1.17235 -1.57791,-2.1917 -2.17774,-3.15039 -1.1202,-4.30903 -0.85558,-9.57423 0.54297,-16.64258 0.6586,-1.84687 1.42794,-3.91664 2.3457,-6.33203 10.2508,-26.97788 12.51357,-48.21133 6.21094,-66 -2.33668,-7.445876 -6.35462,-14.091756 -12.22461,-20.412106 -5.80486,-6.59638 -13.22573,-12.733301 -22.35351,-18.582031 -12.92252,-8.28025 -19.89834,-10.186691 -37.4961,-10.244141 -30.1764,-0.0987 -68.22142,-6.055113 -81.05078,-12.689453 -5.94389,-3.07368 -20.30268,-14.316865 -31.90625,-24.984375 L 281.92188,0 Z m 2.64649,7.1425781 c 10.2952,0 16.48407,0.026144 21.1582,0.9960938 1.96006,0.53124 3.77608,1.1383987 5.47266,1.8867191 2.65198,1.38326 5.12052,3.46047 8.20898,6.49414 l 9.52734,10.1875 c 2.77944,2.97259 5.14556,5.577274 7.18555,7.933594 7.81907,9.70602 10.97086,16.937188 11.48047,25.298828 0.0203,0.67625 0.0295,1.368918 0.0273,2.080078 -0.23026,6.73585 -1.65152,12.360607 -4.29687,16.841797 -3.94599,5.19895 -10.93592,8.710972 -22.4043,12.044922 -2.63846,0.76702 -5.49031,1.788759 -8.38867,2.980469 -9.07116,2.66219 -15.6441,6.616421 -24.54297,14.353511 -6.44369,5.42522 -12.18862,8.19806 -13.35156,6.31641 -0.16779,-0.2715 -0.38472,-0.51147 -0.62891,-0.73242 -0.24384,-0.39615 -0.54538,-0.75325 -0.91211,-1.04297 -0.11274,-0.0896 -0.23266,-0.17483 -0.35742,-0.25195 -0.24893,-0.15383 -0.4925,-0.25904 -0.73047,-0.31836 h -0.002 c -0.11862,-0.0295 -0.23861,-0.0476 -0.35352,-0.0547 -0.42127,-0.0254 -0.81472,0.10366 -1.16601,0.35742 -1.06717,-0.0577 -2.20316,0.10538 -3.27735,0.51758 -2.88337,1.10647 -5.24414,0.0997 -5.24414,-2.23828 0,-2.33799 -2.00767,-3.57518 -4.46289,-2.74805 -2.45522,0.82713 -6.34013,-1.04458 -8.63476,-4.16015 -0.97763,-1.32739 -2.0934,-2.31088 -3.16797,-2.91797 -0.70894,-0.60509 -1.42728,-0.972659 -2.09766,-0.972659 -0.084,0 -0.15744,0.0153 -0.23242,0.0293 -0.0841,-0.015 -0.16598,-0.0293 -0.24219,-0.0293 -0.42414,0 -0.69693,0.245409 -0.83203,0.669919 -0.0879,0.0626 -0.17311,0.1282 -0.25195,0.20703 -1.458,1.458 0.26602,5.87603 3.83203,9.81641 3.58156,3.9576 4.66067,7.16406 2.41016,7.16406 -0.13279,0 -0.27478,-0.0286 -0.41407,-0.0488 -1.2114,-0.80608 -2.61798,-1.85627 -4.32031,-3.19531 -0.75616,-0.59481 -1.48553,-1.21535 -2.19922,-1.8457 -7.3058,-8.5978 -16.14198,-26.205734 -17.66211,-37.539064 -2.61207,-19.4745 6.8141,-43.371929 22.5625,-57.199218 2.84396,-2.497031 5.17355,-4.425853 7.43946,-5.914063 0.001,-8.1e-4 0.003,-9.53e-4 0.004,-0.002 0.42588,-0.23518 0.85091,-0.472686 1.28516,-0.697266 1.44578,-0.74772 2.7902,-1.4115472 4.08203,-2.0234372 5.42614,-1.96362 12.26492,-2.2441407 25.49805,-2.2441407 z m 316.5664,4.0546879 c 0.10992,-0.001 0.22052,0.002 0.33008,0.002 4.4499,0.71616 9.68951,3.80367 15.38086,9.74414 11.90428,12.42539 18.14647,30.389784 19.47266,59.371094 0.27607,7.36675 0.25388,16.752963 -0.0156,26.66407 -0.42534,11.32143 -1.3212,23.8972 -2.68164,37.94921 -2.6307,27.17302 -5.46283,37.01689 -17.45898,60.70899 -7.87498,15.55293 -16.12258,35.10929 -18.32813,43.45703 -3.52784,13.35225 -5.17671,15.11732 -13.69531,14.68359 -12.09828,-0.61604 -46.06002,-7.81945 -48.1875,-10.2207 -0.8701,-0.9821 -2.45214,-8.61514 -3.51758,-16.96289 -0.67711,-5.30519 -0.87821,-8.93065 -0.53711,-11.31445 0.4048,-1.23706 0.98505,-2.33649 1.7832,-3.38477 0.32367,-0.12321 0.63775,-0.25636 0.94141,-0.39844 0.25845,-0.048 0.52864,-0.0801 0.82422,-0.0801 3.9778,0 6.50532,-4.1715 7.29883,-10.00782 0.57569,-1.91186 0.63199,-4.18575 0.13476,-7.16992 -0.3741,-4.476 -1.55288,-9.27318 -3.65234,-13.67578 -0.51503,-1.08006 -0.92313,-1.96725 -1.36523,-2.91602 -1.00402,-2.73124 -2.14471,-5.73189 -3.44336,-9.08398 -0.9361,-2.41628 -0.61905,-3.11809 1.11914,-2.08594 l 4.03125,4.70703 c 1.39543,1.62987 3.0339,3.56343 4.7832,5.64258 1.15644,1.963 2.32241,4.06347 3.41797,6.21094 0.10215,0.20024 0.21286,0.38578 0.31641,0.58398 0.66603,2.05853 2.11808,4.39706 4.0957,6.79493 8.034,11.61849 18.76441,18.32226 29.8789,18.32226 11.6606,0 15.50383,-5.9841 15.48243,-24.10547 -0.0141,-12.74514 -6.33077,-33.20455 -27.25977,-88.27734 -0.68265,-1.79632 -1.27014,-3.40899 -1.78711,-4.89453 -1.64738,-5.758786 -2.54339,-9.957741 -2.27344,-11.359381 0.39928,-2.073359 0.9932,-3.599835 1.73047,-4.634765 0.15099,-0.17039 0.3009,-0.341896 0.46875,-0.509766 0.25924,-0.25924 0.50949,-0.468294 0.75977,-0.683593 2.78934,-1.70405 6.81503,1.56526 10.54492,8.74414 1.63195,4.22791 3.44485,9.841625 5.59766,17.167975 6.82547,23.22812 20.71806,39.05262 28.5664,32.53906 1.08207,-0.89803 1.98011,-1.89398 2.70313,-3.01367 1.20726,-1.24763 1.87286,-2.98105 1.94531,-5.49024 1.01301,-7.40354 -2.28278,-18.87718 -10.38281,-38.318359 -5.99118,-14.37967 -13.17424,-32.301926 -16.02149,-39.972656 -1.48241,-4.5597 -2.66436,-8.756505 -3.56054,-12.609376 -0.96529,-5.2704 -1.19789,-9.767471 -0.90235,-14.326171 0.2251,-3.47212 0.45271,-6.194599 0.77149,-8.386719 1.04767,-3.23782 2.63932,-5.74257 4.68359,-7.375 0.83926,-0.4421 1.74894,-0.798068 2.74805,-1.048828 1.91968,-0.48182 3.64803,-0.807428 5.25976,-0.986328 z M 335.26172,55.642578 c 1.73821,0.044 4.33753,0.697901 8.20312,1.832031 6.38357,1.87289 26.87355,4.26292 45.53321,5.3125 47.92254,2.69553 61.92402,6.948819 76.69531,23.298829 2.4599,2.72283 4.88598,5.812291 7.05469,8.888671 0.95938,1.66276 1.89958,3.398713 2.82226,5.226561 2.26116,4.47941 3.97884,7.90632 5.25196,10.86719 1.66482,10.15467 -0.1815,31.00518 -3.58594,45.10352 -1.24937,4.49539 -2.5275,8.2418 -3.82617,11.22851 -1.26588,2.55206 -2.62467,4.75022 -3.75391,6.11328 -0.71952,0.67475 -1.42607,1.15825 -2.20703,1.42188 -3.74318,-0.56124 -17.76033,-10.47328 -35.98047,-25.48438 -19.75496,-16.27558 -54.44254,-36.29891 -73.36719,-42.35156 -9.54396,-3.05246 -15.71938,-6.04395 -17.45312,-8.080079 0.15087,-0.50763 0.45177,-1.021875 0.90625,-1.541015 l 2.70508,-1.023438 c 0.31626,-0.0119 0.6042,-0.0332 0.95898,-0.0332 4.20525,0 8.52721,-1.422562 9.60352,-3.164063 0.29871,-0.48332 1.04685,-1.025711 2.07617,-1.582031 l 0.63867,-0.240234 c 2.09035,-0.79039 3.85705,-1.492558 5.66016,-2.205078 1.91169,-0.57072 3.98582,-1.091978 6.11914,-1.492188 6.89632,-1.29375 12.53906,-3.791521 12.53906,-5.550781 0,-6.5536 -7.20981,-7.257896 -19.91992,-1.947266 -1.34059,0.56013 -2.73702,1.08976 -4.13867,1.59961 -2.8787,0.8168 -5.83484,1.748278 -8.73438,2.736328 -2.73295,0.70144 -5.07007,1.132812 -6.49023,1.132812 -3.44798,0 -8.25442,2.3937 -10.68165,5.31836 -0.59264,0.71406 -1.14714,1.293293 -1.68359,1.814453 -0.40227,0.27331 -0.77613,0.543651 -1.08594,0.800781 -0.52978,0.43968 -1.02265,0.813595 -1.48828,1.140625 -4.1579,1.97222 -5.1573,-4.248401 -0.91797,-14.394531 2.82811,-6.76862 5.14454,-15.460103 5.14454,-19.314453 0,-0.30431 0.005,-0.582615 0.0117,-0.859375 0.76294,-2.28619 1.12221,-3.389407 1.36524,-4.154297 0.49144,-0.30466 1.14706,-0.440189 2.02539,-0.417969 z M 297.62109,97.65625 c 1.23388,-0.002 2.51048,0.107993 3.89258,0.320312 l 26.75,8.962888 c 43.35462,14.52515 72.28766,29.5548 100.44336,52.17969 4.96871,3.99266 9.72984,8.03681 14.26367,12.10156 2.18994,2.14086 4.45081,4.36871 6.89453,6.79883 7.42586,7.38452 13.60678,13.69841 18.86524,19.32422 16.16677,18.83719 26.25495,36.7502 27.92578,50.69531 1.12983,9.42979 -0.0638,10.90699 -11.23437,13.90039 -6.87462,1.84217 -19.73154,3.29463 -28.57032,3.22852 -8.83879,-0.0662 -16.96188,1.29944 -18.05078,3.03515 -0.63236,1.008 -1.99381,0.86604 -3.77344,-0.0664 -2.55585,-2.23103 -5.80343,-5.22606 -9.46289,-8.75195 -2.72008,-2.86302 -5.36351,-5.85009 -7.71875,-8.6875 -3.75364,-5.3046 -6.25763,-10.29876 -5.37695,-12.59375 1.92521,-5.017 -0.19812,-5.97828 -13.26953,-5.9961 -6.96808,-0.0101 -11.13469,-0.4379 -14.22461,-2.04883 -0.342,-0.19311 -0.68271,-0.38947 -1.01563,-0.5957 -2.24347,-1.48193 -3.94328,-3.73921 -5.90234,-7.17578 -3.16107,-5.54512 -14.5494,-14.32201 -26.23437,-20.21875 -11.35616,-5.73078 -21.46844,-12.56079 -22.47266,-15.17774 -1.00422,-2.61696 -3.37715,-4.75781 -5.27149,-4.75781 -1.89433,0 -5.85452,-2.4092 -8.80078,-5.35547 -1.3376,-1.33761 -2.95285,-2.54085 -4.53711,-3.46484 -1.29668,-1.11991 -2.94529,-1.89258 -4.30078,-1.89258 -0.30209,0 -0.5604,0.0496 -0.79687,0.1211 -0.75207,0.04 -1.09089,0.36531 -1.06055,0.89648 -0.26581,0.64984 -0.12546,1.55335 0.49219,2.55273 1.06296,1.7199 3.19044,3.16496 5.02148,3.49805 4.78133,4.04529 2.24108,4.19162 -17.64843,2.73242 -21.0196,-1.54212 -23.3418,-1.04952 -23.3418,4.95703 0,3.66841 1.35838,6.66993 3.01758,6.66993 1.6592,0 2.02447,1.60613 0.81054,3.57031 -0.57427,0.92919 -1.28748,1.66303 -2.0957,2.22265 -0.4043,0.19302 -0.76021,0.37295 -1.21484,0.58008 -0.42319,0.19283 -0.75336,0.3216 -1.14258,0.49219 -4.92814,1.28013 -11.62827,-1.99822 -15.11524,-8.51367 -3.24504,-6.06344 -4.07045,-16.31138 -2.6582,-33.03516 2.96952,-35.16462 6.63938,-42.20045 27.51953,-52.78125 l 13.47656,-6.828122 c 2.0641,-0.596411 3.9453,-0.895018 5.91797,-0.898438 z m -16.81836,68.08398 c -1.45139,0.0377 -2.51171,2.18278 -2.51171,5.46875 0,0.42959 0.0257,0.84399 0.0605,1.25391 -0.0348,0.31067 -0.0605,0.62753 -0.0605,0.95313 0,1.76359 0.53403,3.00884 1.36132,3.51953 0.61037,1.00127 1.3726,1.62695 2.20899,1.62695 1.96417,-1e-5 3.57226,-2.31614 3.57226,-5.14648 0,-0.43176 -0.0507,-0.87541 -0.12109,-1.32032 0.0704,-0.30572 0.12109,-0.60468 0.12109,-0.88672 0,-1.04992 -0.52985,-1.9802 -1.33789,-2.59765 -0.61441,-1.09864 -1.38599,-2.0245 -2.23437,-2.54883 -0.36829,-0.22761 -0.72367,-0.33096 -1.0586,-0.32227 z m 387.95899,2.10743 c 5.58593,0 9.34868,0.63259 11.86523,2.79687 1.08234,1.09504 1.96022,2.456 2.62305,4.08789 1.2451,4.04914 1.91872,9.29249 2.10156,15.74219 0.0137,0.60652 0.0214,1.21967 0.0254,1.83594 -0.32326,11.43344 -3.04868,24.26986 -7.06054,34.52929 -3.37634,6.7284 -7.98504,12.96279 -13.90235,18.83399 -3.32245,1.43418 -8.93424,5.63466 -12.78515,9.61914 -4.00895,4.14803 -5.17498,4.81121 -2.5918,1.47265 2.64471,-3.41809 3.26565,-6.95498 1.41992,-8.0957 -4.54283,-2.80763 -14.17586,4.87837 -16.17969,12.44336 -0.731,1.2385 -0.90547,2.10814 -0.55468,2.66797 -0.59721,2.29776 -1.78666,4.43252 -3.14063,5.72266 -0.18234,0.0859 -0.33798,0.1672 -0.52734,0.2539 -0.84456,0.38672 -1.66697,0.74932 -2.47461,1.08789 h -0.002 c -1.21218,-0.0605 -1.57453,-1.19652 -1.07617,-3.22851 1.05104,-0.27491 1.76758,-0.77453 1.76758,-1.34961 0,-0.38086 -0.32275,-0.9261 -0.83789,-1.51758 1.07842,-3.40171 0.14646,-4.41341 -3.05664,-3.3457 -0.39163,0.13054 -0.76828,0.31209 -1.13477,0.51953 -1.12142,-0.15558 -1.92581,0.4822 -2.07226,1.73437 -1.10554,1.28951 -1.82617,2.89496 -1.82617,4.4336 0,7.13099 -8.60844,7.49227 -24.10547,1.01367 -15.33105,-6.40925 -16.17677,-10.85229 -6.23047,-32.76953 11.10712,-24.47507 19.98148,-34.79844 44.88476,-52.20703 12.31358,-8.60782 22.70673,-13.94058 30.82618,-15.95118 1.39624,-0.21175 2.74649,-0.33007 4.04492,-0.33007 z m -371.6211,1.53906 c -0.67167,0.045 -1.50421,0.25158 -2.48242,0.62695 -3.11038,1.19357 -5.65429,3.73855 -5.65429,5.65625 0,3.92725 5.67204,2.50242 8.57031,-1.1914 1.38167,-0.31793 1.90557,-0.91476 1.17578,-1.64454 -0.0343,-0.0344 -0.0855,-0.0592 -0.12305,-0.0918 0.0963,-0.21593 0.1985,-0.43141 0.27344,-0.65625 0.54368,-1.63105 0.10842,-2.55406 -1.14258,-2.69141 -0.18765,-0.0206 -0.3933,-0.0228 -0.61719,-0.008 z m -3.66015,23.9082 c 2.21481,-0.0476 2.66601,2.04797 2.66601,6.25781 0,9.17573 -5.07017,12.50521 -32.9746,21.66016 -33.32208,10.93238 -38.98732,16.29153 -41.16407,38.94531 -0.35384,3.68239 -0.76349,6.76045 -1.27539,9.36524 -1.60349,4.84549 -3.84028,8.89513 -6.91406,12.57617 -0.37383,0.23994 -0.7613,0.47254 -1.16992,0.6875 -9.78219,5.14628 -12.50594,9.41337 -12.83399,21.26758 -0.37643,2.16215 -0.38009,4.13743 0.0195,5.76172 0.32056,7.00842 2.1589,8.0498 9.70899,8.13671 5.40148,0.0621 24.28337,6.19745 41.96094,13.63282 24.22771,10.19039 32.4099,15.33204 33.22851,20.89062 1.13461,7.70445 4.48215,11.47066 26.5918,29.92188 12.69755,10.59654 13.39258,12.26907 13.39258,32.23437 0,11.5815 1.26069,21.05664 2.80078,21.05664 1.54023,0 11.52849,-8.83767 22.19726,-19.64062 10.66875,-10.80297 22.06423,-19.64258 25.32422,-19.64258 3.26,0 14.62027,-3.84271 25.24414,-8.54102 17.80168,-7.87287 27.26886,-16.89018 29.85938,-29.7207 1.91136,-4.89576 1.84144,-8.85883 -0.0996,-17.34961 -0.30878,-1.88527 -0.6908,-3.82954 -1.16602,-5.84961 -5.64001,-23.9759 -5.66404,-27.28029 -0.30859,-40.32031 l 2.10156,-5.11914 c 1.15249,-1.41152 2.11088,-1.96164 3.00196,-1.74805 l 1.71484,9.34961 c 1.4362,7.83216 7.88665,19.24595 15.87305,28.08594 13.16044,14.56705 13.40122,15.33166 10.94335,35.00391 -5.13085,41.06575 -24.62332,74.87003 -56.21679,97.49804 -6.67662,4.78209 -8.78746,5.64496 -8.14258,2.94336 0.0121,-0.046 0.0219,-0.0853 0.0352,-0.13281 0.0917,-0.35201 0.23472,-0.77358 0.4082,-1.23633 0.87468,-0.95001 1.42383,-1.95332 1.42383,-2.83008 0,-0.77857 -0.22483,-1.34411 -0.60547,-1.72656 0.98738,-1.40745 0.78436,-1.51841 -0.71094,-0.45117 -0.0247,-0.009 -0.0549,-0.0111 -0.0801,-0.0195 -0.28916,-0.27068 -0.67277,-0.41982 -1.11328,-0.48242 -1.87929,-0.3161 -4.96436,1.24268 -7.91406,4.79687 -0.0538,0.0648 -0.0887,0.11809 -0.14063,0.18164 -0.0491,0.058 -0.0994,0.10503 -0.14843,0.16406 -3.04348,3.66713 -3.4268,4.98561 -1.05664,5.3711 0.44377,0.30319 1.03349,0.57369 1.79101,0.82617 0.24996,0.0833 0.47441,0.17254 0.67578,0.26367 -0.49478,1.08283 -2.9288,2.96814 -6.76758,5.08203 -7.10833,3.91406 -21.52847,6.28408 -42.85351,7.04297 -34.55643,1.23029 -62.21419,-5.67839 -100.59375,-25.12695 -1.86656,-0.94586 -3.72661,-1.95606 -5.58008,-2.99805 -5.15031,-2.99133 -10.13188,-6.17183 -14.94336,-9.50781 -34.21275,-24.33932 -63.38749,-62.97127 -71.7793,-97.21485 -10.15996,-41.4587 2.19275,-77.67493 34.94922,-102.46874 6.98005,-5.28327 11.89348,-9.01639 16.10938,-11.87305 7.72751,-4.08003 16.29073,-7.65826 25.72461,-10.75391 4.13603,-1.05333 9.03594,-2.21533 15.10156,-3.66406 15.97925,-3.81654 34.18182,-10.11243 40.45313,-13.98828 7.05691,-4.36135 11.03714,-6.5501 13.25195,-6.59766 z m 12.4043,0.125 c 1.93423,0.036 5.28279,1.30017 11.15625,3.34766 3.03606,1.05838 5.37255,1.99637 7.0996,2.92383 0.35441,0.19981 0.68055,0.39247 1.00391,0.58593 0.002,10e-4 0.004,0.003 0.006,0.004 v 0.002 c 0.6153,0.67548 1.02762,1.36796 1.24023,2.10547 0.52768,1.96741 -0.43524,4.24819 -2.625,7.38867 -0.14722,0.20631 -0.29996,0.41656 -0.45312,0.62696 -0.77233,0.75692 -1.61166,1.55028 -2.58203,2.42382 -3.83122,3.44889 -5.66897,6.11759 -6.21094,11.39258 l -0.26562,-1.01953 0.2207,1.52149 c -0.14269,1.68129 -0.16436,3.63158 -0.082,5.93554 -0.006,0.10746 -0.02,0.17237 -0.0254,0.28711 -0.0224,0.47422 -0.0259,0.97896 -0.0234,1.49219 -0.46474,4.33064 -0.12292,8.5765 1.06055,12.44141 0.73578,11.60377 -0.17383,20.99429 -2.54492,25.35156 -3.87224,7.11582 -5.11316,7.36643 -15.28516,3.07617 -6.08962,-2.56842 -12.06686,-7.25916 -13.28125,-10.42383 -1.21441,-3.16468 -6.07898,-5.7539 -10.81055,-5.7539 -4.73159,0 -10.80818,-2.66076 -13.5039,-5.91407 -2.02857,-2.4482 -3.26252,-3.66153 -4.16602,-3.37109 -1.39405,-1.31273 -1.76854,-0.30881 -1.66016,3.39844 -0.28476,1.17723 -0.56989,2.58687 -0.89453,4.4375 -1.53281,8.73809 -3.50981,10.37695 -12.5,10.37695 -8.87898,0 -10.86311,-1.58599 -11.76953,-9.4082 -0.11439,-0.98722 -0.11096,-1.956 -0.006,-2.91211 0.1979,-1.02753 0.43118,-2.05048 0.73438,-3.05274 3.35922,-8.96106 17.26084,-16.63153 43.21679,-24.02539 25.75388,-7.33629 30.11846,-10.41979 30.33399,-22.54297 0.003,-0.16846 0.0215,-0.32471 0.0215,-0.49609 0,-4.72673 1.09176,-8.7586 2.59571,-10.19922 z M 671.125,207.13086 c -1.82109,0 -3.31837,1.38761 -3.5293,3.1543 -0.0253,0.13752 -0.041,0.27626 -0.041,0.41796 0,1.96417 1.51112,3.57032 3.35937,3.57032 0.0337,0 0.0714,-0.009 0.10547,-0.01 0.0357,0.001 0.0696,0.01 0.10547,0.01 0.66257,0 1.27527,-0.19396 1.80859,-0.51172 1.3717,-0.6242 2.74437,-1.75694 3.54883,-3.0586 1.21393,-1.96416 -0.29914,-3.57226 -3.36133,-3.57226 -0.4191,0 -0.82354,0.0367 -1.21679,0.0937 -0.25184,-0.0568 -0.51093,-0.0937 -0.7793,-0.0937 z m -325.03125,1.81641 c 3.16741,-0.0845 6.08789,1.12401 10.82227,3.57226 6.66948,3.44891 11.59413,9.61374 13.55859,16.97656 1.33445,5.00169 2.38849,7.8317 4.29492,9.33789 0.17938,3.37255 0.93474,4.23324 3.91211,3.45899 0.93638,0.10169 2.0544,-0.2748 3.43359,-1.04297 1.99635,0.16059 4.46678,0.16702 7.60938,0.10352 4.06542,-0.0821 7.04967,-0.0343 9.30664,0.32421 0.50832,0.18621 0.97436,0.38532 1.40039,0.59571 1.92482,1.41638 3.48177,3.52509 4.79688,6.37695 2.00022,5.98165 1.96234,14.70081 -0.0977,20.67383 -0.99331,1.37563 -2.2217,2.78616 -3.70313,4.26758 -1.35692,1.35693 -2.72812,2.54129 -4.10937,3.57422 -3.5369,1.46039 -8.21754,2.74792 -12.4668,3.30859 -3.45485,0.45586 -6.1009,0.56218 -8.42578,0.12109 -1.06455,-0.43445 -2.11273,-0.94893 -3.14062,-1.53515 -2.78645,-1.64105 -5.52261,-3.93843 -8.18164,-6.89063 -0.45075,-0.53186 -0.89484,-1.07801 -1.32422,-1.65039 -3.26382,-4.35078 -6.088,-9.55853 -7.57813,-13.64258 0.0881,-0.51088 0.25639,-0.99176 0.51367,-1.44726 0.81818,-0.50708 1.36452,-1.21576 1.68164,-2.03907 2.41488,-2.84906 1.67473,-5.29206 -2.6914,-9.6582 -5.19549,-5.1955 -6.13551,-5.7212 -7.64453,-0.57617 -1.32603,-0.0153 -1.75354,0.85631 -1.375,2.64453 -0.33551,0.714 -0.54297,1.50603 -0.54297,2.35547 0,0.44293 -0.0504,0.85 -0.14258,1.22461 -1.66658,2.99884 -4.27634,3.24841 -10.08398,1.86328 -7.39453,-1.76364 -11.0922,-2.82633 -12.93946,-5.50976 -0.54088,-2.50357 -0.81451,-6.00202 -1.13476,-10.9668 -0.0651,-1.00949 -0.0976,-1.79586 -0.14844,-2.69141 -0.14252,-2.70631 -0.21405,-5.04052 -0.12109,-6.89062 0.95988,-5.80016 3.90099,-8.08045 12.22265,-12.04883 5.71848,-2.72696 9.13141,-4.105 12.29883,-4.18945 z m 295.98633,3.97851 c -2.86472,0.12062 -8.67909,2.29112 -14.875,5.70899 -13.79891,7.6119 -30.87401,30.27681 -31.01758,41.17187 -0.008,0.61253 0.0363,1.139 0.10547,1.62109 -0.10441,0.41536 -0.16406,0.74131 -0.16406,0.95313 0,0.13038 0.0275,0.23339 0.0664,0.32422 -0.0185,0.098 -0.0664,0.25133 -0.0664,0.3125 0,0.56088 0.18392,0.85518 0.50195,0.93554 0.25234,0.32858 0.63462,0.37381 1.14844,0.13086 2.34759,1.06052 6.87672,-2.84793 10.75195,-10.34179 2.99461,-5.79096 11.47408,-15.0218 18.8418,-20.51367 15.57413,-11.60881 18.97904,-15.70209 16.45312,-19.78907 -0.18877,-0.30542 -0.60739,-0.47129 -1.21289,-0.50976 -0.16399,-0.0104 -0.34222,-0.0119 -0.5332,-0.004 z m -238.79688,8.84766 c -1.30946,0 -2.61859,0.83343 -4.28515,2.5 -3.33314,3.33312 -2.38116,4.28515 4.28515,4.28515 6.6663,0 7.6183,-0.95203 4.28516,-4.28515 -1.66656,-1.66657 -2.97571,-2.5 -4.28516,-2.5 z m 266.58399,4.23242 c -1.51778,-0.10555 -3.06957,1.20011 -4.18555,3.37305 -1.01404,0.94773 -1.69922,2.62278 -1.69922,4.53711 0,0.44395 0.0466,0.86804 0.11524,1.28125 -0.0686,0.31765 -0.11524,0.63005 -0.11524,0.92578 0,0.29604 0.0466,0.55014 0.11524,0.7832 0.10184,6.89701 0.32846,7.34988 4.26562,2.2207 1.27544,-0.44814 2.28007,-1.93284 2.62305,-3.82031 1.67773,-3.01637 2.38353,-6.00357 1.5625,-7.33203 -0.79606,-1.28806 -1.73042,-1.90261 -2.68164,-1.96875 z m -243.75391,16.83789 c -0.24373,-1e-5 -0.46962,0.26194 -0.66992,0.68359 -1.04416,-0.55636 -2.02403,-0.5834 -2.67578,0.0684 -1.28193,1.2819 0.6392,6.40759 4.26953,11.39063 8.72026,11.96957 11.95703,11.58211 11.95703,-1.42969 0,-5.89253 -1.60613,-10.71289 -3.57031,-10.71289 -1.96417,-1e-5 -3.59643,2.00962 -3.625,4.46484 -0.0302,2.4634 -0.77339,2.70973 -2.25977,0.80664 -1.12764,-2.9063 -2.66148,-5.27148 -3.42578,-5.27148 z m -52.97461,14.28516 c -6.3089,0 -10.34277,5.87617 -7.35351,10.71289 0.021,0.034 0.0451,0.0642 0.0664,0.0977 0.0827,0.43944 0.26044,0.82489 0.56055,1.125 4.55848,4.55848 10.92937,2.41199 11.77148,-3.46093 2.9e-4,-0.002 0.002,-0.004 0.002,-0.006 v -0.002 c 0.0111,-0.0779 0.0182,-0.15714 0.0273,-0.23632 0.043,-0.35064 0.0703,-0.71115 0.0703,-1.0879 0,-0.28261 -0.0138,-0.5597 -0.0371,-0.83398 -0.18468,-3.53442 -1.49726,-6.30859 -3.0957,-6.30859 -0.32749,0 -0.66787,0.0538 -1.01172,0.13867 -0.32402,-0.0896 -0.65774,-0.13867 -1,-0.13867 z m -38.20703,3.60156 c 6.36,0.0358 13.67889,2.4367 18.35352,7.11133 3.22453,3.22453 5.4726,8.79791 6.54882,15.01953 0.2232,1.74544 0.37424,3.53147 0.46485,5.32226 -0.0448,2.77713 -0.19491,5.56473 -0.45899,8.19727 -0.76683,4.9261 -2.20916,9.53057 -3.875,11.74609 -0.0734,0.0977 -0.14112,0.18124 -0.21289,0.27539 -3.28991,2.50563 -8.77413,2.61941 -14.61328,0.9375 -1.34605,-0.58052 -2.83919,-1.24706 -4.52929,-2.01172 -2.58916,-1.1714 -4.89779,-2.33066 -6.96485,-3.49804 -4.28001,-2.96174 -8.03342,-6.77859 -10.38672,-11.17578 -2.02522,-3.78416 -2.85789,-8.11938 -2.33008,-11.38868 0.0999,-0.46503 0.21383,-0.93771 0.33985,-1.41796 0.12583,-0.38468 0.27013,-0.75126 0.44531,-1.08594 1.57955,-3.01767 3.71401,-8.21607 4.79297,-11.65625 0.29702,-0.51105 0.59395,-0.99298 0.89648,-1.42774 2.81722,-3.6579 5.89837,-4.76675 11.5293,-4.94726 z m 85.75977,9.98242 c 0.69743,0.0464 1.32107,0.27489 1.92382,0.63867 0.59443,0.50664 1.20585,1.04322 1.91993,1.68946 0.0361,0.0326 0.06,0.0556 0.0957,0.0879 0.0393,0.0443 0.0777,0.0913 0.11719,0.13671 3.01766,3.8409 2.63188,7.38749 -1.59961,15.57032 -6.6128,12.78771 -7.19886,32.94737 -1.42383,48.91797 0.19458,0.53811 0.3679,1.08095 0.53125,1.625 0.33322,2.17304 0.71957,4.69485 0.99023,6.45703 0.13132,0.85503 0.23806,1.65719 0.33399,2.4375 0.0439,6.72374 -2.0036,13.34946 -5.73242,18.77929 -1.84625,2.38574 -3.96251,4.60872 -6.24805,6.55665 -2.76303,1.82035 -6.13584,3.63156 -9.74219,5.31835 -5.31086,2.05349 -12.06981,4.06268 -17.30469,5.04493 l -12.86132,2.41211 c -0.0686,-0.0569 -0.14348,-0.10975 -0.19922,-0.17383 l 3.2539,-11.34571 c 0.64875,-2.2621 1.22191,-4.17087 1.76953,-5.82617 0.31,-0.73888 0.5859,-1.35141 0.86915,-2 0.7825,-1.77876 1.51353,-3.32263 2.18164,-4.50586 2.20229,-2.56172 5.06709,-1.71885 10.8457,0.91407 6.70464,3.05486 10.09308,3.37335 10.24805,0.75585 3.44248,-0.24428 2.44642,-1.50643 -2.98047,-7.54101 -0.92562,-1.58063 -2.04283,-3.34418 -3.39844,-5.3418 -2.00998,-2.96185 -3.86893,-5.34312 -5.54492,-7.12695 -0.0769,-0.13872 -0.14138,-0.26633 -0.21485,-0.40234 -0.49131,-0.97296 -0.9304,-1.90903 -1.25781,-2.73829 -0.54892,-1.39028 -0.9797,-2.41458 -1.36328,-3.21484 l -1.57812,-3.92773 -0.63868,2.88281 -1.54101,-2.88086 -0.084,5.68164 c -0.0988,0.23045 -0.18999,0.509 -0.27539,0.82227 -1.12267,0.45515 -1.87723,1.84666 -2.19531,4.20898 -0.18257,1.35579 -0.46506,3.20498 -0.74023,4.92969 -0.303,0.43872 -0.62001,0.83259 -0.94922,1.1914 -0.40187,0.0855 -0.81871,0.047 -1.25391,-0.11132 -1.66406,-2.25118 -4.26043,-6.9041 -7.07422,-12.85352 -7.88666,-16.67539 -8.15443,-22.27498 -0.96289,-40.35547 1.43795,-2.56519 2.98719,-4.50083 4.61133,-5.75781 1.18992,-0.67813 2.56443,-1.23868 4.18164,-1.74414 1.11566,-0.17059 2.11416,-0.34319 3.13672,-0.51367 1.05138,-0.0901 2.16683,-0.14063 3.36328,-0.14063 8.23108,0 15.81721,-3.35753 24.18555,-10.70508 3.834,-3.3663 6.5917,-5.59534 8.73047,-6.85156 1.56982,-0.74491 2.80989,-1.07081 3.875,-1 z m 85.82421,0.75586 h 0.002 c 32.69413,0.0661 37.79572,2.35773 29.11328,13.08008 -5.10274,6.30164 -8.89305,7.41528 -20.20898,5.93555 -16.49357,-2.15684 -33.57227,3.53941 -33.57227,11.19726 0,6.48628 1.50246,6.63173 15.81641,1.54883 6.41487,-2.27795 15.40215,-1.8748 21.98046,0.0879 5.8352,2.70681 8.33926,5.96484 7.26172,8.94726 -1.05281,1.32997 -2.67519,2.74218 -4.63672,4.08008 -8.85223,4.36798 -24.87445,6.22848 -29.73828,2.14844 0.0177,-0.21307 0.0312,-0.43006 0.0312,-0.6543 0,-1.96417 -1.60808,-3.57031 -3.57226,-3.57031 -0.0346,0 -0.0672,0.009 -0.10157,0.01 -0.037,-10e-4 -0.0722,-0.01 -0.10937,-0.01 -0.70241,0 -1.23312,0.19335 -1.60156,0.51172 -1.04675,0.62444 -1.75782,1.75769 -1.75781,3.05859 0,0.12839 0.0237,0.25001 0.0371,0.375 -0.98652,1.24368 -1.75742,1.82155 -2.44921,1.63868 -0.32547,-0.5126 -0.64951,-1.06103 -0.97852,-1.67579 -0.10593,-0.19793 -0.2222,-0.38843 -0.33789,-0.58007 -0.042,-0.28432 -0.14087,-0.58286 -0.30078,-0.89258 -0.0145,-0.0245 -0.0272,-0.0486 -0.0449,-0.0742 -0.2505,-0.46041 -0.63376,-0.93623 -1.14649,-1.41016 -1.32296,-2.76869 -3.64167,-4.04975 -8.03515,-4.19531 -1.02469,-0.21314 -2.07962,-0.33008 -3.15235,-0.33008 -0.69927,0 -1.34761,0.0342 -1.96094,0.0899 -1.58569,-0.0695 -2.91003,0.0777 -3.83593,0.43359 -0.38375,0.0858 -0.70532,0.21061 -0.95118,0.37695 -7.84453,0.0591 -14.31134,-2.93279 -17.30859,-7.19531 -0.80493,-1.26092 -1.34484,-2.4757 -1.62695,-3.67187 -0.13636,-0.6704 -0.18614,-1.35864 -0.16016,-2.05469 0.48326,-2.69777 1.93703,-5.5255 4.36328,-8.47852 1.48201,-1.56079 3.34313,-3.21517 5.5918,-5.0039 11.78229,-8.4806 31.54442,-13.76651 53.39062,-13.72266 z m 74.57618,3.90625 c 2.51105,-0.0215 5.24015,0.1933 8.04297,0.59766 10.91431,2.79243 23.91792,8.93664 30.30273,15.42578 2.18413,2.91434 3.47461,5.96574 3.47461,8.9707 0,3.88494 -1.69718,6.73998 -4.79102,8.46875 -2.52537,0.95561 -5.77043,1.09768 -9.49414,0.16797 -3.92835,-0.98079 -9.67904,-1.80345 -12.78125,-1.83203 -1.58227,-0.13374 -1.76558,-0.44066 -2.68945,-0.79102 -0.17054,-0.11101 -0.33566,-0.2311 -0.49219,-0.36328 -1.15862,-1.44751 -1.63987,-3.19579 -1.3164,-5.19922 0.0823,-0.41471 0.17733,-0.84365 0.29687,-1.30078 1.22341,-4.6783 0.79888,-6.56408 -1.56445,-6.2793 -0.63306,-0.26713 -1.42048,-0.40039 -2.37305,-0.40039 -3.97459,0 -4.66835,2.06011 -3.62823,8.36133 -0.066,0.82354 4.20548,0.23361 4.20548,1.11967 0,7.43565 -7.50253,14.54288 -13.58311,19.21432 -14.54714,11.17593 -32.67043,6.28826 -37.27734,-6.09571 -0.63766,-1.92714 -0.99363,-3.99217 -1.09571,-6.13086 -0.0145,-2.04375 0.27359,-4.20533 0.95118,-6.47265 5.49205,-18.3771 12.26597,-24.88245 23.37109,-22.44336 6.54103,1.43666 10.48047,0.85351 10.48047,-1.55274 0,-0.57048 0.10017,-1.08012 0.28906,-1.5332 0.22785,-0.12717 0.44854,-0.25707 0.6582,-0.39258 0.0318,-0.0135 0.0701,-0.0255 0.10157,-0.0391 2.29518,-0.99479 5.39311,-1.46983 8.91211,-1.5 z m -321.79102,0.13477 c 2.10129,-0.01 4.21728,0.0474 6.33984,0.16601 5.76919,0.50855 12.17027,1.58062 19.78126,3.21289 3.79797,0.81452 6.90281,1.59323 9.54882,2.48242 4.7372,2.25134 8.97569,5.06355 12.53516,8.41211 1.59319,1.91745 3.18088,4.20673 4.95898,7.02344 5.75959,9.12378 13.83006,16.00864 23.11719,19.72461 7.31071,2.92517 12.942,6.14964 17.19141,10.12891 0.0812,0.0783 0.16547,0.15403 0.24609,0.23242 C 361.0089,334.52637 364,344.93333 364,361.28906 c 0,12.8835 -2.08598,24.71874 -5.50391,33.49024 -2.85241,4.65798 -6.48632,9.61871 -10.15429,14 -0.70363,0.37695 -1.41968,0.67414 -2.15039,0.86523 -3.9546,1.03423 -7.19141,3.29991 -7.19141,5.03516 0,1.73491 -1.60613,3.15429 -3.57031,3.15429 -1.96417,0 -3.62962,-5.22189 -3.69922,-11.60546 -0.17268,-15.83803 -7.1077,-27.11634 -23.52735,-38.25 -1.78025,-1.20715 -3.36458,-2.36966 -4.78906,-3.51563 -3.73825,-3.88644 -6.77419,-7.6065 -8.97851,-11.01367 -0.88527,-2.07315 -1.48624,-4.29851 -1.85938,-6.79297 -0.72288,-4.83233 -1.49857,-7.82745 -3.7207,-10.17187 -0.44347,-3.31798 -1.98249,-4.31633 -5.41602,-3.6836 -0.1052,-0.004 -0.20161,-0.012 -0.31054,-0.0137 -1.07655,-0.48311 -2.26672,-0.96997 -3.63477,-1.47461 -3.23812,-1.50913 -7.46941,-3.10047 -13.13281,-5.07617 -7.98958,-2.78718 -14.97604,-5.24122 -21.24414,-7.48438 -3.46819,-1.48804 -6.62426,-2.92418 -9.05078,-4.16211 -7.02702,-3.5849 -15.43569,-6.59976 -20.12305,-7.30664 -4.53549,-2.18841 -7.47073,-4.08744 -8.98438,-5.87695 -0.0604,-0.49716 -0.0937,-1.02111 -0.0937,-1.58594 0,-3.56651 2.29881,-6.69855 7.91016,-10.28711 1.41695,-0.85233 2.98998,-1.75882 4.69727,-2.71093 1.82399,-0.96682 3.85148,-1.97136 6.14062,-3.03711 8.46057,-3.93897 15.48023,-6.41754 22.63867,-7.60938 3.60798,-0.40653 7.29895,-0.6481 11.04883,-0.66601 z m 193.97852,24.47265 c -1.81916,0 -3.31583,1.38443 -3.5293,3.14844 -0.026,0.13928 -0.043,0.28024 -0.043,0.42383 0,1.96418 1.51307,3.57031 3.36133,3.57031 0.0342,0 0.0728,-0.009 0.10742,-0.01 0.0356,10e-4 0.0676,0.01 0.10352,0.01 0.66515,0 1.28169,-0.19557 1.8164,-0.51562 1.36895,-0.62503 2.74012,-1.75564 3.54297,-3.05469 1.21393,-1.96417 -0.30109,-3.57227 -3.36328,-3.57227 -0.41847,0 -0.82213,0.0369 -1.21484,0.0937 -0.25185,-0.0568 -0.51288,-0.0937 -0.78125,-0.0937 z m 118.10937,0.87696 c -2.36611,-0.10558 -5.34044,1.87172 -6.58203,5.5957 v 0.002 c -0.007,0.0223 -0.0106,0.0442 -0.0176,0.0664 -0.006,0.0177 -0.0155,0.0329 -0.0215,0.0508 -0.7712,2.31357 0.033,3.62502 2.13867,3.75976 0.61775,0.22944 1.33662,0.36524 2.14063,0.36524 0.0242,0 0.0481,-0.006 0.0723,-0.006 0.005,1.2e-4 0.0103,0.006 0.0156,0.006 0.009,0 0.0199,-0.007 0.0293,-0.008 0.36105,-0.008 0.71677,-0.0462 1.0586,-0.11914 0.0648,0.0162 0.12529,0.0438 0.1914,0.0566 0.23192,0.045 0.47128,0.0684 0.7168,0.0684 0.14359,0 0.28455,-0.015 0.42383,-0.041 1.76401,-0.21348 3.14648,-1.7121 3.14648,-3.53125 0,-0.20428 -0.0272,-0.40055 -0.0606,-0.5957 0.17904,-0.39523 0.2708,-0.79663 0.25,-1.18946 -0.0243,-0.46005 -0.12643,-0.85603 -0.25781,-1.22265 -0.004,-0.0316 -0.007,-0.0646 -0.0117,-0.0957 -0.0204,-0.13086 -0.0558,-0.24471 -0.084,-0.36718 -0.0486,-0.22325 -0.0996,-0.43931 -0.16992,-0.63282 -0.003,-0.007 -0.007,-0.0123 -0.01,-0.0195 -0.20038,-0.54212 -0.47613,-0.97081 -0.82031,-1.25 -0.57738,-0.55707 -1.32363,-0.85577 -2.14844,-0.89257 z m 57.63281,13.82812 c 0.4194,0.002 0.79512,0.0125 1.19922,0.0176 7.65701,0.56247 14.16925,1.69475 19.79688,3.53515 2.16204,1.0337 4.29725,2.32213 6.67969,3.94336 6.59199,4.48578 14.95104,12.17356 18.57617,17.08399 6.72643,9.11139 12.87713,33.51813 13.22265,49.00586 -0.0872,3.72603 -0.47704,7.19656 -1.17578,10.46875 -4.28064,13.69454 -19.9549,30.22954 -35.68945,37.37695 -6.02124,2.73493 -16.22745,4.73708 -26.87695,5.76367 -1.66561,0.0791 -3.23468,0.16521 -5.10157,0.23438 -14.35988,0.53206 -24.87855,-0.16978 -33.10156,-2.84375 -12.51507,-6.04602 -25.52881,-23.33915 -31.27734,-41.97461 -2.00152,-6.48821 -1.1002,-8.03516 4.6914,-8.03516 3.94478,0 8.16855,-1.60842 9.38477,-3.57617 0.91733,-1.48429 -0.72587,-3.41264 -3.68555,-5.22461 -0.5782,-0.41435 -1.31196,-0.81841 -2.21094,-1.20508 -4.79147,-2.36723 -11.53742,-4.27734 -17.16992,-4.27734 -8.85511,0 -12.76096,11.20836 -5.70312,16.36914 2.22776,1.62885 4.14738,4.04391 5.0293,6.12891 0.32038,1.09795 0.4605,2.10475 0.41992,2.9746 -1.05236,4.33387 -10.73419,-1.47291 -14.67383,-8.29882 -0.78386,-2.02709 -1.34098,-4.17038 -1.60938,-6.32618 0.32069,-8.68259 7.53927,-23.66135 15.63868,-35 5.16247,-6.30795 10.89137,-11.77429 16.1289,-14.98828 0.40967,-0.0902 0.80701,-0.14257 1.1875,-0.14257 2.53553,0 9.88797,-4.4916 16.33985,-9.98047 10.3021,-8.76437 15.01608,-10.08534 38.70117,-10.83594 4.32333,-0.13701 8.03487,-0.20938 11.27929,-0.19336 z m -17.41992,10.29492 c -10.38173,0 -18.99023,7.76597 -23.04101,17.27539 -0.0649,0.14673 -0.12739,0.29352 -0.18946,0.44141 -0.0693,0.16955 -0.13869,0.33921 -0.20507,0.50976 -0.14511,0.36805 -0.28064,0.73905 -0.40821,1.11329 -2.78112,7.99995 -2.32729,16.87901 2.90039,23.3164 0.22534,0.62741 0.46089,1.14055 0.70899,1.38867 0.50876,0.50876 1.07342,0.92955 1.66601,1.30274 5.35106,5.87646 5.9146,5.34307 19.38868,-1.05078 19.14274,-9.08376 21.8173,-33.97809 8.6582,-41.85938 -1.54258,-1.26344 -3.31869,-1.97357 -5.44531,-2.10351 -0.69751,-0.21481 -1.39482,-0.33399 -2.08204,-0.33399 -0.14603,0 -0.36035,0.0361 -0.55273,0.0625 -0.46201,-0.0286 -0.91685,-0.0625 -1.39844,-0.0625 z m -1.98242,3.21094 c 1.63669,0.0168 3.32164,0.22686 5.11719,0.63086 17.05774,6.70339 8.85781,17.83631 9.39648,22.74414 0.53866,4.90784 -11.79009,14.24438 -14.06445,15.44141 -2.27436,1.19704 -10.1154,3.53115 -12.98828,2.51367 -2.87288,-1.01748 -4.36948,-7.06207 -6.58399,-10.89258 -2.21452,-3.8305 -1.31574,-10.17552 -0.41797,-13.34766 0.89779,-3.17214 7.12302,-13.8847 11.49219,-15.56054 2.73073,-1.04741 5.32102,-1.55736 8.04883,-1.5293 z m -81.79102,1.92383 c 4.07966,-0.0406 7.57642,0.1415 9.89258,0.57226 l 7.88086,1.4668 0.0957,0.0332 2.60156,1.23047 -1.06055,1.66211 -11.30273,15.22266 c -12.7402,17.15483 -13.41781,17.5253 -32,17.52929 -10.44106,0.002 -22.09337,1.66809 -25.89258,3.70118 -0.41533,0.22227 -0.80268,0.42136 -1.16992,0.60351 -1.20361,-0.11215 -2.29363,-0.24609 -3.25196,-0.4082 -0.71639,-0.29418 -1.35275,-0.65235 -1.91015,-1.0918 -0.0183,-0.0346 -0.0386,-0.064 -0.0566,-0.0996 -0.43892,-2.13187 -0.51758,-5.70328 -0.51758,-11.21289 0,-8.74725 -1.06801,-18.68697 -2.37305,-22.08789 -0.22528,-0.58709 -0.39863,-1.09899 -0.53906,-1.57226 0.64119,-1.54296 1.93585,-2.43536 4.4668,-2.96875 0.76541,0.15287 1.61951,0.34629 2.59765,0.59179 4.89408,1.22833 18.41549,0.67672 30.04883,-1.22656 7.27085,-1.18959 15.69082,-1.87759 22.49023,-1.94531 z m -395.07031,0.50586 c 0.83959,0.009 1.44247,0.20947 1.86524,0.59179 0.3609,0.88144 0.59351,2.11431 0.73437,3.74024 -0.35986,2.46506 -1.87817,5.10098 -3.68359,6.2168 -2.50312,1.54701 -1.90308,5.16689 1.78711,10.79882 0.93625,1.4289 1.74536,2.98132 2.44726,4.60547 0.14201,4.38696 0.30679,8.84313 0.49024,12.72266 0.5186,10.96689 -0.75326,18.06775 -3.39453,18.96484 -2.04008,0.69311 -4.2923,-0.70273 -6.28711,-3.30273 -1.83123,-3.7309 -3.51565,-9.51867 -4.84571,-17.22656 -0.31995,-1.85416 -0.67928,-3.50093 -1.05859,-5.01758 -0.6746,-5.4394 -2.45137,-9.34345 -4.32812,-10.29102 l -0.13672,-0.6582 -0.13477,0.53906 c -1.2373,-0.4318 -2.49588,0.43728 -3.48828,3.02344 -0.98145,2.55761 -1.81403,7.17791 -2.13477,11.40039 -1.53162,7.10226 -5.20068,8.04593 -6.66992,2.61133 -0.26955,-5.58692 1.29825,-13.2343 3.82422,-20.15235 4.27613,-7.61518 11.04694,-14.46105 17.69141,-16.77734 3.4256,-1.19417 5.77026,-1.80524 7.32226,-1.78906 z m 363.71094,47.92773 c 19.45083,0 20.56708,0.4956 24.12891,10.71289 4.1878,12.01325 5.19703,11.71552 -22.67578,6.70508 -16.02508,-2.88053 -25.03757,-4.50399 -29.44727,-5.9043 -1.70428,-0.88929 -2.78982,-1.81791 -3.25586,-2.75195 0.27381,-0.43613 0.59019,-0.89205 0.94922,-1.36719 0.73258,-0.67014 1.73737,-1.42395 2.97656,-2.33008 4.06652,-2.97341 15.3525,-5.06445 27.32422,-5.06445 z M 91.728516,379.0625 c 0.996192,0.0909 1.986271,0.4466 3.037109,1.07422 0.54542,0.68079 1.114918,1.61532 1.796875,2.83398 1.864484,3.3316 10.57217,9.23455 19.34961,13.11719 4.71674,2.08642 8.95843,4.66206 11.88672,7.05664 1.48192,1.83497 2.28515,3.6926 2.28515,5.46485 0,3.01704 -0.4395,5.07674 -1.66601,6.15429 -3.82127,0.39277 -11.47469,-3.14034 -26.05078,-11.11328 l -18.394534,-10.0625 c -2.044518,-1.95475 -3.137453,-3.69678 -3.339844,-5.32812 l 5.064454,-4.58204 c 2.862537,-2.59062 4.668227,-4.10363 6.03125,-4.61523 z m 66.876954,17.34375 c 6.56671,0 48.25976,49.49344 48.25976,57.28906 0,3.73158 -5.10167,14.02374 -11.33789,22.8711 -8.23381,11.68146 -12.12411,15.05364 -17.49023,14.41797 -0.39221,-0.098 -0.79936,-0.16442 -1.2168,-0.20118 -0.1825,-0.0392 -0.35817,-0.0703 -0.54492,-0.11718 -4.35248,-1.09243 -8.98654,-0.24845 -10.29883,1.875 -4.48672,7.25959 -8.5722,3.84101 -25.07617,-20.98438 l -10.22266,-15.37891 c -2.77177,-5.51182 -4.31596,-9.8062 -4.58007,-12.7832 l 4.36132,-8.44141 c 10.80689,-20.91953 23.6772,-38.54687 28.14649,-38.54687 z m 541.10547,1.04492 c 2.5075,0.0511 6.21495,1.34688 10.42578,3.42383 3.22843,1.9592 7.14584,4.68194 12.01758,8.25586 12.64081,9.27341 20.18167,18.68528 22.89062,29.04687 0.17776,1.27178 0.3171,2.56399 0.41406,3.87305 0.0191,0.30563 0.0457,0.60836 0.0606,0.91602 0.005,0.0911 0.009,0.18221 0.0137,0.27343 0.22211,5.05839 -0.1328,10.35294 -0.92187,15.30274 -0.99562,3.73999 -2.45017,7.62341 -4.375,11.67969 -2.12241,4.47267 -3.98454,7.33098 -5.51758,8.51953 -0.62611,0.28649 -1.26738,0.47445 -1.92383,0.5664 -0.40375,-0.13137 -0.76678,-0.45235 -1.08594,-0.96875 -3.63254,-5.87752 -10.58593,-0.91235 -10.58593,7.5586 0,1.73839 -0.41894,3.14087 -1.15039,4.23242 -1.61005,1.04114 -3.71646,1.68467 -6.43555,2 -1.87004,0.21685 -3.70794,0.13952 -5.49609,-0.19531 -4.12869,-1.48724 -8.51979,-4.50683 -12.00977,-8.92774 -6.21753,-7.87598 -7.43279,-13.18715 -6.13672,-26.82031 0.89034,-9.36554 4.50571,-20.19033 8.04883,-24.10547 1.94748,-2.15189 3.1908,-4.08461 3.58203,-5.39062 0.67066,-1.07538 0.56646,-1.57218 -0.17969,-1.52149 -0.15905,-0.12106 -0.37507,-0.19336 -0.66211,-0.19336 -0.36438,0 -0.79286,0.10134 -1.24609,0.2461 l 1.08008,-2.03125 -0.64063,0.59375 0.17774,-0.39063 -3.6211,3.40039 c -1.18552,0.82208 -2.37385,1.86267 -3.4082,3.01367 -0.98785,0.71418 -2.02426,1.48936 -3.13281,2.36133 -1.39711,1.09899 -2.65348,2.01606 -3.78516,2.7832 -1.13914,0.45579 -2.24181,0.73633 -3.17969,0.73633 -4.00699,0 -3.5593,-2.05824 1.97657,-9.0957 3.9351,-5.00293 8.19677,-13.84059 9.4707,-19.64063 1.07907,-4.91304 2.28529,-7.98572 4.39062,-9.17578 0.308,-0.12346 0.6234,-0.23188 0.94532,-0.32617 z m -635.156252,6.10156 c 18.928957,0.005 47.026722,12.11472 52.199222,22.49805 3.78827,7.60422 3.49782,12.18366 -1.78516,28.11133 -7.72094,23.27763 -16.882512,26.00794 -38.234375,11.40234 -13.958924,-9.54862 -30.887089,-14.58617 -41.595703,-13.42773 -3.715271,0.008 -6.426882,0.81035 -7.597656,2.54297 -0.01422,0.0211 -0.03521,0.0391 -0.04883,0.0605 -0.0022,0.003 -0.0038,0.006 -0.0059,0.01 -0.0022,0.003 -0.0056,0.006 -0.0078,0.01 -0.049,0.077 -0.08521,0.14118 -0.132813,0.21679 -0.456499,0.3841 -0.872601,0.79867 -1.222656,1.25977 -4.440668,5.84968 -4.775105,5.79462 -5.386719,-0.9043 -0.867157,-9.4977 0.256285,-21.87809 2.431641,-29.58789 1.792185,-3.75231 4.053848,-7.15155 6.748047,-9.8457 0.396823,-0.39683 0.798355,-0.78317 1.203125,-1.16211 8.448585,-6.01691 22.860184,-11.18583 33.435547,-11.1836 z m 406.257812,0.48633 c 5.00086,-0.11804 12.69349,1.16313 26.17578,3.95117 13.71904,2.83661 27.82498,7.45493 34.00781,10.98438 0.66399,0.41422 1.30286,0.83134 1.88868,1.24805 0.004,0.003 0.009,0.007 0.0137,0.01 0.10647,0.0839 0.23791,0.17208 0.33203,0.25391 4.14978,3.60837 13.16835,9.34184 20.04297,12.74023 4.77544,2.36067 11.29204,5.93988 16.89258,9.2168 1.94093,1.30236 3.94495,2.50911 6.0039,3.61914 0.20571,0.1299 0.44216,0.27469 0.63867,0.40039 17.45234,11.16401 49.12756,12.86035 74.27735,3.97656 5.97559,-2.11078 11.72982,-3.78051 16.1582,-4.77148 9.24683,-0.83413 9.72647,3.60741 11.00195,15.76758 0.005,0.37272 0.0215,0.7354 0.0215,1.11133 0,11.19582 1.80311,16.96192 8.60937,25.40624 1.45047,2.06545 3.06477,3.92381 4.81836,5.5625 1.84778,2.04157 3.50407,3.77713 4.97461,5.08204 1.55705,1.43839 3.03431,2.47729 4.62305,3.18164 1.50354,0.6953 3.05962,1.06407 4.82617,1.19922 2.43426,0.24672 5.31892,0.15423 9.07031,-0.12305 l 8.91602,-0.6582 c 3.75614,0.63902 6.38944,2.63323 8.4668,6.95117 l 2.56835,7.53125 c 1.67711,6.63015 3.06465,15.99885 4.7168,29.08789 1.73179,13.72008 2.31123,25.50636 1.86524,34.09765 -2.4e-4,0.003 2.3e-4,0.005 0,0.008 -0.38123,3.98015 -0.91865,7.64823 -1.59961,10.88867 -1.14251,3.594 -2.82728,5.00467 -5.00586,3.6582 -0.60059,-0.3712 -1.58828,-0.22932 -2.80469,0.27149 l -0.56195,-0.47963 -1.08258,-0.0809 c -1.11289,-0.0832 -3.18537,2.08738 -7.10742,6.16406 -1.29779,1.34894 -2.45978,2.7128 -3.47266,4.01953 -0.88258,0.96915 -1.64779,1.91144 -2.29101,2.80078 -2.13402,0.0375 -2.73756,1.02233 -1.87696,3.53125 -0.32145,0.71305 -0.48939,1.31099 -0.45312,1.73438 0.0253,0.29491 -0.0462,0.59405 -0.1836,0.89258 -1.30378,0.7845 -3.61257,1.66529 -6.49414,2.38867 -4.94226,1.24033 -8.98801,3.79547 -9.08398,5.71484 -0.65646,0.69386 -1.14486,1.39537 -1.40235,2.06641 -0.011,0.0287 -0.0256,0.0536 -0.0371,0.082 -1.30483,0.85921 -3.37338,1.42578 -5.71289,1.42578 -1.61622,0 -2.95434,0.28391 -4.02539,0.83594 -2.15386,0.005 -3.10748,1.85597 -3.11523,5.80664 -8e-5,0.006 -0.002,0.0117 -0.002,0.0176 v 0.002 c 0,0.003 -2e-5,0.007 0,0.01 -10e-6,0.006 0,0.009 0,0.0156 0,0.0389 0.004,0.065 0.004,0.10352 -2.1e-4,0.0105 -0.004,0.0207 -0.004,0.0312 0,0.0186 0.005,0.0344 0.006,0.0527 0,0.002 -10e-6,0.004 0,0.006 -7.9e-4,0.0589 -0.006,0.11422 -0.006,0.17383 0,0.0922 0.007,0.15447 0.008,0.24414 -10e-4,0.0332 -0.008,0.0662 -0.008,0.0996 0,0.07 0.0119,0.13295 0.0176,0.19922 0.02,1.3952 0.1149,2.49815 0.37891,3.26562 0.0319,0.84568 0.33235,1.29553 1.08203,1.33399 0.93499,0.44815 2.44935,0.22141 4.85547,-0.56055 1.0044,-0.32198 2.14647,-0.73052 3.48633,-1.23633 6.60546,-2.47997 8.53201,-2.52789 6.33008,-0.17968 -1.06276,0.62399 -2.14669,1.23306 -3.24414,1.82812 -1.82436,0.89679 -3.6831,1.73936 -5.53516,2.52539 -2.35982,0.7662 -4.94921,1.44261 -7.48242,1.91797 -7.37323,1.38367 -10.13073,1.54 -9.72461,0.0527 0.15702,-0.31987 0.33456,-0.65275 0.53906,-1 0.30997,-0.42649 0.72592,-0.91529 1.26172,-1.48632 0.89888,-0.95802 1.64788,-1.85945 2.26562,-2.69532 0.95534,-1.03019 1.68751,-2.37276 2.00977,-3.66015 l 0.11775,-0.4838 0.0404,-0.31112 c 0.009,-0.11213 0.0184,-0.22419 0.0137,-0.32422 0.003,-0.0626 0.0176,-0.12978 0.0176,-0.19141 0,-1.40013 -1.39759,-1.36039 -3.46484,-0.18164 -0.0319,0.0176 -0.0673,0.0424 -0.0996,0.0606 -0.3094,0.18003 -0.62234,0.36769 -0.95898,0.59765 -0.40484,0.2739 -0.8324,0.58739 -1.28516,0.94727 -0.46362,0.36851 -0.94944,0.77733 -1.46094,1.24023 -0.42019,0.38029 -0.81837,0.78241 -1.20117,1.19336 -3.27321,3.45647 -5.18878,7.67341 -4.33789,9.89063 1.72276,4.48939 -10.75576,10.77829 -17.54883,8.84375 -1.96417,-0.55961 -13.61453,0.0528 -25.89062,1.36133 -13.80542,1.47182 -21.78837,4.18477 -22.33203,6.9082 -1.12857,0.78781 -1.04325,1.43477 0.68164,1.77734 0.54051,0.52178 1.43182,1.03598 2.6289,1.53711 0.40004,0.16993 0.83021,0.33698 1.30469,0.50195 0.75683,0.26029 1.58857,0.51708 2.53906,0.76563 0.41499,0.10853 0.80736,0.22157 1.17578,0.34961 h 0.002 c 0.0602,0.0209 0.10899,0.0506 0.16797,0.0723 3.11824,1.15052 4.57216,3.5172 5.23828,12.74805 0.32128,7.04479 0.13553,17.96219 -0.23243,35.31445 l -0.71874,33.91993 c -0.50583,5.24202 -1.10504,9.05191 -1.75391,10.77148 l -7.76953,6.93164 v -0.0156 c -6.06838,5.41648 -15.70344,12.81343 -21.41016,16.4375 -9.53192,6.05288 -10.56017,6.1082 -12.64844,0.66601 -1.25025,-3.25805 -0.49081,-9.8376 1.68946,-14.62304 0.91611,-2.0105 1.47514,-3.64298 1.74804,-4.93165 1.38252,-1.53576 1.89063,-2.83119 1.38477,-3.42968 -0.094,-0.11115 -0.22178,-0.19715 -0.38477,-0.25782 -0.16299,-0.0607 -0.3605,-0.0951 -0.59375,-0.0996 -0.23324,-0.002 -0.5289,0.0771 -0.87695,0.23047 -0.0128,0.006 -0.0262,0.0157 -0.0391,0.0215 -0.20051,-0.13836 -0.45489,-0.2207 -0.77539,-0.2207 -0.79405,0 -1.92513,0.69264 -3.20508,1.86523 -1.86872,1.40827 -4.18141,3.73876 -6.78516,7.04883 -9.97889,12.68608 -16.50434,11.62912 -9.67968,-1.56836 7.53003,-14.56132 18.95766,-21.64453 34.92187,-21.64453 4.34638,0 7.42577,-0.21456 9.75195,-0.92774 1.15915,-0.16895 2.09823,-0.61885 2.89063,-1.41015 2.0038,-1.47245 3.31267,-3.81206 4.73047,-7.48243 1.87243,-4.84711 2.64875,-10.91903 2.50976,-17.25585 0.56029,-4.70227 0.11463,-8.52285 -1.58593,-13.21094 -1.61857,-7.4005 -4.39409,-14.27124 -8.13672,-19.0293 -0.99628,-1.26617 -1.8585,-2.48097 -2.60352,-3.66602 -2.24532,-5.58282 -3.50157,-10.56725 -3.37305,-13.73242 0.0836,-0.67371 0.19994,-1.36141 0.34571,-2.0625 0.21127,-0.71904 0.35157,-1.41042 0.40234,-2.07226 1.34772,-7.10369 -0.0498,-8.58453 -8.23633,-10.39649 -19.80149,-4.38262 -27.92022,-7.91433 -27.07226,-11.77734 0.55397,-2.52342 -2.94713,-3.15973 -9.82031,-1.78516 -1.11762,0.2235 -2.12241,0.40642 -3.0254,0.54493 -3.18924,-0.4189 -5.6797,-1.34691 -7.45898,-2.77344 -0.13925,-0.74058 -0.19727,-1.62203 -0.19727,-2.67188 0,-3.30058 -1.61151,-6.86523 -4.08398,-10.0039 -0.26333,-1.04026 -0.60623,-1.69532 -0.98242,-1.69532 -0.12313,0 -0.3213,-0.0287 -0.55469,-0.0742 -3.8627,-4.08424 -9.1194,-7.08203 -13.84766,-7.08203 -0.41795,0 -0.74579,0.015 -1.10351,0.0254 -0.0631,-10e-4 -0.12844,-0.0117 -0.19141,-0.0117 -0.19335,0 -0.3339,0.0149 -0.50976,0.0195 -0.11901,-0.003 -0.2388,-0.0195 -0.35742,-0.0195 -1.29373,0 -2.04428,0.2275 -2.26758,0.75781 -0.0154,0.0276 -0.0251,0.0585 -0.0371,0.0879 -0.006,0.0194 -0.0132,0.0364 -0.0176,0.0566 -0.20141,0.63072 0.35222,1.67637 1.59766,3.28906 0.28256,0.36589 0.57217,0.7376 0.92773,1.16602 2.24621,2.70671 2.80115,4.66082 1.58789,5.20117 -0.0121,0.005 -0.0246,0.009 -0.0371,0.0137 -0.39751,-0.11004 -0.8435,-0.24682 -1.36133,-0.41797 -2.84116,-0.93889 -10.63955,-9.63581 -17.33203,-19.32812 -2.66278,-3.8563 -4.71477,-6.86924 -6.32226,-9.59375 -1.42574,-2.82918 -2.67494,-5.66207 -3.72266,-8.51758 -1.73249,-6.50987 -1.41521,-14.55407 -0.60938,-31.6543 0.54033,-11.46625 0.96218,-18.94658 2.2461,-25.57617 2.99293,-9.07402 7.12151,-18.90532 12.39258,-29.73828 2.13032,-3.89176 4.56188,-8.23521 7.43164,-13.33203 6.58312,-11.69179 12.10552,-22.67851 15.33984,-30.23633 l 5.02344,-9.49609 -3.58399,-2.12891 c -9.43181,-8.70971 -52.90526,-30.46457 -61.9414,-30.50781 -0.7736,-0.004 -1.49201,-0.0324 -2.17188,-0.0742 -0.82638,-0.26613 -1.5715,-0.5621 -2.26562,-0.87695 -1.8577,-0.9928 -3.22557,-2.03126 -4.06445,-3.12891 -0.10877,-0.63564 -0.0223,-1.32898 0.27343,-2.09961 0.17173,-0.4475 0.32718,-0.89171 0.48633,-1.33789 0.88422,-1.07678 2.09174,-2.25946 3.64063,-3.54492 2.0903,-1.73491 4.35067,-2.67382 8.24023,-2.76563 z m -10.81055,25.56446 c 0.45628,-0.0179 0.91862,-0.0171 1.39063,0 1.74281,0.0631 3.61818,0.34937 5.8164,0.76171 13.86325,2.60093 29.93734,10.09258 42.28125,19.70704 10.22621,7.9649 5.04451,12.96757 -17.86718,17.24804 -19.64341,3.66971 -34.1321,11.81205 -47.16602,26.71875 -1.54185,1.71687 -2.99629,3.48058 -4.3418,5.28711 -0.19823,0.25584 -0.39991,0.49467 -0.59765,0.75391 -6.64469,8.71202 -16.32241,18.41994 -21.50586,21.57226 -15.25025,9.27412 -53.70173,20.55978 -83.73438,24.57813 -45.31825,6.06394 -55.65896,4.47215 -62.23632,-9.57813 -1.81854,-3.88461 -3.0487,-8.30981 -3.70899,-13.02343 -0.47421,-4.48835 -0.44382,-9.52062 0.0469,-15.4375 0.12265,-1.47902 0.24949,-2.86551 0.38086,-4.19141 0.62224,-3.5888 1.52737,-7.16497 2.73828,-10.63867 1.53223,-4.39531 2.68396,-7.29365 4.36523,-8.96289 2.70058,-1.41873 6.46496,-1.48354 11.83203,-0.66992 2.47973,0.61818 5.4257,1.47388 8.99414,2.54296 17.27253,5.17506 83.337,-1.17966 99.57813,-9.57812 5.8997,-3.05089 21.43864,-15.25409 34.53125,-27.11914 16.86226,-15.2814 22.35892,-19.70297 29.20312,-19.9707 z m -238.60351,26.10937 c 1.44372,0.10149 4.03274,0.8601 7.22656,2.00977 l 9.19727,4.89062 c 8.57895,4.56146 17.49218,8.33349 20.56445,8.7461 2.81086,1.6924 4.77435,3.14169 6.06055,4.51171 0.95873,4.57274 -0.3746,13.17445 -3.88868,28.12891 -1.65807,7.05586 -3.3907,13.61588 -4.81836,18.42773 -1.42651,3.78938 -2.72842,6.53964 -3.6875,7.65821 -5.45563,-0.92263 -33.14273,-12.92611 -47.36328,-20.20117 -4.73595,-3.0694 -7.45748,-5.66043 -8.24218,-7.82227 1.2753,-5.54347 7.19122,-17.85283 16.10742,-33.20117 l 7.32226,-12.60938 c 0.18438,-0.16728 0.35732,-0.30879 0.52149,-0.42773 0.21921,-0.10125 0.54451,-0.14334 1,-0.11133 z m -166.791018,5.1875 c 0.557381,0.0112 1.072999,0.0466 1.58789,0.084 h 0.002 c 1.172038,0.24067 2.310378,0.52913 3.419922,0.8789 3.471544,1.28261 6.995012,3.56242 10.371093,6.52149 2.024962,2.00117 4.363273,4.50883 7.21875,7.60546 10.519262,13.1088 17.397813,31.39432 12.089844,41.3125 -6.39271,11.9447 -21.367697,10.21381 -26.373047,-3.04687 -4.277058,-11.33115 -11.339457,-15.10943 -8.341797,-4.46289 1.440725,5.117 2.53376,9.88328 3.277344,14.11914 0.01313,0.3719 0.01609,0.67274 0.03125,1.06055 l 0.578125,14.78906 c -0.187319,0.66112 -0.417869,1.22036 -0.707031,1.64648 -0.857891,1.26436 -4.561653,2.76356 -9.525391,4.06641 l -2.970703,0.24609 c -2.905647,0.24049 -5.580163,0.70315 -7.78125,1.28321 -0.18324,0.0349 -0.337345,0.0797 -0.513672,0.11718 -2.266573,-0.21288 -3.963086,0.20496 -4.691406,1.1875 l -10.992188,1.42774 c -1.760256,-1.32487 -3.655479,-2.97192 -5.644531,-4.96094 -0.37178,-0.37179 -0.729156,-0.76682 -1.078125,-1.17383 l -2.455078,-5.87695 c -7.5454849,-18.05897 -6.4820802,-32.70001 3.917969,-53.95703 6.713173,-13.72101 12.257883,-19.70541 23.099609,-21.9375 1.408869,-0.0989 2.780711,-0.19399 4.445313,-0.33203 4.633823,-0.38426 8.145198,-0.65557 11.035156,-0.59766 z m 305.316408,3.9082 c -1.74522,-0.0243 -3.06641,1.94438 -3.06641,4.8086 0,0.42828 0.0318,0.83423 0.0879,1.21875 -0.0552,0.26781 -0.0879,0.52861 -0.0879,0.77734 0,0.85651 0.35419,1.63343 0.91992,2.22852 -0.11307,0.76798 0.0994,0.97853 0.72657,0.58984 0.55685,0.33821 1.21543,0.54102 1.92382,0.54102 1.27706,0 2.39381,-1.06774 3.02539,-2.65039 0.66549,-0.83271 1.08204,-1.79541 1.08204,-2.70508 0,-0.77962 -0.31322,-1.59694 -0.81836,-2.33985 0.0224,-0.54805 -0.0941,-1.01404 -0.40625,-1.32617 -0.29698,-0.29699 -0.6613,-0.36247 -1.0586,-0.24023 -0.0443,-0.014 -0.0874,-0.0327 -0.13281,-0.043 -0.44163,-0.30473 -0.92032,-0.55482 -1.42383,-0.72266 -0.26394,-0.088 -0.52217,-0.13324 -0.77148,-0.13672 z m -46.13281,3.02149 c -1.84825,0 -3.35938,1.60809 -3.35938,3.57226 0,0.84791 0.48665,1.61818 1.26367,2.23243 0.1949,0.80895 0.91331,1.33789 2.09571,1.33789 0.30855,0 0.60497,-0.0427 0.89257,-0.10938 0.42377,0.0668 0.85973,0.10938 1.31446,0.10938 3.06219,0 4.57525,-1.60614 3.36133,-3.57032 -0.52401,-0.84786 -1.29402,-1.61818 -2.14258,-2.23242 -0.28936,-0.80898 -0.72639,-1.33984 -1.21875,-1.33984 -0.21156,0 -0.47365,0.0999 -0.76563,0.27344 -0.50076,-0.1731 -0.99056,-0.27344 -1.4414,-0.27344 z m 21.84765,0 c -1.84825,0 -4.35247,1.60809 -5.5664,3.57226 -0.13298,0.21518 -0.22583,0.4259 -0.29493,0.63086 -0.91711,0.60411 -1.49023,1.16352 -1.49023,1.53711 0,0.74161 2.23108,1.34737 5.01758,1.39453 0.0451,7.2e-4 0.0812,0.008 0.12695,0.008 0.0206,0 0.0399,-0.004 0.0605,-0.004 0.0515,3.9e-4 0.10045,0.004 0.15234,0.004 0.84594,0 1.63637,-0.13919 2.34961,-0.36719 1.70679,-0.20973 2.61056,-0.73176 2.30469,-1.41797 0.4334,-0.49878 0.70117,-1.06419 0.70117,-1.67383 0,-0.019 -0.003,-0.036 -0.004,-0.0547 4.7e-4,-0.019 0.004,-0.0376 0.004,-0.0566 0,-1.96417 -1.51307,-3.57226 -3.36133,-3.57226 z m 173.46094,8.67383 c 0.60849,0.33505 1.05463,0.7592 1.30859,1.32226 -0.11734,1.99537 -5.66752,11.83627 -12.65625,22.52539 -0.85484,1.25108 -1.61834,2.42379 -2.29492,3.51563 -3.18053,4.86987 -5.69241,9.101 -7.70703,13.19922 l -0.64844,0.95312 c -0.41435,0.46926 -0.80918,1.06052 -1.18945,1.74414 l -2.27539,3.33399 v 2.63086 c -0.56645,2.0548 -1.06786,4.38805 -1.49805,6.94726 -1.19223,4.92426 -2.11307,10.47398 -2.99805,17.29492 -1.91131,14.73132 -3.68992,23.90615 -3.95312,20.39063 -0.61307,-8.18477 -10.24797,-26.88272 -19.36914,-38.75195 -2.18568,-3.0257 -4.33332,-5.53693 -6.29688,-7.21094 -0.0907,-0.0774 -0.16699,-0.15334 -0.25586,-0.23047 -6.96251,-7.13149 -7.06641,-8.95498 -2.72265,-16.84766 5.03823,-9.15474 34.58183,-24.84709 51.66992,-29.98047 1.1258,-0.11682 2.22325,-0.19406 3.2793,-0.2207 3.03738,-0.0765 5.51337,-0.25155 7.60742,-0.61523 z m -397.9707,8.97265 c 2.83616,-0.40846 10.5172,5.78106 21.89843,17.71289 18.31203,19.19819 25.36097,32.4961 17.22657,32.4961 -6.59576,0 -27.09897,-15.75169 -35.83167,-25.16006 -8.87905,-7.41663 -14.769721,-9.17411 -17.344545,-12.35782 0.657891,-5.34389 2.043566,-8.5216 2.994575,-8.08955 0.82492,0.37476 2.81002,-0.35981 4.99414,-1.71874 1.82906,0.49074 3.96834,-0.39461 5.14648,-2.30079 0.2041,-0.33025 0.51085,-0.52367 0.91602,-0.58203 z m 631.30468,3.88282 c 5.20089,1.27201 17.72877,20.50645 17.84375,28.70507 0.0824,5.88109 4.60513,13.12836 12.62696,20.23047 7.68704,6.80549 10.87555,11.04208 11.98828,17.53906 0.16368,2.21108 0.14596,4.72508 -0.006,7.78516 -0.0444,0.87631 -0.0965,1.79263 -0.1582,2.76172 -0.26118,4.10724 -0.63075,7.39596 -1.15235,10.00586 -0.69781,2.29354 -1.54269,4.09348 -2.45703,5.00781 -2.1409,2.14096 -4.14613,3.28862 -5.91602,3.61914 -0.96929,-0.0261 -1.94946,-0.25271 -2.92187,-0.6914 -1.97097,-1.16923 -3.29928,-3.50758 -3.94141,-6.8086 -0.26447,-2.25896 -0.17892,-5.01269 0.25586,-8.26172 0.37214,-1.75672 0.90491,-3.60532 1.62891,-5.52343 2.04606,-5.42067 1.89618,-8.80612 0.42383,-10 v 0 c -0.29426,-0.20137 -0.5619,-0.23995 -0.97262,-0.44532 -0.56517,-0.10258 -1.22628,-0.0187 -1.9668,0.25977 -0.96756,-0.41304 -2.17388,0.28504 -3.38086,2.22461 -1.54512,1.36898 -3.22028,3.27636 -4.9414,5.80859 -2.40187,3.53383 -3.7773,5.42246 -4.82031,5.81445 -1.04916,-0.50517 -1.90351,-1.44388 -2.56055,-2.66992 -0.23703,-0.54247 -0.48295,-1.13282 -0.76172,-1.83203 -0.0326,-0.0817 -0.0574,-0.17034 -0.0879,-0.2539 -0.57309,-1.96161 -0.75864,-4.3319 -0.5293,-6.83789 0.3242,-2.3429 1.09265,-4.68309 2.27735,-6.58008 1.45055,-2.32261 2.2407,-4.3528 2.38867,-6.17383 0.39434,-0.48372 0.53467,-0.95422 0.41015,-1.43164 1.18728,-1.58887 0.77996,-2.2477 -1.16601,-2.33203 -0.0713,-0.13514 -0.14543,-0.27137 -0.22656,-0.4043 -0.2041,-0.56886 -0.51996,-1.01163 -0.94141,-1.32031 -4.32475,-5.98687 -13.05458,-38.42962 -12.79492,-46.29492 0.4195,-1.0318 1.03562,-1.69085 1.85937,-1.90039 z M 96.560547,508.02734 c 5.679743,9.25605 26.833473,25.20381 46.968753,40.43164 7.50808,6.00951 15.07544,11.45801 21.88086,15.49805 2.05679,1.22102 4.64125,2.62205 7.42578,4.08594 2.4616,1.40751 4.88513,2.7314 7.24414,3.93359 35.77163,18.23019 53.27926,25.50491 77.01562,28.17188 2.80669,0.35082 5.7973,0.60655 9.0625,0.79101 4.42155,0.58758 9.18106,0.98198 14.09961,1.22852 4.71482,0.34691 9.67716,0.42872 14.82031,0.27344 8.5596,-0.11648 17.18837,-0.67154 25.20118,-1.61914 6.0877,-0.38846 11.31093,-1.0167 16.43554,-1.98047 21.13154,-3.21823 38.7275,-9.78985 63.16211,-22.17188 20.20736,-10.23978 42.68946,-30.63575 42.68946,-38.72851 0,-6.45964 -5.52452,-7.89193 -8.36329,-2.16797 -0.19116,0.38554 -0.35275,0.65461 -0.49804,0.86523 0.0894,-1.75392 0.27707,-3.30116 0.56054,-4.64258 5.80935,-11.40009 28.23874,13.16985 32.14454,37.23829 4.7103,29.02657 -24.9218,61.96317 -59.02149,65.60546 -9.13291,0.9753 -18.38316,3.17485 -20.55664,4.88868 -1.07851,0.85055 -3.29242,1.80343 -6.44141,2.82226 -1.95994,0.59667 -4.13808,1.22333 -6.58593,1.88086 -11.10098,2.84754 -28.24845,6.04529 -49.08789,9.07031 -1.33495,0.19376 -2.73439,0.37854 -4.17383,0.55274 -13.8293,1.24857 -29.69766,2.0783 -45.89258,2.42187 -36.19685,0.30749 -76.94055,-2.17224 -97.25977,-6.59765 -2.18558,-0.54046 -4.36808,-1.11722 -6.5371,-1.71485 -11.34468,-3.64213 -21.98534,-8.15416 -31.86133,-13.46875 -0.14564,-1.03659 -1.83284,-1.9201 -4.20313,-2.33398 -13.40185,-7.70103 -25.29755,-16.94125 -35.453122,-27.61524 -16.896602,-17.75932 -26.125317,-30.63731 -29.595704,-42.04297 -1.203794,-5.04391 -1.819909,-10.05925 -1.478515,-13.52929 0.673807,-6.84882 2.026317,-9.98528 6.445312,-12.14453 0.420389,-0.14228 0.870918,-0.26835 1.347657,-0.38086 0.47552,-0.10444 0.951002,-0.20928 1.458984,-0.28516 0.06131,-0.009 0.12069,-0.0217 0.18164,-0.0312 0.202264,-0.0322 0.394385,-0.0684 0.605469,-0.0977 13.845544,-1.91526 17.857422,-7.28485 17.857422,-23.90821 0,-0.0388 0.002,-0.0745 0.002,-0.11328 0.140825,-1.31126 0.272098,-2.71439 0.400391,-4.18555 z m 97.355473,26.79493 c 5.55393,0.12836 14.56942,3.24675 28.6914,9.49218 14.6314,6.47058 18.94461,9.51175 19.79688,15.28516 4.9e-4,0.003 9.5e-4,0.006 0.002,0.01 0.0836,0.70987 0.1275,1.47077 0.14844,2.26562 -0.0947,4.8076 -1.03102,7.71221 -3.875,8.63086 -4.15507,0.5023 -12.56132,-2.92371 -29.31055,-10.56641 -19.90476,-9.08269 -24.0865,-12.42874 -23.20117,-18.56054 0.64317,-4.45472 2.84754,-6.66991 7.74805,-6.55664 z m 225.41601,16.71093 c 1.27551,0.0462 0.49988,1.38381 -1.81836,3.85157 -7.98713,8.50192 -43.78747,23.96282 -70.58398,31.18554 -0.33483,0.0894 -0.66984,0.17774 -1.00391,0.26563 -3.63948,0.96081 -7.11577,1.77609 -10.30469,2.38086 -32.16783,6.1005 -50.19367,4.69572 -57.68945,-4.52735 -0.27802,-0.42091 -0.55921,-0.80248 -0.84375,-1.13281 -3.146,-4.4537 -5.61068,-9.84411 -5.70898,-12.48828 0.18788,-0.75487 0.86378,-0.8237 2.00586,-0.0781 0.42296,0.72444 0.88205,1.66872 1.36328,2.86329 0.98233,2.43835 4.1524,5.11851 8.16211,7.5 2.22806,2.17753 4.37887,3.31474 7.60156,3.73242 6.71283,2.70798 13.61144,4.07108 16.48828,2.29297 1.42893,-0.88316 14.33858,-3.26944 28.6875,-5.30469 18.25076,-2.58842 35.62381,-8.38816 57.82031,-19.30469 15.87645,-7.80849 23.69836,-11.3134 25.82422,-11.23633 z m 80.5957,34.06836 c -0.41667,-0.0401 -0.85493,0.0522 -1.29882,0.26563 -1.43828,0.46183 -2.49414,1.80019 -2.49414,3.38672 0,1.17613 0.58273,2.21355 1.46679,2.86523 0.1776,0.40097 0.37722,0.80043 0.61524,1.18555 v 0.0137 c 2.24997,3.62623 3.08918,3.62873 4.29882,0 0.30127,-0.90382 0.43615,-1.78975 0.44922,-2.625 0.19653,-0.44159 0.3125,-0.92707 0.3125,-1.43945 0,-1.60722 -1.08356,-2.96011 -2.55078,-3.4043 -0.25569,-0.12559 -0.51987,-0.22118 -0.79883,-0.24805 z m -55.17578,12.16211 c -1.28062,0.0567 -2.18554,1.4806 -2.18554,3.77735 0,0.42268 0.0358,0.83217 0.0937,1.22851 -0.0586,0.24872 -0.0937,0.50282 -0.0937,0.76758 0,1.96417 0.70804,3.57227 1.57421,3.57227 0.22677,0 0.51248,-0.11462 0.83008,-0.3125 0.36639,0.19924 0.75748,0.31249 1.16602,0.3125 1.96418,0 3.57031,-1.51286 3.57031,-3.36133 0,-1.84811 -1.60613,-4.35255 -3.57031,-5.56641 -0.49104,-0.30347 -0.9579,-0.43687 -1.38477,-0.41797 z m 59.91797,3.94727 c -1.05937,0.0492 -1.39258,1.03733 -1.39258,2.98633 0,2.63556 1.06945,5.86426 2.37891,7.17382 1.43536,1.4349 3.92037,2.18609 6.25,2.29493 0.42849,0.0541 0.85625,0.0859 1.27539,0.0859 0.56809,0 1.04087,-0.0101 1.49024,-0.0254 0.0614,0.004 0.13482,0.0254 0.19335,0.0254 0.19301,0 0.35724,-0.0294 0.50586,-0.0723 1.57814,-0.12062 2.17394,-0.46759 1.70118,-1.41992 0.30416,-0.34689 0.49023,-0.74947 0.49023,-1.22071 0,-1.4917 -3.21422,-4.72075 -7.14258,-7.17383 -2.90498,-1.81382 -4.69064,-2.70352 -5.75,-2.65429 z m -68.5,9.2539 c -0.16815,-0.0125 -0.3403,-0.008 -0.51562,0.0156 -1.16883,0.15742 -2.46325,1.10617 -3.42969,2.66992 -1.54634,2.50201 -4.27245,4.27514 -6.05664,3.93945 -3.61544,-0.68146 -6.02394,-0.49086 -7.0293,0.44922 -0.30789,0.003 -0.56867,0.0417 -0.72265,0.16602 -0.0202,0.0163 -0.0312,0.0403 -0.0488,0.0586 -0.26087,0.0128 -0.31974,0.1235 -0.16797,0.34375 -0.0771,0.48854 0.22363,1.2787 0.90234,2.37696 0.0443,0.0717 0.0943,0.13581 0.14063,0.20507 0.0398,0.069 0.0676,0.13444 0.11133,0.20508 1.21393,1.96417 4.32618,3.57031 6.91601,3.57031 0.40681,0 0.82505,-0.0538 1.25,-0.14062 0.33509,0.0826 0.66449,0.14062 0.97266,0.14062 2.86515,0 3.77574,-0.79786 2.95117,-1.91406 4.6016,-3.08807 8.46584,-9.07718 6.08203,-11.46094 -0.38497,-0.38499 -0.851,-0.5874 -1.35547,-0.625 z m 281.27735,10.42969 c 0.0606,-0.0236 0.0941,-0.0216 0.10351,0.006 6.3e-4,7.5e-4 -6.1e-4,0.003 0,0.004 0.044,0.18355 -1.20302,1.70693 -3.10156,3.96875 -0.25857,0.28313 -0.48282,0.53631 -0.76758,0.84179 -1.62251,1.74043 -3.9553,3.61919 -6.66797,5.49219 -0.11332,-0.22451 -0.17578,-0.5327 -0.17578,-0.94726 0,-0.43544 1.03145,-1.61508 2.52734,-3.03516 1.05053,-0.7286 2.02603,-1.44491 2.82227,-2.11328 3.08902,-2.59298 4.82768,-4.04819 5.25977,-4.2168 z m -171.31446,10.71289 c -1.29953,0 -2.43176,0.71091 -3.05664,1.75586 -0.31963,0.36845 -0.51562,0.90152 -0.51562,1.60547 0,0.0372 0.009,0.0704 0.01,0.10742 -10e-4,0.035 -0.01,0.0682 -0.01,0.10352 0,1.96417 1.60809,3.57031 3.57226,3.57031 1.96418,0 3.57032,-0.70784 3.57031,-1.57422 0,-0.19919 -0.0932,-0.44721 -0.24804,-0.71875 0.15452,-0.39843 0.24804,-0.82604 0.24804,-1.27734 0,-1.96418 -1.60613,-3.57227 -3.57031,-3.57227 z m 103.35352,10.71289 c -1.18241,0 -1.90081,0.5309 -2.09571,1.33985 -0.77701,0.61426 -1.26562,1.38451 -1.26562,2.23242 0,1.96417 1.51308,3.57031 3.36133,3.57031 0.45084,0 0.94259,-0.0984 1.44336,-0.27148 0.29133,0.17292 0.5525,0.27148 0.76367,0.27148 0.49201,0 0.92744,-0.52795 1.2168,-1.33594 0.84921,-0.6144 1.61823,-1.38598 2.14257,-2.23437 1.21394,-1.96418 -0.29719,-3.57227 -3.35937,-3.57227 -0.45489,0 -0.89053,0.0465 -1.31445,0.11328 -0.28761,-0.0667 -0.584,-0.11328 -0.89258,-0.11328 z m -505.38086,11.04883 c 1.42491,0.003 2.62625,0.0457 3.64648,0.13086 2.13156,1.17193 3.71096,2.56646 4.52539,4.08398 -0.0847,0.28575 -0.18754,0.58767 -0.31054,0.90821 -0.7631,1.98856 -1.40727,3.98011 -1.8125,5.48242 -0.61457,0.69549 -1.32791,1.35317 -2.14844,1.95312 -0.1393,0.10185 -0.24797,0.1992 -0.37695,0.29883 -0.57815,-0.22171 -1.23271,-0.54283 -1.9375,-0.97851 -2.42263,-1.49707 -3.449,-0.51196 -2.56836,2.46679 0.18262,0.6178 1.07149,1.55624 2.48242,2.71094 1.10881,1.59512 4.27515,3.68468 10.11328,6.74024 5.25398,3.12709 11.66447,6.6025 18.56641,9.96093 29.48662,14.34847 33.02172,17.42484 37.74609,32.86719 0.24391,0.79724 0.43711,1.5051 0.59375,2.1543 0.15477,0.9626 0.232,1.78543 0.18164,2.45898 v 0.002 c -0.01,0.12775 -0.0405,0.23311 -0.0586,0.35156 -0.04,0.23814 -0.0867,0.4713 -0.16602,0.67383 -0.0252,0.0692 -0.0522,0.13594 -0.082,0.20117 -0.46625,0.95561 -1.47088,1.49146 -3.21094,1.79687 -0.85902,0.0516 -1.87154,0.0427 -3.07617,-0.0176 -10.1445,-0.50768 -15.72937,-1.78368 -17.80273,-4.33789 -0.0907,-0.9368 -0.0127,-2.04036 0.20117,-3.35546 0.0788,-0.48424 -0.26447,-0.83558 -0.92188,-1.05079 0.0732,-0.28876 0.15045,-0.57861 0.25782,-0.88476 1.72187,-4.90971 1.22272,-5.19944 -2.69727,-1.5625 -1.18242,1.09721 -2.41406,1.98372 -3.63477,2.66015 -0.49126,0.098 -0.99063,0.20177 -1.50976,0.33204 -0.48974,0.12293 -0.91744,0.20454 -1.36328,0.29882 -0.84641,0.0855 -1.74664,0.20597 -2.76367,0.40039 -0.13722,0.0262 -0.25093,0.0383 -0.38477,0.0625 -1.12033,0.0547 -2.01312,-0.0547 -2.69336,-0.33984 -1.08169,-0.76308 -1.74805,-2.00907 -1.74805,-3.76367 0,-5.46041 -31.33212,-16.61328 -46.67382,-16.61328 -0.97905,0 -1.86003,-0.0263 -2.67383,-0.0801 l -3.9375,-0.82227 c -1.28374,-0.63655 -2.41384,-1.61968 -3.40039,-2.97265 -0.99395,-1.79305 -1.6759,-4.36537 -2.36914,-8.06055 -1.23147,-6.56464 -1.70613,-16.60885 -1.05469,-22.32031 1.14144,-10.008 1.9477,-10.42347 22.17578,-11.46875 4.55299,-0.23526 8.1234,-0.37306 10.88672,-0.36719 z m 510.15625,7.41211 c 0.49482,-0.0209 0.85525,0.0545 1.03906,0.23828 0.73524,0.73531 -3.43187,14.1054 -9.26172,29.71094 -13.80897,36.96398 -13.74066,42.92836 0.53321,45.7832 5.63562,1.12729 13.47865,2.05504 18.30664,2.20117 2.8346,0.54197 5.21413,1.08891 7.22265,1.68164 7.5415,3.98444 14.1824,14.38535 12.70508,22.05664 -1.00144,5.19971 -3.37542,4.28445 -14.69922,-5.6582 -2.23736,-1.9644 -4.24982,-3.58407 -6.06445,-4.93554 -6.27904,-5.13275 -9.38409,-6.67176 -9.04492,-4.53907 -1.90753,0.44865 -0.55505,4.28983 5.00586,11.35938 3.30596,4.20303 6.10196,9.15639 7.11718,12.36719 0.024,0.13511 0.0459,0.26821 0.0684,0.40234 0.0408,0.2647 0.0854,0.53318 0.11914,0.79297 0.19415,2.84131 -0.67593,4.83451 -2.70312,5.51953 -1.30413,0.2502 -2.98158,-0.0565 -4.89258,-0.79492 -3.5698,-1.76027 -9.09902,-5.56531 -14.53711,-10.06446 -7.67629,-7.17898 -14.79981,-16.6825 -16.58203,-24.72265 -1.54049,-6.94925 -2.02906,-25.96586 -1.08594,-42.25781 1.34211,-23.18404 2.96733,-30.00205 7.48633,-31.37305 3.17556,-0.96351 8.74446,-3.35156 12.37305,-5.3086 2.72143,-1.46751 5.41008,-2.39634 6.89453,-2.45898 z m -272.02734,1.10352 c 5.07254,0.0686 12.68344,5.91474 17.82812,13.32421 2.90568,5.31573 5.0906,11.64819 5.84375,18.33008 0.0158,0.14025 0.0259,0.26953 0.041,0.40821 0.0856,8.2255 -2.03698,16.72116 -5.38868,23.17382 -0.35415,0.50848 -0.71983,1.01172 -1.10547,1.50196 -3.43815,4.37067 -8.06019,8.05897 -11.18945,9.10351 -0.4377,0.10367 -0.86016,0.18138 -1.26953,0.23047 -0.001,1.5e-4 -0.003,-1.6e-4 -0.004,0 -1.45562,-0.35342 -1.00559,-1.91263 1.29297,-4.21094 3.16789,-3.16763 4.51096,-5.20892 3.0293,-6.46875 0.54493,-0.86952 0.77249,-1.49647 0.53516,-1.69336 -0.18819,-0.15624 -1.82457,-0.18782 -4.33594,-0.13476 -0.85981,-0.5878 -1.18831,-0.2282 -2,0.0528 -0.94293,0.0317 -1.92691,0.0674 -3.03906,0.11719 -4.32003,-0.17599 -10.22519,-0.11966 -18.15039,0.0801 -25.64941,0.64638 -29.74375,1.78685 -44.53125,12.40625 -2.95588,2.12283 -5.41694,3.81763 -7.54102,5.16601 -4.23573,2.13813 -7.95378,3.57401 -10.27148,3.91602 -0.14364,-0.0189 -0.2895,-0.0314 -0.42969,-0.0606 -0.095,-0.0221 -0.19093,-0.0457 -0.28516,-0.0723 -0.1546,-0.0402 -0.3075,-0.0862 -0.45898,-0.13867 -0.20922,-0.076 -0.41648,-0.16191 -0.625,-0.25977 -0.059,-0.0276 -0.11896,-0.0546 -0.17774,-0.084 -0.19129,-0.0953 -0.38515,-0.20724 -0.57812,-0.32032 -0.45927,-0.2794 -0.91745,-0.60045 -1.38477,-0.98828 -0.76665,-0.63648 -1.411,-1.1151 -1.99804,-1.51562 -3.13288,-2.46654 -3.98923,-2.67128 -3.30469,-0.21875 -0.11019,0.35857 -0.16016,0.83195 -0.16016,1.41797 0,2.32166 -1.49771,3.29436 -3.32617,2.16406 -0.52217,-0.32269 -1.10029,-0.47999 -1.6875,-0.51563 -0.94733,-0.38674 -1.56716,-0.26763 -1.88086,0.34961 -0.78718,0.34951 -1.4985,0.93385 -1.99805,1.74219 v 0.002 c -0.32112,0.51944 -0.59946,0.97071 -0.87304,1.35743 -5.4442,0.0758 -10.02676,0.003 -14.11328,-0.29297 -1.66756,-0.38723 -3.50151,-0.81832 -5.64063,-1.32227 -0.32981,-0.0777 -0.67703,-0.17617 -1.01172,-0.25976 -3.16158,-0.95924 -6.64222,-2.0823 -10.54101,-3.41407 -2.13496,-0.7293 -4.17971,-1.49723 -6.17579,-2.2832 -8.15825,-3.41524 -15.9983,-7.55215 -21.45117,-11.38086 -3.0365,-2.26809 -5.46244,-4.56102 -7.13672,-6.80273 -2.16034,-3.54963 -1.45644,-6.93468 2.4375,-14.46485 1.56937,-3.03483 3.5203,-5.76979 5.66602,-8.15625 0.71082,-0.73433 1.42881,-1.45743 2.16406,-2.17187 0.45992,-0.44255 0.92147,-0.88123 1.38672,-1.3125 9.6873,-8.3597 21.20058,-9.8243 21.31641,0.41406 l -0.006,5.50586 h 0.0137 v 1.55078 1.0625 0.0879 0.0137 0.17774 l 18.23047,-0.875 5.99219,-0.23047 2.42968,-0.082 c 5.13318,0.0532 10.89626,0.0801 18.21875,0.0801 37.91404,0 47.74166,-1.19639 63.38868,-7.7246 3.3523,-1.39867 6.26612,-2.65814 8.85156,-3.82227 9.55502,-4.14859 14.15874,-7.06311 14.68945,-9.46289 0.17034,-0.6772 0.005,-1.30641 -0.47265,-1.91406 0.59014,-1.09814 0.12008,-1.81435 -1.55665,-2.00977 -0.42157,-0.29666 -0.97955,-0.56396 -1.66015,-0.80273 -0.66125,-0.93168 -0.92549,-2.05241 -0.78125,-3.25586 0.007,-0.0516 0.009,-0.10041 0.0176,-0.15235 0.003,-0.0173 0.007,-0.0353 0.01,-0.0527 0.0272,-0.16374 0.0593,-0.32918 0.10156,-0.49609 0.18056,-0.71308 0.50311,-1.45376 0.96094,-2.20508 0.93907,-1.47914 2.36946,-2.13076 4.09571,-2.10742 z M 97.75,715.65234 c 0.256432,0.23943 0.539496,0.73093 0.845703,1.4961 0.911303,2.27741 0.914679,4.93994 0.08594,6.34961 -0.617353,0.11534 -1.243849,0.0775 -1.837891,-0.0937 -0.317551,-0.86098 -0.479223,-2.2805 -0.404297,-4.09961 0.06383,-1.54971 0.221723,-2.63577 0.453125,-3.2461 0.234472,-0.1489 0.471901,-0.2849 0.710938,-0.39843 0.04928,-0.004 0.09718,-0.006 0.146484,-0.008 z"
     style="fill:#000000;stroke-width:3.57122707" />
</svg>
