<?xml version="1.0" encoding="UTF-8" standalone="no"?>
<!-- Created with Inkscape (http://www.inkscape.org/) -->

<svg
   xmlns:dc="http://purl.org/dc/elements/1.1/"
   xmlns:cc="http://creativecommons.org/ns#"
   xmlns:rdf="http://www.w3.org/1999/02/22-rdf-syntax-ns#"
   xmlns:svg="http://www.w3.org/2000/svg"
   xmlns="http://www.w3.org/2000/svg"
   xmlns:sodipodi="http://sodipodi.sourceforge.net/DTD/sodipodi-0.dtd"
   xmlns:inkscape="http://www.inkscape.org/namespaces/inkscape"
   version="1.1"
   id="svg2"
   width="795.13135"
   height="806.44055"
   viewBox="0 0 795.13133 806.44055"
   sodipodi:docname="santa_and_rudolf.svg"
   inkscape:version="0.92.4 (5da689c313, 2019-01-14)">
  <title
     id="title817">Santa and Rudolf</title>
  <metadata
     id="metadata8">
    <rdf:RDF>
      <cc:Work
         rdf:about="">
        <dc:format>image/svg+xml</dc:format>
        <dc:type
           rdf:resource="http://purl.org/dc/dcmitype/StillImage" />
        <dc:title>Santa and Rudolf</dc:title>
        <dc:source>https://publicdomainvectors.org/en/free-clipart/Santa-and-raindeer-coloring-book-vector-illustration/18574.html</dc:source>
        <cc:license
           rdf:resource="http://creativecommons.org/licenses/by-sa/4.0/" />
      </cc:Work>
      <cc:License
         rdf:about="http://creativecommons.org/licenses/by-sa/4.0/">
        <cc:permits
           rdf:resource="http://creativecommons.org/ns#Reproduction" />
        <cc:permits
           rdf:resource="http://creativecommons.org/ns#Distribution" />
        <cc:requires
           rdf:resource="http://creativecommons.org/ns#Notice" />
        <cc:requires
           rdf:resource="http://creativecommons.org/ns#Attribution" />
        <cc:permits
           rdf:resource="http://creativecommons.org/ns#DerivativeWorks" />
        <cc:requires
           rdf:resource="http://creativecommons.org/ns#ShareAlike" />
      </cc:License>
    </rdf:RDF>
  </metadata>
  <defs
     id="defs6" />
  <sodipodi:namedview
     pagecolor="#ffffff"
     bordercolor="#666666"
     borderopacity="1"
     objecttolerance="10"
     gridtolerance="10"
     guidetolerance="10"
     inkscape:pageopacity="0"
     inkscape:pageshadow="2"
     inkscape:window-width="3840"
     inkscape:window-height="2004"
     id="namedview4"
     showgrid="false"
     units="px"
     inkscape:zoom="1.0442478"
     inkscape:cx="709.34658"
     inkscape:cy="181.5197"
     inkscape:window-x="-16"
     inkscape:window-y="-16"
     inkscape:window-maximized="1"
     inkscape:current-layer="svg2" />
  <path
     style="fill:#000000;stroke-width:3.57122707"
     d="m 255.38252,0 c -23.16621,0 -27.90331,1.14747 -37.25143,9.01338 -14.9681,12.59483 -29.12286,42.4866 -29.12286,61.50492 0,2.01992 0.12839,4.05352 0.34809,6.08865 0.33899,4.61845 1.30722,9.07007 2.92084,13.53078 0.18751,0.53774 0.38611,1.07508 0.59311,1.6121 3.62118,10.20426 9.53029,19.66371 16.61692,26.75234 2.33056,2.62474 4.6271,4.57787 7.34488,6.18199 4.35459,3.0097 8.96284,5.09753 13.62411,5.97198 8.28454,1.5542 12.44048,3.75377 13.62412,9.6804 l -0.65923,14.28528 c -0.36269,2.21825 -0.80434,4.62198 -1.34181,7.29822 -3.20642,15.96599 -2.87339,20.9528 2.02826,30.43159 4.56768,8.8329 4.84913,11.64077 1.27374,12.71014 -1.23458,0.36926 -4.29916,1.20768 -8.14414,2.23632 -3.77752,0.46119 -8.97428,1.88819 -14.66838,3.86983 -8.0386,2.20207 -16.95651,6.21446 -25.70613,11.30805 -4.68407,2.54146 -8.72765,5.09685 -11.51807,7.40712 -3.15399,2.22291 -6.21968,4.54543 -9.13395,6.9404 -2.26229,1.50452 -4.00662,2.44829 -4.6963,2.44829 -1.14109,0 -2.79114,1.32601 -4.74491,3.60147 -1.47627,0.14516 -2.65268,1.66261 -2.74194,3.55479 -1.51575,2.11744 -3.12623,4.58398 -4.79546,7.37212 -1.00894,1.29409 -1.94847,2.58221 -2.80027,3.85815 -2.6743,4.00589 -5.82507,10.05769 -8.83059,16.68303 -1.21795,2.32571 -2.12433,4.37489 -2.55526,5.85335 -2.41891,5.78584 -4.60771,11.6978 -6.17033,16.89693 -2.12981,7.08634 -4.15768,12.62401 -6.15087,16.75887 -2.11336,3.43529 -4.56746,6.32357 -7.76104,9.2623 -0.0351,0.0119 -0.0699,0.0316 -0.10501,0.0428 -8.71031,2.76456 -28.700876,25.37351 -28.700876,32.45986 0,0.58308 -0.161589,1.28302 -0.441432,2.06714 -1.65399,3.28631 -3.911997,6.78026 -6.567033,10.28518 -5.458981,6.82632 -13.220938,14.68845 -20.152253,20.42839 -4.360744,3.40506 -8.6767,6.15514 -12.548731,7.87966 -0.363206,0.0796 -0.705615,0.13029 -1.01121,0.13029 -12.685284,0 -31.54415,12.33443 -38.643788,25.27442 -5.155038,9.39554 -6.214387,16.3872 -4.577671,30.21963 1.632549,13.79707 0.444018,21.71143 -5.0968887,33.9261 -8.2162896,18.11255 -9.5534891,47.12191 -2.7905514,60.5715 0.704308,1.40066 1.7813636,2.73797 3.144475,3.99234 1.6566845,2.30473 3.6120371,3.913 5.8747431,4.57572 0.852616,0.24974 1.696773,0.48173 2.539693,0.71173 11.105482,5.01232 26.707874,6.72096 34.246968,2.01271 2.373437,-1.48224 4.014037,-2.28595 5.256349,-2.36468 1.3049,1.19491 2.720759,3.13002 4.287921,5.81251 8.979268,25.20265 32.088953,54.94702 53.778885,70.27912 5.71854,4.81447 10.45275,7.83298 13.08546,7.83298 0.0712,0 0.1375,0.0117 0.20807,0.0136 1.12483,0.63628 2.05161,1.20158 2.64859,1.67044 0.39551,0.39529 0.72574,0.76638 1.00538,1.11817 0.40959,1.01963 -1.04249,1.71212 -4.09151,2.69137 -2.10425,0.6759 -3.81491,1.23876 -5.55193,1.81239 -2.77122,0.33268 -5.19638,1.19772 -7.29822,2.62526 -9.37688,3.92149 -10.09183,8.0673 -10.14322,22.81058 -0.18767,1.49933 -0.33887,3.08778 -0.46866,4.72935 -0.14992,1.72521 -0.27636,3.50023 -0.35587,5.38275 -0.003,0.0595 -0.005,0.10027 -0.008,0.15946 -0.93873,16.29302 -2.490849,20.06031 -9.237025,23.40951 -0.687421,0.34129 -1.473042,0.78701 -2.298559,1.27957 -0.762653,0.0975 -1.560531,0.15168 -2.407459,0.15168 -3.401765,0 -9.618839,4.82048 -13.814687,10.713 -1.458819,2.04873 -3.198074,3.96067 -5.001601,5.59277 -3.16743,2.2644 -6.398301,4.11517 -8.935599,5.07355 -0.202224,0.0271 -0.397355,0.0467 -0.577556,0.0467 -2.223441,0 -4.174063,0.44996 -5.851407,1.34569 -10.537426,5.07574 -13.87504,23.608 -7.656029,36.86055 0.485643,3.27685 1.787197,5.12499 4.587395,6.8529 0.0018,10e-4 0.004,0.003 0.0058,0.004 0.913237,0.97023 1.908756,1.86807 2.992793,2.67388 13.715145,10.19514 70.316664,12.60912 107.046334,4.56601 14.23637,-3.11769 38.88225,-6.2366 54.76871,-6.93263 24.43997,-1.07127 28.64148,-0.6782 31.49336,4.71963 0.17337,0.35862 0.34376,0.73022 0.51922,1.12983 1.68096,3.82834 6.09927,7.28381 10.56714,8.45527 2.1296,0.8431 4.50599,1.55966 7.10181,2.11382 7.8567,1.6774 26.33743,6.14662 41.06875,9.9332 5.92222,1.52229 12.02545,2.71703 18.22318,3.6034 5.3351,1.22578 11.46225,1.89366 18.05982,2.08465 4.67592,0.82748 11.64035,0.59103 19.71471,-0.43754 29.76597,-1.52988 57.98181,-9.61844 75.75715,-23.08671 6.79057,-5.14506 8.04538,-8.4624 6.11588,-16.15019 -1.18112,-4.70594 -3.7441,-8.17998 -9.2973,-11.78643 -0.34915,-0.23104 -0.71165,-0.46056 -1.08705,-0.68646 -0.25849,-0.1579 -0.53081,-0.31759 -0.8012,-0.47643 -0.0249,-0.0146 -0.0508,-0.0301 -0.0758,-0.0447 -0.008,-0.005 -0.0172,-0.009 -0.0253,-0.0136 -2.84477,-1.66359 -6.32964,-3.3843 -10.65077,-5.29524 -20.64009,-9.12806 -22.32159,-12.28582 -14.15306,-26.57538 7.17135,-12.54475 7.11446,-32.18248 0.80314,-45.76699 -0.53652,-1.56446 -1.20858,-2.9365 -2.05354,-4.21985 -1.54966,-2.70299 -3.50505,-4.91722 -5.99142,-6.88401 -4.42158,-4.30953 -9.23839,-7.47179 -11.82338,-7.51991 -8.84964,-0.16177 0.41802,-4.94972 24.42267,-12.61679 2.0157,-0.64382 4.11473,-1.38484 6.22284,-2.16048 4.20921,-0.88374 8.64553,-2.77083 13.09906,-5.41387 4.10108,-1.90179 7.60881,-3.75034 9.74262,-5.22913 10.93204,-7.57672 31.64699,-38.40721 31.64699,-47.101 0,-12.11575 6.31075,-5.41776 8.6439,9.17284 0.79411,4.96611 3.02227,10.2856 6.39202,15.68737 0.0124,0.0228 0.0226,0.0473 0.035,0.07 1.17086,2.13914 2.82335,4.43726 4.85187,6.82567 0.28045,0.35378 0.56643,0.7064 0.85563,1.05983 2.74672,3.56185 5.97758,6.97814 9.76208,10.3299 9.84772,9.15636 22.27012,17.6275 35.84157,23.95791 10.17965,4.7482 20.05931,9.3864 25.81308,12.1034 4.13365,2.32528 7.347,4.42514 10.00126,6.60788 3.87546,3.93428 7.93309,9.59449 11.68142,16.22408 0.96074,1.82127 1.96264,3.76725 3.07836,5.96614 0.92201,1.81709 1.80864,3.68057 2.66998,5.55388 2.16819,4.93022 4.0863,10.07439 5.58888,15.2051 1.79305,6.1226 2.46915,11.06822 1.98548,14.94063 -1.1291,4.76994 -4.12977,8.00133 -9.00171,9.68429 -1.40449,0.36122 -2.99383,0.71863 -4.80131,1.08121 -1.48549,0.19153 -3.07291,0.29947 -4.78964,0.29947 -0.94151,0 -1.93504,0.0933 -2.96168,0.2567 -12.76951,1.30978 -23.29126,7.92237 -30.55022,19.26355 -2.61663,3.12399 -4.58692,6.30124 -5.52859,9.26814 -0.98455,3.10207 -1.38365,5.98688 -1.25235,8.56806 -0.0914,3.75259 1.1114,6.74356 3.56063,8.82669 1.36687,1.39421 3.10239,2.44388 5.17079,3.0842 2.20028,1.00787 4.82833,1.79555 7.89133,2.34134 3.02327,0.53877 5.74737,0.98711 8.2822,1.36319 0.50146,0.29107 0.94289,0.58374 1.23873,0.87119 0.35626,0.34616 0.73168,0.65648 1.11816,0.94704 3.82356,4.07748 11.64031,3.18207 20.67925,-1.83768 0.72485,-0.39634 1.46652,-0.8348 2.213,-1.28735 3.68989,-1.7281 7.1655,-4.44221 11.25555,-8.28803 0.20962,-0.17893 0.41351,-0.34074 0.62422,-0.52311 6.69152,-5.79148 13.34364,-10.7848 17.18085,-13.02128 1.15015,-0.35581 2.27255,-0.55177 3.39922,-0.56978 0.0143,3.6e-4 0.0285,0.002 0.0428,0.002 0.0808,-9.9e-4 0.16217,0.005 0.24308,0.006 0.82376,0.0444 1.65137,0.18916 2.50081,0.43366 3.04777,1.46598 7.46147,4.21028 11.69114,7.37795 13.89358,10.40509 25.88085,14.34115 31.87062,10.46601 2.47279,-1.59991 8.51339,-2.90916 13.42383,-2.90916 3.90505,0 6.1809,-0.47152 7.60157,-2.39774 2.30666,-1.5076 3.11337,-4.50418 3.11337,-9.57344 0,-0.47905 -0.0149,-0.95664 -0.037,-1.43514 0.0107,-0.26341 0.037,-0.51921 0.037,-0.78758 0,-3.07921 -0.64494,-6.24271 -1.81241,-9.37703 -4.12283,-14.52978 -18.34053,-27.9223 -34.28781,-30.47243 -2.33119,-0.37281 -4.50012,-0.86818 -6.43479,-1.41569 -1.18364,-0.56127 -2.21128,-1.11783 -3.15614,-1.66461 -1.37205,-1.00369 -2.3596,-2.1144 -2.99086,-3.43423 -0.3122,-1.014 -0.52518,-2.11727 -0.632,-3.32143 2.61777,-11.24285 12.18236,-35.98003 18.3418,-47.39854 2.42207,-3.3695 5.03834,-6.46045 7.87383,-9.2973 2.15852,-1.88017 4.66673,-3.85897 7.376,-5.82613 4.15523,-2.80497 8.73958,-5.49204 13.11656,-7.55296 8.77323,-4.13075 17.54824,-9.94722 25.48834,-16.58579 1.66411,-1.15378 3.20943,-2.25367 4.45126,-3.20087 5.42196,-4.13545 11.32544,-11.1659 16.16381,-18.55377 4.44873,-6.14237 7.75273,-12.26098 9.41981,-17.87314 1.6216,-5.45903 3.43045,-10.22547 4.80519,-12.90071 0.18183,-0.17449 0.36226,-0.33521 0.5445,-0.47448 1.62391,-0.0977 3.59174,0.56859 5.76002,1.9563 1.43459,1.51112 3.03712,3.35721 4.61655,5.36524 3.25358,4.13619 6.74298,6.5135 10.15684,7.42462 2.52665,1.26857 4.69952,1.15092 7.08624,-0.22752 8.45207,-2.89909 14.73435,-15.17137 12.75292,-31.84923 -0.41786,-3.51729 -1.53371,-7.48918 -2.99862,-11.17776 l -0.002,-0.0778 -0.01,0.0486 c -1.68147,-4.22654 -3.82528,-8.07509 -5.98559,-10.37463 -1.1482,-1.22221 -2.38542,-2.85238 -3.62285,-4.68074 -2.84911,-5.59963 -5.78957,-11.49068 -8.30165,-16.64219 -2.44493,-6.65992 -7.32427,-15.19174 -11.24194,-19.51635 -6.10312,-6.73676 -7.9408,-14.68602 -9.70567,-42.00412 -2.49546,-38.62568 -4.54367,-42.10873 -35.32236,-60.062 -14.15752,-8.25847 -19.96983,-13.91333 -20.75314,-20.18726 -4.17659,-33.45229 -18.77624,-54.2616 -49.81377,-70.99862 -19.84674,-10.7024 -23.17055,-19.512 -10.33768,-27.91719 0.86695,-0.53341 1.81404,-1.10291 2.81972,-1.69767 0.22649,-0.12606 0.44289,-0.25132 0.67673,-0.37725 13.00039,-7.00115 36.00596,-27.98645 43.92347,-40.06726 1.95022,-2.9757 3.75679,-7.62782 5.30108,-13.07379 0.39955,-1.09354 0.71004,-2.13059 0.90231,-3.09197 0.0695,-0.34764 0.1264,-0.7267 0.19252,-1.08316 3.18715,-13.20304 4.79748,-29.59914 3.18142,-39.55777 -0.77561,-4.77958 -2.38474,-9.05023 -4.63989,-12.504 -0.0571,-0.11741 -0.1127,-0.24474 -0.17114,-0.35392 -1.13559,-2.12189 -2.71611,-3.77156 -4.65934,-4.99188 -0.40556,-0.3168 -0.81759,-0.61993 -1.24262,-0.89842 -11.41271,-7.47793 -29.26247,-1.74309 -54.85621,17.62811 -12.68489,9.60082 -17.8586,12.03934 -16.08214,7.57631 4.37508,-10.99171 9.84361,-83.64484 8.15581,-108.36091 C 618.38386,52.40753 606.9476,22.55604 594.08294,10.47029 583.10449,0.15655 566.06295,-0.08929 556.05365,9.91996 c -10.62129,10.6213 -9.00784,29.80167 5.69972,67.76665 14.06579,36.30834 19.69593,56.40149 9.25258,33.02184 -11.27591,-25.24364 -14.71865,-31.83387 -20.37588,-33.43994 -0.74634,-0.59969 -1.48948,-1.06451 -2.23245,-1.41764 -0.9142,-0.5642 -1.77124,-0.85369 -2.56497,-0.85369 -0.25603,0 -0.5141,0.0259 -0.77396,0.0642 -2.52863,-0.008 -5.14425,1.25529 -8.02745,3.64813 -1.93292,1.60418 -3.28888,4.05448 -4.08569,7.18737 -0.0877,0.17444 -0.17834,0.34147 -0.26447,0.52117 -3.98281,8.30982 -3.58199,12.4825 2.90918,30.35381 11.19245,30.81487 21.59085,65.5651 24.19126,80.13063 0.35075,4.27865 0.31504,7.88547 -0.17113,10.55742 -1.10227,2.44496 -3.49046,3.24365 -8.09162,3.24365 -3.35167,0 -6.04413,-0.93664 -8.88894,-3.5684 -0.93922,-0.95857 -1.90733,-2.01913 -2.91306,-3.2067 -2.35567,-2.99413 -4.96578,-7.17022 -8.21414,-12.92599 -11.05398,-19.58658 -21.98271,-30.29548 -30.91775,-30.29548 -2.96437,0 -4.93327,1.24013 -5.90391,3.67537 -1.04874,1.43502 -1.30417,3.65743 -0.69618,7.01235 -0.0221,1.41523 0.35446,3.11253 1.14539,5.35358 0.98398,4.0196 2.58476,8.74938 4.85187,14.21917 2.60128,6.27608 4.52625,12.20108 5.44886,16.37577 0.38433,2.45849 0.43383,4.34201 0.0583,5.32053 -0.11273,0.29376 -0.22093,0.51241 -0.33058,0.77007 -4.16073,2.29413 -17.16832,-5.67645 -24.02986,-15.00091 -0.86269,-1.17235 -1.57817,-2.19163 -2.178,-3.15032 -1.1202,-4.30903 -0.85599,-9.57384 0.54256,-16.64218 0.6586,-1.84688 1.42941,-3.91635 2.34717,-6.33174 10.2508,-26.97788 12.5138,-48.21224 6.21117,-66.00091 C 485.71499,98.86189 481.69574,92.21723 475.82575,85.89688 470.02089,79.3005 462.59995,73.16268 453.47217,67.31395 440.54965,59.0337 433.57347,57.12707 415.97571,57.06962 385.79931,56.97092 347.75462,51.01521 334.92526,44.38087 328.98137,41.30719 314.62321,30.06371 303.01964,19.3962 L 281.92229,4.1e-4 Z m 2.64664,7.14265 c 10.2952,0 16.4835,0.0257 21.15763,0.99565 1.96006,0.53124 3.77757,1.13797 5.47415,1.88629 2.65198,1.38326 5.11985,3.46142 8.20831,6.49509 l 9.52676,10.18794 c 2.77944,2.97259 5.14544,5.57584 7.18543,7.93216 7.81907,9.70602 10.97152,16.93807 11.48113,25.29971 0.0203,0.67625 0.0294,1.36959 0.0272,2.08075 -0.23026,6.73585 -1.6523,12.35936 -4.29765,16.84055 -3.94599,5.19895 -10.93576,8.71111 -22.40414,12.04506 -2.63846,0.76702 -5.48885,1.78942 -8.38721,2.98113 -9.07116,2.66219 -15.64437,6.61626 -24.54324,14.35335 -6.44369,5.42522 -12.18892,8.19783 -13.35186,6.31618 -0.16779,-0.2715 -0.38587,-0.51218 -0.63006,-0.73313 -0.24384,-0.39615 -0.5453,-0.7526 -0.91203,-1.04232 -0.11274,-0.0896 -0.23111,-0.17375 -0.35587,-0.25087 -0.24893,-0.15383 -0.49322,-0.25959 -0.73119,-0.31891 0,0 -0.002,0 -0.002,0 -0.11862,-0.0295 -0.23901,-0.0474 -0.35392,-0.0545 -0.42127,-0.0254 -0.81355,0.10406 -1.16484,0.35782 -1.06717,-0.0577 -2.20446,0.10507 -3.27865,0.51727 -2.88337,1.10647 -5.24275,0.0997 -5.24275,-2.23827 0,-2.33799 -2.00771,-3.5749 -4.46293,-2.74777 -2.45522,0.82713 -6.3415,-1.04595 -8.63613,-4.16152 -0.97763,-1.32739 -2.09324,-2.30987 -3.16781,-2.91696 -0.70894,-0.60509 -1.42593,-0.97231 -2.09631,-0.97231 -0.084,0 -0.15838,0.0152 -0.23336,0.0292 -0.0841,-0.015 -0.16686,-0.0292 -0.24307,-0.0292 -0.42414,0 -0.69527,0.24444 -0.83037,0.66895 -0.0879,0.0626 -0.17396,0.12925 -0.2528,0.20808 -1.458,1.458 0.26687,5.87419 3.83288,9.81457 3.58156,3.9576 4.65991,7.16404 2.4094,7.16404 -0.13279,0 -0.27492,-0.0284 -0.41421,-0.0486 -1.2114,-0.80608 -2.61865,-1.85599 -4.32098,-3.19503 -0.75616,-0.59481 -1.48374,-1.21512 -2.19743,-1.84547 -7.3058,-8.5978 -16.143,-26.2059 -17.66313,-37.53923 -2.61207,-19.4745 6.81326,-43.3722 22.56166,-57.19949 2.84396,-2.49703 5.17427,-4.42543 7.44018,-5.91364 0.001,-8.1e-4 0.003,-0.001 0.004,-0.002 0.42588,-0.23518 0.85116,-0.47159 1.28541,-0.69617 1.44578,-0.74772 2.78996,-1.41248 4.08179,-2.02437 5.42614,-1.96362 12.26492,-2.2441 25.49805,-2.2441 z m 316.56715,4.05456 c 0.10992,-10e-4 0.21908,0.002 0.32864,0.002 4.4499,0.71616 9.69072,3.80409 15.38207,9.74456 11.90428,12.42539 18.14544,30.38841 19.47163,59.36972 0.27607,7.36675 0.25391,16.75373 -0.0156,26.66483 -0.42534,11.32143 -1.32121,23.89754 -2.68165,37.94955 -2.6307,27.17302 -5.46278,37.01747 -17.45893,60.70957 -7.87498,15.55293 -16.12263,35.10902 -18.32818,43.45676 -3.52784,13.35225 -5.17552,15.11767 -13.69412,14.68394 -12.09828,-0.61604 -46.06058,-7.81975 -48.18806,-10.221 -0.8701,-0.9821 -2.4524,-8.61531 -3.51784,-16.96306 -0.67711,-5.30519 -0.87782,-8.93008 -0.53672,-11.31388 0.4048,-1.23706 0.98507,-2.33733 1.78322,-3.38561 0.32366,-0.12321 0.63755,-0.25657 0.94121,-0.39865 0.25845,-0.048 0.52895,-0.0797 0.82453,-0.0797 3.9778,0 6.5047,-4.17077 7.29821,-10.00709 0.57569,-1.91186 0.63141,-4.18765 0.13418,-7.17182 -0.3741,-4.476 -1.55257,-9.27207 -3.65203,-13.67467 -0.51503,-1.08006 -0.92303,-1.96819 -1.36513,-2.91696 -1.00402,-2.73124 -2.14335,-5.73129 -3.442,-9.08338 -0.9361,-2.41628 -0.62002,-3.11875 1.11817,-2.0866 l 4.03122,4.70797 c 1.39543,1.62987 3.0345,3.56418 4.7838,5.64333 1.15644,1.963 2.32117,4.06174 3.41673,6.20921 0.10215,0.20024 0.21343,0.38714 0.31697,0.58534 0.66604,2.05853 2.11778,4.39668 4.0954,6.79455 8.034,11.61849 18.76483,18.32236 29.87932,18.32236 11.6606,0 15.50459,-5.98433 15.48319,-24.1057 -0.0141,-12.74514 -6.3309,-33.20392 -27.2599,-88.27671 -0.68265,-1.79632 -1.27015,-3.4091 -1.78712,-4.89464 -1.64738,-5.75878 -2.54322,-9.95892 -2.27327,-11.36056 0.39928,-2.07336 0.99345,-3.59914 1.73072,-4.63407 0.15099,-0.17039 0.3008,-0.34163 0.46865,-0.5095 0.25924,-0.25924 0.50813,-0.46921 0.75841,-0.68451 2.78934,-1.70405 6.81587,1.56615 10.54576,8.74503 1.63195,4.22791 3.44385,9.84088 5.59666,17.16723 6.82547,23.22812 20.71835,39.05314 28.56669,32.53958 1.08207,-0.89803 1.98002,-1.89449 2.70304,-3.01418 1.20726,-1.24763 1.87413,-2.98051 1.94658,-5.4897 1.01301,-7.40354 -2.28432,-18.87786 -10.38435,-38.31904 -5.99118,-14.37967 -13.17265,-32.30124 -16.0199,-39.97197 -1.48241,-4.5597 -2.66445,-8.75615 -3.56063,-12.60902 -0.96529,-5.2704 -1.19785,-9.76742 -0.90231,-14.32612 0.2251,-3.47212 0.45129,-6.1951 0.77007,-8.38722 1.04767,-3.23782 2.64036,-5.74162 4.68463,-7.37405 0.83926,-0.4421 1.74866,-0.79934 2.74777,-1.0501 1.91968,-0.48182 3.64851,-0.80703 5.26024,-0.98593 z M 335.26229,55.64184 c 1.73821,0.044 4.33688,0.69772 8.20247,1.83185 6.38357,1.87289 26.87397,4.26316 45.53363,5.31274 47.92254,2.69553 61.92318,6.94867 76.69447,23.29868 2.4599,2.72283 4.88642,5.81254 7.05513,8.88892 0.95938,1.66276 1.89899,3.39933 2.82167,5.22718 2.26116,4.47941 3.97934,7.90575 5.25246,10.86662 1.66482,10.15467 -0.18148,31.00553 -3.58592,45.10386 -1.24937,4.4954 -2.52642,8.24162 -3.82509,11.22833 -1.26588,2.55206 -2.62585,4.75087 -3.75509,6.11393 -0.71952,0.67475 -1.4262,1.1579 -2.20716,1.42153 -3.74318,-0.56124 -17.7595,-10.47335 -35.97964,-25.48445 -19.75496,-16.27558 -54.44254,-36.29955 -73.36719,-42.3522 -9.54396,-3.05246 -15.71936,-6.04383 -17.4531,-8.07996 0.15087,-0.50763 0.45172,-1.021 0.9062,-1.54014 l 2.70498,-1.02289 c 0.31626,-0.0119 0.60394,-0.0331 0.95872,-0.0331 4.20525,0 8.52629,-1.42437 9.6026,-3.16587 0.29871,-0.48332 1.04755,-1.02467 2.07687,-1.58099 l 0.63978,-0.24114 c 2.09035,-0.79039 3.85579,-1.49269 5.6589,-2.20521 1.91169,-0.57072 3.98644,-1.09133 6.11976,-1.49154 6.89632,-1.29375 12.53901,-3.79073 12.53901,-5.54999 0,-6.5536 -7.21073,-7.25915 -19.92084,-1.94852 -1.34059,0.56013 -2.73654,1.09058 -4.13819,1.60043 -2.87869,0.8168 -5.83382,1.74806 -8.73336,2.73611 -2.73295,0.70144 -5.07103,1.13372 -6.49119,1.13372 -3.44798,0 -8.25465,2.39392 -10.68187,5.31858 -0.59264,0.71406 -1.14761,1.29318 -1.68406,1.81434 -0.40227,0.27331 -0.77529,0.54212 -1.0851,0.79925 -0.52978,0.43968 -1.02202,0.81446 -1.48765,1.14149 -4.1579,1.97222 -5.1572,-4.24805 -0.91787,-14.39418 2.82811,-6.76862 5.14356,-15.45976 5.14356,-19.31411 0,-0.30431 0.005,-0.58278 0.0117,-0.85954 0.76294,-2.28619 1.12211,-3.39079 1.36514,-4.15568 0.49144,-0.30466 1.14798,-0.44032 2.02631,-0.4181 z m -37.64035,42.01384 c 1.23388,-0.002 2.50911,0.10855 3.89121,0.32087 l 26.7504,8.96282 c 43.35462,14.52515 72.28859,29.5555 100.44429,52.18039 4.96871,3.99266 9.72812,8.03672 14.26195,12.10147 2.18994,2.14086 4.45196,4.36832 6.89568,6.79844 7.42586,7.38452 13.60645,13.69803 18.86491,19.32384 16.16677,18.83719 26.25412,36.74958 27.92495,50.69469 1.12983,9.42979 -0.0636,10.9088 -11.23415,13.9022 -6.87462,1.84217 -19.7318,3.2942 -28.57058,3.22809 -8.83879,-0.0662 -16.9612,1.29986 -18.0501,3.03558 -0.63236,1.00799 -1.99296,0.86434 -3.77259,-0.0681 -2.55585,-2.23103 -5.80314,-5.22497 -9.4626,-8.75086 -2.72008,-2.86302 -5.36497,-5.85122 -7.72021,-8.68863 -3.75364,-5.3046 -6.25759,-10.29846 -5.37691,-12.59345 1.92521,-5.017 -0.19684,-5.9775 -13.26825,-5.99532 -6.96808,-0.0101 -11.13508,-0.43871 -14.225,-2.04964 -0.342,-0.19311 -0.68218,-0.38883 -1.0151,-0.59506 -2.24347,-1.48193 -3.94485,-3.73914 -5.90391,-7.17571 -3.16107,-5.54512 -14.54816,-14.32163 -26.23313,-20.21837 -11.35616,-5.73078 -21.46993,-12.56092 -22.47415,-15.17787 -1.00422,-2.61696 -3.37563,-4.75853 -5.26996,-4.75853 -1.89433,0 -5.85515,-2.40925 -8.80141,-5.35552 -1.3376,-1.33761 -2.95258,-2.54135 -4.53684,-3.46534 -1.29668,-1.11991 -2.94604,-1.89213 -4.30153,-1.89213 -0.30209,0 -0.56083,0.0491 -0.7973,0.12057 -0.75207,0.04 -1.09017,0.3653 -1.05983,0.89647 -0.26581,0.64984 -0.12566,1.55393 0.49199,2.55331 1.06296,1.7199 3.19001,3.16531 5.02105,3.4984 4.78133,4.04529 2.24195,4.19141 -17.64756,2.73221 -21.0196,-1.54212 -23.34146,-1.04968 -23.34146,4.95687 0,3.66841 1.35888,6.6701 3.01808,6.6701 1.6592,0 2.02289,1.60618 0.80896,3.57036 -0.57427,0.92919 -1.28614,1.66308 -2.09436,2.22271 -0.4043,0.19302 -0.76078,0.37237 -1.21541,0.5795 -0.42319,0.19283 -0.75421,0.3214 -1.14343,0.49199 -4.92814,1.28013 -11.62674,-1.99816 -15.11371,-8.51361 -3.24504,-6.06344 -4.07057,-16.30973 -2.65832,-33.03351 2.96952,-35.16462 6.63838,-42.20049 27.51853,-52.78129 l 13.47633,-6.82956 c 2.06409,-0.59641 3.9468,-0.895 5.91947,-0.89842 z m -16.81915,68.08362 c -1.45139,0.0377 -2.51248,2.18429 -2.51248,5.47026 0,0.42959 0.0255,0.84437 0.0603,1.25429 -0.0348,0.31067 -0.0603,0.62727 -0.0603,0.95287 0,1.76359 0.53396,3.0091 1.36125,3.51979 0.61037,1.00127 1.37272,1.62572 2.20911,1.62572 1.96417,-1e-5 3.57229,-2.31517 3.57229,-5.14551 0,-0.43176 -0.0502,-0.8755 -0.12056,-1.32041 0.0704,-0.30572 0.12056,-0.60471 0.12056,-0.88675 0,-1.04992 -0.52987,-1.98059 -1.33791,-2.59804 -0.61441,-1.09864 -1.386,-2.02508 -2.23438,-2.54941 -0.36829,-0.22761 -0.72295,-0.3315 -1.05788,-0.32281 z m 387.95858,2.10799 c 5.58593,0 9.34961,0.6321 11.86616,2.79638 1.08234,1.09504 1.96049,2.45768 2.62332,4.08957 1.2451,4.04914 1.91736,9.29212 2.1002,15.74182 0.0137,0.60652 0.0213,1.21947 0.0253,1.83574 -0.32326,11.43344 -3.04716,24.26951 -7.05902,34.52894 -3.37634,6.7284 -7.98683,12.96258 -13.90414,18.83378 -3.32245,1.43418 -8.93312,5.63563 -12.78403,9.62011 -4.00895,4.14803 -5.17538,4.81066 -2.5922,1.4721 2.64471,-3.41809 3.26531,-6.9548 1.41958,-8.09552 -4.54283,-2.80763 -14.17553,4.87872 -16.17936,12.44371 -0.731,1.2385 -0.90501,2.10822 -0.55422,2.66805 -0.59721,2.29776 -1.78662,4.43098 -3.14059,5.72112 -0.18234,0.0859 -0.33764,0.16804 -0.527,0.25474 -0.84456,0.38672 -1.66788,0.74848 -2.47552,1.08705 -6.8e-4,-3e-5 -10e-4,4e-5 -0.002,0 -1.21219,-0.0605 -1.57375,-1.19611 -1.07539,-3.2281 1.05104,-0.27491 1.76768,-0.77448 1.76768,-1.34956 0,-0.38086 -0.32299,-0.92534 -0.83813,-1.51682 1.07842,-3.40171 0.14613,-4.41443 -3.05697,-3.34672 -0.39163,0.13054 -0.76918,0.31177 -1.13567,0.51921 -1.12142,-0.15558 -1.92459,0.48245 -2.07104,1.73462 -1.10554,1.28951 -1.82601,2.89513 -1.82601,4.43377 0,7.13099 -8.60867,7.4937 -24.1057,1.0151 -15.33105,-6.40925 -16.1769,-10.85375 -6.2306,-32.77099 11.10712,-24.47507 19.98084,-34.79709 44.88412,-52.20568 12.31357,-8.60782 22.7069,-13.94123 30.82635,-15.95183 1.39624,-0.21175 2.74641,-0.33059 4.04484,-0.33059 z m -371.00331,1.54792 c -0.7506,-0.0824 -1.79548,0.1179 -3.09976,0.6184 -3.11038,1.19357 -5.65499,3.73924 -5.65499,5.65694 0,3.92725 5.67174,2.50176 8.57001,-1.19206 1.38167,-0.31793 1.90629,-0.91538 1.1765,-1.64516 -0.0343,-0.0344 -0.085,-0.0588 -0.12251,-0.0914 0.0963,-0.21593 0.19731,-0.4305 0.27225,-0.65534 0.54368,-1.63105 0.1095,-2.55403 -1.1415,-2.69138 z m -4.2782,23.89957 c 2.21481,-0.0476 2.6661,2.048 2.6661,6.25784 0,9.17573 -5.06881,12.50439 -32.97324,21.65934 -33.32208,10.93238 -38.98728,16.29337 -41.16403,38.94715 -0.35384,3.68239 -0.76378,6.75863 -1.27568,9.36342 -1.60349,4.84549 -3.84134,8.89686 -6.91512,12.5779 -0.37383,0.23994 -0.76011,0.47149 -1.16873,0.68645 -9.78219,5.14628 -12.50655,9.41427 -12.8346,21.26848 -0.37643,2.16215 -0.38022,4.13766 0.0194,5.76195 0.32056,7.00842 2.15948,8.04945 9.70957,8.13636 5.40148,0.0621 24.28376,6.19652 41.96133,13.63189 24.22771,10.19039 32.40938,15.33263 33.22799,20.89121 1.13461,7.70445 4.48129,11.47089 26.59094,29.92211 12.69755,10.59654 13.3927,12.26897 13.3927,32.23427 0,11.5815 1.26018,21.05651 2.80027,21.05651 1.54023,0 11.52924,-8.83787 22.19801,-19.64082 10.66875,-10.80297 22.06499,-19.64276 25.32498,-19.64276 3.26,0 14.61944,-3.84253 25.24331,-8.54084 17.80168,-7.87287 27.26935,-16.88934 29.85987,-29.71986 1.91136,-4.89576 1.84185,-8.85925 -0.0992,-17.35003 -0.30878,-1.88527 -0.69157,-3.82939 -1.16679,-5.84946 -5.64001,-23.9759 -5.66464,-27.28004 -0.30919,-40.32006 l 2.10214,-5.12023 c 1.15249,-1.41152 2.11144,-1.96182 3.00252,-1.74823 l 1.71518,9.34981 c 1.4362,7.83216 7.8857,19.24637 15.8721,28.08636 13.16044,14.56705 13.40033,15.33119 10.94247,35.00344 -5.13085,41.06575 -24.62205,74.87016 -56.21552,97.49817 -6.67662,4.78209 -8.78707,5.64577 -8.14219,2.94417 0.0121,-0.046 0.0217,-0.0867 0.035,-0.13418 0.0917,-0.35201 0.2349,-0.77209 0.40838,-1.23484 0.87468,-0.95001 1.42346,-1.95463 1.42346,-2.83139 0,-0.77857 -0.22608,-1.34439 -0.60672,-1.72684 0.98738,-1.40745 0.78551,-1.51839 -0.70979,-0.45115 -0.0247,-0.009 -0.0545,-0.011 -0.0797,-0.0194 -0.28916,-0.27068 -0.67377,-0.41968 -1.11428,-0.48228 -1.87929,-0.3161 -4.96496,1.24323 -7.91466,4.79742 -0.0538,0.0648 -0.0881,0.1173 -0.14001,0.18085 -0.0491,0.058 -0.0988,0.10626 -0.1478,0.16529 -3.04348,3.66713 -3.42804,4.9856 -1.05788,5.37109 0.44377,0.30319 1.03349,0.57399 1.79101,0.82647 0.24996,0.0833 0.47536,0.17139 0.67673,0.26252 -0.49478,1.08283 -2.92856,2.96939 -6.76733,5.08328 -7.10834,3.91406 -21.52889,6.28263 -42.85393,7.04152 -34.55643,1.23029 -62.21446,-5.67807 -100.59402,-25.12663 -1.86656,-0.94586 -3.72569,-1.95663 -5.57916,-2.99862 -5.15031,-2.99133 -10.13304,-6.17135 -14.94452,-9.50733 -34.21275,-24.33932 -63.38662,-62.97067 -71.77843,-97.21425 -10.15997,-41.4587 2.19251,-77.67484 34.94898,-102.46866 6.98005,-5.28327 11.89346,-9.01728 16.10936,-11.87394 7.72751,-4.08003 16.2917,-7.65818 25.72558,-10.75383 4.13603,-1.05333 9.03448,-2.21496 15.1001,-3.66369 15.97925,-3.81654 34.18293,-10.11192 40.45424,-13.98777 7.05691,-4.36135 11.03593,-6.55058 13.25074,-6.59814 z m 12.40483,0.12446 c 1.93423,0.036 5.28291,1.30117 11.15637,3.34866 3.03606,1.05838 5.37281,1.99533 7.09986,2.92279 0.35441,0.19981 0.68008,0.39381 1.00344,0.58727 0.002,0.001 0.004,0.003 0.006,0.004 3.1e-4,1.9e-4 -3e-4,0.002 0,0.002 0.6153,0.67548 1.02807,1.36658 1.24069,2.10409 0.52768,1.96741 -0.43551,4.24914 -2.62526,7.38962 -0.14722,0.20631 -0.29994,0.41577 -0.4531,0.62617 -0.77233,0.75692 -1.61211,1.55142 -2.58248,2.42496 -3.83122,3.44888 -5.66919,6.11669 -6.21116,11.39168 l -0.26447,-1.019 0.21974,1.5207 c -0.14269,1.68129 -0.16403,3.63302 -0.0817,5.93698 -0.006,0.10746 -0.0199,0.17112 -0.0253,0.28586 -0.0224,0.47422 -0.0258,0.97831 -0.0233,1.49154 -0.46474,4.33064 -0.12365,8.57686 1.05982,12.44177 0.73578,11.60377 -0.17247,20.99493 -2.54357,25.3522 -3.87223,7.11582 -5.11478,7.36668 -15.28678,3.07642 -6.08962,-2.56842 -12.06552,-7.25857 -13.27991,-10.42324 -1.21441,-3.16468 -6.07866,-5.75418 -10.81023,-5.75418 -4.73159,0 -10.80978,-2.66227 -13.5055,-5.91558 -2.02857,-2.4482 -3.2619,-3.66049 -4.1654,-3.37005 -1.39405,-1.31273 -1.7691,-0.30803 -1.66072,3.39922 -0.28476,1.17723 -0.5699,2.58508 -0.89454,4.43571 -1.53281,8.73809 -3.50991,10.37852 -12.5001,10.37852 -8.87898,0 -10.86252,-1.58593 -11.76894,-9.40814 -0.11439,-0.98722 -0.1111,-1.95695 -0.006,-2.91306 0.1979,-1.02753 0.43189,-2.05083 0.73509,-3.05309 3.35922,-8.96106 17.25966,-16.63015 43.21561,-24.02401 25.75388,-7.33629 30.11884,-10.42098 30.33437,-22.54416 0.003,-0.16846 0.0214,-0.3245 0.0214,-0.49588 0,-4.72673 1.09214,-8.75899 2.59609,-10.19961 z m 365.23941,13.71161 c -1.82109,0 -3.31664,1.38751 -3.52757,3.1542 -0.0253,0.13752 -0.0428,0.2764 -0.0428,0.4181 0,1.96417 1.51208,3.57035 3.36033,3.57035 0.0337,0 0.0709,-0.009 0.10501,-0.01 0.0357,0.001 0.0691,0.01 0.10501,0.01 0.66257,0 1.27714,-0.19368 1.81046,-0.51144 1.3717,-0.6242 2.74255,-1.75726 3.54701,-3.05891 1.21393,-1.96417 -0.29814,-3.5723 -3.36033,-3.5723 -0.4191,0 -0.82409,0.0363 -1.21734,0.0933 -0.25184,-0.0568 -0.51143,-0.0933 -0.7798,-0.0933 z m -325.03019,1.8163 c 3.16741,-0.0845 6.08751,1.12404 10.82189,3.57229 6.66948,3.44891 11.59354,9.61384 13.558,16.97666 1.33445,5.00169 2.38926,7.83195 4.29569,9.33814 0.17938,3.37255 0.93524,4.23376 3.91261,3.45951 0.93638,0.10169 2.0531,-0.2761 3.43229,-1.04427 1.99635,0.16059 4.46675,0.16851 7.60935,0.10501 4.06542,-0.0821 7.05005,-0.0357 9.30702,0.32281 0.50832,0.18621 0.97411,0.38661 1.40014,0.597 1.92482,1.41638 3.48231,3.52461 4.79742,6.37647 2.00022,5.98165 1.9628,14.70039 -0.0972,20.67341 -0.99331,1.37563 -2.22115,2.78705 -3.70258,4.26847 -1.35692,1.35693 -2.72971,2.54131 -4.11096,3.57424 -3.5369,1.46039 -8.21585,2.74716 -12.46511,3.30783 -3.45485,0.45586 -6.10123,0.56165 -8.42611,0.12056 -1.06455,-0.43445 -2.11269,-0.94809 -3.14058,-1.53431 -2.78645,-1.64105 -5.52399,-3.93959 -8.18302,-6.89179 -0.45075,-0.53186 -0.89492,-1.07667 -1.3243,-1.64905 -3.26382,-4.35078 -6.08812,-9.55952 -7.57825,-13.64357 0.0881,-0.51088 0.25805,-0.9913 0.51533,-1.4468 0.81818,-0.50708 1.36305,-1.21662 1.68017,-2.03992 2.41488,-2.84906 1.67475,-5.29092 -2.69138,-9.65706 -5.19549,-5.1955 -6.13534,-5.72064 -7.64436,-0.57561 -1.32603,-0.0153 -1.75339,0.85453 -1.37485,2.64275 -0.33551,0.714 -0.54256,1.50746 -0.54256,2.3569 0,0.44293 -0.0498,0.84857 -0.14196,1.22318 -1.66658,2.99884 -4.27724,3.25004 -10.08488,1.86491 -7.39453,-1.76364 -11.09234,-2.82766 -12.9396,-5.5111 -0.54088,-2.50357 -0.81347,-6.00101 -1.13372,-10.96579 -0.0651,-1.00949 -0.0989,-1.79583 -0.14973,-2.69138 -0.14252,-2.70631 -0.21353,-5.04169 -0.12057,-6.89179 0.95988,-5.80016 3.90037,-8.08058 12.22203,-12.04896 5.71848,-2.72696 9.1324,-4.10429 12.29982,-4.18874 z m 296.51989,3.98261 c -2.6238,-0.16668 -8.80031,2.05984 -15.40928,5.70556 -13.79891,7.6119 -30.87336,30.27675 -31.01693,41.17181 -0.008,0.61253 0.0358,1.1378 0.10501,1.61989 -0.10441,0.41536 -0.16335,0.74299 -0.16335,0.95481 0,0.13038 0.0272,0.23198 0.0661,0.32281 -0.0185,0.098 -0.0661,0.25191 -0.0661,0.31308 0,0.56088 0.18369,0.85502 0.50172,0.93538 0.25234,0.32858 0.63546,0.37324 1.14928,0.13029 2.34759,1.06052 6.87666,-2.84771 10.75189,-10.34157 2.99461,-5.79096 11.47384,-15.02209 18.84156,-20.51396 15.57413,-11.60881 18.97754,-15.70163 16.45162,-19.78861 -0.18877,-0.30542 -0.60602,-0.47102 -1.21152,-0.50949 z m -239.33012,8.84421 c -1.30946,0 -2.61941,0.83228 -4.28597,2.49885 -3.33314,3.33312 -2.38034,4.28597 4.28597,4.28597 6.6663,0 7.61717,-0.95285 4.28403,-4.28597 -1.66656,-1.66657 -2.97458,-2.49885 -4.28403,-2.49885 z m 266.58419,4.23152 c -1.51778,-0.10555 -3.07082,1.201 -4.1868,3.37394 -1.01404,0.94773 -1.69961,2.6225 -1.69961,4.53683 0,0.44395 0.048,0.86831 0.11668,1.28152 -0.0686,0.31765 -0.11668,0.62992 -0.11668,0.92565 0,0.29604 0.048,0.55062 0.11668,0.78368 0.10184,6.89701 0.32742,7.34995 4.26458,2.22077 1.27544,-0.44814 2.28034,-1.93374 2.62332,-3.82121 1.67773,-3.01637 2.38451,-6.00281 1.56348,-7.33127 -0.79606,-1.28806 -1.73043,-1.90377 -2.68165,-1.96991 z m -243.75418,16.8386 c -0.24373,-1e-5 -0.4706,0.26091 -0.6709,0.68256 -1.04416,-0.55636 -2.02406,-0.58176 -2.67581,0.07 -1.28193,1.2819 0.64009,6.4067 4.27042,11.38974 8.72026,11.96957 11.95756,11.58249 11.95756,-1.42931 0,-5.89253 -1.60618,-10.71299 -3.57036,-10.71299 -1.96417,-1e-5 -3.59816,2.00965 -3.62673,4.46487 -0.0302,2.4634 -0.77329,2.71012 -2.25967,0.80703 -1.12764,-2.9063 -2.66021,-5.2719 -3.42451,-5.2719 z m -52.97574,14.28528 c -6.3089,0 -10.34193,5.87628 -7.35267,10.713 0.021,0.034 0.0448,0.0637 0.0661,0.0972 0.0827,0.43944 0.25994,0.8239 0.56005,1.12401 4.55848,4.55848 10.93072,2.41341 11.77283,-3.45951 2.9e-4,-0.002 0.002,-0.004 0.002,-0.006 10e-5,-6.3e-4 -9e-5,-0.001 0,-0.002 0.0111,-0.0779 0.0181,-0.15807 0.0272,-0.23725 0.043,-0.35064 0.07,-0.7103 0.07,-1.08705 0,-0.28261 -0.0136,-0.55997 -0.0369,-0.83425 -0.18468,-3.53442 -1.49741,-6.3084 -3.09585,-6.3084 -0.32749,0 -0.66737,0.0532 -1.01122,0.13807 -0.32402,-0.0896 -0.65922,-0.13807 -1.00148,-0.13807 z m -38.20625,3.60147 c 6.36,0.0358 13.67884,2.4369 18.35347,7.11153 3.22453,3.22453 5.47331,8.79679 6.54953,15.01841 0.2232,1.74544 0.37416,3.53167 0.46477,5.32246 -0.0448,2.77713 -0.19486,5.56605 -0.45894,8.19859 -0.76683,4.9261 -2.20982,9.53007 -3.87566,11.74559 -0.0734,0.0977 -0.14019,0.18005 -0.21196,0.2742 -3.28991,2.50563 -8.77478,2.61922 -14.61393,0.93731 -1.34605,-0.58052 -2.83895,-1.2461 -4.52906,-2.01075 -2.58916,-1.17141 -4.89862,-2.33101 -6.96568,-3.49839 -4.28001,-2.96174 -8.03299,-6.77863 -10.38629,-11.17582 -2.02522,-3.78416 -2.85749,-8.1185 -2.32968,-11.38779 0.0999,-0.46504 0.21235,-0.93739 0.33837,-1.41764 0.12583,-0.38468 0.27014,-0.75237 0.44532,-1.08705 1.57955,-3.01767 3.71457,-8.21596 4.79353,-11.65614 0.29702,-0.51105 0.59394,-0.9926 0.89647,-1.42736 2.81722,-3.6579 5.89881,-4.76664 11.52974,-4.94715 z m 85.76035,9.98181 c 0.69743,0.0464 1.3205,0.27601 1.92325,0.63979 0.59443,0.50664 1.20527,1.0417 1.91935,1.68794 0.0361,0.0326 0.0596,0.0571 0.0953,0.0894 0.0393,0.0443 0.0791,0.0907 0.11862,0.13612 3.01766,3.8409 2.63106,7.38786 -1.60043,15.57069 -6.6128,12.78771 -7.1985,32.9467 -1.42347,48.9173 0.19458,0.53811 0.36753,1.08167 0.53088,1.62572 0.33322,2.17304 0.71916,4.694 0.98982,6.45618 0.13132,0.85503 0.23855,1.65827 0.33448,2.43858 0.0439,6.72374 -2.00397,13.34757 -5.73279,18.7774 -1.84625,2.38574 -3.96257,4.60938 -6.24811,6.5573 -2.76303,1.82035 -6.13433,3.63179 -9.74068,5.31858 -5.31086,2.05349 -12.07043,4.06214 -17.30531,5.04439 l -12.86181,2.41328 c -0.0686,-0.0569 -0.14261,-0.11093 -0.19835,-0.17501 l 3.25337,-11.345 c 0.64875,-2.2621 1.22199,-4.17083 1.76962,-5.82613 0.30999,-0.73888 0.586,-1.35244 0.86925,-2.00103 0.7825,-1.77876 1.51377,-3.32249 2.18188,-4.50572 2.20229,-2.56172 5.06662,-1.71894 10.84523,0.91398 6.70464,3.05486 10.09326,3.37396 10.24823,0.75647 3.44248,-0.24429 2.44576,-1.50672 -2.98113,-7.5413 -0.92562,-1.58063 -2.04166,-3.3443 -3.39727,-5.34192 -2.00998,-2.96185 -3.87011,-5.34325 -5.5461,-7.12708 -0.0769,-0.13872 -0.14045,-0.26653 -0.21392,-0.40254 -0.49131,-0.97296 -0.93076,-1.90879 -1.25817,-2.73805 -0.54892,-1.39028 -0.97961,-2.41422 -1.36319,-3.21448 l -1.57905,-3.92816 -0.63783,2.88389 -1.5421,-2.88195 -0.0836,5.68223 c -0.0988,0.23045 -0.1888,0.50931 -0.2742,0.82258 -1.12267,0.45515 -1.8774,1.84586 -2.19548,4.20818 -0.18257,1.35579 -0.46574,3.20495 -0.74091,4.92966 -0.303,0.43872 -0.61978,0.83325 -0.94899,1.19206 -0.40187,0.0855 -0.81908,0.0475 -1.25428,-0.11085 -1.66406,-2.25118 -4.26079,-6.90461 -7.07458,-12.85403 -7.88666,-16.67539 -8.15414,-22.27458 -0.9626,-40.35507 1.43795,-2.56519 2.98853,-4.50109 4.61267,-5.75807 1.18992,-0.67813 2.56376,-1.23887 4.18097,-1.74433 1.11566,-0.17059 2.11413,-0.3429 3.13669,-0.51338 1.05138,-0.0901 2.16582,-0.14002 3.36227,-0.14002 8.23108,0 15.81709,-3.35766 24.18543,-10.70521 3.834,-3.3663 6.59264,-5.59668 8.73141,-6.8529 1.56982,-0.74491 2.81055,-1.07035 3.87566,-0.99954 z m 85.82453,0.75647 c 32.69598,0.066 37.7977,2.35703 29.11508,13.0796 -5.10274,6.30164 -8.89467,7.41476 -20.2106,5.93503 -16.49357,-2.15684 -33.57218,3.53936 -33.57218,11.19721 0,6.48628 1.50372,6.63278 15.81767,1.54988 6.41487,-2.27795 15.4019,-1.87519 21.98021,0.0875 5.8352,2.70681 8.3388,5.96484 7.26126,8.94726 -1.05281,1.32996 -2.67448,2.74194 -4.63601,4.07984 -8.85223,4.36798 -24.87547,6.22886 -29.7393,2.14882 0.0177,-0.21307 0.0311,-0.4311 0.0311,-0.65534 0,-1.96417 -1.60812,-3.57035 -3.5723,-3.57035 -0.0346,0 -0.0668,0.009 -0.10113,0.01 -0.037,-10e-4 -0.0717,-0.01 -0.10889,-0.01 -0.70241,0 -1.23395,0.19502 -1.60239,0.51339 -1.04675,0.62444 -1.75794,1.75606 -1.75794,3.05696 0,0.12839 0.0236,0.25033 0.037,0.37532 -0.98652,1.24368 -1.75651,1.8222 -2.4483,1.63933 -0.32547,-0.5126 -0.64914,-1.06152 -0.97815,-1.67628 -0.10593,-0.19793 -0.22268,-0.38786 -0.33837,-0.5795 -0.042,-0.28432 -0.14151,-0.58287 -0.30142,-0.89259 -0.0145,-0.0245 -0.027,-0.0483 -0.0447,-0.0739 -0.2505,-0.46041 -0.63266,-0.93594 -1.14539,-1.40987 -1.32296,-2.76869 -3.64175,-4.05096 -8.03523,-4.19652 -1.02469,-0.21314 -2.07953,-0.32864 -3.15226,-0.32864 -0.69927,0 -1.34881,0.0339 -1.96214,0.0895 -1.58569,-0.0695 -2.90891,0.0778 -3.83481,0.43364 -0.38375,0.0858 -0.70507,0.20898 -0.95093,0.37532 -7.84453,0.0591 -14.31195,-2.93263 -17.3092,-7.19515 -0.80493,-1.26092 -1.34555,-2.4753 -1.62766,-3.67147 -0.13636,-0.6704 -0.18544,-1.35749 -0.15946,-2.05354 0.48326,-2.69777 1.93751,-5.52558 4.36376,-8.4786 1.48201,-1.56079 3.34216,-3.21677 5.59083,-5.0055 11.78264,-8.48085 31.54492,-13.7655 53.3919,-13.72133 z m 74.57481,3.90676 c 2.51105,-0.0215 5.24019,0.19264 8.04301,0.597 10.91431,2.79243 23.91844,8.93571 30.30325,15.42485 2.18413,2.91434 3.47506,5.96565 3.47506,8.97061 0,3.88494 -1.69774,6.7401 -4.79158,8.46887 -2.52537,0.95561 -5.77,1.0989 -9.49371,0.16919 -3.92835,-0.98079 -9.67987,-1.80327 -12.78208,-1.83185 -0.94718,-0.008 -1.80122,-0.26022 -2.5397,-0.70395 l 1.03844,-1.12983 -1.18817,1.04232 c -0.17054,-0.11101 -0.33546,-0.23146 -0.49199,-0.36364 -1.15862,-1.44751 -1.64,-3.19653 -1.31653,-5.19996 0.0823,-0.41471 0.178,-0.84189 0.29754,-1.29902 1.22341,-4.6783 0.79789,-6.56595 -1.56544,-6.28117 -0.63306,-0.26713 -1.41988,-0.39865 -2.37245,-0.39865 -3.97459,0 -5.00717,2.05876 -3.96705,8.35998 -0.066,0.82354 -0.11085,1.67309 -0.11085,2.55915 0,7.43565 -2.84724,13.10446 -8.92782,17.7759 -14.54714,11.17593 -32.6698,6.28754 -37.27671,-6.09643 -0.63766,-1.92714 -0.9947,-3.99274 -1.09678,-6.13143 -0.0145,-2.04375 0.27334,-4.20443 0.95093,-6.47175 5.49205,-18.3771 12.26745,-24.88211 23.37257,-22.44302 6.54103,1.43666 10.47964,0.85248 10.47964,-1.55377 0,-0.57048 0.10086,-1.07929 0.28975,-1.53237 0.22785,-0.12717 0.44762,-0.25732 0.65728,-0.39283 0.0318,-0.0135 0.0697,-0.0253 0.10113,-0.0389 2.29518,-0.99479 5.39326,-1.46914 8.91226,-1.49931 z m -321.79043,0.13418 c 2.10129,-0.01 4.21694,0.0467 6.3395,0.16529 5.76918,0.50855 12.16985,1.58028 19.78083,3.21255 3.79798,0.81452 6.9041,1.59411 9.55011,2.4833 4.7372,2.25134 8.97564,5.06393 12.53511,8.41249 1.59319,1.91745 3.18072,4.20536 4.95882,7.02207 5.75959,9.12378 13.82875,16.01041 23.11588,19.72638 7.31071,2.92517 12.94311,6.14839 17.19252,10.12766 0.0812,0.0783 0.1644,0.15496 0.24502,0.23335 7.98937,7.63379 10.98136,18.04098 10.98136,34.39671 0,12.8835 -2.08539,24.71706 -5.50332,33.48856 -2.85241,4.65798 -6.48692,9.62008 -10.15489,14.00137 -0.70363,0.37695 -1.42005,0.67427 -2.15076,0.86536 -3.9546,1.03423 -7.19126,3.29941 -7.19126,5.03466 0,1.73491 -1.60618,3.1542 -3.57036,3.1542 -1.96417,0 -3.62909,-5.22201 -3.69869,-11.60558 -0.17268,-15.83803 -7.1085,-27.11536 -23.52814,-38.24902 -1.78026,-1.20715 -3.36321,-2.36993 -4.78769,-3.5159 -3.73825,-3.88644 -6.776,-7.60724 -8.98032,-11.01441 -0.88527,-2.07315 -1.48593,-4.29816 -1.85907,-6.79262 -0.72288,-4.83233 -1.49796,-7.82797 -3.72009,-10.17239 -0.44347,-3.31797 -1.98228,-4.31587 -5.41581,-3.68314 -0.1052,-0.004 -0.20221,-0.0119 -0.31114,-0.0136 -1.07655,-0.48311 -2.26647,-0.96939 -3.63452,-1.47403 -3.23812,-1.50913 -7.46873,-3.10175 -13.13213,-5.07745 -7.98958,-2.78718 -14.97704,-5.23979 -21.24514,-7.48295 -3.46819,-1.48804 -6.6238,-2.92553 -9.05032,-4.16346 -7.02702,-3.5849 -15.43573,-6.59911 -20.12309,-7.30599 -4.53549,-2.18841 -7.47057,-4.08719 -8.98422,-5.8767 -0.0604,-0.49716 -0.0933,-1.02199 -0.0933,-1.58682 0,-3.56651 2.29748,-6.69856 7.90883,-10.28712 1.41695,-0.85233 2.99095,-1.7587 4.69824,-2.71081 1.82399,-0.96682 3.85202,-1.97177 6.14116,-3.03752 8.46057,-3.93897 15.47906,-6.41752 22.6375,-7.60936 3.60798,-0.40653 7.29954,-0.64716 11.04942,-0.66507 z m 193.97929,24.47324 c -1.81916,0 -3.31604,1.38435 -3.52951,3.14836 -0.026,0.13928 -0.0428,0.28034 -0.0428,0.42393 0,1.96418 1.51207,3.57035 3.36033,3.57035 0.0342,0 0.0723,-0.009 0.10695,-0.01 0.0356,10e-4 0.0691,0.01 0.10501,0.01 0.66515,0 1.28158,-0.19723 1.81629,-0.51728 1.36895,-0.62503 2.73833,-1.75402 3.54118,-3.05307 1.21393,-1.96417 -0.30009,-3.57229 -3.36228,-3.57229 -0.41847,0 -0.82268,0.0365 -1.21539,0.0933 -0.25185,-0.0568 -0.51143,-0.0933 -0.7798,-0.0933 z m 118.10936,0.87703 c -2.36611,-0.10557 -5.34101,1.87073 -6.5826,5.59471 v 0.002 c -0.007,0.0223 -0.0105,0.0439 -0.0175,0.0661 -0.006,0.0177 -0.0154,0.0327 -0.0214,0.0506 -0.7712,2.31357 0.0334,3.62618 2.1391,3.76092 0.61775,0.22944 1.33509,0.36365 2.1391,0.36365 0.0242,0 0.0478,-0.004 0.072,-0.004 0.005,1.2e-4 0.0102,0.004 0.0155,0.004 0.009,0 0.0217,-0.005 0.0311,-0.006 0.36105,-0.008 0.71605,-0.0476 1.05788,-0.12057 0.0648,0.0162 0.12447,0.0436 0.19058,0.0564 0.23192,0.045 0.47205,0.07 0.71757,0.07 0.14359,0 0.28464,-0.0168 0.42392,-0.0428 1.76401,-0.21348 3.14643,-1.71037 3.14643,-3.52952 0,-0.20428 -0.0269,-0.40185 -0.0603,-0.597 0.17904,-0.39523 0.2697,-0.79534 0.24891,-1.18817 -0.0243,-0.46005 -0.1253,-0.85656 -0.25668,-1.22318 -0.004,-0.0316 -0.007,-0.0642 -0.0117,-0.0953 -0.0204,-0.13086 -0.0554,-0.24506 -0.0836,-0.36753 -0.0486,-0.22325 -0.10079,-0.44044 -0.17113,-0.63395 -0.003,-0.007 -0.007,-0.0123 -0.01,-0.0195 -0.20038,-0.54212 -0.47646,-0.96927 -0.82064,-1.24846 -0.57738,-0.55707 -1.32206,-0.85578 -2.14687,-0.89258 z m 57.6312,13.82635 c 0.4194,0.002 0.79574,0.0124 1.19984,0.0175 7.65701,0.56247 14.16875,1.69494 19.79638,3.53534 2.16204,1.0337 4.29739,2.3225 6.67983,3.94373 6.59199,4.48578 14.95197,12.17318 18.5771,17.08361 6.72643,9.11139 12.87605,33.51903 13.22157,49.00676 -0.0872,3.72603 -0.47582,7.19578 -1.17456,10.46797 -4.28064,13.69454 -19.95533,30.23042 -35.68988,37.37783 -6.02124,2.73493 -16.22731,4.73731 -26.87681,5.7639 -1.66561,0.0791 -3.23584,0.16418 -5.10273,0.23335 -14.35988,0.53206 -24.87856,-0.16909 -33.10157,-2.84306 -12.51507,-6.04602 -25.52898,-23.33948 -31.27751,-41.97494 -2.00152,-6.48821 -1.0992,-8.03523 4.6924,-8.03523 3.94478,0 8.16859,-1.60844 9.38481,-3.57619 0.91733,-1.48429 -0.7254,-3.41327 -3.68508,-5.22524 -0.5782,-0.41435 -1.31208,-0.81705 -2.21105,-1.20372 -4.79147,-2.36723 -11.53863,-4.27819 -17.17113,-4.27819 -8.85511,0 -12.75951,11.20915 -5.70167,16.36993 2.22776,1.62885 4.14691,4.04255 5.02883,6.12755 0.32038,1.09795 0.46062,2.10544 0.42004,2.97529 -1.05236,4.33387 -10.73458,-1.47185 -14.67422,-8.29776 -0.78386,-2.02709 -1.34175,-4.17205 -1.61015,-6.32784 0.32069,-8.6826 7.53934,-23.6609 15.63875,-34.99955 5.16247,-6.30796 10.89128,-11.77331 16.12881,-14.9873 0.40967,-0.0902 0.80768,-0.1439 1.18817,-0.1439 2.53553,0 9.88888,-4.491 16.34076,-9.97987 10.3021,-8.76437 15.0151,-10.0849 38.70019,-10.8355 4.32333,-0.13701 8.03446,-0.21049 11.27888,-0.19447 z m -17.42004,10.2949 c -10.38173,0 -18.98926,7.76672 -23.04004,17.27614 -0.0649,0.14673 -0.1285,0.29354 -0.19057,0.44143 -0.0693,0.16955 -0.13781,0.33894 -0.20419,0.50949 -0.14511,0.36805 -0.2808,0.74004 -0.40837,1.11428 -2.78112,7.99995 -2.32629,16.87879 2.90139,23.31618 0.22534,0.62741 0.45975,1.14034 0.70785,1.38846 0.50876,0.50876 1.07396,0.92972 1.66655,1.30291 5.35106,5.87646 5.91394,5.3418 19.38802,-1.05205 19.14275,-9.08376 21.81855,-33.97698 8.65945,-41.85827 -1.54258,-1.26344 -3.3203,-1.97415 -5.44692,-2.10409 -0.69751,-0.21481 -1.39354,-0.33448 -2.08076,-0.33448 -0.14603,0 -0.35989,0.0378 -0.55227,0.0642 -0.46201,-0.0286 -0.91855,-0.0642 -1.40014,-0.0642 z m -83.77294,5.13578 c 4.07965,-0.0406 7.5762,0.14096 9.89236,0.57172 l 7.88161,1.46626 0.0953,0.035 2.60192,1.22901 -1.05983,1.66266 -11.30417,15.2226 c -12.7402,17.15483 -13.41677,17.52496 -31.99896,17.52895 -10.44106,0.002 -22.09361,1.66755 -25.89282,3.70064 -0.41533,0.22227 -0.80343,0.42263 -1.17067,0.60478 -1.20361,-0.11215 -2.29309,-0.24627 -3.25142,-0.40838 -0.71639,-0.29418 -1.35224,-0.65343 -1.90964,-1.09288 -0.0183,-0.0346 -0.0384,-0.0636 -0.0564,-0.0992 -0.43892,-2.13187 -0.51922,-5.70316 -0.51922,-11.21277 0,-8.74725 -1.06742,-18.68624 -2.37246,-22.08716 -0.22528,-0.58709 -0.39823,-1.09994 -0.53866,-1.57321 0.64119,-1.54296 1.93587,-2.43413 4.46682,-2.96752 0.76541,0.15287 1.6199,0.34567 2.59804,0.59117 4.89408,1.22833 18.41515,0.67622 30.04849,-1.22706 7.27085,-1.18959 15.6903,-1.87692 22.48971,-1.94464 z m -395.07012,0.5056 c 0.83959,0.009 1.44214,0.20885 1.86491,0.59117 0.3609,0.88144 0.59421,2.11556 0.73507,3.74149 -0.35986,2.46506 -1.87772,5.10117 -3.68314,6.21699 -2.50312,1.54702 -1.90307,5.16663 1.78712,10.79856 0.93625,1.4289 1.74446,2.98074 2.44636,4.60489 0.14201,4.38696 0.30659,8.84227 0.49004,12.7218 0.5186,10.96689 -0.75212,18.06894 -3.39339,18.96603 -2.04008,0.69311 -4.29219,-0.70198 -6.287,-3.30198 -1.83123,-3.7309 -3.51597,-9.51964 -4.84603,-17.22753 -0.31995,-1.85415 -0.68051,-3.50051 -1.05982,-5.01716 -0.6746,-5.4394 -2.45006,-9.34344 -4.32682,-10.29101 l -0.13807,-0.65923 -0.13418,0.54061 c -1.2373,-0.4318 -2.49627,0.43581 -3.48867,3.02197 -0.98145,2.55761 -1.81447,7.17891 -2.13521,11.40139 -1.53162,7.10226 -5.19892,8.04625 -6.66816,2.61165 -0.26955,-5.58692 1.29719,-13.23421 3.82316,-20.15226 4.27613,-7.61518 11.04782,-14.46202 17.69229,-16.77831 3.4256,-1.19417 5.76954,-1.80525 7.32154,-1.78907 z m 363.71094,47.92748 c 19.45083,0 20.5672,0.49571 24.12903,10.713 4.1878,12.01325 5.19644,11.71553 -22.67638,6.70509 -16.02507,-2.88053 -25.03792,-4.50359 -29.44762,-5.9039 -1.70428,-0.88929 -2.78928,-1.81763 -3.25532,-2.75167 0.27381,-0.43613 0.58996,-0.89193 0.94899,-1.36707 0.73258,-0.67014 1.73804,-1.42355 2.97723,-2.32968 4.06652,-2.97341 15.35235,-5.06577 27.32407,-5.06577 z m -404.740795,0.51145 c 0.996192,0.0909 1.986682,0.44775 3.03752,1.07537 0.54542,0.68079 1.114886,1.61468 1.796843,2.83334 1.864484,3.3316 10.571682,9.23392 19.349122,13.11656 4.71674,2.08642 8.95926,4.66251 11.88755,7.05709 1.48192,1.83497 2.28496,3.69218 2.28496,5.46442 0,3.01704 -0.44005,5.07722 -1.66656,6.15477 -3.82127,0.39277 -11.47424,-3.14065 -26.05033,-11.11359 L 83.97265,393.58831 c -2.044518,-1.95475 -3.136548,-3.69696 -3.338938,-5.3283 l 5.06383,-4.58157 c 2.862537,-2.59062 4.66729,-4.10495 6.030313,-4.61655 z m 66.877945,17.34419 c 6.56671,0 48.26001,49.49333 48.26001,57.28895 0,3.73158 -5.10295,14.02349 -11.33917,22.87085 -8.23381,11.68146 -12.12392,15.05514 -17.49004,14.41947 -0.39221,-0.098 -0.79796,-0.16548 -1.2154,-0.20224 -0.1825,-0.0392 -0.35969,-0.0698 -0.54644,-0.11668 -4.35248,-1.09243 -8.9865,-0.24882 -10.29879,1.87463 -4.48672,7.25959 -8.57209,3.84083 -25.07606,-20.98456 l -10.22295,-15.37817 c -2.77177,-5.51182 -4.31551,-9.80703 -4.57962,-12.78403 l 4.36182,-8.44166 c 10.80689,-20.91953 23.67735,-38.54656 28.14664,-38.54656 z m 541.10444,1.04426 c 2.5075,0.0511 6.2163,1.34756 10.42713,3.42451 3.22843,1.9592 7.14611,4.68301 12.01785,8.25693 12.64081,9.27341 20.18135,18.68347 22.8903,29.04506 0.17776,1.27178 0.31725,2.56466 0.41421,3.87372 0.0191,0.30563 0.0455,0.60826 0.0603,0.91592 0.005,0.0911 0.009,0.18297 0.0136,0.27419 0.22211,5.05839 -0.1327,10.35254 -0.92177,15.30234 -0.99562,3.73999 -2.4506,7.6232 -4.37543,11.67948 -2.12241,4.47267 -3.98388,7.33089 -5.51692,8.51944 -0.62611,0.28649 -1.26875,0.47394 -1.9252,0.56589 -0.40375,-0.13137 -0.76594,-0.45203 -1.0851,-0.96843 -3.63254,-5.87752 -10.58659,-0.91215 -10.58659,7.5588 0,1.73839 -0.41783,3.14192 -1.14928,4.23347 -1.61005,1.04114 -3.71765,1.68376 -6.43674,1.99909 -1.87004,0.21685 -3.7074,0.14036 -5.49555,-0.19447 -4.12869,-1.48724 -8.52008,-4.50691 -12.01006,-8.92782 -6.21753,-7.87598 -7.43334,-13.18724 -6.13727,-26.8204 0.89034,-9.36554 4.50573,-20.19056 8.04885,-24.1057 1.94748,-2.15189 3.19078,-4.08452 3.58201,-5.39053 0.67066,-1.07538 0.56725,-1.57334 -0.1789,-1.52265 -0.15905,-0.12106 -0.37414,-0.19252 -0.66118,-0.19252 -0.36438,0 -0.79328,0.10026 -1.24651,0.24502 l 1.07927,-2.0302 -0.63978,0.59311 0.17696,-0.39086 -3.62091,3.40116 c -1.18552,0.82208 -2.3746,1.86318 -3.40895,3.01418 -0.98785,0.71418 -2.02425,1.48883 -3.1328,2.3608 -1.39711,1.09899 -2.65258,2.01562 -3.78426,2.78277 -1.13914,0.45578 -2.2416,0.73702 -3.17948,0.73702 -4.00699,0 -3.56013,-2.0576 1.97574,-9.09506 3.9351,-5.00293 8.19645,-13.84079 9.47038,-19.64082 1.07907,-4.91304 2.28566,-7.98667 4.39099,-9.17673 0.308,-0.12346 0.62317,-0.23242 0.94509,-0.32671 z m -635.154771,6.10227 c 18.928958,0.005 47.025391,12.11415 52.197891,22.49748 3.78827,7.60422 3.49782,12.18398 -1.78516,28.11165 -7.72094,23.27763 -16.881618,26.00894 -38.233481,11.40334 -13.958924,-9.54862 -30.887131,-14.58614 -41.595745,-13.4277 -3.715271,0.008 -6.426915,0.80902 -7.597689,2.54164 -0.01422,0.0211 -0.035,0.0389 -0.04862,0.0603 -0.0022,0.003 -0.0037,0.006 -0.0058,0.01 -0.0022,0.003 -0.0056,0.006 -0.0078,0.01 -0.049,0.077 -0.08658,0.14219 -0.13418,0.2178 -0.456499,0.3841 -0.871176,0.79901 -1.221231,1.26011 -4.440668,5.84968 -4.775025,5.79467 -5.386639,-0.90425 -0.867157,-9.4977 0.255438,-21.87976 2.430794,-29.58956 1.792185,-3.75231 4.053685,-7.15154 6.747884,-9.84569 0.396823,-0.39683 0.798959,-0.78201 1.203729,-1.16095 8.448585,-6.01691 22.860692,-11.18583 33.436055,-11.1836 z m 406.257611,0.48616 c 5.00086,-0.11804 12.6925,1.16346 26.17479,3.9515 13.71904,2.83661 27.82495,7.4558 34.00778,10.98525 0.66399,0.41422 1.30242,0.8298 1.88824,1.24651 0.004,0.003 0.009,0.007 0.0136,0.01 0.10647,0.0839 0.23841,0.17291 0.33253,0.25474 4.14978,3.60837 13.16874,9.34093 20.04336,12.73932 4.77544,2.36067 11.2925,5.94064 16.89304,9.21756 1.94093,1.30236 3.94414,2.50893 6.00309,3.61896 0.20571,0.1299 0.44327,0.2749 0.63978,0.4006 17.45234,11.16401 49.12749,12.86057 74.27728,3.97678 5.97559,-2.11078 11.7296,-3.78116 16.15798,-4.77213 9.24683,-0.83413 9.72531,3.60693 11.00079,15.7671 0.005,0.37272 0.0214,0.73639 0.0214,1.11232 0,11.19582 1.80459,16.96234 8.61085,25.40666 1.45047,2.06544 3.06327,3.92296 4.81686,5.56166 1.84778,2.04156 3.50577,3.77643 4.97631,5.08134 1.55705,1.43839 3.03366,2.47707 4.6224,3.18142 1.50354,0.6953 3.06004,1.06469 4.82659,1.19984 2.43426,0.24672 5.31838,0.15477 9.06977,-0.12251 l 8.91616,-0.65924 c 3.75614,0.63902 6.38958,2.63413 8.46694,6.95207 l 2.56887,7.53157 c 1.67711,6.63015 3.06358,15.99882 4.71573,29.08786 1.73179,13.72008 2.3109,25.50594 1.86491,34.09723 -2.4e-4,0.003 2.3e-4,0.005 0,0.008 -0.38123,3.98015 -0.91754,7.64757 -1.5985,10.88801 -1.14251,3.594 -2.8269,5.00433 -5.00548,3.65786 -0.60059,-0.3712 -1.5897,-0.22856 -2.80611,0.27225 l 0.49587,-2.59609 -2.13909,2.03603 c -1.111,0.10548 -3.18559,2.08781 -7.10764,6.16449 -1.29779,1.34894 -2.46024,2.71283 -3.47312,4.01956 -0.88258,0.96915 -1.64756,1.91094 -2.29078,2.80028 -2.13402,0.0375 -2.73717,1.02254 -1.87657,3.53146 -0.32145,0.71305 -0.48937,1.31123 -0.4531,1.73462 0.0253,0.29491 -0.0473,0.59405 -0.18475,0.89258 -1.30378,0.7845 -3.61156,1.66463 -6.49313,2.38801 -4.94226,1.24033 -8.98936,3.79591 -9.08533,5.71528 -0.65646,0.69386 -1.14459,1.39417 -1.40208,2.06521 -0.011,0.0287 -0.0254,0.0552 -0.0369,0.0836 -1.30483,0.85921 -3.37384,1.42543 -5.71335,1.42543 -1.61622,0 -2.95433,0.28416 -4.02538,0.83619 -2.15386,0.005 -3.10756,1.85601 -3.11531,5.80668 -8e-5,0.006 -0.002,0.0116 -0.002,0.0175 0,0 0,0.002 0,0.002 0,0.003 -2e-5,0.005 0,0.008 -1e-5,0.006 0,0.0111 0,0.0175 0,0.0389 0.004,0.0646 0.004,0.10307 -2.1e-4,0.0105 -0.004,0.0206 -0.004,0.0311 0,0.0186 0.005,0.0342 0.006,0.0525 0,0.002 -10e-6,0.004 0,0.006 -7.9e-4,0.0589 -0.006,0.11346 -0.006,0.17307 0,0.0922 0.007,0.15536 0.008,0.24503 -10e-4,0.0332 -0.008,0.0658 -0.008,0.0992 0,0.07 0.0118,0.13209 0.0175,0.19836 0.02,1.3952 0.1152,2.49951 0.37921,3.26698 0.0319,0.84568 0.33348,1.29557 1.08316,1.33403 0.93499,0.44815 2.44964,0.21995 4.85576,-0.56201 1.0044,-0.32198 2.14492,-0.72903 3.48478,-1.23484 6.60546,-2.47997 8.53366,-2.52905 6.33173,-0.18085 -1.06276,0.62399 -2.14814,1.2329 -3.24559,1.82796 -1.82436,0.89679 -3.68238,1.74004 -5.53444,2.52607 -2.35982,0.7662 -4.94974,1.44206 -7.48295,1.91742 -7.37323,1.38367 -10.13124,1.53977 -9.72512,0.0525 0.15702,-0.31987 0.33611,-0.65229 0.54061,-0.99954 0.30997,-0.42649 0.72432,-0.91467 1.26012,-1.4857 0.89888,-0.95802 1.64776,-1.85939 2.2655,-2.69526 0.95533,-1.03019 1.6885,-2.37242 2.01076,-3.65981 l 1.9738,-2.33161 -1.81629,1.53626 c 0.009,-0.11213 0.0183,-0.22473 0.0136,-0.32476 0.003,-0.0626 0.0175,-0.12894 0.0175,-0.19057 0,-1.40013 -1.39614,-1.36155 -3.46339,-0.1828 -0.0319,0.0176 -0.0688,0.044 -0.10112,0.0622 -0.3094,0.18003 -0.62207,0.36704 -0.95871,0.597 -0.40484,0.2739 -0.83265,0.58717 -1.28541,0.94705 -0.46362,0.36851 -0.94891,0.77777 -1.46041,1.24067 -0.42019,0.38029 -0.81898,0.78111 -1.20178,1.19206 -3.27321,3.45647 -5.18743,7.67514 -4.33654,9.89236 1.72276,4.48939 -10.75532,10.77679 -17.54839,8.84225 -1.96417,-0.55961 -13.61478,0.0527 -25.89087,1.36125 -13.80542,1.47183 -21.78853,4.18586 -22.33219,6.90929 -1.12857,0.78781 -1.04427,1.43483 0.68062,1.7774 0.54051,0.52178 1.43207,1.03513 2.62915,1.53626 0.40004,0.16993 0.83037,0.33674 1.30485,0.50171 0.75683,0.26029 1.5892,0.51763 2.53969,0.76618 0.41499,0.10853 0.80614,0.22201 1.17456,0.35005 5.6e-4,1.9e-4 10e-4,-2e-4 0.002,0 0.0602,0.0209 0.11021,0.0502 0.16919,0.0719 3.11824,1.15052 4.57078,3.51624 5.2369,12.74709 0.32128,7.04479 0.13655,17.96231 -0.23141,35.31457 l -0.71952,33.92027 c -0.50583,5.24202 -1.10519,9.05177 -1.75406,10.77134 l -7.76881,6.93262 v -0.0156 c -6.06838,5.41648 -15.70372,12.81393 -21.41044,16.438 -9.53192,6.05288 -10.55963,6.10726 -12.6479,0.66507 -1.25025,-3.25805 -0.49039,-9.83822 1.68988,-14.62366 0.91611,-2.0105 1.47533,-3.64292 1.74823,-4.93159 1.38252,-1.53576 1.89045,-2.82991 1.38459,-3.4284 -0.094,-0.11115 -0.22205,-0.19797 -0.38504,-0.25864 -0.16299,-0.0607 -0.35987,-0.0947 -0.59312,-0.0992 -0.23324,-0.002 -0.52898,0.0761 -0.87703,0.22945 -0.0128,0.006 -0.0279,0.0156 -0.0408,0.0214 -0.20051,-0.13836 -0.45346,-0.21974 -0.77396,-0.21974 -0.79405,0 -1.92481,0.69231 -3.20476,1.8649 -1.86872,1.40827 -4.18303,3.73923 -6.78678,7.0493 -9.97889,12.68608 -16.5031,11.62816 -9.67844,-1.56932 7.53003,-14.56132 18.95754,-21.64378 34.92175,-21.64378 4.34638,0 7.42617,-0.21441 9.75235,-0.92759 1.15915,-0.16895 2.09732,-0.61857 2.88972,-1.40987 2.0038,-1.47245 3.3135,-3.81258 4.7313,-7.48295 1.87243,-4.84711 2.64758,-10.91987 2.50859,-17.2567 0.56029,-4.70226 0.11568,-8.52181 -1.58488,-13.2099 -1.61857,-7.4005 -4.39373,-14.27214 -8.13636,-19.0302 -0.99628,-1.26617 -1.85885,-2.4806 -2.60387,-3.66564 -2.24532,-5.58283 -3.50246,-10.56784 -3.37394,-13.73301 0.0836,-0.67371 0.20037,-1.36023 0.34614,-2.06132 0.21127,-0.71904 0.35178,-1.41114 0.40255,-2.07298 1.34772,-7.10369 -0.0509,-8.58405 -8.23748,-10.39601 -19.80149,-4.38262 -27.91922,-7.91371 -27.07126,-11.77672 0.55397,-2.52342 -2.94723,-3.15974 -9.82041,-1.78517 -1.11762,0.2235 -2.12286,0.40599 -3.02585,0.5445 -3.18924,-0.41889 -5.68034,-1.34652 -7.45962,-2.77305 -0.13925,-0.74058 -0.19641,-1.62208 -0.19641,-2.67193 0,-3.30058 -1.61126,-6.86648 -4.08373,-10.00515 -0.26333,-1.04026 -0.60586,-1.69377 -0.98205,-1.69377 -0.12313,0 -0.32277,-0.0303 -0.55616,-0.0758 -3.8627,-4.08424 -9.11754,-7.08042 -13.8458,-7.08042 -0.41795,0 -0.74684,0.0149 -1.10456,0.0253 -0.0631,-10e-4 -0.1276,-0.0117 -0.19057,-0.0117 -0.19335,0 -0.33363,0.0148 -0.50949,0.0194 -0.11901,-0.003 -0.2392,-0.0194 -0.35782,-0.0194 -1.29373,0 -2.04414,0.22616 -2.26744,0.75647 -0.0154,0.0276 -0.025,0.0581 -0.037,0.0875 -0.006,0.0194 -0.0131,0.0381 -0.0175,0.0583 -0.20141,0.63072 0.35111,1.67569 1.59655,3.28838 0.28256,0.36589 0.57203,0.73836 0.92759,1.16678 2.24621,2.70671 2.80202,4.6596 1.58876,5.19995 -0.0121,0.005 -0.0245,0.009 -0.037,0.0136 -0.39751,-0.11004 -0.84341,-0.24694 -1.36124,-0.41809 -2.84116,-0.93889 -10.64005,-9.63542 -17.33253,-19.32773 -2.66278,-3.8563 -4.71452,-6.86838 -6.32201,-9.59289 -1.42574,-2.82918 -2.67626,-5.662 -3.72398,-8.51751 -1.73249,-6.50987 -1.4145,-14.55454 -0.60867,-31.65477 0.54033,-11.46625 0.96214,-18.94625 2.24606,-25.57584 2.99293,-9.07402 7.12208,-18.90634 12.39315,-29.7393 2.13032,-3.89176 4.56069,-8.23559 7.43045,-13.33241 6.58312,-11.69179 12.10691,-22.67737 15.34123,-30.23519 l 5.02299,-9.49566 -3.58396,-2.12937 c -9.43181,-8.70971 -52.90632,-30.4642 -61.94246,-30.50744 -0.7736,-0.004 -1.49035,-0.0321 -2.17022,-0.0739 -0.82638,-0.26613 -1.57137,-0.56218 -2.26549,-0.87703 -1.8577,-0.9928 -3.22734,-2.03127 -4.06623,-3.12892 -0.10876,-0.63564 -0.0215,-1.32958 0.27419,-2.10021 0.17173,-0.4475 0.32701,-0.89173 0.48616,-1.33791 0.88422,-1.07678 2.09147,-2.2596 3.64036,-3.54506 2.0903,-1.73491 4.3518,-2.67347 8.24136,-2.76528 z m -9.41981,25.56417 c 1.74281,0.0631 3.61818,0.34996 5.8164,0.7623 13.86325,2.60093 29.93635,10.09248 42.28026,19.70694 10.22621,7.9649 5.04437,12.96844 -17.86732,17.24891 -19.64341,3.66971 -34.13125,11.81064 -47.16517,26.71734 -1.54185,1.71687 -2.99686,3.48093 -4.34237,5.28746 -0.19823,0.25584 -0.39927,0.49528 -0.59701,0.75452 -6.64469,8.71202 -16.32227,18.41952 -21.50572,21.57184 -15.25025,9.27412 -53.70139,20.55989 -83.73404,24.57824 -45.31825,6.06394 -55.66068,4.47295 -62.23804,-9.57733 -1.81854,-3.88461 -3.04813,-8.31154 -3.70842,-13.02516 -0.47421,-4.48835 -0.444,-9.51964 0.0467,-15.43652 0.12265,-1.47902 0.24978,-2.86478 0.38115,-4.19068 0.62224,-3.5888 1.52714,-7.16541 2.73805,-10.63911 1.53223,-4.39531 2.68443,-7.29358 4.3657,-8.96282 2.70058,-1.41873 6.46409,-1.48452 11.83116,-0.6709 2.47973,0.61818 5.4255,1.47451 8.99394,2.54359 17.27253,5.17506 83.3378,-1.17887 99.57893,-9.57733 5.8997,-3.05089 21.43827,-15.25483 34.53088,-27.11988 17.98641,-16.30016 23.04274,-20.24489 30.59495,-19.97141 z m -239.99519,26.11062 c 1.44372,0.10149 4.03244,0.85914 7.22626,2.00881 l 9.19812,4.89076 c 8.57895,4.56146 17.49225,8.33437 20.56452,8.74697 2.81086,1.69241 4.77328,3.14153 6.05948,4.51155 0.95873,4.57274 -0.37324,13.17469 -3.88732,28.12915 -1.65807,7.05586 -3.39116,13.6155 -4.81882,18.42735 -1.42651,3.78938 -2.72794,6.53941 -3.68702,7.65798 -5.45563,-0.92263 -33.14298,-12.92581 -47.36353,-20.20087 -4.73595,-3.0694 -7.45861,-5.66143 -8.24331,-7.82327 1.2753,-5.54347 7.19121,-17.85241 16.10741,-33.20075 l 7.32349,-12.60901 c 0.18438,-0.16728 0.357,-0.30889 0.52117,-0.42783 0.21921,-0.10125 0.54406,-0.14285 0.99955,-0.11084 z m -166.791364,5.18635 c 0.557381,0.0112 1.073876,0.0462 1.588767,0.0836 0,0 0.0019,0 0.0019,0 1.172038,0.24068 2.311069,0.5292 3.420613,0.87897 3.471544,1.28261 6.994657,3.56325 10.370738,6.52232 2.024962,2.00117 4.363009,4.50883 7.218486,7.60546 10.519262,13.1088 17.397765,31.39364 12.089796,41.31182 -6.39271,11.9447 -21.367791,10.21539 -26.373141,-3.04529 -4.277058,-11.33115 -11.340144,-15.10948 -8.342484,-4.46294 1.440725,5.117 2.535071,9.8822 3.278655,14.11806 0.01313,0.3719 0.01595,0.67201 0.03111,1.05982 l 0.577556,14.7909 c -0.187319,0.66112 -0.418685,1.21903 -0.707847,1.64515 -0.857891,1.26436 -4.561085,2.76339 -9.524823,4.06624 l -2.969457,0.24696 c -2.905647,0.24049 -5.581343,0.70341 -7.78243,1.28347 -0.18324,0.0349 -0.337056,0.0792 -0.513383,0.11667 -2.266573,-0.21288 -3.964085,0.20563 -4.692405,1.18817 l -10.991077,1.42737 c -1.760256,-1.32487 -3.656224,-2.97174 -5.645276,-4.96076 -0.37178,-0.37179 -0.728359,-0.76755 -1.077328,-1.17456 l -2.456074,-5.8767 c -7.5454849,-18.05897 -6.4816089,-32.70077 3.91844,-53.95779 6.713173,-13.72101 12.258594,-19.70533 23.10032,-21.93742 1.408869,-0.0989 2.780833,-0.19255 4.445435,-0.33059 4.633823,-0.38426 8.143902,-0.65685 11.03386,-0.59894 z m 305.317444,3.90871 c -1.74522,-0.0243 -3.0667,1.94487 -3.0667,4.80909 0,0.42828 0.0314,0.83281 0.0875,1.21733 -0.0552,0.26781 -0.0875,0.52912 -0.0875,0.77785 0,0.85651 0.35409,1.63347 0.91982,2.22856 -0.11307,0.76798 0.10008,0.97985 0.72728,0.59116 0.55685,0.33821 1.21487,0.54061 1.92326,0.54061 1.27706,0 2.39426,-1.06788 3.02585,-2.65053 0.66548,-0.83271 1.08122,-1.79531 1.08122,-2.70498 0,-0.77962 -0.31356,-1.59649 -0.8187,-2.3394 0.0224,-0.54805 -0.0943,-1.01411 -0.40643,-1.32624 -0.29698,-0.29699 -0.66058,-0.36338 -1.05788,-0.24114 -0.0443,-0.014 -0.0868,-0.0325 -0.13224,-0.0428 -0.44163,-0.30473 -0.91995,-0.55556 -1.42346,-0.7234 -0.26394,-0.088 -0.52271,-0.13265 -0.77202,-0.13613 z m -46.13259,3.02196 c -1.84825,0 -3.36033,1.60813 -3.36033,3.5723 0,0.84791 0.48699,1.61819 1.26401,2.23244 0.1949,0.80895 0.91392,1.3379 2.09632,1.3379 0.30855,0 0.605,-0.0442 0.8926,-0.11084 0.42377,0.0668 0.85984,0.11084 1.31457,0.11084 3.06219,0 4.57425,-1.60616 3.36033,-3.57034 -0.52401,-0.84786 -1.29443,-1.6182 -2.14299,-2.23244 -0.28936,-0.80898 -0.72498,-1.33986 -1.21734,-1.33986 -0.21156,0 -0.47421,0.0987 -0.76619,0.27225 -0.50076,-0.1731 -0.99014,-0.27225 -1.44098,-0.27225 z m 21.84798,0 c -1.84825,0 -4.35357,1.60813 -5.5675,3.5723 -0.13298,0.21518 -0.22648,0.4251 -0.29558,0.63006 -0.91711,0.60411 -1.48958,1.16462 -1.48958,1.53821 0,0.74161 2.23065,1.34714 5.01715,1.3943 0.0451,7.2e-4 0.0826,0.008 0.12834,0.008 0.0206,0 0.0397,-0.004 0.0603,-0.004 0.0515,3.9e-4 0.0998,0.004 0.15169,0.004 0.84594,0 1.63587,-0.13953 2.34911,-0.36753 1.70679,-0.20973 2.61026,-0.73143 2.30439,-1.41764 0.4334,-0.49878 0.70202,-1.06469 0.70202,-1.67433 0,-0.019 -0.003,-0.0357 -0.004,-0.0544 4.7e-4,-0.019 0.004,-0.0374 0.004,-0.0564 0,-1.96417 -1.51207,-3.5723 -3.36033,-3.5723 z m 173.45951,8.67307 c 0.60849,0.33505 1.05477,0.7593 1.30873,1.32236 -0.11734,1.99537 -5.66696,11.83558 -12.65569,22.5247 -0.85484,1.25108 -1.61808,2.42406 -2.29466,3.5159 -3.18053,4.86987 -5.69197,9.10197 -7.70659,13.20019 l -0.64951,0.95287 c -0.41435,0.46926 -0.80984,1.06072 -1.19011,1.74434 l -2.27523,3.3331 v 2.6311 c -0.56645,2.0548 -1.06718,4.38896 -1.49737,6.94817 -1.19223,4.92426 -2.11365,10.4727 -2.99863,17.29364 -1.91131,14.73132 -3.69024,23.90697 -3.95344,20.39145 -0.61307,-8.18477 -10.24739,-26.88345 -19.36856,-38.75269 -2.18568,-3.02569 -4.33317,-5.5367 -6.29673,-7.21071 -0.0907,-0.0774 -0.16588,-0.15233 -0.25475,-0.22946 -6.96252,-7.13149 -7.06819,-8.95565 -2.72443,-16.84833 5.03823,-9.15474 34.5828,-24.84705 51.67089,-29.98043 1.1258,-0.11682 2.22261,-0.19311 3.27866,-0.21975 3.03738,-0.0765 5.51337,-0.25277 7.60742,-0.61645 z m -397.96957,8.97255 c 2.83616,-0.40846 10.5173,5.78186 21.89853,17.71369 18.31203,19.19819 25.35998,32.49485 17.22558,32.49485 -6.59576,0 -27.69746,-16.94705 -34.45505,-27.67216 -7.78946,-12.36252 -16.070466,-15.19552 -16.070466,-5.49749 0,7.93513 20.277886,28.154 43.800966,45.94395 7.50808,6.00951 15.07561,11.4587 21.88103,15.49874 2.05679,1.22102 4.64204,2.6218 7.42657,4.08569 2.4616,1.40751 4.88475,2.7318 7.24376,3.93399 35.77163,18.23019 53.27897,25.50496 77.01533,28.17193 2.80669,0.35082 5.79679,0.60506 9.06199,0.78952 4.42155,0.58758 9.182,0.98247 14.10055,1.22901 4.71482,0.34691 9.67691,0.42947 14.82007,0.27419 8.55959,-0.11648 17.18772,-0.67228 25.20053,-1.61988 6.0877,-0.38846 11.31144,-1.01587 16.43605,-1.97964 21.13154,-3.21823 38.72714,-9.79069 63.16175,-22.17272 20.20736,-10.23978 42.69057,-30.6366 42.69057,-38.72936 0,-6.45964 -5.52511,-7.89028 -8.36387,-2.16632 -0.19117,0.38554 -0.35254,0.65474 -0.49783,0.86536 0.0894,-1.75392 0.27658,-3.30237 0.56005,-4.64379 5.80935,-11.40009 28.23903,13.16939 32.14483,37.23782 4.7103,29.02658 -24.92194,61.96387 -59.02163,65.60616 -9.13291,0.9753 -18.38325,3.17497 -20.55673,4.8888 -1.07851,0.85055 -3.29164,1.80284 -6.44063,2.82167 -1.95994,0.59667 -4.13864,1.22293 -6.58649,1.88046 -11.10098,2.84754 -28.24897,6.04671 -49.08841,9.07173 -1.33495,0.19376 -2.73375,0.37807 -4.17319,0.55227 -13.8293,1.24857 -29.69847,2.07751 -45.89339,2.42108 -36.19685,0.30749 -76.93977,-2.17079 -97.25898,-6.5962 -2.18559,-0.54046 -4.36884,-1.11755 -6.53786,-1.71518 -11.34468,-3.64213 -21.98492,-8.15395 -31.86091,-13.46854 -0.14564,-1.03659 -1.83206,-1.91969 -4.20235,-2.33357 -13.40185,-7.70103 -25.29902,-16.94176 -35.454592,-27.61575 -16.896601,-17.75932 -26.125015,-30.63736 -29.595402,-42.04302 -1.203794,-5.04392 -1.819317,-10.05879 -1.477923,-13.52883 0.673807,-6.84882 2.025527,-9.98694 6.444522,-12.14619 0.420389,-0.14228 0.870893,-0.26668 1.347631,-0.37919 0.47552,-0.10444 0.952439,-0.20998 1.460421,-0.28586 0.06131,-0.009 0.119901,-0.0215 0.180852,-0.0311 0.202263,-0.0322 0.393697,-0.068 0.604781,-0.0972 13.845544,-1.91526 17.857584,-7.28593 17.857584,-23.90929 0,-0.0388 0.0019,-0.074 0.0019,-0.11279 0.303469,-2.82567 0.572309,-5.98687 0.830359,-9.63761 0.523538,-7.40673 1.910998,-13.03029 3.082247,-12.49817 0.82492,0.37476 2.80971,-0.35818 4.99383,-1.71711 1.82906,0.49074 3.96931,-0.39627 5.14745,-2.30245 0.2041,-0.33025 0.51076,-0.52309 0.91593,-0.58145 z m 631.30438,3.88344 c 5.20089,1.27202 17.729,20.50614 17.84398,28.70476 0.0824,5.88109 4.60468,13.12793 12.62651,20.23004 7.68704,6.80549 10.87594,11.04167 11.98867,17.53865 0.16368,2.21108 0.14582,4.72625 -0.006,7.78633 -0.0444,0.87631 -0.0978,1.79229 -0.15947,2.76138 -0.26118,4.10724 -0.62962,7.39524 -1.15122,10.00514 -0.69781,2.29354 -1.54368,4.09505 -2.45802,5.00938 -2.1409,2.14096 -4.1457,3.28846 -5.91559,3.61898 -0.96929,-0.0261 -1.94842,-0.25361 -2.92083,-0.6923 -1.97097,-1.16923 -3.29965,-3.50715 -3.94178,-6.80817 -0.26447,-2.25896 -0.18004,-5.01372 0.25474,-8.26275 0.37214,-1.75672 0.90561,-3.60465 1.62961,-5.52276 2.04606,-5.42067 1.89628,-8.80544 0.42393,-9.99932 l 0.72729,-1.9738 -0.50754,0.62228 0.11668,-0.62228 -0.27225,0.32281 0.0972,-0.32281 -1.13372,1.52849 c -0.56517,-0.10258 -1.22744,-0.0198 -1.96796,0.25863 -0.96756,-0.41304 -2.17281,0.28509 -3.37978,2.22466 -1.54513,1.36898 -3.2202,3.27639 -4.94132,5.80862 -2.40187,3.53383 -3.77774,5.42248 -4.82075,5.81447 -1.04916,-0.50518 -1.90404,-1.44395 -2.56108,-2.66999 -0.23703,-0.54247 -0.48159,-1.13264 -0.76036,-1.83185 -0.0326,-0.0817 -0.0589,-0.16923 -0.0894,-0.25279 -0.57309,-1.96161 -0.75828,-4.3333 -0.52894,-6.83929 0.3242,-2.3429 1.09247,-4.68171 2.27717,-6.5787 1.45055,-2.32261 2.24198,-4.35319 2.38995,-6.17422 0.39434,-0.48372 0.53483,-0.95383 0.41032,-1.43125 1.18727,-1.58887 0.77919,-2.24923 -1.16678,-2.33356 -0.0713,-0.13514 -0.14639,-0.26961 -0.22752,-0.40254 -0.2041,-0.56886 -0.51975,-1.01173 -0.9412,-1.32041 -4.32475,-5.98687 -13.05342,-38.43062 -12.79376,-46.29592 0.4195,-1.0318 1.03532,-1.69037 1.85907,-1.89991 z m -548.51739,45.46168 c 5.55393,0.12836 14.56917,3.24827 28.69115,9.4937 14.6314,6.47058 18.94412,9.51143 19.79639,15.28484 4.9e-4,0.003 0.001,0.006 0.002,0.01 0.0836,0.70987 0.12684,1.47065 0.14778,2.2655 -0.0947,4.8076 -1.02972,7.71164 -3.8737,8.63029 -4.15507,0.5023 -12.56226,-2.92445 -29.31149,-10.56715 -19.90476,-9.08269 -24.08677,-12.42779 -23.20144,-18.55959 0.64317,-4.45472 2.84885,-6.67058 7.74936,-6.55731 z m 225.41628,16.71219 c 1.27551,0.0462 0.5,1.38262 -1.81824,3.85038 -7.98713,8.50192 -43.78791,23.96339 -70.58442,31.18611 -0.33483,0.0894 -0.66936,0.17853 -1.00343,0.26642 -3.63948,0.96081 -7.11571,1.77546 -10.30463,2.38023 -32.16783,6.1005 -50.19375,4.69596 -57.68953,-4.52711 -0.27802,-0.42091 -0.55944,-0.8034 -0.84398,-1.13373 -3.146,-4.4537 -5.61114,-9.84232 -5.70944,-12.48649 0.18788,-0.75487 0.86283,-0.82527 2.00491,-0.0797 0.42296,0.72444 0.88196,1.66988 1.36319,2.86445 0.98233,2.43835 4.15387,5.11702 8.16358,7.49851 2.22806,2.17753 4.37888,3.31602 7.60157,3.7337 6.71283,2.70798 13.61173,4.07084 16.48857,2.29273 1.42893,-0.88316 14.33834,-3.26972 28.68726,-5.30497 18.25076,-2.58842 35.62333,-8.38786 57.81983,-19.30439 15.87645,-7.80849 23.6989,-11.31317 25.82476,-11.2361 z m 80.59539,34.06806 c -0.41667,-0.0401 -0.85512,0.053 -1.29901,0.26642 -1.43828,0.46183 -2.49497,1.79908 -2.49497,3.38561 0,1.17613 0.58414,2.21471 1.4682,2.86639 0.1776,0.40097 0.37649,0.79916 0.61451,1.18428 v 0.0136 c 2.24997,3.62623 3.08994,3.62873 4.29958,0 0.30127,-0.90382 0.43614,-1.79001 0.44921,-2.62526 0.19653,-0.44159 0.31114,-0.92664 0.31114,-1.43902 0,-1.60722 -1.08219,-2.95893 -2.54941,-3.40312 -0.25569,-0.12559 -0.52029,-0.22204 -0.79925,-0.24891 z m -55.17707,12.16175 c -1.28062,0.0567 -2.18383,1.48168 -2.18383,3.77843 0,0.42268 0.0354,0.83072 0.0933,1.22706 -0.0586,0.24872 -0.0933,0.50337 -0.0933,0.76813 0,1.96417 0.70704,3.57229 1.57321,3.57229 0.22677,0 0.51277,-0.1152 0.83037,-0.31308 0.36639,0.19924 0.75823,0.31308 1.16677,0.31308 1.96418,0 3.57036,-1.51186 3.57036,-3.36033 0,-1.84811 -1.60618,-4.35362 -3.57036,-5.56748 -0.49104,-0.30347 -0.95965,-0.437 -1.38652,-0.4181 z m 59.9181,3.94761 c -1.05937,0.0492 -1.39237,1.03796 -1.39237,2.98696 0,2.63556 1.07078,5.8642 2.38024,7.17376 1.43536,1.4349 3.92043,2.18582 6.25006,2.29466 0.42849,0.0541 0.8546,0.0856 1.27374,0.0856 0.56809,0 1.04216,-0.01 1.49152,-0.0253 0.0614,0.004 0.13399,0.0253 0.19252,0.0253 0.19301,0 0.357,-0.0291 0.50562,-0.072 1.57814,-0.12062 2.17431,-0.46726 1.70155,-1.41959 0.30416,-0.34689 0.49005,-0.74999 0.49005,-1.22123 0,-1.4917 -3.21429,-4.72068 -7.14265,-7.17376 -2.90498,-1.81382 -4.69092,-2.70365 -5.75028,-2.65442 z m -69.01511,9.27008 c -1.16883,0.15742 -2.46389,1.10623 -3.43033,2.66998 -1.54634,2.50201 -4.2714,4.27357 -6.05559,3.93788 -3.61544,-0.68146 -6.0245,-0.49086 -7.02986,0.44922 -0.30789,0.003 -0.56748,0.0429 -0.72146,0.16724 -0.0202,0.0163 -0.033,0.04 -0.0506,0.0583 -0.26087,0.0128 -0.31901,0.12395 -0.16724,0.3442 -0.0771,0.48854 0.2236,1.2781 0.90231,2.37635 0.0443,0.0717 0.0937,0.13687 0.14002,0.20613 0.0398,0.069 0.0691,0.13355 0.11279,0.20419 1.21393,1.96417 4.32529,3.57035 6.91512,3.57035 0.40681,0 0.82545,-0.0532 1.2504,-0.14002 0.33509,0.0826 0.66414,0.14002 0.97231,0.14002 2.86515,0 3.77653,-0.79733 2.95196,-1.91353 4.6016,-3.08807 8.46469,-9.07792 6.08088,-11.46168 -0.51329,-0.51332 -1.16944,-0.70312 -1.87075,-0.60866 z m 281.79319,10.41352 c 0.0606,-0.0236 0.0937,-0.0215 0.10307,0.006 6.3e-4,7.5e-4 -6.1e-4,0.003 0,0.004 0.044,0.18355 -1.20316,1.70718 -3.1017,3.969 -0.25857,0.28313 -0.48143,0.53655 -0.76619,0.84203 -1.62251,1.74043 -3.95548,3.61864 -6.66815,5.49164 -0.11332,-0.22451 -0.17696,-0.53247 -0.17696,-0.94703 0,-0.43544 1.03213,-1.6155 2.52802,-3.03558 1.05053,-0.7286 2.02543,-1.44544 2.82167,-2.11381 3.08902,-2.59298 4.82815,-4.04736 5.26024,-4.21597 z m -171.31458,10.71299 c -1.29953,0 -2.43208,0.71106 -3.05696,1.75601 -0.31963,0.36845 -0.51533,0.90037 -0.51533,1.60432 0,0.0372 0.009,0.0719 0.01,0.1089 -10e-4,0.035 -0.01,0.0678 -0.01,0.10307 0,1.96417 1.60812,3.57034 3.57229,3.57034 1.96418,0 3.57036,-0.70877 3.57036,-1.57515 0,-0.19919 -0.0941,-0.44603 -0.24892,-0.71757 0.15452,-0.39843 0.24892,-0.82632 0.24892,-1.27762 0,-1.96418 -1.60618,-3.5723 -3.57036,-3.5723 z m 103.35347,10.71299 c -1.18241,0 -1.90142,0.5309 -2.09632,1.33985 -0.77702,0.61426 -1.26401,1.38454 -1.26401,2.23245 0,1.96417 1.51208,3.57035 3.36033,3.57035 0.45084,0 0.94215,-0.0992 1.44292,-0.27225 0.29133,0.17292 0.55308,0.27225 0.76425,0.27225 0.49201,0 0.92797,-0.52798 1.21733,-1.33597 0.84921,-0.6144 1.61865,-1.38599 2.14299,-2.23438 1.21394,-1.96418 -0.29814,-3.5723 -3.36032,-3.5723 -0.45489,0 -0.89067,0.046 -1.31459,0.11279 -0.28761,-0.0667 -0.584,-0.11279 -0.89258,-0.11279 z m -505.38149,11.04942 c 1.42491,0.003 2.62791,0.0451 3.64814,0.1303 2.13156,1.17193 3.71073,2.56621 4.52516,4.08373 -0.0847,0.28575 -0.18814,0.5876 -0.31114,0.90814 -0.7631,1.98856 -1.40717,3.97962 -1.8124,5.48193 -0.61457,0.69549 -1.32829,1.35441 -2.14882,1.95436 -0.1393,0.10185 -0.24828,0.1979 -0.37726,0.29753 -0.57815,-0.22171 -1.23206,-0.54247 -1.93685,-0.97815 -2.42263,-1.49707 -3.44951,-0.51102 -2.56887,2.46773 0.18262,0.6178 1.07237,1.55613 2.4833,2.71083 1.10881,1.59512 4.27397,3.68454 10.1121,6.7401 5.25398,3.12709 11.66544,6.60199 18.56738,9.96042 29.48662,14.34847 33.02099,17.42587 37.74536,32.86822 0.24391,0.79724 0.43842,1.50351 0.59506,2.15271 0.15477,0.9626 0.23121,1.78642 0.18085,2.45997 0,0 0,0.002 0,0.002 -0.01,0.12776 -0.0402,0.23353 -0.0583,0.35198 -0.04,0.23814 -0.0879,0.47032 -0.16724,0.67285 -0.0252,0.0692 -0.0519,0.13701 -0.0817,0.20224 -0.46625,0.95561 -1.47053,1.49143 -3.21059,1.79684 -0.85902,0.0516 -1.87179,0.0428 -3.07642,-0.0175 -10.1445,-0.50768 -15.72977,-1.78427 -17.80313,-4.33848 -0.0907,-0.9368 -0.0116,-2.04135 0.20225,-3.35645 0.0788,-0.48423 -0.26435,-0.83488 -0.92176,-1.05009 0.0732,-0.28876 0.14932,-0.57867 0.25669,-0.88482 1.72187,-4.90971 1.22278,-5.19847 -2.69721,-1.56153 -1.18242,1.09721 -2.41381,1.98188 -3.63452,2.65831 -0.49126,0.098 -0.98991,0.20226 -1.50904,0.33253 -0.48974,0.12293 -0.91735,0.20519 -1.36319,0.29947 -0.84641,0.0855 -1.74629,0.20618 -2.76332,0.4006 -0.13722,0.0262 -0.2512,0.038 -0.38504,0.0622 -1.12033,0.0547 -2.01308,-0.0552 -2.69332,-0.34031 -1.08169,-0.76308 -1.74823,-2.00827 -1.74823,-3.76287 0,-5.46041 -31.33149,-16.61301 -46.67319,-16.61301 -0.97905,0 -1.86007,-0.0279 -2.67387,-0.0817 l -3.93789,-0.82062 c -1.28374,-0.63655 -2.41461,-1.62038 -3.40116,-2.97335 -0.99395,-1.79305 -1.67533,-4.36533 -2.36857,-8.06051 -1.23147,-6.56464 -1.70543,-16.60907 -1.05399,-22.32053 1.14144,-10.008 1.94659,-10.42417 22.17467,-11.46945 4.55299,-0.23526 8.12275,-0.37147 10.88607,-0.3656 z m 510.15751,7.41101 c 0.49482,-0.0209 0.85463,0.0554 1.03844,0.23918 0.73524,0.73531 -3.43245,14.1046 -9.2623,29.71014 -13.80897,36.96398 -13.73909,42.92771 0.53478,45.78255 5.63562,1.12729 13.47685,2.05519 18.30484,2.20132 2.8346,0.54197 5.2158,1.08938 7.22432,1.68211 7.5415,3.98444 14.18163,14.38476 12.70431,22.05605 -1.00144,5.19971 -3.3757,4.28571 -14.6995,-5.65694 -2.23736,-1.9644 -4.24874,-3.584 -6.06337,-4.93548 -6.27904,-5.13274 -9.38562,-6.67147 -9.04645,-4.53878 -1.90753,0.44865 -0.55347,4.28906 5.00744,11.35861 3.30596,4.20303 6.10215,9.15709 7.11737,12.36788 0.024,0.13511 0.0456,0.26841 0.0681,0.40254 0.0408,0.2647 0.0849,0.53167 0.11862,0.79146 0.19415,2.84131 -0.67586,4.8358 -2.70305,5.52082 -1.30413,0.2502 -2.9817,-0.0569 -4.8927,-0.79535 -3.5698,-1.76027 -9.1,-5.56628 -14.53809,-10.06543 -7.67629,-7.17898 -14.79968,-16.682 -16.5819,-24.72215 -1.54049,-6.94925 -2.02823,-25.96497 -1.08511,-42.25692 1.34211,-23.18404 2.96785,-30.0018 7.48685,-31.3728 3.17556,-0.96351 8.74318,-3.35181 12.37177,-5.30885 2.72143,-1.46751 5.41122,-2.39732 6.89567,-2.45996 z m -272.02722,1.10455 c 5.07255,0.0686 12.68374,5.91322 17.82842,13.32269 2.90568,5.31573 5.09047,11.64825 5.84362,18.33014 0.0158,0.14025 0.0257,0.26968 0.0408,0.40836 0.0856,8.2255 -2.03688,16.72156 -5.38858,23.17422 -0.35415,0.50848 -0.72087,1.01102 -1.1065,1.50126 -3.43815,4.37067 -8.06017,8.06025 -11.18943,9.10479 -0.4377,0.10367 -0.86047,0.18037 -1.26984,0.22946 -0.001,1.5e-4 -0.003,-1.6e-4 -0.004,0 -1.45562,-0.35342 -1.00537,-1.91183 1.29319,-4.21014 3.16789,-3.16763 4.5114,-5.20997 3.02974,-6.4698 0.54493,-0.86952 0.77211,-1.49493 0.53478,-1.69182 -0.18819,-0.15624 -1.82323,-0.18919 -4.3346,-0.13613 -0.11962,-0.0668 -0.24509,-0.11944 -0.37531,-0.15752 -0.31354,-0.3745 -0.59066,-0.39999 -0.8148,-0.0564 -0.259,0.0378 -0.532,0.12818 -0.81092,0.26642 -0.94293,0.0317 -1.92731,0.0688 -3.03946,0.11862 -4.32003,-0.17599 -10.22408,-0.12004 -18.14928,0.0797 -25.64941,0.64638 -29.74465,1.78737 -44.53215,12.40677 -2.95588,2.12283 -5.41722,3.81657 -7.5413,5.16495 -4.23573,2.13813 -7.95385,3.57448 -10.27155,3.91649 -0.14364,-0.0189 -0.28958,-0.0312 -0.42977,-0.0603 -0.095,-0.0221 -0.18969,-0.0453 -0.28392,-0.0719 -0.1546,-0.0402 -0.30745,-0.0875 -0.45893,-0.14002 -0.20922,-0.076 -0.41765,-0.16077 -0.62617,-0.25863 -0.059,-0.0276 -0.11819,-0.0542 -0.17697,-0.0836 -0.19129,-0.0953 -0.38458,-0.20777 -0.57755,-0.32085 -0.45927,-0.2794 -0.91726,-0.60005 -1.38458,-0.98788 -0.76665,-0.63648 -1.41204,-1.1163 -1.99908,-1.51682 -3.13288,-2.46654 -3.98848,-2.67033 -3.30394,-0.2178 -0.11019,0.35857 -0.1614,0.83162 -0.1614,1.41764 0,2.32166 -1.49688,3.29468 -3.32534,2.16438 -0.52217,-0.32269 -1.10073,-0.47969 -1.68794,-0.51533 -0.94733,-0.38674 -1.56676,-0.26915 -1.88046,0.34809 -0.78718,0.34951 -1.49953,0.93406 -1.99908,1.7424 v 0.002 c -0.32112,0.51944 -0.59762,0.97064 -0.8712,1.35736 -5.4442,0.0758 -10.02764,0.004 -14.11416,-0.2917 -1.66756,-0.38723 -3.50227,-0.8184 -5.64139,-1.32235 -0.32981,-0.0777 -0.67651,-0.17698 -1.0112,-0.26058 -3.16158,-0.95923 -6.64114,-2.08301 -10.53993,-3.41478 -2.13496,-0.7293 -4.18008,-1.49703 -6.17616,-2.283 -8.15825,-3.41524 -15.9984,-7.5513 -21.45127,-11.38001 -3.0365,-2.26809 -5.46253,-4.56062 -7.13681,-6.80233 -2.16034,-3.54963 -1.45731,-6.93597 2.43663,-14.46614 1.56937,-3.03483 3.52094,-5.76934 5.66666,-8.1558 0.71082,-0.73433 1.42913,-1.45772 2.16438,-2.17216 0.45992,-0.44255 0.92128,-0.88136 1.38653,-1.31263 9.6873,-8.3597 21.20126,-9.82415 21.31709,0.41421 l -0.006,5.50721 h 0.0136 v 1.54987 1.06178 0.0894 0.0136 0.17696 l 18.229,-0.87509 5.99337,-0.22946 2.42885,-0.0836 c 5.13318,0.0532 10.8968,0.0817 18.21929,0.0817 37.91404,0 47.74225,-1.19783 63.38927,-7.72604 3.3523,-1.39867 6.26459,-2.65707 8.85003,-3.8212 9.55502,-4.14859 14.15907,-7.06281 14.68978,-9.46259 0.17034,-0.6772 0.005,-1.30782 -0.47255,-1.91547 0.59015,-1.09814 0.12102,-1.81339 -1.55571,-2.00881 -0.42157,-0.29666 -0.98012,-0.56436 -1.66072,-0.80313 -0.66125,-0.93168 -0.92599,-2.05187 -0.78175,-3.25532 0.007,-0.0516 0.009,-0.10169 0.0175,-0.15363 0.003,-0.0173 0.007,-0.0351 0.01,-0.0525 0.0272,-0.16374 0.0589,-0.32898 0.10112,-0.49589 0.18056,-0.71308 0.50477,-1.45389 0.9626,-2.20521 0.93907,-1.47914 2.36916,-2.12938 4.0954,-2.10604 z M 97.75039,715.65293 c 0.256432,0.23943 0.539709,0.73026 0.845916,1.49543 0.911303,2.27741 0.914301,4.93956 0.08556,6.34923 -0.617353,0.11534 -1.243638,0.078 -1.83768,-0.0933 -0.317551,-0.86098 -0.47941,-2.28018 -0.404484,-4.09929 0.06383,-1.54971 0.221698,-2.63527 0.4531,-3.2456 0.234472,-0.1489 0.470754,-0.28512 0.709791,-0.39865 0.04928,-0.004 0.09849,-0.006 0.147793,-0.008 z"
     id="path833"
     inkscape:connector-curvature="0" />
</svg>
