<?xml version="1.0" encoding="UTF-8" standalone="no"?>
<svg
   xmlns:dc="http://purl.org/dc/elements/1.1/"
   xmlns:cc="http://creativecommons.org/ns#"
   xmlns:rdf="http://www.w3.org/1999/02/22-rdf-syntax-ns#"
   xmlns:svg="http://www.w3.org/2000/svg"
   xmlns="http://www.w3.org/2000/svg"
   viewBox="0 0 795.13133 806.44055"
   height="806.44055"
   width="795.13135"
   id="svg2"
   version="1.1">
  <title
     id="title817">Santa and Rudolf</title>
  <metadata
     id="metadata8">
    <rdf:RDF>
      <cc:Work
         rdf:about="">
        <dc:format>image/svg+xml</dc:format>
        <dc:type
           rdf:resource="http://purl.org/dc/dcmitype/StillImage" />
        <dc:title>Santa and Rudolf</dc:title>
        <dc:source>https://publicdomainvectors.org/en/free-clipart/Santa-and-raindeer-coloring-book-vector-illustration/18574.html</dc:source>
        <cc:license
           rdf:resource="http://creativecommons.org/licenses/by-sa/4.0/" />
      </cc:Work>
      <cc:License
         rdf:about="http://creativecommons.org/licenses/by-sa/4.0/">
        <cc:permits
           rdf:resource="http://creativecommons.org/ns#Reproduction" />
        <cc:permits
           rdf:resource="http://creativecommons.org/ns#Distribution" />
        <cc:requires
           rdf:resource="http://creativecommons.org/ns#Notice" />
        <cc:requires
           rdf:resource="http://creativecommons.org/ns#Attribution" />
        <cc:permits
           rdf:resource="http://creativecommons.org/ns#DerivativeWorks" />
        <cc:requires
           rdf:resource="http://creativecommons.org/ns#ShareAlike" />
      </cc:License>
    </rdf:RDF>
  </metadata>
  <defs
     id="defs6" />
  <path
     id="path833"
     d="M 255.38281 0 C 232.2166 0 227.47898 1.1477619 218.13086 9.0136719 C 203.16276 21.608502 189.00781 51.499258 189.00781 70.517578 C 189.00781 72.537498 189.13577 74.572292 189.35547 76.607422 C 189.69446 81.225872 190.66372 85.677962 192.27734 90.138672 C 192.46485 90.676412 192.66409 91.21298 192.87109 91.75 C 196.49227 101.95426 202.3997 111.41332 209.48633 118.50195 C 211.81689 121.12669 214.11425 123.07947 216.83203 124.68359 C 221.18662 127.69329 225.79576 129.7818 230.45703 130.65625 C 238.74157 132.21045 242.89644 134.40931 244.08008 140.33594 L 243.42188 154.62109 C 243.05919 156.83934 242.61755 159.24368 242.08008 161.91992 C 238.87366 177.88591 239.20577 182.87277 244.10742 192.35156 C 248.6751 201.18446 248.95625 203.99313 245.38086 205.0625 C 244.14628 205.43176 241.08131 206.27019 237.23633 207.29883 C 233.45881 207.76002 228.26246 209.18633 222.56836 211.16797 C 214.52976 213.37004 205.6129 217.38297 196.86328 222.47656 C 192.17921 225.01802 188.13417 227.57254 185.34375 229.88281 C 182.18976 232.10572 179.12521 234.42925 176.21094 236.82422 C 173.94865 238.32874 172.20335 239.27148 171.51367 239.27148 C 170.37258 239.27148 168.7233 240.59759 166.76953 242.87305 C 165.29326 243.01821 164.1166 244.53555 164.02734 246.42773 C 162.51159 248.54517 160.90165 251.01264 159.23242 253.80078 C 158.22348 255.09487 157.28344 256.38226 156.43164 257.6582 C 153.75734 261.66409 150.60708 267.71646 147.60156 274.3418 C 146.38361 276.66751 145.47585 278.71685 145.04492 280.19531 C 142.62601 285.98115 140.43762 291.89267 138.875 297.0918 C 136.74519 304.17814 134.7178 309.71475 132.72461 313.84961 C 130.61125 317.2849 128.15647 320.17455 124.96289 323.11328 C 124.92779 323.12518 124.89448 323.14505 124.85938 323.15625 C 116.14906 325.92081 96.158203 348.52888 96.158203 355.61523 C 96.158203 356.19831 95.99664 356.89752 95.716797 357.68164 C 94.062807 360.96795 91.803474 364.46188 89.148438 367.9668 C 83.689457 374.79312 75.927409 382.65654 68.996094 388.39648 C 64.63535 391.80154 60.32125 394.55087 56.449219 396.27539 C 56.086013 396.35499 55.743095 396.40625 55.4375 396.40625 C 42.752216 396.40625 23.892607 408.7397 16.792969 421.67969 C 11.637931 431.07523 10.578128 438.06796 12.214844 451.90039 C 13.847393 465.69746 12.660047 473.6115 7.1191406 485.82617 C -1.097149 503.93872 -2.4348127 532.94885 4.328125 546.39844 C 5.032433 547.7991 6.1095448 549.13626 7.4726562 550.39062 C 9.1293408 552.69535 11.08495 554.30212 13.347656 554.96484 C 14.200272 555.21458 15.043799 555.44773 15.886719 555.67773 C 26.992201 560.69005 42.595672 562.3977 50.134766 557.68945 C 52.508203 556.20721 54.148313 555.4049 55.390625 555.32617 C 56.695525 556.52108 58.110572 558.45618 59.677734 561.13867 C 68.657002 586.34132 91.767099 616.08587 113.45703 631.41797 C 119.17557 636.23244 123.91026 639.25 126.54297 639.25 C 126.61417 639.25 126.67943 639.26177 126.75 639.26367 C 127.87483 639.89995 128.80146 640.46473 129.39844 640.93359 C 129.79395 641.32888 130.12466 641.70094 130.4043 642.05273 C 130.81389 643.07236 129.36152 643.76489 126.3125 644.74414 C 124.20825 645.42004 122.49874 645.98301 120.76172 646.55664 C 117.9905 646.88932 115.56473 647.7541 113.46289 649.18164 C 104.08601 653.10313 103.3717 657.24891 103.32031 671.99219 C 103.13264 673.49152 102.98135 675.07913 102.85156 676.7207 C 102.70164 678.44591 102.5756 680.221 102.49609 682.10352 C 102.49309 682.16302 102.48933 682.20448 102.48633 682.26367 C 101.5476 698.55669 99.996176 702.32463 93.25 705.67383 C 92.562579 706.01512 91.776689 706.46056 90.951172 706.95312 C 90.188519 707.05062 89.39185 707.10352 88.544922 707.10352 C 85.143157 707.10352 78.926317 711.92389 74.730469 717.81641 C 73.27165 719.86514 71.532043 721.77806 69.728516 723.41016 C 66.561086 725.67456 63.330267 727.52599 60.792969 728.48438 C 60.590745 728.51148 60.395045 728.53125 60.214844 728.53125 C 57.991403 728.53125 56.040625 728.98122 54.363281 729.87695 C 43.825855 734.95269 40.48802 753.48378 46.707031 766.73633 C 47.192674 770.01318 48.494724 771.86193 51.294922 773.58984 C 51.296722 773.59084 51.298981 773.59275 51.300781 773.59375 C 52.214018 774.56398 53.208932 775.46177 54.292969 776.26758 C 68.008114 786.46272 124.61017 788.87709 161.33984 780.83398 C 175.57621 777.71629 200.22292 774.59642 216.10938 773.90039 C 240.54934 772.82912 244.74968 773.22326 247.60156 778.62109 C 247.77493 778.97971 247.94563 779.35039 248.12109 779.75 C 249.80205 783.57834 254.21963 787.03362 258.6875 788.20508 C 260.8171 789.04818 263.19324 789.7642 265.78906 790.31836 C 273.64576 791.99576 292.12805 796.46537 306.85938 800.25195 C 312.78159 801.77424 318.8843 802.9691 325.08203 803.85547 C 330.41713 805.08125 336.54501 805.75042 343.14258 805.94141 C 347.8185 806.76889 354.78111 806.53248 362.85547 805.50391 C 392.62144 803.97403 420.83794 795.88429 438.61328 782.41602 C 445.40385 777.27096 446.65802 773.95341 444.72852 766.26562 C 443.5474 761.55968 440.98484 758.08692 435.43164 754.48047 C 435.08249 754.24943 434.7211 754.01887 434.3457 753.79297 C 434.08721 753.63507 433.81336 753.47525 433.54297 753.31641 C 433.51807 753.30181 433.49375 753.28608 433.46875 753.27148 C 433.46075 753.26648 433.45146 753.26241 433.44336 753.25781 C 430.59859 751.59422 427.1141 749.87383 422.79297 747.96289 C 402.15288 738.83483 400.47014 735.67823 408.63867 721.38867 C 415.81002 708.84392 415.75273 689.2056 409.44141 675.62109 C 408.90489 674.05663 408.23363 672.68374 407.38867 671.40039 C 405.83901 668.6974 403.88285 666.48437 401.39648 664.51758 C 396.9749 660.20805 392.15921 657.04617 389.57422 656.99805 C 380.72458 656.83628 389.99144 652.04793 413.99609 644.38086 C 416.01179 643.73704 418.11064 642.99634 420.21875 642.2207 C 424.42796 641.33696 428.86483 639.44968 433.31836 636.80664 C 437.41944 634.90485 440.92674 633.05496 443.06055 631.57617 C 453.99259 623.99945 474.70703 593.17035 474.70703 584.47656 C 474.70703 572.36081 481.01841 579.05784 483.35156 593.64844 C 484.14567 598.61455 486.37439 603.93417 489.74414 609.33594 C 489.75654 609.35874 489.7669 609.38355 489.7793 609.40625 C 490.95016 611.54539 492.60234 613.84401 494.63086 616.23242 C 494.91131 616.5862 495.19713 616.93759 495.48633 617.29102 C 498.23305 620.85287 501.46355 624.26933 505.24805 627.62109 C 515.09577 636.77745 527.51839 645.24967 541.08984 651.58008 C 551.26949 656.32828 561.14857 660.96659 566.90234 663.68359 C 571.03599 666.00887 574.25004 668.10828 576.9043 670.29102 C 580.77976 674.2253 584.83761 679.88603 588.58594 686.51562 C 589.54668 688.3369 590.54834 690.28158 591.66406 692.48047 C 592.58607 694.29756 593.47264 696.16185 594.33398 698.03516 C 596.50217 702.96538 598.42125 708.10952 599.92383 713.24023 C 601.71688 719.36283 602.39187 724.30728 601.9082 728.17969 C 600.7791 732.94963 597.77819 736.18227 592.90625 737.86523 C 591.50176 738.22645 589.91295 738.58273 588.10547 738.94531 C 586.61998 739.13684 585.03314 739.24609 583.31641 739.24609 C 582.3749 739.24609 581.38016 739.33855 580.35352 739.50195 C 567.58401 740.81173 557.06365 747.42445 549.80469 758.76562 C 547.18806 761.88962 545.21706 765.0663 544.27539 768.0332 C 543.29084 771.13527 542.89214 774.02038 543.02344 776.60156 C 542.93204 780.35415 544.13475 783.3446 546.58398 785.42773 C 547.95085 786.82194 549.68551 787.87335 551.75391 788.51367 C 553.95419 789.52154 556.58348 790.30773 559.64648 790.85352 C 562.66975 791.39229 565.3929 791.84072 567.92773 792.2168 C 568.42919 792.50787 568.87018 792.80044 569.16602 793.08789 C 569.52228 793.43405 569.89868 793.7446 570.28516 794.03516 C 574.10872 798.11264 581.9259 797.21702 590.96484 792.19727 C 591.68969 791.80093 592.43125 791.36271 593.17773 790.91016 C 596.86762 789.18206 600.34159 786.46887 604.43164 782.62305 C 604.64126 782.44412 604.84593 782.28198 605.05664 782.09961 C 611.74816 776.30813 618.40107 771.3146 622.23828 769.07812 C 623.38843 768.72231 624.51005 768.52582 625.63672 768.50781 C 625.65102 768.50817 625.66539 768.50977 625.67969 768.50977 C 625.76049 768.50878 625.84097 768.51462 625.92188 768.51562 C 626.74563 768.56002 627.57439 768.70472 628.42383 768.94922 C 631.4716 770.4152 635.88556 773.16046 640.11523 776.32812 C 654.00881 786.73321 665.99461 790.66811 671.98438 786.79297 C 674.45717 785.19306 680.49776 783.88477 685.4082 783.88477 C 689.31325 783.88477 691.5891 783.41255 693.00977 781.48633 C 695.31643 779.97873 696.125 776.98332 696.125 771.91406 C 696.125 771.43501 696.10999 770.95702 696.08789 770.47852 C 696.09859 770.21511 696.125 769.95978 696.125 769.69141 C 696.125 766.6122 695.47997 763.44877 694.3125 760.31445 C 690.18967 745.78467 675.97072 732.39193 660.02344 729.8418 C 657.69225 729.46899 655.52451 728.97329 653.58984 728.42578 C 652.4062 727.86451 651.37845 727.3085 650.43359 726.76172 C 649.06154 725.75803 648.07267 724.646 647.44141 723.32617 C 647.12921 722.31217 646.91737 721.21002 646.81055 720.00586 C 649.42832 708.76301 658.9929 684.02593 665.15234 672.60742 C 667.57441 669.23792 670.1899 666.1474 673.02539 663.31055 C 675.18391 661.43038 677.69307 659.45154 680.40234 657.48438 C 684.55757 654.6794 689.1406 651.99061 693.51758 649.92969 C 702.29081 645.79894 711.06576 639.98232 719.00586 633.34375 C 720.66997 632.18997 722.2152 631.09173 723.45703 630.14453 C 728.87899 626.00908 734.78272 618.97771 739.62109 611.58984 C 744.06982 605.44747 747.37394 599.32896 749.04102 593.7168 C 750.66262 588.25777 752.47292 583.49165 753.84766 580.81641 C 754.02949 580.64192 754.20839 580.48107 754.39062 580.3418 C 756.01454 580.2441 757.98211 580.91112 760.15039 582.29883 C 761.58498 583.80995 763.18815 585.65603 764.76758 587.66406 C 768.02116 591.80025 771.50997 594.17677 774.92383 595.08789 C 777.45048 596.35646 779.625 596.23977 782.01172 594.86133 C 790.46379 591.96224 796.7451 579.68958 794.76367 563.01172 C 794.34581 559.49443 793.23053 555.52256 791.76562 551.83398 L 791.76367 551.75586 L 791.75391 551.80469 C 790.07244 547.57815 787.92789 543.72923 785.76758 541.42969 C 784.61938 540.20748 783.38196 538.57641 782.14453 536.74805 C 779.29542 531.14842 776.35583 525.25893 773.84375 520.10742 C 771.39882 513.4475 766.51923 504.91445 762.60156 500.58984 C 756.49844 493.85308 754.6594 485.90404 752.89453 458.58594 C 750.39907 419.96026 748.35096 416.47671 717.57227 398.52344 C 703.41475 390.26497 697.60362 384.60987 696.82031 378.33594 C 692.64372 344.88365 678.04339 324.07491 647.00586 307.33789 C 627.15912 296.63549 623.8351 287.82706 636.66797 279.42188 C 637.53492 278.88846 638.4826 278.31742 639.48828 277.72266 C 639.71477 277.5966 639.93022 277.47163 640.16406 277.3457 C 653.16445 270.34455 676.17038 249.36011 684.08789 237.2793 C 686.03811 234.3036 687.84438 229.65105 689.38867 224.20508 C 689.78822 223.11154 690.09875 222.07466 690.29102 221.11328 C 690.36052 220.76564 690.41825 220.38576 690.48438 220.0293 C 693.67152 206.82626 695.28208 190.43129 693.66602 180.47266 C 692.89041 175.69308 691.28054 171.42252 689.02539 167.96875 C 688.96829 167.85134 688.91391 167.72441 688.85547 167.61523 C 687.71988 165.49334 686.13854 163.84337 684.19531 162.62305 C 683.78975 162.30625 683.37815 162.0031 682.95312 161.72461 C 671.54042 154.24668 653.68944 159.98036 628.0957 179.35156 C 615.41081 188.95238 610.23721 191.39076 612.01367 186.92773 C 616.38875 175.93602 621.85772 103.28443 620.16992 78.568359 C 618.38356 52.408369 606.94669 22.556453 594.08203 10.470703 C 583.10358 0.15696312 566.06203 -0.089328125 556.05273 9.9199219 C 545.43144 20.541222 547.04635 39.72252 561.75391 77.6875 C 575.8197 113.99584 581.44921 134.08863 571.00586 110.70898 C 559.72995 85.465344 556.28809 78.873648 550.63086 77.267578 C 549.88452 76.667888 549.14141 76.204693 548.39844 75.851562 C 547.48424 75.287363 546.62576 74.998047 545.83203 74.998047 C 545.576 74.998047 545.31845 75.022247 545.05859 75.060547 C 542.52996 75.052547 539.91445 76.316144 537.03125 78.708984 C 535.09833 80.313164 533.74212 82.763594 532.94531 85.896484 C 532.85761 86.070924 532.76777 86.238269 532.68164 86.417969 C 528.69883 94.727789 529.09867 98.900174 535.58984 116.77148 C 546.78229 147.58635 557.18084 182.33681 559.78125 196.90234 C 560.132 201.18099 560.0975 204.78703 559.61133 207.45898 C 558.50906 209.90394 556.12069 210.70312 551.51953 210.70312 C 548.16786 210.70312 545.47372 209.76653 542.62891 207.13477 C 541.68969 206.1762 540.72253 205.1153 539.7168 203.92773 C 537.36113 200.9336 534.75031 196.75772 531.50195 191.00195 C 520.44797 171.41537 509.51902 160.70703 500.58398 160.70703 C 497.61961 160.70703 495.65228 161.94757 494.68164 164.38281 C 493.6329 165.81783 493.37639 168.03961 493.98438 171.39453 C 493.96227 172.80976 494.33993 174.507 495.13086 176.74805 C 496.11484 180.76765 497.71531 185.49701 499.98242 190.9668 C 502.5837 197.24288 504.50903 203.16906 505.43164 207.34375 C 505.81597 209.80224 505.86381 211.68554 505.48828 212.66406 C 505.37555 212.95782 505.26785 213.17593 505.1582 213.43359 C 500.99747 215.72772 487.99045 207.75805 481.12891 198.43359 C 480.26622 197.26124 479.551 196.24189 478.95117 195.2832 C 477.83097 190.97417 478.09559 185.70897 479.49414 178.64062 C 480.15274 176.79375 480.92208 174.72398 481.83984 172.30859 C 492.09064 145.33071 494.35341 124.09726 488.05078 106.30859 C 485.7141 98.862714 481.69616 92.216834 475.82617 85.896484 C 470.02131 79.300104 462.60044 73.163183 453.47266 67.314453 C 440.55014 59.034203 433.57432 57.127762 415.97656 57.070312 C 385.80016 56.971612 347.75514 51.015199 334.92578 44.380859 C 328.98189 41.307179 314.6231 30.063994 303.01953 19.396484 L 281.92188 0 L 255.38281 0 z M 258.0293 7.1425781 C 268.3245 7.1425781 274.51337 7.1687219 279.1875 8.1386719 C 281.14756 8.6699119 282.96358 9.2770706 284.66016 10.025391 C 287.31214 11.408651 289.78068 13.485861 292.86914 16.519531 L 302.39648 26.707031 C 305.17592 29.679621 307.54204 32.284305 309.58203 34.640625 C 317.4011 44.346645 320.55289 51.577813 321.0625 59.939453 C 321.0828 60.615703 321.09204 61.308371 321.08984 62.019531 C 320.85958 68.755381 319.43832 74.380138 316.79297 78.861328 C 312.84698 84.060278 305.85705 87.5723 294.38867 90.90625 C 291.75021 91.67327 288.89836 92.695009 286 93.886719 C 276.92884 96.548909 270.3559 100.50314 261.45703 108.24023 C 255.01334 113.66545 249.26841 116.43829 248.10547 114.55664 C 247.93768 114.28514 247.72075 114.04517 247.47656 113.82422 C 247.23272 113.42807 246.93118 113.07097 246.56445 112.78125 C 246.45171 112.69165 246.33179 112.60642 246.20703 112.5293 C 245.9581 112.37547 245.71453 112.27026 245.47656 112.21094 L 245.47461 112.21094 C 245.35599 112.18144 245.236 112.16335 245.12109 112.15625 C 244.69982 112.13085 244.30637 112.25991 243.95508 112.51367 C 242.88791 112.45597 241.75192 112.61905 240.67773 113.03125 C 237.79436 114.13772 235.43359 113.13094 235.43359 110.79297 C 235.43359 108.45498 233.42592 107.21779 230.9707 108.04492 C 228.51548 108.87205 224.63057 107.00034 222.33594 103.88477 C 221.35831 102.55738 220.24254 101.57389 219.16797 100.9668 C 218.45903 100.36171 217.74069 99.994141 217.07031 99.994141 C 216.98631 99.994141 216.91287 100.00944 216.83789 100.02344 C 216.75379 100.00844 216.67191 99.994141 216.5957 99.994141 C 216.17156 99.994141 215.89877 100.23955 215.76367 100.66406 C 215.67577 100.72666 215.59056 100.79226 215.51172 100.87109 C 214.05372 102.32909 215.77774 106.74712 219.34375 110.6875 C 222.92531 114.6451 224.00442 117.85156 221.75391 117.85156 C 221.62112 117.85156 221.47913 117.82293 221.33984 117.80273 C 220.12844 116.99665 218.72186 115.94646 217.01953 114.60742 C 216.26337 114.01261 215.534 113.39207 214.82031 112.76172 C 207.51451 104.16392 198.67833 86.555986 197.1582 75.222656 C 194.54613 55.748156 203.9723 31.850727 219.7207 18.023438 C 222.56466 15.526407 224.89425 13.597585 227.16016 12.109375 C 227.16116 12.108565 227.16306 12.108422 227.16406 12.107422 C 227.58994 11.872242 228.01497 11.634736 228.44922 11.410156 C 229.895 10.662436 231.23942 9.9986088 232.53125 9.3867188 C 237.95739 7.4230988 244.79617 7.1425781 258.0293 7.1425781 z M 574.5957 11.197266 C 574.70562 11.196266 574.81622 11.199219 574.92578 11.199219 C 579.37568 11.915379 584.61529 15.002889 590.30664 20.943359 C 602.21092 33.368749 608.45311 51.333143 609.7793 80.314453 C 610.05537 87.681203 610.03318 97.067416 609.76367 106.97852 C 609.33833 118.29995 608.44247 130.87572 607.08203 144.92773 C 604.45133 172.10075 601.6192 181.94462 589.62305 205.63672 C 581.74807 221.18965 573.50047 240.74601 571.29492 249.09375 C 567.76708 262.446 566.11821 264.21107 557.59961 263.77734 C 545.50133 263.1613 511.53959 255.95789 509.41211 253.55664 C 508.54201 252.57454 506.95997 244.9415 505.89453 236.59375 C 505.21742 231.28856 505.01632 227.6631 505.35742 225.2793 C 505.76222 224.04224 506.34247 222.94281 507.14062 221.89453 C 507.46429 221.77132 507.77837 221.63817 508.08203 221.49609 C 508.34048 221.44809 508.61067 221.41602 508.90625 221.41602 C 512.88405 221.41602 515.41157 217.24452 516.20508 211.4082 C 516.78077 209.49634 516.83707 207.22245 516.33984 204.23828 C 515.96574 199.76228 514.78696 194.9651 512.6875 190.5625 C 512.17247 189.48244 511.76437 188.59525 511.32227 187.64648 C 510.31825 184.91524 509.17756 181.91459 507.87891 178.5625 C 506.94281 176.14622 507.25986 175.44441 508.99805 176.47656 L 513.0293 181.18359 C 514.42473 182.81346 516.0632 184.74702 517.8125 186.82617 C 518.96894 188.78917 520.13491 190.88964 521.23047 193.03711 C 521.33262 193.23735 521.44333 193.42289 521.54688 193.62109 C 522.21291 195.67962 523.66496 198.01815 525.64258 200.41602 C 533.67658 212.03451 544.40699 218.73828 555.52148 218.73828 C 567.18208 218.73828 571.02531 212.75418 571.00391 194.63281 C 570.98981 181.88767 564.67314 161.42826 543.74414 106.35547 C 543.06149 104.55915 542.474 102.94648 541.95703 101.46094 C 540.30965 95.702157 539.41364 91.503202 539.68359 90.101562 C 540.08287 88.028203 540.67679 86.501727 541.41406 85.466797 C 541.56505 85.296407 541.71496 85.124901 541.88281 84.957031 C 542.14205 84.697791 542.3923 84.488737 542.64258 84.273438 C 545.43192 82.569388 549.45761 85.838698 553.1875 93.017578 C 554.81945 97.245488 556.63235 102.8592 558.78516 110.18555 C 565.61063 133.41367 579.50322 149.23817 587.35156 142.72461 C 588.43363 141.82658 589.33167 140.83063 590.05469 139.71094 C 591.26195 138.46331 591.92755 136.72989 592 134.2207 C 593.01301 126.81716 589.71722 115.34352 581.61719 95.902344 C 575.62601 81.522674 568.44295 63.600418 565.5957 55.929688 C 564.11329 51.369988 562.93134 47.173183 562.03516 43.320312 C 561.06987 38.049912 560.83727 33.552841 561.13281 28.994141 C 561.35791 25.522021 561.58552 22.799542 561.9043 20.607422 C 562.95197 17.369602 564.54362 14.864852 566.58789 13.232422 C 567.42715 12.790322 568.33683 12.434354 569.33594 12.183594 C 571.25562 11.701774 572.98397 11.376166 574.5957 11.197266 z M 335.26172 55.642578 C 336.99993 55.686578 339.59925 56.340479 343.46484 57.474609 C 349.84841 59.347499 370.33839 61.737529 388.99805 62.787109 C 436.92059 65.482639 450.92207 69.735928 465.69336 86.085938 C 468.15326 88.808768 470.57934 91.898229 472.74805 94.974609 C 473.70743 96.637369 474.64763 98.373322 475.57031 100.20117 C 477.83147 104.68058 479.54915 108.10749 480.82227 111.06836 C 482.48709 121.22303 480.64077 142.07354 477.23633 156.17188 C 475.98696 160.66727 474.70883 164.41368 473.41016 167.40039 C 472.14428 169.95245 470.78549 172.15061 469.65625 173.51367 C 468.93673 174.18842 468.23018 174.67192 467.44922 174.93555 C 463.70604 174.37431 449.68889 164.46227 431.46875 149.45117 C 411.71379 133.17559 377.02621 113.15226 358.10156 107.09961 C 348.5576 104.04715 342.38218 101.05566 340.64844 99.019531 C 340.79931 98.511901 341.10021 97.997656 341.55469 97.478516 L 344.25977 96.455078 C 344.57603 96.443178 344.86397 96.421875 345.21875 96.421875 C 349.424 96.421875 353.74596 94.999313 354.82227 93.257812 C 355.12098 92.774492 355.86912 92.232101 356.89844 91.675781 L 357.53711 91.435547 C 359.62746 90.645157 361.39416 89.942989 363.19727 89.230469 C 365.10896 88.659749 367.18309 88.138491 369.31641 87.738281 C 376.21273 86.444531 381.85547 83.94676 381.85547 82.1875 C 381.85547 75.6339 374.64566 74.929604 361.93555 80.240234 C 360.59496 80.800364 359.19853 81.329994 357.79688 81.839844 C 354.91818 82.656644 351.96204 83.588122 349.0625 84.576172 C 346.32955 85.277612 343.99243 85.708984 342.57227 85.708984 C 339.12429 85.708984 334.31785 88.102684 331.89062 91.027344 C 331.29798 91.741404 330.74348 92.320637 330.20703 92.841797 C 329.80476 93.115107 329.4309 93.385448 329.12109 93.642578 C 328.59131 94.082258 328.09844 94.456173 327.63281 94.783203 C 323.47491 96.755423 322.47551 90.534802 326.71484 80.388672 C 329.54295 73.620052 331.85938 64.928569 331.85938 61.074219 C 331.85938 60.769909 331.86439 60.491604 331.87109 60.214844 C 332.63403 57.928654 332.9933 56.825437 333.23633 56.060547 C 333.72777 55.755887 334.38339 55.620358 335.26172 55.642578 z M 297.62109 97.65625 C 298.85497 97.65425 300.13157 97.764243 301.51367 97.976562 L 328.26367 106.93945 C 371.61829 121.4646 400.55133 136.49425 428.70703 159.11914 C 433.67574 163.1118 438.43687 167.15595 442.9707 171.2207 C 445.16064 173.36156 447.42151 175.58941 449.86523 178.01953 C 457.29109 185.40405 463.47201 191.71794 468.73047 197.34375 C 484.89724 216.18094 494.98542 234.09395 496.65625 248.03906 C 497.78608 257.46885 496.59242 258.94605 485.42188 261.93945 C 478.54726 263.78162 465.69034 265.23408 456.85156 265.16797 C 448.01277 265.10177 439.88968 266.46741 438.80078 268.20312 C 438.16842 269.21112 436.80697 269.06916 435.02734 268.13672 C 432.47149 265.90569 429.22391 262.91066 425.56445 259.38477 C 422.84437 256.52175 420.20094 253.53468 417.8457 250.69727 C 414.09206 245.39267 411.58807 240.39851 412.46875 238.10352 C 414.39396 233.08652 412.27063 232.12524 399.19922 232.10742 C 392.23114 232.09732 388.06453 231.66952 384.97461 230.05859 C 384.63261 229.86548 384.2919 229.66912 383.95898 229.46289 C 381.71551 227.98096 380.0157 225.72368 378.05664 222.28711 C 374.89557 216.74199 363.50724 207.9651 351.82227 202.06836 C 340.46611 196.33758 330.35383 189.50757 329.34961 186.89062 C 328.34539 184.27366 325.97246 182.13281 324.07812 182.13281 C 322.18379 182.13281 318.2236 179.72361 315.27734 176.77734 C 313.93974 175.43973 312.32449 174.23649 310.74023 173.3125 C 309.44355 172.19259 307.79494 171.41992 306.43945 171.41992 C 306.13736 171.41992 305.87905 171.46955 305.64258 171.54102 C 304.89051 171.58102 304.55169 171.90633 304.58203 172.4375 C 304.31622 173.08734 304.45657 173.99085 305.07422 174.99023 C 306.13718 176.71013 308.26466 178.15519 310.0957 178.48828 C 314.87703 182.53357 312.33678 182.6799 292.44727 181.2207 C 271.42767 179.67858 269.10547 180.17118 269.10547 186.17773 C 269.10547 189.84614 270.46385 192.84766 272.12305 192.84766 C 273.78225 192.84766 274.14752 194.45379 272.93359 196.41797 C 272.35932 197.34716 271.64611 198.081 270.83789 198.64062 C 270.43359 198.83364 270.07768 199.01357 269.62305 199.2207 C 269.19986 199.41353 268.86969 199.5423 268.48047 199.71289 C 263.55233 200.99302 256.8522 197.71467 253.36523 191.19922 C 250.12019 185.13578 249.29478 174.88784 250.70703 158.16406 C 253.67655 122.99944 257.34641 115.96361 278.22656 105.38281 L 291.70312 98.554688 C 293.76722 97.958277 295.64842 97.65967 297.62109 97.65625 z M 280.80273 165.74023 C 279.35134 165.77793 278.29102 167.92301 278.29102 171.20898 C 278.29102 171.63857 278.31676 172.05297 278.35156 172.46289 C 278.31676 172.77356 278.29102 173.09042 278.29102 173.41602 C 278.29102 175.17961 278.82505 176.42486 279.65234 176.93555 C 280.26271 177.93682 281.02494 178.5625 281.86133 178.5625 C 283.8255 178.56249 285.43359 176.24636 285.43359 173.41602 C 285.43359 172.98426 285.38286 172.54061 285.3125 172.0957 C 285.3829 171.78998 285.43359 171.49102 285.43359 171.20898 C 285.43359 170.15906 284.90374 169.22878 284.0957 168.61133 C 283.48129 167.51269 282.70971 166.58683 281.86133 166.0625 C 281.49304 165.83489 281.13766 165.73154 280.80273 165.74023 z M 668.76172 167.84766 C 674.34765 167.84766 678.1104 168.48025 680.62695 170.64453 C 681.70929 171.73957 682.58717 173.10053 683.25 174.73242 C 684.4951 178.78156 685.16872 184.02491 685.35156 190.47461 C 685.36526 191.08113 685.37295 191.69428 685.37695 192.31055 C 685.05369 203.74399 682.32827 216.58041 678.31641 226.83984 C 674.94007 233.56824 670.33137 239.80263 664.41406 245.67383 C 661.09161 247.10801 655.47982 251.30849 651.62891 255.29297 C 647.61996 259.441 646.45393 260.10418 649.03711 256.76562 C 651.68182 253.34753 652.30276 249.81064 650.45703 248.66992 C 645.9142 245.86229 636.28117 253.54829 634.27734 261.11328 C 633.54634 262.35178 633.37187 263.22142 633.72266 263.78125 C 633.12545 266.07901 631.936 268.21377 630.58203 269.50391 C 630.39969 269.58981 630.24405 269.67111 630.05469 269.75781 C 629.21013 270.14453 628.38772 270.50713 627.58008 270.8457 C 627.58008 270.8457 627.57812 270.8457 627.57812 270.8457 C 626.36594 270.7852 626.00359 269.64918 626.50195 267.61719 C 627.55299 267.34228 628.26953 266.84266 628.26953 266.26758 C 628.26953 265.88672 627.94678 265.34148 627.43164 264.75 C 628.51006 261.34829 627.5781 260.33659 624.375 261.4043 C 623.98337 261.53484 623.60672 261.71639 623.24023 261.92383 C 622.11881 261.76825 621.31442 262.40603 621.16797 263.6582 C 620.06243 264.94771 619.3418 266.55316 619.3418 268.0918 C 619.3418 275.22279 610.73336 275.58407 595.23633 269.10547 C 579.90528 262.69622 579.05956 258.25318 589.00586 236.33594 C 600.11298 211.86087 608.98734 201.5375 633.89062 184.12891 C 646.2042 175.52109 656.59735 170.18833 664.7168 168.17773 C 666.11304 167.96598 667.46329 167.84766 668.76172 167.84766 z M 297.14062 169.38672 C 296.46895 169.43175 295.63641 169.6383 294.6582 170.01367 C 291.54782 171.20724 289.00391 173.75222 289.00391 175.66992 C 289.00391 179.59717 294.67595 178.17234 297.57422 174.47852 C 298.95589 174.16059 299.47979 173.56376 298.75 172.83398 C 298.7157 172.79958 298.66446 172.77479 298.62695 172.74219 C 298.72325 172.52626 298.82545 172.31078 298.90039 172.08594 C 299.44407 170.45489 299.00881 169.53188 297.75781 169.39453 C 297.57016 169.37393 297.36451 169.37171 297.14062 169.38672 z M 293.48047 193.29492 C 295.69528 193.24732 296.14648 195.34289 296.14648 199.55273 C 296.14648 208.72846 291.07631 212.05794 263.17188 221.21289 C 229.8498 232.14527 224.18456 237.50442 222.00781 260.1582 C 221.65397 263.84059 221.24432 266.91865 220.73242 269.52344 C 219.12893 274.36893 216.89214 278.41857 213.81836 282.09961 C 213.44453 282.33955 213.05706 282.57215 212.64844 282.78711 C 202.86625 287.93339 200.1425 292.20048 199.81445 304.05469 C 199.43802 306.21684 199.43436 308.19212 199.83398 309.81641 C 200.15454 316.82483 201.99288 317.86621 209.54297 317.95312 C 214.94445 318.01522 233.82634 324.15057 251.50391 331.58594 C 275.73162 341.77633 283.91381 346.91798 284.73242 352.47656 C 285.86703 360.18101 289.21457 363.94722 311.32422 382.39844 C 324.02177 392.99498 324.7168 394.66751 324.7168 414.63281 C 324.7168 426.21431 325.97749 435.68945 327.51758 435.68945 C 329.05781 435.68945 339.04607 426.85178 349.71484 416.04883 C 360.38359 405.24586 371.77907 396.40625 375.03906 396.40625 C 378.29906 396.40625 389.65933 392.56354 400.2832 387.86523 C 418.08488 379.99236 427.55206 370.97505 430.14258 358.14453 C 432.05394 353.24877 431.98402 349.2857 430.04297 340.79492 C 429.73419 338.90965 429.35217 336.96538 428.87695 334.94531 C 423.23694 310.96941 423.21291 307.66502 428.56836 294.625 L 430.66992 289.50586 C 431.82241 288.09434 432.7808 287.54422 433.67188 287.75781 L 435.38672 297.10742 C 436.82292 304.93958 443.27337 316.35337 451.25977 325.19336 C 464.42021 339.76041 464.66099 340.52502 462.20312 360.19727 C 457.07227 401.26302 437.5798 435.0673 405.98633 457.69531 C 399.30971 462.4774 397.19887 463.34027 397.84375 460.63867 C 397.85585 460.59267 397.86561 460.55334 397.87891 460.50586 C 397.97061 460.15385 398.11363 459.73228 398.28711 459.26953 C 399.16179 458.31952 399.71094 457.31621 399.71094 456.43945 C 399.71094 455.66088 399.48611 455.09534 399.10547 454.71289 C 400.09285 453.30544 399.88983 453.19448 398.39453 454.26172 C 398.36983 454.25272 398.33965 454.25059 398.31445 454.24219 C 398.02529 453.97151 397.64168 453.82237 397.20117 453.75977 C 395.32188 453.44367 392.23681 455.00245 389.28711 458.55664 C 389.23331 458.62144 389.19839 458.67473 389.14648 458.73828 C 389.09738 458.79628 389.04705 458.84331 388.99805 458.90234 C 385.95457 462.56947 385.57125 463.88795 387.94141 464.27344 C 388.38518 464.57663 388.9749 464.84713 389.73242 465.09961 C 389.98238 465.18291 390.20683 465.27215 390.4082 465.36328 C 389.91342 466.44611 387.4794 468.33142 383.64062 470.44531 C 376.53229 474.35937 362.11215 476.72939 340.78711 477.48828 C 306.23068 478.71857 278.57292 471.80989 240.19336 452.36133 C 238.3268 451.41547 236.46675 450.40527 234.61328 449.36328 C 229.46297 446.37195 224.4814 443.19145 219.66992 439.85547 C 185.45717 415.51615 156.28243 376.8842 147.89062 342.64062 C 137.73066 301.18192 150.08337 264.96569 182.83984 240.17188 C 189.81989 234.88861 194.73332 231.15549 198.94922 228.29883 C 206.67673 224.2188 215.23995 220.64057 224.67383 217.54492 C 228.80986 216.49159 233.70977 215.32959 239.77539 213.88086 C 255.75464 210.06432 273.95721 203.76843 280.22852 199.89258 C 287.28543 195.53123 291.26566 193.34248 293.48047 193.29492 z M 305.88477 193.41992 C 307.819 193.45592 311.16756 194.72009 317.04102 196.76758 C 320.07708 197.82596 322.41357 198.76395 324.14062 199.69141 C 324.49503 199.89122 324.82117 200.08388 325.14453 200.27734 C 325.14653 200.27834 325.14839 200.28025 325.15039 200.28125 C 325.15039 200.28125 325.15039 200.2832 325.15039 200.2832 C 325.76569 200.95868 326.17801 201.65116 326.39062 202.38867 C 326.9183 204.35608 325.95538 206.63686 323.76562 209.77734 C 323.6184 209.98365 323.46566 210.1939 323.3125 210.4043 C 322.54017 211.16122 321.70084 211.95458 320.73047 212.82812 C 316.89925 216.27701 315.0615 218.94571 314.51953 224.2207 L 314.25391 223.20117 L 314.47461 224.72266 C 314.33192 226.40395 314.31025 228.35424 314.39258 230.6582 C 314.38658 230.76566 314.37259 230.83057 314.36719 230.94531 C 314.34479 231.41953 314.34125 231.92427 314.34375 232.4375 C 313.87901 236.76814 314.22083 241.014 315.4043 244.87891 C 316.14008 256.48268 315.23047 265.8732 312.85938 270.23047 C 308.98714 277.34629 307.74622 277.5969 297.57422 273.30664 C 291.4846 270.73822 285.50736 266.04748 284.29297 262.88281 C 283.07856 259.71813 278.21399 257.12891 273.48242 257.12891 C 268.75083 257.12891 262.67424 254.46815 259.97852 251.21484 C 257.94995 248.76664 256.716 247.55331 255.8125 247.84375 C 254.41845 246.53102 254.04396 247.53494 254.15234 251.24219 C 253.86758 252.41942 253.58245 253.82906 253.25781 255.67969 C 251.725 264.41778 249.748 266.05664 240.75781 266.05664 C 231.87883 266.05664 229.8947 264.47065 228.98828 256.64844 C 228.87389 255.66122 228.87732 254.69244 228.98242 253.73633 C 229.18032 252.7088 229.4136 251.68585 229.7168 250.68359 C 233.07602 241.72253 246.97764 234.05206 272.93359 226.6582 C 298.68747 219.32191 303.05205 216.23841 303.26758 204.11523 C 303.27058 203.94677 303.28906 203.79052 303.28906 203.61914 C 303.28906 198.89241 304.38082 194.86054 305.88477 193.41992 z M 671.125 207.13086 C 669.30391 207.13086 667.80663 208.51847 667.5957 210.28516 C 667.5704 210.42268 667.55469 210.56142 667.55469 210.70312 C 667.55469 212.66729 669.06581 214.27344 670.91406 214.27344 C 670.94776 214.27344 670.98542 214.26467 671.01953 214.26367 C 671.05523 214.26467 671.08909 214.27344 671.125 214.27344 C 671.78757 214.27344 672.40027 214.07948 672.93359 213.76172 C 674.30529 213.13752 675.67796 212.00478 676.48242 210.70312 C 677.69635 208.73896 676.18328 207.13086 673.12109 207.13086 C 672.70199 207.13086 672.29755 207.16761 671.9043 207.22461 C 671.65246 207.16781 671.39337 207.13086 671.125 207.13086 z M 346.09375 208.94727 C 349.26116 208.86277 352.18164 210.07128 356.91602 212.51953 C 363.5855 215.96844 368.51015 222.13327 370.47461 229.49609 C 371.80906 234.49778 372.8631 237.32779 374.76953 238.83398 C 374.94891 242.20653 375.70427 243.06722 378.68164 242.29297 C 379.61802 242.39466 380.73604 242.01817 382.11523 241.25 C 384.11158 241.41059 386.58201 241.41702 389.72461 241.35352 C 393.79003 241.27142 396.77428 241.31922 399.03125 241.67773 C 399.53957 241.86394 400.00561 242.06305 400.43164 242.27344 C 402.35646 243.68982 403.91341 245.79853 405.22852 248.65039 C 407.22874 254.63204 407.19086 263.3512 405.13086 269.32422 C 404.13755 270.69985 402.90916 272.11038 401.42773 273.5918 C 400.07081 274.94873 398.69961 276.13309 397.31836 277.16602 C 393.78146 278.62641 389.10082 279.91394 384.85156 280.47461 C 381.39671 280.93047 378.75066 281.03679 376.42578 280.5957 C 375.36123 280.16125 374.31305 279.64677 373.28516 279.06055 C 370.49871 277.4195 367.76255 275.12212 365.10352 272.16992 C 364.65277 271.63806 364.20868 271.09191 363.7793 270.51953 C 360.51548 266.16875 357.6913 260.961 356.20117 256.87695 C 356.28927 256.36607 356.45756 255.88519 356.71484 255.42969 C 357.53302 254.92261 358.07936 254.21393 358.39648 253.39062 C 360.81136 250.54156 360.07121 248.09856 355.70508 243.73242 C 350.50959 238.53692 349.56957 238.01122 348.06055 243.15625 C 346.73452 243.14095 346.30701 244.01256 346.68555 245.80078 C 346.35004 246.51478 346.14258 247.30681 346.14258 248.15625 C 346.14258 248.59918 346.09216 249.00625 346 249.38086 C 344.33342 252.3797 341.72366 252.62927 335.91602 251.24414 C 328.52149 249.4805 324.82382 248.41781 322.97656 245.73438 C 322.43568 243.23081 322.16205 239.73236 321.8418 234.76758 C 321.7767 233.75809 321.74419 232.97172 321.69336 232.07617 C 321.55084 229.36986 321.47931 227.03565 321.57227 225.18555 C 322.53215 219.38539 325.47326 217.1051 333.79492 213.13672 C 339.5134 210.40976 342.92633 209.03172 346.09375 208.94727 z M 642.08008 212.92578 C 639.21536 213.0464 633.40099 215.2169 627.20508 218.63477 C 613.40617 226.24667 596.33107 248.91158 596.1875 259.80664 C 596.1795 260.41917 596.22376 260.94564 596.29297 261.42773 C 596.18856 261.84309 596.12891 262.16904 596.12891 262.38086 C 596.12891 262.51124 596.15641 262.61425 596.19531 262.70508 C 596.17681 262.80308 596.12891 262.95641 596.12891 263.01758 C 596.12891 263.57846 596.31283 263.87276 596.63086 263.95312 C 596.8832 264.2817 597.26548 264.32693 597.7793 264.08398 C 600.12689 265.1445 604.65602 261.23605 608.53125 253.74219 C 611.52586 247.95123 620.00533 238.72039 627.37305 233.22852 C 642.94718 221.61971 646.35209 217.52643 643.82617 213.43945 C 643.6374 213.13403 643.21878 212.96816 642.61328 212.92969 C 642.44929 212.91927 642.27106 212.91774 642.08008 212.92578 z M 403.2832 221.77344 C 401.97374 221.77344 400.66461 222.60687 398.99805 224.27344 C 395.66491 227.60656 396.61689 228.55859 403.2832 228.55859 C 409.9495 228.55859 410.9015 227.60656 407.56836 224.27344 C 405.9018 222.60687 404.59265 221.77344 403.2832 221.77344 z M 669.86719 226.00586 C 668.34941 225.90031 666.79762 227.20597 665.68164 229.37891 C 664.6676 230.32664 663.98242 232.00169 663.98242 233.91602 C 663.98242 234.35997 664.02898 234.78406 664.09766 235.19727 C 664.02906 235.51492 663.98242 235.82732 663.98242 236.12305 C 663.98242 236.41909 664.02898 236.67319 664.09766 236.90625 C 664.1995 243.80326 664.42612 244.25613 668.36328 239.12695 C 669.63872 238.67881 670.64335 237.19411 670.98633 235.30664 C 672.66406 232.29027 673.36986 229.30307 672.54883 227.97461 C 671.75277 226.68655 670.81841 226.072 669.86719 226.00586 z M 426.11328 242.84375 C 425.86955 242.84374 425.64366 243.10569 425.44336 243.52734 C 424.3992 242.97098 423.41933 242.94394 422.76758 243.5957 C 421.48565 244.8776 423.40678 250.00329 427.03711 254.98633 C 435.75737 266.9559 438.99414 266.56844 438.99414 253.55664 C 438.99414 247.66411 437.38801 242.84375 435.42383 242.84375 C 433.45966 242.84374 431.8274 244.85337 431.79883 247.30859 C 431.76863 249.77199 431.02544 250.01832 429.53906 248.11523 C 428.41142 245.20893 426.87758 242.84375 426.11328 242.84375 z M 373.13867 257.12891 C 366.82977 257.12891 362.7959 263.00508 365.78516 267.8418 C 365.80616 267.8758 365.83026 267.90595 365.85156 267.93945 C 365.93426 268.37889 366.112 268.76434 366.41211 269.06445 C 370.97059 273.62293 377.34148 271.47644 378.18359 265.60352 C 378.18388 265.60152 378.18555 265.59966 378.18555 265.59766 C 378.18555 265.59766 378.18555 265.5957 378.18555 265.5957 C 378.19665 265.5178 378.20379 265.43856 378.21289 265.35938 C 378.25589 265.00874 378.2832 264.64823 378.2832 264.27148 C 378.2832 263.98887 378.26939 263.71178 378.24609 263.4375 C 378.06141 259.90308 376.74883 257.12891 375.15039 257.12891 C 374.8229 257.12891 374.48252 257.18271 374.13867 257.26758 C 373.81465 257.17798 373.48093 257.12891 373.13867 257.12891 z M 334.93164 260.73047 C 341.29164 260.76627 348.61053 263.16717 353.28516 267.8418 C 356.50969 271.06633 358.75776 276.63971 359.83398 282.86133 C 360.05718 284.60677 360.20822 286.3928 360.29883 288.18359 C 360.25403 290.96072 360.10392 293.74832 359.83984 296.38086 C 359.07301 301.30696 357.63068 305.91143 355.96484 308.12695 C 355.89144 308.22465 355.82372 308.30819 355.75195 308.40234 C 352.46204 310.90797 346.97782 311.02175 341.13867 309.33984 C 339.79262 308.75932 338.29948 308.09278 336.60938 307.32812 C 334.02022 306.15672 331.71159 304.99746 329.64453 303.83008 C 325.36452 300.86834 321.61111 297.05149 319.25781 292.6543 C 317.23259 288.87014 316.39992 284.53492 316.92773 281.26562 C 317.02763 280.80059 317.14156 280.32791 317.26758 279.84766 C 317.39341 279.46298 317.53771 279.0964 317.71289 278.76172 C 319.29244 275.74405 321.4269 270.54565 322.50586 267.10547 C 322.80288 266.59442 323.09981 266.11249 323.40234 265.67773 C 326.21956 262.01983 329.30071 260.91098 334.93164 260.73047 z M 420.69141 270.71289 C 421.38884 270.75929 422.01248 270.98778 422.61523 271.35156 C 423.20966 271.8582 423.82108 272.39478 424.53516 273.04102 C 424.57126 273.07362 424.59516 273.09661 424.63086 273.12891 C 424.67016 273.17321 424.70853 273.22021 424.74805 273.26562 C 427.76571 277.10652 427.37993 280.65311 423.14844 288.83594 C 416.53564 301.62365 415.94958 321.78331 421.72461 337.75391 C 421.91919 338.29202 422.09251 338.83486 422.25586 339.37891 C 422.58908 341.55195 422.97543 344.07376 423.24609 345.83594 C 423.37741 346.69097 423.48415 347.49313 423.58008 348.27344 C 423.62398 354.99718 421.57648 361.6229 417.84766 367.05273 C 416.00141 369.43847 413.88515 371.66145 411.59961 373.60938 C 408.83658 375.42973 405.46377 377.24094 401.85742 378.92773 C 396.54656 380.98122 389.78761 382.99041 384.55273 383.97266 L 371.69141 386.38477 C 371.62281 386.32787 371.54793 386.27502 371.49219 386.21094 L 374.74609 374.86523 C 375.39484 372.60313 375.968 370.69436 376.51562 369.03906 C 376.82562 368.30018 377.10152 367.68765 377.38477 367.03906 C 378.16727 365.2603 378.8983 363.71643 379.56641 362.5332 C 381.7687 359.97148 384.6335 360.81435 390.41211 363.44727 C 397.11675 366.50213 400.50519 366.82062 400.66016 364.20312 C 404.10264 363.95884 403.10658 362.69669 397.67969 356.66211 C 396.75407 355.08148 395.63686 353.31793 394.28125 351.32031 C 392.27127 348.35846 390.41232 345.97719 388.73633 344.19336 C 388.65943 344.05464 388.59495 343.92703 388.52148 343.79102 C 388.03017 342.81806 387.59108 341.88199 387.26367 341.05273 C 386.71475 339.66245 386.28397 338.63815 385.90039 337.83789 L 384.32227 333.91016 L 383.68359 336.79297 L 382.14258 333.91211 L 382.05859 339.59375 C 381.95979 339.8242 381.8686 340.10275 381.7832 340.41602 C 380.66053 340.87117 379.90597 342.26268 379.58789 344.625 C 379.40532 345.98079 379.12283 347.82998 378.84766 349.55469 C 378.54466 349.99341 378.22765 350.38728 377.89844 350.74609 C 377.49657 350.83159 377.07973 350.79312 376.64453 350.63477 C 374.98047 348.38359 372.3841 343.73067 369.57031 337.78125 C 361.68365 321.10586 361.41588 315.50627 368.60742 297.42578 C 370.04537 294.86059 371.59461 292.92495 373.21875 291.66797 C 374.40867 290.98984 375.78318 290.42929 377.40039 289.92383 C 378.51605 289.75324 379.51455 289.58064 380.53711 289.41016 C 381.58849 289.32006 382.70394 289.26953 383.90039 289.26953 C 392.13147 289.26953 399.7176 285.912 408.08594 278.56445 C 411.91994 275.19815 414.67764 272.96911 416.81641 271.71289 C 418.38623 270.96798 419.6263 270.64208 420.69141 270.71289 z M 506.51562 271.46875 L 506.51758 271.46875 C 539.21171 271.53484 544.3133 273.82648 535.63086 284.54883 C 530.52812 290.85047 526.73781 291.96411 515.42188 290.48438 C 498.92831 288.32754 481.84961 294.02379 481.84961 301.68164 C 481.84961 308.16792 483.35207 308.31337 497.66602 303.23047 C 504.08089 300.95252 513.06817 301.35567 519.64648 303.31836 C 525.48168 306.02517 527.98574 309.2832 526.9082 312.26562 C 525.85539 313.59559 524.23301 315.0078 522.27148 316.3457 C 513.41925 320.71368 497.39703 322.57418 492.5332 318.49414 C 492.5509 318.28107 492.56445 318.06408 492.56445 317.83984 C 492.56445 315.87567 490.95637 314.26953 488.99219 314.26953 C 488.95759 314.26953 488.92496 314.2783 488.89062 314.2793 C 488.85363 314.2783 488.81844 314.26953 488.78125 314.26953 C 488.07884 314.26953 487.54813 314.46288 487.17969 314.78125 C 486.13294 315.40569 485.42187 316.53894 485.42188 317.83984 C 485.42188 317.96823 485.44558 318.08985 485.45898 318.21484 C 484.47246 319.45852 483.70156 320.03639 483.00977 319.85352 C 482.6843 319.34092 482.36026 318.79249 482.03125 318.17773 C 481.92532 317.9798 481.80905 317.7893 481.69336 317.59766 C 481.65136 317.31334 481.55249 317.0148 481.39258 316.70508 C 481.37808 316.68058 481.36536 316.65646 481.34766 316.63086 C 481.09716 316.17045 480.7139 315.69463 480.20117 315.2207 C 478.87821 312.45201 476.5595 311.17095 472.16602 311.02539 C 471.14133 310.81225 470.0864 310.69531 469.01367 310.69531 C 468.3144 310.69531 467.66606 310.72956 467.05273 310.78516 C 465.46704 310.71566 464.1427 310.86291 463.2168 311.21875 C 462.83305 311.30455 462.51148 311.42936 462.26562 311.5957 C 454.42109 311.6548 447.95428 308.66291 444.95703 304.40039 C 444.1521 303.13947 443.61219 301.92469 443.33008 300.72852 C 443.19372 300.05812 443.14394 299.36988 443.16992 298.67383 C 443.65318 295.97606 445.10695 293.14833 447.5332 290.19531 C 449.01521 288.63452 450.87633 286.98014 453.125 285.19141 C 464.90729 276.71081 484.66942 271.4249 506.51562 271.46875 z M 581.0918 275.375 C 583.60285 275.3535 586.33195 275.5683 589.13477 275.97266 C 600.04908 278.76509 613.05269 284.9093 619.4375 291.39844 C 621.62163 294.31278 622.91211 297.36418 622.91211 300.36914 C 622.91211 304.25408 621.21493 307.10912 618.12109 308.83789 C 615.59572 309.7935 612.35066 309.93557 608.62695 309.00586 C 604.6986 308.02507 598.94791 307.20241 595.8457 307.17383 C 594.89852 307.16583 594.04317 306.91443 593.30469 306.4707 L 594.34375 305.33984 L 593.15625 306.38281 C 592.98571 306.2718 592.82059 306.15171 592.66406 306.01953 C 591.50544 304.57202 591.02419 302.82374 591.34766 300.82031 C 591.42996 300.4056 591.52499 299.97666 591.64453 299.51953 C 592.86794 294.84123 592.44341 292.95545 590.08008 293.24023 C 589.44702 292.9731 588.6596 292.83984 587.70703 292.83984 C 583.73244 292.83984 582.70011 294.89995 583.74023 301.20117 C 583.67423 302.02471 583.62891 302.87371 583.62891 303.75977 C 583.62891 311.19542 580.78175 316.86372 574.70117 321.53516 C 560.15403 332.71109 542.03074 327.82342 537.42383 315.43945 C 536.78617 313.51231 536.4302 311.44728 536.32812 309.30859 C 536.31363 307.26484 536.60171 305.10326 537.2793 302.83594 C 542.77135 284.45884 549.54527 277.95349 560.65039 280.39258 C 567.19142 281.82924 571.13086 281.24609 571.13086 278.83984 C 571.13086 278.26936 571.23103 277.75972 571.41992 277.30664 C 571.64777 277.17947 571.86846 277.04957 572.07812 276.91406 C 572.10992 276.90056 572.14826 276.8886 572.17969 276.875 C 574.47487 275.88021 577.5728 275.40517 581.0918 275.375 z M 259.30078 275.50977 C 261.40207 275.49977 263.51806 275.55719 265.64062 275.67578 C 271.40981 276.18433 277.81089 277.2564 285.42188 278.88867 C 289.21985 279.70319 292.32469 280.4819 294.9707 281.37109 C 299.7079 283.62243 303.94639 286.43464 307.50586 289.7832 C 309.09905 291.70065 310.68674 293.98993 312.46484 296.80664 C 318.22443 305.93042 326.2949 312.81528 335.58203 316.53125 C 342.89274 319.45642 348.52403 322.68089 352.77344 326.66016 C 352.85464 326.73846 352.93891 326.81419 353.01953 326.89258 C 361.0089 334.52637 364 344.93333 364 361.28906 C 364 374.17256 361.91402 386.0078 358.49609 394.7793 C 355.64368 399.43728 352.00977 404.39801 348.3418 408.7793 C 347.63817 409.15625 346.92212 409.45344 346.19141 409.64453 C 342.23681 410.67876 339 412.94444 339 414.67969 C 339 416.4146 337.39387 417.83398 335.42969 417.83398 C 333.46552 417.83398 331.80007 412.61209 331.73047 406.22852 C 331.55779 390.39049 324.62277 379.11218 308.20312 367.97852 C 306.42287 366.77137 304.83854 365.60886 303.41406 364.46289 C 299.67581 360.57645 296.63987 356.85639 294.43555 353.44922 C 293.55028 351.37607 292.94931 349.15071 292.57617 346.65625 C 291.85329 341.82392 291.0776 338.8288 288.85547 336.48438 C 288.412 333.1664 286.87298 332.16805 283.43945 332.80078 C 283.33425 332.79678 283.23784 332.78881 283.12891 332.78711 C 282.05236 332.304 280.86219 331.81714 279.49414 331.3125 C 276.25602 329.80337 272.02473 328.21203 266.36133 326.23633 C 258.37175 323.44915 251.38529 320.99511 245.11719 318.75195 C 241.649 317.26391 238.49293 315.82777 236.06641 314.58984 C 229.03939 311.00494 220.63072 307.99008 215.94336 307.2832 C 211.40787 305.09479 208.47263 303.19576 206.95898 301.40625 C 206.89858 300.90909 206.86523 300.38514 206.86523 299.82031 C 206.86523 296.2538 209.16404 293.12176 214.77539 289.5332 C 216.19234 288.68087 217.76537 287.77438 219.47266 286.82227 C 221.29665 285.85545 223.32414 284.85091 225.61328 283.78516 C 234.07385 279.84619 241.09351 277.36762 248.25195 276.17578 C 251.85993 275.76925 255.5509 275.52768 259.30078 275.50977 z M 453.2793 299.98242 C 451.46014 299.98242 449.96347 301.36685 449.75 303.13086 C 449.724 303.27014 449.70703 303.4111 449.70703 303.55469 C 449.70703 305.51887 451.2201 307.125 453.06836 307.125 C 453.10256 307.125 453.14113 307.11623 453.17578 307.11523 C 453.21138 307.11623 453.24339 307.125 453.2793 307.125 C 453.94445 307.125 454.56099 306.92943 455.0957 306.60938 C 456.46465 305.98435 457.83582 304.85374 458.63867 303.55469 C 459.8526 301.59052 458.33758 299.98242 455.27539 299.98242 C 454.85692 299.98242 454.45326 300.01937 454.06055 300.07617 C 453.8087 300.01937 453.54767 299.98242 453.2793 299.98242 z M 571.38867 300.85938 C 569.02256 300.7538 566.04823 302.7311 564.80664 306.45508 L 564.80664 306.45703 C 564.79964 306.47933 564.79606 306.50124 564.78906 306.52344 C 564.78306 306.54114 564.77358 306.55632 564.76758 306.57422 C 563.99638 308.88779 564.80055 310.19924 566.90625 310.33398 C 567.524 310.56342 568.24287 310.69922 569.04688 310.69922 C 569.07107 310.69922 569.09494 310.69336 569.11914 310.69336 C 569.12414 310.69348 569.12947 310.69922 569.13477 310.69922 C 569.14377 310.69922 569.15466 310.69241 569.16406 310.69141 C 569.52511 310.68341 569.88083 310.64524 570.22266 310.57227 C 570.28746 310.58847 570.34795 310.61611 570.41406 310.62891 C 570.64598 310.67391 570.88534 310.69727 571.13086 310.69727 C 571.27445 310.69727 571.41541 310.68225 571.55469 310.65625 C 573.3187 310.44277 574.70117 308.94415 574.70117 307.125 C 574.70117 306.92072 574.67402 306.72445 574.64062 306.5293 C 574.81966 306.13407 574.91142 305.73267 574.89062 305.33984 C 574.86632 304.87979 574.76419 304.48381 574.63281 304.11719 C 574.62881 304.08559 574.62579 304.05258 574.62109 304.02148 C 574.60069 303.89062 574.56531 303.77677 574.53711 303.6543 C 574.48851 303.43105 574.43753 303.21499 574.36719 303.02148 C 574.36419 303.01448 574.36042 303.00915 574.35742 303.00195 C 574.15704 302.45983 573.88129 302.03114 573.53711 301.75195 C 572.95973 301.19488 572.21348 300.89618 571.38867 300.85938 z M 629.02148 314.6875 C 629.44088 314.6895 629.8166 314.69998 630.2207 314.70508 C 637.87771 315.26755 644.38995 316.39983 650.01758 318.24023 C 652.17962 319.27393 654.31483 320.56236 656.69727 322.18359 C 663.28926 326.66937 671.64831 334.35715 675.27344 339.26758 C 681.99987 348.37897 688.15057 372.78571 688.49609 388.27344 C 688.40889 391.99947 688.01905 395.47 687.32031 398.74219 C 683.03967 412.43673 667.36541 428.97173 651.63086 436.11914 C 645.60962 438.85407 635.40341 440.85622 624.75391 441.88281 C 623.0883 441.96191 621.51923 442.04802 619.65234 442.11719 C 605.29246 442.64925 594.77379 441.94741 586.55078 439.27344 C 574.03571 433.22742 561.02197 415.93429 555.27344 397.29883 C 553.27192 390.81062 554.17324 389.26367 559.96484 389.26367 C 563.90962 389.26367 568.13339 387.65525 569.34961 385.6875 C 570.26694 384.20321 568.62374 382.27486 565.66406 380.46289 C 565.08586 380.04854 564.3521 379.64448 563.45312 379.25781 C 558.66165 376.89058 551.9157 374.98047 546.2832 374.98047 C 537.42809 374.98047 533.52224 386.18883 540.58008 391.34961 C 542.80784 392.97846 544.72746 395.39352 545.60938 397.47852 C 545.92976 398.57647 546.06988 399.58327 546.0293 400.45312 C 544.97694 404.78699 535.29511 398.98021 531.35547 392.1543 C 530.57161 390.12721 530.01449 387.98392 529.74609 385.82812 C 530.06678 377.14553 537.28536 362.16677 545.38477 350.82812 C 550.54724 344.52017 556.27614 339.05383 561.51367 335.83984 C 561.92334 335.74964 562.32068 335.69727 562.70117 335.69727 C 565.2367 335.69727 572.58914 331.20567 579.04102 325.7168 C 589.34312 316.95243 594.0571 315.63146 617.74219 314.88086 C 622.06552 314.74385 625.77706 314.67148 629.02148 314.6875 z M 611.60156 324.98242 C 601.21983 324.98242 592.61133 332.74839 588.56055 342.25781 C 588.49565 342.40454 588.43316 342.55133 588.37109 342.69922 C 588.30179 342.86877 588.2324 343.03843 588.16602 343.20898 C 588.02091 343.57703 587.88538 343.94803 587.75781 344.32227 C 584.97669 352.32222 585.43052 361.20128 590.6582 367.63867 C 590.88354 368.26608 591.11909 368.77922 591.36719 369.02734 C 591.87595 369.5361 592.44061 369.95689 593.0332 370.33008 C 598.38426 376.20654 598.9478 375.67315 612.42188 369.2793 C 631.56462 360.19554 634.23918 335.30121 621.08008 327.41992 C 619.5375 326.15648 617.76139 325.44635 615.63477 325.31641 C 614.93726 325.1016 614.23995 324.98242 613.55273 324.98242 C 613.4067 324.98242 613.19238 325.01852 613 325.04492 C 612.53799 325.01632 612.08315 324.98242 611.60156 324.98242 z M 609.61914 328.19336 C 611.25583 328.21019 612.94078 328.42022 614.73633 328.82422 C 631.79407 335.52761 623.59414 346.66053 624.13281 351.56836 C 624.67147 356.4762 612.34272 365.81274 610.06836 367.00977 C 607.794 368.20681 599.95296 370.54092 597.08008 369.52344 C 594.2072 368.50596 592.7106 362.46137 590.49609 358.63086 C 588.28157 354.80036 589.18035 348.45534 590.07812 345.2832 C 590.97591 342.11106 597.20114 331.3985 601.57031 329.72266 C 604.30104 328.67525 606.89133 328.1653 609.61914 328.19336 z M 527.82812 330.11719 C 531.90778 330.07659 535.40454 330.25869 537.7207 330.68945 L 545.60156 332.15625 L 545.69727 332.18945 L 548.29883 333.41992 L 547.23828 335.08203 L 535.93555 350.30469 C 523.19535 367.45952 522.51774 367.82999 503.93555 367.83398 C 493.49449 367.83598 481.84218 369.50207 478.04297 371.53516 C 477.62764 371.75743 477.24029 371.95652 476.87305 372.13867 C 475.66944 372.02652 474.57942 371.89258 473.62109 371.73047 C 472.9047 371.43629 472.26834 371.07812 471.71094 370.63867 C 471.69264 370.60407 471.6723 370.57466 471.6543 370.53906 C 471.21538 368.40719 471.13672 364.83578 471.13672 359.32617 C 471.13672 350.57892 470.06871 340.6392 468.76367 337.23828 C 468.53839 336.65119 468.36504 336.13929 468.22461 335.66602 C 468.8658 334.12306 470.16046 333.23066 472.69141 332.69727 C 473.45682 332.85014 474.31092 333.04356 475.28906 333.28906 C 480.18314 334.51739 493.70455 333.96578 505.33789 332.0625 C 512.60874 330.87291 521.02871 330.18491 527.82812 330.11719 z M 132.75781 330.62305 C 133.5974 330.63205 134.20028 330.83252 134.62305 331.21484 C 134.98395 332.09628 135.21656 333.32915 135.35742 334.95508 C 134.99756 337.42014 133.47925 340.05606 131.67383 341.17188 C 129.17071 342.71889 129.77075 346.33877 133.46094 351.9707 C 134.39719 353.3996 135.2063 354.95202 135.9082 356.57617 C 136.05021 360.96313 136.21499 365.4193 136.39844 369.29883 C 136.91704 380.26572 135.64518 387.36658 133.00391 388.26367 C 130.96383 388.95678 128.71161 387.56094 126.7168 384.96094 C 124.88557 381.23004 123.20115 375.44227 121.87109 367.73438 C 121.55114 365.88022 121.19181 364.23345 120.8125 362.7168 C 120.1379 357.2774 118.36113 353.37335 116.48438 352.42578 L 116.34766 351.76758 L 116.21289 352.30664 C 114.97559 351.87484 113.71701 352.74392 112.72461 355.33008 C 111.74316 357.88769 110.91058 362.50799 110.58984 366.73047 C 109.05822 373.83273 105.38916 374.7764 103.91992 369.3418 C 103.65037 363.75488 105.21817 356.1075 107.74414 349.18945 C 112.02027 341.57427 118.79108 334.7284 125.43555 332.41211 C 128.86115 331.21794 131.20581 330.60687 132.75781 330.62305 z M 496.46875 378.55078 C 515.91958 378.55078 517.03583 379.04638 520.59766 389.26367 C 524.78546 401.27692 525.79469 400.97919 497.92188 395.96875 C 481.8968 393.08822 472.88431 391.46476 468.47461 390.06445 C 466.77033 389.17516 465.68479 388.24654 465.21875 387.3125 C 465.49256 386.87637 465.80894 386.42045 466.16797 385.94531 C 466.90055 385.27517 467.90534 384.52136 469.14453 383.61523 C 473.21105 380.64182 484.49703 378.55078 496.46875 378.55078 z M 91.728516 379.0625 C 92.724708 379.1534 93.714787 379.5091 94.765625 380.13672 C 95.311045 380.81751 95.880543 381.75204 96.5625 382.9707 C 98.426984 386.3023 107.13467 392.20525 115.91211 396.08789 C 120.62885 398.17431 124.87054 400.74995 127.79883 403.14453 C 129.28075 404.9795 130.08398 406.83713 130.08398 408.60938 C 130.08398 411.62642 129.64448 413.68612 128.41797 414.76367 C 124.5967 415.15644 116.94328 411.62333 102.36719 403.65039 L 83.972656 393.58789 C 81.928138 391.63314 80.835203 389.89111 80.632812 388.25977 L 85.697266 383.67773 C 88.559803 381.08711 90.365493 379.5741 91.728516 379.0625 z M 158.60547 396.40625 C 165.17218 396.40625 206.86523 445.89969 206.86523 453.69531 C 206.86523 457.42689 201.76356 467.71905 195.52734 476.56641 C 187.29353 488.24787 183.40323 491.62005 178.03711 490.98438 C 177.6449 490.88637 177.23775 490.81996 176.82031 490.7832 C 176.63781 490.744 176.46214 490.7129 176.27539 490.66602 C 171.92291 489.57359 167.28885 490.41757 165.97656 492.54102 C 161.48984 499.80061 157.40436 496.38203 140.90039 471.55664 L 130.67773 456.17773 C 127.90596 450.66591 126.36177 446.37153 126.09766 443.39453 L 130.45898 434.95312 C 141.26587 414.03359 154.13618 396.40625 158.60547 396.40625 z M 699.71094 397.45117 C 702.21844 397.50227 705.92589 398.79805 710.13672 400.875 C 713.36515 402.8342 717.28256 405.55694 722.1543 409.13086 C 734.79511 418.40427 742.33597 427.81614 745.04492 438.17773 C 745.22268 439.44951 745.36202 440.74172 745.45898 442.05078 C 745.47808 442.35641 745.50473 442.65914 745.51953 442.9668 C 745.52453 443.0579 745.5286 443.14901 745.5332 443.24023 C 745.75531 448.29862 745.4004 453.59317 744.61133 458.54297 C 743.61571 462.28296 742.16116 466.16638 740.23633 470.22266 C 738.11392 474.69533 736.25179 477.55364 734.71875 478.74219 C 734.09264 479.02868 733.45137 479.21664 732.79492 479.30859 C 732.39117 479.17722 732.02814 478.85624 731.70898 478.33984 C 728.07644 472.46232 721.12305 477.42749 721.12305 485.89844 C 721.12305 487.63683 720.70411 489.03931 719.97266 490.13086 C 718.36261 491.172 716.2562 491.81553 713.53711 492.13086 C 711.66707 492.34771 709.82917 492.27038 708.04102 491.93555 C 703.91233 490.44831 699.52123 487.42872 696.03125 483.00781 C 689.81372 475.13183 688.59846 469.82066 689.89453 456.1875 C 690.78487 446.82196 694.40024 435.99717 697.94336 432.08203 C 699.89084 429.93014 701.13416 427.99742 701.52539 426.69141 C 702.19605 425.61603 702.09185 425.11923 701.3457 425.16992 C 701.18665 425.04886 700.97063 424.97656 700.68359 424.97656 C 700.31921 424.97656 699.89073 425.0779 699.4375 425.22266 L 700.51758 423.19141 L 699.87695 423.78516 L 700.05469 423.39453 L 696.43359 426.79492 C 695.24807 427.617 694.05974 428.65759 693.02539 429.80859 C 692.03754 430.52277 691.00113 431.29795 689.89258 432.16992 C 688.49547 433.26891 687.2391 434.18598 686.10742 434.95312 C 684.96828 435.40891 683.86561 435.68945 682.92773 435.68945 C 678.92074 435.68945 679.36843 433.63121 684.9043 426.59375 C 688.8394 421.59082 693.10107 412.75316 694.375 406.95312 C 695.45407 402.04008 696.66029 398.9674 698.76562 397.77734 C 699.07362 397.65388 699.38902 397.54546 699.71094 397.45117 z M 64.554688 403.55273 C 83.483645 403.55773 111.58141 415.66745 116.75391 426.05078 C 120.54218 433.655 120.25173 438.23444 114.96875 454.16211 C 107.24781 477.43974 98.086238 480.17005 76.734375 465.56445 C 62.775451 456.01583 45.847286 450.97828 35.138672 452.13672 C 31.423401 452.14472 28.71179 452.94707 27.541016 454.67969 C 27.526796 454.70079 27.505808 454.71883 27.492188 454.74023 C 27.489988 454.74323 27.488428 454.746 27.486328 454.75 C 27.484128 454.753 27.480716 454.75577 27.478516 454.75977 C 27.429516 454.83677 27.393303 454.90095 27.345703 454.97656 C 26.889204 455.36066 26.473102 455.77523 26.123047 456.23633 C 21.682379 462.08601 21.347942 462.03095 20.736328 455.33203 C 19.869171 445.83433 20.992613 433.45394 23.167969 425.74414 C 24.960154 421.99183 27.221817 418.59259 29.916016 415.89844 C 30.312839 415.50161 30.714371 415.11527 31.119141 414.73633 C 39.567726 408.71942 53.979325 403.5505 64.554688 403.55273 z M 470.8125 404.03906 C 475.81336 403.92102 483.50599 405.20219 496.98828 407.99023 C 510.70732 410.82684 524.81326 415.44516 530.99609 418.97461 C 531.66008 419.38883 532.29895 419.80595 532.88477 420.22266 C 532.88877 420.22566 532.89384 420.22942 532.89844 420.23242 C 533.00491 420.31632 533.13635 420.4045 533.23047 420.48633 C 537.38025 424.0947 546.39882 429.82817 553.27344 433.22656 C 558.04888 435.58723 564.56548 439.16644 570.16602 442.44336 C 572.10695 443.74572 574.11097 444.95247 576.16992 446.0625 C 576.37563 446.1924 576.61208 446.33719 576.80859 446.46289 C 594.26093 457.6269 625.93615 459.32324 651.08594 450.43945 C 657.06153 448.32867 662.81576 446.65894 667.24414 445.66797 C 676.49097 444.83384 676.97061 449.27538 678.24609 461.43555 C 678.25109 461.80827 678.26758 462.17095 678.26758 462.54688 C 678.26758 473.7427 680.07069 479.5088 686.87695 487.95312 C 688.32742 490.01857 689.94172 491.87693 691.69531 493.51562 C 693.54309 495.55719 695.19938 497.29275 696.66992 498.59766 C 698.22697 500.03605 699.70423 501.07495 701.29297 501.7793 C 702.79651 502.4746 704.35259 502.84337 706.11914 502.97852 C 708.5534 503.22524 711.43806 503.13275 715.18945 502.85547 L 724.10547 502.19727 C 727.86161 502.83629 730.49491 504.8305 732.57227 509.14844 L 735.14062 516.67969 C 736.81773 523.30984 738.20527 532.67854 739.85742 545.76758 C 741.58921 559.48766 742.16865 571.27394 741.72266 579.86523 C 741.72242 579.86823 741.72289 579.87005 741.72266 579.87305 C 741.34143 583.8532 740.80401 587.52128 740.12305 590.76172 C 738.98054 594.35572 737.29577 595.76639 735.11719 594.41992 C 734.5166 594.04872 733.52891 594.1906 732.3125 594.69141 L 732.80859 592.0957 L 730.66797 594.13086 C 729.55697 594.23634 727.4826 596.21824 723.56055 600.29492 C 722.26276 601.64386 721.10077 603.00772 720.08789 604.31445 C 719.20531 605.2836 718.4401 606.22589 717.79688 607.11523 C 715.66286 607.15273 715.05932 608.13756 715.91992 610.64648 C 715.59847 611.35953 715.43053 611.95747 715.4668 612.38086 C 715.4921 612.67577 715.42065 612.97491 715.2832 613.27344 C 713.97942 614.05794 711.67063 614.93873 708.78906 615.66211 C 703.8468 616.90244 699.80105 619.45758 699.70508 621.37695 C 699.04862 622.07081 698.56022 622.77232 698.30273 623.44336 C 698.29173 623.47206 698.27713 623.49699 698.26562 623.52539 C 696.96079 624.3846 694.89224 624.95117 692.55273 624.95117 C 690.93651 624.95117 689.59839 625.23508 688.52734 625.78711 C 686.37348 625.79211 685.41986 627.64308 685.41211 631.59375 C 685.41203 631.59975 685.41016 631.60543 685.41016 631.61133 L 685.41016 631.61328 C 685.41016 631.61628 685.41014 631.62005 685.41016 631.62305 C 685.41015 631.62905 685.41016 631.63227 685.41016 631.63867 C 685.41016 631.67757 685.41406 631.70372 685.41406 631.74219 C 685.41385 631.75269 685.41016 631.76294 685.41016 631.77344 C 685.41016 631.79204 685.41502 631.80787 685.41602 631.82617 C 685.41602 631.82817 685.41601 631.83003 685.41602 631.83203 C 685.41523 631.89093 685.41016 631.94625 685.41016 632.00586 C 685.41016 632.09806 685.41697 632.16033 685.41797 632.25 C 685.41697 632.2832 685.41016 632.31621 685.41016 632.34961 C 685.41016 632.41961 685.42203 632.48256 685.42773 632.54883 C 685.44773 633.94403 685.54263 635.04698 685.80664 635.81445 C 685.83854 636.66013 686.13899 637.10998 686.88867 637.14844 C 687.82366 637.59659 689.33802 637.36985 691.74414 636.58789 C 692.74854 636.26591 693.89061 635.85737 695.23047 635.35156 C 701.83593 632.87159 703.76248 632.82367 701.56055 635.17188 C 700.49779 635.79587 699.41386 636.40494 698.31641 637 C 696.49205 637.89679 694.63331 638.73936 692.78125 639.52539 C 690.42143 640.29159 687.83204 640.968 685.29883 641.44336 C 677.9256 642.82703 675.1681 642.98336 675.57422 641.49609 C 675.73124 641.17622 675.90878 640.84334 676.11328 640.49609 C 676.42325 640.0696 676.8392 639.5808 677.375 639.00977 C 678.27388 638.05175 679.02288 637.15032 679.64062 636.31445 C 680.59596 635.28426 681.32813 633.94169 681.65039 632.6543 L 683.625 630.32422 L 681.80859 631.85938 C 681.81759 631.74725 681.82697 631.63519 681.82227 631.53516 C 681.82527 631.47256 681.83984 631.40538 681.83984 631.34375 C 681.83984 629.94362 680.44225 629.98336 678.375 631.16211 C 678.3431 631.17971 678.30771 631.20446 678.27539 631.22266 C 677.96599 631.40269 677.65305 631.59035 677.31641 631.82031 C 676.91157 632.09421 676.48401 632.4077 676.03125 632.76758 C 675.56763 633.13609 675.08181 633.54491 674.57031 634.00781 C 674.15012 634.3881 673.75194 634.79022 673.36914 635.20117 C 670.09593 638.65764 668.18036 642.87458 669.03125 645.0918 C 670.75401 649.58119 658.27549 655.87009 651.48242 653.93555 C 649.51825 653.37594 637.86789 653.98833 625.5918 655.29688 C 611.78638 656.7687 603.80343 659.48165 603.25977 662.20508 C 602.1312 662.99289 602.21652 663.63985 603.94141 663.98242 C 604.48192 664.5042 605.37323 665.0184 606.57031 665.51953 C 606.97035 665.68946 607.40052 665.85651 607.875 666.02148 C 608.63183 666.28177 609.46357 666.53856 610.41406 666.78711 C 610.82905 666.89564 611.22142 667.00868 611.58984 667.13672 C 611.58984 667.13672 611.5918 667.13672 611.5918 667.13672 C 611.652 667.15762 611.70079 667.18728 611.75977 667.20898 C 614.87801 668.3595 616.33193 670.72618 616.99805 679.95703 C 617.31933 687.00182 617.13358 697.91922 616.76562 715.27148 L 616.04688 749.19141 C 615.54105 754.43343 614.94184 758.24332 614.29297 759.96289 L 606.52344 766.89453 L 606.52344 766.87891 C 600.45506 772.29539 590.82 779.69234 585.11328 783.31641 C 575.58136 789.36929 574.55311 789.42461 572.46484 783.98242 C 571.21459 780.72437 571.97403 774.14482 574.1543 769.35938 C 575.07041 767.34888 575.62944 765.7164 575.90234 764.42773 C 577.28486 762.89197 577.79297 761.59654 577.28711 760.99805 C 577.19311 760.8869 577.06533 760.8009 576.90234 760.74023 C 576.73935 760.67953 576.54184 760.64512 576.30859 760.64062 C 576.07535 760.63863 575.77969 760.71774 575.43164 760.87109 C 575.41884 760.87709 575.40548 760.88678 575.39258 760.89258 C 575.19207 760.75422 574.93769 760.67188 574.61719 760.67188 C 573.82314 760.67188 572.69206 761.36452 571.41211 762.53711 C 569.54339 763.94538 567.2307 766.27587 564.62695 769.58594 C 554.64806 782.27202 548.12261 781.21506 554.94727 768.01758 C 562.4773 753.45626 573.90493 746.37305 589.86914 746.37305 C 594.21552 746.37305 597.29491 746.15849 599.62109 745.44531 C 600.78024 745.27636 601.71932 744.82646 602.51172 744.03516 C 604.51552 742.56271 605.82439 740.2231 607.24219 736.55273 C 609.11462 731.70562 609.89094 725.6337 609.75195 719.29688 C 610.31224 714.59461 609.86658 710.77403 608.16602 706.08594 C 606.54745 698.68544 603.77193 691.8147 600.0293 687.05664 C 599.03302 685.79047 598.1708 684.57567 597.42578 683.39062 C 595.18046 677.8078 593.92421 672.82337 594.05273 669.6582 C 594.13633 668.98449 594.25267 668.29679 594.39844 667.5957 C 594.60971 666.87666 594.75001 666.18528 594.80078 665.52344 C 596.1485 658.41975 594.75103 656.93891 586.56445 655.12695 C 566.76296 650.74433 558.64423 647.21262 559.49219 643.34961 C 560.04616 640.82619 556.54506 640.18988 549.67188 641.56445 C 548.55426 641.78795 547.54947 641.97087 546.64648 642.10938 C 543.45724 641.69048 540.96678 640.76247 539.1875 639.33594 C 539.04825 638.59536 538.99023 637.71391 538.99023 636.66406 C 538.99023 633.36348 537.37872 629.79883 534.90625 626.66016 C 534.64292 625.6199 534.30002 624.96484 533.92383 624.96484 C 533.8007 624.96484 533.60253 624.93612 533.36914 624.89062 C 529.50644 620.80638 524.24974 617.80859 519.52148 617.80859 C 519.10353 617.80859 518.77569 617.82358 518.41797 617.83398 C 518.35487 617.83298 518.28953 617.82227 518.22656 617.82227 C 518.03321 617.82227 517.89266 617.8372 517.7168 617.8418 C 517.59779 617.8388 517.478 617.82227 517.35938 617.82227 C 516.06565 617.82227 515.3151 618.04977 515.0918 618.58008 C 515.0764 618.60768 515.06669 618.63857 515.05469 618.66797 C 515.04869 618.68737 515.04151 618.70441 515.03711 618.72461 C 514.8357 619.35533 515.38933 620.40098 516.63477 622.01367 C 516.91733 622.37956 517.20694 622.75127 517.5625 623.17969 C 519.80871 625.8864 520.36365 627.84051 519.15039 628.38086 C 519.13829 628.38586 519.12578 628.38993 519.11328 628.39453 C 518.71577 628.28449 518.26978 628.14771 517.75195 627.97656 C 514.91079 627.03767 507.1124 618.34075 500.41992 608.64844 C 497.75714 604.79214 495.70515 601.7792 494.09766 599.05469 C 492.67192 596.22551 491.42272 593.39262 490.375 590.53711 C 488.64251 584.02724 488.95979 575.98304 489.76562 558.88281 C 490.30595 547.41656 490.7278 539.93623 492.01172 533.30664 C 495.00465 524.23262 499.13323 514.40132 504.4043 503.56836 C 506.53462 499.6766 508.96618 495.33315 511.83594 490.23633 C 518.41906 478.54454 523.94146 467.55782 527.17578 460 L 532.19922 450.50391 L 528.61523 448.375 C 519.18342 439.66529 475.70997 417.91043 466.67383 417.86719 C 465.90023 417.86319 465.18182 417.83477 464.50195 417.79297 C 463.67557 417.52684 462.93045 417.23087 462.23633 416.91602 C 460.37863 415.92322 459.01076 414.88476 458.17188 413.78711 C 458.06311 413.15147 458.14962 412.45813 458.44531 411.6875 C 458.61704 411.24 458.77249 410.79579 458.93164 410.34961 C 459.81586 409.27283 461.02338 408.09015 462.57227 406.80469 C 464.66257 405.06978 466.92294 404.13087 470.8125 404.03906 z M 460.00195 429.60352 C 460.45823 429.58567 460.92057 429.58642 461.39258 429.60352 C 463.13539 429.66662 465.01076 429.95289 467.20898 430.36523 C 481.07223 432.96616 497.14632 440.45781 509.49023 450.07227 C 519.71644 458.03717 514.53474 463.03984 491.62305 467.32031 C 471.97964 470.99002 457.49095 479.13236 444.45703 494.03906 C 442.91518 495.75593 441.46074 497.51964 440.11523 499.32617 C 439.917 499.58201 439.71532 499.82084 439.51758 500.08008 C 432.87289 508.7921 423.19517 518.50002 418.01172 521.65234 C 402.76147 530.92646 364.30999 542.21212 334.27734 546.23047 C 288.95909 552.29441 278.61838 550.70262 272.04102 536.65234 C 270.22248 532.76773 268.99232 528.34253 268.33203 523.62891 C 267.85782 519.14056 267.88821 514.10829 268.37891 508.19141 C 268.50156 506.71239 268.6284 505.3259 268.75977 504 C 269.38201 500.4112 270.28714 496.83503 271.49805 493.36133 C 273.03028 488.96602 274.18201 486.06768 275.86328 484.39844 C 278.56386 482.97971 282.32824 482.9149 287.69531 483.72852 C 290.17504 484.3467 293.12101 485.2024 296.68945 486.27148 C 313.96198 491.44654 380.02645 485.09182 396.26758 476.69336 C 402.16728 473.64247 417.70622 461.43927 430.79883 449.57422 C 447.66109 434.29282 453.15775 429.87125 460.00195 429.60352 z M 221.39844 455.71289 C 222.84216 455.81438 225.43118 456.57299 228.625 457.72266 L 237.82227 462.61328 C 246.40122 467.17474 255.31445 470.94677 258.38672 471.35938 C 261.19758 473.05178 263.16107 474.50107 264.44727 475.87109 C 265.406 480.44383 264.07267 489.04554 260.55859 504 C 258.90052 511.05586 257.16789 517.61588 255.74023 522.42773 C 254.31372 526.21711 253.01181 528.96737 252.05273 530.08594 C 246.5971 529.16331 218.91 517.15983 204.68945 509.88477 C 199.9535 506.81537 197.23197 504.22434 196.44727 502.0625 C 197.72257 496.51903 203.63849 484.20967 212.55469 468.86133 L 219.87695 456.25195 C 220.06133 456.08467 220.23427 455.94316 220.39844 455.82422 C 220.61765 455.72297 220.94295 455.68088 221.39844 455.71289 z M 54.607422 460.90039 C 55.164803 460.91159 55.680421 460.94698 56.195312 460.98438 L 56.197266 460.98438 C 57.369304 461.22505 58.507644 461.51351 59.617188 461.86328 C 63.088732 463.14589 66.6122 465.4257 69.988281 468.38477 C 72.013243 470.38594 74.351554 472.8936 77.207031 475.99023 C 87.726293 489.09903 94.604844 507.38455 89.296875 517.30273 C 82.904165 529.24743 67.929178 527.51654 62.923828 514.25586 C 58.64677 502.92471 51.584371 499.14643 54.582031 509.79297 C 56.022756 514.90997 57.115791 519.67625 57.859375 523.91211 C 57.872505 524.28401 57.875465 524.58485 57.890625 524.97266 L 58.46875 539.76172 C 58.281431 540.42284 58.050881 540.98208 57.761719 541.4082 C 56.903828 542.67256 53.200066 544.17176 48.236328 545.47461 L 45.265625 545.7207 C 42.359978 545.96119 39.685462 546.42385 37.484375 547.00391 C 37.301135 547.03881 37.14703 547.08362 36.970703 547.12109 C 34.70413 546.90821 33.007617 547.32605 32.279297 548.30859 L 21.287109 549.73633 C 19.526853 548.41146 17.63163 546.76441 15.642578 544.77539 C 15.270798 544.4036 14.913422 544.00857 14.564453 543.60156 L 12.109375 537.72461 C 4.5638901 519.66564 5.6272948 505.0246 16.027344 483.76758 C 22.740517 470.04657 28.285227 464.06217 39.126953 461.83008 C 40.535822 461.73118 41.907664 461.63609 43.572266 461.49805 C 48.206089 461.11379 51.717464 460.84248 54.607422 460.90039 z M 359.92383 464.80859 C 358.17861 464.78429 356.85742 466.75297 356.85742 469.61719 C 356.85742 470.04547 356.88921 470.45142 356.94531 470.83594 C 356.89011 471.10375 356.85742 471.36455 356.85742 471.61328 C 356.85742 472.46979 357.21161 473.24671 357.77734 473.8418 C 357.66427 474.60978 357.87671 474.82033 358.50391 474.43164 C 359.06076 474.76985 359.71934 474.97266 360.42773 474.97266 C 361.70479 474.97266 362.82154 473.90492 363.45312 472.32227 C 364.11861 471.48956 364.53516 470.52686 364.53516 469.61719 C 364.53516 468.83757 364.22194 468.02025 363.7168 467.27734 C 363.7392 466.72929 363.62268 466.2633 363.31055 465.95117 C 363.01357 465.65418 362.64925 465.5887 362.25195 465.71094 C 362.20765 465.69694 362.16458 465.67827 362.11914 465.66797 C 361.67751 465.36324 361.19882 465.11315 360.69531 464.94531 C 360.43137 464.85731 360.17314 464.81207 359.92383 464.80859 z M 313.79102 467.83008 C 311.94277 467.83008 310.43164 469.43817 310.43164 471.40234 C 310.43164 472.25025 310.91829 473.02052 311.69531 473.63477 C 311.89021 474.44372 312.60862 474.97266 313.79102 474.97266 C 314.09957 474.97266 314.39599 474.92992 314.68359 474.86328 C 315.10736 474.93008 315.54332 474.97266 315.99805 474.97266 C 319.06024 474.97266 320.5733 473.36652 319.35938 471.40234 C 318.83537 470.55448 318.06536 469.78416 317.2168 469.16992 C 316.92744 468.36094 316.49041 467.83008 315.99805 467.83008 C 315.78649 467.83008 315.5244 467.92997 315.23242 468.10352 C 314.73166 467.93042 314.24186 467.83008 313.79102 467.83008 z M 335.63867 467.83008 C 333.79042 467.83008 331.2862 469.43817 330.07227 471.40234 C 329.93929 471.61752 329.84644 471.82824 329.77734 472.0332 C 328.86023 472.63731 328.28711 473.19672 328.28711 473.57031 C 328.28711 474.31192 330.51819 474.91768 333.30469 474.96484 C 333.34979 474.96556 333.3859 474.97266 333.43164 474.97266 C 333.45224 474.97266 333.47159 474.96875 333.49219 474.96875 C 333.54369 474.96914 333.59264 474.97266 333.64453 474.97266 C 334.49047 474.97266 335.2809 474.83347 335.99414 474.60547 C 337.70093 474.39574 338.6047 473.87371 338.29883 473.1875 C 338.73223 472.68872 339 472.12331 339 471.51367 C 339 471.49467 338.99709 471.47768 338.99609 471.45898 C 338.99656 471.43998 339 471.42134 339 471.40234 C 339 469.43817 337.48693 467.83008 335.63867 467.83008 z M 509.09961 476.50391 C 509.7081 476.83896 510.15424 477.26311 510.4082 477.82617 C 510.29086 479.82154 504.74068 489.66244 497.75195 500.35156 C 496.89711 501.60264 496.13361 502.77535 495.45703 503.86719 C 492.2765 508.73706 489.76462 512.96819 487.75 517.06641 L 487.10156 518.01953 C 486.68721 518.48879 486.29238 519.08005 485.91211 519.76367 L 483.63672 523.09766 L 483.63672 525.72852 C 483.07027 527.78332 482.56886 530.11657 482.13867 532.67578 C 480.94644 537.60004 480.0256 543.14976 479.14062 549.9707 C 477.22931 564.70202 475.4507 573.87685 475.1875 570.36133 C 474.57443 562.17656 464.93953 543.47861 455.81836 531.60938 C 453.63268 528.58368 451.48504 526.07245 449.52148 524.39844 C 449.43078 524.32104 449.35449 524.2451 449.26562 524.16797 C 442.30311 517.03648 442.19921 515.21299 446.54297 507.32031 C 451.5812 498.16557 481.1248 482.47322 498.21289 477.33984 C 499.33869 477.22302 500.43614 477.14578 501.49219 477.11914 C 504.52957 477.04264 507.00556 476.86759 509.09961 476.50391 z M 111.12891 485.47656 C 113.96507 485.0681 121.64611 491.25762 133.02734 503.18945 C 151.33937 522.38764 158.38831 535.68555 150.25391 535.68555 C 143.65815 535.68555 122.55642 518.73683 115.79883 508.01172 C 110.03207 498.85939 101.44807 495.72532 97.376953 498.64648 C 98.034844 493.30259 99.121261 489.64607 100.07227 490.07812 C 100.89719 490.45288 102.88229 489.71831 105.06641 488.35938 C 106.89547 488.85012 109.03475 487.96477 110.21289 486.05859 C 110.41699 485.72834 110.72374 485.53492 111.12891 485.47656 z M 742.43359 489.35938 C 747.63448 490.63139 760.16236 509.86583 760.27734 518.06445 C 760.35974 523.94554 764.88247 531.19281 772.9043 538.29492 C 780.59134 545.10041 783.77985 549.337 784.89258 555.83398 C 785.05626 558.04506 785.03854 560.55906 784.88672 563.61914 C 784.84232 564.49545 784.79019 565.41177 784.72852 566.38086 C 784.46734 570.4881 784.09777 573.77682 783.57617 576.38672 C 782.87836 578.68026 782.03348 580.4802 781.11914 581.39453 C 778.97824 583.53549 776.97301 584.68315 775.20312 585.01367 C 774.23383 584.98757 773.25366 584.76096 772.28125 584.32227 C 770.31028 583.15304 768.98197 580.81469 768.33984 577.51367 C 768.07537 575.25471 768.16092 572.50098 768.5957 569.25195 C 768.96784 567.49523 769.50061 565.64663 770.22461 563.72852 C 772.27067 558.30785 772.12079 554.9224 770.64844 553.72852 L 771.375 551.75586 L 770.86719 552.37695 L 770.98438 551.75586 L 770.71289 552.07812 L 770.81055 551.75586 L 769.67578 553.2832 C 769.11061 553.18062 768.4495 553.26454 767.70898 553.54297 C 766.74142 553.12993 765.5351 553.82801 764.32812 555.76758 C 762.783 557.13656 761.10784 559.04394 759.38672 561.57617 C 756.98485 565.11 755.60942 566.99863 754.56641 567.39062 C 753.51725 566.88545 752.6629 565.94674 752.00586 564.7207 C 751.76883 564.17823 751.52291 563.58788 751.24414 562.88867 C 751.21154 562.80697 751.18675 562.71833 751.15625 562.63477 C 750.58316 560.67316 750.39761 558.30287 750.62695 555.79688 C 750.95115 553.45398 751.7196 551.11379 752.9043 549.2168 C 754.35485 546.89419 755.145 544.864 755.29297 543.04297 C 755.68731 542.55925 755.82764 542.08875 755.70312 541.61133 C 756.8904 540.02246 756.48308 539.36363 754.53711 539.2793 C 754.46581 539.14416 754.39168 539.00793 754.31055 538.875 C 754.10645 538.30614 753.79059 537.86337 753.36914 537.55469 C 749.04439 531.56782 740.31456 499.12507 740.57422 491.25977 C 740.99372 490.22797 741.60984 489.56892 742.43359 489.35938 z M 96.560547 508.02734 C 102.24029 517.28339 123.39402 533.23115 143.5293 548.45898 C 151.03738 554.46849 158.60474 559.91699 165.41016 563.95703 C 167.46695 565.17805 170.05141 566.57908 172.83594 568.04297 C 175.29754 569.45048 177.72107 570.77437 180.08008 571.97656 C 215.85171 590.20675 233.35934 597.48147 257.0957 600.14844 C 259.90239 600.49926 262.893 600.75499 266.1582 600.93945 C 270.57975 601.52703 275.33926 601.92143 280.25781 602.16797 C 284.97263 602.51488 289.93497 602.59669 295.07812 602.44141 C 303.63772 602.32493 312.26649 601.76987 320.2793 600.82227 C 326.367 600.43381 331.59023 599.80557 336.71484 598.8418 C 357.84638 595.62357 375.44234 589.05195 399.87695 576.66992 C 420.08431 566.43014 442.56641 546.03417 442.56641 537.94141 C 442.56641 531.48177 437.04189 530.04948 434.20312 535.77344 C 434.01196 536.15898 433.85037 536.42805 433.70508 536.63867 C 433.79448 534.88475 433.98215 533.33751 434.26562 531.99609 C 440.07497 520.596 462.50436 545.16594 466.41016 569.23438 C 471.12046 598.26095 441.48836 631.19755 407.38867 634.83984 C 398.25576 635.81514 389.00551 638.01469 386.83203 639.72852 C 385.75352 640.57907 383.53961 641.53195 380.39062 642.55078 C 378.43068 643.14745 376.25254 643.77411 373.80469 644.43164 C 362.70371 647.27918 345.55624 650.47693 324.7168 653.50195 C 323.38185 653.69571 321.98241 653.88049 320.54297 654.05469 C 306.71367 655.30326 290.84531 656.13299 274.65039 656.47656 C 238.45354 656.78405 197.70984 654.30432 177.39062 649.87891 C 175.20504 649.33845 173.02254 648.76169 170.85352 648.16406 C 159.50884 644.52193 148.86818 640.0099 138.99219 634.69531 C 138.84655 633.65872 137.15935 632.77521 134.78906 632.36133 C 121.38721 624.6603 109.49151 615.42008 99.335938 604.74609 C 82.439336 586.98677 73.210621 574.10878 69.740234 562.70312 C 68.53644 557.65921 67.920325 552.64387 68.261719 549.17383 C 68.935526 542.32501 70.288036 539.18855 74.707031 537.0293 C 75.12742 536.88702 75.577949 536.76095 76.054688 536.64844 C 76.530208 536.544 77.00569 536.43916 77.513672 536.36328 C 77.574982 536.35428 77.634362 536.34163 77.695312 536.33203 C 77.897576 536.29983 78.089697 536.26358 78.300781 536.23438 C 92.146325 534.31912 96.158203 528.94953 96.158203 512.32617 C 96.158203 512.28737 96.160156 512.25168 96.160156 512.21289 C 96.300981 510.90163 96.432254 509.4985 96.560547 508.02734 z M 193.91602 534.82227 C 199.46995 534.95063 208.48544 538.06902 222.60742 544.31445 C 237.23882 550.78503 241.55203 553.8262 242.4043 559.59961 C 242.40479 559.60261 242.40525 559.60537 242.40625 559.60938 C 242.48985 560.31925 242.53375 561.08015 242.55469 561.875 C 242.45999 566.6826 241.52367 569.58721 238.67969 570.50586 C 234.52462 571.00816 226.11837 567.58215 209.36914 559.93945 C 189.46438 550.85676 185.28264 547.51071 186.16797 541.37891 C 186.81114 536.92419 189.01551 534.709 193.91602 534.82227 z M 419.33203 551.5332 C 420.60754 551.5794 419.83191 552.91701 417.51367 555.38477 C 409.52654 563.88669 373.7262 579.34759 346.92969 586.57031 C 346.59486 586.65971 346.25985 586.74805 345.92578 586.83594 C 342.2863 587.79675 338.81001 588.61203 335.62109 589.2168 C 303.45326 595.3173 285.42742 593.91252 277.93164 584.68945 C 277.65362 584.26854 277.37243 583.88697 277.08789 583.55664 C 273.94189 579.10294 271.47721 573.71253 271.37891 571.06836 C 271.56679 570.31349 272.24269 570.24466 273.38477 570.99023 C 273.80773 571.71467 274.26682 572.65895 274.74805 573.85352 C 275.73038 576.29187 278.90045 578.97203 282.91016 581.35352 C 285.13822 583.53105 287.28903 584.66826 290.51172 585.08594 C 297.22455 587.79392 304.12316 589.15702 307 587.37891 C 308.42893 586.49575 321.33858 584.10947 335.6875 582.07422 C 353.93826 579.4858 371.31131 573.68606 393.50781 562.76953 C 409.38426 554.96104 417.20617 551.45613 419.33203 551.5332 z M 499.92773 585.60156 C 499.51106 585.56146 499.0728 585.65377 498.62891 585.86719 C 497.19063 586.32902 496.13477 587.66738 496.13477 589.25391 C 496.13477 590.43004 496.7175 591.46746 497.60156 592.11914 C 497.77916 592.52011 497.97878 592.91957 498.2168 593.30469 L 498.2168 593.31836 C 500.46677 596.94459 501.30598 596.94709 502.51562 593.31836 C 502.81689 592.41454 502.95177 591.52861 502.96484 590.69336 C 503.16137 590.25177 503.27734 589.76629 503.27734 589.25391 C 503.27734 587.64669 502.19378 586.2938 500.72656 585.84961 C 500.47087 585.72402 500.20669 585.62843 499.92773 585.60156 z M 444.75195 597.76367 C 443.47133 597.82037 442.56641 599.24427 442.56641 601.54102 C 442.56641 601.9637 442.60226 602.37319 442.66016 602.76953 C 442.60156 603.01825 442.56641 603.27235 442.56641 603.53711 C 442.56641 605.50128 443.27445 607.10938 444.14062 607.10938 C 444.36739 607.10938 444.6531 606.99476 444.9707 606.79688 C 445.33709 606.99612 445.72818 607.10937 446.13672 607.10938 C 448.1009 607.10938 449.70703 605.59652 449.70703 603.74805 C 449.70703 601.89994 448.1009 599.3955 446.13672 598.18164 C 445.64568 597.87817 445.17882 597.74477 444.75195 597.76367 z M 504.66992 601.71094 C 503.61055 601.76014 503.27734 602.74827 503.27734 604.69727 C 503.27734 607.33283 504.34679 610.56153 505.65625 611.87109 C 507.09161 613.30599 509.57662 614.05718 511.90625 614.16602 C 512.33474 614.22012 512.7625 614.25195 513.18164 614.25195 C 513.74973 614.25195 514.22251 614.24186 514.67188 614.22656 C 514.73328 614.23056 514.8067 614.25195 514.86523 614.25195 C 515.05824 614.25195 515.22247 614.22259 515.37109 614.17969 C 516.94923 614.05907 517.54503 613.7121 517.07227 612.75977 C 517.37643 612.41288 517.5625 612.0103 517.5625 611.53906 C 517.5625 610.04736 514.34828 606.81831 510.41992 604.36523 C 507.51494 602.55141 505.72928 601.66171 504.66992 601.71094 z M 436.16992 610.96484 C 436.00177 610.95231 435.82962 610.95685 435.6543 610.98047 C 434.48547 611.13789 433.19105 612.08664 432.22461 613.65039 C 430.67827 616.1524 427.95216 617.92553 426.16797 617.58984 C 422.55253 616.90838 420.14403 617.09898 419.13867 618.03906 C 418.83078 618.04206 418.57 618.08074 418.41602 618.20508 C 418.39582 618.22138 418.38479 618.24537 418.36719 618.26367 C 418.10632 618.27647 418.04745 618.38717 418.19922 618.60742 C 418.12212 619.09596 418.42285 619.88612 419.10156 620.98438 C 419.14586 621.05607 419.19587 621.12019 419.24219 621.18945 C 419.28199 621.25845 419.30983 621.32389 419.35352 621.39453 C 420.56745 623.3587 423.6797 624.96484 426.26953 624.96484 C 426.67634 624.96484 427.09458 624.91104 427.51953 624.82422 C 427.85462 624.90682 428.18402 624.96484 428.49219 624.96484 C 431.35734 624.96484 432.26793 624.16698 431.44336 623.05078 C 436.04496 619.96271 439.9092 613.9736 437.52539 611.58984 C 437.14042 611.20485 436.67439 611.00244 436.16992 610.96484 z M 717.44727 621.39453 C 717.50787 621.37093 717.54141 621.37289 717.55078 621.40039 C 717.55141 621.40114 717.55017 621.4033 717.55078 621.4043 C 717.59478 621.58785 716.34776 623.11123 714.44922 625.37305 C 714.19065 625.65618 713.9664 625.90936 713.68164 626.21484 C 712.05913 627.95527 709.72634 629.83403 707.01367 631.70703 C 706.90035 631.48252 706.83789 631.17433 706.83789 630.75977 C 706.83789 630.32433 707.86934 629.14469 709.36523 627.72461 C 710.41576 626.99601 711.39126 626.2797 712.1875 625.61133 C 715.27652 623.01835 717.01518 621.56314 717.44727 621.39453 z M 546.13281 632.10742 C 544.83328 632.10742 543.70105 632.81833 543.07617 633.86328 C 542.75654 634.23173 542.56055 634.7648 542.56055 635.46875 C 542.56055 635.50595 542.56931 635.53917 542.57031 635.57617 C 542.56931 635.61117 542.56055 635.64442 542.56055 635.67969 C 542.56055 637.64386 544.16864 639.25 546.13281 639.25 C 548.09699 639.25 549.70313 638.54216 549.70312 637.67578 C 549.70312 637.47659 549.6099 637.22857 549.45508 636.95703 C 549.6096 636.5586 549.70312 636.13099 549.70312 635.67969 C 549.70312 633.71551 548.09699 632.10742 546.13281 632.10742 z M 649.48633 642.82031 C 648.30392 642.82031 647.58552 643.35121 647.39062 644.16016 C 646.61361 644.77442 646.125 645.54467 646.125 646.39258 C 646.125 648.35675 647.63808 649.96289 649.48633 649.96289 C 649.93717 649.96289 650.42892 649.86446 650.92969 649.69141 C 651.22102 649.86433 651.48219 649.96289 651.69336 649.96289 C 652.18537 649.96289 652.6208 649.43494 652.91016 648.62695 C 653.75937 648.01255 654.52839 647.24097 655.05273 646.39258 C 656.26667 644.4284 654.75554 642.82031 651.69336 642.82031 C 651.23847 642.82031 650.80283 642.8668 650.37891 642.93359 C 650.0913 642.86689 649.79491 642.82031 649.48633 642.82031 z M 144.10547 653.86914 C 145.53038 653.87214 146.73172 653.9148 147.75195 654 C 149.88351 655.17193 151.46291 656.56646 152.27734 658.08398 C 152.19264 658.36973 152.0898 658.67165 151.9668 658.99219 C 151.2037 660.98075 150.55953 662.9723 150.1543 664.47461 C 149.53973 665.1701 148.82639 665.82778 148.00586 666.42773 C 147.86656 666.52958 147.75789 666.62693 147.62891 666.72656 C 147.05076 666.50485 146.3962 666.18373 145.69141 665.74805 C 143.26878 664.25098 142.24241 665.23609 143.12305 668.21484 C 143.30567 668.83264 144.19454 669.77108 145.60547 670.92578 C 146.71428 672.5209 149.88062 674.61046 155.71875 677.66602 C 160.97273 680.79311 167.38322 684.26852 174.28516 687.62695 C 203.77178 701.97542 207.30688 705.05179 212.03125 720.49414 C 212.27516 721.29138 212.46836 721.99924 212.625 722.64844 C 212.77977 723.61104 212.857 724.43387 212.80664 725.10742 L 212.80664 725.10938 C 212.79664 725.23713 212.76615 725.34249 212.74805 725.46094 C 212.70805 725.69908 212.66137 725.93224 212.58203 726.13477 C 212.55683 726.20397 212.5298 726.27071 212.5 726.33594 C 212.03375 727.29155 211.02912 727.8274 209.28906 728.13281 C 208.43004 728.18441 207.41752 728.17553 206.21289 728.11523 C 196.06839 727.60755 190.48352 726.33155 188.41016 723.77734 C 188.31946 722.84054 188.39748 721.73698 188.61133 720.42188 C 188.69013 719.93764 188.34686 719.5863 187.68945 719.37109 C 187.76265 719.08233 187.8399 718.79248 187.94727 718.48633 C 189.66914 713.57662 189.16999 713.28689 185.25 716.92383 C 184.06758 718.02104 182.83594 718.90755 181.61523 719.58398 C 181.12397 719.68198 180.6246 719.78575 180.10547 719.91602 C 179.61573 720.03895 179.18803 720.12056 178.74219 720.21484 C 177.89578 720.30034 176.99555 720.42081 175.97852 720.61523 C 175.8413 720.64143 175.72759 720.65353 175.59375 720.67773 C 174.47342 720.73243 173.58063 720.623 172.90039 720.33789 C 171.8187 719.57481 171.15234 718.32882 171.15234 716.57422 C 171.15234 711.11381 139.82022 699.96094 124.47852 699.96094 C 123.49947 699.96094 122.61849 699.93466 121.80469 699.88086 L 117.86719 699.05859 C 116.58345 698.42204 115.45335 697.43891 114.4668 696.08594 C 113.47285 694.29289 112.7909 691.72057 112.09766 688.02539 C 110.86619 681.46075 110.39153 671.41654 111.04297 665.70508 C 112.18441 655.69708 112.99067 655.28161 133.21875 654.23633 C 137.77174 654.00107 141.34215 653.86327 144.10547 653.86914 z M 654.26172 661.28125 C 654.75654 661.26035 655.11697 661.33575 655.30078 661.51953 C 656.03602 662.25484 651.86891 675.62493 646.03906 691.23047 C 632.23009 728.19445 632.2984 734.15883 646.57227 737.01367 C 652.20789 738.14096 660.05092 739.06871 664.87891 739.21484 C 667.71351 739.75681 670.09304 740.30375 672.10156 740.89648 C 679.64306 744.88092 686.28396 755.28183 684.80664 762.95312 C 683.8052 768.15283 681.43122 767.23757 670.10742 757.29492 C 667.87006 755.33052 665.8576 753.71085 664.04297 752.35938 C 657.76393 747.22663 654.65888 745.68762 654.99805 747.82031 C 653.09052 748.26896 654.443 752.11014 660.00391 759.17969 C 663.30987 763.38272 666.10587 768.33608 667.12109 771.54688 C 667.14509 771.68199 667.16695 771.81509 667.18945 771.94922 C 667.23025 772.21392 667.27487 772.4824 667.30859 772.74219 C 667.50274 775.5835 666.63266 777.5767 664.60547 778.26172 C 663.30134 778.51192 661.62389 778.20525 659.71289 777.4668 C 656.14309 775.70653 650.61387 771.90149 645.17578 767.40234 C 637.49949 760.22336 630.37597 750.71984 628.59375 742.67969 C 627.05326 735.73044 626.56469 716.71383 627.50781 700.42188 C 628.84992 677.23784 630.47514 670.41983 634.99414 669.04883 C 638.1697 668.08532 643.7386 665.69727 647.36719 663.74023 C 650.08862 662.27272 652.77727 661.34389 654.26172 661.28125 z M 382.23438 662.38477 C 387.30692 662.45337 394.91782 668.29951 400.0625 675.70898 C 402.96818 681.02471 405.1531 687.35717 405.90625 694.03906 C 405.92205 694.17931 405.93217 694.30859 405.94727 694.44727 C 406.03287 702.67277 403.91029 711.16843 400.55859 717.62109 C 400.20444 718.12957 399.83876 718.63281 399.45312 719.12305 C 396.01497 723.49372 391.39293 727.18202 388.26367 728.22656 C 387.82597 728.33023 387.40351 728.40794 386.99414 728.45703 C 386.99314 728.45718 386.99123 728.45687 386.99023 728.45703 C 385.53461 728.10361 385.98464 726.5444 388.2832 724.24609 C 391.45109 721.07846 392.79416 719.03717 391.3125 717.77734 C 391.85743 716.90782 392.08499 716.28087 391.84766 716.08398 C 391.65947 715.92774 390.02309 715.89616 387.51172 715.94922 C 387.3921 715.88242 387.26694 715.8291 387.13672 715.79102 C 386.82318 715.41652 386.54641 715.39079 386.32227 715.73438 C 386.06327 715.77217 385.79064 715.86371 385.51172 716.00195 C 384.56879 716.03365 383.58481 716.06932 382.47266 716.11914 C 378.15263 715.94315 372.24747 715.99948 364.32227 716.19922 C 338.67286 716.8456 334.57852 717.98607 319.79102 728.60547 C 316.83514 730.7283 314.37408 732.4231 312.25 733.77148 C 308.01427 735.90961 304.29622 737.34549 301.97852 737.6875 C 301.83488 737.6686 301.68902 737.65605 301.54883 737.62695 C 301.45383 737.60485 301.3579 737.58129 301.26367 737.55469 C 301.10907 737.51449 300.95617 737.46854 300.80469 737.41602 C 300.59547 737.34002 300.38821 737.25411 300.17969 737.15625 C 300.12069 737.12865 300.06073 737.10167 300.00195 737.07227 C 299.81066 736.97697 299.6168 736.86503 299.42383 736.75195 C 298.96456 736.47255 298.50638 736.1515 298.03906 735.76367 C 297.27241 735.12719 296.62806 734.64857 296.04102 734.24805 C 292.90814 731.78151 292.05179 731.57677 292.73633 734.0293 C 292.62614 734.38787 292.57617 734.86125 292.57617 735.44727 C 292.57617 737.76893 291.07846 738.74163 289.25 737.61133 C 288.72783 737.28864 288.14971 737.13134 287.5625 737.0957 C 286.61517 736.70896 285.99534 736.82807 285.68164 737.44531 C 284.89446 737.79482 284.18314 738.37916 283.68359 739.1875 L 283.68359 739.18945 C 283.36247 739.70889 283.08413 740.16016 282.81055 740.54688 C 277.36635 740.62267 272.78379 740.54961 268.69727 740.25391 C 267.02971 739.86668 265.19576 739.43559 263.05664 738.93164 C 262.72683 738.85394 262.37961 738.75547 262.04492 738.67188 C 258.88334 737.71264 255.4027 736.58958 251.50391 735.25781 C 249.36895 734.52851 247.3242 733.76058 245.32812 732.97461 C 237.16987 729.55937 229.32982 725.42246 223.87695 721.59375 C 220.84045 719.32566 218.41451 717.03273 216.74023 714.79102 C 214.57989 711.24139 215.28379 707.85634 219.17773 700.32617 C 220.7471 697.29134 222.69803 694.55638 224.84375 692.16992 C 225.55457 691.43559 226.27256 690.71249 227.00781 689.99805 C 227.46773 689.5555 227.92928 689.11682 228.39453 688.68555 C 238.08183 680.32585 249.59511 678.86125 249.71094 689.09961 L 249.70508 694.60547 L 249.71875 694.60547 L 249.71875 696.15625 L 249.71875 697.21875 L 249.71875 697.30664 L 249.71875 697.32031 L 249.71875 697.49805 L 267.94922 696.62305 L 273.94141 696.39258 L 276.37109 696.31055 C 281.50427 696.36375 287.26735 696.39062 294.58984 696.39062 C 332.50388 696.39062 342.3315 695.19423 357.97852 688.66602 C 361.33082 687.26735 364.24464 686.00788 366.83008 684.84375 C 376.3851 680.69516 380.98882 677.78064 381.51953 675.38086 C 381.68987 674.70366 381.52442 674.07445 381.04688 673.4668 C 381.63702 672.36866 381.16696 671.65245 379.49023 671.45703 C 379.06866 671.16037 378.51068 670.89307 377.83008 670.6543 C 377.16883 669.72262 376.90459 668.60189 377.04883 667.39844 C 377.05583 667.34684 377.05791 667.29803 377.06641 667.24609 C 377.06941 667.22879 377.07317 667.21076 377.07617 667.19336 C 377.10337 667.02962 377.13551 666.86418 377.17773 666.69727 C 377.35829 665.98419 377.68084 665.24351 378.13867 664.49219 C 379.07774 663.01305 380.50813 662.36143 382.23438 662.38477 z M 97.75 715.65234 C 98.006432 715.89177 98.289496 716.38327 98.595703 717.14844 C 99.507006 719.42585 99.510382 722.08838 98.681641 723.49805 C 98.064288 723.61339 97.437792 723.5756 96.84375 723.4043 C 96.526199 722.54332 96.364527 721.1238 96.439453 719.30469 C 96.503283 717.75498 96.661176 716.66892 96.892578 716.05859 C 97.12705 715.90969 97.364479 715.77369 97.603516 715.66016 C 97.652796 715.65616 97.700697 715.65434 97.75 715.65234 z "
     style="fill:#000000;stroke-width:3.57122707" />
</svg>
