<?xml version="1.0" encoding="UTF-8" standalone="no"?>
<svg
   xmlns:dc="http://purl.org/dc/elements/1.1/"
   xmlns:cc="http://creativecommons.org/ns#"
   xmlns:rdf="http://www.w3.org/1999/02/22-rdf-syntax-ns#"
   xmlns:svg="http://www.w3.org/2000/svg"
   xmlns="http://www.w3.org/2000/svg"
   viewBox="0 0 845.84662 724.37909"
   height="724.37909"
   width="845.84662"
   xml:space="preserve"
   id="svg1126"
   version="1.1"><title
     id="title867">Shark Jaws</title><metadata
     id="metadata1132"><rdf:RDF><cc:Work
         rdf:about=""><dc:format>image/svg+xml</dc:format><dc:type
           rdf:resource="http://purl.org/dc/dcmitype/StillImage" /><dc:title>Shark Jaws</dc:title><dc:source>https://publicdomainvectors.org/en/free-clipart/Shark-jaws/85060.html</dc:source><dc:date>2020-03-14</dc:date></cc:Work></rdf:RDF></metadata><defs
     id="defs1130"><clipPath
       id="clipPath1142"
       clipPathUnits="userSpaceOnUse"><path
         id="path1140"
         d="M 0,660 H 660 V 0 H 0 Z" /></clipPath></defs><g
     transform="matrix(1.3333333,0,0,-1.3333333,-17.594666,803.58575)"
     id="g1134"><path
       id="path1236"
       style="fill:#231f20;fill-opacity:1;fill-rule:evenodd;stroke:none"
       d="M 214.175,102.64 C 114.714,119.632 58.173921,155.46213 56.243315,195.60673 54.105505,240.05986 116.24681,246.5489 152.48581,263.4919 89.550694,262.32661 13.584693,237.87686 13.196,189.271 12.877481,149.44027 96.93,115.514 214.175,102.64 m 433.406,22.667 C 575.878,96.294 462.449,77.557 334.766,77.557 c -127.682,0 -241.11,18.737 -312.812,47.75 48.503,-38.554 170.26,-65.902 312.812,-65.902 142.554,0 264.309,27.348 312.815,65.902 M 527.354,242.646 c 42.821,-13.888 69.026,-32.502 69.026,-52.965 0,-42.956 -115.397,-77.778 -257.743,-77.778 -51.943,0 -100.288,4.64 -140.756,12.617 47.059,-15.261 114.188,-24.812 188.721,-24.812 142.344,0 257.74,34.821 257.74,77.777 0,27.282 -63.38739,56.77394 -133.82239,70.65794 M 426.155,450.214 l 14.229,-20.803 1.7,21.436 c 0.158,1.974 -1.193,3.732 -3.143,4.086 l -2.049,0.374 c -2.434,0.443 -4.868,0.743 -7.296,0.913 -1.505,0.106 -2.854,-0.613 -3.603,-1.924 -0.751,-1.31 -0.69,-2.835 0.162,-4.082 m -32.595,0.388 c -4.499,-1.559 -8.922,-3.355 -13.246,-5.289 -0.408,-0.183 -0.809,-0.371 -1.205,-0.565 -1.204,-0.591 -1.963,-1.661 -2.124,-2.991 -0.158,-1.332 0.325,-2.551 1.354,-3.411 l 23.837,-19.908 -3.541,28.997 c -0.145,1.193 -0.763,2.159 -1.781,2.796 -1.02,0.636 -2.161,0.765 -3.294,0.371 m 28.533,-28.101 -0.353,29.773 c -0.012,1.112 -0.444,2.066 -1.273,2.81 -0.827,0.746 -1.82,1.075 -2.928,0.972 -4.292,-0.401 -8.554,-1.143 -12.765,-2.15 -1.306,-0.313 -2.282,-1.192 -2.731,-2.457 -0.447,-1.265 -0.24,-2.562 0.577,-3.626 z m -59.242,-15.309 16.563,-5.014 -4.938,31.41 c -0.247,1.565 -1.349,2.763 -2.887,3.138 -1.54,0.376 -3.068,-0.18 -4.009,-1.455 -2.17,-2.951 -3.83,-6.342 -4.962,-10.16 -1.185,-3.986 -2.247,-7.986 -3.185,-11.998 -0.6,-2.571 0.891,-5.155 3.418,-5.921 m -2.277,-27.637 16.809,2.299 -12.23,16.432 c -1.234,1.656 -3.234,2.366 -5.238,1.859 -2.001,-0.507 -3.421,-2.084 -3.717,-4.13 -0.531,-3.682 -0.96,-7.376 -1.279,-11.077 -0.137,-1.566 0.395,-2.969 1.533,-4.051 1.138,-1.083 2.565,-1.545 4.122,-1.332 m 1.568,-31.265 10.769,5.519 -9.696,12.448 c -1.349,1.734 -3.563,2.376 -5.63,1.633 -2.068,-0.743 -3.368,-2.648 -3.307,-4.843 0.102,-3.57 0.304,-7.148 0.608,-10.732 0.145,-1.71 1.052,-3.114 2.553,-3.947 1.502,-0.833 3.175,-0.86 4.703,-0.078 m 2.787,-27.93 10.117,7.331 -8.753,7.087 c -1.679,1.361 -3.932,1.506 -5.77,0.368 -1.838,-1.136 -2.718,-3.212 -2.252,-5.325 0.571,-2.595 1.198,-5.18 1.875,-7.752 0.269,-1.012 0.958,-1.76 1.942,-2.114 0.985,-0.351 1.993,-0.207 2.841,0.405 m 7.522,-20.31 4.118,7.015 -7.863,5.292 c -1.109,0.747 -2.507,0.709 -3.572,-0.096 -1.068,-0.806 -1.486,-2.14 -1.071,-3.41 0.906,-2.772 1.856,-5.534 2.837,-8.28 0.413,-1.153 1.393,-1.911 2.611,-2.027 1.216,-0.114 2.321,0.452 2.94,1.506 m 104.537,-46.154 c 0.169,-2.158 1.415,-3.922 3.389,-4.808 1.977,-0.887 4.123,-0.638 5.846,0.671 0.895,0.68 1.684,1.389 2.345,2.13 1.295,1.449 1.847,3.196 1.619,5.127 -0.231,1.929 -1.178,3.502 -2.778,4.604 l -11.662,8.049 z m -24.425,-8.725 c -0.499,-1.612 -0.134,-3.242 1.005,-4.485 1.142,-1.244 2.733,-1.749 4.381,-1.39 2.825,0.612 5.898,1.35 8.989,2.21 2.131,0.594 3.647,2.215 4.097,4.379 0.452,2.166 -0.293,4.257 -2.01,5.65 l -11.569,9.395 z m -22.871,-1.515 c -1.023,-1.412 -1.174,-3.15 -0.412,-4.718 0.762,-1.569 2.222,-2.523 3.964,-2.593 2.678,-0.109 5.389,-0.052 8.119,0.175 1.698,0.14 3.084,1.108 3.802,2.651 0.717,1.545 0.564,3.226 -0.421,4.615 l -7.407,10.436 z m -12.679,15.444 -10.14,-10.318 c -0.895,-0.913 -1.265,-2.095 -1.045,-3.354 0.221,-1.261 0.967,-2.247 2.118,-2.803 2.644,-1.272 5.378,-2.364 8.188,-3.266 1.709,-0.548 3.466,-0.108 4.718,1.18 1.25,1.288 1.638,3.057 1.039,4.75 z m -29.782,6.77 c -1.062,-0.547 -1.754,-1.454 -2.002,-2.624 -0.246,-1.172 0.022,-2.279 0.771,-3.21 2.584,-3.198 5.442,-6.111 8.53,-8.717 1.215,-1.025 2.838,-1.207 4.248,-0.474 1.41,0.729 2.2,2.158 2.063,3.741 l -1.511,17.521 z m 104.286,18.345 -6.688,1.991 -0.683,-7.22 c -0.823,-4.07 2.28,-7.921 6.474,-7.921 3.649,0 6.606,2.956 6.606,6.606 0,3.35 -2.491,6.106 -5.709,6.544 m -11.068,18.49 -5.798,1.726 -0.592,-6.261 c -0.713,-3.53 1.976,-6.867 5.613,-6.867 3.163,0 5.728,2.563 5.728,5.725 0,2.908 -2.161,5.297 -4.951,5.677 m -10.16,17.478 -5.801,1.726 -0.592,-6.262 c -0.712,-3.529 1.977,-6.868 5.616,-6.868 3.162,0 5.726,2.565 5.726,5.727 0,2.907 -2.161,5.298 -4.949,5.677 m -8.762,14.749 -4.514,1.344 -0.462,-4.875 c -0.555,-2.747 1.54,-5.346 4.372,-5.346 2.462,0 4.46,1.996 4.46,4.46 0,2.261 -1.685,4.123 -3.856,4.417 m -7.172,13.945 -2.941,-0.152 -1.195,-2.782 c -0.462,-2.283 1.279,-4.442 3.633,-4.442 2.046,0 3.707,1.658 3.707,3.705 0,1.88 -1.4,3.426 -3.204,3.671 m -5.286,13.617 -3.139,0.101 -0.994,-3.034 c -0.463,-2.283 1.278,-4.444 3.63,-4.444 2.048,0 3.706,1.66 3.706,3.705 0,1.881 -1.398,3.428 -3.203,3.672 m -7.788,7.078 2.729,-1.563 2.298,2.216 c 1.477,1.801 0.954,4.524 -1.125,5.628 -1.81,0.959 -4.052,0.27 -5.01,-1.538 -0.882,-1.661 -0.372,-3.682 1.108,-4.743 m -2.214,15.158 1.677,-2.418 2.992,0.444 c 2.186,0.808 3.107,3.425 1.869,5.427 -1.075,1.741 -3.359,2.279 -5.099,1.203 -1.6,-0.99 -2.18,-2.991 -1.439,-4.656 m -2.979,13.192 2.174,-4.18 3.825,3.059 c 2.36,1.512 2.771,4.824 0.804,6.86 -1.713,1.769 -4.537,1.816 -6.307,0.103 -1.624,-1.572 -1.794,-4.076 -0.496,-5.842 m -0.625,16.914 1.283,-4.533 4.363,2.222 c 2.618,1.003 3.691,4.164 2.173,6.556 -1.32,2.079 -4.074,2.695 -6.153,1.376 -1.911,-1.211 -2.582,-3.629 -1.666,-5.621 m -47.715,-129.721 -9.281,-1.075 c -1.235,-0.142 -2.235,-0.791 -2.867,-1.863 -0.634,-1.069 -0.719,-2.261 -0.249,-3.41 0.314,-0.765 0.627,-1.53 0.939,-2.291 0.523,-1.273 1.081,-2.521 1.673,-3.742 0.725,-1.499 2.25,-2.336 3.905,-2.142 1.653,0.191 2.945,1.356 3.308,2.981 z M 264.214,389.358 c -9.373,0 -18.362,-10.638 -20.076,-23.76 -1.713,-13.125 4.496,-23.764 13.871,-23.764 9.374,0 18.362,10.639 20.076,23.764 0.557,4.275 0.273,8.285 -0.685,11.752 -1.305,-5.599 -5.308,-9.901 -9.466,-9.901 -4.56,0 -7.58,5.176 -6.748,11.561 0.565,4.33 2.758,8.103 5.534,10.083 -0.806,0.175 -1.642,0.265 -2.506,0.265 m 182.551,72.393 c -0.927,20.645 -8.738,45.573 -20.844,62.722 -11.532,16.334 -27.551,29.543 -41.57,43.856 -4.649,4.744 -10.498,7.017 -17.131,6.655 -6.63,-0.362 -12.2,-3.256 -16.304,-8.477 -20.849,-26.54 -43.455,-94.074 -57.738,-181.685 -3.16,12.835 -11.641,21.586 -22.726,21.586 -15.94,0 -31.223,-18.089 -34.137,-40.405 -2.913,-22.315 7.646,-40.405 23.585,-40.405 10.696,0 21.097,8.146 27.662,20.248 -5.395,-42.925 -10.613,-102.347 -10.167,-153.157 0.238,-27.067 21.855,-49.101 48.911,-49.855 3.653,-0.102 7.305,-0.174 10.954,-0.215 35.864,-0.4 76.757,1.811 111.549,10.903 12.255,3.201 48.197,14.019 49.141,30.298 0.571,9.851 3.102,19.843 4.324,29.626 6.912,28.035 5.091,43.064 0.867,55.528 -2.92,-27.144 -22.752,-34.305 -55.275,-39.524 -33.668,-5.399 -65.662,12.528 -78.634,44.061 -9.394,22.838 -18.073,45.838 -21.122,70.137 -3.501,27.904 -1.095,55.791 7.185,83.68 3.434,11.57 10.969,20.17 21.986,25.096 20.383,9.116 49.1,13.039 69.484,9.327 M 169.988,178.866 c 3.235,21.729 6.824,43.027 10.816,63.853 -11.103,-15.053 -19.787,-32.366 -23.413,-54.399 -49.079,-3.678 -50.70652,5.574 -51.00952,26.827 23.205,32.01 33.53452,52.818 80.28352,56.416 28.439,132.385 74.79,244.16 151.968,324.391 7.887,8.197 20.623,9.014 29.492,1.891 25.157,-20.201 39.665,-37.718 62.888,-69.957 32.801,-47.241 9.231,-112.531 24.169,-162.222 11.961,-39.794 39.304,-55.118 51.944,-94.704 9.007,-28.203 0.07,-59.248 -1.645,-88.806 -4.329,-74.605 -343.854,-59.456 -335.493,-3.29" /></g></svg>