<?xml version="1.0" encoding="UTF-8" standalone="no"?>
<svg
   xmlns:dc="http://purl.org/dc/elements/1.1/"
   xmlns:cc="http://creativecommons.org/ns#"
   xmlns:rdf="http://www.w3.org/1999/02/22-rdf-syntax-ns#"
   xmlns:svg="http://www.w3.org/2000/svg"
   xmlns="http://www.w3.org/2000/svg"
   version="1.1"
   id="svg1126"
   xml:space="preserve"
   width="845.84662"
   height="724.37909"
   viewBox="0 0 845.84662 724.37909"><title
     id="title867">Shark Jaws</title><metadata
     id="metadata1132"><rdf:RDF><cc:Work
         rdf:about=""><dc:format>image/svg+xml</dc:format><dc:type
           rdf:resource="http://purl.org/dc/dcmitype/StillImage" /><dc:title>Shark Jaws</dc:title><dc:source>https://publicdomainvectors.org/en/free-clipart/Shark-jaws/85060.html</dc:source><dc:date>2020-03-14</dc:date></cc:Work></rdf:RDF></metadata><defs
     id="defs1130"><clipPath
       clipPathUnits="userSpaceOnUse"
       id="clipPath1142"><path
         d="M 0,660 H 660 V 0 H 0 Z"
         id="path1140" /></clipPath></defs><path
     id="path1236"
     d="M 454.4082,0.00585938 C 446.91462,0.14589908 439.50264,3.1742605 433.91602,8.9804688 331.01202,115.95513 269.21163,264.98862 231.29297,441.50195 c -25.31214,1.00891 -40.65308,6.80902 -50.85938,12.88672 C 97.757984,457.28171 -0.30817552,486.62773 -0.81389836,549.86811 -1.2385903,602.97575 111.64599,649.56709 267.97266,666.73242 135.35799,644.07642 59.970626,596.30348 57.396484,542.77734 54.817955,489.15999 123.06438,478.54519 171.87695,460.28516 h 0.0137 c -18.25393,13.1305 -30.22981,32.41756 -47.64257,56.4375 0.404,28.33733 2.57305,40.67353 68.01172,35.76953 4.83466,-29.37734 16.41279,-52.46059 31.21679,-72.53125 -5.32266,27.768 -10.10659,56.16472 -14.41992,85.13672 -11.148,74.88799 441.55222,95.08661 447.32422,-4.38672 1.67886,-28.93508 8.53597,-58.9364 7.31641,-87.72461 l 1.32812,0.37109 20.51953,6.70117 c 57.09467,18.51734 92.03322,43.33515 92.0332,70.61914 0,57.27467 -153.86159,103.70313 -343.65624,103.70313 -69.25735,0 -133.71845,-6.18627 -187.67579,-16.82227 62.74534,20.348 152.25158,33.08399 251.62891,33.08399 189.792,0 348.53573,-48.53103 348.53573,-105.8057 -4.3079,-63.3768 -132.41091,-79.24204 -182.73885,-93.3294 -0.46929,-10.24051 -1.95961,-19.37877 -5.09766,-29.20475 C 641.72089,389.5214 605.26245,369.08992 589.31445,316.03125 569.39712,249.77658 600.82451,162.72237 557.08984,99.734375 526.12584,56.749043 506.78095,33.39365 473.23828,6.4589844 467.69516,2.0071095 461.02019,-0.11770509 454.4082,0.00585938 Z M 473.67773,36.890625 c 8.16672,-0.04158 15.38407,2.993828 21.19532,8.923828 18.692,19.084 40.05173,36.695946 55.42773,58.474607 16.14133,22.86534 26.55502,56.10224 27.79102,83.62891 -27.17867,-4.94933 -65.4672,0.28088 -92.64453,12.43555 -14.68934,6.568 -24.73579,18.03427 -29.31446,33.46093 -11.04,37.18534 -14.24808,74.36889 -9.58008,111.57422 4.06534,32.39867 15.63678,63.06496 28.16211,93.51563 17.296,42.044 59.95504,65.94671 104.84571,58.74804 43.364,-6.95866 69.80588,-16.50719 73.69922,-52.69922 5.632,16.61868 8.05975,36.65712 -1.15625,74.03711 -1.62934,13.044 -5.0043,26.36729 -5.76563,39.50196 -1.25867,21.70533 -49.18148,36.13045 -65.52148,40.39843 -46.38934,12.12268 -100.91181,15.07045 -148.73047,14.53711 -4.86534,-0.0547 -9.7348,-0.15109 -14.60547,-0.28711 -36.07467,-1.00531 -64.8975,-30.38332 -65.21485,-66.47265 -0.59465,-67.74667 6.36331,-146.97761 13.55665,-204.21094 -8.75334,16.136 -22.62148,26.99805 -36.88282,26.99805 -21.252,0 -35.33126,-24.11972 -31.44726,-53.87305 3.88533,-29.75466 24.26229,-53.87305 45.51562,-53.87305 14.78,0 26.08745,11.66792 30.30078,28.78125 19.044,-116.81466 49.18571,-206.861378 76.98438,-242.248042 5.472,-6.961335 12.89828,-10.818115 21.73828,-11.300782 0.55275,-0.03017 1.10204,-0.04801 1.64648,-0.05078 z m 80.78125,158.400395 c 0.24318,-0.0161 0.48941,-0.0157 0.74024,0.002 3.23733,0.22667 6.48318,0.62613 9.72851,1.2168 l 2.73243,0.49804 c 2.6,0.472 4.40207,2.81722 4.1914,5.44922 l -2.26758,28.58008 -18.97265,-27.73633 c -1.136,-1.66267 -1.21618,-3.69669 -0.21485,-5.44336 0.87384,-1.5295 2.36026,-2.45369 4.0625,-2.5664 z m -14.78906,0.19531 c 1.2582,0.006 2.39259,0.44998 3.35742,1.32031 1.10534,0.992 1.68127,2.26538 1.69727,3.74805 l 0.4707,39.69726 -25.96289,-33.76367 c -1.08933,-1.41867 -1.36553,-3.14732 -0.76953,-4.83398 0.59867,-1.68667 1.89929,-2.86001 3.64063,-3.27735 5.61466,-1.34266 11.29686,-2.33056 17.01953,-2.86523 0.18466,-0.0172 0.36713,-0.0262 0.54687,-0.0254 z m -30.82226,6.99805 c 0.93405,-0.003 1.84726,0.26296 2.69726,0.79296 1.35734,0.84934 2.17972,2.13785 2.37305,3.72852 l 4.72265,38.66211 -31.7832,-26.54297 c -1.372,-1.14667 -2.01535,-2.77283 -1.80469,-4.54883 0.21467,-1.77333 1.2267,-3.20028 2.83204,-3.98828 0.528,-0.25867 1.06146,-0.50795 1.60546,-0.75195 5.76534,-2.57867 11.66345,-4.97407 17.66211,-7.05274 0.5665,-0.197 1.13489,-0.29684 1.69532,-0.29882 z m -32.51563,18.65234 c 0.49936,-0.0256 1.01206,0.0231 1.52539,0.14844 2.05067,0.5 3.52028,2.09692 3.84961,4.18359 l 6.58399,41.87891 -22.08399,-6.6836 c -3.36933,-1.02133 -5.35859,-4.46848 -4.55859,-7.89648 1.25066,-5.34934 2.66804,-10.68143 4.24804,-15.9961 1.50934,-5.09066 3.72191,-9.6122 6.61524,-13.54687 0.941,-1.275 2.32225,-2.0112 3.82031,-2.08789 z m 92.26172,20.91601 c 1.90723,0.0549 3.75352,1.02532 4.85352,2.75782 2.024,3.18933 0.59418,7.40485 -2.89649,8.74218 l -5.81836,2.96289 -1.70898,-6.04492 c -1.22134,-2.656 -0.3273,-5.87947 2.2207,-7.49414 1.0395,-0.6595 2.20527,-0.95676 3.34961,-0.92383 z m 0.15625,21.50782 c 1.52183,0.025 3.03378,0.63121 4.17578,1.81054 2.62267,2.71467 2.07636,7.13049 -1.07031,9.14649 l -5.10156,4.07812 -2.89844,-5.57226 c -1.73067,-2.35467 -1.50323,-5.69309 0.66211,-7.78906 1.18,-1.14203 2.71059,-1.69883 4.23242,-1.67383 z m -104.4707,6.29101 c 1.95437,0.0846 3.76209,1.02955 4.99609,2.68555 l 16.30664,21.91016 -22.41211,3.06445 c -2.076,0.284 -3.97876,-0.33139 -5.49609,-1.77539 -1.51734,-1.44267 -2.22564,-3.31239 -2.04297,-5.40039 0.42533,-4.93467 0.99708,-9.8602 1.70508,-14.76953 0.39466,-2.728 2.28708,-4.83182 4.95508,-5.50782 0.668,-0.169 1.33682,-0.23521 1.98828,-0.20703 z m 108.25976,13.81836 c 1.58457,0.0639 3.11003,0.88706 4.00586,2.33789 1.65067,2.66934 0.42248,6.159 -2.49219,7.23633 l -3.98828,0.5918 -2.23633,-3.22266 c -0.98797,-2.22 -0.21536,-4.88898 1.91797,-6.20898 0.87,-0.538 1.84223,-0.77273 2.79297,-0.73438 z m -237.84765,0.77149 c -12.49734,0 -24.48421,14.18368 -26.76953,31.67968 -2.28402,17.5 5.99609,31.68555 18.49609,31.68555 12.49867,0 24.48224,-14.18555 26.76758,-31.68555 0.74266,-5.7 0.36327,-11.04527 -0.91407,-15.66797 -1.74,7.46536 -7.07709,13.20118 -12.62109,13.20118 -6.08,0 -10.10543,-6.90269 -8.99609,-15.41602 0.75333,-5.77333 3.67562,-10.80336 7.37695,-13.44336 -1.07467,-0.23333 -2.18784,-0.35351 -3.33984,-0.35351 z m 238.6914,17.43945 c 0.23801,-0.014 0.47696,-0.0114 0.7168,0.01 0.63958,0.056 1.27948,0.23893 1.88281,0.5586 2.772,1.472 3.46934,5.10258 1.5,7.5039 l -3.06445,2.95313 -3.63867,-2.08398 c -1.97334,-1.41467 -2.65257,-4.1076 -1.47657,-6.32227 0.83825,-1.582 2.41405,-2.52145 4.08008,-2.61914 z m -112.11523,10.78125 c 2.07725,-0.0688 4.07483,0.84608 5.42383,2.58008 l 12.92773,16.59765 -14.35742,7.35938 c -2.03733,1.04267 -4.26882,1.00715 -6.27149,-0.10352 -2.00133,-1.11066 -3.21096,-2.98367 -3.40429,-5.26367 -0.40534,-4.77867 -0.67455,-9.54859 -0.81055,-14.30859 -0.0813,-2.92667 1.65282,-5.46637 4.41016,-6.45703 0.689,-0.24767 1.38961,-0.38136 2.08203,-0.4043 z m 115.71094,7.46289 4.18554,0.13477 c 2.40667,0.32533 4.27149,2.38848 4.27149,4.89648 0,2.72667 -2.21074,4.93945 -4.94141,4.93945 -3.136,0 -5.45913,-2.87985 -4.8418,-5.92382 z m 11.23437,18.29102 c 2.40533,0.32666 4.27147,2.38786 4.27149,4.89453 -10e-6,2.72933 -2.21536,4.9414 -4.94336,4.9414 -3.13867,0 -5.45975,-2.87981 -4.84375,-5.92383 l 1.59375,-3.70898 z m 3.54297,16.80078 6.01953,1.79297 c 2.89467,0.392 5.14063,2.874 5.14063,5.88867 0,3.28533 -2.6646,5.94726 -5.94727,5.94726 -3.776,0 -6.5681,-3.46624 -5.82813,-7.1289 z m -124.72656,0.5039 c 1.33716,0.0855 2.64822,0.58681 3.76758,1.49414 l 11.66992,9.44922 -13.49024,9.77539 c -1.13066,0.816 -2.47377,1.00707 -3.78711,0.53907 -1.312,-0.472 -2.23117,-1.46903 -2.58984,-2.81836 -0.90267,-3.42934 -1.73867,-6.87594 -2.5,-10.33594 -0.62133,-2.81733 0.55324,-5.58494 3.00391,-7.09961 1.22533,-0.75867 2.58861,-1.08941 3.92578,-1.00391 z m 134.69336,18.65235 7.73437,2.30273 c 3.71733,0.50533 6.59961,3.69236 6.59961,7.56836 0,4.216 -3.41877,7.63672 -7.63476,7.63672 -4.85201,0 -8.43762,-4.45287 -7.48829,-9.1582 z m -130.11328,12.02539 c 0.82832,-0.0223 1.66496,0.21291 2.40429,0.71094 l 10.48438,7.05664 -5.49219,9.35351 c -0.82533,1.40533 -2.29859,2.15981 -3.91992,2.00781 -1.624,-0.15466 -2.9298,-1.16579 -3.48047,-2.70312 -1.308,-3.66133 -2.5752,-7.34306 -3.7832,-11.03906 -0.55334,-1.69334 0.004,-3.47221 1.42773,-4.54688 0.71,-0.53667 1.53101,-0.81751 2.35938,-0.83984 z m 143.66406,11.27929 7.73047,2.30079 c 3.72,0.50666 6.60156,3.69297 6.60156,7.57031 0,4.216 -3.41939,7.63281 -7.63672,7.63281 -4.84933,0 -8.43505,-4.44958 -7.48437,-9.15625 z m 13.57031,24.30079 8.91797,2.65429 c 4.29067,0.584 7.61133,4.25795 7.61133,8.72461 0,4.86667 -3.94326,8.8086 -8.8086,8.8086 -5.592,0 -9.72819,-5.13584 -8.63086,-10.5625 z m -129.44141,1.45312 -3.42968,15.39063 c -0.484,2.16666 -2.20616,3.71991 -4.41016,3.97461 -2.20667,0.25866 -4.24036,-0.85876 -5.20703,-2.85743 -0.78933,-1.628 -1.53314,-3.29094 -2.23047,-4.98828 -0.416,-1.01466 -0.83329,-2.03469 -1.25195,-3.05469 -0.62667,-1.532 -0.51331,-3.12154 0.33203,-4.54687 0.84266,-1.42933 2.1756,-2.29504 3.82226,-2.48438 z m 15.44336,17.3457 2.01368,23.36133 c 0.18266,2.11067 -0.87002,4.01433 -2.75,4.98633 -1.88001,0.97733 -4.04407,0.73581 -5.66407,-0.63086 -4.11733,-3.47467 -7.92771,-7.35905 -11.37304,-11.62305 -0.99867,-1.24133 -1.35535,-2.71663 -1.02735,-4.27929 0.33067,-1.56 1.25197,-2.77067 2.66797,-3.5 z m 101.88868,3.25 15.54882,10.73243 c 2.13334,1.46933 3.39708,3.56667 3.70508,6.13867 0.304,2.57466 -0.43154,4.90391 -2.1582,6.83594 -0.88134,0.98799 -1.93359,1.93317 -3.12696,2.83984 -2.29732,1.74533 -5.15892,2.0772 -7.79492,0.89453 -2.632,-1.18133 -4.29419,-3.53282 -4.51953,-6.41016 z m -24.38868,11.65235 15.42578,12.52539 c 2.28934,1.85733 3.28236,4.6452 2.67969,7.5332 -0.6,2.88533 -2.6196,5.04787 -5.46094,5.83984 -4.12133,1.14669 -8.21966,2.13127 -11.98632,2.94727 -2.19734,0.47867 -4.31913,-0.19486 -5.8418,-1.85351 -1.51867,-1.65736 -2.00518,-3.83114 -1.33984,-5.98047 z m -53.92382,2.43945 6.5039,18.41406 c 0.79867,2.25734 0.2819,4.61665 -1.38476,6.33399 -1.66934,1.71733 -4.01235,2.30293 -6.29102,1.57226 -3.74667,-1.20266 -7.39068,-2.65751 -10.91602,-4.35351 -1.53466,-0.74134 -2.52955,-2.05695 -2.82421,-3.73828 -0.29334,-1.67867 0.19924,-3.25337 1.39257,-4.47071 z m 27.0996,6.50391 9.875,13.91406 c 1.31334,1.852 1.5185,4.0943 0.5625,6.1543 -0.95733,2.05733 -2.80631,3.34849 -5.07031,3.53515 -3.64,0.30267 -7.25355,0.37776 -10.82422,0.23242 -2.32266,-0.0933 -4.26915,-1.36503 -5.28515,-3.45703 -1.016,-2.09066 -0.81516,-4.40835 0.54882,-6.29101 z M 11.677734,636.50977 c 64.670665,51.40533 227.012706,87.86914 417.082036,87.86914 190.07199,0 352.41127,-36.46381 417.08593,-87.86914 -95.60399,38.68399 -246.84194,63.66601 -417.08593,63.66601 -170.24267,0 -321.47937,-24.98202 -417.082036,-63.66601 z"
     style="fill:#231f20;fill-opacity:1;fill-rule:evenodd;stroke:none;stroke-width:1.33333325" /></svg>