<?xml version="1.0" encoding="UTF-8" standalone="no"?>
<svg
   xmlns:dc="http://purl.org/dc/elements/1.1/"
   xmlns:cc="http://creativecommons.org/ns#"
   xmlns:rdf="http://www.w3.org/1999/02/22-rdf-syntax-ns#"
   xmlns:svg="http://www.w3.org/2000/svg"
   xmlns="http://www.w3.org/2000/svg"
   xmlns:sodipodi="http://sodipodi.sourceforge.net/DTD/sodipodi-0.dtd"
   xmlns:inkscape="http://www.inkscape.org/namespaces/inkscape"
   id="svg1529"
   version="1.1"
   viewBox="0 0 210 297"
   height="297mm"
   width="210mm"
   sodipodi:docname="snowman.svg"
   inkscape:version="0.92.4 (5da689c313, 2019-01-14)">
  <sodipodi:namedview
     pagecolor="#ffffff"
     bordercolor="#666666"
     borderopacity="1"
     objecttolerance="10"
     gridtolerance="10"
     guidetolerance="10"
     inkscape:pageopacity="0"
     inkscape:pageshadow="2"
     inkscape:window-width="3840"
     inkscape:window-height="2004"
     id="namedview8"
     showgrid="false"
     inkscape:zoom="0.84096521"
     inkscape:cx="224.32815"
     inkscape:cy="595.86208"
     inkscape:window-x="-16"
     inkscape:window-y="-16"
     inkscape:window-maximized="1"
     inkscape:current-layer="svg1529" />
  <title
     id="title2135">Snowman</title>
  <defs
     id="defs1523" />
  <metadata
     id="metadata1526">
    <rdf:RDF>
      <cc:Work
         rdf:about="">
        <dc:format>image/svg+xml</dc:format>
        <dc:type
           rdf:resource="http://purl.org/dc/dcmitype/StillImage" />
        <dc:title>Snowman</dc:title>
        <dc:date>2020-04-21</dc:date>
        <dc:creator>
          <cc:Agent>
            <dc:title>SuperColoring</dc:title>
          </cc:Agent>
        </dc:creator>
        <dc:source>http://www.supercoloring.com/coloring-pages/snowman</dc:source>
        <dc:subject>
          <rdf:Bag>
            <rdf:li>csk</rdf:li>
            <rdf:li>acb</rdf:li>
            <rdf:li>snow</rdf:li>
          </rdf:Bag>
        </dc:subject>
        <cc:license
           rdf:resource="http://creativecommons.org/licenses/by-sa/4.0/" />
      </cc:Work>
      <cc:License
         rdf:about="http://creativecommons.org/licenses/by-sa/4.0/">
        <cc:permits
           rdf:resource="http://creativecommons.org/ns#Reproduction" />
        <cc:permits
           rdf:resource="http://creativecommons.org/ns#Distribution" />
        <cc:requires
           rdf:resource="http://creativecommons.org/ns#Notice" />
        <cc:requires
           rdf:resource="http://creativecommons.org/ns#Attribution" />
        <cc:permits
           rdf:resource="http://creativecommons.org/ns#DerivativeWorks" />
        <cc:requires
           rdf:resource="http://creativecommons.org/ns#ShareAlike" />
      </cc:License>
    </rdf:RDF>
  </metadata>
  <path
     style="opacity:1;fill:#000000;stroke-width:2.27598858"
     d="M 354.46289 83.445312 C 331.62105 83.736109 306.99034 89.336915 290.79688 106.56836 C 284.24867 113.89004 278.08346 122.28806 275.90234 132.02539 C 274.97356 143.11028 277.43096 154.18497 277.48047 165.2793 C 278.72706 167.60978 277.51526 169.06703 278.22266 173.69141 C 280.57426 206.48605 282.77415 239.29253 285.03125 272.09375 C 276.28056 287.68918 267.35486 303.73642 264.62695 321.70703 C 262.6681 331.57562 262.76726 341.77955 263.01953 351.83984 C 263.41641 368.47556 268.0931 384.87454 275.32617 399.79688 C 282.42098 414.6144 293.41003 427.03854 305.21289 438.27148 C 309.6897 440.73249 306.36267 442.52704 303.24414 444.32617 C 280.53347 458.50129 261.29887 478.05151 247.12891 500.73242 C 244.37983 502.77042 240.76298 499.09746 238.06445 497.9707 C 228.83893 492.64716 217.83179 491.78489 207.40625 491.50781 C 195.55479 491.3264 183.32946 493.61706 173.32227 500.25977 C 173.37628 500.73527 170.38922 501.75527 168.87695 503.45508 C 164.33475 507.34391 159.75419 511.46198 156.04883 516.11133 C 154.70072 519.7577 151.61475 523.13258 150.35938 527.07617 C 144.35378 540.63916 147.02854 556.97272 155.90625 568.64844 C 156.23926 568.6371 158.95498 573.33053 161.125 575.27344 C 163.29605 577.21336 164.93846 581.01452 168.01953 581.2832 C 180.76878 592.09152 198.05805 596.04246 214.45898 594.43359 C 217.66545 594.74654 221.92481 593.11528 224.58984 594.42969 C 227.98223 602.70549 228.04085 611.95433 230.78516 620.4707 C 235.81088 639.0117 244.16989 656.58107 255.04492 672.38672 C 258.98596 676.11326 257.31143 679.03563 253.20898 681.60938 C 231.04569 700.57047 211.42107 722.7666 197.30273 748.39062 C 183.34615 773.56224 173.65627 801.50563 171.95312 830.38281 C 171.38595 835.08409 171.73496 840.07461 170.45703 844.41211 C 170.84163 855.07295 170.65352 865.73635 170.36719 876.4043 C 141.20783 877.38618 112.97824 885.53698 84.078125 888.63086 C 63.306318 890.90651 41.069347 889.1924 23.230469 877.29883 C 17.302628 873.76115 12.245042 868.73576 6.4960938 864.97656 C 5.9174745 865.06992 4.042351 863.07504 2.2402344 862.375 C -4.9438159 857.83768 -13.680469 857.85125 -21.744141 856.13867 C -23.626122 855.5886 -27.432255 857.25897 -25.429688 859.45703 C -20.38451 862.49743 -14.039936 860.42133 -8.609375 862.32617 C 2.5442035 864.9534 10.828413 873.62845 19.71875 880.26953 C 21.691554 882.17528 24.416819 882.57067 26.658203 884.28711 C 34.217912 888.74045 42.650613 891.26196 51.304688 892.47852 C 82.752488 896.99573 113.72879 887.2137 144.60938 883.18359 C 153.56499 883.0823 162.82051 882.06292 171.59375 883.66797 C 174.05926 886.16004 173.57132 890.58776 174.8125 893.84375 C 179.97208 916.75014 188.34782 939.02565 200.20508 959.31445 C 209.85371 975.83269 221.6007 991.04887 235.00977 1004.6836 C 236.99622 1007.7111 243.0817 1011.0237 237.47461 1013.5254 C 226.99666 1022.5266 214.9401 1032.7987 213.25391 1047.4258 C 212.54576 1053.7988 214.87158 1060.3805 218.65234 1065.0254 C 228.89104 1078.353 245.44307 1084.889 261.33203 1088.6855 C 271.87222 1090.745 282.75222 1090.6839 293.4375 1090.2441 C 300.44516 1088.8311 308.00901 1089.2629 315.08398 1087.5293 C 331.3245 1084.7569 347.96385 1081.1149 361.96484 1072.0352 C 372.4813 1068.4362 383.89534 1069.8083 394.9082 1069.2285 C 423.21025 1069.3071 451.65764 1064.9812 478.15039 1054.9414 C 482.87964 1052.7252 488.14843 1053.6989 492.39844 1056.459 C 505.82381 1062.2205 520.35387 1065.1265 534.80273 1066.8789 C 546.60643 1068.3818 558.62191 1068.183 570.40039 1067.4316 C 570.28285 1066.3035 573.78012 1066.4037 575.72461 1065.8496 C 586.50182 1063.6714 596.4604 1057.2712 602.02734 1047.6523 C 605.802 1041.4872 606.65298 1033.5061 603.44141 1026.8887 C 602.26541 1022.2735 598.07225 1019.0186 594.97852 1015.5977 C 587.02586 1008.1274 577.97964 1000.9056 568.63672 995.82422 C 573.71157 984.51916 582.85405 975.65624 589.00391 964.94922 C 606.29101 938.01687 616.12574 906.98049 620.96289 875.50391 C 621.37157 869.02946 625.08862 862.2157 631.94336 860.87695 C 652.44919 852.49929 674.29117 846.11049 696.69141 846.67383 C 710.16973 846.40057 723.7418 846.06796 736.97461 848.83008 C 758.31703 852.20746 780.71187 855.66358 801.90039 849.60156 C 807.94533 847.43559 814.19498 845.01719 819.31836 841.11914 C 820.80787 838.92962 817.52047 838.46045 816.0957 839.37109 C 807.43306 842.2977 799.27227 846.98025 789.95898 847.69727 C 768.64551 850.65274 747.48913 845.59267 726.40039 842.89844 C 695.79752 839.84757 664.34092 843.40358 635.76172 855.00586 C 631.72677 856.03665 627.21431 858.59545 623.46094 858.93164 C 620.17521 849.23454 622.42596 838.80952 620.85742 828.82227 C 616.123 782.76441 595.29534 738.78991 564.12305 704.73047 C 554.43823 693.59488 542.1668 685.23682 531.64648 674.99805 C 529.23235 672.93756 532.89158 670.04141 533.45117 667.76953 C 541.54805 654.08983 548.92679 639.82817 552.94141 624.35547 C 556.49 612.41953 557.94191 599.90843 559.7207 587.69727 C 560.73747 583.23391 559.92786 577.56107 563.5293 574.07812 C 568.22789 572.19214 573.35638 571.83564 578.00195 569.72266 C 592.12986 564.96812 605.39737 554.70798 609.55859 539.85742 C 610.7335 535.10924 612.02421 530.26587 612.18359 525.37305 C 611.24283 523.67551 610.93041 521.95326 610.69336 519.89062 C 609.84036 513.54801 607.24971 507.57427 603.37305 502.53125 C 600.0248 497.71836 595.18289 494.01326 590.70898 490.24609 C 588.60855 489.40847 588.73627 489.35271 587.0918 487.7793 C 575.09308 481.55831 561.00309 478.33914 547.57617 481.19922 C 541.79909 481.93914 536.35599 484.92501 530.70117 485.45898 C 524.42126 483.00626 520.96236 476.46217 515.9043 472.29883 C 504.92957 461.07337 493.05121 450.56337 479.41211 442.67969 C 477.95593 441.55327 474.82448 440.17997 477.33594 438.43164 C 486.63656 427.40419 497.18282 417.21121 504.01953 404.31641 C 512.74408 389.46332 517.56894 372.66459 519.48633 355.61328 C 520.15772 349.29367 527.90898 349.57072 532.46289 347.79297 C 543.98255 344.16443 555.99171 341.79936 567.15039 337.16211 C 569.36833 335.37816 565.43125 334.28723 564.09375 334.13477 C 551.0596 330.56845 537.30464 331.04997 524.24414 327.76953 C 517.30776 325.38914 517.47792 316.76034 515.25 311.00195 C 509.18941 289.80851 496.65495 270.9357 480.79492 255.8125 C 475.45634 249.96482 468.80671 245.09418 464.32812 238.58398 C 449.4358 197.32192 434.6182 156.03369 419.11719 115 C 417.04204 109.63841 415.36044 103.93148 413.04688 98.779297 C 406.7616 95.288178 400.86426 90.889194 393.82617 88.873047 C 381.22273 84.387579 367.75636 83.271677 354.46289 83.445312 z M 356.99219 88.542969 C 370.7206 88.75054 385.36375 87.321602 397.5 94.992188 C 402.84735 97.450256 407.67459 100.98848 410.29297 106.40625 C 417.74147 119.55257 421.49653 134.37443 427.14258 148.32227 C 438.20979 178.8778 449.58353 209.33357 459.95508 240.13281 C 449.01958 237.64298 438.23382 234.11411 426.91406 233.81641 C 422.81388 233.26377 418.08513 233.88013 414.33984 232.93555 C 408.34994 231.46336 401.76644 231.84768 395.6543 232.70117 C 392.14977 234.14059 387.38248 233.087 383.37305 233.73242 C 361.32585 235.06133 340.50344 243.50978 320.48438 252.24023 C 310.88577 256.6395 301.85656 262.22295 292.64453 267.27344 C 288.58338 269.9062 289.10303 264.97012 288.70703 262.1875 C 285.02573 222.56286 282.96334 182.80382 280.2207 143.10547 C 281.00606 133.54565 282.09318 123.51345 288.48828 115.85742 C 300.53296 99.148762 321.02612 89.977782 341.20312 88.744141 C 346.46351 88.561703 351.72927 88.555706 356.99219 88.542969 z M 405.50781 236.70508 C 423.5896 236.82149 442.00156 238.83969 458.99609 245.20508 C 476.79173 254.21698 489.89113 270.23493 500.29492 286.88867 C 507.56772 298.94564 512.85208 312.34884 513.77734 326.50977 C 512.62432 327.78916 508.51067 326.76852 506.38477 326.77344 C 479.34992 324.07427 452.16488 321.88319 424.97852 322.42969 C 416.87687 322.63794 411.50615 330.4823 408.97852 337.39453 C 407.37762 345.34591 411.0974 353.90267 418.12305 358.04102 C 427.09474 364.00088 438.52699 363.32608 448.83984 363.63086 C 468.34606 363.6456 487.57562 359.79881 506.41211 355.2207 C 509.0961 354.77077 511.91522 353.77433 514.56641 353.79688 C 515.94367 361.06654 513.06897 368.48359 511.49219 375.52539 C 501.60101 412.50685 472.40316 442.87437 437.13477 456.98633 C 419.80178 463.49116 401.06001 465.06496 382.68164 465.33984 C 361.34586 464.46258 340.6824 456.65427 322.63281 445.4375 C 289.14495 424.22687 266.6776 385.91957 266.63477 346.10156 C 266.16421 322.90732 272.98805 299.35272 286.18359 280.2793 C 296.07074 267.98891 311.26682 262.07452 324.87305 254.9668 C 350.02161 243.21073 377.74325 236.84339 405.50781 236.70508 z M 457.8125 288.1582 C 457.31194 288.12708 456.80849 288.1263 456.30664 288.16016 C 449.96395 288.16998 443.29049 295.20426 447.00195 301.41797 C 448.58153 304.46957 451.78206 306.62375 455.32227 305.87695 C 459.40945 305.39264 465.45476 305.1767 466.12695 299.9375 C 467.38429 296.0694 466.73479 290.5698 462.17773 289.2207 C 460.79579 288.62553 459.31417 288.25158 457.8125 288.1582 z M 370.59766 291.91992 C 364.81857 291.90518 360.54857 297.35826 360.83203 302.91992 C 360.47487 306.25381 362.39486 310.26302 366.25391 309.96875 C 370.56094 310.13626 376.50556 310.79969 379.02148 306.46094 C 381.71156 301.03278 379.20576 292.99128 372.67383 292.05469 C 371.98973 291.93238 371.2918 291.88995 370.59766 291.91992 z M 458.58008 292.99805 C 462.9374 293.44907 463.56923 300.81462 458.75391 301.45898 C 456.34964 302.06299 452.70077 302.63449 451.1543 300.36133 C 450.78579 296.45492 453.58995 292.84805 457.66016 293.00391 C 457.98325 292.96847 458.28959 292.96798 458.58008 292.99805 z M 370.27734 296.92773 C 375.35635 296.46062 378.06819 304.46561 372.6875 306.09375 C 368.8715 307.95913 363.41692 304.54526 365.35352 300.07227 C 365.79164 297.82062 368.18572 296.81466 370.27734 296.92773 z M 432.2793 326.88477 C 467.44413 327.41702 502.57428 330.12063 537.49609 334.11133 C 542.50378 334.86407 547.67021 335.26898 552.52539 336.85547 C 530.95442 344.41768 508.69024 350.053 486.51953 355.55469 C 467.04767 359.52078 446.82471 360.29947 427.13477 357.50781 C 419.95068 356.13504 414.30742 349.21618 412.76953 342.20508 C 412.05089 337.41384 416.17926 333.484 418.89844 329.99805 C 422.02997 325.71269 427.75033 327.40115 432.2793 326.88477 z M 473.82031 377.42188 C 473.49583 377.43612 473.17031 377.46687 472.84375 377.51367 C 468.92166 377.70129 464.393 379.37916 463.84766 383.83594 C 462.76739 388.17389 462.96984 394.91103 468.33594 396.11133 C 471.44963 397.54974 475.17082 396.13691 477.94141 394.59766 C 481.72513 393.45212 483.57764 389.16135 483.87305 385.55859 C 483.20644 380.58992 478.68762 377.20824 473.82031 377.42188 z M 474.32422 381.74414 C 478.53364 382.09531 479.82785 389.13847 475.07422 390.125 C 472.75068 390.61785 469.96041 391.36795 467.79297 390.49023 C 466.20296 386.21241 468.6774 381.75053 473.44531 381.76758 C 473.75093 381.72772 474.04359 381.72073 474.32422 381.74414 z M 383.16797 393.83789 C 376.28875 393.97242 370.29818 402.01769 374.09375 408.34766 C 375.75243 411.77161 379.57624 413.80555 383.32617 412.75 C 389.83512 413.38009 396.09938 406.5765 393.50977 400.20312 C 392.06402 396.34139 387.934 393.69378 383.83594 393.84961 C 383.61248 393.83716 383.38988 393.83355 383.16797 393.83789 z M 446.7832 396.57812 C 446.42391 396.5606 446.06444 396.57191 445.70508 396.61328 C 439.41356 396.66317 434.53467 403.35884 436.01367 409.39062 C 436.19698 414.96403 443.07855 416.56196 447.4043 414.68164 C 450.89594 414.4817 454.71371 412.53968 454.87109 408.60156 C 457.31105 403.46841 452.17254 396.84098 446.7832 396.57812 z M 383.30469 398.01172 C 383.50452 398.0168 383.70576 398.03358 383.9082 398.0625 C 386.53932 398.43327 389.92394 400.67627 390.10547 403.39258 C 388.40563 405.9314 385.1458 408.31332 382.09961 408.64648 C 379.70154 407.88268 377.66837 406.37163 378.13477 403.60547 C 377.69082 400.47301 380.30716 397.93547 383.30469 398.01172 z M 447.18164 402.23828 C 451.45087 402.64736 452.2147 409.82861 447.60156 410.64258 C 445.26812 410.90677 441.80368 412.39047 439.92578 410.55078 C 439.01287 406.42501 441.77624 402.07006 446.28125 402.25 C 446.59647 402.21319 446.89703 402.21101 447.18164 402.23828 z M 410.88477 404.17188 C 403.79074 404.02258 398.00088 412.02553 401.26953 418.58789 C 403.50781 422.42294 408.95158 421.96481 412.76758 421.56641 C 416.10282 421.10863 420.36152 419.9673 420.64453 415.89648 C 421.74381 412.00308 421.23138 406.619 416.6543 405.29492 C 414.84065 404.51468 412.86323 404.08763 410.88477 404.17188 z M 412.62109 409.05078 C 417.45269 409.02127 418.21982 417.18277 413.04492 417.60156 C 410.73809 418.19306 407.71534 418.04538 405.75781 417.32617 C 404.92964 413.2038 407.63819 408.904 412.14062 409.07812 C 412.30488 409.05959 412.46524 409.05173 412.62109 409.05078 z M 471.82812 443.54492 C 472.47844 443.59083 473.13054 443.85643 473.78516 444.42969 C 476.78289 446.25221 479.78156 448.074 482.7793 449.89648 C 496.56176 458.5403 508.40651 470.11679 518.84375 482.56641 C 533.66668 501.12449 546.17738 522.277 551.44336 545.65625 C 554.00883 563.27406 552.95704 581.22122 552.91406 599 C 553.1397 612.80601 549.45075 626.26022 543.77734 638.75391 C 523.07819 686.79427 478.11167 724.09685 426.5918 734.20508 C 408.66164 736.62715 390.47625 736.53877 372.39453 736.33203 C 355.87089 735.5824 340.10535 729.68541 324.81055 723.77344 C 301.29909 713.67802 280.919 697.03446 264.55859 677.53516 C 246.48959 655.01431 234.93858 627.44244 230.6875 599.02734 C 229.37343 593.39158 233.80657 588.64183 238.82031 586.97461 C 249.4549 580.89872 259.28546 572.38507 263.70703 560.63867 C 267.0751 552.51393 267.06212 543.4273 265.97852 534.85352 C 264.33687 525.26716 260.65978 515.55614 253.40234 508.85156 C 250.52477 505.43192 251.46886 500.68903 254.35547 497.55859 C 268.26048 478.22174 284.92803 460.40828 305.375 447.95508 C 310.98314 444.2183 317.70106 447.04844 322.58398 450.57617 C 335.19411 458.92496 349.83526 463.7716 364.47266 466.83789 C 376.05037 468.549 387.90297 469.58814 399.6582 468.72656 C 408.31967 468.01518 417.01214 466.97505 425.44336 464.98438 C 438.66468 461.19733 451.90953 456.07425 463.41797 448.2168 C 466.22668 447.27699 469.01011 443.346 471.82812 443.54492 z M 561.79102 484.4375 C 575.09722 485.27225 587.72142 492.12442 597.04102 501.51367 C 609.58179 514.82415 609.98856 537.10014 598.25781 551.06055 C 589.66717 561.58691 576.19106 568.75558 562.47266 568.45703 C 557.82202 568.57949 557.94583 563.073 557.9043 559.71289 C 556.31017 543.10856 550.23075 527.24389 543.47852 512.11523 C 540.16421 504.99347 535.96183 497.99836 534.09766 490.40234 C 537.91044 486.39121 544.20949 486.65104 549.22852 485.41797 C 553.3846 484.8129 557.56324 484.40575 561.79102 484.4375 z M 207 495.25 C 230.06049 494.91513 254.67072 508.68586 261.49414 531.66992 C 266.13144 548.23109 259.52024 567.15561 245.69922 577.375 C 232.97782 587.33345 216.21242 590.94889 200.40234 590.52539 C 185.26882 587.90591 169.81469 580.95813 160.29883 568.38867 C 147.69379 551.59464 149.90378 525.73698 165.625 511.56836 C 176.72219 501.11929 191.87189 495.37072 207 495.25 z M 426.73438 498.06641 C 422.69909 498.70719 419.7266 502.49395 418.24805 506.04297 C 417.04483 509.93021 419.39941 514.82312 423.80078 514.96875 C 428.86134 516.07884 436.09427 514.48266 437.26562 508.63086 C 437.41945 506.17598 436.80052 504.06619 435.67773 501.98828 C 434.63224 499.15398 431.06492 499.10618 428.64258 498.15234 C 428.00909 498.09489 427.37126 498.01425 426.73438 498.06641 z M 428.24609 502.38867 C 428.67135 502.36005 429.09274 502.39145 429.49805 502.48828 C 432.08003 503.25534 434.7373 505.67268 432.73438 508.46484 C 430.44304 511.63643 423.60484 513.05522 422.01562 508.64844 C 422.05002 505.6547 425.26927 502.58903 428.24609 502.38867 z M 456.50391 582.23633 C 456.06789 582.23337 455.6316 582.24375 455.19531 582.26953 L 455.19531 582.27148 C 449.85386 582.02695 443.77838 584.98833 443.12891 590.82422 C 442.68534 595.29309 441.74961 601.19107 446.32812 603.91992 C 451.30315 607.56834 458.5408 606.63526 463.71875 603.875 C 469.86086 599.8139 471.30763 589.19077 465.27539 584.44531 C 462.58078 582.98338 459.556 582.25704 456.50391 582.23633 z M 456.38477 586.05078 C 461.36428 586.02707 466.34208 590.12999 465.4082 595.45703 C 463.84401 601.23839 456.63455 603.12615 451.38672 602.26562 C 446.00739 601.19216 445.95673 594.21842 447.89453 590.19727 C 449.31968 587.47415 452.40211 586.07799 455.39062 586.11133 C 455.72085 586.0722 456.0528 586.05236 456.38477 586.05078 z M 447.24609 676.17969 C 442.84798 676.15727 438.87452 678.55612 436.31055 682.11133 C 431.54997 688.04432 433.39115 698.80809 441.26172 701.0625 C 446.29178 702.89818 451.3909 699.62017 455.83789 697.55273 C 461.93661 693.76274 463.18335 683.84726 457.22852 679.27539 C 454.75122 677.0977 451.39622 676.10541 448.13086 676.2168 C 447.83417 676.19341 447.5393 676.18118 447.24609 676.17969 z M 527.95703 679.16797 C 536.98568 683.9787 544.03471 691.83777 551.55469 698.66602 C 578.53553 724.17737 598.96985 756.5623 609.39844 792.24414 C 617.68925 816.36259 617.67113 842.21358 616.61914 867.45508 C 615.89268 884.67438 612.94279 901.84305 606.6543 917.95117 C 591.90257 960.20648 564.19291 998.10674 527.33594 1023.8164 C 501.65586 1042.2627 471.81418 1054.7247 440.91602 1061.1426 C 420.01542 1064.3575 398.64796 1064.5254 377.47852 1064.3867 C 374.45493 1064.1441 371.13 1064.4685 368.30469 1063.4707 C 366.00099 1056.4703 365.55041 1048.8582 361.39648 1042.5156 C 353.58968 1028.6551 342.85536 1015.987 328.62109 1008.4258 C 317.39397 1001.3083 304.23015 998.21095 291.1582 997.40039 C 285.48946 995.62144 279.8808 998.27323 274.16992 998.23438 C 263.65911 998.68969 254.16661 1003.5632 244.83008 1007.9141 C 230.79353 995.17717 218.62989 980.48742 208.72461 964.32812 C 196.13205 943.7726 184.83281 921.75993 179.6582 898.03516 C 175.47324 872.35478 174.9404 846.01986 177.24023 820.17383 C 180.22419 796.48141 189.08027 773.89175 200.09961 752.84375 C 208.88793 736.1306 219.96758 720.68731 233.19922 707.20312 C 241.619 698.33114 250.11889 689.11864 260.29688 682.38477 C 265.89842 684.4307 268.35351 690.44787 273.04297 693.85156 C 285.76358 705.1048 299.26671 715.68763 314.33984 723.64062 C 336.5316 734.14953 360.78403 740.56638 385.30273 742.10352 C 433.80356 744.38507 482.38238 724.07951 516.00195 689.26953 C 519.87895 685.8336 523.53672 681.84867 527.95703 679.16797 z M 448.32812 680.7832 C 454.38205 680.58845 459.04198 688.34568 455.10156 693.28516 C 451.02417 696.7503 444.5403 696.73645 439.76562 694.76172 C 437.67233 692.31122 436.64692 688.69848 438.87109 685.8418 C 440.51848 682.56007 444.16614 680.81952 447.73828 680.82617 C 447.93623 680.80298 448.13284 680.78949 448.32812 680.7832 z M 464.41406 782.66602 C 455.61676 782.70532 447.4949 792.48126 451.65234 800.97461 C 452.46608 803.31134 453.61775 806.05036 456.58789 806.01562 C 462.87162 806.70599 470.68101 808.06607 475.73828 803.26758 C 479.88193 798.29432 478.53907 790.45346 473.78125 786.34375 C 471.34187 783.88033 467.88408 782.50085 464.41406 782.66602 z M 465.27734 786.73438 C 469.38943 787.51016 472.75087 791.19294 474.34375 794.91211 C 474.01531 798.18227 471.35632 800.89821 468.0625 801.61133 C 464.37916 802.60697 459.11649 804.31022 456.27148 800.92773 C 453.44323 794.47684 458.18162 786.69514 465.27734 786.73438 z M 565.17578 1000.9805 C 565.4757 1000.9737 565.77963 1000.9817 566.08789 1001.0059 C 574.33055 1002.7801 580.57039 1009.2001 587.13086 1014.0918 C 594.01754 1020.2587 601.99905 1028.0846 601.38477 1038.084 C 599.36771 1047.5493 591.09293 1053.9953 583.20898 1058.6699 C 570.25515 1065.4307 554.64743 1065.1585 540.37109 1063.8906 C 523.51251 1062.1038 507.15204 1056.999 491.14453 1051.4238 C 492.98108 1048.3771 497.64653 1047.5591 500.48828 1045.3906 C 519.85443 1035.0967 538.22043 1022.6616 553.85547 1007.2422 C 557.0972 1004.5205 560.67702 1001.0817 565.17578 1000.9805 z M 285.17969 1001.2051 C 285.97581 1001.2136 286.77289 1001.2411 287.57227 1001.2852 C 303.72175 1000.7777 319.52401 1006.404 332.42188 1016.0156 C 344.85682 1025.3681 356.28969 1037.5408 361.19922 1052.6172 C 363.22418 1058.8426 361.71747 1066.6123 355.58594 1069.9277 C 344.47216 1077.5494 330.85626 1079.923 317.90234 1082.9277 C 300.91458 1085.8021 283.43116 1088.0505 266.31055 1085.5176 C 251.33941 1082.6596 236.4306 1076.4671 225.22461 1065.873 C 218.32324 1059.4704 215.22131 1048.9342 219.68359 1040.3027 C 226.29394 1027.0578 239.05117 1018.2673 251.31641 1010.6582 C 261.68899 1004.8743 273.23789 1001.0769 285.17969 1001.2051 z "
     transform="scale(0.26458333)"
     id="path2126" />
</svg>
