<?xml version="1.0" encoding="UTF-8" standalone="no"?>
<svg
   xmlns:dc="http://purl.org/dc/elements/1.1/"
   xmlns:cc="http://creativecommons.org/ns#"
   xmlns:rdf="http://www.w3.org/1999/02/22-rdf-syntax-ns#"
   xmlns:svg="http://www.w3.org/2000/svg"
   xmlns="http://www.w3.org/2000/svg"
   id="svg1529"
   version="1.1"
   viewBox="0 0 210 297"
   height="297mm"
   width="210mm">
  <title
     id="title2135">Snowman</title>
  <defs
     id="defs1523" />
  <metadata
     id="metadata1526">
    <rdf:RDF>
      <cc:Work
         rdf:about="">
        <dc:format>image/svg+xml</dc:format>
        <dc:type
           rdf:resource="http://purl.org/dc/dcmitype/StillImage" />
        <dc:title>Snowman</dc:title>
        <dc:date>2020-04-21</dc:date>
        <dc:creator>
          <cc:Agent>
            <dc:title>SuperColoring</dc:title>
          </cc:Agent>
        </dc:creator>
        <dc:source>http://www.supercoloring.com/coloring-pages/snowman</dc:source>
        <dc:subject>
          <rdf:Bag>
            <rdf:li>csk</rdf:li>
            <rdf:li>snow</rdf:li>
          </rdf:Bag>
        </dc:subject>
        <cc:license
           rdf:resource="http://creativecommons.org/licenses/by-sa/4.0/" />
      </cc:Work>
      <cc:License
         rdf:about="http://creativecommons.org/licenses/by-sa/4.0/">
        <cc:permits
           rdf:resource="http://creativecommons.org/ns#Reproduction" />
        <cc:permits
           rdf:resource="http://creativecommons.org/ns#Distribution" />
        <cc:requires
           rdf:resource="http://creativecommons.org/ns#Notice" />
        <cc:requires
           rdf:resource="http://creativecommons.org/ns#Attribution" />
        <cc:permits
           rdf:resource="http://creativecommons.org/ns#DerivativeWorks" />
        <cc:requires
           rdf:resource="http://creativecommons.org/ns#ShareAlike" />
      </cc:License>
    </rdf:RDF>
  </metadata>
  <g
     id="layer1">
    <path
       style="opacity:1;fill:#4f4f4f;stroke-width:0.60218865"
       d="m 93.785149,22.078333 c -6.04357,0.07694 -12.56056,1.558607 -16.84508,6.11776 -1.732546,1.937194 -3.364062,4.159409 -3.941149,6.735745 -0.245741,2.932876 0.404578,5.863061 0.417678,8.798434 0.329826,0.616607 0.0091,1.002198 0.196266,2.225731 0.622196,8.676915 1.204507,17.356636 1.801699,26.035292 -2.315288,4.126291 -4.677101,8.372458 -5.398859,13.127183 -0.51828,2.611063 -0.491859,5.310485 -0.425112,7.972272 0.105008,4.401533 1.342122,8.74046 3.255872,12.68866 1.877167,3.92047 4.785055,7.20791 7.907895,10.17996 1.18449,0.65114 0.30424,1.12583 -0.52087,1.60185 -6.008865,3.7505 -11.098185,8.92312 -14.84732,14.92411 -0.727359,0.53922 -1.684358,-0.43226 -2.398344,-0.73038 -2.44092,-1.40852 -5.353282,-1.63708 -8.111706,-1.71039 -3.135698,-0.048 -6.370322,0.55808 -9.018059,2.31563 0.01429,0.12581 -0.775835,0.39578 -1.175955,0.84552 -1.201791,1.02892 -2.41381,2.1184 -3.394188,3.34854 -0.356688,0.96477 -1.173161,1.85793 -1.505313,2.90134 -1.58898,3.58854 -0.881193,7.90995 1.467702,10.99915 0.08811,-0.003 0.806284,1.23921 1.380434,1.75327 0.574423,0.51327 1.009177,1.5188 1.824377,1.58989 3.373238,2.8597 7.947553,3.90487 12.286966,3.47919 0.848378,0.0828 1.975546,-0.34877 2.680669,-10e-4 0.897568,2.18964 0.913215,4.63689 1.639314,6.89018 1.329724,4.90564 3.541407,9.55419 6.418758,13.7361 1.042733,0.98598 0.599427,1.75898 -0.486011,2.43995 -5.864037,5.01679 -11.056129,10.88969 -14.791605,17.66938 -3.69268,6.65999 -6.256516,14.05329 -6.707139,21.69371 -0.150064,1.24388 -0.0577,2.56458 -0.395818,3.71221 0.101758,2.82068 0.05185,5.64176 -0.02391,8.46432 -7.715081,0.25979 -15.184084,2.41644 -22.830572,3.23503 -5.495874,0.6021 -11.379352,0.14854 -16.0992219,-2.9983 -1.568408,-0.93601 -2.906735,-2.26559 -4.427811,-3.26021 -0.153093,0.0247 -0.649449,-0.50317 -1.12625902,-0.68839 -1.90077998,-1.2005 -4.21229798,-1.19695 -6.34581098,-1.65007 -0.497941,-0.14554 -1.504987,0.29619 -0.975141,0.87776 1.33487,0.80444 3.013614,0.25544 4.45045,0.75943 2.95105098,0.69512 5.142812,2.99046 7.495047,4.74758 0.521971,0.50423 1.243092,0.60897 1.836125,1.06311 2.000173,1.17828 4.2313769,1.84533 6.5211009,2.16721 8.320564,1.19518 16.516354,-1.39304 24.686841,-2.45934 2.369506,-0.0268 4.818379,-0.2964 7.139632,0.12827 0.652334,0.65936 0.523283,1.83087 0.851679,2.69235 1.365138,6.06065 3.581213,11.95418 6.718445,17.32226 2.552867,4.37045 5.660961,8.39646 9.208775,12.00398 0.525584,0.80103 2.135748,1.67717 0.652204,2.33908 -2.772291,2.38157 -5.962222,5.09964 -6.408361,8.96972 -0.187363,1.68619 0.42814,3.42783 1.428467,4.65678 2.708988,3.52627 7.088103,5.25536 11.292058,6.25986 2.788757,0.54489 5.667733,0.52869 8.494881,0.41235 1.85411,-0.37387 3.85502,-0.25935 5.72694,-0.71802 4.29697,-0.73352 8.69945,-1.69761 12.40388,-4.09995 2.78248,-0.95222 5.802641,-0.58912 8.716461,-0.74253 7.48825,0.0208 15.01519,-1.12358 22.02473,-3.77993 1.25128,-0.58636 2.64514,-0.32866 3.76962,0.40162 3.55213,1.5244 7.39659,2.29318 11.21952,2.75685 3.12306,0.39764 6.30186,0.34489 9.41825,0.14609 -0.0311,-0.29848 0.89458,-0.27215 1.40906,-0.41874 2.85147,-0.57632 5.48606,-2.26962 6.95898,-4.81462 0.99871,-1.6312 1.2238,-3.74271 0.37407,-5.49357 -0.31115,-1.2211 -1.42034,-2.0822 -2.23889,-2.98732 -2.10414,-1.9765 -4.49791,-3.8871 -6.96989,-5.23155 1.34272,-2.99113 3.76161,-5.3364 5.38876,-8.1693 4.57388,-7.12585 7.17641,-15.33741 8.45624,-23.66559 0.10813,-1.71303 1.09134,-3.51595 2.90499,-3.87016 5.4255,-2.21659 11.20474,-3.90672 17.13147,-3.75767 3.56614,-0.0723 7.15696,-0.16033 10.65814,0.57048 5.64685,0.8936 11.5719,1.80773 17.17803,0.20382 1.59939,-0.57308 3.25334,-1.21273 4.6089,-2.24409 0.3941,-0.57931 -0.47594,-0.70367 -0.85291,-0.46273 -2.29199,0.77433 -4.45109,2.01337 -6.91523,2.20308 -5.63919,0.78197 -11.23689,-0.55672 -16.81662,-1.26957 -8.09701,-0.80721 -16.41973,0.13374 -23.98131,3.20351 -1.06758,0.27273 -2.26179,0.94928 -3.25487,1.03823 -0.86935,-2.56569 -0.27379,-5.32373 -0.6888,-7.96619 -1.25265,-12.18614 -6.76301,-23.82119 -15.01068,-32.83275 -2.56244,-2.94629 -5.80918,-5.15759 -8.59268,-7.8666 -0.63874,-0.54517 0.32909,-1.31131 0.47715,-1.91241 2.1423,-3.61942 4.09456,-7.39282 5.15676,-11.48664 0.9389,-3.15805 1.3234,-6.46824 1.79404,-9.69911 0.26902,-1.18093 0.0545,-2.68219 1.00738,-3.60372 1.24317,-0.499 2.60012,-0.5933 3.82926,-1.15236 3.73801,-1.25797 7.24823,-3.97222 8.34922,-7.90143 0.31086,-1.25629 0.65232,-2.53806 0.69449,-3.83262 -0.24891,-0.44914 -0.33146,-0.90453 -0.39418,-1.45027 -0.22569,-1.67815 -0.91119,-3.25903 -1.93689,-4.59333 -0.88589,-1.27341 -2.16683,-2.25375 -3.35055,-3.25048 -0.55574,-0.22162 -0.52191,-0.23649 -0.95701,-0.65279 -3.17466,-1.64597 -6.90239,-2.49728 -10.45493,-1.74055 -1.52852,0.19577 -2.96886,0.98545 -4.46503,1.12673 -1.66156,-0.64895 -2.57672,-2.38013 -3.915,-3.48168 -2.90373,-2.97007 -6.04668,-5.75123 -9.65536,-7.83712 -0.38528,-0.29803 -1.21376,-0.66115 -0.54927,-1.12373 2.46079,-2.91768 5.2514,-5.61449 7.06028,-9.02624 2.30837,-3.92988 3.58497,-8.374741 4.09228,-12.886233 0.17764,-1.672064 2.2285,-1.59839 3.43339,-2.068754 3.04791,-0.960052 6.22525,-1.586069 9.17765,-2.813007 0.58683,-0.472002 -0.45496,-0.760773 -0.80884,-0.801112 -3.44862,-0.943587 -7.08805,-0.815797 -10.54364,-1.683747 -1.83525,-0.629812 -1.79007,-2.913259 -2.37954,-4.436831 -1.60353,-5.607431 -4.92031,-10.600723 -9.11661,-14.602071 -1.4125,-1.547198 -3.17171,-2.835984 -4.35667,-4.558473 -3.94026,-10.917254 -7.86056,-21.841215 -11.96187,-32.698046 -0.54905,-1.418588 -0.99404,-2.928558 -1.60617,-4.291741 -1.66298,-0.923692 -3.22331,-2.08746 -5.08547,-2.620899 -3.33466,-1.18678 -6.897511,-1.482094 -10.414741,-1.436153 z m 0.66889,1.348545 c 3.63231,0.05492 7.506821,-0.322962 10.717871,1.706547 1.41482,0.650364 2.69174,1.586335 3.38452,3.019786 1.97075,3.478297 2.96454,7.399851 4.45839,11.090216 2.9282,8.084485 5.93731,16.142959 8.68145,24.291925 -2.89335,-0.658767 -5.74702,-1.592815 -8.74204,-1.671583 -1.08484,-0.146218 -2.3361,0.01689 -3.32704,-0.233031 -1.58483,-0.389516 -3.32637,-0.28755 -4.94354,-0.06173 -0.92724,0.380847 -2.18859,0.101888 -3.24942,0.272655 -5.833321,0.351607 -11.342711,2.587177 -16.639421,4.89711 -2.53963,1.163972 -4.9288,2.640966 -7.36615,3.97724 -1.074513,0.696585 -0.937067,-0.609096 -1.041841,-1.345332 -0.97401,-10.484019 -1.519244,-21.003804 -2.244901,-31.507326 0.207793,-2.529369 0.495252,-5.183984 2.18729,-7.209642 3.186822,-4.420833 8.609072,-6.847322 13.947572,-7.173723 1.39181,-0.04827 2.78478,-0.04968 4.17726,-0.05305 z m 12.836711,39.201159 c 4.78414,0.0308 9.65525,0.564987 14.15172,2.249163 4.70843,2.3844 8.17466,6.62247 10.92733,11.028773 1.92426,3.190073 3.32208,6.736561 3.56689,10.483305 -0.30507,0.338506 -1.3933,0.06836 -1.95578,0.06966 -7.15297,-0.714155 -14.34537,-1.294036 -21.53843,-1.149443 -2.14356,0.0551 -3.56491,2.130809 -4.23368,3.95967 -0.42357,2.103803 0.56085,4.367743 2.41972,5.462681 2.37376,1.576881 5.39825,1.398057 8.12686,1.478697 5.16102,0.0039 10.24922,-1.013635 15.23304,-2.224926 0.71014,-0.119044 1.45558,-0.382628 2.15704,-0.376663 0.3644,1.923432 -0.39612,3.885644 -0.81331,5.748788 -2.61704,9.784678 -10.34201,17.819418 -19.67344,21.553208 -4.58602,1.72107 -9.54493,2.13746 -14.40754,2.21019 -5.645091,-0.23211 -11.112101,-2.29813 -15.887721,-5.2659 C 76.50312,112.24326 70.558534,102.10791 70.547201,91.572729 70.4227,85.43592 72.228154,79.203655 75.719474,74.157144 c 2.615975,-3.251831 6.636675,-4.816677 10.236655,-6.697262 6.65389,-3.11046 13.98858,-4.795273 21.334621,-4.831869 z m 13.44045,13.614402 c -1.67817,0.0026 -3.44403,1.863651 -2.46204,3.507695 0.41793,0.807402 1.26479,1.377562 2.20147,1.179971 1.0814,-0.128141 2.68109,-0.185297 2.85894,-1.571501 0.33267,-1.023434 0.16074,-2.478491 -1.04498,-2.835439 -0.48752,-0.209963 -1.02227,-0.316556 -1.55339,-0.280726 z m -22.677461,0.994622 c -1.52905,-0.0039 -2.65859,1.439124 -2.58359,2.910646 -0.0945,0.88209 0.41347,1.942862 1.43451,1.865003 1.13957,0.04432 2.71241,0.219827 3.378081,-0.928135 0.71175,-1.4362 0.0486,-3.564124 -1.679641,-3.811931 -0.181,-0.03236 -0.3657,-0.04354 -0.54936,-0.03561 z m 23.035421,0.286756 c 1.36778,-0.150012 1.64844,2.055212 0.28945,2.237065 -0.63613,0.159811 -1.60156,0.311306 -2.01073,-0.290136 -0.0975,-1.033571 0.64437,-1.988165 1.72128,-1.946929 z m -23.120031,1.038276 c 1.34382,-0.123592 2.061641,1.994325 0.638,2.425103 -1.00965,0.493549 -2.45328,-0.409516 -1.94089,-1.592996 0.11592,-0.595749 0.74948,-0.862024 1.30289,-0.832107 z m 16.404841,7.926071 c 9.30403,0.140825 18.59866,0.856293 27.83839,1.912165 1.32495,0.199163 2.69207,0.306068 3.97667,0.725826 -5.70732,2.000836 -11.59826,3.491931 -17.46426,4.947585 -5.15193,1.049361 -10.50248,1.255738 -15.71211,0.517111 -1.90079,-0.363212 -3.3936,-2.19397 -3.8005,-4.048991 -0.19014,-1.267681 0.90176,-2.307334 1.62121,-3.229659 0.82855,-1.133835 2.34231,-0.68741 3.5406,-0.824037 z m 10.73262,13.395459 c -1.03772,0.04964 -2.23581,0.493727 -2.3801,1.672917 -0.28582,1.14775 -0.23242,2.93021 1.18736,3.24779 0.82383,0.38058 1.80823,0.007 2.54128,-0.40026 1.00111,-0.30309 1.49134,-1.43829 1.5695,-2.39152 -0.18813,-1.40227 -1.53562,-2.327064 -2.91804,-2.128927 z m 0.15916,1.125567 c 1.29377,-0.16872 1.77275,1.93312 0.43117,2.21154 -0.61477,0.1304 -1.35332,0.32893 -1.92679,0.0967 -0.42069,-1.13184 0.23411,-2.31275 1.49562,-2.30824 z m -23.70902,3.19676 c -1.891981,-0.1054 -3.614181,2.10727 -2.577541,3.8361 0.43886,0.90592 1.450391,1.44381 2.442561,1.16453 1.72216,0.16671 3.37958,-1.63337 2.69441,-3.31966 -0.38252,-1.02175 -1.47515,-1.7222 -2.55943,-1.68097 z m 16.36926,0.73136 c -1.66463,0.0132 -2.95544,1.78485 -2.56412,3.38076 0.0485,1.47463 1.86956,1.89709 3.01408,1.39959 0.92383,-0.0529 1.93349,-0.56649 1.97513,-1.60845 0.68861,-1.44869 -0.9038,-3.34705 -2.42509,-3.1719 z m -16.35045,0.38347 c 0.69615,0.0981 1.59199,0.69165 1.64002,1.41034 -0.44975,0.67173 -1.31221,1.30203 -2.11818,1.39018 -0.63449,-0.20209 -1.172421,-0.6019 -1.04902,-1.33378 -0.125291,-0.88405 0.67016,-1.58917 1.52718,-1.46674 z m 16.50289,1.10812 c 1.33443,-0.15585 1.65116,1.99054 0.34923,2.22026 -0.61739,0.0699 -1.53402,0.46255 -2.03088,-0.0242 -0.24154,-1.09161 0.4897,-2.24369 1.68165,-2.19608 z m -9.36527,0.50839 c -1.87696,-0.0395 -3.40879,2.07765 -2.54396,3.81394 0.59221,1.01469 2.03263,0.89385 3.04228,0.78844 0.88245,-0.12112 2.00905,-0.42325 2.08393,-1.50032 0.29085,-1.03013 0.15529,-2.45489 -1.05573,-2.80522 -0.47986,-0.20644 -1.00305,-0.31913 -1.52652,-0.29684 z m 0.33244,1.29818 c 1.39069,-0.15695 1.65245,2.1408 0.23909,2.25518 -0.61035,0.1565 -1.4102,0.11709 -1.92813,-0.0732 -0.21912,-1.09071 0.49777,-2.22806 1.68904,-2.18199 z m 18.68957,10.79977 c 3.64661,2.28701 6.7808,5.34959 9.54232,8.64355 3.9219,4.91016 7.23217,10.50697 8.62546,16.69273 0.67878,4.66138 0.40026,9.40997 0.38889,14.11394 0.0597,3.65284 -0.91624,7.2128 -2.41733,10.51842 -5.47665,12.71068 -17.37427,22.57993 -31.00557,25.2544 -4.74402,0.64084 -9.55559,0.61749 -14.339711,0.56279 -4.37188,-0.19834 -8.54319,-1.75825 -12.58994,-3.32246 -6.22074,-2.67108 -11.613036,-7.07498 -15.941727,-12.23417 -4.780756,-5.95864 -7.836789,-13.25386 -8.961553,-20.77202 -0.347681,-1.49113 0.825181,-2.74765 2.151733,-3.18877 2.813735,-1.60758 5.414648,-3.86003 6.584521,-6.96793 0.891135,-2.14967 0.888081,-4.554 0.601377,-6.82248 -0.434352,-2.53639 -1.407518,-5.10582 -3.327714,-6.87974 -0.761357,-0.90478 -0.511223,-2.15962 0.252525,-2.98788 3.679034,-5.11621 8.08895,-9.82923 13.498878,-13.12414 1.48382,-0.98869 3.26083,-0.24 4.55277,0.69338 3.33643,2.20895 7.2103,3.49126 11.08311,4.30255 3.06327,0.45273 6.199281,0.72762 9.309521,0.49966 2.29168,-0.18822 4.59189,-0.46322 6.82265,-0.98992 3.49814,-1.00199 7.00219,-2.3577 10.04713,-4.43665 0.91463,-0.30604 1.81949,-1.81081 2.74322,-1.00188 0.79315,0.48221 1.58629,0.96442 2.37944,1.44662 z m 20.90515,9.13895 c 3.5206,0.22086 6.86118,2.03353 9.32699,4.51777 3.31808,3.52173 3.42567,9.41559 0.32191,13.10928 -2.27294,2.7851 -5.83858,4.68212 -9.46824,4.60313 -1.23048,0.0324 -1.19787,-1.42459 -1.20886,-2.31362 -0.42178,-4.39323 -2.03008,-8.59099 -3.81661,-12.59378 -0.87691,-1.8843 -1.98897,-3.73477 -2.4822,-5.74455 1.0088,-1.06128 2.67562,-0.99247 4.00357,-1.31872 1.09963,-0.16009 2.20484,-0.26791 3.32344,-0.25951 z m -93.871652,2.86096 c 6.101421,-0.0886 12.612918,3.55471 14.418282,9.63591 1.226951,4.38181 -0.522374,9.38894 -4.179185,12.09282 -3.36587,2.63484 -7.801466,3.59131 -11.984549,3.47926 -4.004077,-0.69307 -8.09333,-2.53123 -10.611069,-5.8569 -3.335082,-4.44342 -2.750314,-11.28503 1.409259,-15.03381 2.936132,-2.76465 6.944615,-4.28534 10.947262,-4.31728 z m 58.137882,0.74479 c -1.06767,0.16954 -1.85392,1.17178 -2.24512,2.11079 -0.31835,1.0285 0.30491,2.32276 1.46944,2.36129 1.33894,0.29371 3.25218,-0.12866 3.5621,-1.67695 0.0407,-0.64952 -0.12268,-1.20775 -0.41975,-1.75753 -0.27662,-0.74991 -1.22072,-0.7624 -1.86163,-1.01477 -0.16761,-0.0152 -0.33653,-0.0367 -0.50504,-0.0229 z m 0.73135,1.1699 c 0.68315,0.20295 1.38622,0.84282 0.85628,1.58158 -0.60625,0.83915 -2.41564,1.21426 -2.83612,0.0483 0.0104,-0.90525 1.12195,-1.83491 1.97984,-1.62995 z m 6.79915,21.1093 c -1.41326,-0.0647 -3.02088,0.71917 -3.19272,2.26325 -0.11736,1.18239 -0.36453,2.7427 0.84687,3.46471 1.31631,0.96531 3.23103,0.71862 4.60103,-0.0117 1.6251,-1.0745 2.00772,-3.88542 0.41169,-5.14099 -0.8148,-0.44206 -1.7434,-0.63014 -2.66687,-0.57556 z m 0.0517,1.0161 c 1.39794,-0.16563 2.91432,0.96938 2.65076,2.47279 -0.41386,1.52965 -2.32136,2.02887 -3.70985,1.80119 -1.42328,-0.28402 -1.43682,-2.12879 -0.92411,-3.19272 0.37707,-0.72049 1.19249,-1.09008 1.9832,-1.08126 z m -1.92074,23.84065 c -1.25598,-0.099 -2.40396,0.55607 -3.12757,1.55943 -1.25957,1.56977 -0.77216,4.41758 1.31026,5.01406 1.33087,0.48569 2.67965,-0.3818 3.85625,-0.92881 1.61362,-1.00277 1.94357,-3.62578 0.36802,-4.83542 -0.65545,-0.57618 -1.543,-0.83873 -2.40696,-0.80926 z m 21.12072,0.78038 c 2.38883,1.27284 4.25387,3.35272 6.24353,5.15936 7.13868,6.74988 12.54509,15.31832 15.30432,24.75914 2.19361,6.38134 2.18877,13.22099 1.91043,19.89947 -0.19221,4.55594 -0.97279,9.0984 -2.63662,13.36034 -3.90306,11.18005 -11.23435,21.20771 -20.98609,28.01006 -6.79452,4.88059 -14.68996,8.17778 -22.8651,9.87585 -5.52995,0.85062 -11.18357,0.89526 -16.784651,0.85858 -0.79999,-0.0642 -1.67973,0.0214 -2.42726,-0.24261 -0.60952,-1.85218 -0.72899,-3.86582 -1.82805,-5.54395 -2.06555,-3.66726 -4.90549,-7.01946 -8.67164,-9.02002 -2.97051,-1.88318 -6.4532,-2.7023 -9.91182,-2.91676 -1.499854,-0.47068 -2.983931,0.23057 -4.494935,0.22029 -2.780986,0.12047 -5.292578,1.41026 -7.762868,2.56143 -3.713837,-3.36997 -6.93206,-7.2569 -9.552831,-11.53238 -3.331781,-5.43865 -6.321703,-11.26274 -7.690818,-17.53992 -1.107271,-6.7946 -1.247901,-13.76245 -0.639402,-20.60088 0.789506,-6.26862 3.13241,-12.24558 6.047943,-17.81453 2.325242,-4.42202 5.256812,-8.50776 8.757684,-12.07545 2.227733,-2.34738 4.476481,-4.78477 7.169406,-6.56644 1.482075,0.54132 2.131953,2.13299 3.372706,3.03355 3.365662,2.97742 6.938415,5.7775 10.926515,7.88173 5.87157,2.78048 12.28831,4.47826 18.775551,4.88496 12.83251,0.60366 25.68537,-4.7688 34.58055,-13.97894 1.02579,-0.90909 1.99391,-1.96361 3.16345,-2.67288 z m -21.22482,0.43922 c 1.67595,-0.19637 3.02448,1.94708 1.94828,3.29614 -1.07881,0.91682 -2.79442,0.91335 -4.05772,0.39087 -0.55385,-0.64836 -0.82489,-1.60412 -0.23641,-2.35995 0.43587,-0.86829 1.40072,-1.32882 2.34585,-1.32706 z m 4.41232,26.94472 c -2.32762,0.0104 -4.47672,2.59695 -3.37673,4.84415 0.2153,0.61826 0.52029,1.34305 1.30614,1.33386 1.66257,0.18266 3.72848,0.54285 5.06655,-0.72675 1.09634,-1.31584 0.74104,-3.39077 -0.5178,-4.47813 -0.64542,-0.65178 -1.56005,-1.01683 -2.47816,-0.97313 z m 0.22834,1.07655 c 1.08799,0.20526 1.97747,1.17982 2.39892,2.16385 -0.0869,0.86523 -0.79068,1.58363 -1.66217,1.77231 -0.97455,0.26343 -2.36678,0.71429 -3.11952,-0.18066 -0.74831,-1.7068 0.50536,-3.76588 2.38277,-3.7555 z m 26.67274,56.69263 c 2.18087,0.46943 3.83188,2.16819 5.56767,3.46246 1.8221,1.63166 3.93393,3.7024 3.7714,6.34807 -0.53368,2.50437 -2.72327,4.20973 -4.80923,5.44657 -3.42737,1.78879 -7.55643,1.71692 -11.33371,1.38146 -4.4605,-0.47276 -8.7894,-1.82374 -13.02472,-3.29884 0.48592,-0.80611 1.72038,-1.02226 2.47226,-1.59601 5.12396,-2.72359 9.98318,-6.01391 14.11995,-10.09362 0.91489,-0.76811 1.9314,-1.75222 3.23638,-1.65009 z m -73.690485,0.0738 c 4.272884,-0.13427 8.453684,1.35456 11.866244,3.89764 3.29008,2.4745 6.31535,5.69517 7.61433,9.68412 0.53577,1.64715 0.13688,3.70274 -1.48542,4.57995 -2.94052,2.01656 -6.54279,2.64488 -9.97018,3.43987 -4.49468,0.7605 -9.120497,1.3552 -13.650326,0.68503 -3.961113,-0.75618 -7.905902,-2.39442 -10.87082,-5.19743 -1.825988,-1.69403 -2.646892,-4.48185 -1.466246,-6.76558 1.748987,-3.50438 5.124305,-5.8302 8.369481,-7.84343 2.927373,-1.63234 6.208899,-2.66648 9.592937,-2.48017 z"
       id="path2126" />
  </g>
</svg>
