<?xml version="1.0" encoding="UTF-8" standalone="no"?>
<svg
   xmlns:dc="http://purl.org/dc/elements/1.1/"
   xmlns:cc="http://creativecommons.org/ns#"
   xmlns:rdf="http://www.w3.org/1999/02/22-rdf-syntax-ns#"
   xmlns:svg="http://www.w3.org/2000/svg"
   xmlns="http://www.w3.org/2000/svg"
   id="svg6251"
   version="1.1"
   viewBox="0 0 210 297"
   height="297mm"
   width="210mm">
  <title
     id="title6834">Spring Rain</title>
  <defs
     id="defs6245" />
  <metadata
     id="metadata6248">
    <rdf:RDF>
      <cc:Work
         rdf:about="">
        <dc:format>image/svg+xml</dc:format>
        <dc:type
           rdf:resource="http://purl.org/dc/dcmitype/StillImage" />
        <dc:title>Spring Rain</dc:title>
        <dc:creator>
          <cc:Agent>
            <dc:title>Lena London</dc:title>
          </cc:Agent>
        </dc:creator>
        <dc:date>2020-04-06</dc:date>
        <dc:source>http://www.supercoloring.com/coloring-pages/spring-rain</dc:source>
        <dc:subject>
          <rdf:Bag>
            <rdf:li>csk</rdf:li>
            <rdf:li>spring</rdf:li>
            <rdf:li>rain</rdf:li>
          </rdf:Bag>
        </dc:subject>
      </cc:Work>
    </rdf:RDF>
  </metadata>
  <g
     id="layer1">
    <path
       id="path6824"
       d="m 61.456146,-0.30953935 0.325046,0.3524332 c -0.251034,0.2307336 0.635346,1.49551035 2.31562,3.27215175 3.494339,3.6947456 5.162992,6.5075456 5.162992,8.7038614 0,1.020721 -0.308875,1.786965 -0.800984,2.283581 -0.538961,0.349167 -1.160838,0.603254 -1.737879,0.666109 -1.067509,-0.03158 -2.290646,-0.681448 -3.289204,-2.013313 -1.873681,-2.499097 -3.738441,-6.2165587 -4.775936,-9.5203491 -0.4313,-1.3734239 -1.026244,-2.75944975 -1.3224,-3.07991525 -2.103118,-2.27575715 0.02751,4.86268325 3.263884,10.93473335 1.103836,2.071011 2.731902,4.159851 3.617867,4.641576 0.344691,0.187419 0.66503,0.339906 0.969965,0.465088 0.506225,0.310088 0.909561,0.425971 1.384414,0.361735 1.073335,0.0848 1.976202,-0.378883 3.030821,-1.433504 0.05725,-0.05725 0.110318,-0.11523 0.164332,-0.173116 0.48109,-0.435867 0.819857,-0.939753 1.00924,-1.514636 C 71.836938,11.100178 70.309996,7.904407 65.969567,3.3150456 65.364566,2.675345 64.748986,2.0814513 64.178978,1.5735498 63.187497,0.62609405 62.348662,0.00155275 61.927435,0.00155275 c -0.0052,0 -0.008,0.00236 -0.01292,0.00258 -0.0047,-2.249e-4 -0.01102,-0.00258 -0.0155,-0.00258 -0.03418,0 -0.06242,0.00552 -0.08578,0.015503 z m 68.606664,0.1937867 c -0.15867,-0.00338 -0.24753,0.1418217 -0.24753,0.4542359 0,0.93501125 2.83629,5.80913275 4.27106,7.33960335 0.84988,0.9065702 1.84999,1.4326106 2.86442,1.5885335 0.11554,0.028993 0.22611,0.051229 0.33228,0.067696 0.003,5.625e-4 0.006,10e-4 0.009,0.00155 0.0171,0.0026 0.0338,0.00498 0.0506,0.00723 0.088,0.013662 0.17238,0.022737 0.24908,0.022737 0.007,0 0.0145,-0.00149 0.0217,-0.00155 0.006,6.57e-5 0.0136,0.00155 0.0196,0.00155 0.51319,0 1.03386,-0.1313553 1.526,-0.3560505 0.78816,-0.3176842 1.51923,-0.8803984 2.11874,-1.6867188 1.20471,-1.6202853 1.2285,-1.8979584 0.37413,-4.363041 -0.29474,-0.8504326 -0.66448,-1.5624475 -1.04954,-2.06705725 -0.36453,-0.6620787 -0.6445,-0.9373163 -0.79065,-0.8728149 -0.0368,-0.011235 -0.073,-0.018604 -0.10853,-0.018604 -0.0121,0 -0.0199,0.00148 -0.0315,0.00155 -0.004,-1.228e-4 -0.007,-0.00155 -0.0109,-0.00155 -0.005,0 -0.008,0.0019 -0.0129,0.00207 -0.0512,6.54e-4 -0.10051,0.00218 -0.14262,0.0062 -0.0157,-0.00396 -0.0318,-0.00827 -0.0465,-0.00827 -0.0144,0 -0.024,0.00779 -0.032,0.01912 -0.0426,0.00897 -0.0802,0.021643 -0.10904,0.041341 -0.76817,-0.1151387 -0.69908,0.1253347 0.12919,1.72702625 0.27298,0.5278817 0.48352,1.0123941 0.63562,1.4614096 0.0783,0.422974 0.14951,0.8523172 0.19792,1.2614216 0.0275,0.232211 0.0477,0.4376925 0.0631,0.6299357 -0.10649,0.8420067 -0.57983,1.5085736 -1.43454,2.0686076 -0.73633,0.4824576 -1.40275,0.679759 -2.05879,0.5555215 -0.4216,-0.1171136 -0.84297,-0.3362163 -1.26607,-0.649056 -0.82561,-0.6839873 -1.69343,-1.8944829 -2.71767,-3.7093341 -0.67241,-1.1914452 -1.30704,-2.128874 -1.82314,-2.73833405 -0.0911,-0.1367358 -0.17994,-0.2573109 -0.26458,-0.3560506 -0.23245,-0.322586 -0.36428,-0.4059428 -0.48473,-0.3451987 -0.0872,-0.049891 -0.1665,-0.082333 -0.23151,-0.083716 z m -16.09152,0.2299602 c -0.0596,0.00416 -0.10727,0.023036 -0.1416,0.057361 -0.16291,0.1629183 2.55428,3.28165445 6.03788,6.93032635 3.48359,3.6486721 6.62839,6.6337031 6.98872,6.6337031 0.70405,0 0.6693,-0.04585 -4.87206,-6.4311315 -3.47761,-4.0072407 -7.11881,-7.25272265 -8.01294,-7.19025895 z m -10.55646,0.5115965 c -0.91722,1e-7 2.20058,3.90908895 6.35568,7.96850585 3.94093,3.8501751 6.07475,4.8975201 3.1564,1.5492591 C 111.95258,9.0257159 110.78733,7.7631698 109.61135,6.5262189 108.46954,5.2696055 107.22593,3.997921 106.2038,3.0613143 104.74372,1.6345569 103.62084,0.62580405 103.41483,0.62580405 Z M 41.517313,5.7231672 c -0.02511,4.18e-5 -0.04418,0.00646 -0.05736,0.019637 -0.200919,0.2009196 2.921167,3.7741947 6.938079,7.9406008 7.481477,7.759906 10.411851,9.823894 4.759399,3.35225 C 50.835406,14.377108 47.997779,11.431122 45.695869,9.2113264 45.287475,8.8126951 44.902924,8.445019 44.571906,8.1478255 42.996958,6.68347 41.82228,5.7226592 41.517313,5.7231672 Z M 185.16126,6.2440656 c -0.16438,0 -0.27437,0.1137479 -0.3359,0.329179 -0.0453,0.063448 -0.0734,0.1484244 -0.0734,0.258382 0,0.049998 0.006,0.098315 0.0165,0.145211 0,1.9e-4 1e-5,3.265e-4 0,5.168e-4 -0.0308,1.07863 0.50537,3.3555166 1.61696,6.8822666 2.00396,6.357973 3.93865,10.272111 6.18929,12.52275 1.149,1.149008 2.44879,1.707261 3.75429,1.668115 0.0567,0.0091 0.11224,0.01723 0.15658,0.0186 0.11361,0.0035 0.24132,-0.02449 0.37414,-0.06615 0.71628,-0.111332 1.42833,-0.401697 2.11201,-0.880567 1.15446,-0.808613 1.59323,-2.300797 1.33997,-4.085022 -0.0978,-1.087408 -0.52872,-2.290214 -1.28622,-3.595646 -0.13842,-0.248153 -0.28446,-0.49672 -0.44391,-0.745691 -0.17251,-0.269385 -0.3953,-0.574771 -0.6413,-0.896069 -0.96116,-1.304484 -2.20871,-2.694351 -3.73621,-4.158919 -3.58869,-3.624761 -8.00785,-7.3969644 -9.04285,-7.3969644 z M 32.142692,7.650698 c -0.172879,0.028379 -0.12818,0.310097 0.186033,0.8872845 0.341257,0.6268632 2.632983,3.3169205 5.09323,5.9779295 2.460249,2.661009 4.744942,4.838464 5.076692,4.838464 0.937205,0 -0.08278,-1.45929 -4.35374,-6.229594 C 35.135227,9.7632189 32.661323,7.5655612 32.142692,7.650698 Z M 186.23458,8.3333439 c 0.10347,-0.00279 0.32613,0.1070319 0.63045,0.3012734 0.97289,0.7604482 3.00441,2.6280237 5.27668,4.8767047 4.28813,4.243617 5.77742,6.167138 6.40167,8.265645 0.22665,0.761905 0.38146,1.313912 0.45579,1.746664 -0.01,0.606485 -0.16592,1.146991 -0.46716,1.621089 -0.16353,0.161463 -0.36717,0.332348 -0.61598,0.533818 -0.64838,0.525032 -1.31988,0.966846 -1.67018,1.112077 -0.0536,0.01393 -0.10723,0.02787 -0.15658,0.03617 -0.19052,-0.02295 -0.38591,-0.06423 -0.58497,-0.12454 -1.1795,-0.518485 -2.98779,-2.419089 -4.22817,-4.53564 -1.67308,-2.85489 -5.30035,-12.861613 -5.04155,-13.8332641 z m -15.14017,8.8997141 c -0.0504,-0.003 -0.0765,0.02066 -0.0765,0.07286 0,0.398719 3.12936,3.980142 6.9541,7.958688 7.18476,7.473675 9.97234,9.374113 4.41213,3.008085 C 178.0355,23.293818 171.85051,17.277473 171.09439,17.233054 Z M 9.0469434,18.364772 c -0.1355429,0.04146 -0.087095,0.300755 0.1922362,0.822689 0.373676,0.698222 2.8641224,3.5507 5.5345454,6.339148 2.670425,2.788448 5.100629,5.068792 5.400188,5.067392 0.299559,-0.0014 0.168246,-0.494152 -0.291455,-1.095026 C 15.870696,24.255228 9.7788748,18.14087 9.0469434,18.364772 Z M 162.204,19.354376 c -1.10237,0 0.71833,2.491709 5.26221,7.200594 4.38119,4.540284 6.0805,5.784551 4.87309,3.568258 -0.91979,-1.688352 -9.46602,-10.768852 -10.1353,-10.768852 z m -78.794155,3.752226 c -0.02881,7.29e-4 -0.02832,0.03303 0.0047,0.09973 0.808371,1.635169 9.250376,11.287151 12.668477,14.484387 3.630711,3.396099 4.407168,3.673118 2.413289,0.860414 -0.735632,-1.037733 -3.51667,-4.031731 -6.491076,-7.110677 -0.639837,-0.685757 -1.295733,-1.380447 -1.964222,-2.075327 -1.304157,-1.355645 -2.48826,-2.513784 -3.399274,-3.345532 -1.755851,-1.719095 -3.055286,-2.917467 -3.231845,-2.913 z m 41.466205,5.694226 c -0.0189,8.38e-4 -0.0293,0.01203 -0.0305,0.03307 -0.0382,0.66237 7.3127,9.772382 11.1187,13.77952 1.87761,1.976834 3.54954,3.458824 3.71502,3.29334 0.16549,-0.165483 -0.93292,-1.905899 -2.44068,-3.867465 -2.94084,-3.825975 -11.77782,-13.264451 -12.36255,-13.238468 z m 29.45711,0.798916 c -0.01,0.0017 -0.0177,0.0058 -0.0238,0.01189 -0.412,0.411999 3.81532,6.246744 8.57726,11.83907 2.22339,2.611109 4.27826,4.747514 4.56613,4.747514 0.28786,0 -0.64479,-1.66537 -2.07274,-3.701066 C 162.1915,37.951613 154.93272,29.489549 154.33313,29.599746 Z M 36.099038,37.543446 c -0.08953,-0.0034 -0.162621,0.01621 -0.224793,0.05271 -0.02715,-0.0018 -0.04882,0.0013 -0.05994,0.0124 -0.01398,0.01398 -0.02353,0.03843 -0.03152,0.06821 -0.417888,0.521513 0.176747,2.62558 1.392679,6.611999 1.930284,6.328407 4.136038,10.931906 6.38824,13.332002 1.179695,1.257162 2.659187,1.783225 4.059701,1.599387 1.309711,-0.10092 2.484477,-0.812276 3.211689,-2.065506 1.004983,-1.381387 1.048335,-1.906096 0.418582,-4.008025 -0.951357,-3.175344 -4.261903,-7.127002 -9.956498,-11.885062 -2.844583,-2.376763 -4.475853,-3.690347 -5.198134,-3.718121 z m 30.434835,0.04909 c -0.07223,-0.0027 -0.126407,0.01272 -0.161232,0.04754 -0.554487,0.554487 2.268765,9.846709 4.4049,14.498338 0.640517,1.394788 1.466062,2.81555 2.277898,3.982701 0.220084,0.336532 0.434052,0.63445 0.638205,0.882119 0.03134,0.03802 0.06359,0.07036 0.09508,0.107487 0.385514,0.480721 0.754499,0.883628 1.080037,1.157552 2.36437,1.989481 4.555633,1.885206 6.408396,-0.304374 2.351812,-2.779366 0.989507,-6.283847 -4.777489,-12.29124 -3.768841,-3.925946 -8.882284,-8.04028 -9.965798,-8.080126 z m -29.107267,2.1146 c 0.120015,-0.0036 0.302247,0.07899 0.545703,0.209288 0.580041,0.310428 3.344706,2.949662 6.14381,5.865275 3.882938,4.044559 5.193739,5.857788 5.529895,7.649663 0.372917,1.987822 0.224528,2.523945 -0.966864,3.488676 -0.889691,0.720426 -1.389857,1.079228 -1.907895,1.038178 -0.09845,-0.01699 -0.197919,-0.04044 -0.297656,-0.06821 -0.455837,-0.163673 -0.978183,-0.616262 -1.815394,-1.392163 -1.925108,-1.78413 -4.942763,-7.904684 -6.606831,-13.40073 -0.785291,-2.593652 -0.98481,-3.379206 -0.624768,-3.389974 z m 30.870466,0.422195 c 0.88161,0.01495 8.233532,7.088651 10.414868,10.064502 1.751941,2.39005 2.280124,5.352092 1.28416,6.814055 -0.882978,0.886095 -1.89085,1.145013 -2.941423,0.827855 -1.55058,-0.631399 -3.268927,-2.628699 -4.848799,-5.783625 -1.88935,-3.772948 -4.445428,-11.429574 -3.973401,-11.901599 0.01458,-0.01458 0.03616,-0.02167 0.06459,-0.02119 z m -45.898489,8.695077 c -0.552241,-0.03053 1.962055,2.998067 6.958747,8.231539 3.47762,3.64241 6.59416,6.622333 6.926194,6.622333 1.166601,0 -6.477632,-8.779132 -11.176579,-12.835909 -1.572943,-1.357979 -2.457343,-2.004089 -2.708362,-2.017963 z m -9.504846,1.74408 c -0.903162,0 1.911363,3.504896 6.240446,7.770585 4.045267,3.986027 6.248441,5.162513 3.271635,1.747178 -0.974323,-1.117851 -2.139572,-2.380398 -3.31556,-3.617348 -1.141806,-1.256615 -2.385412,-2.528298 -3.407544,-3.464904 -1.460077,-1.426758 -2.582967,-2.435511 -2.788977,-2.435511 z m 96.994593,6.560322 c -0.0994,-0.0054 -0.17572,0.01552 -0.22582,0.06563 -0.46449,0.46449 1.67869,8.044299 3.70675,13.110311 0.91078,2.275083 2.69275,5.226656 3.95996,6.558772 0.096,0.100965 0.18748,0.191529 0.2806,0.285771 0.64789,0.756774 1.25201,1.289243 1.74718,1.486215 0.019,0.0075 0.0379,0.01288 0.0568,0.02015 1.48626,0.905751 2.71886,0.64756 4.38629,-0.664043 1.78346,-1.402871 2.12233,-3.612682 1.00459,-6.55257 -1.17037,-3.078303 -12.89431,-14.199873 -14.9164,-14.310239 z m 81.49477,0.931209 c -1.33259,0 2.50634,11.564017 4.86585,14.657504 1.8644,2.444345 4.50859,2.959174 6.25078,1.21698 1.46075,-1.460748 1.19689,-3.473212 -0.86299,-6.583061 -1.60932,-2.429644 -9.18185,-9.291423 -10.25364,-9.291423 z m -79.94809,1.373042 c 1.14255,0.02195 10.30353,9.550382 11.50679,12.03596 0.52172,1.077732 0.86327,1.847119 1.03973,2.450496 0.0509,0.562949 -0.0117,1.084318 -0.18294,1.574581 -0.0783,0.22421 -0.16564,0.422653 -0.26561,0.598929 -0.0956,0.108924 -0.19884,0.220027 -0.3173,0.338481 -0.27465,0.274654 -0.5565,0.485902 -0.84336,0.641821 -0.28778,0.10464 -0.62159,0.173514 -1.01596,0.212389 -0.31718,0.03127 -0.62046,0.02377 -0.91518,-0.01757 -2.5392,-0.781045 -5.36421,-5.4356 -8.07961,-13.506669 -0.73547,-2.186051 -1.19058,-4.12124 -1.01131,-4.300514 0.0196,-0.01963 0.0479,-0.02861 0.0847,-0.02791 z m 81.61465,1.401982 c 0.35821,0.07766 2.2516,1.807845 4.39715,4.030245 3.24326,3.359444 4.16099,4.721873 4.16099,6.176886 0,1.126344 -0.39172,2.01722 -0.98754,2.245857 -0.42546,0.163266 -0.70478,0.283512 -0.94723,0.300757 -0.15774,-0.02448 -0.31795,-0.06908 -0.48007,-0.131776 -0.37554,-0.23613 -0.83837,-0.817216 -1.79576,-1.978691 -1.71757,-2.083703 -5.00367,-10.031071 -4.39818,-10.63656 0.01,-0.0099 0.0268,-0.0119 0.0506,-0.0067 z m -7.88995,4.127397 c -0.0209,0.0028 -0.0374,0.01055 -0.0501,0.02325 -0.47369,0.473695 3.36903,5.636416 7.03161,9.446969 1.56,1.623026 2.96298,2.824787 3.11764,2.670122 0.31109,-0.311089 -3.47376,-5.323921 -7.30705,-9.677963 -1.27499,-1.448194 -2.47903,-2.503686 -2.79207,-2.462382 z m -21.63692,3.016869 c -0.12858,-0.02142 -0.028,0.204256 0.36534,0.729674 5.50217,7.348704 7.28405,9.557935 10.16683,12.605432 3.13532,3.31447 3.82974,3.928904 3.82974,3.387389 0,-0.57835 -7.19201,-9.697315 -9.93945,-12.602332 -2.2676,-2.39768 -4.09389,-4.06542 -4.42246,-4.120163 z m -27.10223,1.196311 c -0.034,-2.99e-4 -0.0326,0.03874 0.008,0.121439 0.8622,1.745342 6.58187,8.716369 8.18865,9.980271 1.98893,1.564494 2.26865,1.576731 1.45882,0.06356 -0.24281,-0.453689 -1.3737,-1.761803 -2.74815,-3.268017 -1.42101,-1.683965 -3.45526,-3.807405 -4.75423,-4.973857 -1.13995,-1.129914 -2.00151,-1.922069 -2.15336,-1.923397 z m 46.91962,4.589899 c -0.0849,0.0066 -0.15412,0.03354 -0.21084,0.07596 -0.004,0.0027 -0.0112,0.0024 -0.0145,0.0057 -0.002,0.0021 -0.003,0.0069 -0.005,0.0093 -0.006,0.005 -0.0127,0.0085 -0.0181,0.01395 -0.0211,0.02107 -0.0394,0.04792 -0.0563,0.07751 -0.106,0.04273 -0.15606,0.150897 -0.15606,0.321426 0,0.07749 0.0202,0.150625 0.0517,0.219626 -0.0689,3.068629 4.65307,15.47093 7.23625,18.488794 1.58471,1.85138 2.25888,2.398893 3.4954,2.448428 0.18365,0.02637 0.36664,0.0369 0.54932,0.03359 0.1123,0.0334 0.21479,0.05684 0.293,0.05684 0.1086,0 0.22725,-0.02406 0.34985,-0.05839 0.6534,-0.0512 1.25021,-0.27436 1.76217,-0.636654 0.54652,-0.305731 1.01626,-0.735729 1.44435,-1.31155 1.68392,-2.26501 1.14807,-4.676079 -2.26653,-8.702826 -0.58318,-0.752445 -1.2295,-1.528765 -1.84381,-2.195216 -0.9048,-0.981585 -2.18165,-2.188175 -3.54035,-3.389458 -3.85712,-3.713776 -6.20213,-5.524849 -7.07037,-5.457031 z m -31.24564,0.228928 0.12351,0.656291 c -0.56086,2.032016 3.23058,12.211981 5.86889,15.091585 3.22059,3.515148 7.73053,0.113905 5.84202,-4.405932 -0.21552,-0.515821 -0.89225,-1.405631 -1.80351,-2.454632 -1.05689,-1.407618 -2.52212,-2.926749 -4.37079,-4.520136 -2.33127,-2.21733 -4.56472,-4.070554 -5.17694,-4.070554 -0.0253,0 -0.0485,0.0029 -0.0713,0.0078 z m -94.940974,0.920875 c -0.05869,0 -0.10677,0.02399 -0.145727,0.0677 -0.147275,-0.0417 -0.234093,-0.02336 -0.234093,0.07906 0,0.0274 0.04258,0.206201 0.112654,0.482656 -0.0082,2.445438 3.120914,11.379073 5.141804,14.028602 0.903822,1.184966 1.904664,1.896086 2.913518,2.126486 0.0982,0.04251 0.186682,0.07131 0.254248,0.07131 0.05124,0 0.10145,-0.0029 0.15193,-0.0047 0.951624,0.09409 1.89947,-0.240675 2.769856,-1.028361 0.52759,-0.477464 0.858388,-0.997008 0.996321,-1.592667 0.09034,-0.186815 0.145727,-0.362792 0.145727,-0.515731 0,-0.374582 -0.08124,-0.794817 -0.236159,-1.25212 C 68.780831,86.494021 68.270614,85.461794 67.483169,84.220128 65.965617,81.827192 58.292483,74.91527 57.153566,74.91527 Z m 127.287324,0.762743 1.4304,1.02216 c 0.92957,0.664019 3.40273,2.993278 5.49631,5.17643 5.8386,6.088435 7.1875,9.525253 4.48241,11.419972 -0.50827,0.356005 -1.05379,0.665297 -1.44746,0.834575 -0.175,0.03066 -0.33858,0.04455 -0.49506,0.03721 -0.47114,-0.15367 -1.00118,-0.486113 -1.55236,-0.953431 -2.3094,-2.477318 -5.63443,-8.891326 -7.22488,-14.421342 l -0.80357,-2.794146 c -0.007,-0.14629 0.006,-0.248398 0.0455,-0.287837 0.0173,-0.01735 0.0412,-0.02761 0.0687,-0.03359 z m -30.66893,0.710552 c 0.0182,0.0015 0.0436,0.01034 0.0682,0.0186 0.60171,0.467751 2.04452,1.806752 3.7238,3.471105 3.4578,3.427064 5.1592,5.866062 5.24671,7.548894 -0.009,0.188441 -0.0286,0.366799 -0.0599,0.534334 -0.0626,0.206576 -0.15145,0.404145 -0.26975,0.591695 -0.17086,0.27087 -0.34049,0.488916 -0.51315,0.663525 -1.27209,0.698905 -3.54383,-0.879147 -5.07979,-3.849378 -0.83196,-1.608841 -2.80122,-6.897251 -3.25407,-8.633579 6.5e-4,-0.15803 0.0246,-0.274164 0.0806,-0.330213 0.0122,-0.0122 0.0315,-0.0171 0.0574,-0.01499 z m -95.46756,0.566372 2.328024,1.858801 c 0.736992,0.588476 1.478436,1.271633 2.188498,1.993162 0.387559,0.404315 0.770827,0.81552 1.138947,1.223698 1.948987,2.212313 3.426666,4.531939 3.426666,5.647716 0,0.740344 -0.336767,1.682936 -0.748792,2.094963 -0.445423,0.445421 -0.756174,0.68344 -1.084688,0.681096 -0.03238,-0.0026 -0.06505,-0.0057 -0.09767,-0.0098 -8.73e-4,-1.11e-4 -0.0017,-4.05e-4 -0.0026,-5.18e-4 -3.39e-4,-5.1e-5 -6.94e-4,5.3e-5 -0.001,0 -0.0266,-0.0041 -0.05336,-0.01028 -0.0801,-0.0155 -0.384683,-0.102735 -0.826754,-0.520917 -1.548741,-1.310513 -1.6085,-1.759127 -3.109479,-4.704083 -4.587836,-9.001003 l -0.996839,-2.896979 c -0.01361,-0.123089 -0.01577,-0.215736 0.0078,-0.239263 0.01445,-0.01445 0.03513,-0.02183 0.05839,-0.02584 z m 27.09292,1.082106 c -0.874072,0 1.225775,3.321445 4.37596,6.922574 2.868253,3.278844 4.167526,3.706559 2.260846,0.744141 -1.85865,-2.887787 -5.99581,-7.666715 -6.636806,-7.666715 z m 9.880534,3.205488 c -0.05282,-0.0064 -0.09288,0.0024 -0.118337,0.02791 -0.186338,0.18633 0.968824,1.79297 2.567283,3.57084 2.83267,3.150584 4.10569,3.830265 2.84892,1.520838 -0.40668,-0.74731 -1.506432,-1.975305 -2.612242,-3.042708 -0.311549,-0.349665 -0.617916,-0.659188 -0.894,-0.888317 -0.04554,-0.03779 -0.08292,-0.06537 -0.125058,-0.0987 -0.509913,-0.45674 -0.943674,-0.780521 -1.203029,-0.877983 -0.197334,-0.123428 -0.356862,-0.19885 -0.463537,-0.211873 z m 16.205726,0.0067 c -0.0493,0.0019 -0.0874,0.01556 -0.11265,0.04082 -0.1473,0.147312 0.25282,2.144334 0.88883,4.437973 l 1.03973,3.74964 c -0.0716,0.109808 -0.18878,0.200478 -0.35243,0.278535 -0.34623,0.03852 -0.83218,0.08694 -1.4211,0.142111 h -1.10226 c -4.39061,0 -11.839255,1.13833 -18.309993,2.79828 -6.205479,1.591898 -5.744921,1.69707 -8.142139,-1.861902 -1.3999,-2.078333 -1.848802,-0.522128 -0.505912,1.753897 l 1.250569,2.119767 -4.763016,1.94872 c -2.619568,1.071687 -7.266474,3.384426 -10.326502,5.139736 -4.25019,2.438 -5.673892,2.99464 -6.03064,2.35748 -1.672304,-2.98679 -6.95747,-8.359072 -12.056629,-12.255583 -1.574723,-1.203322 -2.476685,-1.687266 -2.7404,-1.096058 -0.09104,0.04205 -0.14056,0.129765 -0.14056,0.272336 0,0.08696 0.02197,0.169577 0.0584,0.246496 0.0038,1.133338 0.729184,3.583025 2.13527,7.785055 1.206764,3.606364 3.038496,7.808194 4.070551,9.337414 l 1.86242,2.75849 -0.535368,0.63097 -2.361613,2.61792 c -1.601295,1.77502 -3.914846,4.77264 -5.140772,6.66109 -0.826561,1.27327 -1.179139,1.81324 -1.613339,2.47996 -0.585266,0.68932 -1.056193,0.98408 -1.504818,0.95188 -0.09477,-0.0646 -0.19177,-0.13371 -0.290938,-0.21601 -1.191991,-0.98927 -1.628659,-0.31511 -1.076937,1.66191 0.07513,0.2692 0.117729,0.56187 0.129191,0.8785 -0.02718,0.61274 -0.170566,1.48348 -0.388607,2.45877 -0.135689,0.45412 -0.305951,0.94003 -0.513146,1.46141 -0.682249,1.71678 -1.796835,5.08804 -2.476852,7.49153 -0.577156,2.03994 -1.000537,4.88178 -1.272272,8.08478 -0.274175,2.42496 -0.415073,4.95342 -0.424265,7.63364 -0.0012,0.33746 7.81e-4,0.68666 0.0052,1.04231 -0.01235,1.83571 0.04476,3.67628 0.171567,5.51336 0.204456,4.52679 0.684397,8.63585 1.444873,11.28097 0.439489,1.52865 1.352672,1.36215 1.591117,-0.28991 0.09453,-0.65494 0.526145,-1.36121 1.207162,-2.07791 0.400066,-0.39418 0.872103,-0.80968 1.401982,-1.233 2.756193,-2.0948 7.246763,-4.07086 11.349177,-4.89272 1.061403,-0.0521 2.347103,-0.0614 4.03283,-0.0517 1.612416,0.009 3.096276,0.0883 4.475178,0.23203 3.977823,0.82569 8.263787,2.39473 10.39368,3.82044 0.236466,0.20357 0.465391,0.41475 0.685231,0.63459 0.199644,0.19964 0.384135,0.37715 0.561205,0.54466 0.07582,0.14225 0.116271,0.27947 0.116271,0.41031 0,1.20667 0.790975,1.48336 1.40095,0.79686 0.337905,0.16041 0.459751,0.038 0.332796,-0.39016 -0.0085,-0.0287 -0.01353,-0.0595 -0.01809,-0.0904 0.03678,-0.0756 0.07227,-0.15497 0.104902,-0.24081 0.887296,-2.33377 6.12489,-6.56666 10.956438,-8.85527 4.504862,-2.13385 10.115616,-3.7007 15.627988,-4.36407 l 1.3441,-0.16175 c 0.0768,-0.005 0.15092,-0.009 0.22738,-0.014 1.12196,0.29486 1.97995,1.2456 3.10626,3.40186 l 5.12579,11.8649 c 5.92283,13.70976 6.58886,15.60887 5.86269,16.71733 -1.08525,1.65659 -4.86037,10.7024 -7.76748,18.20974 -1.3536,3.28516 -2.16698,5.41544 -2.62258,7.05383 -0.54316,1.56432 -0.90275,2.72368 -0.96894,3.20653 -0.55336,4.03715 1.29843,8.14407 4.19252,9.29813 1.1621,0.46341 2.21751,0.92165 2.34507,1.01855 0.12756,0.0969 -0.51869,1.45713 -1.43609,3.02255 -0.9174,1.56542 -1.47201,3.16312 -1.23248,3.55069 0.27418,0.44362 0.75598,0.0935 1.30018,-0.94516 0.48926,-0.93378 1.08413,-1.47671 1.56373,-1.62729 0.0576,-0.008 0.11651,-0.009 0.17518,-0.0124 0.17363,0.0104 0.32005,0.0341 0.42891,0.0827 0.25544,0.20557 0.35293,0.68718 0.16485,1.45055 -0.002,0.007 -0.002,0.0114 -0.004,0.0181 -0.21499,0.85839 -0.21326,1.56063 0.004,1.56063 0.029,0 0.0624,-0.0145 0.0987,-0.0382 0.0388,0.0241 0.0817,0.0377 0.13023,0.0377 0.34336,0 0.80104,-0.70223 1.01647,-1.56063 0.18312,-0.7296 0.66008,-1.34183 1.1343,-1.5105 0.0591,-0.0147 0.11854,-0.026 0.17932,-0.0336 0.33604,0.0277 0.63021,0.27931 0.80615,0.74569 -0.0103,0.21301 -0.0537,0.4728 -0.13539,0.7984 -0.22223,0.88544 -0.12163,1.56063 0.23254,1.56063 0.0362,0 0.0738,-0.009 0.11214,-0.0243 l 0.01,0.33694 0.16381,-0.44804 c 0.27982,-0.24334 0.57094,-0.79074 0.73019,-1.42524 0.21279,-0.84783 0.67266,-1.54209 1.02888,-1.55907 0.009,5.8e-4 0.0169,0.002 0.0253,0.004 0.21311,0.0548 0.33887,0.81363 0.38137,2.35283 0.0259,1.36519 -0.0228,3.31192 -0.15141,5.91333 -0.22492,4.54947 -0.59204,14.80318 -0.81597,22.78621 -0.22393,7.98303 -0.57386,14.51813 -0.77773,14.52313 -0.20387,0.005 -1.00253,0.17796 -1.77509,0.385 -0.15634,0.0419 -0.29274,0.0707 -0.41857,0.0925 -0.0744,0.002 -0.15235,0.004 -0.22893,0.006 -0.34354,-0.12149 -0.57331,-0.34213 -0.75034,-0.71159 -0.004,-0.0577 -0.009,-0.11105 -0.009,-0.17622 -0.008,-4.17285 -5.52848,-7.54094 -9.28625,-5.66631 l -1.29914,0.64801 c -0.0639,0.0231 -0.13117,0.0464 -0.18139,0.0687 -0.18998,0.0843 -0.34354,0.13391 -0.47594,0.15762 l -0.71675,-2.39316 c -1.13974,-3.80411 -4.96083,-7.72817 -8.995312,-9.23767 -7.919193,-2.96295 -16.47149,-0.44751 -20.901051,6.14795 l -1.604553,2.38953 -0.892452,-1.063 -0.375688,-0.63665 c -4.393771,-7.43807 -19.82988,-9.78732 -27.231929,-4.14445 l -2.639116,2.01176 -1.941483,-1.95337 c -1.594633,-1.60457 -4.047739,-2.71088 -6.705534,-3.13262 -1.626439,-0.33744 -3.257642,-0.36192 -4.693253,-0.0207 l -2.093928,0.24804 c -0.171932,-0.13965 -0.343009,-0.3649 -0.529167,-0.69039 l -0.529685,-1.76889 c -0.522666,-1.7445 -1.764085,-3.63668 -3.393591,-5.33094 -0.574195,-0.63915 -1.211391,-1.22129 -1.931148,-1.76268 -0.979347,-0.78476 -2.030868,-1.48308 -3.114022,-2.03915 -2.27507,-1.16798 -4.043911,-1.6058 -7.629508,-1.83968 -2.0475877,-0.21862 -4.1277196,-0.2488 -5.9681109,-0.0858 l -0.8004681,-0.0341 0.5255493,0.061 c -0.8200091,0.0825 -1.5871251,0.20451 -2.2778968,0.3669 -2.11621648,0.3478 -3.5537884,0.88036 -3.5537884,1.47174 0,0.0979 0.085544,0.16444 0.2242757,0.20567 -0.3908328,0.34751 -0.190259,0.29905 0.53898523,0.0419 0.27301938,-0.0171 0.60114438,-0.0741 0.95343015,-0.1726 0.94422892,-0.26406 4.38519672,-0.48059 7.64707842,-0.48059 5.2609714,0 6.3412304,0.20205 9.5658244,1.78542 4.078878,2.00285 6.882801,5.30308 7.979357,9.3922 0.229116,0.85437 0.397391,1.4942 0.563274,1.96422 0.03691,0.44554 0.141092,0.6809 0.380339,0.75964 0.463084,0.57079 1.155234,0.30681 2.886128,-0.29145 6.316778,-2.18331 13.576032,1.99022 13.582634,7.80883 0.0014,1.21772 0.258834,1.90743 0.626835,1.68 0.343355,-0.21223 0.62425,-1.46418 0.62425,-2.78175 0,-1.94827 0.401261,-2.74751 2.147673,-4.28088 1.830347,-1.60707 4.360807,-2.52491 7.140133,-2.86339 0.82474,-0.0409 1.786363,-0.0569 2.948657,-0.0579 0.662037,-5.2e-4 1.251868,0.002 1.785937,0.01 5.282806,0.49841 10.584079,2.73502 13.266375,6.13296 0.25141,0.41972 0.501404,0.8972 0.778764,1.46399 0.27002,0.55182 0.538128,1.06617 0.789614,1.52498 0.378363,1.01299 0.846739,1.78851 1.101225,1.78851 0.03685,0 0.08354,-0.0224 0.137459,-0.062 0.03051,-0.0194 0.06901,-0.0586 0.108522,-0.10078 0.01019,-0.01 0.01891,-0.0165 0.02946,-0.0274 0.105272,-0.0827 0.213077,-0.21643 0.322977,-0.39584 0.37193,-0.51197 0.838906,-1.3081 1.274858,-2.20866 0.593949,-1.22693 1.324943,-2.31771 2.160074,-3.27835 0.0018,-0.002 0.0038,-0.004 0.0057,-0.006 1.310232,-1.38304 2.931337,-2.61919 4.676719,-3.58996 8.246687,-4.09081 19.783407,-0.88722 21.946467,8.77829 l 0.7245,3.23802 2.25826,-1.5322 c 1.65597,-1.12376 2.75832,-1.43732 4.13153,-1.17459 3.31198,0.63357 6.24776,5.52979 3.79099,5.94691 -0.40023,-0.0175 -0.73642,-0.0432 -0.99632,-0.0806 -0.42379,-0.18267 -0.62017,-0.59696 -0.63046,-1.29294 l -0.0207,-1.40457 -1.22783,1.47381 c -0.46233,0.55496 -0.74936,0.89477 -0.92914,1.03148 -0.0353,-0.0482 -0.0707,-0.0981 -0.11059,-0.16899 -0.0456,-0.2304 -0.10565,-0.42968 -0.17466,-0.60307 v -0.016 c -0.002,-0.17796 -0.0199,-0.34682 -0.0486,-0.50385 -0.002,-0.0134 -0.004,-0.0281 -0.006,-0.0414 -0.0889,-0.49983 -0.31606,-0.8599 -0.58291,-0.8599 -0.0312,0 -0.0614,0.009 -0.0915,0.0171 l -0.14314,-0.3292 -0.063,0.45942 c -0.1933,0.19704 -0.32659,0.57333 -0.32659,1.00873 0,0.0184 -0.002,0.0348 -0.003,0.0527 -7.2e-4,0.0497 -0.006,0.0964 -0.01,0.14364 -0.104,0.83212 -0.99521,1.03815 -5.13818,1.36065 -3.13519,0.24408 -5.541782,0.37126 -7.253829,0.3819 -1.859119,-0.0418 -2.842361,-0.15166 -3.186885,-0.44442 -0.0095,-0.0223 -0.01602,-0.0453 -0.01602,-0.0692 0,-0.29705 0.582345,-1.28019 1.293979,-2.18488 0.965422,-1.22735 1.069084,-1.64486 0.40876,-1.64486 -0.996725,0 -2.5655,1.63298 -3.148645,3.27732 -0.159699,0.45032 -0.615407,0.83949 -1.124479,1.00613 -0.143015,-0.004 -0.298989,-0.0152 -0.471289,-0.0351 -0.76758,-0.089 -1.314825,-0.50083 -1.617988,-1.10535 -0.26231,-0.98213 0.03156,-2.44388 0.93431,-3.97394 1.045549,-1.77207 1.149456,-2.29028 0.458886,-2.29028 -0.490932,0 -1.27077,0.70686 -1.733228,1.57096 l -0.209806,0.39172 c -0.532908,0.6351 -0.828376,0.83801 -1.145667,0.68625 l -0.661459,-0.63355 c -0.158654,-0.17386 -0.353398,-0.36078 -0.571023,-0.54726 l -0.0083,-0.008 c -1.119073,-1.07215 -1.841066,-1.44971 -2.066541,-1.25728 -0.138821,-0.0168 -0.16633,0.0699 -0.06924,0.29403 0.04837,0.3946 0.41824,1.11797 1.162719,2.11511 0.84998,1.13847 1.895624,2.74735 2.323889,3.5755 l 0.405659,0.78496 c 0.06123,0.20805 0.09936,0.38688 0.111622,0.53227 -0.04269,0.0643 -0.09857,0.12205 -0.1695,0.17261 l -10.413833,-0.39119 c -5.964724,-0.22394 -12.741375,-0.59078 -15.05903,-0.81547 -1.654717,-0.16041 -2.658909,-0.27837 -3.272152,-0.46455 -0.283681,-0.10981 -0.509458,-0.22998 -0.674894,-0.36693 -0.225065,-0.24381 -0.26665,-0.57676 -0.26665,-1.06968 0,-0.82082 0.453684,-2.18504 1.008208,-3.03136 0.90624,-1.38308 0.909365,-1.53839 0.031,-1.53839 -0.537461,0 -1.251408,0.48958 -1.586465,1.08831 -0.55661,0.99459 -0.735103,0.96763 -2.179712,-0.38706 -0.01147,-0.0104 -0.02325,-0.0219 -0.03462,-0.032 -5.75e-4,-5.3e-4 -9.77e-4,-0.001 -0.0016,-0.002 -2.091071,-1.96445 -2.121709,-0.52396 -0.04651,2.19678 0.85839,1.1254 1.560406,2.276 1.559594,2.55643 -8.1e-4,0.28043 -5.069948,0.57147 -11.264429,0.64699 -11.028717,0.13443 -11.272901,0.1093 -11.761038,-1.21026 -0.360318,-0.97404 -0.09349,-1.94493 0.96325,-3.50213 1.974416,-2.90947 1.849204,-3.8992 -0.230479,-1.81952 l -1.692921,1.69291 -1.734259,-1.66139 c -1.859774,-1.78178 -3.212771,-1.55268 -1.608171,0.27233 0.530148,0.60299 1.564356,2.29039 2.298051,3.74965 l 0.711068,1.41438 c 0.300262,0.76095 0.198112,1.00164 -0.295074,1.23868 h -1.264004 c -1.749026,0 -2.357753,-0.34071 -3.070098,-1.71823 -0.488699,-0.94504 -1.516603,-2.27928 -2.284098,-2.96519 l -1.395263,-1.24695 0.355017,1.14048 c 9.34e-4,0.0522 0.0243,0.11877 0.06046,0.19378 l 0.0217,0.0703 c 0.325297,1.04516 0.187029,1.40457 -0.541053,1.40457 -1.689323,0 -1.063655,1.15591 0.73794,1.36321 1.022043,0.11761 1.716691,0.57632 1.716691,1.1338 0,0.76911 -1.307375,0.96774 -7.318417,1.11207 l -7.318416,0.17621 -0.355017,-1.73683 c -0.195336,-0.95504 -0.605825,-2.67428 -0.912089,-3.82098 -0.490874,-1.83788 -0.302785,-2.43851 1.586983,-5.06893 1.179057,-1.64116 2.143539,-3.16106 2.143539,-3.37757 0,-1.11448 -1.421663,-0.092 -3.309359,2.38021 l -1.738912,2.2779 c -0.207979,0.15788 -0.380134,0.25264 -0.5260657,0.28836 l -1.8572512,-2.63447 c -2.9744595,-4.21989 -3.0746848,-2.79245 -0.1591633,2.26446 3.0485172,5.28757 4.1732272,8.7933 3.0499432,9.50691 -0.421019,0.26746 -3.3641269,0.49109 -6.5401693,0.49609 -3.93115716,0.007 -5.7743246,0.23873 -5.7743246,0.7276 0,0.52147 1.8376126,0.60923 6.7107014,0.32041 3.6910769,-0.21878 16.4031415,-0.5771 28.2489225,-0.79634 17.398949,-0.322 24.417147,-0.18896 36.520768,0.69247 3.865107,0.28146 7.777802,0.48405 11.738816,0.61185 0.347186,0.0203 0.859655,0.0334 1.444874,0.0429 9.694531,0.2663 19.686156,0.0768 30.026586,-0.57206 l 8.04861,-0.0755 c 0.0647,0.17741 0.15181,0.46903 0.24443,0.80307 v 0.65061 c 0,1.57345 -0.30988,2.0284 -1.60249,2.35283 -1.48862,0.37362 -1.57311,0.58481 -1.19166,2.97706 0.12859,0.80638 0.39064,1.63688 0.69298,2.2872 0.0754,0.2368 0.15244,0.4342 0.22583,0.56639 0.0658,0.11848 0.11991,0.15846 0.16278,0.13332 0.0685,0.0994 0.13684,0.18968 0.20412,0.25424 0.0415,0.0433 0.0828,0.0829 0.12351,0.11472 0.04,0.0313 0.0729,0.0611 0.10852,0.0915 0.11131,0.10517 0.19311,0.20481 0.2496,0.29972 -0.0716,0.14023 -0.14065,0.27816 -0.20464,0.41497 -0.35934,0.11996 -0.77332,0.6549 -0.97565,1.29241 -0.27776,0.87517 -0.0492,1.6605 0.62528,2.30582 0.0964,0.20098 0.21649,0.36184 0.36432,0.45321 0.10908,0.0674 0.34309,0.1524 0.64699,0.24442 0.52563,0.26932 1.16051,0.49726 1.90583,0.67334 v -5.1e-4 c 1.26955,0.29993 3.65215,0.46122 6.22029,0.49866 1.72525,0.0677 3.42021,0.0369 4.98419,-0.0837 2.1842,-0.10943 4.041,-0.31308 4.87981,-0.60719 3.06521,-1.07474 3.62261,-2.30026 2.30683,-5.07307 -0.59789,-1.25997 -1.24636,-3.32968 -1.44126,-4.59973 -0.19488,-1.27003 -0.60114,-2.62498 -0.90278,-3.01067 -0.0236,-0.0302 -0.0433,-0.0667 -0.0641,-0.10128 -0.0637,-0.13811 -0.11629,-0.27599 -0.16175,-0.41341 -0.0891,-0.38052 -0.0737,-0.8363 0.0667,-1.202 0.30366,-0.79135 1.27122,-1.01545 4.38113,-1.01545 1.56068,0 2.51962,0.0273 3.10576,0.14986 0.39687,0.20889 0.65965,0.46072 0.78961,0.75502 -0.0182,0.14377 -0.0525,0.30776 -0.0992,0.50072 -0.0451,0.18661 -0.23847,0.96301 -0.32607,1.31932 -0.0339,0.032 -0.0679,0.0623 -0.10336,0.0842 -0.34336,0.21219 -0.62425,1.17438 -0.62425,2.13839 0,0.964 -0.61535,3.23355 -1.36736,5.04309 l -1.36736,3.29025 1.39423,1.12861 c 1.87801,1.52069 5.92374,2.04618 12.93461,1.67946 3.96514,-0.20738 6.34363,-0.63851 7.42126,-1.34461 0.50731,-0.33239 0.90239,-0.75747 1.17047,-1.20819 0.2274,-0.28776 0.34918,-0.59153 0.3576,-0.90744 0.14541,-0.713 -0.0437,-1.38089 -0.63304,-1.74512 -0.45217,-0.27945 -0.47361,-0.56165 -0.0615,-0.817 0.34635,-0.21458 0.81955,-1.65508 1.0511,-3.20083 0.14773,-0.98618 0.2335,-1.62737 0.19585,-2.08102 -0.004,-0.52406 -0.16251,-0.77632 -0.56534,-0.95084 -0.2643,-0.16687 -0.62967,-0.3144 -1.13016,-0.50334 -0.75365,-0.28445 -1.40324,-0.73649 -1.71721,-1.15133 -0.0369,-0.15103 -0.0678,-0.31049 -0.0884,-0.48681 l -0.0248,-0.21188 c 0.67144,-0.75729 5.77247,-0.99835 34.08939,-1.88359 7.29632,-0.22807 13.26586,-0.65244 13.26586,-0.94258 0,-0.12695 -0.0512,-0.24202 -0.13333,-0.33332 0.0488,-0.0544 2e-4,-0.0882 -0.13591,-0.1111 -0.0887,-0.0516 -0.19314,-0.0827 -0.30541,-0.0827 -0.63218,0 -1.05543,-1.58708 -1.04541,-3.06494 -1.88871,-3.65712 -0.98699,-2.79959 -1.88871,-3.65712 -0.50662,-0.66718 -0.78135,-0.75224 -0.82889,-0.30541 -1.7e-4,0.002 -3.6e-4,0.004 -5.2e-4,0.005 -0.0155,0.0841 -0.0144,0.20066 0.002,0.34417 0.0487,0.68519 0.33632,1.9196 0.86816,3.67212 l 0.8692,2.86597 -1.36529,0.10232 -4.88032,0.15298 c -6.88574,0.21614 -7.57038,-0.11917 -6.94325,-3.39979 0.0113,-0.0589 0.0174,-0.11269 0.0258,-0.16899 0.14418,-0.76901 0.15454,-1.20634 0.0155,-1.34049 -2.6e-4,-2.9e-4 -7.7e-4,-2.3e-4 -0.001,-5.3e-4 -0.0104,-0.01 -0.021,-0.0197 -0.0331,-0.0263 -0.0138,-0.008 -0.0289,-0.014 -0.0455,-0.0176 h -5.1e-4 c -0.0327,-0.007 -0.0716,-0.004 -0.11524,0.008 -0.28332,-0.35827 -0.7793,-0.16586 -1.14515,0.78754 -0.21459,0.55919 -0.67405,0.76512 -1.52032,0.67024 -0.73464,-0.35393 -1.10967,-0.43259 -1.09606,-0.20722 l -1.20975,-0.26199 2.0345,1.76474 c 1.11901,0.97052 2.03182,1.97543 2.02882,2.23295 -0.001,0.11467 -0.51907,0.2186 -1.34307,0.30023 l -1.92391,0.12403 c -0.7081,0.0274 -1.48793,0.0439 -2.3151,0.0439 -5.10566,0 -5.61123,-0.10993 -5.98982,-1.30275 -0.14475,-0.45606 -0.21311,-0.96012 -0.21807,-1.49088 l 0.045,-0.54054 c 0.0341,-0.41074 0.0874,-0.80402 0.15141,-1.18803 0.36021,-1.59274 1.19665,-3.26485 2.40089,-4.6364 1.59766,-1.81964 3.34273,-3.00071 5.22552,-3.54347 0.0304,-0.007 0.0615,-0.0127 0.092,-0.0196 0.59788,-0.12366 1.22484,-0.21136 1.88205,-0.2589 0.33253,-0.0241 0.64275,-0.0409 0.93948,-0.0522 0.0512,5e-5 0.10226,0.003 0.15348,0.004 1.58707,0.0991 3.25589,0.59014 5.00279,1.47639 0.64914,0.32933 1.26073,0.6196 1.8154,0.8723 0.53369,0.3504 0.93437,0.55032 1.22473,0.57826 0.0717,0.0521 0.12714,0.09 0.14056,0.0925 0.003,6.1e-4 0.006,-0.023 0.009,-0.032 l 0.0584,0.0413 0.004,-0.0775 c 0.15035,0.0512 0.27029,0.0861 0.32556,0.0863 0.27856,0.001 0.32481,-1.21125 0.10232,-2.69493 -0.0732,-0.48827 -0.11211,-0.97733 -0.12195,-1.46347 0.0142,-0.26989 0.0257,-0.54822 0.0331,-0.83303 0.005,-0.20635 0.0164,-0.40103 0.0264,-0.59841 0.45775,-4.46013 3.42279,-8.40522 7.30859,-9.18239 1.00194,-0.20039 1.8216,-0.64521 1.8216,-0.98857 0,-1.03592 -3.44874,-0.0368 -5.75779,1.57458 -0.50724,0.30609 -0.96944,0.62647 -1.33067,0.94723 -0.42701,0.37918 -0.85321,0.91449 -1.25419,1.54306 -1.47434,1.91398 -2.26788,4.1702 -2.26859,6.56394 l -5.2e-4,0.71107 c -5e-5,0.0111 -5.2e-4,0.0224 -5.2e-4,0.0336 0,0.0396 -9e-5,0.0657 0,0.10387 -0.10587,0.85515 -0.22363,1.34292 -0.46095,1.53376 l -0.49196,-0.20568 -1.04593,-0.54053 c -4.47746,-2.31538 -11.72871,-0.59944 -14.7531,3.49126 -1.60559,2.17167 -2.74636,6.39019 -2.2562,8.34316 0.0273,0.10874 0.0441,0.19402 0.0651,0.28784 l -0.0491,0.8382 c -0.34711,0.41442 -1.55193,0.47826 -4.83639,0.62992 -2.86048,0.13253 -6.98543,0.12845 -9.16689,-0.008 l -3.90725,-0.24495 0.01,-0.65114 0.37362,-3.484 c 0.52825,-4.93276 0.7603,-24.21122 0.56275,-35.43712 0.10308,-0.22717 0.14922,-0.50416 0.17519,-0.85576 0.0665,-0.90054 -0.0182,-1.09901 -0.20103,-0.47026 -0.0611,-2.76802 -0.15088,-4.94509 -0.27491,-6.06319 -0.53093,-4.78613 -0.49472,-5.03245 0.97255,-6.56395 4.26772,-4.45453 4.90067,-14.57876 1.77405,-28.38896 -0.61344,-2.70954 -1.12995,-4.07671 -2.21899,-5.44101 -0.40167,-0.63924 -0.82619,-1.1121 -1.26969,-1.3808 l -1.98851,-1.96887 c -0.1139,-0.26063 -0.21224,-0.53388 -0.29248,-0.81235 l 0.24339,-5.48442 c 0.18115,-4.08134 0.5753,-6.41125 1.2392,-7.32462 3.1389,-4.31843 3.09285,-4.19883 2.36161,-6.13606 -0.0743,-0.19683 -0.13404,-0.39036 -0.18655,-0.58291 0.007,-0.2275 0.0163,-0.43697 0.0217,-0.68729 0.017,-0.78915 0.0282,-1.43518 0.0403,-2.10582 0.004,-0.0116 0.007,-0.0236 0.0114,-0.0351 1.00491,-2.64313 0.64211,-6.63742 -0.89865,-9.89655 -2.61004,-5.52098 -6.15559,-7.80366 -12.12174,-7.80366 -1.48116,0 -3.93634,-0.31291 -5.456,-0.69556 -2.17767,-0.54835 -3.9019,-0.59508 -5.63221,-0.0134 l -0.6656,-0.0662 -0.98288,0.80099 c -1.06568,0.59568 -2.1855,1.43499 -3.45819,2.54765 -4.31958,3.77639 -5.08217,5.02285 -5.12992,8.52609 -0.0105,0.0893 -0.0209,0.15895 -0.0315,0.25218 -0.10928,0.96259 -0.21493,1.76806 -0.30541,2.3828 -0.21431,0.4456 -0.55496,0.7081 -1.09295,0.94413 -0.17428,0.0765 -0.33623,0.18458 -0.48576,0.31626 -0.84981,0.46729 -1.26611,1.58313 -1.21233,2.79673 v 5.2e-4 0.002 c 0.005,0.11082 0.0135,0.22181 0.0264,0.33383 -0.013,0.99618 0.25199,1.94382 0.85938,2.44791 0.13617,0.11301 0.25998,0.30046 0.37001,0.54312 0.0264,0.0581 0.0491,0.12903 0.0739,0.19327 0.0309,0.0807 0.0619,0.16148 0.091,0.24598 0.61491,1.91653 0.64338,5.70747 -0.17466,6.21305 -0.33434,0.20664 -0.55858,2.11911 -0.49868,4.25039 0.0936,3.33139 -0.8368,6.23554 -2.13734,7.06882 -0.15808,0.0736 -0.31678,0.11573 -0.47387,0.12351 -0.3114,-0.11782 -0.65495,-0.43357 -1.05213,-0.96997 -1.14318,-2.03909 -3.35413,-6.73694 -5.6994,-12.17962 -7.24845,-16.82163 -6.78386,-15.45125 -5.24154,-15.45125 0.70319,0 1.45229,0.28089 1.6645,0.62425 0.41509,0.67163 0.86096,0.78013 1.16944,0.44183 0.44637,0.30384 0.49466,0.16634 0.25631,-0.48524 0.0851,-0.26857 0.13488,-0.6114 0.13488,-1.02216 0,-2.47195 6.63586,-8.67433 12.1052,-11.31455 5.71992,-2.76119 12.7786,-4.29897 15.90343,-3.46491 l 2.0252,0.54054 c 0.39732,0.32363 0.53598,0.1095 0.55707,-0.76275 l 0.79375,-2.69389 c 0.5857,-1.98734 1.65949,-3.94608 3.08456,-5.7397 0.96364,-1.16012 2.06312,-2.27792 3.24838,-3.29127 1.31493,-1.07989 2.76586,-2.0289 4.31189,-2.79001 4.47644,-2.20374 9.88028,-3.09724 11.35072,-1.87689 0.15012,0.12459 0.28282,0.22152 0.40618,0.30489 0.10446,0.19021 0.28169,0.31626 0.48214,0.31626 0.0765,0 0.1375,-0.0258 0.18397,-0.0755 0.41467,-0.13661 0.16489,-1.34782 -0.74052,-3.74447 -4.94216,-13.08211 -23.1529,-25.893936 -42.1628,-29.663304 -5.26213,-1.043397 -5.8359,-1.315407 -9.05165,-4.285011 -3.60872,-3.332486 -6.97871,-5.869895 -7.71891,-5.840987 z m -60.439717,0.533302 c -0.130826,0 -0.130778,0.148458 -0.03928,0.397391 l -0.08992,-0.08527 0.116272,0.163814 c 0.55967,1.343649 3.520696,5.29917 6.605799,8.696629 1.676267,1.845987 3.190695,3.213563 3.365169,3.039089 0.650989,-0.650992 -8.776221,-12.211656 -9.958049,-12.211656 z m 114.736147,0.06305 c -0.0201,0.002 -0.0362,0.0088 -0.0481,0.02067 -0.45238,0.452382 3.47357,5.694561 7.05642,9.422165 1.56,1.623025 2.96298,2.82427 3.11764,2.669603 0.31699,-0.316979 -3.59072,-5.454494 -7.34219,-9.653156 -1.28252,-1.435404 -2.48249,-2.489391 -2.78381,-2.459281 z m -52.51514,1.949752 c 0.28311,0.0037 1.62913,1.041802 3.12487,2.420524 3.37369,3.109767 6.11985,7.4656 5.58519,8.858891 -0.84283,2.19639 -2.90072,1.695354 -4.82916,-1.068671 -0.35651,-0.561274 -0.72946,-1.216893 -1.10433,-1.924428 -1.41762,-2.91342 -3.18112,-7.911225 -2.81894,-8.273397 0.009,-0.0092 0.0235,-0.01317 0.0424,-0.01292 z m -83.451237,1.091922 c -0.04325,-0.0069 -0.0761,6.51e-4 -0.09818,0.02274 -0.435628,0.435631 4.435261,6.858648 9.345681,12.323794 6.285939,6.996057 6.060181,5.441217 -0.356565,-2.456696 -5.219044,-6.42375 -8.2422,-9.785881 -8.890932,-9.889836 z M 2.0494377,85.683142 c -0.184031,-0.03335 -0.015902,0.294971 0.3824057,1.039215 0.3993078,0.746111 2.5700341,3.311138 4.8234782,5.69991 4.0982374,4.344345 4.5773554,4.751025 4.5619954,3.874699 C 11.804286,95.55372 4.7996742,87.524602 3.175984,86.391628 2.5486934,85.953919 2.192573,85.709082 2.0494377,85.683142 Z m 16.2176143,5.463749 c -0.529329,0 -0.390746,1.27327 0.482658,4.425053 1.517748,5.476986 3.843649,10.157886 5.689059,11.450466 1.896747,1.32853 3.196767,1.22915 4.594034,-0.39119 0.282773,-0.26956 0.501899,-0.56498 0.660426,-0.88419 1.003364,-1.59809 0.624994,-2.91566 -1.468128,-6.010997 -1.703556,-2.519246 -8.740738,-8.589142 -9.958049,-8.589142 z m 91.963378,0.0026 c 3.65571,-0.0024 3.86007,0.07995 4.59455,1.853118 1.10457,2.666667 3.32279,4.841523 5.04569,4.996077 0.43424,0.07417 0.86067,0.03148 1.27951,-0.130742 1.29181,-0.36237 2.12673,-1.391578 2.29495,-2.82825 0.003,-0.02354 0.005,-0.0475 0.007,-0.07132 0.0353,-0.349853 0.0361,-0.720113 -0.01,-1.11311 -0.3009,-2.577404 -0.1441,-2.587752 8.00984,-0.520898 12.13852,3.076858 26.17648,11.599264 32.54169,19.755904 l 2.60655,3.33984 -3.25354,0.47388 c -3.83145,0.55785 -9.75624,3.33412 -13.17543,6.17378 -1.33664,1.11009 -3.16246,3.15886 -4.05763,4.55269 l -1.62781,2.53422 -1.8371,-3.71812 c -0.005,-0.0117 -0.009,-0.0213 -0.0145,-0.0331 -1.07549,-2.53052 -2.41779,-4.9752 -3.98632,-7.31118 -6.21997,-9.67488 -15.44435,-16.93109 -26.96373,-21.135141 -6.20389,-2.26414 -12.626028,-3.679804 -17.025837,-3.752744 -0.611939,-0.01014 -1.074232,-0.02129 -1.451589,-0.03617 -0.428429,-0.06509 -0.762526,-0.131464 -0.97927,-0.198956 0.111646,-0.08847 0.477022,-0.212749 1.06712,-0.39429 3.400073,-1.046025 13.044106,-2.433011 16.935916,-2.435511 z m -59.905903,1.245918 c 0.192601,0 2.59198,2.177457 5.332489,4.838464 4.376754,4.249787 6.801978,7.545927 7.268292,9.869687 0.01249,0.10324 0.01944,0.20353 0.02584,0.30386 0.04997,1.15697 -0.381815,2.08607 -1.321882,2.74453 -0.06201,0.0434 -0.123296,0.0805 -0.185518,0.12247 -1.234411,0.47461 -2.952065,0.0705 -4.121195,-1.09864 -2.212636,-2.21263 -8.287845,-16.780371 -6.998023,-16.780371 z m -30.646192,1.137917 c 0.284607,-0.05098 1.043198,0.598358 2.32544,1.670182 4.434365,3.706665 7.012018,7.639812 6.357751,9.701222 -1.005943,3.16945 -4.915917,-0.0437 -7.043497,-5.788283 -1.458248,-3.937336 -2.055657,-5.508617 -1.639694,-5.583121 z m 68.25113,1.983341 h 4.943369 c 16.554606,0 36.283636,11.036763 45.509366,25.458903 1.72827,2.70173 4.60841,8.46435 5.09013,10.09809 -0.25481,0.21246 -1.13892,0.45129 -2.31717,0.63976 -0.19901,0.004 -0.38476,0.0119 -0.59583,0.0119 -4.04075,0 -9.50745,1.47632 -14.92209,4.02973 -2.7464,1.29514 -5.83928,3.4246 -7.96592,5.48442 l -3.47679,3.36724 -0.63975,-2.53886 c -3.6307,-14.40887 -12.16985,-30.92479 -21.727878,-42.02482 z m -3.496942,0.567922 -1.027846,1.432989 C 78.581956,104.24338 74.10325,114.70454 72.2343,123.60951 c -1.53193,7.29914 -1.641891,19.18982 -0.248563,26.82007 0.530492,2.9051 0.889511,5.35611 0.798401,5.44721 -0.09111,0.0911 -1.693553,-0.41964 -3.56154,-1.13533 -2.849311,-1.09166 -4.301363,-1.249 -9.014955,-0.9772 -3.41118,0.1967 -7.169091,0.86481 -9.565306,1.70067 -2.17074,0.75721 -5.331328,2.30818 -7.023343,3.44682 l -3.006535,2.02365 c -0.023,-0.36872 -0.04588,-0.73661 -0.06615,-1.1126 l 0.01809,-5.50922 c 0.02472,-7.56817 1.130282,-14.69289 3.18275,-20.50676 l 1.138949,-3.22461 0.300757,-0.67851 1.402498,2.95176 c 0.790919,1.66411 2.139395,3.40064 2.9962,3.85919 1.359805,0.72775 1.717082,0.68931 2.812232,-0.30179 2.062869,-1.86687 1.555906,-3.8196 -1.955953,-7.53287 l -2.270146,-2.40037 -0.900721,-0.96273 0.457337,-0.78032 1.88154,-2.83445 c 1.30842,-1.97063 3.740033,-5.02181 5.403286,-6.78046 2.426356,-2.56551 3.33107,-3.13867 4.576466,-2.9006 2.296353,0.43897 4.545746,-1.32913 5.039485,-3.961 0.343156,-1.82915 1.018336,-2.62975 3.618383,-4.28914 3.909277,-2.49495 8.662326,-4.921221 12.955799,-6.613554 z m 2.17506,0.230479 c 0.06444,0.0031 0.127868,0.01334 0.190685,0.02739 l 2.944524,3.222027 c 6.705277,7.336645 14.942228,21.965555 19.674248,34.159155 0.48386,1.28559 0.93741,2.55408 1.34307,3.78685 0.39057,1.18688 0.75445,2.3063 1.08521,3.33468 0.27106,0.9495 0.51032,1.86741 0.70745,2.74144 l 0.35192,1.56062 -4.77439,0.0419 c -3.4e-4,-1e-5 -7e-4,2e-5 -0.001,0 -1.04901,-0.0491 -2.22014,-0.0205 -3.46491,0.0677 -6.775357,0.30176 -13.112048,1.9332 -20.120218,5.16713 -2.752658,1.27021 -6.031468,3.21102 -7.28586,4.31239 -0.09682,0.085 -0.191651,0.16164 -0.287319,0.24081 -0.153318,0.11601 -0.292214,0.22587 -0.419097,0.33125 -0.966981,0.72908 -1.780884,1.09575 -1.946135,0.82837 -0.20452,-0.33093 -0.816745,-3.50066 -1.360641,-7.04401 -0.135318,-0.88159 -0.250857,-1.77531 -0.349848,-2.67787 -0.121179,-2.52565 -0.185978,-5.49306 -0.179319,-8.75864 0.0045,-2.20748 0.02244,-4.02419 0.05891,-5.60586 0.499096,-5.81478 1.638043,-11.66797 3.386357,-17.18086 1.767059,-5.572 5.86087,-13.74807 8.290448,-16.558685 l 1.651064,-1.909961 c 0.174797,-0.06457 0.34267,-0.09355 0.504878,-0.08578 z m -55.009044,2.357981 c -0.02139,0.0028 -0.03911,0.01052 -0.05219,0.02325 -0.484871,0.471852 3.337689,5.616131 7.020761,9.448001 1.560001,1.62304 2.962973,2.82428 3.117638,2.66961 0.334835,-0.33483 -3.704511,-5.73522 -7.239352,-9.67848 -1.298503,-1.448536 -2.526001,-2.503988 -2.846853,-2.462385 z m 167.447141,8.705411 c -1.17167,0 -0.45317,1.26434 2.64428,4.65346 0.15677,0.17153 0.30584,0.33028 0.45424,0.48834 5.7e-4,6.2e-4 9.8e-4,0.001 0.002,0.002 0.0974,0.11547 0.19039,0.22235 0.2775,0.31833 0.23523,0.25919 0.48361,0.49948 0.72244,0.70848 2.16318,2.13103 2.94146,2.22055 1.35547,-0.19998 -1.5797,-2.41092 -4.83267,-5.9707 -5.45548,-5.9707 z m -20.05459,0.0987 c -0.11349,0.007 -0.20309,0.0516 -0.27388,0.12868 -0.12673,0.0429 -0.20775,0.16569 -0.20775,0.35966 0,0.057 0.009,0.11147 0.0217,0.16433 -0.0134,0.11274 -0.0217,0.23504 -0.0217,0.37569 0,2.16992 2.59386,8.78332 4.06952,10.3756 1.63975,1.76931 2.29033,1.92226 4.08709,0.96066 0.80421,-0.4304 1.20717,-1.30745 1.20717,-2.62619 0,-1.27674 -0.4899,-2.24565 -2.31098,-4.17391 -0.3624,-0.39828 -0.77069,-0.81384 -1.20974,-1.233 -0.16998,-0.16837 -0.31946,-0.32035 -0.5054,-0.50178 -2.75512,-2.68822 -4.19307,-3.87005 -4.85603,-3.82974 z m -162.962661,0.0289 c -0.566722,-0.0489 1.257701,2.17752 5.161442,6.11487 3.133941,3.16091 5.853583,5.59119 6.044075,5.40071 0.49788,-0.49788 -4.999639,-6.7788 -8.301818,-9.4847 -1.653844,-1.35519 -2.606844,-2.00528 -2.903699,-2.03088 z m 164.031851,2.13889 c 0.0534,-0.004 0.12197,0.0121 0.19585,0.0341 0.33922,0.2149 0.95831,0.7825 1.98024,1.757 2.56919,2.44992 4.27169,5.02895 4.1708,6.21978 -7.1e-4,0.002 -8.2e-4,0.004 -0.002,0.006 -0.0127,0.033 -0.0266,0.0622 -0.0398,0.0935 -0.094,0.16521 -0.23027,0.32568 -0.41082,0.49558 -0.11679,0.10991 -0.24921,0.20666 -0.38861,0.28939 -0.32422,0.0859 -0.69312,0.0605 -1.04386,-0.0729 -0.35567,-0.20293 -0.73582,-0.53877 -1.1281,-0.99943 -0.99483,-1.49721 -2.81812,-5.29288 -3.31453,-6.96856 -0.1117,-0.37708 -0.17422,-0.64072 -0.1633,-0.78703 0.0347,-0.0401 0.0819,-0.0635 0.14367,-0.0677 z m -13.95471,8.369 c 0.75226,-0.002 1.19208,0.0867 1.51412,0.32711 0.28227,0.3595 0.54789,0.83013 0.85835,1.43867 l 0.19585,0.38344 c 0.73132,1.73283 0.38337,2.0029 -2.42724,2.28151 l -0.53537,-0.0491 0.28474,0.0739 c -0.1638,0.0156 -0.29584,0.0302 -0.47542,0.0465 -6.62215,0.60048 -14.68585,6.01142 -17.678,11.86232 -0.65847,1.28758 -1.30725,2.34094 -1.44177,2.34094 -0.13452,0 -0.42951,-1.09572 -0.65577,-2.43499 -1.10786,-6.55733 9.06194,-15.47915 18.43143,-16.16955 0.8118,-0.0598 1.43713,-0.0995 1.92908,-0.10077 z m 30.60537,7.07812 c -0.0631,0.004 -0.0977,0.0456 -0.0977,0.12919 0,0.79299 1.6583,3.25387 3.64629,5.41156 2.10043,2.27971 2.9435,2.18474 1.54977,-0.17467 -1.17978,-1.9972 -4.48834,-5.40785 -5.09839,-5.36608 z m -150.902935,1.34307 c 0.24162,0.0194 0.889646,0.60043 2.207101,1.85673 2.863491,2.73058 4.372848,5.18237 3.938778,6.39858 -0.117946,0.33046 -0.434768,0.61279 -0.777213,0.72605 -0.508603,0.0653 -1.127773,-0.18258 -1.748729,-0.73484 -0.899171,-1.13007 -3.026643,-5.49613 -3.568777,-7.32616 -0.03556,-0.12005 -0.05909,-0.21357 -0.08423,-0.3111 -0.04391,-0.19243 -0.07251,-0.35864 -0.07803,-0.48162 0.0078,-0.0869 0.0407,-0.1333 0.111104,-0.12764 z m -29.162042,1.54461 c -0.747434,0 4.463204,6.54718 11.023617,13.85135 3.048854,3.3945 5.685954,6.0291 5.860108,5.85494 0.656682,-0.65668 -15.664431,-19.70629 -16.883725,-19.70629 z m 123.313397,5.10408 c 0.20656,0.002 0.41049,0.007 0.61134,0.017 1.4408,0.0699 2.33578,0.12166 2.94039,0.2806 0.22618,0.10155 0.40758,0.22422 0.5302,0.37259 0.35467,0.4292 0.84201,1.83368 1.08262,3.12126 l 0.41031,2.1978 -2.04536,0.14056 -0.58859,5.1e-4 c -0.0352,3e-5 -0.0721,0.002 -0.10749,0.003 h -0.93327 c -4.4887,0 -9.04649,1.29058 -14.81305,4.19457 -2.56577,1.2921 -5.78365,3.6334 -7.89409,5.74384 l -3.56258,3.56257 -0.33848,-2.52336 c -0.63524,-4.73608 3.60632,-9.58514 11.80962,-13.50098 4.15062,-1.98131 9.28769,-3.33051 12.85813,-3.60909 0.0133,1e-4 0.027,-6.4e-4 0.0403,-5.1e-4 z m 54.35224,7.64294 c -0.0226,-0.004 -0.0396,-10e-4 -0.0501,0.009 -0.43144,0.43145 4.30133,6.54966 8.8222,11.40448 4.92475,5.28854 5.48006,5.23921 1.418,-0.12609 -3.13215,-4.13706 -9.4888,-11.15982 -10.19008,-11.28769 z m -25.24652,0.98702 c -0.9586,0 0.3211,1.88331 4.13567,6.08697 3.6334,4.00401 5.76097,5.29462 3.50469,2.12597 -2.06789,-2.90409 -7.00659,-8.21294 -7.64036,-8.21294 z m -25.60257,4.13877 c 4.42744,0.0482 13.1509,1.65275 14.95723,2.75125 2.36136,1.43603 5.7535,8.11261 5.6689,11.15798 -0.0342,1.23275 -0.28733,2.94344 -0.56224,3.80183 -0.49648,1.55026 -0.50093,1.54821 -0.67128,-0.31212 -0.0943,-1.03006 -0.10345,-2.92611 -0.0202,-4.2137 0.0865,-1.33773 -0.13441,-2.34146 -0.51521,-2.34146 -0.36652,0 -0.67093,0.63253 -0.67593,1.40508 -0.005,0.77256 -0.27103,1.81796 -0.59066,2.32338 -0.67627,1.06934 -0.89733,0.62451 -1.54255,-3.10369 -0.5137,-2.96838 -2.27724,-7.49154 -2.92075,-7.49154 -0.28813,0 -0.35687,0.83417 -0.15296,1.85364 0.20389,1.01948 0.18619,2.33426 -0.0393,2.92178 -0.33458,0.87189 -0.63005,0.67456 -1.60869,-1.07332 -0.049,-0.0875 -0.0983,-0.18275 -0.14779,-0.27285 -0.10094,-0.20722 -0.2193,-0.42141 -0.34572,-0.63665 -0.002,-0.003 -0.003,-0.006 -0.005,-0.008 -0.49256,-0.93435 -0.94258,-1.86548 -1.11208,-2.31614 -0.59769,-1.58908 -1.19545,-1.36822 -3.34088,1.23455 -1.9083,2.31528 -1.91874,2.31905 -1.91874,0.66921 0,-0.33982 0.0636,-0.72018 0.17156,-1.09192 0.12088,-0.28571 0.24923,-0.56882 0.38551,-0.83612 0.09,-0.1766 0.16537,-0.33314 0.24701,-0.49868 0.0668,-0.0899 0.13585,-0.17151 0.20671,-0.24236 0.55594,-0.55591 0.84002,-1.18208 0.63096,-1.39113 -0.0226,-0.0226 -0.052,-0.0403 -0.0847,-0.0553 0.0227,-0.0775 0.0315,-0.12919 0.0129,-0.12919 -0.16342,0 -0.37488,0.0441 -0.61702,0.11937 -1.53058,0.27615 -4.93909,2.17442 -5.9924,3.51349 -1.72075,2.18762 -1.6416,-0.0155 0.0879,-2.4443 0.7101,-0.99723 1.13415,-1.81281 0.94206,-1.81281 -0.0894,0 -0.28581,0.0965 -0.5457,0.25321 -0.002,-0.0167 -0.007,-0.0293 -0.014,-0.0367 -0.054,-0.054 -0.51161,0.28685 -1.20096,0.87282 -1.89434,1.38674 -4.6901,3.72413 -5.48338,4.70152 -0.2504,0.30852 -0.43704,0.53402 -0.58033,0.68471 -0.14994,0.0712 -0.25732,0.0827 -0.32504,0.0331 5.5e-4,-0.28973 0.15484,-0.97823 0.42943,-2.18127 0.79628,-3.48861 3.7485,-5.84579 7.27294,-5.80739 z m 39.74744,0.3576 c -0.0253,-0.002 -0.0436,0.002 -0.0543,0.0129 -0.009,0.009 -0.0141,0.0266 -0.0212,0.0398 -0.0137,0.007 -0.03,0.0113 -0.0403,0.0217 -0.83618,0.83618 2.81024,10.42909 4.88342,13.0204 0.58284,0.80076 1.02918,1.26115 1.53014,1.48621 1.52516,1.20604 2.5866,1.04883 3.98425,-0.34882 1.74985,-1.74985 1.56344,-3.2361 -0.79426,-6.32726 -2.11379,-2.77136 -7.98177,-7.63498 -9.35602,-7.86722 -0.0532,-0.0207 -0.10009,-0.0355 -0.13178,-0.0377 z m -76.92088,0.50643 c 0.76856,0.001 1.41868,0.007 2.03863,0.0165 3.07587,0.17604 5.18184,0.9875 5.51129,2.60605 0.15974,0.7847 0.45394,2.19924 0.65371,3.14347 l 0.27751,1.31155 c -0.0682,0.17365 -0.18977,0.30566 -0.40101,0.40515 h -5.66787 c -10.288846,0 -20.164313,3.29283 -27.295498,9.10125 -1.863865,1.51814 -3.48846,2.76004 -3.610631,2.76004 -0.122166,0 -0.733473,-1.68922 -1.358574,-3.75378 -1.128948,-3.72866 -1.127723,-3.76299 0.178284,-5.15317 0.02247,-0.0239 0.04746,-0.0474 0.07028,-0.0713 l 0.729671,-0.65939 c 0.7123,-0.64352 1.529892,-1.27295 2.430859,-1.88257 6.626016,-4.30785 18.196774,-7.5225 25.987049,-7.81864 0.15212,-0.002 0.30557,-0.005 0.4563,-0.005 z m 78.14252,1.37097 1.46347,1.04232 c 0.37966,0.27033 0.74873,0.56069 1.11208,0.85886 0.58371,0.5461 1.22188,1.16939 1.88877,1.85622 0.58491,0.60239 1.06247,1.11112 1.49448,1.58284 1.27981,1.61996 2.15596,3.22462 2.3518,4.41627 -0.21986,1.61745 -1.33255,2.22009 -2.55127,1.71049 -1.38846,-0.86986 -3.15873,-3.84933 -4.72684,-8.0579 l -0.98444,-2.64222 c -0.0806,-0.37601 -0.10564,-0.65124 -0.048,-0.76688 z m -38.21266,2.68149 c 0.34016,0.0337 0.29499,0.65334 0.0579,2.38332 -0.37124,2.70845 0.45626,5.41724 1.65519,5.41724 0.0458,0 0.0973,-0.0274 0.15193,-0.0739 0.15141,-0.0621 0.2801,-0.23477 0.36225,-0.52451 0.2669,-0.50831 0.55486,-1.28941 0.77722,-2.17248 0.38374,-1.52396 1.21005,-3.23485 1.83658,-3.80183 0.51831,-0.46907 0.81398,-0.69813 1.07797,-0.62374 l 0.50023,0.64131 c 0.23309,0.29896 0.50881,0.80669 0.77876,1.39939 0.41662,0.97196 0.84021,2.23592 1.03198,3.12643 0.0955,0.44354 0.22368,0.81452 0.3731,1.11156 0.089,0.52276 0.34091,0.77018 0.65371,0.7984 0.0396,0.0229 0.0822,0.0308 0.12919,0.0217 0.52172,0.18307 1.0783,-0.22981 1.43454,-1.30741 l 0.36948,-1.11725 0.11318,-0.22479 0.43356,1.4981 c 0.24856,0.85839 0.47998,3.03585 0.51418,4.83846 0.0585,3.0794 0.24798,3.68427 1.42782,2.7678 0.0349,-0.026 0.0702,-0.0544 0.10646,-0.0858 0.154,-0.12489 0.32083,-0.26833 0.50798,-0.4377 1.36712,-1.23723 1.36041,-1.40466 0.23667,6.04976 -0.83142,5.5153 -1.43845,7.96353 -2.37453,8.98498 -0.2116,0.18598 -0.45325,0.35476 -0.71985,0.5054 -0.059,0.0231 -0.11716,0.0476 -0.1788,0.0651 h -5.2e-4 c -6.27618,1.78231 -21.48368,-0.2798 -24.53029,-3.32641 -2.8152,-2.8152 -2.89356,-9.63397 -0.21497,-18.73684 l 0.86816,-2.95072 c 0.0685,-0.12743 0.13365,-0.23547 0.19121,-0.30283 l 0.50539,1.8557 c 0.32124,1.18024 0.51023,1.71271 1.34773,1.75545 0.16377,0.1276 0.29398,0.14583 0.35553,-0.005 0.68943,-0.0553 1.72363,-0.3273 3.34656,-0.76791 1.02996,-0.27962 0.964,-0.88208 0.33383,-1.18236 -0.0832,-0.0633 -0.20789,-0.10362 -0.36328,-0.1235 -0.29746,-0.0662 -0.6584,-0.0778 -1.05988,-10e-4 -1.66172,0.31766 -1.54836,-0.84545 0.31936,-3.27215 l 0.96996,-1.25987 0.0253,-0.0238 c 0.0791,-0.0683 0.14204,-0.11621 0.20723,-0.16691 l 0.0129,1.53737 c 0.008,0.90618 0.55473,2.31117 1.21594,3.12177 1.16671,1.4303 1.21429,1.43652 1.61902,0.22479 1.22512,-3.66787 1.82648,-4.78677 2.87322,-5.34696 0.33189,-0.17762 0.56626,-0.28351 0.72088,-0.2682 z m 49.5391,2.25103 c -0.79831,0.0321 0.86277,2.2839 4.92734,6.67401 0.39692,0.42871 0.7646,0.81731 1.13585,1.21078 0.002,0.002 0.004,0.004 0.005,0.006 l 0.008,0.008 c 1.76287,1.86795 3.16213,3.26905 3.28713,3.26905 1.03877,0 -7.62145,-10.64305 -9.03717,-11.1063 -0.13529,-0.0443 -0.24401,-0.0648 -0.32659,-0.0615 z m -178.674885,0.24546 c -0.0546,0.0128 -0.03411,0.11194 0.0739,0.30954 0.964751,1.76502 8.09014,10.29447 12.383739,14.82391 2.361305,2.49099 4.398311,4.52892 4.526338,4.52892 0.599054,0 -0.102555,-0.99695 -4.707721,-6.69003 -4.164954,-5.14887 -11.748454,-13.09628 -12.276254,-12.97234 z m 44.373001,1.87017 c 2.367216,0 3.913661,0.0355 5.107699,0.185 0.559237,0.0917 1.085802,0.19858 1.581817,0.32143 0.784524,0.23321 1.487749,0.56814 2.362644,1.0542 2.786849,1.54825 4.422574,3.89746 5.341276,7.66982 l 0.371555,1.52393 c -0.155231,-0.0271 -0.333058,-0.0686 -0.543637,-0.13125 l -1.506368,-0.87588 c -6.35354,-3.69442 -17.689848,-4.26666 -24.292573,-1.22628 -1.904124,0.8768 -4.483854,2.49108 -5.732465,3.58738 l -2.072227,1.81952 -0.199988,0.15865 -0.412377,-2.74867 c -0.620991,-4.14106 -0.259726,-4.91613 3.272668,-7.02696 5.338823,-3.1903 9.684295,-4.31085 16.721976,-4.31085 z m 48.429084,0.53278 c 0.14064,0.0276 0.27154,0.0595 0.39378,0.0946 0.89362,1.26723 3.33594,6.78026 8.94519,19.97398 2.90472,6.8323 5.40434,12.67323 6.94789,16.24965 0.9557,2.40339 1.50635,3.88764 1.44539,3.9486 -0.0258,0.0258 -0.0532,0.0414 -0.0853,0.0408 -0.25552,-0.20104 -0.728,-1.01249 -1.13688,-1.97869 -0.47224,-1.1159 -4.39077,-10.01087 -8.708,-19.76675 -3.33396,-7.53393 -6.17922,-14.13839 -7.3117,-16.94057 -0.28603,-0.80475 -0.46933,-1.38989 -0.49041,-1.62161 z m 28.41377,2.87425 c -0.41396,2.8e-4 -0.84696,0.077 -1.28468,0.24495 -0.20542,0.0788 -0.39099,0.22272 -0.5581,0.40514 -1.00209,0.74104 -1.32568,2.04168 -0.74207,3.3445 0.0747,0.27724 0.18783,0.5266 0.35036,0.72243 0.0863,0.10393 0.18619,0.19554 0.29197,0.28164 0.0364,0.043 0.0714,0.0865 0.11007,0.12919 1.26255,1.39511 2.02485,1.42915 3.82251,0.17002 2.51843,-1.76398 1.49238,-5.10383 -1.50999,-5.26325 -0.15645,-0.0228 -0.31679,-0.0347 -0.48007,-0.0346 z m 15.07092,0.15761 c -0.0778,0.008 -0.14664,0.0286 -0.20619,0.061 -0.0106,0.005 -0.0208,0.0105 -0.0305,0.0165 -1.2e-4,7e-5 -4e-4,-8e-5 -5.2e-4,0 -4.1e-4,2.6e-4 -6.3e-4,7.6e-4 -0.001,0.001 -0.0154,0.01 -0.0311,0.0197 -0.0439,0.0326 -0.002,0.002 -0.004,0.005 -0.006,0.007 -0.003,0.003 -0.007,0.005 -0.0103,0.008 -0.0109,0.0109 -0.0193,0.0243 -0.0269,0.0382 -0.002,0.004 -0.004,0.009 -0.006,0.0129 -0.10345,0.18383 -0.011,0.47318 0.22272,0.77463 0.14335,0.24565 0.34258,0.51763 0.58498,0.78548 1.33838,1.47889 2.1885,1.61018 2.1885,0.33796 0,-0.8607 -1.81391,-2.16149 -2.66495,-2.07584 z m -1.28416,1.9048 c -0.50539,-0.001 -1.04001,0.12428 -1.57252,0.40927 -1.55895,0.83433 -2.03226,2.18783 -1.33067,3.66541 0.12389,0.45133 0.36192,0.88385 0.73433,1.25625 0.41203,0.41204 1.33929,0.7488 2.06034,0.7488 1.23725,0 2.18616,-0.62706 2.58847,-1.62161 1.29949,-2.13424 -0.32457,-4.45212 -2.47995,-4.45812 z m -22.45548,0.4656 c 0.19637,0.012 0.34383,0.0622 0.44545,0.17053 0.0368,0.26617 -0.0522,1.05777 -0.22117,1.90996 -0.31867,1.60668 -1.05632,1.66317 -1.24334,0.38344 0.0207,-0.19143 0.0412,-0.37161 0.0625,-0.59531 0.0233,-0.24434 0.04,-0.46627 0.0574,-0.68988 0.12773,-0.36625 0.31759,-0.68815 0.52606,-0.90899 0.0284,-0.0301 0.0578,-0.0554 0.0868,-0.0816 0.0194,-0.0171 0.0385,-0.0352 0.0579,-0.0506 0.0181,-0.0145 0.0361,-0.0265 0.0543,-0.0393 0.0228,-0.0162 0.0457,-0.0329 0.0682,-0.0465 0.0353,-0.0207 0.0708,-0.0379 0.10594,-0.0517 z m 13.3289,4.70049 c -1.26318,-8.4e-4 -2.53111,0.80468 -2.53111,1.8774 0,0.0854 0.004,0.1583 0.01,0.22531 -0.005,0.0466 -0.01,0.0932 -0.01,0.1416 0,0.0741 0.0336,0.12333 0.0941,0.15037 0.1395,0.18577 0.46312,0.0545 1.15445,-0.37723 0.0927,-0.0579 0.17708,-0.10435 0.262,-0.15142 0.26509,0.013 0.57229,0.0187 0.9586,0.014 0.38866,-0.005 0.70023,-0.0189 0.96686,-0.0403 0.11405,0.0608 0.2342,0.13106 0.36277,0.21136 0.88359,0.55181 1.16005,0.65166 1.15549,0.21704 0.027,-0.0971 0.0398,-0.22293 0.0398,-0.39068 0,-0.50587 -0.56179,-1.22049 -1.2485,-1.58801 -0.37281,-0.19953 -0.79334,-0.28911 -1.2144,-0.28939 z m 20.25716,0.55707 c 0.0145,0.0125 0.0268,0.0317 0.0408,0.046 0.078,0.15236 0.14039,0.35555 0.18552,0.58911 l 0.0119,0.34572 c 0.029,0.85839 -0.21958,1.98249 -0.55242,2.49752 -0.18207,0.28169 -0.30609,0.45984 -0.39326,0.55087 -0.0621,-0.15056 -0.11376,-0.35041 -0.15296,-0.59996 0.0389,-0.53143 0.27825,-1.61169 0.54622,-2.44843 z m -71.037521,2.8391 c -0.870276,-0.0455 -0.474467,1.66006 0.875398,6.03581 1.776192,5.75773 4.51354,11.04679 6.544304,12.64419 0.205661,0.16177 0.430929,0.31548 0.662489,0.45889 0.11191,0.0763 0.21684,0.13901 0.31161,0.18241 0.71129,0.39789 1.44315,0.67076 1.88671,0.67076 0.19949,0 0.4266,-0.0552 0.66766,-0.14727 0.32105,-0.0847 0.66426,-0.24791 1.11931,-0.49145 1.0342,-0.55348 1.69579,-1.28717 1.99316,-2.17919 0.29439,-0.45134 0.47697,-0.88397 0.47697,-1.23197 0,-3.29978 -5.37588,-9.77781 -12.083498,-14.56138 -1.195411,-0.85251 -1.998255,-1.35698 -2.454113,-1.3808 z m -85.5430979,0.65733 c -0.019944,0.002 -0.035735,0.008 -0.047542,0.0196 -0.4878065,0.48339 6.8302189,9.24964 12.6059479,15.10089 7.047938,7.14009 6.943833,6.40182 -0.28577,-2.02881 -7.14595,-8.33309 -11.6543569,-13.1398 -12.2726355,-13.09171 z m 86.6639599,1.36942 c 0.946129,-0.11675 7.834909,6.3371 9.678479,9.12038 2.04624,3.08926 2.43343,5.996 0.87798,6.59287 -2.29488,0.88064 -3.44622,0.32191 -5.273577,-2.55953 -2.01876,-3.18325 -5.866211,-12.6107 -5.35523,-13.12168 0.01779,-0.0178 0.04183,-0.0283 0.07235,-0.032 z m 103.234009,1.1095 c -0.98464,0 0.57728,2.3289 3.34656,4.98987 2.78748,2.67847 2.97605,2.8016 2.97605,1.94459 0,-0.78356 -5.6082,-6.93446 -6.32261,-6.93446 z m -47.65239,1.33635 c -0.056,-0.006 -0.11701,0.005 -0.18138,0.0362 -0.002,0.001 -0.0168,0.008 -0.0191,0.009 -0.002,5e-4 -0.005,0.002 -0.007,0.002 -0.27046,-0.0204 -0.60849,0.0877 -0.89503,0.31368 -1.51828,1.19708 -3.97007,1.41109 -5.32216,0.46405 -0.76386,-0.53503 -1.47567,-0.67777 -1.68568,-0.33796 -0.12413,0.20084 0.008,0.54875 0.31057,0.9126 0.0727,0.24095 0.4115,0.57988 1.0635,0.95963 0.60087,0.34998 1.59797,0.64486 2.21589,0.65526 0.0349,5.9e-4 0.0754,-0.004 0.11214,-0.006 0.13802,0.0152 0.27104,0.0243 0.3948,0.0243 1.41266,0 3.59166,-1.28135 4.13618,-2.19521 0.10358,-0.13508 0.16433,-0.26043 0.16433,-0.36949 0,-0.27236 -0.1189,-0.44992 -0.2868,-0.4687 z m -19.29598,0.98443 c 0.23915,-0.0145 0.63208,0.40597 1.31568,1.33326 0.76896,1.04309 1.23061,2.33323 1.02578,2.867 -0.20483,0.53378 -0.58924,0.97049 -0.85421,0.97049 -0.70722,0 -2.02677,-3.47602 -1.78077,-4.69067 0.062,-0.30615 0.15003,-0.47137 0.29352,-0.48008 z m 44.60193,2.73679 c -0.12378,0.0188 0.0777,0.30347 0.55552,0.92707 2.37198,3.09554 8.06713,9.66038 11.19105,12.89999 3.48485,3.61387 5.33255,4.76752 3.54242,2.21175 -1.97516,-2.81994 -13.17207,-14.98725 -14.38775,-15.6347 -0.51213,-0.27274 -0.80497,-0.41876 -0.90124,-0.40411 z m -40.16706,2.07274 c 0.94237,0.0356 2.31733,0.35135 4.22817,0.94154 2.3011,0.71074 4.84007,1.29243 5.64203,1.29243 1.81021,0 2.38702,0.86785 1.89084,2.84479 -0.0994,0.39615 -0.18816,0.6997 -0.32143,0.92449 -0.0774,0.0758 -0.15921,0.14534 -0.24959,0.20412 -0.007,0.004 -0.0139,0.009 -0.0212,0.0134 -0.005,0.003 -0.01,0.005 -0.0145,0.008 -0.3235,0.1136 -0.70158,0.18384 -1.13791,0.21136 -0.8428,-0.093 -2.15396,-0.4244 -4.28553,-0.98082 -2.81729,-0.73543 -4.95813,-1.61246 -6.20479,-2.50217 -1.11549,-0.92115 -1.40315,-1.86523 -0.74569,-2.73627 0.27546,-0.16759 0.67491,-0.24125 1.21956,-0.22066 z m 25.69818,0.44338 c 0.30151,-0.0149 0.40504,0.78854 0.39067,2.80242 -0.0157,0.16208 -0.0272,0.32799 -0.0377,0.49506 -0.12868,-0.14111 -0.21865,0.0766 -0.24133,0.62632 -0.0219,0.53188 0.0714,0.86831 0.21705,0.87074 0.002,0.0507 0.006,0.0982 0.009,0.14831 -0.11116,2.24648 -0.4076,3.41608 -0.94206,3.7543 -1.54087,0.97508 -1.99074,0.64402 -1.54047,-1.13223 0.13098,-0.5167 0.29304,-1.31543 0.44493,-2.15336 0.26493,-1.00235 0.42343,-1.95423 0.40669,-2.50166 0,-1.7e-4 1e-5,-3.4e-4 0,-5.1e-4 0.22261,-1.20175 0.64646,-2.37193 1.01028,-2.73575 0.10918,-0.10918 0.20316,-0.16968 0.28319,-0.17364 z m -30.03176,0.98082 c 0.15946,0.003 0.33408,0.12377 0.54932,0.339 0.68874,0.68875 0.62681,1.22486 -0.36691,3.17396 -1.50253,2.94712 -2.39662,1.86013 -1.27227,-1.54667 0.46316,-1.40337 0.73903,-1.97186 1.08986,-1.96629 z m 26.70173,0.86351 c 0.75178,-0.006 0.89503,0.27238 0.89503,1.00201 0,2.24671 -1.96073,7.00384 -3.0148,7.31428 -0.57352,0.16892 -3.07984,0.49796 -5.56917,0.73123 l -2.00505,0.1881 c -1.24578,0.0173 -2.0538,-0.0804 -2.52077,-0.34107 v -1.37614 -1.31671 c 9.4e-4,-0.001 0.002,-0.002 0.003,-0.004 0.3791,-0.31696 1.05364,-0.4202 2.33836,-0.51315 0.34489,-0.0249 0.66289,-0.0671 0.9524,-0.12041 h 0.45217 c 2.08094,0 3.74602,-0.27742 3.74602,-0.62425 0,-0.10893 -0.1223,-0.20982 -0.31936,-0.2992 0.0454,-0.20555 -0.47808,-0.2951 -1.64848,-0.3111 -0.16614,-0.009 -0.33788,-0.0139 -0.51418,-0.0139 -0.25609,0 -0.4737,-0.002 -0.67851,-0.005 -1.12466,-0.0372 -1.44877,-0.19106 -1.44694,-0.87281 0.0473,-0.17136 0.11989,-0.37391 0.2129,-0.61857 0.26035,-0.68476 0.36142,-1.37746 0.26976,-1.71204 0.17818,-0.26323 0.4435,-0.40305 0.86558,-0.47852 0.39417,-0.0397 0.88529,-0.0637 1.43815,-0.0651 1.51649,-0.004 3.81082,-0.18095 5.0984,-0.39377 0.6369,-0.10527 1.10419,-0.1671 1.44591,-0.17002 z m -24.06313,2.01745 c 0.43583,0.0212 1.07576,0.33178 2.28719,0.94982 1.38944,0.70883 3.82806,1.61677 5.41931,2.01744 1.24286,0.31296 1.95521,0.53492 2.36368,0.8568 0.25693,0.34929 0.34333,0.80984 0.4129,1.5074 v 5.2e-4 c 0.0422,0.42289 0.0648,0.74809 0.0574,1.00769 -0.0162,0.11071 -0.0349,0.21308 -0.0568,0.30644 -0.14565,0.26694 -0.35401,0.42859 -0.67179,0.52348 -0.54164,-0.079 -2.11172,-0.29079 -3.99666,-0.5364 -6.60845,-0.86108 -9.02243,-2.91293 -6.87761,-5.84616 0.39486,-0.54 0.62663,-0.8082 1.06247,-0.78703 z m -89.553711,1.7415 c -0.103921,0.0135 -0.17553,0.0722 -0.218591,0.17415 -0.02865,0.041 -0.05278,0.0894 -0.07183,0.14521 -0.04161,0.0467 -0.06563,0.11208 -0.06563,0.20257 0,0.0252 0.0062,0.0489 0.0098,0.0734 -0.006,0.0667 -0.0098,0.13696 -0.0098,0.21446 0,1.93348 3.117395,9.92561 4.661215,11.94966 1.488355,1.95133 3.34841,2.63288 4.826576,1.96628 0.496512,-0.19956 0.924582,-0.53922 1.233517,-1.00045 0.07072,-0.0908 0.139597,-0.18492 0.205674,-0.28577 1.635516,-2.49612 -0.677098,-6.30279 -6.742224,-11.097 -1.99418,-1.5763 -3.109785,-2.31153 -3.678846,-2.33371 -0.05503,-0.01 -0.106174,-0.0145 -0.149862,-0.009 z m 82.977361,0.5457 c 0.408,-0.0378 1.24679,0.5707 2.4784,1.85622 1.77808,1.85592 4.78241,3.1602 8.81084,3.84111 1.52228,0.32428 3.08383,0.52423 4.58008,0.5519 1.8564,0.25428 2.65378,0.60097 2.83032,1.18701 0.25728,0.85409 1.20669,6.46625 1.50016,8.71213 0.0229,0.44819 0.0228,0.78528 -0.0114,0.92759 -0.0456,0.1902 -0.19671,0.26532 -0.43666,0.23926 -0.61514,-0.13519 -1.70545,-0.78864 -2.98277,-1.74614 -1.15153,-0.88919 -2.53401,-2.08953 -4.05918,-3.53674 -0.48593,-0.48372 -0.96163,-0.98024 -1.41283,-1.48208 -2.52534,-2.80879 -3.23157,-3.23091 -5.99912,-3.58376 -3.05839,-0.38994 -3.17447,-0.48179 -4.65243,-3.67729 -0.98188,-2.12295 -1.17,-3.24057 -0.64544,-3.28921 z m -81.514401,1.62781 c 0.113001,-0.0218 0.296318,0.0521 0.544669,0.185 0.160224,0.0858 0.403648,0.26521 0.700733,0.50901 0.618733,0.58059 1.432211,1.3857 2.539897,2.49959 0.777806,0.78217 1.397873,1.42541 1.932699,2.00091 1.414867,1.71984 2.214364,3.19804 2.335257,4.26383 -0.10615,0.87317 -0.515797,1.46944 -1.066085,1.75389 -0.03851,0.0205 -0.07573,0.0381 -0.112139,0.0558 -0.269975,0.11475 -0.569192,0.15553 -0.880565,0.12247 -0.277651,-0.0911 -0.578866,-0.31206 -1.013891,-0.67696 -1.631101,-1.36818 -2.367735,-2.65284 -3.981669,-6.94066 -1.046658,-2.78072 -1.337908,-3.70752 -0.998906,-3.7729 z m 24.608832,0.50643 c -0.02399,-0.004 -0.04222,3.7e-4 -0.05374,0.0119 -0.173794,0.1738 1.174012,2.15253 2.995166,4.39715 3.077781,3.79343 4.341854,4.83063 4.341854,3.56309 0,-0.35651 -1.508527,-2.1766 -3.153296,-3.98683 -0.55953,-0.69587 -1.143167,-1.36415 -1.674315,-1.87896 -0.400658,-0.38833 -0.733809,-0.69082 -1.010793,-0.92346 -0.710483,-0.68648 -1.260187,-1.15579 -1.444874,-1.18287 z m 53.072729,0.0227 c 0.27147,0.10381 0.7223,0.67812 1.2082,1.50947 l 0.39739,0.92294 c 1.5447,3.58741 1.61314,4.53227 0.36277,5.01209 -0.5868,0.22517 -0.90744,1.13144 -0.91881,2.17817 -0.0209,0.40689 0.009,0.83076 0.0863,1.18287 0.005,0.0254 0.01,0.0509 0.0155,0.0765 0.003,0.0132 0.007,0.0258 0.0103,0.0388 0.0874,0.369 0.23305,0.74882 0.44183,1.14463 0.004,0.008 0.012,0.0245 0.0165,0.0331 0.21237,0.40741 0.54179,1.1564 0.86145,1.94045 0.12827,0.50837 0.33411,1.01874 0.60822,1.51981 0.22928,0.49386 0.55844,1.01498 0.94413,1.52652 0.5583,0.87412 1.19137,1.54439 1.92753,2.04225 0.84913,0.71603 1.68745,1.20148 2.26085,1.20148 0.31278,0 0.56099,0.0398 0.74517,0.11885 0.0894,0.0621 0.17505,0.12412 0.2589,0.18707 0.40093,0.47158 -0.0952,1.48438 -1.49035,3.00654 -1.8177,1.98323 -2.16596,2.12927 -3.4463,1.44332 -0.78332,-0.41967 -1.26637,-0.92111 -1.07332,-1.11415 0.19304,-0.19304 0.60382,-1.23168 0.91261,-2.30838 0.76971,-2.68382 -0.3465,-2.53109 -1.66191,0.22738 -0.94976,1.99164 -1.2773,2.18488 -3.699,2.18488 -0.36332,0 -0.72071,0.0172 -1.05627,0.0486 l -0.11317,-0.016 0.0522,0.0181 c -0.24681,0.0139 -0.43384,0.041 -0.56379,0.0791 -0.70739,0.11432 -1.237,0.29283 -1.36167,0.49455 -0.22896,0.37047 0.49669,0.62425 1.7849,0.62425 3.73516,0 4.11634,0.37715 3.72432,3.68711 -0.24377,2.05826 -0.0492,3.5394 0.64079,4.87361 0.95555,1.84784 0.94158,1.92959 -0.39429,2.28771 -0.76208,0.2043 -3.02277,0.37534 -5.02347,0.38034 -3.19401,0.007 -3.85992,-0.21415 -5.4622,-1.81643 -0.48307,-0.48307 -0.87945,-0.96133 -1.18339,-1.47949 -0.41159,-1.11924 -0.6378,-2.49737 -0.64079,-4.07779 0.34359,-2.87724 1.84606,-7.19134 4.74855,-14.56914 2.61214,-6.63976 5.11789,-12.77437 5.56814,-13.63276 z m 40.05906,0.67489 c 2.09791,-0.0577 3.10905,2.9636 4.35115,11.22619 0.21562,1.43432 0.39122,2.7916 0.52968,4.08244 0.0666,1.62719 0.10197,3.38141 0.10232,5.28184 6.9e-4,3.10139 -0.0803,5.51186 -0.28939,7.39852 -0.0268,0.13591 -0.0514,0.27382 -0.0801,0.40773 -0.28002,1.30566 -0.87503,2.84369 -1.48157,3.91707 -0.79533,1.22136 -1.65185,2.13976 -2.0283,2.05259 l -0.0227,-7.26209 c -0.0254,-8.11898 -1.32624,-15.83256 -3.73879,-22.16816 l -1.01544,-2.66598 c -0.006,-0.34691 0.0788,-0.56955 0.24082,-0.74983 l 1.38544,-0.7953 c 0.78671,-0.45151 1.45949,-0.70885 2.04691,-0.72502 z m -83.785589,1.88102 c -0.471188,0.005 0.365641,1.37276 2.360065,3.63854 2.128663,2.4183 3.692797,3.56449 3.692797,2.70629 0,-0.5754 -3.163924,-4.34522 -4.58525,-5.46323 -0.768908,-0.60482 -1.253434,-0.88382 -1.467612,-0.8816 z m 15.218193,0.0724 0.06408,0.38861 c -0.487423,0.56862 0.180057,2.92164 1.762684,7.19025 1.70335,4.59422 2.827411,6.34536 4.765602,7.42177 1.80933,1.00484 1.81558,1.00439 3.45612,-0.14469 0.94063,-0.65884 1.38751,-1.61326 1.38751,-2.96313 0,-1.32772 -0.54086,-2.32124 -2.85719,-4.70307 -0.9295,-1.04523 -2.037469,-2.13637 -3.224609,-3.16414 -2.657433,-2.51879 -4.274961,-3.80723 -4.995561,-3.76774 z m 63.038526,0.38757 c 0.55145,-0.007 0.82264,0.33392 1.0387,1.16014 0.17258,0.65995 0.25916,1.27224 0.22324,1.51205 -0.05,0.0282 -0.10614,0.0551 -0.16795,0.0811 -0.32954,0.0766 -1.03378,0.17933 -1.94096,0.29042 -1.02131,0.099 -2.30816,0.20763 -3.72949,0.30851 -4.9661,0.35251 -5.67136,0.27348 -6.03529,-0.67489 -0.11332,-0.29532 -0.21677,-0.58259 -0.29146,-0.80822 0.11923,-0.33393 0.52388,-0.53087 1.36994,-0.68626 0.80672,-0.0957 1.86052,-0.20214 3.03548,-0.30076 2.48933,-0.20896 5.11933,-0.55317 5.8446,-0.76481 0.25438,-0.0742 0.46938,-0.1151 0.65319,-0.11731 z m -119.263,0.53124 c -0.797597,0.0751 1.063255,2.61293 5.031735,6.81974 2.253443,2.38875 4.213638,4.3434 4.355806,4.3434 1.024792,0 -7.656607,-10.64897 -9.054229,-11.1063 -0.140026,-0.0458 -0.250801,-0.0646 -0.333312,-0.0568 z m 57.939614,1.62832 c 1.018019,0.0873 7.248616,6.60791 7.623306,8.1008 0.19761,0.78714 0.19743,1.85305 -5.1e-4,2.36885 -0.18412,0.4798 -0.44634,0.76115 -0.76533,0.86661 -0.24695,0.0362 -0.51425,0.0185 -0.7922,-0.0491 -1.456282,-0.53922 -3.491695,-3.3127 -5.059124,-7.29878 -0.727012,-1.84884 -1.238621,-3.61134 -1.136883,-3.91656 0.01825,-0.0548 0.06288,-0.0777 0.130741,-0.0718 z m 34.912596,0.65733 c 0.56691,-0.007 1.29299,0.0945 2.08618,0.33796 1.89048,0.5802 5.99426,4.62506 7.27604,6.89157 0.22277,0.55613 0.31609,1.0971 0.28267,1.67018 -0.19239,0.71811 -0.61851,1.86361 -1.10846,2.94297 -0.48546,1.0695 -1.02807,1.83728 -1.55649,2.26757 -0.50736,0.29283 -1.04688,0.32045 -1.63608,0.0832 -0.0905,-0.0895 -0.1779,-0.19204 -0.25786,-0.32142 -0.21221,-0.34335 -0.9919,-0.62426 -1.73271,-0.62426 -1.78018,0 -6.6952,-1.89575 -6.6952,-2.58227 0,-0.29671 0.84269,-0.5395 1.87275,-0.5395 0.38176,0 0.69523,-0.0247 0.9555,-0.0651 l 0.20929,-0.006 0.39636,0.0367 -0.16795,-0.0434 0.7922,-0.0222 -0.16795,-0.0444 0.16795,-0.005 -0.53485,-0.12919 c 0.5556,-0.35177 -0.19897,-0.92965 -2.07016,-1.08779 -1.26244,-0.10668 -2.42133,-0.58429 -2.57866,-1.06247 -0.0716,-0.21779 -0.0816,-0.37389 -0.0196,-0.47594 0.11587,-0.0542 0.26308,-0.10025 0.42943,-0.14056 0.23012,0.005 0.54475,0.0594 0.97513,0.16744 0.91895,0.23065 2.00544,0.2129 2.41433,-0.0398 0.13666,-0.0845 0.14937,-0.18802 0.0522,-0.3023 l 0.0837,-0.002 -0.11473,-0.03 0.11473,-0.003 -0.15452,-0.0346 c -0.28269,-0.23864 -1.00082,-0.51554 -2.03915,-0.76739 -2.01161,-0.48793 -2.85049,-1.02357 -2.97759,-1.90066 -0.12053,-0.83166 0.0932,-1.10975 1.36425,-1.19786 0.0934,0.22899 0.53019,0.3197 1.1281,0.25631 0.62241,0.015 1.34699,-0.12016 1.94252,-0.40617 1.73805,-0.23415 2.12317,-0.82034 0.81235,-1.55392 -1.26812,-0.70967 -0.79089,-1.251 0.4563,-1.26658 z m -113.161048,0.18551 c -0.01809,0.001 -0.02759,0.0123 -0.02894,0.0331 -0.03462,0.53544 4.537855,6.34006 8.697144,11.04067 4.032557,4.55739 5.326341,5.07225 2.397268,0.95394 -1.304705,-1.83444 -4.952579,-5.9433 -7.716324,-8.85062 -0.158936,-0.16719 -0.33083,-0.35371 -0.483175,-0.51211 -0.154923,-0.16253 -0.296098,-0.30717 -0.431498,-0.4439 -1.291879,-1.32571 -2.257508,-2.23382 -2.434477,-2.22106 z m 141.692638,1.52187 0.52038,1.99936 c 1.08553,4.17348 1.93621,9.66872 1.58492,10.23711 -0.18763,0.3036 -3.0735,0.55242 -6.41304,0.55242 h -5.20434 c -0.54435,-0.21417 -0.835,-0.66364 -1.12396,-1.90945 l -0.54725,-4.07985 c -0.4421,-3.29413 -0.71337,-6.06548 -0.60255,-6.15828 0.0678,-0.0568 1.15536,-0.17953 2.66754,-0.3173 0.94364,-0.0409 1.98323,-0.0824 3.15278,-0.12195 z m -123.535606,3.4246 c -0.893765,0 1.368899,8.06416 3.632335,12.94546 0.992958,2.14142 2.528938,4.61667 3.413228,5.50096 0.836422,0.83642 1.80435,1.30246 2.776059,1.41904 0.365985,0.0804 0.731396,0.0889 1.103807,0.0248 0.331735,-0.0421 0.655468,-0.15 0.975651,-0.32039 0.118023,-0.0556 0.237779,-0.11781 0.358635,-0.18604 0.02234,-0.0124 0.04446,-0.0249 0.06667,-0.0377 0.175937,-0.10221 0.354208,-0.21273 0.537434,-0.34107 0.424366,-0.29723 0.748951,-0.65399 0.979784,-1.06195 1.008626,-1.37288 1.066723,-1.89979 0.447519,-3.77599 -0.399449,-1.21035 -1.844804,-3.47113 -3.21169,-5.02399 -2.735855,-3.1081 -10.048962,-9.14311 -11.079427,-9.14311 z m -29.0018475,0.4191 0.051677,0.27698 c -0.098135,-9.7e-4 -0.1751994,0.0207 -0.2253094,0.0708 -0.4549717,0.45497 2.810302,9.94953 4.1888909,12.18014 0.689394,1.11545 1.723352,2.30201 2.297534,2.63704 1.456569,0.84993 2.119808,0.79209 3.713985,-0.32453 2.492882,-1.74608 1.853621,-4.25103 -2.159041,-8.45788 -2.730997,-2.86316 -5.8291178,-5.35241 -7.2791416,-5.95984 z m 30.0555295,1.23868 3.263884,2.77864 c 6.553473,5.57896 9.726973,10.5686 8.35401,12.84056 -0.05961,0.0878 -0.119973,0.17287 -0.181382,0.25218 -0.181161,0.21572 -0.411602,0.40125 -0.69505,0.55294 -0.406453,0.21753 -0.741543,0.3758 -1.042313,0.47026 -0.596511,0.005 -1.265026,-0.18559 -1.952334,-0.59325 -0.35152,-0.31973 -0.755256,-0.75771 -1.258321,-1.33067 -1.783731,-2.03155 -5.194967,-9.36164 -6.140712,-13.19506 l -0.437182,-1.77302 c 0.0304,-6.5e-4 0.06002,-0.002 0.0894,-0.003 z m 143.175754,1.15084 c -0.42544,0.0158 1.24799,2.20972 4.60902,5.82755 2.60492,2.80395 5.03595,5.09788 5.40277,5.09788 0.38086,0 0.27726,-0.46858 -0.24184,-1.09244 -3.67004,-4.41073 -5.04375,-5.90485 -7.3148,-7.95662 -1.43351,-1.29509 -2.2323,-1.88466 -2.45515,-1.87637 z m -171.6995939,0.008 c 0.8507608,0.0882 6.7540009,6.03862 7.7416459,7.91269 0.486149,0.92247 0.714997,2.11681 0.509013,2.65359 -0.08907,0.23212 -0.208748,0.41509 -0.348816,0.56069 -0.277827,0.18395 -0.627528,0.3187 -0.998389,0.37827 -0.838879,-0.0408 -1.889777,-0.73037 -2.815332,-1.99213 -1.238192,-1.68796 -3.3504877,-6.26466 -3.9956212,-8.45995 -0.1341303,-0.5446 -0.1771748,-0.92702 -0.092501,-1.05316 z M 141.47969,202.6695 c 0.0742,0.002 0.10862,0.31621 0.13229,0.91158 0.0355,0.89299 -0.25471,2.57836 -0.64492,3.7455 -0.86215,2.57869 -1.18187,2.91068 -2.50683,2.6045 -0.88879,-0.2054 -0.8316,-0.45337 0.41393,-1.79731 0.7948,-0.85761 1.72156,-2.59829 2.0593,-3.86798 0.28952,-1.08837 0.45078,-1.59948 0.54623,-1.59629 z m -142.5241202,0.42766 c -0.024268,0.006 -0.047241,0.0199 -0.067696,0.0403 -0.0078,0.008 -0.012807,0.0189 -0.019637,0.0279 -0.00564,0.004 -0.013526,0.005 -0.018603,0.0103 -0.046118,0.0461 -0.061939,0.12288 -0.054777,0.21859 -0.012006,0.20242 0.059906,0.46806 0.20722246,0.70642 0.26799522,0.43363 0.48732942,0.64145 0.61494955,0.64751 0.35673585,0.33655 0.70090039,0.49696 0.83715819,0.3607 0.17167799,-0.17168 -0.0486797,-0.74736 -0.48989257,-1.27899 -0.28046757,-0.33795 -0.58493239,-0.57864 -0.81390381,-0.66611 -0.0703039,-0.0549 -0.13729979,-0.0819 -0.19482012,-0.0667 z M 143.4961,204.20924 c 0.33083,-0.0413 0.83112,0.21954 1.56269,0.75448 0.85366,0.6242 1.26361,2.21757 1.70636,6.63163 0.26927,2.68479 0.43676,5.08588 0.42478,5.94228 -0.0365,0.17182 -0.0827,0.31258 -0.14366,0.41651 -0.39853,0.0726 -1.65126,-0.64184 -2.94659,-1.5627 -0.0474,-0.0354 -0.0927,-0.0671 -0.13952,-0.10077 -1.48308,-1.06886 -2.98376,-2.37914 -3.29024,-3.06699 -0.42567,-0.95532 -0.2129,-1.81237 0.84284,-3.39411 0.7768,-1.16383 1.41232,-2.91941 1.41232,-3.90157 0,-1.1128 0.14566,-1.66565 0.57102,-1.71876 z m -124.632185,2.73368 c -0.664654,-0.0408 1.912706,3.59244 5.990849,7.97781 1.521599,1.63624 2.898413,2.84336 3.059246,2.68253 0.43207,-0.43207 -3.748057,-5.91029 -6.67608,-8.74934 -1.357387,-1.31614 -2.113933,-1.89502 -2.374015,-1.911 z m 129.679425,2.8944 6.50503,0.0269 6.40684,0.0264 c 0.0375,0.0742 0.0749,0.14894 0.11007,0.23461 l 0.19379,3.61942 c 0.11355,2.11944 0.0663,4.81747 -0.10542,5.9955 -0.27152,1.86318 -0.59685,2.19726 -2.49752,2.56676 -1.20176,0.23363 -4.25995,0.61735 -6.79597,0.85267 -2.71214,0.25167 -3.82285,0.35156 -4.20336,0.0977 l 0.0186,-1.31568 c 0.19623,-1.00257 0.35445,-3.87714 0.35915,-6.67969 z m -10.54923,1.40767 c 0.12647,0.002 0.22704,0.0266 0.31006,0.0661 0.13455,0.11278 0.20038,0.28842 0.22944,0.52348 -0.0548,0.42653 -0.4157,1.05985 -1.08675,1.82315 -0.32308,0.29008 -0.53786,0.54973 -0.65371,0.76326 -0.91083,1.25618 0.25324,1.38696 1.86862,-0.0749 0.46206,-0.41816 0.78886,-0.56422 0.97772,-0.51986 0.11068,0.0611 0.14727,0.2475 0.15864,0.56224 -0.0973,0.43466 -0.43429,1.0667 -1.03094,1.72599 -0.20767,0.22947 -0.36022,0.44439 -0.47026,0.64079 -0.22084,0.20013 -0.36638,0.43419 -0.36638,0.63561 0,0.10638 0.0728,0.15744 0.18965,0.16899 0.12258,0.32456 0.63035,0.30709 1.37149,-0.30799 1.66331,-1.38043 1.77245,-0.15498 0.13229,1.48518 -0.85839,0.85839 -1.38783,1.73342 -1.17667,1.94458 0.21116,0.21115 -0.0298,0.64537 -0.53485,0.9648 -0.50509,0.31942 -2.66426,0.58515 -4.79816,0.59015 -3.20281,0.008 -3.99233,-0.20105 -4.52582,-1.19787 -1.95185,-3.64707 0.64147,-8.711 4.48758,-9.08574 0.10803,0.0872 0.2722,0.13481 0.47284,0.1359 0.35351,0.0756 0.85278,-0.0227 1.61903,-0.27491 0.7874,-0.0944 1.53296,-0.23676 1.9823,-0.39481 0.34522,-0.12143 0.62664,-0.17694 0.84388,-0.17415 z m -64.807413,0.0904 c -0.647933,0.0316 3.857045,6.49983 9.427847,12.99766 1.679797,1.95933 3.190298,3.42583 3.356901,3.25923 0.4084,-0.4084 -6.033936,-9.19859 -9.866064,-13.46171 -1.776079,-1.97583 -2.684324,-2.8066 -2.918684,-2.79518 z m 52.598853,3.41943 c 0.19162,0 0.34234,0.0292 0.45579,0.0992 0.10365,0.23257 0.19229,0.51803 0.26303,0.85163 -0.0115,0.3063 -0.0623,0.69138 -0.15761,1.19941 -0.26823,1.42978 -0.0687,2.82173 0.59583,4.15375 0.54968,1.10185 0.99942,2.10109 0.99942,2.22002 0,0.10203 -0.2906,0.18378 -0.67024,0.20619 -0.65927,-0.0352 -1.20388,-0.28505 -1.62781,-0.75758 -0.46593,-0.62973 -0.75854,-1.63523 -0.85214,-2.97811 -0.26196,-3.75807 -0.0161,-4.99453 0.99373,-4.99453 z m -64.764003,0.62425 c -1.121863,0 -0.317336,1.26953 3.32228,5.24154 0.0075,0.008 0.0147,0.0156 0.02222,0.0238 0.227954,0.2621 0.457485,0.52136 0.685228,0.76843 0.642051,0.69655 1.253181,1.29785 1.746147,1.73478 0.930627,0.89246 1.590775,1.42662 1.69137,1.32602 0.617553,-0.61755 -6.342631,-9.09454 -7.467245,-9.09454 z m 81.047253,1.93425 c 0.44077,-0.0101 1.39449,0.50127 2.93522,1.54823 2.51544,1.70928 2.485,1.53819 1.23093,6.97425 -0.0916,0.39698 -0.0953,0.70626 -0.0444,0.93328 0.0314,0.29909 0.16681,0.4718 0.40721,0.4718 0.1095,0 0.21193,-0.0503 0.30437,-0.13178 0.25318,-0.16436 0.51846,-0.52992 0.70487,-1.11724 0.2012,-0.63391 0.70349,-1.15509 1.15807,-1.23248 0.25932,0.0307 0.47761,0.11581 0.6475,0.24649 0.0887,0.16422 0.0872,0.39675 -0.0191,0.67387 -0.19764,0.51503 -0.0395,0.93637 0.3514,0.93637 0.0381,0 0.0778,-0.007 0.11731,-0.015 l 0.009,0.32711 0.15141,-0.37672 c 0.31837,-0.13542 0.63976,-0.4745 0.7922,-0.87178 0.17277,-0.45024 0.7176,-0.82858 1.27899,-0.91675 0.0129,-0.002 0.0258,-0.002 0.0388,-0.004 0.0653,-0.009 0.13084,-0.0152 0.19585,-0.0155 0.28394,0.001 0.52914,0.0686 0.72554,0.18706 0.18277,0.14832 0.22718,0.37923 0.10956,0.68575 -0.18431,0.4803 -0.0162,1.07059 0.37362,1.31155 0.4192,0.25908 0.84881,-0.0978 1.05161,-0.87333 0.12758,-0.48788 0.2427,-0.82733 0.38448,-1.02578 0.12604,-0.0859 0.25352,-0.15706 0.37827,-0.20567 0.30874,0.0163 0.74571,0.34778 1.45262,0.98753 0.20468,0.18523 0.37156,0.32446 0.52193,0.4377 0.0446,0.22693 0.13468,0.28303 0.26252,0.17312 0.41642,0.22814 0.64165,0.0735 0.98133,-0.45476 0.0628,-0.0976 0.1199,-0.18219 0.17312,-0.25579 0.2162,-0.0569 0.45826,-0.10268 0.71365,-0.13901 0.0871,0.10077 0.182,0.23442 0.29766,0.41444 0.36824,0.57315 0.62062,0.71804 1.00045,0.47129 0.12142,0.23537 0.17634,0.17011 0.20878,-0.16278 0.0529,-0.0468 0.10578,-0.0939 0.16433,-0.15244 0.27999,-0.28 0.51745,-0.4764 0.72088,-0.59066 0.39414,0.0546 0.64673,0.15557 0.80461,0.32969 0.0639,0.17622 0.11338,0.408 0.15089,0.6966 0.0417,0.54002 0.0282,1.2965 -0.0274,2.35386 -0.12612,2.40103 -0.17879,3.1856 -0.88005,3.57394 -0.0289,0.0137 -0.0569,0.0279 -0.0873,0.0403 -0.60087,0.24496 -4.18281,0.5882 -7.95972,0.76274 l -6.86728,0.3173 -1.70894,-3.66128 c -0.94008,-2.01371 -2.40438,-4.59985 -3.25407,-5.74745 -1.41712,-1.91399 -1.46858,-2.20403 -0.61805,-3.50211 0.50992,-0.7783 0.75054,-1.87571 0.53434,-2.43913 -0.24251,-0.63197 -0.21002,-0.95543 0.13281,-0.96325 z m -8.02432,6.46937 3.91707,0.0243 2.10427,4.83847 2.10478,4.83794 -8.20674,-0.0491 c -3.83727,-0.023 -7.31205,-0.14541 -8.53798,-0.28784 -0.18598,-0.0373 -0.36741,-0.0753 -0.51728,-0.11575 -0.45396,-0.29941 -0.7121,-1.68188 -0.7121,-3.8499 v -3.57446 l 2.9652,-0.92397 c 1.63094,-0.50818 4.72838,-0.91309 6.88278,-0.89969 z m -13.57178,2.20917 c 1.36134,0 2.4753,0.25834 2.4753,0.57361 0,0.31528 0.17038,1.01752 0.37879,1.56063 0.31403,0.81834 -0.14939,0.98753 -2.70526,0.98753 -3.5547,0 -4.11438,-0.33678 -3.24838,-1.95492 0.18498,-0.34565 0.44407,-0.60359 0.80718,-0.78858 0.27217,-0.0995 0.59468,-0.19373 0.96894,-0.2868 0.37529,-0.0597 0.80739,-0.0915 1.32343,-0.0915 z m 21.11861,0.62425 c 0.86129,0 3.95136,7.41828 4.29948,10.30428 0.0818,1.10135 0.0259,2.09225 -0.19224,2.86598 -0.17892,0.38712 -0.44775,0.73559 -0.82786,1.11569 -1.07608,1.07609 -2.61934,1.50285 -3.82095,1.19166 -0.31374,-0.18982 -0.63231,-0.44834 -0.96842,-0.78445 -0.3324,-0.3324 -0.63622,-0.69748 -0.88366,-1.04541 0.095,-0.23966 0.63391,-0.13901 1.50068,0.42891 1.15841,0.75902 1.81479,0.83658 2.76675,0.32711 2.54065,-1.35971 2.27889,-4.37442 -0.93741,-10.79314 -1.63041,-3.25378 -1.72283,-3.61063 -0.93637,-3.61063 z m -110.526589,3.12178 c -0.14465,0 -0.248084,0.0827 -0.316778,0.23047 -0.05439,0.0239 -0.08791,0.0778 -0.104902,0.15968 -0.03053,0.009 -0.056,0.024 -0.07545,0.0455 -0.1123,0.12383 -0.07303,0.28319 0.07803,0.42271 -0.01566,2.22593 2.133787,8.14479 3.912422,9.92343 2.05875,2.05874 4.736145,1.14106 4.736145,-1.62368 0,-0.0424 -0.003,-0.0833 -0.0041,-0.12506 0.0014,-0.0451 0.0041,-0.0894 0.0041,-0.13539 0,-0.0647 -0.01181,-0.1384 -0.02842,-0.216 -0.152657,-1.33559 -1.025158,-2.47182 -3.761526,-5.07566 -0.02649,-0.0252 -0.05209,-0.0488 -0.07855,-0.0739 -0.63542,-0.63297 -1.289409,-1.22881 -1.912543,-1.73323 -1.236514,-1.06904 -2.210154,-1.79885 -2.44843,-1.79885 z m 1.004072,2.05827 c 0.02952,-0.003 0.06611,0.004 0.106972,0.0176 l 1.128096,0.88728 c 1.466932,1.4304 3.698086,4.18848 4.404381,5.53868 0.09184,0.25722 0.151513,0.49314 0.168465,0.69608 -0.114829,0.54174 -0.339288,0.91472 -0.639754,1.11001 -0.488776,0.2362 -1.156915,-0.0112 -1.845882,-0.77256 -0.998471,-1.10345 -3.288461,-6.04495 -3.410127,-7.20886 0.0132,-0.10781 0.03878,-0.19617 0.077,-0.26355 0.0041,-8.6e-4 0.0065,-0.004 0.01085,-0.005 z M 160.971,233.89012 c 1.15709,-0.0228 1.3069,0.54563 1.3069,2.12751 0,1.56364 -0.0639,1.79657 -2.11512,1.83038 -0.21838,0.004 -0.48406,0.004 -0.74982,0.004 -0.0305,3e-5 -0.0547,5e-4 -0.0858,5.2e-4 -1.29304,-0.003 -2.20048,-0.0908 -2.73368,-0.26769 -0.24777,-0.12375 -0.40145,-0.30411 -0.5116,-0.56275 -0.0366,-0.18673 -0.047,-0.41377 -0.047,-0.69299 0,-1.28925 0.40903,-1.60978 2.65358,-2.08152 1.02263,-0.21492 1.7566,-0.34724 2.28255,-0.3576 z m -36.00452,0.37207 c 0.40329,0.0589 0.84308,0.61195 0.99012,1.61127 0.13248,0.90035 -0.12959,1.35547 -0.78031,1.35547 -0.6374,0 -0.97979,-0.56319 -0.97979,-1.6123 0,-0.01 0.001,-0.018 0.002,-0.0279 0.0651,-0.53768 0.24787,-1.03279 0.51884,-1.29139 0.0797,-0.0331 0.16331,-0.0477 0.24959,-0.0351 z m 5.16093,0.46974 c 0.47861,0 0.85418,0.0122 1.14876,0.0517 0.88375,0.11845 1.03612,0.48334 1.03612,1.50896 0,1.19654 -0.20719,1.49409 -1.54151,1.54977 -0.17041,0.007 -0.36607,0.01 -0.57516,0.0103 -0.002,-10e-6 -0.003,0 -0.005,0 -0.21971,-5.4e-4 -0.42612,-0.003 -0.60513,-0.009 -0.007,-2.2e-4 -0.0151,2.3e-4 -0.0217,0 -0.17999,-0.006 -0.33181,-0.0183 -0.47439,-0.0331 -0.0269,-0.003 -0.0612,-0.003 -0.0868,-0.007 -5.7e-4,-7e-5 -9.8e-4,-4.5e-4 -0.002,-5.2e-4 -0.0519,-0.006 -0.0987,-0.0146 -0.14573,-0.0227 -0.0251,-0.004 -0.0527,-0.008 -0.0765,-0.0129 -0.0185,-0.004 -0.034,-0.009 -0.0517,-0.0129 -0.2063,-0.0488 -0.35998,-0.12098 -0.47388,-0.22428 -3.6e-4,-3.3e-4 -6.8e-4,-7e-4 -0.001,-0.001 -0.0148,-0.0137 -0.031,-0.026 -0.0444,-0.0408 -0.008,-0.009 -0.0142,-0.0189 -0.0217,-0.0279 -0.0243,-0.0299 -0.0484,-0.0605 -0.0682,-0.0951 -0.1385,-0.24191 -0.16948,-0.61182 -0.17312,-1.14566 0.008,-0.96521 0.17298,-1.32127 1.03353,-1.43661 0.29459,-0.0395 0.67067,-0.0517 1.14929,-0.0517 z m 24.32771,0.49402 c 0.0426,0.0119 0.0901,0.10836 0.13953,0.29818 0.0629,0.2415 0.0984,0.52006 0.10852,0.79478 -0.0109,0.12852 -0.025,0.25827 -0.0455,0.38861 l -0.11782,0.74879 c -0.15472,0.28705 -0.26769,-0.19955 -0.2558,-1.16375 0.009,-0.70818 0.0774,-1.09267 0.17105,-1.06661 z m -16.52457,0.13023 c 0.63178,0 1.12885,0.0105 1.53479,0.0382 0.64515,0.18085 1.16861,0.38851 1.47536,0.58497 0.0718,0.18979 0.0979,0.44646 0.10542,0.76378 -0.0626,1.20123 -0.92606,1.50259 -1.55546,0.48421 -0.25861,-0.41845 -0.77463,-0.41845 -1.5565,0 -1.81747,0.97268 -2.97193,0.68807 -3.1104,-0.73587 -9e-5,-9.2e-4 -4.3e-4,-0.002 -5.2e-4,-0.003 -0.007,-0.10256 -0.0109,-0.20817 -0.0119,-0.31781 0.0194,-0.56973 0.95697,-0.81493 3.11919,-0.81493 z m 12.23232,0 c 2.15348,0 2.67352,0.16248 2.74144,1.01906 -0.0277,0.55763 -0.19896,0.98118 -0.5364,1.27899 -0.32838,0.13688 -0.85293,0.18672 -1.63194,0.19533 -0.0945,9e-4 -0.17716,0.003 -0.28009,0.004 -0.21801,-4e-4 -0.42042,-0.005 -0.60513,-0.0129 -0.004,-2e-4 -0.0101,-3.1e-4 -0.0145,-5.1e-4 -3.3e-4,-2e-5 -7.1e-4,1e-5 -0.001,0 -0.29736,-0.014 -0.55339,-0.0394 -0.77412,-0.0791 -0.81033,-0.14555 -1.14705,-0.48351 -1.32291,-1.156 -0.29003,-1.10907 -0.0188,-1.2485 2.42465,-1.2485 z m -25.42945,3.35845 c 0.36714,0.009 0.91417,0.0983 1.47795,0.25218 l 1.10949,0.30282 c 0.16419,0.25241 0.24111,0.57646 0.23564,0.98031 l -0.90898,2.57658 c -0.66228,1.87669 -1.65679,3.84296 -2.2102,4.36976 -0.22106,0.21041 -0.39178,0.3501 -0.5209,0.38809 -0.12435,-0.39463 -0.22532,-1.2291 -0.28526,-2.29185 0.0249,-0.48081 0.0565,-1.01777 0.10077,-1.68672 0.16561,-2.50159 0.42244,-4.66973 0.57051,-4.81779 0.0555,-0.0555 0.2107,-0.0788 0.43098,-0.0734 z m 36.29598,0.38757 h 1.87275 v 4.36976 c 0,2.63293 -0.26021,4.37028 -0.65474,4.37028 -0.90248,0 -3.06063,-4.92534 -3.07733,-7.02335 -0.001,-0.13592 0.003,-0.2502 0.007,-0.36587 0.0655,-0.75508 0.312,-1.09774 0.99167,-1.30534 0.23352,-0.0311 0.50946,-0.0455 0.86042,-0.0455 z m -5.84099,0.28112 c 1.14566,0.0214 1.47071,0.23238 1.47071,0.69143 0,0.13231 0.0214,0.25708 0.0574,0.37052 0.0263,0.40088 0.0743,0.51856 0.18862,0.33952 0.10544,0.11725 0.23561,0.19017 0.37827,0.19017 0.17095,0 0.32673,0.13968 0.43977,0.36431 0.1078,0.33842 0.11511,0.91303 0.0227,1.68414 -0.12432,0.27161 -0.30767,0.44855 -0.51419,0.44855 -0.372,0 -0.57572,0.30217 -0.45268,0.67128 0.12303,0.36911 0.46636,0.62612 0.76274,0.57102 0.0126,-0.002 0.0247,-9.3e-4 0.0372,-0.003 0.007,0.0297 0.0196,0.0258 0.0367,-0.002 0.87158,-0.0684 1.49762,1.52585 1.13482,2.97139 -0.0591,0.23554 -0.0895,0.4433 -0.0966,0.62477 -0.0571,0.0628 -0.0608,0.0972 10e-4,0.10026 0.007,0.43566 0.17627,0.68471 0.50075,0.68471 0.40712,0 0.56065,-0.3362 0.41651,-0.8599 0.36728,-0.008 0.83489,0.074 1.30225,0.22583 0.50673,0.36144 1.05042,0.68562 1.40353,0.81545 0.67687,0.24889 0.59037,0.36341 -0.31213,0.41342 -1.16623,0.0646 -1.17709,0.12315 -0.16536,0.89141 0.98193,0.74561 1.06939,2.20217 0.93637,15.58251 l -0.14314,14.38103 c -0.0246,0.14335 -0.0505,0.27075 -0.0786,0.3788 l -1.53737,0.005 c -0.88701,0.003 -1.73329,-0.11581 -1.88051,-0.26302 -0.14722,-0.14722 -2.6522,-0.40622 -5.56658,-0.57568 l -5.2989,-0.30851 -0.38448,-8.3199 c -0.21137,-4.57614 -0.59535,-10.21648 -0.85317,-12.53413 -0.35454,-3.18712 -0.2801,-4.21421 0.30489,-4.21421 0.61314,0 0.61223,-0.1937 -0.004,-0.93638 -0.42744,-0.51504 -1.59431,-0.93637 -2.59312,-0.93637 -2.41927,0 -2.84666,-1.23319 -1.22215,-3.10007 4.3e-4,-5e-4 6.1e-4,-0.001 0.001,-0.002 0.21312,-0.21428 0.45074,-0.43282 0.72192,-0.65578 0.70451,-0.57922 1.17959,-1.09098 1.52652,-1.74459 0.65495,-0.9517 0.92076,-1.97729 1.13326,-3.79099 0.19145,-1.6341 0.41344,-3.05067 0.52917,-3.41271 0.0351,-0.038 0.0718,-0.0747 0.11007,-0.11007 0.33992,-0.0905 2.31259,-0.29811 4.63176,-0.48369 1.38497,-0.11082 2.36771,-0.16632 3.05511,-0.15348 z m -22.2033,0.15193 c 0.38045,-0.003 0.80816,0.0162 1.28158,0.0568 0.73627,0.0632 1.30888,0.14096 1.7663,0.25632 0.46772,0.18756 0.90245,0.42748 1.33893,0.73432 0.18406,0.20853 0.33451,0.46121 0.47543,0.7705 0.37914,0.83212 1.41984,1.84584 2.31252,2.25257 0.16552,0.0754 0.31198,0.14762 0.44442,0.21911 0.49829,0.75023 0.67398,1.48396 0.73587,2.79259 -0.16391,1.0571 -0.28784,2.64571 -0.28784,3.79977 0,2.3406 -0.0698,2.41898 -2.14819,2.41898 -1.18148,0 -2.322,0.2809 -2.53421,0.62425 -0.22251,0.36004 0.3625,0.62425 1.38183,0.62425 h 0.48266 c 0.46117,0 0.78931,0.0173 1.01389,0.0951 0.0981,0.0443 0.17881,0.0954 0.24443,0.15658 l -0.73639,7.08381 c -0.41951,4.03443 -0.77697,9.87096 -0.79427,12.97027 l -5.2e-4,0.10903 c -0.018,0.56227 -0.0304,1.08008 -0.0305,1.50172 v 1.34358 l -0.18708,2.67994 -2.46651,-0.0155 c -1.45927,-0.009 -4.86795,0.20926 -7.57473,0.48524 l -4.51962,0.46096 c -0.20463,-0.64876 -0.22997,-2.17241 -0.23255,-5.18314 l 0.31213,-9.63663 c 0.26459,-8.17317 0.48909,-15.27807 0.49919,-15.7887 0.0101,-0.51063 0.63593,-1.41399 1.39062,-2.00763 0.75469,-0.59363 1.71748,-1.91298 2.1394,-2.9316 0.48749,-1.1769 1.08688,-1.72876 1.64486,-1.51464 0.16965,0.0651 0.31704,0.0772 0.44287,0.0506 0.0527,0.0542 0.11635,0.0552 0.1881,-0.0165 0.0434,-0.0434 0.0769,-0.10363 0.10387,-0.17208 0.0924,-0.13065 0.14366,-0.32036 0.14366,-0.56534 0,-0.39656 -0.1366,-0.65455 -0.33383,-0.70797 -0.0478,-0.0525 -0.0899,-0.0522 -0.12557,-0.007 -0.053,0.008 -0.10736,0.0249 -0.16485,0.0605 -0.34336,0.21221 -0.62425,-0.22263 -0.62425,-0.96634 0,-0.93471 0.28396,-1.24344 0.91984,-0.99943 0.50596,0.19415 1.13796,-0.002 1.40456,-0.43666 0.23813,-0.3879 0.9526,-0.58972 2.09393,-0.5979 z m 12.07317,3.60908 c 0.31138,0.0311 0.3638,0.4544 0.3638,1.45728 0,1.00523 -0.55047,2.29627 -1.2485,2.92798 -0.28474,0.2577 -0.49899,0.44694 -0.6687,0.56948 -0.33471,-0.16789 -0.56592,-0.80082 -0.57309,-1.92702 0.0339,-1.466 0.39087,-2.2447 1.24179,-2.70009 0.41784,-0.22362 0.69787,-0.34626 0.8847,-0.32763 z m -16.87339,2.43965 c -0.0746,-0.003 -0.15704,0.0198 -0.24288,0.0729 -0.34336,0.21221 -0.62425,0.65049 -0.62425,0.97358 0,0.22279 0.13521,0.41519 0.33073,0.5147 0.0633,0.0447 0.14775,0.0729 0.25683,0.0729 0.007,0 0.0136,-0.002 0.0207,-0.002 0.005,1.3e-4 0.0105,0.002 0.016,0.002 0.0177,0 0.0344,-0.006 0.0517,-0.008 0.0213,-0.003 0.0424,-0.005 0.063,-0.01 0.006,-0.002 0.0125,-0.003 0.0186,-0.005 0.28144,-0.0716 0.49144,-0.31342 0.49144,-0.60099 0,-0.0529 -0.008,-0.10021 -0.014,-0.14935 0.009,-0.0645 0.014,-0.13103 0.014,-0.19947 0,-0.4015 -0.15803,-0.65052 -0.38189,-0.66042 z m 31.1583,1.71204 c 0.0268,-0.003 0.0699,0.0154 0.12454,0.0475 -0.0163,0.11124 -0.0483,0.2107 -0.0992,0.30024 -0.0719,-0.2189 -0.0904,-0.34035 -0.0253,-0.34778 z m -33.27393,1.17047 c -0.34336,0 -0.62425,0.28089 -0.62425,0.62425 0,0.22737 0.12455,0.42516 0.30747,0.53433 0.0644,0.0557 0.15724,0.0899 0.28009,0.0899 0.007,0 0.0126,-0.002 0.0191,-0.002 0.006,1.7e-4 0.0115,0.002 0.0176,0.002 0.34335,0 0.62425,-0.28089 0.62425,-0.62425 0,-0.34336 -0.12351,-0.62425 -0.27492,-0.62425 -0.0348,0 -0.0781,0.0163 -0.12557,0.0434 -0.0697,-0.0271 -0.14475,-0.0434 -0.22376,-0.0434 z m 14.54123,5.61826 h 2.31562 0.001 0.0212 c 1.46695,0 2.03882,0.0194 2.33836,0.66404 l 0.36793,5.73505 c 0.22612,3.51939 0.58591,8.7165 0.79944,11.54916 0.31592,4.19073 0.22681,5.12955 -0.47801,5.03795 -0.47641,-0.0619 -2.23715,-0.21942 -3.91294,-0.34986 l -2.9993,-0.23357 0.009,-0.17105 0.0465,-0.73639 0.26509,-2.3363 c 0.20227,-1.78197 0.56074,-6.82152 0.79686,-11.19931 z m 20.8318,28.51862 2.08876,0.41806 c 0.99849,0.19969 1.92842,0.45797 2.25154,0.61857 0.0912,0.13473 0.13879,0.29324 0.16175,0.47697 -0.0232,0.35922 -0.13846,0.89858 -0.32401,1.45521 l -0.4129,1.23817 c -0.0917,0.0774 -0.18689,0.12964 -0.28422,0.15608 l -1.65881,-2.07897 z m -36.30941,0.0238 -1.71669,1.38131 c -0.94423,0.7597 -1.71669,1.78208 -1.71669,2.27222 0,0.14253 -0.0114,0.26114 -0.0279,0.36843 -0.22061,0.26919 -0.42288,0.41577 -0.60875,0.44029 -0.30328,-0.21235 -0.63451,-0.79213 -0.79633,-1.63451 -0.40326,-2.09923 -0.50183,-2.00036 2.44791,-2.45515 z m 79.44166,0.0765 c -4.39066,0.0233 -7.85654,0.28609 -10.19318,0.75086 -0.86235,0.0829 -1.47742,0.16938 -1.66966,0.2532 -0.25525,0.11131 -0.45716,0.25414 -0.61857,0.41654 -0.71829,0.32993 -1.09812,0.7122 -1.09812,1.14308 0,0.99819 2.36613,3.14896 3.46697,3.15277 0.41309,0.38121 0.60387,0.71544 0.45062,0.86868 -0.13753,0.13753 -0.12815,0.34306 -0.009,0.55293 0.0202,0.16584 0.0698,0.32385 0.14883,0.45167 0.49812,0.80597 14.04802,0.80597 15.29519,0 0.15117,-0.0977 0.1573,-0.18299 0.0253,-0.25683 0.29234,-0.0438 0.5009,-0.0878 0.54674,-0.12973 0.14306,-0.13089 -2.84547,-0.2377 -6.64146,-0.2377 -1.49467,0 -2.66314,-0.008 -3.58582,-0.0331 -0.0814,-0.003 -0.15932,-0.006 -0.23616,-0.009 -0.12357,-0.004 -0.22044,-0.0107 -0.33435,-0.0155 -0.11952,-0.006 -0.23328,-0.013 -0.34055,-0.0207 -1.03917,-0.0994 -1.53305,-0.26573 -1.80144,-0.55759 -0.0939,-0.16121 -0.11834,-0.36023 -0.11834,-0.6129 0,-0.6867 -0.40287,-1.24849 -0.89555,-1.24849 -0.49268,0 -1.68649,-0.30068 -2.65307,-0.66818 -0.20125,-0.0765 -0.37586,-0.14544 -0.52865,-0.20879 -0.38197,-0.28538 -0.61097,-0.52993 -0.63458,-0.74567 0.10872,-0.0957 0.27713,-0.20172 0.50953,-0.33176 0.60711,-0.33978 4.67873,-0.90347 9.04802,-1.25265 5.72132,-0.4572 8.50618,-0.81613 8.13439,-1.02991 l 0.44235,-0.0346 -0.29766,0.005 0.29766,-0.0279 -0.58033,0.0119 c -0.31548,-0.0715 -1.06957,-0.12295 -2.28099,-0.15039 -1.34929,-0.0306 -2.63391,-0.0421 -3.84835,-0.0357 z m -50.35041,0.24598 c 3.73329,-0.0268 7.71132,1.58911 9.14673,4.5992 0.91009,1.90852 0.92761,2.2692 0.1328,2.77193 -0.50246,0.31779 -4.63601,0.58203 -9.18548,0.58703 -8.16545,0.009 -8.27126,-0.008 -8.26926,-1.39472 10e-4,-0.77256 0.55031,-2.30341 1.22007,-3.40188 1.29613,-2.12572 4.05147,-3.14068 6.95514,-3.16156 z m -22.49527,0.0982 c 3.09083,0.0107 5.53342,1.1249 7.01249,3.1538 0.39335,0.6839 0.79258,1.49927 1.13947,2.30736 0.0693,0.22471 0.13227,0.45476 0.18552,0.69196 l 0.3855,1.7172 -8.59586,-0.0103 c -4.72768,-0.005 -8.90052,-0.21592 -9.27282,-0.46818 -0.44827,-0.30374 -0.49258,-1.15157 -0.13177,-2.51094 0.67211,-2.53223 3.26074,-4.21162 7.3241,-4.75062 0.67592,-0.0897 1.3278,-0.1324 1.95337,-0.13023 z m -73.046704,2.70422 c -2.671466,-0.004 -5.873107,0.0134 -9.711552,0.0486 -10.987389,0.10054 -20.469158,0.32859 -21.070032,0.50694 -0.600872,0.17836 -1.092439,0.82929 -1.092439,1.44696 0,0.98597 -0.758536,1.15972 -6.218742,1.42263 -5.414857,0.26075 -7.612961,0.81614 -8.052738,2.15234 -0.07035,0.10514 -0.09393,0.2001 -0.06615,0.29816 -0.01202,0.0885 -0.02067,0.17864 -0.02067,0.27336 0,1.56909 4.706601,2.23216 18.348751,2.58538 12.203605,0.31599 13.791224,0.47834 14.827001,1.51413 0.322543,0.32253 0.662657,0.55507 1.288293,0.72245 l 0.588079,0.58652 10.412283,-0.1938 c 0.31396,-9.8e-4 0.557226,-2.7e-4 0.888836,-0.002 6.609604,-0.0255 13.281382,-0.24312 14.826485,-0.48371 1.983531,-0.30879 2.592247,-0.54425 2.674771,-1.26968 0.139597,-0.25122 0.128452,-0.48956 -0.02015,-0.76118 -0.02564,-0.71054 0.237752,-1.02492 1.082622,-1.19425 0.337931,-0.0159 0.703217,-0.0699 1.067633,-0.15865 0.6101,-0.11271 1.221534,-0.36261 1.681551,-0.6718 0.377122,-0.1696 0.655892,-0.34875 0.756545,-0.5116 0.04644,-0.0751 0.07596,-0.1538 0.09198,-0.23511 0.140388,-0.18237 0.153998,-0.34067 0.03256,-0.53744 0.128966,-1.17232 -1.460524,-2.06082 -4.586282,-2.52955 -0.890416,-0.13354 -1.678054,-0.33518 -2.18798,-0.53848 -0.205875,-0.12534 -0.39847,-0.2576 -0.559657,-0.39741 -0.01148,-0.01 -0.02407,-0.019 -0.03565,-0.0289 -0.02167,-0.29911 -1.064729,-0.90408 -2.338877,-1.35342 -1.349455,-0.47606 -4.592069,-0.67866 -12.606465,-0.69091 z m -5.111316,1.187 c 9.334474,-0.0152 14.038638,0.15793 16.221231,0.55605 1.720557,0.31385 1.957097,0.42892 1.240235,0.99685 -0.01794,0.006 -0.0365,0.0108 -0.05374,0.017 -0.247441,0.084 -0.417225,0.22151 -0.456819,0.3793 -0.700154,0.58402 -0.205375,0.73718 2.812229,1.08159 2.051085,0.23411 4.249023,0.57113 4.884457,0.7488 1.747369,0.48855 0.646025,1.14488 -2.088245,1.44746 -1.621134,6.3e-4 -2.895314,0.14139 -3.759978,0.36277 -2.079418,0.38626 -2.23607,1.1222 -0.156062,1.94355 0.692084,0.27328 1.03577,0.43971 0.91054,0.5457 -0.220728,0.0444 -0.517493,0.091 -0.879533,0.14108 -0.476422,0.0287 -1.138693,0.0474 -2.04897,0.0641 -2.060136,0.0378 -7.679076,0.20997 -12.486061,0.3824 -4.863369,0.17444 -9.29377,0.0542 -9.988536,-0.27078 -0.293222,-0.13718 -0.493078,-0.26561 -0.599964,-0.37155 0.01835,-0.0801 0.0495,-0.16415 0.0863,-0.24908 0.0162,-0.002 0.02688,-0.006 0.04548,-0.007 0.429194,-0.0241 0.780312,-0.43989 0.780312,-0.92398 0,-0.73321 -2.266653,-0.86452 -13.57798,-0.78703 -14.562245,0.0998 -21.38772,-0.44918 -20.21117,-1.62573 0.346633,-0.34663 3.057201,-0.76533 6.215641,-0.98187 8.53e-4,-5e-5 0.0017,8e-5 0.0026,0 1.548542,-0.0557 2.810477,-0.13313 3.827156,-0.24079 3.184324,-0.23681 3.503647,-0.51203 3.654042,-1.57097 l 0.0863,-0.60616 c 1.562034,-0.39632 8.15576,-0.74991 15.603699,-0.96377 3.760798,-0.0385 7.094391,-0.0631 9.93686,-0.0677 z m 67.16024,4.21733 c 0.0355,-3.4e-4 0.1075,0.0262 0.21911,0.0832 0.44645,0.22807 2.13234,0.63748 3.74602,0.9095 l 2.93367,0.49456 -2.53369,0.0734 c -1.47511,0.0428 -3.04005,-0.3374 -3.74551,-0.90951 -0.49987,-0.40539 -0.72607,-0.6501 -0.6196,-0.65111 z m 44.06863,0.25114 c 0.0542,0.001 0.1,0.006 0.14779,0.0109 -0.108,0.1039 -0.25513,0.2327 -0.44803,0.38912 -0.70546,0.57211 -2.2704,0.95232 -3.74551,0.90951 l -2.53421,-0.0734 2.93419,-0.49456 c 1.2379,-0.20868 2.51255,-0.49755 3.24321,-0.72398 0.1465,-0.0129 0.28448,-0.0204 0.40256,-0.0176 z"
       style="fill:#1a1a1a;stroke-width:0.62428355" />
  </g>
</svg>
