<?xml version="1.0" encoding="UTF-8" standalone="no"?>
<svg
   xmlns:dc="http://purl.org/dc/elements/1.1/"
   xmlns:cc="http://creativecommons.org/ns#"
   xmlns:rdf="http://www.w3.org/1999/02/22-rdf-syntax-ns#"
   xmlns:svg="http://www.w3.org/2000/svg"
   xmlns="http://www.w3.org/2000/svg"
   id="svg6842"
   version="1.1"
   viewBox="0 0 210 297"
   height="297mm"
   width="210mm">
  <title
     id="title7410">Summer Beach</title>
  <defs
     id="defs6836" />
  <metadata
     id="metadata6839">
    <rdf:RDF>
      <cc:Work
         rdf:about="">
        <dc:format>image/svg+xml</dc:format>
        <dc:type
           rdf:resource="http://purl.org/dc/dcmitype/StillImage" />
        <dc:title>Summer Beach</dc:title>
        <dc:date>2020-04-06</dc:date>
        <dc:creator>
          <cc:Agent>
            <dc:title>Public domain</dc:title>
          </cc:Agent>
        </dc:creator>
        <dc:source>http://www.supercoloring.com/coloring-pages/summer-beach-scene</dc:source>
        <dc:subject>
          <rdf:Bag>
            <rdf:li>csk</rdf:li>
            <rdf:li>beach</rdf:li>
            <rdf:li>summer</rdf:li>
          </rdf:Bag>
        </dc:subject>
      </cc:Work>
    </rdf:RDF>
  </metadata>
  <g
     id="layer1">
    <path
       id="path7401"
       transform="scale(0.26458333)"
       d="m 448.46289,175.92773 v 0.004 c -0.28655,-0.007 -0.53533,9.9e-4 -0.74219,0.0254 -0.47289,0.055 -0.73047,0.18938 -0.73047,0.41797 0,0.50428 3.48003,4.71135 7.72852,9.34961 6.25096,6.8244 49.90751,90.19049 48.18945,92.02148 -0.25511,0.27175 -5.81227,-1.55949 -12.34961,-4.0664 -8.85842,-3.3969 -18.9007,-4.84985 -39.41601,-5.70899 -25.22861,-1.05652 -29.24146,-0.66262 -48.06446,4.68555 -11.2959,3.20941 -23.14026,7.72115 -26.32421,10.03125 -3.18403,2.31001 -8.30539,4.83141 -11.38086,5.60352 -3.07533,0.77191 -6.86471,2.94673 -8.41602,4.83398 -2.50722,3.05003 -1.97104,3.23296 4.82617,1.63086 4.20571,-0.99134 11.01236,-1.90494 15.12305,-2.03125 11.54423,-0.35565 47.44268,2.55096 52.90039,4.2832 4.76349,1.5119 4.72614,1.62601 -1.53125,4.83203 -13.30904,6.81925 -49.01367,38.86716 -49.01367,43.99414 0,4.06001 3.25195,2.73612 9.62695,-3.91796 3.34023,-3.48647 9.17865,-6.80407 12.97266,-7.37305 3.79396,-0.56893 15.01437,-3.19336 24.93359,-5.83399 9.91937,-2.64057 19.52426,-4.48298 21.34766,-4.0957 1.98334,0.42138 -5.35629,7.45391 -18.27539,17.50391 -11.87702,9.23923 -27.01886,23.00408 -33.64649,30.58789 -14.81556,16.95259 -30.0664,38.59195 -30.0664,42.66601 0,1.66708 -2.45874,6.6494 -5.46289,11.07032 -5.60013,8.24141 -7.16402,15.76172 -3.27735,15.76171 1.20167,0 2.18555,-1.57324 2.18555,-3.49804 0,-4.01772 23.33975,-27.04784 42.55664,-41.99024 7.18311,-5.58534 22.42099,-14.93717 33.86328,-20.78515 11.44226,-5.84798 21.7867,-11.39225 22.98828,-12.32227 1.20167,-0.93006 5.31808,-2.12557 9.14844,-2.6582 6.08878,-0.84673 6.7066,-0.49246 4.91602,2.85351 -6.75345,12.61886 -11.33218,66.56839 -5.48438,64.61915 1.27986,-0.42679 2.89079,-4.22801 3.57617,-8.44532 2.04647,-12.59036 30.16992,-53.83687 34.76953,-50.99414 0.94836,0.5861 2.38521,6.73096 3.19532,13.65625 2.31019,19.76001 9.56538,44.07102 17.75195,59.48828 4.12743,7.7729 7.50195,15.47965 7.50195,17.1211 0,1.6416 1.08591,2.62144 2.41211,2.17968 1.32624,-0.44197 2.77418,-6.6696 3.2168,-13.83789 1.09576,-17.75905 5.13777,-50.36828 7.625,-61.52148 1.12361,-5.03826 2.10691,-12.4108 2.18945,-16.38477 0.14325,-7.07398 0.21168,-7.01786 3.31641,2.60743 8.16098,25.30245 12.05348,54.71417 8.60156,64.99804 -1.04474,3.1135 -0.7721,4.91406 0.74609,4.91406 3.53806,0 14.75317,-25.33305 17.89649,-40.42187 1.50145,-7.20771 3.31956,-19.83278 4.03711,-28.05273 l 1.30273,-14.94336 13.10742,11.42773 c 7.20979,6.28422 14.09808,13.19901 15.30664,15.36914 1.20855,2.17017 6.3239,7.4781 11.36719,11.79492 10.93557,9.36042 39.1848,44.63556 40.28321,50.30274 0.4258,2.19658 2.14284,4.44733 3.81445,5.0039 2.36659,0.78811 2.6663,-0.37752 1.35351,-5.27734 -2.18849,-8.16873 -2.6408,-22.67984 -0.70507,-22.67969 2.36481,2.3e-4 40.15085,42.715 57.01367,64.45117 17.29394,22.292 45.55716,63.84839 55.93945,82.25 l 6.96289,12.33594 -8.22656,6.78125 c -9.88263,8.14609 -10.75366,8.25576 -12.42969,1.57813 -0.71792,-2.86061 -3.0383,-5.78093 -5.15429,-6.49024 -2.11605,-0.70957 -5.43536,-2.459 -7.375,-3.88672 -3.5353,-2.60254 -6.50212,-1.96329 -13.14649,2.82813 -4.42685,3.19223 -16.82791,-2.10018 -21.0332,-8.97461 -3.31646,-5.42139 -16.0645,-6.18746 -20.19141,-1.21484 -2.99335,3.60684 -8.74023,4.44307 -8.74023,1.27148 0,-1.1037 3.69116,-4.29984 8.19726,-7.10156 6.30667,-3.92111 11.46297,-5.12041 22.39453,-5.21289 12.55091,-0.10659 15.15053,0.63011 22.39063,6.36914 15.47433,12.26604 11.07484,3.58342 -7.31445,-14.43555 -44.11197,-43.22366 -105.88179,-72.81581 -176.75586,-84.68164 -82.06232,-13.739 -162.75879,7.8173 -234.17383,62.54883 -27.13402,20.79503 -82.61719,78.44667 -82.61719,85.8457 0,1.40629 -4.56303,7.43007 -10.13476,13.38672 l -10.13086,10.83008 h -116.5879 c -102.177007,0 -116.5839794,0.40532 -116.5839794,3.27734 0,2.88469 21.1306834,3.29601 176.4238294,3.43555 l 176.42187,0.1582 -18.57422,6.00781 c -29.53798,9.55405 -41.50781,16.81216 -41.50781,25.16797 0,2.52885 2.05263,5.87791 4.5625,7.44532 2.5098,1.56744 22.47247,5.15771 44.36524,7.97656 21.8928,2.81888 44.1737,6.27752 49.51172,7.68555 10.60543,2.79729 19.53906,7.74 19.53906,10.8125 0,3.69504 -18.67774,8.90501 -66.80274,18.63476 -67.60089,13.66757 -103.99612,27.07807 -107.10547,39.4668 -2.03636,8.1134 0.0328,11.18148 13.24415,19.63281 14.16268,9.05979 15.25137,13.72947 4.99804,21.50781 -10.16723,7.71292 -28.04042,13.13974 -72.72656,22.08985 -47.27938,9.46953 -64.95126,14.25331 -90.058594,24.375 -41.672643,16.80026 -70.441406,40.61355 -70.441406,58.29882 0,7.51004 9.694041,16.21167 22.695312,20.375 9.352793,2.99494 28.204258,3.84717 116.039058,5.24805 57.67865,0.92028 116.17529,2.82795 129.99415,4.23828 68.80579,7.02195 120.09399,20.92725 149.72265,40.59375 26.492,17.58429 19.63214,29.81259 -20.66601,36.84769 -19.81119,3.4585 -29.48631,9.1952 -38.94141,23.084 -11.52386,16.9274 -11.65868,35.2409 -0.45703,62.1484 3.94692,9.4809 8.1873,16.5176 9.95117,16.5176 3.99916,0 4.12228,0.5441 -3.54102,-15.8321 -3.63846,-7.7752 -7.37601,-18.4552 -8.30468,-23.7324 -5.12417,-29.1152 15.31192,-56.5664 42.10937,-56.5664 7.04357,0 14.81929,-2.1038 24.00196,-6.4863 21.12302,-10.0811 23.14316,-20.3013 6.83593,-34.61916 C 423.34914,972.99795 375.22335,956.30223 320.27344,948.125 280.55741,942.21465 243.3385,940.33993 164.28906,940.26562 56.339493,940.16207 28.418739,936.8024 21.052734,923.03906 c -3.66288,-6.84431 2.75978,-18.54702 15.865235,-28.90625 31.397684,-24.81846 66.923331,-37.9536 143.693361,-53.12304 51.87074,-10.24943 71.66276,-17.91285 78.3125,-30.33789 4.03374,-7.53721 2.33246,-10.61785 -11.54688,-20.8711 -14.35192,-10.60252 -15.71452,-12.50167 -12.08984,-16.86914 8.76903,-10.56609 44.56826,-22.14994 107.75977,-34.875 53.20122,-10.71341 63.1784,-14.28506 64.1875,-22.97461 1.30653,-11.2515 -15.08939,-16.64521 -72.75977,-23.94336 -20.42782,-2.5852 -38.82666,-5.59503 -40.88477,-6.6875 -9.05299,-4.80529 4.19103,-13.60328 34.33008,-22.80273 10.81474,-3.30104 21.0415,-7.07935 22.72656,-8.39844 2.0538,-1.60785 28.82898,-2.63625 81.2129,-3.11523 l 78.14453,-0.71289 7.95898,25.83789 c 4.37658,14.21171 11.18076,35.98889 15.11914,48.39062 l 7.16016,22.54688 -6.20508,8.56835 c -3.41284,4.71118 -6.20898,9.53632 -6.20899,10.72071 0,7.03291 -29.75025,14.13144 -53.90234,12.86133 -14.48526,-0.76184 -14.80304,-0.66267 -16.94531,5.35937 -2.91942,8.20671 -0.54658,9.42632 21.98047,11.30274 10.04606,0.83679 18.83285,2.44137 19.52734,3.56445 0.69411,1.1232 -11.09823,18.64345 -26.20508,38.9375 -15.10677,20.29418 -28.03551,38.38601 -28.73242,40.20117 -0.76656,1.99751 0.50537,4.247 3.22266,5.70117 4.83526,2.58788 7.27804,0.94686 16.91992,-11.37304 l 4.67969,-5.98243 18.66211,5.40625 c 33.2081,9.62336 65.90151,21.8099 71.18945,26.53321 0.49345,0.441 -0.98132,4.31922 -3.27734,8.61718 -4.11738,7.70691 -4.12001,7.85584 0.0625,10.93555 2.33257,1.71768 4.79153,3.11577 5.46289,3.10742 0.67154,-0.0113 13.83495,-19.25714 29.25195,-42.77148 16.46491,-25.11227 29.11977,-42.33559 30.67187,-41.74024 2.95045,1.13227 90.87035,24.32989 100.1543,26.42579 4.49137,1.01394 6.4679,0.31282 8.18555,-2.89649 3.73255,-6.9741 0.4465,-10.54301 -12.62695,-13.72461 l -12.4043,-3.01953 -2.8086,-19.57422 c -1.54537,-10.76481 -4.11604,-37.26692 -5.71289,-58.89648 l -2.90234,-39.32617 5.57227,-9.83204 c 3.065,-5.40733 11.36328,-18.65925 18.44336,-29.44726 l 12.875,-19.61524 -4.85157,-3.92578 c -4.60596,-3.72983 -5.06485,-3.7389 -9.03906,-0.14257 -3.60472,3.26271 -8.79375,3.76467 -37.37695,3.61523 -22.57161,-0.1183 -37.9469,-1.31078 -48.06836,-3.73047 -8.18563,-1.95689 -16.78082,-3.55859 -19.09571,-3.55859 -2.88136,0 -12.24766,10.70914 -29.69921,33.95898 -14.0202,18.6782 -26.28013,33.17116 -27.2461,32.20508 -1.63438,-1.63439 -24.20662,-73.45639 -23.16211,-73.69922 0.26117,-0.0605 57.69035,0.19157 127.6211,0.5625 l 127.14648,0.67578 -9.71289,9.57422 c -8.85993,8.7343 -12.03468,14.20117 -8.24805,14.20117 0.80659,0 3.01896,-1.36454 4.91602,-3.0332 1.89713,-1.66878 6.88808,-3.75027 11.09375,-4.625 l 7.64648,-1.5918 -4.70508,5.17188 c -2.58858,2.8438 -6.19219,8.77997 -8.00976,13.19336 -4.60033,11.17043 -1.52274,14.52352 12.16992,13.2539 10.1565,-0.94171 10.37695,-1.12023 10.37695,-8.38867 0,-4.08473 -0.43745,-7.42578 -0.97656,-7.42578 -0.53885,0 -3.63349,2.45873 -6.875,5.46289 -7.27631,6.74347 -14.63375,7.83552 -8.71289,1.29297 2.07564,-2.29346 6.64995,-5.36695 10.16797,-6.82422 3.51806,-1.45724 6.39648,-4.00148 6.39648,-5.6582 0,-3.6065 -1.12323,-3.73212 -6.69531,-0.75 -5.99361,3.20773 -5.24128,0.25389 1.23438,-4.83985 8.71007,-6.85134 7.2277,-11.34256 -3.27735,-9.93359 -4.8065,0.64493 -8.74023,0.83529 -8.74023,0.42578 0,-0.40959 3.93373,-2.95682 8.74023,-5.6582 10.23387,-5.75176 11.09336,-8.44569 2.73047,-8.55469 l -6.00781,-0.082 c 9.62178,-6.48943 -14.8464,-2.02609 -15.75781,-2.02539 -7.22766,0.77551 -14.31416,-5.53363 -17.01368,-0.11328 l -18.63476,0.0566 -18.63867,0.0586 -0.0879,-0.23242 c -37.87057,-1.37377 -62.83388,0.22525 -90.45118,0.23047 -45.66223,0 -83.02148,-0.78871 -83.02148,-1.75 0,-3.36445 5.2907,-6.98828 10.19531,-6.98828 2.72153,0 5.9654,-1.9071 7.21094,-4.23438 1.35859,-2.53848 5.08268,-4.50563 9.30664,-4.91601 6.40468,-0.62256 7.21115,-1.54096 8.91016,-10.18946 l 1.86328,-9.50781 10.20898,1.51172 c 5.61298,0.8307 10.53117,2.40411 10.93164,3.49805 1.88727,5.15456 11.28711,0.4537 11.28711,-5.64453 0,-0.39685 -4.17814,-1.43096 -9.28515,-2.29688 -7.77328,-1.31789 -8.52884,-1.85611 -4.64258,-3.29883 2.55318,-0.94787 5.69871,-4.74789 6.98828,-8.44726 1.43807,-4.1252 3.7056,-6.40235 5.98242,-6.58985 h 0.002 c 1.7709,-0.14589 3.54816,0.97144 4.94141,3.46094 1.10774,1.97952 4.76005,3.70115 8.11914,3.82422 3.35917,0.12321 6.52796,1.49629 7.04492,3.05078 0.67404,2.02631 -0.59683,2.44156 -4.49609,1.46289 -5.79216,-1.45368 -9.91263,1.97826 -5.58594,4.65235 1.42054,0.8779 7.90584,1.68056 14.41406,1.7871 11.27332,0.18406 12.11356,0.60932 17.75586,8.91797 3.25728,4.79671 8.08834,9.79893 10.73243,11.11719 2.64415,1.31822 6.80223,4.20399 9.24218,6.41211 1.22702,1.11042 2.24066,1.85895 3.125,2.27148 0.9153,-0.0993 2.02134,-0.1798 3.2168,-0.25 0.19026,-0.14241 0.37997,-0.29404 0.57031,-0.48437 1.84649,-1.84687 1.8423,-3.24931 -0.0293,-5.50391 -1.38206,-1.66356 -2.02358,-3.51148 -1.42579,-4.10937 0.59778,-0.59777 -0.86772,-2.85832 -3.25585,-5.01953 -3.35347,-3.03484 -5.03022,-3.35707 -7.36915,-1.41602 -2.3165,1.92279 -3.63701,1.78501 -5.61132,-0.59375 -3.4232,-4.12517 0.42975,-6.5514 7.56054,-4.76172 2.92124,0.73323 7.21299,0.14844 9.53321,-1.30078 5.29523,-3.3069 11.96116,1.31995 10.41601,7.22852 -0.64085,2.45088 0.97439,5.17376 4.39063,7.41211 3.21781,2.10849 4.90522,4.82786 4.17773,6.72461 -0.18316,0.47729 -0.23407,0.94718 -0.16797,1.40429 13.65365,2.50559 8.24142,-4.10669 1.04883,-11.46484 -2.40325,-2.40329 -4.37109,-6.21854 -4.37109,-8.47461 0,-6.76819 -5.60208,-9.71418 -15.4668,-8.13672 -8.48568,1.35681 -8.81988,1.1944 -7.38672,-3.54687 2.34936,-7.77184 4.7056,-9.25178 10.51367,-6.60547 3.76245,1.71402 5.9229,1.72139 7.61328,0.0312 1.69051,-1.69073 3.28785,-1.58897 5.63282,0.35742 4.30526,3.57312 7.72266,1.28232 6.28515,-4.21485 -1.23507,-4.72296 -5.25597,-5.55441 -11.27343,-2.33398 -4.46329,2.38873 -10.25431,-0.45762 -8.08204,-3.97266 0.82568,-1.33599 4.31133,-2.42773 7.74805,-2.42773 3.43658,0 9.11333,-1.64556 12.61328,-3.6543 2.80589,-1.61034 5.42848,-2.38806 7.60938,-2.40234 v 0.002 c 3.63477,-0.0227 6.04297,2.07504 6.04297,5.98633 0,2.93669 1.43431,4.43945 4.24023,4.43945 6.05666,0 7.68175,3.91782 1.97266,4.75782 -2.62738,0.38657 -5.22145,2.05214 -5.76563,3.70312 -0.75651,2.29493 0.74663,2.71981 6.38282,1.79688 14.55513,-2.38344 20.51919,-4.26081 22.87304,-7.19141 1.94192,-2.41781 3.48093,-2.4727 8.17578,-0.29297 5.65882,2.62738 7.18476,7.45681 4.00196,10.10156 0.29503,0.0359 0.59119,0.0652 0.88476,0.11328 4.72047,0.77385 7.95119,2.48212 10.16211,4.72071 0.66048,0.17408 0.94488,0.46209 0.84375,0.94336 1.58465,1.94063 2.53348,4.19583 3.08008,6.55859 l 1.86328,-1.98242 c 2.90415,-3.09139 8.80034,-6.07641 13.62109,-6.89063 l 8.5,-1.43359 v -12.91797 c 0,-7.15465 -0.97346,-12.91601 -2.18359,-12.91601 -1.20162,0 -2.22193,1.7194 -2.27148,3.82226 -0.0609,2.65149 -1.13335,1.89485 -3.49805,-2.4707 -2.60405,-4.98048 -4.6708,-18.71875 -6.37109,-11.69141 l -5.79102,-8.74804 c -1.87596,-12.97944 -11.78733,-18.33714 -15.67383,-24.19336 -3.44915,-13.8389 -13.49591,-19.47898 -16.1582,-23.43946 -4.56578,-6.62367 -4.53981,-19.61663 -9.09375,-14.11328 -4.78126,-12.80817 -14.26344,-16.83204 -19.4082,-22.94336 -3.27217,-11.33506 -10.79242,-12.4226 -14.38868,-16.16406 -2.91433,-4.45109 -7.05066,-17.02141 -8.66601,-11.7832 -0.34092,0.34091 -2.68276,-1.58425 -5.20703,-4.28321 -3.69289,-12.4579 -11.53428,-13.60174 -14.15821,-16.37695 -3.67953,-5.49206 -7.17473,-11.7091 -9.23437,-7.10156 -1.72486,0 -4.9412,-7.29408 -6.57422,-14.89649 -0.93165,-4.33731 -1.23211,-6.03656 -0.25586,-6.0332 0.58571,0.002 1.62861,0.61655 3.27148,1.64258 5.20366,9.21248 3.19769,9.20384 9.71094,18.24219 -0.62124,-3.96417 -0.29964,-7.69336 1.35352,-7.69336 7.40873,3.95269 7.83441,13.79151 12.61133,21.31054 0.0571,-0.31437 0.0983,-0.60875 0.16992,-0.94336 0.86116,-4.023 1.35053,-5.63794 2.56055,-5.57421 0.72599,0.0393 1.7109,0.68029 3.19531,1.77148 4.87188,8.06568 3.68002,11.1298 8.83008,20.41211 0.0411,-0.2414 0.068,-0.45925 0.11523,-0.71094 0.81162,-4.32639 1.99192,-7.86328 2.62695,-7.86328 7.06291,8.32944 5.59431,14.09024 11.72657,24.03125 0.1068,-0.37318 0.19531,-0.7138 0.32031,-1.12109 1.38523,-4.51351 2.0373,-6.2884 3.25586,-6.14844 0.73115,0.0839 1.66912,0.8549 3.08984,2.14062 2.5364,2.29546 3.99805,6.6494 3.99805,11.89258 -0.50832,4.10217 1.97333,7.57793 3.67969,11.31836 0.42182,-1.43524 0.68945,-3.25643 0.68945,-5.09961 0,-3.88395 0.49995,-5.89427 1.64258,-6.05078 1.14259,-0.15647 2.93274,1.53635 5.50195,5.06836 4.01052,9.63645 1.79925,12.14177 6.15039,22.08789 0.1693,-0.52263 0.31794,-1.00511 0.51758,-1.5957 l 3.00586,-8.89844 4.70117,5.97461 c 4.67429,8.20631 4.73811,14.72757 7.99219,23.49414 l 2.55664,-10.08203 6.73828,9.78906 c 6.34736,10.58479 3.54398,17.21035 6.54883,30.22266 0.77697,-1.99291 1.56736,-4.65151 2.12109,-7.31641 l 1.73828,-8.35937 4.51758,8.39648 c 4.5499,14.89062 0.72429,14.95919 4.87305,30.26367 0.0595,-0.13787 0.10157,-0.26481 0.16601,-0.40625 1.32261,-2.90294 2.51863,-7.93558 2.65821,-11.18359 0.19464,-4.5337 0.49599,-4.89171 1.30273,-1.53711 1.94408,8.08229 4.99609,8.7953 4.99609,1.16602 0,-8.26775 -21.18979,-41.65167 -47.19921,-74.35547 -18.43907,-23.18502 -83.24923,-88.39332 -89.96485,-90.51953 -3.59909,-1.13941 -8.53446,-8.66587 -17.77344,-27.08399 -18.85183,-37.581 -41.2914,-57.71233 -67.83007,-60.85547 -6.05137,-0.71663 -11.00586,-1.5996 -11.00586,-1.96289 0,-0.36299 7.36466,-8.33749 16.36132,-17.7207 8.9966,-9.38315 16.36825,-17.68164 16.38477,-18.43555 0.0903,-4.34864 34.00091,-36.16551 63.90234,-59.96094 2.08449,-1.65881 6.26267,-3.63762 9.28516,-4.39648 10.00656,-2.51152 5.69906,-5.27324 -8.16406,-5.24023 -32.70422,0.0804 -82.35666,20.48756 -107.97656,44.3789 l -13.6543,12.73438 -1.48438,-6.17969 c -5.63036,-23.39756 -31.32547,-47.04683 -65.7832,-60.55078 -10.37073,-4.06425 -23.26419,-7.52065 -27.5625,-7.6211 z m 15.51758,9.57422 c 0.15093,-0.003 0.31072,0.007 0.48047,0.0274 0.388,0.0491 0.82509,0.15686 1.30664,0.34179 4.36596,1.6754 21.15183,19.50794 32.26758,34.28125 16.06654,21.35308 31.9767,57.56982 31.97851,72.79493 5.7e-4,5.02873 0.89826,11.50506 1.9961,14.39257 1.86939,4.91718 2.89732,5.20514 16.19921,4.51563 25.77366,-1.3352 51.22409,10.2991 74.57813,34.09375 5.96304,6.07554 11.8962,11.04883 13.18555,11.04883 5.74836,0 23.3503,45.00803 26.48632,67.72851 l 1.05274,7.64649 -4.92774,-6.55469 c -2.7098,-3.60495 -12.73252,-14.63198 -22.27148,-24.50195 l -17.3418,-17.94336 1.44727,-12.29493 c 1.1105,-9.44863 0.79962,-12.07734 -1.33203,-11.36718 -1.52531,0.50786 -3.07653,2.8076 -3.44727,5.11133 -1.64148,10.19922 -2.54302,10.22907 -14.09375,0.44921 -6.29476,-5.32962 -13.11813,-10.30606 -15.1582,-11.05664 -2.04008,-0.75096 -5.34397,-4.60902 -7.34375,-8.57617 -7.69958,-15.27406 -31.18575,-33.57787 -36.39844,-28.36523 -1.40315,1.40319 -0.49931,2.67234 2.61914,3.66211 5.73959,1.82172 16.13423,17.6117 20.70508,31.46093 6.26793,18.99094 9.67031,44.82625 7.34375,55.73438 -2.68407,12.58507 -5.13157,11.36883 -6.88281,-3.41797 -1.66636,-14.06986 -9.97675,-43.28452 -13.57422,-47.7168 -1.46291,-1.80244 -3.38549,-5.65139 -4.27149,-8.55078 -3.92934,-12.85785 -8.0226,-20.34468 -10.02734,-18.33984 -1.32416,1.32411 -0.78015,5.21126 1.49414,10.6543 3.21615,7.69741 4.81258,41.43941 2.08984,44.16211 -0.47288,0.47284 -3.87209,-1.36767 -7.55664,-4.0918 -9.90092,-7.32005 -10.73303,-3.40795 -1.45898,6.85742 6.42864,7.11598 7.83637,10.15611 6.84375,14.80273 -0.68723,3.21672 -2.22338,13.62838 -3.41016,23.13672 -1.18681,9.50831 -2.55379,17.68748 -3.04101,18.17383 -1.42904,1.42908 -14.17846,-33.1197 -15.61914,-42.32617 -1.9914,-12.72575 2.38821,-48.38027 7.75,-63.10742 7.2384,-19.88112 7.56625,-21.39968 4.40429,-20.34571 -3.08983,1.0299 -9.67517,16.4903 -14.27539,33.51368 -2.48549,9.19709 -2.97629,9.85423 -3.09765,4.16406 -0.16781,-7.88981 6.5507,-28.50171 11.99609,-36.8125 3.65658,-5.58068 3.6152,-5.92548 -1.12305,-10.33984 -4.2243,-3.93546 -6.64731,-4.37973 -17.56835,-3.23829 -8.26054,0.8634 -15.97179,0.26647 -22.17188,-1.71484 -5.22943,-1.67108 -12.28348,-3.65081 -15.67383,-4.39648 -5.37445,-1.18167 -6.07363,-2.22758 -5.46094,-8.1875 0.93551,-9.10453 -3.13242,-10.07112 -6.36328,-1.51172 -2.84061,7.52572 -2.52267,7.50439 -28.88476,1.92968 -6.55374,-1.38592 -19.8257,-3.22323 -29.49414,-4.08398 l -17.58008,-1.56641 18.57031,-6.19922 c 14.52242,-4.84868 22.90499,-6.25599 38.43945,-6.44921 11.68158,-0.1457 22.0318,0.84108 25.125,2.39453 2.89301,1.45303 11.39593,5.06935 18.89844,8.03515 7.50263,2.96581 16.50231,7.43136 20,9.92188 3.49773,2.49062 7.4354,4.52734 8.75195,4.52734 4.74388,0 2.24203,-4.10973 -5.36718,-8.8125 -4.26894,-2.63832 -7.30832,-5.24638 -6.75586,-5.79883 2.04676,-2.04678 14.32757,6.02012 18.86523,12.39258 5.13287,7.2084 12.66386,9.50802 9.05078,2.76367 -1.12648,-2.10289 -4.35673,-6.39771 -7.17773,-9.54492 -6.54225,-7.29846 -9.30413,-12.30584 -32.63867,-59.08398 -10.58619,-21.22196 -20.28077,-39.22132 -21.54102,-40 -2.97609,-1.83925 -2.85968,-4.38287 -0.5957,-4.42188 z m 19.60156,7.95508 c 1.04969,0.005 3.63421,1.13685 7.76172,3.23828 32.32721,16.45891 52.1972,46.32658 45.10937,67.80274 -1.3238,4.01129 -3.06652,7.2782 -3.875,7.26172 -0.80793,-0.0147 -4.21598,-6.80446 -7.57031,-15.0918 -7.72989,-19.09836 -20.95428,-39.83525 -33.89843,-53.15235 -6.76041,-6.95497 -9.27693,-10.06958 -7.52735,-10.05859 z m 169.83789,6.23438 c 5.46316,0 5.04526,0.65284 -5.77734,9.02539 -6.41654,4.96382 -19.76795,16.97714 -29.67383,26.69922 l -18.01172,17.67968 -7.11328,-2.85937 c -11.59487,-4.65533 -14.76563,-5.29774 -14.76563,-3 0,1.19604 2.91743,3.38465 6.48243,4.86133 12.51167,5.18251 11.04545,9.70804 -10.07032,31.04296 -10.64228,10.75266 -22.19459,21.05204 -25.67187,22.88868 l -6.32422,3.33789 1.49024,-9.30274 c 2.53726,-15.86756 13.98587,-39.98329 25.43164,-53.5664 5.99943,-7.11971 12.60842,-15.60334 14.6875,-18.85547 6.42935,-10.05741 50.8036,-27.95117 69.3164,-27.95117 z m -80.56445,31.33789 c 0.1149,0.0147 0.20982,0.0572 0.28125,0.1289 0.65303,0.65301 -2.36415,5.11715 -6.70313,9.91992 -4.33897,4.80274 -11.04265,14.90929 -14.89648,22.45508 -3.85387,7.54579 -8.6845,19.61831 -10.73633,26.82813 -3.22896,11.34595 -3.9263,12.36374 -5.18945,7.57812 -1.65241,-6.26018 1.18702,-20.93607 6.52148,-33.70312 3.45064,-8.25855 27.16548,-33.70312 30.72266,-33.20703 z m -13.34766,73.44726 12.26367,0.94727 c 19.23119,1.48163 42.45948,15.17707 54.55664,32.16601 2.46694,3.46444 4.1714,6.26244 3.78907,6.21289 -0.38215,-0.0441 -5.61102,-4.44333 -11.61914,-9.77148 -13.08643,-11.60545 -31.14606,-21.62669 -47.2168,-26.20117 z m -93.25976,1.38282 c 3.58337,-0.0702 6.77781,0.25641 9.5039,0.99414 l 9.47266,2.56445 -10.92383,4.36133 c -6.00824,2.39962 -16.82341,4.77444 -24.0332,5.27734 -7.2099,0.50285 -20.24345,2.85758 -28.96875,5.22852 -19.02679,5.17 -19.26412,5.18518 -15.81836,1.0332 1.4959,-1.80244 3.95127,-3.27734 5.45703,-3.27734 1.50584,0 8.09593,-2.36739 14.64062,-5.26172 15.66513,-6.92791 29.91985,-10.70905 40.66993,-10.91992 z m 49.56445,3.32031 -7.64648,2.24414 c -4.20571,1.2344 -15.51185,4.99448 -25.125,8.35547 -9.61316,3.36089 -19.44636,6.86255 -21.84961,7.7832 -3.23777,1.24033 -3.77094,1.02198 -2.06055,-0.8457 3.02842,-3.30698 36.76621,-14.80437 47.94141,-16.33789 z m 1.12695,6.74414 c 0.22589,-0.01 0.42661,-0.009 0.60157,0.002 0.37341,0.0246 0.62792,0.0946 0.75,0.2168 0.3651,0.36446 -1.66665,6.40158 -4.51758,13.41601 l -5.18555,12.75586 -21.4375,7.17774 c -21.92576,7.34226 -24.86523,7.54729 -24.86523,1.73242 0,-5.51873 -5.40796,-1.96542 -6.12305,4.02344 -0.54259,4.54162 -3.21465,6.64601 -14.55273,11.46484 -7.6373,3.24586 -20.37097,10.16015 -28.29883,15.36719 -7.92786,5.20698 -20.54299,14.71888 -28.03125,21.13867 -11.09039,9.50797 -12.84942,10.46013 -9.48242,5.12109 17.07023,-27.06837 57.12678,-66.63671 67.45703,-66.63672 1.82649,-3e-5 11.52372,-3.92239 21.55273,-8.71679 14.30307,-6.83767 45.13017,-16.76204 52.13281,-17.0625 z m 51.66602,23.83789 c 2.6183,-0.26491 8.35923,13.18233 9.74609,23.40234 0.9165,6.75553 1.39529,12.55701 1.0625,12.89063 -1.49147,1.49144 -3.51953,-2.76267 -3.51953,-7.38281 0,-2.79089 -1.93966,-10.18769 -4.31445,-16.4375 -2.37479,-6.24988 -3.92762,-11.75206 -3.45117,-12.22852 0.14475,-0.14472 0.30191,-0.22649 0.47656,-0.24414 z m -62.6582,10.68164 c 5.35026,0 -0.0668,10.9275 -9.92188,20.01172 -5.43402,5.00886 -13.42371,14.84519 -17.75195,21.85742 -4.3282,7.01223 -8.15747,12.75 -8.51172,12.75 -1.86686,0 2.20378,-16.71738 4.53125,-18.60938 1.50444,-1.22285 4.58096,-5.2325 6.83594,-8.91015 6.18319,-10.08414 21.76537,-27.09961 24.81836,-27.09961 z m -15.27344,2.13281 c 0.41941,-10e-4 0.7618,0.1305 1.00781,0.41797 0.34091,0.39783 -3.18043,5.47944 -7.83008,11.29102 -9.44394,11.80353 -9.84244,11.85972 -5.18164,0.70507 2.44286,-5.84665 9.06744,-12.40474 12.00391,-12.41406 z m 7.66015,119.77149 29.8711,0.76757 c 26.59128,0.68368 30.42425,1.26918 34.95508,5.33399 2.79896,2.51112 11.96944,8.25801 20.38086,12.77148 29.7713,15.97489 59.76184,42.04626 77.83789,67.66602 5.85573,8.29954 10.64648,15.8032 10.64648,16.67578 0,0.87269 -4.17818,0.0896 -9.28516,-1.74023 -14.71891,-5.27407 -42.3651,-6.07495 -57.53125,-1.66602 -9.8022,2.84957 -15.38458,6.24584 -23.31445,14.17578 l -10.42578,10.42578 -1.29297,-5.72265 c -7.61805,-33.78101 -13.66714,-48.40354 -30.54492,-73.83008 -6.51833,-9.81989 -18.47719,-23.93006 -26.57422,-31.35547 z m -12.86132,1.00781 c 4.68646,-0.0393 7.16707,1.68921 13.95703,7.49219 33.4865,28.61892 55.89196,65.30462 64.02539,104.82812 1.77256,8.61354 3.8821,16.72343 4.68554,18.02344 2.43818,3.94511 -0.56949,2.69275 -10.0996,-4.21094 -18.63761,-13.50092 -47.94873,-16.97159 -71.0918,-8.41406 -10.04965,3.71603 -16.28815,8.34851 -30.39063,22.56445 l -17.74414,17.88867 -1.35547,-14.37304 c -3.98309,-42.16226 3.51054,-80.65532 24.23633,-124.46485 8.22512,-17.38609 8.2543,-17.4104 18.11524,-18.78906 2.29341,-0.32088 4.09999,-0.53173 5.66211,-0.54492 z m -24.57422,4.15234 c 0.27254,-0.007 0.50763,-0.002 0.70312,0.0156 0.44689,0.0393 0.6836,0.15093 0.6836,0.33008 0,0.48907 -3.92219,9.26049 -8.71875,19.49609 -4.79649,10.23556 -11.41696,28.31509 -14.71289,40.17578 -5.3559,19.27525 -5.99627,25.21679 -6.0293,55.97266 -0.0189,18.925 -0.52582,34.11926 -1.12695,33.76172 -0.60084,-0.35717 -6.87567,-3.44135 -13.94532,-6.84961 -22.55429,-10.87367 -50.79146,-8.2665 -70.0957,6.46875 -10.27068,7.83987 -12.09706,8.74093 -12.07227,5.94921 0.059,-6.29222 9.519,-39.10751 14.64454,-50.79687 14.88408,-33.94447 24.44196,-48.09891 51.49609,-76.25 14.88348,-15.48684 18.41037,-17.99115 30.50195,-21.67773 12.11822,-3.69472 24.58377,-6.49791 28.67188,-6.59571 z m 111.64258,0.47266 c 4.10626,-0.35906 28.65173,5.89693 48.55468,12.47656 35.79254,11.83268 79.85401,36.66376 103.20703,58.16602 l 9.99024,9.20117 -11.53906,0.084 c -15.12798,0.11377 -23.79612,3.97873 -33.78711,15.05078 -9.14941,10.13931 -10.38672,10.75795 -10.38672,5.21875 0,-4.85332 -12.69367,-23.98954 -26.83594,-40.45312 -14.69605,-17.10822 -42.51218,-38.98622 -63.35937,-49.83203 -9.45495,-4.91909 -16.83018,-9.30663 -16.38672,-9.75 0.0843,-0.0843 0.26937,-0.13792 0.54297,-0.16211 z m -168.30664,17.01758 c 0.11148,0.0151 0.19154,0.0443 0.24218,0.0937 0.55106,0.55109 -2.75011,4.0201 -7.33789,7.70703 -11.2388,9.03171 -30.82284,35.06083 -41.90429,55.69531 -10.11077,18.8267 -20.66118,47.98458 -22.9961,63.55469 -0.84374,5.62681 -2.1631,10.19361 -2.92773,10.15234 -0.76483,-0.0442 -4.34033,-2.4892 -7.94532,-5.4375 -14.04937,-11.48999 -41.09048,-15.38555 -60.14648,-8.66211 -5.14518,1.8155 -9.69998,2.95627 -10.12109,2.53516 -1.21032,-1.21028 27.03848,-33.89657 42.82031,-49.54688 18.63617,-18.48087 38.10526,-34.59974 58.02148,-48.03906 16.83844,-11.36247 48.84029,-28.46572 52.29493,-28.05273 z m 225.52539,79.16992 c 13.48369,-0.0302 28.23147,2.93344 38.28906,8.06445 8.11325,4.13908 8.33563,4.5345 5.13672,9.10156 -1.84007,2.62704 -3.34571,6.49227 -3.34571,8.58594 0,2.0936 -1.91381,4.82762 -4.2539,6.08008 -3.4331,1.83719 -5.30908,1.21838 -9.72852,-3.20117 -3.01255,-3.01255 -7.74595,-5.47461 -10.51562,-5.47461 -2.76964,0 -6.26482,-1.96589 -7.76563,-4.36914 -1.50089,-2.40325 -5.05553,-4.36914 -7.90234,-4.36914 -2.84674,0 -6.40254,-1.47493 -7.89844,-3.27735 -4.85442,-5.84923 -12.84312,-3.97647 -17.62891,4.13477 -2.48114,4.20525 -7.41395,8.54221 -11.39648,10.01562 -11.89398,4.40009 -13.50098,5.69994 -15.89648,12.89454 -2.30563,6.92515 -6.093,9.70521 -26.82227,19.66796 -5.23185,2.5146 -9.99897,6.52938 -10.63477,8.96094 -0.70809,2.7075 -2.97702,4.40821 -5.88476,4.4082 -4.09406,0 -5.82444,-3.32672 -12.85156,-24.67773 -4.46707,-13.57262 -8.125,-25.92386 -8.125,-27.44531 0,-6.90255 33.4946,3.12912 46.23046,13.8457 3.59876,3.02808 7.6956,5.4749 9.10547,5.4336 1.40981,-0.0393 5.51029,-5.17344 9.11524,-11.40626 8.12364,-14.04565 21.3817,-22.65316 39.92773,-25.91992 3.99281,-0.70329 8.35113,-1.04358 12.84571,-1.05273 z m 83.32421,16.73828 c -0.28119,0.0151 -0.54791,0.13531 -0.78515,0.37305 -0.80761,0.81044 -0.8402,3.97506 -0.0723,7.03515 h -0.004 c 1.58044,6.2973 5.69994,7.56826 5.65039,1.74219 -0.0393,-4.33754 -2.82186,-9.25782 -4.78907,-9.14844 z m -211.23046,1.90039 c 3.76191,0.21732 9.06146,14.41638 22.4414,58.33203 9.47086,31.08541 19.11992,62.32152 21.43946,69.41406 3.68465,11.26689 3.81369,13.29377 1.04492,16.0625 -2.7687,2.76877 -3.45664,2.24386 -5.45703,-4.15625 -25.24336,-80.76377 -42.09139,-137.84813 -41.00391,-138.93554 0.49379,-0.49384 0.99778,-0.74787 1.53516,-0.7168 z m -10.73633,3.08984 c 0.78134,0.034 1.39853,0.26134 1.81836,0.70313 1.66276,1.7489 15.23047,43.6132 15.23047,46.99414 0,0.91071 -38.34312,1.52342 -85.20704,1.35742 -46.86391,-0.16516 -85.20703,-1.03276 -85.20703,-1.92383 0,-2.62983 12.98587,-12.77638 22.6875,-17.73046 11.09103,-5.66359 34.58804,-7.6963 46.3711,-4.00782 4.67614,1.46378 13.52318,6.03517 19.66015,10.15625 6.4667,4.34234 12.58902,6.94477 14.5625,6.1875 1.87276,-0.71864 6.09169,-5.18416 9.375,-9.92187 10.17287,-14.67954 33.15606,-32.16969 40.70899,-31.81446 z m 237.97265,11.46875 c -0.83701,-0.0113 -1.66416,0.0692 -2.44531,0.25586 -3.00404,0.716 -5.78706,2.13476 -6.1875,3.15039 -0.40078,1.01579 -2.11997,1.84766 -3.82226,1.84766 -3.34504,-4e-5 -4.08749,2.65076 -1.47266,5.26563 2.03074,2.0307 20.58697,-0.54952 23.38477,-3.25196 0.92519,-0.89364 0.89183,-1.94841 0.23632,-2.97265 -1.49098,-0.23037 -2.05945,-0.91622 -1.91601,-1.85352 -1.99794,-1.37736 -4.95829,-2.41354 -7.77735,-2.44141 z m 25.6543,1.5918 c -1.99163,-0.003 -4.27722,0.42633 -6.73828,1.32422 -3.36782,3.71411 -6.06641,7.41683 -6.06641,8.97266 0,3.37833 5.96688,2.428 7.34766,-1.16993 0.69162,-1.80249 2.75943,-3.27539 4.59961,-3.27539 4.12773,0 4.17235,1.037 0.28711,7.17579 -1.68442,2.66141 -3.76803,8.28065 -4.62695,12.48632 -1.8932,4.42813 1.28419,5.11724 3.61132,3.05469 19.02035,-6.00909 6.88439,-6.5228 6.25977,-13.71484 5.80089,-9.32258 2.43914,-14.84232 -4.67383,-14.85352 z M 623.1543,615.7832 c -0.19231,-0.009 -0.38048,-0.005 -0.56446,0.0137 -0.49058,0.0491 -0.94731,0.1923 -1.34375,0.43945 -1.51128,0.9431 -4.71393,2.00226 -7.11718,2.35156 -9.04226,1.31369 -10.17626,2.40611 -7.57032,7.27539 1.67422,3.12843 3.59993,4.08177 6.10157,3.02539 3.47493,-1.46736 9.13053,-2.58277 15.12304,-2.98242 3.69804,-0.2468 3.44367,-4.14625 -0.52929,-8.11914 -1.23477,-1.23497 -2.75343,-1.94373 -4.09961,-2.00391 z m -339.48633,4.16602 c 8.22293,-0.0971 15.80087,1.7468 24.58789,5.61133 10.69138,4.70207 23.40057,15.13633 21.72852,17.84179 -0.67499,1.09229 -3.38289,1.77465 -6.01563,1.51368 -2.63282,-0.26079 -23.85672,-0.99677 -47.16602,-1.63672 l -42.38085,-1.16602 5.6875,-6.7539 c 4.23937,-5.03415 9.92275,-8.01006 22.33007,-11.69336 8.04968,-2.38969 14.83284,-3.64114 21.22852,-3.7168 z m 373.375,10.14844 c -4.77766,0 -7.65307,2.85085 -5.27344,5.23046 2.19829,2.19833 7.75022,0.61989 8.78906,-2.5 0.52766,-1.58482 -0.94898,-2.73046 -3.51562,-2.73046 z m -37.06445,34.95703 c 5.96632,-8e-5 6.37017,3.09696 2.03906,15.68554 -14.54963,42.28918 -47.13063,80.87384 -82.50977,97.71485 -10.62833,5.05931 -22.10789,10.61489 -25.50976,12.34765 -6.33536,3.227 -6.75436,3.28646 -12.38672,1.75 -1.80261,-0.49171 -11.06057,-1.60361 -20.57617,-2.47461 -24.25418,-2.21993 -24.83872,-6.77908 -0.86328,-6.74609 27.88576,0.034 55.96748,-8.04453 68.26757,-19.64258 3.68652,-3.47607 9.31769,-6.93576 12.51563,-7.68554 10.57311,-2.47782 45.57583,-53.61524 45.50976,-66.49024 -0.034,-6.93823 9.64548,-24.45898 13.51368,-24.45898 z m 101.4082,0.6289 c 0.0342,-0.008 0.0602,-0.004 0.0781,0.0137 0.87924,0.87926 -15.6709,27.44675 -38.20312,61.32031 -3.08704,4.64073 -6.63359,10.19424 -7.87891,12.33984 -1.24528,2.14564 -4.87784,7.19429 -8.07226,11.22266 -3.1945,4.02829 -28.60658,42.2305 -56.47266,84.88867 -27.86604,42.65824 -51.2188,78.0511 -51.89258,78.65234 -6.53903,5.82951 32.79056,-55.81486 91.30078,-143.10547 17.7199,-26.436 40.75806,-61.18206 51.19727,-77.21289 10.11298,-15.52975 18.88405,-27.88321 19.94336,-28.11914 z m -113.4336,2.36719 c 0.0452,-0.002 0.0812,0.0109 0.10743,0.0371 1.53407,1.53415 -3.76706,10.60582 -10.35743,17.7207 -13.00232,14.03713 -43.93959,57.11734 -45.13671,62.85157 -0.70666,3.38498 -4.8853,8.91529 -9.49024,12.5625 -7.52579,5.96065 -10.8789,7.73612 -10.8789,5.76562 0,-0.41257 5.16202,-7.58316 11.4707,-15.9375 51.87166,-68.69295 62.88355,-82.94067 64.28515,-83 z m 26.67383,1.37695 c 8.3703,-0.0151 -8.28989,42.63714 -26.76757,68.53125 -13.34816,18.70572 -36.88161,40.30476 -55.78126,51.20118 -15.7495,9.08031 -20.26908,10.14348 -30.76562,7.2207 -4.81723,-1.34139 -3.9247,-2.06948 7.97461,-6.51953 39.27061,-14.68623 80.65673,-59.07983 96.25586,-103.25 3.60941,-10.22007 7.28799,-17.17925 9.08398,-17.1836 z m 68.71875,1.23243 c 2.11786,-0.0302 3.64281,0.0607 4.0586,0.27343 1.72671,0.8832 -25.00737,42.73022 -70.10938,109.73633 -17.0516,25.33274 -31.69856,46.01049 -32.54687,45.96094 -0.84839,-0.0529 -5.37607,-2.11942 -10.06446,-4.5918 l -8.52734,-4.49218 10.71094,-8.91407 c 14.6798,-12.21392 31.93614,-30.48554 44.80664,-47.44726 11.94372,-15.74037 40.372,-70.51195 42.50781,-81.89649 1.28047,-6.82564 1.9917,-7.3321 11.53516,-8.20117 2.79749,-0.25474 5.51104,-0.40026 7.6289,-0.42773 z m -52.9082,0.94726 c 7.35088,-4e-5 7.57907,1.44269 2.77344,17.625 -8.66113,29.16499 -28.48537,60.18124 -53.87696,84.30078 -9.03851,8.58562 -22.24201,19.47041 -29.33789,24.1836 -11.95324,7.93961 -13.43353,8.39058 -20.1914,6.11523 l -7.29688,-2.45898 15.96289,-9.48047 c 36.72049,-21.81528 72.9561,-69.78987 83.07813,-109.98828 2.33911,-9.28929 3.20914,-10.29688 8.88867,-10.29688 z m 21.88281,0.29883 c 8.78396,-0.29291 8.0956,3.993 -2.27539,27.9043 -17.86341,41.18626 -41.35121,73.67395 -73.10937,101.13086 -9.4537,8.17338 -17.80752,14.82298 -18.56641,14.77343 -0.75874,-0.0491 -4.30351,-1.66609 -7.87305,-3.59765 l -6.49023,-3.51172 5.3418,-3.50195 c 14.22032,-9.32058 37.18132,-29.14928 47.23046,-40.79102 21.58428,-25.00505 40.38064,-60.12222 44.17774,-82.53516 1.45345,-8.57896 1.98584,-9.11507 9.68164,-9.75586 0.66973,-0.0559 1.29721,-0.0956 1.88281,-0.11523 z m -74.52734,23.08594 c 3.12994,-0.32051 -16.15363,33.3282 -25.72656,44.27148 -5.28987,6.04713 -10.52432,10.99805 -11.63282,10.99805 -3.8516,0 -1.97497,-5.06406 5.18164,-13.97656 3.95906,-4.93028 11.73578,-15.40748 17.28125,-23.28125 5.54552,-7.87374 11.8281,-15.73918 13.9629,-17.47852 0.41743,-0.34016 0.72496,-0.51185 0.93359,-0.5332 z m 87.97265,37.99414 c 0.511,0.004 0.93798,1.06201 1.76172,3.16797 0.91922,2.34992 1.73802,10.95424 1.82227,19.11718 0.15836,15.3125 5.99876,73.96353 8.03906,80.74219 0.71781,2.38949 -0.0185,3.82031 -1.96679,3.82031 -3.54547,0 -7.44653,-27.95748 -9.60547,-68.82226 -0.69823,-13.21799 -2.03687,-25.53171 -2.97461,-27.36524 -0.93748,-1.83348 -0.64348,-5.22989 0.65429,-7.54882 1.16293,-2.0775 1.75848,-3.11863 2.26953,-3.11133 z m -8.96874,15.08984 c 0.98157,0 1.7832,3.46716 1.7832,7.70703 0,9.17156 6.07277,69.91036 7.69336,76.95313 0.8536,3.70953 0.18228,4.8703 -2.73438,4.73242 -3.84321,-0.18142 -55.28283,-14.45666 -56.50781,-15.68164 -1.1156,-1.11568 47.89672,-73.71094 49.76563,-73.71094 z m -169.20313,53.31836 c 0.50408,0.50411 -9.47562,15.01283 -22.17578,32.24219 -22.29865,30.251 -38.4891,50.33633 -34.76563,43.13281 3.45782,-6.68984 56.0324,-76.28398 56.94141,-75.375 z m 11.38477,0.41797 c 4.31542,-0.0393 11.743,2.03827 26.32812,6.57227 l 16.38672,5.09375 4.08789,16.71093 c 4.17264,17.0722 3.91568,18.46159 -3.92578,21.21289 -1.1139,0.39096 -1.2741,1.92842 -0.35352,3.41797 1.09845,1.77733 2.54613,1.98445 4.21094,0.60938 1.39499,-1.15249 6.46686,-2.79565 11.27344,-3.65625 4.80657,-0.8606 10.45964,-3.0658 12.5625,-4.90235 6.71505,-5.86435 4.15675,-0.13368 -8.73828,19.57618 -6.9094,10.5609 -13.05512,19.1073 -13.65625,18.99414 -0.60083,-0.11339 -9.93921,-4.01543 -20.75391,-8.67188 -10.81474,-4.65645 -29.49528,-11.58162 -41.51172,-15.39062 -12.01636,-3.80916 -22.70728,-7.68516 -23.75976,-8.61133 -1.05249,-0.92587 4.95225,-10.84852 13.34375,-22.05274 8.39153,-11.20422 16.57819,-22.52092 18.1914,-25.14648 1.48668,-2.41969 2.95805,-3.72691 6.31446,-3.75586 z m 49.99804,16.33594 c 0.8391,-0.0677 2.45835,0.2099 4.16016,0.75 2.71548,0.86184 5.0786,5.02363 6.91016,12.16992 1.53054,5.97184 2.75029,11.6131 2.70898,12.54102 -0.0393,0.92793 -1.54897,1.99736 -3.34961,2.37304 -2.32528,0.48563 -4.47397,-3.31367 -7.41992,-13.10937 -2.28129,-7.58582 -3.88343,-14.12673 -3.56055,-14.53711 0.0809,-0.10243 0.27091,-0.16483 0.55078,-0.1875 z m 17.16797,6.7832 c 1.54382,0.0393 4.24077,1.04461 8.39258,2.7793 7.87638,3.29095 9.48843,6.31574 4.88281,9.16211 -5.56596,3.44001 -10.81006,2.21305 -12.78906,-2.99219 -2.43164,-6.39579 -3.05924,-9.01366 -0.48633,-8.94922 z m 37.4082,2.3418 c 0.15176,10e-4 0.30977,0.0112 0.47461,0.0312 0.43953,0.0537 0.92013,0.17292 1.42578,0.36719 2.02262,0.77615 25.12782,6.94189 51.34376,13.70312 26.21588,6.76105 47.66406,13.11636 47.66406,14.11914 0,3.04717 1.39547,3.34056 -54.6211,-11.58203 -50.48999,-13.45032 -48.06445,-12.6725 -48.06445,-15.37891 0,-0.81972 0.71507,-1.26758 1.77734,-1.25976 z m -147.50195,32.04883 c 3.12268,0.0877 9.72933,1.51944 17.38477,3.85742 20.98771,6.40883 67.31379,24.28118 70.33593,27.13476 3.50873,3.31302 -3.64316,1.89935 -13.00195,-2.56836 -6.75556,-3.22495 -56.80159,-20.05756 -74.9668,-25.21484 -1.58082,-0.44833 -2.30726,-1.7239 -1.62109,-2.83398 0.1765,-0.28611 0.82822,-0.40403 1.86914,-0.375 z m 190.67969,9.12695 c -6.67718,0.0151 -13.21476,1.34455 -18.61914,4.10156 -28.16217,14.36723 -28.9962,53.38313 -1.50195,70.14844 v 0.004 c 8.98577,5.4756 27.8213,5.47965 39.87304,0.01 24.72635,-11.22856 30.2929,-45.90978 10.27539,-64.01172 -7.37231,-6.66693 -18.89867,-10.27619 -30.02734,-10.25 z m 0.13672,4.64648 c 3.87624,0.15345 3.82527,2.57554 0.71093,8.39453 -2.62929,4.91297 -2.95127,4.93027 -12.94921,0.57618 -8.57851,-3.73603 -6.85254,-5.80741 7.01757,-8.40625 2.19531,-0.41107 3.92864,-0.61559 5.22071,-0.56446 z m 11.79687,1.90039 c 1.01284,0.0631 2.21382,0.63041 3.80274,1.63868 2.02159,1.28288 1.23876,2.47846 -2.83399,4.33398 -7.58918,3.45789 -8.14064,3.27541 -5.42187,-1.80469 1.59553,-2.9814 2.76507,-4.27368 4.45312,-4.16797 z m 12.45703,6.55274 4.70703,5.01562 c 6.07544,6.467 9.32456,17.98061 7.62891,27.01953 -1.84448,9.83161 -3.94809,10.34904 -7.0625,1.73633 -1.45357,-4.0196 -7.0084,-11.33611 -12.34765,-16.25781 l -9.70899,-8.94922 8.38867,-4.2832 z m -46.11523,3.01758 c 0.85308,0.0189 1.76344,0.14369 2.74805,0.375 9.19207,2.15901 9.36823,3.81444 1.23242,11.48828 -4.2347,3.99447 -9.48573,10.74638 -11.66992,15.0039 -3.9032,7.60812 -3.99225,7.64862 -5.32227,2.34961 -1.64179,-6.5413 2.07282,-21.19603 6.69141,-26.39258 1.74417,-1.96232 3.76108,-2.87864 6.32031,-2.82421 z m 16.83398,8.28711 c 0.35301,-0.0189 0.64416,0.0721 0.86133,0.28906 0.57717,0.57721 -0.74308,5.74748 -2.93555,11.48828 -2.19245,5.74072 -4.01732,16.12026 -4.05859,23.06836 -0.0442,7.98565 -0.98423,12.63325 -2.56445,12.63476 -2.65954,0.003 -16.07422,-11.72807 -16.07422,-14.05664 0,-7.46827 19.47448,-33.11031 24.77148,-33.42382 z m 9.13086,3.78906 c 5.57738,0 15.80842,10.90753 20.53907,21.9043 l 4.76562,11.08593 -5.02148,4.10938 c -2.76288,2.26125 -9.14733,5.16324 -14.18555,6.44726 -15.68153,3.9964 -15.9668,3.81074 -15.9668,-10.38672 0,-14.50858 5.55111,-33.16015 9.86914,-33.16015 z"
       style="fill:#000000;stroke-width:2.18479824" />
  </g>
</svg>
