<?xml version="1.0" encoding="UTF-8" standalone="no"?>
<svg
   xmlns:dc="http://purl.org/dc/elements/1.1/"
   xmlns:cc="http://creativecommons.org/ns#"
   xmlns:rdf="http://www.w3.org/1999/02/22-rdf-syntax-ns#"
   xmlns:svg="http://www.w3.org/2000/svg"
   xmlns="http://www.w3.org/2000/svg"
   xmlns:sodipodi="http://sodipodi.sourceforge.net/DTD/sodipodi-0.dtd"
   xmlns:inkscape="http://www.inkscape.org/namespaces/inkscape"
   width="210mm"
   height="297mm"
   viewBox="0 0 595.27559 841.88976"
   version="1.1"
   id="svg226"
   sodipodi:docname="sun_mandala_2.svg"
   inkscape:version="0.92.4 (5da689c313, 2019-01-14)">
  <title
     id="title1059">Sun Mandala</title>
  <metadata
     id="metadata232">
    <rdf:RDF>
      <cc:Work
         rdf:about="">
        <dc:format>image/svg+xml</dc:format>
        <dc:type
           rdf:resource="http://purl.org/dc/dcmitype/StillImage" />
        <dc:title>Sun Mandala</dc:title>
        <dc:date>2020-05-17</dc:date>
        <dc:creator>
          <cc:Agent>
            <dc:title>Nevit</dc:title>
          </cc:Agent>
        </dc:creator>
        <dc:source>http://www.supercoloring.com/coloring-pages/sun-mandala-0</dc:source>
        <dc:subject>
          <rdf:Bag>
            <rdf:li>acb</rdf:li>
            <rdf:li>mandala</rdf:li>
          </rdf:Bag>
        </dc:subject>
        <cc:license
           rdf:resource="http://creativecommons.org/licenses/by-sa/4.0/" />
      </cc:Work>
      <cc:License
         rdf:about="http://creativecommons.org/licenses/by-sa/4.0/">
        <cc:permits
           rdf:resource="http://creativecommons.org/ns#Reproduction" />
        <cc:permits
           rdf:resource="http://creativecommons.org/ns#Distribution" />
        <cc:requires
           rdf:resource="http://creativecommons.org/ns#Notice" />
        <cc:requires
           rdf:resource="http://creativecommons.org/ns#Attribution" />
        <cc:permits
           rdf:resource="http://creativecommons.org/ns#DerivativeWorks" />
        <cc:requires
           rdf:resource="http://creativecommons.org/ns#ShareAlike" />
      </cc:License>
    </rdf:RDF>
  </metadata>
  <defs
     id="defs230" />
  <sodipodi:namedview
     pagecolor="#ffffff"
     bordercolor="#666666"
     borderopacity="1"
     objecttolerance="10"
     gridtolerance="10"
     guidetolerance="10"
     inkscape:pageopacity="0"
     inkscape:pageshadow="2"
     inkscape:window-width="3840"
     inkscape:window-height="2004"
     id="namedview228"
     showgrid="false"
     units="mm"
     inkscape:zoom="1.251579"
     inkscape:cx="870.51682"
     inkscape:cy="238.05489"
     inkscape:window-x="-16"
     inkscape:window-y="-16"
     inkscape:window-maximized="1"
     inkscape:current-layer="svg226" />
  <g
     id="g1097"
     transform="matrix(0.7553193,0,0,0.7553193,-3.1499382,87.011859)">
    <path
       d="m 352.98,58.149765 c 12.25,-1.36 24.49,-3.12 36.83,-3.4 0.78,11.2 -0.05,22.42 -0.21,33.63 3.78,-0.08 7.58,0.2 11.37,-0.04 2.02,0.07 3.26,-1.77 3.63,-3.54 2.27,-9.35 1.71,-19.21 4.54,-28.46 7.62,-0.33 15.23,0.59 22.82,1.13 13.11,1.22 26.26,2.24 39.24,4.52 0.87,2.6 -0.85,4.95 -1.53,7.37 -2.72,8.32 -4.55,16.89 -6.79,25.35 5.08,1.04 10.17,2 15.24,3.06 3.19,-10.52 5.6,-21.32 9.95,-31.44 19.19,2.81 36.87,11.73 55.81,15.77 2.4,0.54 5.5,2.87 4.74,5.59 -5.81,8.4 -10.73,17.520005 -14.33,27.090005 3.82,2.81 8.34,5.76 13.2,5.7 6.86,-8.57 10.65,-19.32 18.22,-27.350005 2.51,1.09 4.97,2.32 7.3,3.76 12.38,7.490005 25.36,13.940005 37.93,21.110005 3.11,1.75 6.2,3.58 8.97,5.85 -0.69,2.66 -2.78,4.49999 -4.52,6.47 -5.96,6.50999 -11.31,13.52999 -16.85,20.38 3.84,2.94999 7.7,5.88999 11.55,8.82999 6.39,-6.79 12.51,-13.84 19.15,-20.38 1.54,-1.51 4.11,-3.65 6.1,-1.56 10.57,8.72 20.98,17.63 31.33,26.61001 4.9,4.46999 10.25,8.53999 14.44,13.72999 -9.94,5.83001 -17.77,14.37 -26.13,22.15 3.38,3.19 6.66,6.5 10.09,9.65 9.15,-6.51 17.46,-14.56 27.86,-19.06 6.49,7.05 11.92,14.99 17.63,22.67 6.11,8.6 12.37,17.11001 17.8,26.16 1.42,1.59 0.21,3.75 -1.54,4.39 -9.24,3.96 -17.97,9.08 -26.2,14.83 1.83,4.15 4.23,8 6.61,11.86 9.89,-4.44999 19.56,-9.46 29.82,-13.03 5.16,7.98 9.07,16.68 13.25,25.19 4.21,9.04 8.63,17.99 12.75,27.08001 0.76,1.99 1.73,5.04 -0.48,6.44 -9.03,0.94999 -17.62,4.18 -26.08,7.31 -1.43,0.73 -3.66,1.17 -3.58,3.22 -0.11,4.08 1.02,8.42 3.79,11.54 10.51,-1.52 20.63,-5.53 31.33,-5.72 3.38,10.77999 5.7,21.85 8.31,32.83 2.04,9.45999 4.39,18.88 5.74,28.48 -11.11,1.55 -22.39,1.12 -33.53,2.39 0.29,4.75 0.91,9.47 1.66,14.16 11.07,0.25 22.14,0.56 33.21,0.93 0.16,19.51 1.04,39.04 0.13,58.54 -0.31,1.17 0.33,3.66 -1.62,3.51 -10.79,0.15 -21.45,-1.89 -32.15,-2.98 0.08,3.78 -0.18,7.59 0.13,11.37 0.08,1.34 1.26,2.28 2.4,2.81 9.05,3.72 19.37,3.6 28.05,8.33 -1.64,18.88 -7.28,37.16999 -9.38,56 -0.21,2.4 -1.69,4.94 -4.11,5.63 -2.11,0.4 -3.7,-1.35 -5.5,-2.09001 -7.97,-3.85 -16.36,-6.73 -24.6,-9.95999 -1.61,4.69 -3.2,9.38 -4.82,14.07 10.22,4.54 21.09,7.9 30.53,14.03 -3.99,12.41 -9.32,24.34 -14.32,36.37 -3.34,7.22 -6.04,14.8 -10.24,21.58 -0.46,0.01 -1.38,0.02 -1.85,0.03 -3.56,-1.88 -6.29,-5.03 -9.79,-7.04 -5.72,-3.51 -11.54,-7.4 -18.18,-8.82 -3.46,2.84 -4.8,7.61 -6.17,11.77 8.33,6.42 17.44,11.9 25,19.27 -9.52,15.5 -20.05,30.36 -30.58,45.19 -1.65,2.19 -3.87,6.39 -6.99,3.58 -8.08,-6.18 -15.01,-13.72 -22.4,-20.69 -3.67,3.74 -7.9,7.05 -10.67,11.58 6,7.35 13.05,13.77 18.86,21.27 1.07,1.55 3.22,3.7 1.04,5.34 -10.58,11.41 -22.16,21.88 -33.87,32.11 -3.86,2.99 -7.51,6.79 -12.4,7.96 -2.78,-0.6 -1.47,-4.39 -2.92,-6.26 -4.2,-7.33 -9.2,-14.38 -15.52,-20.04 -3.87,2.35 -7.44,5.15 -11.14,7.76 4.19,7.34 8.86,14.39 13.37,21.54 1.48,2.52 3.75,6.75 0.21,8.61 -11.74,8.28 -24.25,15.41 -36.74,22.49 -4.67,2.42 -9.16,5.35 -14.19,6.97 -2.62,-0.78 -2.21,-4.16 -3.2,-6.2 -3.21,-7.88 -6.72,-15.75 -11.48,-22.83 -4.26,1.45 -8.45,3.18 -12.28,5.54 2.93,10.33 8.02,20.14 9.05,30.93 -9.94,4.59 -20.32,8.09 -30.58,11.85 -9.18,3.12 -18.26,6.62 -27.72,8.86 -3.53,-9.48 -3.65,-19.76 -6.03,-29.52 -0.36,-1.49 -1.05,-3.23 -2.78,-3.47 -4.23,0.54 -8.38,1.67 -12.41,3.05 0.34,10.81 3.04,21.51 2.16,32.34 -13.7,3 -27.71,4.22 -41.6,5.96 -6.7,0.65 -13.37,1.93 -20.12,1.7 -0.08,-11.39 0.21,-22.78 0.39,-34.17 -4.96,0.09 -10.01,-0.49 -14.84,0.85 -0.81,10.41 -2.34,20.79 -4.72,30.96 -10.64,0.52 -21.27,-0.79 -31.87,-1.55 -10.08,-1.05 -20.26,-1.63 -30.18,-3.81 -0.02,-0.7 -0.04,-2.09 -0.06,-2.79 3.57,-9.53 6.24,-19.52 7.27,-29.65 -4.69,-1.19 -9.46,-1.91 -14.23,-2.64 -2.38,8.35 -5.16,16.59 -7,25.08 -0.73,2.61 -2.52,6.05 -5.77,5.48 -5,-0.66 -9.74,-2.46 -14.55,-3.87 -13,-4.06 -25.86,-8.6 -39.08,-11.89 -2.02,-0.77 -3.75,-2.49 -4.29,-4.6 0.81,-2.54 2.97,-4.35 4.18,-6.69 3.89,-6.86 7.77,-13.79 10.47,-21.21 -3.79,-2.89 -8.51,-5.9 -13.32,-5.65 -6.37,8.16 -9.92,18.22 -16.6,26.18 -1.49,0.37 -2.86,-0.74 -4.22,-1.17 -12.49,-5.83 -24.63,-12.36 -36.67,-19.06 -5.13,-3.06 -10.63,-5.67 -14.99,-9.83 1.17,-2.26 3.23,-3.81 4.85,-5.72 5.81,-6.69 11.14,-13.78 16.69,-20.7 -3.66,-2.87 -7.4,-5.64 -11.07,-8.5 -6.9,7.41 -14.44,14.31 -20.43,22.5 -1.89,0.32 -4.18,1.15 -5.88,-0.12 -11.39,-11.02 -23.91,-20.79 -35.62,-31.46 -3.29,-3.06 -6.81,-5.92 -9.55,-9.51 2.34,-2.21 5.37,-3.39 7.92,-5.31 6.7,-4.95 12.6,-10.85 18.83,-16.35 -3.59,-3.41 -7.12,-6.89 -10.77,-10.25 -8.89,6.67 -17.47,13.84 -27.04,19.56 -5.38,-5.56 -9.78,-11.96 -14.47,-18.1 -7.3,-10.07 -14.74,-20.07 -21.3,-30.64 -1,-1.37 -1.86,-3.83 0.19,-4.72 9.58,-4.1 18.79,-9.16 27.39,-15.05 -2.13,-4.07 -4.52,-8 -6.85,-11.95 -9.9,4.42 -19.58,9.41 -29.82,13.03 -4.97,-7.43 -8.59,-15.64 -12.59,-23.61 -4.26,-8.87 -8.42,-17.79 -12.17,-26.89 -0.83,-2.17 -1.86,-4.31 -2.15,-6.63 1.04,-2.31 4.04,-1.75 6.06,-2.29 7.25,-1.49 14.3,-3.91 21.2,-6.55 1.38,-0.73 3.71,-1.13 3.73,-3.1 0.1,-4.17 -0.96,-8.64 -3.88,-11.76 -10.45,1.67 -20.56,5.5 -31.21,5.76 -3.1,-9.57 -5.14,-19.43 -7.5,-29.19 -2.35,-10.66 -5.02,-21.27 -6.6,-32.08 11.18,-1.5 22.54,-0.81 33.7,-2.46 -0.14,-4.77 -0.89,-9.48 -1.85,-14.14 -11.08,-0.22 -22.15,-0.57 -33.23,-0.91 0,-20.85 -0.01,-41.71 0,-62.56 11.14,1.27 22.31,2.34 33.47,3.4 0.36,-4.63 0.75,-9.26 1.09,-13.89 -10.49,-2.56 -21.29,-4.18 -31.37,-8.16 1.96,-18.95 7.55,-37.33 9.37,-56.3 0.22,-2.38 1.53,-5.18 4.1,-5.69 2.32,-0.25 4,1.71 5.97,2.59 7.73,3.86 16.05,6.33 24.16,9.27 1.55,-4.64 3.16,-9.26 4.73,-13.89 -10.18,-4.37 -20.63,-8.16 -30.4,-13.42 1.06,-4.9 3.13,-9.49 4.89,-14.16 5.66,-14.15 11.37,-28.3 18.03,-42.02 0.59,-1.65 2.21,-3.51 4.04,-2.17 8.75,6.23 17.84,12.06 27.39,17.02 2.53,-4.07 5,-8.18 7.44,-12.3 -7.1,-5.05 -14.44,-9.77 -21.19,-15.28 -1.67,-1.42 -3.48,-2.77 -4.65,-4.66 -0.07,-2.03 0.96,-3.85 2.16,-5.39 10.46,-13.38 19.28,-27.94 29.68,-41.35 1.38,-1.82 2.89,-3.53 4.58,-5.06 1.92,2.02 2.92,4.7 4.84,6.73 5.62,6.1 12.27,11.1 18.51,16.54 3.67,-3.68 7.35,-7.35 11.02,-11.02 -7.39,-8.21 -15.31,-15.99 -22.01,-24.8 2.53,-3.27 5.64,-6.01 8.57,-8.89 12.48,-11.72 24.82,-23.65 38.22,-34.31 2.81,2.93 3.65,7.07 5.92,10.37 3.92,6.06 7.96,12.26 13.58,16.9 3.73,-2.39 7.3,-5.02 10.85,-7.66 -3.76,-6.14 -7.69,-12.17 -11.29,-18.41 -1.65,-3.08 -3.59,-6.17 -4.05,-9.7 1.01,-1.92 3.16,-2.9 4.81,-4.2 11.34,-7.52 23.09,-14.42 34.98,-21.030005 4.31,-2.34 8.58,-4.77 13.17,-6.53 0.47,0.42 1.42,1.25 1.89,1.67 0.95,6.230005 4.03,11.840005 6.75,17.440005 1.87,3.28 3.34,6.96 6.17,9.56 4.44,-0.46 8.62,-2.51 12.08,-5.27 -2.75,-10.28 -8.13,-19.880005 -9.19,-30.580005 16.61,-7.45 33.99,-13.07 51.32,-18.6 2.39,-0.39 5.14,-2.14 7.44,-1.2 3.06,9.39 3.87,19.33 6.2,28.9 0.44,1.48 1.1,3.97 3.18,3.39 3.16,-0.53 6.41,-1.06 9.34,-2.43 2.16,-1.17 2.21,-3.99 2.12,-6.14 -0.56,-9.03 -2.85,-17.94 -2.2,-27.04 8.13,-1.97 16.5,-2.65 24.77,-3.79 m -13.1,8.19 c -2.34,0.47 -6.33,1.16 -5.45,4.44 1.09,7.63 2.11,15.26 3.09,22.9 15.15,-2.3 30.45,-3.41 45.63,-5.48 -0.04,-8.98 -0.02,-17.96 -0.01,-26.94 -14.42,1.73 -28.91,2.88 -43.26,5.08 m 74.09,0.39 c -1.28,7.11 -1.92,14.31 -2.91,21.47 14.7,1.32 29.3,3.72 44,4.88 2.36,-2.26 2.79,-5.71 3.67,-8.71 1.06,-5.12 2.71,-10.24 2.54,-15.51 -0.04,-2.02 -2.3,-1.97 -3.74,-2.34 -13.14,-1.94 -26.49,-1.83 -39.61,-3.92 -2.7,-0.98 -3.63,2.14 -3.95,4.13 m -154.94,22.12 c 1.06,8.45 3.53,16.920005 7.8,24.329995 14.42,-4.48 28.7,-9.39 43.08,-13.969995 -1.25,-7.08 -3.14,-14.05 -3.72,-21.23 -0.12,-2.03 -0.46,-4.05 -1.15,-5.98 -15.56,4.95 -30.98,10.47 -46.01,16.85 m 233.28,-14.8 c -2.91,8.11 -5.25,16.44 -7.04,24.88 13.81,4.769995 27.78,9.009995 41.66,13.559995 3.88,-7.99 8.89,-15.569995 11.17,-24.229995 -14.93,-5.7 -30.25,-10.47 -45.79,-14.21 m -105.21,22.01 c -13.35,0.31 -26.74,0.73 -39.97,2.56 -36.64,5.900005 -72.48,17.149995 -105.6,33.929995 -72.33,37.01 -131.43,99.75 -162.86,174.79 -17.41,41.22 -26.63,85.87 -27.05,130.61001 -0.31,34.82999 3.95,69.83999 14.13,103.19999 15.71,51.03 42.83,98.64 79.4,137.60001 52.31,56.22 123.84,93.98 199.69,105.83 22.17,3.79 44.75,3.93 67.18,3.49 26.89,-0.47 53.54,-5.43 79.41,-12.54 69.08,-19.3 132.09,-60.34001 176.68,-116.64001 51.09,-63.54999 78.78,-145.44 76.41,-226.98 -1.18,-45.28999 -11.39,-90.33999 -29.97,-131.65999 -29.02,-64.78001 -78.43,-120.22001 -139.57,-156.31001 -38.64,-22.94 -81.72,-38.25999 -126.09,-45.259995 -20.47,-2.67 -41.18,-2.79 -61.79,-2.62 M 187.72,125.76976 c 3.66,7.7 7.95,15.18001 13.16,21.95 13.45,-7.03 26.4,-14.94 39.41,-22.73999 -2.99,-8.17 -6.86,-16.06001 -11.6,-23.36 -13.94,7.54999 -27.62,15.59999 -40.97,24.14999 m 366.44,-1.53 c 12.66,7.29 25.57,14.17 37.76,22.24 1.98,0.19 3.06,-2.01 4.34,-3.21 4.53,-5.97 9.73,-11.61 12.78,-18.55 -13.71,-8.33 -27.93,-15.87 -42.37,-22.87 -4.29,7.4 -8.35,14.92 -12.51,22.39 m -426.95,51.88 c 5.78,6.43 11.33,13.08001 17.49,19.15 11.35,-9.69999 21.49,-20.79 33.36,-29.88 -4.34,-8.11 -10.37,-15.12999 -15.57,-22.68999 -11.84,11.06 -23.58,22.21999 -35.28,33.42 m 489.28,-12.98001 c 3.16,4.56001 7.98,7.47001 12.03,11.14 7.56,6.54001 14.54,13.69 21.53,20.83001 6.76,-6.32 13.5,-12.67 20.34,-18.92 -11.78,-10.98001 -24.34,-21.08001 -36.56,-31.56 -5.94,6.00999 -12.46,11.56 -17.34,18.50999 m -538,74.78001 c 1.02,2.03999 2.59,3.71999 4.4,5.09999 4.99,3.93001 10.23,7.54001 15.37,11.28001 4.87,-6.88 9.31,-14.05 14.38,-20.79 4.08,-5.82 8.9,-11.13 12.47,-17.31 -6.76,-5.74001 -13.48,-11.52 -20.29,-17.2 -8.76,12.98 -18.09,25.59 -26.33,38.92 m 591.03,-22.54 c 9.2,12.33 18.83,24.38 26.98,37.45 7.93,-4.45 15.64,-9.3 23.36,-14.12 -5.87,-9.52 -12.48,-18.56 -19.13,-27.54 -3.26,-4.07 -6.21,-8.54 -10.49,-11.62 -7.22,4.85 -14.26,10 -20.72,15.83 M 52.51,282.28976 c -3.62,9.27001 -7.48,18.48 -10.13,28.09001 7.13,3.89999 14.73,6.93 22.47,9.37 7.37,-12.88 12.57,-26.87 18.71,-40.35001 -6.7,-6.26 -14.6,-11.34999 -22.97,-15.08999 -3.26,5.71999 -5.53,11.91999 -8.08,17.97999 m 658.14,-6.12 c 4.86,10.47 9.84,20.89001 14.22,31.58001 1.51,3.63 2.47,7.51999 4.57,10.88999 8.91,-2.52999 17.64,-5.64999 26.45,-8.51999 -7.05,-14.41001 -13.26,-29.27001 -21.13,-43.27001 -8.54,1.60001 -16.15,6.05 -24.11,9.32 m -678.38,62.54 c -3.59,15.36001 -6.52,30.89 -9.07,46.46 3.03,3.27 7.71,3.7 11.79,4.82 3.94,0.78 7.86,2.21 11.92,1.95 2.21,-1.52 1.78,-4.84 2.53,-7.16 2,-12.59 4.88,-24.99 7.96,-37.34 -8.21,-3.36 -16.68,-6.07 -25.13,-8.73 m 706.39,6.69 c 2.61,14.75 6.98,29.18 8.25,44.16 8.99,-0.72 18.13,-0.45 26.95,-2.47 -2.1,-15.77 -6.5,-31.1 -9.63,-46.67 -8.68,0.04 -17.62,1.39 -25.57,4.98 M 18.38,417.12977 c -0.02,16.42 -0.01,32.84 -0.01,49.25999 9.01,-0.01 18.02,0 27.03,-0.01 -0.45,-15.65 -0.5,-31.33 -1.42,-46.97001 -8.53,-0.8 -17.06,-1.57 -25.6,-2.27999 m 732.22,0.13 c 0.22,15.76999 0.69,31.52999 0.91,47.3 8.63,0.91 17.3,1.48 25.98,1.86 0.02,-16.38 0,-32.77 0.01,-49.16 -8.97,-0.01 -17.94,0 -26.9,0 m -11.95,119.37 c 8.18,2.92999 16.33,5.99 24.62,8.65999 2.51,-5.44999 3.09,-11.5 4.41,-17.29999 1.89,-10.29001 4.73,-20.46 5.3,-30.95 -7.93,-2.46 -16.08,-4.23 -24.27,-5.5 -3.79,14.93 -5.64,30.31 -10.06,45.09 M 22,496.72976 c 2.22,15.73 6.75,31.02 9.69,46.62 7.26,0.28 14.43,-1.54 21.38,-3.45 1.75,-0.58 4.88,-1.39999 4.18,-3.87 -3.17,-13.89999 -5.75,-27.92 -8.54,-41.89999 -8.91,0.74 -17.89,0.99 -26.71,2.6 m 698.89,89.08 c -2.78,6.56 -6.4,12.76 -8.58,19.58 7.2,5.22 15,9.58 22.76,13.9 3.76,-6.95 6.74,-14.29 9.88,-21.54 3.05,-7.52 6.26,-15.04 8.35,-22.9 0.97,-2.07 -1.67,-2.61 -2.92,-3.4 -6.57,-2.9 -13.31,-5.84 -20.47,-6.88 -3.41,6.9 -5.81,14.24 -9.02,21.24 M 40.07,573.55976 c 6.74,14.39 13.91,28.6 19.93,43.32001 1.65,1.02999 3.53,-0.06 5.17,-0.56 6.87,-2.77 13.57,-5.95 20.34,-8.94 -7.33,-13.56 -12.42,-28.15 -18.84,-42.13 -9.06,2.11 -17.75,5.5 -26.6,8.30999 m 642.49,77.75 c -3.82,5.5 -8.57,10.49 -11.01,16.82001 6.26,5.88999 12.84,11.58 20.32,15.88999 9.01,-12.87 18.62,-25.47 25.71,-39.53999 -6.41,-5.39 -13.41,-10.01 -20.11,-15.02 -4.85,7.36 -9.67,14.75 -14.91,21.85 M 76.11,644.92976 c 8.76,13.79 18.76,26.75 28.2,40.08001 7.84,-4.82001 15.1,-10.49001 22.43,-16.04 -2.98,-4.84 -6.8,-9.07001 -10.11,-13.67 -5.82,-7.95 -11.64,-15.9 -17.09,-24.1 -8.07,4.11 -15.82,8.83 -23.43,13.73 m 69.32,43.69 c -5.01,5.25 -10.26,10.25 -15.22,15.53999 -1.11,1.39 -2.76,2.76 -2.71,4.70001 2.49,3.34 5.91,5.82 8.95,8.64 8.65,7.34 17.17,14.89999 26.48,21.39999 6.21,-6.02999 11.98,-12.48 17.94,-18.75 -12.95,-9.16999 -23.78,-20.87 -35.44,-31.52999 m 472.43,30.27999 c 5.23,7.26 10.45,14.53 15.69,21.79 12.09,-10.67 23.88,-21.67999 35.6,-32.75 -5.74,-6.37 -11.45,-12.76 -17.17,-19.14 -11.35,10.06 -22.66,20.16 -34.12,30.1 m -39.26,26.73001 c -7.5,4.6 -15.44,8.42999 -22.9,13.09 3.02,8.15 6.88,16.02 11.6,23.32 14.07,-7.21 27.33,-15.88 40.87,-24.02 -3.58,-7.85 -8.13,-15.28 -13.43,-22.08 -5.72,2.64 -10.66,6.62 -16.14,9.69 M 203,736.30976 c -5.45,7.46 -11.88,14.34 -15.86,22.77 13.51,8.31 27.57,15.72 41.68,22.93 4.92,-6.82 8.62,-14.4 12.72,-21.71 -12.06,-9.19 -26.35,-14.95 -38.54,-23.99 m 55.05,59.33 c 14.46,5.31 29.08,10.21 43.93,14.34 3.3,-2.79 3.97,-7.26 5.23,-11.15 0.98,-3.59 2.4,-7.11 2.67,-10.85 -0.1,-3.72 -4.22,-4.97 -7.09,-6.03 -11.36,-3.62 -22.75,-7.13 -34.1,-10.78 -3.6,8.11 -8.97,15.65 -10.64,24.47 m 228,-11.01999 c 1.84,9.03999 3.57,18.1 5.78,27.05999 12.56,-4.2 25.02,-8.72 37.38,-13.48 2.53,-1.11 5.28,-1.84 7.55,-3.46 -0.83,-8.16 -3.3,-16.35 -7.3,-23.53 -14.82,3.23 -28.95,8.92 -43.41,13.41 m -146.82,5.63 c -1.75,8.61 -4.35,17.11 -4.75,25.94 11.98,2.63 24.29,3.1 36.46,4.39 3.45,0.09 7.13,1.06 10.46,-0.25 1.55,-4.26 1.61,-8.9 2.31,-13.34 0.3,-3.86 1.37,-7.82 0.21,-11.62 -14.95,-1.15 -29.9,-2.63 -44.69,-5.12 m 77.67,4.83 c -1.11,0.22 -2.75,-0.15 -3.15,1.27 -1.13,3.37 -0.78,7.04 -0.89,10.56 0.17,5.24 -0.55,10.63 1.02,15.73 15.59,-2.63 31.5,-2.89 47.02,-5.96 0.46,-8.6 -0.59,-17.28 -2.33,-25.69 -13.96,0.52 -27.76,3 -41.67,4.09 z"
       id="path209"
       inkscape:connector-curvature="0"
       style="opacity:1;fill:#020202" />
    <path
       d="m 328.87,127.74976 c 20.16,-2.95 40.35,-6.01 60.68,-7.5 1.61,10.75 0.76,21.75 2.8,32.44 4.64,2.35 10.13,1.13 15.13,1.46 1.1,-11.3 1.01,-22.78 3.54,-33.89 16.09,0.99 31.99,4.02 47.91,6.45 7.43,1.29 14.9,2.43 22.2,4.33 0.53,3.12 -1.43,5.75 -2.29,8.6 -1.95,6.01 -3.75,12.09 -4.98,18.29 -0.46,2.25 -0.67,5.23 1.58,6.62 3.94,2.16 8.5,2.76 12.75,4.09 2.21,-5.95 4.42,-11.9 6.47,-17.91 1.61,-4.59999 2.8,-9.37 5.1,-13.69 21.08,7.26 40.37,18.79 61.02,27.1 2.36,0.76 3.71,2.98 5.12,4.86 -7.32,7.68 -11.63,17.58 -16.47,26.87 3.29,3.75 7.72,6.18 11.75,9.02 6.61,-8.63999 12.86,-17.57999 20.1,-25.72 0.84,-0.71 1.54,-1.94 2.73,-2.03 2.09,1.08 3.2,3.34 4.96,4.84 14.55,13.77001 30.19,26.32 44.96,39.85 2.69,1.93001 0.22,4.85 -1.42,6.52 -6.87,7.07 -14.17,13.71001 -21.24,20.58001 3.28,3.72999 6.61,7.44 9.93,11.14999 9.75,-6.15999 18.68,-13.87 29.5,-18.13999 10.26,15.56 19.73,31.63 30.05,47.15999 2.37,3.81 4.97,7.52001 6.69,11.70001 -8.22,5.65 -17.75,8.99 -26.17,14.3 -1.21,0.8 -2.45,1.65 -3.18,2.93 0.81,4.25 3.52,7.84 5.34,11.71 11.31,-2.48 22.01,-7.60001 33.61,-8.79 3.17,8.54 5.29,17.43 7.75,26.19999 3.53,13.44 7.2,26.86001 9.89,40.5 -2.73,1.49 -5.91,1.17001 -8.87,1.69 -8.06,1.21 -15.89,3.49 -23.82,5.34 0.83,5.23 1.09,10.61 2.76,15.68 11.27,-0.34 22.44,-2.86 33.74,-2.12 0.85,20.21 -0.1,40.46 -0.66,60.68 -0.41,3.67 0.12,7.75 -1.78,11.06 -10.62,-0.24 -21.1,-3.57 -31.8,-3.07 -1.11,4.8 -0.99,9.74 -0.98,14.63 10.62,3.15 21.75,5.16001 31.67,10.29 -2.12,10.92001 -5.88,21.45 -9.1,32.08 -3.82,11.41 -7.28,22.98 -12.01,34.07001 -0.68,-0.08 -2.03,-0.25 -2.71,-0.33001 -8.84,-4.73 -18.33,-8.24 -27.98,-10.87 -3.31,3.98001 -5.71,8.70001 -7.09,13.69001 9.89,5.88 20.64,10.4 29.83,17.4 -1.89,4.15999 -4.95,7.61 -7.33,11.48 -8.76,13.32 -16.99,26.98 -25.8,40.26 -1.94,2.87 -3.89,5.83 -6.79,7.83 -8.07,-7.83 -16.43,-15.51 -25.88,-21.69 -4.42,3.05999 -7.27,7.7 -10.52,11.87 7.89,8.33 17.05,15.71 23.11,25.57 -13.27,12.55 -27.44,24.16 -41.62,35.67 -4.41,3.12 -8.56,7.24 -14,8.38 -2.12,-0.82001 -1.5,-3.94001 -2.84,-5.58001 -4.48,-7.03999 -9.41,-13.90999 -15.36,-19.79999 -4.74,1.32 -8.75,4.27 -12.87,6.84 4.12,7.96 8.4,15.85 12.22,23.96 0.83,2.15 2.18,4.49 1.45,6.86 -1.04,1.76 -3.12,2.46 -4.81,3.43 -12.97,6.32 -26.34,11.79 -39.73,17.16 -6.61,2.51 -13.13,5.37 -20.03,6.97 -0.59,-1.07 -1.37,-2.06 -1.6,-3.27 -0.93,-8.18 -3.63,-16.03 -6.68,-23.63 -0.73,-1.1 -1.06,-3.21 -2.82,-2.89 -3.62,0.09 -7.19,0.99 -10.58,2.2 -1.33,0.64 -3.79,1.08 -2.84,3.12 1.74,10.54 5.1,20.82 5.58,31.55 -9.54,2.46 -19.39,3.37 -29.1,4.85 -13.48,1.71 -26.93,3.81 -40.51,4.52 -1.57,-10.78 -0.71,-21.77 -2.67,-32.51 -4.77,-2.15 -10.12,-1.38 -15.19,-1.5 -0.74,9.94 -1.19,19.91 -2.43,29.82 -0.34,1.56 -0.2,4.11 -2.37,4.22 -7.38,0.43 -14.68,-1.3 -21.97,-2.21 -15.68,-2.59 -31.51,-4.64 -46.93,-8.59 -0.87,-3.38 1.57,-6.18 2.44,-9.26 2.4,-7.47 4.38,-15.14 5.17,-22.96 -4.77,-2.24 -9.8,-3.85 -14.77,-5.57 -3.71,10.73 -6.58,21.83 -11.66,32.03 -9.7,-3.10001 -18.62,-8.08001 -27.81,-12.36001 -9.23,-4.54999 -18.66,-8.65999 -27.92,-13.12 -3.48,-1.91999 -7.58,-3.23 -10.08,-6.5 l 0.13,-0.97 c 4.07,-4.04999 6.82,-9.13 9.73,-14.01 2.46,-4.27999 4.95,-8.58 6.71,-13.2 -3.48,-2.95 -7.43,-5.32 -11.74,-6.84 -7.32,7.13 -12.72,15.9 -19.49,23.51 -1.26,1.17 -2.72,3.08 -4.68,2.55 -16.16,-16.6 -34.7,-30.68 -51.5,-46.62 7.97,-8.6 16.74,-16.43 25.12,-24.64 -3.09,-3.38 -5.57,-7.59 -9.75,-9.74 -1.27,-0.63 -2.41,0.67 -3.47,1.16 -8.35,5.26 -16.01,11.57 -24.63,16.39 -4.42,-5.2 -7.94,-11.09 -11.61,-16.83 -6.75,-10.89 -13.69,-21.67 -20.65,-32.42 -2.11,-3.64 -4.75,-7.31 -4.93,-11.66 0.19,-0.32 0.57,-0.96 0.75,-1.29 6.27,-1.45 11.83,-4.8 17.46,-7.79 3.39,-1.94 6.92,-3.74 9.84,-6.38 -0.95,-4.35 -2.59,-8.54 -4.96,-12.31 -11.36,2.41 -22.06,7.55 -33.68,8.81 -5.05,-14.01 -8.41,-28.57 -12.26,-42.94 -1.88,-7.98 -4.28,-15.86 -5.37,-24 3.24,-1.2 6.74,-1.07 10.1,-1.66 7.6,-1.29 15.02,-3.4 22.52,-5.16 -0.54,-5.1 -1.05,-10.22 -2.18,-15.23 -11.44,-0.39 -22.76,2.79 -34.21,1.75 -0.96,-15.84 -0.11,-31.72 0.12,-47.57 0.31,-7.07 0.17,-14.19 1.12,-21.21 0.29,-1.13 0.41,-3.22 2,-3.15 9.09,1.02 18.1,2.72 27.23,3.42 1.2,-0.14 3.42,0.61 3.8,-1.08 1.54,-4.3 2.06,-8.87 2.96,-13.32 -7.59,-1.98 -15.17,-3.98 -22.7,-6.14 -3.81,-1.15 -7.76,-2.15 -11.05,-4.49 1.85,-9.56 5.12,-18.77 7.92,-28.07 4.07,-12.41 7.79,-24.99 12.86,-37.03 1.4,-2.82 4.35,0.05 6.18,0.87 7.95,3.79 16.22,7.12 24.81,9.14 3.32,-3.54 6.07,-8.05 6.41,-12.98 -8.41,-6.81 -19.29,-9.82 -27.88,-16.4 -0.82,-1.08 0.42,-2.42 0.68,-3.52 4.05,-8.6 9.79,-16.24 14.79,-24.29 6.73,-10.26 12.91,-20.87 20.08,-30.83 0.8,-0.82 1.54,-2.7 3,-2.02 2.71,1.08 4.26,3.88 6.45,5.72 6.14,5.58 12.41,11.16 19.59,15.39 4.33,-3.11 7.18,-7.68 10.43,-11.81 -7.82,-8.38 -16.56,-15.94 -23.66,-24.97 11.82,-11.09 24.36,-21.38 36.8,-31.78 5.73,-4.67 11.36,-9.5 17.45,-13.72 1.09,0.61 2.38,1.13 2.81,2.44 4.35,9.31 11.19,17.11 17.34,25.25 4.37,-2.91 8.82,-5.71 12.96,-8.95 -3.94,-8.36 -8.81,-16.24 -12.69,-24.62 -0.73,-2.02 -2.37,-4.95 -0.18,-6.63 3.52,-2.38 7.56,-3.88 11.38,-5.73 15.57,-6.95 31.22,-13.75 47.25,-19.57 2.18,-1 5.87,-1.35 6.25,1.83 1.6,8.45 4.21,16.72 7.56,24.64 0.61,0.89 0.91,2.7 2.36,2.43 4.77,-0.11 9.3,-1.94 13.57,-3.95 -1.3,-11.09 -5.43,-21.78 -5.58,-33.01 2.6,-1.51 5.94,-1.35 8.86,-2.04 m 87.77,-0.8 c -0.66,9.33 -0.93,18.68 -1.31,28.03 8.9,0.88 17.83,1.47 26.67,2.88 7.76,1.02 15.35,3.03 23.06,4.38 3.96,-8.31 5.55,-17.56 6.78,-26.62 -18.33,-3.3 -36.74,-6.21 -55.2,-8.67 m -90.4,7.58 c 1.65,8.33 3.51,16.63 5.5,24.88 0.55,2.99 4.16,1.57 6.18,1.35 12.83,-2.91 25.93,-4.15 39,-5.44 2.71,-0.53 6.7,-0.61 7.6,-3.84 0.55,-8.13 0.22,-16.4 -1.63,-24.36 -18.89,2.47 -37.77,4.93 -56.65,7.41 m -72.84,27.87 c -3.36,1.38 -6.84,2.49 -10.01,4.29 3.58,8.34 7.89,16.49 13.35,23.78 13.07,-5.27 25.28,-12.55 38.68,-17.06 2.96,-1.19 7.56,-2.48 7.13,-6.54 -1.39,-7.59 -4.55,-14.72 -6.65,-22.13 -14.16,5.89 -28.28,11.88 -42.5,17.66 m 250,-17.63 c -2.57,8.61 -6.48,16.94 -7.38,25.96 7.83,4.16 16.21,7.18 24.21,10.99 7.38,3.28 14.32,7.51 21.89,10.36 5.94,-6.54 9.16,-14.94 13.45,-22.54 -17.44,-8.16 -34.74,-16.61 -52.17,-24.77 m -138.74,18.02 c -5.77,0.54 -11.47,1.56 -17.14,2.7 -37.57,7.54 -73.92,21.88001 -105.92,43.06001 -14.89,9.74 -27.94,21.94 -40.64,34.33 -12.47,12.55 -24.77,25.45999 -34.69,40.18 -23.62,34.61 -39.27,74.57999 -45.59,115.99 -8.91,57.21999 0.29,117.11999 26.25,168.9 33.44,67 95.06,119.07 166.32,141.8 15.24,4.96 31.01,8.04 46.84,10.39 5.63,0.86 11.23,2.15 16.96,1.99 27.68,-0.11 55.79,0.73 82.85,-6.12 33.15,-8.12 65.55,-20.85 93.7,-40.39 33.76,-22.96 62.84,-52.92 84.21,-87.74 19.66,-31.59 31.91,-67.37 38.06,-103.96 1.93,-12.91 2.19,-26.01 2.13,-39.05 -0.02,-14.64 0.25,-29.36 -1.75,-43.9 -2.83,-18.53 -7.61,-36.76 -13.99,-54.39 -18.91,-52.52 -53.77,-99.21 -99.07,-131.88 -31.87,-23.23 -68.76,-39.2 -107.17,-47.84 -18.37,-4.06 -37.25,-5.06 -56.01,-4.97 -11.79,0.02 -23.6,-0.16 -35.35,0.9 m -151.98,24.72 c -14.03,11.35 -27.79,23.02 -41.64,34.58 6.55,6.4 12.76,13.16 19.62,19.24 7.97,-6.64 15.35,-13.97 23.37,-20.56 5.41,-4.76 11.55,-8.69 16.45,-14.03 -3.33,-6.18 -7.84,-11.65 -12.35,-17 -1.35,-1.37 -3.4,-4.01 -5.45,-2.23 m 354.12,21.41 c 12.61,10.01 25.22,20.09 36.68,31.41 1.52,1.16 3.7,3.74 5.55,1.65 6.45,-5.06 12.32,-10.91 17.44,-17.3 -13.65,-13.21 -28.01,-25.71 -42.82,-37.61 -6.28,6.74 -11.31,14.51 -16.85,21.85 m -417.4,37.55 c -10.29,15.94 -20.36,32.02 -30.49,48.07 6.8,3.69 13.38,7.81 20.39,11.09 1.54,0.53 3.41,1.59 4.99,0.61 7.74,-14.93 17.94,-28.44 26.89,-42.67 -6.89,-6.14 -14.24,-11.77 -21.78,-17.1 m 476.91,19.36 c 1.35,2.49 2.85,4.91 4.51,7.22 6.51,9.05 12.12,18.69 17.91,28.2 1.68,2.54 3.29,5.38 6.04,6.91 2.42,1.19 5.07,-0.18 7.3,-1.2 5.5,-2.86 10.89,-5.95 16.37,-8.86 -10.11,-16.17 -20.52,-32.15 -30.66,-48.3 -7.24,5.22 -14.96,9.86 -21.47,16.03 m -520.85,60.24 c -6.15,16.9 -11.9,34.01 -16.43,51.43 7.99,3.82 16.58,6.45 25.31,7.96 2.27,-4.28 3.47,-9.01 4.85,-13.62 2.85,-10.53 5.53,-21.15 9.61,-31.29 0.46,-1.74 1.54,-3.57 1,-5.39 -3.53,-2.78 -7.81,-4.4 -11.94,-6.06 -4.01,-1.41 -8.07,-3.17 -12.4,-3.03 m 561.75,11.15 -0.31,0.71 c 3.57,13.95 8.9,27.44 11.72,41.6 0.67,2.96 1.48,6.47 4.44,7.97 8.07,-1.47 16.2,-3.07 23.9,-5.98 -1.15,-7.31 -3.44,-14.37 -5.38,-21.49 -3.17,-10.62 -6.04,-21.37 -10.23,-31.65 -8.35,1.95 -16.58,4.81 -24.14,8.84 m -583.1,73.78 c 0.03,19.57 0,39.14 0.02,58.71 9,-1.14 18.01,-2.24 27.01,-3.39 -0.07,-15.15 -0.36,-30.3 -0.43,-45.44 -0.14,-2.01 0.22,-4.15 -0.34,-6.07 -8.69,-1.65 -17.48,-2.72 -26.26,-3.81 m 600.74,6.41 c 0.41,17.27 -0.43,34.65 1.73,51.83 7.85,1.49 15.77,2.57 23.69,3.63 1.49,-4.83 1.24,-9.94 1.43,-14.93 0.04,-14.62 0.02,-29.24 0,-43.86 -8.89,1.54 -17.89,2.29 -26.85,3.33 M 89,502.09976 c 1.64,9.74 4.68,19.18 7.37,28.66001 2.52,8.22 4.77,16.55999 8.13,24.49 8.38,-2.05001 16.64,-4.70001 24.53,-8.18001 -1.58,-10.32999 -5.95,-19.93999 -8.43,-30.05 -2.14,-6.74 -2.42,-14.22 -6.44,-20.24 -8.56,0.60001 -17.13,2.27 -25.16,5.32 m 588.39,8.67 c -2.84,11.49001 -6.9,22.61001 -10.05,34.01 -0.21,1.60001 -1.33,3.37 -0.79,4.95 7.05,3.73 14.67,6.5 22.42,8.39001 3.66,-5.9 5.71,-12.59001 8.14,-19.05001 3.81,-11.28 7.68,-22.54 11.04,-33.95999 -9.01,-2.87 -18.27,-4.94 -27.57,-6.64 -1.81,3.88 -2.07,8.22 -3.19,12.3 m -542.76,65.94 c -5.57,2.74 -11.07,5.67999 -16.09,9.36 9.13,16.48 19.93,31.97 29.79,48.01 7.49,-5.17 14.98,-10.31 22.48,-15.46 -7.88,-11.39 -16.07,-22.60001 -22.85,-34.69001 -1.76,-2.91 -3.25,-6.21 -6.11,-8.2 -2.38,-1.26 -5,0.02 -7.22,0.98 m 517.47,0.15 c -4.49,8.07 -9.17,16.03 -14.35,23.68 -3.56,5.52 -7.68,10.69 -10.82,16.48 -0.75,1.45 -1.7,3.72 0,4.9 6.06,5.54 12.46,10.75 19.21,15.42 10.93,-15.74 20.75,-32.2 31,-48.38 -8.25,-4.23 -16.46,-8.58 -25.04,-12.1 m -467.57,66.72 c -5.46,4.66 -10.56,9.8 -15.02,15.45 6.94,7.18 14.57,13.65 22.02,20.3 6.82,5.86 13.48,11.93 20.72,17.29 6.3,-6.7 11.36,-14.43 16.84,-21.78 -13.51,-10.09 -25.55,-21.97 -38.54,-32.7 -1.89,-2.14 -4.36,0.23 -6.02,1.44 m 394.22,21.98 c -4.5,3.74 -9.46,7 -13.27,11.51 3.93,7.83 9.9,14.7 16.71,20.19 14.49,-11.28 28.43,-23.25 42.56,-34.97 -5.83,-7.34 -12.89,-13.56 -19.31,-20.35 -8.9,7.87 -17.43,16.17 -26.69,23.62 m -325.57,26.06 c -5.1,6.85 -8.58,14.69 -12.73,22.11 9.3,4.61 18.68,9.08 28.02,13.64 8.08,3.74 16.07,7.83 24.57,10.57 2.58,-6 4.69,-12.2 6.4,-18.5 0.44,-2.33 1.32,-4.99 0.11,-7.21 -15.88,-5.75 -30.67,-14.33 -46.37,-20.61 m 274.56,7.06 c -11.68,5.78 -23.71,10.82 -35.78,15.7 2.66,8.32 5.47,16.59 8.48,24.79 17.39,-7.15 34.86,-14.2 51.89,-22.18 -2.11,-7.05 -5.92,-13.45 -9.73,-19.68 -1.06,-1.25 -1.72,-3.26 -3.48,-3.56 -4.23,0.37 -7.66,3.17 -11.38,4.93 m -198.79,26.26 c -2.14,7.59 -3.82,15.33 -4.91,23.14 17.92,3.52 35.96,6.41 54.02,9.09 2.93,-5.97 2.72,-12.84 3.4,-19.3 -0.01,-2.93 0.49,-7.12 -2.66,-8.65 -4.79,-1.61 -9.95,-1.17 -14.9,-1.76 -10.73,-1.26 -21.37,-3.26 -31.91,-5.6 -1.89,-0.62 -2.54,1.79 -3.04,3.08 m 82.34,4.76 c -0.07,8.41 -0.06,16.97 2,25.17 0.17,1.89 2.14,1.93 3.58,1.58 14.7,-2.31 29.51,-3.72 44.25,-5.7 2.65,-0.56 5.94,-0.69 7.67,-3.1 0.61,-2.25 -0.23,-4.54 -0.69,-6.72 -1.52,-5.86 -2.44,-11.91 -4.79,-17.51 -17.46,1 -34.58,5.01 -52.02,6.28 z"
       id="path211"
       inkscape:connector-curvature="0"
       style="opacity:1;fill:#020202" />
    <path
       d="m 369.08,185.71976 c 6.94,-1.11 13.85,-2.59999 20.89,-2.96999 2.42,10.57999 2.5,21.49 3.45,32.25 4.08,0.03 8.15,0.02 12.23,0.02 0.92,-8.65999 1.99,-17.32999 2.12,-26.05 0.02,-2.06 0.51,-4.08 1.18,-6.01999 8.26,0.49 16.38,2.25 24.54,3.56 16.97,3.13999 34.05,5.94999 50.77,10.27999 -0.59,10.95 -5.17,21.14001 -7.37,31.79 3.31,2 6.91,3.44 10.58,4.64 4.62,-9.06 7.24,-19.08 12.83,-27.64 10.93,4.51 20.92,11.02 31.18,16.87001 8.96,5.36 17.95,10.66999 26.8,16.21999 3.31,2.16 6.86,4.15001 9.37,7.29 -5.79,9.14 -13.57,16.78 -20.4,25.12 2.77,2.82 5.21,6.18001 8.86,7.96 2.4,-0.46999 4.05,-2.59999 5.88,-4.08 6.39,-5.6 11.53,-12.75 19.03,-17 7.48,7.62 13.59,16.44 20.12,24.86001 8.64,11.84999 17.77,23.44 25.16,36.13999 -8.04,7.49001 -18.13,12.22001 -27.29,18.16001 1.9,3.26999 3.03,7.89999 6.88,9.31 9.9,-2.17 18.73,-8.22001 28.95,-9 6.34,17.54 11.2,35.58 16.25,53.52 1.55,5.97 3.34,11.91 4.37,18.00999 0.49,2 -1.97,2.53 -3.37,2.91001 -8.55,1.95999 -17.38,2.22 -25.97,3.92 -2.04,0.13 -3.15,2.13 -2.87,4.01 -0.13,3.02999 0,7.6 3.85,8.2 9.8,1.54 19.89,-2.08 29.61,0.24 0.74,5.46 -0.23,11.02999 -0.42,16.52999 -1.72,20.09 -3,40.30001 -6.45,60.19 -11.02,-0.05 -21.48,-4.14999 -32.34,-5.44999 -1.41,4.07999 -1.98,8.37999 -2.81,12.61 9.91,3.44999 20.27,5.89 29.54,10.95999 -2.08,7.11 -5.67,13.65 -8.71,20.38 -7.07,14.44 -14.1,28.92001 -22.14,42.85 -1.17,1.66 -2.07,4.1 -4.43,4.20001 -2.96,-0.32001 -5.5,-2.04 -8.02,-3.48001 -6.42,-3.94 -12.75,-8.01 -19.09,-12.05999 -2.41,2.86 -4.94,5.67999 -6.48,9.15 6.62,8.5 16.39,13.78999 23.43,21.89999 -16.11,17.13 -34.47,31.96001 -51.17,48.5 -1.37,1.19001 -2.36,3.62 -4.59,2.88 -3.93,-1.58 -6.72,-4.95 -9.5,-8 -4.5,-5.39999 -8.7,-11.03999 -12.99,-16.6 -3.33,1.94001 -6.92,3.70001 -9.29,6.86 3.75,9.14 9.83,17.09001 13.6,26.23 -3.75,3.22001 -8.53,4.77 -12.94,6.85001 -14.14,5.99 -28.28,11.97 -42.64,17.39 -4.76,1.75 -9.54,3.47 -14.5,4.57 -5.84,-9.31 -7.72,-20.39 -11.26,-30.65 -4.08,0.62 -8.15,1.22 -12.19,2.01 0.86,10.28 4.11,20.34 3.59,30.72 -16.21,2 -32.59,2.06 -48.9,2.69 -8.14,0.04 -16.35,0.82 -24.44,-0.31 -3.07,-0.22 -4.36,-3.55 -4.09,-6.22 0.18,-9.01 2.09,-17.86 3.46,-26.72 -4.13,-1.46 -8.45,-2.37 -12.84,-2.53 -2.69,10.06 -3.65,20.57 -7.34,30.36 -6.02,-1 -11.69,-3.34 -17.43,-5.3 -15.75,-5.69 -31.39,-11.72 -46.73,-18.44 -2.82,-1.23 -5.61,-2.58 -8.21,-4.24 3.35,-9.92 9.29,-18.65 14.18,-27.83 -3.11,-2.68 -6.23,-5.37 -9.72,-7.53 -6.82,6.66 -11.47,15.17 -18.16,21.95 -1.5,1.35 -3.14,3.08 -5.33,2.94 -11.21,-11.86 -23.8,-22.32 -35.7,-33.47 -6.1,-5.83 -12.6,-11.29 -18.08,-17.72 7.44,-8.03 16.27,-14.59 24.52,-21.74 -2.47,-3.33 -4.72,-6.89 -8,-9.5 -9.12,5.02 -16.93,12.09 -26.19,16.87 -2.86,-3.66 -4.95,-7.82 -7.16,-11.88 -8.06,-15.21 -15.59,-30.69 -22.65,-46.39 -1.62,-3.88 -3.59,-7.67 -4.36,-11.84 9.01,-5.53 19.56,-7.57 29.46,-10.97 -0.81,-3.96 -1.52,-7.97 -3.19,-11.68 -10.73,0.28 -20.94,4.64 -31.7,4.44 -2.76,-15.12 -3.81,-30.49 -5.38,-45.77 -0.8,-9.74 -1.86,-19.48 -1.92,-29.26 9.53,-2.28 19.42,-0.58 29.05,-1.95 2.1,-0.26 4.28,-1.65 4.48,-3.93 0.13,-2.25 1.09,-5.68 -1.58,-6.8 -9.32,-3.48 -19.84,-2.62 -28.94,-6.84 3.37,-18.35 8.78,-36.24 13.91,-54.15 1.83,-5.82 3.43,-11.75 5.86,-17.36 1.14,-2.58 4.39,-1.87 6.46,-0.99 8.27,3.5 16.19,7.78 24.26,11.72 2.11,-4.35 4.47,-8.58 6.51,-12.96 -9.22,-4.98 -19.25,-8.74 -27.46,-15.38 7.9,-13.59 17.6,-26.02 26.78,-38.75 6.06,-7.93 11.73,-16.22 18.64,-23.44 8.93,6.65 16.82,14.57 25.11,21.99 3.13,-3.14 6.26,-6.27 9.4,-9.4 -6.59,-8.11 -13.98,-15.62 -19.72,-24.38 6.58,-5.37 13.83,-9.83 20.94,-14.44 9.97,-6.38 19.88,-12.84 29.83,-19.26 4.28,-2.63 8.54,-5.41 13.31,-7.09 7.18,8.16 10.43,18.8 15.97,28.01 4.19,-0.73 8.28,-1.97 12.18,-3.67 -2.87,-10.31 -7.89,-20.07 -9.08,-30.8 17.79,-4.82 36.05,-7.72 54.16,-11.1 m -46.52,15.4 c 1.46,8.32 4.69,16.32 8.63,23.77 5.91,-0.9 11.53,-3.05 17.38,-4.24 12.62,-2.7 25.43,-4.31 38.23,-5.91 -0.56,-8.35 -0.78,-16.75 -2.08,-25.04 -20.84,3.11 -41.55,7.1 -62.16,11.42 m 92.36,-11.6 c -0.28,8.36 -2.57,16.92 -0.67,25.18 3.22,1.82 7.22,1.61 10.8,2.25 15.06,1.31 29.57,5.69 44.15,9.42 3.71,-7.55 5.64,-15.81 7.69,-23.93 -6.98,-2.38 -14.26,-3.68 -21.44,-5.25 -13.49,-2.65 -27.02,-5.13 -40.53,-7.67 m -148.26,39.04 c -8.23,5.59 -16.76,10.78 -24.5,17.04 4.09,6.6 8.66,12.92 13.87,18.68 8.38,-5.37 16.38,-11.33 24.98,-16.37 7.99,-4.95 16.47,-9.03 24.89,-13.2 -4.09,-7.66 -7.51,-15.68 -12.23,-22.98 -9.35,5.03 -18.08,11.11 -27.01,16.83 m 237.51,-14.09 c -4.66,6.73 -7.11,14.63 -10.51,22.01 9.88,4.73 19.51,9.98 28.68,15.99 6.13,4.09 12.61,7.84 17.69,13.27 2.39,0.31 4.07,-1.69 5.68,-3.11 2.78,-2.9 5.38,-5.98 8.03,-9.01 1.29,-1.65 2.92,-3.36 3.01,-5.57 -0.31,-2.24 -2.34,-3.64 -3.98,-4.92 -5.74,-4.08 -11.98,-7.38 -17.99,-11.02 -10.16,-5.95 -20.23,-12.09 -30.61,-17.64 m -116,7.6 c -37.15,1.61 -73.87,12.8 -105.4,32.54 -28.64,17.94 -53.25,42.33 -71.37,70.86 -15.03,23.83 -24.98,50.7 -30.25,78.32 -2.66,17.18 -2.77,34.65 -2.28,51.98 0.49,10.77 1.1,21.62 3.68,32.13 7.56,33.01 22.23,64.48 43.4,90.97 21.27,26.82 48.96,48.35 79.75,63.19 13.79,6.06 28.3,10.33 42.86,14.12 23.59,6.32 48.33,5.83 72.49,4.11 20.95,-1.44 41.46,-6.89 60.84,-14.85 34.58,-14.33 65.28,-37.77 88.46,-67.15 23.2,-29.35 39.1,-64.58 45.07,-101.55 2.96,-24.47 2.71,-49.37 -0.65,-73.78 -9.54,-53.79 -40.19,-103.4 -83.78,-136.27 -40.46,-30.95 -91.93,-47.09 -142.82,-44.62 m -208.5,93.77 c 7.27,4.08 14.57,8.1 21.88,12.12 4.9,-7.26 9.61,-14.66 14.93,-21.62 6.28,-8.56 13.45,-16.39 20.54,-24.27 -6.39,-5.69 -12.67,-11.53 -19.35,-16.88 -13.08,16.57 -25.35,33.76 -38,50.65 m 382.62,-31.66 c 5.1,7.57 11.46,14.18 16.8,21.56 6.2,8.05 11.52,16.7 16.96,25.25 7.45,-4.61 15.23,-8.74 22.17,-14.12 -12.02,-17.52 -25.45,-34.03 -38.19,-51.04 -6.03,6 -12.39,11.72 -17.74,18.35 m -395.81,57.39 c -3.8,10.87 -6.66,22.03 -9.71,33.12 -2.43,9.4 -5.11,18.75 -6.85,28.3 7.53,1.69 15.13,3.28 22.83,3.97 2.62,-5.7 3.17,-12 4.82,-17.99 3.12,-11.85 6.7,-23.59 10.9,-35.1 -0.53,-2.33 -3.08,-3.34 -4.9,-4.52 -5.56,-2.89 -11.22,-5.59 -17.09,-7.78 m 440.86,11.76 c 6.36,18.19 12.07,36.67 14.8,55.8 8.63,-0.97 17.41,-1.11 25.88,-3.18 -2.56,-12.14 -6.15,-24.03 -9.49,-35.96 -2.51,-8.11 -4.54,-16.41 -7.7,-24.29 l -0.5,-0.28 c -7.89,1.94 -15.37,5.18 -22.99,7.91 m -462.64,78.68 c 3.26,20.99 3.64,42.31999 6.88,63.31999 8.23,-1.68 16.46,-3.33999 24.68,-5.04 -3.62,-19.18 -5.4,-38.75 -5.15,-58.27999 -8.8,0 -17.61,0.01 -26.41,0 m 480.63,3.74 c -0.98,16.37 -1.36,32.87 -4.5,49.01 -0.47,2.49 -0.6,5.02999 -0.5,7.56 7.75,2.83999 15.94,4.74 24.2,5.18 2.25,-21.18 4.24,-42.4 5.73,-63.65 -8.34,0.18 -16.63,1.18 -24.93,1.9 m -465.69,87.85 c 8.79,19.49 17.86,38.89 27.74,57.85 5.77,-3.53 11.42,-7.28 16.89,-11.27 1.9,-1.4 4.45,-3.75 2.74,-6.27 -7.11,-11.65 -13.3,-23.86 -18.8,-36.34 -1.82,-3.91001 -2.72,-8.23 -5.14,-11.85 -8.05,1.78 -15.99,4.32999 -23.43,7.88 m 452.38,-5.75 c -3.48,8.14 -6.69,16.41 -10.75,24.28999 -4.64,9.53 -10.23,18.54001 -15.54,27.70001 7.09,4.52 13.99,9.36 21.44,13.27 2.24,-3.52 4.28,-7.16 6.24,-10.83001 7.89,-15.11 15.77,-30.26999 22.44,-45.96 -7.8,-3.22 -15.87,-5.70999 -23.83,-8.47 m -407.92,87.1 c 15.73,13.99 31.17,28.32 46.98,42.22 5.01,-6.32 10.03,-12.66999 14.3,-19.53 -2.84,-4.21 -7.16,-6.98 -10.84,-10.36 -10.55,-9.47 -20.56,-19.51999 -30.61,-29.5 -6.61,5.72001 -13.23,11.44001 -19.83,17.17 m 322.25,24.53 c 5.14,6.57 9.89,13.48 15.8,19.41 16.67,-13.4 31.99,-28.4 48,-42.58 -6.72,-5.37 -13.38,-10.81 -20.08,-16.19 -13.44,14.33 -27.91,27.67 -43.72,39.36 m -240.55,16.27 c -3.21,5.77999 -6.15,11.72 -9.17,17.62 19.54,7.76999 38.84,16.14999 58.62,23.26999 3.96,-7.24 4.01,-15.76999 5.78,-23.66999 -9.17,-4.88 -19.43,-7.14 -28.86,-11.44001 -6.98,-2.62 -13.39,-6.49 -20.26,-9.30999 -2.78,-1.25 -4.97,1.34 -6.11,3.53 m 163.76,16.95 c 2.23,6.9 4.37,13.84 6.93,20.64 0.72,1.74 1.96,4.73 4.36,3.32 18.18,-7.45 36.56,-14.5 54.38,-22.81 -2.07,-7.65 -6.79,-14.17 -10.49,-21.08 -17.96,7.76 -35.99,15.69 -55.18,19.93 m -82.48,5.03 c -0.97,8.16999 -1.45,16.44 -3.36,24.47 4.53,1.73 9.5,0.91 14.24,0.98 16.86,-0.51 33.72,-0.94 50.56,-1.98 -0.82,-7.7 -2.25,-15.31 -3.49,-22.95 -19.32,-0.09 -38.64,-0.25 -57.95,-0.52 z"
       id="path213"
       inkscape:connector-curvature="0"
       style="opacity:1;fill:#020202" />
    <path
       d="m 407.41,242.34976 c 2.1,-0.61 4.34,0.43 6.46,0.74 21.59,5.10001 42.98,11.06 64.26,17.36001 3.97,1.28999 8.07,2.28999 11.77,4.28999 -0.52,3.31 -3.14,5.61 -4.64,8.46001 -3.6,6.36 -7.13,12.78999 -9.83,19.58999 3.71,2.09001 7.11,5.03001 11.32,6.02001 7.61,-7.31 12.02,-17.25 19.29,-24.88 15.46,13.81 29.63,28.99 44.48,43.45 4.33,4.68 9.55,8.82999 12.44,14.63 1.72,3.42 -1.81,6.11 -4.37,7.64999 -6.48,3.83 -12.86,7.83 -19.26,11.79001 2.46,4.25 4.88,8.52999 7.37,12.77999 9.27,-5.11 18.1,-11.73 28.58,-14.07 4.39,10.78 6.98,22.19 10.31,33.33 4.32,16.21 9.19,32.33 12.24,48.85 -10.59,2.19 -21.48,0.98001 -32.21,1.32 0,4.73 0,9.46 0,14.2 6.76,1.03 13.57,1.89 20.42,2.06 3.99,0.2 8.24,-0.24 11.91,1.68 -4.1,20.38 -9.95,40.36 -15.55,60.36 -1.99,6.64 -3.76,13.36 -6.26,19.83 -0.22,1.55 -2.12,2.21 -3.33,1.37 -8.11,-5.57 -16.85,-10.25 -25.97,-13.93 -2.08,3.95 -4.28,7.86 -5.84,12.05 8.13,6.47001 17.22,11.67 24.93,18.66 -5.07,6.51001 -11.22,12.05001 -16.84,18.06001 -12.58,12.41999 -25.14,24.88 -38.23,36.76999 -1.74,1.60001 -3.58,3.07001 -5.58,4.33001 -6.32,-7.97 -10.93,-17.09 -16.27,-25.71001 -4.33,1.96001 -8.41,4.45001 -12.16,7.36001 3.99,9.57 10.25,18.2 12.7,28.38 -4.54,2.25 -9.51,3.38 -14.31,4.91999 -17.62,5.17 -35.33,10.02 -53.13,14.48 -4.85,1.17 -9.67,2.49 -14.63,3.11 -2.16,-10.57 -1.06,-21.41999 -1.37,-32.12 -4.71,-0.01 -9.42,-0.01 -14.13,0 -0.95,8.91 -1.39,17.88 -2.77,26.75 -0.27,2.06 -0.99,4.03 -2.15,5.77 -18.77,-3.98 -37.16,-9.53999 -55.61,-14.77 -7.82,-2.34 -15.69,-4.57 -23.36,-7.34 -1.98,-0.26 -2.22,-2.6 -1.11,-3.9 5.51,-7.76999 10.04,-16.24 13.74,-25.01 -3.63,-2.40999 -7.31,-4.85 -11.45,-6.29999 -6.91,7.35 -11.05,16.83 -18.13,24.01 -6.4,-2.76 -10.9,-8.39 -16.02,-12.91 -15.14,-15.1 -30.76,-29.81 -44.54,-46.18001 7.74,-6.61 16.75,-11.53999 25.4,-16.78999 -1.37,-4.49 -3.64,-8.81001 -6.9,-12.22 -9.55,4.06999 -18.23,10.30999 -28.42,12.75 -1.87,-3.87 -2.93,-8.05001 -4.22,-12.13 -4.1,-13.76 -7.91,-27.60001 -11.57,-41.47001 -2.39,-9.45 -5.11,-18.82999 -6.73,-28.45 10.54,-2.22 21.39,-0.98 32.07,-1.31 0.01,-4.75999 0.01,-9.50999 0,-14.25 -8.71,-0.87 -17.42,-1.93 -26.18,-2.13 -2.11,0.03 -4.14,-0.56 -5.99,-1.52999 1.47,-8.48 3.76,-16.79 5.86,-25.13 4.65,-17.56 9.34,-35.12 14.9,-52.41 0.75,-1.83 1.36,-5.38 4.14,-4.29 7.98,5.47 16.3,10.57 25.22,14.4 3.05,-3.36 5.37,-7.32 6.99,-11.54001 -7.73,-7.26999 -17.27,-12.20999 -25.08,-19.37 7.11,-8.44999 15.22,-15.97 22.82,-23.95999 12.23,-12.06 24.12,-24.49 36.96,-35.90001 6.62,8.19 11.38,17.66001 17.13,26.45001 4.8,-1.82 9.13,-4.6 13.63,-7.04 -3.51,-6.18001 -7.1,-12.31 -10.51,-18.54 -1.7,-3.21 -3.57,-6.45 -3.93,-10.13 6.84,-3.1 14.2,-4.79 21.35,-7.01 20.19,-5.61 40.32,-11.6 60.88,-15.73 2.35,10.57 1.16,21.49 1.48,32.22 4.72,-0.01 9.44,0.02 14.17,-0.02 0.77,-8.08 1.82,-16.14 2.05,-24.27 0.09,-2.53 0.07,-5.2 1.31,-7.49 m -93.04,25.44 c 3.74,7.53999 7.47,15.08 11.33,22.56 15.06,-6.57 30.86,-11.54 47.12,-14.04 3.4,-0.58 6.85,-0.6 10.29,-0.55 -0.15,-8.73 0.61,-17.56 -0.97,-26.2 -22.72,5.59 -45.13,12.36 -67.77,18.23 m 99.25,-17.93 c -0.93,6.65999 -1.75,13.34999 -2,20.07 0.01,1.86 -0.12,4.91999 2.46,5.02 9.47,1.88999 19.13,2.87999 28.42,5.68 8.62,2.07 16.71,6.04 25.45,7.62 2.43,-2.48 4.1,-5.57 5.84,-8.54 2.04,-3.79 4.38,-7.61 4.88,-11.98 -8.76,-3.12 -17.79,-5.37 -26.73,-7.92 -12.74,-3.42 -25.43,-7.12 -38.32,-9.95 m -30.01,31.92 c -28.65,2.73 -56.6,13.05 -80,29.82 -13.03,10.11 -24.77,21.91 -35.05,34.79 -20.7,28.27 -32.09,63.39 -31.28,98.47 0.51,43.98 20.6,87.05 53.16,116.47 22.68,20.06 50.89,33.7 80.56,39.55 9.84,2.12 19.98,1.65 29.97,1.29 11.44,-0.6 22.91,-1.4 34.18,-3.57 41.4,-9.82001 78.29,-36.91 100.1,-73.44001 9.95,-16.89999 18.25,-35.21999 21.08,-54.76999 2.06,-14.09 1.78,-28.38 1.53,-42.57 -0.24,-19.28 -6.59,-37.91 -14.67,-55.21 -15.3,-32.02 -41.57,-58.48 -73.2,-74.48 -26.42,-13.64001 -56.82,-19.24001 -86.38,-16.35001 m 110.53,22.99 c 5.18,3.34 9.81,7.42001 14.41,11.5 6.81,6.22001 13.53,12.61001 19.28,19.84 2.47,3.08 5.03,6.1 7.94,8.79 7.29,-3.62 14.15,-8.01 21.09,-12.24 -16.25,-17.13 -33.25,-33.52999 -49.87,-50.3 -4.33,7.42 -10.47,14.03 -12.85,22.41 M 288.63,284.49977 c -17.95,14.70999 -33.43,32.11 -50.05,48.26999 6.84,4.69 13.29,10.04001 20.72,13.80001 3.52,-2.66001 5.64,-6.59 8.45,-9.9 10.05,-12 21.52,-22.75 33.8,-32.44 -4.17,-6.65001 -7.55,-13.91 -12.92,-19.73 m 260.98,84.99 c 3.09,7.98 6.39,15.89999 8.59,24.18 2.93,9.88 4.42,20.09 6.62,30.14 0,2.31 2.64,2.07999 4.27,2.51 7,0.75999 14.25,1.36 21.18,-0.25 -5.63,-22.78001 -12.17,-45.33 -18.41,-67.95 -7.29,4.02999 -14.9,7.45999 -22.25,11.37 m -343.94,56.57 c 5.82,2.25 12.2,2.05 18.35,2.35 2.39,-0.04 6.23,0.41 6.79,-2.75 2.16,-10.38 3.35,-20.99 6.58,-31.14 2.12,-7.93 5.74,-15.44 6.95,-23.6 -6.4,-4.4 -13.48,-7.64 -20.38,-11.13 -6.31,22.03 -12.56,44.08 -18.29,66.27 m 360.73,29.11 c -2.58,9.46 -3.68,19.25 -6.43,28.68 -2.37,9.94 -6.72,19.31 -8.49,29.39 6.57,3.52 12.9,7.48 19.65,10.65999 2.87,-5.29999 4,-11.26999 5.73,-16.97999 4.56,-16.34 9.22,-32.65 13.38,-49.1 -7.8,-1.80001 -15.84,-2.67001 -23.84,-2.65 m -360.7,2.54 c 4.97,20.15 10.86,40.06 16.2,60.11 0.65,2.62 1.59,5.17 2.86,7.56 7.38,-3.66 14.63,-7.56 21.94,-11.33 -8.16,-18.11 -13.68,-37.57 -15.24,-57.4 -8.59,0.16 -17.27,-0.55 -25.76,1.06 m 309.19,104.12 c -6.25,6.52 -13.84,11.55 -19.99,18.16 3.49,7.40999 7.96,14.28999 12.12,21.34 16.75,-16.82 33.66,-33.49 50.31,-50.42001 -6.59,-4.77999 -13.25,-9.49 -20.19,-13.75 -7.6,8.06001 -14.17,17.05001 -22.25,24.67001 M 256.64,540.64976 c -6.07,3.29 -11.96,6.91 -17.94,10.38 16.74,16.76 33.36,33.66 50.34,50.17 4.84,-6.8 10.04,-13.48 13.59,-21.07 -2.75,-2.6 -5.62,-5.07 -8.66,-7.33 -12.18,-9.02 -22.15,-20.59 -31.77,-32.19 -1.37,-2.13 -3.86,-0.85 -5.56,0.04 m 187.81,61.85 c -9.89,2.91 -20.17,4.07 -30.13,6.63 -1.74,8.15 -2.23,16.76 -0.67,24.98 22.71,-5.78 45.34,-11.91 67.75,-18.76 -2.99,-7.65 -7.41,-14.61 -11.23,-21.84 -8.46,3.32 -16.9,6.76 -25.72,8.99 m -128.53,13.36 c 21.3,6.22 42.63,12.35 64.12,17.82 1.93,0.85 2.15,-1.66 2.58,-2.87 1.49,-6.83 2.14,-13.91 1.71,-20.89 -11.48,-2.90999 -23.29,-4.30999 -34.6,-7.87 -7.59,-2.09 -14.89,-5.32 -22.72,-6.47 -4.39,6.36 -7.53,13.45 -11.09,20.28 z"
       id="path215"
       inkscape:connector-curvature="0"
       style="opacity:1;fill:#020202" />
    <path
       d="m 378.87,303.97976 c 2.13,-0.64 5.74,-1.99 6.7,0.97001 3.01,9.25 4.09,19.00999 6.18,28.49 5.56,-0.30001 11.11,-0.63 16.66,-0.97001 2.35,-9.91 3.82,-20.08999 7.52,-29.62 15.73,4.8 30.55,12.16001 45.6,18.75 8.43,4.15 17.37,7.53 25.1,12.96 -4.04,9.35 -10.81,17.11 -16.47,25.47 3.84,4.22001 7.75,8.39 11.49,12.7 9.39,-4.88 17.31,-12.42 27.33,-16.09 5.48,10.13 9.41,21.02 13.8,31.65 5.1,13.35 10.89,26.52 14.48,40.38 -8.64,3.6 -18.16,3.89 -27.12,6.34 -1.84,0.42 -3.91,1.7 -3.59,3.89 0.14,4.44 0.61,8.87 0.79,13.31 9.9,2.44 20.13,3.81 29.64,7.58 -1.4,5.87 -3.92,11.38 -6.14,16.97 -6.35,15.09 -12.95,30.09 -20.25,44.75 -1.54,3.1 -3.1,6.21 -5.26,8.94 -9.32,-4.11 -17.04,-10.95 -25.34,-16.72 -4.3,4.3 -8.6,8.59 -12.9,12.9 5.66,8.43 11.82,16.56 16.72,25.48 -2.25,3.22 -6.34,4.04 -9.67,5.68 -17.54,7.08 -35.11,14.1 -52.96,20.36 -3.3,1.13 -6.61,2.27 -10.03,2.96 -3.59,-8.66 -3.88,-18.18 -6.38,-27.12 -0.41,-1.84 -1.69,-3.76 -3.81,-3.64 -4.36,0.09 -9.11,-0.56 -13.13,1.46 -3.57,9.56 -3.5,20.48 -8.89,29.35 -4.57,-1.02 -8.77,-3.11 -13.08,-4.83 -15.05,-6.46 -29.96,-13.27 -44.59,-20.64 -4.09,-2.07 -8.16,-4.19 -11.99,-6.71 0.36,-1.96 1.01,-3.88 2.39,-5.36 5.27,-6.24 9.67,-13.13 14.25,-19.88 -3.83,-4.26 -7.81,-8.4 -11.53,-12.76 -9.47,4.75 -17.34,12.38 -27.37,16.04 -6.01,-11.44 -10.4,-23.63 -15.31,-35.56 -4.53,-12.08 -9.76,-23.98 -12.97,-36.49 8.66,-3.58 18.19,-3.89 27.16,-6.33 1.75,-0.49 3.84,-1.61 3.54,-3.76 -0.17,-4.5 -0.6,-8.98 -0.8,-13.48 -9.92,-2.35 -20.15,-3.76 -29.65,-7.57 1.86,-7.31 5.08,-14.16 7.89,-21.13 6.35,-14.78 12.87,-29.5 20.22,-43.81 1.01,-2.04 2.25,-3.96 3.69,-5.72 2.8,0.93 5.47,2.25 7.8,4.06 5.81,4.42 11.65,8.81 17.59,13.04 4.26,-4.31 8.56,-8.59 12.86,-12.87 -5.56,-8.72 -12.49,-16.75 -16.28,-26.47 6.64,-3.67 13.74,-6.4 20.7,-9.39 15.01,-6.15 30.05,-12.31 45.41,-17.56 m -58.11,29.38 c 4.62,6.56 8.61,13.65 14.28,19.39 9.83,-4.9 19.53,-10.15 29.93,-13.78 6.36,-2.48 13.16,-3.39 19.75,-5.05 -0.83,-7.92 -2.2,-15.81 -4.22,-23.53 -20.04,7.33 -39.78,15.44 -59.74,22.97 m 99.55,-22.97 c -2.21,7.45 -3.45,15.14 -5.39,22.66 1.73,1.52 3.92,2.31 6.15,2.81 8.9,1.95 17.29,5.65 25.52,9.47 6.4,2.92 12.43,6.59 17.88,11.04 4.97,-6.3 9.37,-13.03 14.03,-19.55 -19.09,-9.46 -38.65,-17.94 -58.19,-26.43 m -38.7,31.33 c -21.01,3.54 -40.95,13.65 -55.88,28.89 -14.44,14.3 -23.32,33.44 -27.46,53.16 -4.89,23.23 -0.31,48 11.48,68.48 7.76,12.41 17.81,23.38 29.31,32.43 8.05,6.46 17.78,10.26 27.42,13.66 6.65,2.25 13.45,4.42 20.52,4.78 19.62,1.15 40.06,-1.16 57.54,-10.74 15.9,-8.65 29.23,-21.65 39.4,-36.54 12.85,-18.84 16.92,-42.45 15.12,-64.88 -1.37,-17.48 -8.1,-34.4 -18.8,-48.26 -9.88,-12.75 -21.93,-24.14 -36.32,-31.6 -19.08,-9.6 -41.26,-13.02 -62.33,-9.38 m -91.5,25.21 c -8.02,17.45 -15.93,34.97 -23.21,52.75 7.65,2.06 15.36,3.95 23.13,5.57 1.83,-4.12 2.15,-8.68 3.62,-12.92 3.78,-11.61 8.7,-22.98 15.88,-32.92 0.52,-1.26 2.6,-2.8 1.18,-4.11 -4.41,-5.06 -10.19,-8.79 -15.95,-12.13 -2.73,-1.69 -3.67,1.98 -4.65,3.76 m 196.98,11.89 c 6.94,14.03 14.65,28.07 17.49,43.64 0.48,2.17 1.29,4.24 2.25,6.25 7.59,-1.29 15.35,-2.12 22.65,-4.72 -7.29,-19.95 -15.35,-39.6 -23.04,-59.39 -6.54,4.61 -13.58,8.61 -19.35,14.22 m -220.57,80.72 c 7.23,19.61 15.05,38.99 22.68,58.44 2.55,-0.27 4.61,-1.88 6.69,-3.21 4.52,-3.05 9.09,-6.08 13.01,-9.89 -5.1,-10.03 -10.16,-20.12 -14.03,-30.7 -2.36,-6.16 -3.14,-12.75 -4.79,-19.1 -7.95,0.83 -15.89,2.18 -23.56,4.46 m 237.46,6.38 c -4.45,15.24 -11.06,29.9 -20.15,42.95 6.32,4.13 12.02,9.45 19.16,12.16 1.14,-0.63 1.45,-2.07 2.1,-3.11 8.42,-17.81 16.49,-35.78 24.32,-53.85 -7.78,-2.03 -15.64,-3.76 -23.5,-5.38 -1.65,1.93 -1.04,4.9 -1.93,7.23 m -172.76,62.01 c -4.19,6.14 -8.83,12.02 -12.19,18.68 2.96,1.85 6.08,3.45 9.22,5.01 15.5,7.57 30.97,15.29 47.01,21.65 2.6,-6.32 3.36,-13.19 5.14,-19.75 0.16,-1.44 1.13,-3.03 0.31,-4.39 -17.81,-3.24 -34.38,-11.46 -49.49,-21.2 m 112.73,11.93 c -9.64,3.95 -19.48,8.04 -29.94,9.04 -1.08,0.14 -3.08,0.55 -2.74,2.07 0.6,7.58 2.12,15.16 4.62,22.36 19.96,-7.22 39.77,-14.91 59.33,-23.15 -4.68,-6.52 -8.81,-13.45 -13.95,-19.64 -5.83,3.01 -11.18,6.91 -17.32,9.32 z"
       id="path217"
       inkscape:connector-curvature="0"
       style="opacity:1;fill:#020202" />
    <path
       d="m 406.19,355.79977 c 1.95,-1.15 4.33,0.87 6.34,1.42 16.29,7.6 32.22,16.1 47.37,25.79 2.44,1.58 6.1,4.52 4.09,7.74 -4.62,6.35 -11.14,11.08 -15.71,17.48 -0.87,1.09 -1.15,2.48 -1.47,3.81 10.43,0.92 19.85,-5.76 30.31,-5.6 2.37,14.01 2.81,28.26 3.73,42.42 0.18,6.03 0.95,12.12 -0.06,18.12 -0.63,3.21 -2.93,5.72 -5.2,7.92 -8.06,-2.03 -15.52,-5.91 -23.57,-7.94 -2.72,-1.34 -4.93,2.75 -3.1,4.75 5.6,8.02 14.2,13.37 20.06,21.22 -5.33,4.78 -11.4,8.64 -17.23,12.76 -8.82,5.88 -17.54,11.94 -26.73,17.23 -4.19,2.38 -8.96,4.77 -13.92,3.47 -2.17,-0.34 -2.83,-2.77 -3.32,-4.56 -1.73,-6.65 -2.71,-13.48 -4.59,-20.08 -0.45,-1.94 -3.33,-3.11 -4.31,-0.95 -4.89,8.21 -4.54,18.51 -9.45,26.7 -0.89,1.7 -2.68,0.43 -3.96,0.06 -10.54,-4.55 -20.68,-9.98 -30.77,-15.43 -6.93,-3.95 -13.96,-7.8 -20.34,-12.6 -2.17,-1.56 -4.55,-4.97 -2.16,-7.35 5.26,-6.09 12.05,-10.71 16.93,-17.14 0.58,-1.04 2.25,-2.92 0.65,-3.81 -1.85,-0.52 -3.79,-0.09 -5.63,0.23 -7.83,1.67 -15.3,4.89 -23.28,5.92 -1.79,0.69 -2,-1.52 -2.3,-2.64 -2.01,-11.19 -1.89,-22.62 -2.78,-33.92 -0.3,-7.29 -1.33,-14.56 -1.14,-21.87 -0.07,-4.24 3.11,-7.35 5.55,-10.43 7.9,2.69 15.62,6.01 23.69,8.18 2.02,0.94 3.71,-0.84 3.82,-2.79 -0.74,-2.27 -2.37,-4.08 -3.92,-5.83 -5.45,-5.91 -11.86,-10.92 -16.76,-17.34 3.62,-3.41 7.82,-6.1 11.84,-8.99 9.92,-6.83 19.95,-13.51 30.27,-19.7 4.81,-2.64 9.99,-6.16 15.77,-4.79 2.16,0.44 2.77,2.89 3.33,4.69 1.67,6.35 2.66,12.87 4.5,19.19 0.28,1.48 1.14,2.73 2.23,3.77 3.1,-1.95 4.06,-5.62 5.12,-8.89 2.02,-6.73 2.8,-13.92 6.1,-20.22 m -55.39,25.86 c -4.56,3.2 -9.39,6.06 -13.56,9.77 4.48,5.01 9.08,9.94 14.28,14.22 7.04,-5.15 13.47,-11.23 21.34,-15.17 4.42,-2.44 9.5,-3.52 13.58,-6.57 -0.91,-7.31 -2.43,-14.66 -5.51,-21.38 -10.39,5.8 -20.2,12.58 -30.13,19.13 m 59.33,-18.39 c -1.59,7.28 -3.95,14.45 -4.38,21.94 13.77,1.25 25.8,9.33 35.83,18.35 5.55,-5.17 11.19,-10.24 16.8,-15.34 -15.78,-8.89 -32.15,-16.67 -48.25,-24.95 m -24.62,29.34 c -12.08,2.87 -22.44,11.21 -29.49,21.25 -7.8,10.86 -9.25,24.99 -7.51,37.92 1.48,11.86 9.15,21.96 18.08,29.45 8.09,6.32 17.87,11.73 28.46,11.18 11.21,-0.23 23.03,-2.29 32.05,-9.41 10.17,-7.83 19.12,-18.82 20.58,-31.99 1.39,-11.97 0.81,-25.19 -6.4,-35.36 -7.02,-10.34 -17.14,-19.19 -29.3,-22.72 -8.7,-1.54 -17.71,-1.32 -26.47,-0.32 m 67.76,26.5 c -2.93,1.19 -0.4,4.46 -0.15,6.56 2.47,11.17 2.83,23.04 -0.45,34.09 7.19,2.37 14.08,5.8 21.56,7.22 1.19,-3.91 0.46,-8.02 0.44,-12.02 -0.61,-13.47 -1.21,-26.96 -2.92,-40.34 -6.34,0.43 -12.61,2.11 -18.48,4.49 m -132.7,-3.51 c 1.23,18.05 1.23,36.27 4.24,54.14 5.24,-1.26 10.47,-2.62 15.62,-4.22 1.4,-0.6 3.45,-0.93 3.79,-2.71 -3.97,-12.53 -4.27,-26.13 -1.17,-38.89 -7.54,-2.64 -14.99,-5.54 -22.48,-8.32 m 109.57,73.5 c -6.25,3.85 -12.72,7.74 -20.03,9.12 l -0.49,0.7 c 0.76,7.32 2.45,14.54 4.2,21.69 5.66,-1.84 10.57,-5.32 15.65,-8.32 9.84,-6.27 19.65,-12.61 29.33,-19.13 -4.17,-5.81 -9.66,-10.48 -14.61,-15.6 -4.52,4.03 -8.85,8.36 -14.05,11.54 m -90.76,7.74 c 15.33,7.74 30.28,16.21 45.7,23.77 2.58,-7.15 4.92,-14.68 4.9,-22.33 -13.96,-0.72 -25.6,-9.63 -35.85,-18.32 -5.02,5.51 -11.02,10.32 -14.75,16.88 z"
       id="path219"
       inkscape:connector-curvature="0"
       style="opacity:1;fill:#020202" />
    <path
       d="m 392.6,411.64976 c 9.25,-1.69 19.36,0.95 26.21,7.49 10.08,9.11001 12.45,25.06001 6.47,37.07 -3.34,7.04001 -9.74,12.65 -17.31,14.66001 -8.83,2.33999 -18.98,2.18 -26.71,-3.2 -12.03,-7.6 -17.32,-24.04 -11.93,-37.22 3.74,-9.8 12.95,-17.11 23.27,-18.8 m 0.9,6.88 c -7.71,1.51 -14.63,6.87 -17.67,14.15 -4.53,10.45999 -0.43,24.02 9.3,30.04 9.48,5.42 23.38,4.6 30.56,-4.28 5.56,-6.63 7.7,-16.04 5.48,-24.41 -3.77,-10.98 -16.16,-18.52 -27.67,-15.5 z"
       id="path221"
       inkscape:connector-curvature="0"
       style="opacity:1;fill:#020202" />
    <path
       d="m 719.24,818.09977 c 0.49,0.64 0.49,0.64 0,0 z"
       id="path223"
       inkscape:connector-curvature="0"
       style="opacity:1;fill:#020202" />
  </g>
</svg>
