<?xml version="1.0" encoding="UTF-8" standalone="no"?>
<svg
   xmlns:dc="http://purl.org/dc/elements/1.1/"
   xmlns:cc="http://creativecommons.org/ns#"
   xmlns:rdf="http://www.w3.org/1999/02/22-rdf-syntax-ns#"
   xmlns:svg="http://www.w3.org/2000/svg"
   xmlns="http://www.w3.org/2000/svg"
   xmlns:sodipodi="http://sodipodi.sourceforge.net/DTD/sodipodi-0.dtd"
   xmlns:inkscape="http://www.inkscape.org/namespaces/inkscape"
   id="svg913"
   version="1.1"
   viewBox="0 0 210 297"
   height="1122.5197"
   width="793.70081"
   sodipodi:docname="trees.svg"
   inkscape:version="0.92.4 (5da689c313, 2019-01-14)">
  <sodipodi:namedview
     pagecolor="#ffffff"
     bordercolor="#666666"
     borderopacity="1"
     objecttolerance="10"
     gridtolerance="10"
     guidetolerance="10"
     inkscape:pageopacity="0"
     inkscape:pageshadow="2"
     inkscape:window-width="3840"
     inkscape:window-height="2004"
     id="namedview9"
     showgrid="false"
     inkscape:zoom="0.21024131"
     inkscape:cx="396.8504"
     inkscape:cy="561.25983"
     inkscape:window-x="-16"
     inkscape:window-y="-16"
     inkscape:window-maximized="1"
     inkscape:current-layer="svg913" />
  <title
     id="title1521">Trees</title>
  <defs
     id="defs907" />
  <metadata
     id="metadata910">
    <rdf:RDF>
      <cc:Work
         rdf:about="">
        <dc:format>image/svg+xml</dc:format>
        <dc:type
           rdf:resource="http://purl.org/dc/dcmitype/StillImage" />
        <dc:title>Trees</dc:title>
        <dc:date>2020-04-21</dc:date>
        <dc:creator>
          <cc:Agent>
            <dc:title>SuperColoring</dc:title>
          </cc:Agent>
        </dc:creator>
        <dc:source>http://www.supercoloring.com/coloring-pages/trees</dc:source>
        <cc:license
           rdf:resource="http://creativecommons.org/licenses/by-sa/4.0/" />
        <dc:subject>
          <rdf:Bag>
            <rdf:li>csk</rdf:li>
            <rdf:li>trees</rdf:li>
            <rdf:li>landscape</rdf:li>
            <rdf:li>sizing-cover</rdf:li>
          </rdf:Bag>
        </dc:subject>
      </cc:Work>
      <cc:License
         rdf:about="http://creativecommons.org/licenses/by-sa/4.0/">
        <cc:permits
           rdf:resource="http://creativecommons.org/ns#Reproduction" />
        <cc:permits
           rdf:resource="http://creativecommons.org/ns#Distribution" />
        <cc:requires
           rdf:resource="http://creativecommons.org/ns#Notice" />
        <cc:requires
           rdf:resource="http://creativecommons.org/ns#Attribution" />
        <cc:permits
           rdf:resource="http://creativecommons.org/ns#DerivativeWorks" />
        <cc:requires
           rdf:resource="http://creativecommons.org/ns#ShareAlike" />
      </cc:License>
    </rdf:RDF>
  </metadata>
  <g
     transform="translate(0,1.8097168e-5)"
     id="layer1">
    <path
       style="opacity:1;fill:#000000;stroke-width:0.60710549"
       d="m 181.83379,153.9596 c -0.35086,-1.92574 -1.88742,-3.42371 -3.40972,-4.5458 -2.29554,-1.60999 -4.88021,-2.8666 -7.68554,-3.23767 -2.53101,-0.55331 -5.12863,-0.10313 -7.60592,0.49085 -0.97226,0.32585 -2.25926,0.99011 -3.08513,0.0111 -0.85279,-0.89992 -1.95516,-2.00917 -2.98068,-2.36487 -0.87852,-0.30169 -1.85187,-0.31004 -2.62193,-0.91471 -1.59566,-0.92171 -2.69447,-2.55011 -4.47411,-3.19509 -2.18514,-1.16653 -4.84454,-0.89188 -6.99962,0.20091 -0.56155,0.34098 -1.41736,0.62438 -1.80975,-0.11 -0.005,-2.13206 -2.25166,-3.54823 -4.18906,-3.69022 -0.72833,0.029 -1.95109,0.0722 -1.85894,-0.98784 0.0154,-1.6178 -0.12995,-3.45795 -1.47682,-4.56441 -2.2053,-1.89504 -5.49724,-2.0521 -8.17909,-1.22986 -1.11569,0.3288 -2.03149,1.09126 -2.74296,1.97688 -0.62507,0.57778 -1.47957,0.37616 -2.12702,-0.0379 -2.77152,-1.0151 -6.09697,-0.38596 -8.20522,1.72044 -0.69103,0.8537 -1.43662,1.15754 -2.10812,0.10468 -1.68722,-1.81574 -3.93409,-3.17916 -6.38151,-3.65495 -3.38778,-0.64707 -6.635994,1.27987 -8.855099,3.69352 -0.688306,0.52908 -1.32474,1.92863 -2.114698,0.75275 -1.973097,-1.79181 -4.188827,-3.43228 -6.811917,-4.1159 -3.122617,-0.91649 -6.774398,-0.60734 -9.418316,1.38989 -1.156295,1.05067 -2.187817,2.34394 -2.695643,3.82171 -0.651298,0.78216 -1.533484,-0.15088 -2.345473,-0.075 -2.902406,-0.20211 -5.98615,0.26336 -8.487081,1.81991 -2.195876,1.5138 -3.828946,3.81259 -4.569108,6.37329 -0.481493,1.46758 -0.718976,3.39733 -0.36674,5.06017 0.05967,0.63924 0.666349,1.48908 0.207028,1.99409 -1.473155,0.15556 -3.057532,0.27304 -4.483326,-0.21562 -2.594702,-16.94086 -5.362015,-33.89036 -6.277142,-51.023734 -0.211782,-4.457053 -0.520034,-8.930998 -0.531495,-13.384187 0.11448,-2.006337 0.478522,-4.126917 1.983751,-5.610021 0.201688,-0.262888 0.808636,-1.072545 0.913498,-0.283822 0.827833,2.360725 1.805502,4.797212 3.597466,6.595974 0.497138,0.190587 0.988618,-0.214089 1.078751,-0.742099 1.141388,-4.139908 2.447316,-8.289006 4.60634,-12.01989 1.280239,-2.090431 2.25068,-4.673685 4.523102,-5.887589 0.625527,-0.06715 0.149502,0.996951 0.205231,1.327624 -1.276173,4.61837 -1.200649,9.62349 0.04125,14.256256 0.786191,2.261676 1.545351,4.538151 2.243428,6.828012 0.122552,0.416778 0.63801,1.176186 1.024638,0.55023 2.46944,-3.58351 3.936757,-7.731609 6.151405,-11.467247 1.516425,-2.778832 3.195917,-5.502197 5.398857,-7.77827 2.292297,-2.4634 4.540374,-5.02812 7.230785,-7.065889 0.655091,-0.60975 0.416359,0.269249 0.312519,0.71754 -1.278348,4.430637 -0.921083,9.186052 -0.0095,13.661993 0.492585,2.231767 1.345942,4.434004 2.672614,6.301002 0.496045,0.331778 0.738818,-0.600538 1.009339,-0.864354 2.18375,-3.671907 3.990272,-7.584271 6.558486,-11.01356 3.53347,-4.950421 7.6927,-9.483545 12.41188,-13.324641 0.44326,-0.339813 0.85752,-0.681043 1.34279,-0.965708 -0.64359,3.030676 -1.45313,6.052735 -1.59607,9.165901 -0.13526,3.56147 -0.33541,7.206406 0.47371,10.704333 0.0644,0.451667 0.5814,1.315866 1.05785,0.733492 1.72186,-2.325144 2.64686,-5.133459 4.35796,-7.46526 2.66426,-4.049658 6.00935,-7.658606 10.06304,-10.347437 1.93604,-1.340902 3.80412,-2.815387 5.94071,-3.821873 -0.34115,2.233407 -1.60296,4.240195 -1.77274,6.524492 -0.35385,3.240879 -0.44032,6.551693 0.0723,9.778389 0.18909,0.627358 0.93105,0.0082 1.10947,-0.335428 2.21287,-2.561854 3.85802,-5.56771 6.19974,-8.031634 4.76281,-5.284567 10.2202,-10.078569 16.48593,-13.502186 1.83789,-1.111182 3.97963,-1.616117 5.77585,-2.785336 0.73009,-0.183037 0.0568,-0.348408 -0.19289,-0.641956 -2.76774,-1.616474 -5.85288,-2.620379 -8.51955,-4.41912 -7.13543,-4.411473 -13.16331,-10.486024 -17.92947,-17.360886 -0.66792,-0.909207 -1.46124,-1.717723 -1.94861,-2.736964 -0.20017,-0.332051 -0.52459,-0.115906 -0.79248,-0.177545 -0.55164,0.972961 -0.33016,2.238257 -0.50162,3.312824 -0.15449,3.965763 0.0627,8.062923 1.71287,11.731633 0.12465,0.43444 0.63659,1.515451 0.32641,1.566806 -3.25131,-2.002008 -6.48271,-4.078792 -9.40088,-6.551941 -4.29574,-3.839491 -7.51756,-8.729808 -10.08863,-13.847921 -0.37135,-0.408419 -0.24895,-1.510755 -0.9625,-1.497025 -0.5079,-0.616427 -1.00825,0.378544 -1.06155,0.83732 -0.78025,3.931468 -0.55893,7.992084 -0.26714,11.96623 0.15023,2.644986 0.99322,5.198355 1.31211,7.795886 -4.16954,-3.667115 -7.5814,-8.145793 -10.644594,-12.734551 -3.375851,-5.298697 -6.06586,-10.976222 -9.045724,-16.495871 -0.520949,-1.0235319 -1.246299,-1.9234423 -1.736649,-2.9609903 -0.231206,1.1250782 -0.732731,2.137198 -0.825291,3.3164133 -1.307128,6.571759 -2.306159,13.362796 -1.142434,20.037467 0.203936,1.71411 0.735907,3.405347 0.953477,5.094741 C 85.897264,34.732837 84.308857,32.892335 82.598588,31.23643 75.067183,23.513308 70.830613,13.443151 66.002077,3.9630049 65.590116,3.3660802 65.018227,4.1859616 65.036356,4.6559597 63.9152,11.281416 62.785473,18.094463 63.838772,24.815076 c 0.40773,3.038272 1.448286,5.948395 2.037365,8.940068 -2.26151,-1.516533 -3.844567,-3.817712 -5.667093,-5.802674 -2.761549,-3.343614 -5.652139,-6.703715 -7.535294,-10.646398 -0.813153,-2.2816 0.08987,-4.717218 0.165134,-7.063179 0.173385,-2.4056014 0.664055,-9.0557351 0.490957,-11.4697179 -0.06253,-0.5654338 -0.806198,-0.4236356 -0.780188,0.110557 -0.894074,3.4814881 -0.799339,11.3786689 -1.547477,14.8727699 -0.431053,0.319201 -0.720736,-0.60735 -0.940531,-0.865577 -1.385517,-2.557529 -2.655949,-5.1898446 -3.991857,-7.7803857 -0.724755,1.7184484 -1.058816,3.5447909 -1.111919,5.4023627 -0.727025,5.196811 -0.86912,10.483166 -0.190277,15.693029 0.05255,4.182525 1.623834,8.108227 2.579986,12.122208 -1.154074,0.368012 -2.427476,-0.246697 -3.603303,-0.484253 -3.078705,-0.832411 -6.014124,-2.234892 -9.133437,-2.940589 -0.624421,-0.155756 -0.69047,0.541752 -0.467717,0.948449 0.377595,1.404334 0.663225,2.831079 0.946892,4.256694 -1.221167,-1.292186 -2.345604,-2.671795 -3.524367,-4.002306 -0.372541,-0.03258 -0.189755,0.734419 -0.01533,1.568363 0.03994,2.914818 1.445872,5.60882 2.284666,8.308706 -0.872841,1.081901 -2.583277,1.040972 -3.475829,2.086852 0.301643,0.845036 1.263644,1.360671 1.876818,2.000809 0.510226,0.491979 1.581679,0.920227 0.824768,1.750724 -0.671736,1.691998 -1.708427,3.259197 -2.158453,5.021571 -0.455972,0.617085 0.160295,0.08178 0.364837,0.439875 0.706995,0.187019 1.554931,-0.499552 2.196197,-0.07133 0.398838,1.53692 -0.393428,3.18876 0.07929,4.716147 0.532576,0.592348 1.327825,-0.234487 1.814336,-0.51938 2.22991,-1.608128 4.242358,-3.599665 6.780033,-4.719549 1.417222,-0.30377 2.027331,1.349462 2.877479,2.136866 0.877585,0.710537 1.126124,1.519137 0.437092,2.473886 -2.948353,6.734872 -4.469024,14.190873 -3.83061,21.543997 0.174287,2.119188 0.830734,4.152747 1.650688,6.103282 0.580102,-0.681174 1.195835,-1.301517 1.658438,-2.079566 0.756638,-1.209326 1.136395,-1.290867 0.977633,0.239112 0.276143,9.29586 0.761155,18.590411 1.607974,27.852441 1.306201,10.98696 2.943339,21.93486 4.700243,32.85852 0.127533,0.82955 0.324123,1.68319 0.4622,2.48734 -1.796052,0.74006 -3.838707,0.32877 -5.729599,0.32176 -3.035302,-0.26047 -6.221306,-0.11233 -9.039916,-1.40971 -1.678801,-0.7625 -2.119912,-2.73863 -3.411944,-3.88806 -0.728666,-0.36198 -1.033303,0.6742 -1.047426,1.21574 -0.321211,1.93808 0.787106,3.91044 0.204578,5.78875 -0.607278,0.8787 -1.991203,0.82931 -2.522412,1.79199 -0.811905,0.2583 0.09582,0.52649 0.285048,0.94974 1.005152,1.16814 2.768489,1.59719 3.456178,3.02797 0.305077,1.66662 -0.497507,3.27682 -0.270104,4.95634 -0.167917,1.01891 0.247481,0.003 0.65835,0.23347 0.715124,0.21522 0.792775,-0.88152 1.38094,-1.02676 1.978399,-1.63591 4.253509,-3.01629 6.79506,-3.43487 2.97994,-0.53717 6.103222,-0.5887 9.096893,-0.31841 1.402219,0.16627 1.267257,1.92251 1.416307,2.95229 0.637581,9.75307 0.570569,19.55494 0.472435,29.3302 -0.121327,11.49237 -1.389287,22.92707 -2.341431,34.37231 -0.758291,7.9011 -1.392817,15.82514 -2.405056,23.69413 0.17096,1.37316 -1.353813,0.70549 -2.201808,0.85231 -3.784319,0.12876 -7.811602,-0.17843 -10.95582,-2.49012 -1.781109,-1.2326 -2.947201,-3.1754 -4.679296,-4.43294 -0.57857,-0.62702 -0.133264,1.38434 -0.273374,1.8872 0.01366,2.22064 -0.0151,4.52837 0.711394,6.64881 0.361533,0.50381 0.437092,1.38063 -0.320069,1.50386 -1.191769,0.83091 -2.653167,1.56396 -3.330239,2.90943 -0.266407,0.81032 0.772282,1.03606 1.363798,1.00382 0.816958,0.18361 2.36044,-0.0624 2.32644,1.16352 -0.320295,1.92987 -0.860965,3.85866 -0.740552,5.83712 -0.154245,0.49019 0.08703,1.15756 0.664375,0.71582 2.635109,-1.38107 5.419898,-2.51049 8.43644,-2.62467 2.620296,-0.18116 5.253349,-0.29898 7.88425,-0.26508 -0.07965,4.69172 -0.682589,9.3605 -0.941294,14.0455 -0.389695,5.68828 -0.813319,16.70352 -0.76837,22.39226 -0.145923,0.59382 -0.165277,1.71169 0.682517,1.63533 0.646367,-0.36283 0.479271,-6.65747 0.637046,-7.28637 0.175679,-4.22242 0.235499,-8.45327 0.533848,-12.67222 0.385737,-5.60475 0.609204,-11.2475 1.380405,-16.81131 0.02389,-0.77812 0.627702,-1.58276 1.486635,-1.26634 0.76761,0.3234 0.46724,1.46182 0.615851,2.11595 -0.04518,3.29214 0.348932,6.79403 2.387569,9.50702 1.27862,2.29936 4.067285,3.50296 4.810133,6.12787 0.104614,1.48987 0.170436,3.10029 1.192125,4.30582 1.072772,1.45789 2.582399,2.87357 4.527809,2.77893 1.095216,0.17045 2.441492,-0.31432 3.319195,0.51134 0.301453,0.78193 0.07109,1.74144 0.602655,2.48247 0.397304,0.85101 1.205333,1.45943 1.551163,2.2822 1.24618,1.0523 2.589471,2.13875 4.203805,2.54881 1.876058,0.39744 3.501697,-0.94601 4.876481,-2.01557 0.617205,-0.54105 1.013593,-1.28135 1.641474,-1.81042 0.928204,0.42721 2.05762,1.13878 2.843075,1.40066 0.528285,0.45674 1.612836,0.70935 2.413994,0.90406 3.463431,0.74281 7.409483,0.0907 10.090526,-2.34895 1.029893,-0.77882 1.32013,-2.17899 2.323351,-2.94936 1.455781,-0.42731 2.962781,0.23901 4.442841,0.28168 3.1333,0.2763 6.64278,0.46524 9.3751,-1.3678 1.05271,-0.67847 1.54157,-1.87148 2.04631,-2.94013 0.6061,-0.775 1.48436,0.31093 2.19846,0.4258 3.72249,1.7553 8.30575,2.76533 12.15125,0.79721 2.16312,-1.05156 4.02146,-2.99538 4.59537,-5.36663 0.27364,-1.11616 -0.21637,-2.41548 0.43124,-3.40333 1.36671,-0.28449 2.66071,0.51795 4.00353,0.60387 2.89053,-0.16001 5.91964,-1.27489 7.57336,-3.78113 1.57324,-2.11548 1.72805,-4.85268 2.05552,-7.36942 3.42307,-0.47252 7.27821,-0.92216 9.81747,-3.53235 1.70939,-1.62624 2.5195,-4.18192 1.78461,-6.46144 -0.32118,-2.10442 -2.04005,-3.62213 -3.58333,-4.92195 -2.17434,-1.49919 -4.75616,-2.19507 -7.24899,-2.95918 -1.17768,-0.27347 -1.56877,-1.50954 -1.6384,-2.57954 -0.55776,-2.95183 -2.62354,-5.39876 -5.06878,-7.02353 -1.4707,-0.7093 -3.16333,-0.71 -4.75853,-0.87481 -1.09731,-0.1404 -2.79472,0.39074 -3.29523,-0.95832 -0.2698,-1.58747 -0.85707,-3.12926 -1.88903,-4.38995 -1.49044,-1.93551 -3.27622,-3.77029 -5.62842,-4.60373 -1.76998,-0.75571 -3.84813,-1.0356 -5.61735,-0.10999 -1.46507,0.60146 -2.88182,1.31063 -4.32852,1.95477 -0.81128,-1.37663 -1.67914,-2.80161 -3.1045,-3.63417 -1.88678,-1.25935 -4.34021,-2.14234 -6.55325,-1.2024 -1.09108,0.24587 -2.04463,1.34493 -3.21536,0.87479 -0.38911,-1.65168 -1.17887,-3.20706 -2.38786,-4.42679 -2.577749,-3.01679 -7.174064,-4.64105 -10.897446,-2.84923 -1.459294,0.76776 -2.925234,1.92494 -3.243006,3.64047 -0.279543,0.247 -0.37436,1.41811 -0.9006,0.87848 -1.704231,-1.4055 -3.218339,-3.10181 -5.278765,-4.01318 -2.887666,-1.513 -6.671582,-1.18629 -9.101886,1.04232 -1.238287,0.87441 -1.996149,2.31468 -1.889657,3.84259 -0.01075,0.91999 -0.0013,1.84011 -0.0048,2.76015 -2.384964,-0.4144 -5.052574,-0.54933 -7.159304,0.85821 -2.285118,1.39169 -3.362395,4.16486 -3.168267,6.76426 0.01189,0.69711 -0.0071,1.72468 -0.944002,1.73364 -1.560447,-0.1256 -2.951648,0.72669 -4.034249,1.76372 -0.533562,0.35123 -0.567812,0.95917 -1.076849,1.35342 -0.785182,0.87385 -1.332427,2.10587 -1.277231,3.20731 0.479877,-10.22316 1.80076,-20.39558 2.496888,-30.60897 1.064891,-14.82509 1.921719,-29.72246 1.029928,-44.58033 -0.163636,-2.75729 -0.520854,-5.49665 -0.829333,-8.23928 1.456727,0.28376 3.159709,-0.0233 4.449529,0.81151 0.300964,0.61645 0.193736,1.41192 0.671153,1.98866 0.762998,1.29843 1.939871,2.65874 3.014164,3.45854 0.521103,0.59104 1.520504,1.06759 2.39401,1.31772 0.789782,0.56786 0.393727,1.73092 0.292419,2.53099 -0.26586,1.84863 0.341704,3.70279 1.494028,5.15048 2.00648,2.76742 5.633333,3.3325 8.798795,3.65194 2.934267,0.35104 6.027782,0.22097 8.743788,-1.02447 1.317328,-0.48011 2.021849,1.08192 2.902669,1.7416 1.253586,1.12087 2.949304,2.09552 4.679284,1.55606 2.280644,-0.56619 4.021631,-2.48223 4.731462,-4.67632 0.256044,-0.40936 0.391787,-1.33549 1.050213,-0.8394 2.887785,1.08471 5.941695,1.92821 9.057845,1.65526 3.11539,-0.19214 6.28352,-1.21274 8.59992,-3.36765 0.99509,-0.28832 1.58737,0.92162 2.32397,1.40161 1.66208,1.26721 3.92941,2.34959 6.03433,1.6458 1.4269,-0.74158 2.84994,-1.89671 3.0352,-3.61285 0.18592,-0.52895 0.0253,-1.28784 0.39718,-1.68174 0.70557,-0.0443 1.31782,0.58902 2.05676,0.62476 2.57233,0.44608 5.51182,-0.28454 7.27556,-2.28051 0.79155,-0.78859 0.5093,-2.00969 0.98952,-2.89454 3.16517,0.88793 6.51645,1.03574 9.7966,0.95221 2.46502,-0.19897 4.56236,-1.78057 6.21693,-3.51207 1.61838,1.46786 3.29495,3.14711 5.56085,3.48628 1.53828,0.32758 3.32473,-0.10524 4.44583,-1.24586 1.16576,-1.16731 0.95699,-2.96028 0.64012,-4.4225 3.21709,-0.14139 6.47908,0.52313 9.6566,-0.24103 2.58686,-0.28835 5.11839,-1.63961 6.39725,-3.97342 0.34777,-0.79784 1.05098,-1.43964 1.2774,-2.27462 z m -1.70782,-0.24573 c 0.0127,1.82641 -1.71685,2.92671 -2.99242,3.92941 -2.74156,1.85355 -6.19598,1.60271 -9.35698,1.50057 -1.80507,-0.0195 -3.72481,-0.44375 -5.47269,0.1499 -0.69472,0.50937 0.32422,1.02413 0.65364,1.3687 0.87532,1.47306 0.11011,3.86262 -1.77661,4.08771 -2.32812,0.41549 -4.58817,-1.17955 -6.02925,-2.94673 -0.54143,-0.27088 -1.118,-1.81631 -1.63565,-1.23005 -0.53651,0.36972 -0.82676,1.17424 -1.36476,1.62351 -1.60454,2.18808 -4.44393,2.9128 -7.03461,2.69689 -2.68653,-0.16891 -5.43473,-0.63512 -8.02451,-1.32925 -0.53427,-0.18362 -1.16535,0.34828 -0.90675,0.93867 0.48435,1.25328 0.14512,2.75729 -1.03082,3.47582 -1.89563,1.36017 -4.39996,0.93708 -6.51612,0.51481 -0.9735,-0.37963 -1.87063,-0.925 -2.80622,-1.38591 -0.0833,2.06401 0.46493,4.69223 -1.37056,6.185 -1.48532,0.96959 -3.61253,0.59872 -4.9693,-0.49829 -1.32328,-0.95398 -2.2462,-2.32731 -3.42663,-3.41678 -1.19581,1.75667 -2.836,3.21156 -4.86562,3.90834 -3.02557,1.34948 -6.51842,1.28847 -9.59858,0.11365 -1.685678,-0.46078 -3.228078,-1.25853 -4.857448,-1.85156 -0.416597,0.0824 -1.009433,-0.60854 -0.819273,0.14544 0.247788,2.37273 -0.859014,4.97229 -3.10255,6.01558 -1.339345,0.76052 -2.837642,0.082 -3.907085,-0.81807 -1.160884,-0.97749 -2.485013,-2.21243 -2.446235,-3.85201 -0.295758,-0.62791 -0.931924,0.18239 -1.196904,0.45189 -1.371585,1.79129 -3.744043,2.21207 -5.862268,2.14485 -3.35001,-0.1326 -6.982354,-0.0508 -9.920675,-1.91668 -1.635209,-1.19552 -2.840423,-3.2799 -2.605959,-5.34522 0.243844,-1.39214 1.376863,-2.33674 2.131089,-3.45248 -1.542676,-0.3613 -3.245217,-0.27389 -4.615947,-1.22121 -2.038708,-1.03494 -3.834332,-3.25996 -3.210515,-5.65061 0.33319,-1.46254 1.586171,-2.41751 2.530387,-3.48565 -2.029875,-2.15614 -4.202011,-4.7118 -4.419369,-7.81344 -0.05004,-2.35342 1.266058,-4.49024 2.494703,-6.40872 1.87954,-2.73427 5.424985,-3.93427 8.60917,-3.76564 1.316306,0.0427 2.576774,0.63894 3.364571,1.70335 0.316537,0.36754 0.83442,0.22459 1.059718,0.72062 0.41264,0.0569 -0.06325,-1.54791 0.281351,-2.09976 0.39539,-2.77265 2.655423,-5.10861 5.41589,-5.6291 4.113733,-0.83323 8.406637,0.90299 11.217295,3.90096 0.664934,0.56542 1.175814,1.27583 1.74486,1.93148 0.543602,-0.0546 1.018099,-0.92444 1.530381,-1.4264 1.951378,-2.36407 4.638837,-4.73894 7.900973,-4.50641 3.23109,0.10712 6.12636,2.25118 7.52556,5.12639 0.48587,0.64675 1.05559,2.53556 1.38346,0.85737 0.70631,-2.37184 2.75709,-4.50133 5.34186,-4.57431 1.63985,-0.0984 3.34653,0.49851 4.56981,1.58874 0.21249,0.45446 0.57719,1.36166 1.22987,0.99213 0.91313,1.21759 0.45348,-0.4692 0.62906,-1.12052 0.16764,-1.53287 1.2718,-2.87423 2.79861,-3.21212 2.42255,-0.7105 5.487,-0.16847 6.91322,2.1174 0.9279,1.30971 0.72584,2.98143 0.35137,4.45998 -0.10955,0.87369 1.02733,0.72499 1.56039,0.59953 1.30026,-0.30678 2.86571,-0.332 3.78114,0.81709 0.85192,0.83222 1.28192,1.94437 1.31773,3.10909 0.25046,0.92283 1.49165,0.53496 2.11081,0.26354 1.56242,-0.88918 3.32344,-1.67634 5.16829,-1.31895 2.44614,0.32463 4.34573,2.02153 6.02151,3.69202 0.86259,0.75502 1.97127,1.08178 3.08826,1.16173 1.30145,0.37899 2.41712,1.55861 2.3977,2.9598 0.41195,0.91028 1.60969,0.1611 2.27162,0.0357 3.16873,-0.94948 6.51659,-2.22381 9.84664,-1.23491 2.94358,0.6067 5.72574,2.04784 7.73047,4.30633 0.49082,0.54816 1.0889,1.15222 1.1709,1.91671 z m -6.28758,0.14313 c -0.52983,-0.0669 -0.85594,0.75866 -1.46052,0.75135 -1.94543,0.6336 -4.00924,0.2637 -5.98567,0.62042 -0.49925,0.41924 0.47238,0.69886 0.7808,0.81522 1.94998,0.53237 4.2152,0.252 5.87783,-0.93254 0.29111,-0.33036 0.90942,-0.82099 0.78756,-1.25445 z m -15.46371,103.74482 c -0.52926,3.28166 -3.84307,5.3992 -6.96566,5.78544 -1.34614,0.27674 -2.80588,0.19501 -4.10013,0.63914 -0.26696,0.51353 -1.22946,0.0466 -1.00072,0.81151 0.0207,3.05276 -0.36011,6.60532 -2.89775,8.62694 -2.42615,1.76776 -5.74209,2.23839 -8.50213,0.98126 -0.93553,-0.28648 -1.90422,-0.95364 -2.89845,-0.82094 -0.4645,0.4284 0.18479,1.1271 0.1835,1.64402 1.58401,3.71777 -1.43272,8.23053 -5.29023,8.73389 -3.64619,0.62412 -7.39093,-0.27281 -10.61192,-2.0219 -0.65971,-0.25352 -1.37383,-0.69873 -2.08317,-0.64749 -1.20043,1.06789 -0.78919,3.15263 -2.29142,4.00477 -3.02188,1.92481 -6.76586,1.10096 -10.0964,0.81533 -1.24802,9.7e-4 -2.474258,-0.73847 -3.712937,-0.41911 -0.486704,0.28241 -0.332722,0.94773 -0.744871,1.321 -0.789058,1.48105 -2.088133,2.65703 -3.440493,3.64334 -1.877095,0.94704 -4.079104,0.49643 -6.109976,0.59612 -1.726057,0.0275 -3.64868,-0.18593 -4.822498,-1.58887 -0.592586,-0.47257 -1.32011,-1.20481 -2.119415,-1.06954 -0.324632,-0.021 -0.770284,0.11436 -0.717525,0.57562 -0.636868,1.62482 -1.988898,3.1304 -3.819234,3.34806 -2.807971,0.55712 -5.473192,-1.62022 -6.242538,-4.23387 -0.436213,-0.97114 -0.303818,-2.15919 -0.835679,-3.07041 -1.106628,-0.59226 -2.38991,0.25497 -3.570434,0.0195 -2.203806,-0.0172 -4.000761,-1.73813 -4.607421,-3.7738 -0.381673,-0.9954 -0.424969,-2.26758 -0.08535,-3.2092 -0.151748,-1.09452 -1.08788,-1.81831 -2.001189,-2.33683 -4.202723,-2.6154 -5.885021,-7.92137 -5.707321,-12.64281 0.109134,-2.51295 0.471781,-5.31705 2.502381,-7.03927 0.638567,-0.68357 1.259755,-1.35729 2.128995,-1.70129 0.189885,-0.22871 -0.21454,-0.46672 0.189206,-0.61985 -1.676436,-1.76238 -3.857417,-3.33442 -4.599421,-5.75006 -0.50175,-2.90872 -0.604806,-6.1429 0.718145,-8.90151 0.982733,-1.9176 3.047618,-2.82672 5.075436,-3.11205 0.52688,-0.2634 1.620598,-0.003 1.543875,-0.79503 0.172278,-1.07687 -0.223325,-2.17444 -0.08239,-3.27004 0.04826,-2.40692 1.92802,-4.91932 4.43909,-5.0399 2.271709,-0.10833 4.573505,0.13068 6.732971,0.81276 0.312543,0.0466 1.235599,0.56325 1.073223,-0.137 0.284024,-0.85439 -0.973651,-1.1852 -1.299295,-1.81901 -0.835942,-1.45943 -0.818075,-3.46408 0.03316,-4.92256 1.051872,-1.551 2.850256,-2.38439 4.69771,-2.43455 2.082942,-0.26689 4.023883,0.61319 5.623359,1.86973 1.672596,1.11924 2.954856,2.72362 4.603879,3.85882 0.494676,0.34454 1.204096,-0.0161 1.065223,-0.66594 0.20579,-2.15105 1.413869,-4.42801 3.590048,-5.04284 2.82945,-0.85673 6.108055,0.0392 8.224392,2.02104 1.400504,1.69141 2.709394,3.65632 3.052764,5.86242 -0.11127,0.51549 0.24752,1.29336 0.86741,0.94853 1.33874,-0.66093 2.34108,-2.00126 3.9394,-2.09015 2.00639,-0.54804 4.15996,0.11186 5.63687,1.54412 1.03087,1.08213 2.37401,2.26493 2.36063,3.8781 0.21289,0.67693 1.45327,0.55111 1.47375,-0.1972 1.48465,-1.43827 3.42509,-2.49291 5.48033,-2.77874 4.27123,-0.40367 8.23867,2.72767 9.69679,6.59769 0.48835,1.31005 0.85391,2.67285 1.07353,4.05297 1.71026,0.0694 3.72521,-0.61833 5.56542,-0.22638 3.85485,0.54265 6.8165,4.12188 6.97037,7.95116 0.18352,0.7115 0.1804,1.61 0.46326,2.18976 3.72192,1.02286 8.02146,1.47307 10.64359,4.64292 1.22109,1.1902 1.69751,2.96949 1.60721,4.60202 z M 155.65507,49.704278 c -2.58511,1.502435 -5.34584,2.723863 -7.79773,4.463745 -6.08555,4.080612 -11.45592,9.22892 -15.75808,15.158271 -0.56244,0.617539 -1.12954,1.235314 -1.76469,1.779719 -0.99159,-3.689205 0.0195,-7.57488 1.39076,-11.036622 0.55501,-1.509638 1.60162,-2.88719 1.84918,-4.484822 -0.3963,-0.373564 -1.04758,0.213814 -1.48272,0.330673 -4.07222,2.197266 -7.99291,4.735595 -11.51019,7.751663 -4.00849,3.449676 -7.21291,7.762494 -9.52365,12.510467 -0.35147,0.843204 -0.8383,1.206212 -0.81077,0.0048 -0.98472,-4.857042 0.0119,-9.869983 1.16807,-14.619226 0.4389,-1.894175 1.19736,-3.71373 1.72999,-5.565287 -0.24861,-0.584786 -0.97898,0.04469 -1.32017,0.234678 -3.54721,2.643002 -6.7831,5.696302 -9.86608,8.863809 -4.515985,4.815958 -8.541389,10.134999 -11.550369,16.027973 -0.346187,0.523624 -0.653369,1.29479 -1.287656,1.48351 -1.367924,-2.292061 -1.717832,-5.032366 -2.185142,-7.61084 -0.642717,-4.054614 0.656186,-8.076797 1.631643,-11.973742 0.123823,-0.400455 0.610191,-1.299033 -0.07193,-1.416628 -1.491984,0.449896 -2.581518,1.733807 -3.815013,2.634348 -4.736252,3.798478 -8.798284,8.44028 -11.765419,13.746541 -2.016989,3.491783 -3.703078,7.159482 -5.527054,10.753703 -0.959065,-2.33179 -2.011448,-4.70646 -2.484311,-7.209067 -0.40534,-3.705598 0.08215,-7.451732 0.359072,-11.157556 0.243903,-1.641714 0.427369,-3.308532 0.868337,-4.916175 -1.004335,0.527989 -2.167989,0.717837 -3.161302,1.320183 -5.568579,3.003834 -10.288651,7.402589 -14.322911,12.23544 -1.822635,2.089717 -3.077027,4.594132 -4.761608,6.775362 -0.618026,0.474801 -0.403878,-1.022534 -0.634633,-1.312918 -0.774221,-4.364874 -0.168723,-8.833054 0.511772,-13.161124 0.610441,-3.307057 1.285268,-6.737346 3.138572,-9.601236 0.355803,-0.574551 0.959789,0.351049 1.243385,-0.148657 -0.33614,-1.19064 -1.360077,-2.103043 -2.013326,-3.13781 -4.824884,-6.150472 -8.080551,-13.41716 -10.301414,-20.849623 -0.266158,-0.672983 -0.187021,-1.203361 0.607836,-0.767028 3.469364,1.048734 6.911871,2.425228 10.529248,2.789995 0.369452,0.553617 1.305002,0.238126 1.864467,0.363055 0.660835,0.119069 0.481126,-0.381326 1.24523,-0.215622 0.434691,0.129982 0.623839,-0.451893 0.106875,-0.450918 C 48.786641,38.858529 48.611924,37.096037 48.149094,35.92204 45.9055,28.207038 44.769795,20.05737 45.953742,12.062605 c 0.19257,-0.699588 0.05469,-1.774619 0.70401,-2.2084897 1.142505,0.8362987 1.595409,2.3419067 2.335391,3.5104117 2.861775,5.39878 5.883822,10.817844 10.13733,15.264864 2.57737,2.79683 5.162216,5.628862 8.136545,8.019591 0.273183,0.336438 0.921404,0.285523 0.709539,-0.266002 -0.819929,-4.205042 -2.401537,-8.246068 -2.832031,-12.517528 -0.333942,-3.630383 -0.15327,-7.310773 -0.03567,-10.956919 0.241382,-1.69308 0.410809,-3.4547648 0.765435,-5.0964178 0.764471,0.2391123 1.082508,1.2511846 1.508438,1.883119 4.221304,9.2453898 9.46601,18.2671178 16.958472,25.2573878 1.72942,1.491081 3.460363,3.060575 5.441271,4.196649 0.384763,-0.06349 0.101525,-0.560215 0.281968,-0.816433 -0.216234,-1.207205 -0.747182,-2.353396 -0.936839,-3.580306 -1.727175,-6.277202 -1.593092,-12.877516 -0.644655,-19.269072 0.239778,-1.315047 0.314672,-2.820654 0.857815,-3.965799 2.81792,4.454402 4.848757,9.365397 7.670979,13.830771 2.648753,4.430091 5.80127,8.560502 9.29107,12.349779 1.02785,1.399331 2.52819,2.353711 3.68898,3.637836 0.89004,0.750172 1.66755,1.725522 2.72821,2.230779 0.4908,-0.247683 0.0669,-1.023651 0.0448,-1.448569 -0.84398,-2.927955 -1.90451,-5.79805 -2.32706,-8.830261 -0.60266,-3.672158 -0.93535,-7.467498 -0.0933,-11.131511 2.98529,4.905368 5.9807,10.042821 10.58722,13.623752 3.12428,2.564886 6.48487,4.846582 9.9385,6.943742 0.72741,0.297956 1.49393,1.053013 2.32582,0.825029 0.53933,-0.600838 -0.15282,-1.486197 -0.3348,-2.110807 -2.15446,-4.168239 -3.70559,-9.052887 -2.54328,-13.7129 1.89286,2.071507 3.39575,4.475455 5.33844,6.513046 4.9509,5.495027 10.70258,10.341872 17.20693,13.896054 1.00677,0.448789 2.00303,0.916458 2.9803,1.428812 l -0.12587,0.09428 z m -4.02871,99.625172 c -0.55085,-1.36494 -1.44865,-2.70805 -2.92529,-3.1657 -2.12801,-0.77607 -5.04048,-0.64027 -6.47814,1.33318 -0.2393,0.58477 -0.9701,1.30902 -0.63766,1.95414 0.71105,0.11961 1.09601,-0.85683 1.55485,-1.26365 1.84708,-2.08906 5.34363,-1.69565 7.10378,0.28659 0.27225,0.15582 1.93568,2.04404 1.38246,0.85544 z m -2.71162,10.74388 c -0.58968,-0.27637 -1.30665,0.35488 -1.9689,0.20516 -1.23583,0.049 -2.10783,-0.9602 -3.19571,-1.29742 -0.51677,0.22345 -0.002,0.98309 0.21932,1.28638 1.29107,1.29832 3.76825,1.30737 4.96803,-0.089 l 0.007,-0.0564 z m -10.72728,92.8234 c -0.0146,-1.81491 -0.93084,-3.58224 -1.96276,-4.93301 0.24799,-0.54097 -0.64312,-0.84259 -0.97371,-1.12113 -1.55053,-0.98142 -3.22368,-1.95317 -5.12282,-1.97136 -0.69449,0.0488 -1.77631,0.0119 -1.69061,-0.96571 0.0278,-2.30815 -0.6707,-4.87195 -2.56603,-6.3355 -0.39965,-0.16177 -0.99351,-0.61587 -1.38346,-0.30839 0.24621,0.68512 1.168,0.94126 1.54381,1.58618 1.49515,1.71846 1.4751,4.13668 1.03751,6.25366 -0.17033,0.53656 0.12391,1.31408 0.80299,1.08686 2.98874,-0.87426 6.30656,0.68084 8.1416,3.07162 1.70605,2.40549 1.53461,5.85584 -0.34198,8.15891 -0.99424,1.35992 0.20515,0.6749 0.71776,-0.1849 1.16096,-1.13489 1.87134,-2.69977 1.7977,-4.33723 z M 133.24893,44.258928 c -1.4822,1.48263 -3.14286,2.808779 -4.53002,4.373351 -0.19981,0.770464 -0.9974,1.348808 -1.34792,2.100619 -0.63619,1.139048 -1.31838,2.349028 -1.68867,3.573262 0.67225,0.362984 1.60715,0.08334 2.36505,0.155922 0.75502,-0.106277 1.63006,0.104138 2.31669,-0.238245 -0.16078,-0.545166 -1.05862,-0.257586 -1.48881,-0.450596 -0.53878,-0.104737 -1.2052,-0.131945 -1.67493,-0.426038 0.92471,-2.516622 2.66947,-4.642776 4.37162,-6.684027 0.64275,-0.867469 1.58818,-1.558546 2.02899,-2.543705 -0.11734,0.04648 -0.23467,0.09296 -0.352,0.139457 z m -0.23467,112.919722 c -0.52853,-0.22162 -1.10595,-0.57036 -1.00626,-1.25015 -0.0727,-0.53686 -0.70887,-0.4162 -0.94116,-0.0984 -0.4581,-0.0931 -0.67641,0.49386 -0.47609,0.83977 -0.34856,1.17982 -0.63362,2.57058 -1.89397,3.13488 -2.31895,1.18474 -5.11603,-0.18642 -6.39556,-2.28029 -0.17907,-0.44629 -1.03111,-0.65548 -0.87062,0.0375 0.53336,1.46649 2.01627,2.32977 3.30074,3.08205 1.26622,0.76954 2.8922,1.04805 4.2247,0.26846 1.24618,-0.6212 2.46646,-1.72753 2.55127,-3.192 0.29748,-0.70747 1.34608,0.12652 1.54995,-0.49146 z m -9.84207,-17.44798 c -0.19231,-0.51627 -0.78369,0.1311 -0.9958,0.35323 -0.96251,1.15526 -1.00067,2.72385 -1.50571,4.05944 -0.65548,0.49783 -1.47623,-0.37149 -2.21511,-0.33808 -3.43572,-0.488 -6.94254,2.70836 -6.52238,6.18828 0.0756,1.72821 0.62846,3.47082 1.84419,4.73642 0.22297,0.73186 -0.85009,0.98607 -1.09964,1.59293 -0.25354,0.30116 -0.64522,1.23967 0.0147,1.23539 0.68034,-0.52519 1.00081,-1.6715 2.04815,-1.63409 0.79458,-0.21258 0.12884,-1.21405 -0.12102,-1.63654 -1.11366,-1.65624 -2.53337,-3.59148 -1.66788,-5.66713 0.57737,-2.09473 2.50426,-3.80489 4.7487,-3.68471 1.53648,-0.0614 2.84059,0.85181 4.06805,1.6599 0.71837,0.25623 0.52859,-0.80099 0.39437,-1.16782 -0.59854,-1.81844 0.0352,-3.69623 0.91044,-5.3022 0.045,-0.12688 0.10401,-0.25734 0.099,-0.39502 z m -1.44242,131.34322 c -0.2104,-0.63048 -0.95644,0.071 -1.23478,0.31392 -1.28556,1.59951 -4.08202,2.02503 -5.39559,0.26477 -0.81425,-1.00238 -0.33724,-2.29208 -0.0823,-3.39166 -0.18886,-0.62108 -0.92458,0.0799 -1.24635,0.24222 -1.99569,1.56342 -5.07905,1.77165 -6.93644,-0.14393 -1.18007,-1.04696 -1.38928,-2.63783 -1.88965,-4.02565 -0.48281,-0.4246 -0.50318,0.59466 -0.4724,0.8711 -0.11638,2.50487 1.77675,4.86775 4.264,5.24999 1.16446,0.13619 2.32768,0.32326 3.47092,-0.0301 0.53738,-0.02 1.48793,-0.10468 1.38407,0.69417 0.40841,1.11165 1.43884,1.86585 2.38419,2.49969 0.40536,0.13 0.76656,-0.0612 1.19669,0.0915 1.62929,-0.0555 3.30357,-0.79557 4.35799,-2.0512 0.11449,-0.17262 0.20753,-0.37347 0.19965,-0.58485 z M 113.32893,54.454829 c -1.45986,-2.180921 -3.21166,-4.177568 -4.57214,-6.436796 -0.61675,-0.844584 -1.04723,-1.904886 -1.44576,-2.800147 1.13449,-0.158501 2.34326,0.454473 3.43344,0.110552 0.15749,-0.532123 -0.76135,-0.556433 -1.10851,-0.717265 -1.06211,-0.344521 -2.24783,-0.366657 -3.28634,-0.663116 -0.41117,-0.06218 -0.78411,0.531101 -0.54429,0.930082 0.74451,1.916287 2.12745,3.521419 3.11276,5.277029 1.42125,1.484722 2.4552,3.468994 4.25295,4.537986 0.12307,0.01075 0.19949,-0.131351 0.15789,-0.238352 z m -7.58626,179.232051 c -1.39006,1.36803 -2.66714,3.14301 -2.54452,5.19225 0.004,0.3302 -0.01,1.10154 -0.54245,0.75131 -2.30685,-1.38446 -5.55511,-1.16214 -7.433284,0.84715 -0.238899,0.242 -0.704643,0.57654 -0.438017,0.95713 -0.493015,1.0138 -0.881679,2.29259 -0.452143,3.37386 0.536884,0.0442 0.432506,-0.89638 0.622267,-1.25124 0.291375,-1.91133 1.716365,-3.83792 3.806981,-3.8286 2.298026,-0.0701 4.154956,1.47163 6.035106,2.55865 -0.31919,-2.29297 -1.20888,-4.94416 0.34122,-7.0077 0.12517,-0.31716 1.52827,-2.1509 0.60484,-1.59281 z m -4.04961,-70.87122 c -0.6991,-0.92169 -1.905983,-1.43193 -2.424526,-2.53797 -1.191549,-2.05381 -0.376638,-4.52426 0.666953,-6.45324 0.224963,-0.29598 0.312973,-1.24634 -0.291188,-0.91902 -1.610901,1.41904 -2.048577,3.79135 -1.858193,5.84852 0.164898,1.09435 0.528522,2.24901 1.329257,3.02166 0.859582,0.60852 1.757827,1.41429 1.801807,2.53161 0.43853,0.31432 0.70803,-0.60668 0.57808,-0.95957 -0.26408,-0.45357 0.234,-0.11908 0.19781,-0.53199 z m -5.085348,-20.20321 c -0.108662,-0.76333 -1.444569,-1.3785 -1.882896,-0.6223 0.191134,0.6296 1.077409,0.91295 1.681393,0.90428 0.122195,-0.0351 0.210285,-0.15409 0.201503,-0.28198 z m -1.666653,104.01451 c 0.03233,-0.35019 -0.327349,-1.31647 -0.7077,-0.75071 -0.07545,0.48637 -0.30743,1.43966 0.310847,1.61998 0.358922,-0.0825 0.414231,-0.57153 0.396853,-0.86927 z M 94.302153,141.57671 c -0.731173,-0.77271 -1.958023,-0.19821 -2.760145,0.1886 -1.455512,0.33766 -2.299026,-1.23427 -3.173829,-2.13267 -0.321876,-0.48368 -0.888392,-0.34308 -1.259115,-0.75894 -1.491604,-1.01451 -3.523903,-1.27355 -5.140639,-0.39625 0.01616,-0.62207 -1.188928,0.76026 -1.628566,1.03452 -0.5236,0.52419 -1.468315,1.05343 -1.419705,1.84174 -0.299563,0.54377 -0.932209,1.46931 -0.352618,2.00268 0.698043,-0.17231 0.756187,-1.19905 1.135242,-1.70763 0.92264,-2.11907 3.477684,-3.23382 5.657928,-2.44764 2.236509,0.51523 3.799536,2.46617 4.433338,4.58938 0.213671,1.52561 1.11943,-0.16342 1.747584,-0.56563 0.734004,-0.72537 1.657772,-1.27121 2.681898,-1.4184 0.07156,-0.0477 0.111632,-0.14854 0.07857,-0.22976 z m -1.105771,131.00227 c -0.126059,-0.86482 -1.322512,-0.66113 -1.949251,-0.63644 -1.838457,0.31105 -3.997232,0.19856 -5.337836,-1.2649 -1.850214,-1.5507 -2.23966,-4.20192 -2.396437,-6.47049 -0.04588,-2.41087 -0.229066,-5.18083 1.57444,-7.06681 0.254114,-0.25262 0.70004,-1.12101 0.01189,-1.05159 -1.32213,0.45779 -1.760947,2.03076 -2.219796,3.20614 -1.018133,3.11994 -0.827108,6.6508 0.593074,9.60124 -0.207919,0.1605 0.48002,0.74448 0.634587,1.1371 0.863675,1.41035 2.327117,2.42084 3.940869,2.69011 1.584734,0.3156 3.331844,0.81442 4.909053,0.2568 0.140347,-0.0827 0.249396,-0.23306 0.239588,-0.40116 z M 91.602827,57.55838 c -0.350037,-0.438627 -1.058935,0.120625 -1.501662,0.19143 -1.761006,0.632113 -3.638335,1.716653 -5.234375,2.238827 -0.21611,-2.556471 0.864414,-5.033437 1.729076,-7.38799 0.370045,-1.093576 1.131295,-2.122434 1.259601,-3.26865 -0.448374,-0.34168 -0.796378,0.604189 -1.102931,0.838214 -1.933761,2.846843 -2.831675,6.314398 -2.976171,9.723822 0.119864,0.60527 -0.188613,1.749072 0.135508,1.955837 2.500944,-1.312192 5.193483,-2.352868 7.523858,-3.977568 0.08499,-0.07917 0.194533,-0.186152 0.167096,-0.313922 z m -0.589744,110.96801 c -0.500799,-0.80949 -1.721397,-0.25358 -2.470189,-0.64626 -0.966268,-0.23298 -1.109708,-1.30047 -1.711506,-1.90318 -1.148628,-0.53426 -2.523958,0.23816 -3.660127,-0.47118 -2.703499,-1.30788 -3.850332,-4.42098 -4.142155,-7.22449 -0.03388,-0.30142 -0.17443,-1.36792 -0.557411,-0.80653 -0.242986,1.81135 -0.03435,3.6965 0.650576,5.37591 1.080748,2.01398 2.942006,3.91551 5.363645,4.00723 1.29279,-0.065 2.258489,0.87236 3.111537,1.69921 0.920738,0.64561 2.548411,1.2165 3.380002,0.16404 0.03185,-0.0581 0.05028,-0.1293 0.03567,-0.19475 z m -1.361956,87.11021 c -0.297862,-0.48947 -1.128443,-0.22376 -1.627328,-0.3087 -0.376393,0.08 -1.303872,-0.15656 -1.284554,0.4119 0.834789,0.43978 1.970114,0.38107 2.83939,0.0485 0.03994,-0.0367 0.08309,-0.0947 0.07251,-0.15175 z m -2.725124,-20.08832 c -0.111983,-0.68215 -1.067754,0.46179 -1.014248,-0.41097 -0.166678,-1.2709 -1.329953,-2.07189 -2.151973,-2.93892 -1.134078,-0.50993 -2.252404,-1.29375 -3.552626,-1.47377 -1.520444,-0.33114 -3.168148,0.73671 -3.70989,2.14706 -0.321553,0.89754 -0.694035,1.86653 -0.61453,2.86826 0.0126,0.67692 0.07442,1.85534 -0.907138,1.81226 -2.238126,-0.0298 -4.602465,0.6424 -6.250727,2.20603 -0.331517,0.45461 -0.712772,1.14574 -0.618002,1.66113 0.644702,-0.0288 1.141804,-0.79747 1.697978,-1.12422 1.171332,-1.11872 2.665458,-2.02763 4.350631,-1.68077 0.869669,-0.061 2.0476,0.52938 2.779808,-0.14498 0.291264,-0.8501 -0.26139,-1.76719 -0.06014,-2.65265 0.166716,-1.46408 0.607254,-3.37502 2.175323,-3.89542 2.510582,-0.21518 5.157591,1.39108 6.108191,3.72586 0.395225,0.71528 -0.295259,1.45795 -0.05099,2.14644 0.592301,0.31767 0.997451,-0.64455 1.290689,-1.01915 0.197599,-0.39188 0.480174,-0.77993 0.527712,-1.22619 z m -9.498036,43.36989 c -0.683207,-1.77235 -3.081284,-2.68013 -2.969918,-4.8132 -0.02508,-0.75598 0.52606,-2.00977 -0.384893,-2.44501 -1.591808,-0.12015 -3.333103,-0.62312 -4.244142,-2.06779 -0.648434,-0.7127 -0.694512,-1.91658 -1.512669,-2.44195 -0.58971,0.22256 -0.207693,1.12786 0.0082,1.53948 0.959956,1.56676 2.285903,3.08503 4.030563,3.76827 0.973913,-0.11864 1.160815,0.99755 1.100258,1.7379 0.08655,0.63834 0.09391,1.28939 0.264766,1.90993 0.190788,-0.70394 0.372316,0.42834 0.606958,0.59528 0.707707,1.02451 1.574558,2.38586 2.946285,2.46467 0.102001,-0.0396 0.16536,-0.13824 0.154803,-0.24758 z M 71.875116,154.22866 c -0.211936,-0.76084 -1.325733,-0.17129 -1.747134,-0.77219 -1.220703,-1.02909 -2.332788,-2.47835 -2.424111,-4.13009 0.09891,-1.65172 1.304858,-2.96353 1.963147,-4.39462 -0.509205,0.0718 -1.083637,1.089 -1.589643,1.55214 -1.506369,1.54105 -1.712279,4.10469 -0.406066,5.83362 0.496781,1.23308 1.957442,1.67833 2.410596,2.91741 0.175155,1.0265 -1.027776,1.82421 -0.829333,2.83817 0.578309,0.21361 0.872569,-0.71346 1.200031,-1.05627 0.359976,-0.71748 0.931581,-1.31854 1.273236,-2.01842 -0.04541,-0.26793 0.184262,-0.49221 0.149277,-0.76975 z M 68.641322,40.300857 c -1.024684,-1.042053 -2.490255,-1.59673 -3.724571,-2.370771 -1.019691,-0.538579 -2.025178,-1.124685 -3.013927,-1.691131 -0.30881,-0.10128 -0.940744,-0.440908 -0.847758,0.17877 0.329377,4.616767 1.605181,9.180394 3.681633,13.31481 0.272755,0.298088 0.483442,1.234423 0.992742,0.984754 0.03115,-1.133482 -0.674101,-2.199799 -1.00482,-3.26791 -1.298416,-3.172345 -2.257848,-6.473292 -2.600017,-9.878567 2.097314,0.978263 4.087411,2.257693 6.297412,2.962868 0.13167,0.0202 0.265894,-0.09723 0.219306,-0.232823 z M 61.067348,154.57085 c -0.142894,1.20254 -1.244326,2.04497 -2.441921,1.99285 -4.484406,0.52979 -9.027349,0.0399 -13.508618,0.66938 -3.157115,0.18114 -6.003995,1.6939 -8.745191,3.11116 -0.535666,-1.25607 0.151107,-2.99128 -1.128512,-3.93842 -0.668039,-0.61691 -1.789123,-0.98312 -2.036474,-1.91361 0.583492,-0.99018 2.520047,-0.85442 2.591826,-2.21647 -0.207729,-1.33629 -0.99436,-2.5824 -0.865578,-3.97589 0.844406,1.13512 1.883141,2.21061 3.324723,2.52555 4.086044,1.02891 8.356089,0.82248 12.535098,0.98936 2.906544,0.15225 5.877484,-0.11471 8.725337,0.5433 0.881496,0.31899 1.455453,1.3257 1.54931,2.21279 z m -1.791357,80.24271 c -1.08e-4,-9.9e-4 0.0035,-0.003 0,0 z M 59.247696,70.53347 c -1.143551,3.069657 -2.962654,5.870103 -3.991417,9.004334 -0.674208,1.642878 -0.843954,3.482535 -1.737755,5.031688 -1.147617,-1.596383 -1.812861,-3.554775 -2.13722,-5.483438 0.08571,-1.437847 1.456689,-2.313292 2.254066,-3.391223 1.772397,-1.823145 3.472596,-3.805218 5.619697,-5.195146 z m -4.843312,184.94525 c -0.93146,1.19372 -1.577078,2.57604 -2.151975,3.95622 -0.859063,0.67175 -2.114206,0.37971 -3.137952,0.5824 -4.565269,0.0939 -9.342415,-0.31269 -13.637197,1.57002 -0.757827,0.22227 -1.581583,0.57883 -2.368346,0.5586 -0.16536,-1.84995 1.228919,-3.72415 0.417134,-5.53135 -0.569143,-0.98741 -1.903435,-0.72328 -2.782269,-1.07445 -0.104017,-0.75722 0.968504,-1.08558 1.528563,-1.33585 0.670225,-0.34161 1.507701,-0.33905 2.153069,-0.64472 0.184832,-1.1925 -0.727298,-2.27064 -1.124936,-3.34278 -0.487699,-1.13351 -0.975611,-2.46878 -0.722947,-3.6949 0.70483,-0.48924 1.487812,0.42387 2.024193,0.81889 3.080034,3.10257 7.7036,3.70387 11.869234,3.88243 2.393464,0.11114 4.929999,-0.17148 7.198083,0.66908 0.788662,0.47614 1.377457,1.20732 2.069033,1.80428 -0.444558,0.59404 -0.889129,1.18808 -1.333687,1.78213 z M 50.504052,152.92261 c -0.550052,-0.50683 -1.505526,-0.12646 -2.194973,-0.17815 -1.383485,0.19604 -2.907484,0.17614 -4.155886,0.84533 -0.179234,0.54101 0.745511,0.42493 1.054797,0.45672 0.750777,0.0281 1.490463,-0.2 2.198657,0.063 0.548471,0.0288 0.839664,-0.54016 1.424284,-0.44666 0.520177,-0.2004 1.467877,-0.0971 1.68357,-0.71317 z m -0.289957,2.46282 c -1.738005,-0.30766 -3.571657,-0.12025 -5.343981,-0.12593 -0.262057,-0.0485 -1.281262,0.0664 -0.750088,0.43431 1.997063,0.24906 4.060473,0.25943 6.049227,-0.0351 0.07465,-0.0457 0.24665,-0.23452 0.04481,-0.27336 z m -1.240318,97.74352 c -0.453083,-0.47188 -1.325069,-0.12158 -1.915455,-0.35632 -0.712772,-0.045 -1.51601,0.11893 -2.077022,0.55966 -0.380553,0.9804 -1.807713,0.59362 -2.636665,0.85759 -0.306624,0.49073 0.715696,0.39525 1.014224,0.48663 1.092124,0.1165 2.488447,0.34364 3.283567,-0.60275 0.664221,-0.54454 1.661589,-0.40348 2.320912,-0.85514 0.0095,-0.0296 0.0315,-0.0576 0.01075,-0.0895 z m -1.550546,4.14421 c -1.097035,-0.3196 -2.357135,-0.13356 -3.509627,-0.15358 -1.230322,0.10833 -2.624517,0.10391 -3.685923,0.79308 -0.03031,0.57144 0.923164,0.25128 1.271644,0.31207 1.969044,-0.18452 3.974406,-0.29403 5.901795,-0.72182 0.03293,-0.0778 0.169211,-0.1613 0.02211,-0.22975 z M 41.628985,55.453101 c -2.64343,1.081045 -4.608539,3.304013 -7.018016,4.783113 0.02437,-1.540963 1.098616,-3.023592 0.771593,-4.563806 -0.582195,-0.574885 -1.780564,0.185141 -2.214636,-0.602037 0.147575,-1.594994 1.481369,-2.810919 1.807335,-4.354306 -0.53524,-1.033756 -2.009345,-1.297297 -2.395237,-2.435786 1.048438,-0.647232 2.31082,-0.883314 3.515154,-1.137725 -0.924969,-2.258015 -2.260236,-4.3957 -2.816054,-6.772284 0.251203,-0.220437 0.850375,0.696034 1.171513,0.922711 2.721807,3.628172 4.618919,7.800689 6.460762,11.9238 0.267785,0.724434 0.654415,1.469458 0.717586,2.23632 z M 23.987509,103.03171 c -0.330518,-2.66805 -2.773353,-4.47874 -5.165403,-5.279648 -0.645772,-0.140158 -0.817063,-0.920881 -0.216619,-1.290557 0.610857,-0.857781 1.221107,-1.715987 1.831834,-2.573982 -1.524153,-0.298539 -3.181842,-0.384596 -4.61969,-0.874172 -0.168284,-1.479741 0.940316,-2.733243 1.216983,-4.154663 0.203377,-0.369961 0.329447,-1.014318 -0.227914,-1.091044 -0.331445,-0.354125 -0.816304,0.163769 -1.241556,0.01533 -1.76204,0.170531 -3.502376,0.624683 -5.183651,1.096571 0.463461,0.148218 0.819111,0.09035 1.151886,0.431257 1.333484,0.431968 2.711488,-0.274456 4.042844,-0.05957 -0.446828,1.529063 -1.554645,2.964022 -1.495883,4.606793 0.368879,0.998722 1.726746,0.675954 2.548814,0.759918 0.398196,0.04719 1.108626,-0.03768 1.330002,0.293035 -0.349576,0.889046 -1.147166,1.527708 -1.475604,2.401988 -0.169473,0.391529 -0.07716,0.792385 0.379009,0.940734 1.981502,1.102776 4.559823,1.726556 5.538869,4.01058 0.422852,0.57687 0.642623,1.14973 -0.228019,1.05983 -2.035213,0.0932 -4.08778,-0.39057 -6.100228,-0.37719 -0.312483,-0.38773 -0.605852,0.20924 -0.971214,-0.0246 0.375966,0.48659 0.02686,1.1623 0.527061,1.63102 0.209226,0.51114 1.029629,1.5266 0.09653,1.7889 -1.509722,0.43935 -3.096322,0.71488 -4.668229,0.70893 0.484787,0.20529 0.208941,0.78969 0.716908,1.01425 0.510929,0.47151 1.515357,0.84377 1.476199,1.64883 -0.935289,0.82463 -2.682174,-0.15718 -3.4205398,1.0118 -0.3725411,1.22631 1.0435888,2.18571 0.8717248,3.36586 -0.7141749,0.86521 -2.0156577,1.36296 -2.2017256,2.61763 -0.173349,0.50709 0.4085381,0.8891 0.7906367,0.50559 1.0944799,-0.87076 2.2426789,-1.83844 2.8578169,-3.11953 0.348622,-0.8339 -0.69846,-1.5638 -0.398078,-2.32643 1.084138,-0.53589 2.446842,-0.41531 3.504088,-0.98046 0.45836,-0.93961 -0.642871,-1.67147 -1.136479,-2.3418 -0.497079,-0.55664 0.748685,-0.40775 1.024686,-0.46504 1.0222,-0.13658 2.231075,0.27201 3.136716,-0.33726 0.484217,-0.90058 -0.610323,-1.73642 -0.732362,-2.59889 -0.412603,-0.49348 0.176927,-0.68211 0.605198,-0.59682 1.7745,-0.0271 3.5514,0.62407 5.3145,0.34096 0.704296,-0.26359 0.466514,-1.21663 0.52095,-1.7582 z m -6.792541,120.8119 c -0.448242,-2.2203 -1.785544,-4.15387 -3.286026,-5.79981 0.01426,-0.40204 0.979653,-0.0868 1.406782,-0.20395 0.940045,0.0511 1.7194,-0.93765 1.25077,-1.80611 -0.711381,-1.95064 -2.833742,-2.83565 -3.781157,-4.5982 0.08131,-0.31424 0.703641,-0.31197 0.902466,-0.60633 0.797591,-0.4965 1.299711,-1.31682 2.062256,-1.84482 -1.546716,-1.36024 -3.219432,-2.58124 -4.867896,-3.79712 -0.120555,-0.81822 0.90595,-1.33483 1.344563,-1.92485 1.243482,-1.20913 2.499565,-2.40517 3.748799,-3.60834 -2.920037,0.7709 -5.943985,0.79189 -8.9353138,0.98106 -0.4278552,-0.0711 -0.9209162,0.43967 -0.4097386,0.72676 1.4560001,0.84898 3.2469766,0.67602 4.8648184,0.71015 -0.828417,1.035 -2.0576451,1.93992 -2.3860465,3.27127 0.048387,0.93332 1.0518845,1.19139 1.7359355,1.53665 0.979297,0.66424 2.366634,1.08821 2.855509,2.23649 -0.346958,0.50665 -1.248249,0.61634 -1.790132,0.98501 -0.861025,0.33892 -1.592128,0.93102 -2.294665,1.47426 -0.8755997,0.24875 0.083456,0.29101 0.3128654,0.67072 1.9566096,0.72543 3.9052666,1.75619 5.1670436,3.48751 0.158334,0.4612 -0.68404,0.54286 -1.003169,0.70954 -0.988321,0.25438 -2.002319,0.54388 -3.029834,0.47978 -0.782553,0.22629 -0.0963,0.66407 0.742397,1.21185 1.155499,0.86014 2.24671,1.8412 2.979155,3.10989 0.288685,0.5261 0.597079,1.06703 0.79065,1.62858 -2.958662,-0.97712 -6.1749433,-0.95611 -9.2664505,-1.26734 1.0092077,1.40288 2.1969693,2.72267 3.0986514,4.17554 -0.2166201,0.85116 -1.4111831,0.83774 -2.0776156,1.21266 -0.6957481,0.13891 -1.5633244,0.86671 -1.024091,1.60645 0.482967,0.80522 1.8307404,1.27975 1.4571656,2.40753 -0.6128667,1.54177 -2.7510276,2.2097 -2.8836366,3.97098 0.9180273,1.67374 3.1936722,1.52634 4.6184787,2.46712 0.539233,0.16472 0.752929,0.66447 0.3630662,1.13159 -1.0133323,1.89334 -3.0845289,3.32211 -3.1365263,5.65207 -0.034241,0.93509 -0.013319,1.87625 0.1091342,2.80345 0.9476879,-2.25179 1.5991183,-4.61664 3.2166039,-6.48786 0.596224,-0.6019 1.191044,-1.39544 1.559733,-2.0549 0.489162,-0.10989 -0.10806,-0.59662 -0.03496,-0.93254 -0.681839,-1.5528 -2.6764542,-1.66147 -4.047028,-2.27052 -0.3462939,-0.22242 -1.5431868,-0.39066 -0.8822941,-0.96941 0.7802603,-1.24847 2.4749322,-1.97082 2.7030366,-3.52377 0.031739,-1.04633 -1.1479263,-1.5882 -1.3717752,-2.48984 1.0593144,-0.79665 2.5329327,-0.90893 3.7553377,-1.43935 0.255766,-0.48849 -1.030606,-1.45296 -1.354347,-2.12025 -0.364173,-0.61312 -1.1103736,-1.18566 -1.1735934,-1.89679 2.1600584,0.0957 4.2456044,1.00302 6.3900184,1.36179 0.46516,0.0871 1.472012,0.63979 1.621978,-0.13193 -0.02913,-0.0563 0.0812,-0.25015 -0.02092,-0.23467 z M 10.023967,67.661519 C 9.7060374,65.328885 8.3930132,63.261113 7.1827227,61.289156 6.3192364,59.687779 4.341205,58.644644 4.3150636,56.66024 4.4277604,55.898538 4.563175,55.152671 4.3390772,54.387865 4.3265948,53.45587 3.4618725,52.72365 3.5767092,51.812624 4.0368998,51.353801 5.089355,51.058518 4.848329,50.212935 4.4329555,49.027883 3.626876,48.012269 3.0557478,46.913415 4.8957258,46.364433 7.0070673,46.986522 8.749886,46.018343 9.8312885,45.02617 9.1051545,43.44486 8.5207477,42.38771 7.729076,40.769391 6.4403019,39.370847 5.8933071,37.667876 6.6013117,37.451469 7.4982387,37.635183 8.1515579,37.11068 8.4720314,36.925051 8.717967,36.859432 8.8457258,36.477926 9.4764005,35.451386 8.3327297,34.441026 7.7585114,33.691152 6.9470818,32.760939 6.1008329,31.86148 5.2857542,30.934288 6.2577166,29.980501 7.354811,29.154855 8.3069685,28.189502 8.5520484,27.825685 8.3347843,27.605369 7.8462423,27.255117 6.8471286,26.21185 5.3044301,25.893767 4.1504763,25.135097 5.5550498,23.002225 7.6033266,21.291861 8.8045822,19.021364 8.7427598,18.337307 7.7216816,18.563331 7.2472735,18.45067 c -1.7700653,-0.0024 -6.36398463,-0.02686 -7.92224433,0.919009 -0.52325567,0.558384 0.4826111,0.857981 0.9153527,0.807839 1.25319363,0.0693 5.18260573,-0.262271 6.38395603,-0.341563 -1.3207875,1.963101 -3.1418281,3.647383 -4.2025691,5.764182 0.0932,0.389292 0.1882797,0.95425 0.7451661,0.97616 1.1531336,0.06134 2.4185715,0.468868 3.17175,1.338607 -0.084283,0.846701 -1.1418161,1.226637 -1.6819645,1.817308 -0.4347505,0.335868 -0.7577791,0.790339 -1.1875249,1.125292 1.0875601,1.506786 2.7178241,2.668145 3.7369109,4.268915 C 7.6861136,35.61576 7.435494,36.411044 6.7404712,36.4595 5.71657,36.827631 4.3337513,36.259451 3.5300017,37.151836 c -0.340361,1.004179 0.7742558,1.790644 1.3453839,2.454223 1.3282657,1.403883 2.6311266,3.082187 2.9241741,5.042352 -0.013552,0.72082 -1.0477725,0.459394 -1.5112073,0.616409 -1.9521165,0.21146 -3.9754407,-0.0024 -5.89814626,0.468477 -0.13895704,-0.01664 -0.12565455,0.227508 -0.35938164,0.439862 -0.18934967,0.667324 0.53181497,1.139023 1.1205251,1.132186 0.8975448,0.575312 1.7469079,1.426471 2.1464586,2.408146 0.1335483,0.71219 -0.4639947,1.107389 -1.094134,1.147558 -0.4928347,0.03924 -1.2009463,0.482445 -0.7334923,1.017922 0.9899608,1.15986 2.3500974,2.715767 1.5106131,4.335272 -0.5845614,0.950363 -0.1320742,2.098005 0.6329329,2.799197 2.0779612,2.198492 4.0437,4.702502 4.84682,7.66946 0.149977,0.682386 -0.9570197,0.411891 -1.3803583,0.508324 -1.7338906,-0.01213 -3.4589724,-0.288304 -5.1953239,-0.402047 0.8813891,1.171584 2.3212814,2.064303 2.6747549,3.545256 0.1094876,0.961309 -1.0037032,0.833801 -1.6119809,0.988439 -0.7522989,0.484298 -0.2243461,0.61741 -0.4776654,1.301473 0.2043521,0.952573 -3.9891426,2.498312 -4.0257215,3.41099 -0.089159,0.758515 0.98517003,0.932197 1.23047593,0.245115 C 0.34672503,75.248834 3.8185557,73.964483 4.1117576,72.845776 4.2666681,72.32044 4.6567204,72.063603 5.185599,72.085252 5.7601274,71.978377 6.0337138,71.312849 6.2281283,70.938918 6.5736365,70.704274 6.059915,70.295488 6.1218507,69.936344 6.1018818,69.446671 5.4553345,69.091296 5.5265665,68.673913 c 1.3513283,-0.48229 2.9296304,0.605864 4.2326698,-0.107462 0.2419067,-0.226464 0.2666567,-0.609596 0.2647787,-0.904892 z"
       id="path1510" />
    <rect
       y="-2.2293336e-05"
       x="2.4159749e-06"
       height="297"
       width="210"
       id="rect1519"
       style="opacity:1;fill:none;fill-opacity:1;fill-rule:evenodd;stroke:#000000;stroke-width:1.05833333;stroke-miterlimit:4;stroke-dasharray:none;stroke-opacity:1" />
  </g>
</svg>
