<?xml version="1.0" encoding="UTF-8" standalone="no"?>
<svg
   xmlns:dc="http://purl.org/dc/elements/1.1/"
   xmlns:cc="http://creativecommons.org/ns#"
   xmlns:rdf="http://www.w3.org/1999/02/22-rdf-syntax-ns#"
   xmlns:svg="http://www.w3.org/2000/svg"
   xmlns="http://www.w3.org/2000/svg"
   id="svg8"
   version="1.1"
   viewBox="0 0 210 297"
   height="1122.5197"
   width="793.70081">
  <title
     id="title852">A is for Airplane</title>
  <defs
     id="defs2" />
  <metadata
     id="metadata5">
    <rdf:RDF>
      <cc:Work
         rdf:about="">
        <dc:format>image/svg+xml</dc:format>
        <dc:type
           rdf:resource="http://purl.org/dc/dcmitype/StillImage" />
        <dc:title>A is for Airplane</dc:title>
        <dc:date>2020-04-10</dc:date>
        <dc:creator>
          <cc:Agent>
            <dc:title>Lena London</dc:title>
          </cc:Agent>
        </dc:creator>
        <dc:source>http://www.supercoloring.com/coloring-pages/cartoon-airplane</dc:source>
        <dc:subject>
          <rdf:Bag>
            <rdf:li>csk</rdf:li>
            <rdf:li>sizing-cover</rdf:li>
            <rdf:li>letters</rdf:li>
            <rdf:li>a</rdf:li>
          </rdf:Bag>
        </dc:subject>
        <cc:license
           rdf:resource="http://creativecommons.org/licenses/by-sa/4.0/" />
      </cc:Work>
      <cc:License
         rdf:about="http://creativecommons.org/licenses/by-sa/4.0/">
        <cc:permits
           rdf:resource="http://creativecommons.org/ns#Reproduction" />
        <cc:permits
           rdf:resource="http://creativecommons.org/ns#Distribution" />
        <cc:requires
           rdf:resource="http://creativecommons.org/ns#Notice" />
        <cc:requires
           rdf:resource="http://creativecommons.org/ns#Attribution" />
        <cc:permits
           rdf:resource="http://creativecommons.org/ns#DerivativeWorks" />
        <cc:requires
           rdf:resource="http://creativecommons.org/ns#ShareAlike" />
      </cc:License>
    </rdf:RDF>
  </metadata>
  <g
     id="layer1"
     transform="translate(0,9.704834e-6)">
    <path
       id="path842"
       d="m 158.94254,52.258875 c -0.0504,0 -0.15943,0.132325 -0.30936,0.365401 -0.36292,0.121145 -0.62606,0.444415 -0.62606,0.825807 0,0.09392 -0.0381,0.261606 -0.0925,0.461618 -0.40959,0.782634 -0.88815,1.753837 -1.3873,2.848906 l -2.05112,4.501734 -3.61014,-3.439632 c -1.17583,-1.120803 -2.22688,-2.022203 -2.96219,-2.576074 l -0.80998,-0.783177 -0.008,0.237511 c -0.069,-0.02631 -0.11624,-0.03118 -0.13763,-0.0098 -0.17035,0.170341 -0.33897,2.545167 -0.37514,5.276383 l -0.0609,4.572239 c -0.0414,0.09162 -0.084,0.17959 -0.13885,0.225332 l -0.68938,-0.258215 -0.87939,-0.454317 c -0.93627,-0.484144 -2.0238,-0.880615 -2.41774,-0.880615 -0.13927,0 -0.41503,-0.07185 -0.73325,-0.170521 -0.56622,-0.211793 -0.9008,-0.333355 -1.34589,-0.499381 -0.25895,-0.109354 -0.52158,-0.224158 -0.78073,-0.34713 -0.71841,-0.340905 -1.27356,-0.555173 -1.68329,-0.641888 -0.36652,-0.23004 -0.59874,-0.259132 -0.67842,-0.0755 -0.37475,-0.05082 -0.37584,0.114846 -0.2509,0.442138 -6.3e-4,0.121517 0.0236,0.255744 0.0925,0.409242 0.0783,0.414107 0.29553,0.983979 0.65165,1.73444 0.55938,1.178817 1.01703,2.465942 1.01703,2.859864 0,0.393943 0.39047,1.474483 0.86844,2.400679 l 0.76977,1.489615 c -0.0321,0.07747 -0.0959,0.142696 -0.1961,0.198535 l -4.66617,0.08648 c -1.89263,0.0348 -3.55158,0.122634 -4.47006,0.22046 h -1.33614 l 1.4007,1.4007 c 0.5649,0.709626 1.37534,1.649229 2.30081,2.651592 l 3.37872,3.660093 -4.19479,1.912261 c -1.19411,0.544286 -2.10703,1.001914 -2.78801,1.398266 -0.37994,0.120333 -0.69219,0.202189 -0.84163,0.202189 -0.89591,0 -1.04714,0.28851 -0.57491,0.766125 l -0.17417,0.07307 0.19611,0.09379 c -0.20689,0.434562 0.19006,0.749856 1.14005,1.015815 0.7652,0.214226 2.72158,1.073389 4.34704,1.90861 l 2.95609,1.517629 -3.45425,3.62234 c -1.23115,1.291556 -2.22257,2.422805 -2.77217,3.126612 -0.35825,0.394908 -0.61997,0.696884 -0.61997,0.74176 0,0.07341 0.8326,0.135443 2.04746,0.177829 0.93296,0.05689 2.11057,0.108293 3.4031,0.140075 l 4.8854,0.120572 c 0.009,0.0021 0.0161,0.0052 0.0231,0.0073 l -0.37028,1.030434 -0.36174,0.700345 c -0.49301,0.953389 -0.89645,2.056697 -0.89645,2.450617 0,0.393917 -0.45765,1.679837 -1.01703,2.858657 -0.55938,1.17881 -0.89495,2.26587 -0.74542,2.41529 0.0125,0.0125 0.0597,0.012 0.0999,0.0134 0.0184,0.0631 0.0427,0.11769 0.0804,0.15956 0.001,0.001 1.8e-4,0.007 0.001,0.008 0.003,0.003 0.0125,0.003 0.0171,0.006 0.22097,0.21433 0.70287,0.10772 1.28255,-0.42142 0.0346,-0.0316 0.13206,-0.0812 0.19244,-0.12058 0.88264,-0.26588 2.02511,-0.65235 3.26058,-1.11325 l 4.52733,-1.68816 c 0.0542,0.0456 0.0967,0.13358 0.13763,0.22411 l 0.061,4.63206 c 0.0358,2.69884 0.19166,5.03332 0.3459,5.18747 0.15424,0.15424 2.01065,-1.38055 4.12536,-3.41163 1.78998,-1.71918 3.29199,-2.94587 3.71491,-3.06326 l 0.23508,0.49572 c 0.21966,0.7105 0.76946,2.0411 1.41287,3.3897 0.56889,1.19234 1.12391,2.44433 1.49085,3.33611 0.0665,0.23294 0.10957,0.42065 0.10957,0.52374 0,0.27754 0.14031,0.52425 0.35567,0.68573 0.41606,0.88232 1.30129,0.58465 1.475,-0.44822 0.023,-0.076 0.04,-0.15476 0.04,-0.23751 0,-0.31371 0.35452,-1.32759 0.85747,-2.54684 0.21376,-0.46734 0.44547,-0.94884 0.70158,-1.42993 0.72455,-1.36108 1.33274,-2.74088 1.50545,-3.3824 l 0.16199,-0.34225 c 0.39825,0.058 1.92112,1.27547 3.73562,3.0182 2.11472,2.03106 3.97122,3.56699 4.12537,3.41284 0.15423,-0.15427 0.31008,-2.48863 0.34591,-5.18747 l 0.0608,-4.63206 c 0.0414,-0.0913 0.0841,-0.17969 0.13887,-0.22532 l 4.5273,1.68937 c 1.22592,0.45733 2.35849,0.83796 3.24111,1.10107 0.069,0.044 0.17267,0.098 0.21071,0.13276 0.57882,0.52832 1.06111,0.63569 1.28256,0.42265 0.004,-0.003 0.0142,-0.003 0.0183,-0.007 0.001,-10e-4 1.7e-4,-0.008 0.001,-0.009 0.0398,-0.0449 0.0673,-0.1028 0.0852,-0.17173 0.0468,-0.001 0.0966,-0.001 0.11087,-0.0159 0.2608,-0.26077 -0.28075,-1.76045 -2.71614,-7.522379 l -0.0231,-0.0548 -0.66868,-1.863534 c 0.006,-0.0021 0.0124,-0.0042 0.0194,-0.0062 l 4.91099,-0.120581 c 1.29066,-0.0318 2.46676,-0.08314 3.397,-0.140065 1.20649,-0.04236 2.03284,-0.104748 2.03284,-0.177829 0,-0.04497 -0.26315,-0.349425 -0.62361,-0.746643 -0.55045,-0.704267 -1.54092,-1.831406 -2.76974,-3.120517 l -3.45303,-3.623555 2.95488,-1.517629 c 1.62544,-0.835222 3.58184,-1.69436 4.34705,-1.90861 1.13625,-0.318106 1.60486,-0.631798 1.29595,-1.098638 l 0.0328,-0.0146 -0.0572,-0.02438 c -0.0206,-0.02769 -0.0459,-0.05644 -0.0718,-0.08525 0.18885,-0.202184 0.25803,-0.367948 0.20097,-0.489634 -0.0321,-0.107547 -0.17697,-0.177456 -0.43482,-0.210715 -0.0217,-0.0031 -0.0411,-0.0073 -0.0647,-0.0098 -0.0608,-0.0056 -0.13414,-0.0074 -0.20584,-0.0098 -0.0378,-0.0012 -0.0675,-0.0061 -0.10842,-0.0061 -0.11854,0 -0.32921,-0.04534 -0.59804,-0.123015 -0.66467,-0.370903 -1.56846,-0.811219 -2.74416,-1.347112 l -4.48225,-2.042587 3.37874,-3.660094 c 0.92646,-1.003449 1.73947,-1.944149 2.30447,-2.654025 0.002,-0.0019 0.004,-0.005 0.006,-0.0073 l 1.39216,-1.390958 h -1.33735 c -0.91868,-0.09779 -2.578,-0.18565 -4.47008,-0.220461 l -4.66495,-0.08648 c -0.0996,-0.05551 -0.16379,-0.120426 -0.19609,-0.197313 l 0.76855,-1.490837 c 0.47795,-0.926194 0.86966,-2.006735 0.86966,-2.40068 0,-0.39392 0.45766,-1.681046 1.01704,-2.859862 0.28528,-0.601093 0.49527,-1.187591 0.60778,-1.650395 0.1132,-0.216602 0.15045,-0.405101 0.13276,-0.561498 0.10831,-0.374158 0.0396,-0.511348 -0.29598,-0.431177 -0.0775,-0.07391 -0.22517,-0.04845 -0.41533,0.04023 -0.83486,0.134096 -2.68332,0.858783 -6.98889,2.67473 l -0.1096,0.04627 -1.66988,0.599257 c -0.0448,-0.04415 -0.0807,-0.122284 -0.11576,-0.199756 l -0.0609,-4.594296 c -0.0361,-2.71998 -0.20473,-5.08527 -0.37514,-5.255679 -0.0213,-0.0214 -0.0673,-0.01654 -0.13641,0.0098 l -0.008,-0.23751 -0.80754,0.780737 c -0.7353,0.553491 -1.78817,1.455957 -2.96584,2.57851 l -3.60892,3.439634 -2.05233,-4.501733 c -0.49941,-1.095657 -0.97759,-2.067314 -1.38731,-2.850121 -0.0541,-0.199384 -0.0914,-0.366688 -0.0914,-0.460404 0,-0.382047 -0.2646,-0.705162 -0.62849,-0.825806 -0.14981,-0.23284 -0.2566,-0.365402 -0.30693,-0.365402 z m 0,3.837923 c 0.0469,-0.0019 0.10563,0.02108 0.17174,0.05843 l 0.95491,1.568782 c 0.64291,1.057174 1.41639,2.575768 1.71983,3.373866 0.33482,0.880729 0.42844,1.226799 -0.35443,1.362946 -0.024,0.0043 -0.0633,0.005 -0.089,0.0085 -0.50126,0.06532 -1.25469,0.07916 -2.40312,0.07916 -0.82091,0 -1.44728,-0.005 -1.922,-0.03168 -1.35758,-0.08055 -1.32483,-0.366055 -0.93786,-1.371469 0.29704,-0.771718 1.05232,-2.289073 1.6784,-3.372642 l 0.87088,-1.507888 c 0.12576,-0.100763 0.2347,-0.164953 0.31058,-0.168083 z m -10.36884,2.086436 c 0.66609,0 5.06809,3.777819 5.06809,4.349482 0,0.284463 -0.77171,0.797375 -1.71493,1.13883 -0.94322,0.341456 -2.17646,0.808407 -2.7405,1.037735 -0.56405,0.229411 -1.12697,0.112362 -1.2509,-0.25943 -0.35577,-1.067407 0.17376,-6.266617 0.63824,-6.266617 z m 20.67557,0 c 0.26436,0 0.58097,1.266645 0.70401,2.814799 0.18532,2.330056 -0.0326,4.108187 -0.44335,4.432306 -0.1177,-0.0308 -0.27917,-0.09318 -0.42752,-0.146158 -0.0267,-0.03473 -0.0529,-0.06521 -0.0804,-0.109623 -0.24505,-0.396513 -1.59949,-1.066265 -3.00846,-1.488398 l -1.55174,-0.465274 c -0.14968,-0.106672 -0.24627,-0.194549 -0.24117,-0.246042 0.0179,-0.180481 0.0268,-0.491335 0.0329,-0.766119 l 1.86718,-1.657714 c 1.46747,-1.302279 2.88419,-2.367797 3.14854,-2.367797 z m 8.8573,5.853715 c 0.0977,0.06429 0.17716,0.146256 0.23875,0.247251 l -0.74178,2.806275 c -0.45367,1.71979 -1.04913,3.303853 -1.32397,3.518807 -0.27481,0.215028 -1.52656,-0.672496 -2.78191,-1.971944 -1.42046,-1.470371 -1.98651,-2.240818 -1.41166,-2.817239 l 0.70034,-0.356871 c 0.18556,-0.09485 0.41732,-0.196316 0.6492,-0.295975 0.63237,-0.201565 1.43475,-0.40323 2.49689,-0.641889 z m -19.16403,0.110835 c 4.24214,-0.03411 5.51711,0.220212 8.5187,1.694241 16.32133,8.015089 13.96324,31.724019 -3.61014,36.301325 -1.23846,0.32256 -2.23855,0.53864 -3.15097,0.67355 -1.23857,0.11146 -2.47805,0.12373 -3.67593,0.0353 -0.69749,-0.0954 -1.44245,-0.24478 -2.30081,-0.44701 -8.93058,-2.10404 -14.96218,-9.711725 -15.04355,-18.975253 -0.0335,-3.804093 0.25369,-5.039664 1.99997,-8.586915 1.30337,-2.647496 2.89706,-4.789058 4.79648,-6.443226 0.0283,-0.02445 0.0531,-0.0512 0.0816,-0.0755 0.3184,-0.273575 0.64481,-0.533168 0.98049,-0.779521 3.05642,-2.243113 6.83395,-3.360283 11.40414,-3.397011 z m -18.98133,0.03779 c 0.56738,-0.04721 1.84075,0.261657 4.17044,0.965876 1.11471,0.336952 2.02675,0.816637 2.02675,1.065748 0,0.2253 -0.77003,1.151189 -1.75148,2.136374 -0.0588,0.05763 -0.11425,0.116256 -0.17296,0.175391 -0.0462,0.0454 -0.0859,0.08855 -0.13276,0.133985 -1.13103,1.096249 -2.24243,1.992649 -2.47011,1.992649 -0.0849,0 -0.21233,-0.204897 -0.35078,-0.488417 l -0.33739,-0.833115 c -6.2e-4,-0.0019 -10e-4,-0.005 -0.002,-0.0073 -0.13792,-0.395336 -0.2763,-0.830658 -0.40194,-1.321532 -0.37314,-1.457696 -0.78338,-2.969331 -0.91229,-3.359247 -0.0913,-0.276138 -0.006,-0.432074 0.33496,-0.460405 z m 38.81406,8.06073 c 1.78885,-0.02831 4.91575,0.291455 5.34215,0.651632 0.12708,0.10736 -0.66817,1.330816 -1.76732,2.718581 -0.1802,0.227526 -0.35836,0.431817 -0.53715,0.641888 -0.42035,0.46941 -0.80023,0.889846 -1.0962,1.196071 -0.42766,0.416534 -0.76944,0.68452 -0.91228,0.68452 -0.93766,0 -2.97032,-5.245758 -2.22284,-5.736787 0.14915,-0.09798 0.59736,-0.146462 1.19364,-0.155905 z m -40.5765,0.01341 c 1.04544,-0.02563 1.88817,0.03042 1.99508,0.203405 0.17962,0.290637 -0.15808,1.683928 -0.75149,3.096157 -0.59345,1.412205 -1.26608,2.568926 -1.4945,2.573641 -0.52083,0.0079 -4.4962,-4.969059 -4.1814,-5.234975 0.38651,-0.326544 2.68992,-0.595473 4.43231,-0.638228 z m -76.019115,1.1437 c -2.76324,0.01372 -5.497774,0.874841 -7.716041,2.71005 -0.630121,0.489747 -1.180755,1.061853 -1.639426,1.712515 -0.662138,0.853345 -1.219183,1.779778 -1.449422,2.477411 l -0.691829,2.096181 c -0.005,3.49e-4 -0.0098,-2.62e-4 -0.01459,0 l -2.844034,-1.256974 c -4.150525,-1.835971 -10.294071,-1.422158 -13.854767,0.934202 -3.128331,2.070246 -4.557964,4.024 -4.862259,6.93165 -0.005,0.02607 -0.0067,0.05419 -0.01097,0.08038 -0.0012,0.01527 -0.0037,0.02974 -0.005,0.04508 -0.07136,0.450757 -0.09151,0.934453 -0.06942,1.490831 -0.02046,0.574745 0.01765,1.160008 0.120583,1.753927 l 0.163212,2.545619 -3.071798,0.658942 c -3.903266,0.837096 -6.369745,2.596069 -7.931624,5.657622 -0.201528,0.39502 -0.375648,0.8426 -0.528615,1.32032 -0.01266,0.0324 -0.02918,0.0638 -0.04141,0.0963 -0.539828,1.42879 -0.730644,2.97011 -0.637012,4.50659 -0.01785,1.63981 0.178104,3.24026 0.635796,4.45424 0.764653,2.02819 2.436982,3.90648 4.445707,5.14971 0.721793,0.49468 1.494691,0.86648 2.303241,1.0816 0.239492,0.0784 0.480377,0.14902 0.722272,0.20705 2.331116,0.55924 3.063978,1.04272 3.358033,2.21432 0.793303,3.16078 5.31839,7.08738 9.707466,8.42249 6.29112,1.91364 14.663798,-1.40766 17.48441,-6.93651 1.065605,-2.08877 1.556609,-2.46078 3.267894,-2.47255 4.111574,-0.0281 10.592548,-4.46951 11.438253,-7.83908 0.225256,-0.89746 1.165982,-1.58062 2.886665,-2.09615 3.420046,-1.02468 6.08635,-3.74762 6.08635,-6.21669 0,-1.7298 0.189529,-1.91958 1.931752,-1.91958 6.776544,0 10.995561,-6.884025 8.154514,-13.306668 -2.125299,-4.804581 -7.447202,-6.798333 -11.942499,-4.473722 -1.779304,0.920117 -1.800518,0.90974 -2.517609,-1.263066 -1.818654,-5.51057 -7.397759,-8.793145 -12.877928,-8.765955 z m 0.137631,1.289865 c 2.25465,0.02543 4.664971,0.65933 6.981589,1.984123 4.241852,2.42575 5.968024,6.905239 4.2289,10.971757 -0.203773,0.476473 -0.239524,0.781578 -0.170522,0.941518 l -0.222892,0.461618 0.288665,-0.372711 c 0.266509,0.205358 1.025145,-0.345078 1.627248,-1.470125 0.936752,-1.750324 4.072246,-3.419946 6.457843,-3.454251 0.07592,3.99e-4 0.142864,0.0019 0.21559,0.0024 3.922243,0.08295 6.61945,3.589974 6.994974,7.315317 0.02647,0.365227 0.03509,0.731621 0.02682,1.096205 -0.04267,0.599613 -0.1186,1.212811 -0.222883,1.789239 -0.340118,1.36025 -1.044241,2.634126 -2.180233,3.649134 -1.614913,1.44292 -2.508484,1.734428 -5.303172,1.734428 h -3.360465 l 0.0012,0.0052 -0.03286,-0.0052 0.05967,0.208282 0.0743,0.555417 c 0.0085,0.13129 0.03175,0.28899 0.06334,0.47137 l 0.170522,1.27403 c 0.389435,2.90347 -0.758374,4.61546 -4.020626,5.99621 -2.574238,1.08956 -2.468841,1.1148 -2.926856,-0.71008 -0.610178,-2.43119 -1.300827,-1.83158 -1.315439,1.14125 -0.02482,5.02692 -4.550551,9.14185 -10.607576,9.64414 -1.080048,0.0895 -1.835311,0.18963 -2.382409,0.34104 -0.0088,-0.0129 -0.01372,-0.0296 -0.02439,-0.0402 -0.08082,-0.0809 -0.210856,-0.008 -0.359308,0.16809 -0.579944,0.2373 -0.842656,0.58219 -1.010945,1.13762 -0.755562,2.49378 -3.549608,5.52828 -6.114363,6.64054 -3.695359,1.60257 -7.121447,1.92064 -10.564945,0.97928 -4.181499,-1.14313 -6.059079,-2.68717 -8.074133,-6.63568 -0.401266,-0.78628 -0.727599,-1.39054 -1.030426,-1.86963 -0.282425,-0.82013 -0.758412,-1.28584 -1.50545,-1.48841 -0.434168,-0.21192 -0.942241,-0.34692 -1.635777,-0.46892 -5.069611,-0.8917 -7.724528,-4.17083 -7.752578,-9.57469 -0.03013,-5.80771 3.302112,-9.465647 9.173988,-10.07167 0.524362,-0.05417 1.012534,-0.126229 1.4616,-0.205847 1.256807,-0.01412 1.860344,-0.08094 1.941494,-0.468929 0.0012,-0.0062 0.0024,-0.01213 0.0037,-0.0183 0.005,-0.02761 0.0099,-0.05564 0.01095,-0.08649 0.07706,-0.05459 0.131541,-0.109089 0.131541,-0.15956 0,-0.314631 -0.311578,-1.806527 -0.691821,-3.316619 -0.09154,-0.363502 -0.160514,-0.679941 -0.219239,-0.976837 -1.75e-4,-0.0043 -0.0012,-0.0081 -0.0012,-0.01216 -0.0084,-0.282622 -0.01,-0.568282 -0.01341,-0.853817 0.01035,-0.694297 0.06409,-1.374158 0.166866,-2.014576 0.167703,-0.478076 0.40315,-1.011481 0.728366,-1.683279 2.515008,-5.195318 10.113889,-7.468675 16.011844,-4.790398 1.415386,0.642724 2.764668,1.478732 2.998717,1.857448 0.817356,1.322505 1.492863,0.669409 1.919573,-1.856232 0.833147,-4.931361 5.044436,-7.817022 10.004658,-7.761103 z m 117.668674,5.364076 2.1863,0.908627 c 3.71915,1.547449 4.27154,2.396827 2.37145,3.641829 -0.88016,0.576701 -2.29928,1.315431 -3.15463,1.640647 -1.54103,0.585776 -1.55538,0.559222 -1.55538,-2.831854 v -3.31905 c 0.0508,-0.0172 0.10019,-0.02825 0.15226,-0.04023 z M 137.457,80.198648 c 0.0704,0.005 0.13033,0.02619 0.18514,0.05599 0.0671,0.116996 0.12538,0.285379 0.17661,0.483546 l 0.11693,1.137614 c 0.10796,1.044302 0.10796,2.611195 0,3.482264 l -0.11937,0.963437 c -0.0457,0.200312 -0.0911,0.395398 -0.14495,0.476244 -0.0275,0.03886 -0.0561,0.06136 -0.0852,0.06212 l -2.57485,-1.3666 c -1.50045,-0.796377 -2.74004,-1.723995 -2.75513,-2.062075 -0.015,-0.338087 1.21293,-1.253126 2.72833,-2.034063 l 2.28741,-1.179028 c 0.0632,-0.0079 0.13183,-0.02339 0.18514,-0.01946 z m 42.289,8.367662 c 0.12573,0.01279 0.26509,0.07367 0.41535,0.15225 l 1.68693,1.89887 c 1.28451,1.447469 2.18148,2.880297 1.99386,3.183853 -0.18758,0.303535 -1.84288,0.551758 -3.67958,0.551758 h -3.09494 c -0.0298,-0.144081 -0.0196,-0.366316 0.0317,-0.655282 l 1.06819,-2.528578 0.97198,-2.299587 c 0.20098,-0.222724 0.39205,-0.325078 0.60656,-0.303284 z m -41.937,0.255783 c 0.28338,-0.01996 0.53561,0.140489 0.79659,0.461621 0.19934,0.307765 0.40293,0.71694 0.56757,1.171718 0.34147,0.94324 0.82005,2.206047 1.06333,2.806277 0.38651,0.953683 0.0457,1.091332 -2.70518,1.091332 -1.7314,0 -3.29195,-0.232138 -3.46766,-0.516431 -0.33029,-0.534428 2.6443,-4.422062 3.73804,-5.013301 0.002,-1.86e-4 0.004,-0.0012 0.007,-0.0012 z m 38.25133,7.30314 c 0.19209,0.02039 0.33906,0.188005 0.49817,0.451883 l 0.22045,0.431165 c 0.33833,0.735432 0.80569,2.207531 1.09621,3.500539 0.2316,1.03039 0.40727,1.90189 0.46893,2.29838 -0.0804,0.0629 -0.18807,0.10426 -0.3313,0.12301 -0.29023,-0.097 -1.05804,-0.34304 -2.25695,-0.71862 -4.5776,-1.43404 -4.68878,-1.66318 -2.05356,-4.25814 1.35417,-1.333467 1.95788,-1.870729 2.35805,-1.828217 z m -34.49256,0.203399 c 0.36754,0.03347 1.37122,0.762759 2.41772,1.777066 1.20549,1.168428 1.93774,2.344742 1.64187,2.640642 -0.29356,0.29353 -1.80655,0.91685 -3.36169,1.38487 l -2.23625,0.67355 c -0.13885,0.002 -0.27524,0.003 -0.37758,-0.0122 -0.054,-0.048 -0.0894,-0.11674 -0.10843,-0.2095 l 0.72105,-2.731977 c 0.33517,-1.270523 0.71197,-2.451197 0.9671,-3.066936 l 0.12181,-0.242376 c 0.0324,-0.06024 0.0739,-0.160375 0.0975,-0.183927 0.0246,-0.02479 0.0644,-0.03399 0.11693,-0.02928 z m 27.69855,5.411588 c 0.94745,-0.0401 0.94059,1.05819 0.68209,4.25327 -0.075,0.92594 -0.21272,1.7048 -0.35931,2.18997 -0.10539,0.29157 -0.20718,0.46701 -0.29598,0.49572 -0.0956,-0.009 -0.22618,-0.0621 -0.38124,-0.14493 -0.38134,-0.22968 -1.00319,-0.69515 -1.71859,-1.28621 -1.47239,-1.2839 -3.06481,-2.99976 -2.8014,-3.2667 0.25324,-0.25662 1.56987,-0.96423 2.92564,-1.57121 0.89113,-0.39898 1.51813,-0.65167 1.94879,-0.66991 z m -20.71697,0.0488 c 0.42304,0.0469 1.12333,0.33155 2.31419,0.87938 1.52771,0.70281 2.77825,1.48109 2.77825,1.72956 0,0.24847 -1.09312,1.31733 -2.42869,2.37511 -1.26176,0.99936 -2.40169,1.80192 -2.6735,1.89034 -0.11779,-0.0778 -0.2523,-0.44578 -0.38855,-0.98902 -0.25616,-1.53488 -0.43653,-4.37175 -0.24968,-5.33363 0.0792,-0.40725 0.22492,-0.59858 0.64798,-0.55174 z m 58.30449,0.21437 c -0.64039,-0.0232 -1.29349,0.0161 -1.9086,0.13154 -2.64553,0.49627 -6.40304,3.94415 -6.40304,5.87563 0,0.11227 -0.006,0.21098 -0.0159,0.30572 -0.31802,0.48663 -0.71058,0.77747 -1.3386,0.98049 -3.8e-4,1.1e-4 -6.1e-4,-1.3e-4 -0.001,0 -0.003,2.1e-4 -0.006,-2.2e-4 -0.008,0 -0.0569,0.007 -0.11886,0.009 -0.17906,0.0122 -0.15207,0.007 -0.31174,0.0105 -0.4933,0.0105 -5.07286,0 -9.66306,5.31228 -8.89017,10.28969 0.21302,1.37196 0.80322,3.12966 1.31056,3.9049 0.14987,0.229 0.26532,0.43863 0.35687,0.63945 0.12721,0.5333 0.13995,1.06558 0.0353,1.72957 -0.0344,0.0792 -0.0681,0.15788 -0.11204,0.23994 -1.60254,2.99441 0.0969,8.40542 3.15342,10.0412 2.85947,1.53036 5.02204,1.80628 7.49314,0.95491 1.33671,-0.46057 2.43111,-0.61753 2.43111,-0.34834 0,0.26918 0.91206,1.07292 2.02677,1.78682 2.08013,1.33212 6.70388,1.81184 6.70388,0.69546 0,-0.34297 -1.01001,-0.62362 -2.24478,-0.62362 -1.73425,0 -2.74257,-0.49658 -4.42865,-2.18266 -0.86351,-0.86352 -1.45852,-1.42238 -1.92932,-1.74539 -0.10504,-0.12378 -0.20707,-0.19444 -0.32032,-0.19975 -0.67566,-0.33654 -1.07374,-0.0297 -1.73323,0.76491 -0.62272,0.75043 -1.53779,0.92181 -3.64304,0.68451 -4.89176,-0.55136 -7.85031,-5.6948 -5.64544,-9.81465 0.47912,-0.8952 0.32584,-1.76438 -0.6236,-3.53585 -1.22296,-2.28174 -1.51887,-4.60506 -0.87331,-6.63325 0.0313,-0.0976 0.0651,-0.19392 0.0999,-0.28988 0.0907,-0.24664 0.19336,-0.48943 0.31303,-0.72592 1.18257,-2.33709 4.63752,-4.38482 7.40058,-4.38482 0.41982,0 0.75006,-0.0105 1.03773,-0.0317 0.0406,0.0192 0.0859,0.0317 0.13763,0.0317 0.0825,0 0.16082,-0.0249 0.23264,-0.0718 4.7e-4,-3.1e-4 6.3e-4,-6.4e-4 0.001,-0.001 0.84056,-0.13078 0.9939,-0.488 0.9939,-1.43724 0,-3.82883 5.25573,-6.87164 9.38471,-5.43229 0.5784,0.20165 0.987,0.31653 1.26551,0.35201 0.34327,0.0846 0.57488,0.0367 0.57488,-0.18027 0,-0.29494 -0.20089,-0.53776 -0.52983,-0.73567 -0.68366,-0.59346 -2.11695,-1.00228 -3.63085,-1.05722 z m -47.92834,2.32758 h 3.10103 c 0.0841,0.0663 0.15208,0.1421 0.19853,0.23021 l -0.52739,1.48475 c -0.33546,0.94321 -1.11418,2.373 -1.72957,3.17655 l -0.99632,1.30082 c -0.0898,0.009 -0.17857,-0.014 -0.26918,-0.0658 l -0.91471,-1.39463 c -0.58408,-0.89139 -1.32762,-2.3212 -1.65284,-3.17655 -0.58525,-1.5387 -0.55713,-1.55539 2.79045,-1.55539 z m -78.498965,23.248 c -4.816079,0.0754 -9.31593,2.83825 -11.584415,7.28487 -1.665001,3.26368 -2.62809,9.40529 -2.181438,13.912 0.550766,5.55721 3.768915,15.37475 6.534574,19.93503 1.268456,2.09157 2.255523,3.82135 2.260611,3.9585 -0.09742,0.0721 -0.217648,0.15732 -0.376358,0.2643 -0.365615,0.22743 -2.720522,1.59264 -5.93776,3.43843 -5.857396,3.36053 -13.028301,8.21068 -17.597684,11.90231 l -2.007265,1.62116 -5.273947,-2.26549 c -8.390374,-3.60374 -14.482822,-4.90558 -21.520861,-4.60037 -0.115731,0.004 -0.212641,0.0152 -0.326426,0.0207 -0.248598,0.0118 -0.493055,0.0311 -0.738106,0.0488 -6.14626,0.38223 -9.432322,1.65355 -13.2226248,5.07786 -8.55707468,7.73081 -5.343622,17.80944 14.4247878,45.2378 3.909741,5.42468 4.781643,7.07627 5.104646,9.66605 0.57664,4.62342 3.674538,10.52078 7.50776,14.29323 9.667711,9.51448 26.414979,12.01972 46.124491,6.89877 4.882161,-1.2685 6.234624,-1.42881 6.650287,-0.78805 0.287026,0.44243 0.346973,3.06403 0.132764,5.8257 -0.333263,4.2967 -0.208064,5.37653 0.867223,7.48341 1.498819,2.93677 2.868547,4.25629 5.773318,5.5626 6.433248,2.8931 14.503478,-1.57413 15.854718,-8.77691 1.39942,-7.45957 -6.28885,-14.5986 -13.860846,-12.87061 -1.032333,0.23558 -1.769463,0.34625 -2.235035,0.35566 -0.15123,-0.0105 -0.290232,-0.0219 -0.409251,-0.0366 -0.697187,-0.18838 0.67401,-1.11346 3.915882,-2.41651 2.19348,-0.88166 3.73819,-1.50702 4.27274,-1.7259 0.34575,-0.0774 0.61547,-0.10018 0.81118,-0.0511 0.3452,0.33184 0.93667,1.13204 1.53591,2.10349 4.30471,6.97856 14.55219,7.04761 19.10922,0.1291 2.21991,-3.37028 2.56549,-6.79508 1.03529,-10.25434 l -0.87087,-1.96707 c -0.14614,-0.39794 -0.25642,-0.73004 -0.31059,-0.94639 l 1.89522,-1.20095 1.59192,-1.01094 c 0.27462,0.0684 0.61852,0.25126 1.07306,0.56272 l 1.83553,1.61993 0.90742,0.87453 c 13.12968,12.64226 25.31956,19.23689 33.50112,18.37233 0.0212,-0.002 0.0422,-0.004 0.0633,-0.007 1.36131,-0.15067 2.61477,-0.50123 3.73804,-1.07428 3.0613,-1.56175 6.0621,-5.41164 7.04736,-9.04122 1.02927,-3.79168 0.6637,-9.45372 -0.80022,-15.54049 -0.23271,-1.02418 -0.51709,-2.06872 -0.84896,-3.14486 -1.07882,-3.64639 -2.514,-7.35259 -4.26421,-10.82805 l -1.10839,-2.1997 -0.71009,-1.53834 c -0.0185,-0.074 -0.0423,-0.15851 -0.0464,-0.20097 -0.0164,-0.17439 0.26159,-0.5837 0.72347,-1.12544 l 4.30808,-3.53462 c 6.49585,-5.33019 15.82886,-14.96669 20.37351,-21.03611 14.55256,-19.43501 13.23855,-34.44804 -3.72951,-42.60935 -7.32456,-3.52297 -16.27533,-5.42477 -26.32953,-5.71974 -1.80191,-0.062 -3.62948,-0.0652 -5.47736,-0.006 -11.04865,0.29601 -23.23355,2.39593 -35.94565,6.30072 -3.64736,1.12037 -3.14149,1.4598 -15.12758,-10.16422 C 95.204067,132.6358 89.269293,128.70529 82.504286,127.71468 81.80896,127.61292 81.114388,127.5687 80.426377,127.57947 Z m 0.361748,2.2326 c 1.663528,0.0273 3.434311,0.33926 5.258116,0.93664 1.506666,0.5951 3.143822,1.33929 4.634494,2.0913 0.0011,5.7e-4 0.0023,6.3e-4 0.0034,0.001 5.5589,3.19487 5.576748,3.04594 -1.161977,6.56868 -3.320924,1.73603 -9.300515,5.17902 -13.288399,7.65149 l -6.952354,4.31051 c -0.133858,-0.0388 -0.253362,-0.151 -0.359308,-0.33131 l -0.295975,-2.49812 c -0.01553,-0.13137 -0.02551,-0.27143 -0.03772,-0.40802 -0.0056,-0.45829 -0.01253,-0.88889 -0.01584,-1.39704 -0.0043,-0.6555 -0.005,-1.20262 -0.0061,-1.76612 0.194943,-3.41626 1.014993,-7.26612 2.144899,-9.48092 1.945884,-3.81425 5.632998,-5.7511 10.076529,-5.67831 z m 15.799905,7.85245 c 1.311859,0.0821 5.412012,3.57284 14.432102,12.25066 l 1.92931,1.85623 c 1.84429,1.92409 3.11824,3.39845 3.19603,3.82696 l -3.5663,1.17173 c -6.99244,2.29687 -19.341222,7.34175 -27.469579,11.22264 -4.250844,2.02958 -7.933693,3.68934 -8.184974,3.68934 -1.291085,0 -7.471221,-14.46991 -7.471221,-17.49293 0,-0.74016 4.032406,-3.41281 12.985116,-8.60519 7.141926,-4.14216 13.407865,-7.69321 13.924185,-7.89142 0.0633,-0.0242 0.13788,-0.0335 0.225331,-0.0281 z m -12.771955,8.55402 c -0.05223,0.007 -0.110754,0.0194 -0.175398,0.0401 -0.02296,0.007 -0.04862,0.0308 -0.0731,0.0451 -4.77e-4,-5.3e-4 -6.29e-4,-0.003 -0.0011,-0.003 -0.0204,-0.0204 -0.05479,0.006 -0.09619,0.0598 -0.116863,0.0167 -0.288756,0.28007 -0.485987,0.67477 -0.853146,1.4818 -1.985589,4.80669 -2.518825,7.65392 -0.222581,1.18848 -0.122085,2.02676 0.243598,2.02676 0.342988,0 0.810919,-0.91206 1.038957,-2.02676 0.402712,-1.96864 0.426155,-1.98205 0.831892,-0.46773 l 0.0012,0.004 c -0.01084,0.12539 -0.03168,0.27311 -0.03168,0.37515 0,0.0884 0.06355,0.12837 0.16565,0.12301 l 0.282573,1.05601 0.633361,-1.55905 c 0.348163,-0.85745 0.839394,-2.78624 1.091329,-4.28736 0.09805,-0.58383 0.159986,-1.03539 0.191231,-1.38851 0.0011,-0.0105 0.0023,-0.0202 0.0023,-0.0305 0.07659,-0.91308 -0.0837,-1.09651 -0.533493,-0.8185 -0.575416,0.35565 -0.68167,0.1905 -0.380012,-0.59562 0.242643,-0.63229 0.179654,-0.92856 -0.186357,-0.88181 z m 77.706027,3.09374 c 0.0915,6.1e-4 0.18596,0.006 0.27772,0.007 6.34693,0.39168 14.59316,1.42787 18.41254,2.57363 2.35973,0.70799 1.91583,0.77687 -5.61256,0.86479 -5.7606,0.0673 -9.58617,0.4521 -12.95589,1.30448 l -4.31051,1.09132 c -0.32695,-0.14579 -0.75989,-0.48474 -1.24966,-0.98292 l -1.09376,-1.55296 c -1.02927,-1.46019 -1.70635,-2.81982 -1.50546,-3.02064 0.0323,-0.0323 0.083,-0.0617 0.13765,-0.0901 l 5.2106,-0.16444 c 0.87937,-0.0278 1.77771,-0.0373 2.68933,-0.0304 z m -12.01557,0.77586 c 1.08222,-0.0314 1.61762,0.12039 2.00971,0.44091 l 0.9817,1.13396 c 3.12291,4.20346 9.87433,17.33907 9.87433,19.58911 0,0.46978 0.71467,1.17927 1.58829,1.57732 3.53272,1.60962 9.95014,0.42823 15.88883,-2.04625 1.37739,-0.50839 2.70248,-1.07295 3.89881,-1.68328 0.98452,-0.50225 2.02849,-1.20127 3.05354,-1.99508 3.39354,-2.26233 5.9047,-4.83775 6.43469,-7.25076 l 0.17661,-0.80145 0.22656,-0.52496 c 0.11086,-0.18426 0.21839,-0.3363 0.31423,-0.43117 l 2.23381,2.14003 c 3.18247,3.04968 4.8638,6.7209 5.07786,10.93643 0.008,0.34478 0.0213,0.67746 0.0183,1.04627 -2.2e-4,0.0363 4.2e-4,0.072 0,0.10843 -0.003,0.28188 -0.0177,0.56363 -0.0305,0.84529 -0.50419,9.14826 -7.39553,20.62734 -20.47947,33.79223 -6.34452,6.38376 -12.94088,12.1118 -13.94733,12.1118 -0.23205,0 -1.37513,-1.61359 -2.54075,-3.5858 -3.21654,-5.44231 -10.18923,-14.54386 -13.43091,-17.53191 -1.08593,-1.00099 -1.82738,-1.6756 -2.64548,-2.01944 l -0.76857,-0.64067 -1.24965,0.4202 c -1.59433,0.1926 -3.91919,1.04991 -8.13992,2.61506 -8.18135,3.03383 -15.29388,6.38346 -21.4624,10.10941 -4.68215,2.82818 -10.52434,7.4941 -11.44921,9.05828 -0.0853,0.10516 -0.14008,0.18666 -0.14008,0.22654 0,0.009 0.0181,0.0396 0.0207,0.0523 -0.003,0.0212 -0.0207,0.0507 -0.0207,0.0693 0,0.0556 0.0278,0.14171 0.0816,0.25457 l -0.0426,0.0439 0.21074,0.25335 c 1.27197,2.13805 7.50289,9.50685 14.05695,16.55873 6.82002,7.33806 6.91568,7.4822 5.62229,8.4578 -2.98519,2.25174 -20.39845,10.74481 -27.687597,13.74027 -1.656498,0.60466 -2.821275,0.92507 -3.265466,0.85748 -0.163542,-0.50689 -0.636634,-3.23586 -1.125429,-6.54433 -0.636308,-4.30678 -1.092612,-6.15239 -1.831886,-7.13262 -0.269538,-0.45319 -0.575743,-0.71799 -0.940284,-0.84406 -0.712786,-0.465 -1.239506,-0.45958 -2.023103,-0.04 -1.162049,0.6219 -1.211561,1.07559 -0.797798,7.31897 0.242596,3.66051 0.474596,7.3402 0.516437,8.17643 0.08814,1.76083 -1.529388,2.37755 -11.460176,4.37141 -17.213006,3.45589 -30.370344,1.18951 -39.414521,-6.78914 -2.741824,-2.41883 -6.546878,-8.80973 -7.227623,-11.8889 0.01216,-0.74204 0.269913,-1.50444 0.81972,-2.41286 1.642201,-2.12928 5.461253,-6.2416 11.379781,-12.24214 12.971624,-13.15144 20.342573,-21.75197 22.350338,-26.07873 l 1.035297,-1.75636 -0.468927,-0.48111 c -0.01466,-0.10841 -0.03655,-0.21122 -0.07186,-0.30328 -0.440479,-1.14788 -4.203325,-4.23972 -9.523555,-7.82567 l -3.718557,-2.50542 c -0.05001,-0.0562 -0.08532,-0.10333 -0.08648,-0.1291 -0.0031,-0.0719 0.07395,-0.19439 0.190009,-0.34105 l 1.432368,-1.20338 c 4.491574,-3.77271 17.046599,-11.60481 25.528091,-15.92536 22.768611,-11.59852 45.785111,-19.55837 65.613731,-22.69017 2.61674,-0.41328 4.26413,-0.62976 5.35556,-0.66136 z m 25.44771,4.4798 c 2.0985,-0.003 4.14833,0.0529 6.04615,0.162 4.34051,0.3999 8.2376,1.22682 10.19588,2.30324 0.23384,0.17238 0.42343,0.35105 0.56881,0.53835 0.13324,0.30768 0.14434,0.6773 0.10959,1.18147 -0.002,0.0376 -0.0132,0.0777 -0.0172,0.11577 -0.30851,1.37743 -1.39851,3.27344 -2.82941,4.59186 -1.42418,1.31224 -1.85822,1.39129 -4.74168,0.86721 -0.0359,-0.007 -0.0678,-0.009 -0.10354,-0.0159 -0.40062,-0.09 -0.81726,-0.16859 -1.23141,-0.2095 -0.3384,-0.0334 -0.61324,-0.056 -0.85868,-0.0693 -0.70455,-0.057 -1.21192,-0.0499 -1.30812,0.0464 -0.0689,0.0689 -0.1298,0.29536 -0.18271,0.57856 -0.0876,0.0609 -0.14495,0.12845 -0.14495,0.20705 0,0.0732 0.0292,0.13428 0.0827,0.18148 -0.0502,0.41179 -0.0827,0.90349 -0.0827,1.41776 0,1.2727 -0.68217,2.44127 -1.41653,2.91954 -0.42468,0.0752 -0.90736,0.007 -1.40679,-0.22532 -0.002,-0.003 -0.004,-0.004 -0.006,-0.007 -0.22562,-0.36505 -1.09312,-0.92371 -1.92809,-1.24115 -1.4221,-0.54068 -1.45955,-0.66763 -0.58099,-2.00849 1.19502,-1.82378 0.62775,-5.8744 -0.94029,-6.71361 -0.61504,-0.32915 -1.20827,-1.23113 -1.31788,-2.00362 -0.1253,-0.88229 -0.66227,-1.43695 -1.44577,-1.49326 -0.68598,-0.0492 -2.36975,-0.15819 -3.7417,-0.24117 -1.88339,-0.11401 -1.34868,-0.28477 2.18265,-0.69791 0.35213,-0.0413 0.71756,-0.0727 1.08282,-0.10469 1.32804,-0.0467 2.67527,-0.0767 4.01574,-0.0792 z m -10.744,0.93301 c 0.64136,6e-4 0.45169,0.216 -0.2302,0.74174 -0.65889,0.50796 -1.67917,0.79824 -2.26791,0.64433 -0.73076,-0.1911 -1.24167,0.23419 -1.61022,1.33981 -0.53868,1.61607 -0.54216,1.61635 -1.36901,0.29231 -1.09258,-1.74949 -0.39769,-2.33191 3.35193,-2.80749 1.05626,-0.13397 1.7406,-0.21109 2.12541,-0.2107 z m 3.69176,1.22285 c 0.78336,-0.002 1.5555,0.11744 2.21432,0.37027 0.74543,0.28605 1.0401,1.18368 0.92447,2.14979 -0.15177,0.90246 -0.59348,1.78691 -1.18512,2.29349 -0.83633,0.71608 -1.22017,1.3145 -1.18998,1.89886 -0.10396,0.65459 0.0972,1.29195 0.61875,1.8136 0.37202,0.37203 0.58249,1.32647 0.4677,2.12176 -0.17583,1.21812 -0.62553,1.4741 -2.85499,1.62115 l -1.99631,0.13277 c -0.009,-0.004 -0.0194,-0.0105 -0.0293,-0.0159 -0.0935,-0.0502 -0.18703,-0.10071 -0.27649,-0.16199 -0.014,-0.009 -0.0275,-0.0209 -0.0414,-0.0304 -0.30445,-0.21576 -0.58774,-0.5033 -0.86236,-0.85626 l -1.30812,-2.59313 c -0.37884,-0.75044 -0.68119,-1.42887 -0.90863,-2.017 -0.20129,-0.67116 -0.34488,-1.32184 -0.4324,-1.92688 0.0196,-0.0632 0.0499,-0.11133 0.0926,-0.13764 0.3402,-0.21027 0.44596,-1.06949 0.23507,-1.90982 -0.0572,-0.22801 -0.0827,-0.38975 -0.10842,-0.55176 0.13381,-0.33229 0.28502,-0.57148 0.43847,-0.68695 4.7e-4,1.2e-4 6.5e-4,-1.2e-4 0.001,0 0.077,0.0196 0.16371,0.048 0.26066,0.0852 0.53673,0.20595 1.61273,-0.0712 2.39094,-0.61632 0.90559,-0.6343 2.24366,-0.97867 3.54925,-0.98292 z m 16.48931,0.83555 c -2.70051,-0.0692 -6.60581,0.86128 -6.13995,1.61507 0.17986,0.29098 1.41815,0.25197 2.75147,-0.0865 1.79446,-0.45545 3.21297,-0.38587 5.46029,0.2704 1.66983,0.48761 3.17619,0.77234 3.34708,0.63093 0.62236,-0.51438 -2.04484,-1.94636 -4.35193,-2.33613 -0.32037,-0.054 -0.68118,-0.084 -1.06696,-0.0936 z m -18.12143,1.02679 c -0.17304,0 -0.38071,0.0965 -0.58464,0.23872 -0.31555,0.0934 -0.66601,0.20902 -1.09012,0.37027 -1.68458,0.64048 -2.20967,2.78254 -0.81971,3.34342 1.38026,0.55695 1.71495,0.43487 1.71495,-0.62849 0,-0.57323 0.46401,-1.55541 1.03164,-2.18266 0.71874,-0.79422 0.72727,-1.16256 0.0401,-1.10109 -0.0642,-0.0275 -0.16144,-0.04 -0.29231,-0.04 z m 14.67204,1.24723 0.30694,0.25578 c -0.23436,0.21915 6.2e-4,0.61216 0.61145,1.30568 0.67444,0.76605 1.44036,1.01497 2.20213,0.76858 0.4943,0.21937 0.72864,0.14792 0.54446,-0.26188 0.18269,-0.11851 0.36389,-0.2567 0.54199,-0.43483 0.16304,-0.16301 0.28016,-0.30878 0.37149,-0.44579 0.2823,-0.0997 0.39145,-0.31475 0.23752,-0.56393 -0.0272,-0.0439 -0.0713,-0.0865 -0.12789,-0.12789 -3e-4,-4.4e-4 -6.2e-4,-6.2e-4 -0.001,-0.001 -0.23676,-0.33848 -1.04885,-0.49451 -2.4701,-0.49451 h -0.001 z m -8.27874,0.79048 c 0.0904,-0.006 0.18717,-0.004 0.29109,0.003 0.98449,0.0741 1.18029,0.46856 1.07672,2.33247 -0.32066,0.0321 -0.32321,0.2247 -0.0427,0.61874 -0.14659,1.75998 -0.45704,2.22575 -1.51153,2.37876 -0.91737,0.13305 -1.37393,-0.12604 -1.37393,-0.77952 0,-0.53833 -0.28062,-0.97928 -0.6236,-0.97928 -0.34299,0 -0.62362,-0.28062 -0.62362,-0.62361 0,-0.0858 0.0268,-0.16663 0.0742,-0.24117 0.0951,-0.14876 0.27489,-0.26927 0.49817,-0.33251 0.1118,-0.0317 0.23435,-0.0499 0.36295,-0.0499 0.51449,0 0.90168,-0.21047 0.86115,-0.46771 -0.006,-0.0367 -0.004,-0.18423 -0.008,-0.25091 0.0521,-0.15019 0.0827,-0.31513 0.0827,-0.48963 0,-0.71568 0.30367,-1.08112 0.93665,-1.11935 z m 1.38242,8.27754 c 0.27058,0.004 0.51719,0.0327 0.72714,0.0876 0.21998,0.0575 0.4044,0.11925 0.56638,0.18392 0.0118,0.006 0.0221,0.009 0.0342,0.0146 l 0.0658,0.0304 c 1.09325,0.48457 0.64986,1.1191 -1.21801,1.47987 -1.02898,0.19877 -2.74641,0.53047 -3.816,0.73811 -0.24986,0.0485 -0.42815,0.0689 -0.61875,0.0937 -0.38357,-0.004 -0.72446,-0.0246 -1.00484,-0.0622 -0.11355,-0.0992 -0.12151,-0.26286 -0.0439,-0.49938 0.31887,-0.9712 3.41401,-2.09537 5.30806,-2.06695 z m -31.26367,0.52738 c -0.91196,-0.0327 -1.85035,0.17247 -2.73928,0.63215 -3.10372,1.60499 -3.63866,5.64493 -1.08523,8.19838 1.6381,1.63809 3.64355,1.95474 5.53581,0.98048 0.67792,-0.27552 1.33314,-0.71318 1.94272,-1.32274 0.34714,-0.34717 0.61825,-0.77118 0.81971,-1.23749 1.08049,-1.70003 0.91915,-3.39484 -0.48233,-5.17652 -1.02496,-1.30301 -2.47144,-2.01954 -3.9914,-2.07426 z m -0.14492,3.13514 c 0.003,-1.8e-4 0.007,1.6e-4 0.009,0 0.27389,0.10332 0.55229,0.29619 0.79292,0.52984 0.13138,0.29939 0.22393,0.7065 0.22411,1.12056 -5e-4,0.70783 -0.41451,1.10878 -0.90131,1.17416 -0.0538,0.004 -0.10855,0.004 -0.16322,0.007 -0.47373,-0.009 -0.97977,-0.32016 -1.22897,-0.96953 -0.31989,-0.83362 0.47935,-1.81735 1.26673,-1.86233 z m -26.49641,5.36164 c -3.09373,0.0963 -6.15212,2.43316 -6.15212,6.22277 0,0.0624 0.006,0.11425 0.006,0.17539 -6.4e-4,0.035 -0.006,0.0696 -0.006,0.10481 0,0.0266 0.004,0.0548 0.004,0.0816 -10e-4,0.0516 -0.004,0.10155 -0.004,0.15346 0,0.14385 0.0127,0.29229 0.0317,0.44337 0.15414,2.53074 0.97364,3.86479 2.94633,4.93534 2.7041,1.46745 4.80655,1.22862 7.02909,-0.82094 0.31389,-0.26556 0.59282,-0.55536 0.84164,-0.86354 1.90939,-2.20012 2.14086,-4.5104 0.73446,-7.23007 -1.18151,-2.2848 -3.31432,-3.26794 -5.43108,-3.20213 z m 1.64308,6.29708 c 0,1.15113 -0.37869,1.53501 -1.66134,1.68326 -1.48045,0.17123 -2.38533,-0.86523 -2.26306,-2.03526 0.61823,-3.11774 3.86928,-2.07432 3.9244,0.352 z m -93.903018,0.40315 c 0.609822,0.0369 0.984143,0.1532 0.984143,0.36296 0,1.03753 -17.7123223,18.30887 -18.0020558,17.55384 -0.1618334,-0.42176 -0.487437,-2.05552 -0.7234944,-3.62964 -0.8017218,-5.34626 2.9521265,-10.3937 9.6002852,-12.90837 2.357971,-0.892 6.311655,-1.48969 8.141122,-1.37879 z m 5.176505,0.17661 0.41899,0.0464 1.155885,0.20585 c 3.096395,0.54877 4.277157,0.6455 3.210654,2.2813 -6.24e-4,0.001 -0.0012,0.002 -0.0024,0.003 -0.246005,0.33781 -0.558225,0.7368 -0.897665,1.16319 -0.0064,0.008 -0.01035,0.0142 -0.01703,0.0219 -0.794113,0.93492 -1.959047,2.18002 -3.516375,3.86471 -3.185346,3.4459 -8.521416,9.46327 -11.857241,13.37121 l -5.938978,6.95723 c -0.07367,0.0642 -0.118174,0.0931 -0.147372,0.10354 l -1.8939916,-3.75021 -1.8489295,-3.66132 c 0.00952,-0.0801 0.2798035,-0.41794 0.7636868,-0.96345 l 9.4882333,-9.48822 7.649045,-7.64906 c 1.79694,-1.58797 2.934585,-2.41701 3.433547,-2.50664 z m 8.843907,2.29837 c 1.608832,-0.0547 3.615668,1.05472 7.57597,2.92442 9.046651,4.27098 17.740186,10.42542 17.740186,12.56004 0,0.45345 -1.753921,3.15581 -3.897604,6.00474 -2.143682,2.84895 -9.677272,11.06061 -16.741426,18.24809 l -10.773222,10.96201 c -1.082793,1.01065 -1.902723,1.74819 -2.047457,1.79656 -0.108492,-0.0641 -0.37775,-0.36697 -0.749078,-0.82094 l -0.455526,-0.70888 c -0.649247,-1.01185 -3.589413,-5.20793 -6.534579,-9.32379 -2.945167,-4.11588 -6.370027,-9.07575 -7.61007,-11.02291 l -2.239907,-3.51881 c 0.01596,-0.0297 0.01827,-0.0445 0.04023,-0.0804 l 5.918272,-6.37867 c 3.284982,-3.54065 8.790844,-9.75314 12.236038,-13.80484 4.058447,-4.7729 5.469711,-6.76636 7.53821,-6.83662 z m 48.482543,4.7624 c -1.803275,0.0943 -3.586194,0.87004 -5.059576,2.34341 -3.506255,3.50625 -2.862989,9.15615 1.343457,11.79512 7.061957,4.43046 15.480633,-4.82155 10.150822,-11.15566 -1.765118,-2.09774 -4.116214,-3.10399 -6.434703,-2.98287 z m -0.231416,4.13998 c 0.746023,0 1.368796,0.13332 1.86841,0.38001 0.904913,0.66952 1.373038,1.65137 1.365379,2.64062 -0.05549,0.68162 -0.353209,1.47135 -0.725925,1.84407 -1.242314,1.24231 -4.112973,0.90465 -4.906119,-0.57734 -1.088083,-2.03311 0.172484,-4.28736 2.398255,-4.28736 z m 60.613819,1.24722 c 0.52115,0 1.3133,0.4773 2.28864,1.31301 l 2.22284,2.43356 c 7.07044,7.74092 15.72248,21.98854 19.59399,32.2673 0.73897,1.96174 1.07968,3.40449 0.91837,3.78797 -0.0586,0.0283 -0.1823,0.0821 -0.26918,0.12181 -3.24044,0.26515 -19.9516,9.38494 -25.66815,14.04112 -1.37864,1.12293 -2.60102,2.0857 -3.19725,2.52491 -0.21268,0.14112 -0.32161,0.20336 -0.37637,0.22411 -0.0105,0.002 -0.0199,0.004 -0.0293,0.006 -0.008,-3.8e-4 -0.0205,-0.004 -0.0293,-0.006 -0.20362,-0.0975 -2.57458,-2.02804 -5.41646,-4.41279 -10.71537,-8.99189 -30.42727,-30.16042 -29.74358,-31.94212 0.0738,-0.19225 0.21317,-0.40943 0.39585,-0.64431 l 1.81847,-1.64186 c 0.32368,-0.29203 0.6881,-0.59355 1.0621,-0.89767 6.3012,-4.63275 20.23677,-11.80316 30.13944,-15.1081 l 6.14725,-2.05111 c 0.0431,-0.003 0.10644,-0.0159 0.14252,-0.0159 z m 8.18132,34.92254 c -0.69437,0 -3.81854,6.37727 -3.78068,7.71724 0.0237,0.84021 1.83221,-1.43086 1.89521,-2.37997 3.6e-4,-0.004 0.002,-0.007 0.002,-0.0122 0.0261,-0.0496 0.0519,-0.0932 0.0781,-0.14372 0.10049,-0.001 0.28083,0.26471 0.47868,0.74298 0.0224,0.0544 0.0422,0.0916 0.0633,0.14007 -0.0156,0.0842 -0.0426,0.18364 -0.0426,0.24482 0,0.41714 0.13059,0.627 0.29111,0.4665 0.0306,-0.0306 0.0774,-0.11331 0.11576,-0.16932 0.24329,0.0915 0.51432,-0.42242 1.08767,-1.7527 1.13953,-2.64397 1.2807,-3.85271 0.38367,-3.29835 -0.35351,0.21851 -0.45899,-0.0321 -0.24603,-0.58705 0.20427,-0.53231 0.0576,-0.96833 -0.32643,-0.96833 z m 17.15919,6.63811 c 0.15097,-0.007 0.25455,0.0153 0.30573,0.0707 0.57903,0.62695 1.40794,4.79221 1.69668,8.03395 0.0568,0.82177 0.0955,1.64004 0.0999,2.43722 -0.12276,6.03396 -2.83945,11.02859 -7.27511,13.30301 -0.10878,0.0557 -0.22859,0.0994 -0.34348,0.14859 -1.01474,0.32904 -2.13432,0.51723 -3.32027,0.56638 -3.50606,-0.0438 -8.20628,-1.59483 -13.37,-4.5054 -7.22202,-4.07073 -7.10765,-3.62025 -1.81848,-7.15454 8.77022,-5.86036 21.76072,-12.78742 24.02507,-12.89984 z m -82.770472,6.4627 c 0.549512,0.0484 0.952339,1.94352 2.645491,12.35299 0.699636,4.30131 0.668776,4.6344 -0.539568,5.84275 l -1.282559,1.28133 -0.387333,-6.15456 c -0.213032,-3.38527 -0.535323,-7.76939 -0.717403,-9.74158 -0.03952,-0.42828 -0.05863,-0.81315 -0.07309,-1.18511 0.03614,-1.4384 0.145681,-2.36259 0.354445,-2.39582 z m 32.621712,2.14004 c 0.80919,0.057 1.23313,0.87499 1.79169,2.73928 0.97492,3.25405 -0.0808,6.77667 -2.82943,9.44073 -1.87733,1.81959 -2.69766,2.15398 -5.78063,2.35197 -2.12252,0.1362 -3.8706,-0.14155 -5.3385,-0.86235 -0.85694,-0.52307 -1.67837,-1.19149 -2.45183,-2.02067 -0.27266,-0.29231 -0.52576,-0.57994 -0.76977,-0.86112 -1.32641,-1.91927 -1.1908,-2.64681 0.63213,-3.4774 2.09805,-0.956 2.77705,-0.91379 2.77705,0.1754 0,1.26222 2.45677,2.84159 4.42011,2.84159 0.0692,0 0.13792,-0.007 0.20708,-0.0105 0.0538,0.003 0.11017,0.0105 0.16198,0.0105 0.70808,0 1.43979,-0.27344 2.09862,-0.71253 l 0.006,-0.003 c 1.41332,-0.83253 2.46036,-2.27914 2.46036,-3.7356 0,-1.0266 -0.28583,-2.39945 -0.63457,-3.0511 -0.003,-0.007 -0.004,-0.0126 -0.008,-0.0194 -0.0635,-0.75936 0.023,-1.23068 0.34104,-1.60776 0.2336,-0.16258 0.54034,-0.33653 0.93299,-0.53958 0.87405,-0.45199 1.4986,-0.6919 1.98411,-0.65772 z m -5.25689,3.12661 c 0.0717,0.004 0.12817,0.018 0.16809,0.0427 1.10112,0.68055 0.67461,3.95745 -0.60414,4.6418 -0.35714,0.19114 -0.78962,0.35899 -1.19242,0.47745 -0.5505,0.0843 -1.12456,0.0386 -1.65891,-0.11086 -0.82815,-0.4771 -1.84295,-1.46688 -2.10836,-2.12175 0.0448,-0.24784 0.15565,-0.49756 0.33374,-0.7503 1.07956,-0.85412 4.17699,-2.23611 5.062,-2.17901 z m 5.72216,2.2119 c -0.32274,0 -0.58586,0.28061 -0.58586,0.6236 0,0.343 0.43725,0.62362 0.97198,0.62362 0.53474,0 0.79906,-0.28062 0.58708,-0.62362 -0.21199,-0.34299 -0.65044,-0.6236 -0.9732,-0.6236 z m -14.68786,2.71248 c -0.0744,0.0105 -0.15543,0.0407 -0.24117,0.0937 -0.17699,0.10934 -0.3032,0.29211 -0.40193,0.49937 -0.002,0.003 -0.004,0.007 -0.006,0.0105 -0.0653,0.0755 -0.11006,0.18723 -0.14373,0.3179 -0.0173,0.052 -0.0283,0.1062 -0.0389,0.16321 -0.002,0.0135 -0.003,0.0274 -0.004,0.0414 -0.0117,0.0709 -0.0281,0.1384 -0.0281,0.21437 0,0.12964 0.007,0.25409 0.0194,0.36662 0.0105,0.29368 0.0346,0.48812 0.10102,0.51278 0.1179,0.40203 0.33573,0.73446 0.65893,0.84652 0.85624,0.29685 1.69036,-0.64168 1.70521,-1.91835 0.004,-0.4498 -0.27089,-0.64308 -0.61388,-0.43119 -0.14097,0.0871 -0.26553,0.10228 -0.37027,0.0781 -0.0573,-0.0336 -0.11677,-0.0701 -0.17052,-0.0986 -0.0518,-0.0694 -0.0827,-0.16643 -0.0827,-0.29109 0,-0.2876 -0.15883,-0.43758 -0.38246,-0.40561 z m 13.236,0.64431 c -0.22361,0.0105 -0.38123,0.25912 -0.38123,0.66017 0,0.0755 0.0175,0.14249 0.028,0.21315 -0.0105,0.0451 -0.028,0.0871 -0.028,0.13519 0,0.2917 0.20699,0.52717 0.47868,0.59439 0.0468,0.0176 0.0949,0.0293 0.14494,0.0293 0.343,0 0.62361,-0.26311 0.62361,-0.58586 0,-0.006 -0.003,-0.0133 -0.003,-0.0194 2e-4,-0.007 0.003,-0.012 0.003,-0.0183 0,-0.10935 -0.0365,-0.20639 -0.0865,-0.29597 -0.1068,-0.24615 -0.30352,-0.49512 -0.53715,-0.63945 -0.0856,-0.053 -0.16784,-0.0763 -0.24239,-0.0731 z m -2.94267,2.25575 c -0.3063,0 -0.55664,0.42094 -0.55664,0.93542 0,0.51448 0.41223,0.93543 0.91595,0.93543 0.0163,0 0.0293,-0.003 0.0451,-0.003 0.003,2.3e-4 0.008,0.003 0.0105,0.003 0.004,0 0.008,-0.006 0.0122,-0.006 0.50435,-0.0307 0.6974,-0.38479 0.48842,-0.92934 -0.19744,-0.51448 -0.60963,-0.93543 -0.91593,-0.93543 z m -3.74779,0.62361 c -0.30299,0 -0.55055,0.56126 -0.55055,1.24724 0,0.68596 0.39459,1.24723 0.87696,1.24723 0.56999,0 0.76254,-0.43663 0.55054,-1.24723 -0.17939,-0.68598 -0.57396,-1.24724 -0.87695,-1.24724 z m -16.100754,3.14245 c 0.684857,-0.0132 1.524356,0.0278 2.515174,0.12302 4.19967,0.40352 7.4314,3.6274 8.2349,7.47731 0.0787,0.58103 0.12301,1.1913 0.12301,1.8404 0,0.63236 -0.0328,1.21239 -0.0962,1.75757 -0.0545,0.27234 -0.11723,0.54469 -0.19854,0.81607 -0.70202,2.34316 -0.7647,2.38632 -1.93054,1.33126 -1.11478,-1.00888 -1.20459,-1.0121 -1.20459,-0.0389 0,0.46581 0.27876,0.96615 0.66015,1.24967 0.13256,0.22869 0.26091,0.38611 0.34103,0.38611 0.0445,0 0.0845,-0.0577 0.12059,-0.13764 0.30313,0.1705 0.39864,0.41753 0.30816,0.71619 -0.46027,0.55814 -0.99096,1.08953 -1.59194,1.58706 -0.34417,0.22515 -0.72156,0.45245 -1.16562,0.68208 -2.24175,1.15926 -2.41408,1.13365 -2.41408,-0.35323 0,-0.009 -0.002,-0.0158 -0.002,-0.0256 6e-5,-0.003 0.002,-0.007 0.002,-0.0105 0,-0.006 -0.003,-0.0105 -0.003,-0.0171 1.6e-4,-0.006 0.003,-0.0133 0.003,-0.0194 0,-0.0157 -0.007,-0.0242 -0.008,-0.0389 -0.0488,-1.62667 -1.03991,-1.39222 -1.49571,0.42387 -0.15769,0.62832 -0.479268,1.15687 -0.806308,1.38365 -0.548436,0.0136 -1.07935,-0.0143 -1.591931,-0.0792 -1.937028,-0.44061 -3.877812,-1.54952 -5.434726,-3.15584 -1.937018,-1.99849 -2.010255,-2.20215 -0.800221,-2.20215 0.0949,0 0.188862,-0.0166 0.283796,-0.0256 0.01212,10e-4 0.02436,4.4e-4 0.03648,10e-4 0.06272,0.008 0.126574,0.0243 0.18757,0.0243 0.137194,0 0.263394,-0.0246 0.380013,-0.0633 0.337226,-0.0756 0.632622,-0.23889 0.786838,-0.4884 0.0058,-0.0105 0.0047,-0.0204 0.0094,-0.0305 0.01049,-0.0139 0.02541,-0.0273 0.03415,-0.0414 0.252237,-0.40808 -0.197316,-0.67214 -1.205813,-0.76368 -0.01772,-0.003 -0.03066,-0.009 -0.04874,-0.0134 -0.607535,-0.11612 -1.039613,-0.11134 -1.293518,-0.0146 -0.03579,0.001 -0.06587,-1.3e-4 -0.102364,0.001 -0.481101,0.018 -0.779517,-0.80926 -0.779517,-2.16073 0,-1.90245 0.125326,-2.08574 0.961013,-1.39217 0.680353,0.56463 1.156253,0.60374 1.626024,0.13397 0.07204,-0.072 0.123786,-0.14077 0.165651,-0.2095 0.101893,-0.0182 0.174279,-0.0418 0.205838,-0.0755 0.09304,-0.0335 0.159555,-0.0692 0.159555,-0.10958 0,-0.0579 -0.122703,-0.14027 -0.303277,-0.22899 -0.0759,-0.22691 -0.33324,-0.45183 -0.79535,-0.69913 -0.677706,-0.36277 -1.409425,-0.48212 -1.626035,-0.26553 -0.339932,0.33995 -0.445229,0.21467 -0.395844,-0.11577 0.06412,-0.23571 0.138267,-0.47068 0.22167,-0.704 0.165104,-0.38748 0.400694,-0.8246 0.695473,-1.21435 0.51575,-0.68187 0.924359,-0.87028 0.935434,-0.43117 0.01049,0.42874 0.625011,0.77952 1.364156,0.77952 h 0.01458 0.0023 c 0.0023,0 0.0034,-0.001 0.0058,-0.001 0.411746,-1.8e-4 0.684619,-0.007 0.836759,-0.0536 0.24909,-0.0428 0.274645,-0.1405 0.05001,-0.36053 -0.120639,-0.18731 -0.351065,-0.45195 -0.712529,-0.85138 -1.039951,-1.14908 -1.088391,-1.3016 -0.18757,-2.17656 0.31278,-0.27421 0.626607,-0.52857 0.94151,-0.75882 0.316766,-0.14919 0.508369,-0.0458 0.63823,0.3045 0.142709,0.3849 0.610392,0.69332 1.086457,0.75516 0.02367,0.008 0.0513,0.0243 0.07064,0.0243 0.0081,0 0.01504,-0.009 0.02308,-0.0105 0.02285,0.001 0.04547,0.0105 0.0682,0.0105 0.07555,0 0.111336,-0.0105 0.172962,-0.0146 0.02751,0.003 0.05759,0.0146 0.08406,0.0146 0.06412,0 0.11122,-0.0184 0.158334,-0.0365 0.0162,-0.003 0.03577,-0.007 0.04999,-0.0105 0.0021,-10e-4 0.0042,-0.002 0.0062,-0.003 0.140765,-0.0479 0.180329,-0.13714 0.121795,-0.28746 -0.0083,-0.0865 -0.03315,-0.18084 -0.09747,-0.285 -0.08168,-0.13221 -0.205197,-0.24716 -0.338603,-0.34835 -0.75444,-0.94976 -0.08464,-1.45904 1.93784,-1.49815 z m 1.381206,4.96457 c -0.17117,0 -0.343389,0.0131 -0.515216,0.0342 -1.337137,0.0947 -2.577736,0.76145 -3.389691,1.77341 -0.76288,0.7964 -1.258205,1.7625 -1.258205,2.70275 0,1.82625 1.597274,4.14689 3.339759,4.85007 1.864553,0.75245 2.108833,0.73418 4.098581,-0.29475 4.46544,-2.30917 2.76974,-9.06559 -2.275228,-9.06559 z m -0.194874,1.40435 c 0.487524,-0.0105 1.006252,0.0922 1.531022,0.3313 1.45564,0.66323 2.03458,2.69816 1.41044,4.16679 -0.35498,0.51445 -0.86745,1.03297 -1.35443,1.37025 -1.470738,0.64515 -3.529421,0.0699 -4.19721,-1.39583 -1.036107,-2.27401 0.497522,-4.42867 2.610178,-4.47251 z m -96.4182076,2.94148 c -1.7495756,-0.003 -3.26414131,0.38572 -3.77580001,1.07428 -0.0946657,0.084 -0.13926601,0.16409 -0.13519954,0.2363 1.7372e-4,0.003 -0.001861,0.007 -0.001288,0.009 -0.0100289,0.0278 -0.008862,0.0579 -0.015844,0.0865 -0.0200758,0.0552 -0.0353013,0.11088 -0.0353013,0.16809 0,0.007 0.00129,0.0116 0.00129,0.0183 -3.14e-5,0.003 -0.00129,0.006 -0.00129,0.008 0,0.0252 0.00559,0.0439 0.00734,0.067 0.0230706,0.3728 0.18567589,0.52446 0.64554282,0.46527 0.30549166,-0.0136 0.73105409,-0.10385 1.32031464,-0.27283 4.08664914,-1.17203 8.53685234,1.43993 10.58808194,5.4396 0.0899,0.18671 0.180674,0.3723 0.264307,0.56637 0.04308,0.0976 0.08401,0.19583 0.124238,0.29476 0.12148,0.29876 0.234778,0.6072 0.341037,0.92202 0.0012,0.003 0.0012,0.006 0.0024,0.008 0.275425,0.91731 0.426298,1.88123 0.426298,2.86961 0,1.20649 0.146194,2.33994 0.32521,2.51883 0.179002,0.17902 1.388701,0.0412 2.688124,-0.30572 1.136567,-0.30347 2.676058,-0.41204 3.668624,-0.2777 3.76e-4,5e-5 6.25e-4,-6e-5 0.0012,0 3.93e-4,6e-5 6.24e-4,-7e-5 0.0012,0 0.108515,0.0146 0.204273,0.0354 0.298413,0.0559 0.130455,0.0307 0.258777,0.0641 0.381236,0.10713 0.0128,0.004 0.02624,0.007 0.03898,0.0105 0.423093,0.154 0.816594,0.39645 1.250888,0.72228 2.728797,2.24436 3.589094,7.96242 1.040174,10.51133 -0.979846,0.97984 -1.220357,1.5298 -0.668686,1.5298 0.03013,0 0.06813,-0.0116 0.102311,-0.0167 0.02763,0.008 0.05631,0.0167 0.09378,0.0167 0.677829,0 1.309821,-0.58833 1.819696,-1.49081 0.0657,-0.0764 0.137164,-0.1448 0.19975,-0.22413 1.004179,-1.27206 1.254131,-2.13177 1.129089,-4.31412 -6.24e-4,-0.0368 -0.0055,-0.0798 -0.0084,-0.12061 -0.0131,-0.21178 -0.02431,-0.41857 -0.04383,-0.65648 -0.187685,-2.28772 -0.445088,-3.23097 -1.507886,-4.41771 -0.54582,-0.8237 -1.209381,-1.44965 -2.013359,-1.89764 -1.145664,-0.95836 -1.841827,-1.21145 -3.237443,-1.16075 -0.01341,-0.008 -0.02719,-0.0169 -0.06211,-0.0183 -0.188886,-0.007 -0.455133,0.022 -0.742982,0.067 -0.153186,0.0129 -0.289621,0.0227 -0.459188,0.0389 l -1.703983,0.16322 c -1.239925,-0.0968 -1.34531,-0.43817 -1.349545,-1.52614 -9.2e-5,-0.0243 -0.0061,-0.0589 -0.0073,-0.0852 l -0.0012,-0.19487 c -0.02888,-4.08292 -3.319842,-8.90233 -7.0424821,-10.31282 -1.2316561,-0.46665 -2.6520301,-0.6822 -3.946328,-0.68452 z m 104.5775796,0.10353 c -0.17682,-0.0224 -0.33654,0.0126 -0.44822,0.12423 -0.183,0.18303 -0.1469,0.63174 0.0792,0.99754 0.006,0.008 0.0128,0.0146 0.0183,0.0231 0.003,0.007 0.003,0.0119 0.007,0.0183 0.039,0.0633 0.0927,0.1214 0.14615,0.17904 0.0164,0.0181 0.0306,0.0403 0.0476,0.0572 0.027,0.0262 0.0587,0.0466 0.0876,0.0707 0.055,0.0467 0.11005,0.0936 0.16808,0.12911 0.18468,0.11542 0.38552,0.18759 0.55907,0.18759 0.11017,0 0.19336,-0.031 0.25212,-0.0816 0.17499,-0.081 0.29841,-0.24159 0.29841,-0.50425 0,-0.55183 -0.68503,-1.13354 -1.21556,-1.20096 z m 41.07222,4.46031 c -2.51312,-0.0243 -5.11993,0.51356 -7.47486,1.71495 -2.03477,1.03807 -3.2286,1.24867 -5.30927,0.93665 -8.82703,-1.32368 -17.26054,7.16964 -12.77806,12.8682 1.17386,1.49238 1.1742,1.53828 0.0194,2.25936 -0.64836,0.40492 -1.61568,1.58225 -2.14977,2.61507 -0.69656,1.34703 -0.64896,1.97525 -0.19609,1.80507 0.1132,0.11378 0.29448,-0.015 0.49328,-0.36419 0.25527,-0.24938 0.55183,-0.60779 0.88062,-1.1096 0.0155,-0.0236 0.0371,-0.0494 0.0535,-0.0731 0.11565,-0.13283 0.21003,-0.22768 0.33862,-0.38365 0.0923,-0.11204 0.19847,-0.21702 0.29596,-0.32766 0.20396,-0.18551 0.39713,-0.35508 0.61509,-0.56393 l 0.34835,-0.33369 c 0.41235,-0.32652 0.8367,-0.62668 1.22653,-0.8283 2.14484,-1.1091 2.37327,-1.93408 0.68452,-2.47008 -0.64909,-0.20604 -1.51605,-1.18405 -1.92567,-2.17291 -1.00859,-2.43503 0.56629,-5.75019 3.6394,-7.66123 1.84331,-1.14629 3.21441,-1.42169 7.26173,-1.45917 0.58109,-0.006 1.10537,-0.0211 1.60654,-0.0426 0.6543,0.0298 1.20492,0.0345 1.68814,0.0122 0.0715,0.0203 0.1943,0.0105 0.36539,-0.028 0.85399,-0.0718 1.49302,-0.24733 2.10228,-0.5627 0.70075,-0.19823 1.3603,-0.44543 2.03286,-0.76735 3.30304,-1.581 9.1601,-1.82814 11.72326,-0.49451 2.66418,1.38615 4.38109,3.61796 4.60039,5.98282 0.18601,2.00657 0.34991,2.16659 2.0304,1.98534 2.42309,-0.26147 6.9816,1.52544 8.15087,3.19482 1.35352,1.93242 1.18365,5.54259 -0.33739,7.17522 -0.8713,0.93523 -1.02658,1.28633 -0.5481,1.352 l -0.23142,0.32397 0.33496,-0.31786 c 0.0333,0 0.0599,0.006 0.0975,0.006 0.0673,0 0.13317,-0.006 0.19853,-0.0131 0.0199,0.006 0.0349,0.0131 0.0597,0.0131 0.0875,0 0.18375,-0.0368 0.28258,-0.0913 1.21915,-0.38975 2.01641,-2.07383 2.18632,-4.02065 0.0797,-0.3577 0.1368,-0.7023 0.13641,-1.0012 -5.8e-4,-0.35727 -0.0688,-0.74959 -0.18514,-1.15706 -0.02,-0.0935 -0.0485,-0.18509 -0.0731,-0.27775 -0.15319,-0.80124 -0.41649,-1.57727 -0.81728,-2.25572 -1.20055,-2.03242 -5.30728,-4.29224 -7.80008,-4.29224 -1.30481,0 -1.70724,-0.375 -2.0438,-1.90739 -0.58832,-2.67859 -2.67608,-4.74922 -5.453,-5.98404 -0.0233,-0.0126 -0.0462,-0.0281 -0.0694,-0.04 -0.61563,-0.32396 -1.37328,-0.56953 -2.21311,-0.74664 -1.2239,-0.31154 -2.52169,-0.48407 -3.84766,-0.49693 z m -51.392323,1.4068 c -0.233456,-0.0216 -0.623229,0.11344 -1.24846,0.39828 -0.326081,0.14858 -0.612583,0.32211 -0.863562,0.49451 -0.05339,0.006 -0.118598,0.0159 -0.159555,0.0159 -0.251399,0 -0.371793,0.15882 -0.326431,0.38245 -0.121956,0.13011 -0.209499,0.25042 -0.209499,0.34104 0,0.41522 0.352406,0.56942 0.99389,0.47015 0.211761,0.0444 0.442477,-0.0171 0.693048,-0.1693 0.140633,-0.045 0.287831,-0.0957 0.444569,-0.15591 0.542533,-0.2082 0.986573,-0.76341 0.986573,-1.23384 0,-0.34298 -0.07718,-0.5215 -0.310573,-0.54322 z"
       style="fill:#1a1a1a;stroke-width:0.62361676" />
  </g>
  <path
     style="opacity:1;fill:#000000;fill-opacity:1;fill-rule:evenodd;stroke:none;stroke-width:26.16742134;stroke-miterlimit:4;stroke-dasharray:none;stroke-opacity:1"
     d="M -0.15039062 -0.24023438 L -0.15039062 1122.7598 L 793.84961 1122.7598 L 793.84961 -0.24023438 L -0.15039062 -0.24023438 z M 0.84960938 0.75976562 L 792.84961 0.75976562 L 792.84961 1121.7598 L 0.84960938 1121.7598 L 0.84960938 0.75976562 z "
     transform="scale(0.26458333)"
     id="rect815" />
  <text
     id="text821"
     y="63.081043"
     x="10.482874"
     style="font-style:normal;font-weight:normal;font-size:10.58333302px;line-height:1.25;font-family:sans-serif;letter-spacing:0px;word-spacing:0px;fill:none;fill-opacity:1;stroke:#000000;stroke-width:2.64583325;stroke-miterlimit:4;stroke-dasharray:none;stroke-opacity:1"
     xml:space="preserve"><tspan
       style="font-style:normal;font-variant:normal;font-weight:normal;font-stretch:normal;font-size:77.6111145px;font-family:'Arial Rounded MT Bold';-inkscape-font-specification:'Arial Rounded MT Bold, ';fill:none;stroke:#000000;stroke-width:2.64583325;stroke-miterlimit:4;stroke-dasharray:none;stroke-opacity:1"
       y="63.081043"
       x="10.482874"
       id="tspan819">Aa</tspan></text>
  <text
     id="text825"
     y="19.165031"
     x="159.1319"
     style="font-style:normal;font-weight:normal;font-size:10.58333302px;line-height:1.25;font-family:sans-serif;text-align:center;letter-spacing:0px;word-spacing:0px;text-anchor:middle;fill:#000000;fill-opacity:1;stroke:none;stroke-width:0.26458332"
     xml:space="preserve"><tspan
       style="font-style:normal;font-variant:normal;font-weight:normal;font-stretch:normal;font-size:19.75555611px;font-family:Forte;-inkscape-font-specification:Forte;text-align:center;text-anchor:middle;stroke-width:0.26458332"
       y="19.165031"
       x="159.1319"
       id="tspan823">is for</tspan><tspan
       id="tspan827"
       style="font-style:normal;font-variant:normal;font-weight:normal;font-stretch:normal;font-size:19.75555611px;font-family:Forte;-inkscape-font-specification:Forte;text-align:center;text-anchor:middle;stroke-width:0.26458332"
       y="43.859478"
       x="159.1319">Airplane</tspan></text>
</svg>
