<?xml version="1.0" encoding="UTF-8" standalone="no"?>
<svg
   xmlns:dc="http://purl.org/dc/elements/1.1/"
   xmlns:cc="http://creativecommons.org/ns#"
   xmlns:rdf="http://www.w3.org/1999/02/22-rdf-syntax-ns#"
   xmlns:svg="http://www.w3.org/2000/svg"
   xmlns="http://www.w3.org/2000/svg"
   id="svg8"
   version="1.1"
   viewBox="0 0 210 297"
   height="297mm"
   width="210mm">
  <title
     id="title905">Creazilla Dragon</title>
  <defs
     id="defs2" />
  <metadata
     id="metadata5">
    <rdf:RDF>
      <cc:Work
         rdf:about="">
        <dc:format>image/svg+xml</dc:format>
        <dc:type
           rdf:resource="http://purl.org/dc/dcmitype/StillImage" />
        <dc:title>Creazilla Dragon</dc:title>
        <dc:date>2020-04-11</dc:date>
        <dc:creator>
          <cc:Agent>
            <dc:title>Public domain</dc:title>
          </cc:Agent>
        </dc:creator>
        <dc:source>http://www.supercoloring.com/coloring-pages/creazilla-dragon</dc:source>
        <dc:subject>
          <rdf:Bag>
            <rdf:li>csk</rdf:li>
            <rdf:li>dragon</rdf:li>
          </rdf:Bag>
        </dc:subject>
      </cc:Work>
    </rdf:RDF>
  </metadata>
  <g
     id="layer1">
    <path
       style="opacity:1;fill:#000000;stroke-width:0.58558452"
       d="m 156.1834,12.469875 c -6.86888,-0.03696 -13.76768,2.099407 -19.10441,6.495529 -5.83959,4.269967 -9.62978,10.736591 -11.74972,17.55461 -1.00479,2.362383 -4.09291,2.443675 -6.16693,3.280189 -0.71935,-0.498531 -0.1795,-1.995318 -0.3946,-2.762071 -0.28241,-5.56254 0.7392,-11.259181 4.0961,-15.815873 1.14944,-1.662778 2.1764,-3.409662 3.46047,-4.975812 -0.64598,0.226237 -1.23206,-0.578738 -2.00151,-0.116632 -9.14959,3.256595 -17.12774,10.323249 -20.50622,19.552341 -1.73641,4.311665 -2.07887,9.034416 -1.65566,13.614391 -0.39856,2.58842 -2.94873,4.052186 -4.37841,6.051532 -1.16715,2.045427 -1.86923,1.182863 -2.37409,-0.666913 -1.51653,-4.526703 -1.25891,-9.654255 1.00304,-13.884761 0.45607,-0.669015 0.2118,-2.238972 -0.84977,-1.581753 -4.189849,3.038459 -7.962158,6.989168 -10.030446,11.7906 -2.689691,6.887492 -1.533285,14.685597 1.592669,21.221228 1.418634,4.062014 0.117938,8.417324 0.309913,12.605314 -0.25346,8.872053 0.671746,17.867956 3.706838,26.238736 0.02527,0.55121 1.078881,2.58926 -0.1733,1.71504 -6.89322,-4.13098 -13.026905,-11.02978 -13.566345,-19.382147 -0.359034,-4.531815 1.446184,-8.807427 2.118868,-13.211583 -1.404954,-0.642745 -3.370408,0.268509 -4.937733,0.418987 -14.582901,3.171518 -28.59448,9.706996 -39.895822,19.521443 -3.458579,3.23216 -7.017692,6.6951 -8.915559,11.10813 -0.369037,0.68274 0.06903,1.60864 0.866941,1.11857 1.734582,-1.37269 3.469869,-3.09948 5.831109,-3.12903 2.525912,-0.21645 5.419685,-0.0155 7.709389,1.2476 -3.865513,5.57509 -7.712587,11.18196 -10.752631,17.26728 -2.263384,4.63398 -4.97393,9.20274 -6.105795,14.27536 -0.300066,0.90096 0.823982,1.50009 1.319847,0.63478 1.469034,-2.04609 2.293554,-4.57009 4.327015,-6.18493 2.84703,-2.93062 6.883141,-4.74381 11.041141,-4.5104 5.77232,-0.40333 10.540219,4.05967 12.91146,8.90539 1.326309,2.3561 1.400813,5.06293 1.596631,7.67436 0.366489,0.91797 0.545222,1.765 0.511247,2.61341 0.658838,-0.21578 1.294211,-1.94518 2.04154,-3.62789 2.166509,-5.50308 8.445177,-8.87472 14.148956,-7.71324 4.760159,0.75741 8.604441,4.41671 10.330068,8.83409 0.208266,0.61832 1.264022,2.01343 1.777335,0.90927 0.193221,-1.9829 -0.529296,-4.036 0.333975,-5.93935 1.296496,-3.87495 4.687584,-7.51645 8.888989,-8.10096 3.93823,-0.23932 8.19857,0.50873 11.06664,3.4609 3.16635,3.75805 3.81227,8.83395 5.2331,13.39678 1.87445,7.43638 3.8409,15.45276 1.62927,22.97677 -1.92335,6.21808 -8.46463,9.89929 -14.73346,9.84645 -6.099534,0.008 -11.427339,-3.45218 -16.631701,-6.22624 -6.280585,-3.79529 -12.76403,-7.64141 -20.096251,-8.9879 -10.250264,-2.19824 -21.076094,-3.25369 -31.376438,-0.78846 -6.832337,2.06448 -13.369147,5.43884 -18.777131,10.1193 -0.953389,0.93958 -2.620351,2.5647 -1.664108,3.97899 1.728387,0.081 3.244168,-1.34084 4.885135,-1.80148 9.456814,-3.77044 20.780572,-4.06962 29.67529,1.25552 6.762992,4.70158 10.550119,12.31689 14.670496,19.22317 5.320435,8.99631 10.909791,17.89472 17.492302,26.02924 3.26717,3.85087 7.143036,7.19251 11.710155,9.40783 5.864529,3.23471 12.060971,5.81089 18.395091,7.95997 1.41737,0.54805 3.90701,1.79193 2.6168,3.62902 -2.34722,1.48095 -5.10276,2.1315 -7.66061,3.11893 -1.0636,10.82507 -6.20245,20.62811 -8.896997,31.06571 -0.116396,0.84524 -0.284249,1.09938 0.510086,1.32558 2.750001,0.20384 5.495381,-0.84514 8.134381,-1.55362 3.41924,-0.97741 7.32184,-3.24159 7.52773,-7.21069 0.1857,-4.36853 -0.97891,-8.70474 -0.45178,-13.0876 0.21092,-1.59986 0.10619,-3.48456 0.98591,-4.88367 3.81994,-0.48035 7.79958,-0.13214 11.64306,-0.75715 -0.15758,-0.45945 0.95835,0.1567 1.81965,-0.29052 6.31609,-1.10502 12.40954,-3.8566 17.02884,-8.36402 3.13505,-2.48641 7.30622,-2.78693 10.99802,-3.95383 11.3137,3.26356 22.53598,6.7994 33.7283,10.45703 0.24398,-4.97629 -0.2337,-10.47502 -3.69079,-14.36854 -3.53856,-3.35239 -8.93875,-3.91568 -13.39981,-3.80288 6.25911,-3.73613 11.26714,-9.22869 15.82334,-14.83748 5.71265,-8.18883 9.84708,-17.42294 12.9339,-26.8931 2.92972,-8.73847 2.877,-18.13234 2.30484,-27.22782 -0.93872,-8.34563 -4.1719,-16.26887 -7.81257,-23.76983 -0.96795,-1.894 -1.93593,-3.78799 -2.90389,-5.68198 5.44746,-2.33415 11.54591,-1.52541 16.96937,0.50895 1.29822,-0.30746 0.69305,-2.19474 0.82586,-3.1483 -0.0416,-4.90559 -3.18105,-10.01634 -8.22005,-11.01362 -4.91442,-1.3927 -9.60054,1.88408 -12.81796,5.28059 -0.56104,0.6911 -1.88107,1.90938 -2.40204,0.40587 -5.88428,-7.19693 -12.6755,-13.66441 -18.22117,-21.11371 -0.10358,-0.4536 -0.19809,-1.20152 -0.86124,-1.01563 -4.48032,-4.42441 -8.46802,-9.365475 -12.14197,-14.45861 0.46748,-0.313681 2.19893,0.262068 3.14668,0.329351 2.51052,0.531818 5.11892,0.694114 7.61139,1.15834 2.40021,2.400273 2.41308,6.684229 5.41322,8.581319 0.98857,-0.12836 1.72685,-1.46243 2.2504,-2.31634 1.11593,-1.954753 1.60649,-4.262712 2.68476,-6.180345 1.57051,-0.594674 3.90762,-0.438287 4.43868,1.498557 1.05065,1.783512 1.63552,4.522238 3.80182,5.247088 2.6564,-2.01561 2.39193,-5.961298 4.1723,-8.555007 0.92232,-0.963975 2.91411,-0.767085 3.47806,-2.062136 -0.36176,-5.038647 -1.7151,-9.985266 -2.96938,-14.872637 -1.8599,-6.805714 -3.98551,-13.569796 -7.00731,-19.952493 -1.49474,-5.597222 0.29436,-12.031908 -2.9645,-17.186683 -1.09554,-1.880738 -3.40453,-3.759951 -5.6397,-2.536763 -2.27543,1.215419 -3.58721,3.726155 -4.25691,6.138357 -1.14249,-2.915669 -3.16753,-6.487628 -6.73195,-6.530652 -1.82093,-0.192552 -2.774,1.724352 -4.38844,1.986642 -1.50497,-0.106903 -3.24166,-1.000515 -2.7987,-2.792967 0.24662,-5.510419 2.47392,-11.031041 6.22481,-15.083913 2.63828,-2.54524 5.73495,-4.608814 9.12506,-5.983408 1.11161,-0.58498 0.0177,-1.746419 -0.8898,-1.670969 -2.265,-0.518096 -4.60548,-0.429234 -6.91265,-0.470069 z m 1.60579,1.759033 c 0.49594,0.08632 3.14518,-0.119957 1.71558,0.505525 -7.36835,4.083415 -12.10109,12.065218 -12.70163,20.405299 0.45342,2.521845 -2.4934,1.24222 -3.99639,1.576817 -5.13642,0.03364 -10.35665,0.06175 -15.43022,0.629222 -0.53295,-0.745239 0.44303,-2.087852 0.68024,-2.999394 2.14633,-5.542799 5.46211,-10.762044 10.43673,-14.183835 4.90629,-3.74614 11.08301,-5.953906 17.31591,-5.909597 0.65963,-0.03253 1.31966,-0.02213 1.97978,-0.02412 z m -36.10265,5.102145 c -2.31992,3.934397 -4.51835,8.149411 -4.58862,12.834824 -0.16334,2.829884 -0.0616,5.666275 -0.0903,8.498992 -4.51338,2.048568 -8.70658,5.059096 -12.75361,7.628592 -0.4306,-2.090354 0.0947,-4.370958 0.19675,-6.519188 1.03491,-9.223935 7.22368,-17.313168 15.28696,-21.663211 0.35329,-0.08654 2.40231,-1.589412 1.9489,-0.780009 z m 34.16404,19.039511 c 2.93077,0.07768 4.46911,3.895025 4.9363,5.922169 -0.62929,-1.975576 -3.59677,-3.337843 -5.03123,-1.361027 -1.65473,1.740397 -1.91507,4.657461 -0.96072,6.836012 0.78247,2.324027 4.20857,2.876406 5.57449,0.786892 0.59326,-0.763078 0.93263,-1.703193 1.05222,-2.656875 0.24179,4.305026 -0.10465,9.39389 -3.54781,12.458554 -2.15136,1.770852 -4.69224,-0.520088 -5.6374,-2.50361 -1.98819,-4.251487 -1.83227,-9.272958 -0.92809,-13.720626 0.62493,-2.26177 1.77686,-5.476978 4.54224,-5.761489 z m 12.39563,0.15205 c 2.16821,0.0177 2.89145,2.648465 3.7045,4.266073 0.51223,1.127952 0.1359,0.620678 -0.49293,0.09141 -1.53065,-1.653905 -4.1588,-0.683291 -4.94545,1.222635 -1.42264,2.525298 -0.88204,6.734779 2.13533,7.778429 1.84352,0.439548 3.46152,-1.021939 4.2638,-2.542475 -0.14209,3.73897 -0.48758,8.020712 -3.15897,10.896211 -1.12638,1.350957 -3.12363,0.66729 -3.788,-0.799464 -2.58968,-4.713101 -2.90396,-10.631861 -1.60121,-15.845087 0.68328,-1.83778 1.51996,-4.23595 3.41859,-5.056396 0.15492,0.0023 0.30952,-0.01103 0.46434,-0.01103 z m -31.03254,0.05267 c 4.45807,0.01103 9.07629,0.114865 13.25915,1.717868 0.30653,1.126845 -0.93538,2.262809 -0.9882,3.481482 -1.28451,5.619354 -1.23377,12.217576 2.47617,16.947631 1.76145,2.407333 5.67214,2.93167 7.66178,0.518096 1.32617,-1.404562 2.12123,-3.195111 2.99197,-4.893967 0.71344,2.792635 2.47843,6.221774 5.69459,6.46773 2.74204,-0.231615 4.28067,-2.915646 5.36288,-5.130716 4.22288,7.952699 6.21162,16.861891 8.56189,25.511802 0.6489,1.478661 -1.47439,1.287172 -2.28744,1.778487 -9.49891,2.531585 -19.58919,2.439669 -29.32611,1.275244 -7.0126,-1.149554 -14.14101,-2.706408 -20.56388,-5.863607 -0.65854,-0.316736 -1.49608,-0.961937 -0.49048,-1.603111 1.02128,-1.792209 2.61656,-3.355726 3.21118,-5.354386 -1.37961,-1.263291 -3.12534,-2.255682 -4.72927,-3.193252 -2.43249,3.24772 -3.98823,7.207216 -5.85232,10.844 -1.00565,2.120476 -2.07956,4.250602 -3.04583,6.365545 1.20735,1.001776 2.25364,2.179946 3.39341,3.261907 1.05359,-1.573298 1.48198,-3.785602 2.98969,-4.947748 2.92879,-0.0089 5.58578,1.664461 8.3544,2.514542 3.56062,1.524408 7.34358,2.574897 10.80062,4.31348 2.99972,2.319822 4.59671,5.958466 7.13597,8.748799 3.54962,4.76332 7.79981,8.97039 11.27792,13.77903 0.62575,0.73274 0.36973,1.83198 -0.81434,1.38847 -9.54677,0.4481 -19.10074,-0.27802 -28.40383,-2.47552 C 123.4605,111.653 112.59557,108.86052 104.34481,101.68091 95.91078,94.697712 90.184218,83.763856 91.458016,72.645548 c 0.428883,-4.734481 3.064524,-8.91032 5.431144,-12.912465 8.64599,-13.284068 24.64585,-21.139052 40.32451,-21.157799 z m -44.25853,5.6248 c -1.242953,4.919463 0.0345,10.185696 2.19938,14.66249 -2.53132,3.8956 -4.190869,8.24759 -5.657995,12.62324 -0.408629,1.270373 -0.837963,-0.147623 -1.097972,-0.671362 -2.88373,-6.53457 -3.458481,-14.452234 -0.269927,-20.951812 1.326965,-2.407577 3.043836,-4.596907 5.094134,-6.431124 -0.0892,0.256182 -0.17839,0.512385 -0.26762,0.768568 z m 76.60179,-0.295069 c 2.27779,0.88837 2.58817,5.014987 0.21845,5.98737 -2.13936,0.137663 -2.496,-2.857062 -1.93289,-4.380452 0.27116,-0.727357 0.82348,-1.65811 1.71444,-1.606918 z m -11.81919,0.102917 c 2.45154,0.849814 2.65009,5.724526 -0.32484,5.901585 -1.549,-0.57927 -1.10257,-2.821208 -1.0545,-4.139122 0.0992,-0.732048 0.45561,-1.840059 1.37934,-1.762463 z m -28.96702,28.915511 c 0.78504,0.386918 2.03343,1.113854 1.14374,2.074707 -1.04795,1.894947 -2.87385,3.507509 -3.51695,5.559617 1.28763,1.609022 3.66,1.930095 5.46421,2.767471 9.79493,3.368209 20.05237,5.835743 30.48175,5.52569 6.71772,0.0089 13.4492,-0.726494 19.92473,-2.481919 0.91905,0.995889 1.04992,2.747309 1.2078,4.083083 -1.92332,1.259772 -4.47605,1.363551 -6.73109,1.772578 -7.06097,0.678422 -14.28784,1.271878 -21.32948,0.624309 -10.48399,-1.693323 -20.1392,-6.519211 -30.23026,-9.558842 -1.15226,0.847691 -1.96276,2.327081 -2.72549,3.594711 -0.43932,0.706596 -1.0454,0.375319 -0.64165,-0.322535 1.87506,-4.709317 4.06545,-9.531442 6.95269,-13.63887 z m -38.654299,9.428836 c 2.518169,9.504043 8.523029,17.988671 16.561179,23.637811 9.471,7.39109 18.53348,15.28827 26.7435,24.07131 -3.73733,-1.53827 -8.5822,-1.28866 -11.33913,1.9761 -3.60428,3.40945 -4.10404,9.22495 -1.57666,13.40331 2.18714,3.75177 5.76965,6.8248 9.89178,8.22813 3.70265,0.8659 7.67339,0.55248 11.05731,-1.26372 1.8909,-0.52084 3.81243,-2.31588 5.832,-1.66765 1.62458,1.82005 2.0377,4.47888 3.12358,6.64773 2.79264,6.31991 3.46329,13.25906 3.3992,20.08557 0.052,6.13943 -0.8237,12.31711 -2.64099,18.12452 -2.90516,-2.3182 -5.25992,-5.36476 -8.69377,-6.99788 -9.8481,-5.47955 -22.45685,-3.44001 -31.39888,2.89672 -7.43759,5.12795 -11.6194,14.29815 -10.93099,23.26535 0.28364,8.3149 5.42378,16.3228 13.16047,19.57352 3.96868,2.08755 8.55935,2.27496 12.93017,2.73197 5.15261,0.42282 10.28266,-0.30329 15.35092,-1.12382 0.46768,2.07071 0.3041,4.34801 0.99733,6.32479 0.51015,0.64817 1.47877,0.91743 2.08727,1.14829 -7.80469,2.56978 -16.14283,2.33177 -24.26167,2.45952 -8.53931,-0.0412 -16.95395,-2.45656 -24.79131,-5.70083 -1.97886,-0.97147 -4.401949,-1.88772 -5.384652,-3.94353 0.484588,-0.57677 0.05114,-1.33507 -0.687361,-1.13458 -3.066902,-2.84334 -4.857051,-6.78007 -6.811993,-10.41699 -4.035664,-8.70569 -5.60274,-19.20489 -1.939766,-28.27848 1.66444,-3.77492 4.496463,-7.62715 8.548168,-8.87869 4.623854,-0.73986 9.687474,0.46619 13.914794,-2.09633 4.43974,-1.88542 7.88424,-5.78531 9.1243,-10.456 2.40011,-7.34384 0.0562,-15.08623 -1.45866,-22.35444 -3.96759,-16.66041 -13.93182,-31.01161 -19.517153,-47.0728 -2.253488,-8.330827 -2.765603,-17.036401 -1.903151,-25.606725 0.204718,0.805927 0.409447,1.611876 0.614165,2.417824 z m -13.14133,-0.121284 c -0.651695,3.979967 -1.972158,7.954933 -1.360935,12.045165 0.822444,8.01015 6.441557,14.733 12.944527,19.05487 2.531033,1.27394 5.214247,2.79315 6.249467,5.61778 0.14607,0.68376 1.36282,1.95985 0.83587,2.35508 -10.439134,0.75848 -20.617037,-6.91338 -22.894278,-17.07135 -1.485453,-5.445126 -0.472463,-11.116956 0.835364,-16.515119 0.0083,-1.558979 -2.114755,-0.536443 -3.023512,-0.18901 -10.340299,4.627582 -19.490197,11.602165 -27.282125,19.779529 -0.8598,1.23633 -2.01578,2.03704 -3.399832,0.96913 -3.061935,-1.1928 -6.35655,-0.82279 -9.546586,-0.82029 -0.136224,-0.79814 1.356876,-1.65568 1.830742,-2.38044 5.981171,-6.260552 13.217063,-11.195043 21.03679,-14.872573 7.457864,-3.869217 15.425548,-6.84845 23.774508,-7.972884 z M 67.551977,92.347194 C 59.478249,104.3579 56.618932,118.98394 55.247869,133.15797 c -0.215236,2.22008 -0.278457,4.45763 -0.630218,6.66277 -2.367448,-4.4085 -6.398905,-8.2304 -11.391447,-9.35793 -0.696447,-0.13568 -2.578264,-0.47264 -3.895512,-0.3763 -4.225134,0.081 -8.356502,1.81687 -11.431477,4.70642 7.494867,-17.55809 20.417852,-33.12119 37.100251,-42.497924 1.331485,-0.720097 2.672826,-1.42189 4.029056,-2.094559 -0.492183,0.715583 -0.98436,1.431165 -1.476545,2.146747 z m 1.413636,0.979024 c -1.780686,6.137671 -1.243394,12.715912 -0.222627,18.948012 1.938051,9.89334 6.261976,19.05774 9.608796,28.4972 0.07677,0.45902 -1.082761,-0.75498 -1.579131,-0.90953 -6.098414,-4.12916 -15.142655,-2.44554 -19.376905,3.56497 -0.902408,1.71255 -0.701485,-0.37594 -0.700524,-1.32786 0.220349,-11.32465 1.947374,-22.65617 5.084402,-33.51213 1.839088,-5.40168 4.292393,-10.615352 7.246609,-15.49511 z m 109.860017,2.80213 c -0.44308,0.952177 -0.48855,2.570183 -1.4571,3.066301 -1.10102,-1.265548 -1.85004,-2.963983 -2.2154,-4.585176 1.4282,-0.41912 2.91693,-0.573272 4.37932,-0.828059 -0.23562,0.782311 -0.47121,1.564622 -0.70682,2.346934 z m -15.20805,-1.029352 c 1.14609,0.187018 2.65145,-0.219995 3.59014,0.391144 -0.33858,2.082232 -1.35072,4.125775 -2.45899,5.94047 -1.51492,-1.682254 -2.38645,-4.20607 -2.84444,-6.172638 0.55998,-0.14718 1.13694,-0.175288 1.71329,-0.15891 z M 70.086462,97.01929 c -0.347602,9.02311 4.127736,18.29279 12.09025,22.8218 4.335634,2.70344 9.511532,3.19939 14.450918,3.60615 1.88332,0.86918 1.98706,3.46942 3.11158,5.03043 1.15825,2.47482 2.5966,5.19767 3.52656,7.55047 -3.52904,-1.8757 -7.62733,-3.28039 -11.639473,-2.23172 -4.654303,1.02597 -8.337032,4.90519 -9.753814,9.35711 -0.133683,0.93791 -0.976142,-1.50476 -1.212326,-1.8494 -4.39853,-11.9158 -10.263381,-23.7415 -10.897371,-36.62878 -0.122348,-2.72777 -0.150124,-5.515665 0.305377,-8.225635 l 0.0093,0.292655 z m 48.493728,14.96559 c 14.999,5.01448 30.91929,6.89061 46.69579,6.46888 2.22147,-0.40274 3.13599,2.27534 4.62229,3.48769 3.40572,4.03294 7.15545,7.84818 10.08595,12.23959 0.74,1.27343 -1.90055,0.97652 -2.6706,1.46625 -3.10773,0.53814 -6.29658,1.67891 -9.46542,1.1906 -2.29617,-1.2217 -4.7003,-2.73938 -7.44218,-2.36634 -5.14768,0.51074 -9.72255,3.35073 -14.68536,4.45249 -3.96419,-1.18076 -5.95126,-5.26422 -8.75505,-7.99052 -6.48533,-6.87598 -13.32579,-13.41773 -20.43611,-19.64289 0.68355,0.23142 1.36711,0.46284 2.05069,0.69425 z m 73.93348,14.1947 c 4.1012,-0.19719 7.49645,3.27784 8.28435,7.1466 0.21955,0.97606 0.7293,2.06169 0.39648,3.05537 -4.59804,-1.40806 -9.61474,-1.9228 -14.30975,-0.56131 -1.09861,0.24169 -2.4437,0.99363 -3.24521,-0.22441 -0.68565,-0.87069 -1.6346,-1.7635 -1.99808,-2.74838 3.17122,-2.70689 6.40344,-6.66681 10.87221,-6.66787 z m -64.18786,4.73614 c 3.90129,0.0852 7.15682,2.86045 10.14336,5.12521 2.31327,1.98013 4.68283,4.99255 8.11727,4.42142 4.97905,-0.80074 9.40731,-3.78031 14.46235,-4.16428 3.75828,0.073 7.76637,3.10717 7.47193,7.19742 -0.0772,1.86685 -0.40233,3.92825 -1.31757,5.54132 -2.6813,-0.56877 -5.32617,-1.85347 -8.15016,-2.06098 -7.21496,-0.95273 -14.16051,1.84278 -20.67195,4.57894 -3.81884,1.58555 -8.1746,0.6704 -11.46772,-1.6716 -3.67142,-2.55933 -6.60209,-7.03522 -6.1635,-11.60991 0.40748,-3.85283 3.78525,-6.8674 7.57599,-7.35754 z m 52.92907,5.96792 c 2.11054,0.50827 2.36865,3.18445 3.53982,4.72585 2.62534,4.45517 4.64894,9.25501 6.39339,14.11808 0.2912,1.24279 -1.73848,1.09371 -2.51257,1.51558 -8.75825,2.23954 -17.91462,2.3741 -26.89111,1.71257 -2.88816,-0.37965 -5.97436,-0.49567 -8.65817,-1.67154 -1.66733,-2.30605 -3.09058,-4.92225 -3.75597,-7.69838 5.52438,-1.64775 11.4287,-0.67802 16.78981,1.18148 0.8121,0.1952 1.4844,0.73636 2.12616,0.12814 1.80056,-2.24692 1.90634,-5.41251 1.96491,-8.18562 0.0764,-1.21617 -0.41288,-2.47225 -0.67365,-3.53752 1.89662,-0.59591 4.02431,-0.63599 5.96792,-1.2112 1.89532,-0.36719 3.76555,-1.05192 5.70946,-1.07739 z m 9.65187,21.84162 c 2.03077,-0.0432 1.63823,2.61343 2.17992,3.93782 0.8976,4.93399 1.95366,9.97129 1.6012,15.00905 -12.44203,3.31943 -25.74208,3.15007 -38.26544,0.29737 -0.62323,-6.03573 -1.27338,-12.13846 -2.94621,-17.96784 0.0589,-0.84243 2.04456,0.2045 2.70191,0.0246 9.16013,1.63993 18.59233,1.33498 27.78484,0.1235 2.35862,-0.27227 4.60078,-1.17047 6.94378,-1.42451 z M 35.669647,171.04314 c -1.819751,1.43139 -2.838088,3.65856 -3.129217,5.87071 -2.27847,0.53384 -4.671701,-0.30201 -7.00727,0.0133 -4.866452,0.17661 -9.731828,0.97241 -14.292225,2.7193 7.249114,-6.18156 16.692624,-9.34325 26.073379,-10.08989 -0.548218,0.49524 -1.096443,0.99045 -1.644667,1.48571 z m 7.498227,-1.38276 c 3.794384,0.19211 8.067054,0.48767 11.450919,1.49253 -2.677668,0.48658 -4.737339,2.76884 -6.388815,4.80936 -1.430149,2.18661 -1.836082,4.94702 -2.320608,7.37585 -2.381044,-1.51019 -4.694853,-3.2896 -7.391861,-4.30039 -1.402054,-0.73546 -4.155555,-0.90255 -3.970995,-3.04686 0.953425,-3.17572 4.103131,-5.30069 7.164263,-6.1761 0.479196,-0.10382 0.967871,-0.14098 1.457097,-0.15448 z m 15.771893,2.45899 c 5.183262,0.5331 9.916705,3.1051 14.412216,5.62158 0.879609,0.7763 4.998327,2.25985 1.890053,2.16535 -8.661784,0.61142 -15.683382,8.89423 -15.800177,17.41493 -0.356948,1.94616 -0.249505,3.92315 -0.115505,5.87644 -3.348074,-5.78676 -6.743271,-11.56397 -10.572546,-17.03799 -1.539034,-4.46186 0.241832,-10.09038 4.550858,-12.3865 1.723035,-0.94553 3.67104,-1.53907 5.635105,-1.65381 z m 135.514793,8.18216 c -0.43422,7.42532 -2.40763,14.81614 -5.28284,21.70323 -0.64769,1.44586 -1.48218,3.38276 -3.4585,2.92961 -8.36635,0.52775 -16.95119,-0.0222 -24.87504,-3.00883 -2.49354,-1.03685 -5.20783,-1.7349 -7.48776,-3.18496 -1.00714,-2.1701 0.39159,-4.64201 0.61968,-6.88468 0.92414,-3.64034 1.35894,-7.38171 1.91708,-11.07516 0.21313,-1.51389 2.14859,-0.15404 3.15622,-0.27355 9.26212,1.7084 18.79743,1.68573 28.14617,0.77284 2.44114,-0.29166 4.82567,-0.91883 7.25126,-1.30902 l 0.0107,0.29253 z m -116.992247,1.42852 c 3.584368,0.091 6.682428,2.22509 9.769654,3.80514 1.055376,0.62254 -0.930319,0.92084 -1.238642,1.44338 -6.183613,4.81128 -9.418356,12.88408 -9.235553,20.62014 0.467622,9.71162 3.820362,19.37765 9.699888,27.14389 0.397891,0.58194 2.4499,2.63278 0.820046,1.57718 -9.656948,-4.81333 -16.034783,-13.93362 -21.708377,-22.75594 -2.307461,-3.46999 -4.716286,-7.23849 -4.485084,-11.59453 -0.472048,-6.38104 1.549917,-13.3683 6.841084,-17.30228 2.699367,-2.12504 6.180316,-2.90018 9.536984,-2.93698 z m 52.328617,5.73574 c 6.65026,-0.18657 13.35305,2.44631 17.79855,7.43876 5.25809,5.20317 7.92958,12.73451 6.83716,20.10431 -0.91873,7.4739 -4.38733,14.3054 -6.74907,21.35552 0.43198,1.52845 2.56476,1.54515 3.804,2.0221 5.59657,1.39875 11.39374,-0.0222 17.07455,0.38756 4.91562,-0.32298 9.36521,3.44954 11.02551,7.91014 0.57291,1.78304 0.72386,3.68191 0.41058,5.53103 -11.337,-3.7239 -22.75675,-7.19593 -34.21551,-10.50735 -1.26073,-0.28236 -2.28546,-0.91486 -1.87301,-2.38908 0.0816,-1.83304 -0.33346,-3.63782 -0.54595,-5.4214 -4.35456,0.32431 -8.69042,1.16815 -13.10017,1.05224 -6.30626,0.0177 -13.00027,0.13368 -18.50089,-3.46674 -6.73112,-3.92555 -10.36492,-11.96536 -9.67007,-19.61809 -0.23359,-9.38663 6.38075,-17.85883 14.67505,-21.6209 4.02882,-1.87694 8.5729,-2.79948 13.02927,-2.7781 z m 27.74435,15.29384 c 9.3709,3.57904 19.61775,5.40438 29.62692,4.02016 -4.77932,10.22728 -11.24143,20.09996 -20.6876,26.54118 -2.91974,1.92338 -5.99955,4.53509 -9.76226,3.91445 -2.22486,-0.2118 -4.64338,-0.3774 -6.72331,-1.19012 2.64016,-8.73939 7.2499,-17.36236 6.51232,-26.75619 -0.38935,-2.65353 -0.82629,-5.39965 -2.09871,-7.7933 1.04422,0.42127 2.08842,0.84253 3.13264,1.26382 z m -45.33478,44.3523 c 7.51205,1.02079 15.14652,0.95293 22.69598,0.60388 0.12505,0.46963 -1.24576,1.38352 -1.93485,1.85731 -5.50182,3.46864 -11.81763,5.89268 -18.38263,5.89691 -2.80447,0.20207 -5.63659,0.0107 -8.39103,-0.40124 -1.44868,0.67643 -1.16221,2.81375 -1.70528,4.07508 -1.14464,3.96432 -1.05407,8.12791 -0.25438,12.14493 0.4396,2.81557 0.57719,6.4252 -2.18517,8.14808 -2.67941,1.67867 -5.85843,2.58278 -8.95191,3.04802 -1.073069,-0.56463 -0.0783,-2.19784 0.0489,-3.12559 2.84849,-8.53433 6.08362,-17.08664 7.84843,-25.93061 2.68439,-0.9332 5.29282,-2.06136 7.96602,-3.01712 0.33281,-1.2854 -0.0332,-2.69948 -0.42775,-3.96758 1.22454,0.22263 2.44907,0.44528 3.67361,0.66793 z"
       id="path890" />
  </g>
</svg>
