<?xml version="1.0" encoding="UTF-8" standalone="no"?>
<svg
   xmlns:dc="http://purl.org/dc/elements/1.1/"
   xmlns:cc="http://creativecommons.org/ns#"
   xmlns:rdf="http://www.w3.org/1999/02/22-rdf-syntax-ns#"
   xmlns:svg="http://www.w3.org/2000/svg"
   xmlns="http://www.w3.org/2000/svg"
   id="svg861"
   version="1.1"
   viewBox="0 0 210 297"
   height="297mm"
   width="210mm">
  <title
     id="title1444">Cute Butterfly</title>
  <defs
     id="defs855" />
  <metadata
     id="metadata858">
    <rdf:RDF>
      <cc:Work
         rdf:about="">
        <dc:format>image/svg+xml</dc:format>
        <dc:type
           rdf:resource="http://purl.org/dc/dcmitype/StillImage" />
        <dc:title>Cute Butterfly</dc:title>
        <dc:source>http://www.supercoloring.com/coloring-pages/cute-butterfly-with-happy-smile</dc:source>
        <dc:creator>
          <cc:Agent>
            <dc:title>Coloring books: Cute Butterflies</dc:title>
          </cc:Agent>
        </dc:creator>
        <dc:date>2020-04-02</dc:date>
        <dc:subject>
          <rdf:Bag>
            <rdf:li>landscape</rdf:li>
            <rdf:li>csk</rdf:li>
            <rdf:li>insects</rdf:li>
          </rdf:Bag>
        </dc:subject>
      </cc:Work>
    </rdf:RDF>
  </metadata>
  <g
     id="layer1">
    <path
       id="path1431"
       d="m 203.96477,291.1498 c 0.0664,-0.0296 0.13037,-0.17262 0.19146,-0.40022 0.80726,-1.70318 1.50369,-21.81457 0.99226,-29.51556 -1.06422,-16.02529 -4.01623,-28.33973 -10.01121,-41.77752 -1.999,-4.47841 -4.24971,-8.72186 -6.75534,-12.7515 -0.73563,-1.25863 -1.48149,-2.38892 -2.35104,-3.60853 -11.94202,-17.47167 -29.16084,-30.60516 -52.69782,-40.34127 l -8.6349,-3.57226 3.906,-1.27383 c 8.55623,-2.79082 20.38846,-1.90079 35.37703,2.66161 11.28362,3.43462 17.89845,7.32144 19.72297,11.56435 0.0706,0.19168 0.14027,0.38382 0.19887,0.58209 0.10261,0.34777 0.17,0.54626 0.2497,0.80024 0.19164,0.81336 0.3297,1.21782 0.49339,1.20278 0.0474,0.0272 0.091,-0.0104 0.13299,-0.0787 0.0907,-0.0982 0.19364,-0.27617 0.32176,-0.53521 0.34893,-0.70553 0.10806,-2.17286 -0.62914,-3.82897 -2.43697,-5.47488 -12.18408,-10.81707 -25.2118,-13.81817 -12.9425,-2.98146 -24.02565,-2.84116 -33.19188,0.42014 -2.57156,0.91495 -3.76233,1.32306 -4.29717,1.25053 -0.17376,-0.15309 -0.306,-0.37869 -0.40456,-0.6921 0.001,-0.12408 0.007,-0.25468 0.0185,-0.41143 0.0642,-0.85848 -0.0403,-2.75603 -0.23211,-4.21709 l -0.28159,-2.14548 c 0.0271,-0.20657 0.0534,-0.4138 0.0928,-0.57468 l 3.90972,-1.57376 c 5.48779,-2.20814 8.14392,-4.77836 13.61328,-13.17297 6.04376,-9.27623 8.89206,-12.05861 14.46765,-14.13147 4.4262,-1.64552 8.38851,-1.85152 13.43981,-0.69872 1.90286,0.43426 2.95905,0.4701 3.186,0.25067 l 0.40963,0.071 -0.37216,-0.15353 c 0.0347,-0.21504 -0.48201,-0.58365 -1.46428,-1.02823 -0.50965,-0.23067 -1.10537,-0.47599 -1.88656,-0.74085 -5.86823,-1.98957 -11.00598,-1.95078 -15.61982,0.11649 -5.43676,2.43661 -8.30802,5.76875 -15.66102,18.17805 -2.82239,4.76317 -6.46812,8.24911 -10.61837,10.16688 l -2.90296,1.29724 c -0.61355,-0.0459 -1.0494,-0.39126 -1.63661,-1.2329 l -0.40413,-0.90792 c -0.62344,-1.40061 -1.76039,-3.29443 -2.52681,-4.20787 l -1.21208,-1.44291 c 0.0215,-0.14556 0.13305,-0.31526 0.37009,-0.53993 l 2.669,-1.56182 c 47.09077,-27.5449 69.79551,-65.233039 66.96901,-111.162079 -0.39476,-6.414456 -2.30964,-19.2070529 -3.1618,-21.1214952 -0.0406,-0.09132 -0.0788,-0.1580039 -0.11778,-0.2331693 -0.0149,-0.04048 -0.0323,-0.10392 -0.0461,-0.1349728 l -4.7e-4,-0.00106 c -0.005,-0.010782 -0.0116,-0.014323 -0.0161,-0.023632 -0.001,-0.00323 -0.006,-0.026043 -0.007,-0.029003 -0.0128,-0.028748 -0.0337,-0.04223 -0.0536,-0.057346 -0.008,-0.00794 -0.0149,-0.016921 -0.0229,-0.023356 0,0 -4.6e-4,-0.00106 -4.6e-4,-0.00106 0,0 -0.001,5.176e-4 -0.001,5.176e-4 -0.009,-0.00739 -0.0201,-0.00761 -0.0293,-0.01219 -0.41992,-0.5410072 -0.86373,-0.058787 -2.01443,1.8906752 -0.64837,1.0984323 -3.14918,4.2878035 -5.55719,7.0880365 -11.73792,13.649656 -31.47835,26.356022 -52.7167,33.931697 -5.66639,2.021196 -13.34886,4.774704 -17.07218,6.119367 -23.051667,8.32515 -36.784899,22.113169 -37.377388,37.525499 -0.104481,2.717584 0.51739,7.845551 1.512559,12.465761 1.166231,5.41427 1.924495,9.5773 2.206226,12.5742 0.273925,4.16213 -0.458134,6.03879 -2.315495,5.72769 -2.079302,-0.6772 -5.557966,-3.89444 -10.715658,-9.43887 C 47.258564,102.11469 39.134372,97.989373 25.606101,97.322873 20.707105,97.081531 7.7861458,98.203081 5.9263365,99.03092 l -0.6029301,0.268377 -0.027449,0.0046 0.00599,0.005 -0.6251365,0.27826 2.324867,1.653173 c 1.8594862,1.32257 2.7190633,2.55323 4.2964011,6.15162 1.495474,3.41063 2.117583,6.74377 1.912682,10.64406 -0.0069,0.10564 -0.01088,0.20362 -0.0185,0.31063 3.54e-4,0.003 -9.35e-4,0.009 -0.0015,0.0136 -0.02677,0.37582 -0.06012,0.76414 -0.09467,1.15235 -0.142924,1.41409 -0.382974,2.90482 -0.724971,4.5045 -1.278905,5.98222 -1.400321,8.8047 -0.126436,12.51072 0.472743,2.03082 1.298672,3.85957 2.500731,5.6181 1.060934,1.9099 2.116403,3.02568 4.385867,4.97496 4.328652,3.71799 11.692752,6.98358 18.305374,8.11855 3.072885,0.52742 4.014464,0.79592 3.814711,1.2826 l -0.108773,0.16746 c -0.05973,0.074 -0.131483,0.15173 -0.227669,0.23712 -1.650132,1.46527 -4.884335,8.1031 -5.348752,10.97829 -0.280354,1.73568 -1.197782,3.39924 -2.672603,4.84362 -3.261873,3.19454 -5.084483,5.98104 -7.191547,10.99632 -0.04379,0.10447 -0.08138,0.20626 -0.12386,0.30993 -0.276437,0.64466 -0.521174,1.2693 -0.709439,1.85019 -0.124688,0.38469 -0.235124,0.76951 -0.339194,1.1534 -5.87e-4,0.001 -0.0017,0.005 -0.0023,0.006 -0.0096,0.0341 -0.01638,0.0685 -0.02579,0.10251 -0.06053,0.22744 -0.120531,0.45428 -0.173766,0.68215 -1.089179,4.45729 -0.768114,8.95387 0.92331,15.82207 2.830436,11.49319 1.973325,19.37982 -2.804672,25.82126 l -1.432211,1.93113 c -0.101439,0.11152 -0.177894,0.2144 -0.227356,0.30701 l -0.833106,1.12262 2.263121,-0.0708 c 9.072758,-0.28467 22.315239,-3.563 28.199293,-6.98148 8.416522,-4.88979 13.167505,-9.99092 21.099056,-22.64964 4.755859,-7.5904 7.434094,-11.23949 9.703804,-13.2248 1.015598,-0.88835 1.254109,-0.80466 1.896934,0.67606 1.051472,2.41684 1.083529,8.32803 0.09415,17.01013 -1.126561,9.88601 -1.122757,15.32164 0.01261,20.29304 2.438931,10.67923 10.073046,18.69174 22.804633,23.93508 6.52873,2.68876 13.92357,4.30871 26.60387,5.83032 13.60198,1.63222 25.02701,4.2906 35.16888,8.28006 1.04039,0.41413 2.06699,0.8376 3.07969,1.2668 6.88346,2.97047 13.18879,6.60157 19.20982,11.00597 2.96534,2.16911 7.21457,6.00132 9.44299,8.51717 0.86215,0.97338 1.66275,1.79067 2.37986,2.48127 0.2464,0.30357 0.47566,0.572 0.70016,0.81815 0.0351,0.0662 0.0846,0.14197 0.11234,0.20198 0.45526,0.98558 0.6468,1.21305 0.89636,0.7714 0.15995,0.11303 0.28017,0.16369 0.34435,0.13513 z m -1.90639,-5.72024 c -0.0433,0.0249 -0.0909,0.0275 -0.13993,0.0189 l -1.31088,-1.4101 c -3.17227,-3.40985 -12.17273,-10.27774 -17.86434,-13.63208 -11.63544,-6.85738 -28.93798,-12.45342 -44.65744,-14.44314 -13.59239,-1.72049 -21.86935,-3.1631 -28.0703,-5.15239 -0.38869,-0.13409 -0.77376,-0.25745 -1.16783,-0.39997 -1.36729,-0.49455 -2.65655,-1.00594 -3.88123,-1.5358 -1.8855,-0.85906 -3.63227,-1.81469 -5.371949,-2.91907 -6.727816,-4.27087 -10.038951,-8.18718 -12.608395,-14.91459 -2.582212,-6.76093 -2.8012,-10.04543 -1.501329,-22.48638 1.711725,-16.38302 0.787709,-22.3489 -3.563212,-21.36281 -0.277965,0.0398 -0.568789,0.12275 -0.874517,0.25901 -0.02409,0.0104 -0.05542,0.0323 -0.08083,0.0449 -0.101716,0.0415 -0.202115,0.0811 -0.3071,0.12784 -2.448269,1.08976 -5.643489,5.18091 -11.435396,14.64375 -2.544062,4.15643 -6.193557,9.38546 -8.109349,11.62045 -3.816568,4.45254 -8.239701,7.92785 -13.422066,10.50766 -1.148263,0.52251 -2.355937,1.03576 -3.6642,1.54971 -1.56501,0.61519 -3.347676,1.2223 -5.180485,1.78233 -0.0044,0.001 -0.0078,0.002 -0.01273,0.005 -2.747487,0.75471 -5.661043,1.3401 -8.773468,1.74645 l -4.36909,0.56995 c -0.03698,-0.0415 -0.06925,-0.0876 -0.09402,-0.13869 l 1.696779,-4.41909 c 2.469421,-6.4313 2.551786,-13.4682 0.266044,-22.63608 -2.102221,-8.43182 -1.998334,-12.87495 0.435571,-18.63192 l 0.0011,-4.8e-4 c 0.9029,-2.13564 2.920513,-5.44977 4.483452,-7.36469 l 2.657411,-3.25488 c 0.09081,-0.0316 0.176844,-0.0482 0.259407,-0.0525 l 0.663739,1.47977 c 0.05901,0.13181 0.136708,0.27412 0.222656,0.42168 0.511727,1.0478 1.499458,2.32641 2.263622,2.90262 1.251155,0.94342 1.431681,1.5259 1.385153,4.61527 -0.01188,0.29737 -0.01157,0.59892 0.0035,0.90425 0.0453,2.39983 0.532644,4.26162 1.864551,7.26487 2.199752,4.95899 2.795086,9.63051 1.964715,15.41591 l -0.549755,3.82871 3.777405,0.0603 c 2.205728,0.0351 4.711107,-0.41695 7.176924,-1.2192 1.693413,-0.47451 3.262501,-1.13509 4.786937,-2.04681 1.567669,-0.84463 3.0123,-1.8133 4.211971,-2.87305 1.651215,-1.45856 5.56019,-6.33411 8.686115,-10.83417 7.98285,-11.49195 9.604906,-13.37116 12.745946,-14.76929 1.099469,-0.4894 1.840252,-0.74152 2.475813,-0.76606 5.09e-4,-2e-5 0.0012,6.7e-4 0.0015,5.9e-4 0.338779,0.0417 0.665321,0.1069 0.966423,0.19283 0.122868,0.0376 0.232492,0.0769 0.344086,0.11569 0.183003,0.0908 0.370606,0.19521 0.573406,0.32575 2.70036,1.73837 4.642601,8.08776 4.822314,15.76235 0.282163,12.04703 0.647906,14.03113 3.968873,21.52243 2.535418,5.72163 3.609338,7.48453 6.350958,10.43389 0.0555,0.0598 0.10493,0.10285 0.16001,0.16116 0.59548,0.69174 1.17864,1.25035 1.77179,1.69078 0.2142,0.18073 0.42991,0.36656 0.62742,0.51312 0.0193,0.0145 0.0393,0.0299 0.0588,0.0438 0.76724,0.561 1.39859,0.85634 1.85988,0.87594 l 0.24631,0.12557 0.035,-0.15412 c 0.44419,-0.12072 0.65228,-0.60892 0.55237,-1.50167 -0.21365,-1.90875 2.34765,-8.19748 3.95357,-9.70626 2.73526,-2.5698 5.05721,-1.60984 11.34008,4.68653 6.59888,6.61303 18.91229,12.05785 28.10559,12.4279 4.8917,0.19691 6.14603,-0.0162 9.93395,-1.68058 5.47187,-2.40599 8.17959,-5.315 10.79093,-11.5877 2.20066,-5.28626 2.90007,-13.82924 1.6145,-19.7419 -0.21868,-1.00579 -0.72312,-2.45749 -1.36224,-4.06684 -0.82481,-2.46629 -1.9049,-4.84926 -3.24493,-7.07605 -0.98281,-1.89257 -1.94521,-3.55238 -2.68373,-4.50062 -2.11754,-2.7189 4.05483,3.10325 8.51874,8.03538 7.87079,8.69643 11.27627,14.08519 16.79272,26.57329 2.01394,4.5576 3.26121,7.52152 4.19126,10.15202 0.54374,1.65407 1.04483,3.32176 1.50913,5.00388 0.31454,1.23989 0.61908,2.55525 0.95175,4.10397 2.04823,9.53511 3.23799,22.07954 3.21932,32.37849 -0.0212,1.04073 -0.0429,2.08113 -0.0836,3.13966 -0.0751,1.953 -0.14259,3.39637 -0.21321,4.66032 -0.0436,0.53801 -0.0873,1.07748 -0.14104,1.58598 l -0.25474,2.4094 c -0.0854,0.33676 -0.1819,0.52616 -0.2973,0.59014 z m -12.86326,-19.60738 0.072,-0.21256 0.0347,0.0573 0.49335,-1.62799 1.22154,-3.62794 c 2.13414,-6.33736 3.07979,-12.77953 2.65137,-18.06984 -0.54519,-6.73246 -3.14219,-10.43853 -8.47828,-12.09937 -4.11051,-1.2794 -6.83785,-0.47363 -11.59901,3.42835 -5.23505,4.29035 -10.23112,6.42994 -15.92754,6.81948 -2.48688,0.17006 -4.81671,0.40839 -5.17638,0.5303 -1.23665,0.41892 -1.44861,2.3 -0.50007,4.431 1.4404,3.23597 5.02378,5.01775 12.61171,6.2695 12.6647,2.0893 18.71683,5.14984 22.95828,11.60825 l 1.22944,1.87196 0.0349,0.0754 0.005,-0.0148 z m -0.53008,-4.81104 -1.93943,-2.10193 c -4.3291,-4.69183 -10.63216,-7.36043 -21.29016,-9.01178 -6.36818,-0.98667 -10.60692,-2.89472 -11.65389,-5.24684 -0.28608,-0.64268 -0.47713,-1.08898 -0.47898,-1.3968 0.025,-0.30596 0.30268,-0.47892 0.9695,-0.60233 0.60553,-0.0696 1.50954,-0.0715 2.89466,-0.0578 2.35422,0.0232 5.03169,-0.55425 7.80381,-1.62562 1.65481,-0.58479 3.27784,-1.3706 4.92677,-2.38061 1.59728,-0.92569 3.18383,-1.99058 4.7145,-3.18772 1.85426,-1.45025 2.98661,-2.32724 3.85314,-2.86452 0.5675,-0.2996 1.10701,-0.52832 1.62966,-0.69186 0.57787,-0.115 1.18195,-0.10887 2.06676,-0.0715 4.22311,0.17836 6.46485,1.76682 8.20683,5.81239 1.89455,4.3999 1.92369,9.34585 0.10204,17.52181 l -0.98578,4.4218 c -0.29735,0.7708 -0.58106,1.30754 -0.81951,1.48339 z M 146.9905,250.56443 c 0.24395,-0.10863 0.48786,-0.3498 0.7174,-0.66231 1.44582,-1.1734 1.82123,-3.55651 0.60437,-6.23163 -1.07029,-2.35271 -4.78607,-5.41937 -7.35195,-6.06834 -0.0443,-0.0116 -0.0791,-0.016 -0.12245,-0.0267 -0.21035,-0.0607 -0.41459,-0.10354 -0.6146,-0.13524 -0.0217,-0.003 -0.0453,-0.0119 -0.067,-0.0149 -1.18253,-0.22853 -1.96829,-0.17649 -2.55522,0.25115 -0.51103,0.2547 -0.75907,0.75326 -1.16774,1.8176 -1.1e-4,2.9e-4 6.4e-4,8.8e-4 5.2e-4,0.001 -0.008,0.02 -0.0117,0.0395 -0.0186,0.0588 -0.0371,0.10296 -0.0707,0.20779 -0.0972,0.31626 -0.013,0.0528 -0.0207,0.10817 -0.0314,0.16227 -0.0133,0.0691 -0.0264,0.13813 -0.0358,0.2091 -0.0125,0.0911 -0.0209,0.18398 -0.0274,0.27819 -0.002,0.0242 -0.003,0.0479 -0.005,0.072 -0.0934,1.81164 0.90022,4.17093 2.60188,6.11905 1.60375,1.97104 3.7224,3.56909 5.71755,3.89362 0.58513,0.0952 1.11835,0.0825 1.60514,-0.005 0.36868,0.0502 0.666,0.0451 0.84668,-0.0353 z m -0.8205,-2.14216 c -0.22417,0.0998 -0.47536,0.14932 -0.74412,0.16191 -0.28147,-0.0801 -0.59388,-0.1808 -1.03847,-0.33576 -2.84412,-0.99138 -4.79927,-2.95037 -5.79381,-5.80429 -0.37716,-1.08232 -0.53058,-2.13049 -0.40638,-2.59251 0.0666,-0.11187 0.14509,-0.20846 0.22916,-0.29661 1.07983,-0.72388 3.29519,0.0522 5.40294,1.92246 0.62398,0.55368 1.13557,1.05823 1.56224,1.53761 0.28269,0.45672 0.55081,0.93572 0.78376,1.45575 0.34235,0.76627 0.60158,1.35433 0.77493,1.81946 0.0126,0.37401 -0.0119,0.75512 -0.0989,1.15845 -0.067,0.31029 -0.12402,0.54246 -0.18748,0.73306 -0.13746,0.0777 -0.29495,0.15652 -0.48374,0.24056 z m -15.79619,2.33699 c 2.00493,-0.76955 3.17975,-2.71497 2.73381,-5.8887 -2e-5,-0.002 -3.1e-4,-0.003 4.5e-4,-0.008 -0.006,-0.0534 -0.02,-0.10945 -0.0265,-0.16324 -0.0288,-0.18453 -0.0508,-0.36338 -0.0907,-0.55603 -0.10655,-0.56798 -0.27239,-1.1497 -0.48875,-1.73964 -0.0631,-0.18779 -0.11488,-0.36811 -0.18725,-0.56206 -1.06171,-2.84847 -2.1354,-4.54331 -4.21279,-6.64943 -3.09091,-3.1336 -8.73041,-5.76005 -11.04919,-5.14641 -2.08516,0.55182 -3.38702,1.81327 -3.86287,3.60385 -0.40692,1.16484 -0.34354,2.58157 0.19267,4.30465 0.2043,0.74414 0.48005,1.52227 0.8478,2.33864 3.78282,8.398 11.84406,12.11551 16.14393,10.46527 z m -1.04004,-1.74206 c -0.10656,0.0486 -0.20762,0.0814 -0.31108,0.11894 -3.9936,0.77764 -10.81323,-4.57891 -13.31608,-9.6982 -0.18603,-0.40086 -0.34914,-0.79577 -0.50011,-1.183 -0.33725,-0.95056 -0.5071,-1.87507 -0.44944,-2.73014 0.19797,-2.9363 2.89553,-4.05198 6.39695,-2.64441 5.22241,2.0994 9.74267,8.34892 10.20141,12.48879 0.0884,1.22957 -0.17084,2.27567 -0.84204,2.98022 -0.17842,0.12032 -0.37598,0.24161 -0.60818,0.37297 -0.20018,0.11303 -0.38957,0.2119 -0.57153,0.29493 z m 32.71808,-17.07229 c -10.03841,4.4683 -27.73451,-1.27373 -38.05252,-12.34594 -3.0641,-3.28807 -6.44959,-5.02948 -8.93364,-4.59567 -2.3942,0.41807 -5.05807,3.67412 -6.54392,7.99763 l -1.26721,3.68887 c -0.0567,0.0399 -0.11299,0.0632 -0.16919,0.0791 l -1.14111,-1.14826 c -2.13585,-2.14993 -7.00268,-10.46963 -7.881824,-13.4737 -1.625336,-5.55383 -2.176934,-9.50016 -2.171262,-15.53396 0.0071,-7.48813 -0.627655,-11.21229 -2.624465,-15.20904 -0.492139,-1.09709 -1.052208,-2.04106 -1.673459,-2.82232 -0.105395,-0.14119 -0.212576,-0.27273 -0.319193,-0.40253 -2.049872,-2.4951 -4.343896,-2.90165 -7.468042,-1.45403 -1.719919,0.79686 -3.473295,2.2695 -5.741001,4.93264 -0.02855,0.0348 -0.06016,0.0688 -0.0883,0.10377 -0.0076,0.008 -0.02066,0.0275 -0.02741,0.036 -2.006676,2.37406 -4.409946,5.65785 -7.593588,10.33527 -6.043302,8.87886 -9.191249,12.05304 -14.144092,14.25766 -3.088494,1.37474 -9.979915,2.76621 -10.286691,2.07701 -0.04427,-0.0995 -0.01865,-2.73742 0.05811,-5.86109 0.123883,-5.03978 -0.125433,-6.37748 -2.216872,-11.87786 -0.386135,-1.01572 -0.708396,-1.91307 -0.982008,-2.7283 -1.43e-4,-3.8e-4 -4.1e-4,-7.8e-4 -4.69e-4,-0.001 -0.516457,-1.59408 -0.85226,-2.91698 -1.024557,-3.98756 -0.0752,-0.60238 -0.08481,-1.11371 -0.01645,-1.53408 0.382166,-2.3495 0.638753,-2.53699 2.774056,-2.03978 2.938612,0.68422 7.346635,-1.96321 13.417495,-8.05841 5.677651,-5.70041 9.941424,-9.28986 7.501135,-6.38813 l -0.04714,0.0545 c -0.0095,0.0118 -0.02064,0.0282 -0.03107,0.0403 -0.117564,0.1382 -0.169671,0.2126 -0.315881,0.3786 -1.580146,1.79267 -2.674997,5.34198 -2.541278,7.6706 -0.01503,0.40903 0.01504,0.74775 0.110798,0.96289 0.02291,0.0515 0.05956,0.0922 0.08647,0.14076 0.02874,0.0845 0.05316,0.17291 0.08728,0.24955 1.024686,2.30204 6.744442,0.83507 9.935671,-2.54796 0.905411,-0.95982 2.257317,-3.33568 3.003651,-5.2794 0.746327,-1.94372 1.515525,-3.1782 1.708642,-2.74434 0.193107,0.43382 1.390462,2.00443 2.660934,3.49017 1.221634,1.42858 2.63138,2.49935 5.226241,3.8435 0.08996,0.0508 0.177604,0.0989 0.267618,0.14829 0.304701,0.16846 0.607897,0.32465 0.906704,0.46439 0.402603,0.19726 0.8013,0.38651 1.185584,0.54049 0.6983,0.32383 1.44591,0.66204 2.286319,1.03189 1.236316,0.54414 2.480838,1.04589 3.672895,1.49553 0.126924,0.0649 0.287506,0.13951 0.399843,0.20005 1.006084,0.54206 2.631976,1.03384 4.130959,1.29162 0.875247,0.22972 1.597418,0.37242 2.043107,0.37858 1.99273,0.0275 3.37949,0.63558 5.38552,2.36142 1.31876,1.13454 2.6791,1.96649 3.25048,2.01535 l 0.10547,0.0733 0.0365,-0.0848 c 0.0112,-0.003 0.0305,0.001 0.0405,-0.003 0.006,-0.002 0.0131,-0.0134 0.0193,-0.0162 l 0.25525,0.13 0.50491,-1.17115 c 0.39208,-0.70153 0.83486,-1.65533 1.22234,-2.70149 0.12731,-0.34379 0.26553,-0.67012 0.40785,-0.98655 0.46621,-0.92987 0.98059,-1.77577 1.46494,-2.41748 0.27182,-0.30693 0.53805,-0.53629 0.78129,-0.64457 0.7603,-0.33842 1.73835,-1.14317 2.17358,-1.7879 0.62152,-0.92074 1.70654,-1.25753 5.06046,-1.57072 4.76493,-0.44496 5.06742,-0.65766 2.66376,-5.3101 -0.0212,-0.0391 -0.0411,-0.0838 -0.0614,-0.11819 -0.1404,-0.27102 -0.25386,-0.49774 -0.41184,-0.79948 -1.00711,-1.92316 -1.68287,-3.59123 -1.59128,-3.90192 0.19209,-0.006 0.59022,0.0875 1.1384,0.25208 1.51863,0.50884 4.44849,1.63513 7.77554,3.00977 21.44961,8.86231 34.91531,19.51621 40.4518,32.00922 2.81125,6.34044 3.62247,13.02728 2.70618,18.96248 -1.7e-4,0.003 -0.002,0.006 -0.002,0.0104 -0.0508,0.32795 -0.11083,0.65222 -0.17204,0.97538 -0.0759,0.39224 -0.15698,0.78313 -0.24841,1.17179 -0.005,0.0224 -0.009,0.0456 -0.0145,0.068 -0.069,0.29014 -0.14385,0.57929 -0.22158,0.86723 -0.0191,0.0708 -0.0385,0.14161 -0.0582,0.21208 -0.0694,0.2494 -0.14247,0.49786 -0.21841,0.74543 -0.0533,0.17187 -0.1084,0.34309 -0.16502,0.51304 -0.0451,0.13824 -0.0909,0.27544 -0.1382,0.41293 -1.89169,5.37515 -5.41288,9.6922 -10.30197,11.86844 z m -0.72167,-14.74001 c 1.38165,-0.68212 2.41424,-1.7461 2.97533,-3.20741 0.60817,-1.58385 0.6602,-2.53437 -0.0161,-4.64083 -0.4605,-1.99472 -1.46384,-4.07301 -2.86956,-6.12592 -5.40947,-8.23736 -16.83236,-15.74635 -25.54166,-16.12556 -4.37936,-0.19067 -5.47695,0.19128 -7.37772,2.56717 -3.74997,4.68733 0.36305,13.09376 10.26257,20.97359 8.24651,6.56407 17.63269,8.99497 22.56718,6.55895 z m -1.01828,-1.63976 c -2.11885,1.00621 -5.37322,0.75496 -9.80184,-0.75261 -5.99497,-2.0408 -12.0373,-6.15457 -16.33713,-11.12266 -4.84501,-5.59798 -6.38146,-10.67995 -3.95698,-13.08852 1.56798,-1.55772 1.53665,-1.54865 4.96842,-1.52273 9.08133,0.0686 22.22644,9.09493 26.23608,18.01586 0.76832,1.7096 1.21443,3.04039 1.34369,4.13529 -0.016,1.03307 -0.23147,2.00406 -0.63059,2.81051 -0.15263,0.21531 -0.33094,0.42438 -0.53546,0.62756 -0.36852,0.36609 -0.79722,0.6651 -1.28619,0.8973 z m -52.11211,-35.4304 c -0.0682,0.0418 -0.12899,0.0587 -0.18099,0.0526 -1.2267,-0.16634 -3.93906,-3.44275 -5.57725,-6.13868 -0.0326,-0.0618 -0.0723,-0.12514 -0.10389,-0.18616 l -0.66443,-1.25685 c -0.46415,-1.1574 -0.52963,-1.78709 0.057,-2.16177 0.65848,-0.12454 1.95741,-0.28916 3.33261,-0.4138 3.03028,-0.2746 3.30302,-0.40045 3.92917,-1.8162 0.33127,-0.74889 0.83083,-1.26093 1.55439,-1.59068 0.0929,-0.0285 0.1826,-0.0587 0.28146,-0.0848 0.22393,-0.0591 0.42573,-0.12062 0.61194,-0.18843 0.0819,-0.0235 0.16109,-0.05 0.23708,-0.0775 1.43157,-0.32646 1.93995,-0.94329 2.82862,-3.37029 0.60878,-1.66264 1.31583,-3.11692 1.57186,-3.23089 0.71469,-0.31812 2.67397,1.40136 4.37137,3.62765 0.11384,0.15808 0.22698,0.30993 0.34068,0.47275 0.0671,0.0925 0.13194,0.18629 0.19757,0.28026 0.21295,0.31087 0.41562,0.62666 0.61908,0.94105 0.1501,0.24161 0.30756,0.48245 0.44317,0.72534 l 0.76154,1.36483 c 0.2841,0.67554 0.49203,1.21806 0.61903,1.60465 -0.10655,0.17915 -0.27131,0.33171 -0.49428,0.4622 l -3.29981,0.30823 c -3.15647,0.29472 -4.37759,0.65264 -4.65163,1.36631 -0.20432,0.5322 -1.04757,1.2685 -1.87417,1.63645 -0.95532,0.42522 -2.01795,1.97385 -2.91619,4.24927 -0.68011,1.72282 -1.51493,3.1361 -1.99397,3.42435 z m -7.5226,-4.25635 c -1.063999,0.36255 -4.323752,-0.87933 -11.523633,-3.86282 -2.837754,-1.37509 -5.460909,-2.8249 -6.760859,-3.86602 -0.0011,-7.8e-4 -9.88e-4,-8.2e-4 -0.0024,-0.002 -2.396794,-2.44488 -4.878598,-8.11983 -4.864798,-11.38523 l 0.01145,-2.51248 0.783339,2.54931 c 0.43143,1.40213 1.544396,3.47246 2.472498,4.60167 1.000242,1.21633 1.384803,1.89686 1.321315,2.42744 -0.01914,0.0409 -0.03763,0.0827 -0.07032,0.11257 -0.559431,0.51135 -0.537695,0.90076 -0.168086,1.06602 0.130004,0.10945 0.363715,0.18687 0.725178,0.24839 1.365217,0.23244 2.374052,-0.37223 2.540801,-1.38434 0.1277,-0.19151 0.128871,-0.37925 0.003,-0.55298 0.02809,-0.30153 -0.01463,-0.67082 -0.114801,-1.14169 -0.0051,-2.03338 0.905426,-5.7096 2.077879,-9.13314 0.264251,-0.75542 0.536876,-1.50486 0.815329,-2.21932 0.05506,-0.14089 0.110601,-0.28168 0.165993,-0.4197 0.07981,-0.20022 0.159011,-0.39568 0.238886,-0.58933 1.098526,-2.62879 2.22565,-4.59094 2.951537,-4.62901 1.100095,-0.0576 0.998652,-2.17281 -0.160166,-3.3321 -0.857553,-0.85788 -2.050491,-0.71593 -1.644635,0.19586 0.137968,0.30996 -0.915011,0.76561 -2.504992,1.08425 -1.508471,0.30223 -3.511203,1.05669 -4.450812,1.67595 -1.293441,0.85232 -1.207542,0.66812 0.354636,-0.75705 1.109064,-1.01189 2.312844,-1.96518 3.41713,-2.74325 1.028999,-0.58162 2.097539,-1.14301 3.117646,-1.62011 0.177865,-0.083 0.311594,-0.14377 0.478142,-0.2217 0.02543,0.003 0.05656,0.003 0.07794,0.0116 0.340048,0.13053 1.656487,-0.27342 2.924971,-0.89874 1.932178,-0.95237 3.04392,-0.93672 6.853923,0.0964 0.905169,0.24541 1.622049,0.41064 2.237609,0.53559 0.90574,0.40594 1.4354,0.44109 1.50031,0.21277 0.92989,-0.002 0.42877,-0.56006 -1.62111,-1.64161 -0.47683,-0.25158 -0.8062,-0.46238 -1.03267,-0.64354 -0.27389,-0.27387 -0.3419,-0.48675 -0.23654,-0.63811 2.9e-4,-1.6e-4 8.8e-4,-3.6e-4 0.001,-4.8e-4 0.73638,-0.40236 4.58646,0.32768 7.95592,1.87387 2.62398,1.20411 5.23336,3.33374 7.07355,5.65045 0.41021,0.56354 0.78896,1.1449 1.12353,1.7441 0.32523,0.58242 0.53011,0.97244 0.74327,1.37719 0.12533,0.30716 0.26135,0.65825 0.3977,1.01296 0.0688,0.53037 -0.25773,0.69637 -1.13077,0.82813 l -1.51151,0.22759 1.88182,0.57919 1.48081,0.45523 c 0.0146,0.0128 0.0346,0.0223 0.0494,0.0355 0.16699,0.50348 0.30962,0.97951 0.43106,1.43075 l 0.15467,2.53655 c 0.12979,2.13365 0.0754,4.11494 -0.12155,4.4039 -0.19699,0.28892 -1.11037,0.0421 -2.0297,-0.54974 l -1.6717,-1.07589 -0.27423,0.56026 -0.0143,-0.007 -0.001,4.8e-4 -0.0794,0.19912 -1.44554,2.95484 c -1.12884,2.30752 -2.41993,3.97796 -3.41633,4.42148 -0.34234,0.15239 -0.71637,0.38218 -1.08012,0.63056 -0.33106,0.17536 -0.59497,0.37856 -0.79572,0.609 -0.24433,0.2136 -0.46431,0.42589 -0.6147,0.61942 -0.65625,0.84451 -1.84975,1.25458 -4.54242,1.56131 l -3.65223,0.41607 0.206911,-2.01989 c 0.12953,-1.26371 -0.15845,-2.37182 -0.770081,-2.95984 -0.836004,-0.80372 -0.974229,-0.51425 -0.954412,2.00123 0.01649,2.09312 -0.429323,3.36592 -1.543026,4.41225 -1.76745,1.66052 -1.732358,2.31207 -0.205971,1.60368 0.01667,1.8e-4 0.03125,7.9e-4 0.05009,-0.003 0.07337,-0.0135 0.159012,-0.0389 0.269075,-0.0875 0.247666,-0.10968 0.545871,-0.30743 0.842802,-0.5347 l 1.802303,-1.06823 1.144779,2.57184 c 0.7626,1.71323 1.06335,2.71796 0.3323,2.96709 z m -6.498434,-6.45945 c 0.0873,-0.0389 0.164311,-0.0782 0.228801,-0.12135 3.55e-4,-1.9e-4 7.87e-4,-3.3e-4 0.0011,-4.6e-4 0.402563,-0.21326 0.44498,-0.72486 -0.102225,-1.40911 -0.701351,-0.877 -0.651101,-1.02627 0.259029,-0.77051 0.117227,0.0329 0.230038,0.0513 0.341319,0.0622 0.553172,0.084 0.917162,-0.007 1.045157,-0.23423 0.526958,-0.35131 0.616645,-0.98968 -0.21774,-1.31008 -0.516939,-0.19847 -1.37465,-1.33952 -1.906797,-2.53503 -0.111793,-0.25114 -0.234871,-0.49039 -0.357367,-0.72435 -0.07106,-0.1511 -0.14957,-0.28964 -0.228604,-0.43163 -0.0037,-0.007 -0.0072,-0.0134 -0.013,-0.0207 -0.09373,-0.16705 -0.186102,-0.31794 -0.283981,-0.4616 -0.03888,-0.0544 -0.0757,-0.11571 -0.114142,-0.16199 -0.09258,-0.12461 -0.184076,-0.2471 -0.271755,-0.33682 -0.0087,-0.0104 -0.01641,-0.0198 -0.02583,-0.029 -0.0065,-0.006 -0.01317,-0.0125 -0.01934,-0.0178 -0.108797,-0.11609 -0.207025,-0.2005 -0.284558,-0.23034 -0.0391,-0.015 -0.07493,-0.0153 -0.108981,-0.009 -0.0035,6.8e-4 -0.0082,-0.001 -0.01134,2e-5 -0.319957,-0.0529 -0.405557,0.41899 -0.245561,1.42672 0.02888,0.1821 0.04142,0.34396 0.06104,0.5146 0.234837,2.11917 -0.67684,3.80691 -2.553633,4.6423 -1.073152,0.47768 -1.243095,0.84483 -0.661257,1.42694 0.431338,0.43159 0.894681,1.03177 1.029167,1.33391 0.185746,0.41728 0.694052,0.38626 1.119125,0.14585 0.0328,-0.0104 0.06454,-0.014 0.09772,-0.0288 0.01226,-0.006 0.02011,-0.014 0.03194,-0.0193 0.489181,-0.0293 0.793529,-0.3403 0.524512,-0.94467 -0.07298,-0.16393 -0.07275,-0.34181 -0.01314,-0.49815 0.140071,-0.0636 0.453446,0.0251 0.913375,0.27805 0.20783,0.1143 0.405606,0.20123 0.595308,0.2712 0.169287,0.21673 0.390829,0.31789 0.6065,0.27743 0.185022,0.0242 0.379751,2.8e-4 0.564176,-0.0818 z m -26.658068,4.66303 c -0.157911,0.074 -0.312277,0.14027 -0.464128,0.2028 -0.173799,0.0659 -0.333949,0.12395 -0.498805,0.18149 -0.740283,0.24354 -1.360899,0.31981 -1.664935,0.11246 -0.894933,-0.6102 0.59948,-5.82216 2.131684,-7.4365 1.2912,-1.36037 2.691703,-4.7114 2.905832,-6.46785 0.05636,-0.37067 0.04865,-0.65637 -0.02839,-0.83436 -0.03382,-0.10158 -0.07785,-0.18627 -0.14409,-0.23268 -0.03523,-0.024 -0.07522,-0.0353 -0.114037,-0.0485 -0.02089,-0.0213 -0.03492,-0.0529 -0.05874,-0.0691 -0.329814,-0.22488 -0.715059,0.0168 -1.056919,0.59777 -0.225337,0.22187 -0.466412,0.50091 -0.721845,0.85049 -0.433046,0.5926 -0.910802,1.08017 -1.291509,1.34767 -0.105071,0.0354 -0.209343,0.0582 -0.312299,0.069 -0.240893,-0.0239 -0.482389,-0.11613 -0.722866,-0.27464 -1.112032,-1.43844 -2.718908,-6.06558 -2.607711,-7.89028 0.130696,-2.14452 1.189826,-4.94444 2.53737,-6.76724 0.253889,-0.30345 0.520283,-0.56356 0.794582,-0.7877 0.596716,-0.37957 1.409788,-0.55788 2.617747,-0.58561 2.089704,-0.048 2.460305,-0.22097 2.89299,-1.34801 0.272981,-0.71094 2.73279,-3.30732 5.4665,-5.76946 3.054547,-2.7511 6.549752,-5.27479 9.066842,-6.54744 3.442655,-1.74069 6.920973,-2.71184 8.238819,-2.40028 0.245505,0.0937 0.423927,0.2345 0.524884,0.42438 0.01688,0.40794 -0.641608,1.63188 -1.558821,2.86386 -0.98691,1.32561 -1.718938,2.57972 -1.626944,2.78639 0.09204,0.2068 -1.514582,1.12647 -3.570112,2.04413 -2.124123,0.9493 -5.337076,3.05634 -7.443954,4.88427 -3.299112,2.86226 -3.795728,3.62852 -4.520554,6.97939 -0.447847,2.07053 -0.860266,5.9053 -0.916701,8.52109 -0.113817,5.27341 -1.75781,10.43429 -4.137167,12.99256 -0.328409,0.3531 -0.727119,0.69352 -1.14691,1.02151 -0.701023,0.52151 -1.463737,1.00931 -2.209765,1.4078 -0.123084,0.0662 -0.238529,0.1113 -0.359781,0.17307 z m 22.574293,-13.49788 c 0.433504,-0.14915 1.229702,-1.20635 2.167963,-3.24421 1.189201,-2.58298 2.296241,-8.78919 1.755145,-9.83926 -0.135712,-0.26364 -0.548977,0.78532 -0.918766,2.32976 -0.369773,1.54445 -1.45619,4.68597 -2.413627,6.98236 -0.608699,1.45995 -0.894307,2.5113 -0.935858,3.13117 -0.0013,0.006 -0.0015,0.0137 -0.0023,0.0205 -8.29e-4,0.0311 -0.0021,0.0616 0.0017,0.086 -0.0078,0.42475 0.114442,0.61306 0.345319,0.53367 z M 48.49515,177.56801 c -3.470435,1.54477 -7.610839,0.62629 -9.733642,-1.90156 -0.548657,-0.72598 -0.957913,-1.5687 -1.222246,-2.50377 -0.502118,-2.57935 0.141567,-6.85196 1.574455,-9.70423 0.890222,-1.77209 1.769913,-3.28964 1.955553,-3.37227 0.185651,-0.0826 1.268518,1.12879 2.406484,2.69204 2.427305,3.33442 6.099753,5.89924 10.251659,7.16041 l 2.970658,0.90231 -2.859087,2.81123 c -1.572768,1.54602 -3.978059,3.30791 -5.343803,3.91583 z m 34.204878,-16.43067 c -0.02139,0.006 -0.0407,0.007 -0.05888,-2.6e-4 -0.291643,-0.11199 -1.230934,-1.77777 -2.087471,-3.70205 -1.395737,-3.13564 -1.450187,-3.81919 -0.524986,-6.58293 0.574213,-1.71533 0.976148,-2.56509 1.934774,-3.35601 0.294294,-0.218 0.609527,-0.43934 0.969713,-0.67104 0.432255,-0.26737 0.923843,-0.547 1.542957,-0.87719 1.878161,-1.00164 3.662738,-1.72344 3.966552,-1.60329 0.303899,0.12012 -0.313716,2.28058 -1.372683,4.80123 -1.058983,2.52067 -2.369196,6.29541 -2.911889,8.38857 -0.508826,1.96233 -1.140887,3.50947 -1.458047,3.60301 z m 21.481712,-11.93916 c 0.80308,-0.35747 1.47225,-1.7547 1.81195,-3.29855 0.0573,-0.21812 0.10576,-0.4391 0.13755,-0.66602 0.0725,-0.2871 0.10646,-0.55203 0.0928,-0.7791 0.11028,-0.85088 0.084,-1.62615 -0.14445,-2.13931 -0.0367,-0.0825 -0.0724,-0.13359 -0.10744,-0.20839 -0.0221,-0.061 -0.0415,-0.12616 -0.0668,-0.18308 -1.03332,-2.32143 -1.79781,-1.86405 -1.43972,0.86067 0.16326,1.24201 -0.29621,3.10986 -1.06271,4.32444 -1.02187,1.61919 -1.12879,2.44442 -0.3468,2.41957 0.008,3.4e-4 0.0151,8.9e-4 0.023,0.001 0.18294,0.0215 0.4483,-0.0413 0.80196,-0.19871 0.0269,-0.012 0.0542,-0.033 0.0805,-0.0487 0.0761,-0.0301 0.13831,-0.0468 0.22046,-0.0834 z m -45.482078,19.39941 c -0.266538,0.13155 -0.560623,0.22814 -0.873964,0.29796 -0.966458,0.10412 -2.282262,-0.15011 -4.202204,-0.7503 -4.410686,-1.37893 -8.717968,-5.03129 -9.884836,-8.3807 -0.720662,-2.06865 -0.590197,-2.46297 1.465103,-4.44897 1.240535,-1.19868 3.175572,-2.80648 4.300655,-3.5733 l 1.493135,-1.01744 c 0.275948,-0.0572 0.468532,-0.007 0.594718,0.14407 l 0.187702,2.36228 c 0.273115,3.42366 1.641598,6.7627 3.741194,9.32334 0.789962,1.02455 1.680983,1.91146 2.660989,2.60955 0.09851,0.0702 0.148331,0.11673 0.237993,0.18247 1.307456,1.15607 1.707934,1.80244 1.397849,2.29119 -0.03816,0.0551 -0.07853,0.10667 -0.119898,0.15835 -0.03273,0.0449 -0.06812,0.0846 -0.101878,0.12665 -0.251167,0.27926 -0.552466,0.5046 -0.896603,0.67491 z m 3.845164,-3.46438 c -0.611282,0.31668 -1.256725,0.17609 -2.375331,-0.41409 -4.058472,-2.14131 -7.156076,-7.98753 -6.86521,-12.9574 0.10897,-1.8623 0.470049,-2.33901 2.377999,-3.14031 1.237062,-0.51949 2.559125,-0.9733 2.937876,-1.0081 0.378726,-0.0348 1.769141,-0.34354 3.089999,-0.68521 l 2.340347,-0.60495 -0.270366,0.70415 -1.000431,2.17151 c -1.743176,3.78617 -1.713788,8.29661 0.07571,11.73193 1.193683,2.29184 1.23685,2.82477 0.305353,3.73369 -0.212629,0.20761 -0.412156,0.36329 -0.615944,0.46878 z M 102.1866,146.41123 c 0.21807,-0.11002 0.38361,-0.35296 0.53646,-0.75117 0.32837,-0.85496 0.1791,-1.108 -0.73163,-1.24094 -0.1608,-0.0235 -0.25529,-0.0463 -0.36392,-0.069 -0.0476,-0.2645 0.0976,-0.51108 0.42804,-0.65815 0.21452,-0.0954 0.37251,-0.26421 0.46687,-0.46399 0.18775,-0.1788 0.18876,-0.42833 0.0306,-0.78364 -0.003,-0.006 -0.006,-0.0118 -0.0116,-0.0173 -0.001,-0.003 -0.002,-0.008 -0.004,-0.0116 -10e-4,-0.003 -0.002,-0.008 -0.004,-0.0116 -1.8e-4,-4e-4 -3.4e-4,-7.7e-4 -4.7e-4,-0.001 -0.0132,-0.0297 -0.0319,-0.0547 -0.048,-0.0822 l 0.28141,-0.19809 -0.39397,0.0396 c -0.27613,-0.31613 -0.73421,-0.43618 -1.13645,-0.25714 -0.29268,0.13027 -0.58659,0.14029 -0.81552,0.0676 -0.0442,-0.1406 -0.006,-0.39298 0.10668,-0.7951 0.0709,-0.25253 0.0776,-0.48432 0.0584,-0.70219 -0.002,-0.007 -10e-4,-0.0141 -0.003,-0.0227 -0.10137,-0.99798 -1.030939,-1.53724 -1.813196,-0.75531 -0.162835,0.16278 -0.365522,0.2668 -0.569445,0.32477 -0.08117,0.0142 -0.129758,0.023 -0.204894,0.0366 -0.19005,0.0177 -0.373096,-0.005 -0.511465,-0.0986 -0.08201,-0.0559 -0.145332,-0.0827 -0.217807,-0.12425 -0.04173,-0.0235 -0.08847,-0.0551 -0.126602,-0.0739 -0.08743,-0.0436 -0.162046,-0.0694 -0.233014,-0.0894 -0.02736,-0.008 -0.05514,-0.0167 -0.07924,-0.0207 -0.627664,-0.11025 -0.494737,0.8339 0.455546,2.51743 1.080199,1.91372 1.100248,2.4974 0.142895,3.98519 -0.375933,0.58398 -0.549369,1.0622 -0.573724,1.41599 -0.130618,0.20331 -0.17708,0.33163 -0.09058,0.35951 -0.01635,0.0734 0.03761,0.0874 0.154019,0.0504 0.241207,0.48755 1.101953,0.33132 2.184559,-0.74418 0.227707,-0.22623 0.444092,-0.40972 0.651349,-0.55593 0.265509,-0.12705 0.527729,-0.2534 0.746339,-0.36451 0.0947,-0.0236 0.18787,-0.0398 0.27971,-0.0448 0.0498,-7.6e-4 0.10241,-0.003 0.14358,0.002 0.002,5.9e-4 0.006,0.001 0.008,3.4e-4 0.0664,0.009 0.12242,0.0281 0.16347,0.056 0.22383,0.15269 0.43295,0.18158 0.6103,0.12874 0.18607,0.031 0.34652,0.0205 0.48254,-0.0482 z m 13.53928,-8.80701 c -2.2169,0.98806 -2.73045,0.9288 -5.14688,-0.61122 -3.13534,-1.99818 -8.80718,-3.01169 -12.078246,-2.15854 -4.043095,1.05448 -4.257366,0.94199 -2.757715,-1.4493 0.242743,-0.38706 0.434494,-0.74832 0.59585,-1.09262 0.0046,-0.009 0.0084,-0.0184 0.01372,-0.0287 0.04421,-0.0953 0.08798,-0.19098 0.126064,-0.28291 0.794321,-1.68514 0.541011,-2.84325 -0.567611,-3.38876 -2.510236,-1.56575 -9.595086,0.36038 -16.189952,5.54747 -2.360475,1.8566 -5.699652,4.82419 -7.421671,6.59496 l -1.492319,1.53505 c -1.163145,0.98883 -1.944833,1.51914 -2.705492,1.78807 l -3.395263,0.32971 c -2.376752,0.23127 -4.2092,0.63845 -6.966936,1.66891 -2.663136,0.80424 -5.157989,1.83221 -7.143464,2.99916 -5.504862,2.38713 -6.366789,2.53517 -8.372901,2.03295 -5.661922,-1.41742 -9.885357,-5.57195 -11.463932,-11.27722 -0.134186,-0.48525 -0.223518,-0.93468 -0.282082,-1.38224 -0.06259,-0.66303 -0.06141,-1.33822 0.0043,-2.04733 0.156715,-1.19703 0.565332,-2.6298 1.283246,-4.72221 0.350913,-1.02278 0.642801,-2.0812 0.877555,-3.14582 0.338932,-1.26591 0.520269,-2.45247 0.575404,-3.68613 0.290134,-3.12403 0.0416,-6.00831 -0.788296,-7.87274 -0.07094,-0.15939 -0.121839,-0.31668 -0.160897,-0.47157 -0.02939,-0.70406 0.181857,-1.16883 0.75963,-1.50155 0.04797,-0.0206 0.106298,-0.0397 0.158463,-0.0591 2.451982,-0.67276 8.046408,-0.72106 11.114429,-0.0948 2.329137,0.63688 4.666769,1.74206 7.14123,3.40271 2.232978,1.6486 4.958425,4.10992 9.055841,8.03429 6.859485,6.56982 9.886037,8.46448 13.923551,8.71658 4.856881,0.30329 7.912726,-4.32575 8.61506,-12.46576 0.02184,-0.2269 0.0331,-0.46399 0.05013,-0.69572 0.02204,-0.32219 0.05146,-0.63502 0.06634,-0.96753 0.0039,-0.0921 0.003,-0.18864 0.0062,-0.28139 0.07748,-2.01153 0.03284,-4.19704 -0.155644,-6.55835 -0.77539,-9.71334 0.959074,-17.063093 5.884643,-24.931224 1.135484,-1.813783 2.244935,-3.387985 2.622324,-3.736259 0.243953,0.0039 0.573794,0.298318 0.894022,0.747266 0.237988,0.378471 0.490922,0.838883 0.732627,1.381896 0.735073,1.651402 1.843762,3.125659 3.074316,4.217561 0.788471,0.759753 1.582252,1.319629 2.272985,1.546063 0.316657,0.103798 0.622762,0.176834 0.925042,0.235047 0.02477,0.0056 0.04955,0.01403 0.0741,0.01881 0.02926,0.0057 0.05781,0.0079 0.08709,0.01303 0.0786,0.0129 0.15746,0.02552 0.23548,0.03521 2.834139,0.398326 5.370679,-1.313148 9.819629,-6.570328 6.54602,-7.73513 11.75187,-11.66989 20.74795,-15.682356 8.54298,-3.810255 13.09313,-4.463993 18.11154,-2.601778 4.70693,1.746633 6.17806,3.25444 8.70946,8.926269 2.10351,4.713173 2.26535,5.549197 2.05905,10.674098 -0.5958,14.802385 -12.43347,29.620075 -35.78359,44.789085 -2.90523,1.88732 -6.39047,3.9253 -7.74465,4.5295 z m -36.78009,11.36236 c -0.06053,-2.8e-4 0.01426,-0.32638 0.17853,-0.97966 0.01233,-0.0486 0.03293,-0.0944 0.04702,-0.14275 0.309685,-0.55395 0.657283,-1.08509 1.041283,-1.58908 0.271173,-0.10239 0.425159,-0.0931 0.341039,0.0428 -0.09566,0.15428 -0.536181,0.91469 -0.979387,1.69036 -0.37274,0.65223 -0.567931,0.97867 -0.628509,0.97837 z m 77.35428,-43.25339 c -0.28202,0.18277 -0.0427,-0.38971 0.53559,-1.5488 4.11231,-8.243966 5.41131,-15.750903 3.91736,-22.585552 -0.0352,-0.160483 -0.0708,-0.320917 -0.10899,-0.480706 -0.38011,-1.737701 -0.93909,-3.373184 -1.66813,-4.879889 -2.12064,-4.772447 -4.99716,-7.587087 -9.36874,-9.265631 -2.77637,-1.066047 -6.03725,-1.316208 -9.55514,-0.865215 -0.0561,0.0051 -0.10968,0.01349 -0.16513,0.01891 -0.005,0.001 -0.009,2.64e-4 -0.0142,0.0013 -1.03321,0.102399 -1.98004,0.276268 -3.02644,0.570109 -10.11451,2.387026 -21.69254,9.937984 -29.94761,20.405915 -0.55467,0.703365 -1.09815,1.306874 -1.63395,1.84591 -0.70185,0.671914 -1.33889,1.20749 -1.93082,1.622449 -0.0293,0.02065 -0.0601,0.04615 -0.09,0.06525 -0.0574,0.04025 -0.11273,0.06917 -0.16967,0.106297 -3.487619,2.132574 -6.441414,0.380027 -8.548053,-5.226515 -0.936788,-2.49322 -1.304369,-3.179589 -2.015082,-3.184054 -0.184078,-0.12962 -0.350456,-0.161809 -0.506006,-0.09256 -0.08984,0.04 -0.238132,0.169061 -0.41444,0.342731 -2.03764,1.206906 -6.2731,8.137591 -8.421917,13.915606 -2.099145,5.644405 -2.880847,12.272725 -2.125469,18.024735 1.273378,9.69605 -1.321651,17.95143 -5.820472,18.51445 -0.66755,0.0835 -1.302376,0.0917 -1.944076,0.005 -1.597305,-0.43626 -3.540407,-1.44963 -5.632331,-2.94733 -1.85112,-1.47721 -4.126069,-3.58572 -7.154556,-6.54959 -2.882482,-2.82096 -6.240859,-5.83648 -7.46387,-6.70031 -5.691037,-4.01974 -12.05165,-5.28819 -19.421757,-3.87382 l -3.904219,0.74946 0.906753,3.97138 c 0.85325,3.736 0.933472,7.3015 0.25565,10.49124 -0.206207,0.83972 -0.454117,1.70648 -0.766929,2.63317 -0.07386,0.19666 -0.148422,0.39354 -0.22901,0.58634 -0.740947,1.77264 -1.133454,3.58089 -1.21173,5.36097 -0.197428,2.06641 0.07088,3.86355 0.844848,5.65657 1.502358,4.24951 4.911957,7.84984 9.740137,9.70371 4.363362,1.67538 2.555901,1.73407 -4.129114,0.13414 -0.179813,-0.043 -0.350662,-0.0915 -0.528103,-0.13593 -2.400919,-0.67324 -4.777487,-1.44857 -6.468096,-2.17353 -0.839709,-0.36007 -1.632598,-0.72729 -2.38208,-1.10549 -0.0015,-5.9e-4 -0.0024,-0.002 -0.0051,-0.002 -4.345385,-2.31006 -7.521878,-5.37735 -9.592084,-9.25162 -2.525779,-4.7269 -2.82049,-7.3143 -1.596253,-13.9811 1.806069,-9.83552 1.031621,-17.07848 -2.351157,-21.98633 -0.371458,-0.53898 -0.65748,-0.99216 -0.935954,-1.43277 -0.292042,-0.6817 -0.490763,-1.21719 -0.53175,-1.48393 0.598748,-0.14545 2.274796,-0.37827 4.233795,-0.57834 7.709778,-0.787311 14.21862,-0.489335 19.967756,0.98337 0.434645,0.11134 0.859618,0.23808 1.285735,0.36289 0.744177,0.22226 1.482292,0.4575 2.207198,0.71573 0.213658,0.076 0.422498,0.15953 0.63401,0.2386 2.865034,1.09251 5.551171,2.51384 8.114675,4.29382 1.316575,0.91418 5.620222,5.06402 9.563627,9.22227 7.524073,7.934 11.030273,10.47009 13.806491,9.9853 3.727477,-0.65093 4.085448,-6.1312 1.262922,-19.35861 -2.679092,-12.555312 -2.600058,-16.235697 0.511602,-23.565787 3.207932,-7.556828 9.38154,-13.612005 20.123348,-19.740155 0.42828,-0.244455 0.818144,-0.457882 1.219842,-0.681515 1.483509,-0.687946 3.160493,-1.450489 5.254581,-2.386409 2.400918,-1.072496 5.239668,-2.263013 8.105998,-3.434606 1.3896,-0.493803 2.88411,-1.01698 4.65059,-1.623454 26.40006,-9.063807 43.15965,-18.105769 57.25756,-30.891927 2.66815,-2.419885 6.49955,-6.359178 8.51483,-8.753144 l 3.66401,-4.352532 0.44933,2.081994 c 1.24735,5.785124 2.18084,19.590902 1.82594,27.002517 -0.40277,8.411793 -1.60107,16.25859 -3.65151,23.717426 -1.79606,6.228371 -4.16629,12.322335 -7.0544,18.145306 -3.29691,6.444764 -7.3798,12.677604 -12.30965,18.838086 -2.47196,3.08905 -3.69635,4.57333 -4.05892,4.80833 z m -30.44397,11.64162 c 0.81377,-0.38844 1.63786,-0.85616 2.46496,-1.3786 6.00933,-3.61024 12.16965,-10.22236 15.39921,-17.753525 2.20991,-5.153373 2.61817,-8.447936 1.40502,-11.478233 -0.16369,-0.457551 -0.36699,-0.869166 -0.61309,-1.239104 -1.25958,-2.008458 -3.36012,-2.866123 -6.48564,-2.662726 -5.40491,0.351734 -11.41081,4.764035 -16.17723,10.391425 -1.25661,1.39322 -2.31129,2.807822 -3.43,4.573162 -0.8065,1.225326 -1.53537,2.468401 -2.18601,3.710051 -0.12659,0.23469 -0.24763,0.46799 -0.36583,0.70043 -0.0185,0.0374 -0.0381,0.0746 -0.0564,0.1119 -0.46094,0.91552 -0.85607,1.81204 -1.18777,2.6847 -0.0476,0.12132 -0.0928,0.2418 -0.13826,0.36254 -0.016,0.044 -0.0309,0.0874 -0.0466,0.13128 -1.88927,5.09532 -1.96823,9.68117 0.92777,11.99807 1.63404,1.30728 3.83034,1.63248 6.29806,1.17821 1.33293,-0.1825 2.74449,-0.63894 4.19194,-1.32971 z m -0.44942,-1.99096 c -1.46808,0.65854 -2.7726,1.10789 -3.93334,1.37282 -3.35547,0.60663 -5.82566,-0.61543 -6.33955,-4.02977 -0.40464,-2.68862 0.66346,-6.4648 2.68511,-10.33861 0.75497,-1.41622 1.62404,-2.849038 2.58762,-4.2514 0.24364,-0.349336 0.48907,-0.698883 0.74534,-1.042988 0.007,-0.0083 0.0138,-0.01907 0.0207,-0.02874 10e-4,-0.0015 0.002,-0.0024 0.003,-0.0052 1.36305,-1.826323 2.89798,-3.567724 4.5477,-5.109867 5.99945,-5.608199 12.67777,-8.524261 15.63705,-6.827366 4.5321,2.59871 2.64907,11.527328 -4.28418,20.311431 -3.51786,4.45692 -7.47823,7.76206 -11.06254,9.65337 -0.20272,0.0978 -0.40418,0.20448 -0.60761,0.29565 z m 42.99441,-50.678359 c 7.886,-3.55809 9.745,-11.406563 5.56923,-23.479051 -0.68211,-2.240603 -1.47113,-4.31753 -2.24618,-5.829383 -0.24944,-0.574901 -0.48558,-1.078106 -0.70603,-1.504353 -0.59933,-1.31914 -1.03049,-2.134097 -1.13618,-2.087051 -0.0591,0.02633 -0.19319,0.197432 -0.36079,0.434985 -0.27797,0.05003 -0.54349,0.545709 -0.97531,1.548535 -0.26823,0.455433 -0.5484,0.945537 -0.83745,1.474567 -3.07541,5.629001 -5.59057,7.418395 -18.76452,13.347683 -9.69238,4.362401 -11.8783,5.545099 -13.03768,7.059139 -1.66878,2.179291 -2.14267,3.699401 -1.55423,5.044447 0.0334,0.675688 0.2399,1.181008 0.65725,1.341238 0.11558,0.04431 0.58509,0.01275 1.19747,-0.05561 0.83664,0.04509 2.08728,-0.111874 4.08633,-0.456707 3.50112,-0.603957 6.2573,-0.72628 8.96167,-0.288806 1.1016,0.199307 2.22826,0.47995 3.41162,0.848823 1.16771,0.388087 2.37438,0.877449 3.67626,1.484225 5.35091,2.493961 8.38388,2.774654 12.05857,1.117307 z m -1.17853,-1.616027 c -0.21006,0.08971 -0.41736,0.171082 -0.62139,0.245818 -2.47013,0.849011 -5.03581,0.29909 -9.90574,-1.703165 -6.59223,-2.710386 -11.16137,-3.26813 -17.19006,-2.096562 -1.55922,0.302965 -2.93774,0.399512 -3.38869,0.259547 -0.0913,-0.131957 -0.10597,-0.316427 -0.0651,-0.564606 0.18156,-0.476827 0.60794,-1.202155 1.16731,-1.93499 1.26029,-1.651352 2.78612,-2.485501 10.63809,-5.810441 5.04204,-2.135031 10.86883,-4.987166 12.94808,-6.338847 0.38447,-0.250026 0.80221,-0.551426 1.22894,-0.87183 l 0.91444,-0.433507 0.75401,-0.904013 c 1.37434,-1.169752 2.70814,-2.460971 3.56022,-3.494331 l 2.49364,-3.025187 c 0.40376,0.365429 1.30153,2.265543 2.29059,4.903835 0.78025,2.081398 1.3601,4.024811 1.74385,5.833188 1.13836,6.498487 -0.37386,11.900262 -4.43241,14.710198 -0.43631,0.301979 -0.85404,0.564187 -1.26263,0.793003 -0.28349,0.147968 -0.5701,0.294666 -0.87308,0.432064 z M 102.8531,80.173003 c 0.48242,-0.219801 1.03293,-0.510433 1.69486,-0.881911 3.51651,-1.97277 6.33567,-4.827036 8.2931,-8.367455 1.20651,-2.028349 2.00367,-4.154494 2.11982,-6.138986 0.11676,-1.995003 -0.13587,-3.077337 -1.03185,-3.824706 -0.73561,-0.897787 -1.8561,-1.40739 -3.33039,-1.383393 -5.24231,0.08537 -13.683085,9.020402 -14.502931,15.351176 -0.426155,3.290884 0.458217,4.891381 3.072374,5.562444 1.400977,0.35959 2.237267,0.341085 3.684987,-0.317255 z m 20.60895,-10.672884 c 2.58094,-1.036376 4.98013,-4.008659 6.12458,-6.857574 0.21477,-0.504021 0.37349,-0.997213 0.48889,-1.477621 1.5e-4,-6.51e-4 -8.5e-4,-8.87e-4 -0.001,-0.0031 0.0517,-0.215072 0.0967,-0.426486 0.1269,-0.633296 0.27666,-1.697287 -0.0738,-3.131486 -1.34285,-3.759081 -0.79108,-0.391232 -2.1177,-0.08985 -3.54859,0.633144 -1.98572,1.003303 -4.17353,2.825078 -5.4229,4.785455 -1.49653,2.348167 -1.98745,4.377822 -1.57227,5.765064 0.007,0.269745 0.0458,0.499141 0.12435,0.675449 0.29724,0.667795 0.9989,1.046493 1.90445,1.133293 0.46201,0.108507 0.98602,0.153373 1.58921,0.10742 0.51078,-0.03892 1.0237,-0.166875 1.52934,-0.369938 z m -20.36793,8.135183 c -1.36519,0.60894 -2.23916,0.992896 -2.85831,1.174275 -0.668919,0.01339 -1.239503,-0.160898 -1.67076,-0.54852 -0.09649,-0.145979 -0.196735,-0.312849 -0.310598,-0.50575 -0.232824,-0.39475 -0.341239,-0.910233 -0.351607,-1.503881 0.0027,-0.08959 -0.0035,-0.171798 0.0028,-0.264449 3e-5,-9.25e-4 3.3e-4,-0.0014 -2.48e-4,-0.0037 0.03353,-0.490018 0.124192,-1.024178 0.257131,-1.583066 0.590684,-2.010618 1.911062,-4.463418 3.639292,-6.518539 7.10708,-8.451359 13.76783,-8.412903 10.30531,0.05952 -0.47471,1.161549 -1.11129,2.286723 -1.8357,3.355295 -1.07448,1.523963 -2.36235,3.003699 -3.74381,4.255055 -0.3415,0.300871 -0.68448,0.585694 -1.02933,0.851569 -0.70443,0.418158 -1.48448,0.819953 -2.40453,1.231335 z m 19.28295,-9.679439 c -0.0408,0.01709 -0.0793,0.03019 -0.12016,0.04462 -1.13206,0.338457 -1.96795,-0.01668 -2.11763,-1.014595 -0.0116,-0.07652 -0.006,-0.168568 -0.009,-0.252315 0.0211,-0.974086 0.62049,-2.324721 1.77407,-3.934074 1.74195,-2.430106 4.87938,-4.423206 6.1334,-4.120303 0.17701,0.144353 0.32908,0.323095 0.45092,0.528692 0.0519,0.120953 0.0902,0.252032 0.11106,0.397186 -0.0155,0.796952 -0.49331,2.059641 -1.24492,3.383544 -1.31457,2.082893 -3.38444,4.221749 -4.97815,4.966877 z"
       style="fill:#000000;stroke-width:0.65485746" />
  </g>
</svg>
