<?xml version="1.0" encoding="UTF-8" standalone="no"?>
<svg
   xmlns:dc="http://purl.org/dc/elements/1.1/"
   xmlns:cc="http://creativecommons.org/ns#"
   xmlns:rdf="http://www.w3.org/1999/02/22-rdf-syntax-ns#"
   xmlns:svg="http://www.w3.org/2000/svg"
   xmlns="http://www.w3.org/2000/svg"
   xmlns:sodipodi="http://sodipodi.sourceforge.net/DTD/sodipodi-0.dtd"
   xmlns:inkscape="http://www.inkscape.org/namespaces/inkscape"
   id="svg4"
   version="1.1"
   width="605.92957"
   viewBox="0 0 605.92956 899.38422"
   height="899.38422"
   sodipodi:docname="horse_caricature.svg"
   inkscape:version="0.92.4 (5da689c313, 2019-01-14)">
  <sodipodi:namedview
     pagecolor="#ffffff"
     bordercolor="#666666"
     borderopacity="1"
     objecttolerance="10"
     gridtolerance="10"
     guidetolerance="10"
     inkscape:pageopacity="0"
     inkscape:pageshadow="2"
     inkscape:window-width="1029"
     inkscape:window-height="520"
     id="namedview7"
     showgrid="false"
     inkscape:zoom="0.26240176"
     inkscape:cx="302.96478"
     inkscape:cy="449.69211"
     inkscape:window-x="0"
     inkscape:window-y="0"
     inkscape:window-maximized="0"
     inkscape:current-layer="svg4" />
  <title
     id="title817">Horse Caricature</title>
  <metadata
     id="metadata10">
    <rdf:RDF>
      <cc:Work
         rdf:about="">
        <dc:format>image/svg+xml</dc:format>
        <dc:type
           rdf:resource="http://purl.org/dc/dcmitype/StillImage" />
        <dc:title>Horse Caricature</dc:title>
        <dc:date>2020-03-14</dc:date>
        <dc:source>https://publicdomainvectors.org/en/free-clipart/Horse-caricature/82390.html</dc:source>
        <dc:subject>
          <rdf:Bag>
            <rdf:li>animals</rdf:li>
            <rdf:li>caricatures</rdf:li>
            <rdf:li>csk</rdf:li>
            <rdf:li>acb</rdf:li>
          </rdf:Bag>
        </dc:subject>
      </cc:Work>
    </rdf:RDF>
  </metadata>
  <defs
     id="defs8" />
  <path
     id="path2"
     d="m 293.50294,898.90288 c -7.8969,-1.7159 -17.475,-10.965 -13.91,-13.432 1.0992,-0.761 8.5715,-6.2685 9.7319,-7.1729 0.72692,-0.56659 3.0894,-2.7177 5.25,-4.7802 2.1606,-2.0625 4.428,-3.75 5.0386,-3.75 1.55,0 10.89,-6.15 10.89,-7.17 0,-0.46 0.7,-0.83 1.55,-0.83 0.85126,0 2.5388,-1.0564 3.75,-2.3477 3.21,-3.42 16.7,-4.63 16.7,-1.5 0,0.51475 1.7511,3.2791 3.8914,6.143 5.2937,7.0835 10.291,17.344 9.9167,20.359 -0.83321,6.704 -39.635,17.346 -52.808,14.484 z m 30.5,-6.7293 c 4.4,-1.8524 10.343,-4.0633 13.207,-4.9131 7.2107,-2.1396 6.3803,-6.4304 -4.1417,-21.4 -1.97,-2.8 -3.57,-5.53 -3.57,-6.09 0,-1.2648 -5.6773,-1.3415 -6.4524,-0.0872 -0.31377,0.50769 -1.9457,1.2251 -3.6266,1.5943 -1.6808,0.36918 -3.2854,1.2688 -3.5657,1.9992 -0.28028,0.73041 -2.2164,2.0109 -4.3024,2.8456 -2.086,0.83466 -4.0399,2.1617 -4.3421,2.949 -0.30212,0.78731 -1.8186,1.75 -3.37,2.1394 -1.5514,0.38937 -3.0502,1.0243 -3.3308,1.4109 -0.28051,0.38662 -4.458,3.8069 -9.2834,7.6006 -9.9547,7.8265 -9.9981,8.0059 -2.8677,11.875 9.9682,5.4086 22.899,5.4337 35.641,0.0693 z m 45.731,-9.6475 c -7.4981,-0.9609 -22.49237,-10.16657 -20.93537,-11.72367 0.71741,-0.71741 2.5167,-0.53423 5.825,0.59303 13.936,4.7485 27.54537,8.15397 52.12937,-2.33223 5.3217,-2.27 4.7044,-3.8798 -5.9379,-15.486 -2.8696,-3.1294 -6.3632,-7.9507 -7.7634,-10.714 -3.14,-6.21 -10.55,-9.67 -10.55,-4.93 0,0.51446 -1.35,1.406 -3,1.9812 -1.65,0.5752 -3,1.4752 -3,2 0,0.52481 -1.3495,1.4246 -2.9988,1.9996 -1.6494,0.57497 -2.7795,1.4002 -2.5115,1.8338 0.48,0.78 -19.94647,24.87666 -21.15647,24.87666 -1.9448,0 3.25417,-9.20626 7.16387,-12.64776 2.475,-2.1786 4.5,-4.4534 4.5,-5.055 0,-0.6017 1.3528,-2.0942 3.0062,-3.3166 2.0994,-1.5522 2.8308,-2.7755 2.4245,-4.0556 -0.44254,-1.3943 0.16654,-2.0939 2.5448,-2.923 1.7196,-0.59946 2.8825,-1.334 2.5842,-1.6323 -0.90954,-0.90954 1.572,-3.2264 3.4557,-3.2264 0.97381,0 2.0175,-0.6435 2.3193,-1.43 1.5578,-4.0597 13.713,-2.9909 16.328,1.4357 2.7587,4.67 3.6773,0.1629 1.782,-8.7431 -1.2411,-5.8316 -11.207,-5.5055 -23.507,0.7692 -4.3643,2.2265 -4.9376,2.3473 -4.9376,1.0405 0,-0.51021 1.7677,-1.7076 3.9282,-2.6608 l 3.9282,-1.7331 -2.2934,-3.0892 c -3.69,-4.99 -6.79,-15.59 -4.55,-15.59 0.55,0 1,0.675 1,1.5 0,0.825 0.45,1.5 1,1.5 2.9652,0 0.54118,-13.942 -2.9558,-17 -5.466,-4.7804 -15.106,-20.882 -17.064,-28.5 -0.42395,-1.65 -2.1143,-8.175 -3.7564,-14.5 -6.8996,-26.576 -7.8193,-38.86 -3.931,-52.5 8.3773,-29.388 15.786,-53.925 17.816,-59 0.99482,-2.4879 5.3582,-24.785 7.3384,-37.5 2.6959,-17.31 5.614,-54.442 5.6815,-72.295 0.0204,-5.3871 0.62059,-15.062 1.3338,-21.5 1.8208,-16.435 1.5452,-19.158 -2.5368,-25.054 -5.2576,-7.5945 -22.338,-27.364 -25.917,-29.997 l -3.189,-2.3464 0.70642,6.5964 c 0.59293,5.5367 0.46303,6.5964 -0.80859,6.5964 -1.1522,0 -1.6759,-1.736 -2.1869,-7.25 -0.80432,-8.6793 -3.3826,-25.701 -4.0587,-26.795 -0.26476,-0.42839 -1.3808,-5.1501 -2.48,-10.493 -2.31,-11.16 -14.79,-43.91 -25.53,-66.96 -19.35,-41.51 -28.47,-68.77 -28.47,-85.09 0,-2.5776 -1.09,-2.8915 -13.278,-3.8234 -14.812,-1.1326 -35.785,-7.8038 -46.845,-14.901 -6.52,-4.18 -19.88,-18.1 -19.88,-20.7 0,-1.9602 2.5388,-0.92482 4.3454,1.7722 7.2597,10.838 36.338,25.447 55.144,27.704 57.639,6.9189 99.571,-15.827 115.45,-62.623 1.5403,-4.5399 3.3093,-8.4239 3.9311,-8.6312 2.2743,-0.75811 2.3913,3.2054 0.28748,9.7377 -1.1857,3.6815 -2.1558,6.9929 -2.1558,7.3587 0,0.36576 2.3625,-0.19197 5.25,-1.2394 12.104,-4.3907 28.533,-5.3278 45.25,-2.5812 4.95,0.8133 9.3112,1.4866 9.6916,1.4962 0.38036,0.01 -1.154,-2.0104 -3.4096,-4.4889 -4.22,-4.65 -8.74,-7.5 -11.87,-7.5 -2.4117,0 -3.426,-1.863 -1.4311,-2.6285 5.4822,-2.1037 17.528,7.3378 26.528,20.792 21.612,32.31 29.494,38.345 49.784,38.121 21.033,-0.23228 34.6841,-10.49044 41.1561,-26.01584 3.7014,-8.8795 7.758,-13.46 6.1117,-6.9003 -2.4056,9.5845 -16.5301,27.76584 -23.6291,31.12384 -28.656,13.557 -52.788,4.7611 -71.969,-26.232 -5.459,-8.8207 -7.6012,-11.449 -9.9557,-12.213 -10.75,-3.489 -43.114,-5.5503 -43.937,-2.7983 -2.9848,9.98 -4.3943,13.462 -8.2406,20.359 -16.921,30.342 -56.73849,54.19264 -89.07149,54.14664 -19.095,-0.027 -19.416,-2.5236 -0.42003,-3.2708 38.652,-1.5204 76.38249,-26.39664 90.10549,-60.66764 4.3277,-10.808 4.2501,-11.123 -2.1866,-8.8805 -8.8675,3.0894 -10.101,4.0341 -14.75,11.296 -16.926,26.439 -47.925,45.471 -78.75,48.349 -8.1707,0.76293 -8.4555,1.2484 -6.2935,10.726 0.52607,2.306 1.8929,8.3704 3.0375,13.476 2.8378,12.659 9.3117,29.446 19.946,51.717 2.1009,4.4 4.5166,9.575 5.3682,11.5 0.85161,1.925 3.1557,6.9974 5.1202,11.272 1.9645,4.2746 3.5719,8.0316 3.5719,8.3489 0,0.31732 0.65048,1.995 1.4455,3.7281 1.3094,2.8545 5.6272,13.95 10.566,27.151 4.4734,11.957 9.9883,33.927 9.9883,39.791 0,2.4808 0.70683,3.8559 2.7636,5.3766 1.52,1.1238 4.0966,4.0209 5.7257,6.4381 1.6292,2.4171 7.0794,8.7353 12.112,14.04 16.32,17.204 16.328,17.242 12.471,59.354 -0.60439,6.6 -1.7766,22.35 -2.605,35 -1.9712,30.103 -9.5548,79.097 -13.341,86.189 -1.13,2.09 -6.14,20.25 -6.14,22.2 0,0.71964 -0.63397,2.7264 -1.4088,4.4596 -0.77485,1.7331 -1.6631,4.2761 -1.9739,5.6511 -0.31079,1.375 -1.9227,7.675 -3.582,14 -3.2208,12.277 -4.0412,26.035 -2.1765,36.5 5.2688,29.571 11.93,46.671 23.598,60.578 8.2278,9.8065 8.2546,9.8974 6.0254,20.422 -1.8321,8.6494 -1.8381,8.4802 0.40512,11.398 l 1.8433,2.3974 6.5578,-1.7751 c 7.8349,-2.1208 11.15,-1.5065 13.193,2.445 1.8078,3.4958 2.0712,16.082 0.37219,17.781 -0.86133,0.86133 0.44488,2.8361 5.2585,7.95 13.664,14.516 13.82,15.765 2.6375,21.125 -20.946,10.039 -25.679,11.327 -36.519,9.9377 z m -90.27593,-0.71542 c 2.6538,-14.665 0.47512,-23.79368 -7.25217,-24.18168 -9.1966,-0.46114 -11.039,-3.8774 -13.179,-24.432 -1.8,-17.2 -2.14,-19.59 -4.05,-28.43 -2.36,-10.9 -5.48,-27.69 -5.48,-29.49 0,-6.2662 -3.1906,-12.412 -8.54,-16.451 -10.296,-7.7738 -12.148,-19.158 -6.0148,-36.983 3.7034,-10.764 2.2699,-17.539 -7.421,-35.075 -2.2796,-4.125 -6.2073,-11.823 -8.7281,-17.107 l -4.5833,-9.6072 -4.1064,1.0128 c -4.4679,1.1019 -18.227,13.875 -24.455,22.702 -1.7462,2.475 -5.0484,7.2 -7.3382,10.5 -2.2898,3.3 -4.468,6.225 -4.8404,6.5 -13.382,9.8798 -3.9671,72.993 12.027,80.626 1.375,0.65619 4.2322,2.0213 6.3494,3.0336 7.3604,3.5193 12.978,14.093 10.803,20.333 -1.385,3.973 3.0485,4.8897 19.242,3.9784 7.5128,-0.42274 10.152,2.0237 9.2538,8.5776 -0.53852,3.9289 -0.31512,4.3326 6.3688,11.512 7.8425,8.4235 8.231,10.163 2.4697,11.062 -2.1928,0.34187 -6.6869,1.6399 -9.9869,2.8844 -7.9283,2.9901 -27.78047,-1.60374 -38.56547,-4.30963 -13.617,-3.4165 -10.035,-5.5813 4.2865,-2.5906 15.067,3.1463 25.16747,7.50104 39.39547,2.24524 l 4.1162,-1.5206 -2.9733,-3.1652 c -1.6353,-1.7409 -5.1777,-5.9288 -7.872,-9.3065 -5.0934,-6.3853 -11.189,-9.068 -13.143,-5.7848 -0.70523,1.1846 -7.0395,3.1588 -7.4135,2.3105 -0.0932,-0.2114 -1.2182,0.55535 -2.5,1.7039 -1.2818,1.1485 -3.9132,3.033 -5.8476,4.1876 -1.9344,1.1546 -4.6003,3.2524 -5.9243,4.6618 -2.6276,2.7969 -9.87313,5.02934 -9.87313,3.08204 3e-5,-1.4384 11.48053,-7.95474 15.24473,-9.66984 1.9417,-0.88471 2.295,-1.4759 1.4737,-2.4656 -0.82605,-0.99533 -0.5299,-1.4145 1.2578,-1.7803 1.286,-0.26315 3.5942,-0.74489 5.1292,-1.0705 1.535,-0.32564 2.5349,-1.0063 2.222,-1.5126 -1.8173,-2.9405 9.8353,-3.9547 16.237,-1.4132 3.8816,1.541 4.432,0.0735 1.3841,-3.6905 -2.593,-3.2022 -14.992,-1.4204 -25.416,3.6522 -7.92,3.85 -7.72,3.79 -7.72,2.45 0,-0.54118 2.5472,-2.272 5.6605,-3.8462 l 5.6605,-2.8623 -3.3675,-1.1739 c -3.85,-1.34 -7.95,-4.85 -7.95,-6.8 0,-1.9542 2.0646,-1.6136 4.588,0.75693 l 2.2168,2.0826 0.65812,-2.9964 c 1.67,-7.59 -8.86,-19.18 -17.41,-19.18 -11.179,0 -24.178,-54.518 -17.883,-75 2.0708,-6.7376 17.335,-28.127 27.16,-38.058 l 9.4559,-9.5585 -6.143,1.3156 c -12.364,2.6478 -31.874,1.7314 -46.893,-2.2024 -4.8125,-1.2605 -8.7451,-2.2254 -8.7392,-2.144 0.006,0.0813 0.68096,2.3569 1.5,5.0568 2.9507,9.7266 1.0797,30.942 -3.0111,34.145 -1.78,1.39 -5.5,12.54 -5.5,16.49 0,3.1411 0.25615,3.459 9.6346,11.957 3.8325,3.4728 10.9,21.795 14.272,36.997 0.54889,2.475 1.732,6.975 2.629,10 1.1703,3.9462 1.6787,10.048 1.7998,21.599 0.17503,16.695 0.52354,18.185 4.7859,20.466 1.3808,0.73899 2.5631,0.27312 5.2143,-2.0546 9.4703,-8.315 20.195,0.76837 15.08,12.772 -0.87139,2.0448 -1.7988,4.8327 -2.0608,6.1954 -0.61697,3.2082 -1.1273,3.6501 -2.5602,2.2172 -0.89605,-0.89605 -0.65664,-2.4155 1.0167,-6.4527 5.029,-12.133 -1.3977,-19.587 -10.48,-12.154 -9.279,7.5945 -19.181,-5.3341 -14.173,-18.505 1.3894,-3.6543 1.1089,-13.684 -0.56152,-20.083 -3.158,-12.097 -4.8793,-18.042 -8.7648,-30.272 l -4.0576,-12.772 -7.074,-6.4564 -7.074,-6.4564 0.0593,-6.3048 c 0.0421,-4.4722 0.84154,-8.1844 2.7506,-12.772 6.4225,-15.433 6.746,-16.841 6.3129,-27.467 -0.5624,-13.798 -2.1231,-16.888 -10.432,-20.656 -3.6481,-1.6541 -8.25347,-4.77482 -8.25347,-5.63542 0,-1.6051 2.5319,-2.0565 3.4254,-0.61075 0.29889,0.48361 1.4796,1.1241 2.6238,1.4233 1.9752,0.51652 3.93837,1.70525 2.46327,-0.54608 -0.90992,-1.3887 -1.1588,-2.6152 -0.60059,-2.9602 0.52418,-0.32396 2.0601,1.1646 3.4131,3.308 3.1378,4.9706 8.9046,6.962 29.112,10.053 7.4008,1.132 8.343,0.63831 5.2209,-2.7358 -9.3188,-10.071 -18.31,-44.14 -18.972,-71.89 -0.10834,-4.5375 -0.22104,-8.25 -0.25044,-8.25 -0.0294,0 -3.5796,1.1517 -7.8893,2.5593 -4.3097,1.4076 -10.094,2.6107 -12.854,2.6736 l -5.0184,0.11431 0.78652,7.5764 c 0.43259,4.167 0.70753,9.5607 0.611,11.986 -0.1485,3.7307 0.27408,4.8084 2.7447,7 4.0959,3.6333 5.2536,7.884 5.7443,21.09 l 0.42723,11.5 -7.6856,5.8857 c -4.2271,3.2371 -8.5132,6.1021 -9.5248,6.3666 -1.0116,0.26453 -1.8392,0.87848 -1.8392,1.3643 0,0.48585 -0.6199,0.88337 -1.3776,0.88337 -1.539,0 -3.9365,2.5323 -4.2189,4.456 -0.10125,0.68986 -1.3473,3.232 -2.769,5.6491 -7.268502,12.358 -9.976602,20.058 -9.107002,25.895 0.20486,1.375 0.594,7.3247 0.86474,13.222 l 0.49226,10.722 -3.4914,5.0756 c -1.9203,2.7916 -4.6702,7.8668 -6.111,11.278 -2.7734,6.567 -5.610471,9.57306 -6.449371,8.73416 -0.55468,-0.55468 4.921571,-11.71376 8.466571,-19.03176 1.8886,-3.8983 2.2536,-6.7731 2.7301,-21.5 0.58742,-18.157 1.0744,-20.103 7.713402,-30.815 1.3005,-2.0984 3.2927,-5.4734 4.4273,-7.5 l 2.0628,-3.6848 -2.0793,1.8713 c -9.028902,8.1258 -5.119702,-31.541 4.377,-44.413 1.3581,-1.8408 2.4692,-4.189 2.4692,-5.2183 0,-1.0293 0.48801,-2.7833 1.0845,-3.8978 3.0635,-5.7241 1.9246,-26.806 -1.4534,-26.904 -5.279,-0.15333 -18.767002,-14.005 -23.092002,-23.714 -7.78,-17.51 -8.4,-57.95 -1.26,-82.26 1.2891,-4.3857 1.2324,-4.665 -2.231,-11 l -3.5537,-6.5 0.008,-14.106 c 0.006,-10.535 0.35874,-14.529 1.3925,-15.774 6.228,-7.5043 -9.2547,3.5176 -19.401,13.811 -32.302,32.771 -39.751,82.649 -20.921,140.07 3.0537,9.312 5.6779,16.088 6.7192,17.351 0.61279,0.74299 1.2021,1.9502 1.3096,2.6828 0.10751,0.73252 1.5649,4.0267 3.2386,7.3203 20.711,40.757 25.02,65.531 14.477,83.238 -7.0248,11.798 -8.1401,19.096 -4.1903,27.419 l 2.374,4.99 0.2999,-5.75 c 0.16495,-3.1625 0.6793,-5.75 1.143,-5.75 6.8126,0 -3.1178,65.022 -11.951,78.249 -6.4399,9.6438 -7.4176,15.746 -3.7424,23.357 l 2.25,4.6595 0.50668,-4.3828 c 0.4911,-4.248 0.54792,-4.31 1.8474,-2.0165 1.5311,2.7023 0.01982,10.164 -2.4787,12.237 -1.8938,1.5718 -1.723,2.8954 0.37464,2.9021 3.8657,0.0123 9.25,2.136 9.25,3.6484 0,1.078 -0.54071,1.35 -1.75,0.88024 -4.3909,-1.7055 -12.101,-2.5416 -14.617,-1.585 -1.448,0.54 -2.633,0.77 -2.633,0.49 0,-0.27551 -1.3458,0.19499 -2.9906,1.0456 -4.0584,2.0987 -6.2125,5.6779 -5.8281,9.6841 l 0.319,3.32 2.4045,-3.8681 c 7.664,-12.329 27.067,-8.0959 40.001,8.7264 5.9227,7.7032 4.3442,10.166 -2.2834,3.5622 -5.8785,-5.8571 -7.4922,-7.098 -11.908,-9.1566 -2.0481,-0.95482 -3.6092,-2.1581 -3.4691,-2.674 2.4264,-8.9366 -17.507,-5.42 -22.163,3.91 -0.96075,1.925 -3.3972,6.5182 -5.4144,10.207 -4.358,7.98 -4.331,7.8 -1.172,7.8 1.3728,0 5.3103,0.9875 8.75,2.1944 15.171,5.3232 36.825,2.458 39.254,-5.1938 0.69618,-2.1935 3.5002,-2.7728 3.5002,-0.72318 0,7.9529 -15.99,13.239 -33.331,11.019 -21.969,-2.8125 -27.411,-4.4932 -24.787,-7.6549 3.419,-4.12 9.853,-17.64 8.394,-17.64 -6.8872,0 2.7056,-14.933 11.022,-17.157 5.3828,-1.4397 9.9915,-6.8215 6.84,-7.9874 -6.6674,-2.4664 -6.5203,-14.318 0.35118,-28.29 11.398,-23.175 16.276,-54.592 10.347,-66.638 -5.0261,-10.211 -4.5292,-24.87 1.1148,-32.888 8.2264,-11.687 9.0319,-19.279 4.1225,-38.856 -3.5518,-14.163 -4.0721,-14.724 -5.9048,-6.3629 -0.64135,2.926 -1.7292,5.9354 -2.4175,6.6875 -0.6883,0.75216 -2.5359,2.9707 -4.1057,4.93 -1.5698,1.9594 -4.409254,-1.99922 -5.176954,-1.99922 -2.1741,0 1.536205,-1.95878 4.895705,-5.15278 7.6859,-7.3072 8.437749,-14.2484 4.646049,-23.7854 l -1.9878,-5 0.60506,5.157 c 0.89573,7.6343 -1.4176,22.05 -4.2614,26.554 -3.8538,6.1048 -16.967993,4.03214 -17.794993,0.0611 -0.28535,-1.3707 0.31219,-1.75 2.7568,-1.75 5.2767,0 18.342993,-6.72454 16.301993,-12.04354 -0.29855,-0.778 -0.11247,-1.6805 0.41351,-2.0056 3.0431,-1.8807 -1.0507,-23.683 -6.4453,-34.325 -3.5022,-6.9095 -5.7623,-9.3389 -3.7402,-4.0205 6.4351,16.926 7.6477,52.873 1.7835,52.873 -1.1993,0 -1.1887,-0.62954 0.07093,-4.25 3.6974,-10.627 -1.8532,-50.396 -8.9786,-64.33 -0.82127,-1.6061 -1.8296,-4.4804 -2.2408,-6.3873 -0.41118,-1.9069 -1.1371,-4.1569 -1.6131,-5 -0.476,-0.85 -1.572,-3.56 -2.436,-6.04 -4.142,-11.87 -8.457,-25.05 -9.902,-30.25 -0.879,-3.16 -1.993,-5.75 -2.476,-5.75 -0.97229,0 -0.97522,-0.0174 2.0158,12 1.1636,4.675 2.3055,9.625 2.5375,11 0.91135,5.3995 1.6696,8.5 2.4377,9.9672 1.6329,3.1194 7.7671,19.725 9.4319,25.533 0.94594,3.3 2.348,7.9927 3.1157,10.428 0.76768,2.4355 1.3958,5.248 1.3958,6.25 0,1.002 0.5625,1.8288 1.25,1.8372 0.82872,0.0101 0.89268,0.26292 0.18976,0.75 -0.68715,0.47616 -0.84432,3.5498 -0.44665,8.7347 1.312,17.105 0.02129,27.79 -3.5212,29.149 -2.3923,0.91803 -2.7975,-0.2225 -1.0348,-2.9128 4.0044,-6.1114 2.8308,-33.412 -2.1098,-49.08 -3.028,-9.6025 -3.5876,-9.4975 -1.8772,0.35234 3.5871,20.657 6.800488,59.53569 4.014688,59.53569 -1.1857,0 -3.844388,-20.65169 -3.600888,-27.69779 0.37204,-10.764 -1.0954,-21.533 -6.4518,-47.347 -2.4966,-12.032 -3.3014,-14.694 -6.9523,-23 -17.3030004,-39.364 -24.1010004,-79.342 -17.4420004,-102.56 0.5214,-1.818 0.75213,-3.5014 0.51272,-3.7408 -0.2394,-0.2394 0.16385,-1.0344 0.89613,-1.7667 0.73227,-0.73228 1.6411,-3.4912 2.0196,-6.131 0.3785,-2.6397 1.7894,-7.5925 3.1354,-11.006 1.3460004,-3.4137 2.3670004,-6.5637 2.2689004,-7 -1.5775004,-7.0163 23.415,-36.892 36.855,-44.056 23.339,-12.439 46.049,9.5323 36.838,35.64 -1.9025,5.3923 -1.3917,5.2277 5.3164,-1.7137 19.036002,-19.698 51.053002,-25.347 67.390002,-11.89 2.7001,2.2241 4.75,4.7527 4.75,5.8593 0,3.3286 3.8867,9.867 5.8653,9.867 2.4983,0 5.4196,-3.315 4.0916,-4.643 -0.68762,-0.68762 -0.50144,-3.9958 0.57637,-10.241 2.1585,-12.508 1.4874,-14.153 -2.3929,-5.8656 -5.4027,11.539 -7.7671,6.417 -5.1932,-11.25 1.0534,-7.2301 0.70778,-7.2933 -1.5678,-0.2871 -3.2688,10.064 -4.9035,7.9242 -4.7453,-6.2129 0.11422,-10.21 -0.035,-11.48 -1,-8.5122 -3.8417,11.813 -5.6199,2.8166 -2.6731,-13.524 2.3742,-13.166 2.1203,-13.928 -1.2462,-3.7387 -6.8167,20.631 -9.108,2.5344 -3.2254,-25.475 0.72195,-3.4375 1.185,-6.25 1.029,-6.25 -0.52887,0 -5.2689,10.466 -7.699,17 -2.757,7.4127 -5.5508,8.8123 -6.986,3.5 -1.0837,-4.011 0.12134,-14.62 2.3164,-20.394 0.53881,-1.4172 1.5852,-5.2833 2.3252,-8.5914 0.74005,-3.3081 1.8045,-7.4773 2.3655,-9.2648 0.56097,-1.7875 0.85696,-3.25 0.65776,-3.25 -1.0158,0 -7.5517,14.482 -8.1091,17.968 -0.76962,4.813 -3.9234,5.736 -4.996,1.4622 -1.1333,-4.5153 5.795,-36.089 11.176,-50.93 0.39881,-1.1 -0.59818,-0.2 -2.2155,2 -3.0956,4.2108 -7.3532,13.367 -7.3532,15.813 0,2.0755 -2.4726,3.8267 -4.3732,3.0973 -3.6239,-1.3906 -1.2339,-15.19 5.7581,-33.246 1.9884,-5.1347 3.6036,-9.6347 3.5896,-10 -0.0657,-1.7046 -7.2102,10.899 -10.165,17.932 -3.43,8.1644 -5.3121,9.7349 -6.4124,5.3508 -1.6249,-6.4741 4.6027,-25.326 15.749,-47.675 2.1198,-4.2503 3.8431,-8.3003 3.8297,-9 -0.0267,-1.39 -11.328,15.646 -15.116,22.787 -2.3679,4.4636 -4.4639,5.6348 -5.4562,3.0488 -0.8177,-2.1309 4.1813,-15.77 10.659,-29.081 7.3913,-15.189 6.997,-15.353 -2.5579,-1.0654 -8.5893,12.844 -8.8095,13.08 -10.406,11.156 -3.279,-3.951 3.0272,-19.207 15.676,-37.923 11.997,-17.751 10.226,-16.945 -8.0668,3.6744 -2.864,3.2282 -6.6697,7.4786 -8.4572,9.4454 -1.7875,1.9668 -3.25,3.938 -3.25,4.3806 0,0.44252 -0.9,0.80458 -2,0.80458 -2.5248,0 -2.5793,-2.367 -0.13464,-5.8456 1.026,-1.4599 6.9416,-10.754 13.146,-20.654 6.2043,-9.9 13.032,-20.645 15.173,-23.878 2.1408,-3.2331 3.7541,-6.0167 3.585,-6.1859 -0.51974,-0.51974 -25.195,23.827 -28.19,27.814 -2.7145,3.6142 -5.5791,4.9602 -5.5791,2.6216 0,-0.62063 1.3852,-2.7581 3.0783,-4.75 1.693,-1.9919 5.7835,-7.2216 9.0899,-11.622 8.3932,-11.169 10.277,-13.554 19.168,-24.27 6.3596,-7.6648 7.2341,-9.0945 4.6409,-7.587 -4.5856,2.6656 -17.102,13.473 -20.801,17.96 -2.3921,2.902 -3.4303,3.5428 -4.3119,2.6611 -1.414,-1.414 0.17318,-4.0953 7.5418,-12.741 2.8018,-3.2875 5.9943,-7.0631 7.0943,-8.3902 6.0967,-7.3556 11.646,-12.892 18.234,-18.192 4.0616,-3.2674 7.1421,-5.9408 6.8455,-5.9408 -1.5759,0 -21.651,9.3812 -22.649,10.584 -0.64627,0.77871 -1.5889,1.4158 -2.0948,1.4158 -1.0772,0 -3.137,1.6079 -6.085,4.75 -2.4297,2.5897 -4.7503,2.9456 -4.7503,0.72855 0,-4.2312 22.09,-21.578999 35.7,-28.036999 3.4099,-1.6179 6.2224,-3.1949 6.25,-3.5046 0.20515,-2.3006 -35.915,4.58 -37.499,7.1433 -0.80863,1.3084 -2.7694,1.1381 -4.9088,-0.4263 -6.4893,-4.7451 45.11665,-19.769 56.65965,-16.66 5.0272,1.3537 6.7183,3.5453 1.8987,2.4606 -8.6678,-1.9507 -26.19265,-0.03122 -39.34665,5.3248 -10.313,4.1994 -10.534,4.706 -1.1846,2.7195 17.286,-3.6729 40.72,-2.8143 27.745,1.0165 -6.8,2.013 -24.84,12.869999 -32.31,19.449999 l -3.5,3.0823 6.5,-3.4509 c 18.709,-9.932699 35.678,-13.948999 21.741,-5.1457 -6.3571,4.0156 -18.625,15.76 -26.741,25.601 -5.0704,6.1478 -4.7954,5.9922 12.004,-6.7938 6.6844,-5.0875 12.568,-9.25 13.075,-9.25 1.9933,0 0.66306,1.9918 -5.4201,8.1159 -9.0982,9.1594 -17.966,20.578 -17.086,22.001 0.42502,0.68768 0.31242,0.92984 -0.2661,0.5723 -0.91582,-0.56601 -11.931,12.058 -11.147,12.774 0.18724,0.17096 5.5154,-4.6223 11.84,-10.652 13.338,-12.714 17,-15.63 17,-13.535 0,0.77721 -0.95628,2.2704 -2.1251,3.3181 -3.777,3.3858 -16.2,22.696 -33.716,52.405 -0.81064,1.375 3.4344,-2.661 9.4334,-8.969 21.315,-22.412 23.354,-24.417 24.091,-23.68 0.40991,0.4099 0.3112,1.3689 -0.21935,2.131 -19.446,27.936 -29.26,45.017 -31.322,54.518 -0.95586,4.4039 -0.94112,4.4467 0.69031,2.0035 4.2407,-6.3508 23.423,-31.54 24.244,-31.837 1.5324,-0.5535 1.0403,1.8586 -0.95459,4.679 -5.0771,7.1781 -22.028,44.582 -20.773,45.838 0.15925,0.15924 4.0271,-5.5901 8.5952,-12.776 7.5247,-11.837 10.248,-15.048 11.609,-13.686 0.64968,0.64969 -1.5248,6.3386 -7.5605,19.78 -7.16,15.97 -13.99,34.82 -13.99,38.64 0,0.29385 1.6205,-2.5406 3.6011,-6.2988 11.429,-21.686 20.643,-31.226 15.023,-15.553 -7.2906,20.331 -10.505,30.119 -11.084,33.753 l -0.63254,3.9672 1.6042,-2.7993 c 0.88234,-1.5396 2.9462,-4.6896 4.5863,-7 1.6401,-2.3104 3.9766,-5.6576 5.1922,-7.4383 3.5796,-5.2435 6.8914,-2.1442 3.7413,3.5012 -1.3986,2.5066 -5.3972,16.076 -8.3205,28.236 -4.3077,17.919 -4.2276,18.549 1.0813,8.5 6.1161,-11.577 9.9517,-17.5 11.332,-17.5 1.1638,0 0.45065,5.8399 -1.0836,8.8731 -1.1712,2.3155 -3.6985,11.372 -5.6167,20.127 -0.90375,4.125 -2.0497,9.3 -2.5466,11.5 -1.3815,6.1167 -2.1697,14.091 -1.3096,13.25 0.4218,-0.41277 0.83513,-1.5378 0.91851,-2.5 0.0834,-0.96223 1.4376,-4.4495 3.0093,-7.7495 1.5717,-3.3 4.4658,-9.4602 6.4312,-13.689 5.8328,-12.551 7.5048,-10.238 4.1356,5.7198 -1.0486,4.9667 -2.4051,12.842 -3.0145,17.5 -0.60934,4.6583 -1.3169,9.9322 -1.5723,11.72 -0.61952,4.3354 0.0885,4.1129 1.591,-0.5 2.0969,-6.4378 8.8664,-20.25 9.9247,-20.25 1.3221,0 1.3637,-0.42272 -1.379,14 -1.3074,6.875 -2.6494,15.2 -2.9822,18.5 -0.65565,6.5012 -0.81159,6.6787 3.9376,-4.4834 4.1851,-9.8362 5.6072,-6.9638 3.0617,6.1842 -0.7135,3.6854 -1.1037,8.0196 -0.86713,9.6316 0.23658,1.6119 -0.0631,3.2356 -0.66597,3.6082 -0.60287,0.37259 -1.083,2.3384 -1.067,4.3684 0.0276,3.4977 0.17767,3.3244 2.8652,-3.309 5.2022,-12.841 8.3207,-4.1968 3.9651,10.99 -2.0791,7.2494 -1.0329,9.0703 1.9408,3.3779 1.5401,-2.9481 3.5069,-5.4963 4.3707,-5.6626 2.8309,-0.54519 2.8734,1.9605 0.31831,18.794 l -0.68301,4.5 2.1936,-4 c 6.3062,-11.499 8.4444,-8.229 5.1514,7.8794 -1.7921,8.7667 -1.7909,8.846 0.10021,6.25 5.1392,-7.0549 5.7371,-1.2311 2.8138,27.408 -1.268,12.423 -2.2131,18.345 -3.0262,18.963 -0.85153,0.64767 -3.7484,16.627 -4.5321,25 -0.33465,3.575 -1.4665,12.35 -2.5152,19.5 -1.0487,7.15 -2.402,16.825 -3.0074,21.5 -2.9135,22.499 -8.5512,35.155 -18.137,40.717 l -3.0729,1.7829 0.66449,12 c 1.874,33.843 13.506,69.809 23.616,73.017 1.8905,0.60003 8.5888,-0.0176 28.695,-2.6456 9.8349,-1.2855 9.5518,0.003 3.7576,-17.106 -10.163,-30.01 -12.35,-66.017 -4.1052,-67.604 1.5533,-0.29913 1.7641,0.0495 1.2022,1.9881 -6.0136,20.747 1.1253,59.993 16.071,88.351 0.57974,1.1 2.2465,4.475 3.7039,7.5 1.4574,3.025 4.2156,8.425 6.1293,12 10.811,20.196 13.473,33.459 9.0331,45 -3.2833,8.5341 -3.3205,21.486 -0.0695,24.204 12.305,10.291 12.61,10.747 14.928,22.299 0.88258,4.3981 2.5273,12.496 3.6549,17.996 3.018,14.72 3.7177,19.594 4.9274,34.318 2.0074,24.433 3.122,27.204 10.922,27.15 4.0354,-0.0279 4.3819,-0.1936 2.845,-1.3602 -1.81,-1.38 -2.37,-3.61 -0.89,-3.61 2.4159,0 6.0905,8.1238 7.4634,16.5 0.7209,4.3982 -1.22793,20.41768 -2.86363,20.96268 -1.1166,0.37219 -1.2082,-0.45356 -0.49041,-4.4199 z M 112.00094,651.74498 c 2.75,-1.3623 6.35,-3.7156 8,-5.2295 1.65,-1.5139 3.8532,-3.0276 4.8959,-3.3637 2.1863,-0.70467 1.8581,-22.708 -0.43462,-29.139 l -1.1605,-3.2551 -2.895,2.436 c -1.5923,1.3398 -3.7484,2.7068 -4.7914,3.0379 -2.6349,0.83629 -5.5667,8.2396 -7.9346,20.036 -3.2038,15.961 -3.4376,19.395 -1.2423,18.248 0.30937,-0.16168 2.8125,-1.4086 5.5625,-2.7708 z m -0.0834,-9.377 c -2.1541,-1.8701 -3.6254,-3.6988 -3.2694,-4.0639 0.69271,-0.71043 9.6872,5.4574 9.7909,6.714 0.14383,1.7428 -2.8738,0.5165 -6.5215,-2.6501 z m 10.688,-7.4048 c -2.59,-4.83 -4.91,-19.2 -3.11,-19.2 0.55,0 1,1.0215 1,2.2701 0,1.2486 0.91789,5.5824 2.0397,9.6308 2.1339,7.7004 2.1651,11.219 0.0646,7.2942 z m -17.618,6.4646 c 1.3938,-6.4468 2.7997,-13.395 3.1241,-15.441 0.3244,-2.0455 0.99474,-4.477 1.4896,-5.4033 1.4849,-2.7794 0.94345,-3.5161 -0.59948,-0.81574 -2.8056,4.9102 -7.5001,24.574 -7.5005,31.417 -2.8e-4,4.8529 0.82983,2.5296 3.4863,-9.757 z m 25.2,-6.66 c 0.8516,-2.221 0.34885,-7.7846 -1.2651,-14 -1.1355,-4.3728 -1.3279,-4.6802 -0.93867,-1.5 0.26924,2.2 0.54668,7.825 0.61654,12.5 0.0699,4.675 0.32615,7.6 0.56955,6.5 0.2434,-1.1 0.70137,-2.675 1.0177,-3.5 z m -99.009002,-82.18 c -0.83541,-3.4741 -1.8208,-9.3964 -2.1898,-13.161 -0.37485,-3.824 -1.7303,-9.1195 -3.0715,-12 -1.3203,-2.8356 -2.4049,-6.6448 -2.4103,-8.4647 -0.007,-2.3795 -0.36091,-3.098 -1.2598,-2.558 -0.97775,0.58741 -0.9741,0.4102 0.01676,-0.81363 0.9979,-1.2325 1.0216,-2.7059 0.1116,-6.942 -3.0429,-14.165 2.2926,-52.773 9.3115,-67.377 14.278,-29.708 39.023,-40.32 39.057,-16.75 0.0018,1.2375 0.45953,2.25 1.0172,2.25 6.3647,0 -4.7299,-24.93 -11.986,-26.934 -32.101,-8.87 -52.1190004,71.61 -34.434,138.43 4.4717,16.894 9.3108,28.763 5.8369,14.317 z m -12.54,-11.07 c -0.44515,-1.2375 -1.4062,-5.5125 -2.1357,-9.5 -0.72946,-3.9875 -1.6291,-7.25 -1.9992,-7.25 -0.37011,0 -0.6886,-0.5625 -0.70775,-1.25 -0.01915,-0.6875 -0.79879,-6.332 -1.7325,-12.543 -0.93375,-6.2114 -1.5695,-12.286 -1.4127,-13.5 0.15676,-1.2136 -0.0506,-2.7455 -0.4608,-3.4043 -1.4563004,-2.3386 -0.8834104,-33.438 0.76081,-41.302 3.32,-15.88 4.3643,-19.742 7.3459,-27.173 6.2003,-15.452 16.891,-27.918 29.554,-34.458 15.509,-8.0106 36.799,12.558 30.501,29.467 -1.2567,3.3744 1.2627,2.303 3.0076,-1.2791 6.7355,-13.827 2.1988,-32.291 -9.0933,-37.009 -10.363,-4.3301 -39.092,4.2652 -35.217,10.536 0.31136,0.5038 -0.0682,0.916 -0.84348,0.916 -7.2161,0 -19.419,22.745 -28.8880004,53.845 -4.5152,14.829 -4.5706,55.349 -0.08555,62.521 0.39002,0.62363 0.80545,1.8089 0.92319,2.6339 0.11774,0.825 0.8963,3.75 1.7301,6.5 0.8338404,2.75 2.2547004,7.5881 3.1575004,10.751 0.9999,3.5034 2.0561,5.495 2.7025,5.0955 0.60902,-0.37639 0.76866,-0.18267 0.37472,0.45473 -0.37748,0.61077 -0.01997,2.7053 0.79446,4.6545 1.6166,3.869 3.0326,4.9318 1.724,1.294 z m -0.057,-19.84 c -2.01,-15.85 -2.763,-44.64 -1.554,-59.41 0.40537,-4.95 0.78937,-10.35 0.85333,-12 0.06396,-1.65 0.35986,-3.225 0.65755,-3.5 0.29769,-0.275 1.337,-3.9386 2.3097,-8.1414 2.849,-12.31 17.351,-36.86 21.775,-36.86 0.50406,0 2.7014,-1.1812 4.8829,-2.6248 12.193,-8.0691 26.611,3.788 27.09,22.279 0.08806,3.3976 0.19303,3.5546 0.90032,1.3461 3.2768,-10.232 -0.96728,-21.164 -11.218,-28.896 -2.5408,-1.9165 -10.646,-2.498 -13.69,-0.98209 -34.623,17.245 -48.2630004,72.427 -32.932,133.23 1.5026,5.9593 1.9623,3.7457 0.92328,-4.4458 z m 9.5396,-6.6553 c 0.07731,-5.4839 -0.29595,-9.0366 -1,-9.5182 -0.77755,-0.53179 -0.61167,-1.0707 0.53885,-1.7506 0.91421,-0.54024 1.9666,-2.8945 2.3386,-5.2317 2.757,-17.322 11.099,-36.652 21.456,-49.72 1.9489,-2.459 4.2184,-5.35 5.0434,-6.4245 0.825,-1.0745 2.8165,-3.2057 4.4257,-4.736 2.7751,-2.6392 2.878,-3.0287 2,-7.5677 -3.423,-17.69 -24.779,17.61 -30.972,51.2 -2.79,15.14 -4.478,16.38 -2.453,1.81 5.004,-36.01 35.999,-82.58 35.999,-54.09 0,3.0216 1.4201,3.7311 2.393,1.1957 2.579,-6.72 -2.91,-17.08 -8.393,-15.84 -22.328,5.04 -38.851,52.55 -33.971,97.67 1.5099,13.961 2.425,15.019 2.5945,2.9999 z m 151.840002,-106.94 c 0.93344,-3.7191 -0.0707,-3.9601 -1.8847,-0.45223 -1.9342,3.7404 -1.9568,4.2268 -0.16399,3.5388 0.77537,-0.29754 1.6973,-1.6865 2.0487,-3.0866 z m 120.8,452.36 c 1.5192,-1.2437 5.2317,-3.5117 8.25,-5.04 6.8409,-3.4639 6.8244,-3.5583 -0.50571,-2.8936 -9.3995,0.85232 -17.526,-3.1079 -19.459,-9.4831 -0.49631,-1.6366 -0.27338,-2.25 0.81767,-2.25 0.825,0 1.7935,0.92477 2.1522,2.055 1.1916,3.7545 2.9769,1.3933 3.2811,-4.3398 0.3891,-7.3324 -1.1041,-10.071 -9.6735,-17.744 -11.745,-10.516 -18.691,-28.031 -19.839,-50.028 -0.64168,-12.296 0.015,-14.347 9.2715,-28.948 l 5.581,-8.8036 -2.1955,-4.3035 c -1.2075,-2.3669 -3.7075,-6.5016 -5.5555,-9.1882 -5.8996,-8.5765 -6.2748,-12.819 -2.3614,-26.7 1.8832,-6.6796 3.457,-14.724 6.9101,-35.321 5.0179,-29.93 22.106,-41.578 32.022,-21.829 7.826,15.586 9.75,56.032 3.6188,76.076 -4.9161,16.071 -3.3986,23.644 5.3187,26.539 11.585,3.848 17.554,23.947 18.718,63.034 0.7085,23.785 2.1872,28.775 7.5252,25.393 5.5906,-3.5421 13.3879,1.74677 10.861,10.132 -11.03918,36.63222 -2.62502,34.13563 -5.60962,35.01263 -2.1887,0.64373 -6.50948,-12.43043 -1.89038,-21.48263 6.4702,-12.68 5.6138,-25.362 -1.4572,-21.578 -10.797,5.7783 -14.671,-1.3526 -15.545,-28.615 -1.2896,-40.206 -4.7168,-55.369 -12.991,-57.476 -11.705,-2.9815 -14.022,-12.396 -8.9571,-36.386 6.562,-31.078 2.0902,-71.645 -8.3344,-75.608 -5.4941,-2.0889 -14.661,6.6217 -17.306,16.445 -1.0368,3.8504 -1.5505,7.3687 -3.8202,26.163 -0.46493,3.85 -2.0252,12.324 -3.4672,18.83 -3.6994,16.691 -3.5421,19.808 1.364,27.031 7.4397,10.952 7.5829,14.614 1.095,27.995 -10.099,20.828 -10.849,25.526 -6.6651,41.766 3.2139,12.476 6.8116,18.648 16.997,29.161 9.6254,9.9349 10.563,12.283 8.8565,22.191 -1.6526,9.5975 11.855,13.992 26.22,8.5301 3.4983,-1.3301 8.0137,4.65121 8.4568,7.75796 0.40402,2.8329 -0.5079,2.8471 -2.7784,0.0431 -2.2794,-2.8149 -6.3337,-5.79256 -20.4134,1.29134 -10.724,5.3958 -12.659,5.9815 -8.4925,2.5702 z M 80.554184,856.37653 c -0.54,-1.41 -0.98,-2.97 -0.98,-3.46 0,-0.49584 -1.098046,-11.35565 -3.573046,-14.14235 -4.7364,-5.3329 -4.8421,-5.7252 -4.7177,-17.5 0.06387,-6.0425 2.4012,-13.5 4.2311,-13.5 1.203,0 1.2136,0.25416 0.13301,3.1849 -0.46947,1.2733 -1.1584,3.5741 -1.5311,5.1129 l -0.67747,2.7978 5.281,-4.1635 c 7.319,-5.7702 7.3862,-6.1813 3.5763,-21.882 l -3.29,-13.55 0.18269,-28 c 0.18932,-29.016 0.93003,-38.544 3.0513,-39.249 0.91591,-0.30419 1.0469,0.46036 0.5,2.9182 -1.8613,8.3645 -0.72017,54.857 1.6894,68.83 4.5364,26.307 4.6524,25.709 -6.6495,34.295 -5.893,4.4768 -6.1513,10.629 -0.69957,16.663 3.127,3.4612 6.491646,20.34305 6.491646,23.22605 0,1.9968 -2.0781,0.91412 -3.0248,-1.5758 z M 37.501138,649.97248 c 0,-1.302 2.2865,-3.2 3.855,-3.2 1.155,0 1.0818,0.41237 -0.35499,2 -1.8592,2.0544 -3.5,2.617 -3.5,1.2 z m 58.364,-24.409 c -4.3331,-4.5884 -13.32,-16.722 -16.648,-22.478 -1.52,-2.64 -4.236,-7.29 -6.019,-10.31 -12.703,-21.55 -20.607,-58.03 -16.792,-77.5 1.1543,-5.8918 1.8577,-1.9082 2.5007,14.161 1.2383,30.949 12.558,59.417 36.438,91.638 4.876602,6.58 5.214002,9.4561 0.52707,4.493 z m 405.460002,-396.17 c -8.4938,-3.4935 -16.321,-10.27 -21.043,-18.219 -4.0715,-6.854 -18.704,-27.29 -23.556,-32.898 -23.164,-26.776 -45.492,-39.795 -68.172,-39.751 -17.185,0.0337 -22.511,1.9619 -29.912,10.828 -5.5366,6.6325 -7.1415,7.6834 -7.1351,4.6723 0.0194,-9.0914 26.064,-27.166 39.246,-27.235 4.0526,-0.0214 3.3441,1.6338 -1,2.3361 -4.0154,0.64922 -18.851,7.3816 -18.044,8.1884 0.26615,0.26616 4.0412,-0.0182 8.3891,-0.63186 18.355,-2.5907 30.108,1.0694 61.405,19.122 19.942,11.503 24.244,12.629 49,12.822 16.233,0.12656 20.556,-0.28567 41,-3.9098 28.029,-4.9689 59.965,-1.5194 55.286,5.9718 -0.85754,1.3731 -0.48546,3.0277 1.7246,7.6688 11.035,23.174 12.278,29.044 6.7214,31.759 -7.5538,3.6906 -45.221,4.1114 -63.482,0.70916 -3.9095,-0.72837 -4.2518,-0.62188 -4.272,1.3291 -0.13891,13.414 -13.709,22.358 -26.156,17.238 z m 90.206,-36.87 c -10.133,-22.998 -11.328,-24.576 -19.294,-25.474 -7.2286,-0.81477 -10.611,6.1427 -8.618,17.727 1.5831,9.2007 2.1763,10 7.422,10 5.572,0 18.401,1.9002 20.455,3.0296 2.4582,1.352 2.4658,0.23305 0.0356,-5.2825 z m -61.18,1.6839 c 0.83741,-0.7056 -2.094,-11.093 -4.0014,-14.18 -4.3938,-7.1093 -10.274,-6.3336 -13.781,1.8181 -3.6545,8.4952 -2.9482,12.747 2.1845,13.149 4.1812,0.32765 14.918,-0.21414 15.598,-0.78709 z m -23.47,-2.55 c 2.5618,-12.809 -7.3089,-22.251 -14.807,-14.165 -3.2409,3.4952 -5.1119,12.244 -3.6442,17.04 0.0421,0.1375 4.0703,0.25 8.9515,0.25 h 8.875 l 0.625,-3.125 z m 54.913,-0.375 c -5.7565,-30.784 -32.092,-34.216 -28.974,-3.7757 0.78686,7.6809 0.23681,7.4327 15.706,7.0858 l 13.829,-0.31011 -0.561,-3 z m -77.173,-2.75 c 0.21992,-10.026 -1.063,-13.59 -5.4081,-15.024 -4.8223,-1.591 -7.2372,-0.24594 -9.6569,5.3788 -3.8538,8.9583 -0.31322,12.645 14.2,14.784 0.4125,0.0608 0.80182,-2.2519 0.86515,-5.1394 z m -17.846,-13.448 c -0.95967,-2.5968 -7.4974,-6.648 -9.0985,-5.6381 -2.7993,1.7658 -2.3757,3.2018 2.4741,8.3865 l 4.7883,5.1191 1.1394,-3.335 c 0.62665,-1.8342 0.9402,-3.8739 0.69679,-4.5326 z m 43.73,3.32 c 0,-8.0392 14.947,-7.8208 18.204,0.26602 1.0283,2.5526 1.0873,2.4969 2.3419,-2.2104 0.70786,-2.656 2.1121,-5.7609 3.1205,-6.8997 1.8035,-2.0369 1.7926,-2.0613 -0.66656,-1.4933 -1.375,0.31756 -8.6614,1.5974 -16.192,2.8442 l -13.692,2.2668 2.442,2.442 c 1.3431,1.3431 2.442,3.0821 2.442,3.8646 0,0.78246 0.45,1.1445 1,0.80462 0.55,-0.33992 1,-1.188 1,-1.8847 z m -20.703,-2.1467 1.7967,-2.4686 h -3.0467 c -3.0979,0 -3.5229,0.59543 -2.4397,3.4182 0.82414,2.1477 1.5763,1.9541 3.6897,-0.94963 z m 73.237,-7.7186 1.3737,-2.75 h -4.9535 c -5.0388,0 -6.0613,0.83573 -3.5611,2.9107 0.76583,0.63558 1.9756,2.5634 2.6883,4.2841 l 1.2959,3.1285 0.89154,-2.4116 c 0.49035,-1.3264 1.5097,-3.6491 2.2652,-5.1616 z m -107.54,-1.27 c 0,-0.4 -7.94,-4.48 -8.73,-4.48 -0.36596,0 0.85142,1.5649 2.7053,3.4776 2.9116,3.004 6.0217,3.521 6.0217,1.0009 z m -221.5,28.641 c -9.1511,-1.9761 -9.7825,-2.2785 -15.379,-7.3671 -5.8047,-5.2781 -4.8499,-7.063 1.2844,-2.4008 13.666,10.386 38.375,10.602 59.062,0.51521 6.5324,-3.1851 20.988,-15.577 22.041,-18.894 0.65221,-2.0549 3.4913,-2.78 3.4913,-0.89157 0,2.6436 -17.652,18.635 -24,21.742 -16.28,7.9684 -31.981,10.432 -46.5,7.2969 z m 354.8223,-12.82493 c -1.6008,-1.7689 -1.4983,-2.0928 1.9781,-6.25 5.6818,-6.7947 11.2334,-13.15707 9.568,-16.62007 -4.0122,-8.3442 -27.631,-15.924 -49.62,-15.924 -11.169,0 -14.691,-0.83162 -7.4998,-1.7711 2.0625,-0.26946 7.9361,-0.38801 13.053,-0.26345 l 9.3025,0.22647 -3.8025,-3.9308 c -2.0914,-2.162 -5.4819,-5.274 -7.5344,-6.9156 l -3.7319,-2.9848 -5.4369,4.4289 c -11.24,9.1558 -21.082,6.4196 -33.04,-9.1855 -19.837,-25.886999 -32.422,-27.750999 -40.117,-5.941 -2.6661,7.5566 -1.9798,7.837 19.188,7.837 11.404,0 17.273,0.34789 16.87,1 -0.33992,0.55 -4.529,1.0034 -9.309,1.0076 -4.78,0.004 -12.516,0.44952 -17.191,0.98965 -8.7923,1.0158 -14.894,0.0765 -15.101,-2.3248 -1.13,-13.09 9.63,-25.67 21.97,-25.67 6.2845,0 11.277,4.0711 23.812,19.418 14.032,17.179 18.867,18.882 29.877,10.523 15.83,-12.017 31.586,-14.922 30.246,-5.5765 -0.47859,3.3385 -3.3958,3.2677 -3.3452,-0.0812 0.0537,-3.5569 -3.547,-4.1785 -9.9778,-1.7225 -7.26,2.7726 -7.2188,3.4226 0.63251,9.9626 3.8833,3.2347 7.809,6.8308 8.7239,7.9912 1.0945,1.3883 3.8866,2.571 8.1634,3.458 38.19174,3.31207 33.2513,21.64307 18.4543,36.93707 -3.6694,3.7928 -3.9029,3.8456 -6.1302,1.3845 z m -344.8223,-4.65007 c -10.1,-2.53 -23.5,-11.84 -23.5,-16.33 0,-2.3455 1.9203,-1.4151 5.6892,2.7566 15.71,17.389 51.777,15.493 71.002,-3.7321 6.743,-6.743 7.3085,-7.128 7.3085,-4.9753 0,12.111 -40.934,27.185 -60.5,22.278 z m 92.284,-16.198 c -4.5186,-4.5186 16.995,-30.715 23.995,-29.218 1.2794,0.2736 0.84543,0.8325 -1.6904,2.1771 -7.7956,4.1335 -15.628,13.677 -18.622,22.691 -1.5333,4.6164 -2.3966,5.6362 -3.6826,4.3502 z m -79.28,-2.76 c -11.449,-5.1071 -16.285,-9.3848 -20.896,-18.484 -14.904,-29.412 22.133,-58.859999 53.808,-42.782999 23.431,11.892999 24.939,43.242999 2.8063,58.325999 -8.3347,5.6799 -26.268,7.1566 -35.718,2.9413 z m 26.59,-3.6219 c 23.977,-8.9711 27.733,-43.282 5.9702,-54.536 -31.671,-16.377999 -65.539,12.688 -47.949,41.149 8.4711,13.707 26.099,19.328 41.979,13.387 z m -34.56,-11.17 c -7.03,-6.18 -3.81,-16.9 5.09,-16.9 6.57,0 9.38,3.11 9.38,10.38 0,9.3585 -7.4201,12.7 -14.465,6.5144 z m 327.09265,-0.18735 c -0.33542,-0.87408 1.12676,-6.96745 2.34805,-10.83725 6.3658,-20.17 -3.757,-27.917 -29.858,-22.849 -15.537,3.0166 -18.946,1.8707 -32.586,-10.951999 -20.89,-19.633 -35.17,-24.201 -47.53,-15.2 -1.375,1.0014 -3.85,2.5377 -5.5,3.4141 -3.335,1.7714 -8.3395,6.369 -16.31,14.983999 -4.5388,4.9058 -5.5914,5.5883 -7.25,4.7006 -2.7144,-1.4527 -2.5571,-1.8768 3.0145,-8.128099 l 4.9549,-5.5592 -6.2049,-0.62772 c -3.41,-0.346 -10.25,-1.093 -15.2,-1.661 -13.38,-1.534 -61.9,-4.998 -78.5,-5.604 -15.81,-0.578 -17,-0.753 -17,-2.509 0,-0.88875 3.9127,-1.0136 15.75,-0.50266 8.6625,0.37392 21.375,0.90456 28.25,1.1792 13.431,0.53654 32.986,1.9832 47.5,3.514 4.95,0.52209 13.618,1.4287 19.263,2.0148 l 10.263,1.0655 6.3925,-5.0867 c 18.298,-14.56 35.064,-11.695 59.274,10.13 12.775,11.516999 16.348,13.278999 25.142,12.400999 34.283,-3.4201 41.377,-0.27861 41.563,18.405 0.10742,10.792 -5.48085,23.68705 -7.77465,17.70905 z M 345.00314,110.80578 c -29.74,-15.806999 -46.91,-22.288999 -64.25,-24.259999 -11.18,-1.2708 -13.645,-2.7718 -4.5,-2.7403 16.748,0.0577 46.813,9.8101 61.029,19.795999 1.4968,1.0515 6.4339,3.8133 10.971,6.1375 6.0589,3.1035 11.564,7.9076 8,6.9812 -0.1375,-0.0357 -5.2,-2.696 -11.25,-5.9118 z m -3,-7.6986 c -9.67,-7.062999 -18.72,-11.665999 -30.26,-15.380999 -6.22,-2.003 -9.34,-3.939 -6.35,-3.939 8.8294,0 37.722,15.219 47.555,25.049999 3.3185,3.3176 -3.341,-0.16462 -10.95,-5.7256 z m -2.85,-10.436999 c -13.51,-7.131 -47.31,-13.055 -61.27,-10.738 -4.02,0.668 -5.25,0.392 -3.96,-0.895 5.7,-5.701 70.58,6.131 70.58,12.872 0,1.2749 -1.0338,1.0352 -5.3453,-1.2393 z m -143.97,-17.134 c -2.5003,-8.5806 -5.9649,-14.21 -9.6966,-15.756 -2.0936,-0.86718 -2.7656,-1.6098 -2.0786,-2.2968 2.4198,-2.4198 8.724,3.7881 11.666,11.488 2.506,6.558 2.8616,7.0326 3.4949,4.6646 1.9781,-7.3964 -2.1395,-15.297 -10.681,-20.495 -1.3334,-0.81143 -1.5768,-1.4693 -0.83269,-2.2513 2.875,-3.0215 12.28,7.6719 13.388,15.222 l 0.56119,3.8245 6.9806,-9.2595 c 18.76,-24.879 73.52,-69.0460005 73.52,-59.2940005 0,0.8776 -0.83071,2.7901 -1.846,4.25 -1.01,1.4595 -2.32,4.4540005 -2.91,6.6540005 -0.58565,2.2 -1.7986,6.475 -2.6954,9.5 -0.8968,3.025 -2.0423,7.075 -2.5456,9 -0.50325,1.925 -1.7955,5.3 -2.8717,7.5 -2.535,5.1823 -2.1989,5.3312 3.3759,1.4956 8.6353,-5.9412 31.011,-15.586 32.094,-13.833 0.32991,0.53381 0.44228,1.0695 0.24971,1.1904 -2.9348,1.8423 -12.548,8.4201 -16.586,11.349 -2.8797,2.0888 -8.3727,6.0478 -12.207,8.7978 -9.0621,6.5 -8.8366,6.9311 1.463,2.7956 18.994,-7.6266 39.976,-10.628 26.73,-3.8241 -3.4276,1.7606 -15.432,8.579 -19.396,11.016 -14.01,8.6153 -19.894,12.587 -17.854,12.051 23.272,-6.1137 44.943,-8.1718 63.455,-6.0263 20.643,2.3925 26.112,5.3618 8.5783,4.6576 -10.505,-0.42195 -23.576,0.78792 -38.533,3.5669 l -9,1.6721 12.5,1.1884 c 13.038,1.2395 34.69892,6.400886 37.68192,8.303586 2.0691,1.3198 -3.58342,-0.647586 -25.01092,-4.343586 -21.467,-3.7027 -38.076,-2.9942 -49.931,2.1298 -3.6549,1.5798 -5.5196,1.383 -4.3792,-0.46206 1.6,-2.587 50.38,-13.106 61.64,-13.292 7.6993,-0.12714 1.4616,-1.7846 -7,-1.86 -17.741,-0.15817 -45.628,4.1458 -58.5,9.0286 -6.0352,2.2894 -7.136,2.369 -5.5,0.39769 0.68469,-0.825 1.77,-1.5 2.4118,-1.5 0.64178,0 7.8992,-4.251 16.128,-9.4466 8.2284,-5.1956 17.323,-10.824 20.211,-12.509 8.6112,-5.0223 6.7267,-5.0234 -8.75,-0.0053 -13.01,4.2182 -17.127,6.3902 -24.14,12.736 -1.7954,1.6243 -2.8655,2.0243 -3.3441,1.25 -0.42727,-0.69135 -3.0651,2.0266 -6.7141,6.918 -5.5373,7.4227 -7.8015,9.493 -7.8015,7.1335 0,-0.5078 1.0251,-2.1953 2.2779,-3.75 1.25,-1.556 3.59,-4.853 5.2,-7.328 1.607,-2.475 3.6846,-5.4 4.6167,-6.5 1.6627,-1.962 8.2278,-14.596 11.172,-21.5 0.82096,-1.925 3.3837,-9.35 5.695,-16.5 2.3113,-7.15 4.8508,-14.0120005 5.6435,-15.2500005 2.6341,-4.1127 0.67272,-2.9609 -15.605,9.1637005 -16.887,12.578 -49.646,47.071 -56.828,59.835 -3.6389,6.4671 -5.2662,6.1413 -7.4929,-1.5004 z m 67.56,-19.811 c 2.89,-2.783 11.9,-9.813 20.01,-15.62 8.11,-5.807 14.75,-10.718 14.75,-10.913 0,-0.848 -16.13,7.098 -22.64,11.15 -3.92,2.445 -7.58,4.445 -8.13,4.445 -0.55002,0 -1.7869,1.6875 -2.7486,3.75 -0.96171,2.0625 -3.0228,5.6625 -4.5801,8 -3.663,5.498 -3.0798,5.3561 3.3358,-0.81157 z m -84.52,20.07 c -9.09,-6.43 -14.69,-8.105 -29.22,-8.741 -18.918,-0.8277 -18.864,-3.1438 0.12681,-5.3835 21.575,-2.5445 33.4874,-0.758504 43.2604,9.210626 6.2647,6.3908 4.2287,6.9621 -2.4159,0.67787 -7.29209,-6.271602 -18.6234,-9.722926 -35.1244,-8.217126 l -8.8466,0.80744 9.3261,1.3008 c 14.72,2.053 31.33854,9.573537 31.33854,14.097537 0,2.0587 -0.96688,1.544763 -8.45194,-3.751837 z m 56.28,-2.104 c 0,-0.6026 0.91647,-2.3827 2.0366,-3.9558 3.9275,-5.5157 4.2642,-8.1188 1.9416,-15.013 -3.7806,-11.223 3.109,-21.864 22.24,-34.349 5.8148,-3.795 4.7283,-0.71533 -1.4944,4.2363 -16.18,12.875 -22.024,23.812 -17.398,32.56 1.7068,3.2279 1.4049,4.483 -2.9976,12.463 -2.7,4.897 -4.33,6.422 -4.33,4.059 z m 64.73774,-9.687543 c -0.26862,-0.43463 0.7527,-1.772076 3.3621,-4.501376 2.61,-2.729 16.55906,-17.489781 20.26906,-22.714781 3.71,-5.225 7.39,-10.293 8.18,-11.261 0.8,-0.969 1.45,-1.958 1.45,-2.198 0,-0.46231 -5.1394,1.0395 -8.5,2.4839 -1.1,0.47276 -5.2536,2.1882 -9.2301,3.8121 -3.9766,1.6239 -25.67937,8.007442 -30.31337,11.090442 -9.1901,6.1149 6.32419,-4.874437 8.58849,-6.314795 2.61455,-1.663155 29.79066,-14.568951 38.12258,-15.511947 7.15878,-0.810222 11.633,-5.3211 -5.5678,20.884 -5.5419,8.4433 -25.07926,26.307457 -26.36226,24.232457 z" />
</svg>
