<?xml version="1.0" encoding="UTF-8" standalone="no"?>
<svg
   xmlns:dc="http://purl.org/dc/elements/1.1/"
   xmlns:cc="http://creativecommons.org/ns#"
   xmlns:rdf="http://www.w3.org/1999/02/22-rdf-syntax-ns#"
   xmlns:svg="http://www.w3.org/2000/svg"
   xmlns="http://www.w3.org/2000/svg"
   id="svg937"
   version="1.1"
   viewBox="0 0 210 297"
   height="297mm"
   width="210mm">
  <title
     id="title1529">Jellyfish</title>
  <defs
     id="defs931" />
  <metadata
     id="metadata934">
    <rdf:RDF>
      <cc:Work
         rdf:about="">
        <dc:format>image/svg+xml</dc:format>
        <dc:type
           rdf:resource="http://purl.org/dc/dcmitype/StillImage" />
        <dc:title>Jellyfish</dc:title>
        <dc:date>2020-04-10</dc:date>
        <dc:creator>
          <cc:Agent>
            <dc:title>Lena London</dc:title>
          </cc:Agent>
        </dc:creator>
        <dc:source>http://www.supercoloring.com/coloring-pages/cartoon-jellyfish-0</dc:source>
        <dc:subject>
          <rdf:Bag>
            <rdf:li>csk</rdf:li>
            <rdf:li>animals</rdf:li>
            <rdf:li>jellyfish</rdf:li>
            <rdf:li>sea</rdf:li>
          </rdf:Bag>
        </dc:subject>
      </cc:Work>
    </rdf:RDF>
  </metadata>
  <g
     id="layer1">
    <path
       id="path1507"
       transform="scale(0.26458333)"
       d="m 495.88672,12.064453 c -1.70306,0.07849 -3.40265,0.995862 -6.1543,2.798828 -7.93935,5.202116 -8.41089,16.164712 -0.92187,21.410157 6.56035,4.595264 8.86029,4.582052 15.5332,-0.0918 2.08369,-1.459475 3.46721,-3.446054 4.22852,-5.640625 0.54999,-1.164137 0.86132,-2.45121 0.86132,-3.855469 0,-4.378241 -1.45947,-7.744788 -4.13867,-9.894531 -0.92534,-0.949581 -1.98967,-1.80522 -3.22656,-2.496094 -2.77228,-1.548466 -4.47859,-2.308927 -6.18164,-2.230469 z m 0.65625,5.542969 c 0.89261,0 1.64918,0.02765 2.33203,0.07422 0.19124,0.07084 0.38013,0.140783 0.56445,0.224609 0.85807,0.406598 1.70143,0.972945 2.5,1.771484 0.20599,0.206056 0.3702,0.395879 0.55078,0.591797 0.35717,0.439491 0.66927,0.912924 0.93165,1.421875 0.0899,0.828125 0.13867,1.771638 0.13867,2.964844 0,1.057195 -0.0493,1.91764 -0.13282,2.699219 -0.0552,0.09544 -0.0946,0.18135 -0.15625,0.279297 -3.43098,5.448269 -8.87175,6.25189 -12.52539,1.849609 -3.82699,-4.611271 -1.51214,-9.762743 2.46094,-11.601563 0.95055,-0.184094 2.04867,-0.275387 3.33594,-0.275391 z M 108.26953,37.943359 c -1.32009,-0.0091 -2.77984,0.327134 -4.58008,0.96875 -3.38101,1.205046 -7.206552,3.87587 -8.499997,5.9375 -0.868513,1.384309 -1.296473,3.094267 -1.357422,4.910157 -0.06195,0.43471 -0.02513,0.889635 0.01758,1.345703 0.02684,0.288793 0.0262,0.569604 0.0957,0.871093 0.57391,4.821385 3.399435,9.796695 7.292969,11.244141 14.50744,5.393057 24.8594,-11.781171 13.36914,-22.179687 -2.3285,-2.107284 -4.13772,-3.082576 -6.33789,-3.097657 z m -1.78515,5.511719 c 0.91662,0 1.68504,0.02884 2.38085,0.07813 1.03459,0.401359 2.05809,1.034614 3.01563,1.992188 0.57643,0.57643 1.02427,1.10124 1.4043,1.609375 0.14887,0.916471 0.21679,2.010136 0.21679,3.36914 0,1.06105 -0.0592,1.950367 -0.16211,2.753906 -0.0467,0.07756 -0.0771,0.145504 -0.12695,0.22461 -2.14321,3.40326 -5.07181,4.993126 -7.85742,4.634766 -0.0541,-0.01285 -0.11231,-0.01764 -0.16602,-0.03125 -2.64044,-0.671638 -4.6942,-2.593552 -5.648434,-5.083985 -0.0799,-0.828401 -0.130381,-1.745776 -0.128907,-2.873047 0.0012,-0.890887 -0.05081,-1.687392 -0.11914,-2.4375 0.728511,-1.74192 2.127021,-3.160989 3.855471,-3.960937 0.95056,-0.184101 2.04872,-0.275391 3.33594,-0.275391 z m 127.59374,27.021484 c -2.58517,0 -5.66778,1.449178 -8.44921,3.529297 -0.6186,0.385414 -1.19709,0.83804 -1.7168,1.38086 -3.31822,2.955352 -5.84766,6.702724 -5.84766,9.703125 0,1.315064 0.80909,3.269144 2.01953,5.287109 0.70082,1.731179 1.78361,3.514282 3.25977,5.359375 0.54202,0.677273 1.66289,1.296652 3.07422,1.794922 2.62257,2.046981 5.38783,3.49219 6.91992,3.49219 1.93614,0 4.48474,-1.430312 6.94336,-3.496096 2.50993,-1.089226 4.2464,-3.086921 5.66406,-6.324219 1.57615,-2.339365 2.66602,-4.687665 2.66602,-6.521484 0,-6.32233 -8.0644,-14.205079 -14.53321,-14.205079 z m 0.43946,5.19336 c 4.69742,0.210278 7.17923,3.69601 6.58594,9.791016 -0.71305,7.327506 -5.7773,10.043423 -13.05274,7 -0.1395,-0.05839 -0.25569,-0.154463 -0.38476,-0.230469 -0.24953,-0.194381 -0.51987,-0.381939 -0.74805,-0.582031 -3.34514,-3.371751 -2.02611,-13.733836 2.56641,-15.191407 1.4768,-0.468699 2.83637,-0.728694 4.06445,-0.785156 0.33261,-0.01529 0.65559,-0.01582 0.96875,-0.002 z M 74.722656,87.751953 c -5.669672,0.151316 -11.13713,3.184476 -14.003906,8.970703 -0.07449,0.150388 -0.157612,0.291153 -0.228516,0.445313 -1.104831,1.928092 -1.740325,4.082691 -1.855468,6.337891 -0.02079,0.1666 -0.03744,0.3329 -0.05078,0.5 -0.197669,-0.0147 -0.232478,0.27193 -0.132812,0.80859 -0.09906,0.47614 -0.169922,0.92771 -0.169922,1.33008 0,0.55117 0.150506,1.22211 0.386719,1.94727 0.253417,3.85949 1.578328,6.64474 4.314453,9.38086 3.076649,3.07665 7.027103,4.37865 11.044922,4.41015 0.202545,0.0106 0.407713,0.002 0.611328,0 0.102652,-0.003 0.204029,0.004 0.30664,0 3.639463,0.31813 7.234842,-0.763 10.3125,-3.30078 0.0025,-0.002 0.0075,-0.002 0.0098,-0.004 5.453564,-3.50065 9.050583,-9.39019 7.388672,-16.01171 -2.421018,-9.646194 -9.633068,-14.512401 -16.796875,-14.806644 -0.379061,-0.01557 -0.758741,-0.01793 -1.136719,-0.0078 z M 441.29688,91.625 c -0.44372,-2.3e-5 -0.88464,0.04933 -1.34571,0.150391 -0.002,9e-5 -0.003,-6.8e-5 -0.004,0 -7.77211,0.390104 -15.10352,6.592524 -15.10352,16.126949 0,4.67869 2.03539,8.48007 6.36133,11.88282 7.43958,5.85191 16.08231,4.81856 22.42383,-2.67578 5.40132,-6.38371 5.19176,-11.72927 -0.75782,-19.292974 -2.57151,-3.269144 -5.85616,-5.084489 -9.26171,-5.742187 -0.81767,-0.277909 -1.57591,-0.449128 -2.3125,-0.449219 z M 74.3125,92.285156 c 1.453689,-0.06414 2.997976,0.1557 4.603516,0.716797 8.78584,3.070322 10.24166,15.279077 2.472656,20.720707 -6.5758,4.60575 -6.740152,4.6063 -13.185547,0.0918 -1.342832,-0.94055 -2.376183,-2.0284 -3.162109,-3.19531 -0.112101,-0.19317 -0.2366,-0.38276 -0.337891,-0.57812 -0.08209,-0.13977 -0.14568,-0.28409 -0.220703,-0.42579 -0.881341,-1.85376 -1.27688,-3.77849 -1.267578,-5.6582 0.2592,-5.820986 4.798344,-11.393806 11.097656,-11.671874 z M 439.96875,96.1875 h 0.002 c 5.25235,0.08033 10.71875,4.2606 10.71875,10.71094 0,2.71401 -1.26563,6.20107 -2.8164,7.75195 -0.42962,0.42937 -0.90032,0.78917 -1.38282,1.11523 -1.73956,0.89226 -3.69717,1.43624 -5.66796,1.55469 -2.64787,-0.13576 -5.36381,-1.32076 -7.58594,-3.54297 -1.56979,-1.56979 -2.5818,-2.88741 -3.10156,-4.22265 -0.0616,-0.19563 -0.1223,-0.38825 -0.16993,-0.58594 -0.0302,-0.10329 -0.0496,-0.20841 -0.0742,-0.3125 -0.0616,-0.27507 -0.10093,-0.55424 -0.14062,-0.83203 -0.12208,-1.86871 0.62455,-3.96728 2.22461,-6.95703 1.76656,-3.300844 4.84308,-4.726706 7.99414,-4.67969 z m 309.79687,0.857422 c -3.04815,0.05964 -6.27525,0.849151 -9.55078,2.542969 -13.44442,6.952369 -15.26263,25.075229 -3.44726,34.369139 5.11049,4.01991 10.63071,5.35172 15.98437,4.08985 2.91183,-0.52556 5.69081,-2.00687 8.50977,-4.38868 0.71826,-0.58952 1.43248,-1.21174 2.1289,-1.9082 0.55612,-0.5564 1.06817,-1.12337 1.54688,-1.69922 3.38846,-3.79849 5.07771,-7.29235 5.06641,-11.17969 0.15609,-0.79196 0.25195,-1.56029 0.25195,-2.27929 0,-0.55155 -0.27575,-1.3893 -0.68359,-2.33789 -1.40614,-9.44281 -9.60207,-17.407848 -19.80665,-17.208988 z m 0.51563,4.380858 c 0.31447,-0.006 0.62943,-0.002 0.94336,0.0117 0.0378,0.002 0.0727,0.0118 0.10937,0.0137 1.16935,0.38801 2.48084,1.02941 4.20899,1.9961 9.03281,5.05281 11.89774,14.32141 6.82422,22.06445 -4.69648,7.16789 -17.64024,8.38728 -23.78711,2.24023 -6.13467,-6.13452 -3.83118,-19.90665 4.0664,-24.30468 0.42826,-0.23868 0.78668,-0.42549 1.16993,-0.62891 2.05915,-0.85802 4.26354,-1.35337 6.46484,-1.39258 z m -223.54102,66.17969 c -4.42631,-0.0363 -9.26013,0.31404 -14.30078,0.96484 -12.52259,0.45193 -19.43576,1.90716 -30.64648,5.86914 -19.90949,7.03601 -34.72766,15.20629 -54.12695,31.58399 -11.14508,8.93699 -23.22994,20.51289 -38.36329,36.25586 -0.31143,0.31434 -0.56696,0.5556 -0.88085,0.87304 -61.34906,61.98615 -100.35837,86.0426 -139.81055,86.21485 -7.79453,0.0363 -12.85077,0.48959 -16.07227,1.78906 -0.36627,-0.1426 -0.84406,0.15202 -1.35351,0.66211 -1.1367,0.66882 -1.96537,1.51054 -2.54297,2.54687 -0.77167,1.16782 -1.17774,2.57474 -1.17774,4.2168 0,0.16399 0.0307,0.33461 0.0371,0.5 -0.0181,0.37995 -0.0371,0.76314 -0.0371,1.17188 0,11.2928 11.55883,23.93546 28.68164,32.64257 0.0707,0.041 0.14552,0.0703 0.2168,0.11133 4.43661,2.24119 9.22445,4.233 14.30078,5.85157 14.67944,4.68061 18.60727,7.29285 33.13477,22.05078 13.3021,13.51294 19.31322,17.76928 31.16601,22.05273 8.07729,2.91893 14.68555,5.74092 14.68555,6.27734 0,0.5359 -4.49373,3.01856 -9.98633,5.51172 -7.40413,3.36095 -15.33875,4.54455 -30.69726,4.58008 -11.39315,0.0302 -22.76003,1.15048 -25.25977,2.48828 -7.05857,3.77772 -5.76506,13.03026 2.50586,17.91602 3.4938,2.06381 5.91636,4.26024 7.33789,6.53125 0.0891,0.14022 0.16899,0.27877 0.25195,0.41797 3.97688,6.99968 -1.6998,14.69894 -16.60742,21.61914 -19.42195,9.0158 -40.77372,9.48055 -77.92773,1.69922 -16.15456,-3.3834 -37.5296,-6.79305 -47.5,-7.57813 -17.93422,-1.41252 -18.19735,-1.52829 -24.67188,-10.87109 -5.5832,-8.05659 -6.54492,-11.77837 -6.54492,-25.33399 0,-12.38351 1.06996,-17.31979 4.8457,-22.37695 13.89899,-18.61625 32.51813,-21.84847 46.69727,-8.10547 9.64802,9.35123 12.3892,19.71482 8.4082,31.77734 -3.47965,10.5436 -13.05961,22.12761 -20.70703,25.03516 -4.54943,1.72966 -5.33938,3.33225 -3.18164,4.20899 l -0.33398,0.22461 0.97656,-0.004 c 1.73648,0.47936 4.67395,0.63764 8.62305,0.29687 10.69862,-0.92167 18.57216,-4.91943 26.77929,-13.59375 20.22663,-21.37776 12.98132,-58.77169 -14.63867,-75.55468 -8.90247,-5.40979 -12.31133,-7.04538 -20.28125,-7.25 l 0.4082,-0.0742 -0.76562,0.0625 c -0.21078,-0.004 -0.47966,0.004 -0.69727,0.004 -9.52634,-1.45149 -19.34569,-0.38326 -28.33593,3.22071 -12.59629,3.8824 -21.45343,11.51195 -27.64063,23.52929 -3.650951,7.09127 -5.113943,11.54328 -5.673827,20.2168 -1.73893,9.52347 -1.684314,19.63015 0.244141,29.33594 0.958159,10.10751 3.417096,16.45477 9.371096,27.10937 0.43585,0.77987 -5.534253,3.72079 -13.263674,6.53907 -38.704679,14.11237 -64.748402,49.47236 -67.701172,91.90625 -2.108382,30.29915 9.899851,62.90692 29.560547,80.26757 7.135166,6.30044 10.021093,7.08977 8.310547,3.41993 -0.08319,-0.27137 -0.250191,-0.61794 -0.496094,-1.04688 -0.01474,-0.0227 -0.04317,-0.0661 -0.05859,-0.0918 -0.954988,-1.64341 -2.511092,-3.85041 -4.722656,-6.61328 -16.980877,-21.21381 -24.272306,-53.77579 -18.357422,-81.96094 4.319618,-20.58342 11.078985,-35.16543 22.253906,-48.07421 0.850235,-0.96688 1.724035,-1.90903 2.611328,-2.83985 10.10287,-10.1057 28.895739,-21.03728 43.26367,-24.93359 8.56257,-2.32188 9.66347,-1.94711 22.96875,7.84765 23.10069,17.0058 55.59886,26.93193 88.3457,26.99415 36.56997,0.0654 61.71208,-8.96343 79.24024,-28.45899 4.95176,-5.50753 9.86472,-9.66299 12.0332,-10.33008 1.07091,0.81646 2.24498,2.45915 3.31836,4.51563 0.56905,1.67414 1.09565,3.58889 1.44922,5.60742 0.8413,4.80106 2.97805,11.04549 4.75,13.875 3.48426,5.56373 1.92069,6.74752 -46.04492,34.88281 -127.36041,74.70607 -175.04974,159.1542 -150.56641,266.61524 2.50279,10.98497 10.54258,38.47747 17.86523,61.09375 18.36731,56.7287 19.33,75.49304 4.57618,89.35351 -2.96856,2.78888 -5.40956,6.35498 -5.74219,8.29297 -0.006,0.0189 -0.0684,0.0994 -0.0684,0.11524 0,0.0412 0.0245,0.0776 0.0312,0.11914 -0.005,0.062 -0.0312,0.13944 -0.0312,0.19726 v 0.004 c 0,4.10464 7.62207,2.09125 17.83398,-4.70899 24.13935,-16.07452 28.13575,-52.10477 11.36328,-102.48047 -12.47658,-37.47296 -17.35094,-59.92766 -18.93945,-87.23437 -0.28513,-4.89608 -0.37476,-9.73794 -0.31641,-14.54297 0.0492,-1.78477 0.1131,-3.58486 0.19727,-5.42969 0.15976,-3.51288 0.36357,-6.75323 0.58789,-9.92187 2.87552,-31.67331 13.49167,-61.2862 31.89063,-88.79492 13.49738,-20.18037 48.14421,-53.92181 72.84179,-70.9375 20.12609,-13.8663 96.69056,-57.09571 101.12305,-57.09571 1.6022,0 -4.50584,7.13596 -13.57227,15.85938 -23.67702,22.78148 -31.47851,43.02071 -31.47851,81.66015 0,9.22088 -1.64349,22.30827 -3.65625,29.08594 -5.67762,19.11848 -24.33565,36.09649 -42.1543,39.53711 -0.46643,0.062 -0.92998,0.13434 -1.39844,0.17969 -0.90342,0.0865 -1.68199,0.14098 -2.46484,0.19726 -1.83475,-0.0189 -3.60682,-0.19012 -5.29687,-0.54101 -2.46329,-1.05052 -5.63865,-3.00051 -8.38868,-5.31445 -4.03083,-3.39175 -7.89944,-5.59857 -8.5957,-4.90235 -2.41418,2.41433 3.98767,11.0409 10.81641,14.57227 20.68629,10.69723 53.06027,-4.83715 67.35742,-32.31836 2.80545,-5.39229 4.4667,-16.97796 5.70117,-39.81836 2.34237,-43.34026 5.67453,-52.8683 25.19141,-72.06055 5.88421,-5.78623 9.66766,-9.5354 12.37695,-11.10156 0.96371,-0.25361 2.03278,-0.49854 3.22656,-0.72656 2.69293,0.86657 4.08518,6.51988 6.99414,17.75195 12.73457,49.17135 -2.35655,90.25962 -61.875,168.51172 -53.30099,70.07762 -70.21549,107.44056 -67.71484,149.54102 1.25831,21.18497 3.48488,28.19157 13.92773,43.82226 6.47704,9.69453 17.90437,16.72711 30.32227,20.01953 0.14506,0.0378 0.29052,0.0763 0.43555,0.11524 11.21778,2.88869 23.20114,2.73313 33.08007,-1.39453 9.52428,-3.97947 18.21066,-11.33894 24.4668,-19.88672 1.44917,-1.90114 2.72564,-3.85965 3.8125,-5.875 3.79186,-6.6917 6.03125,-13.77468 6.03125,-20.35352 0,-9.92205 -4.69064,-20.70826 -10.84961,-27.70508 -3.14636,-4.0786 -6.73099,-6.72014 -10.21484,-7.10547 -0.9562,-0.257 -1.91417,-0.43554 -2.85547,-0.43554 -5.3075,0 -5.24151,1.61552 0.52344,12.92383 2.59389,5.08759 4.69921,13.85983 4.69921,19.57421 0,8.83238 -1.29409,11.64573 -8.8164,19.16797 -4.24156,4.24165 -8.57638,7.23836 -13.09766,9.03711 -2.76204,0.92092 -5.49876,1.57727 -8.16992,1.91406 -5.61377,0.44965 -11.55717,-0.74636 -17.99414,-3.59375 -8.52539,-3.77121 -11.76912,-6.90313 -15.38281,-14.86523 -5.47923,-12.07276 -5.76848,-23.365 -1.15821,-45.12695 6.81725,-32.1803 19.83017,-54.07702 62.2793,-104.79688 44.30937,-52.94237 55.05192,-70.824 67.04492,-111.58594 8.23752,-27.99756 8.90451,-63.3618 1.5918,-84.56836 -3.27458,-9.49591 -4.3821,-14.68485 -3.5918,-14.77734 0.16895,0.15043 0.2926,0.24918 0.47266,0.41211 0.15156,0.13758 0.30051,0.31194 0.45312,0.46875 0.92448,1.33281 2.37817,4.19766 4.3379,8.76953 0.4314,1.00709 0.89012,1.87238 1.34374,2.75781 0.004,0.0189 0.0159,0.0375 0.0234,0.0488 0.44005,1.2124 1.12049,2.35673 1.97656,3.41602 4.41362,6.41491 10.12106,8.23197 19.09766,6.53515 0.0151,-0.002 0.022,-0.002 0.0371,-0.004 0.0189,-0.004 0.0299,-0.004 0.0488,-0.004 l 2.27734,-0.43164 c 1.78118,-0.31559 2.76116,-0.36892 3.03321,0.15039 l -4.3418,7.02149 c -6.78456,10.97763 -7.93297,28.59443 -3.69922,56.70312 3.95607,26.26443 3.1089,36.78455 -5.39258,67.08203 -21.11629,75.25395 -10.69665,129.79911 30.60156,160.20117 28.2615,20.80487 74.80751,32.87724 106.51563,27.62305 35.61562,-5.90169 64.42457,-27.29206 79.24414,-58.82617 l 7.64648,-16.26563 10.56446,-0.60546 8.49414,-0.041 c 50.20256,-0.23282 86.21526,-18.4915 101.96289,-51.69922 5.20161,-10.96906 6.12515,-16.12295 6.10742,-34.07226 -0.0189,-18.27769 -0.86386,-22.74408 -6.21484,-32.91407 -2.45855,-4.67263 -5.18162,-8.86954 -8.13086,-12.60742 -1.24615,-1.57939 -2.53182,-3.07821 -3.85938,-4.48828 -0.0688,-0.0771 -0.13358,-0.1573 -0.20312,-0.23437 -0.0616,-0.0669 -0.13843,-0.13352 -0.20117,-0.20118 -0.0151,-0.0189 -0.032,-0.0375 -0.043,-0.0488 -0.4018,-0.41866 -0.81142,-0.81755 -1.22071,-1.22071 l -0.0176,-0.0195 c -16.49417,-16.23182 -38.70737,-19.94777 -63.32422,-9.87695 -9.06002,3.70643 -15.48394,8.84421 -14.69141,10.41797 -0.0843,0.55309 0.50027,0.74775 1.86328,0.44531 0.86495,-0.0797 2.01358,-0.31944 3.52539,-0.78516 11.20014,-3.45305 29.93953,-4.16093 38.17969,-1.4414 4.68053,1.54476 12.45225,7.35146 17.4707,13.05273 6.61678,7.51707 10.98937,15.95011 13.08399,24.7832 0.51685,2.7086 0.89758,5.51304 1.08398,8.43946 0.19087,3.00359 0.22428,5.81894 0.13281,8.50781 -0.58012,6.51821 -2.33693,13.0821 -5.32812,19.50586 -10.26036,22.03476 -31.61483,34.37405 -64.92188,37.49023 -2.4602,0.18066 -4.88816,0.36825 -7.61328,0.5 l -20.04101,0.96485 c -0.81468,-0.19729 -1.51526,-0.41988 -2.09375,-0.66211 l -2.49219,-13.38282 c -3.56572,-19.17328 -9.12628,-30.20748 -21.11914,-41.88671 -9.82269,-9.56591 -26.54364,-17.25977 -37.5,-17.25977 -7.6794,0 -6.78339,3.77312 1.58789,6.69141 18.62464,6.49254 33.54451,26.92251 36.72461,50.28906 1.81028,13.30099 0.87918,13.57926 -20.93164,6.25586 -42.29821,-14.20222 -75.01221,-47.89129 -91.35156,-94.06445 -5.76095,-16.27979 -10.16505,-39.97007 -10.91797,-55.99024 0.0151,-0.64131 0.003,-1.29207 0.0293,-1.92578 l 0.38477,-10.26758 c 0.0151,-0.0847 0.0202,-0.19262 0.0391,-0.27539 0.9439,-5.03157 1.53785,-7.11108 3.38672,-7.6582 l 2.74805,-0.0234 c 0.6469,0.0892 1.36708,0.21467 2.19922,0.38086 4.92132,0.98419 8.0313,0.0219 11.65625,-3.60352 7.89796,-7.89792 9.64257,-6.02472 9.64258,10.35352 0,25.14588 10.10501,41.21516 33.375,53.08594 25.54821,13.03377 55.68832,5.31898 70.06054,-17.93555 3.05133,-4.9372 4.15272,-8.13823 3.67578,-9.32617 0.0688,-0.27591 0.0962,-0.48953 0.0293,-0.55469 -0.0616,-0.0616 -0.23236,-3.4e-4 -0.45898,0.11524 -1.08042,-0.441 -3.75532,1.29517 -7.69922,5.61328 -18.93721,20.73414 -51.12675,20.73334 -72.7461,-0.004 -9.81388,-9.41371 -14.49023,-18.19447 -14.49023,-27.2207 0,-5.89535 1.02941,-7.12487 6.44922,-7.75 0.83263,-0.096 1.59905,-0.28547 2.33984,-0.51953 1.03952,-0.271 1.9793,-0.7183 2.80078,-1.35938 1.8336,-1.26213 3.34051,-3.13291 4.58008,-5.73047 2.94709,-6.17575 2.64992,-9.01908 -2.92383,-28.3164 -7.15037,-24.75587 -7.76063,-41.00243 -2.01953,-53.59571 l 3.85938,-8.4707 c 0.35716,-0.15156 0.74722,-0.29442 1.17578,-0.42383 l 44.83203,-0.5039 44.01758,-0.4961 c 1.93398,0.52422 3.95863,1.16734 6.29101,2.05274 l 14.60938,6.74023 c 11.53107,5.3215 18.75381,8.00333 24.29883,8.36719 1.04685,0.2623 1.93156,0.44531 2.41406,0.44531 1.26674,0 3.02532,-0.60972 4.87109,-1.58008 1.81021,-0.75428 3.55389,-1.83969 5.39649,-3.28906 8.73225,-6.86888 7.951,-13.07554 -5.45313,-43.29102 -21.13581,-47.64523 -26.2785,-67.74104 -36.50768,-142.6757 -12.67155,-92.82681 -28.85652,-129.56124 -68.74414,-156.03711 -17.63789,-11.7074 -31.73263,-17.44576 -49.93555,-19.52343 -2.72001,-0.51013 -5.4637,-0.93932 -8.22461,-1.27539 -2.29534,-0.27935 -4.764,-0.4279 -7.36719,-0.44922 z m -211.39062,1.56055 c -14.3498,0 -20.14036,16.79795 -8.85156,25.67773 3.40526,2.6786 7.49195,4.86914 9.08203,4.86914 1.58994,0 5.67686,-2.19054 9.08203,-4.86914 11.72054,-9.2193 5.75198,-25.67773 -9.3125,-25.67773 z m 206.72461,3.80078 c 44.02926,-0.55739 86.70656,25.77576 107.23828,67.56054 12.36185,25.15796 17.20958,45.37964 25.88477,108.00586 10.41206,75.16318 14.91945,92.77688 35.49414,138.64844 6.28342,14.0089 11.42187,28.01976 11.42187,31.13477 0,5.00247 -1.02721,5.64792 -8.81055,5.52539 -4.79928,-0.0752 -10.27864,-1.00357 -12.26757,-2.06641 -0.0302,-0.11414 -0.0684,-0.22583 -0.0684,-0.34375 0,-1.40035 -1.3221,-2.09162 -2.9375,-1.54102 -0.17764,0.0616 -0.4153,0.0781 -0.67578,0.0781 -3.09359,-1.50403 -7.16286,-3.41917 -11.66016,-5.42969 -6.46182,-2.88892 -14.2914,-6.44285 -17.39844,-7.89453 -1.74928,-0.8174 -5.87249,-1.41171 -11.55664,-1.74805 -1.88719,-0.78039 -6.01112,-1.07955 -10.4043,-0.65625 -1.28568,0.12397 -3.19378,0.26668 -5.40039,0.41797 -1.47734,0.0189 -2.81376,-0.004 -4.36132,0.0371 -37.41211,0.9868 -49.45976,0.50424 -50.34961,-2.00586 -0.43098,-1.21523 -3.27721,-2.20703 -6.32422,-2.20703 -3.04694,0 -6.19607,-1.06235 -6.99805,-2.35937 -0.74143,-1.20027 -3.57074,-1.59758 -6.48437,-1.03125 -0.57702,-0.0805 -1.16196,-0.13477 -1.73633,-0.13477 -2.26526,0 -3.70323,-0.32431 -4.50196,-1.05859 -0.13152,-0.58443 -0.19726,-1.30097 -0.19726,-2.21289 0,-1.23115 -0.16687,-2.14289 -0.53125,-2.85938 -0.30085,-1.0766 -1.13691,-1.66683 -2.54297,-1.73437 -1.04988,-0.24643 -2.39546,-0.35743 -4.19531,-0.35742 -10.29672,-7.13421 -18.96313,-10.0443 -9.71875,2.29687 1.16126,1.4572 3.00546,2.40039 5.01953,2.40039 1.00743,0 2.25365,0.30543 3.55664,0.82617 1.41827,0.80368 2.77339,2.11593 3.56641,3.59766 0.16705,0.31143 0.38723,0.6074 0.625,0.90039 0.32163,0.56534 0.8861,1.06738 1.71484,1.5332 2.36579,1.65116 6.11608,2.89804 11.17187,3.65625 6.12855,0.91896 13.14476,3.07449 15.58985,4.78711 3.14502,2.20271 11.0728,2.8997 27.10351,2.38281 18.44931,-0.59425 20.25643,-0.38481 9.73438,1.13282 -3.67366,0.52974 -7.20139,0.9065 -10.65625,1.19726 -11.55251,-0.0378 -20.81266,-0.14025 -27.80664,-0.56836 -20.18532,-5.08303 -33.92116,-11.87481 -45.50781,-25.4707 -14.75953,-12.92485 -30.19445,-16.3944 -48.25196,-17.54883 -29.92195,-1.91176 -42.20429,-6.97733 -61.50781,-25.3789 -7.82211,-7.4566 -17.69014,-14.96783 -21.93164,-16.69141 -1.24966,-0.50785 -2.37045,-1.02621 -3.3457,-1.52344 l -9.61524,-1.26758 c -3.92418,0.29733 -13.52291,-0.87695 -24.66797,-3.29687 -17.49199,-3.79824 -26.16891,-8.80832 -40.32617,-23.29102 -5.30793,-5.42997 -7.76096,-8.14997 -8.03125,-9.48828 -8.07711,-9.26882 -20.51779,-12.17882 -31.49805,-15.56445 -19.08593,-6.04585 -35.76367,-21.08634 -35.76367,-32.25391 0,-2.8127 0.42787,-4.90119 1.19336,-6.14453 0.75268,-0.42687 1.72628,-0.71215 3.05078,-0.90039 0.13334,-0.0181 0.18202,-0.0131 0.3086,-0.0312 1.2437,-0.34479 5.78835,0.0989 11.00586,0.78906 2.4234,-0.69303 6.39923,-1.33854 11.11328,-1.71679 10.64792,-0.8547 20.52365,-3.86492 35.13672,-10.71289 0.60654,-0.28472 1.18244,-0.5726 1.78125,-0.85743 4.13665,-1.88005 8.24156,-3.94942 12.37109,-6.25976 25.58054,-13.78528 45.97686,-30.7405 81.4707,-66.55469 51.68028,-52.14661 78.45325,-68.98469 118.79102,-74.69727 4.56064,-0.64582 9.1308,-0.98921 13.68555,-1.04687 z m -205.68164,1.03711 c 2.8327,0.12415 5.64545,1.25577 7.4707,3.45507 0.26971,0.32474 0.50292,0.64073 0.71094,0.95508 0.5666,1.36044 0.90829,2.82475 1.00195,4.27735 -0.16581,1.17652 -0.62131,2.51802 -1.37305,4.16797 -1.51082,3.31599 -4.02069,5.21039 -6.83398,5.59374 -0.0136,10e-4 -0.0224,-9.7e-4 -0.0312,0 -0.42823,0.0486 -0.86435,0.0467 -1.29883,0.0547 -2.44341,-0.0745 -5.02513,-1.22441 -7.33789,-3.53711 -0.86477,-0.86475 -1.51267,-1.54634 -2.04687,-2.16797 -0.50086,-0.97028 -0.86034,-2.01127 -1.08789,-3.08398 -0.0136,-0.54355 0.0222,-1.09142 0.082,-1.64258 0.36491,-0.95527 0.95727,-2.10817 1.79101,-3.66601 1.63674,-3.05825 5.31106,-4.56583 8.95313,-4.40625 z m -46.63281,51.55664 c -0.381,0 -0.95296,0.22518 -1.59766,0.55078 -4.9275,0.55978 -9.03132,4.66532 -9.5957,9.59179 -0.32693,0.64687 -0.55664,1.22339 -0.55664,1.60547 0,0.47416 0.35772,1.24518 0.8457,2.10352 0.44555,1.70106 1.29541,3.41239 2.76758,5.03906 2.40232,2.65448 4.74398,4.09172 7.14453,4.34571 0.38778,0.1553 0.73427,0.26171 0.99219,0.26171 0.31585,0 0.74779,-0.13067 1.25195,-0.35937 1.98506,-0.39316 4.03083,-1.56901 6.20117,-3.5332 2.42255,-2.19213 3.76919,-4.51605 4.04297,-6.875 0.15303,-0.3836 0.25195,-0.72681 0.25195,-0.98243 0,-0.2756 -0.11271,-0.65166 -0.28906,-1.07421 -0.35089,-2.38725 -1.78499,-4.77903 -4.3125,-7.06641 -1.629,-1.47419 -3.34535,-2.32294 -5.04883,-2.76758 -0.8545,-0.48499 -1.62514,-0.83984 -2.09765,-0.83984 z m -0.97852,4.84179 h 0.004 c 0.25735,-0.009 0.51096,6e-5 0.76757,0.0176 0.118,0.0227 0.24203,0.0183 0.35938,0.0508 0.0181,0.002 0.036,0.009 0.0606,0.0137 3.18413,0.87972 5.76167,4.2048 5.48046,7.15039 -0.52047,2.17949 -2.24919,3.54462 -5.11328,3.95117 -2.42506,0.34443 -4.49704,-0.52104 -5.83789,-1.92188 -0.46397,-0.91351 -0.84273,-1.85698 -1.03711,-2.78125 0.18497,-2.20834 1.37355,-4.59032 2.92383,-5.80078 0.53034,-0.26014 1.09506,-0.4677 1.6836,-0.60742 0.23407,-0.0316 0.47274,-0.063 0.70898,-0.0723 z m -201.949219,2.20704 c -7.581963,0 -12.657457,6.73864 -13.066406,13.52539 -0.119773,0.14804 -0.121045,0.44572 -0.0078,0.88085 0.001,3.87077 1.524103,7.66539 5.046876,10.13282 6.076861,4.25636 9.391663,4.55817 14.40625,0.42773 1.361156,-0.44919 2.545767,-1.08675 3.40039,-1.9414 1.018409,-1.01844 1.698259,-2.28837 2.138672,-3.68165 2.151103,-2.88515 2.624361,-5.32376 1.763672,-8.22265 -1.455107,-4.90109 -4.992524,-8.70618 -9.244141,-10.30274 -0.0014,-5e-4 -0.0026,5.1e-4 -0.0039,0 -1.07898,-0.51343 -2.223148,-0.81836 -3.423828,-0.81835 -0.188599,0 -0.364768,0.0318 -0.550781,0.041 -0.154318,-0.005 -0.304035,-0.041 -0.458985,-0.041 z m -0.710937,4.73242 c 3.70896,-0.005 7.614716,2.4089 8.228515,6.75 0.36053,2.54992 -0.307454,5.31042 -1.523437,6.8164 -1.821831,1.04367 -4.153927,1.67383 -6.572266,1.67383 -1.412696,0 -2.553819,-0.0932 -3.498047,-0.29687 -3.057471,-1.78899 -4.756551,-5.67514 -3.289062,-10.29883 1.005018,-3.1665 3.769572,-4.63943 6.654297,-4.64453 z m 428.085936,1.00976 c -3.91997,0.118 -12.9707,4.83957 -12.9707,7.23633 0,1.66625 1.08148,1.42728 9.42773,-2.08203 4.7949,-2.01713 6.60141,-3.83175 4.86914,-4.90234 -0.30916,-0.19136 -0.76619,-0.26881 -1.32617,-0.25196 z m 9.10938,13.4961 c -1.41064,0.001 -3.01854,0.21818 -5.02539,0.56445 -4.85587,0.8378 -11.2286,1.59085 -14.16211,1.67969 -1.49054,0.0455 -2.60785,0.30661 -3.39649,0.77148 -1.03415,-0.55375 -1.43102,0.0275 -1.4043,1.82227 -0.0911,0.19453 -0.15044,0.39324 -0.1289,0.59765 0.0971,0.92705 0.15663,1.74297 0.17969,2.48242 3e-5,0.002 -1.2e-4,0.002 0,0.004 -0.39636,1.472 -1.80177,2.38784 -4.01563,2.54688 -9.00537,0.64704 -9.36947,1.01178 -4.69922,4.68164 0.91431,0.71839 1.50321,1.19396 2.05078,1.64648 0.0835,0.38724 0.12564,0.80731 0.13282,1.25391 -0.001,5e-4 -0.004,-5.5e-4 -0.004,0 -0.65631,-0.16309 -1.54087,-0.41997 -2.76563,-0.78516 -3.49807,-1.04294 -5.35226,-0.42579 -5.21484,1.19336 -0.1372,0.40865 0.0231,0.90136 0.52344,1.41406 0.37531,0.66769 0.9094,1.39977 1.73047,2.22071 1.53615,1.53614 1.53615,5.08497 0,10.4414 -1.2799,4.4626 -2.32617,14.76328 -2.32617,22.89063 0,20.9712 7.92847,38.02351 19.97265,42.95312 9.31899,3.81418 18.66274,0.90113 26.39649,-6.15039 0.0151,-0.0136 0.0238,-0.0189 0.0312,-0.0234 0.0491,-0.041 0.0942,-0.0859 0.14257,-0.12695 0.19503,-0.17949 0.38883,-0.35216 0.58204,-0.53711 1.22883,-1.1208 2.40493,-2.38458 3.51562,-3.80469 10.91169,-13.23978 17.19914,-35.25973 12.76367,-56.625 -2.26269,-10.89951 -4.82787,-15.81409 -11.97851,-22.96484 -6.20478,-6.20448 -8.66819,-8.14372 -12.90039,-8.14062 z m -159.82813,1.79101 c -6.08489,-0.27288 -12.63476,4.1731 -12.63476,11.54102 0,1.28507 1.66246,4.00036 3.69336,6.03125 1.60955,1.60958 3.42055,2.5946 5.26562,3.05664 10e-4,5e-4 0.003,-5.5e-4 0.004,0 0.96463,0.36809 1.93319,0.63867 2.78515,0.63867 1.90643,0 3.53933,-0.60669 4.88282,-1.58398 4.65696,-2.35708 7.64617,-7.76718 4.94335,-13.69922 -1.80247,-3.956 -5.28845,-5.82051 -8.93945,-5.98438 z m 366,0.12305 c -4.23829,0.041 -8.44781,2.25186 -10.38867,6.88867 -1.19834,1.7719 -1.66296,3.47443 -1.30859,5.24219 -0.0552,2.33471 0.89299,4.16889 3.08398,6.58984 1.75574,1.94006 3.74936,3.15374 5.77734,3.78516 1.22491,0.6501 2.35982,0.85183 3.61133,0.50195 5.63686,-0.20273 10.64844,-4.87882 10.64844,-12.31836 0,-6.91307 -5.70446,-10.7448 -11.42383,-10.68945 z m -209.8789,2.37109 c 0.47338,-0.0162 0.94872,-0.0154 1.42578,0.006 h 0.004 c 2.88209,0.12766 5.82193,0.93671 8.75391,2.50586 0.42504,0.22779 0.85583,0.51717 1.28515,0.85352 0.60719,0.66322 1.18794,1.31871 1.90821,2.03906 0.42092,0.42095 0.82258,0.86155 1.22461,1.30664 4.9378,6.56766 9.22479,18.49816 9.18359,27.33594 l -0.041,9.39843 -3.15235,-7.25195 c -1.39956,-3.21461 -3.90835,-6.58149 -6.76953,-9.50781 -1.12244,-1.33332 -2.28007,-2.38279 -3.51953,-3.18555 -3.46122,-2.80218 -7.01973,-4.72672 -9.60156,-4.71875 -6.54335,0.0136 -18.67797,8.86959 -22.63086,16.51367 h 0.004 c -2.08546,4.03295 -4.74447,11.74675 -5.91015,17.14063 -0.8702,4.02721 -1.36538,5.9582 -1.58399,5.42969 -0.0227,-0.31661 -0.0487,-0.59416 -0.0684,-0.94532 0.0227,-2.36587 0.10707,-5.61926 0.24805,-9.95507 0.0302,-0.89557 0.0974,-1.65897 0.13672,-2.51563 1.57708,-25.67798 14.38732,-43.94615 29.10352,-44.44922 z m -157.00782,2.32422 c 3.13302,0 4.69922,1.5663 4.69922,4.69922 0,3.13301 -1.5662,4.69922 -4.69922,4.69922 -3.13292,0 -4.69922,-1.56621 -4.69922,-4.69922 0,-3.13292 1.5663,-4.69922 4.69922,-4.69922 z m 366.36914,0.18359 c 2.98829,0.11664 6.06641,2.36241 6.06641,5.72266 0,1.45118 -0.43728,2.65581 -1.25195,3.56641 -1.0043,0.94677 -2.34367,1.57925 -3.91993,1.82617 -5.32168,0.63621 -8.36023,-4.15977 -5.48828,-8.80664 1.0402,-1.68311 2.80082,-2.37854 4.59375,-2.3086 z M 104.0332,259.875 c -4.116143,0.0363 -8.240079,1.51477 -12.029294,4.41016 -0.148497,0.0989 -0.301797,0.17634 -0.449218,0.27929 -1.91373,1.34043 -3.461942,2.99476 -4.722657,4.81446 -4.534061,5.347 -5.252045,8.12703 -4.21289,14.6582 0.792616,4.98181 3.868582,10.67462 7.439453,13.77734 10.718436,9.31307 26.255766,6.27467 32.818356,-6.41601 5.11494,-9.89115 4.41433,-15.45092 -2.99218,-23.74024 -4.68371,-5.24222 -10.25805,-7.83336 -15.85157,-7.7832 z m 0.91211,3.85742 c 2.07108,0.11924 3.95762,1.20133 6.94531,3.42188 7.81796,5.81063 9.67877,17.88379 3.76368,24.41992 -5.13684,5.67615 -17.839293,5.88248 -22.576175,0.36719 -8.688986,-10.11698 -6.250587,-21.71294 5.603516,-26.62305 2.237599,-0.92686 3.886959,-1.47362 5.361329,-1.57813 0.30716,-0.0217 0.60647,-0.0242 0.90234,-0.008 z m 504.10938,6.47266 c -3.63281,0 -3.66841,0.38665 -0.38086,4.11328 1.99502,2.26173 4.35727,7.54786 5.25,11.74805 0.36245,1.70757 0.87246,3.13091 1.41992,4.31836 0.25739,1.46056 0.8016,2.35833 1.47266,2.38671 1.56276,1.75154 3.05664,1.22627 3.05664,-2.66992 0,-7.28974 -6.85496,-19.89648 -10.81836,-19.89648 z m -19.5586,4.9375 c -0.59159,-0.0153 -1.19164,-0.008 -1.79882,0.0215 v -0.002 c -4.41589,0.21275 -9.23585,1.60921 -14.32422,4.22656 -23.24671,11.95749 -39.8764,46.62909 -33.58008,70.01172 1.30855,4.85945 3.80361,9.36666 6.89844,12.91406 1.11167,1.42471 2.34399,2.63656 3.71679,3.56055 2.28065,1.78807 4.72823,3.06122 7.19532,3.62695 17.58292,4.03209 43.74301,-16.99876 50.91406,-40.93359 1.4863,-4.96095 4.11755,-9.01758 5.85156,-9.01758 1.73401,0 3.1543,-1.05724 3.1543,-2.34961 0,-1.29232 -1.05724,-2.34961 -2.34961,-2.34961 -0.48609,0 -0.8594,-0.0699 -1.19336,-0.16015 -0.46821,-1.77879 -0.22484,-3.07943 0.89844,-4.08985 0.86007,-0.60345 1.94471,-1.15736 3.23047,-1.56054 l 5.2871,-1.65625 -0.27539,-0.0879 0.27539,-0.0918 -1.37109,-0.26563 -4.50195,-1.46484 c -1.93009,-0.6265 -3.02709,-1.10864 -3.34571,-1.46289 0.12019,-0.14895 0.28556,-0.32372 0.48047,-0.50391 0.28233,-0.0706 0.57349,-0.13983 1.10157,-0.16992 3.40006,-0.19362 4.74681,-2.41953 3.68945,-3.81445 0.29253,-0.37904 0.28474,-0.62683 -0.0996,-0.77539 -0.24794,-0.25512 -1.27095,-0.30799 -2.79883,-0.32032 -0.0639,-0.002 -0.10453,-0.0234 -0.16992,-0.0234 -1.92117,0 -4.98132,-3.56166 -6.80078,-7.91602 -4.12788,-9.87964 -11.21005,-15.11595 -20.08399,-15.3457 z m -2.01562,5.34375 h 0.002 c 9.10129,-0.31353 16.72322,4.83972 19.41602,15.52539 0.56167,2.53102 0.90045,5.25452 1.02344,8.11328 -0.004,1.07702 -0.0179,2.16822 -0.0859,3.33203 -0.0552,0.76313 -0.0903,1.48725 -0.20703,2.38281 -0.53647,4.1155 -1.6832,9.35919 -2.96094,13.23633 l -2.86328,8.6875 c -0.0892,0.16218 -0.16062,0.27546 -0.24414,0.42578 l -0.23633,-9.52343 c -0.17499,-6.9646 -2.07034,-11.97336 -6.54492,-17.29102 -5.09575,-6.05605 -6.8015,-7.17301 -13.86914,-6.5957 -2.48278,-0.11433 -5.04966,0.24003 -7.62696,1.03711 -4.6021,0.98535 -7.74522,2.84115 -12.09765,7.14648 -1.66326,1.48712 -3.26466,3.17967 -4.79688,5.04688 -10.85427,11.93748 -11.33408,11.2837 -3.63476,-3.91016 9.08128,-17.92107 23.09367,-27.21032 34.72656,-27.61328 z m -98.01953,12.86328 c 1.18015,0 2.48615,1.05772 2.99804,2.37305 -0.20447,0.83884 -0.4953,1.57032 -0.8496,2.17578 -0.54694,0.31117 -1.28097,0.5039 -2.14844,0.5039 -1.05642,0 -1.91979,-0.27808 -2.47852,-0.7207 -0.0227,-0.0683 -0.0548,-0.0925 -0.082,-0.16406 -0.22942,-0.59931 -0.38426,-1.15382 -0.49609,-1.67969 0.47561,-1.37159 1.84035,-2.48828 3.05664,-2.48828 z m -439.402346,2.70312 c -0.469505,0 -0.986216,0.10704 -1.523438,0.27149 -2.364465,0.19725 -4.61867,1.36822 -7.101562,3.61523 -2.405273,2.17673 -3.751635,4.83163 -4.050782,7.60547 -0.146737,0.50327 -0.248046,0.98924 -0.248046,1.43164 0,0.14945 0.03403,0.32633 0.05859,0.4961 -0.01092,0.17265 -0.05859,0.35447 -0.05859,0.52343 0,0.41685 0.240161,1.03606 0.582031,1.72461 0.545765,2.03532 1.642899,4.03836 3.308594,5.87891 2.100109,2.32068 4.644992,3.66494 7.3125,4.02539 0.480684,0.16675 0.919516,0.27539 1.269531,0.27539 0.0655,0 0.140511,-0.0234 0.207031,-0.0234 0.07824,0.005 0.170856,0.0234 0.244141,0.0234 0.569302,0 1.198583,-0.13524 1.863281,-0.37305 0.0033,-6.3e-4 0.0048,-0.004 0.0078,-0.004 2.331889,-0.44191 4.652926,-1.61248 6.755859,-3.51563 2.332879,-2.11125 3.6465,-4.7464 4.001953,-7.43359 0.179452,-0.56477 0.292969,-1.10637 0.292969,-1.59766 0,-0.56103 -0.126153,-1.18182 -0.357422,-1.83594 -0.0034,-0.0136 -0.0048,-0.0189 -0.0078,-0.0234 -0.517315,-2.8378 -2.140615,-5.50079 -4.855468,-7.40235 -1.206463,-0.84503 -2.312643,-1.48373 -3.382813,-2.01953 -1.557022,-0.99205 -3.080364,-1.63672 -4.318359,-1.63672 z m 0.705078,5.08399 0.002,0.002 c 0.606293,0.0181 1.169115,0.11323 1.710937,0.24219 2.316008,1.10399 4.18395,3.58915 4.671876,6.20117 -0.01247,0.35033 -0.05142,0.64515 -0.05078,1.01758 9.19e-4,0.70153 -0.01431,1.32915 -0.04492,1.91406 -0.04732,0.17265 -0.09185,0.34571 -0.15625,0.51367 -1.546964,4.03149 -9.168112,4.81466 -12.689453,2.18555 -0.947248,-1.1982 -1.547789,-2.53886 -1.804687,-3.90234 0.09067,-2.84701 2.136462,-6.07233 4.705078,-7.6211 0.671153,-0.22367 1.39518,-0.39657 2.183594,-0.48828 0.509627,-0.0615 0.999111,-0.079 1.472656,-0.0644 z m 536.271488,16.07812 h 0.002 c 0.24115,0.005 0.46919,0.0622 0.6875,0.13672 0.77416,0.35807 1.33768,1.38763 1.50977,2.6543 -0.2196,1.06927 -1.12623,1.89453 -2.25782,1.89453 -1.29237,0 -2.34961,-1.05724 -2.34961,-2.34961 0,-1.14553 0.84674,-2.06403 1.93555,-2.26758 0.004,-7.7e-4 0.0156,8.2e-4 0.0156,0 0.15169,-0.0226 0.29997,-0.0644 0.45704,-0.0684 z m -343.05078,25.70704 c -13.4185,2.57958 -0.3463,2.60215 -0.0723,9.19531 0,1.16071 0.84125,2.13058 1.98828,2.5 5.41513,6.38215 20.39339,16.62695 25.66797,16.62695 0.007,0 0.0148,0.002 0.0215,0.002 6.70996,2.61624 7.85194,-8.17048 0.37696,-6.33007 -2.9642,0.7751 -5.34189,-0.0316 -6.12696,-2.07422 -0.70529,-1.83828 -3.28017,-3.3418 -5.72656,-3.3418 -0.94951,0 -1.82826,-0.2467 -2.55273,-0.65234 -0.33801,-0.51129 -0.70529,-1.04061 -1.26758,-1.69727 -0.16838,-0.1968 -0.37465,-0.36407 -0.55469,-0.55469 -0.0428,-0.20228 -0.0781,-0.40879 -0.0781,-0.62109 0,-1.7416 -1.27951,-3.18672 -2.94532,-3.46484 -0.61084,-0.3385 -1.27984,-0.61759 -1.98828,-0.80274 -0.29556,-0.0774 -0.51839,-0.2009 -0.78515,-0.29883 -0.80559,-0.85847 -1.33008,-2.16433 -1.33008,-3.6582 0,-2.61084 -1.56731,-4.69922 -3.52539,-4.69922 -0.38709,0 -0.75245,-0.0511 -1.10156,-0.1289 z m 224.62695,35.37304 c -3.03568,0 -4.66586,1.0525 -4.91992,3.31836 -0.27855,0.27288 -0.52586,0.54404 -0.67383,0.8125 -0.34885,0.45237 -0.41961,0.83239 -0.21094,1.17383 0.0873,0.41866 0.33956,0.81525 0.80859,1.16992 0.14665,0.11112 0.39772,0.44307 0.5918,0.65235 0.53099,1.84267 1.43219,4.03113 2.77539,6.66406 6.06826,11.89481 19.6415,23.08012 33.05274,27.23828 16.98364,5.26564 33.75217,0.41791 51.18554,-14.79688 1.33641,-1.16636 2.37722,-2.13428 3.24024,-3.00195 0.23584,-0.10809 0.45283,-0.25269 0.65625,-0.41797 0.9267,0.18558 1.37044,-0.67019 1.25195,-1.8164 1.10306,-1.65574 0.88067,-2.75676 -0.38476,-3.91016 -0.13531,-0.21997 -0.31079,-0.36371 -0.51954,-0.42774 -2.3639,-1.77226 -4.24809,-0.67526 -8.27929,4.77735 -7.59077,10.26701 -24.01473,17.06887 -36.94336,15.29687 -15.20712,-2.08437 -30.97099,-12.02418 -37.19141,-21.59765 -0.84128,-1.3903 -1.54935,-2.807 -2.11133,-4.24024 -0.72117,-2.14526 -0.90273,-4.21333 -0.30859,-6.08593 1.07815,-3.39682 0.48278,-4.8086 -2.01953,-4.8086 z m -163.94922,3.35742 c -1.36475,0.0763 -1.67591,1.76667 0.24023,6.33789 1.46588,0.34041 2.45313,0.93969 2.45313,1.625 0,1.96521 4.72175,7.61775 9.52344,12.3086 0.30111,1.3505 1.27676,2.45867 2.95117,3.3789 0.11251,0.0726 0.23806,0.13151 0.35742,0.19727 0.14899,0.0748 0.28976,0.15242 0.44922,0.22461 0.17401,0.0779 0.35601,0.1487 0.54297,0.21484 0.0829,0.0378 0.16676,0.0683 0.25195,0.10157 2.08182,1.68453 3.8538,2.82262 4.78125,2.83203 3.74772,0.0378 18.43244,4.91909 22.28125,7.40625 1.30225,0.84151 6.59042,2.29353 11.75,3.22265 31.54079,2.53819 -5.09896,-3.13566 -9.50586,-8.45507 -0.74941,-1.21259 -3.97867,-2.20313 -7.17383,-2.20313 -3.19519,0 -6.41362,-1.58051 -7.15429,-3.50977 -0.88167,-2.29719 -3.04581,-2.9924 -6.62305,-2.16601 -0.80859,-0.10961 -1.63299,-0.19727 -2.45899,-0.19727 -1.31748,0 -2.42881,-0.10462 -3.37695,-0.28906 -0.89542,-0.80489 -1.6246,-2.12755 -2.40039,-4.16797 -1.27979,-3.36623 -3.2872,-6.11719 -4.46094,-6.11719 -1.17351,0 -2.68935,-2.11451 -3.36523,-4.69921 -2.82354,-2.82108 -7.06787,-6.15645 -9.0625,-6.04493 z m -156.05664,3.93946 c 2.92241,-0.0378 5.71908,0.0819 8.39844,0.35742 15.82308,2.48311 30.44628,12.37034 37.77929,28.51758 10.244,22.55701 1.17922,48.7023 -19.46289,56.13281 -2.83606,1.02096 -1.92237,-1.48447 3.19336,-8.74219 13.37915,-18.98113 10.51669,-41.12187 -7.01172,-54.1914 -3.70924,-2.76567 -8.89213,-4.37619 -14.48437,-4.87305 -4.16837,-0.67487 -8.37109,-0.43295 -12.50977,0.70117 -5.19943,1.0261 -10.09231,2.95729 -13.82031,5.80078 -9.18072,7.00245 -15.20933,18.17475 -17.18555,29.9961 -0.0196,0.113 -0.0376,0.22683 -0.0566,0.33984 -1.30872,8.15992 -0.70371,16.60775 2.19922,24.20898 10.00133,26.18805 48.75177,49.5947 92.09375,55.62305 32.22302,4.4818 72.37349,-6.32412 85.5,-23.01172 3.0981,-3.93857 5.67217,-5.3611 7.10938,-3.92383 3.47584,3.47581 -9.62555,17.77556 -22.90625,25.00391 -6.38713,3.47637 -18.39321,7.92129 -26.68164,9.875 -2.63456,0.62098 -5.30473,1.1221 -7.99024,1.57031 -10.35884,1.21977 -22.03447,1.72001 -33.01172,1.42188 -0.65607,-0.0378 -1.31172,-0.0689 -1.96484,-0.10938 -40.42855,-3.32987 -79.60988,-22.49381 -96.9668,-49.08203 -2.05791,-3.30414 -3.8791,-6.69586 -5.41211,-10.15625 -0.48695,-1.18284 -0.94951,-2.37554 -1.34961,-3.58008 -8.430991,-25.38346 -3.81812,-54.55171 10.83203,-68.50195 7.25085,-6.90437 15.91444,-11.07518 24.88868,-12.76758 1.40831,-0.17461 2.82133,-0.3417 4.30468,-0.43555 1.53547,-0.0979 3.04297,-0.15455 4.51563,-0.17382 z m 326.0957,32.90429 c -0.30052,0.0983 -0.37869,1.15248 -0.41601,2.94727 -0.0189,0.14816 -0.0561,0.24026 -0.0625,0.43555 -0.001,0.0703 0.041,0.16855 0.041,0.24414 -9.8e-4,0.22677 0.0217,0.45189 0.0293,0.67968 0.002,0.0227 3.8e-4,0.0494 0.004,0.0781 0.10239,2.40465 0.68744,4.77526 1.45117,5.53906 v 0.004 c 1.32302,1.32298 4.78714,1.73174 7.58203,1.47265 0.003,-3.4e-4 0.004,3.1e-4 0.004,0 0.33714,0.0412 0.66568,0.0634 0.98633,0.0684 0.0227,10e-4 0.0711,0.0234 0.0957,0.0234 0.14059,0 0.22318,-0.0197 0.34375,-0.0234 2.37203,-0.0227 3.19667,-0.25798 2.22265,-1.21484 0.29632,-0.31861 0.37754,-0.6867 0.11524,-1.11133 -0.79877,-1.29237 -2.92064,-2.34961 -4.71875,-2.34961 -0.19956,0 -0.41336,-0.0311 -0.62891,-0.0742 -1.13492,-0.68651 -2.12547,-1.24053 -3.00977,-1.69336 -0.77831,-0.67468 -1.51135,-1.45438 -2.02929,-2.34375 -1.07408,-1.84418 -1.66873,-2.75859 -2.00782,-2.68164 z m -90.41015,2.00977 c -0.98243,0.0128 -1.17069,0.97616 0.0195,4.26562 8.01472,3.34031 21.69055,11.83483 22.49218,14.9004 0.6389,2.44294 3.23082,4.41406 5.80079,4.41406 1.87268,0 3.6993,1.02654 4.83789,2.54297 0.22374,0.43691 0.35351,0.88121 0.35351,1.3125 0,1.85344 2.93501,4.11019 6.20899,5.58984 5.1987,2.88 12.95552,5.47388 18.73242,5.76563 1.44034,0.0726 4.2926,1.52331 6.33789,3.2207 0.0189,0.0189 0.0507,0.0299 0.0703,0.0488 1.03215,0.98029 2.30146,1.61232 3.79883,1.90429 0.7093,0.20637 1.49375,0.3659 2.35937,0.46485 1.01061,0.14778 2.00736,0.22163 2.90039,0.13281 0.0189,-3.8e-4 0.0373,4.5e-4 0.0547,0 1.23795,-0.0302 2.43498,-0.0156 3.64844,-0.0156 1.68306,0.10205 3.25176,0.34095 4.44727,0.70118 0.80507,0.89514 2.60871,1.33694 4.58593,1.19921 1.18269,0.17764 2.34966,0.25919 3.24805,0.1836 22.74466,4.21542 18.66329,-4.35306 -1.38086,-5.01953 -0.0646,0.0227 -0.12873,0.0297 -0.19336,0.0547 -1.61284,-0.14401 -3.03946,-0.32089 -4.18945,-0.53711 -0.6477,-0.45238 -1.22269,-1.06809 -1.66992,-1.86719 -1.7935,-3.2047 -2.95906,-3.36838 -6.98047,-0.95508 -1.2347,0.74086 -2.19091,1.19988 -3.02539,1.4082 -0.59483,0.0378 -1.16272,0.038 -1.69336,-0.004 -1.14584,-0.3772 -2.18231,-1.55945 -3.66211,-3.74024 -2.74715,-4.04851 -4.50756,-4.72212 -7.76563,-2.97851 -3.13538,1.67799 -4.58044,1.30027 -5.64453,-1.47266 -0.81248,-2.11756 -2.94144,-3.14159 -4.93359,-2.37695 -0.56905,0.21808 -1.13301,0.35366 -1.69336,0.46289 -0.6028,-0.0881 -1.21212,-0.14649 -1.8125,-0.14649 -1.70631,0 -3.00461,-0.24391 -4.00195,-0.75781 -0.35717,-0.21694 -0.70127,-0.45006 -1.00586,-0.72461 -0.0828,-0.0805 -0.16584,-0.16001 -0.24219,-0.24804 -0.0866,-0.0869 -0.15312,-0.19137 -0.23438,-0.28321 -0.56844,-0.78194 -0.93219,-1.80345 -1.12109,-3.13086 -0.10016,-0.70159 -0.28269,-1.31457 -0.50977,-1.88086 -0.24982,-1.98569 -1.4032,-3.03824 -3.73437,-3.39257 -0.80874,-0.2778 -1.73667,-0.47866 -2.80469,-0.60157 -2.11891,-0.24453 -3.57694,-0.68763 -4.49805,-1.38476 -0.43185,-0.66732 -0.64648,-1.52457 -0.64648,-2.61719 0,-0.69891 -0.13822,-1.36073 -0.4043,-1.97656 -0.0408,-1.60781 -0.92866,-2.5298 -2.71679,-2.8418 -0.79155,-0.45657 -1.70505,-0.83242 -2.75391,-1.0957 -3.23097,-0.8109 -5.87305,-3.06535 -5.87305,-5.00391 0,-2.58663 -1.56456,-3.12876 -5.875,-2.04687 -3.34875,1.12355 -7.19269,-1.49393 -8.83007,-1.47266 z m -22.79102,8.80859 0.006,0.008 c 1.0813,0.0151 2.22972,0.0807 3.39648,0.21679 3.03758,0.35452 4.95303,0.59578 5.98828,0.98242 0.38542,1.41759 -1.01981,3.75004 -3.58007,6.38282 -3.2158,2.67454 -8.89282,6.357 -14.13477,9.06836 -7.67625,3.97039 -10.38125,6.37012 -7.81055,6.92968 5.83105,1.26909 21.85,-7.67557 28.15039,-15.71875 3.6597,-4.67263 6.53875,-6.39575 8.58204,-5.13086 4.10366,2.54057 -9.04658,19.92671 -22.41797,29.63477 -10.65396,7.73526 -12.53343,10.80828 -5.47657,8.96289 7.47776,-1.95549 23.47612,-17.0224 28.47266,-26.81641 2.4793,-4.85998 5.0209,-8.82951 5.79688,-9.0957 1.72716,1.22721 3.70854,2.78329 5.83789,4.52539 3.08077,2.69292 7.09078,6.33181 11.37695,10.35742 19.46876,18.28487 35.29067,25.01172 58.83984,25.01172 19.91029,0 28.6375,2.85604 44.35157,14.51758 10.11212,7.50743 11.96381,9.9273 10.15625,13.30469 -4.02822,7.52689 -5.60844,32.22199 -2.63868,41.2207 0.37493,1.13628 0.74589,2.07334 1.11133,2.97461 0.16252,0.79181 0.33879,1.3996 0.54492,1.60547 0.14022,0.14022 0.15137,0.12893 0.28516,0.25781 2.81688,5.78801 4.80123,4.08118 2.58008,-5.15039 -0.48117,-2.0005 -0.77105,-5.30434 -0.9375,-8.99414 0.004,-1.79059 0.0195,-3.26791 0.0195,-5.24219 5.7e-4,-0.53582 0.004,-0.85328 0.004,-1.39843 0,-0.0752 -0.004,-0.13258 -0.004,-0.20704 1.5e-4,-0.37455 0.004,-0.59394 0.004,-0.97265 0,-1.21705 -0.0375,-2.20876 -0.0488,-3.35547 0.076,-1.96003 0.16006,-3.92637 0.32031,-5.78125 1.36305,-15.80066 1.7827,-16.86691 5.38867,-13.60352 2.15165,1.94718 8.80932,5.70968 14.79492,8.35743 l 9.64258,4.26757 c 0.30879,0.39772 0.54195,0.80548 0.67578,1.23438 -0.0151,0.0794 0.0145,0.16496 -0.0195,0.23828 -0.20901,0.48427 -0.38761,0.94205 -0.58789,1.41797 l -2.63476,5.26367 c -2.69787,5.39637 -4.24883,12.65744 -4.64844,20.63867 l -0.29297,-1.27539 0.24219,2.26758 c -0.32996,8.75558 0.72064,18.31889 3.20508,27.24609 2.31579,8.32082 4.27868,20.39696 4.35937,26.83399 0.13266,10.32344 -1.96904,13.98184 -6.78711,11.24414 -0.15912,-0.0911 -0.31626,-0.1741 -0.47851,-0.27539 -0.34167,-0.21657 -0.69675,-0.46211 -1.06446,-0.73828 -0.14097,-0.10432 -0.28397,-0.22444 -0.42578,-0.33594 -0.46212,-0.36586 -0.95357,-0.79679 -1.45508,-1.25195 -0.37001,-0.45786 -0.74019,-0.89587 -1.09765,-1.44141 -1.26161,-1.92548 -2.91156,-3.38247 -4.76368,-4.37891 -5.94909,-5.37872 -9.78566,-4.66275 -16.89257,1.92383 -1.87397,1.73673 -3.6556,3.25802 -5.02149,4.33594 -1.63377,0.54943 -3.32342,0.8096 -4.92383,0.79883 -1.706,-0.78104 -3.58185,-2.08582 -5.03515,-3.46875 -0.55431,-0.67128 -1.0943,-1.41266 -1.61524,-2.25391 -0.25209,-0.40728 -0.50443,-0.77339 -0.75781,-1.16015 -0.0189,-0.10923 -0.0488,-0.22098 -0.0488,-0.32227 0,-4.13594 -6.91015,-9.87137 -13.97851,-11.60156 -3.74332,-0.91624 -8.5328,0.30947 -13.70508,3.50586 -3.54879,2.19333 -5.497,3.35075 -7.14453,3.60742 -0.42093,0.0302 -0.83327,0.0225 -1.24414,0.004 -0.65537,-0.0971 -1.31099,-0.30623 -2.06055,-0.73437 -0.43098,-0.26117 -0.87133,-0.53979 -1.37695,-0.89453 -0.61387,-0.43098 -1.2917,-0.92899 -2.05664,-1.5 -1.92465,-1.43702 -3.90106,-3.73744 -5.48438,-6.19141 -0.98721,-1.69795 -1.68375,-3.42113 -1.85742,-4.875 -0.81785,-6.84121 -10.45298,-15.67578 -17.0918,-15.67578 -2.34965,0 -6.83078,1.16263 -9.95898,2.58789 -7.88667,3.59342 -14.6052,-0.44284 -18.03516,-10.83594 -3.66977,-11.11933 -13.48553,-16.29062 -24.92968,-13.13086 -1.1079,0.30615 -2.16241,0.53789 -3.18946,0.72657 l -6.70508,0.35351 c -4.04493,-0.44417 -7.04955,-2.26628 -8.89453,-5.42578 l -0.91406,-1.91406 c -0.32757,-0.84998 -0.59814,-1.75972 -0.79687,-2.75195 -0.93302,-4.66538 -3.59659,-8.23675 -7.44922,-9.99219 -1.17698,-0.53647 -2.07277,-1.01434 -2.74414,-1.46289 -0.59671,-0.63504 -1.06143,-1.31517 -1.34571,-1.97852 0.11116,-0.41185 0.45976,-0.81532 1.10157,-1.23047 2.38721,-1.54352 2.3039,-2.39442 -0.40821,-4.13867 -0.61388,-0.39454 -1.22193,-0.65421 -1.8164,-0.85547 -0.14945,-0.1406 -0.31363,-0.26766 -0.48829,-0.375 -0.70581,-0.43642 -1.3417,-0.39345 -1.79882,0.0156 -1.95331,0.13946 -3.04942,1.52866 -1.78516,3.57422 0.12299,0.19918 0.1804,0.37585 0.21094,0.54687 -0.98814,0.96662 -2.80425,1.47711 -5.08789,1.57031 -3.99295,-0.20711 -9.32064,-1.48214 -12.32422,-3.58593 -3.00746,-2.10645 -6.36424,-8.20878 -7.91992,-14.38672 -2.05308,-8.15369 -4.53852,-11.80941 -10.36329,-15.2461 -3.88713,-2.29349 -6.49753,-4.49057 -8.01757,-6.73632 -0.83884,-1.7308 -1.13825,-3.92516 -1.21094,-7.0918 0.0965,-0.35188 0.15922,-0.69469 0.29687,-1.05469 2.47804,-6.45762 -1.48435,-15.14012 -8.58593,-18.8125 -1.75437,-0.90724 -3.16314,-1.89846 -4.26367,-2.9082 -1.16602,-1.3211 -2.01004,-2.4818 -2.45508,-3.47461 -0.45845,-1.49813 -0.0683,-2.88027 1.23047,-3.92969 0.0719,-0.0491 0.11396,-0.10352 0.1914,-0.15039 0.004,-0.002 0.007,-0.004 0.008,-0.0156 0.0428,-0.0227 0.10823,-0.0481 0.1543,-0.0723 0.77431,-0.39133 1.803,-0.72221 3.05664,-1.01562 1.14543,0.18025 1.94755,1.2471 2.37305,3.14843 -0.50514,1.77778 -0.15046,4.23227 1.30469,5.6875 1.16896,1.16897 3.55212,1.62523 5.72265,1.50977 0.12783,0.0151 0.24376,0.0151 0.34766,0 2.22767,0.48729 4.10742,-0.0316 4.10742,-2.13086 0,-0.0302 -0.0117,-0.0603 -0.0117,-0.0898 0.001,-0.0227 0.0117,-0.0423 0.0117,-0.0703 0,-0.11112 -0.0315,-0.21726 -0.0645,-0.32422 -0.002,-0.004 -0.002,-0.0157 -0.004,-0.0195 -6.4e-4,-0.002 -0.004,-0.003 -0.004,-0.004 -0.0317,-0.0911 -0.0659,-0.17908 -0.11523,-0.26563 -0.46397,-1.00248 -1.77981,-1.73437 -3.33594,-1.73437 -1.93854,0 -3.52539,-1.58684 -3.52539,-3.52539 0,-2.80691 3.46895,-3.52912 17.03516,-3.54688 12.99191,-0.0189 19.8996,-1.35837 29.08789,-5.63672 6.62657,-3.08538 12.63683,-6.57119 13.36328,-7.74609 0.54446,-0.87904 3.16803,-1.38863 6.41211,-1.35938 z m 35.93164,24.17578 c -6.2039,0.0151 -26.34696,46.4453 -22.70508,52.33789 0.98873,1.59988 3.32297,-2.64547 5.5586,-10.10546 2.12027,-7.07543 6.92844,-18.68114 10.68359,-25.78907 8.88174,-16.81171 8.73922,-16.44804 6.46289,-16.44336 z m -90.67773,0.25391 c -0.42277,0.004 -1.08968,0.49174 -2.06055,1.46289 -0.81652,0.81679 -1.31088,2.0663 -1.49024,3.36328 -0.32251,0.55922 -0.54687,1.2473 -0.54687,2.10352 0,0.65767 0.47574,1.23083 1.19336,1.63672 0.89688,1.65161 2.4099,2.92382 3.68555,2.92383 1.47414,0 2.034,-1.66909 1.24804,-3.7168 -0.0952,-0.24832 -0.18126,-0.53416 -0.27148,-0.80274 -0.0181,-0.40365 -0.11023,-0.84782 -0.29883,-1.33984 -0.0551,-0.14929 -0.14487,-0.24391 -0.21094,-0.37695 -0.3804,-1.464 -0.64648,-2.9221 -0.64648,-3.82617 0,-0.95774 -0.17956,-1.43341 -0.60156,-1.42774 z m 92.76171,9.14063 c -2.28681,0 -14.61718,25.52016 -14.61718,30.2539 0,6.58178 4.0386,1.41954 9.41211,-12.0332 3.22446,-8.07205 6.21378,-15.47482 6.64453,-16.44922 0.43098,-0.97421 -0.21606,-1.77148 -1.43946,-1.77148 z m 61.84961,13.96093 c -1.40957,0.0189 -4.95936,4.72942 -8.50781,12.3418 -3.12869,6.71184 -10.71477,17.23269 -16.85351,23.38281 -6.13875,6.15028 -11.16016,11.79768 -11.16016,12.55078 0,3.03084 9.06669,-3.77936 18.16016,-13.64453 9.60102,-10.41588 15.02153,-19.15032 18.12304,-29.20508 1.15866,-3.75575 1.0846,-5.43632 0.23828,-5.42578 z m 8.8711,4.92969 c -1.05646,0.0491 -5.34569,7.53909 -9.53125,16.63672 -8.17894,17.77701 -5.29359,21.51249 3.27539,4.24023 6.33657,-12.78062 8.80281,-21.00126 6.25586,-20.87695 z m 7.93945,6.6543 c -0.83225,0.0151 -2.5387,2.45223 -5.16211,7.35156 -0.0646,0.12132 -0.11934,0.23257 -0.18359,0.35352 -0.86695,1.51793 -1.66441,3.04504 -2.26758,4.40234 -1.90125,3.80685 -3.27001,6.88616 -3.31445,7.58008 -0.22602,3.74872 2.50313,1.44797 6.96679,-5.87305 2.5609,-4.20023 4.61196,-9.75116 4.5586,-12.33594 -0.0189,-0.98978 -0.21903,-1.48535 -0.59766,-1.47851 z m -322.3789,0.74804 c 6.46177,-0.0227 23.37968,2.3857 37.5957,5.35157 14.21601,2.96575 23.20355,5.41078 19.97265,5.4375 -3.2309,0.0227 -10.10405,-0.98373 -15.27343,-2.23438 -5.16944,-1.25068 -19.44323,-3.67539 -31.72071,-5.39258 -16.97545,-2.37475 -19.50864,-3.13546 -10.57421,-3.16211 z m 129.82421,6.83789 c 3.12182,-0.16475 -2.98212,4.71668 -15.51757,10.86329 -2.20734,1.08238 -4.12864,1.9439 -5.99414,2.70703 -2.10226,0.77847 -4.26154,1.48465 -6.4375,2.13476 -5.9955,1.48948 -13.07289,1.91468 -26.6836,2.18946 -27.05972,0.54629 -43.13887,-2.22867 -62.26758,-10.74024 -14.29351,-6.36189 -7.33826,-6.386 28.9961,-0.0918 36.6418,6.34727 58.53882,5.40494 77.66992,-3.35351 5.49139,-2.51407 8.81542,-3.63415 10.23437,-3.70899 z m 40.71094,2.11524 c -4.14679,0 -5.72868,6.71133 -2.5,10.60156 3.1332,3.77522 11.7207,4.81981 11.7207,1.42383 0,-1.14168 -2.11882,-2.63292 -4.70898,-3.31055 -3.14171,-0.82148 -4.22946,-2.47823 -3.27148,-4.97461 0.79529,-2.07246 0.2413,-3.74023 -1.24024,-3.74023 z m -236.48828,0.47266 c 0.164372,0.004 0.286353,0.0374 0.353516,0.10546 0.509877,0.51005 -2.762498,2.68855 -7.269532,4.8379 -4.507056,2.149 -8.197265,3.42439 -8.197265,2.83203 0,-0.20448 0.246296,-0.50323 0.65625,-0.85938 3.057305,-1.90635 6.246956,-3.68021 9.558593,-5.32226 2.187032,-0.95539 4.091414,-1.6252 4.898438,-1.59375 z m 147.29102,2.13476 c 2.98121,-0.003 6.05263,0.12102 8.49023,0.375 3.40727,0.35528 2.56651,0.6616 -1.2168,0.82227 -0.97483,0.0227 -1.78766,0.0487 -2.8457,0.0684 -1.67534,0.0302 -3.30929,0.0371 -4.94727,0.0371 -7.89635,-0.0378 -11.3545,-0.42178 -7.43945,-0.90821 2.08566,-0.2589 4.97771,-0.39135 7.95899,-0.39453 z m 105.71875,2.0918 c -2.80181,0 -5.32305,6.88899 -3.56446,9.73437 0.48122,0.77877 1.26419,1.20796 2.09766,1.39063 0.31892,0.38449 0.68143,0.625 1.07226,0.625 0.44327,0 0.8288,-0.29078 1.13868,-0.77539 0.95169,-0.37418 1.64618,-1.13007 1.5332,-2.22266 -0.0957,-0.93702 -0.17969,-3.288 -0.17969,-5.22656 0,-1.93848 -0.9416,-3.52539 -2.0957,-3.52539 z m -273.882817,7.36719 c 0.701874,0.0552 -1.840984,2.98203 -7.783203,9.01367 -6.804412,6.90693 -15.538795,19.00186 -19.408203,26.875 -4.429448,9.01277 -8.250213,22.14615 -10.3125,35.46094 -1.54642,9.98404 -2.92609,15.60949 -3.365235,14.09374 -0.05717,-6.06531 0.305387,-12.29901 1.070313,-18.46289 2.854713,-17.90313 10.520547,-35.92967 20.914063,-49.59179 5.098598,-6.20039 11.010623,-11.84603 17.664062,-16.83399 0.618062,-0.37001 1.038367,-0.56818 1.220703,-0.55468 z m 460.597657,3.94531 c -0.3651,-0.0813 -0.88392,0.92278 -1.62891,2.78711 -1.29157,3.231 -1.70309,9.30946 -0.91797,13.50976 2.16843,11.59639 3.58014,9.16732 3.41407,-5.87304 -0.0786,-7.14649 -0.25872,-10.28864 -0.86719,-10.42383 z m 8.10937,2.62109 c -1.21421,0.004 -2.10579,2.54143 -3.48437,8.97656 -0.9885,4.6153 -0.70317,7.63672 0.7168,7.63672 2.68051,0 6.24787,-13.70521 4.12109,-15.83203 -0.50699,-0.50695 -0.94877,-0.78435 -1.35352,-0.78125 z m -155.02343,4.86524 c -1.34907,0 -2.45703,0.44176 -2.45703,0.98242 0,0.54081 -0.58619,2.51885 -1.30665,4.39648 -0.72053,1.87756 0.40878,5.13703 2.51368,7.24219 4.46581,4.46578 6.83811,4.71847 13.04882,1.39453 6.88419,-3.68421 5.45068,-6.52784 -3.09374,-6.14062 -6.07061,0.27515 -7.49219,-0.49514 -6.94336,-3.76368 0.37995,-2.26163 -0.41311,-4.11132 -1.76172,-4.11132 z m -53.09961,6.18359 c 1.8376,0.0615 3.99394,0.32458 6.69922,0.74609 4.44068,0.69158 8.81124,1.86492 11.47461,2.97852 0.13712,0.0684 0.30343,0.13434 0.43554,0.20312 0.0492,0.0227 0.0925,0.0475 0.14258,0.0762 0.60655,0.32088 1.11556,0.64885 1.60156,0.97461 0.28381,0.22601 0.52327,0.45134 0.70313,0.67773 0.0847,0.11112 0.15771,0.22482 0.21875,0.33594 0.0227,0.0491 0.0501,0.0949 0.0742,0.14258 0.22004,0.50388 0.14823,1.04988 -0.41211,1.76171 -10e-4,0.002 -0.004,0.003 -0.006,0.004 -1.11943,1.04973 -17.87775,10.55168 -37.25586,21.12109 -49.10447,26.78306 -78.7701,47.05609 -103.08594,70.45118 -38.04392,36.60313 -57.28669,69.63458 -63.99805,112.16406 -2.85517,15.44663 -3.79091,31.56396 -2.82812,48.45312 0.62707,26.67663 5.16481,48.45199 16.16406,81.54493 11.02138,33.15953 14.30643,60.5698 9.36719,78.21093 -1.58223,5.65119 -5.3558,13.34935 -8.38477,17.10938 l -2.52539,3.13476 -0.35156,0.375 c -0.86937,0.75326 -1.67749,1.44638 -2.11719,1.75782 l 3.25391,-9.99024 c 4.92602,-15.11384 1.98538,-33.05031 -12.54688,-76.49609 -19.61364,-58.63692 -22.43858,-71.20698 -23.78711,-105.91797 -1.47073,-37.857 2.86886,-59.72191 17.93555,-90.35547 24.22176,-49.24766 67.13426,-88.53101 149.57617,-136.93164 15.60171,-9.15961 29.65398,-18.2067 31.22657,-20.10156 0.27881,-0.33638 0.59667,-0.63212 0.9414,-0.90039 1.83833,-0.93959 3.58095,-1.42173 5.74414,-1.52344 v 0.002 c 0.54989,-0.0259 1.1277,-0.0277 1.74024,-0.008 z m 72.47851,6.06836 c -0.28409,0.003 -0.45037,0.43659 -0.54492,1.28125 -1.95696,0.22035 -3.04841,2.46333 -1.3164,5.26562 0.42773,0.69204 1.27049,1.23485 2.24414,1.63672 0.33448,0.44236 0.72403,0.71289 1.14257,0.71289 0.0378,0 0.0555,-0.004 0.0918,-0.004 0.0189,6.8e-4 0.0285,0.004 0.0391,0.004 0.34356,0 0.64098,-0.0425 0.9043,-0.11132 1.96581,0.29631 3.79688,-0.0377 3.79687,-1.23438 0,-0.62615 -1.11251,-2.24516 -2.57617,-3.85547 -0.32579,-0.45241 -0.70576,-0.90288 -1.19336,-1.35351 -0.58133,-0.53707 -1.01866,-0.88011 -1.41797,-1.15235 -0.4159,-0.57766 -0.79543,-1.06931 -1.04492,-1.16406 -0.044,-0.0162 -0.0856,-0.0258 -0.125,-0.0254 z m -43.96484,14.47656 c 0.0738,0.0635 0.13072,0.14071 0.18359,0.22461 -0.005,0.12662 -0.0649,0.28395 -0.11914,0.44141 -0.0729,0.18141 -0.17364,0.38235 -0.30664,0.61328 -2.119,2.15875 -6.81587,6.37194 -12.28711,10.96875 -5.13643,4.31573 -8.55128,6.85964 -9.35742,7.06445 0.41229,-0.50513 0.82352,-1.00962 1.24024,-1.50976 1.24787,-1.40527 2.50481,-2.80129 3.77148,-4.15039 5.80326,-5.44611 14.0997,-12.19727 16.875,-13.65235 z m 23.08789,5.20899 h 0.002 c 7.4795,-0.0949 10.17454,4.10089 14.87696,19.75781 5.44278,18.12196 4.74903,52.31436 -1.55469,76.36523 -9.87436,37.67456 -27.46007,66.50226 -71.66406,117.48828 -46.7943,53.97359 -64.66516,92.51268 -62.03711,133.78516 1.08322,17.01135 5.30612,24.75212 18.35742,33.63477 5.47295,3.7248 11.20603,5.28711 19.40234,5.28711 28.20958,0 46.82902,-22.081 40.04688,-47.49024 -2.96988,-11.12663 -1.52213,-11.49681 2.96484,-0.75781 4.06389,9.7265 4.40648,23.09698 0.77539,30.18945 -5.70157,11.13691 -19.66523,22.91291 -31.24414,26.35156 -6.42147,1.90712 -10.30596,2.88244 -13.95117,3.01563 -0.26733,0.004 -0.53249,0.003 -0.79883,0.004 -3.53054,0.004 -6.98396,-0.7679 -12.47461,-2.32813 -22.26533,-6.327 -35.89412,-28.14102 -38.25195,-56.2793 -0.21509,-3.89219 -0.29061,-8.06981 -0.22852,-12.6289 0.0246,-1.58718 0.10376,-3.1396 0.17383,-4.69922 0.78316,-10.7596 3.03826,-22.08263 6.92578,-33.57617 8.83985,-26.13513 25.3991,-52.87266 68.45117,-110.52149 36.66433,-49.09515 51.17876,-77.44348 55.16797,-110.2539 0.54141,-3.73078 0.90971,-7.4431 1.10547,-11.14258 0.28018,-3.29019 0.43439,-6.43966 0.34375,-9.26758 -0.0317,-1.02025 -0.0824,-1.73191 -0.14258,-2.30273 0.0227,-10.87027 -1.02936,-18.20097 -3.7207,-27.60157 l -4.12695,-14.41406 c 0.32893,-0.47807 0.85425,-0.88232 1.59765,-1.22656 1.05069,-0.22413 2.40063,-0.47997 4.34961,-0.82617 l 2.13477,-0.2793 c 1.28331,-0.16781 2.45098,-0.2696 3.51953,-0.2832 z m 360.94922,1.60156 c -1.35141,-0.004 -2.76831,0.22421 -4.22656,0.73437 -2.57719,0.90097 -4.58378,2.82627 -5.87891,5.18946 -0.82741,1.23159 -1.30832,2.6116 -1.47266,4.05273 -0.12699,0.10621 -0.21679,0.28798 -0.21679,0.60742 0,0.19163 0.0306,0.40911 0.0918,0.65039 -0.25209,2.93915 0.46489,5.93413 2.37696,8.23828 1.65486,1.99393 4.37795,3.01009 7.2832,3.17579 0.6059,0.12661 1.21152,0.19934 1.80078,0.20312 0.004,3e-4 0.0217,0.004 0.0293,0.004 0.0786,0 0.15929,-0.0234 0.23828,-0.0234 1.41422,-0.0378 2.76207,-0.39699 3.96094,-1.08789 1.50901,-0.59361 2.89879,-1.45344 4.02539,-2.58008 7.55796,-7.55788 1.44656,-19.11971 -8.01367,-19.16015 z m -293.29688,0.53125 -0.041,1.25781 c -0.1372,-0.0491 -0.27735,-0.082 -0.42188,-0.082 -3.66867,0 -2.75669,8.65357 1.34375,12.75391 3.91669,3.91646 7.14203,4.52022 11.68555,1.91015 1.71984,-0.0189 2.87203,0.81238 3.62109,2.64258 0.0616,0.72733 0.22251,1.5546 0.60938,2.56445 0.82934,2.16129 2.16116,3.34752 3.61719,3.52149 1.02198,0.41684 1.94902,0.2901 2.37304,-0.60156 0.30992,-0.20334 0.62125,-0.44739 0.92188,-0.74805 0.80009,-0.80001 -0.13206,-3.03996 -2.07031,-4.97852 -0.82337,-0.8234 -1.57306,-1.35939 -2.26172,-1.73633 -1.10971,-1.05385 -2.35649,-2.04203 -3.68946,-2.8496 4.40535,-3.71195 2.14336,-6.55423 -3.61328,-3.5879 -1.34082,0.6909 -2.59131,1.09346 -3.74414,1.2793 -1.81198,0.004 -3.1253,-0.30514 -4.12109,-1.04687 -1.06379,-0.88868 -1.76531,-2.30439 -2.28125,-4.42383 -0.0151,-0.0491 -0.018,-0.0685 -0.0293,-0.11914 -2.3e-4,-0.0302 -0.004,-0.0494 -0.004,-0.0781 0,-1.85782 -0.59466,-3.46234 -1.4375,-4.14843 -9.7e-4,-8.7e-4 -0.004,8.6e-4 -0.004,0 z m 292.16797,3.60351 c 1.79694,0.19919 4.1934,1.52716 5.57617,3.19336 2.099,2.52907 1.85888,4.13719 -1.05468,7.05079 -1.9174,1.91736 -3.00911,2.98733 -3.90625,3.32617 -0.51564,-0.0189 -1.03988,-0.10663 -1.56055,-0.23438 -0.68648,-0.47444 -1.4583,-1.38558 -2.64258,-2.8125 -1.43792,-1.73253 -1.90337,-3.84968 -1.66601,-5.74609 0.2468,-0.80806 0.60728,-1.63244 1.08789,-2.45899 1.00497,-1.2161 2.4119,-2.07507 4.16601,-2.31836 z m -254.66797,5.79688 -0.1289,4.16211 c -0.16214,0.97946 -0.18546,2.09102 -0.0859,3.27734 -9.4e-4,0.0378 -0.004,0.0391 -0.004,0.0762 -0.0302,1.0605 0.19873,2.19818 0.61524,3.27735 0.002,0.004 0.002,0.0158 0.004,0.0195 0.34848,1.18722 0.80712,2.29292 1.41211,3.17578 0.0302,0.0491 0.0644,0.10472 0.0977,0.15234 0.0616,0.0828 0.12514,0.15066 0.1875,0.22852 0.11679,0.14929 0.23144,0.31013 0.35352,0.43164 0.0151,0.0151 0.022,0.018 0.0371,0.0293 0.0189,0.0189 0.0319,0.0421 0.0508,0.0625 0.28233,0.28233 0.58511,0.53332 0.89843,0.76172 1.8528,1.50644 3.71472,2.04748 5.55274,1.64257 0.70469,0.0378 1.34488,-0.13026 1.97851,-0.52734 2.35809,-0.74513 4.29607,-2.46615 4.76954,-4.94726 0.75625,-3.96352 0.35461,-4.1871 -2.81055,-1.56055 -4.52251,3.75345 -8.59961,1.60965 -8.59961,-4.52539 0,-2.50847 -1.05728,-4.5625 -2.34961,-4.5625 -0.52668,0 -0.94675,0.2768 -1.28906,0.7207 z m -48.70117,11.38086 c 0.63855,0.0348 1.3218,0.23471 2.10938,0.53711 4.81164,1.8463 4.97669,9.99213 0.32617,16.14062 -4.72898,6.25217 -4.26251,22.58455 1.24805,43.60938 6.20734,23.68327 5.89065,44.03526 -1.14649,73.24023 -22.00448,91.32061 -3.51926,140.06029 59.89063,157.90235 56.70315,15.95493 104.85168,-4.29677 121.95703,-48.91016 0.76958,-1.86814 1.42673,-3.66799 1.91406,-5.48828 1.20257,-3.84148 2.21037,-7.8259 2.96484,-11.98633 3.21124,-17.7089 0.21754,-36.03732 -8.46679,-51.81836 -3.78573,-6.87987 -4.88281,-9.0366 -3.60352,-8.2793 0.42229,0.3772 0.74545,0.64579 1.2168,1.07813 2.064,1.8929 3.90978,3.77843 5.59961,5.68555 6.92882,9.05419 12.79838,24.21582 14.04687,37.13281 0.0552,0.73387 0.11556,1.45551 0.16016,2.21289 0.75299,12.60374 -1.0412,25.05418 -4.94141,36.70117 -0.28535,0.85123 -0.59694,1.69075 -0.90429,2.5332 -10.14154,26.93371 -32.30387,49.12936 -61.33204,58.90821 -34.95295,11.77481 -90.89981,0.96602 -121.71093,-23.51953 -14.25922,-11.33182 -26.32611,-29.28486 -31.79883,-47.30274 -6.84722,-22.54291 -5.26822,-64.70073 3.76758,-100.54883 10.65018,-42.25232 10.97132,-45.46025 7.11718,-71.23632 -4.67641,-31.27612 -4.45205,-42.34365 1.08008,-52.8086 5.36731,-10.15272 7.41937,-13.43382 9.88086,-13.75976 0.20514,-0.0272 0.41215,-0.0351 0.625,-0.0234 z m 96.8711,4.70508 c -4.15242,0.1731 -5.06289,1.93508 -2.24805,4.75 0.80307,0.80303 2.12356,1.12641 3.51953,1.09179 0.2778,0.22602 0.5331,0.39453 0.70703,0.39454 0.22148,0 0.56221,-0.23772 0.93555,-0.5879 1.91765,-0.42686 3.67627,-1.48623 4.1582,-2.9375 0.42913,-1.29237 -1.86384,-2.50293 -5.09375,-2.68945 -0.72408,-0.0408 -1.38539,-0.0479 -1.97851,-0.0215 z m -414.76758,3.08789 c -5.0167,0.0835 -9.73438,3.64417 -9.73438,8.47656 0,0.55612 0.0858,1.14726 0.16602,1.73438 0.023,1.47247 0.40837,2.91564 1.1875,4.17578 0.43452,0.9674 0.91981,1.83778 1.46875,2.38672 1.55084,1.55078 4.50836,2.82226 6.57617,2.82226 3.5841,0 6.37495,-2.28983 7.96289,-5.28711 0.16501,-0.31143 0.33456,-0.62008 0.47266,-0.94531 0.37466,-0.79223 0.62414,-1.58237 0.7207,-2.36719 0.79642,-3.84933 -0.24694,-7.94176 -3.86914,-9.83984 -1.57563,-0.8256 -3.27893,-1.18422 -4.95117,-1.15625 z m 394.24023,1.95898 c -0.24151,-0.007 -0.50405,-0.004 -0.78906,0.0117 l -0.002,-0.002 c -1.36827,0.0733 -3.23778,0.40865 -5.625,1 -0.39958,0.099 -0.0382,1.29179 0.80273,2.65234 1.57553,2.54937 5.17106,2.05077 6.89649,-0.53125 0.74873,-0.21959 1.05634,-0.57279 0.61523,-1.01367 -0.0227,-0.0227 -0.0629,-0.0319 -0.0859,-0.0508 0.0378,-0.0881 0.0889,-0.15539 0.11914,-0.2461 0.3871,-1.16191 -0.24104,-1.76847 -1.93164,-1.82031 z m -393.40625,2.26367 h 0.002 c 0.37542,0.0152 0.72533,0.0706 1.04492,0.17774 0.003,0.001 0.007,0.004 0.01,0.004 1.07297,0.79053 1.86327,2.13083 2.06446,3.70508 -0.007,0.0491 -0.006,0.0919 -0.0137,0.14258 -0.20541,1.39635 -0.6483,2.5543 -1.20117,3.50977 -0.8269,0.48181 -1.89873,0.78515 -3.07617,0.78515 -1.8423,0 -3.15908,-0.71033 -3.91016,-1.70703 -0.38117,-1.57111 -0.31494,-3.31658 0.36719,-4.71289 0.51959,-0.55555 1.22549,-1.04019 2.13867,-1.39062 0.95993,-0.3682 1.82228,-0.5379 2.57422,-0.51368 z m 324.26953,5.13086 h 0.002 c 0.59607,-0.0378 1.26003,0.0779 1.96484,0.2793 1.28485,0.59981 2.95009,1.90403 5.30859,4.08984 3.95959,3.66951 7.09493,5.29057 10.89649,5.50196 1.55115,0.29518 3.07945,0.17437 4.70703,-0.27539 l 5.67773,-0.66407 -1.07421,24.14453 c -1.61254,36.25728 5.51124,67.00723 23.82812,102.87891 5.53432,10.83836 10.9919,18.81524 20.28516,29.02344 7.6902,9.24567 16.24764,17.5199 25.62695,24.76367 17.61029,14.60459 35.04732,23.53052 56.99023,29.5332 9.08667,2.48565 15.24523,5.48698 15.66797,7.64063 0.87568,4.45863 -12.13827,21.59506 -23.09765,30.41406 -4.56647,3.67476 -14.32021,8.79563 -21.67578,11.38086 v 0.004 c -17.06378,5.99716 -48.60098,6.11475 -68.71094,0.25781 -29.56044,-8.60942 -46.59333,-21.90234 -57.28516,-44.70117 -0.90512,-1.93013 -1.63596,-3.6082 -2.29492,-5.22656 -0.82571,-2.30041 -1.58231,-4.67363 -2.26172,-7.12696 -1.41271,-6.52112 -1.55634,-14.93629 -1.49609,-33.66797 0.0884,-27.46938 1.1538,-37.2303 6.46093,-59.16211 3.01119,-12.44371 4.8777,-23.13103 5.65821,-33.0332 0.002,-0.004 0.003,-0.024 0.004,-0.0312 0.28385,-1.47995 0.42429,-3.57628 0.42383,-5.75 0.0741,-1.16126 0.11211,-2.20316 0.0996,-3.06055 -0.004,-0.49716 -0.0626,-1.15022 -0.11133,-1.80468 -0.0302,-10.87461 -1.50486,-21.15294 -4.41797,-32.26758 -4.85049,-18.50616 -5.99425,-36.61624 -2.64453,-41.90039 0.37493,-0.5912 0.77842,-0.99465 1.24024,-1.20313 0.0779,-0.004 0.14839,-0.0295 0.22851,-0.0371 z m 40.02539,3.58008 c 0.85641,0.0552 1.81109,0.26713 2.87696,0.60547 3.04535,0.96646 5.19859,2.93367 6.47656,5.87891 0.65938,2.43575 1.0744,5.63512 1.29297,9.85742 -0.11981,2.29281 -0.40494,4.77007 -0.95313,7.54492 -4.7763,24.15621 7.15536,74.71663 24.61719,104.32031 18.33891,31.09025 53.65304,58.16247 88.50977,67.85352 6.49572,1.80593 10.37471,3.26393 12.24414,4.66406 0.61205,0.64392 1.0707,1.31038 1.33984,2.03711 0.002,0.23357 -0.003,0.4673 -0.0996,0.70703 -0.6974,1.81807 -1.27148,4.80774 -1.27148,6.64063 0,0.45195 -0.0691,0.83795 -0.1836,1.18945 -0.40138,0.38721 -0.86387,0.74425 -1.39062,1.04102 -0.96915,0.41409 -2.23342,0.63599 -3.75781,0.67968 -3.77643,-0.38086 -9.8765,-2.05555 -19.39649,-5.14062 -19.70132,-6.38442 -36.9888,-15.48201 -51.99609,-27.30664 -9.27266,-8.1275 -19.18209,-18.23386 -27.39844,-27.93946 -8.14148,-10.66526 -15.26904,-22.59931 -21.32812,-35.9082 -4.71939,-10.36603 -8.18282,-19.24061 -10.71094,-27.98047 -0.3704,-1.33731 -0.74772,-2.67147 -1.09571,-4.01562 -0.099,-0.38544 -0.20906,-0.77029 -0.30468,-1.15625 -0.12397,-0.48854 -0.22671,-0.97946 -0.34766,-1.46875 -3.15772,-13.41381 -4.25,-27.3084 -4.25,-46.54102 0,-28.4448 1.13274,-35.94408 7.12695,-35.5625 z M 30.943359,609.38281 c 0.21371,0.0302 0.466777,0.3929 0.748047,1.09571 0.678771,1.69613 0.597219,3.72129 -0.183594,4.50195 -0.328056,0.32806 -0.613644,0.25752 -0.830078,-0.0996 -0.124735,-0.55612 -0.232713,-0.95775 -0.363281,-1.56641 -0.0039,-0.0189 -0.0061,-0.0373 -0.0098,-0.0547 -0.0319,-0.41095 -0.05283,-0.84802 -0.03125,-1.36329 0.07048,-1.71084 0.313756,-2.56756 0.669921,-2.51367 z m 502.937501,0.75 1.30469,12.73242 c 1.77033,17.27657 7.86208,29.21382 19.65039,38.50586 4.10812,3.23827 6.71135,5.8963 5.78711,5.91407 -0.92429,0.0151 -5.47865,-3.31083 -10.12305,-7.38868 -12.40951,-10.89569 -17.63029,-22.67991 -17.23242,-38.89843 l 0.26172,-10.54297 c 0.12056,-0.12394 0.24688,-0.2707 0.35156,-0.32227 z m 173.95508,62.13672 c 13.40885,-0.24794 24.83882,3.62953 33.69531,10.92383 2.96806,2.57972 5.71322,5.52237 8.20703,8.74219 7.92163,10.81394 12.29432,25.67257 12.23438,43.58984 -0.0491,14.46512 -1.23973,20.10668 -6.53125,30.92188 -2.60969,5.33408 -5.72772,10.21511 -9.35743,14.65039 -0.25058,0.28837 -0.48669,0.58047 -0.74218,0.86718 -3.03066,3.40294 -6.3937,6.66843 -9.91407,9.67969 -9.8934,8.0027 -22.26226,13.9316 -37.25976,17.83789 -7.41895,1.9324 -23.31044,3.51563 -35.31641,3.51563 -19.23666,0 -21.83041,-0.48782 -21.79492,-4.11133 0.0658,-7.50395 3.32601,-8.80774 23.01172,-9.21094 23.37483,-0.47811 41.66938,-5.35094 55.79687,-14.86133 7.10041,-4.43573 12.98536,-9.87321 17.55469,-16.23242 8.37835,-10.43546 11.68546,-21.08656 11.63867,-35.63086 -0.10507,-30.70632 -17.35559,-52.95078 -45.36132,-58.48828 -9.78467,-1.93463 -9.77389,-1.93673 4.13867,-2.19336 z M 43.007812,820.04688 c -7.346256,0 -11.73767,7.53181 -8.222656,14.0996 1.45563,2.71994 4.918483,4.69922 8.222656,4.69922 3.304154,0 6.768959,-1.97928 8.22461,-4.69922 3.514995,-6.56779 -0.878346,-14.09961 -8.22461,-14.0996 z m 0,4.70117 c 1.090424,0 2.061155,0.50886 2.708985,1.29297 0.551172,1.56007 0.582509,2.98451 0.255859,4.12109 -0.628327,0.9772 -1.723235,1.63476 -2.964844,1.63477 -1.938543,0 -3.523437,-1.5868 -3.523437,-3.5254 0,-1.93852 1.584894,-3.52343 3.523437,-3.52343 z M 706.8125,848.24414 c -9.01459,0 -21.18402,11.09691 -21.06055,19.20313 0.1149,7.54873 5.22503,16.08135 11.92383,19.9082 5.63849,3.22121 12.39436,2.72508 18.10156,-0.11524 0.51066,-0.15458 1.0103,-0.32044 1.50391,-0.50976 1.16965,-0.44874 2.44999,-1.55589 3.70898,-3.0293 4.15083,-3.70851 6.97071,-8.85504 6.97071,-14.62109 0,-0.23547 -0.0375,-0.47396 -0.0488,-0.71094 0.0227,-0.3035 0.0488,-0.60865 0.0488,-0.89453 0,-3.5636 -2.37345,-7.84688 -5.71875,-11.38281 -1.12642,-1.85492 -2.06128,-3.14844 -2.37305,-3.14844 -0.21127,0 -0.87506,-0.17242 -1.5957,-0.375 -3.52222,-2.63021 -7.58636,-4.32422 -11.46094,-4.32422 z m 0.73047,4.55274 c 10.573,0.40539 19.57066,12.64636 11.625,23.33789 -5.49324,7.3915 -13.91972,8.89709 -21.16602,3.77734 -6.64505,-4.69497 -7.18918,-17.46654 -0.98633,-23.08008 3.3055,-2.99146 7.00305,-4.17024 10.52735,-4.03515 z M 83.785156,872.68945 c -2.202093,0.034 -4.534966,0.50351 -6.935547,1.49805 -12.245511,5.0722 -13.994792,23.69777 -2.835937,30.18945 2.292272,1.33357 4.651908,2.09565 7,2.32617 0.410332,0.16933 0.755915,0.28516 0.972656,0.28516 0.753003,0 1.55986,-0.12208 2.386719,-0.32617 3.698978,-0.46152 7.280539,-2.28244 10.439453,-5.44141 11.35082,-11.35083 3.260405,-27.97172 -10.091797,-28.51953 -0.309081,-0.0127 -0.620962,-0.0166 -0.935547,-0.0117 z m -1.132812,4.50391 c 4.150341,-0.13455 8.542152,1.93875 11.044922,6.61523 1.917634,3.58307 1.628402,6.05186 -1.228516,10.41211 -1.586362,2.42109 -3.524783,4.02191 -5.554688,4.94336 -0.519889,0.0873 -1.059918,0.15954 -1.65039,0.21094 -3.050117,0.26646 -5.702601,-0.10049 -7.871094,-0.94922 -2.925657,-1.98021 -5.011719,-5.63289 -5.011719,-10.625 0,-6.61568 4.935317,-10.43225 10.271485,-10.60547 z M 439.2207,902.1875 c -4.04606,-0.17461 -8.09797,1.57973 -10.7207,5.32422 -4.8596,6.93793 -4.6124,10.26841 1.18555,16.0664 0.9326,0.9326 1.9391,1.68461 2.97851,2.30079 0.34659,0.20485 0.69044,0.4118 1.04492,0.58203 1.77094,0.98513 3.73014,1.67578 5.23243,1.67578 1.98406,0 3.74779,-0.57403 5.29101,-1.49219 2.48062,-1.12059 4.68617,-3.08295 6.2461,-5.875 3.09804,-5.54513 3.03799,-6.832 -0.56836,-12.33594 -2.601,-3.96963 -6.6434,-6.07166 -10.68946,-6.24609 z m -0.75195,5.13672 c 0.34016,0.004 0.68991,0.0364 1.05078,0.0859 3.8835,0.5512 5.29688,2.32048 5.29688,6.62695 0,4.30651 -1.41338,6.07548 -5.29688,6.62695 -3.17749,0.45101 -5.86382,-0.72256 -6.71289,-2.93554 -2.1933,-5.71575 0.55313,-10.50385 5.66211,-10.4043 z M 751.25,909.57031 c -0.70302,0.0289 -1.41378,0.16146 -2.12695,0.38281 -0.003,8.7e-4 -0.004,-8.3e-4 -0.004,0 -0.76622,0.1183 -1.54735,0.3027 -2.3457,0.55665 -3.83864,1.21833 -6.06201,4.60789 -6.44336,8.31054 -0.0552,0.2967 -0.0665,0.6049 -0.0684,0.91407 -8.3e-4,0.0378 -0.004,0.0791 -0.004,0.11914 0.003,0.17574 0.005,0.3553 0.0234,0.5371 0.11414,2.98783 1.40459,6.00886 4.03711,8.14063 2.92275,2.36663 6.13658,4.30469 7.14258,4.30469 1.00599,0 4.22178,-1.93806 7.14453,-4.30469 0.0552,-0.0412 0.0928,-0.0921 0.14648,-0.13672 0.94386,-0.68024 1.69831,-1.50888 2.25,-2.44726 4.34438,-6.13803 0.62096,-13.78706 -6.39453,-15.68555 -0.86615,-0.38634 -1.75154,-0.6286 -2.65625,-0.6836 l -0.002,-0.002 c -0.23252,-0.0138 -0.46488,-0.0152 -0.69922,-0.006 z m -0.76953,4.59961 v 0.01 c 2.93008,-0.11566 5.87867,1.60546 6.64648,4.35937 0.0635,0.30123 0.14334,0.59318 0.16602,0.91406 2.3e-4,0.003 -1.9e-4,0.004 0,0.004 3e-4,0.003 -2.3e-4,0.004 0,0.004 0.0408,0.68088 -0.0501,1.41452 -0.20313,2.16211 -0.58382,2.05016 -2.28649,3.33789 -5.05273,3.73047 -1.42719,0.20258 -2.73194,-0.0188 -3.8418,-0.51368 -2.29897,-1.45647 -3.25765,-4.47108 -2.07031,-7.875 0.43189,-1.2384 1.93557,-2.29254 3.66406,-2.72265 0.23018,-0.0302 0.45995,-0.0636 0.69141,-0.0723 z m -65.02344,14.19922 c -0.703,0.0289 -1.41378,0.16143 -2.12695,0.38281 -0.003,9.1e-4 -0.004,-8.7e-4 -0.004,0 -0.76615,0.1183 -1.54728,0.30078 -2.3457,0.55469 -3.83864,1.21837 -6.06204,4.60977 -6.44336,8.3125 -0.0552,0.29707 -0.0665,0.60294 -0.0684,0.91211 -8.7e-4,0.0378 -0.004,0.0791 -0.004,0.11914 0.003,0.17575 0.005,0.35528 0.0234,0.53711 0.11452,2.98779 1.40459,6.01092 4.03711,8.14258 2.92271,2.3667 6.13654,4.30469 7.14258,4.30469 1.00603,0 4.22178,-1.93799 7.14453,-4.30469 0.0552,-0.0412 0.0928,-0.0941 0.14648,-0.13867 0.94387,-0.68021 1.69831,-1.50694 2.25,-2.44532 4.34434,-6.13787 0.62092,-13.789 -6.39453,-15.6875 -0.86623,-0.3863 -1.75158,-0.6286 -2.65625,-0.68359 h -0.002 c -0.2325,-0.0138 -0.46489,-0.0152 -0.69922,-0.006 z m -646.335936,4.4668 c -0.455921,0 -0.943049,0.0824 -1.441406,0.19726 -5.901164,0.54819 -10.769781,5.01657 -11.802735,10.49024 -0.305915,0.78519 -0.492187,1.54335 -0.492187,2.23633 0,0.51186 0.163364,1.1531 0.427734,1.85742 0.396757,2.26855 1.487435,4.58056 3.464844,6.76562 1.854163,2.04892 4.666825,3.3438 7.640625,3.87891 0.39457,0.10356 0.794972,0.16885 1.203125,0.18359 0.444544,0.0491 0.891571,0.0813 1.335937,0.0957 0.184441,0.0491 0.427247,0.14257 0.550781,0.14257 0.247975,0 0.524054,-0.0608 0.8125,-0.15039 3.271439,-0.15685 6.31869,-1.26986 8.072266,-3.38281 4.298612,-5.1795 3.57317,-15.60379 -1.335937,-19.19336 -2.182659,-1.59602 -4.436825,-2.48832 -6.63086,-2.82617 -0.64456,-0.18255 -1.262438,-0.29492 -1.804687,-0.29492 z M 684.6875,932.9668 v 0.0117 c 2.92997,-0.11566 5.87856,1.60534 6.64648,4.35937 0.0635,0.30123 0.14334,0.59322 0.16602,0.91406 v 0.002 c 3e-4,0.003 -2.3e-4,0.004 0,0.004 0.0408,0.68096 -0.0501,1.41452 -0.20312,2.16211 -0.58379,2.05013 -2.28654,3.33977 -5.05274,3.73242 -1.42715,0.20259 -2.73194,-0.0208 -3.8418,-0.51562 -2.29897,-1.45656 -3.25761,-4.47105 -2.07031,-7.875 0.43189,-1.23836 1.93565,-2.29059 3.66406,-2.7207 0.22942,-0.0302 0.45991,-0.0652 0.69141,-0.0742 z m -646.111328,4.64648 c 3.502651,0.2589 6.998229,2.6176 7.576172,6.70508 0.04857,0.34167 0.07515,0.68696 0.08789,1.0332 -0.14022,1.17725 -0.541521,2.37855 -1.263672,3.52344 -1.096294,1.73794 -2.202685,2.90667 -3.339843,3.61719 -1.002199,0.21656 -2.124938,0.3164 -3.396485,0.3164 -0.409784,0 -0.734046,-0.0159 -1.097656,-0.0234 -1.035884,-0.46455 -2.111619,-1.24444 -3.253906,-2.38672 -4.537249,-4.53733 -1.532316,-12.0059 4.6875,-12.78516 z m 494.355468,30.46875 c -1.26285,0 -2.4219,0.26676 -3.46875,0.73047 -3.88513,0.79608 -4.98823,2.48535 -5.54492,7.375 -10e-4,0.0151 -0.004,0.018 -0.004,0.0293 -0.31748,0.0189 -0.32118,0.51 -0.0918,1.32226 -0.16933,3.91378 0.98795,6.80738 3.48437,8.63282 5.58089,4.0808 7.15264,3.87849 12.67578,-1.64454 0.21317,-0.21316 0.36694,-0.38384 0.56446,-0.58593 l 0.0215,-0.0234 c 0.001,-0.002 0.003,-0.003 0.004,-0.004 4.88874,-5.0056 4.97242,-6.70533 1.05664,-12.06054 -1.44291,-1.97333 -3.55909,-3.10152 -6.31055,-3.41016 -0.75772,-0.22904 -1.55439,-0.36133 -2.38672,-0.36133 z m 0.17383,4.69922 h 0.002 c 3.28371,5.4e-4 4.62365,1.2733 4.11133,3.91406 -0.39636,2.04287 -1.32104,3.42329 -2.42383,4.20508 -0.55491,0.0627 -1.15866,0.10547 -1.86328,0.10547 -1.13767,0 -2.04357,-0.068 -2.78516,-0.2207 -0.94269,-0.77719 -1.64606,-2.06407 -1.8457,-3.83985 0.0639,-0.85039 0.23296,-1.68295 0.4961,-2.46093 0.81254,-1.0061 2.43286,-1.70264 4.30859,-1.70313 z m 79.06641,25.84766 c -3.83059,0 -7.03712,1.75289 -9.33008,4.36909 -2.52518,1.7627 -3.86263,4.7125 -4.05274,8.7657 -0.0302,0.1882 -0.0644,0.3791 -0.0644,0.5547 0,0.049 0.0195,0.1134 0.0195,0.166 -9.8e-4,0.085 -0.0195,0.1556 -0.0195,0.2422 0,3.3601 1.27137,7.3769 2.82227,8.9277 0.85905,0.859 1.90115,1.4833 3.05273,1.9219 2.76249,1.8121 6.03986,3.25 7.57227,3.25 3.2112,0 7.9009,-4.2737 10.49218,-8.6426 1.17816,-1.5114 1.90821,-3.2142 1.90821,-5.0469 0,-0.072 -0.0176,-0.1453 -0.0176,-0.2168 0.002,-0.063 0.0176,-0.131 0.0176,-0.1933 0,-5.2541 -7.77901,-14.09769 -12.40039,-14.09769 z m -0.10938,5.17769 v 0 h 0.002 c 0.0183,4e-4 0.0356,0 0.0586,0 4.26338,0.6704 7.32974,4.5276 7.02734,8.9629 -0.15798,0.5893 -0.38178,1.1753 -0.74023,1.7442 -3.01633,4.7898 -7.84806,6.0512 -12.27539,3.1992 -4.07286,-2.6235 -2.69667,-9.6415 2.53711,-12.9375 1.09888,-0.6921 2.25742,-0.9863 3.39062,-0.9727 z m -390.47266,20.67 c -6.60572,0 -11.02243,5.2885 -12.16601,11.1386 -0.037,0.1973 -0.0754,0.3913 -0.10547,0.5899 -0.81112,5.1905 0.95147,10.6963 6.14844,13.2734 9.23026,4.5774 19.04687,-0.7959 19.04687,-10.4219 0,-0.7982 -0.0847,-1.5847 -0.21679,-2.3632 -0.0125,-0.118 -0.03,-0.243 -0.0547,-0.3594 -1.25555,-6.4417 -6.76674,-11.8574 -12.65235,-11.8574 z m 0,5.873 c 1.00077,0 1.83589,0.051 2.59766,0.1348 0.97219,0.4063 1.93082,1.0343 2.83203,1.9355 0.5961,0.5962 1.05914,1.1385 1.44531,1.6621 0.12227,0.8922 0.17383,1.957 0.17383,3.3184 0,1.0572 -0.0486,1.9156 -0.13281,2.6973 -0.0553,0.095 -0.0948,0.1829 -0.15625,0.2812 -1.18924,1.8885 -2.62496,3.1788 -4.13867,3.9277 -0.76835,0.087 -1.61197,0.1426 -2.6211,0.1426 -1.32191,0 -2.40434,-0.07 -3.32226,-0.2246 -0.86299,-0.4695 -1.69506,-1.0967 -2.44141,-1.9961 -3.82705,-4.6112 -1.51408,-9.7628 2.45899,-11.6015 0.94207,-0.1826 2.03199,-0.2747 3.30468,-0.2754 z m 125.67969,27.2012 c -3.24258,0.1534 -6.49818,1.6525 -9.36719,4.5215 -5.81765,5.8176 -5.98068,13.2123 -0.75195,18.8945 0.23735,0.3643 0.46823,0.7314 0.74805,1.0684 0.77588,0.9348 1.86753,1.6671 3.13867,2.2168 5.63802,4.0805 9.07989,4.3961 13.7168,0.7675 1.4817,-0.499 2.80235,-1.2476 3.82812,-2.2734 1.02481,-1.0248 1.7685,-2.3423 2.26758,-3.8223 3.85245,-4.9203 3.28405,-8.4674 -1.5293,-14.7539 -0.72363,-1.1836 -1.60035,-2.214 -2.64648,-2.9707 -2.85084,-2.5724 -6.1199,-3.8039 -9.4043,-3.6484 z m 0.6875,4.6094 v 0 h 0.002 c 2.00147,0.055 4.0754,0.8743 5.92383,2.7227 4.02858,4.0285 3.48002,12.8718 -0.90039,14.5527 -2.20442,0.8459 -4.05423,1.2638 -5.67187,1.3027 -1.58949,-0.1637 -3.15639,-0.6537 -4.54297,-1.4277 -0.94595,-0.7545 -1.78147,-1.7767 -2.51563,-3.1484 -3.10627,-5.8042 -0.10072,-11.5129 4.40625,-13.3692 0.7927,-0.2729 1.60999,-0.4774 2.44141,-0.5781 0.14487,-0.015 0.2893,-0.03 0.43555,-0.037 0.14078,-0.015 0.28018,-0.014 0.42187,-0.019 z m -158.39648,11.9628 v 0.01 c -3.0772,0.1043 -6.23715,1.6406 -9.94922,4.5606 -3.55236,2.7942 -5.61218,6.9465 -6.15039,11.2988 -0.63432,5.1496 0.86752,10.5785 4.6582,14.3691 3.0651,3.0651 6.92949,4.4991 10.85352,4.6035 0.31404,0.049 0.62209,0.098 0.89648,0.098 0.5033,0 1.02465,-0.075 1.55469,-0.1836 2.83502,-0.1992 5.55593,-1.1837 7.89453,-2.8086 0.0657,-0.041 0.12756,-0.092 0.19336,-0.1348 0.28883,-0.2071 0.58601,-0.3966 0.86133,-0.623 3.44456,-2.5188 6.15925,-6.2178 7.26172,-10.877 1.04378,-4.4115 0.34986,-7.0231 -3.47852,-11.2851 -1.27183,-2.234 -3.07399,-3.9814 -5.35156,-5.168 -3.30016,-2.6813 -6.23448,-3.9612 -9.24414,-3.8594 z m 1.46875,4.4473 c 10.17541,0.5604 14.13066,15.9991 5.36523,22.1387 -1.9075,1.336 -3.78458,2.4592 -5.08008,3.0976 -1.28019,0.1406 -2.56041,0.092 -3.80859,-0.1328 -3.59661,-1.7141 -7.93091,-6.5237 -9.08398,-10.2715 -0.13399,-0.77 -0.22143,-1.5715 -0.25586,-2.4082 0.40619,-5.1275 5.27767,-10.7774 10.14648,-12.1582 0.17208,-0.049 0.34158,-0.075 0.51367,-0.1132 0.69805,-0.1002 1.44983,-0.1259 2.20313,-0.1524 z m 363.79297,0.041 c -0.15516,0 -0.22804,0.063 -0.25586,0.1348 -7.59243,0.5856 -14.58594,6.6661 -14.58594,16.0527 0,0.1334 0.0197,0.2584 0.0234,0.3907 -0.004,0.099 -0.0234,0.2067 -0.0234,0.3027 0,0.2543 0.0388,0.5342 0.0879,0.8262 0.40365,3.9916 2.42735,7.338 6.27344,10.3632 15.10405,11.8809 33.67969,-6.6967 21.79882,-21.8007 -2.46014,-3.1276 -5.54686,-4.9711 -8.76562,-5.7539 -0.55612,-0.1527 -1.11651,-0.2644 -1.68359,-0.3184 -0.74185,-0.094 -1.48559,-0.1234 -2.22657,-0.1094 -0.21253,-0.023 -0.46765,-0.096 -0.64062,-0.088 z m 0.28515,4.4707 c 5.25294,0.079 10.72072,4.2598 10.7207,10.711 0,1.6227 -0.47767,3.483 -1.17382,5.08 -0.11074,0.1739 -0.18727,0.3505 -0.3086,0.5235 -1.98723,2.8371 -5.26138,4.4873 -8.56836,4.8105 -2.58924,-0.1803 -5.23161,-1.3644 -7.40234,-3.5351 -4.3299,-4.33 -4.56631,-6.7333 -1.26172,-12.9082 1.76701,-3.3015 4.84243,-4.7293 7.99414,-4.6817 z"
       style="fill:#000000;stroke-width:2.34975171" />
  </g>
</svg>
