<?xml version="1.0" encoding="UTF-8" standalone="no"?>
<svg
   xmlns:dc="http://purl.org/dc/elements/1.1/"
   xmlns:cc="http://creativecommons.org/ns#"
   xmlns:rdf="http://www.w3.org/1999/02/22-rdf-syntax-ns#"
   xmlns:svg="http://www.w3.org/2000/svg"
   xmlns="http://www.w3.org/2000/svg"
   id="svg8"
   version="1.1"
   viewBox="0 0 210 297"
   height="297mm"
   width="210mm">
  <title
     id="title905">Kawaii Unicorn Cloud</title>
  <defs
     id="defs2" />
  <metadata
     id="metadata5">
    <rdf:RDF>
      <cc:Work
         rdf:about="">
        <dc:format>image/svg+xml</dc:format>
        <dc:type
           rdf:resource="http://purl.org/dc/dcmitype/StillImage" />
        <dc:title>Kawaii Unicorn Cloud</dc:title>
        <dc:date>2020-04-11</dc:date>
        <dc:creator>
          <cc:Agent>
            <dc:title>Public domain</dc:title>
          </cc:Agent>
        </dc:creator>
        <dc:source>http://www.supercoloring.com/coloring-pages/kawaii-unicorn-cloud</dc:source>
        <dc:subject>
          <rdf:Bag>
            <rdf:li>csk</rdf:li>
            <rdf:li>cloud</rdf:li>
            <rdf:li>unicorn</rdf:li>
          </rdf:Bag>
        </dc:subject>
      </cc:Work>
    </rdf:RDF>
  </metadata>
  <g
     id="layer1">
    <path
       style="opacity:1;fill:#000000;stroke-width:0.49549252"
       d="m 100.05678,29.295858 c -1.909753,0.0309 -1.896793,2.40402 -2.224891,3.755044 -1.471652,7.380887 -2.674635,14.818012 -3.968767,22.226392 -1.040855,1.874637 -3.514415,2.133374 -5.196811,3.281636 -5.475187,2.819354 -9.880645,7.302383 -13.892239,11.890884 -3.307871,4.402688 -5.504002,9.551098 -7.129486,14.771872 -1.630517,-0.136709 -3.313623,-1.205367 -5.042024,-1.465191 -9.168521,-2.388039 -19.533394,-0.150568 -26.501097,6.384299 -6.923268,6.317213 -10.15951,16.263036 -8.742585,25.467176 0.730719,1.55081 0.162552,2.28075 -1.557492,2.19788 -9.29195,1.37584 -17.2156465,8.73377 -19.8884591,17.63978 -0.4202784,3.4787 -0.4719461,7.17857 0.7570499,10.50967 1.8946571,4.49293 6.8206792,6.36461 10.8785802,8.38564 6.856523,3.24731 14.349176,4.92587 21.899189,5.40668 14.944968,1.35726 29.919762,2.45106 44.905199,3.13863 13.073272,0.15169 26.149773,0.0315 39.210933,-0.59268 14.28121,-0.52241 28.51388,-2.00822 42.69394,-3.7304 7.84128,-1.13837 15.82267,-1.95773 23.37084,-4.48063 6.59635,-2.3023 12.82659,-7.36729 14.35898,-14.46237 0.82507,-4.96505 0.42383,-10.54059 -2.83408,-14.61549 -5.04897,-6.69093 -13.88997,-9.80083 -22.08926,-8.78724 -1.5874,0.34686 -0.34855,-2.25242 -0.63709,-3.14142 0.41253,-4.8267 -0.19329,-9.81431 -2.53076,-14.118553 -4.68758,-9.29618 -15.03174,-15.16087 -25.38247,-14.860282 -1.65984,0.142697 -3.21252,0.129405 -3.39287,-1.883738 -4.30871,-11.343805 -13.03129,-21.23617 -24.46703,-25.6824 -4.18538,-1.751936 -8.72609,-2.507732 -13.16747,-3.075093 -1.6106,-3.099889 -2.13015,-6.691256 -3.38242,-9.966432 -1.56337,-4.413513 -2.66391,-9.036584 -4.73997,-13.245258 -0.3028,-0.46071 -0.69834,-0.962732 -1.30744,-0.948406 z m 0.72291,9.503399 c 0.82518,1.861192 -0.043,4.377052 -1.399379,5.573313 0.20065,-2.133262 0.633319,-4.223694 1.095509,-6.321392 0.10132,0.249353 0.20258,0.498726 0.30387,0.748079 z m 2.43488,7.091739 c 0.41704,3.92033 -2.45744,7.384501 -5.44945,9.536284 0.09025,-2.06706 0.03037,-4.431266 1.340354,-6.14719 1.474456,-1.03811 2.722076,-2.349693 4.087806,-3.517807 z m 2.39037,8.162077 c 0.80251,2.506178 -0.87844,4.853117 -1.88913,7.055032 -1.70607,3.027395 -4.564009,5.2283 -7.630712,6.72004 -0.123039,-2.153899 0.55656,-4.395648 0.649932,-6.565072 -0.08684,-1.549551 1.310253,-2.291825 2.565182,-2.755306 2.473148,-1.290197 4.388288,-3.416566 5.919568,-5.709871 0.12847,0.418385 0.25677,0.836772 0.38516,1.255177 z m 5.56267,3.347482 c 12.12415,0.901755 23.22315,8.596961 29.17807,19.119031 2.87451,4.431454 4.38832,9.483964 5.41156,14.622842 0.16687,1.204667 1.8095,2.015801 2.57714,0.83905 0.91093,-1.211034 0.54435,-2.830331 0.50034,-4.218469 5.2765,-0.303189 10.72176,0.547555 15.21801,3.432641 5.64149,3.478017 9.89011,9.46115 10.77475,16.04734 -0.22563,3.71681 0.35149,7.57833 -0.95104,11.14087 -0.3881,1.16945 0.7191,2.26392 1.8881,1.93843 3.57858,-0.62746 7.26437,-0.62446 10.8776,-0.41807 7.06794,1.38797 13.71221,6.99582 14.34122,14.47185 0.55959,6.9544 -4.56001,13.32255 -10.86889,15.75898 -7.09759,2.86127 -14.81797,3.47783 -22.31368,4.62292 -17.1865,2.15593 -34.46359,3.75392 -51.77613,4.37502 -14.22978,0.26543 -28.480581,0.60914 -42.691012,-0.40035 -13.063415,-0.86862 -26.171538,-1.61181 -39.162422,-3.22712 -7.865025,-1.06786 -15.550605,-3.87633 -22.265663,-8.12761 -2.0652064,-1.88103 -2.5357107,-5.0403 -2.7639212,-7.70821 -0.055247,-5.61911 3.5390612,-10.66286 7.6873782,-14.18099 3.40915,-2.73015 7.82521,-4.30727 12.18844,-4.31092 0.871362,0.3099 1.986159,0.26375 2.441663,-0.63583 0.646315,-0.94881 -0.161242,-2.26948 -0.137832,-3.32904 -1.106184,-4.64269 -0.973388,-9.54832 0.58002,-14.07513 2.780626,-9.022373 11.282789,-15.93873 20.729391,-16.700614 5.512743,-0.610096 11.011902,0.949158 15.880918,3.457805 1.520069,0.81314 2.412854,-1.183022 2.541342,-2.393271 0.501048,-4.002578 2.203434,-7.808132 4.158879,-11.305563 4.185699,-7.007484 10.619266,-12.606228 18.016352,-15.977493 -0.515503,6.48018 -1.670713,12.937045 -1.698412,19.45292 0.276814,2.849244 3.12633,4.298305 5.257838,5.69526 1.890312,0.849693 4.062241,0.70447 6.088251,0.734024 2.8322,-0.05846 5.53361,-1.127747 7.74391,-2.887282 1.3293,-1.053541 2.78948,-2.258659 3.75103,-3.537152 -0.79718,-7.493589 -2.38738,-14.904645 -4.04136,-22.24201 0.2619,-0.108619 0.56348,-0.0339 0.83809,-0.0339 z m -3.55071,4.335551 c 2.39768,6.902237 -2.51807,15.307207 -9.821177,16.332263 -0.868793,0.01124 -2.517568,0.824 -2.816774,-0.348758 0.514519,-1.773417 0.159744,-3.673487 0.493565,-5.447521 1.230664,-1.498089 3.448771,-1.681428 4.886206,-2.976813 2.89743,-2.002508 5.45532,-4.539248 7.25818,-7.559171 z m 2.41068,11.973115 c 0.33004,2.008669 1.40307,4.730866 -0.65754,6.148165 -3.08916,2.495202 -7.6629,3.836578 -11.441373,2.116502 3.825933,-1.28209 7.875033,-2.835292 10.317283,-6.251728 0.55248,-0.750046 1.05955,-1.541855 1.7168,-2.207459 z M 69.068171,99.625807 c -2.374152,0.11274 -5.327125,1.576023 -5.430099,4.236843 0.199203,1.59179 2.550537,1.55293 3.382313,0.50613 1.622135,-1.1206 4.025406,-0.99149 5.301394,-2.58584 0.460464,-1.72632 -2.008508,-2.334563 -3.253608,-2.157133 z m 69.926379,0.0434 c -1.06806,0.0476 -3.12967,0.443813 -2.71554,1.916153 1.152,1.44471 3.16929,1.85834 4.7788,2.64779 1.23216,0.76027 4.04619,1.16229 3.82652,-1.05388 -0.63394,-2.38631 -3.60757,-3.656883 -5.88978,-3.510063 z m -7.01142,5.497833 c -4.42531,-0.0774 -8.17635,3.01178 -10.5534,6.48591 -3.30963,5.52306 -1.27129,13.31559 4.15557,16.70449 2.08634,1.44541 4.58188,2.22896 7.12849,2.00328 3.84263,-0.0923 7.78805,-1.74156 9.90986,-5.07204 2.32412,-3.14838 3.30918,-7.36025 1.95045,-11.1111 -1.60906,-5.38342 -6.99019,-9.18378 -12.59097,-9.01054 z m -56.019688,0.0513 c -6.477254,0.0272 -12.626298,5.62222 -12.520997,12.23248 -0.06934,6.34298 5.038666,12.7966 11.635497,12.89538 5.178335,0.40172 10.567283,-2.45562 12.602165,-7.33561 2.831608,-6.09 -0.180907,-14.04806 -6.332996,-16.73836 -1.684601,-0.75472 -3.540175,-1.10583 -5.383669,-1.05389 z m -0.671615,6.45206 c 1.406434,0.32529 3.286898,1.55627 2.541332,3.24101 -0.764022,2.05906 -3.617171,3.91472 -5.53172,2.15134 -1.60768,-1.40429 -0.320577,-3.8081 1.176798,-4.6888 0.50995,-0.42075 1.091259,-0.8642 1.81359,-0.70355 z m 55.901623,-0.015 c 1.62368,0.24647 3.34522,1.77976 2.48616,3.55456 -0.73288,1.52555 -2.56238,2.85194 -4.27459,2.58587 -1.60781,-0.52098 -2.47607,-2.5744 -1.35194,-3.98234 0.7675,-0.92563 1.82926,-2.20607 3.14037,-2.15809 z m -22.21974,6.34268 c -0.84351,-0.12041 -1.30174,0.53319 -1.48647,1.23195 -1.04969,1.99871 -4.02385,2.28698 -5.43881,0.51776 -0.76347,-1.09946 -2.714039,-1.80866 -3.498447,-0.39 -0.546533,1.78207 1.280755,3.22175 2.516157,4.18458 2.7358,2.08594 6.86055,1.02364 8.78434,-1.6752 0.73224,-0.89319 1.3956,-2.47222 0.63389,-3.49649 -0.43425,-0.30595 -0.99251,-0.37629 -1.51066,-0.3726 z m 27.21337,1.49229 c 1.45197,0.13202 -0.66246,2.16476 -0.68227,0.64743 -0.17622,-0.45778 0.29055,-0.70761 0.68227,-0.64743 z m -56.169681,0.0455 c 1.069339,-0.10262 1.011528,1.35614 0.02904,1.11002 -0.57549,-0.0403 -0.730088,-1.18203 -0.02904,-1.11002 z m 98.772371,38.92809 c -1.76417,0.25887 -1.60321,2.56662 -1.99865,3.85341 -1.10684,6.66385 -2.11874,13.45992 -1.41457,20.21759 -0.19185,1.01558 0.84506,1.57946 1.24834,2.4514 2.28993,2.55797 6.66361,1.22489 8.16981,-1.54746 2.29578,-3.99263 0.93928,-8.83831 -0.35764,-12.92764 -1.17498,-3.54485 -2.939,-6.91813 -3.56469,-10.61116 -0.32509,-0.82901 -1.16005,-1.51068 -2.0826,-1.43614 z m -149.027132,4.71202 c -1.665529,0.0887 -1.931588,2.01683 -2.202365,3.31292 -1.086388,5.80823 -2.020654,11.70341 -2.051929,17.62314 0.216263,2.23147 0.446589,4.75697 2.414582,6.12538 2.496252,1.22199 5.774163,0.52454 7.253093,-1.93918 2.099515,-3.02554 2.020111,-6.98581 0.819225,-10.33977 -1.110359,-4.26678 -3.42917,-8.05231 -4.374505,-12.36987 -0.29074,-1.02312 -0.68274,-2.17548 -1.858101,-2.41262 z m 104.158912,0.15394 c -1.51582,0.1324 -1.32065,2.18967 -1.72862,3.24438 -1.15336,6.67841 -2.05051,13.53337 -1.28857,20.307 0.3908,2.73315 1.40685,5.9307 4.24334,7.00752 1.32373,0.84621 2.82506,-0.2945 3.98233,-0.94841 2.69072,-2.28537 2.97234,-6.27161 2.52312,-9.55184 -1.02374,-6.44078 -4.32796,-12.24421 -5.85511,-18.51993 -0.3099,-0.78267 -0.97316,-1.53595 -1.87649,-1.53872 z m -77.939412,3.16842 c -1.435751,0.42556 -1.489797,2.36303 -1.938427,3.55265 -1.579252,6.8285 -2.927373,13.7685 -3.278771,20.78068 0.116483,2.82194 0.96996,6.02399 3.385217,7.72949 2.757251,1.38078 6.577078,0.77158 8.31984,-1.91906 2.75972,-3.74539 1.564901,-8.73576 0.34014,-12.82436 -1.648396,-5.12633 -3.895763,-10.0807 -4.895609,-15.36494 -0.288809,-0.92112 -0.878868,-1.87228 -1.93239,-1.95446 z m 123.636982,1.66068 c 1.92287,3.79546 3.37528,8.15753 2.65167,12.44248 -0.53358,0.96781 -1.53468,2.68905 -2.83166,2.04099 -1.1236,-1.03592 -0.53846,-2.86092 -0.76492,-4.22225 0.085,-3.39096 -0.0828,-6.87029 0.82685,-10.16348 0.021,0.1251 0.0682,-0.30454 0.11798,-0.0978 z m -78.19489,0.42968 c -1.545661,0.54665 -1.38833,2.6291 -1.785515,3.94073 -0.631447,4.5779 -1.688942,9.19542 -1.343258,13.83797 0.226618,3.43764 4.659673,5.76551 7.498193,3.64362 1.45264,-0.98483 2.13161,-2.87179 1.53597,-4.54562 -1.1698,-5.45154 -2.43931,-10.94043 -4.51377,-16.12571 -0.23601,-0.48918 -0.87078,-0.75648 -1.39162,-0.75099 z m -70.53996,5.49207 c 1.530132,3.52963 3.085094,7.54294 1.794224,11.38666 -0.3199,1.12311 -1.839469,2.6138 -2.89844,1.3955 -1.151821,-1.82636 -0.510355,-4.19509 -0.594422,-6.23828 0.141953,-2.76769 0.462582,-5.52295 0.913778,-8.26649 0.261639,0.57421 0.52324,1.14842 0.78486,1.72261 z m 103.81729,-0.77905 c 1.6498,3.40831 2.7674,7.10948 3.46361,10.82729 0.19394,2.09457 0.33364,5.04369 -1.81938,6.19075 -1.43626,0.20666 -1.51334,-1.85422 -1.72745,-2.81714 -0.47348,-4.67601 -0.77349,-9.50677 0.0415,-14.14475 l 0.0309,-0.0688 z m 19.661,2.17263 c -1.50601,-0.0843 -1.54279,1.64927 -1.84591,2.69673 -1.2422,7.05647 -1.71666,14.29256 -1.18221,21.44305 0.37499,2.29048 1.41356,4.81708 3.47635,6.05317 1.82652,1.0304 4.01276,-0.0428 5.35928,-1.35858 3.01641,-3.6347 2.13141,-8.78193 0.9697,-12.96314 -1.41533,-4.52619 -3.43868,-8.84318 -4.67798,-13.43238 -0.40973,-0.93 -0.74971,-2.62675 -2.09923,-2.43885 z m -97.513313,2.35166 c 1.660676,4.67834 4.076737,9.41938 3.685228,14.49315 0.0076,2.27042 -2.749163,4.44284 -4.772031,2.88392 -1.605485,-1.55209 -1.149458,-4.1001 -1.243568,-6.12979 0.140834,-4.25606 0.97577,-8.46971 1.717778,-12.67666 0.204188,0.47646 0.408386,0.95292 0.612593,1.42938 z m 45.419823,1.44776 c 0.69113,2.51874 1.56833,5.11748 1.59197,7.72948 -0.9091,0.96214 -2.1012,-0.53408 -1.90552,-1.53679 -0.18521,-2.04646 -0.13203,-4.17773 0.31355,-6.19269 z m -21.022625,0.18485 c -1.632693,0.26227 -1.508405,2.20577 -1.9431,3.43798 -1.021291,4.86261 -2.332859,9.7456 -2.414717,14.73846 -0.148317,2.90638 2.708039,4.86957 5.3372,5.09137 3.673298,0.24237 6.627822,-3.37608 6.902054,-6.80915 0.104686,-5.3723 -3.797331,-9.61883 -5.784279,-14.31598 -0.393798,-0.87757 -0.936471,-2.18539 -2.097158,-2.14268 z m 73.881615,6.37753 c 2.26735,4.11352 3.56282,8.93031 3.3765,13.60185 0.0324,1.20071 -0.81503,3.25249 -2.29939,2.6323 -1.74066,-1.64201 -1.21875,-4.38516 -1.49913,-6.53374 -0.0306,-3.24809 -0.26462,-6.56127 0.37362,-9.74977 z m -72.915789,1.56872 c 1.415421,1.75769 2.507059,3.97208 3.064887,6.20915 0.561101,2.11002 -0.06499,4.8683 -2.412618,5.53946 -1.504214,0.45649 -2.640399,-1.22103 -2.347777,-2.60232 0.196166,-3.06945 0.626651,-6.2111 1.652919,-9.11337 0.0095,-0.008 0.02602,-0.0302 0.04248,-0.0329 z m 31.225709,1.96553 c -1.72357,0.39901 -1.50169,2.69157 -1.99514,4.0041 -0.90452,4.64331 -2.00937,9.30418 -2.21268,14.04169 0.0682,2.25791 1.95745,4.11335 3.88748,5.0188 3.72398,1.2306 7.47132,-2.08624 8.1824,-5.61397 0.90723,-4.87244 -2.37855,-9.07432 -4.54458,-13.09377 -1.01779,-1.40569 -1.24829,-3.71761 -3.08135,-4.34426 -0.0781,-0.0131 -0.15693,-0.0191 -0.23613,-0.0131 z m 0.9513,7.58722 c 1.77027,2.84106 4.27917,6.05643 3.36585,9.62051 -0.44338,1.9193 -3.25019,3.59134 -4.71975,1.79807 -0.80041,-2.90632 0.33469,-5.9295 0.77657,-8.8079 0.20538,-0.86406 0.32204,-1.76804 0.57733,-2.61068 z m -68.25217,5.19783 c -1.625919,0.45154 -1.254929,2.6336 -1.694666,3.89703 -1.047155,6.67377 -2.114984,13.38122 -2.396043,20.13726 0.202067,3.47466 2.759966,6.92765 6.383343,7.23304 3.14264,0.43761 6.178909,-2.46881 5.775585,-5.64687 -0.521521,-5.97733 -2.621385,-11.68053 -4.127434,-17.45484 -0.894677,-2.59482 -1.31011,-5.46381 -2.822054,-7.79109 -0.28862,-0.26838 -0.746435,-0.31274 -1.118731,-0.37453 z m 129.07387,4.50493 c -1.79959,0.44312 -1.42067,2.78003 -1.90791,4.15475 -0.77676,4.4218 -1.85506,8.83527 -2.12958,13.32008 0.0818,3.13183 2.89374,6.00696 6.10989,5.60322 4.44214,-0.47203 7.32772,-5.71471 5.87193,-9.82654 -1.394,-4.11004 -3.77156,-7.79785 -5.6759,-11.67891 -0.46415,-0.84922 -1.2318,-1.65024 -2.26843,-1.5726 z m -32.21571,3.00778 c -1.67031,0.78713 -1.36407,3.10682 -1.82036,4.58235 -1.01933,6.31262 -2.11173,12.66469 -2.21908,19.07065 0.0497,2.98228 1.36897,6.36596 4.4459,7.35304 3.109,1.34601 7.39507,-0.69564 7.56883,-4.27364 0.0912,-4.51752 -1.59212,-8.8435 -2.63476,-13.18297 -1.33909,-4.25823 -2.13745,-8.76241 -4.17825,-12.75973 -0.26459,-0.36698 -0.68194,-0.78854 -1.16228,-0.7897 z m -95.924271,3.34556 c 1.503599,4.68584 2.797637,9.46083 3.669742,14.3054 0.07719,1.2023 -0.449954,2.8941 -1.983892,2.5578 -2.320041,-0.41605 -3.563163,-3.01014 -3.086201,-5.17849 0.297617,-3.8969 0.619954,-7.90655 1.400351,-11.68471 z m 44.85661,1.19131 c -1.630545,0.30429 -1.460376,2.425 -1.957082,3.62263 -1.057249,4.83787 -2.170863,9.72412 -2.386223,14.68444 0.418045,3.64441 4.748976,6.05223 8.072068,4.46621 3.892576,-1.63035 4.975038,-6.67659 3.564251,-10.34243 -1.562526,-3.83048 -3.690733,-7.4188 -5.720866,-11.01692 -0.396845,-0.54025 -0.79315,-1.4081 -1.572148,-1.41393 z m 84.707921,0.17716 c 1.68998,2.42294 3.05544,5.25819 3.37458,8.22208 -0.15001,1.71029 -1.58487,3.0436 -2.98554,3.80331 -1.89215,-0.13109 -2.78484,-2.42266 -2.26565,-4.07899 0.41397,-2.70688 0.85583,-5.43011 1.81176,-8.00735 z m -32.69863,6.64464 c 1.57653,4.62764 2.72813,9.42647 3.35522,14.2638 0.0451,0.9359 -0.23022,2.17774 -1.43036,1.99455 -1.85782,0.40678 -3.23999,-1.3104 -3.28415,-3.02902 -0.45584,-4.52186 0.51843,-9.02784 1.26928,-13.46256 l 0.0891,0.23114 z m -51.06089,0.80905 c 1.568827,2.46257 2.844824,5.2475 3.460709,8.1369 0.03481,2.05094 -1.79641,4.57362 -4.06459,3.72104 -1.994307,-0.82466 -1.248335,-3.38632 -0.940671,-4.98783 0.460284,-2.30478 0.877563,-4.62104 1.544552,-6.87011 z m 24.98849,11.63148 c -1.53501,0.43047 -1.48179,2.51139 -1.86402,3.75649 -1.14655,7.0261 -1.85965,14.25489 -0.87338,21.34211 0.3599,2.59187 2.23806,5.53659 5.11616,5.53966 2.96829,0.0708 4.91293,-2.78516 5.25203,-5.4688 0.9346,-5.59454 -1.49268,-11.01624 -3.24001,-16.20077 -1.03526,-2.59667 -1.83954,-5.27446 -2.72043,-7.91576 -0.3168,-0.66993 -1.05201,-1.04144 -1.67035,-1.05293 z m -43.081715,1.5968 c -1.721921,0.37193 -1.637735,2.6287 -2.153523,3.93934 -1.500004,6.75141 -2.864283,13.61041 -3.006857,20.54493 -0.113674,2.67165 0.575339,5.55438 2.847425,7.20888 2.287431,1.44301 5.580506,1.19521 7.703378,-0.45775 2.898945,-2.65188 3.330253,-7.01086 2.239032,-10.60933 -1.671034,-6.49214 -4.682443,-12.58557 -6.023071,-19.16808 -0.250288,-0.68741 -0.761449,-1.53111 -1.606384,-1.45799 z m 43.961415,8.4311 c 1.91816,4.63444 3.7912,9.64486 3.1907,14.72059 -0.11256,1.12898 -1.3332,3.15155 -2.54714,2.02068 -1.17978,-1.89616 -0.78499,-4.34409 -1.06901,-6.47183 -0.078,-3.4088 -0.33518,-7.06413 0.42545,-10.26944 z m -43.753339,1.87455 c 1.852897,3.75558 3.249521,7.81397 4.106196,11.90442 0.579482,2.49069 0.254639,5.88059 -2.427148,7.0453 -2.201448,0.8184 -3.37677,-1.91038 -3.473292,-3.66685 -0.23868,-5.18949 0.633377,-10.36327 1.682945,-15.44157 z"
       id="path890" />
  </g>
</svg>
