<?xml version="1.0" encoding="UTF-8" standalone="no"?>
<svg
   xmlns:dc="http://purl.org/dc/elements/1.1/"
   xmlns:cc="http://creativecommons.org/ns#"
   xmlns:rdf="http://www.w3.org/1999/02/22-rdf-syntax-ns#"
   xmlns:svg="http://www.w3.org/2000/svg"
   xmlns="http://www.w3.org/2000/svg"
   xmlns:sodipodi="http://sodipodi.sourceforge.net/DTD/sodipodi-0.dtd"
   xmlns:inkscape="http://www.inkscape.org/namespaces/inkscape"
   width="210mm"
   height="297mm"
   viewBox="0 0 595.27559 841.88976"
   version="1.1"
   id="svg456"
   sodipodi:docname="poppies_coloring_page.svg"
   inkscape:version="0.92.4 (5da689c313, 2019-01-14)"
   inkscape:export-filename="D:\repo\acb-website\src\images\flowers_coloring_page.png"
   inkscape:export-xdpi="96"
   inkscape:export-ydpi="96">
  <title
     id="title1269">Poppies</title>
  <metadata
     id="metadata462">
    <rdf:RDF>
      <cc:Work
         rdf:about="">
        <dc:format>image/svg+xml</dc:format>
        <dc:type
           rdf:resource="http://purl.org/dc/dcmitype/StillImage" />
        <dc:title>Poppies</dc:title>
        <cc:license
           rdf:resource="http://creativecommons.org/licenses/by-sa/4.0/" />
        <dc:date>2020-05-15</dc:date>
        <dc:creator>
          <cc:Agent>
            <dc:title>Public domain</dc:title>
          </cc:Agent>
        </dc:creator>
        <dc:source>http://www.supercoloring.com/coloring-pages/flowers-1</dc:source>
        <dc:subject>
          <rdf:Bag>
            <rdf:li>poppies</rdf:li>
            <rdf:li>acb</rdf:li>
            <rdf:li>flowers</rdf:li>
            <rdf:li>tattoo</rdf:li>
          </rdf:Bag>
        </dc:subject>
      </cc:Work>
      <cc:License
         rdf:about="http://creativecommons.org/licenses/by-sa/4.0/">
        <cc:permits
           rdf:resource="http://creativecommons.org/ns#Reproduction" />
        <cc:permits
           rdf:resource="http://creativecommons.org/ns#Distribution" />
        <cc:requires
           rdf:resource="http://creativecommons.org/ns#Notice" />
        <cc:requires
           rdf:resource="http://creativecommons.org/ns#Attribution" />
        <cc:permits
           rdf:resource="http://creativecommons.org/ns#DerivativeWorks" />
        <cc:requires
           rdf:resource="http://creativecommons.org/ns#ShareAlike" />
      </cc:License>
    </rdf:RDF>
  </metadata>
  <defs
     id="defs460" />
  <sodipodi:namedview
     pagecolor="#ffffff"
     bordercolor="#666666"
     borderopacity="1"
     objecttolerance="10"
     gridtolerance="10"
     guidetolerance="10"
     inkscape:pageopacity="0"
     inkscape:pageshadow="2"
     inkscape:window-width="3840"
     inkscape:window-height="2004"
     id="namedview458"
     showgrid="false"
     inkscape:zoom="1.3350176"
     inkscape:cx="437.99876"
     inkscape:cy="666.49488"
     inkscape:window-x="-16"
     inkscape:window-y="-16"
     inkscape:window-maximized="1"
     inkscape:current-layer="svg456"
     units="mm" />
  <path
     style="opacity:1;fill:#212121;stroke-width:1.12076271"
     inkscape:connector-curvature="0"
     id="path435"
     d="m 156.98375,0.65887112 h 3.0821 C 159.35977,13.749379 157.89157,26.795057 157.82432,39.907981 c 3.00365,2.073411 6.50042,4.819279 6.0185,8.943686 -0.056,4.539089 -4.39339,6.825445 -7.935,8.55142 C 146.7736,128.59393 128.34826,198.339 120.88398,269.7652 c 5.8728,-2.90277 4.96498,-10.24377 8.20399,-15.10788 8.84281,-14.61474 26.33792,-22.97563 43.27264,-21.69796 0.16812,-9.21267 1.71477,-19.42282 8.86524,-25.96808 2.90277,-3.05968 8.14794,-4.2701 8.71953,-9.04455 2.00617,-8.46176 6.37714,-16.25106 12.56375,-22.35922 4.75203,-3.91146 3.86663,-10.61362 4.94256,-16.07173 -6.50042,-5.15551 -5.27879,-15.24238 2.29757,-18.63829 0.67245,-4.20286 1.14318,-8.42813 1.49061,-12.67582 -7.07201,-4.1132 -5.76072,-14.65958 2.11824,-16.87869 3.44074,-27.918199 5.59261,-55.982097 6.74699,-84.079618 -7.25133,-3.945084 -6.52283,-14.278516 1.22164,-17.158877 0.17932,-3.1381351 0.32502,-6.2874783 0.45951,-9.42561388 h 3.16055 c -0.19053,3.05968218 -0.39227,6.11936438 -0.61642,9.17904648 3.60886,2.0622034 7.87896,5.0210174 7.11684,9.8066734 -0.11207,4.58392 -4.55029,6.724576 -8.18156,8.237606 -1.55786,27.895784 -3.55282,55.78036 -6.66854,83.552863 3.18296,2.03978 6.97114,4.79686 6.28748,9.14542 0.11207,4.92015 -4.68479,7.18409 -8.60746,8.59625 -0.41468,3.73214 -0.8742,7.46428 -1.38975,11.18521 5.62623,1.22163 11.07314,6.14178 9.48166,12.39564 -1.05352,5.7383 -6.95994,8.05828 -12.20511,8.05828 -0.30261,2.9364 -0.63884,5.88401 -0.98627,8.8204 6.7582,-4.09078 13.93108,-7.62118 21.68676,-9.35837 8.10311,-1.14317 11.63351,-9.7058 18.6719,-13.03447 1.05352,-7.84533 2.58896,-15.62343 4.67358,-23.25582 -2.68983,-3.41833 -5.77192,-7.7893 -3.68731,-12.29477 1.3113,-4.59513 6.10816,-6.28748 10.37827,-6.82544 13.03447,-29.5321 27.40264,-58.67193 36.71618,-89.661019 0.24657,-5.155508 0.25778,-10.5127542 4.06837,-14.54749988 h 10.36706 c 3.68731,2.74586858 6.65733,7.48669488 4.65116,12.14906788 -1.54665,4.897733 -6.82544,6.545254 -11.42057,6.959936 -2.80191,9.885127 -5.68227,19.770254 -9.62735,29.274322 -11.36454,30.350254 -22.0454,61.227263 -27.11125,93.337113 5.23396,-0.0224 10.47913,0.16812 15.66826,0.81816 0.68367,-5.39087 2.02858,-11.38695 6.9039,-14.55871 5.03222,-4.06836 12.57496,-3.94508 16.99076,-8.66349 5.25638,-17.17009 11.10676,-34.228095 18.43655,-50.647268 -3.46316,-6.052119 -0.51555,-12.967225 5.63743,-15.67947 -5.55898,-4.841695 -4.81928,-13.381907 1.62511,-17.035593 1.01989,-11.958538 1.53545,-23.961907 1.26646,-35.95406788 h 3.12693 C 338.96199,13.166583 336.40665,25.707917 337.7964,38.148383 341.81993,26.111392 342.04409,13.17779 343.64678,0.65887112 h 3.13813 C 345.48483,13.054507 344.17354,25.46135 341.73027,37.688871 c 6.78062,5.267584 3.78818,16.060529 -4.81928,16.934724 3.46316,2.633792 6.9039,6.859068 4.87532,11.442987 -1.13197,4.270106 -5.7271,5.413284 -9.49286,6.18661 -2.16307,11.846462 -3.8218,23.771377 -6.22023,35.584218 9.44803,-2.30877 20.15131,-2.60017 28.42254,3.28383 4.68479,-6.67974 11.66714,-11.633514 19.89354,-12.664616 4.8529,-9.156631 11.47661,-18.201186 21.47381,-22.067817 9.04456,-3.720932 19.01934,-2.297564 28.53462,-2.891568 6.42197,-0.302606 11.89129,-4.146822 18.06669,-5.514152 11.51024,-2.689831 23.6481,-0.02242 33.82462,5.693474 6.36593,-24.70161 13.11293,-49.44805 22.97564,-73.01768988 h 3.05968 C 492.55131,25.001837 485.08703,50.218998 478.95646,75.705142 c 2.08462,1.479406 4.16923,2.958813 6.26506,4.460635 7.02718,-22.392839 15.01822,-44.505487 23.97312,-66.158622 -2.26395,-4.1244069 -4.92015,-8.6298729 -2.4881,-13.34828388 h 6.10816 c -1.83805,1.59148308 -3.63127,3.81059318 -2.76829,6.41076268 0.81816,4.1019912 7.20651,4.1244072 8.56263,0.3138135 1.54665,-2.7234533 -1.06472,-5.1218855 -2.98123,-6.72457618 h 6.51163 c 3.35108,7.06080498 -2.33118,14.41300788 -9.81788,14.26730888 -9.60493,21.877288 -17.42786,44.471864 -24.41021,67.3018 1.64752,1.412161 3.28384,2.83553 4.90894,4.270106 -1.10955,-7.923792 8.41693,-14.659576 14.85011,-8.966101 6.55646,5.57019 1.15438,16.15019 -7.02718,15.746716 4.37097,4.214067 7.73326,9.291119 10.92743,14.424219 9.04456,-36.346338 21.81004,-71.61674 33.82462,-107.04404888 h 3.11572 C 536.26105,37.588002 522.75586,74.180904 513.49836,112.02906 c 9.70581,2.97002 14.74924,12.55254 16.20623,22.00057 1.96134,11.29729 8.12553,21.83246 7.29617,33.57805 -0.34744,9.42562 -4.75204,18.27964 -11.31971,24.92577 4.15803,0.32502 8.30486,0.79574 12.42926,1.43457 8.43935,-55.28722 19.61335,-110.103726 29.2407,-165.178005 0.95265,0.358644 1.95013,0.594004 2.98123,0.70608 -9.82909,55.085487 -20.75652,109.980445 -29.27432,165.301295 7.27375,2.77949 13.9647,7.02718 19.42282,12.61978 6.38834,7.60998 17.84254,8.5178 23.54722,16.96835 2.03979,2.57776 0.76212,5.83917 -0.17932,8.56263 2.72345,1.18801 6.73578,2.645 6.24265,6.37714 -1.97255,8.46176 -9.43682,13.98712 -16.44159,18.31326 -12.3396,8.05828 -27.05521,10.66966 -40.90784,14.95098 -3.97871,65.22838 -2.00617,131.02836 9.1118,195.50584 12.85515,70.40631 37.54555,138.73922 41.84928,210.59131 1.42337,35.98769 -2.71225,71.84089 -5.09947,107.69409 -0.56038,7.41945 -0.13449,14.93977 -1.80443,22.24714 -1.42337,-2.4993 -2.17428,-5.23396 -1.95013,-8.10312 1.56907,-43.96752 8.76437,-87.879 5.14431,-131.93618 -5.14431,-57.55116 -22.40405,-112.95047 -34.75486,-169.15671 -17.14767,-73.82464 -19.703,-150.23824 -15.81396,-225.67678 -8.49538,4.48305 -15.83637,10.94985 -24.81368,14.52508 -3.46316,1.36733 -6.6125,3.39591 -9.29113,5.97367 5.09947,3.56402 11.35333,5.25638 16.02691,9.42561 4.5503,3.93388 1.60269,11.7568 -3.62006,13.49399 -4.102,1.92771 -10.65846,2.6562 -10.62483,8.50658 -0.28019,5.55899 -3.6649,10.18774 -4.85291,15.44411 1.04231,6.29869 3.02606,14.06558 -3.72093,18.01066 0.13449,26.87589 5.54778,53.34831 10.59121,79.6414 7.03839,-3.11572 17.36061,-8.12553 23.0765,-0.19053 7.38583,-2.82432 10.44551,5.69347 10.63604,11.49902 0.594,20.14011 -10.29981,38.43096 -11.29729,58.36933 -0.41468,6.41076 -2.84673,12.48529 -3.11572,18.90726 5.48053,-1.09835 10.62483,-4.43822 16.36314,-3.84421 4.58392,1.3337 5.42449,7.03839 4.35976,11.07313 -1.90529,6.34352 3.17176,12.18269 1.71477,18.55983 -1.79322,8.5178 -6.39955,16.76661 -13.62847,21.83246 4.83048,22.69544 10.13169,45.29002 14.80527,68.03029 4.71841,0.56039 9.82909,2.99244 10.64725,8.19278 1.3225,5.06585 -2.83553,9.01093 -6.51163,11.72318 11.99216,58.42536 19.31074,119.3164 6.82544,178.30214 h -3.12693 c 12.631,-58.49261 5.46933,-119.12587 -6.7582,-177.02447 -2.48809,-3.00365 -7.90137,-3.57524 -8.8204,-8.0807 -1.90529,-4.8529 1.27767,-9.33595 4.696,-12.47409 -4.56151,-22.65061 -9.72822,-45.17794 -14.72682,-67.7389 -5.05464,0.73971 -10.35585,-0.84057 -15.25358,0.36985 -8.39452,6.43318 -9.59373,18.22361 -17.13647,25.40769 -8.45055,8.09191 -21.4626,12.57496 -32.71506,7.91259 -4.19165,3.04847 -9.02214,4.98739 -13.46036,7.58756 -0.57159,4.46064 -0.30261,8.97731 -0.39227,13.47157 9.52649,3.11572 9.41441,16.97955 -0.24656,19.8375 0.11207,18.04428 1.30008,36.06614 1.37853,54.12163 8.29365,4.10199 7.73327,15.88121 -0.66125,19.51248 -1.90529,30.45112 -6.25385,60.6893 -8.94368,91.07318 -0.75091,-0.12329 -2.24153,-0.36986 -2.98123,-0.49314 2.89157,-30.10369 6.71337,-60.11771 8.84282,-90.28864 -4.71841,-1.58028 -9.6946,-5.15551 -9.14543,-10.74812 0.0785,-5.41328 5.1443,-8.29364 9.72822,-9.59373 0.15691,-17.83133 -1.18801,-35.62904 -1.3337,-53.46038 -4.13562,-1.7708 -8.59625,-4.97618 -8.40572,-10.00841 -0.23536,-5.12188 4.2701,-8.43934 8.61866,-9.94116 0.13449,-4.37098 0.25778,-8.74195 0.36985,-13.10172 -11.80163,-2.73466 -24.33176,2.63379 -35.46093,-3.30625 0.39227,20.07286 4.39339,39.8207 8.99972,59.28835 10.36706,44.29254 14.50267,89.93 13.94229,135.35451 -0.60521,0.056 -1.82684,0.19053 -2.43205,0.25778 -0.80695,-31.89691 -1.80443,-63.9171 -6.9039,-95.48899 -4.38218,-33.86945 -16.63212,-66.58451 -16.65453,-101.01434 -4.23649,0.84057 -8.55142,1.27767 -12.86636,1.38975 -5.05464,7.29616 -14.55871,9.97478 -22.94201,7.62118 -7.15047,-2.44326 -11.63352,5.11068 -17.75288,7.21771 5.49173,5.24517 9.20146,11.95854 13.85262,17.921 4.86411,6.43318 6.07454,14.97339 3.79939,22.65061 6.65733,-1.61389 13.69572,-1.12076 19.91595,1.83806 6.69096,3.21658 16.62091,1.05351 20.26339,9.10059 6.14178,2.84674 3.97871,10.06445 0.90782,14.50267 -7.55394,10.99468 -19.33316,18.25722 -26.83106,29.28553 -2.63379,3.6761 -5.94004,6.78061 -8.93248,10.1429 3.59765,0.78453 7.39704,0.91903 10.81536,2.39843 3.14935,1.89409 2.72346,6.39956 0.45951,8.84282 -3.76576,4.2589 -3.41832,10.77053 -7.83413,14.58112 -3.70972,3.33988 -8.21519,6.0185 -13.13534,7.0496 -5.43569,0.98627 -9.8515,-2.91398 -14.62595,-4.696 -3.63127,0 -6.71337,2.37602 -9.8515,3.92267 3.18296,12.54134 6.6125,25.04905 8.37209,37.89299 8.73075,2.25273 9.2575,14.16644 1.12077,17.60718 -0.0673,6.43318 -0.1457,12.86636 -0.24657,19.29954 h -5.78314 c 0.19053,-6.57888 0.36986,-13.14655 0.26899,-19.72543 -5.63744,-3.81059 -6.04091,-11.36453 -1.24405,-16.03811 -1.70356,-11.9025 -4.51667,-23.60326 -7.52032,-35.23678 -1.71476,0.63883 -3.41832,1.30008 -5.12188,1.96133 5.40207,22.617 8.02466,45.78316 8.02466,69.03899 h -3.16055 c 0.13449,-22.86356 -2.31998,-45.77195 -7.85655,-67.96305 -0.68366,23.21099 -4.74083,46.46682 -13.72934,67.96305 h -3.02606 c 8.45055,-21.54106 13.53881,-44.50549 13.225,-67.71649 -6.53405,-0.34743 -13.225,-2.07341 -17.82013,-7.01597 -1.86046,-0.13449 -3.73214,-0.25778 -5.5814,-0.38106 3.63127,3.39591 4.21407,8.28244 3.21659,12.95602 8.43935,4.1132 7.71085,16.37434 -1.21042,19.38919 0.53796,13.41553 3.72093,26.52845 6.27627,39.66379 -0.77333,0.0448 -2.31998,0.11208 -3.09331,0.15691 -2.74586,-13.05689 -5.22275,-26.21464 -6.30989,-39.51809 -7.30737,-1.92771 -10.84898,-10.08687 -6.72458,-16.57608 -6.37714,-3.9563 -6.23144,-12.97843 0.35865,-16.63212 -7.91259,-4.86411 -17.7753,-7.09443 -23.60326,-14.78286 -3.23901,-3.07089 -8.21519,-3.28384 -11.52144,-6.3099 -3.39592,-2.63379 -4.38219,-7.62118 -8.54022,-9.31353 -4.35976,-2.11824 -8.97731,-4.30373 -11.9137,-8.32727 -3.18297,-4.19165 -2.58897,-10.08686 -6.04092,-14.12161 -3.55281,-4.83049 -7.92379,-9.79547 -8.17036,-16.09415 0.16812,-6.08574 -1.71476,-13.59485 4.1132,-17.76409 6.39956,-4.68479 7.97983,-13.63968 15.14151,-17.42786 4.01233,-2.4993 8.78678,-2.99244 13.40432,-3.14934 1.83805,-4.18045 4.84169,-7.66602 8.47297,-10.40068 0.77332,-5.5814 2.74586,-10.94985 6.11936,-15.47774 -6.47801,-5.54777 -3.20538,-16.29589 -11.15159,-20.55478 -7.87896,-8.28244 -21.20483,-7.341 -28.56824,-16.22865 -3.42953,-3.94508 -1.7708,-9.4032 -0.90782,-13.97591 1.53545,-6.23144 -2.44326,-12.70945 0.45952,-18.73915 2.6562,-7.6436 12.60858,-9.79547 14.30093,-17.96583 2.38722,-8.75315 0.99748,-17.80892 -0.84057,-26.51724 -0.78454,-6.35473 1.95012,-12.66462 0.23536,-19.01935 -3.75456,-27.30177 -9.06698,-54.53631 -9.2575,-82.18552 -14.28973,1.05351 -23.97312,-11.51024 -27.22333,-24.04036 -12.53013,0.91902 -25.31803,-4.21407 -31.38136,-15.67947 -13.55002,77.11968 -12.66461,156.92919 4.24769,233.45487 5.17793,0.51555 10.84899,3.70972 11.12918,9.48165 0.75091,4.7072 -3.20538,7.91258 -6.43318,10.55758 7.44186,29.5321 15.52256,58.90729 22.76269,88.50663 0.20174,5.67106 8.04708,4.53909 9.51528,9.52649 2.30877,4.49426 -1.03111,8.85402 -4.44943,11.54385 2.07341,10.81536 4.77445,21.51865 6.52284,32.41246 0.72849,1.96133 -0.94144,3.47436 -1.27767,5.33483 -4.13562,-11.99216 -5.12189,-24.8361 -8.24882,-37.11966 -8.93247,-0.85178 -11.55506,-12.24994 -3.98991,-16.97956 -7.40824,-31.07874 -16.18381,-61.79885 -23.79379,-92.81035 -10.51276,-0.38106 -13.42674,-14.51388 -4.61755,-19.63577 -16.95714,-76.59292 -17.9322,-156.49209 -4.50546,-233.70143 0.1457,-1.52424 0.3026,-3.09331 -0.0448,-4.58392 -10.47913,-8.65229 -25.06026,-11.58869 -33.80221,-22.4825 -6.08574,-7.1953 -6.83665,-16.84507 -7.8005,-25.78875 -0.84058,-7.89017 -7.46428,-12.94481 -12.59738,-18.2124 -5.48053,69.6554 -3.68731,139.7479 3.36229,209.21278 5.29,53.99834 19.22108,106.57332 30.84339,159.41728 13.65089,54.0768 13.52761,110.24943 11.42057,165.61511 h -2.98123 c 1.30009,-46.08577 2.31998,-92.58621 -5.83917,-138.16763 -12.46288,-63.17739 -30.98909,-125.3461 -36.69377,-189.70029 -6.81424,-66.02413 -8.42814,-132.63106 -3.74335,-198.85693 0.15691,-4.79686 1.70356,-10.08686 -1.4682,-14.27852 -5.99608,-9.36957 -3.81059,-22.51612 5.2788,-29.095 7.62118,-71.96417 25.81116,-142.26961 35.37127,-213.953596 -8.30486,-3.889046 -7.25134,-15.690678 1.69235,-17.920995 0.49313,-12.877564 1.63631,-25.721504 2.30877,-38.59906788 M 304.82356,4.5703329 c -6.25386,2.9476059 -1.71477,13.1577541 4.78565,10.2325631 6.83666,-2.588961 2.01738,-13.95349522 -4.78565,-10.2325631 M 218.35671,18.478998 c 1.10956,2.151864 2.24153,5.177924 5.29,4.43822 4.63996,0.145699 4.99861,-7.55394 0.50435,-8.203983 -2.7907,-0.885402 -4.28132,2.028581 -5.79435,3.765763 m 45.67108,87.251372 c 3.42954,2.84674 6.62371,7.21772 4.94257,11.9025 -1.3225,5.29 -6.89269,7.7781 -11.98096,7.13926 -1.84925,6.84786 -3.08209,13.84142 -4.13561,20.84619 4.15803,-1.3225 8.39451,-2.31998 12.67583,-3.12693 5.53656,-37.98265 19.79267,-73.880676 32.78231,-109.767498 1.13197,-5.458114 5.09947,-11.185212 2.70103,-16.732987 -10.36705,30.686483 -23.84983,60.162542 -36.98517,89.739465 m 68.31049,-61.294508 c -0.99748,3.26142 2.0622,5.256377 4.58392,6.410763 2.31998,-1.311293 5.26759,-3.205381 4.37098,-6.37714 -0.5828,-4.539089 -8.3721,-4.572712 -8.9549,-0.03362 m -176.96843,8.12553 c 5.80555,0.112076 4.8529,-8.147945 -0.0448,-9.179047 -4.92015,1.075932 -5.76072,9.369576 0.0448,9.179047 m 175.27608,7.015974 c -3.81059,3.149343 -0.25778,10.232564 4.78566,7.923793 5.90642,-2.319979 0.66125,-12.56375 -4.78566,-7.923793 m -18.39172,57.349421 c 3.41833,-2.57775 6.78062,-5.24517 10.41189,-7.50911 2.34239,-12.743065 5.32362,-25.441307 6.33231,-38.374908 -6.43318,14.962182 -12.00337,30.294208 -16.7442,45.884018 M 419.05169,78.21565 c -14.67078,25.36286 -6.78061,56.45282 5.91763,80.88544 6.39955,10.50155 7.21771,22.96443 8.61866,34.85572 5.1443,-10.70328 3.72094,-22.65061 3.8106,-34.14964 0.20173,-10.52396 -3.9563,-20.8686 -1.77081,-31.39256 3.72093,-19.97199 9.88513,-39.742244 20.03924,-57.416672 -13.00085,-1.938919 -23.70413,7.957415 -36.61532,7.217712 m 40.03364,-6.679746 c -8.20398,12.485297 -12.67582,26.887097 -16.86747,41.098366 -2.61138,9.6946 -5.39087,19.74784 -3.69852,29.86833 2.71225,13.86383 2.051,28.08631 1.47941,42.11826 -0.10087,1.40095 0.78453,2.58896 1.27767,3.84422 4.79686,-16.83386 12.82152,-32.6142 23.21099,-46.67977 10.89381,-15.61222 24.65678,-30.57441 28.73636,-49.660995 -10.08687,-8.64108 -20.73411,-17.820127 -34.13844,-20.588411 m -62.4601,8.977309 c -8.41693,3.844217 -14.76045,11.499026 -18.17877,19.949577 -1.28888,10.55758 5.12188,19.94958 10.98347,28.10873 8.28244,11.82404 13.89746,25.88962 25.30682,35.22557 6.78062,5.17792 10.05325,13.30345 11.83526,21.39536 0.70608,-0.36985 2.09583,-1.08714 2.80191,-1.44578 -0.28019,-13.98712 -9.26871,-25.20596 -13.49399,-38.02748 -9.30233,-21.29449 -11.0283,-46.836676 -0.36985,-67.985468 -6.34352,0.414682 -12.98964,0.04483 -18.88485,2.779491 m 104.32059,-0.94144 c -3.28383,0.448305 -4.86411,4.976186 -2.68983,7.453072 2.12945,3.216589 8.17036,1.725974 8.10312,-2.331187 0.58279,-3.026059 -2.45447,-5.839173 -5.41329,-5.121885 m -4.89773,15.074258 c -9.77305,31.863279 -38.90167,53.157779 -48.73076,85.043469 6.79182,-7.67722 15.05184,-13.72934 23.71534,-19.109 14.72682,-9.4032 26.11377,-23.18858 34.42983,-38.41974 1.60269,-3.32867 5.18913,-6.94873 3.13813,-10.83778 -3.20538,-6.20903 -7.38583,-11.94733 -12.55254,-16.676949 M 366.3086,104.97946 c -1.37854,22.09024 9.92996,43.1942 26.85347,56.81146 8.04708,6.57888 18.02187,12.56375 20.96947,23.23342 5.50295,-4.09079 7.69964,3.02605 8.94369,7.18408 -0.48193,-5.54777 -1.70356,-11.07313 -3.78818,-16.25105 -3.00364,-6.70217 -9.95237,-10.21015 -14.31214,-15.8588 -7.46428,-9.63856 -13.02326,-20.55479 -19.9832,-30.52957 -5.77193,-7.85655 -10.8714,-16.7442 -11.10676,-26.76382 -2.55533,0.65005 -5.07705,1.37854 -7.57635,2.17428 m -8.97731,9.6946 c 2.84674,3.98992 5.35725,8.20398 8.11432,12.27235 -1.00869,-6.59008 -1.68114,-13.21379 -2.21911,-19.84871 -2.10703,2.40964 -4.05716,4.95378 -5.89521,7.57636 m -99.74788,-4.96498 c -3.9675,1.37854 -4.75203,7.27375 -1.44578,9.76184 3.37349,2.75708 9.68338,0.32503 8.93247,-4.49425 0.53797,-4.03475 -3.95629,-6.66854 -7.48669,-5.26759 m 64.43265,4.68479 c 4.68478,4.31494 8.12553,9.67218 12.18269,14.52508 8.13673,8.6635 20.21856,12.26115 28.23201,21.08155 6.6125,7.40824 10.37826,16.73299 14.77165,25.51977 1.18801,2.84673 3.84422,4.51667 6.29869,6.16419 -4.48305,-19.60214 -12.37322,-38.39733 -23.43515,-55.19756 -3.6761,-5.40208 -6.69095,-12.28356 -13.26983,-14.67078 -8.17036,-2.6338 -17.12525,-0.86299 -24.78006,2.57775 m -107.32424,9.91875 c 5.78314,-0.0448 5.05464,-8.18157 0.0448,-9.16784 -5.12188,0.8854 -5.8728,9.12301 -0.0448,9.16784 m 297.42801,-8.06949 c -7.94621,15.23116 -17.53994,30.07006 -31.16841,40.84059 -9.23509,7.62119 -20.68928,12.55254 -28.52342,21.84367 -4.7072,5.42449 -7.76688,12.02578 -10.23256,18.71673 2.11824,1.9053 4.23648,3.79939 6.41076,5.63744 3.6649,-4.34856 10.07566,-2.54413 14.51388,-5.80555 17.73047,-8.39451 35.5618,-18.12273 48.42816,-33.30907 5.85038,-7.60998 10.80415,-15.90362 15.33203,-24.36538 -2.31998,-8.89886 -3.98991,-21.22725 -14.76044,-23.55843 m -202.43216,9.94116 c 0.91902,5.40208 5.62623,8.86524 9.94116,11.63352 8.71954,5.15551 16.25106,12.07061 23.16617,19.42282 4.48305,0.71729 9.12301,1.41216 13.09051,3.78818 6.83665,3.68731 10.08686,11.82404 17.84254,14.13281 -3.8218,-7.15046 -6.93752,-14.77165 -11.95854,-21.20483 -6.60129,-8.33847 -16.9011,-12.12665 -25.06025,-18.60466 -7.09443,-4.98739 -10.16532,-13.79659 -17.36062,-18.69432 -3.13813,3.19417 -8.00224,5.20034 -9.66097,9.52648 m -21.20483,17.42786 c 12.7879,-0.65004 26.40517,-1.00868 38.04989,5.18913 4.78566,2.20791 8.2264,6.32111 12.4965,9.27992 -3.833,-5.22275 -9.21266,-9.03335 -14.14402,-13.13534 -7.24013,-4.84169 -16.32951,-9.23508 -18.31326,-18.62707 -8.27123,2.75707 -18.73916,6.63491 -18.08911,17.29336 m -81.01994,5.49174 c -1.95013,5.1443 5.30121,9.91875 9.16784,5.884 3.31746,-2.73466 1.49061,-7.04959 -0.85178,-9.71701 -3.19417,-0.0897 -7.45307,-0.0672 -8.31606,3.83301 m 305.73286,17.7865 c -14.89494,17.20371 -35.79716,27.36903 -56.11659,36.68257 0.0897,1.87167 0.19053,3.74335 0.32502,5.61502 6.42197,-1.98375 12.1939,-5.50295 18.3693,-8.09191 12.1939,-5.61502 25.72151,-7.10563 38.9353,-8.20398 9.81788,-1.7596 15.75792,-11.4654 17.46148,-20.62203 2.40964,-9.392 -1.35612,-18.68312 -4.06837,-27.54835 -5.13309,7.27375 -9.1118,15.35445 -14.90614,22.16868 M 267.87201,146.57097 c -3.91146,17.83133 -2.56655,36.55928 2.43206,54.04317 5.22275,23.05409 26.64053,37.69125 32.88317,60.40911 -1.36733,-16.50883 -3.07089,-33.17457 -0.91902,-49.70582 1.23284,-9.81788 5.37966,-18.9521 7.02718,-28.68032 1.95013,-11.51023 0.33623,-23.2222 -1.0311,-34.71002 -13.48278,-0.40347 -26.92072,-0.4371 -40.39229,-1.35612 m -29.42002,24.45504 c -0.4371,14.13282 3.94508,28.2096 11.19642,40.24659 10.1429,13.97591 27.14487,19.92716 40.57161,30.02523 -6.00729,-9.63856 -14.30093,-17.82013 -18.79519,-28.37771 -8.46176,-20.68928 -11.08434,-43.97873 -6.66854,-65.94568 -12.1939,1.44579 -27.68284,9.80668 -26.3043,24.05157 m 72.89441,-22.61699 c 1.31129,10.8714 2.52171,21.88849 1.16559,32.81593 -1.50182,11.81284 -6.9039,22.79631 -7.72206,34.72123 -0.99747,13.26983 -0.69487,26.70777 1.37854,39.85432 0.84057,-11.06193 2.25274,-22.50492 8.13674,-32.1771 10.31102,-18.6607 22.57216,-38.34129 21.48502,-60.46515 -3.88905,-9.47044 -15.09667,-13.10171 -24.44383,-14.74923 m 65.92326,1.07593 c 5.76072,11.83525 8.02466,24.90335 12.24993,37.28778 3.16056,5.27879 6.64613,10.41188 8.50659,16.36313 1.3113,-1.31129 2.6338,-2.61138 3.93388,-3.93388 -2.53292,-4.48305 -4.14682,-11.67834 1.13197,-14.81648 4.38218,-1.38975 5.99608,3.6761 6.7582,6.92631 0.98627,0.38106 1.99496,0.76212 3.00364,1.14318 -1.60269,-5.95125 -2.81311,-12.56375 -7.77809,-16.77782 -9.31354,-8.69711 -20.566,-15.41048 -27.80612,-26.19222 m -37.47831,11.84646 c 1.19922,12.0482 -2.19669,23.98432 -6.66853,35.04625 -7.59878,19.32195 -23.54723,35.96528 -22.4825,57.98826 3.07089,-5.26758 6.93752,-10.37826 12.70944,-12.84394 11.02831,-5.04343 21.48503,-11.70076 29.72263,-20.68928 9.12301,-10.55758 11.73439,-25.04904 11.58869,-38.61027 1.30008,-12.98964 -13.33708,-21.40657 -24.86973,-20.89102 m -146.069,37.84816 c -2.58896,5.29 1.72598,9.9972 5.71589,12.9336 21.70917,15.16392 49.53771,16.50883 72.16591,29.75625 12.47409,7.2065 20.82377,20.26339 24.05157,34.11602 1.65873,-2.02858 3.97871,-3.13814 6.54525,-3.56403 -2.12945,-9.68339 -5.42449,-19.93837 -13.28104,-26.52845 -13.60605,-11.6111 -32.36762,-17.10284 -42.66743,-32.45729 -9.1118,-14.8389 -13.8078,-32.84956 -11.4654,-50.22138 -18.63829,4.00113 -36.68257,16.46401 -41.06475,35.96528 m 175.02951,-21.82125 c 0.80695,10.94985 -0.78453,22.06782 -4.29252,32.45729 -4.77445,12.84394 -15.89241,21.83245 -27.06642,29.01654 -6.33231,4.16924 -14.34576,5.96246 -19.36678,11.95854 -5.09947,6.7582 -4.60633,15.64585 -5.29,23.64809 5.57019,-2.27514 8.38331,3.09331 8.9661,7.69964 4.92015,-7.81171 10.59121,-15.25358 17.69685,-21.21603 11.82404,-10.22136 26.70777,-15.70189 39.69741,-24.14123 10.96106,-7.1953 18.05549,-21.51865 13.97591,-34.49708 -3.49678,-11.66714 -13.78538,-19.75905 -24.32055,-24.92576 m 35.4161,8.95489 c -2.01737,3.27263 -1.74839,6.98235 -0.34743,10.4343 0.61642,-0.33623 1.86046,-1.00868 2.48809,-1.34491 0.45951,-3.27263 0.19053,-6.56767 -2.14066,-9.08939 m 12.66462,-0.0897 c -0.23536,2.61138 -0.33623,5.23396 -0.15691,7.86776 3.38471,-1.50183 2.75708,-6.00729 0.15691,-7.86776 m 12.87756,8.76437 c 0.71729,-2.71225 0.69488,-5.53657 0.10087,-8.26003 -2.81311,2.1967 -1.98375,5.76072 -0.10087,8.26003 m 8.33848,-6.38835 c -0.81816,2.66741 -1.71477,6.18661 1.51303,7.6436 0.28019,-2.66742 0.056,-5.39087 -1.51303,-7.6436 m -19.55731,7.81171 c 0.85178,1.37854 2.92519,2.67863 1.62511,4.44943 -4.95378,-1.80443 -10.59121,-4.07957 -15.60102,-1.07593 3.47436,1.01989 9.34716,-0.7285 10.46792,3.93388 -5.7383,0.0224 -17.40544,-2.36481 -16.7554,6.6125 4.09078,-2.68983 8.54021,-6.00729 13.76297,-4.81928 -5.70469,4.62875 -14.9846,6.43318 -15.76913,15.38807 4.63995,-4.10199 9.80667,-7.62119 15.63463,-9.81788 0.36986,0.62763 1.10956,1.88288 1.47941,2.51051 -4.79686,2.14065 -9.45924,4.62875 -13.48277,8.04707 1.0311,1.09835 2.05099,2.20791 3.08209,3.32867 3.77697,-4.23649 7.87897,-10.1317 14.30094,-9.52649 -3.59765,4.38219 -8.92128,6.99356 -12.1939,11.73439 11.58868,-4.46064 25.01542,-7.1953 36.33512,-0.39227 1.15439,-2.10703 2.39844,-4.16923 3.75456,-6.16419 -1.81564,-4.9986 -10.01962,-4.58392 -10.05324,-9.59373 6.1754,0.70608 11.24125,5.04343 13.83021,10.54638 1.10955,-1.41216 2.21911,-2.82433 3.3735,-4.21407 -2.3424,-4.76324 -7.341,-6.70216 -11.95854,-8.57384 1.90529,-3.5304 5.99608,-0.35864 8.84282,-0.23536 -2.7795,-5.83917 -9.64977,-5.43569 -15.05185,-4.81928 -0.16811,-0.60521 -0.50434,-1.81563 -0.66125,-2.42084 2.30877,-0.60521 4.62875,-1.1768 6.91511,-1.87168 -3.39591,-0.1457 -6.79182,-0.0897 -10.18774,-0.0448 -2.68983,-3.94508 -7.50911,-6.26506 -11.68955,-2.98123 m 43.32869,16.0045 c 0.10086,3.62006 -1.14318,7.01597 -3.63128,9.66097 0,0.51555 -0.0224,1.56907 -0.0336,2.09583 11.82405,-1.30009 26.1474,2.47688 30.03644,15.1415 13.71814,-3.58644 26.0129,-10.8714 38.41975,-17.51752 9.64976,-5.39087 19.77025,-11.27487 31.16841,-11.34212 -6.79182,-6.3211 -14.8389,-12.0482 -24.34297,-13.04568 -24.70161,-2.55534 -50.1093,2.40964 -71.61673,15.00702 m -9.30233,-9.78426 c -0.97507,2.67862 -1.47941,5.5814 -0.23536,8.27123 1.66993,-2.39844 3.29504,-6.18661 0.23536,-8.27123 m -269.53223,7.75568 c 6.50043,17.13646 21.0143,31.26927 38.63269,36.63773 22.89719,8.04707 50.15413,7.75568 68.87087,25.00421 -3.81059,-9.76184 -9.64976,-19.03055 -18.50379,-24.92576 -15.76913,-10.68087 -35.14712,-13.10171 -52.47411,-20.26339 -11.27487,-4.71841 -24.66799,-9.17904 -30.51837,-20.8686 -2.02858,1.44578 -4.02354,2.91398 -6.00729,4.41581 m 272.88331,8.40572 c 3.36228,-1.33371 2.85794,-5.14431 2.02858,-7.9238 -1.63632,2.3424 -2.11824,5.12189 -2.02858,7.9238 m -278.9018,15.61222 c 18.97451,6.47801 35.87561,18.0779 51.2861,30.67527 10.41188,8.57384 14.05436,21.91092 20.80136,33.02888 3.42953,5.79434 10.06444,7.99104 16.10536,9.89634 -4.03475,-4.90894 -5.45812,-13.70693 0.45951,-17.68564 4.92015,-1.7596 6.84786,4.21407 7.89017,7.77809 2.67862,-1.23283 5.07705,-3.00364 6.35472,-5.7383 -4.2701,-5.42449 -5.35724,-15.1303 1.23284,-19.18746 5.76072,-1.40095 7.80051,5.59261 8.06949,9.97479 1.52424,0.42589 3.05968,0.81816 4.59513,1.22163 -2.62259,-9.33595 -10.63604,-15.92604 -19.33316,-19.45644 -17.66322,-7.43066 -37.00758,-9.39199 -55.1079,-15.45532 -17.13646,-5.74951 -31.04513,-19.31074 -38.48699,-35.64025 -3.40712,6.11936 -5.46932,13.819 -3.86663,20.58841 m 367.63258,-17.03559 c -15.21996,6.74699 -29.26312,15.82517 -44.42703,22.70665 9.32474,0.35864 18.86243,-0.79574 27.20091,-5.24517 13.72934,-7.03839 28.13114,-13.05689 43.40714,-15.70189 -7.83414,-4.69599 -17.83134,-5.63743 -26.18102,-1.75959 m -90.90506,2.51051 c -0.81816,1.56906 -1.59149,3.17175 -2.3424,4.77444 1.42337,-0.12328 2.84674,-0.25777 4.27011,-0.40347 -0.62763,-1.4682 -1.27767,-2.92519 -1.92771,-4.37097 m 71.33654,19.36677 c -11.18521,5.14431 -23.71534,3.55282 -35.62904,3.70973 0.32502,7.71085 -1.14318,15.35445 -4.07958,22.4825 5.42449,7.63239 7.24013,17.06921 6.52284,26.24826 2.67862,-1.98375 5.83917,-5.44691 9.6946,-6.53405 11.00589,-3.98991 19.12021,-13.37069 30.43991,-16.64332 10.94985,-3.75456 22.59458,-5.54778 33.02888,-10.70328 8.34968,-4.74083 17.99945,-9.77306 21.24966,-19.51248 -3.45195,-0.75091 -8.5178,0.33623 -10.1317,-3.72094 -0.16811,-2.99243 3.59765,-4.19165 5.34604,-6.08574 -1.69235,-3.55281 -4.89773,-6.80303 -9.20146,-6.05212 -16.92352,1.40096 -32.14347,9.72822 -47.24015,16.81144 M 398.1719,224.25102 c -0.66125,2.00617 -1.23284,4.03475 -1.71476,6.09695 1.54665,-0.51555 3.08209,-1.06473 4.61754,-1.6139 -0.86299,-1.56907 -1.93892,-2.98123 -2.90278,-4.48305 m -0.86299,9.50407 c -12.83273,3.31746 -23.45756,11.53265 -35.13591,17.38303 -12.31718,6.25385 -23.98432,14.44663 -31.99777,25.88962 4.10199,3.98991 4.32614,10.16531 1.96133,15.13029 3.42954,2.99244 6.55647,6.29869 10.01962,9.2575 1.80443,-3.20538 4.61754,-5.7271 8.57384,-4.58392 17.98824,-13.43794 28.87084,-33.75737 44.79688,-49.2351 10.07566,-8.23761 21.10396,-15.276 32.6254,-21.31691 -10.7369,0.11208 -20.59961,4.86411 -30.84339,7.47549 m -7.6436,-1.18801 c 1.38975,-0.39227 2.77949,-0.79574 4.18045,-1.18801 -0.0448,-1.58027 -0.0897,-3.14934 -0.13449,-4.71841 -1.36733,1.95013 -2.71225,3.93388 -4.04596,5.90642 m 41.83807,-3.78818 c -12.46288,4.76324 -23.32307,12.88877 -33.81341,20.96947 -15.97086,15.74672 -27.34661,35.81958 -45.16673,49.78428 0.056,2.73466 -0.0336,5.46932 -0.21295,8.20398 2.14066,0.60522 4.09079,1.66994 5.8728,3.00365 9.01093,-2.645 19.26591,-3.39591 26.27068,-10.37827 13.25862,-12.07061 25.68788,-26.0129 31.98656,-43.0597 4.04596,-10.68087 10.31102,-20.94705 19.87113,-27.50351 0.45951,-2.43206 -3.39591,-1.37854 -4.80808,-1.0199 m 16.46401,0.85178 c -15.11909,1.09835 -23.47998,15.81396 -28.5122,28.38892 -5.59261,16.04932 -17.15888,28.93809 -28.73636,40.9975 9.56011,-4.34856 18.515,-10.07566 28.62428,-13.14655 16.69936,-6.01849 34.59794,-7.65481 51.31972,-13.56123 14.11041,-3.84421 17.11405,-22.58336 12.28356,-34.41862 -6.67974,-12.3508 -23.31186,-10.13169 -34.979,-8.26002 M 145.7089,243.9092 c 9.2575,3.08209 17.70805,8.01345 26.37154,12.41805 12.49651,6.50042 27.41386,4.30373 40.14572,10.10928 14.36818,6.0297 21.22725,20.99188 32.43488,30.83218 -4.60634,-8.83161 -7.59878,-18.79519 -14.63717,-26.11377 -7.73326,-8.59625 -17.86495,-14.43542 -27.42506,-20.73411 -7.89017,-5.31242 -16.40796,-9.86271 -25.5646,-12.55254 -10.69207,-2.71225 -22.23593,0.0672 -31.32531,6.04091 m -3.79939,2.27515 c -5.80555,5.27879 -12.02578,11.7568 -12.30597,20.08406 19.8375,11.09555 43.98993,2.31998 64.34298,11.70077 15.36566,6.93752 24.26452,22.348 38.10593,31.41497 8.2264,5.32363 18.13395,7.22892 27.7725,7.91259 1.1656,-2.25273 2.09583,-4.61754 3.04848,-6.97114 -4.93136,-1.64753 -9.90754,-3.3735 -14.30093,-6.20903 -13.86384,-8.68591 -20.44271,-25.28441 -34.68761,-33.4996 -13.29224,-6.84786 -29.19587,-4.67358 -42.57777,-11.28608 -9.60494,-4.79686 -18.86244,-10.55758 -29.39761,-13.14654 m 328.82057,30.66406 c -20.98068,6.50043 -43.56405,8.30485 -63.30068,18.49259 -15.51135,8.15915 -31.14599,16.58729 -48.6411,19.59093 -0.75091,3.68731 -2.08462,7.341 -5.20034,9.68339 0.1457,2.28636 0.28019,4.57271 0.38106,6.87027 21.47381,2.94761 44.03477,2.4881 64.58956,-4.90894 10.81536,-4.52788 18.95209,-13.44915 29.30794,-18.78398 12.50771,-6.11936 26.71898,-8.04707 38.80081,-15.10788 2.34239,-7.85655 0.39226,-16.12778 -3.19418,-23.26703 -3.87784,3.04847 -7.99104,5.94004 -12.74307,7.43065 m -357.35519,7.81172 c -0.65004,5.15551 0,11.34212 3.9675,15.09667 9.49286,6.3211 21.22725,7.89017 32.35642,8.85403 11.58869,1.13197 22.99805,-3.00365 34.58674,-1.41216 11.174,1.64752 21.22724,7.13926 31.16841,12.16027 14.45784,7.74447 31.52705,8.43935 47.49792,6.69096 -0.61642,-1.4682 -1.25525,-2.91399 -1.86046,-4.38219 -12.39564,-0.87419 -25.31803,-3.57523 -35.24799,-11.49902 -12.73186,-9.53769 -21.72038,-24.52229 -37.33261,-29.85712 -19.9944,-5.86159 -42.09584,-0.25778 -61.1376,-10.25498 -5.85038,3.33987 -12.74307,7.3522 -13.99833,14.60354 m 168.85411,4.96498 c 5.42449,-1.92771 4.12441,-10.59121 0.84057,-14.26731 -4.44942,3.07089 -4.93135,10.86019 -0.84057,14.26731 m 18.63828,-2.38723 c 1.95013,-3.87784 2.66742,-8.89885 -0.90781,-12.09303 -2.44327,3.73214 -3.01485,9.12301 0.90781,12.09303 m 14.86132,0.22416 c 4.1132,-2.46568 2.97002,-8.41693 -0.0897,-11.26367 -2.25274,3.27263 -3.39591,8.39451 0.0897,11.26367 m 12.48529,-8.02466 c -2.54413,3.69851 -3.13813,8.92127 1.03111,11.7568 1.80442,-3.85543 1.93892,-8.45055 -1.03111,-11.7568 m -39.49567,7.01597 c -0.24657,0.40347 -0.7285,1.19922 -0.97507,1.60269 5.44691,0.99748 14.65958,0.81816 16.02691,7.52032 -7.00477,-2.7907 -16.47521,-7.52032 -22.69544,-0.65004 4.4158,1.13197 12.91118,-1.81564 13.99832,4.1244 -6.65733,-0.95265 -14.08799,-2.01737 -20.1401,1.64752 -2.58897,2.44327 -4.35977,5.62623 -6.81424,8.21519 1.04231,1.05352 2.08462,2.10704 3.12693,3.18297 4.74082,-5.37966 12.87756,-12.70945 20.11769,-8.91006 -8.31606,2.73466 -19.56852,7.00476 -19.00814,17.69684 5.78314,-4.90894 12.40684,-8.85403 19.73663,-10.90502 0.25778,0.8854 0.51555,1.78201 0.76212,2.66741 -6.60129,2.40964 -12.92239,5.67106 -18.21239,10.35585 1.68114,1.81564 3.20538,3.78818 4.50546,5.90642 4.34856,-5.89521 9.97479,-12.14907 17.55115,-13.33708 0.0112,0.52676 0.0112,1.56907 0.0224,2.08462 -5.42449,3.13814 -10.40068,6.98235 -14.34576,11.9025 1.59148,1.53545 3.13814,3.13814 4.61754,4.79687 2.55534,-3.8218 6.72458,-13.33708 11.35333,-10.05324 -4.34856,5.29 -10.96106,10.91622 -10.09807,18.40292 1.93892,-3.18297 2.30877,-7.85655 6.08574,-9.5489 3.00364,-0.96385 4.83049,1.91651 6.63491,3.73214 5.86159,-6.67974 12.44047,0.61642 13.225,7.11684 1.50183,-6.29868 2.12945,-13.02326 0.23536,-19.31074 -0.35864,-1.89409 -1.99495,-4.83048 1.1656,-4.88652 3.42953,5.39087 3.13813,12.0482 2.89156,18.17877 0.69488,-0.1457 2.07342,-0.42589 2.75708,-0.56038 1.06473,0.60521 2.12945,1.21042 3.20538,1.82684 0.70608,-4.07958 2.645,-8.98852 7.73326,-7.58756 0.80695,-3.02606 2.31998,-5.76072 4.59513,-7.91259 -2.63379,-5.57019 -8.13674,-8.36089 -13.5276,-10.61362 -0.0112,-0.594 -0.0336,-1.78201 -0.056,-2.37602 8.6747,0.94144 15.35445,7.92379 17.95462,15.94846 2.46567,-1.43458 2.95881,-4.99861 5.33483,-6.7582 -1.64752,-7.25134 -8.8092,-10.24377 -15.10788,-12.39564 0.20173,-0.66125 0.62762,-1.98375 0.84057,-2.63379 3.3847,1.23284 6.72457,2.56655 10.09807,3.84421 -0.86299,-5.33483 -5.69348,-9.24629 -11.03951,-9.31353 -3.53041,-0.60521 -7.95742,1.45699 -10.59121,-1.79322 3.77697,-0.91903 7.66602,-1.28888 11.52144,-1.83805 -5.06585,-2.47689 -10.78174,-2.07342 -16.22864,-1.69236 -0.56039,-5.21154 5.67106,-2.81311 8.88764,-3.85542 -3.03726,-1.14318 -6.20902,-0.48193 -9.30233,-0.0673 -3.3847,-1.15438 -6.65733,-4.59512 -10.4455,-2.72345 -2.97003,1.42337 -6.10816,2.51051 -8.93248,0.12329 -2.4993,-0.34744 -4.99861,-0.66125 -7.46428,-1.15439 m -21.4514,19.17625 c 2.7907,-3.39591 3.70972,-8.60746 0.95265,-12.29477 -5.37966,0.32502 -3.9675,9.2575 -0.95265,12.29477 m 223.11023,-11.15159 c -2.4993,8.69712 -4.47184,18.90727 3.64248,25.34045 3.9675,-5.69348 16.3183,-3.91147 15.07426,-12.72066 -5.39087,-4.94256 -14.72683,-5.52536 -17.51752,-13.0793 -0.30261,0.11207 -0.90782,0.34743 -1.19922,0.45951 m -33.95911,12.95602 c -15.7243,4.94256 -26.12498,19.64697 -42.18551,23.89466 -19.82629,5.13309 -40.82938,6.35472 -61.03673,2.82432 -1.07594,1.10956 -2.09583,2.27515 -3.14935,3.39591 26.77502,3.95629 54.03197,1.69235 81.00873,2.67862 19.62455,1.71477 40.42591,2.89157 57.43909,13.99833 2.27515,-4.97619 -1.1768,-10.03083 -0.33623,-15.1303 0.91902,-4.28131 4.86411,-7.6436 4.24769,-12.27235 -0.4371,-6.00729 -7.10564,-9.01093 -8.32727,-14.71561 -0.69487,-5.11068 0.25778,-10.24377 1.28888,-15.24237 -9.21267,4.63995 -19.20987,7.31858 -28.9493,10.56879 m -110.55203,3.33987 c 4.02354,-2.65621 4.68479,-8.18157 2.26394,-12.16028 -3.3735,3.14935 -4.13562,8.00225 -2.26394,12.16028 m -223.51371,-4.67358 c 7.0496,5.74951 12.29477,13.65089 12.64221,22.97564 14.24489,-13.58365 36.71618,-18.45897 54.77167,-9.91875 12.47409,6.05211 24.86972,13.01205 38.81201,14.98459 12.86636,2.47689 26.16981,-0.0785 38.22922,-4.74082 -15.61223,0.29139 -31.82966,1.58027 -46.64615,-4.57272 -11.79042,-5.06584 -22.7739,-12.4965 -35.66267,-14.61474 -9.39199,-1.6139 -18.70553,1.42337 -28.0751,1.63631 -11.58869,0.23536 -23.14375,-1.96133 -34.07119,-5.74951 m 229.83481,16.41917 c 2.52171,-3.03726 4.42701,-7.28495 2.42085,-11.10676 -4.75204,-0.056 -5.40208,8.0695 -2.42085,11.10676 m -86.76945,-10.00841 c -2.72345,3.3735 -2.55534,9.22388 0.95265,12.01458 4.65116,-2.051 4.5615,-12.83273 -0.95265,-12.01458 M 135.26342,332.8865 c 0.87419,7.19529 3.49678,14.56991 9.36957,19.19866 11.12918,9.17905 26.97676,12.14907 35.31524,24.73524 3.08209,-13.88625 11.95853,-26.5957 24.58953,-33.36511 6.1642,-3.46316 13.0793,-5.15551 19.79267,-7.18409 -15.35445,-2.42085 -28.07511,-11.91371 -42.56657,-16.76661 -16.43038,-4.67358 -34.71002,1.35612 -46.50044,13.38191 m 211.62241,3.03727 c 3.5304,-3.70973 4.39339,-9.45924 1.26646,-13.68452 -4.14682,3.27263 -4.94256,9.76185 -1.26646,13.68452 m -75.11352,-9.06698 c -1.46819,3.47437 -2.67862,9.26871 1.36734,11.3085 4.44942,-1.43458 3.26141,-7.53152 2.03978,-10.99468 -0.85178,-0.0784 -2.55534,-0.23536 -3.40712,-0.31382 m 66.15863,13.53882 c 2.91398,-3.78818 4.07957,-10.07566 0.0897,-13.50519 -3.97871,3.32866 -3.83301,10.01962 -0.0897,13.50519 m -133.46043,6.47801 c -10.84898,6.39955 -18.44775,17.6408 -21.33932,29.80108 -0.32502,1.88288 -1.13197,4.29252 0.67246,5.70468 5.61502,5.69347 14.24489,7.07201 21.92212,6.56767 12.14907,-0.99748 24.14123,-4.53909 34.6876,-10.69208 8.75316,-4.93135 12.7767,-15.07426 21.2945,-20.29701 6.34351,-3.83301 13.89745,-4.59513 20.66686,-7.41945 -3.63127,-1.41216 -6.69095,-3.87784 -8.54021,-7.32979 -5.12189,-0.53796 -7.68843,-5.05464 -8.73074,-9.59373 -19.75905,6.81424 -42.23034,1.97255 -60.63327,13.25863 m 76.59293,-1.30009 c 4.33735,-3.03726 3.62006,-9.32474 0.85178,-13.20258 -3.92267,3.45195 -3.35108,9.10059 -0.85178,13.20258 m 49.0894,1.71477 c 3.58644,-3.93388 3.62007,-9.87392 0,-13.77417 -3.63127,3.79938 -3.8218,10.03082 0,13.77417 m -33.69012,1.9053 c 3.3847,-3.93388 2.97002,-10.58 -1.06473,-13.94229 -3.65368,3.41832 -4.90894,13.02326 1.06473,13.94229 m 7.43065,-10.55759 c -2.645,4.50547 -1.99495,11.09555 2.75708,13.97591 3.90025,-3.51919 5.4357,-10.03082 1.87167,-14.28972 -1.01989,-1.81564 -3.79938,-1.51303 -4.62875,0.31381 m 39.06979,2.99244 c 35.89803,10.66966 74.60917,11.65593 108.5907,28.56824 1.49061,-0.91903 2.98123,-1.83805 4.47184,-2.76829 0.13449,-3.27262 -1.3225,-8.02466 2.645,-9.5601 8.45055,-3.2278 17.73047,0.42589 26.38276,-2.03979 -15.7131,-9.66097 -34.6764,-10.89381 -52.58619,-12.4965 -19.88233,-1.13197 -39.83191,0.45951 -59.70303,-0.99748 -9.43682,-0.15691 -19.17625,0.33623 -28.0751,-3.39591 -0.4371,0.67245 -1.30009,2.01737 -1.72598,2.68983 m -22.70665,11.59989 c 5.24517,-2.51051 4.63996,-9.90754 0.91902,-13.55002 -3.54161,3.78818 -2.9476,9.16784 -0.91902,13.55002 m 18.05549,-8.75316 c -1.15439,2.18549 -2.39844,4.32615 -3.67611,6.4556 12.70945,5.68226 26.52846,7.77809 39.92157,11.19642 24.92576,7.24012 49.8067,20.8686 63.0429,44.07959 5.78314,-4.96497 12.4853,-9.71701 15.4217,-17.02438 1.50182,-4.79687 2.7907,-11.64473 -2.28636,-14.79407 -35.15832,-17.61839 -75.47216,-18.02186 -112.4237,-29.91316 m -49.33598,6.36594 c -6.64612,5.80555 -15.81396,6.24264 -23.52481,9.88512 -8.12553,3.92267 -11.92491,12.75428 -18.79519,18.2124 -10.42309,8.15915 -23.54722,11.76801 -36.43599,13.72934 2.45447,8.95489 8.50659,18.30206 18.29084,20.01682 5.33484,0.32502 13.56123,1.43458 15.4217,-5.16671 6.37714,-13.26983 16.40797,-24.84731 29.08379,-32.43488 8.93248,-5.36845 18.03307,-11.24125 23.24462,-20.59961 -2.52172,-1.03111 -4.96498,-2.24153 -7.28496,-3.64248 m 39.79829,0.56038 c -0.48193,1.45699 -2.08462,2.99243 -0.97507,4.55029 5.49174,10.69208 13.59485,19.88233 18.53742,30.89943 4.80807,11.17401 6.41076,23.93949 3.29504,35.78596 9.78426,-7.57636 22.30318,-9.82909 34.26172,-11.51024 8.70832,-1.21042 17.79771,-0.70608 25.99048,2.71225 4.15803,-2.91398 9.34716,-3.35108 14.03195,-1.50182 4.4046,2.08461 7.67723,-2.47689 11.03951,-4.56151 -10.32222,-18.33568 -28.74756,-30.58561 -47.97985,-38.04989 -18.84002,-7.99104 -40.06726,-8.3721 -58.2012,-18.32447 m -70.21579,39.3836 c -5.83917,6.73578 -10.61362,14.36818 -14.16644,22.53854 9.91875,13.20258 28.60187,14.6932 42.56657,7.43065 2.26394,-7.62118 4.95377,-15.45531 10.41188,-21.44019 4.41581,-5.24517 10.21015,-10.33343 10.81537,-17.62959 0.70608,-8.20399 -1.73719,-16.26227 -1.74839,-24.45505 -2.26395,-0.86298 -4.50547,-1.79322 -6.69096,-2.81311 -8.33847,17.6296 -29.2407,22.14627 -41.18803,36.36875 m 52.07064,-33.67892 c -0.16812,9.76184 3.50798,19.61335 0.76212,29.27432 -2.06221,7.20651 -8.33848,11.86888 -12.57496,17.73047 -3.81059,4.89773 -5.83917,10.84898 -7.58756,16.72178 11.27487,4.43822 19.41161,14.5475 31.17961,17.89858 6.87028,2.07341 12.21632,-3.42954 17.01318,-7.37462 9.79547,-6.67975 9.60494,-20.28581 7.935,-30.75373 -2.51051,-16.99076 -15.36566,-29.47606 -22.87477,-44.25892 -3.04847,0.75091 -6.16419,0.40348 -8.89885,-1.15438 -1.65873,0.63883 -3.30625,1.27767 -4.95377,1.9165 m 149.28559,4.75203 c 0.57159,4.19166 0.12328,8.85403 -4.04595,11.0171 2.31997,3.79939 2.2079,8.23761 3.03726,12.42926 6.19782,11.98095 3.40712,26.00169 7.26255,38.61027 2.37601,8.0695 4.61754,16.49763 2.99243,24.95939 4.06837,-3.92267 9.08939,-6.63492 14.44663,-8.33847 -0.26898,-16.04933 -9.04455,-30.48475 -9.42561,-46.51166 -0.53797,-11.09555 1.31129,-22.07902 2.43205,-33.0737 -5.57019,-0.0673 -11.29728,-0.86299 -16.69936,0.90781 m 19.81508,-0.91902 c -0.8854,9.53769 -2.67862,19.01934 -2.55534,28.62428 -0.75091,17.38303 8.91007,33.04008 9.41441,50.29983 3.16055,-0.35865 6.3099,-0.69487 9.48165,-0.93024 -4.69599,-25.99048 -10.51275,-52.03701 -10.68086,-78.57667 -1.89409,0.19053 -3.78818,0.39227 -5.65986,0.5828 m -48.62989,54.8165 c 6.18661,3.47437 12.73186,6.28748 18.92968,9.73943 7.96863,4.58392 13.32587,12.4853 16.58729,20.90222 0.53797,-7.18408 -1.06472,-14.23368 -3.11572,-21.05913 -3.64248,-11.67834 -2.40964,-24.17485 -5.70468,-35.93165 -5.15551,11.93612 -16.4528,19.18746 -26.69657,26.34913 m -40.58282,-1.00868 c 13.87505,23.03167 13.43795,51.42059 26.79744,74.71004 -1.50182,-9.38079 0.19053,-18.79519 0.76212,-28.17598 0.70608,-15.34324 -4.14682,-30.21576 -10.07566,-44.15805 -5.70468,-1.54665 -11.56627,-2.48809 -17.4839,-2.37601 m -154.07125,2.0622 c -0.0112,29.21828 6.17541,57.88739 9.89634,86.74703 5.30121,-5.27879 11.88008,-11.68955 10.61362,-19.89354 -1.31129,-19.22108 -3.50799,-38.40853 -3.32866,-57.68565 -4.65117,-2.71225 -8.77558,-6.22023 -12.39564,-10.18773 -1.59148,0.33622 -3.19417,0.67245 -4.78566,1.01989 m 119.98886,6.35472 c 5.34604,16.1614 14.77165,30.63045 24.89214,44.16926 4.7072,6.66854 12.29477,10.10928 18.55983,15.00701 7.59877,6.27628 14.26731,13.56123 21.14879,20.58842 -4.38218,-8.84282 -9.8403,-17.17009 -12.9336,-26.60691 -7.90138,-20.11769 -9.1118,-42.70106 -21.0143,-61.24968 -10.55759,0.99748 -21.37295,2.61137 -30.65286,8.0919 m 55.90364,-6.34351 c 6.00729,13.65089 10.04204,28.35529 9.94117,43.3511 -0.40348,7.84534 -1.74839,15.66826 -1.50182,23.53601 1.23283,11.21884 5.57019,21.91092 11.45419,31.47102 5.23396,-16.56487 8.43934,-34.14964 9.92996,-51.59991 1.27767,-14.17765 -2.81312,-28.16477 -8.29365,-41.06475 -5.87279,-4.42701 -14.13281,-9.59373 -21.52985,-5.69347 m 25.64305,7.32978 c 2.97002,9.23509 6.87028,18.38051 7.30738,28.2096 0.79574,17.30458 -2.76829,34.44104 -6.83666,51.16282 -0.85178,2.2079 2.12945,3.29504 3.0821,4.92015 3.02606,-11.91371 4.02354,-24.62316 10.24377,-35.48335 2.77949,-6.56767 8.55142,-11.56627 10.61362,-18.3693 1.49062,-14.74924 -11.63351,-26.0129 -24.41021,-30.43992 m -159.30521,3.85543 c 0.35865,13.94229 -0.85178,27.99665 1.44579,41.82686 6.79182,-2.66741 13.13534,-6.74699 20.54358,-7.53152 0.17932,-10.70329 -3.73214,-21.36174 -0.84057,-31.99778 -6.04092,-5.71589 -13.98712,-6.19782 -21.1488,-2.29756 m 61.54108,23.59205 c 9.26871,24.04036 33.88066,36.68257 57.37185,43.09333 10.23256,2.62258 17.7865,10.2886 25.04904,17.45027 -3.05968,-8.94368 -11.64472,-14.51387 -17.82012,-21.30569 -7.72206,-8.58505 -19.43403,-12.44047 -26.15861,-22.02299 -10.08686,-13.56123 -19.52368,-27.98545 -24.92576,-44.11322 -10.98347,5.37966 -5.00981,19.64697 -13.5164,26.8983 m -83.54165,-24.09639 c -0.22415,18.64949 2.07341,37.19811 3.23901,55.78035 4.44942,-5.74951 10.00841,-11.00588 17.27095,-12.82152 -2.55534,-13.72934 -1.08714,-27.71646 -1.69235,-41.56909 -6.3099,0.7397 -12.70945,0.42589 -18.81761,-1.38974 m 74.37381,15.10788 c -0.056,4.21406 -0.0336,8.43934 0.38106,12.6422 5.51416,-5.64864 11.26367,-11.98095 10.58,-20.49875 -3.58644,2.70104 -7.07201,5.57019 -10.96106,7.85655 m -23.40152,-6.69096 c -0.71729,10.07566 2.98123,19.90475 1.59148,29.98041 5.81676,-0.71729 11.62231,-1.68115 17.50632,-1.457 0.82936,-2.09582 1.69235,-4.18044 2.56654,-6.25385 -1.35612,-4.8529 -1.12076,-9.91875 -1.13197,-14.89494 -7.66602,0.71729 -14.5475,-3.03727 -20.53237,-7.37462 m 201.77091,5.12189 c -8.94369,12.30597 -10.2774,27.99665 -15.08547,42.01739 -3.29504,9.57132 -13.5164,14.76045 -16.07174,24.64557 6.55647,-5.86158 12.47409,-12.46288 19.65818,-17.61839 10.7257,-7.68843 22.80752,-14.88372 29.22949,-26.8983 2.645,-6.82545 2.24153,-14.71561 -0.85178,-21.32811 -1.49061,1.34491 -2.97002,2.70103 -4.43822,4.06836 -0.97506,0.0112 -2.91398,0.0224 -3.88904,0.0336 -0.44831,-2.43206 -0.81816,-4.87532 -1.14318,-7.31858 -2.75708,-0.39227 -5.85038,-0.31382 -7.40824,2.39843 m -17.05801,13.12413 c -3.28384,13.03447 -5.31242,26.37155 -8.84282,39.37239 4.8529,-4.94256 8.68591,-10.99468 9.99721,-17.87616 2.62258,-12.1939 6.18661,-24.32055 12.10423,-35.34886 -6.19782,2.40964 -11.88008,7.02719 -13.25862,13.85263 m -28.01907,6.80303 c -10.10928,12.39564 -15.46652,27.76129 -17.50631,43.48559 4.09078,2.27515 5.83917,6.64613 5.83917,11.1628 2.53293,1.1768 5.02102,2.44326 7.56515,3.63127 1.22163,-1.70356 2.58896,-3.29504 3.92267,-4.90894 1.3225,0.75091 2.645,1.51303 3.97871,2.28636 8.40572,-11.64473 11.85767,-26.06895 15.15271,-39.83191 2.48809,-11.3197 3.05968,-23.70413 10.00841,-33.45477 -12.28356,-0.21294 -22.53854,7.75568 -28.96051,17.6296 m -130.77059,27.20091 c 14.93977,10.59121 33.6453,13.31466 51.46542,15.1415 7.89017,-0.56038 16.26227,-1.52423 23.3567,2.86916 6.04091,2.01737 8.70832,7.92379 13.14654,11.84646 -2.25273,-5.91763 -7.43065,-9.89634 -12.13786,-13.81901 -8.2376,-7.01597 -19.56851,-7.6548 -29.00533,-12.36201 -18.30206,-6.44438 -34.34017,-19.81508 -42.47691,-37.60159 -9.47045,8.58505 -10.54638,23.13255 -4.34856,33.92549 M 298.77149,466.5038 c 4.20286,16.48642 10.54638,32.43487 20.31943,46.45561 2.67862,-1.58027 5.45811,-3.00364 8.36089,-4.12441 -1.04231,-4.53908 -0.39227,-9.60493 -3.32867,-13.51639 -5.03222,-7.7893 -8.26002,-16.49763 -11.71197,-25.03784 -4.78566,-0.36985 -8.98852,-2.88036 -13.63968,-3.77697 m -29.40881,12.58616 c 5.37966,11.03952 11.45419,21.92212 19.94957,30.89943 6.0297,6.39956 14.17765,10.05324 21.60831,14.51388 1.75959,-3.26142 3.77697,-6.35473 5.95125,-9.33596 -10.05325,-14.34576 -16.40797,-30.67527 -20.96947,-47.48671 -8.57384,4.47184 -18.42534,6.13057 -26.53966,11.40936 m 46.16421,-9.82909 c 3.21659,8.87644 6.72458,17.70805 11.98095,25.60943 0.76212,-1.53544 1.51303,-3.05968 2.28636,-4.57271 -2.91398,-6.81424 -4.41581,-14.16644 -4.39339,-21.57468 -3.29504,0.056 -6.59008,0.24657 -9.87392,0.53796 M 471.73875,521.623 c 6.64612,3.91146 1.81563,11.20762 3.16055,16.97955 12.07061,-4.68479 25.79995,-5.69347 36.31271,-13.88625 5.50294,-3.91146 5.55898,-11.36453 6.33231,-17.41665 0.52676,-12.24994 5.04343,-23.79379 8.02466,-35.5618 -17.30458,17.28216 -40.96388,28.24322 -53.83023,49.88515 M 255.75657,500.26126 c 10.93864,9.2575 21.32811,19.94958 35.02383,25.08267 6.23144,2.34239 12.4853,4.65116 18.76157,6.87027 0.12328,-1.63631 0.24657,-3.26141 0.36985,-4.88652 -7.43066,-4.30373 -15.36566,-8.05828 -21.61951,-14.06557 -9.1118,-9.13422 -15.38807,-20.55479 -21.3057,-31.8857 -4.80807,5.5926 -7.73326,12.45167 -11.23004,18.88485 m 77.66885,-8.43934 c -1.14318,2.24152 -2.16307,4.53909 -3.13813,6.85906 12.07061,11.1628 28.2208,17.49511 44.75205,16.10536 11.27487,-0.8854 23.70413,-5.12188 33.85824,2.12945 0.78454,-1.86046 1.6139,-3.70972 2.46568,-5.52536 -6.97114,-5.16671 -15.64585,-6.43317 -24.05157,-4.89773 -18.61587,-1.28888 -37.87057,-4.48305 -53.88627,-14.67078 m -86.72462,19.17625 c -1.27767,6.97114 1.3113,13.79659 2.14066,20.65565 19.53489,8.0807 41.13199,8.46176 61.75402,5.24517 -8.19277,-5.25637 -18.2236,-6.67974 -26.79743,-11.28608 -11.51023,-5.74951 -20.55479,-15.10788 -30.29422,-23.28945 -2.4993,2.65621 -5.65985,5.07706 -6.80303,8.67471 m 83.53045,-8.38331 c 0.50434,2.15187 1.0311,4.29252 1.55786,6.45559 3.29504,0.5828 6.57887,1.19922 9.88512,1.72598 -3.87783,-2.63379 -7.60997,-5.49174 -11.44298,-8.18157 m 106.65178,5.18913 c -0.28019,2.9364 -0.0897,6.23144 2.81311,7.82293 0.11208,-2.92519 -0.45951,-5.88401 -2.81311,-7.82293 m 9.63856,0.2914 c -0.79575,2.76829 0.0448,5.50295 2.67862,6.95994 -0.1457,-2.4881 -0.0224,-5.77193 -2.67862,-6.95994 m -21.01431,1.95013 c -0.31381,3.03727 -0.10086,6.38835 2.98123,7.91258 0.13449,-2.99243 -0.7397,-5.86159 -2.98123,-7.91258 m -112.1323,23.46877 c 7.54273,-1.53545 15.19754,1.55786 22.71786,-0.30261 7.52031,-1.7708 14.91735,-5.7383 22.85235,-4.25889 16.1726,3.85542 30.04765,13.819 46.02972,18.20118 0.20174,-1.64752 0.41468,-3.28383 0.63884,-4.92015 -11.48782,-3.94508 -21.55227,-10.8714 -32.12106,-16.64332 -12.4853,-6.87028 -26.69657,-9.32475 -40.52678,-11.96975 -11.25246,-2.36481 -18.6607,10.25498 -19.59093,19.89354 m 99.55735,-19.87112 c -1.30009,3.85542 -0.23536,7.76688 2.68983,10.5912 2.65621,-3.66489 0.62762,-8.20398 -2.68983,-10.5912 m -46.02973,4.14682 c 12.32839,5.55898 23.44636,13.44915 35.75233,19.05296 -0.34743,-3.42953 -1.81563,-8.18156 2.09583,-10.13169 3.13813,-0.84057 4.8529,2.43205 6.69095,4.28131 0.93024,-1.35612 1.83805,-2.73466 2.72346,-4.1132 -4.43822,-7.72205 -13.47157,-12.21631 -22.31439,-11.06192 -8.30485,0.91902 -16.55366,2.6562 -24.94818,1.97254 m 61.88852,2.36481 c 1.40095,0.72849 2.80191,1.4794 4.20286,2.24152 -4.88653,3.26142 -12.36201,-1.07593 -16.54246,4.53909 3.6761,-0.60521 7.38583,-1.59148 11.14038,-0.89661 -2.42084,3.78818 -7.62118,2.58896 -11.10676,4.80807 -4.30372,1.69236 -5.21154,6.55647 -6.53404,10.45672 5.7383,-1.95013 7.30737,-10.99468 14.55871,-10.86019 -1.79322,5.4357 -11.58869,8.71953 -9.75064,16.68816 4.27011,-3.69852 7.58756,-11.8913 14.27852,-10.06445 -4.06837,3.81059 -8.55142,7.29616 -11.54386,12.10423 1.21042,0.68367 2.40964,1.37854 3.62006,2.08462 2.82433,-4.66237 5.26759,-12.28356 11.86888,-11.9137 -2.98123,4.22527 -6.59008,8.04707 -8.78678,12.7879 1.18801,0.594 2.37602,1.18801 3.56403,1.79322 1.16559,-3.77697 2.11824,-8.05829 5.51415,-10.52396 2.48809,3.07089 -1.45699,6.45559 -2.45447,9.52648 2.53292,-1.3225 5.23396,-1.12076 7.82292,-0.0672 0.82937,-0.95264 1.66994,-1.90529 2.52172,-2.84673 3.25021,0.20173 5.81676,2.08461 8.00225,4.34856 -0.62763,-5.78314 -3.35109,-10.92744 -5.34604,-16.29589 5.52536,1.04231 6.10815,7.40824 7.73326,11.768 1.08714,-0.0672 2.17428,-0.12328 3.27263,-0.16811 0.17932,-2.82432 1.44578,-5.26758 3.85542,-6.80303 0.7285,-2.11824 1.51303,-4.22528 2.33119,-6.30989 -3.53041,-2.51051 -7.73327,-3.59765 -11.99216,-4.02354 0.056,-0.7285 0.17932,-2.17428 0.24656,-2.90278 6.09695,-0.1457 11.70077,2.77949 15.70189,7.26254 0.68366,-1.68114 1.37854,-3.35108 2.09583,-5.0098 -3.2278,-4.16924 -8.58505,-4.30373 -13.26983,-5.39087 0.34743,-4.02354 5.53656,-1.24405 8.08069,-2.08462 -4.60633,-6.6125 -11.66714,-0.68367 -17.58476,-2.33119 2.2079,-1.69235 4.62875,-3.0933 7.01597,-4.53909 -3.28383,0.68367 -6.52284,1.56907 -9.75063,2.4881 -3.86663,-3.42954 -9.26871,-4.13562 -12.76549,0.13449 m 34.99021,-2.28636 c -0.21294,2.7907 0.10087,5.61502 1.9165,7.86776 0.48193,-2.72346 1.457,-6.54526 -1.9165,-7.86776 m 6.84786,6.66854 c -0.4483,2.84674 -1.34491,6.48922 1.89409,8.09191 0.50434,-2.88036 0.26898,-5.94005 -1.89409,-8.09191 m 7.41945,16.3183 c -3.95629,2.14066 -7.58756,5.4357 -9.29112,9.6946 10.84898,7.68843 24.95938,2.3536 36.3015,8.18157 5.00981,2.30877 5.94004,8.12553 7.10564,12.91119 5.67106,0.43709 12.55254,1.31129 16.76661,-3.45195 3.62006,-4.76324 6.98235,-10.10928 7.97983,-16.11657 0.76212,-4.74083 -2.18549,-8.91006 -2.73466,-13.46036 0.51555,-3.68731 1.98375,-7.341 0.68366,-11.05072 -7.13926,-1.09835 -17.12525,9.31354 -20.94705,-0.97506 -10.17653,8.60745 -23.89466,9.58252 -35.86441,14.2673 M 405.23269,528.9752 c -0.62763,3.39591 0.3026,6.7582 3.02606,8.9661 0.4483,-3.39591 0.23536,-7.0608 -3.02606,-8.9661 m -77.29901,7.75568 c -4.7072,-0.54918 -9.48165,-1.26646 -14.20006,-0.31382 0.31381,3.11572 -1.28888,7.85655 2.70104,9.12301 6.89269,1.95013 13.56123,-2.08462 20.40909,-2.48809 21.97815,-1.09835 42.77951,10.92744 64.85853,7.11684 -8.30485,-4.07957 -17.08042,-7.37462 -25.34044,-11.64472 -7.26254,-3.02606 -14.67078,-7.03839 -22.75148,-6.6125 -8.67471,0.99748 -16.7442,5.85038 -25.67668,4.81928 m -79.12584,-1.99496 c -0.48193,4.37098 -1.0311,8.74195 -2.01738,13.04568 21.05914,1.35612 41.70358,6.69095 60.46515,16.40796 -3.29504,-8.0919 2.47689,-15.54497 2.63379,-23.55843 -20.52116,2.01738 -41.75961,2.3536 -61.08156,-5.89521 m 222.23603,8.83161 c 1.22163,-3.45195 0.67246,-7.08322 -1.98375,-9.68339 -1.34491,3.39591 -1.21042,7.40824 1.98375,9.68339 m -8.70832,-4.12441 c -2.06221,3.42954 0.72849,6.747 2.72345,9.392 1.68114,-3.17176 1.35612,-8.32727 -2.72345,-9.392 m -53.75178,3.18297 c -0.62763,3.45195 -0.53797,7.97983 3.65368,8.95489 0.22416,-3.46315 -0.53796,-7.00476 -3.65368,-8.95489 m -95.60106,5.02102 c -2.2079,6.20902 -4.5615,13.93108 1.24405,19.01934 6.13057,-5.73831 13.5276,-10.23256 21.69796,-12.31718 12.16028,-3.27263 24.85852,-1.19922 37.24295,-2.36481 -9.97479,-3.03727 -20.26339,-5.30121 -30.68649,-6.00729 -9.9972,-1.07593 -19.66938,6.06333 -29.49847,1.66994 m 145.31809,-1.80443 c -0.56038,3.5304 0.13449,7.01597 3.11572,9.24629 1.14318,-3.48557 0.22415,-7.38583 -3.11572,-9.24629 m -212.81042,5.05464 c -3.79939,5.61502 -10.80415,8.29364 -13.42674,14.81648 10.70329,0.90782 21.28329,-1.08714 31.50464,-4.1132 10.94985,-3.22779 23.89466,-2.56654 32.82714,5.21155 5.12189,4.53909 11.00589,8.3721 17.84254,9.64977 -0.96385,-2.23032 -1.44578,-4.70721 -2.82432,-6.72458 -20.22977,-11.12917 -42.7683,-17.97703 -65.92326,-18.84002 m 131.53271,3.85542 c -20.45392,1.08714 -45.12191,-2.68983 -60.43152,14.26731 1.81563,11.82405 15.87,15.69068 25.32923,20.15131 5.60382,-6.98235 12.07062,-13.819 20.55479,-17.19249 10.33343,-4.13562 22.07903,-1.24405 32.3228,-5.67106 6.04091,-2.52172 10.24377,-7.72206 14.65957,-12.31719 -0.95265,-0.77332 -1.89409,-1.52423 -2.82432,-2.27514 -9.49286,3.6761 -19.78146,1.3337 -29.61055,3.03726 m 42.53294,5.67106 c 0.4371,-3.21659 -0.19053,-6.38835 -2.21911,-8.95489 -2.60017,2.92519 -1.34491,7.4979 2.21911,8.95489 m 21.95575,-7.54273 c -0.50435,3.66489 -0.77333,9.13421 3.79938,10.27739 2.82432,-3.48557 0.95265,-9.71701 -3.79938,-10.27739 m 11.77921,-0.79574 c -0.67246,3.46315 0.36985,6.80303 2.76829,9.36957 0.98627,-3.41832 0.77332,-7.53152 -2.76829,-9.36957 m 13.86384,1.07593 c -1.08714,2.67862 -2.89157,4.92015 -5.50295,6.24265 -0.47072,0.96385 -0.94144,1.92771 -1.40095,2.90277 2.55534,6.89269 3.10451,14.67079 0.49313,21.63072 -1.64752,5.00981 -4.88652,9.79547 -4.35976,15.276 1.04231,5.74951 7.27375,8.87644 12.73186,8.34968 10.44551,-0.79574 20.89102,-6.94873 25.2732,-16.68816 3.65369,-7.32978 7.28496,-15.2872 14.52508,-19.77025 -0.17932,-6.36593 -4.97618,-11.27487 -11.29728,-11.73439 -10.32223,-0.96385 -21.31691,-0.39226 -30.46233,-6.20902 m -32.69265,1.00869 c -1.92771,3.46315 -0.32502,8.19277 3.37349,9.68339 0.40348,-3.54161 -0.0336,-7.68844 -3.37349,-9.68339 m -11.00589,0.62762 c -0.60521,3.39591 0.38106,6.72458 3.20538,8.82041 0.77333,-3.35109 -0.0224,-7.03839 -3.20538,-8.82041 m -27.89578,14.49146 c -10.32223,4.29253 -22.11265,1.33371 -32.40125,5.70469 -7.85655,3.37349 -13.89746,9.72822 -19.07539,16.34072 5.85039,11.00589 20.03924,14.07678 31.23566,10.7369 3.77697,-10.53517 10.94985,-21.11517 22.43767,-23.9619 8.10311,-2.53293 20.54358,-2.74587 21.77642,-13.53882 -4.38218,-0.65004 -7.06081,-4.06836 -8.31606,-8.0919 -4.57271,4.95377 -9.2575,10.22135 -15.65705,12.81031 m -135.98214,-3.63127 c -8.9661,3.00365 -18.41413,3.50799 -27.79492,3.28384 5.02102,8.70832 -4.80807,19.6918 3.41833,26.79743 8.34968,-2.8019 16.50883,-6.51163 23.43515,-12.03699 6.39955,-4.89773 13.69572,-10.50154 22.28076,-9.21267 10.69207,2.67863 21.27207,6.72458 32.55815,5.17793 -7.53152,-1.88288 -14.12161,-6.06333 -19.85991,-11.18521 -9.56011,-7.89017 -23.00926,-6.27628 -34.03756,-2.82433 m 183.16624,1.53545 c -3.57523,-0.21295 -7.19529,0.28019 -10.70328,-0.65004 -1.37854,8.9661 -4.38218,18.24601 -11.63352,24.21968 -5.97366,4.92015 -11.92491,10.50154 -13.41553,18.48137 5.39087,3.74335 12.14907,5.21155 18.53742,3.40712 5.18913,-1.7708 10.24377,1.4682 15.47773,0.78454 5.76072,-0.66125 10.77053,-3.8218 15.5786,-6.84786 -3.10451,-4.80807 -4.20286,-10.68087 -1.6251,-15.98208 3.72093,-8.15915 5.78313,-17.3382 2.98123,-26.12498 -5.44691,-0.87419 -9.79547,3.72093 -15.19755,2.71225 m -20.66686,-0.98627 c -1.68114,12.00337 -15.47773,12.18269 -24.57833,15.01822 -9.96358,3.12693 -16.1726,12.55254 -19.24349,22.05661 6.45559,7.31858 16.95714,7.82292 25.7215,5.04343 1.7596,-7.76689 7.01598,-13.84142 13.14655,-18.59345 6.97114,-5.4357 10.26619,-13.93108 11.74559,-22.38163 -2.28635,-0.30261 -4.55029,-0.66125 -6.79182,-1.14318 m -153.95917,14.61474 c -9.16784,6.48922 -18.35809,13.14655 -29.01655,17.0468 6.41076,2.30877 12.97843,4.2589 18.84002,7.84534 5.37966,-5.36845 11.21884,-10.63604 18.55983,-13.14654 12.74308,-5.34604 29.22949,0.19053 39.59655,-10.61363 -9.986,1.97255 -20.2746,0.45952 -29.76746,-2.95881 -5.98487,-2.27515 -12.92239,-2.00617 -18.21239,1.82684 m 52.04822,1.69235 c -8.55142,10.51276 -22.79632,9.14543 -34.83331,10.99469 -10.03082,1.27767 -18.86243,7.07201 -25.38527,14.60353 9.58252,3.79939 5.77193,15.60102 12.59737,21.46261 5.8728,-3.88905 14.39059,-3.76576 18.12273,-10.47913 5.80555,-8.23761 17.327,-6.79182 25.94566,-5.03223 4.66237,-8.58504 9.47045,-17.51752 10.03083,-27.4811 -2.18549,-1.3225 -4.33735,-2.68983 -6.47801,-4.06837 m -0.44831,32.56937 c 5.97367,1.6251 11.79043,3.8218 17.21492,6.82544 -2.24153,-9.64976 -1.69235,-19.93837 2.66741,-28.93809 -3.28383,-1.60269 -6.6125,-3.11572 -9.88512,-4.72962 -1.21043,9.64977 -5.65986,18.29085 -9.99721,26.84227 m 21.8885,-19.51248 c -4.04595,9.986 -4.06837,21.47381 0.61642,31.24686 8.0919,-0.57158 13.55002,-6.80303 20.39788,-9.96358 8.06949,1.0199 17.99945,3.88905 24.05157,-3.56402 -5.65985,-1.73718 -9.73943,-8.20398 -16.20623,-6.22023 -10.92744,1.82684 -22.32559,-2.47689 -28.85964,-11.49903 m -164.50555,20.96947 c -3.3847,2.11824 -3.02606,7.77809 0.49314,9.59373 3.79938,2.25273 9.27991,-1.21042 8.3833,-5.68227 -0.24657,-4.18044 -5.67106,-6.22023 -8.87644,-3.91146 m 107.44752,12.631 c -2.17428,17.43906 8.77557,32.75989 20.96947,43.9451 5.45811,4.48305 7.59877,11.3197 10.35585,17.52873 -1.58028,-11.64472 -6.28748,-22.58337 -11.77922,-32.87197 -3.66489,-13.19138 -3.73214,-27.22333 -2.11824,-40.75093 -7.95742,0.69487 -10.03083,10.17652 -17.42786,12.14907 m 20.81256,-12.0482 c -2.37601,12.84394 -1.7708,26.36034 1.42337,39.00254 4.696,9.02214 8.56263,18.41413 11.42057,28.19839 -2.5105,-21.57468 10.07566,-41.03112 9.41441,-62.33682 -7.09443,-2.81312 -14.53629,-5.06585 -22.25835,-4.86411 m 25.32924,6.30989 c 0.41468,17.46148 -8.6747,33.29786 -9.47044,50.59123 9.80667,-12.84394 18.85122,-27.35782 18.68311,-44.11322 -2.58896,-2.77949 -5.95125,-4.62875 -9.21267,-6.47801 m -63.60328,25.11629 c 6.52284,12.49651 18.54862,21.21604 30.74252,27.70526 6.94873,2.17428 11.85767,7.935 14.36818,14.60353 -1.56907,-5.85038 -4.06837,-11.64472 -8.88765,-15.55618 -12.51892,-11.6111 -23.55843,-27.25695 -21.93333,-45.20036 -8.33847,2.10703 -14.05436,9.97479 -14.28972,18.44775 m 77.36625,-17.01318 c -1.71477,12.66462 -5.30121,25.49736 -13.44916,35.60664 -6.98235,8.57383 -10.25498,19.81508 -9.35836,30.80976 15.63463,-15.06305 32.37883,-32.93921 33.66771,-55.81398 -2.03979,-4.72962 -5.5814,-9.38078 -10.86019,-10.60242 m 97.03563,3.91147 c -6.30989,1.51303 -3.70972,12.30597 2.80191,10.37826 6.98235,-1.09835 4.14682,-13.05689 -2.80191,-10.37826 m -83.54165,10.19894 c -1.43458,20.64445 -17.21492,35.13591 -29.30795,50.19896 5.1331,-2.27515 7.87897,-7.57636 12.00337,-11.15159 5.90642,-6.15299 14.08799,-9.10059 21.12638,-13.57244 6.63491,-7.50911 2.7907,-19.22108 -3.8218,-25.47493 m 183.36798,2.16307 c -4.07957,1.50182 -4.72961,7.85655 -0.72849,9.8403 3.29504,2.3536 8.47296,-0.61642 7.90138,-4.70721 0.40347,-3.79938 -3.76577,-6.54525 -7.17289,-5.13309 m -279.50701,6.52284 c 2.08462,8.78678 8.31606,16.07174 15.89242,20.77894 8.58504,6.63491 22.00057,5.5814 27.72767,16.02691 1.04231,-0.75092 2.07341,-1.49062 3.12693,-2.21911 -1.9053,-2.47689 -3.64248,-5.21155 -6.26507,-6.97115 -14.64837,-6.69095 -28.46737,-16.58729 -37.27656,-30.31663 -1.08714,0.8742 -2.1967,1.72597 -3.20539,2.70104 m -2.71224,3.64248 c -0.10087,0.87419 -0.2914,2.61137 -0.38106,3.47436 1.18801,0.51555 2.39843,1.0311 3.60886,1.54665 -1.18801,-1.61389 -2.27515,-3.27262 -3.2278,-5.02101 m -20.92464,11.54385 c 6.53405,3.74335 12.86635,8.30485 20.67807,8.77557 11.09555,1.04231 16.93473,11.52145 23.41273,19.19867 3.5192,3.73214 5.73831,9.64977 11.28608,10.65845 -10.07565,-15.45531 -19.5461,-32.21072 -35.52817,-42.51053 -6.04091,-5.91762 -15.24238,-1.73718 -19.84871,3.87784 m -4.20286,7.37462 c 3.51919,4.49426 9.63856,4.10199 14.48025,6.14178 14.51388,6.1754 23.93949,20.39788 38.83443,25.856 -6.13057,-7.55394 -11.63352,-15.66827 -18.40292,-22.68424 -5.76072,-6.19782 -15.16392,-4.19165 -22.06782,-8.13674 -3.27263,-1.92771 -6.39956,-4.10199 -9.78426,-5.83917 -1.01989,1.54665 -2.03979,3.0933 -3.05968,4.66237 m 119.35002,3.69852 c -7.31858,3.78818 -12.79911,10.07566 -18.23481,16.09415 1.41216,2.89157 1.34492,5.97367 -0.0897,8.84282 0.95265,1.45699 1.89409,2.92519 2.85794,4.39339 1.1768,-0.53797 2.37602,-1.05352 3.56403,-1.56907 1.07593,0.69487 2.15186,1.40095 3.239,2.10703 16.86748,-8.05828 25.93445,-25.41889 40.57161,-36.20063 -11.01709,-4.31494 -22.35921,0.96385 -31.90811,6.33231 m 11.52144,20.25218 c 12.0482,-4.63996 18.17877,-17.41665 29.46485,-23.47998 -14.02074,0.15691 -20.11769,15.34324 -29.46485,23.47998 m 32.21072,-21.3057 c -8.6635,4.33735 -14.8389,12.0482 -21.70917,18.62708 -5.2788,5.03222 -12.74308,6.1754 -18.9521,9.5489 12.9336,-3.23901 26.45,-3.45195 39.26032,-7.18409 7.02718,-1.64752 10.96106,-8.38331 13.0793,-14.74924 -2.62259,0.42589 -5.2788,0.39227 -7.59877,-1.07593 0.67245,-1.77081 1.37853,-3.50799 2.0622,-5.25638 -2.02858,-0.42589 -4.22528,-1.08714 -6.14178,0.0897 m -171.38703,10.18773 c 14.12161,-3.08209 27.4811,2.51051 39.66379,8.98852 -4.15803,-4.52788 -9.23509,-8.11432 -14.53629,-11.18521 -6.02971,-3.6761 -13.89746,-3.10451 -19.20988,-8.14795 -3.02605,2.75708 -6.39955,5.80556 -5.91762,10.34464 m 54.28974,-9.63855 c 4.52788,6.72457 8.85403,13.59485 13.42674,20.29701 2.63379,-4.74083 7.99104,-5.1331 9.96358,0.36985 2.82432,-4.4046 -1.05352,-9.95237 -4.78566,-12.82153 -5.63743,-3.79938 -12.59737,-4.77445 -18.60466,-7.84533 m -53.58366,12.7879 c -1.58028,7.90137 4.4046,14.5475 9.27991,19.9832 9.35837,-3.47437 20.11769,-5.30121 29.35278,-0.34744 8.30485,4.62875 18.91847,6.06333 27.39144,1.06472 -9.51528,-2.67862 -18.10032,-7.6548 -27.22333,-11.35332 -11.89129,-6.23144 -24.92576,-13.29225 -38.8008,-9.34716 m 80.32506,4.47184 c 0.63884,-0.0785 1.9165,-0.24657 2.55534,-0.32502 0.0897,-1.79322 0.10087,-3.59765 0.0897,-5.36845 -1.19922,1.73718 -2.11824,3.63127 -2.645,5.69347 m 19.15384,0.68367 c -1.7596,3.35108 3.72093,0.1569 0,0 m -27.59318,1.31129 c -1.34492,0.51555 -2.051,2.61138 -1.07593,3.75455 1.97254,0.84058 3.28383,-3.56402 1.07593,-3.75455 m 10.63604,0.35864 c 2.02858,1.30009 4.19165,2.57776 5.42449,4.76324 -0.78454,0.12329 -2.36481,0.39227 -3.16055,0.51555 -3.10452,3.56403 -8.84282,2.17428 -12.12666,5.78314 4.06837,-0.77333 8.19278,-2.15186 12.36202,-1.14318 -0.59401,0.5828 -1.77081,1.74839 -2.36481,2.33119 0.96385,0.11207 2.88036,0.34744 3.83301,0.47072 -1.7596,4.51667 -8.41693,3.0933 -9.99721,7.80051 3.27263,-1.36733 6.0185,-4.93136 9.86271,-3.79939 -0.97506,2.03979 -2.99243,3.11572 -4.80807,4.29252 1.26646,0.69488 2.53293,1.42337 3.79939,2.17428 2.68983,-0.13449 4.96498,1.22163 6.87027,3.02606 0.48193,-3.41832 0.84057,-6.84786 1.38975,-10.24377 4.18044,2.45447 1.81563,7.27375 1.72597,11.08434 3.63127,-1.28887 7.0496,-3.12692 10.16532,-5.40207 -1.44578,-3.10451 -6.14178,-4.79687 -6.19782,-8.04708 5.21155,-0.62763 7.81172,5.51415 9.87392,9.4032 3.46316,-4.59513 -2.34239,-7.43066 -5.08826,-10.26619 1.14318,-2.09582 4.1132,-0.25777 6.0185,-0.594 -2.71225,-2.89157 -8.68592,-1.49061 -9.68339,-5.70468 -1.70356,-1.81564 -3.33988,-3.68731 -4.92015,-5.61502 -0.63884,-0.0785 -1.91651,-0.24657 -2.55534,-0.33623 -0.40348,1.35612 -0.79574,2.72345 -1.18801,4.09078 -2.94761,-1.79322 -5.99608,-3.39591 -9.23508,-4.58392 m 23.76016,0.54918 c -3.76576,2.68983 3.67611,2.48809 0,0 m -34.50828,7.07201 c 3.56403,-1.74839 7.3522,-2.86915 11.18521,-3.81059 -4.2589,-0.71729 -8.54021,0.14569 -11.18521,3.81059 m 47.22894,8.26002 c 1.24405,4.51667 -1.50182,8.03587 -4.43822,11.10676 9.10059,1.26646 18.0667,4.68479 27.38023,3.58644 5.21155,-0.39227 8.17036,-5.25638 11.0171,-9.01093 4.2589,-6.6125 10.60242,-11.39816 15.89242,-17.11405 -16.60971,3.79939 -34.42983,3.28383 -49.85153,11.43178 M 294.69186,709.362 c -1.04231,0.86298 -1.64752,3.59765 0.17932,3.90025 2.09583,-0.24657 2.40964,-5.37966 -0.17932,-3.90025 m 145.75519,0.16811 c -5.80555,3.04848 -1.08714,12.81032 5.02102,9.62735 6.29868,-3.00364 1.42337,-13.26983 -5.02102,-9.62735 m -99.89358,2.11824 c -4.63996,3.14935 3.69852,2.9364 0,0 m -103.93953,5.03223 c 0.34744,8.78678 8.64108,13.29224 15.93724,15.85879 6.35473,-5.82797 15.41049,-9.56011 24.02916,-7.24013 5.5814,0.99748 12.12665,4.29252 17.13646,-0.0112 -1.13197,-2.47688 -1.7596,-5.13309 -2.1967,-7.8005 -4.16923,1.44578 -8.529,2.67862 -12.98964,2.31998 -9.88512,-0.2914 -17.92099,-8.33848 -28.03027,-7.32979 -4.77445,0.48193 -9.96358,1.31129 -13.88625,4.20286 m 62.78513,-0.54918 c 3.17175,-0.78453 6.08574,-2.31998 8.8204,-4.09078 -3.25021,0.53797 -6.94873,0.99748 -8.8204,4.09078 m -3.93388,5.48053 c 2.02858,-0.99748 2.70104,-3.07089 3.20538,-5.09947 -2.2079,0.84057 -2.91398,2.92519 -3.20538,5.09947 m 46.46682,-3.17176 c -1.19922,0.45952 -2.09583,2.29757 -1.24405,3.41833 1.71477,0.70608 3.29505,-3.19417 1.24405,-3.41833 m -41.80445,3.3735 c -0.98627,0.79574 -1.34491,3.3735 0.35865,3.50799 1.97254,-0.31382 1.99495,-5.03223 -0.35865,-3.50799 m 35.77475,6.67975 c 1.27767,-1.58028 2.24152,-3.3735 3.00364,-5.23397 -2.17428,0.88541 -2.75708,3.09331 -3.00364,5.23397 m -28.71394,-3.48558 c -1.00869,1.19922 -1.15439,2.47689 -0.42589,3.83301 2.53292,1.27767 3.25021,-5.49173 0.42589,-3.83301 m 24.53349,-0.11207 c -1.40095,0.51555 -2.03979,2.61137 -1.21042,3.86663 1.93892,0.8854 3.27263,-3.47437 1.21042,-3.86663 m -19.6918,7.80051 c 2.48809,-1.78202 3.19417,-4.61755 2.53292,-7.49791 -2.67862,1.72598 -3.57523,4.48305 -2.53292,7.49791 m -17.51752,-4.49426 c -5.31242,4.48305 -12.24994,1.09835 -18.15636,0.0224 -7.90137,-2.21911 -16.11656,1.24405 -21.8997,6.62371 2.12945,6.23144 8.05829,9.63856 14.23369,10.81536 8.79798,-8.32727 23.45756,-5.48053 30.67527,-16.22864 -1.55786,-0.53797 -3.25021,-2.9364 -4.8529,-1.23284 m 32.34521,-0.8742 c -1.45699,0.41469 -2.09582,2.60017 -1.12076,3.76577 1.95013,0.96385 3.13813,-3.39592 1.12076,-3.76577 m -120.6389,1.13197 c -4.74082,2.54413 -1.00868,10.15411 3.93388,7.59877 5.15551,-2.30877 1.0311,-10.13169 -3.93388,-7.59877 m 114.19452,1.25526 c -1.04231,0.89661 -1.6139,3.63127 0.24656,3.91146 2.10704,-0.22415 2.24153,-5.37966 -0.24656,-3.91146 m -18.03308,1.05351 c -4.60633,5.49174 -10.78173,9.85151 -17.97703,11.0171 -4.97619,0.76212 -9.78426,2.56655 -13.43794,6.14178 3.60885,7.00477 12.23872,6.81424 17.59597,11.66714 4.03475,3.3735 9.50407,2.80191 14.4018,2.83553 -0.51555,-11.70076 16.57608,-13.43794 15.79155,-25.22837 -5.97367,-0.69487 -11.48782,-2.89157 -16.37435,-6.43318 m 30.09248,1.74839 c 4.57271,7.74447 14.16644,9.43683 19.91596,15.83638 3.11572,3.11572 1.96133,7.65481 0.81815,11.36453 8.41693,7.78931 23.13254,0.2802 24.3878,-10.27739 0.52676,-3.56402 3.81059,-5.67106 5.20034,-8.83161 -4.78566,-2.30877 -12.67583,-0.12328 -13.9535,-7.08322 -12.33959,2.14066 -24.65678,-7.341 -36.36875,-1.00869 m -17.11404,17.68564 c -3.39591,3.51919 -10.66966,6.27627 -8.43935,12.3396 4.20286,6.83665 13.8078,7.18409 20.8686,5.60381 7.87897,-2.72345 13.90867,-10.00841 22.72907,-10.18773 1.26646,-3.23901 1.18801,-6.97115 -1.90529,-9.14543 -6.11937,-4.7072 -13.93108,-7.3522 -18.36931,-14.08798 -9.87391,-0.41469 -8.28243,11.05072 -14.88372,15.47773 m -21.81005,19.66939 c -4.76324,1.14317 -3.0933,9.16783 1.73719,8.3833 5.64864,-0.45951 3.92267,-10.47913 -1.73719,-8.3833 m 3.41833,13.56122 c -6.44439,2.31998 -2.68983,12.75428 3.75456,10.36706 6.64612,-2.02858 2.99243,-13.31466 -3.75456,-10.36706 m 47.28498,26.01291 c -3.97871,2.46567 -1.1768,9.66097 3.60885,7.7893 5.50295,-1.74839 1.79322,-10.92744 -3.60885,-7.7893 z" />
</svg>
