<?xml version="1.0" encoding="UTF-8" standalone="no"?>
<svg
   xmlns:dc="http://purl.org/dc/elements/1.1/"
   xmlns:cc="http://creativecommons.org/ns#"
   xmlns:rdf="http://www.w3.org/1999/02/22-rdf-syntax-ns#"
   xmlns:svg="http://www.w3.org/2000/svg"
   xmlns="http://www.w3.org/2000/svg"
   xmlns:sodipodi="http://sodipodi.sourceforge.net/DTD/sodipodi-0.dtd"
   xmlns:inkscape="http://www.inkscape.org/namespaces/inkscape"
   id="svg3369"
   version="1.1"
   viewBox="0 0 210 297"
   height="297mm"
   width="210mm"
   sodipodi:docname="sleeping_cat.svg"
   inkscape:version="0.92.4 (5da689c313, 2019-01-14)">
  <sodipodi:namedview
     pagecolor="#ffffff"
     bordercolor="#666666"
     borderopacity="1"
     objecttolerance="10"
     gridtolerance="10"
     guidetolerance="10"
     inkscape:pageopacity="0"
     inkscape:pageshadow="2"
     inkscape:window-width="3840"
     inkscape:window-height="2004"
     id="namedview8"
     showgrid="false"
     inkscape:zoom="0.2102413"
     inkscape:cx="396.85039"
     inkscape:cy="561.25984"
     inkscape:window-x="-16"
     inkscape:window-y="-16"
     inkscape:window-maximized="1"
     inkscape:current-layer="svg3369" />
  <title
     id="title3974">Sleeping Cat</title>
  <defs
     id="defs3363" />
  <metadata
     id="metadata3366">
    <rdf:RDF>
      <cc:Work
         rdf:about="">
        <dc:format>image/svg+xml</dc:format>
        <dc:type
           rdf:resource="http://purl.org/dc/dcmitype/StillImage" />
        <dc:title>Sleeping Cat</dc:title>
        <cc:license
           rdf:resource="http://creativecommons.org/licenses/by-sa/4.0/" />
        <dc:date>2020-04-21</dc:date>
        <dc:creator>
          <cc:Agent>
            <dc:title>Just a little doodle of a sleeping cat by Chelsea Dover</dc:title>
          </cc:Agent>
        </dc:creator>
        <dc:source>http://www.supercoloring.com/coloring-pages/sleeping-cat</dc:source>
        <dc:subject>
          <rdf:Bag>
            <rdf:li>csk</rdf:li>
            <rdf:li>acb</rdf:li>
            <rdf:li>cat</rdf:li>
            <rdf:li>animals</rdf:li>
          </rdf:Bag>
        </dc:subject>
      </cc:Work>
      <cc:License
         rdf:about="http://creativecommons.org/licenses/by-sa/4.0/">
        <cc:permits
           rdf:resource="http://creativecommons.org/ns#Reproduction" />
        <cc:permits
           rdf:resource="http://creativecommons.org/ns#Distribution" />
        <cc:requires
           rdf:resource="http://creativecommons.org/ns#Notice" />
        <cc:requires
           rdf:resource="http://creativecommons.org/ns#Attribution" />
        <cc:permits
           rdf:resource="http://creativecommons.org/ns#DerivativeWorks" />
        <cc:requires
           rdf:resource="http://creativecommons.org/ns#ShareAlike" />
      </cc:License>
    </rdf:RDF>
  </metadata>
  <g
     id="layer1">
    <path
       style="opacity:1;fill:#000000;stroke-width:0.42410481"
       d="m 134.84749,123.5804 c -5.62242,0.15869 -11.27573,0.47296 -16.74111,1.90516 -18.538928,4.20825 -35.228952,14.27959 -49.548779,26.54384 -4.014455,3.30862 -7.649371,7.10616 -11.709781,10.31434 -1.744533,-1.73246 -2.881786,-4.0048 -4.765388,-5.64175 -5.502313,-5.32533 -12.372025,-9.17028 -19.697671,-11.35143 -3.499213,3.10538 -6.020327,7.22356 -7.737771,11.54143 -1.503823,4.63342 -0.892359,9.60258 -1.161184,14.38879 -0.0096,1.29444 0.29694,2.76035 -1.271753,3.20768 -6.794215,4.34768 -10.934499,12.38114 -11.064351,20.38627 -0.02789,1.24639 0.197351,2.50829 0.04312,3.74157 -4.1189479,3.08013 -7.0588879,7.96487 -7.0929819,13.18121 0.245631,5.68089 3.114834,11.71082 8.4315619,14.23484 4.356212,1.54426 9.083707,1.57055 13.655848,1.62353 4.795555,0.002 9.56455,-0.62798 14.229868,-1.71133 3.053972,-0.44219 6.119067,0.58866 9.21574,0.45942 3.03339,0.10563 6.065529,-0.079 9.09698,-0.16288 -1.968092,3.89844 -2.997004,8.34121 -2.309738,12.701 0.63118,5.0646 3.519474,9.79711 7.882916,12.49399 7.750742,5.30757 17.152644,7.18136 26.195509,9.01932 13.588735,2.70086 27.780475,2.84023 41.265625,-0.52704 14.32556,-3.57755 27.88415,-10.2083 39.5887,-19.20309 16.28891,-12.5472 28.64949,-30.59468 32.88021,-50.84888 2.22315,-10.59531 2.68213,-22.03708 -1.50972,-32.22182 -2.50488,-6.23653 -6.67347,-11.66746 -11.66442,-16.12469 -9.82401,-9.05546 -22.80556,-13.73827 -35.74088,-16.18845 -6.72565,-1.42036 -13.6131,-1.77284 -20.4705,-1.76103 z m 0.825,3.73329 c 12.42531,-0.0284 24.86685,2.26803 36.44816,6.80306 10.71496,4.38401 20.55882,11.92247 25.98794,22.33198 4.76204,9.57765 4.7391,20.76887 2.75937,31.06924 -3.77427,19.75084 -15.47139,37.53027 -31.22406,49.86113 -12.90469,10.17193 -28.40302,16.92778 -44.47958,20.06849 -6.6854,1.32162 -13.56647,1.08451 -20.35703,1.00807 -10.060816,-0.62597 -20.033116,-2.60648 -29.587391,-5.806 -5.547086,-2.00328 -11.595079,-4.84868 -14.143459,-10.54191 -1.400099,-3.65415 -1.299852,-7.83842 -0.189689,-11.54444 2.066415,-6.2022 8.160717,-10.57694 14.498921,-11.31808 4.622409,-0.36979 9.482497,-0.30662 13.708553,1.85519 7.475742,3.49143 14.372145,8.67914 22.699175,10.02865 7.27572,0.88343 14.82113,0.48157 21.73734,-2.09344 7.28517,-2.63602 14.41914,-6.20512 20.14581,-11.50246 2.55435,-2.41761 4.65695,-5.89321 4.23329,-9.52527 -0.0938,-1.381 -1.79825,-1.79123 -2.73929,-0.96501 -1.14302,1.21533 -0.87155,3.14531 -1.76061,4.52763 -2.58678,4.61645 -7.37125,7.41116 -11.85997,9.91052 -8.05481,4.38758 -17.21118,6.96576 -26.42915,6.25436 -7.77796,-0.35165 -14.43263,-4.97069 -21.163109,-8.41276 -4.295445,-2.33244 -9.011111,-3.86356 -13.890146,-4.28924 -1.453877,0.13256 -2.089449,-0.46065 -1.693112,-1.88074 0.21875,-2.8882 3.206729,-4.65137 5.900189,-4.55912 9.820487,-0.5675 19.708268,-0.17668 29.533258,-0.86147 4.84292,-0.63862 9.32277,-3.21236 12.80954,-6.566 1.17775,-1.3014 2.83047,-3.05241 2.17992,-4.96601 -0.36325,-0.91874 -1.6905,-1.57539 -2.38062,-0.59804 -1.34002,1.21808 -2.21013,2.98908 -3.67115,4.14578 -3.4871,3.09597 -8.23887,4.47709 -12.84832,4.3921 -9.23439,0.29026 -18.488034,0.29811 -27.715812,0.51659 -2.886499,1.31804 -6.071284,3.02358 -7.169938,6.2293 -0.575383,1.44897 -0.493602,3.03374 -0.514488,4.56052 -4.22553,0.82531 -8.131258,2.80773 -11.55188,5.38166 -3.935495,2.27521 -8.761506,1.69019 -13.13979,1.8286 -1.9285,0.2826 -2.116009,-0.19328 -0.582275,-1.37466 3.478375,-3.22686 4.220846,-8.72553 2.052565,-12.88386 -2.335881,-4.88011 -7.543578,-7.69464 -12.73656,-8.4408 -7.143169,-1.19734 -14.573341,-0.45827 -21.388971,1.96492 -0.958175,0.35923 -1.398624,-0.54098 -1.440797,-1.33217 -1.027308,-4.05388 -1.094855,-8.38931 0.442902,-12.33115 1.410486,-4.25053 4.139017,-8.02722 7.924383,-10.46842 1.066291,-0.86921 2.595826,-1.46543 3.431778,-2.41043 -0.170438,-5.05818 -0.32552,-10.1697 0.202272,-15.19453 1.097741,-3.73268 2.732699,-7.53958 5.543011,-10.30146 1.464568,-0.13817 2.846538,0.85727 4.219692,1.32333 5.962269,2.85725 11.65698,6.90947 15.457285,12.31594 -1.562571,0.85517 -4.095803,0.90445 -4.847378,2.82129 -0.252988,1.35448 1.3347,2.39061 2.555801,1.88546 3.971929,-1.11835 7.866838,-2.56306 11.929236,-3.33436 11.250628,-2.55481 22.980269,-2.53561 34.340598,-0.8181 2.94696,0.55578 5.997066,1.03491 8.376326,2.96031 1.15921,0.83135 3.25219,0.2611 3.25451,-1.32367 -0.55151,-1.61564 -2.23169,-2.46059 -3.47568,-3.45496 -0.35356,-0.51045 0.70442,-1.03814 0.9065,-1.52023 3.15795,-3.95643 7.64451,-6.83977 12.65728,-7.68821 1.38323,-0.34678 3.33621,-0.79678 4.22791,0.70233 3.69652,5.31936 5.1863,11.97191 5.00809,18.36406 -0.12984,2.31907 -0.9948,4.84781 0.29838,7.00285 0.89933,1.63445 1.44973,3.77641 3.18144,4.73625 1.43579,0.81726 3.12113,-0.98454 2.25304,-2.36655 -0.87054,-1.79597 -2.33795,-3.40999 -2.16405,-5.54398 -0.0689,-3.15786 0.20234,-6.31706 -0.18356,-9.46541 -0.0765,-5.29886 -2.45896,-10.26001 -5.23434,-14.65679 -0.88755,-1.21585 -1.89654,-2.6062 -3.00244,-3.44629 -5.21587,1.13472 -10.93416,1.80551 -15.15243,5.39982 -2.63792,2.00942 -4.93627,4.4379 -6.79748,7.18002 -5.960527,-1.33165 -12.054861,-1.60984 -18.132813,-1.79279 -5.173266,-0.01 -10.343952,0.13929 -15.466746,0.86253 -0.665001,-0.008 -3.040587,0.80827 -2.526483,0.19328 14.7626,-13.63277 31.997247,-25.44014 51.663022,-30.47034 6.226,-1.56392 12.64345,-2.51442 19.07311,-2.43611 z m 19.67698,35.32411 c -4.9068,0.55021 -8.85871,4.03151 -12.01642,7.57783 -5.95794,6.8419 -9.4825,15.8189 -9.45864,24.91824 -0.17104,4.87538 0.38091,9.82608 2.3173,14.34209 0.53661,1.07161 0.92794,3.08021 2.53898,2.74897 1.09818,-0.10724 1.87873,-1.21892 1.40982,-2.27294 -0.94077,-3.18113 -2.12797,-6.3031 -2.41116,-9.6312 -0.66155,-6.989 0.36773,-14.16666 3.59421,-20.43435 2.34075,-4.60524 5.63493,-8.82234 9.81303,-11.88852 1.92786,-1.33769 4.36301,-1.3549 6.49824,-2.10561 0.83483,-0.42311 1.39383,-1.60697 0.54007,-2.31767 -0.69304,-0.7963 -1.82021,-0.99578 -2.82543,-0.93684 z M 53.830219,177.72997 c -1.333033,0.0894 -2.113701,1.49916 -3.50633,1.49099 -1.722814,0.37707 -3.436844,-0.0987 -4.981574,-0.83578 -0.86349,-0.49069 -2.309288,0.0943 -1.972243,1.22344 0.826335,1.43851 2.602446,2.01913 4.095866,2.50614 2.761231,0.67254 5.861959,-0.50149 7.67303,-2.6337 0.157727,-0.80601 -0.327075,-1.85108 -1.308749,-1.75109 z m 36.405907,1.44046 c -2.055483,0.45055 -3.943189,2.59068 -6.183456,1.60816 -1.232001,-0.24752 -2.448598,-1.66902 -3.743241,-1.05815 -0.718507,0.40081 -1.212622,1.38165 -0.419964,1.988 2.545574,2.5147 6.775717,2.36311 9.785047,0.8159 0.869069,-0.50747 2.367186,-1.63733 1.436613,-2.73506 -0.207673,-0.29389 -0.474687,-0.63478 -0.874999,-0.61885 z m -23.974333,4.38104 c -1.226167,1.31479 -3.05846,2.75703 -2.818808,4.76456 0.236061,0.81699 1.053885,1.44664 1.923371,1.04037 1.558819,-0.006 3.440354,0.15324 4.676747,-0.95837 1.173911,-1.57538 -0.455677,-3.48414 -1.839715,-4.2601 -0.569307,-0.34102 -1.433407,-0.56722 -1.941595,-0.58646 z m 16.80183,2.32014 c -2.689549,0.2209 -5.450443,0.32841 -8.04723,1.0992 -1.062605,0.37991 -0.230916,1.95261 0.71817,1.56472 3.123858,-0.89952 6.387138,-1.39077 9.622704,-1.62353 0.556019,-0.58734 -0.720831,-0.99727 -1.202732,-1.00891 -0.362339,-0.038 -0.727002,-0.0399 -1.090912,-0.0314 z m -29.65917,0.3504 c -3.091015,0.18442 -6.238933,0.46106 -9.217647,1.31372 -0.681496,0.27509 -2.185817,0.80596 -2.047164,1.17692 4.350794,-0.77505 8.835175,-0.41853 13.218845,-0.93836 0.329095,-0.2069 0.986547,-0.66079 0.330505,-0.96003 -0.579999,-0.60628 -1.507526,-0.59505 -2.284539,-0.59225 z m 24.690852,3.35804 c -0.844512,0.14763 -2.384834,-0.28427 -2.769117,0.7629 -0.152758,0.82313 0.739666,1.51866 1.473609,1.07102 1.325627,-0.41715 2.780449,-0.33235 4.082835,-0.73472 0.584791,-0.30601 0.195267,-0.94229 -0.375227,-0.92525 -0.802131,-0.15099 -1.60282,-0.18422 -2.4121,-0.17395 z m -23.992574,0.0513 c -1.926112,0.35807 -3.715863,1.27768 -5.47774,2.10147 -0.339065,0.13464 -1.18526,0.87372 -0.438189,0.99897 2.091516,-0.59978 4.49044,-0.54618 6.343346,-1.79086 0.395071,-0.34695 0.31422,-1.48137 -0.427417,-1.30958 z m 22.024466,2.13792 c -1.99361,0.56453 -3.008256,2.87424 -5.128195,3.26858 -1.302257,0.44938 -2.295279,-0.52389 -2.908267,-1.52081 -0.352545,-0.35097 -0.974765,-0.57024 -1.282252,-0.66598 -1.544441,0.694 -2.975012,1.73581 -4.621254,2.17105 -1.221438,0.008 -1.367416,-1.32654 -1.473593,-2.2456 -0.520819,-1.39258 -2.892189,-1.21213 -3.222197,0.26672 -0.739521,2.14977 0.718619,4.50846 2.696906,5.29112 1.846623,1.10736 3.979334,0.24335 5.693236,-0.66986 1.255019,-0.16364 2.171903,1.17458 3.469591,1.14741 3.507391,0.49854 6.894256,-1.91455 8.605802,-4.84757 0.394477,-0.94243 -0.976192,-2.17268 -1.829777,-2.19506 z m -63.905641,10.7252 c 0.830887,1.23718 0.965789,3.29411 2.513147,3.90972 2.273031,0.13753 4.284787,-1.34143 6.473568,-1.7646 6.065529,-1.50517 12.497694,-2.00401 18.638079,-0.62844 3.628569,0.9941 7.172295,3.29392 8.412086,7.01935 1.539857,3.41831 -0.521172,7.47654 -3.717947,9.08752 -6.240199,3.40057 -13.56352,3.74757 -20.515158,3.74919 -3.889411,-0.19343 -8.216418,0.0511 -11.569605,-2.24259 -2.9180119,-2.41669 -4.5122559,-6.26923 -4.5493479,-10.01188 -0.02132,-3.52172 1.86339,-6.79034 4.3151779,-9.11827 z"
       id="path3965" />
  </g>
</svg>
