<?xml version="1.0" encoding="UTF-8" standalone="no"?>
<svg
   xmlns:dc="http://purl.org/dc/elements/1.1/"
   xmlns:cc="http://creativecommons.org/ns#"
   xmlns:rdf="http://www.w3.org/1999/02/22-rdf-syntax-ns#"
   xmlns:svg="http://www.w3.org/2000/svg"
   xmlns="http://www.w3.org/2000/svg"
   xmlns:sodipodi="http://sodipodi.sourceforge.net/DTD/sodipodi-0.dtd"
   xmlns:inkscape="http://www.inkscape.org/namespaces/inkscape"
   id="svg5621"
   version="1.1"
   viewBox="0 0 210 297"
   height="297mm"
   width="210mm"
   sodipodi:docname="spring_bird.svg"
   inkscape:version="0.92.4 (5da689c313, 2019-01-14)">
  <sodipodi:namedview
     pagecolor="#ffffff"
     bordercolor="#666666"
     borderopacity="1"
     objecttolerance="10"
     gridtolerance="10"
     guidetolerance="10"
     inkscape:pageopacity="0"
     inkscape:pageshadow="2"
     inkscape:window-width="3840"
     inkscape:window-height="2004"
     id="namedview8"
     showgrid="false"
     inkscape:zoom="0.5946522"
     inkscape:cx="357.6359"
     inkscape:cy="577.36636"
     inkscape:window-x="-16"
     inkscape:window-y="-16"
     inkscape:window-maximized="1"
     inkscape:current-layer="svg5621" />
  <title
     id="title6243">Spring Bird</title>
  <defs
     id="defs5615" />
  <metadata
     id="metadata5618">
    <rdf:RDF>
      <cc:Work
         rdf:about="">
        <dc:format>image/svg+xml</dc:format>
        <dc:type
           rdf:resource="http://purl.org/dc/dcmitype/StillImage" />
        <dc:title>Spring Bird</dc:title>
        <dc:date>2020-04-06</dc:date>
        <dc:creator>
          <cc:Agent>
            <dc:title>Lena London</dc:title>
          </cc:Agent>
        </dc:creator>
        <dc:source>http://www.supercoloring.com/coloring-pages/spring-bird</dc:source>
        <dc:subject>
          <rdf:Bag>
            <rdf:li>csk</rdf:li>
            <rdf:li>acb</rdf:li>
            <rdf:li>spring</rdf:li>
            <rdf:li>bird</rdf:li>
            <rdf:li>sizing-cover</rdf:li>
          </rdf:Bag>
        </dc:subject>
      </cc:Work>
    </rdf:RDF>
  </metadata>
  <g
     id="layer1">
    <path
       id="path6194"
       transform="scale(0.26458333)"
       d="m 550.78125,-0.7734375 c -1.39361,8.0876e-4 -2.70065,0.8660465 -3.875,2.3535156 -4.55917,4.4880483 -8.02674,14.6255099 -7.25391,23.6132809 1.0142,11.795046 9.796,25.860694 18.67188,29.904297 3.61364,1.646279 4.62832,3.473063 4.88476,12.302735 -1.4841,5.500682 -1.24429,13.410644 0.56641,19.732421 0.69846,5.167556 2.39544,7.50997 6.47461,11.853516 6.95169,7.402292 16.30669,12.411922 26.41602,14.664062 3.58408,0.90006 7.18064,1.41992 10.63086,1.41992 0.52251,0 1.1142,-0.0273 1.75585,-0.0723 6.1499,-0.009 12.33037,-1.01753 18.21094,-3.11914 4.00063,-1.42975 6.08744,-2.14947 7.47656,-1.70703 0.59626,0.44509 1.22397,1.08557 1.89454,1.92968 0.49681,0.96738 0.98516,2.29899 1.625,4.06836 2.72621,7.53925 9.72421,15.13325 17.94335,19.97266 -0.3307,0.16172 -0.64547,0.30797 -0.99414,0.48828 -8.34648,4.31615 -16.61328,41.47685 -16.61328,53.38281 0,10.29012 5.24632,23.6824 12.27344,31.32617 6.55264,7.12779 21.65119,14.08919 30.69727,14.1543 l 3.25,0.0254 3.77929,0.50586 -0.90429,14.21875 c -0.88865,13.95623 -0.54521,15.14258 6.80468,23.51367 9.53288,10.85733 19.17557,15.07617 34.45703,15.07617 14.35015,-10e-6 26.52815,-4.829 36.49219,-14.47265 1.25246,-1.21221 2.23061,-2.14648 3.10157,-2.95313 l 2.39453,-2.04687 c 0.66353,-0.47005 1.11178,-0.63587 1.41211,-0.51953 l 0.57421,1.58593 c 0.034,0.52227 0.0469,1.15207 0.0469,1.91211 0,2.89653 3.04668,8.31233 6.77148,12.03711 4.60574,4.60576 9.09794,6.77149 14.03907,6.77149 1.1472,0 2.14572,-0.0745 2.99804,-0.20313 0.11188,0.006 0.20365,0.0185 0.32422,0.0234 2.44241,0.10061 3.81091,-0.44886 3.04102,-1.21875 -0.10507,-0.10537 -0.23759,-0.19602 -0.38477,-0.27539 0.034,-0.20149 -0.008,-0.41456 -0.14648,-0.64063 -0.78762,-1.27427 -3.50401,-2.31835 -6.03516,-2.31836 -8.02813,0 -15.97461,-10.25079 -15.97461,-20.60742 0,-6.10298 -0.93277,-9.62786 -2.46484,-10.36914 l 0.008,-0.29883 -0.13477,0.24024 c -1.3898,-0.52341 -3.24532,1.15439 -5.33593,5.19726 -0.99519,1.92443 -2.14012,3.72612 -3.4043,5.41016 -4.14043,4.81407 -8.75,8.68626 -13.66992,11.57422 -19.89252,10.67584 -47.71661,6.60038 -57.25391,-13.49805 -1.57659,-3.32223 -2.48586,-5.85599 -2.74218,-8.9082 -0.0575,-1.26162 -0.0516,-2.6251 0.0176,-4.11133 0.29254,-3.74614 1.25765,-8.57149 2.92578,-15.87305 0.35679,-1.56259 0.60221,-2.71465 0.55274,-3.57812 l 0.0996,-0.26172 -0.13281,-0.008 c -0.31824,-2.16403 -2.97654,-2.25052 -11.83008,-2.33008 -19.36196,-0.17397 -30.36442,-7.30155 -37.44922,-24.25781 -2.79738,-16.98572 -2.12219,-49.11957 11.76172,-64.99024 0.83667,-0.49364 1.68573,-0.89332 2.52539,-1.21679 0.71648,0.30587 1.4366,0.59166 2.16015,0.84961 26.39562,9.40976 58.03341,-2.3178 71.08789,-26.34961 3.59403,-6.61622 6.16336,-13.837733 5.70899,-16.048832 -0.52188,-2.539578 -3.06761,0.826572 -6.91211,9.140622 -7.246,15.66983 -19.58593,25.61828 -36.94727,29.78321 -20.12432,4.82774 -40.75628,-2.42248 -49.8457,-15.89063 -0.0726,-0.11168 -0.14769,-0.22139 -0.21875,-0.33398 -0.0865,-0.1321 -0.16338,-0.2691 -0.24805,-0.40235 -0.648,-1.05437 -1.24661,-2.15009 -1.79687,-3.2832 -0.94295,-2.03123 -1.653,-4.16768 -2.07227,-6.40234 -1.81591,-9.67956 -2.11745,-9.792528 -13.4707,-5.04883 -12.05681,5.03765 -32.21351,4.45814 -43.40234,-1.25 -16.45769,-8.396075 -21.20881,-22.160331 -14.84571,-42.996096 0.223,-0.730095 0.3653,-1.376406 0.41016,-1.96289 1.1e-4,-0.0011 -1.1e-4,-0.0029 0,-0.0039 0.54864,-2.374164 0.0403,-3.382057 -1.70898,-3.556641 -0.97864,-0.756733 -2.40214,-1.481011 -4.39063,-2.304688 -2.98545,-1.236604 -5.69511,-2.922644 -8.09961,-4.93164 -1.73541,-1.596318 -3.42959,-3.34425 -4.96094,-5.140625 -4.06212,-5.182122 -6.63248,-11.428979 -7.3789,-17.642578 -0.24643,-4.299517 0.20068,-8.830714 1.29883,-12.814454 1.09738,-3.0546753 2.79375,-5.8660229 5.16601,-8.2382808 3.61727,-3.61725996 3.83927,-4.5742187 1.06445,-4.5742187 -0.21656,0 -0.43059,0.0170727 -0.64648,0.046875 -0.0713,-0.0278099 -0.15226,-0.0465856 -0.24805,-0.046875 z M 240.85547,6.0742188 c -0.61125,-0.034091 -1.62191,0.3642139 -3.04883,1.2460937 -2.91939,1.804286 -37.0957,42.4548085 -37.0957,44.1230465 0,1.065226 0.61102,1.320306 1.73633,0.863282 0.0407,0.136289 0.13783,0.208984 0.29101,0.208984 0.40386,0 1.5246,-0.929046 3.05469,-2.402344 5.61214,-4.496802 15.42996,-15.046966 27.23242,-29.546875 7.11464,-8.740683 10.01308,-14.3704199 7.83008,-14.4921872 z m -96.24805,1.2363281 c -0.22719,-0.056077 -0.43107,0.2601402 -0.61719,0.8066406 -0.1895,-0.1269279 -0.34277,-0.024809 -0.4707,0.2988281 l -0.0547,-0.1855468 -0.20898,-0.8945313 -0.006,0.1523437 -0.043,-0.1523437 -0.0644,3.7656245 c -0.10341,1.561021 -0.16794,3.724864 -0.20313,6.66211 -0.32613,8.642588 0.0551,20.214535 1.30469,24.876953 0.47486,1.771691 1.21872,3.139506 1.96289,3.771484 l 0.0586,0.310547 0.0137,-0.257812 c 0.42971,0.337285 0.85695,0.43352 1.22656,0.205078 2.39317,-1.479062 0.006,-36.289141 -2.68945,-39.216797 -0.0714,-0.077575 -0.14111,-0.125831 -0.20899,-0.1425781 z M 53.882812,15.443359 c -0.232554,0 -0.328574,0.156003 -0.304687,0.445313 -0.01587,0.01111 -0.03668,0.01543 -0.05078,0.0293 -1.773109,1.748671 4.908728,10.935599 28.851562,39.677734 5.96575,7.161566 11.293466,12.765256 14.015625,14.900391 0.0477,0.0381 0.106397,0.09166 0.150391,0.125 0.989556,0.757519 1.630227,1.052686 1.75,0.693359 0.105713,-0.317102 -0.03568,-0.902894 -0.34961,-1.675781 -0.02457,-0.06573 -0.06543,-0.147128 -0.0957,-0.21875 C 94.42668,61.461382 72.559329,33.750738 60.820312,21.623047 56.676113,16.826548 54.95819,15.443359 53.882812,15.443359 Z M 331.1875,41.644531 c -6.34333,-0.05186 -91.98438,39.128876 -94.60742,43.373047 -2.18104,3.528987 -0.0205,2.869648 23.90625,-7.300781 17.95508,-7.632106 39.73875,-18.072061 54.43164,-25.763672 9.16527,-4.606428 15.16922,-7.969273 15.49805,-8.894531 1.00694,-0.758491 1.40036,-1.247695 1.01171,-1.382813 -0.0601,-0.02079 -0.13958,-0.03049 -0.24023,-0.03125 z m -173.01172,26.47461 c -9.26625,-0.107717 -18.67356,1.778507 -27.61719,5.873047 -58.220538,26.654232 -48.955957,109.306532 13.9336,124.304692 26.7814,6.38693 58.25439,-9.16775 71.8789,-35.52344 8.70099,-16.83148 8.70099,-41.50641 0,-58.33789 C 204.61446,81.69312 181.85621,68.394419 158.17578,68.119141 Z m 0.56055,4.199218 c 15.39117,0.218381 30.95976,6.412063 43.21094,19.972657 11.34053,12.552604 15.3165,22.909024 15.41601,40.160154 0.13795,23.90881 -11.89622,43.74036 -33.10937,54.5625 -12.31381,6.28205 -32.87126,7.6771 -46.93164,3.18555 -18.29679,-5.84484 -34.73644,-25.31927 -39.490239,-44.95508 -0.654191,-3.185 -1.069122,-6.47947 -1.226562,-9.86523 -0.0553,-1.98906 -0.04966,-3.98859 0.02344,-5.97657 C 99.11935,94.403253 128.58287,71.890472 158.73633,72.318359 Z M 21.710938,96.154297 c -0.916233,-0.0083 -1.2341,0.239993 -1.007813,0.695312 -1.016776,0.546686 1.072649,1.921305 6.767578,4.498051 3.812149,1.97861 9.115246,4.40673 15.822266,7.11523 23.324084,9.41898 25.357422,9.98175 25.357422,7.03516 0,-0.0979 -0.029,-0.20267 -0.07031,-0.3125 0.524205,-0.29696 -0.194351,-1.08897 -2.542969,-2.46094 -0.302324,-0.17662 -0.704009,-0.38308 -1.083984,-0.58399 C 59.608204,108.94308 48.874906,104.39942 35.46875,99.800781 28.116712,97.278873 23.628444,96.170915 21.710938,96.154297 Z M 476.37109,110.5293 c -3.49001,0.023 -6.96661,0.43447 -10.33984,1.20703 -20.60886,3.01934 -27.593,19.83149 -31.30469,26.48047 -1.75411,2.8382 -3.27347,2.30146 -8.98437,-3.16992 -11.26258,-10.79022 -13.14063,-5.29845 -3.86328,11.29101 2.7513,4.91977 5.07689,9.25018 6.5664,12.16016 0.78565,1.72115 1.36996,3.06964 1.54102,3.62695 -0.69438,0.80178 -5.59269,3.46926 -11.49219,6.23242 -3.74173,1.75254 -6.53896,3.31069 -8.51172,4.66602 -0.0786,0.0291 -0.15393,0.0789 -0.22461,0.16015 -7.35976,5.17704 -1.72753,7.14552 15.63086,4.08789 0.12548,-0.0219 0.2303,-0.039 0.35352,-0.0605 9.95629,-0.4408 14.05205,-0.55404 16.02148,0.79297 2.1563,2.59166 2.11909,7.96486 1.4336,17.75 -1.36116,19.42986 -21.65482,62.95898 -29.35157,62.95898 -12.65457,0 -21.08949,21.2447 -16.35351,41.19336 1.02145,4.3026 2.06912,13.65792 2.73047,23.52539 -0.004,0.20001 -0.004,0.41878 -0.0117,0.61524 -0.25852,7.55594 0.1712,15.1388 1.22656,22.56054 1.81697,21.67135 7.26655,35.16587 20.56641,53.23242 l 10.17187,13.81836 -7.42187,2.2793 c -4.08076,1.25507 -14.71685,2.17347 -23.63672,2.03711 -11.90049,-0.1818 -19.11461,1.04765 -27.09571,4.62305 -3.05447,1.36837 -5.25519,2.27258 -6.99414,2.82617 -1.56951,0.37493 -2.89617,0.5589 -4,0.54492 -1.04614,-0.21732 -1.82212,-0.83827 -2.6582,-1.8457 -2.19679,-2.64696 -1.87316,-5.03131 1.55469,-11.39649 2.38428,-4.4273 5.14052,-8.05078 6.125,-8.05078 0.98448,0 1.79101,-2.08623 1.79101,-4.63476 0,-2.5485 -1.526,-4.63282 -3.39257,-4.63282 -4.09859,0 -7.96295,6.23059 -8.26368,13.32227 -0.0405,0.95577 -1.47266,3.57989 -3.18164,5.83203 -1.6664,2.19602 -4.16464,3.00259 -6.32422,2.68359 -1.23505,-0.7737 -2.62845,-1.8359 -4.02539,-3.07812 -0.18924,-0.5232 -0.29687,-1.10269 -0.29687,-1.74219 0,-3.47584 -13.69553,-10.4679 -16.77539,-8.56445 -2.94449,1.81984 -2.03429,9.73135 1.20508,14.09179 0.10167,0.14552 0.20817,0.29097 0.33203,0.43165 0.27987,0.33902 0.57076,0.65687 0.88086,0.9375 0.31736,0.28724 0.68624,0.55938 1.08984,0.81835 2.05849,2.38118 4.00424,2.95887 7.47852,2.44141 1.3355,0.17424 2.70929,0.2561 4.06836,0.20508 10.44884,-0.39281 17.35372,4.33531 12.84179,8.79492 -0.24359,0.24076 -0.54497,0.49606 -0.88281,0.76172 -2.90506,1.91036 -7.39667,4.31831 -12.76758,6.92773 -21.71324,9.91446 -61.30582,23.26412 -72.3457,23.29493 -3.48934,0.008 -5.84277,-0.0551 -7.42969,-0.30079 -1.22047,-0.6873 -2.0887,-1.64698 -2.64258,-2.89453 0.0698,-0.34733 0.16191,-0.71542 0.29688,-1.14062 1.90227,-5.99354 -2.76339,-15.36706 -9.42383,-18.93164 -0.78703,-0.42123 -1.64541,-0.99042 -2.51758,-1.64844 -1.34528,-1.34487 -2.81627,-2.78129 -4.48828,-4.38086 -0.37519,-0.35868 -0.74677,-0.69608 -1.12109,-1.04883 -0.34783,-0.43967 -0.67023,-0.87605 -0.94336,-1.29297 -1.95206,-2.97917 -7.69298,-8.03126 -12.75782,-11.22851 -11.73612,-5.54691 -5.29708,-7.16848 -30.78124,-4.0625 -6.34339,0.71497 -9.62338,1.70434 -10.36524,3.78516 -0.0227,0.0597 -0.0445,0.11965 -0.0625,0.18164 -0.50277,1.69859 0.65253,4.1297 3.17188,7.72656 3.52449,5.03202 3.41787,5.14844 -4.63477,5.14844 -4.55656,0 -7.49341,0.86944 -8.11328,2.35351 l -1.28516,-1.19726 1.24024,1.33593 c -0.0481,0.15307 -0.082,0.31174 -0.082,0.47657 0,3.08692 10.31082,13.45801 19.0664,20.45312 -0.29053,0.34469 0.35865,1.1406 1.78516,2.0625 0.9316,0.60204 2.02953,1.14453 3.05664,1.54883 2.7375,1.87226 5.0056,3.08594 6.22461,3.08594 2.66704,0 7.99069,1.62305 11.82812,3.60742 6.16197,3.18633 8.29013,3.2232 18.22657,0.31054 9.11569,-2.6722 11.02926,-2.71952 10.08007,-0.24609 -0.88959,2.31825 0.83195,2.72851 7.15039,1.70313 l 4.56641,-0.74024 h 3.41406 l -5.64453,10.09766 c -0.86652,1.55036 -1.64435,2.91581 -2.36328,4.13086 -3.07475,3.89798 -5.37523,6.65409 -7.19726,8.45508 -2.10501,1.21818 -4.68642,1.88724 -8.58008,2.68359 -2.05466,0.42017 -3.91984,1.20347 -5.32618,2.16797 l -0.002,0.002 c -0.68541,0.29254 -1.25229,0.63664 -1.67773,1.01172 -0.81129,0.4292 -1.31836,1.00709 -1.31836,1.64258 0,0.44224 0.12737,0.86434 0.34375,1.26172 -0.20825,2.6804 1.78531,3.68333 5.02929,2.97656 0.0238,0.20183 0.0886,0.32031 0.20704,0.32031 0.11958,0 0.34051,-0.13071 0.61328,-0.33594 1.07242,-0.0189 2.03529,-0.37201 2.63086,-1.18359 1.28706,-0.58628 2.67375,-1.35184 4.125,-2.30273 l 5.83593,-3.82422 -1.54296,11.63672 c -0.0545,0.40996 -0.088,0.76297 -0.13477,1.15234 -0.40192,0.80508 -0.64595,1.78226 -0.75195,2.80859 -0.0155,0.0612 -0.0216,0.14071 -0.0234,0.22461 -0.10477,1.27877 0.009,2.62073 0.34766,3.81446 0.088,2.93348 0.688,4.66833 1.85351,5.38867 4.42088,2.73229 7.19228,-3.69539 5.99414,-13.90235 -0.59833,-5.09707 -0.31119,-11.21713 0.64063,-13.60156 1.59369,-3.99243 2.04292,-3.8614 5.6582,1.65625 2.15915,3.29526 3.92383,7.06958 3.92383,8.38867 0,1.3191 1.56515,2.39844 3.47656,2.39844 2.64034,0 3.67933,-1.5123 3.23242,-3.90625 -0.002,-0.33902 -0.11675,-0.73853 -0.33203,-1.19336 -0.75449,-2.20184 -2.50432,-4.93454 -5.2168,-7.86133 -3.71798,-4.01181 -5.5588,-7.58522 -5.52539,-10.7539 0.53481,-2.03407 1.88384,-4.36534 3.6211,-6.51563 0.34375,-0.3719 0.70481,-0.73808 1.08594,-1.0957 3.92225,-2.78952 10.29714,-5.08939 19.1582,-6.94336 14.26257,-2.98413 41.35179,-13.49988 74.33594,-28.85742 7.6456,-3.55986 17.88569,-7.74383 22.75976,-9.29688 9.80406,-3.12393 26.9062,-1.49653 36.31836,3.45703 0.0151,0.008 0.0295,0.0159 0.0469,0.0234 1.78677,1.60101 4.56299,2.94022 6.71093,3.31836 4.98641,2.27078 8.77632,3.44875 11.875,3.63281 2.11034,0.9063 3.21115,0.79633 3.81055,-0.34765 1.03283,-0.27251 1.99806,-0.68887 2.91992,-1.25391 1.44408,-0.88501 2.51132,-1.45389 3.37305,-1.69922 1.19187,0.23433 2.33293,0.7458 3.21484,1.5 0.23207,0.34054 0.47058,0.73105 0.72657,1.18164 0.23848,0.41968 0.52683,0.79996 0.85546,1.15039 0.86196,1.72487 2.60495,2.93202 4.08399,2.73828 0.5766,-0.0756 1.1519,-0.13962 1.72461,-0.1914 1.46585,0.23131 3.14427,0.35547 5.1289,0.35547 10.78814,0 24.53642,7.60462 30.00196,15.86523 0.38506,0.61501 0.75217,1.24525 1.09765,1.88867 0.3224,0.64732 0.59239,1.29388 0.79883,1.93946 6.87636,21.50596 12.37052,48.72952 15.08789,74.77734 1.69164,16.21485 2.68323,30.12123 2.20508,30.90234 -0.47807,0.78119 -6.77707,1.21292 -13.99805,0.96094 -12.77813,-0.44613 -13.46816,-0.81697 -25.80468,-13.86133 l -12.67579,-13.40039 -30.4375,0.85743 c -34.15071,0.96098 -32.14602,2.1663 -28.42968,-17.09961 1.22846,-6.36855 1.19747,-8.14769 -1.16016,-8.57032 -0.1595,-0.0782 -0.33209,-0.11914 -0.52148,-0.11914 -0.23093,0 -0.44807,0.0122 -0.66407,0.0274 -0.19389,-0.008 -0.35601,-0.0274 -0.57031,-0.0274 -3.98755,0 -4.41476,1.1099 -3.22851,8.41992 0.76403,4.7079 0.44466,7.97427 -0.72461,7.40821 -1.15023,-0.55676 -6.26231,-2.88611 -11.35938,-5.17578 -5.0971,-2.28972 -10.92096,-5.63164 -12.94336,-7.42578 -2.42082,-2.1478 -6.18154,-2.76168 -11.00586,-1.79688 -8.90315,1.78065 -9.23632,4.16295 -1.30859,9.35742 4.45379,2.91825 7.02415,3.31878 9.87695,1.53711 4.98389,-3.11248 13.41816,-0.0325 21.75391,7.9375 3.20538,3.0652 5.11683,5.28839 5.79492,6.8457 0.13871,0.43775 0.23369,0.82176 0.27148,1.1211 0,0.26305 -0.0411,0.50293 -0.16015,0.70703 -0.29972,0.17953 -2.73293,0.65719 -6.16992,1.25976 -11.86234,0.76135 -51.28711,7.52305 -51.28711,8.93165 0,0.20409 0.87674,0.36996 2.4082,0.5039 -2.53222,1.63646 -1.44275,1.8563 4.54297,0.98047 1.18327,-0.1731 3.9464,-0.37479 7.76367,-0.58984 19.29361,0.15949 53.32156,-0.67571 75.76953,-2.14258 l 5.83594,-0.38086 10.05469,-0.23828 c 3.91185,0.36132 6.57248,0.98295 8.65039,1.9668 l 7.33398,8.52929 9.73633,11.32422 -9.86328,4.30469 c -5.42559,2.36829 -12.9936,7.23386 -16.81641,10.81054 -8.44467,7.90092 -20.75398,11.37244 -39.88281,11.24805 -7.91955,-0.0518 -15.4779,0.57354 -16.79688,1.38867 -0.60211,0.37191 -1.07979,0.79559 -1.44531,1.23828 l -1.4707,0.2754 0.94531,0.52929 c -0.93286,1.87026 0.0397,3.80078 2.69141,3.80078 1.7156,0 6.401,1.63478 10.41406,3.63672 5.42744,2.70792 12.64399,3.4518 28.16602,2.89844 7.25268,-0.25852 13.65306,-0.13267 17.39453,0.26758 1.59844,0.40993 2.62417,0.95888 3.0957,1.69336 -0.0726,0.20031 -0.1586,0.4082 -0.25195,0.625 -1.23334,1.94887 -4.18056,5.40517 -7.60742,8.83203 -2.02587,2.02586 -3.54805,3.75406 -4.60938,5.2207 -1.87215,0.0419 -3.38477,1.00108 -3.38477,2.17383 0,2.10954 0.7803,3.14718 2.11133,3.16797 0.008,0.008 0.0159,0.0199 0.0234,0.0312 1.6105,1.61046 3.96889,0.32748 7.38672,-4.01758 1.36176,-1.73121 2.44049,-2.92583 3.3418,-3.66601 0.81547,-0.45948 1.55282,-0.72713 2.20312,-0.82422 0.31181,0.0775 0.5978,0.24677 0.86524,0.50586 0.17537,0.18444 0.34511,0.40262 0.51171,0.67187 0.84416,1.36588 1.16738,4.06602 0.88282,6.57227 -0.034,0.13266 -0.0568,0.27024 -0.0957,0.39648 -0.18595,0.5989 -0.27331,1.17295 -0.28125,1.71289 -0.81717,3.53586 -0.12335,4.85352 2.56446,4.85352 5.69552,0 6.81915,-5.82194 2.41797,-12.53907 -6.22012,-9.49307 -3.03193,-15.65779 11.88281,-22.97265 23.38858,-11.47083 46.15608,-17.55735 60.24219,-16.10352 14.32849,1.47882 13.12738,-0.74806 17.22851,31.92188 3.2589,25.96017 10.30805,56.99021 15.01367,66.08984 2.48168,4.79906 5.28665,6.89063 9.23633,6.89063 7.93784,0 12.60616,-10.16569 14.67969,-31.97266 l 1.69726,-17.83984 2.92969,8.48437 c 3.32825,9.63753 7.99432,12.52694 12.14844,7.52149 0.87201,-1.05068 1.44749,-3.465 1.75586,-7.79297 0.22072,-2.12157 0.32926,-4.8101 0.32812,-8.01563 0.0575,-4.30367 -0.0351,-9.31896 -0.27929,-14.84765 -0.0737,-2.59189 -0.16031,-5.32412 -0.26953,-8.32227 l -1.29688,-35.56445 13.11524,-3.48243 c 7.21341,-1.91459 26.6669,-7.1549 43.23242,-11.64453 16.56548,-4.48962 38.98116,-9.91866 49.8125,-12.06445 10.83125,-2.14583 27.15379,-6.86124 36.27148,-10.47852 13.08979,-5.19303 27.43188,-8.96438 39.75586,-10.60742 1.11228,-0.113 2.22407,-0.22878 3.32422,-0.30664 1.94048,-0.13757 3.77905,-0.31706 5.5332,-0.51367 1.22582,-0.0578 2.43026,-0.0957 3.58203,-0.0957 5.11087,0 8.83985,-1.12445 8.83985,-2.66211 0,-0.0571 -0.0258,-0.10769 -0.0371,-0.16211 0.0113,-0.034 0.0391,-0.0659 0.0391,-0.0977 0,-0.64777 -0.81788,-1.07595 -2.26562,-1.3164 -8.11926,-1.84649 -36.37224,2.31606 -55.07618,8.76953 -11.15089,3.84744 -31.74278,9.53081 -45.75976,12.63086 -14.01695,3.09997 -36.43076,8.95643 -49.81055,13.01172 -29.0564,8.80663 -42.92054,12.76103 -48.59766,13.72851 -1.68211,0.1818 -2.78952,0.14448 -3.31835,-0.125 -0.59604,-0.9572 -1.37899,-6.35249 -1.77735,-12.39648 l -0.62109,-9.41211 c 0.42845,-1.05536 1.02876,-1.93008 1.80859,-2.70117 l 18.5332,-6.40821 c 13.47523,-4.65747 22.30765,-9.20406 25.82813,-13.29687 2.94232,-3.42066 6.09164,-5.5033 6.99805,-4.62891 0.9061,0.87439 1.26153,-0.47848 0.79101,-3.00781 -0.0302,-0.16252 -0.0871,-0.34158 -0.1582,-0.52735 l 0.31055,-0.31054 -0.89649,-0.81055 c -4.65823,-7.44877 -29.67958,-26.06157 -46.39844,-34.09961 -7.64564,-3.67582 -20.08729,-8.03964 -27.65039,-9.69726 -8.80671,-1.93021 -17.13859,-5.72316 -23.16992,-10.54493 -5.17954,-4.14088 -15.67271,-11.42845 -23.31836,-16.19531 -7.64564,-4.76689 -18.97027,-12.11754 -25.16601,-16.33398 -6.19578,-4.21641 -13.44116,-7.66602 -16.10157,-7.66602 -0.20069,0 -0.35467,-0.008 -0.5371,-0.0117 -1.26263,-0.70711 -1.91201,-1.54203 -1.94727,-2.30859 0.13002,-0.14287 0.24544,-0.27632 0.4043,-0.43555 3.58718,-3.58711 8.88183,-0.99633 50.29687,24.59961 32.29338,19.95836 35.67407,21.36994 85.82031,35.84375 17.45617,5.03838 40.12788,18.37229 56.03516,32.95703 5.38719,4.9392 11.12284,8.94656 12.74414,8.9043 1.63083,-0.0427 0.63062,-2.01101 -2.24023,-4.40625 l -5.18946,-4.33008 17.93164,-3.95703 c 9.86238,-2.17587 24.18639,-6.55202 31.83204,-9.72656 17.98718,-7.46842 45.17968,-14.70636 45.17968,-12.02539 0,1.1472 1.62474,2.08594 3.61133,2.08594 2.05731,0 2.92793,-1.10769 2.02149,-2.57422 -1.10465,-1.78757 1.68316,-2.31093 9.1289,-1.71875 6.22983,0.49545 9.96145,0.1058 10.60352,-0.83594 l 1.27929,-0.0215 -0.18359,-0.0351 0.18359,-0.004 -1.16015,-0.27734 c -0.045,-0.635 -1.21981,-1.45465 -3.66406,-2.39258 -12.11093,-4.64746 -39.81522,0.4587 -71.70313,13.2168 -11.47438,4.59084 -27.13029,9.81058 -34.79102,11.59765 l -13.92773,3.24805 -10.24023,-9.08594 c -16.015,-14.21204 -35.99896,-24.08563 -64.92383,-32.07812 -14.6541,-4.0492 -27.40798,-8.54706 -28.34375,-9.9961 -1.88054,-2.91405 -13.35742,-36.44684 -13.35742,-39.03125 0,-0.89476 4.30127,-0.11047 9.55859,1.74414 6.00979,2.12039 12.50121,3.25025 17.89062,3.42188 1.27393,0.0658 2.44437,0.0443 3.51954,-0.0449 4.99861,-0.28158 8.41796,-1.58572 8.41796,-3.90821 0,-2.14783 -2.19783,-6.24352 -4.88281,-9.10156 l -4.88281,-5.19531 14.35742,4.4668 c 6.27073,1.95171 12.44143,3.27097 17.69531,3.92578 l -0.27734,0.0801 1.5293,0.0586 c 7.95915,0.8513 13.52929,0.0802 13.52929,-2.49414 0,-0.42474 -0.35627,-1.01699 -0.96289,-1.70313 -0.0726,-0.25814 -0.24293,-0.48547 -0.52734,-0.6582 -0.0522,-0.0302 -0.11871,-0.0415 -0.17578,-0.0664 -1.88406,-1.81137 -5.1775,-4.10501 -8.9336,-6.09765 -25.33398,-13.43966 -49.05192,-49.61591 -66.9414,-102.10352 -4.56027,-13.37981 -11.3258,-28.69213 -15.03711,-34.02929 -11.00825,-15.83099 -12.27606,-23.47031 -12.79102,-77.16797 l -0.47656,-49.80274 7.16406,-6.80273 7.16602,-6.80469 -5.16016,-1.10156 c -0.0189,-0.006 -0.0314,-0.0139 -0.0488,-0.0195 l -0.002,-0.002 c -0.35036,-0.11792 -0.77962,-0.19724 -1.25195,-0.25586 l -0.81641,-0.17382 c -15.32213,-3.26311 -15.7596,-3.82129 -9.14062,-11.6875 3.29673,-3.91795 5.99414,-7.98536 5.99414,-9.04102 0,-1.05566 -6.19094,-1.35802 -13.75782,-0.67187 -0.69758,0.0633 -1.34605,0.0999 -2.01367,0.14648 -1.0809,-0.0892 -2.19826,-0.17149 -3.34179,-0.24609 -4.77831,-0.31166 -10.54118,-0.95667 -15.91211,-1.73047 -0.65084,-0.22322 -1.30122,-0.44776 -1.94922,-0.70703 -6.23214,-2.49363 -13.02387,-3.67573 -19.7461,-3.67578 -0.41586,-0.008 -0.83049,-0.0183 -1.24609,-0.0156 z m 2.91797,4.64843 h 0.002 c 0.75973,0.008 1.51035,0.0343 2.25586,0.0703 4.07024,0.34136 7.77671,1.47076 10.73242,3.54101 3.39488,2.37787 10.40386,3.76652 19.43164,3.85156 l 14.12304,0.13477 -6.6621,5.31055 c -1.80896,1.44239 -3.33523,2.84662 -4.34961,3.95898 l -1.25782,0.76563 0.44141,0.22851 c -0.36813,0.50647 -0.56267,0.90021 -0.5,1.10938 -0.67287,1.19593 -0.24929,1.83465 1.71875,1.29883 0.10394,-0.028 0.27313,-0.018 0.4668,0.006 2.12095,1.12476 5.5249,2.83807 9.30273,4.66016 l 7.35938,3.55078 c 0.97492,0.88684 0.99312,1.49637 0.20312,1.99805 l -4.66602,0.93359 c -7.46388,1.4928 -9.76913,4.38426 -4.81054,6.03711 1.69852,0.56618 2.56574,13.6234 2.86523,43.13672 -0.70461,21.45146 -0.45163,36.65083 1.06446,49.12305 0.49901,8.88636 1.16724,14.55775 1.99609,16.4375 l 2.64258,5.98828 c 0.008,0.0314 0.01,0.0571 0.0176,0.0879 8.3e-4,0.004 7.4e-4,0.009 0.002,0.0137 l -7.56055,-0.60742 c -1.41762,-0.33347 -3.09349,-0.55574 -4.95117,-0.6875 -3.53809,-0.56668 -7.1333,-0.62717 -10.69531,-0.21289 -12.69147,0.16135 -19.79338,4.03295 -28.7461,14.49219 -16.03767,18.73635 -19.13788,50.41887 -7.43359,75.98437 2.61301,5.70756 6.92867,12.11266 12.34961,18.6836 5.90135,7.95444 12.96691,15.07971 21.9668,22.28515 12.62105,10.97106 26.63402,20.60645 38.93359,26.05078 0.39114,0.17311 0.72006,0.35321 1.07617,0.5293 0.59993,0.3292 1.17059,0.63805 1.67969,0.90039 3.73353,2.32732 5.27927,5.52699 7.14844,13.37109 1.52628,6.40479 4.66276,16.07658 6.97265,21.49219 2.31005,5.41572 3.97857,9.84574 3.70508,9.84571 -2.13521,-2.3e-4 -73.22501,-42.30189 -76.40234,-45.4629 -3.12125,-3.10526 -8.30916,-4.13284 -22.01172,-4.36328 -20.57635,-0.34582 -24.32231,-1.91486 -36.33984,-15.21679 -33.18777,-36.73508 -33.33098,-93.56797 -0.39844,-159.14063 15.94567,-31.74963 21.5097,-56.20554 15.38672,-67.64648 -0.69661,-1.3016 -1.02136,-2.39331 -1,-3.38282 0.25511,-1.26759 0.94845,-2.36568 2.10351,-3.65039 0.0189,-0.0166 0.035,-0.0338 0.0547,-0.0508 5.21635,-4.32919 4.14313,-9.42294 -3.68359,-17.49804 -1.07524,-1.10936 -1.93259,-2.01977 -2.69141,-2.85743 -0.53431,-0.67092 -0.98975,-1.29414 -1.40625,-1.89453 -0.66319,-1.08055 -1.22066,-2.09914 -1.65039,-3.02148 -0.31748,-1.88003 0.46197,-3.92663 2.00976,-7.63086 5.193,-12.42877 22.11649,-21.65108 36.54688,-22.52344 0.0189,-0.001 0.037,-6.1e-4 0.0566,-0.002 0.87049,-0.0268 1.74047,-0.036 2.60156,-0.0273 z m -140.48437,2.20899 c -1.21646,0 -3.03661,0.0618 -5.14453,0.1543 -10.74387,-0.12503 -29.10275,1.0006 -53.01758,3.33984 -19.11404,1.86964 -35.01345,3.41023 -35.33203,3.42578 -0.31854,0.0155 -0.58008,1.10235 -0.58008,2.41211 0,1.4993 5.3657,1.95477 14.48242,1.23047 7.96417,-0.63274 30.37794,-2.38552 49.81055,-3.89453 19.43259,-1.50901 35.33203,-3.62761 35.33203,-4.70703 0,-0.26291 -0.20691,-0.49546 -0.60156,-0.70118 0.16119,-0.71487 -1.87164,-1.25976 -4.94922,-1.25976 z M 482.21094,135.875 c -2.65331,-0.0511 -5.20144,0.52142 -7.01758,1.82031 -0.50238,0.35928 -0.91109,0.87076 -1.23828,1.49414 -0.38007,0.48992 -0.58318,1.10492 -0.66406,1.89063 -1.06833,4.69109 0.67855,12.1841 4.25976,14.80273 2.08468,1.52437 3.82504,2.46634 5.44336,2.84571 0.68693,0.22216 1.31752,0.36132 1.80859,0.36132 1.51355,0 3.11795,-0.73919 4.59571,-1.92382 0.42606,-0.29125 0.85908,-0.60895 1.31054,-0.97266 5.25941,-4.23766 6.42031,-9.42174 3.31641,-14.5332 -1.22827,-2.77152 -3.65815,-4.49299 -7.07031,-5.03516 -1.53271,-0.4542 -3.15451,-0.71933 -4.74414,-0.75 z M 65.339844,156.77148 c -6.553463,0 -47.660156,14.08316 -47.660156,16.32813 0,3.1828 1.315703,2.94073 26.050781,-4.79102 15.305646,-4.78427 24.466222,-8.79545 24.748047,-10.56445 0.809144,-0.52506 0.937398,-0.85484 0.125,-0.90234 -0.196271,-0.0113 -0.556767,0.0342 -1.009766,0.10937 -0.176882,-0.0406 -0.372145,-0.0769 -0.652344,-0.0859 -0.0028,-9e-5 -0.0067,9e-5 -0.0098,0 -0.442216,-0.0549 -0.951164,-0.0937 -1.591797,-0.0937 z m 368.015626,0.63477 c 0.32882,-0.0321 1.04539,0.46269 2.21289,1.43164 1.80287,1.49626 3.81514,4.77055 4.4707,7.27734 0.32693,1.24932 0.43304,2.16736 0.22656,2.83985 -0.54942,0.56462 -1.29766,1.05502 -2.23242,1.47656 -0.96646,0.17745 -2.26023,0.24219 -3.97851,0.24219 -6.60658,0 -6.83631,-0.24976 -2.88281,-3.14063 2.81586,-2.05888 3.74813,-4.56426 2.70703,-7.27734 -0.72718,-1.89494 -0.94618,-2.80812 -0.52344,-2.84961 z m -196.11914,11.29297 c -1.03851,-0.0249 -1.77149,0.54164 -1.77149,1.50976 0,1.29082 4.43007,3.94008 9.84571,5.88672 5.41564,1.94665 26.00665,9.28734 45.75781,16.31446 26.90713,9.57306 36.77467,12.83902 40.12109,12.64257 1.15596,0.16067 1.53787,-0.0202 1.32422,-0.5 0.1832,-0.23353 0.25781,-0.53693 0.25781,-0.90625 0,-1.81459 -45.92801,-19.20522 -75.29882,-28.51171 -8.91989,-2.82637 -17.51849,-5.62004 -19.11133,-6.20704 -0.39821,-0.14675 -0.77884,-0.22012 -1.125,-0.22851 z M 91.148438,197.55273 c -3.132605,0.35853 -17.252468,11.171 -42.667969,32.66993 -13.004509,11.00049 -23.108305,20.86497 -22.455078,21.92187 2.004555,3.24344 65.794921,-49.21549 65.794921,-54.10742 0,-0.37485 -0.224371,-0.5356 -0.671874,-0.48438 z m 116.408202,12.50586 c -2.71369,0 17.6454,31.88317 38.52344,60.32813 8.38237,11.42046 16.26028,20.76172 17.50781,20.76172 2.70342,0 2.63647,-0.11754 -15.06836,-26.64258 -16.85365,-25.24988 -32.23601,-46.1614 -38.40039,-52.45703 -0.2849,-0.32829 -0.54259,-0.61015 -0.75781,-0.83008 -0.76905,-0.78582 -1.2042,-1.09443 -1.35156,-0.99609 -0.17832,-0.0966 -0.33705,-0.16406 -0.45313,-0.16407 z m -83.7832,9.51758 c -0.0577,-0.0132 -0.12029,-0.0119 -0.18946,0.002 -0.31619,0.0638 -0.75236,0.40792 -1.30468,1.02344 -3.25083,3.62283 -32.777347,88.7841 -32.777347,94.53711 0,0.20527 0.05127,0.39953 0.142578,0.57813 v 0.002 c -0.05492,0.3213 -0.0963,0.60489 -0.103515,0.80078 -0.01247,0.34386 0.338517,0.25616 0.853515,-0.0996 0.270161,0.13331 0.580413,0.2168 0.916016,0.2168 2.281039,0 4.683655,-6.24074 20.294923,-52.73047 10.21633,-30.42379 13.95635,-43.92255 12.16797,-44.33008 z m 41.53906,2.06836 c -2.24183,0 -1.34403,33.14198 2.17969,80.50977 0.30678,4.12391 0.75436,7.92873 1.26367,11.06054 0.24654,2.94125 0.46943,4.87142 0.64844,5.33789 0.72754,1.89593 1.30944,2.82978 1.74804,2.67188 0.0383,0.0144 0.0776,0.0449 0.11524,0.0449 1.55965,-10e-6 1.82892,-11.92738 0.80078,-35.33203 -2.03872,-46.41007 -3.91663,-64.29297 -6.75586,-64.29297 z m 249.11133,42.0918 c 0.22148,0.005 0.36433,0.0496 0.40625,0.13672 0.16743,0.34854 -2.55689,8.97382 -6.05469,19.16797 l -6.36133,18.53515 -0.0703,-10.66015 c -0.0835,-12.98243 3.62554,-24.39457 8.53711,-26.2793 1.50357,-0.57732 2.87849,-0.91468 3.54297,-0.90039 z m 98.60547,7.75586 c 1.69723,-0.004 3.18143,0.001 4.53125,0.0215 13.34574,1.56038 23.39213,11.07388 29.61523,28.23242 12.32342,33.979 23.21552,59.26321 31.72656,73.65235 11.21961,18.96817 29.58426,39.19543 41.13086,45.30273 10.6204,5.6174 3.60238,6.00782 -14.0332,0.7793 -18.75583,-5.56063 -28.15752,-11.20669 -34.50195,-20.71485 -2.81911,-4.22471 -5.49378,-6.77599 -6.36133,-6.18359 -0.42898,-0.29556 -0.67969,-0.33096 -0.67969,-0.0195 0,0.35754 0.16699,0.88299 0.42774,1.5 0.61863,4.00112 7.77482,13.5488 20.25781,26.93555 5.1885,5.56418 9.43359,10.42217 9.43359,10.79687 0,1.3358 -15.16117,0.25213 -20.85351,-1.49023 -12.93457,-3.95928 -34.31203,-15.06455 -50.39063,-26.17969 -33.7186,-23.30967 -51.54457,-50.41821 -51.54687,-78.38867 -0.003,-28.68768 12.1956,-48.83203 32.31054,-53.35156 1.31101,-0.29451 2.59835,-0.52787 3.86328,-0.70508 1.61001,-0.11105 3.27871,-0.18308 5.07032,-0.1875 z M 183.85938,322.9043 v 0.002 c -0.66417,0.13826 -1.99011,2.49596 -4.58008,7.54687 -5.90914,11.52387 -17.04716,18.61915 -29.23047,18.61915 -5.99479,0 -9.69519,-1.93379 -15.51953,-8.10938 -2.03722,-2.16009 -4.01576,-4.1092 -5.61524,-5.56641 -0.003,-0.0344 -0.0254,-0.0833 -0.0254,-0.11523 0,-1.33512 -1.04213,-2.42773 -2.3164,-2.42773 -0.15852,0 -0.31496,0.0849 -0.46485,0.24609 -0.23784,-0.14755 -0.43325,-0.24609 -0.53906,-0.24609 -0.11376,0 -0.22188,0.16226 -0.32813,0.39257 l -1.33984,-1.55273 0.81836,3.77734 c -0.29458,2.02292 -0.4904,5.01447 -0.50195,8.38672 -0.0964,27.84114 -24.869105,44.73079 -50.130862,34.17578 -4.574635,-1.91144 -8.68891,-3.47656 -9.144532,-3.47656 -0.08387,0 -0.255229,0.17822 -0.460937,0.43164 l -0.240235,-0.10156 -0.833984,1.69531 c -1.031036,1.64182 -2.406714,4.07438 -3.859375,6.92188 -6.043022,11.84526 -37.295828,15.20091 -53.9609375,14.16211 -8.5419022,-0.53246 -12.5451197,-1.91048 -12.5429687,-0.0488 0.00169,1.50417 2.3477393,3.22554 5.2148437,3.82422 8.5614265,1.78745 26.8378775,3.14169 38.2773435,0.92382 9.622048,-1.03695 23.763544,-9.12698 26.316406,-12.88867 4.425823,-6.52153 5.017949,-6.71082 12.75,-4.06054 10.842773,3.71633 19.448383,3.69073 28.492188,-0.0879 3.55028,-1.48338 7.27264,-4.14177 10.75,-7.43945 0.074,-0.0679 0.14854,-0.13914 0.22266,-0.20898 0.40935,-0.39271 0.81143,-0.79525 1.21289,-1.20508 l 0.006,-0.008 0.002,-0.002 c 5.83698,-5.96112 10.76699,-13.63057 12.60937,-20.47265 2.43043,-9.02592 2.69797,-9.2309 7.56446,-5.82227 6.39208,4.47719 20.81865,4.54609 29.33789,0.14063 5.47775,-2.83266 10.92761,-8.09122 14.52148,-13.39844 2.55096,-3.2527 4.17156,-6.43455 4.16992,-8.91602 -3.1e-4,-0.4925 -0.009,-0.89234 -0.0215,-1.27929 0.004,-0.10647 0.0234,-0.21979 0.0234,-0.32422 0,-2.35926 -0.11621,-3.59581 -0.63281,-3.48828 z m 312.53124,36.96679 c -0.37681,-0.0181 -0.65453,0.38554 -0.83984,1.20703 -0.0189,0.0909 -0.0181,0.21565 -0.0332,0.31641 -0.10394,0.22095 -0.11957,0.62812 -0.0391,1.23047 0.12056,2.48922 1.23653,6.3019 2.86914,9.45898 4.36403,8.4391 12.82226,9.88367 12.82226,2.18946 0,-4.10819 -0.57144,-4.44459 -3.47461,-2.03516 -0.39723,0.32969 -0.75786,0.59189 -1.09961,0.78906 -1.36006,-0.18742 -2.88905,-1.11069 -4.16211,-2.42773 -0.61141,-1.11156 -1.29429,-2.5759 -2.10742,-4.44922 -1.80514,-4.15863 -3.1052,-6.23921 -3.93359,-6.2793 z m 20.02149,5.8125 c -0.58908,-0.0367 -0.60938,1.1136 -0.60938,3.41602 0,2.57644 0.6954,5.38098 1.54493,6.23047 1.8497,1.84982 7.72265,2.06736 7.72265,0.28711 0,-0.69042 -2.08623,-3.49102 -4.63476,-6.22657 -2.2774,-2.44471 -3.43436,-3.67023 -4.02344,-3.70703 z m 21.20117,14.66993 c -1.16152,0.003 -0.51994,3.69023 2.51563,10.42187 2.31019,5.12307 3.54163,9.97396 2.73632,10.7793 -0.80526,0.80526 -5.78232,-2.85654 -11.06054,-8.13477 -5.27819,-5.27818 -10.1143,-9.5957 -10.74805,-9.5957 -2.27146,0 7.08507,12.84277 13.01953,17.87109 4.21916,3.57491 7.67769,5.10286 10.12305,4.99805 0.45585,0.15798 0.86081,0.27155 1.14258,0.27344 1.64821,0.0151 2.5437,-1.32226 2.74609,-3.41211 0.0847,-0.53276 0.14371,-1.10639 0.14258,-1.77344 -4e-5,-0.0151 -0.004,-0.0392 -0.004,-0.0547 0.12926,-3.4179 -1.37483,-8.40594 -4.9082,-14.39453 -2.80577,-4.75548 -4.79971,-6.98074 -5.70313,-6.97851 z m -105.38281,38.09765 c 0.46397,-0.0506 0.90635,0.094 1.28906,0.47656 0.4481,0.44811 -0.62673,3.4198 -2.38867,6.60352 -1.22117,2.20641 -1.97174,3.53154 -2.44531,4.04102 -0.38529,-0.95263 -0.68456,-2.22356 -0.82617,-3.73829 0.11451,-3.58696 2.43442,-7.17161 4.37109,-7.38281 z m -223.87305,1.08789 c 0.569,-0.0113 1.1345,-0.0115 1.69531,0.002 9.72059,0.20069 18.1734,3.72214 23.83594,10.08203 1.35962,1.52704 2.25288,2.55789 2.61524,3.3164 -0.79908,1.87858 -4.79794,3.03831 -11.96094,3.55274 -2.89777,0.034 -5.93601,-0.1596 -8.3125,-0.60547 -8.12387,-1.52402 -12.03253,0.92072 -8.55274,4.75781 4.29409,4.12445 14.51526,0.96705 20.23829,0.37695 2.73594,-0.28233 5.22575,-0.41472 7.49023,-0.39257 9.81278,0.096 15.38843,3.11861 18.36719,9.65625 1.61257,3.53918 1.9949,6.06907 1.16211,7.63281 -0.79815,0.71437 -1.90868,1.32159 -3.33008,1.83398 -0.51839,0.0548 -1.08097,0.0776 -1.70703,0.0488 -1.19749,-0.0556 -3.37242,0.0863 -5.80664,0.3418 l -0.51953,-0.0606 0.18554,0.0996 c -1.95785,0.21203 -4.04702,0.4874 -5.97656,0.81641 -3.43261,0.58526 -6.01556,0.83984 -8.11133,0.58593 l -0.043,0.1543 -23.5957,-4.23828 c -2.3144,-0.59153 -4.76759,-2.05848 -7.51758,-4.43164 -1.82556,-1.8025 -4.04277,-4.17547 -6.94531,-7.31641 l -2.99805,-3.24414 c -2.03581,-2.45612 -3.26566,-4.23481 -3.58398,-5.39648 h 4.84375 c 2.30107,0 3.83298,0.27011 4.80664,0.95508 0.31461,0.38906 0.61733,0.81454 0.9082,1.27734 0.1217,0.24945 0.2475,0.49637 0.34766,0.75977 0.0106,0.0265 0.0226,0.0525 0.0332,0.0801 0.10167,0.48858 0.15039,1.03997 0.15039,1.67383 0,3.31453 2.84348,6.02135 9.41797,8.96485 14.03511,6.9024 6.51583,4.69395 17.10938,5.85351 -0.97186,-1.47262 -1.95058,-3.29877 -3.05469,-5.58398 -0.93727,-4.43078 -6.0923,-5.22444 -8.11328,-2.72266 -0.89294,0.39553 -2.49062,0.007 -4.81055,-1.16211 -1.91321,-1.40039 -3.85396,-3.87434 -5.94336,-7.51758 -0.10866,-2.25671 -2.04609,-7.11075 -4.41406,-10.99414 l -4.11133,-6.74414 c 0.44457,-0.2846 1.13377,-0.55743 1.9707,-0.8164 l 9.01172,-1.19532 c 1.76985,-0.23471 3.5118,-0.36841 5.21875,-0.40039 z m 215.4082,0.25391 c 0.2109,0.0302 0.46094,0.38898 0.73829,1.08203 0.66886,1.67169 -1.5241,7.88557 -2.29297,8.65625 -0.16366,-0.059 -0.31355,-0.14506 -0.44727,-0.25391 -0.33864,-0.48396 -0.60959,-5.35271 -0.77344,-6.11523 -0.008,-0.27704 -0.007,-0.57331 0.004,-0.88867 0.002,-0.059 0.008,-0.10113 0.0117,-0.15821 0.10431,-0.71886 2.40817,-1.49657 2.69141,-2.29492 0.0227,-0.004 0.0438,-0.0311 0.0684,-0.0273 z m 18.75391,1.40039 c 0.13758,0.0639 0.26928,0.14587 0.40039,0.24414 0.3224,0.70586 -0.0914,2.62321 -1.00586,4.9082 -0.34507,0.60836 -0.73347,1.23655 -1.17383,1.86524 l -3.70898,5.29883 v -5.01368 c 0,-3.08466 1.45998,-5.86839 3.13477,-6.98437 0.1867,-0.0302 0.34993,-0.0536 0.55078,-0.0918 0.63541,-0.12132 1.2352,-0.18839 1.80273,-0.22656 z m 25.83399,2.01758 h 0.002 c 2.39872,8.7e-4 2.48118,1.43856 0.40039,6.95117 -1.85023,4.90171 -4.04139,7.41792 -5.27344,6.80469 -0.45861,-0.78652 -0.77277,-2.15241 -0.89844,-4.0918 0.0476,-0.864 0.15042,-1.74928 0.30274,-2.63086 0.63367,-3.04622 2.02932,-5.50501 3.73437,-6.52344 0.0151,-0.0113 0.0315,-0.0217 0.0488,-0.0293 0.53655,-0.31109 1.10276,-0.4801 1.6836,-0.48047 z m -10.31641,0.19726 c 0.24983,5.3e-4 0.46338,0.0623 0.65625,0.16016 0.0302,0.0265 0.067,0.0499 0.0957,0.082 0.25436,0.63946 -0.0702,3.8188 -0.75976,7.29688 -0.96042,4.84282 -2.94623,5.87677 -4.03125,3.55664 -0.0673,-0.89723 -0.15754,-1.88219 -0.28907,-3.00977 -0.0949,-0.81211 -0.16615,-1.53077 -0.21679,-2.19336 0.1542,-1.04602 0.40198,-2.03666 0.73242,-2.88086 0.44727,-0.84794 1.0078,-1.60962 1.58984,-2.19726 0.26986,-0.16404 0.50233,-0.28077 0.73828,-0.40039 0.57045,-0.27024 1.0698,-0.41494 1.48438,-0.41407 z m 22.56055,1.86328 c 0.55498,-0.008 1.02011,0.1575 1.32422,0.54883 0.36963,0.47603 -1.2381,2.69004 -3.57422,4.91992 -3.07605,2.93624 -3.99154,3.39871 -4.19336,1.59375 0.17008,-1.48108 0.82109,-3.05579 1.70898,-4.4707 1.4016,-1.4451 3.34521,-2.57048 4.73438,-2.5918 z m 3.60937,14.24219 v 0.002 c 4.59731,-0.0926 47.52489,27.82427 62.67188,40.75782 4.98584,4.25726 12.50766,8.3865 16.71484,9.17578 4.20718,0.78924 8.61073,2.62835 9.78711,4.08789 3.95917,4.91225 14.38834,72.85067 18.90234,123.13086 1.04225,11.60746 1.69769,20.12811 2.00391,26.3457 0.0265,5.37921 -0.0927,9.82255 -0.4043,12.69922 -0.37077,0.83104 -0.90804,0.82464 -1.61523,0.11719 -3.19363,-3.19359 -6.12496,-20.69121 -11.49219,-68.60156 -4.97904,-44.44441 -6.58916,-53.37005 -9.32422,-51.67969 -0.97825,0.60457 -0.6895,6.07385 0.64063,12.15039 3.72449,17.01468 3.49841,122.57198 -0.28516,133.25976 -1.69164,4.7785 -4.44488,8.68946 -6.11914,8.68946 -4.06976,0 -9.16244,-13.33965 -13.70898,-35.91016 -4.88501,-24.25111 -17.64063,-114.56084 -17.64063,-124.89648 0,-4.42719 -1.0421,-8.69492 -2.31641,-9.48242 -1.45054,-0.89655 -2.3221,4.03379 -2.33007,13.18554 -0.0151,17.13067 -3.77849,32.66174 -7.60352,31.38672 -3.92417,-1.30806 -5.78913,-10.02288 -6.07422,-28.35352 -0.24038,-15.45649 -7.29546,-48.23822 -15.20703,-70.66601 -1.05589,-2.99331 -2.81146,-6.27749 -4.91602,-9.36914 -0.0794,-0.1338 -0.1601,-0.25791 -0.24023,-0.38672 -0.17499,-0.28535 -0.35671,-0.55717 -0.53711,-0.82227 -0.0605,-0.0873 -0.11846,-0.17825 -0.17969,-0.26367 -0.54024,-0.76701 -1.11159,-1.46122 -1.72656,-2.10351 -1.50799,-1.84366 -3.09668,-3.54141 -4.69531,-4.92188 -6.70061,-5.78619 -7.6603,-7.46348 -4.30469,-7.53125 z m 32.86719,42.31445 c -2.15849,0.46882 0.13403,16.43952 3.51758,22.76172 0.99443,1.85813 2.18124,3.08773 3.39258,3.70508 0.94639,0.95437 1.85044,1.08842 2.71874,0.3457 1.64856,-0.43113 3.09593,-2.07839 3.85743,-4.91992 2.14031,-7.98659 1.72228,-15.63867 -0.85547,-15.63867 -1.27431,0 -2.31836,3.12833 -2.31836,6.95117 0,10.09595 -3.96038,8.51924 -5.78906,-2.30468 -0.86004,-5.09039 -2.67376,-9.94231 -4.03125,-10.78125 -0.18444,-0.11377 -0.34827,-0.15052 -0.49219,-0.11915 z m 65.8418,13.38086 c 8.25505,0.2366 51.75543,24.64303 56.9121,32.40625 0.11566,0.21506 0.21984,0.43259 0.29883,0.6543 0.53526,2.57061 -4.11713,8.28638 -8.45312,11.26563 -1.30281,0.68095 -2.7224,1.31006 -4.24805,1.87109 -0.0794,0.008 -0.16156,0.0195 -0.23828,0.0195 -2.00787,0.0302 -9.90709,2.69887 -17.55273,5.92969 -7.10759,3.00355 -13.12964,5.576 -15.07618,6.42969 -0.89631,-0.15496 -1.6545,-0.62844 -2.33398,-1.46485 -3.69997,-9.96782 -12.35657,-54.9344 -10.4707,-56.82031 0.2143,-0.2143 0.60825,-0.30727 1.16211,-0.29102 z m 187.29687,9.12696 c -5.80225,0.0265 -6.81963,0.57953 -4.18945,2.27929 4.5038,2.91062 8.62496,2.91062 10.42383,0 0.22337,-0.36132 0.20503,-0.68933 -0.0176,-0.98046 0.13266,-0.15685 -0.0234,-0.3388 -0.51367,-0.53711 -0.32504,-0.13153 -0.72903,-0.23042 -1.16602,-0.31055 -1.0998,-0.29065 -2.62899,-0.45956 -4.53516,-0.45117 z m 14.84375,3.69531 c -1.21289,-0.0484 -3.309,0.37626 -6.50976,1.25977 -1.01352,0.27968 -2.21688,0.50627 -3.50196,0.69921 -1.6696,-0.0397 -3.47021,-0.0596 -5.44531,-0.043 -3.76335,0.0302 -7.07114,0.10164 -9.93164,0.18554 -6.02015,-0.88237 -9.86328,-0.56807 -9.86328,0.82227 0,1.26773 2.86686,2.73866 6.37109,3.26953 15.18663,2.30052 28.46271,0.26035 30.0918,-4.62695 0.3326,-0.99769 0.002,-1.51826 -1.21094,-1.56641 z m -24.68945,10.16992 c -4.53517,0 -8.2461,1.04218 -8.2461,2.31641 0,1.2743 3.06687,2.3164 6.81446,2.3164 3.74759,0 7.45855,-1.0421 8.24609,-2.3164 0.85213,-1.37877 -1.90734,-2.31641 -6.81445,-2.31641 z m -112.00391,1.50977 c -3.21362,0.10847 -3.71121,1.4568 -1.27148,3.89648 2.23604,2.23601 9.54831,1.89536 11.03711,-0.51367 0.6994,-1.13155 -1.84641,-2.51504 -5.65625,-3.07422 -1.66651,-0.24453 -3.03819,-0.3445 -4.10938,-0.30859 z m -108.7793,0.89258 c -2.93385,0.33184 4.00709,42.20248 8.73633,51.03906 0.6209,1.16016 1.22955,2.03869 1.81836,2.68359 1.08684,1.7554 2.01038,2.25761 2.73828,1.48828 0.46099,0.034 0.85484,-0.26103 1.17383,-0.85351 3.53771,-3.29798 5.09848,-17.84724 2.00781,-33.30078 -2.61796,-13.08968 -4.44963,-7.57089 -3.55664,10.71484 0.11981,2.45802 0.19236,4.76276 0.22071,6.82812 l -0.7461,9.7129 c -0.0382,-0.002 -0.0743,-0.003 -0.11328,-0.041 -0.83338,-0.80069 -3.57232,-11.68044 -6.08594,-24.17578 -2.51365,-12.49542 -5.07283,-23.21928 -5.6875,-23.83399 -0.19351,-0.19351 -0.36129,-0.27797 -0.50586,-0.26171 z m 250.76563,2.01562 -4.99219,0.99609 c -1.07157,-0.0189 -2.82409,0.32081 -4.77539,0.92383 -5.54967,0.97074 -21.93871,1.59221 -37.14844,1.38672 -8.30483,-0.11187 -15.73137,0.0115 -20.93359,0.29492 l -6.28906,-0.89648 4.03906,1.03516 c -3.24998,0.23924 -5.19922,0.55519 -5.19922,0.92578 0,0.95758 4.34377,1.91104 9.65234,2.11914 5.30858,0.20787 10.26168,1.01584 11.00586,1.79492 1.16115,1.21561 8.35275,1.28437 16.85547,0.68555 0.17159,0.0113 0.3297,0.0256 0.52344,0.0332 1.23946,0.0514 2.19893,-0.0639 2.74609,-0.29102 11.05293,-0.96226 23.2558,-2.90217 27.31055,-4.92187 1.80578,-0.63349 2.99131,-1.27989 3.35547,-1.89063 z m -132.98828,7.99805 c -0.23018,-0.008 -0.44916,-0.008 -0.65821,0.002 -0.77181,0.0382 -1.38413,0.20633 -1.7207,0.54297 -0.6559,0.65586 0.34208,2.16224 2.2168,3.34766 4.33595,2.74223 9.19922,2.83895 9.19922,0.18164 0,-1.78987 -5.58357,-3.94379 -9.03711,-4.07422 z m -7.42578,6.70508 c -0.43782,-0.034 -0.82839,0.0184 -1.14258,0.1582 -0.20334,0.001 -0.31288,0.0781 -0.33594,0.22851 -0.0189,0.0189 -0.0495,0.026 -0.0684,0.0449 -0.92288,0.92288 0.34482,3.15571 2.81641,4.96289 4.73355,3.46121 12.34041,4.23626 18.47851,1.88086 6.7564,-2.59268 3.75383,-5.26848 -4.42382,-3.94141 -1.39491,0.22639 -2.74388,0.32869 -4.02344,0.33398 -1.78685,-0.0941 -3.57412,-0.33985 -5.17188,-0.71289 -0.97247,-0.31974 -1.81511,-0.73089 -2.44531,-1.2539 -1.2206,-1.01314 -2.59724,-1.61678 -3.68359,-1.70117 z m -197.33789,9.05078 c 0.61372,0.0302 1.19094,0.0731 1.73046,0.12304 13.02572,8.47213 23.79354,21.15956 33.09766,30.99805 6.34049,-2.08337 13.40969,-3.6875 16.49414,-3.6875 3.4317,0 11.67907,-1.41201 18.32813,-3.13672 4.70067,-1.21924 7.72318,-1.84445 9.57031,-1.88867 1.84709,-0.0442 2.51953,0.4909 2.51953,1.59766 0,1.56544 0.67917,6.25301 1.51172,10.41601 l 0.61719,3.08008 c -0.0688,1.93871 -0.29507,3.329 -0.79102,4.31641 l -10.82812,-1.10547 c -13.57901,-1.38698 -45.18411,5.98911 -63.27149,14.76562 -5.20104,2.52367 -7.5154,3.63291 -7.65429,3.34571 0.0302,-0.0756 0.0738,-0.16389 0.11914,-0.25196 0.32126,-0.45222 1.44353,-1.4428 3.26171,-3.02343 6.02877,-5.24115 6.82387,-8.37887 1.61719,-6.38086 -1.55799,0.59784 -2.46847,0.52024 -2.4707,-0.11914 1.29498,-0.92969 3.09201,-1.96388 5.03711,-2.91016 0.71115,-0.10961 1.45181,-0.16992 2.1875,-0.16992 3.0353,0 6.16363,-1.04413 6.95117,-2.31836 0.40694,-0.65843 0.54265,-1.18241 0.47266,-1.59571 0.0446,-0.0729 0.0234,-0.13376 -0.0488,-0.18554 -1.01552,-2.79557 -13.56698,0.77227 -19.7461,6.41601 -4.18548,3.82281 -8.58758,6.95118 -9.7832,6.95118 -1.19558,0 -2.17383,1.0608 -2.17383,2.35937 0,1.39506 2.60819,1.74677 6.37305,0.85937 2.72307,-0.64176 4.23067,-0.78072 4.62695,-0.40039 -0.0189,0.0877 -0.0237,0.16453 -0.0547,0.25977 -0.17689,0.53167 -0.73831,1.11191 -1.54297,1.67578 -6.49935,2.53047 -38.51856,4.83354 -45.31446,2.99805 -8.80792,-2.37884 -8.90693,-4.81856 -1.53515,-4.33985 0.0949,0.0151 0.17706,0.0283 0.27344,0.0449 1.75071,0.29593 3.57701,0.47611 5.45117,0.55468 14.28302,1.18043 31.07887,-3.53883 38.85937,-11.14453 3.69664,-3.6136 11.16207,-7.76221 16.58985,-9.21679 3.34422,-0.89628 8.41487,-2.45278 13.41601,-4.07618 -2.40758,-9.15911 -9.39981,-16.36132 -14.64062,-22.01562 -6.34016,-6.81252 -9.77834,-11.61681 -9.25,-12.79492 z m -328.20899,8.89453 v 0.004 c -0.3298,0 -0.66846,0.3601 -0.99609,0.95704 -1.90445,0.98982 -2.30406,3.08893 -1.84766,7.81054 -0.0367,0.3583 -0.0806,0.70936 -0.10937,1.07813 l -0.42383,5.4375 c -0.30285,0.2313 -0.69696,0.20313 -1.1875,-0.0996 -0.23615,-0.14589 -0.46059,-0.36088 -0.67774,-0.60156 l -0.8457,-2.83985 c -0.2911,-0.97806 -0.63888,-1.93036 -1.01172,-2.83594 -0.0129,-0.37001 -0.0468,-0.72611 -0.0977,-1.07031 0.0669,-0.2245 0.11328,-0.46696 0.11328,-0.74804 0,-2.49752 -3.76646,-5.14396 -5.6836,-4.31836 -0.23372,0.0741 -0.43395,0.19093 -0.59179,0.36328 -0.23792,0.10015 -0.47833,0.21978 -0.7168,0.36718 -1.43876,0.88918 -0.46971,3.85584 2.48438,7.61133 0.27446,0.34885 0.50035,0.65982 0.73828,0.98047 0.12272,0.17197 0.23912,0.34377 0.36914,0.51563 0.13447,0.17763 0.23806,0.3385 0.36328,0.51171 2.02051,2.96988 2.17194,4.54554 0.50976,5.09961 -1.57316,0.52438 -4.24476,-0.93963 -5.93554,-3.25195 -2.9116,-3.98181 -5.63149,-3.48486 -5.23828,-0.0332 -0.46109,1.06545 0.12983,2.71829 1.5996,3.78125 1.32262,1.34305 3.66217,2.61867 6.1875,3.32812 0.001,6.1e-4 0.003,7.8e-4 0.004,0.002 0.90533,0.38388 1.80078,0.67027 2.65039,0.84961 0.28233,0.15874 0.78337,0.23671 1.49219,0.25976 2.79357,1.03809 4.01463,2.60606 4.07031,5.06445 -0.0606,1.91377 -0.62098,2.97253 -4.04101,3.54297 -0.56072,0.0934 -1.2287,0.16874 -1.95313,0.23828 -1.0467,-0.12548 -2.20733,-0.2877 -3.64648,-0.51757 -11.237952,-1.79706 -48.267581,0.7653 -48.267581,3.33984 0,3.23868 7.814767,4.79477 40.474611,8.04883 30.02411,2.99149 56.83398,9.07604 56.83398,12.90039 0,0.87972 -4.63048,2.76468 -10.28906,4.18945 -5.65858,1.42481 -10.97064,3.69813 -11.80664,5.05078 -0.14873,0.24076 -0.50529,0.46148 -1.01563,0.66407 -0.9237,0.25587 -1.85037,0.48346 -2.77929,0.68359 -3.52799,0.56606 -9.22148,0.80811 -16.07813,0.62695 -7.60424,-0.20069 -12.67809,-0.17079 -15.87695,0.21094 -0.0257,-8.7e-4 -0.05,-0.008 -0.0762,-0.008 -0.15787,0 -0.31172,0.0144 -0.46094,0.0469 h -0.002 -0.002 c -0.22446,-0.0302 -0.45389,-0.0469 -0.691402,-0.0469 -1.91141,0 -3.476563,1.04405 -3.476563,2.31836 0,0.43649 0.195587,0.83793 0.513672,1.1875 0.0021,0.002 0.0019,0.004 0.0039,0.008 0.106658,0.22904 0.237953,0.46931 0.394531,0.72266 0.856324,1.38565 4.843626,1.45087 10.544926,0.16992 13.26827,-2.98122 20.93223,0.47301 20.97461,9.43945 -5.3e-4,0.15269 -0.01,0.28836 -0.0117,0.4375 -0.0827,3.99077 -1.47994,7.28941 -3.45899,8.04883 -3.78519,1.45255 -4.83568,7.78711 -1.29101,7.78711 0.70806,0 1.87777,-0.77318 3.10156,-1.94922 1.36758,-0.86049 2.68621,-2.3662 3.41016,-4.08203 2.84922,-3.27273 5.65866,-2.97092 6.16601,0.0332 0.0166,0.32769 0.0246,0.66394 0.0117,1.02149 -0.0106,0.28648 0.004,0.56429 0.0234,0.83789 -0.0559,0.56284 -0.15243,1.1618 -0.32617,1.82617 -0.84209,3.22019 -0.069,4.63281 2.53515,4.63281 2.33492,0 3.5106,-1.52371 3.59375,-3.83984 0.0921,-0.24907 0.15039,-0.51486 0.15039,-0.79493 0,-0.39855 -0.11183,-0.76921 -0.29101,-1.09765 -0.45389,-2.5697 -1.91158,-5.71128 -4.3418,-8.80078 -2.50425,-3.18365 -4.03853,-5.56701 -4.20508,-7.54102 0.87529,-2.81563 4.45384,-5.23011 11.10742,-7.82812 3.38214,-1.08076 7.57772,-2.24706 12.79102,-3.61328 9.35941,-2.45288 12.25272,-2.47236 15.06055,-0.0996 1.91139,1.61499 7.12404,4.7807 11.58398,7.03515 4.45994,2.25457 15.40629,11.06194 24.32617,19.57227 8.91988,8.51028 21.19374,18.31925 27.27735,21.79687 6.08361,3.47758 10.45412,7.30727 9.71093,8.50977 -0.74317,1.20246 -8.92291,2.18555 -18.17773,2.18555 -2.15812,0 -4.32281,0.0702 -6.48047,0.20703 -0.008,5.6e-4 -0.0183,7.8e-4 -0.0273,0.002 -0.42771,0.0189 -0.85166,0.0343 -1.29688,0.0664 -0.70191,-0.0816 -1.85363,0.0552 -3.29687,0.33984 -13.50512,1.45746 -26.25732,5.44945 -34.35352,11.00195 -3.18567,2.18476 -9.96152,5.2606 -15.05859,6.83594 -1.96109,0.60612 -4.43833,1.49746 -6.99024,2.46094 -2.86793,0.34205 -7.32384,2.19841 -11.03125,4.58008 -0.15666,0.0733 -0.36257,0.16023 -0.51367,0.23242 -11.81729,5.61985 -12.3214,5.55547 -10.99805,-1.36719 0.83315,-4.35829 -0.91981,-7.77922 -7.19726,-14.05664 -7.93738,-7.93723 -8.92418,-8.27195 -22.85156,-7.73242 -8.006362,0.3103 -16.381361,-0.25153 -18.611332,-1.25 -1.277783,-0.57207 -2.172786,-0.79461 -2.792969,-0.58008 -1.005524,-0.25701 -1.26519,0.24141 -1.058593,1.67578 -0.142413,0.73017 -0.203125,1.69078 -0.203125,2.94531 0,4.49711 -1.480082,6.18529 -6.373047,7.28321 -3.504238,0.78625 -8.915557,3.37199 -12.027344,5.74414 l -5.660156,4.3125 L 71,712.58789 c 5.603947,5.22558 11.538284,9.50195 13.1875,9.50195 0.460755,0 0.892143,0.11792 1.283203,0.31446 0.352177,0.31067 0.657372,0.64771 0.914063,1 0.498871,0.75624 0.798828,1.53011 0.798828,2.23828 0,2.01815 0.799728,3.1772 1.77539,2.57422 0.17658,-0.10923 0.696861,-0.26183 1.361328,-0.43164 1.085863,0.11905 2.449595,0.1285 4.210938,0.0117 0.0053,7e-5 0.0088,-8e-5 0.01367,0 8.748038,0.12056 23.328218,-2.57487 32.724608,-6.31641 1.88362,-0.68561 3.37127,-1.36853 4.33985,-2.02149 1.04881,-0.58416 1.96585,-1.18149 2.68554,-1.79101 0.90208,-0.76399 1.57764,-1.3211 2.09766,-1.70703 0.21006,0.51609 0.30915,1.25425 0.26758,2.16406 -0.26109,0.60212 -0.45567,1.08106 -0.83789,1.91992 -1.79309,3.9354 -8.76452,9.05978 -20.41797,15.01367 -21.914214,11.19614 -25.404886,16.58762 -26.117191,40.31836 l -0.523437,17.37696 h 0.738281 v 1.36718 l 7.294922,-1.36718 h 0.447266 c 5.239339,0 8.479459,1.10699 8.478519,2.89648 -5.9e-4,1.1119 -0.0306,1.87888 0.2832,2.28711 0.0873,0.33638 0.18389,0.58106 0.29297,0.57422 0.0743,-0.004 0.40758,-0.1021 0.875,-0.2461 0.91219,0.55835 2.34053,0.33616 3.49805,-0.89453 1.67154,-0.54497 3.89651,-1.33492 6.88867,-2.39062 20.04974,-7.07392 33.74472,-26.68647 31.26562,-44.77344 -0.78708,-5.74239 -3.09742,-12.98341 -5.13281,-16.08984 -3.43671,-5.24508 -3.38259,-6.07103 0.73633,-11.58789 1.19183,-1.59632 2.88555,-3.22542 4.66797,-4.58594 1.83836,-1.15155 4.01699,-2.28389 6.35742,-3.29688 8.45389,-2.49248 15.85329,-4.6351 22.38672,-6.45117 6.15987,-1.58706 12.72598,-3.29314 19.08398,-4.96093 18.54935,-4.36166 30.41172,-5.36446 49.50391,-5.62305 15.31249,-0.20712 23.90523,-0.004 28.61914,0.83008 1.29697,0.34431 2.55777,0.75789 3.84375,1.24023 0.34042,0.2143 0.62714,0.4398 0.83594,0.69141 1.45151,1.74897 3.93662,3.18164 5.52343,3.18164 1.58682,0 11.45898,5.70368 21.93555,12.67578 19.85202,13.21138 22.48011,14.04504 51.22852,16.22851 18.71244,1.42126 65.40597,9.00253 72.39257,11.75391 2.92056,1.15015 1.68144,2.41044 -5.49218,5.18945 -0.88679,0.31484 -1.79888,0.66187 -2.72657,1.03321 -6.7802,2.49218 -17.79179,6.53287 -24.55468,9.01172 -6.7928,2.48983 -16.50651,7.27656 -21.58399,10.63671 -2.34688,1.55305 -4.61413,3.45666 -6.64258,5.47266 -0.63893,0.34885 -1.41234,1.21508 -2.19726,2.34766 -4.72823,5.37021 -7.4046,10.87402 -5.08985,12.30468 2.97845,1.84075 12.00553,-5.39728 14.31836,-11.48046 2.0073,-5.2797 9.49676,-10.33128 20.22461,-13.64063 3.47585,-1.07218 4.65917,-1.00139 5.03516,1.92578 0.004,0.048 0.012,0.0911 0.0195,0.14063 0.0302,0.2502 0.0393,0.57849 0.0586,0.86914 0.0265,0.4041 0.0516,0.81787 0.0645,1.30078 0.0113,0.56878 0.0233,1.15158 0.0195,1.8418 -0.008,4.22721 -1.57304,10.67237 -3.47656,14.32226 -4.46816,8.56706 -4.50165,17.69141 -0.0664,17.69141 4.6396,0 8.57044,-8.03213 7.06445,-14.4336 -1.72274,-7.32279 1.15252,-11.37813 6.28516,-9.54687 2.24141,1.3937 4.55061,3.50451 6.25,5.64648 0.1028,0.31673 0.17383,0.62411 0.17383,0.90625 0,4.38996 9.67626,10.99761 12.28515,8.38867 3.6087,-3.60873 -2.57078,-11.18619 -13.40234,-16.42968 -6.78992,-3.28691 -10.4668,-6.56401 -10.4668,-9.33399 0,-1.32684 0.59673,-2.74455 1.65821,-4.18164 1.40594,-1.51377 3.06737,-3.07933 4.86132,-4.54492 0.004,-0.004 0.01,-0.008 0.0137,-0.0156 4.13525,-2.93768 9.90189,-5.61553 16.34179,-7.34961 8.77864,-2.36383 11.64102,-2.10153 21.99024,2.0039 6.54342,2.59578 21.57047,6.35322 33.39453,8.35156 2.67103,0.45143 5.34796,0.93982 7.95508,1.43165 3.18206,0.65314 6.55558,1.33731 10.26953,2.07617 4.27128,0.93611 7.61925,1.77773 9.05664,2.32422 3.18074,1.20933 12.7961,3.31439 21.36523,4.67578 10.22245,1.62395 20.75793,5.39021 30.63867,10.95508 8.28273,4.66495 28.61226,15.41401 45.17774,23.88476 40.4349,20.6764 59.0596,30.86361 58.9707,32.25977 -0.0559,0.87745 -2.83915,2.88883 -7,5.35547 -1.70256,0.9081 -3.5863,1.96418 -5.57422,3.13281 -9.8152,5.28041 -22.94697,11.31348 -30.17773,13.37109 -7.64564,2.17576 -22.24144,8.67396 -32.43555,14.44141 -14.52385,8.21711 -36.84291,15.94955 -54.66992,19.52929 -8.55817,1.33013 -17.18044,1.92521 -25.9082,1.76954 -17.42551,-1.1593 -39.74269,-5.42583 -53.79883,-10.53125 -8.91991,-3.23993 -21.95248,-7.9757 -28.96094,-10.52344 -12.22617,-4.44457 -14.46544,-4.51193 -55.22656,-1.64063 -1.34493,0.0945 -2.34622,0.15999 -3.61133,0.24805 l -1.21484,0.0137 c -22.98555,0.30728 -39.03226,0.21675 -50.18946,-0.44531 -1.40869,-0.31899 -2.83056,-0.6501 -4.42382,-1.04687 -13.15743,-3.27636 -17.4979,-5.41741 -19.38477,-9.5586 -3.66554,-8.04495 -12.43789,-12.68271 -26.79101,-14.16406 -11.5867,-1.19588 -12.92188,-1.8895 -12.92188,-6.70703 0,-8.01857 -7.55018,-21.65769 -12.02539,-21.72266 -0.0705,-0.001 -0.13396,0.008 -0.20313,0.008 -0.13927,-0.0385 -0.273,-0.0644 -0.40039,-0.0644 -0.35334,0 -0.68859,0.0648 -1.01171,0.1582 -4.1665,0.58919 -5.04124,3.7863 -1.39258,6.81446 1.89738,1.57466 3.48093,1.95354 3.52148,0.84179 0.0136,-0.37455 0.0614,-0.65148 0.13281,-0.85546 0.43913,0.008 0.84619,0.0395 1.2168,0.0996 2.00301,2.06302 5.52734,10.20355 5.52734,14.42188 0,6.31034 -0.42884,6.60571 -7.52929,5.20312 -4.14138,-0.81804 -10.45418,-2.61559 -14.0293,-3.99414 -2.9231,-1.12713 -5.05928,-1.53033 -6.67383,-1.23046 -0.44205,-0.008 -0.79469,0.10192 -1.0664,0.3457 -0.44481,0.20712 -0.855,0.47021 -1.21094,0.82617 -2.57806,2.57805 -1.65803,5.19693 1.05859,6.26563 0.20546,0.25965 0.46696,0.44701 0.80469,0.5664 0.64014,0.32315 1.4493,0.43067 2.39063,0.24805 0.51865,-0.10054 0.98212,-0.24633 1.41992,-0.40821 0.3832,-0.0737 0.7481,-0.13957 1.1875,-0.23632 2.19346,-0.48178 6.76883,-0.20977 12.29882,0.53711 0.19072,0.0506 0.39672,0.094 0.58008,0.14843 4.01308,1.18439 13.42803,3.515 20.92383,5.17969 11.65488,2.58826 14.58999,4.35414 20.27149,12.19727 3.65404,5.04427 6.64453,10.05756 6.64453,11.14062 0,1.0831 -3.51667,1.96875 -7.81641,1.96875 -4.29973,0 -12.09503,1.50799 -17.32031,3.35156 -9.48309,3.34587 -9.50765,3.34011 -13.53321,-3.47461 -4.55013,-7.70271 -9.98437,-9.04485 -9.98437,-2.46484 0,2.4878 2.09788,4.91138 4.87891,5.63867 0.46641,0.1217 0.87533,0.26341 1.25586,0.41407 1.21802,0.9442 2.07547,1.67856 2.50976,2.32421 -0.1302,0.96813 -0.49442,1.99215 -1.04492,3.01368 -1.29455,1.56302 -3.68457,3.27272 -7.11524,4.96289 -1.50487,0.74139 -2.91123,1.61445 -4.08398,2.5 -1.91033,0.192 -3.35156,0.9642 -3.35156,1.88281 0,0.36586 0.029,0.69255 0.0703,0.99805 -0.0355,0.17952 -0.0703,0.35907 -0.0703,0.54687 0,0.47891 0.0264,0.8916 0.0684,1.26563 0.006,0.1028 0.0191,0.19029 0.0293,0.28515 0.32792,3.0819 2.94226,2.0532 12.0293,-4.24414 6.41838,-4.44794 9.60438,-5.46392 11.42383,-3.64453 3.39354,3.3936 0.40946,14.44727 -3.90039,14.44727 -1.88712,0 -3.43164,1.56322 -3.43164,3.47461 0,2.60424 1.468,3.63232 3.45117,3.32421 0.37572,0.0915 0.7869,0.15235 1.25977,0.15235 1.13829,0 2.39637,-1.163 3.57617,-2.9336 0.82766,-0.80572 1.63391,-1.76461 2.36914,-2.88671 2.49983,-3.81517 3.33467,-8.21541 2.42187,-12.7793 l -0.77929,-3.89258 c 0.60058,-0.99851 1.3408,-2.02337 2.1582,-2.99414 h 3.08203 l 19.00195,0.23828 c 13.67069,0.17273 34.55022,1.76347 46.39844,3.53516 15.87389,2.37362 22.78721,2.55436 26.27539,0.6875 2.60356,-1.39336 12.48287,-3.11953 21.95508,-3.83594 15.01572,-1.13567 17.04625,-0.83718 15.83008,2.33203 -0.19049,0.49633 -0.463,1.00448 -0.78906,1.49805 -0.3001,0.3871 -0.57352,0.74569 -0.9336,1.19726 -0.87832,0.98423 -1.91767,1.80211 -2.87109,2.16797 -1.75846,0.67484 -5.81437,5.37425 -9.01563,10.44532 -5.90406,9.35262 -37.75586,35.35344 -46.83398,38.23242 -2.43535,0.77227 -4.32225,0.46966 -6.76953,-1.58985 -0.51661,-0.45165 -1.12196,-1.04764 -1.72656,-1.64257 -1.09298,-1.14237 -2.31081,-2.57916 -3.72852,-4.36915 -0.79481,-1.00354 -1.62436,-1.94886 -2.47656,-2.85742 -0.007,-0.0484 -0.0332,-0.11656 -0.0332,-0.15625 0,-0.51469 -1.26448,-1.63484 -3.23828,-2.98633 -15.11458,-12.99696 -37.55203,-13.1605 -63.41992,-0.13281 -12.30563,6.19748 -14.37676,8.006 -11.20117,9.7832 3.56906,1.99733 3.49864,2.53924 -0.82617,6.45313 -2.22462,2.01328 -3.6015,3.61065 -4.16016,4.84766 -0.066,0.1028 -0.10581,0.19419 -0.12891,0.27734 -0.005,0.0189 -0.009,0.035 -0.0117,0.0527 -0.7257,2.07935 1.17989,3.01172 5.76953,3.01172 3.4039,0 7.83398,1.4596 9.8457,3.24414 2.01175,1.78462 7.30569,3.77984 11.76562,4.43555 4.45995,0.65567 11.39998,1.91264 15.41993,2.79297 l 4.08593,0.89453 c 1.27212,0.48053 2.29635,0.94165 2.95313,1.34961 l -3.2168,7.70117 c -1.09897,2.63018 -2.03737,7.69679 -2.6914,13.23047 -0.20516,0.47218 -0.33203,0.94828 -0.33203,1.37695 0,0.23509 0.0455,0.43004 0.11132,0.60352 -0.68292,6.58189 -0.94925,13.49239 -0.56836,17.61909 l -0.19336,3.0215 0.70313,-0.1757 c 0.1186,0.3352 0.25411,0.5881 0.40625,0.7402 0.50681,0.5069 8.67167,-1.9408 18.14453,-5.4375 14.80323,-5.4643 18.1894,-7.7947 24.10156,-16.59767 3.84207,-5.72069 5.93713,-10.5854 7.04688,-16.88867 0.57635,-2.25543 0.81374,-4.37792 0.78906,-6.625 0.004,-0.0582 0.0115,-0.10781 0.0156,-0.16602 0.69811,-9.65136 1.90437,-13.4375 4.2832,-13.4375 1.82152,0 6.63501,-1.71871 10.69531,-3.81836 8.62579,-4.46059 48.31422,-33.84889 52.46289,-38.84765 0.002,-0.003 0.008,-0.004 0.008,-0.008 1.21021,-0.82662 2.34167,-1.57737 3.35938,-2.20704 2.9701,-1.45375 7.33689,-2.96383 11.70508,-3.9414 10.46664,-2.34233 14.04066,-2.14529 24.72656,1.35742 14.78891,4.84758 42.79886,18.53554 44.90625,21.94531 1.67426,2.70905 -1.16988,6.60186 -26.21484,35.90235 -32.22596,37.70154 -40.10018,44.17114 -60.43555,49.65824 -4.3468,1.1728 -8.72407,2.2136 -12.60742,3.0527 -1.53831,0.2971 -3.15208,0.6397 -4.78907,0.9883 -2.67517,0.4963 -4.76025,0.791 -5.82812,0.791 -2.92783,0 -10.32714,1.7763 -16.43945,3.9473 -2.59832,0.9228 -4.74961,1.6066 -6.85157,2.0722 -3.78702,0.3961 -8.1715,0.5022 -13.76562,0.3594 -3.11156,-0.3088 -6.8363,-0.7973 -11.51367,-1.459 -14.88278,-2.1065 -19.29279,-2.6828 -25.41211,-0.6094 l -1.46875,-0.088 -18.0293,8.6075 -0.0312,0.016 c -4.4502,1.9094 -8.62938,3.6225 -11.19531,4.5527 -8.10467,2.9387 -8.57588,2.8098 -13.32031,-3.6074 -2.70546,-3.6593 -4.91993,-7.7013 -4.91993,-8.9824 0,-1.2811 -2.0157,-3.4075 -4.48046,-4.7266 -1.55447,-0.8319 -3.87105,-1.451 -6.34375,-1.8476 -1.21999,-0.3493 -2.44818,-0.5508 -3.62891,-0.5508 -0.43197,0 -0.80995,0.024 -1.19336,0.041 -1.33908,-0.1096 -2.57061,-0.093 -3.49609,0.088 -2.35927,0.1886 -4.01797,0.7089 -4.00977,1.6094 0.02,2.2048 14.53185,12.1621 17.72461,12.1621 1.3165,0 4.27954,2.0862 6.58594,4.6347 1.29816,1.4345 2.13303,2.3908 2.59179,3.0762 -0.22344,0.5971 -0.8093,1.1121 -1.71093,1.5625 -0.33744,0.011 -0.68194,0.016 -1.10157,0.016 -2.42747,0.011 -10.07218,2.6567 -16.99023,5.877 -12.00471,5.5882 -12.98482,5.6935 -21.47852,2.2949 -6.32726,-2.5315 -10.5282,-3.6401 -12.99023,-3.332 -1.55319,-0.06 -2.35769,0.4261 -2.39063,1.4707 -0.24385,0.4813 -0.375,1.0638 -0.375,1.7754 0,2.4157 2.42884,3.4765 7.97071,3.4765 4.5749,0 7.72038,0.8892 8.8789,1.9375 0.32327,0.4924 0.43229,1.0037 0.26368,1.502 -0.57061,0.6881 -2.14549,1.2974 -4.91016,1.6152 -3.6394,0.4183 -6.41211,2.1562 -6.41211,4.0196 0,4.5356 4.60629,5.6474 8.41992,2.0332 1.74074,-1.6497 7.075,-4.8044 11.85352,-7.0137 l 7.59765,-3.5137 c 0.39637,-0.097 0.78232,-0.1865 1.08985,-0.2265 v 5.3847 c 0,3.1148 -1.66259,7.0093 -3.69531,8.6524 -1.84362,1.4901 -3.52157,2.9158 -5.03711,4.2793 -1.44723,0.9334 -2.80533,2.2811 -3.96289,3.8066 -7.3322,7.567 -8.18202,12.2754 -1.56446,12.2754 2.39476,0 5.22457,-1.9306 7.95703,-4.9121 1.57574,-1.4917 2.90659,-3.1269 3.55469,-4.5723 4.13826,-6.1504 7.38281,-14.1221 7.38281,-20.2773 0,-0.3443 0.008,-0.6562 0.0137,-0.9766 0.8482,-5.5317 1.16643,-7.1308 10.41406,-9.793 1.83835,-0.3458 3.96464,-0.6858 6.5,-1.0586 6.61795,-0.973 20.07286,-4.2006 29.90039,-7.1718 l 9.96289,-3.0117 c 5.17822,-0.9334 8.88041,-1.1798 12.50781,-0.7461 0.40271,0.08 0.78481,0.1523 1.21094,0.2441 l 14.54687,4.7266 c 6.94372,2.2563 13.13168,4.4398 17.28125,6.0351 2.36366,1.1203 4.18974,2.1305 5.13868,2.8965 0.27953,5.3687 -12.80999,33.1029 -17.46289,36.6992 -1.97177,0.7231 -4.23528,0.8828 -6.91602,0.5156 -5.36793,-1.129 -11.27037,-4.8538 -13.22266,-9.1386 -0.14101,-0.3096 -0.30994,-0.6063 -0.49023,-0.8965 -0.1629,-1.4422 -0.47916,-2.4629 -0.84961,-2.4629 -0.29541,0 -1.08549,-0.2049 -2.05859,-0.5098 -3.68204,-2.5573 -8.55469,-2.9124 -8.55469,0.6153 0,4.2219 11.18044,13.7949 16.11133,13.7949 2.60646,0 4.74023,1.0421 4.74023,2.3164 0,1.2743 -2.26449,2.3184 -5.03125,2.3184 -3.06185,0 -7.33244,2.1864 -10.24805,4.7148 -0.098,0.084 -0.20032,0.1673 -0.29492,0.252 -0.0866,0.078 -0.16421,0.1577 -0.24804,0.2363 -0.20742,0.1942 -0.41567,0.3882 -0.60352,0.5859 h -0.002 c -1.28655,1.3412 -2.10938,2.7049 -2.10938,3.836 0,0.039 0.0157,0.07 0.0176,0.1074 -0.002,0.047 -0.0176,0.097 -0.0176,0.1445 0,0.3387 0.13127,0.6008 0.36133,0.8008 1.66576,2.0407 8.81885,0.4848 13.80664,-3.4024 11.84861,-9.234 20.96278,-12.2552 22.08398,-8.0937 0.092,1.292 -0.15006,2.9614 -0.70898,4.418 -0.55881,1.4563 -0.46588,2.9128 0.19141,4.2617 0.30236,0.9637 0.76286,1.873 1.35937,2.5918 6.89317,8.3058 10.59233,1.7944 5.29297,-9.3184 -3.9383,-8.2587 -3.91727,-8.5355 0.93555,-12.3222 2.73045,-2.1307 11.29923,-12.4756 19.04101,-22.9883 7.09709,-9.6373 12.46852,-15.7034 15.9375,-18.0274 l 3.38477,-1.1562 c 3.77488,-0.5431 16.61679,-4.4618 29.97851,-9.1797 14.40443,-5.0862 26.80351,-9.2536 27.55469,-9.2656 2.59642,-0.038 6.42193,11.028 6.71485,19.0351 0.008,0.3708 0.0176,0.7415 0.0176,1.1192 -0.0427,4.6823 -1.99928,10.6074 -4.625,13.9453 -0.19237,0.2449 -0.37187,0.5304 -0.55468,0.8086 -0.0673,0.094 -0.13346,0.1912 -0.19922,0.291 -0.0397,0.064 -0.0798,0.1256 -0.11914,0.1914 -0.99561,1.5621 -1.86131,3.7245 -2.45703,5.9961 -1.87144,6.58 -2.01734,14.1973 0.65429,14.1973 4.43626,0 9.11037,-8.7933 10.21875,-19.2266 0.50136,-4.7196 1.25447,-9.0746 1.87696,-11.1328 1.01083,-1.1901 2.55881,-1.4099 4.25585,-0.9649 3.50189,1.8588 7.91739,6.9023 8.77735,11.0996 1.64613,8.0341 4.0005,9.5876 7.72851,5.0957 2.42193,-2.9182 1.4106,-4.9587 -6.11523,-12.3359 -4.95832,-4.8603 -10.05669,-9.2688 -11.32813,-9.7988 -1.2715,-0.5301 -3.98106,-5.8456 -6.02148,-11.8106 l -3.71094,-10.8437 11.82032,-11.3613 c 12.14838,-11.67841 39.72253,-29.66652 55.45507,-36.17778 4.88603,-2.02216 18.72064,-10.53704 30.74414,-18.91992 13.06481,-9.10885 29.06629,-17.8847 39.76954,-21.8125 9.85016,-3.6147 21.9916,-8.32815 26.98046,-10.47266 9.035,-3.88376 34.09545,-9.46996 74.9961,-16.71679 7.00475,-1.24109 11.73898,-2.05656 15.52539,-2.42578 4.15937,-0.008 8.06358,0.22372 11.49414,0.67968 2.73301,0.64271 5.82742,1.62359 10.05078,2.99805 8.55719,2.78494 18.65558,5.05121 22.43945,5.03125 5.77316,-0.0265 11.08255,4.34542 33.01368,27.18945 14.37433,14.97264 26.12148,25.65947 26.10156,23.74805 -0.0189,-1.91142 -10.75906,-14.65055 -23.86914,-28.30859 l -23.83399,-24.83204 9.9961,-1.5 c 5.49823,-0.82446 10.65065,-2.56091 11.45312,-3.85937 0.94197,-1.52413 -1.32468,-1.85658 -6.39844,-0.93555 -25.23397,4.58068 -32.12278,4.47672 -47.50976,-0.7207 -3.31287,-1.11904 -6.65377,-1.99782 -10.0586,-2.65039 -3.57377,-1.0221 -6.64515,-1.40499 -10.78906,-1.26367 -10.87256,-0.51682 -22.74995,1.1016 -36.81054,4.91015 -6.37134,1.72585 -19.402,4.39418 -28.95899,5.92969 -9.55703,1.53543 -24.67387,5.69427 -33.59375,9.24219 -8.91987,3.54792 -21.34208,8.27146 -27.60351,10.49609 -0.20485,0.073 -0.44715,0.17126 -0.67188,0.25782 -0.50578,0.16856 -1.18691,0.46236 -1.95117,0.8125 -7.33138,3.25768 -20.80699,10.99341 -32.12891,18.52929 -12.85262,8.5547 -25.97642,16.91322 -29.16211,18.57617 -0.48835,0.25474 -0.72138,0.35828 -1.125,0.56446 -0.47796,0.2143 -0.89657,0.39023 -1.18945,0.47656 -0.92693,0.27326 -1.47359,0.41769 -2.10156,0.58984 0.15458,-0.40762 0.76951,-1.20606 1.80469,-2.46093 2.22387,-2.69583 2.71668,-3.8491 1.20703,-3.72071 -0.0971,-0.0227 -0.18476,-0.0532 -0.3125,-0.0566 -0.49115,-0.0113 -1.08493,0.19991 -1.71289,0.55469 -0.62752,0.20372 -1.32825,0.44972 -2.17188,0.77344 -2.01566,0.77351 -3.66406,2.61416 -3.66406,4.08984 0,1.47572 -6.93513,6.83818 -15.41016,11.91602 -8.47498,5.0779 -21.33988,14.70442 -28.58984,21.39453 -0.18558,0.17159 -0.369,0.33236 -0.55469,0.50195 -1.54019,1.30435 -2.99315,2.56501 -4.20312,3.69731 -0.20788,0.1942 -0.4381,0.3941 -0.65039,0.5898 -5.1007,4.3256 -9.35845,7.375 -10.46094,7.375 -1.47761,0 -2.68555,0.8504 -2.68555,1.8887 0,3.4621 -40.64228,19.8663 -60.68945,24.4961 -4.39514,1.015 -10.47639,7.2676 -20.54297,21.123 -7.04768,9.7002 -13.24477,17.7985 -14.80078,19.3809 -0.0428,-0.038 -0.0897,-0.056 -0.13086,-0.098 -0.0788,-0.079 -0.11501,-0.233 -0.11524,-0.4472 0.56559,-1.8216 2.61924,-6.4892 5.3086,-11.9727 1.77241,-3.6138 3.08289,-6.5535 3.80469,-9.0293 7.5e-4,0 7.4e-4,-0.012 0.002,-0.012 0.23765,-0.6027 0.44905,-1.165 0.63281,-1.6895 0.30905,-0.6133 0.48464,-1.1644 0.52734,-1.6836 0.16464,-0.6143 0.28125,-1.1461 0.28125,-1.4804 0,-3.4729 -4.48643,-6.7779 -14.14648,-10.2911 -2.33497,-0.9004 -4.99547,-1.849 -8.04102,-2.8945 -20.18754,-6.9306 -19.51277,-7.8383 2.78125,-3.7305 11.455,2.1106 16.65746,2.0826 23.43555,-0.1328 4.79164,-1.5657 17.87734,-4.798 29.07813,-7.1836 36.18739,-7.7075 39.39771,-10.1745 83.75976,-64.31441 12.66921,-15.46163 24.0106,-27.50587 25.20508,-26.76758 1.19331,0.73829 1.72299,-0.008 1.17383,-1.6543 -1.51775,-4.55323 -38.31012,-24.82391 -54.17578,-29.84765 -11.15524,-3.53224 -16.32686,-4.01284 -25.24024,-2.34766 -11.33189,2.11706 -13.85395,3.34963 -25.30078,13.80664 -0.61772,0.51515 -1.23201,1.0122 -1.85351,1.55664 -3.30433,2.89478 -6.047,5.2468 -8.48438,7.3125 l 3.64258,-6.09766 c 2.47721,-4.14829 8.7843,-12.10998 14.01562,-17.6914 5.23136,-5.58146 8.8709,-10.7893 8.08789,-11.57227 -2.61962,-2.61963 -29.6173,-1.45933 -42.23828,1.81446 -10.57091,2.74189 -15.41868,2.76128 -31.72656,0.12109 -10.5872,-1.71379 -25.61944,-3.08669 -33.4043,-3.05078 -7.78485,0.0378 -14.76126,-0.53859 -15.50195,-1.2793 -0.43941,-0.43941 0.1432,-0.8261 1.36914,-1.07226 1.13609,-0.0446 2.21377,-0.13461 3.22461,-0.26954 0.0348,-1.5e-4 0.0662,-0.002 0.10156,-0.002 3.83225,0 6.11458,-0.5857 6.86328,-2.14453 2.06135,-1.32238 2.3908,-2.98782 0.20508,-4.48633 -0.32753,-0.2245 -0.83622,-0.76932 -1.42969,-1.47851 -1.09066,-2.13498 -2.76762,-4.77126 -5.05078,-8.01953 -4.51343,-6.42131 -7.33867,-11.67383 -6.27734,-11.67383 2.4979,0 11.12706,9.4837 12.38477,13.61133 0.20983,0.6887 1.38799,1.64354 3.17187,2.68945 0.36208,0.46964 1.50601,1.04331 3.08984,1.60351 2.44701,1.15737 5.3836,2.3317 8.51368,3.33985 7.93327,2.55515 13.26564,3.59436 27.29296,3.67773 4.09328,0.1115 9.01972,0.0333 14.99805,-0.17383 5.7559,-0.12359 12.15666,-0.28883 20.16797,-0.53125 46.18786,-1.39933 49.32985,-1.2212 61.97656,3.53711 7.46714,2.80948 13.32032,6.4361 13.32032,8.25 0,1.16584 -0.51941,1.90044 -1.38477,2.12891 -0.42096,-8e-5 -0.81312,0.006 -1.16016,0.0215 -0.29329,-0.0488 -0.6,-0.11948 -0.92968,-0.24609 -1.91139,-0.73357 -3.47657,-0.28369 -3.47657,1.00195 0,2.38107 12.03938,7.42578 17.72266,7.42579 1.72123,0 3.12891,-1.56518 3.12891,-3.47657 0,-0.23546 -0.018,-0.46488 -0.0527,-0.6875 0.22526,-0.5879 0.0617,-1.23332 -0.5957,-1.89062 -0.12246,-0.12246 -0.35893,-0.24713 -0.64844,-0.3711 -0.41098,-0.32504 -0.89095,-0.52539 -1.40625,-0.52539 -0.15874,0 -0.27109,-0.0258 -0.41211,-0.0371 -0.32579,-0.0771 -0.69221,-0.14971 -1.06445,-0.22265 -0.38718,-0.19729 -0.47916,-0.48783 -0.15234,-0.81446 0.59043,-0.59043 6.14207,0.45366 12.33789,2.31836 6.19585,1.86467 14.49085,3.46305 18.42968,3.55274 6.01822,0.13719 6.42124,0.46528 2.52735,2.0664 -4.41895,1.81709 -4.43534,1.98653 -0.34571,3.6504 2.43848,0.99208 4.94038,0.69097 5.80079,-0.70118 0.89007,-1.44015 9.6189,-2.35345 21.19726,-2.21875 25.60467,0.29859 49.32123,-6.43698 79.92188,-22.69726 12.74267,-6.77106 27.85956,-13.52165 33.59375,-14.99805 5.73422,-1.47643 17.20356,-6.71909 25.48632,-11.65039 8.28273,-4.93134 18.16259,-10.12858 21.95508,-11.55078 6.89004,-2.58372 6.87582,-2.59762 -17.37695,-15.57617 -13.34948,-7.1438 -35.74087,-18.83317 -49.75781,-25.97852 -14.01699,-7.14531 -32.2622,-16.81409 -40.54493,-21.48437 -15.13012,-8.53119 -28.41936,-12.06894 -85.55664,-22.78125 -13.28787,-2.49124 -26.31845,-5.92993 -28.95898,-7.64258 -3.87061,-2.51055 -10.81539,-5.20957 -19.49024,-7.83789 -0.56912,-0.23131 -1.26242,-0.52442 -1.6914,-0.6875 -2.04287,-0.7767 -5.85659,-1.72111 -10.67383,-2.72461 -24.33914,-6.12526 -55.79526,-11.11328 -75.83984,-11.11328 -14.20951,0 -24.20962,-3.83798 -38.57227,-14.80469 -5.84824,-4.46544 -14.2032,-9.29768 -18.56836,-10.73828 -4.3651,-1.44061 -7.93554,-3.89586 -7.93554,-5.45703 0,-2.08377 -8.73343,-2.96898 -32.84961,-3.32422 -8.07879,-0.11943 -14.90349,-0.0912 -21.02344,0.1582 -3.33289,0.0567 -6.24346,0.24553 -9.07227,0.58984 -13.35071,1.21482 -24.21079,3.95948 -40.15625,9.3379 -2.54854,0.85969 -0.98338,-0.77972 3.47657,-3.64063 13.32068,-8.54479 32.36192,-14.09221 46.50976,-13.54883 7.10438,0.27288 14.14371,-0.25825 15.64063,-1.18359 1.656,-1.0235 2.7207,-0.21465 2.7207,2.06641 0,2.06188 1.06042,3.09332 2.35547,2.29296 1.29506,-0.80039 1.75463,-2.42512 1.02148,-3.61132 -0.73311,-1.18621 0.26039,-2.15821 2.20703,-2.15821 2.19416,0 3.02988,1.32205 2.20313,3.47657 -0.73348,1.91142 -0.17813,3.4746 1.23242,3.4746 1.41062,0 2.56445,-3.25551 2.56445,-7.23437 0,-6.13837 0.46061,-6.7873 3.4043,-4.39649 1.0715,1.27068 2.05323,2.90374 2.76367,4.52149 5.1e-4,0.001 -5.1e-4,0.003 0,0.004 0.21827,0.99019 0.24002,1.97963 0.0156,2.83789 -0.83596,3.19668 0.0696,3.99268 3.89257,3.41797 0.56281,-0.0847 1.08144,-0.24592 1.57813,-0.44336 0.18021,0.75091 1.1131,0.83278 2.24609,0.13281 1.27426,-0.78762 2.29959,-3.19291 2.28125,-5.34766 -0.0106,-1.17883 -0.0603,-1.93092 -0.19726,-2.3125 -0.0193,-2.05455 -0.81809,-2.80082 -2.44727,-2.25781 -1.68868,0.56296 -4.53291,-0.43919 -6.32031,-2.22656 -0.52166,-0.52162 -1.1894,-0.95269 -1.93359,-1.30078 -1.07834,-1.00128 -2.32166,-1.61329 -3.60938,-1.61329 -0.48296,0 -0.69534,0.26075 -0.67383,0.70118 -0.75187,0.004 -1.50218,0.0853 -2.21289,0.26367 -3.17973,0.79808 -7.30018,-0.35275 -10.67187,-2.98047 -3.02079,-2.35404 -8.78884,-5.97162 -12.82031,-8.03906 -4.03149,-2.06748 -12.37444,-9.13635 -18.53711,-15.70899 -6.16268,-6.57263 -16.93879,-15.59189 -23.94727,-20.04297 -7.00848,-4.45107 -15.34754,-10.43871 -18.5332,-13.30468 -3.18568,-2.86591 -8.91939,-6.93561 -12.74219,-9.04493 -6.17824,-3.40902 -6.30869,-3.68054 -1.16016,-2.4375 10.37674,2.50526 18.50055,6.22222 17.41993,7.97071 -0.61598,0.9967 0.93455,3.25615 3.58593,5.81054 0.45525,0.52245 0.99224,1.04353 1.60938,1.52735 0.27734,0.2177 0.39646,0.2975 0.63281,0.48047 2.76753,2.31893 6.17761,4.67742 9.55273,6.42968 23.28361,12.08829 34.28613,19.20395 31.93946,20.6543 -1.76929,1.09346 -0.83766,2.92489 2.79101,5.48242 5.17994,3.65084 5.48621,3.60836 6.18946,-0.85742 0.72024,-4.57376 0.93444,-4.5503 8.10937,0.91992 3.42758,2.61317 13.04237,7.91869 22.86328,12.69922 2.84752,1.42492 5.63698,2.74505 8.25391,3.89649 29.11388,13.46086 36.01044,16.85349 48.97461,24.09375 4.37232,2.44195 7.29274,4.01957 10.7207,5.05078 l 3.25,1.70312 10.45899,0.0195 c 5.21041,0.18142 12.01002,0.19727 21.57226,0.19727 22.76438,0 37.96425,-1.1537 47.37305,-3.5918 10.87536,-2.81809 19.27418,-2.7012 25.42578,0.35742 0.008,0.003 0.01,0.008 0.0176,0.0117 1.73839,0.99871 3.45679,2.28956 5.25781,3.88282 0.82575,0.87299 1.59125,1.82865 2.2832,2.88476 7.07071,10.79127 20.22254,14.33365 73.14844,19.70508 13.37983,1.35795 33.18824,4.63124 44.01953,7.27344 10.8313,2.64219 30.12061,5.55439 42.86328,6.4707 24.22889,1.74229 34.39573,5.21062 45.39453,15.48633 3.30456,3.08731 16.33522,11.13715 28.95899,17.88867 62.44562,33.39787 73.94863,40.29437 95.11523,57.03125 21.95033,17.3565 29.59909,21.65249 20.34571,11.42773 -2.41172,-2.66502 -13.7881,-11.9727 -25.2793,-20.68164 -19.32159,-14.64355 -30.56606,-21.38908 -84.60352,-50.76171 -10.83129,-5.88741 -25.15252,-15.03065 -31.82421,-20.31836 -14.69364,-11.64545 -21.2945,-13.80705 -47.63868,-15.60157 -11.20928,-0.76354 -27.88932,-3.49707 -37.06836,-6.07422 -9.17896,-2.57722 -31.28525,-6.19796 -49.125,-8.04687 -53.3893,-5.53312 -60.44423,-7.29644 -70.6914,-17.64648 -4.88202,-4.93108 -9.21825,-8.96466 -9.63672,-8.96485 -0.41851,-2.3e-4 -8.94284,-1.56682 -18.94336,-3.48047 -18.04297,-3.4526 -18.34782,-3.62894 -39.38867,-23.10156 -4.36199,-4.03684 -8.07838,-7.36766 -11.4336,-10.18945 -4.15366,-3.77609 -7.41015,-6.25003 -11.4707,-8.58789 -4.94534,-3.15837 -9.85881,-5.52966 -16.15234,-8.08008 -10.92031,-4.42556 -15.14506,-6.16802 -16.46094,-8.54492 -0.0306,-0.0593 -0.0701,-0.11727 -0.0977,-0.17774 -0.0336,-0.0695 -0.0528,-0.14221 -0.082,-0.21289 l 0.49024,-6.03906 c 0.0374,-0.45997 0.0993,-0.93048 0.16015,-1.40039 1.07758,-3.8078 3.26992,-8.45717 5.32227,-11.10938 3.4579,-4.46853 4.04409,-7.80801 2.8457,-16.21875 -2.26989,-15.93101 -4.79963,-16.37528 -11.38086,-2 -4.78843,10.45935 -5.45213,14.04267 -3.5332,19.08985 6.20652,16.32442 1.18506,18.85895 -17.33008,8.74414 -10.32827,-5.64238 -11.59298,-7.17829 -11.66016,-14.16406 -0.058,-6.04003 -1.89594,-9.3549 -8.02148,-14.46876 -4.37043,-3.64856 -9.97166,-6.63476 -12.44727,-6.63476 -4.26004,0 -4.28882,0.23319 -0.55468,4.35937 2.17001,2.39785 4.9679,8.0739 6.2207,12.61133 1.34258,4.86229 4.15323,8.84396 6.8418,9.69727 0.80582,0.25587 1.55212,0.58889 2.21093,0.95312 l 2.28907,2.13672 c 0.0257,0.0903 0.0605,0.18292 0.0605,0.26758 0,3.60506 -11.93421,4.90269 -19.59961,2.13086 -6.58796,-2.38227 -8.74213,-2.14797 -15.27929,1.66992 -11.90032,6.95017 -11.33151,10.19531 1.78711,10.19531 6.22268,0 12.30507,-0.89787 13.51562,-1.99609 1.21056,-1.09818 6.89275,-3.16864 12.62696,-4.59961 9.39958,-2.34557 10.80659,-2.14588 14.30468,2.03711 2.13401,2.55179 8.39074,6.22873 13.90235,8.16797 5.51157,1.93927 13.66896,6.40128 18.1289,9.91601 4.45995,3.51474 13.32202,9.32175 19.69336,12.90625 6.37135,3.58451 18.90199,14.22101 27.84571,23.63672 l 16.26171,17.1211 h -29.05273 -9.50391 c -1.35763,0 -2.40633,-0.008 -3.60547,-0.0117 -10.8547,-0.70519 -16.79212,-1.56377 -21.85351,-3.44922 l -11.87891,-6.95313 c -9.78337,-5.72696 -23.07466,-12.49767 -29.53711,-15.04492 -19.94313,-7.86081 -34.99693,-16.25016 -50.54101,-28.16406 -8.20587,-6.28947 -20.27838,-14.12776 -26.82617,-17.41992 -6.5478,-3.29212 -16.94298,-9.65931 -23.10157,-14.14844 -1.86541,-1.35976 -3.98453,-2.68357 -6.38086,-3.97851 -1.47961,-0.97796 -3.9592,-2.1409 -7.07226,-3.38282 -9.70944,-4.18084 -22.76755,-8.14211 -40.08985,-12.21289 -3.39295,-1.12732 -6.03944,-2.12241 -7.47461,-2.8457 -1.05438,-1.6388 -0.72724,-4.71273 0.0859,-11.63281 0.80317,-6.83373 2.13432,-14.18296 2.95899,-16.33204 1.09729,-2.85951 0.44188,-3.63819 -2.61914,-3.0996 -0.29014,-0.217 -0.63652,-0.33478 -1.05274,-0.33594 z m 675.3125,17.27344 v 0.002 c -3.77586,-0.0926 -17.00547,9.59558 -31.67578,23.57031 -18.60268,17.72054 -25.38606,21.71289 -36.90625,21.71289 -5.58867,0 -6.79883,-0.96823 -6.79883,-5.43359 0,-6.37368 -4.04632,-10.84321 -11.33008,-12.92774 -2.09699,-0.90228 -4.21022,-1.46847 -6.49218,-1.73046 -1.27556,-0.44376 -2.35158,-0.70773 -3.03125,-0.69922 -0.58341,0.008 -0.71426,0.20302 -0.47071,0.53906 -1.73544,0.0227 -3.58224,0.17601 -5.625,0.48242 -0.93139,0.13984 -1.77275,0.28729 -2.63086,0.43359 -3.12313,0.30993 -5.54759,0.794 -6.43359,1.34766 -0.6347,0.19087 -1.05664,0.35777 -1.05664,0.4707 0,0.37115 0.11149,0.90912 0.30273,1.5586 0.10545,2.8086 2.5282,7.69976 5.69922,12.10351 1.61998,2.79908 3.20599,5.16048 4.21289,5.9961 0.0404,0.034 0.0925,0.0652 0.13672,0.0976 0.0601,0.0488 0.13264,0.095 0.19727,0.14258 0.0438,0.0302 0.0859,0.0592 0.13281,0.0879 0.56281,0.38559 1.28208,0.723 2.13867,1.00586 0.53246,0.40006 1.05942,0.76253 1.57227,1.04883 5.15936,2.88094 7.60059,3.00991 13.66015,0.72266 0.94715,-0.35755 1.80779,-0.65627 2.60743,-0.91993 2.99894,-0.0828 5.16282,-0.0524 6.52148,0.1543 -0.93143,1.8037 -5.40551,5.26524 -13.08203,9.54688 -13.09928,7.30631 -16.7988,8.50383 -25.18164,7.66406 -1.31618,-0.51349 -2.81477,-0.7537 -4.40039,-0.72656 -0.40305,-0.0665 -0.83941,-0.11133 -1.33203,-0.11133 -0.51602,0 -1.08264,0.0988 -1.67383,0.25 -4.51729,-0.0302 -6.76061,1.09459 -9.75781,4.09179 -2.7072,2.70724 -4.92188,6.92485 -4.92188,9.36914 0,2.44434 -0.60386,6.01173 -1.33984,7.92969 -2.1848,5.69337 6.65216,8.86764 17.74609,6.375 11.9257,-2.67949 14.69014,-5.331 14.79102,-14.17578 0.0737,-6.46549 1.56977,-7.63768 22.08984,-17.32812 22.38724,-10.57217 41.60397,-13.87993 45.35742,-7.80664 0.88664,1.4347 1.8858,8.99305 2.22071,16.79687 0.12207,2.84156 0.24422,5.39578 0.36328,7.91797 -0.22677,0.79461 -0.15109,2.13899 0.17773,3.69336 0.12851,2.55583 0.24604,4.77298 0.30274,5.47461 0.41204,5.12772 4.41019,3.08691 6.80664,-3.47461 l 1.2832,-3.51367 c 0.44179,-0.0302 0.81521,0.0991 1.11523,0.375 l 0.0586,2.19336 0.0527,2.31445 c 0.10129,4.29475 2.50488,10.6829 5.39649,14.34375 3.89374,4.92964 6.50616,6.66078 8.05664,5.09961 0.34318,-0.18709 0.64991,-0.50544 0.9375,-0.95899 0.0484,-0.076 0.0902,-0.15569 0.13672,-0.23242 0.76663,-0.61141 1.28683,-1.91595 1.57226,-3.89453 0.52354,-2.21843 0.5418,-4.60555 0.15039,-6.95898 -0.26532,-2.93178 -1.00767,-5.28301 -2.33984,-7.26953 -0.62283,-1.19596 -1.52849,-2.19966 -2.82422,-3.23438 -1.47005,-1.52039 -3.18209,-2.7443 -5.11328,-3.47852 -0.004,-0.002 -0.008,-0.004 -0.0156,-0.008 -5.05659,-3.45014 -5.61207,-5.6213 -5.68554,-15.70508 -0.11604,-15.9075 4.0643,-25.44705 16.29882,-37.20312 6.70341,-6.44122 9.35652,-10.20965 8.18555,-10.6875 0.11112,-0.27515 0.15019,-0.48657 0.0625,-0.57422 -0.20107,-0.20107 -1.04704,0.254 -2.28125,1.12695 -1.71526,0.79208 -4.29009,2.3786 -7.75781,4.89063 -9.7677,7.07561 -19.23047,20.15343 -19.23047,26.57617 0,2.07953 -1.04214,3.78125 -2.31641,3.78125 -1.27423,0 -2.3164,-2.08623 -2.3164,-4.63477 0,-2.54857 -1.04409,-4.63476 -2.31836,-4.63476 -1.27423,0 -2.31446,1.04409 -2.31446,2.31836 0,1.27427 -2.76568,2.3164 -6.14257,2.3164 -5.95858,0 -5.87274,-0.19224 2.89648,-6.54687 4.96963,-3.60129 11.93405,-10.35153 15.47656,-14.99805 1.59837,-2.09665 4.03087,-4.67293 6.72461,-7.23047 1.7593,-1.59223 3.44835,-3.09464 5.04297,-4.48437 1.73586,-1.44106 3.45403,-2.77361 5.0293,-3.85742 2.59049,-1.78235 4.94055,-3.61478 6.76172,-5.21485 1.87249,-1.18628 3.05763,-2.36058 2.95898,-2.98047 0.38839,-0.50445 0.63672,-0.92976 0.63672,-1.19531 0,-0.7231 -0.37508,-1.07464 -1.07422,-1.09179 z m -99.87695,28.97265 v 0.002 c 1.00482,-0.008 2.04345,0.1027 3.02148,0.10157 0.72768,-8.7e-4 1.38399,0.0141 1.99219,0.0508 0.0389,0.003 0.0802,5.4e-4 0.11914,0.004 0.0378,0.002 0.0645,0.008 0.10156,0.0117 1.33675,0.12548 2.57819,0.41121 3.63672,0.81055 1.63057,0.82704 2.44656,2.35028 3.11524,5.01367 0.40962,2.3565 0.16664,2.94928 2.26953,2.7168 6.24608,1.24475 2.03539,3.24639 4.26758,-2.92188 0.0752,-0.0151 0.15828,0.0487 0.24218,0.13868 0.12284,0.19237 0.23226,0.39013 0.33204,0.58984 2.09102,8.06842 -3.34,5.28249 -8.60352,5.0293 -0.53167,-1.55709 -3.34958,-4.23276 -6.8125,-6.44922 1.18855,3.79521 1.93314,15.42747 -4.04883,8.29297 -3.89064,-5.0338 -5.24566,-7.49552 -4.11328,-7.68555 0.51473,-0.0865 1.5438,0.29562 3.08203,1.11914 0.79623,0.4261 1.58648,0.91455 2.33203,1.42188 -0.48068,-2.32899 0.14803,-4.754 -1.96484,-6.04297 l -1.79492,-1.61133 c 0.84971,-0.46326 1.82142,-0.58534 2.82617,-0.5918 z m -363.41211,37.65625 c 1.19892,-0.0189 3.95729,0.71351 8.47461,2.4668 9.73938,3.78006 19.06476,10.51436 35.02539,25.30078 4.30722,3.99031 8.70429,7.79678 12.75391,11.10156 6.5043,5.69231 10.79838,8.73694 14.5332,10.29883 0.20485,0.093 0.38998,0.17094 0.5664,0.23633 1.16803,0.44893 2.29539,0.77171 3.42774,0.97656 2.80377,0.87723 2.31405,1.37321 -0.89258,2.62695 -8.85638,3.46266 -11.44294,1.8808 -32.21484,-19.70117 -1.46274,-1.51978 -2.94964,-3.03037 -4.44141,-4.51172 -1.07036,-1.25344 -2.09993,-2.46354 -3.26172,-3.80664 -2.65253,-3.06663 -7.24914,-6.91072 -11.98828,-10.1875 -4.13062,-3.44643 -7.54228,-5.94435 -9.4043,-6.73242 -10.30858,-4.36309 -15.21574,-8.02758 -12.57812,-8.06836 z m 350.37891,5.60547 c 0.39001,0.0612 1.05224,0.84589 2.05468,2.2168 0.1338,0.18255 0.25934,0.37943 0.38868,0.57226 0.22752,0.68346 0.21585,1.26864 -0.11524,1.59961 -2.61124,-0.26343 -4.33793,3.78503 -4.21094,5.91211 -0.002,0.0661 -0.004,0.13068 -0.008,0.19531 -0.16063,2.77641 -2.36997,5.2861 -5.91211,6.63282 -0.57585,0.21921 -1.01637,0.37846 -1.51758,0.56445 -1.11307,0.2623 -2.22839,0.57437 -3.15429,0.92969 -0.93026,0.35678 -1.60224,0.48496 -2.04297,0.41406 0.0302,-5.2687 4.39532,-5.40146 -2.68555,-6.59961 -0.4642,0 -0.83671,-1.46495 -0.86328,-3.2832 0.25436,-0.68973 0.51541,-1.32639 0.78516,-1.88867 0.88074,-1.07014 1.97953,-1.77194 3.01757,-1.77735 0.0382,1.2e-4 0.0641,0.002 0.0996,0.002 1.65676,0.0189 2.2581,0.50431 1.91016,1.88282 -0.27175,0.43393 -0.65813,0.94955 -1.18945,1.58984 -0.35452,0.42735 -0.71191,0.82791 -1.0625,1.20703 5.14643,2.95676 6.81222,-4.24104 10.63476,-4.4375 3.22545,-0.0567 3.17075,-4.07355 3.8711,-5.73242 z m 93.88867,15.83594 c 0.28157,0.0378 0.65676,0.24642 1.14258,0.6289 0.14891,0.22186 0.24583,0.33577 0.41992,0.60547 0.89476,1.38452 1.68191,2.02715 2.0664,1.79883 1.58892,1.88716 2.52665,4.11336 2.14453,5.25977 -0.48782,1.46343 -1.91959,1.07133 -3.31835,-0.17969 -1.78923,-1.89657 -3.19631,-4.58037 -3.17579,-6.76172 0.001,-0.1595 0.008,-0.2745 0.0117,-0.41797 0.0843,-0.67181 0.29645,-0.98817 0.70899,-0.93359 z m -670.31836,26.99414 c 6.26097,0.20107 9.85273,0.84916 13.00195,2.5332 0.001,9.5e-4 0.003,7.5e-4 0.004,0.002 1.21404,0.91824 2.4394,2.13445 3.96289,3.72461 5.67923,5.92785 6.23221,7.73277 4.46289,14.59571 -4.60407,11.97524 -9.80087,7.33374 -20.20899,5.71875 0.24171,0.3205 0.46246,0.60581 0.72071,0.95508 l 4.07617,5.51367 c -1.34393,0.53605 -4.07902,1.05981 -7.46875,1.4375 h -3.12109 c -6.508203,0 -10.069487,-0.55988 -11.019536,-2.08008 -4.524189,-3.98188 -10.886656,-2.67553 -15.050781,-5.02148 -0.358564,-0.30199 -0.715876,-0.60314 -1.09375,-0.93555 L 75.589844,711.375 c -0.314003,-1.33444 1.806451,-2.0294 6.175781,-1.99414 2.444394,0.0189 5.588873,0.26817 9.400391,0.75781 10.335384,7.57746 3.493024,2.57926 12.562504,-1.27929 3.95329,1.88341 6.88084,2.161 11.45312,2.27734 -1.81661,-1.60573 -3.79316,-3.52355 -5.98633,-5.83008 -0.21097,-0.22186 -0.42629,-0.44078 -0.63867,-0.66211 -0.65393,-0.97493 -1.31393,-1.97244 -1.99023,-3.04492 l -0.002,-0.002 -6.12695,0.20117 c 0.0807,0.70821 -0.951965,1.19244 -3.007812,1.99805 -2.569539,1.0069 -6.682638,1.58976 -10.859376,1.77734 -0.70168,0.0265 -1.405154,0.05 -2.109374,0.0625 -5.908566,0.0748 -11.447687,-0.65013 -12.365235,-2.13477 -0.804049,-1.30099 2.227563,-3.90827 6.738281,-5.79297 5.128215,-2.14265 7.81596,-3.21122 10.064454,-3.15234 5.082175,2.02469 8.677581,3.45134 14.457032,4.87891 -4.383119,-4.2593 -8.335294,-7.74291 -9.939454,-8.62891 -3.196596,-1.76542 -0.429431,-2.48232 11.621094,-3.01172 2.02381,-0.0888 3.75584,-0.1509 5.32422,-0.18945 z m 326.04492,9.42578 c -0.27213,0.0189 -0.47629,0.0934 -0.64648,0.18945 -0.70594,-0.26494 -0.87371,-0.14866 -0.40039,0.52149 -0.24227,1.03468 1.15826,3.10885 4.23828,5.67383 3.04762,2.53806 6.33229,4.64719 7.29882,4.68945 2.75879,0.12094 -3.59548,-8.95435 -7.25195,-10.35742 -1.43728,-0.55159 -2.51696,-0.77194 -3.23828,-0.7168 z m -13.50195,0.33594 c -0.76921,-0.0378 -1.3509,0.12885 -1.71094,0.51758 -0.84654,0.91487 -0.4472,2.05971 0.88867,2.54296 1.33591,0.48322 7.95668,5.03283 14.71289,10.10938 2.75498,2.07005 5.57512,3.95553 8.11133,5.48242 2.96281,2.24319 5.46519,3.74805 6.41797,3.74805 0.552,0 0.96146,-0.0676 1.28711,-0.16016 0.10016,0.0113 0.20478,0.0272 0.28906,0.0234 3.24987,-0.11565 3.16187,-0.54966 -0.58984,-2.89648 -2.42661,-1.51786 -7.63926,-5.47365 -11.58399,-8.79102 -7.63238,-6.41862 -14.48902,-10.41577 -17.82226,-10.57617 z m 6.60937,15.44922 c -0.19805,0 -0.35025,0.0472 -0.47656,0.11523 -1.35379,-0.0737 -0.92409,0.98916 1.04297,3.35938 1.24634,1.50175 2.5741,2.52725 3.73437,3.0371 0.55416,0.27062 1.06659,0.43946 1.4668,0.43946 0.19616,0 0.34488,-0.0468 0.4707,-0.11328 0.78085,-0.16177 1.2793,-0.79367 1.2793,-1.95508 0,-1.13798 -1.65036,-2.70305 -3.66602,-3.47656 -0.68144,-0.26155 -1.28318,-0.47828 -1.82421,-0.66211 -0.77296,-0.45831 -1.49428,-0.74414 -2.02735,-0.74414 z m -95.58398,0.0703 v 0.002 c -0.63462,0 -0.82122,0.25012 -0.61524,0.6543 -4.87897,-0.20447 -9.8007,0.51495 -9.80468,2.0957 -0.002,0.91499 2.86099,3.218 6.36523,5.11914 7.47609,4.05581 13.6288,4.57819 15.63867,1.32617 0.79491,-1.28621 -0.94616,-2.33164 -3.91601,-2.35156 -2.94232,-0.0189 -6.91477,-1.0615 -8.82618,-2.31445 -2.0539,-1.34642 -1.43401,-1.75365 2.12305,-1.32422 1.11384,0.78947 2.81266,1.33486 4.38477,1.32031 0.57459,-0.004 1.0185,-0.0217 1.40234,-0.0508 0.065,0.004 0.13981,0.0137 0.19922,0.0137 0.24113,0 0.39838,-0.0464 0.51367,-0.11328 0.27542,-0.0627 0.462,-0.14443 0.49219,-0.26953 1.87474,0.0688 1.76011,-0.43958 -0.0996,-1.63867 -0.91056,-0.58704 -2.34264,-1.02566 -3.99609,-1.33203 -1.37809,-0.70175 -2.53697,-1.07953 -3.3086,-1.08985 -0.20213,-0.0302 -0.38989,-0.0469 -0.55273,-0.0469 z M 135.8457,733.0293 c 0.19094,0.004 0.36153,0.0253 0.50782,0.0566 2.88179,0.64819 6.21351,7.49714 7.76171,14.65625 0.62287,4.17403 0.72392,8.60582 0.16211,12.60547 -1.20492,4.87623 -3.68746,10.22616 -5.39648,11.46093 l -5.69531,6.81446 c -0.83799,2.52196 -4.07703,6.27226 -7.31641,7.86133 -3.23424,1.58664 -5.82838,2.70604 -7.77344,3.39648 -0.67769,0.18633 -1.33844,0.3535 -1.94922,0.47656 -0.77383,0.15572 -1.18631,0.21814 -1.77929,0.32813 -1.38433,-0.28044 0.60473,-2.55889 6.41406,-6.62891 4.51597,-3.16388 8.58338,-5.7936 10.69922,-6.95312 l 5.61523,-9.01368 c -0.11864,-2.76763 0.0127,-6.69641 0.42969,-10.87109 0.15829,-1.58517 0.29592,-2.96903 0.4082,-4.18555 0.13781,-0.10053 0.22266,-0.20207 0.22266,-0.31054 0,-0.10394 -0.0608,-0.201 -0.17383,-0.28907 0.71425,-8.02673 0.12936,-7.69931 -3.72461,-4.28515 -2.98766,2.64665 -8.3866,4.05468 -15.55078,4.05468 -5.63769,-0.68772 -9.22849,3.66147 -12.44922,6.36719 3.31331,-0.71558 7.48923,-1.22744 12.78321,-1.70117 3.0109,-0.26948 5.49562,-0.44852 7.5039,-0.48242 8.70256,-0.14702 8.47169,2.42601 3.45313,12.13086 -1.94424,3.75983 -8.95791,9.9342 -15.63867,13.76562 -17.918148,10.27612 -20.224614,9.63067 -20.224614,-5.66992 0.165732,-13.22404 5.665724,-14.00028 9.925784,-22.33984 -0.3761,0.14211 -0.72939,0.28622 -1.00782,0.43554 -5.822335,3.11604 -8.123754,1.13644 -4.349605,-3.56836 1.435905,-1.28447 3.139475,-2.65145 5.033205,-4.05664 9.21853,-5.96235 27.35526,-14.18561 32.10937,-14.05468 z m 498.11524,10.05664 c -2.41459,0.002 -1.80411,1.3947 1.99609,4.56054 4.02546,3.35358 7.31935,4.94751 8.77735,4.4375 0.33448,0.0696 0.49875,-0.043 0.48828,-0.33398 0.20485,-0.24113 0.32422,-0.5735 0.32422,-1.02734 0,-2.45503 -7.86425,-7.64069 -11.58399,-7.63672 z m -46.18555,1.35742 c -1.19611,0.008 -1.55532,0.32925 -0.91601,0.96875 1.92842,1.92847 13.56139,4.50292 35.72265,7.90234 4.93278,0.75663 12.40142,4.79147 18.375,9.92774 5.53557,4.75959 15.02064,11.78266 21.07813,15.60547 6.05741,3.8228 17.4403,11.90231 25.29492,17.95507 14.43723,11.12535 17.15336,12.66946 15.75195,8.95899 -1.20038,-3.17813 -32.38389,-28.12394 -40.16015,-32.12695 -3.82281,-1.96789 -11.51394,-7.58144 -17.0918,-12.47657 -10.61832,-9.31838 -21.40698,-13.51603 -35.03516,-13.63086 -4.45992,-0.0382 -12.14778,-1.00557 -17.08203,-2.15039 -2.70882,-0.62846 -4.74132,-0.93986 -5.9375,-0.93359 z m 47.47656,26.96484 c -0.26116,-0.0113 -0.44898,0.0309 -0.55273,0.13672 -0.83017,0.83025 -1.07392,1.81398 -0.54297,2.18555 0.53095,0.3719 5.13531,3.37213 10.23242,6.66992 5.09707,3.29771 15.38254,11.38921 22.85742,17.97852 5.04794,4.44986 9.72777,7.99677 12.51563,9.60742 1.27068,0.86868 2.12251,1.32471 2.29297,1.15429 0.0544,-0.0544 0.0811,-0.13182 0.0898,-0.21874 0.0624,-0.0151 0.12507,-0.0286 0.16211,-0.0664 1.92695,-1.97246 -18.43068,-20.41098 -33.89844,-30.70313 -5.87051,-3.90614 -11.3276,-6.67021 -13.15625,-6.74414 z m 53.03321,9.23047 c -0.0302,0.003 -0.0399,0.0178 -0.0645,0.0254 -0.0412,0.008 -0.0893,0.008 -0.10937,0.0274 -0.004,0.004 -4.3e-4,0.0138 -0.004,0.0176 -0.008,0.004 -0.0198,0.004 -0.0273,0.0117 -0.66777,0.66773 5.89283,5.92322 14.58008,11.67774 6.18221,4.09508 10.51259,6.77074 13.27539,8.16406 0.24756,0.18784 0.44208,0.29687 0.55664,0.29688 0.0113,0 0.0199,-0.002 0.0312,-0.002 2.69767,1.28451 3.61129,1.1003 3.01367,-0.4414 0.0918,-0.12889 0.14648,-0.28816 0.14648,-0.50586 0,-0.17462 -0.38752,-0.56265 -0.96484,-1.05274 -0.004,-0.008 -0.008,-0.0159 -0.0156,-0.0234 -2.10032,-3.39836 -27.55915,-18.52109 -30.41992,-18.1914 z m -20.85743,82.04688 c -0.2725,-0.0151 -0.58397,-0.007 -0.92968,0.0117 -5.9921,0.37818 -22.28169,5.92349 -25.58594,9.35156 -0.0831,0.0862 -0.10851,0.11953 -0.1875,0.20117 l -0.96875,0.45312 0.67187,-0.1289 c -2.47116,2.60674 -2.3887,2.88031 0.48438,1.92969 1.91138,-0.63247 8.95075,-2.95097 15.64062,-5.15039 6.68992,-2.19942 12.16211,-4.9007 12.16211,-6.00391 0,-0.41435 -0.46914,-0.62215 -1.28711,-0.66406 z m 22.13868,3.34179 v 0.002 c -1.0085,0 -2.01105,0.15279 -2.79493,0.44922 -6.74165,0.3462 -11.69759,1.07733 -14.1621,2.16406 -2.204,0.97183 -3.02713,1.61868 -1.72852,2.04883 -2.39516,1.68045 -1.76092,1.819 2.46875,0.53906 0.1115,-0.034 0.26395,-0.0663 0.40039,-0.0996 3.70579,0.29405 10.59156,0.36032 21.85156,0.3418 14.66483,-0.0227 24.24797,-0.75259 28.21485,-1.65821 l 3.97851,0.0293 -2.80664,-0.33203 c 3.626,-1.2587 -3.13995,-2.73736 -22.11719,-3.1875 -4.0001,-0.0949 -7.6914,-0.10079 -11.07226,-0.0312 -0.67499,-0.17651 -1.45422,-0.26563 -2.23242,-0.26563 z m 9.25195,9.57618 c -9.53072,0.0703 -20.32044,1.1534 -32.07031,3.24609 -15.744,2.80414 -2.35798,4.20457 20.3125,2.125 4.78261,-0.43869 8.70993,-0.75136 12.08203,-0.93164 4.63098,-0.0865 8.50911,-0.0571 11.77148,0.10547 3.69041,0.38819 6.82604,1.18352 10.5293,2.45703 3.27356,1.12577 7.15249,1.91855 11.13672,2.4043 5.58485,1.40326 10.28281,1.49072 15.10156,0.2832 4.50119,-0.44954 8.08896,-1.43267 9.61328,-2.95703 1.89846,-1.89846 -0.43993,-2.22789 -8.82617,-1.24219 -7.5637,0.88913 -16.03128,-0.008 -25.13477,-2.66211 -6.71244,-1.95666 -14.9849,-2.89835 -24.51562,-2.82812 z m -44.46875,0.0605 c -3.64339,-0.048 -9.85379,1.86148 -12.2793,4.44532 -1.61866,1.72437 -0.57018,2.03282 3.47657,1.02539 3.18561,-0.7931 7.09458,-1.45278 8.6875,-1.47266 1.5928,-0.0189 2.89648,-1.1872 2.89648,-2.59961 0,-0.95142 -1.12518,-1.37674 -2.78125,-1.39844 z m -241.17578,6.29492 -7.42188,0.0117 6.95117,4.45118 c 2.69742,1.72784 6.19254,3.05927 9.48829,3.85546 0.66863,0.3001 1.38987,0.54092 2.12695,0.70118 0.21316,0.1474 0.49476,0.23437 0.85352,0.23437 0.14815,0 0.30165,-0.0153 0.45703,-0.0391 0.83149,0.0805 1.6308,0.0678 2.3164,-0.0664 2.6363,0.059 4.45117,-0.50639 4.45117,-1.83984 0,-3.09491 -11.11942,-7.32058 -19.22265,-7.3086 z m 237.72265,3.95704 c -1.93557,0.0888 -5.43212,0.86681 -9.40429,2.16406 -6.05276,1.97688 -15.38635,4.83093 -20.74024,6.3418 -5.35389,1.51094 -10.47934,3.49109 -11.39062,4.40234 -3.43132,3.43139 7.76191,1.44603 25.13867,-4.45899 9.89851,-3.36374 17.99805,-6.96279 17.99805,-7.99804 0,-0.2589 -0.31038,-0.40287 -0.86914,-0.44531 -0.20977,-0.0151 -0.45595,-0.0153 -0.73243,-0.004 z m 6.33008,3.83984 v 0.002 c -2.92996,0.0609 -7.99454,1.78174 -10.40429,4.03321 -0.35982,0.33637 -0.57222,0.638 -0.65821,0.90234 -1.00441,0.77594 -0.76392,0.98464 0.73047,0.97852 0.36775,0.11111 0.85224,0.17578 1.47461,0.17578 4.44767,0 8.85615,-1.60376 10.44922,-3.53907 l 1.78906,-0.76757 -1.30859,-0.0391 c 0.0888,-0.23017 0.15039,-0.4611 0.15039,-0.69336 0,-0.76475 -0.89083,-1.0804 -2.22266,-1.05273 z m -361.24609,38.69336 c 5.5342,-0.24794 19.13133,7.3731 23.98242,13.93164 l 0.002,0.002 c 0.51269,0.95823 1.06345,1.817 1.60352,2.52539 2.09996,3.61905 3.23214,6.79327 2.56836,7.45703 -2.37192,2.37192 -5.81756,1.71624 -7.08594,-0.73437 -0.0121,-0.0646 -0.0293,-0.11084 -0.041,-0.17774 -0.0497,-0.28724 -0.17689,-0.62804 -0.36133,-1.00781 -0.0558,-0.29367 -0.0937,-0.59763 -0.0937,-0.92187 0,-0.1595 -0.0275,-0.33705 -0.0684,-0.52149 -0.29148,-2.85989 -1.82195,-5.07905 -4.60156,-6.65625 -2.88959,-3.90005 -5.55315,-3.48362 -10.30274,-3.57422 l 9.16016,8.55274 -0.0527,0.043 c 0.75416,0.58548 1.23047,1.87852 1.23047,4.0039 0,2.50371 -2.01573,5.63013 -4.48047,6.94922 -3.27844,1.75453 -5.08577,2.48756 -5.82617,2.10938 l -13.04687,3.49609 c -1.08464,0.37342 -2.21612,0.57905 -3.46289,0.64844 -1.23079,0.0684 -2.555,0.067 -3.9336,0.0137 -0.42577,-0.0227 -0.8505,-0.0414 -1.28515,-0.0762 -0.90406,-0.34847 -1.81153,-0.82082 -2.71875,-1.42188 -1.91142,-1.26629 -6.73535,-2.31598 -10.72071,-2.33593 -1.83721,-0.008 -3.78599,-0.36038 -5.51953,-0.91211 -0.84928,-0.33525 -1.69796,-0.6859 -2.54297,-1.05274 -0.87626,-0.46938 -1.60727,-0.98937 -2.06836,-1.54492 -1.58633,-1.91138 -4.58035,-3.54898 -6.65429,-3.63867 -0.39718,-0.0189 -0.72166,-0.0433 -1.00196,-0.0762 -0.3081,-0.25437 -0.57615,-0.49832 -0.76758,-0.72657 0.38528,-0.32163 1.24951,-0.75715 2.63282,-1.35156 2.54853,-1.09519 12.45275,-2.10159 22.00976,-2.23633 10.38675,-0.14664 19.70767,-1.5755 23.16992,-3.55468 14.03915,-11.13627 -31.28076,1.93195 -41.32031,-3.18946 -2.42245,-1.53554 -2.17183,-2.29012 1.15821,-3.47851 2.33767,-0.8343 6.85535,-3.04961 10.04101,-4.92188 1.3266,-0.7796 2.78289,-1.41011 4.32031,-1.91211 2.84385,-0.73931 5.6901,-1.20174 8.49024,-1.35742 0.28297,-0.004 0.56537,-0.0194 0.84961,-0.0156 5.00579,0.0491 10.17935,1.2403 14.67383,3.56445 4.03887,2.89187 6.24551,2.36203 10.83398,1.45312 -2.95583,-2.34958 -5.86088,-4.24057 -7.90039,-4.91015 -1.86964,-1.19857 -2.36074,-1.96609 -1.78906,-2.29688 0.27602,-0.0771 0.57859,-0.13136 0.91992,-0.14648 z m 7.23828,16.38672 c -2.20414,0.034 -2.26992,3.96955 -4.83398,8.35547 -0.87569,1.49438 -1.76345,2.83179 -2.65821,4.04687 7.59359,0.60911 7.46243,-6.66561 12.25782,-9.70703 -2.32085,-1.92026 -3.76374,-2.71077 -4.76563,-2.69531 z m 193.67969,2.48047 c -0.17726,-0.0265 -0.42924,0.0198 -0.71289,0.0976 -2.54128,-0.93192 -12.81836,5.87311 -12.81836,8.72461 0,3.41258 2.86813,2.61533 9.01758,-2.50586 2.18706,-1.82131 3.74095,-3.71967 4.16796,-4.9414 0.44773,-0.45215 0.7168,-0.79136 0.7168,-0.95313 0,-0.2502 -0.13298,-0.38661 -0.37109,-0.42187 z m 21.44922,0.13281 c -4.93297,0.36359 -21.09744,6.0635 -27.86328,10.10351 -3.27761,1.95716 -7.83169,6.07618 -10.1211,9.1543 -5.65924,7.60864 -2.7254,7.03861 6.79492,-1.32031 4.33297,-3.80444 10.72617,-7.59923 14.20703,-8.4336 8.27898,-1.98447 19.81873,-7.84147 18.34766,-9.3125 -0.18595,-0.18595 -0.66054,-0.24356 -1.36523,-0.1914 z M 323.36133,958.5332 c 3.17906,-0.10242 4.6813,1.5205 4.74609,4.83594 -0.0291,0.67861 -0.10872,1.3458 -0.25,2 l -1.51172,10.53711 c 0.24541,-0.099 0.43511,-0.14497 0.57227,-0.13477 0.5589,0.0416 0.27212,0.99565 -0.43945,2.89649 -0.83632,2.23423 -3.40668,7.19087 -5.7129,11.01367 l -1.92968,3.19531 -0.71094,1.13282 c -0.51957,0.0461 -0.92573,-0.47981 -1.32812,-1.43165 0.19902,-3.07358 0.47015,-6.5061 1.49023,-9.13476 -8.14657,10.17449 -11.12174,18.60554 -19.6875,21.52934 l -9.99414,3.3847 c -0.31317,-0.034 -0.59362,-0.1 -0.84961,-0.1914 -0.46817,-0.3598 -0.91176,-0.8915 -1.32031,-1.539 v -5.3672 c 0,-8.9074 0.55665,-9.41637 15.10547,-13.79496 15.61901,-3.58065 23.15236,-12.65315 0.45117,-4.9414 -14.15585,4.7012 -15.37199,4.63052 -13.95117,-0.80274 0.24555,-0.93894 0.5933,-1.83676 1.03906,-2.71875 2.07605,-2.84424 5.24909,-5.93618 8.99219,-8.88867 2.66974,-1.78114 5.95914,-3.69054 10.02343,-5.85156 6.99048,-3.71686 12.00438,-5.62333 15.26563,-5.72852 z"
       style="fill:#1a1a1a;stroke-width:2.31685209" />
  </g>
</svg>
