<?xml version="1.0" encoding="UTF-8" standalone="no"?>
<svg
   xmlns:dc="http://purl.org/dc/elements/1.1/"
   xmlns:cc="http://creativecommons.org/ns#"
   xmlns:rdf="http://www.w3.org/1999/02/22-rdf-syntax-ns#"
   xmlns:svg="http://www.w3.org/2000/svg"
   xmlns="http://www.w3.org/2000/svg"
   xmlns:sodipodi="http://sodipodi.sourceforge.net/DTD/sodipodi-0.dtd"
   xmlns:inkscape="http://www.inkscape.org/namespaces/inkscape"
   id="svg6842"
   version="1.1"
   viewBox="0 0 210 297"
   height="297mm"
   width="210mm"
   sodipodi:docname="summer_beach.svg"
   inkscape:version="0.92.4 (5da689c313, 2019-01-14)">
  <sodipodi:namedview
     pagecolor="#ffffff"
     bordercolor="#666666"
     borderopacity="1"
     objecttolerance="10"
     gridtolerance="10"
     guidetolerance="10"
     inkscape:pageopacity="0"
     inkscape:pageshadow="2"
     inkscape:window-width="3840"
     inkscape:window-height="2004"
     id="namedview8"
     showgrid="false"
     inkscape:zoom="0.84096521"
     inkscape:cx="430.35257"
     inkscape:cy="390.36382"
     inkscape:window-x="-16"
     inkscape:window-y="-16"
     inkscape:window-maximized="1"
     inkscape:current-layer="svg6842" />
  <title
     id="title7410">Summer Beach</title>
  <defs
     id="defs6836" />
  <metadata
     id="metadata6839">
    <rdf:RDF>
      <cc:Work
         rdf:about="">
        <dc:format>image/svg+xml</dc:format>
        <dc:type
           rdf:resource="http://purl.org/dc/dcmitype/StillImage" />
        <dc:title>Summer Beach</dc:title>
        <dc:date>2020-04-06</dc:date>
        <dc:creator>
          <cc:Agent>
            <dc:title>Public domain</dc:title>
          </cc:Agent>
        </dc:creator>
        <dc:source>http://www.supercoloring.com/coloring-pages/summer-beach-scene</dc:source>
        <dc:subject>
          <rdf:Bag>
            <rdf:li>csk</rdf:li>
            <rdf:li>acb</rdf:li>
            <rdf:li>beach</rdf:li>
            <rdf:li>summer</rdf:li>
            <rdf:li>sizing-cover</rdf:li>
          </rdf:Bag>
        </dc:subject>
      </cc:Work>
    </rdf:RDF>
  </metadata>
  <path
     style="fill:#000000;stroke-width:2.18479824"
     d="M 0 0 L 0 2 L 0 644.375 C -5.7801423 644.85964 -7.4433594 645.53426 -7.4433594 646.48242 C -7.4433594 647.28262 -5.6646418 647.88696 0 648.35352 L 0 1121.8594 L 0 1122.5195 L 378.01562 1122.5195 C 380.03259 1126.0353 381.77049 1128.2305 382.74414 1128.2305 C 385.61275 1128.2305 386.42652 1128.4052 383.86328 1122.5195 L 793.50781 1122.5195 L 793.50781 1121.8594 L 793.70117 1121.8594 L 793.70117 698.03516 C 800.73019 697.26649 800.92773 696.37396 800.92773 689.95703 C 800.92773 685.87231 800.49028 682.53125 799.95117 682.53125 C 799.44792 682.53125 796.70059 684.70301 793.70117 687.43359 L 793.70117 682.83984 C 793.98009 682.71101 794.26303 682.57399 794.53125 682.46289 C 798.04931 681.00566 800.92773 678.46141 800.92773 676.80469 C 800.92773 673.19819 799.8045 673.07256 794.23242 676.05469 C 794.04191 676.15665 793.87809 676.23458 793.70117 676.32422 L 793.70117 672.68945 C 794.24257 672.21763 794.80462 671.73572 795.4668 671.21484 C 803.73521 664.71091 802.80206 660.3449 793.70117 661.12305 L 793.70117 655.17773 C 802.4728 650.02791 802.84601 647.59745 794.91992 647.49414 L 793.70117 647.47656 L 793.70117 602.52539 L 800.92773 601.30664 L 800.92773 588.38867 C 800.92773 581.23403 799.95427 575.47266 798.74414 575.47266 C 797.54252 575.47266 796.52221 577.19207 796.47266 579.29492 C 796.41849 581.65509 795.55632 581.29543 793.70117 578.11328 L 793.70117 559.94922 C 794.20377 557.87095 794.55726 555.73559 794.62891 554.06836 C 794.82355 549.53466 795.1249 549.17665 795.93164 552.53125 C 797.87572 560.61354 800.92773 561.32654 800.92773 553.69727 C 800.92773 550.78241 798.25145 544.70197 793.70117 536.67383 L 793.70117 0 L 793.50781 0 L 2 0 L 0 0 z M 2 2 L 791.70117 2 L 791.70117 533.22461 C 783.09705 518.69401 769.2969 498.91721 753.72852 479.3418 C 735.28945 456.15678 670.47929 390.94848 663.76367 388.82227 C 660.16458 387.68285 655.22921 380.15641 645.99023 361.73828 C 627.1384 324.15728 604.69883 304.02595 578.16016 300.88281 C 572.10879 300.16618 567.1543 299.28321 567.1543 298.91992 C 567.1543 298.55694 574.51899 290.58243 583.51562 281.19922 C 592.51222 271.81607 599.88387 263.51758 599.90039 262.76367 C 599.99072 258.41503 633.9013 226.59816 663.80273 202.80273 C 665.88726 201.14392 670.0654 199.16511 673.08789 198.40625 C 683.09445 195.89473 678.78695 193.13301 664.92383 193.16602 C 632.21961 193.24641 582.56717 213.65358 556.94727 237.54492 L 543.29297 250.2793 L 541.80859 244.09961 C 536.17823 220.70205 510.48312 197.05278 476.02539 183.54883 C 465.65467 179.48458 452.7612 176.02818 448.46289 175.92773 L 448.46289 175.93164 C 448.1764 175.92446 447.92759 175.9327 447.7207 175.95703 C 447.24781 176.01202 446.99023 176.14642 446.99023 176.375 C 446.99023 176.87928 450.47026 181.08635 454.71875 185.72461 C 460.96971 192.54901 504.62626 275.9151 502.9082 277.74609 C 502.65309 278.01784 497.09593 276.1866 490.55859 273.67969 C 481.70017 270.28279 471.65789 268.82984 451.14258 267.9707 C 425.91397 266.91418 421.90112 267.30808 403.07812 272.65625 C 391.78221 275.86566 379.93784 280.3774 376.75391 282.6875 C 373.56988 284.99751 368.44852 287.5189 365.37305 288.29102 C 362.29772 289.06292 358.50834 291.23775 356.95703 293.125 C 354.44981 296.17503 354.98599 296.35796 361.7832 294.75586 C 365.98891 293.76452 372.79556 292.85092 376.90625 292.72461 C 388.45047 292.36896 424.34893 295.27557 429.80664 297.00781 C 434.57013 298.51971 434.53278 298.63383 428.27539 301.83984 C 414.96635 308.65909 379.26172 340.707 379.26172 345.83398 C 379.26172 349.89399 382.51367 348.57009 388.88867 341.91602 C 392.2289 338.42955 398.06732 335.11195 401.86133 334.54297 C 405.65529 333.97404 416.8757 331.34962 426.79492 328.70898 C 436.71429 326.06841 446.31915 324.226 448.14258 324.61328 C 450.12589 325.03466 442.78629 332.06719 429.86719 342.11719 C 417.99017 351.35642 402.84833 365.12127 396.2207 372.70508 C 381.40514 389.65766 366.1543 411.29703 366.1543 415.37109 C 366.1543 417.03817 363.69556 422.02049 360.69141 426.44141 C 355.09128 434.68282 353.52739 442.20312 357.41406 442.20312 C 358.61573 442.20312 359.59961 440.62988 359.59961 438.70508 C 359.59961 434.68736 382.93936 411.65724 402.15625 396.71484 C 409.33936 391.1295 424.57724 381.77764 436.01953 375.92969 C 447.46179 370.08171 457.80626 364.53744 459.00781 363.60742 C 460.20951 362.67736 464.32589 361.48185 468.15625 360.94922 C 474.24503 360.10249 474.86282 360.45676 473.07227 363.80273 C 466.31882 376.42159 461.74009 430.37113 467.58789 428.42188 C 468.86775 427.99509 470.47868 424.19387 471.16406 419.97656 C 473.21053 407.3862 501.33398 366.13969 505.93359 368.98242 C 506.88195 369.56852 508.3188 375.71339 509.12891 382.63867 C 511.4391 402.39868 518.69429 426.70969 526.88086 442.12695 C 531.00829 449.89985 534.38281 457.6066 534.38281 459.24805 C 534.38281 460.88965 535.46872 461.86949 536.79492 461.42773 C 538.12116 460.98576 539.5691 454.75813 540.01172 447.58984 C 541.10748 429.83079 545.14949 397.22156 547.63672 386.06836 C 548.76033 381.0301 549.74363 373.65756 549.82617 369.68359 C 549.96942 362.60961 550.03781 362.66573 553.14258 372.29102 C 561.30356 397.59346 565.19606 427.00519 561.74414 437.28906 C 560.69937 440.40256 560.97204 442.20312 562.49023 442.20312 C 566.02829 442.20312 577.2434 416.87007 580.38672 401.78125 C 581.88817 394.57354 583.70628 381.94844 584.42383 373.72852 L 585.72656 358.78516 L 598.83398 370.21289 C 606.04377 376.49711 612.93208 383.4119 614.14062 385.58203 C 615.34917 387.7522 620.46452 393.06013 625.50781 397.37695 C 636.44338 406.73737 664.69257 442.01251 665.79102 447.67969 C 666.21678 449.87627 667.93382 452.12702 669.60547 452.68359 C 671.97206 453.4717 672.27177 452.30603 670.95898 447.40625 C 668.77049 439.23752 668.31818 424.72641 670.25391 424.72656 C 672.61872 424.72679 710.40476 467.44156 727.26758 489.17773 C 744.56152 511.46973 772.82474 553.02612 783.20703 571.42773 L 790.16992 583.76367 L 781.94336 590.54492 C 772.06073 598.69101 771.1897 598.80068 769.51367 592.12305 C 768.79575 589.26247 766.47538 586.34212 764.35938 585.63281 C 762.24333 584.92324 758.92399 583.17385 756.98438 581.74609 C 753.44908 579.14359 750.48226 579.7828 743.83789 584.57422 C 739.41104 587.76645 727.00998 582.47404 722.80469 575.59961 C 719.48823 570.17822 706.74019 569.41215 702.61328 574.38477 C 699.61993 577.99161 693.87305 578.82784 693.87305 575.65625 C 693.87305 574.55255 697.56421 571.35641 702.07031 568.55469 C 708.37698 564.63358 713.53328 563.43424 724.46484 563.3418 C 737.01575 563.23521 739.61537 563.97191 746.85547 569.71094 C 762.3298 581.97698 757.93031 573.29436 739.54102 555.27539 C 695.42902 512.05173 633.65923 482.45958 562.78516 470.59375 C 480.72284 456.85475 400.02637 478.41105 328.61133 533.14258 C 301.47731 553.93758 245.99414 611.58925 245.99414 618.98828 C 245.99414 620.39457 241.43111 626.41835 235.85938 632.375 L 225.72852 643.20508 L 109.14062 643.20508 C 44.357389 643.20508 14.915747 643.37139 2 644.22266 L 2 2 z M 463.98047 185.50195 C 464.13127 185.49895 464.29116 185.50927 464.46094 185.5293 C 464.84894 185.57839 465.28603 185.68616 465.76758 185.87109 C 470.13354 187.54649 486.91941 205.37904 498.03516 220.15234 C 514.1017 241.50542 530.01186 277.72216 530.01367 292.94727 C 530.01424 297.976 530.91193 304.45233 532.00977 307.33984 C 533.87916 312.25702 534.90709 312.54498 548.20898 311.85547 C 573.98264 310.52027 599.43307 322.15457 622.78711 345.94922 C 628.75015 352.02476 634.68331 356.99805 635.97266 356.99805 C 641.72102 356.99805 659.32296 402.00608 662.45898 424.72656 L 663.51172 432.37305 L 658.58398 425.81836 C 655.87418 422.21341 645.85146 411.18634 636.3125 401.31641 L 618.9707 383.37305 L 620.41797 371.07812 C 621.52847 361.6295 621.21759 359.00078 619.08594 359.71094 C 617.56063 360.2188 616.00941 362.51854 615.63867 364.82227 C 613.99719 375.02149 613.09565 375.05134 601.54492 365.27148 C 595.25016 359.94186 588.42679 354.96542 586.38672 354.21484 C 584.34664 353.46389 581.04275 349.60582 579.04297 345.63867 C 571.34339 330.36461 547.85722 312.0608 542.64453 317.27344 C 541.24138 318.67662 542.14522 319.94578 545.26367 320.93555 C 551.00326 322.75727 561.3979 338.54726 565.96875 352.39648 C 572.23668 371.38743 575.63906 397.22273 573.3125 408.13086 C 570.62843 420.71589 568.18093 419.49969 566.42969 404.71289 C 564.76333 390.64303 556.45294 361.42837 552.85547 356.99609 C 551.39256 355.19365 549.46998 351.3447 548.58398 348.44531 C 544.65464 335.58746 540.56138 328.10063 538.55664 330.10547 C 537.23248 331.42958 537.77649 335.31672 540.05078 340.75977 C 543.26693 348.45717 544.86336 382.19914 542.14062 384.92188 C 541.66773 385.39469 538.26853 383.55421 534.58398 380.83008 C 524.68306 373.51004 523.85095 377.42214 533.125 387.6875 C 539.55364 394.80348 540.96137 397.84361 539.96875 402.49023 C 539.28152 405.70695 537.74537 416.11861 536.55859 425.62695 C 535.37178 435.13526 534.0048 443.31443 533.51758 443.80078 C 532.08854 445.22986 519.33912 410.68108 517.89844 401.47461 C 515.90704 388.74886 520.28665 353.09434 525.64844 338.36719 C 532.88684 318.48607 533.21469 316.96752 530.05273 318.02148 C 526.9629 319.05139 520.37756 334.51178 515.77734 351.53516 C 513.29185 360.73225 512.80105 361.38939 512.67969 355.69922 C 512.51188 347.80941 519.23039 327.19751 524.67578 318.88672 C 528.33236 313.30604 528.29101 312.96123 523.55273 308.54688 C 519.32847 304.61142 516.90543 304.16715 505.98438 305.30859 C 497.72384 306.17199 490.01259 305.57505 483.8125 303.59375 C 478.58307 301.92267 471.52902 299.94294 468.13867 299.19727 C 462.76422 298.0156 462.06507 296.96969 462.67773 291.00977 C 463.61324 281.90524 459.54531 280.93865 456.31445 289.49805 C 453.47384 297.02377 453.79178 297.00245 427.42969 291.42773 C 420.87595 290.04182 407.60399 288.2045 397.93555 287.34375 L 380.35547 285.77734 L 398.92578 279.57812 C 413.4482 274.72944 421.83077 273.32213 437.36523 273.12891 C 449.04681 272.98321 459.39703 273.96999 462.49023 275.52344 C 465.38324 276.97647 473.88616 280.59279 481.38867 283.55859 C 488.8913 286.5244 497.89098 290.98995 501.38867 293.48047 C 504.8864 295.97109 508.8241 298.00781 510.14062 298.00781 C 514.88454 298.00781 512.38265 293.89808 504.77344 289.19531 C 500.5045 286.55699 497.46512 283.94893 498.01758 283.39648 C 500.06434 281.3497 512.34515 289.4166 516.88281 295.78906 C 522.01568 302.99746 529.54667 305.29708 525.93359 298.55273 C 524.80711 296.44984 521.57686 292.15502 518.75586 289.00781 C 512.21361 281.70935 509.45176 276.70197 486.11719 229.92383 C 475.53103 208.70187 465.83642 190.70251 464.57617 189.92383 C 461.6001 188.08458 461.71649 185.54096 463.98047 185.50195 z M 483.58203 193.45703 C 484.63172 193.46194 487.21624 194.59388 491.34375 196.69531 C 523.67096 213.15422 543.54095 243.02189 536.45312 264.49805 C 535.12935 268.50934 533.3866 271.77624 532.57812 271.75977 C 531.77021 271.74503 528.36214 264.95531 525.00781 256.66797 C 517.27792 237.56961 504.0535 216.83273 491.10938 203.51562 C 484.34893 196.56066 481.83245 193.44604 483.58203 193.45703 z M 653.41992 199.69141 C 658.88308 199.69141 658.46518 200.34425 647.64258 208.7168 C 641.22604 213.68062 627.87463 225.69393 617.96875 235.41602 L 599.95703 253.0957 L 592.84375 250.23633 C 581.24888 245.581 578.07812 244.93859 578.07812 247.23633 C 578.07812 248.43237 580.99555 250.62098 584.56055 252.09766 C 597.07222 257.28017 595.606 261.80571 574.49023 283.14062 C 563.84795 293.89329 552.29564 304.19266 548.81836 306.0293 L 542.49414 309.36719 L 543.98438 300.06445 C 546.52165 284.1969 557.97025 260.08115 569.41602 246.49805 C 575.41545 239.37834 582.02444 230.89471 584.10352 227.64258 C 590.53287 217.58517 634.90712 199.69141 653.41992 199.69141 z M 572.85547 231.0293 C 572.97037 231.04404 573.06529 231.08651 573.13672 231.1582 C 573.78975 231.81121 570.77257 236.27535 566.43359 241.07812 C 562.09462 245.88087 555.3909 255.98741 551.53711 263.5332 C 547.68324 271.07899 542.85261 283.15151 540.80078 290.36133 C 537.57182 301.70728 536.87448 302.72507 535.61133 297.93945 C 533.95892 291.67927 536.79835 277.00338 542.13281 264.23633 C 545.58348 255.97778 569.29829 230.5332 572.85547 231.0293 z M 559.50781 304.47656 L 571.77148 305.42383 C 591.00267 306.90546 614.23095 320.60091 626.32812 337.58984 C 628.79506 341.05428 630.49952 343.85228 630.11719 343.80273 C 629.73504 343.75863 624.50617 339.3594 618.49805 334.03125 C 605.41162 322.4258 587.35199 312.40456 571.28125 307.83008 L 559.50781 304.47656 z M 466.24805 305.85938 C 469.83142 305.78919 473.02586 306.11578 475.75195 306.85352 L 485.22461 309.41797 L 474.30078 313.7793 C 468.29254 316.17892 457.47737 318.55374 450.26758 319.05664 C 443.05768 319.55949 430.02413 321.91421 421.29883 324.28516 C 402.27204 329.45515 402.03471 329.47034 405.48047 325.31836 C 406.97637 323.51592 409.43174 322.04102 410.9375 322.04102 C 412.44334 322.04102 419.03342 319.67363 425.57812 316.7793 C 441.24325 309.85139 455.49797 306.07025 466.24805 305.85938 z M 515.8125 309.17969 L 508.16602 311.42383 C 503.96031 312.65823 492.65417 316.41831 483.04102 319.7793 C 473.42786 323.14019 463.59466 326.64185 461.19141 327.5625 C 457.95364 328.80283 457.42047 328.58448 459.13086 326.7168 C 462.15928 323.40982 495.89707 311.91242 507.07227 310.37891 L 515.8125 309.17969 z M 516.93945 315.92383 C 517.16547 315.914 517.36602 315.91471 517.54102 315.92578 C 517.91443 315.95035 518.16894 316.02039 518.29102 316.14258 C 518.65612 316.50704 516.62437 322.54416 513.77344 329.55859 L 508.58789 342.31445 L 487.15039 349.49219 C 465.22463 356.83445 462.28516 357.03948 462.28516 351.22461 C 462.28516 345.70588 456.8772 349.25919 456.16211 355.24805 C 455.61952 359.78967 452.94747 361.89406 441.60938 366.71289 C 433.97208 369.95875 421.23841 376.87304 413.31055 382.08008 C 405.38269 387.28706 392.76756 396.79896 385.2793 403.21875 C 374.18891 412.72672 372.42988 413.67888 375.79688 408.33984 C 392.86711 381.27147 432.92363 341.70313 443.25391 341.70312 C 445.08036 341.70309 454.77763 337.78073 464.80664 332.98633 C 479.1097 326.14866 509.93682 316.22429 516.93945 315.92383 z M 568.60547 339.76172 C 571.22377 339.49681 576.9647 352.94405 578.35156 363.16406 C 579.26806 369.91959 579.74685 375.72107 579.41406 376.05469 C 577.92259 377.54613 575.89453 373.29201 575.89453 368.67188 C 575.89453 365.88098 573.95487 358.48419 571.58008 352.23438 C 569.20529 345.9845 567.65246 340.48232 568.12891 340.00586 C 568.27366 339.86114 568.43089 339.77937 568.60547 339.76172 z M 505.94727 350.44336 C 511.29753 350.44336 505.88036 361.37086 496.02539 370.45508 C 490.59137 375.46394 482.60168 385.30027 478.27344 392.3125 C 473.94524 399.32473 470.11597 405.0625 469.76172 405.0625 C 467.89486 405.0625 471.9655 388.34516 474.29297 386.45312 C 475.79741 385.2303 478.87393 381.22062 481.12891 377.54297 C 487.3121 367.45883 502.89428 350.44336 505.94727 350.44336 z M 490.67383 352.57617 C 491.0932 352.57517 491.43563 352.70668 491.68164 352.99414 C 492.02255 353.39197 488.50121 358.47358 483.85156 364.28516 C 474.40762 376.08869 474.00912 376.14489 478.66992 364.99023 C 481.11278 359.14358 487.73732 352.58549 490.67383 352.57617 z M 661.99414 395.05664 C 662.57985 395.05864 663.62274 395.67319 665.26562 396.69922 C 670.46928 405.9117 668.46334 405.90304 674.97656 414.94141 C 674.35532 410.97725 674.67684 407.24805 676.33008 407.24805 C 683.73882 411.20071 684.1645 421.03956 688.94141 428.55859 C 688.99848 428.24414 689.03952 427.94984 689.11133 427.61523 C 689.97249 423.59223 690.46186 421.97729 691.67188 422.04102 C 692.39785 422.08032 693.38278 422.72131 694.86719 423.8125 C 699.73907 431.8782 698.54721 434.94228 703.69727 444.22461 C 703.73846 443.9831 703.76526 443.76539 703.8125 443.51367 C 704.62412 439.18728 705.80442 435.65039 706.43945 435.65039 C 713.50237 443.97983 712.03373 449.74061 718.16602 459.68164 C 718.27298 459.3086 718.3616 458.96783 718.48633 458.56055 C 719.87156 454.04704 720.52363 452.27215 721.74219 452.41211 C 722.47334 452.49601 723.41131 453.26701 724.83203 454.55273 C 727.36843 456.84823 728.83008 461.20216 728.83008 466.44531 C 728.32173 470.5475 730.80342 474.02326 732.50977 477.76367 C 732.9316 476.32843 733.19922 474.50726 733.19922 472.66406 C 733.19922 468.78011 733.69917 466.76979 734.8418 466.61328 C 735.98439 466.45681 737.77454 468.14963 740.34375 471.68164 C 744.35428 481.31808 742.143 483.8234 746.49414 493.76953 C 746.66346 493.2469 746.81197 492.76442 747.01172 492.17383 L 750.01758 483.27539 L 754.71875 489.25 C 759.39304 497.45634 759.45684 503.97756 762.71094 512.74414 L 765.26758 502.66211 L 772.00586 512.45117 C 778.3532 523.03597 775.54985 529.66152 778.55469 542.67383 C 779.33164 540.68092 780.12204 538.02233 780.67578 535.35742 L 782.41406 526.99805 L 786.93164 535.39453 C 791.43895 550.14573 787.73777 550.37274 791.70117 565.25391 L 791.70117 573.64648 C 789.68532 567.74888 788.01581 559.29577 786.60352 565.13281 L 780.8125 556.38477 C 778.93653 543.4053 769.02516 538.0476 765.13867 532.19141 C 761.68951 518.35248 751.64277 512.71241 748.98047 508.75195 C 744.41472 502.12826 744.44067 489.1353 739.88672 494.63867 C 735.10547 481.8305 725.62328 477.80662 720.47852 471.69531 C 717.20635 460.36024 709.6861 459.27268 706.08984 455.53125 C 703.17553 451.08014 699.03916 438.50981 697.42383 443.74805 C 697.08291 444.08896 694.74107 442.1638 692.2168 439.46484 C 688.52393 427.00695 680.68253 425.86312 678.05859 423.08789 C 674.37907 417.59586 670.88383 411.37878 668.82422 415.98633 C 667.09936 415.98633 663.88302 408.69225 662.25 401.08984 C 661.31835 396.75253 661.01789 395.05328 661.99414 395.05664 z M 498.33398 472.34766 L 528.20508 473.11523 C 554.79636 473.79891 558.62933 474.38441 563.16016 478.44922 C 565.95912 480.96034 575.12956 486.70723 583.54102 491.2207 C 613.31232 507.19559 643.30286 533.26696 661.37891 558.88672 C 667.23464 567.18626 672.02539 574.68992 672.02539 575.5625 C 672.02539 576.43519 667.84721 575.65205 662.74023 573.82227 C 648.02132 568.5482 620.37513 567.74732 605.20898 572.15625 C 595.40678 575.00579 589.8244 578.40209 581.89453 586.33203 L 571.46875 596.75781 L 570.17578 591.03516 C 562.55773 557.25415 556.50864 542.63162 539.63086 517.20508 C 533.11253 507.38519 521.15367 493.27502 513.05664 485.84961 L 498.33398 472.34766 z M 485.47266 473.35547 C 490.15912 473.31616 492.63973 475.04465 499.42969 480.84766 C 532.91619 509.46654 555.32165 546.15228 563.45508 585.67578 C 565.22764 594.28932 567.33717 602.39921 568.14062 603.69922 C 570.5788 607.64433 567.57113 606.39197 558.04102 599.48828 C 539.40341 585.98736 510.09229 582.51669 486.94922 591.07422 C 476.89957 594.79021 470.66107 599.42273 456.55859 613.63867 L 438.81445 631.52734 L 437.45898 617.1543 C 433.47589 574.99204 440.96952 536.49898 461.69531 492.68945 C 469.92043 475.30336 469.94961 475.27905 479.81055 473.90039 C 482.10396 473.57951 483.91054 473.36866 485.47266 473.35547 z M 460.89844 477.50781 C 461.17094 477.50025 461.40605 477.50632 461.60156 477.52344 C 462.04845 477.56274 462.28516 477.67437 462.28516 477.85352 C 462.28516 478.34259 458.36297 487.11401 453.56641 497.34961 C 448.76992 507.58517 442.14941 525.6647 438.85352 537.52539 C 433.49758 556.80064 432.85725 562.74218 432.82422 593.49805 C 432.80532 612.42305 432.2984 627.61731 431.69727 627.25977 C 431.09643 626.9026 424.8216 623.81842 417.75195 620.41016 C 395.19766 609.53649 366.96049 612.14366 347.65625 626.87891 C 337.38557 634.71878 335.55919 635.61987 335.58398 632.82812 C 335.64298 626.53593 345.10298 593.72061 350.22852 582.03125 C 365.1126 548.08678 374.67046 533.93234 401.72461 505.78125 C 416.60809 490.29441 420.13498 487.7901 432.22656 484.10352 C 444.34479 480.4088 456.81035 477.60559 460.89844 477.50781 z M 572.54102 477.98047 C 576.64728 477.62141 601.19275 483.8774 621.0957 490.45703 C 656.88824 502.28971 700.94971 527.12079 724.30273 548.62305 L 734.29297 557.82422 L 722.75391 557.9082 C 707.62589 558.02197 698.95779 561.88693 688.9668 572.95898 C 679.81739 583.09829 678.58008 583.71693 678.58008 578.17773 C 678.58008 573.32444 665.88641 554.18819 651.74414 537.72461 C 637.04813 520.61639 609.23196 498.73839 588.38477 487.89258 C 578.92982 482.97349 571.55459 478.58595 571.99805 478.14258 C 572.08233 478.05829 572.26753 478.00466 572.54102 477.98047 z M 404.23438 494.99805 C 404.34587 495.01316 404.42592 495.04229 404.47656 495.0918 C 405.02762 495.64289 401.72645 499.1119 397.13867 502.79883 C 385.89987 511.83054 366.31583 537.85966 355.23438 558.49414 C 345.12361 577.32084 334.5732 606.47872 332.23828 622.04883 C 331.39454 627.67564 330.07518 632.24244 329.31055 632.20117 C 328.54572 632.15695 324.97022 629.71197 321.36523 626.76367 C 307.31586 615.27368 280.27475 611.37812 261.21875 618.10156 C 256.07357 619.91706 251.51877 621.05783 251.09766 620.63672 C 249.88734 619.42644 278.13614 586.74015 293.91797 571.08984 C 312.55414 552.60897 332.02323 536.4901 351.93945 523.05078 C 368.77789 511.68831 400.77974 494.58506 404.23438 494.99805 z M 629.75977 574.16797 C 643.24346 574.13773 657.99124 577.10141 668.04883 582.23242 C 676.16208 586.3715 676.38446 586.76695 673.18555 591.33398 C 671.34548 593.96102 669.83984 597.82625 669.83984 599.91992 C 669.83984 602.01352 667.92603 604.74754 665.58594 606 C 662.15284 607.83719 660.27686 607.21838 655.85742 602.79883 C 652.84487 599.78628 648.11147 597.32422 645.3418 597.32422 C 642.57216 597.32422 639.07698 595.35833 637.57617 592.95508 C 636.07528 590.55183 632.52064 588.58594 629.67383 588.58594 C 626.82709 588.58594 623.27129 587.11101 621.77539 585.30859 C 616.92097 579.45936 608.93227 581.33212 604.14648 589.44336 C 601.66534 593.64861 596.73253 597.98557 592.75 599.45898 C 580.85602 603.85907 579.24898 605.15892 576.85352 612.35352 C 574.54785 619.27867 570.76052 622.05873 550.03125 632.02148 C 544.7994 634.53608 540.03228 638.55086 539.39648 640.98242 C 538.68839 643.68992 536.41946 645.39063 533.51172 645.39062 C 529.41766 645.39062 527.68728 642.0639 520.66016 620.71289 C 516.19309 607.14027 512.53516 594.78903 512.53516 593.26758 C 512.53516 586.36503 546.02975 596.3967 558.76562 607.11328 C 562.36438 610.14136 566.46125 612.58819 567.87109 612.54688 C 569.28093 612.50757 573.38138 607.37344 576.98633 601.14062 C 585.10997 587.09496 598.36803 578.48746 616.91406 575.2207 C 620.90687 574.51741 625.26519 574.17712 629.75977 574.16797 z M 714.04883 575.97461 L 714.04883 575.97656 C 717.68356 575.95389 720.0918 578.05161 720.0918 581.96289 C 720.0918 584.89958 721.52611 586.40234 724.33203 586.40234 C 730.38869 586.40234 732.01378 590.32016 726.30469 591.16016 C 723.67731 591.54673 721.08324 593.21231 720.53906 594.86328 C 719.78255 597.15821 721.28569 597.58308 726.92188 596.66016 C 741.47699 594.27671 747.44111 592.39936 749.79492 589.46875 C 751.73684 587.05095 753.27585 586.99601 757.9707 589.17578 C 763.62953 591.80316 765.15547 596.63262 761.97266 599.27734 C 762.26784 599.31514 762.56387 599.34263 762.85742 599.39062 C 767.5779 600.16445 770.80862 601.87271 773.01953 604.11133 C 773.68 604.28556 773.96442 604.57344 773.86328 605.05469 C 775.44792 606.99532 776.39676 609.25051 776.94336 611.61328 L 778.80664 609.63086 C 781.56833 606.69112 787.02587 603.87052 791.70117 602.89844 L 791.70117 647.44922 L 788.91211 647.41211 C 798.53392 640.92266 774.06569 645.386 773.1543 645.38672 C 765.92663 646.1622 758.84015 639.85318 756.14062 645.27344 L 737.50586 645.33008 L 718.86719 645.38867 L 718.7793 645.15625 C 680.90873 643.78247 655.94544 645.38143 628.32812 645.38672 C 582.66591 645.38672 545.30664 644.598 545.30664 643.63672 C 545.30664 640.27226 550.59737 636.64844 555.50195 636.64844 C 558.22348 636.64844 561.46735 634.74134 562.71289 632.41406 C 564.07148 629.87558 567.79557 627.90843 572.01953 627.49805 C 578.42421 626.87548 579.23068 625.9571 580.92969 617.30859 L 582.79297 607.80078 L 593.00195 609.3125 C 598.61493 610.1432 603.53312 611.7166 603.93359 612.81055 C 605.82086 617.9651 615.2207 613.26425 615.2207 607.16602 C 615.2207 606.76917 611.04256 605.73507 605.93555 604.86914 C 598.16227 603.55126 597.40671 603.01303 601.29297 601.57031 C 603.84615 600.62244 606.99168 596.82241 608.28125 593.12305 C 609.71932 588.99784 611.98688 586.72071 614.26367 586.5332 L 614.26562 586.5332 C 616.03652 586.38731 617.81378 587.50464 619.20703 589.99414 C 620.31477 591.97367 623.96708 593.6953 627.32617 593.81836 C 630.68534 593.94157 633.85413 595.31466 634.37109 596.86914 C 635.04513 598.89546 633.77423 599.3107 629.875 598.33203 C 624.08284 596.87835 619.96237 600.31028 624.28906 602.98438 C 625.7096 603.86225 632.19489 604.66494 638.70312 604.77148 C 649.97644 604.95555 650.81668 605.3808 656.45898 613.68945 C 659.71629 618.48616 664.54729 623.48838 667.19141 624.80664 C 669.83553 626.12486 673.99364 629.01064 676.43359 631.21875 C 677.66062 632.32918 678.67422 633.07774 679.55859 633.49023 C 680.47388 633.39083 681.57993 633.31016 682.77539 633.24023 C 682.9655 633.09775 683.15537 632.9462 683.3457 632.75586 C 685.19219 630.90899 685.18894 629.50655 683.31641 627.25195 C 681.93435 625.58839 681.29282 623.74046 681.89062 623.14258 C 682.4884 622.54481 681.02286 620.28429 678.63477 618.12305 C 675.28127 615.08824 673.60455 614.76598 671.26562 616.70703 C 668.94911 618.62983 667.62861 618.49204 665.6543 616.11328 C 662.2311 611.98812 666.08405 609.56188 673.21484 611.35156 C 676.13608 612.08479 680.42783 611.50008 682.74805 610.05078 C 688.04328 606.74388 694.70921 611.37072 693.16406 617.2793 C 692.52321 619.73017 694.13845 622.45306 697.55469 624.69141 C 700.7725 626.79989 702.45991 629.51926 701.73242 631.41602 C 701.54911 631.89333 701.49831 632.36322 701.56445 632.82031 C 715.21807 635.32591 709.80587 628.7136 702.61328 621.35547 C 700.21003 618.95218 698.24219 615.13693 698.24219 612.88086 C 698.24219 606.11267 692.64011 603.16668 682.77539 604.74414 C 674.28971 606.10095 673.95551 605.93853 675.38867 601.19727 C 677.73803 593.42542 680.09427 591.94549 685.90234 594.5918 C 689.66479 596.30581 691.82523 596.3142 693.51562 594.62305 C 695.20613 592.93231 696.80347 593.03397 699.14844 594.98047 C 703.4537 598.5536 706.8711 596.2628 705.43359 590.76562 C 704.19852 586.04269 700.17762 585.21122 694.16016 588.43164 C 689.69687 590.82038 683.90588 587.97402 686.07812 584.45898 C 686.9038 583.123 690.38945 582.03125 693.82617 582.03125 C 697.26275 582.03125 702.9395 580.3857 706.43945 578.37695 C 709.24534 576.76661 711.86793 575.9889 714.04883 575.97461 z M 713.08398 590.90625 C 712.80279 590.92137 712.53607 591.04156 712.29883 591.2793 C 711.49122 592.08974 711.45852 595.25436 712.22656 598.31445 L 712.22266 598.31445 C 713.8031 604.61175 717.9226 605.88274 717.87305 600.05664 C 717.83374 595.7191 715.05119 590.79882 713.08398 590.9082 L 713.08398 590.90625 z M 501.85352 592.80664 C 505.61539 593.02396 510.91498 607.22302 524.29492 651.13867 C 533.76578 682.22408 543.41484 713.46019 545.73438 720.55273 C 549.41904 731.81962 549.54807 733.8465 546.7793 736.61523 C 544.0106 739.384 543.32266 738.85909 541.32227 732.45898 C 516.07891 651.69521 499.23088 594.61085 500.31836 593.52344 C 500.81215 593.0296 501.3161 592.77557 501.85352 592.80664 z M 491.11719 595.89648 C 491.89853 595.9305 492.51572 596.15767 492.93555 596.59961 C 494.59831 598.34851 508.16602 640.21281 508.16602 643.59375 C 508.16602 644.50446 469.8229 645.11717 422.95898 644.95117 C 376.09506 644.78601 337.75195 643.91844 337.75195 643.02734 C 337.75195 640.39755 350.73782 630.25097 360.43945 625.29688 C 371.53048 619.63329 395.02749 617.60058 406.81055 621.28906 C 411.48669 622.75284 420.33373 627.32423 426.4707 631.44531 C 432.9374 635.78765 439.05972 638.39008 441.0332 637.63281 C 442.90596 636.91417 447.12489 632.44865 450.4082 627.71094 C 460.58107 613.0314 483.56426 595.54125 491.11719 595.89648 z M 729.08984 607.36523 C 728.25283 607.3539 727.42568 607.43439 726.64453 607.62109 C 723.64049 608.33709 720.85747 609.75585 720.45703 610.77148 C 720.05625 611.78727 718.33706 612.61914 716.63477 612.61914 C 713.28973 612.6191 712.54728 615.2699 715.16211 617.88477 C 717.19285 619.91547 735.74908 617.33525 738.54688 614.63281 C 739.47207 613.73914 739.43884 612.68441 738.7832 611.66016 C 737.29222 611.42998 736.72375 610.74396 736.86719 609.80664 C 734.86925 608.42927 731.90888 607.39309 729.08984 607.36523 z M 754.74414 608.95703 C 752.75252 608.95405 750.46694 609.38335 748.00586 610.28125 C 744.63804 613.99535 741.93945 617.69806 741.93945 619.25391 C 741.93945 622.63224 747.90633 621.68191 749.28711 618.08398 C 749.97873 616.28149 752.04654 614.80859 753.88672 614.80859 C 758.01445 614.80859 758.05892 615.84559 754.17383 621.98438 C 752.48941 624.64577 750.40581 630.26503 749.54688 634.4707 C 747.65367 638.89884 750.83107 639.58795 753.1582 637.52539 C 772.17856 631.51632 760.04257 631.00261 759.41797 623.81055 C 765.21883 614.48796 761.8571 608.96822 754.74414 608.95703 z M 623.1543 615.7832 C 622.96192 615.77564 622.77383 615.77993 622.58984 615.79883 C 622.09926 615.84796 621.64253 615.99118 621.24609 616.23828 C 619.73481 617.18135 616.53216 618.24054 614.12891 618.58984 C 605.08665 619.90353 603.95265 620.99596 606.55859 625.86523 C 608.23281 628.99366 610.15849 629.947 612.66016 628.89062 C 616.13505 627.42326 621.79069 626.30785 627.7832 625.9082 C 631.48124 625.6614 631.22687 621.76195 627.25391 617.78906 C 626.01913 616.55406 624.50049 615.84536 623.1543 615.78516 L 623.1543 615.7832 z M 283.66797 619.94922 C 291.8909 619.85208 299.46884 621.69602 308.25586 625.56055 C 318.94724 630.26262 331.65643 640.69688 329.98438 643.40234 C 329.30939 644.49467 326.60149 645.17699 323.96875 644.91602 C 321.33593 644.65523 300.11203 643.91925 276.80273 643.2793 L 234.42188 642.11328 L 240.10938 635.35938 C 244.34875 630.32523 250.03213 627.34932 262.43945 623.66602 C 270.48913 621.27633 277.27229 620.02488 283.66797 619.94922 z M 657.04297 630.09766 C 652.26531 630.09766 649.3899 632.9485 651.76953 635.32812 C 653.96782 637.52645 659.51975 635.94801 660.55859 632.82812 C 661.08625 631.24329 659.60961 630.09766 657.04297 630.09766 z M 2 648.51367 C 18.499834 649.59462 61.72705 649.8216 168.98047 649.91797 L 345.40234 650.07617 L 326.82812 656.08398 C 297.29015 665.63803 285.32031 672.89614 285.32031 681.25195 C 285.32031 683.7808 287.37294 687.12986 289.88281 688.69727 C 292.39261 690.26471 312.35528 693.85498 334.24805 696.67383 C 356.14085 699.49271 378.42175 702.95135 383.75977 704.35938 C 394.3652 707.15664 403.29883 712.09938 403.29883 715.17188 C 403.29883 718.86693 384.6211 724.07689 336.49609 733.80664 C 268.8952 747.47421 232.49997 760.88471 229.39062 773.27344 C 227.35426 781.38684 229.4235 784.45492 242.63477 792.90625 C 256.79745 801.96604 257.88615 806.63572 247.63281 814.41406 C 237.46558 822.12698 219.59239 827.5538 174.90625 836.50391 C 127.62687 845.97344 109.95499 850.75718 84.847656 860.87891 C 43.175016 877.67913 14.40625 901.49246 14.40625 919.17773 C 14.40625 926.68777 24.100292 935.3894 37.101562 939.55273 C 46.454356 942.54767 65.305826 943.3999 153.14062 944.80078 C 210.81927 945.72106 269.31591 947.62873 283.13477 949.03906 C 351.94055 956.06101 403.22876 969.96631 432.85742 989.63281 C 459.34942 1007.2171 452.48952 1019.4454 412.19141 1026.4805 C 392.38022 1029.939 382.7051 1035.6756 373.25 1049.5645 C 361.72614 1066.4918 361.59132 1084.8054 372.79297 1111.7129 C 374.1703 1115.0214 375.57906 1118.0015 376.91016 1120.5195 L 2 1120.5195 L 2 648.51367 z M 510.00391 649.42188 L 517.96289 675.25977 C 522.33947 689.47147 529.14365 711.24866 533.08203 723.65039 L 540.24219 746.19727 L 534.03711 754.76562 C 530.62427 759.47681 527.82812 764.30194 527.82812 765.48633 C 527.82812 772.51924 498.07787 779.61777 473.92578 778.34766 C 459.44052 777.58582 459.12274 777.68496 456.98047 783.70703 C 454.06105 791.91371 456.4339 793.13334 478.96094 795.00977 C 489.007 795.84655 497.79379 797.45113 498.48828 798.57422 C 499.18239 799.69742 487.39005 817.21766 472.2832 837.51172 C 457.17643 857.80589 444.24769 875.89773 443.55078 877.71289 C 442.78422 879.71041 444.05615 881.95989 446.77344 883.41406 C 451.6087 886.00194 454.05148 884.36091 463.69336 872.04102 L 468.37305 866.05859 L 487.03516 871.46484 C 520.24326 881.0882 552.93667 893.27477 558.22461 897.99805 C 558.71803 898.43908 557.24329 902.31727 554.94727 906.61523 C 550.82989 914.32214 550.82738 914.47107 555.00977 917.55078 C 557.34234 919.26846 559.8013 920.66656 560.47266 920.6582 C 561.1442 920.64686 574.30761 901.40105 589.72461 877.88672 C 606.18952 852.77444 618.84438 835.55113 620.39648 836.14648 C 623.34693 837.27876 711.26686 860.47637 720.55078 862.57227 C 725.04218 863.58624 727.01868 862.8852 728.73633 859.67578 C 732.46891 852.70168 729.18284 849.13278 716.10938 845.95117 L 703.70508 842.93164 L 700.89648 823.35742 C 699.35115 812.59261 696.78044 786.09049 695.18359 764.46094 L 692.28125 725.13477 L 697.85352 715.30273 C 700.91852 709.8954 709.2168 696.64349 716.29688 685.85547 L 729.17188 666.24023 L 724.32031 662.31445 C 719.71435 658.58463 719.25542 658.57547 715.28125 662.17188 C 711.67653 665.43459 706.4875 665.93655 677.9043 665.78711 C 655.33269 665.66881 639.9574 664.47633 629.83594 662.05664 C 621.65031 660.09975 613.05516 658.49805 610.74023 658.49805 C 607.85887 658.49805 598.49257 669.20719 581.04102 692.45703 C 567.02082 711.13523 554.76089 725.62819 553.79492 724.66211 C 552.16054 723.02773 529.5883 651.20573 530.63281 650.96289 C 530.89398 650.90242 588.32316 651.15451 658.25391 651.52539 L 785.40039 652.20117 L 775.6875 661.77539 C 766.82757 670.50969 763.65282 675.97656 767.43945 675.97656 C 768.24604 675.97656 770.45841 674.61198 772.35547 672.94336 C 774.2526 671.27455 779.24355 669.19309 783.44922 668.31836 L 791.0957 666.72656 L 786.39062 671.89844 C 783.80203 674.74223 780.19843 680.6784 778.38086 685.0918 C 773.78053 696.26223 776.85812 699.61532 790.55078 698.3457 C 790.98527 698.30542 791.30229 698.27053 791.70117 698.23242 L 791.70117 1120.5195 L 382.97266 1120.5195 C 382.01298 1118.4086 380.81678 1115.8467 379.20312 1112.3984 C 375.56468 1104.6232 371.82711 1093.9432 370.89844 1088.666 C 365.77427 1059.5508 386.21036 1032.0996 413.00781 1032.0996 C 420.05138 1032.0996 427.8271 1029.9958 437.00977 1025.6133 C 458.13279 1015.5322 460.15293 1005.312 443.8457 990.99414 C 423.34917 972.99784 375.22335 956.30223 320.27344 948.125 C 280.55741 942.21465 243.3385 940.33993 164.28906 940.26562 C 56.339497 940.16207 28.418739 936.8024 21.052734 923.03906 C 17.389854 916.19475 23.812514 904.49204 36.917969 894.13281 C 68.315652 869.31436 103.8413 856.1792 180.61133 841.00977 C 232.48207 830.76033 252.27409 823.09688 258.92383 810.67188 C 262.95757 803.13467 261.25629 800.05403 247.37695 789.80078 C 233.02503 779.19826 231.66243 777.29911 235.28711 772.93164 C 244.05614 762.36556 279.85537 750.78171 343.04688 738.05664 C 396.24809 727.34323 406.22528 723.77158 407.23438 715.08203 C 408.54088 703.83057 392.145 698.43683 334.47461 691.13867 C 314.04679 688.55348 295.64795 685.54364 293.58984 684.45117 C 284.53685 679.64588 297.78087 670.84788 327.91992 661.64844 C 338.73466 658.3474 348.96143 654.56909 350.64648 653.25 C 352.70029 651.64215 379.47546 650.61375 431.85938 650.13477 L 510.00391 649.42188 z M 791.70117 656.33203 L 791.70117 661.33789 C 787.13196 661.92788 783.44922 662.10181 783.44922 661.70703 C 783.44922 661.31218 787.13201 658.92303 791.70117 656.33203 z M 619.97852 665.05469 C 625.94484 665.05461 626.34869 668.15165 622.01758 680.74023 C 607.46795 723.02941 574.88695 761.61407 539.50781 778.45508 C 528.87948 783.51439 517.39989 789.06997 513.99805 790.80273 C 507.66269 794.02973 507.24366 794.08919 501.61133 792.55273 C 499.80872 792.06102 490.55076 790.94912 481.03516 790.07812 C 456.78098 787.85818 456.19644 783.29904 480.17188 783.33203 C 508.05765 783.36605 536.13936 775.2875 548.43945 763.68945 C 552.12597 760.21338 557.75714 756.75369 560.95508 756.00391 C 571.52819 753.52609 606.53091 702.38867 606.46484 689.51367 C 606.43083 682.57544 616.11032 665.05469 619.97852 665.05469 z M 721.38672 665.68359 C 721.42073 665.67603 721.4467 665.68032 721.46484 665.69922 C 722.34411 666.57845 705.79394 693.14597 683.26172 727.01953 C 680.17468 731.66026 676.62813 737.21378 675.38281 739.35938 C 674.13753 741.50501 670.50497 746.55366 667.31055 750.58203 C 664.11605 754.61033 638.70397 792.81254 610.83789 835.4707 C 582.97185 878.12895 559.61909 913.5218 558.94531 914.12305 C 552.40628 919.95255 591.73587 858.30819 650.24609 771.01758 C 667.96599 744.58156 691.00415 709.83552 701.44336 693.80469 C 711.55635 678.27495 720.32739 665.92146 721.38672 665.68555 L 721.38672 665.68359 z M 607.95312 668.05078 C 607.99848 668.04878 608.03447 668.06143 608.06055 668.08789 C 609.59458 669.62204 604.29349 678.69371 597.70312 685.80859 C 584.70079 699.84572 553.76353 742.92589 552.56641 748.66016 C 551.85975 752.0451 547.68111 757.57545 543.07617 761.22266 C 535.55038 767.18331 532.19727 768.95878 532.19727 766.98828 C 532.19727 766.57571 537.35929 759.40512 543.66797 751.05078 C 595.53964 682.35783 606.55153 668.11012 607.95312 668.05078 z M 634.62695 669.42773 C 642.99725 669.41262 626.33707 712.06487 607.85938 737.95898 C 594.51122 756.66474 570.97777 778.26374 552.07812 789.16016 C 536.32861 798.24047 531.80904 799.30364 521.3125 796.38086 C 516.49527 795.03947 517.3878 794.31138 529.28711 789.86133 C 568.55769 775.1751 609.94384 730.78149 625.54297 686.61133 C 629.15238 676.39126 632.83096 669.43208 634.62695 669.42773 z M 703.3457 670.66016 C 705.46356 670.62992 706.98847 670.72118 707.4043 670.93359 C 709.13097 671.81679 682.39693 713.66381 637.29492 780.66992 C 620.24332 806.00266 605.59636 826.68041 604.74805 826.63086 C 603.89966 826.57795 599.37198 824.51144 594.68359 822.03906 L 586.15625 817.54688 L 596.86719 808.63281 C 611.54699 796.41889 628.80333 778.14727 641.67383 761.18555 C 653.61755 745.44518 682.04583 690.6736 684.18164 679.28906 C 685.46211 672.46342 686.17334 671.95696 695.7168 671.08789 C 698.51429 670.83315 701.22784 670.68763 703.3457 670.66016 z M 650.4375 671.60742 C 657.78838 671.60738 658.01657 673.05011 653.21094 689.23242 C 644.54981 718.39741 624.72557 749.41366 599.33398 773.5332 C 590.29547 782.11882 577.09201 793.00361 569.99609 797.7168 C 558.04288 805.65641 556.56256 806.10734 549.80469 803.83203 L 542.50781 801.37305 L 558.4707 791.89258 C 595.19119 770.0773 631.4268 722.10271 641.54883 681.9043 C 643.88794 672.61501 644.75797 671.60742 650.4375 671.60742 z M 672.32031 671.90625 C 681.10427 671.61334 680.41591 675.89921 670.04492 699.81055 C 652.18151 740.99678 628.69371 773.48446 596.93555 800.94141 C 587.48181 809.11479 579.12803 815.76439 578.36914 815.71484 C 577.6104 815.66571 574.06563 814.04875 570.49609 812.11719 L 564.00586 808.60547 L 569.34766 805.10352 C 583.56798 795.78294 606.529 775.95424 616.57812 764.3125 C 638.1624 739.30745 656.95876 704.19028 660.75586 681.77734 C 662.20928 673.19838 662.7417 672.66227 670.4375 672.02148 C 671.10723 671.96555 671.73471 671.9259 672.32031 671.90625 z M 791.70117 674.56836 L 791.70117 677.18945 C 789.60537 677.85727 789.66191 676.73479 791.70117 674.56836 z M 791.70117 683.85156 L 791.70117 689.20312 C 784.92473 694.84454 778.81636 695.41646 784.36328 689.28711 C 785.91112 687.57684 788.84855 685.43568 791.70117 683.85156 z M 597.79297 694.99219 C 600.92291 694.67168 581.63931 728.32039 572.06641 739.26367 C 566.7765 745.3108 561.54209 750.26172 560.43359 750.26172 C 556.58199 750.26172 558.45862 745.19766 565.61523 736.28516 C 569.57429 731.35488 577.35101 720.87768 582.89648 713.00391 C 588.442 705.13017 594.72458 697.26473 596.85938 695.52539 C 597.27682 695.18523 597.58434 695.01354 597.79297 694.99219 z M 685.76562 732.98633 C 686.27662 732.99011 686.70363 734.04831 687.52734 736.1543 C 688.44656 738.50422 689.26533 747.10857 689.34961 755.27148 C 689.50797 770.58401 695.34837 829.23501 697.38867 836.01367 C 698.10648 838.40316 697.36977 839.83398 695.42188 839.83398 C 691.87638 839.83398 687.97535 811.8765 685.81641 771.01172 C 685.11818 757.79373 683.77954 745.48001 682.8418 743.64648 C 681.90432 741.813 682.19832 738.41659 683.49609 736.09766 C 684.65902 734.02016 685.2546 732.97903 685.76562 732.98633 z M 676.79688 748.07617 C 677.77846 748.07617 678.58008 751.54333 678.58008 755.7832 C 678.58008 764.95476 684.65285 825.69356 686.27344 832.73633 C 687.12704 836.44586 686.45561 837.60663 683.53906 837.46875 C 679.69585 837.28733 628.25623 823.01209 627.03125 821.78711 C 625.91565 820.67143 674.92797 748.07617 676.79688 748.07617 z M 507.59375 801.39453 C 508.09786 801.89864 498.11813 816.40736 485.41797 833.63672 C 463.11932 863.88772 446.92887 883.97305 450.65234 876.76953 C 454.11016 870.07969 506.68477 800.48555 507.59375 801.39453 z M 518.97852 801.8125 C 523.2939 801.77319 530.72152 803.85077 545.30664 808.38477 L 561.69336 813.47852 L 565.78125 830.18945 C 569.95389 847.26165 569.69693 848.65104 561.85547 851.40234 C 560.74157 851.7933 560.58126 853.33076 561.50195 854.82031 C 562.6004 856.59767 564.04808 856.80476 565.71289 855.42969 C 567.10788 854.2772 572.17975 852.63404 576.98633 851.77344 C 581.7929 850.91284 587.44597 848.70764 589.54883 846.87109 C 596.26388 841.00674 593.70558 846.73729 580.81055 866.44727 C 573.90115 877.00817 567.75543 885.55457 567.1543 885.44141 C 566.55347 885.32802 557.21509 881.42598 546.40039 876.76953 C 535.58565 872.11308 516.90511 865.18791 504.88867 861.37891 C 492.87231 857.56975 482.18139 853.69375 481.12891 852.76758 C 480.07642 851.84171 486.08116 841.91906 494.47266 830.71484 C 502.86419 819.51062 511.05088 808.19392 512.66406 805.56836 C 514.15074 803.14867 515.62207 801.84145 518.97852 801.8125 z M 568.97656 818.14844 C 569.81566 818.08078 571.43491 818.35819 573.13672 818.89844 C 575.8522 819.76025 578.21528 823.92207 580.04688 831.06836 C 581.57739 837.0402 582.79717 842.68146 582.75586 843.60938 C 582.71655 844.53729 581.20685 845.60674 579.40625 845.98242 C 577.08093 846.46805 574.93228 842.66871 571.98633 832.87305 C 569.70504 825.28719 568.1029 818.74632 568.42578 818.33594 C 568.50666 818.23351 568.6968 818.17111 568.97656 818.14844 z M 586.14453 824.93164 C 587.68835 824.97095 590.3853 825.97625 594.53711 827.71094 C 602.41349 831.00189 604.02554 834.02668 599.41992 836.87305 C 593.85396 840.31306 588.60986 839.0861 586.63086 833.88086 C 584.19922 827.48511 583.57162 824.8672 586.14453 824.93164 z M 623.55273 827.27148 L 623.55273 827.27344 C 623.70429 827.27446 623.86267 827.28579 624.02734 827.30469 C 624.46687 827.35836 624.94746 827.47565 625.45312 827.66992 C 627.47574 828.44609 650.58094 834.61181 676.79688 841.37305 C 703.01277 848.13409 724.46094 854.4894 724.46094 855.49219 C 724.46094 858.53936 725.85641 858.83275 669.83984 843.91016 C 619.34985 830.45984 621.77539 831.23766 621.77539 828.53125 C 621.77539 827.71155 622.49046 827.26366 623.55273 827.27148 z M 476.05078 859.32227 C 479.17346 859.40995 485.78011 860.84171 493.43555 863.17969 C 514.42326 869.58852 560.74934 887.46087 563.77148 890.31445 C 567.28021 893.62747 560.12832 892.2138 550.76953 887.74609 C 544.01397 884.52114 493.96794 867.68853 475.80273 862.53125 C 474.22191 862.08292 473.49547 860.80735 474.18164 859.69727 C 474.35814 859.41116 475.00986 859.29316 476.05078 859.32227 z M 666.73047 868.44922 C 660.05329 868.46434 653.51571 869.79377 648.11133 872.55078 C 619.94916 886.91801 619.11513 925.93391 646.60938 942.69922 L 646.60938 942.70312 C 655.59516 948.17872 674.43072 948.18314 686.48242 942.71484 C 711.20877 931.48628 716.77532 896.80506 696.75781 878.70312 C 689.3855 872.03619 677.85914 868.42693 666.73047 868.45312 L 666.73047 868.44922 z M 666.86719 873.0957 C 670.74343 873.24915 670.69246 875.67124 667.57812 881.49023 C 664.94886 886.4032 664.62685 886.4205 654.62891 882.06641 C 646.0504 878.33038 647.77637 876.259 661.64648 873.66016 C 663.84179 873.24909 665.57512 873.04457 666.86719 873.0957 z M 678.66406 874.99609 C 679.6769 875.05921 680.87788 875.6265 682.4668 876.63477 C 684.48839 877.91765 683.70556 879.11323 679.63281 880.96875 C 672.04363 884.42664 671.49213 884.24416 674.21094 879.16406 C 675.80647 876.1827 676.97601 874.89038 678.66406 874.99609 z M 691.12109 881.54883 L 695.82812 886.56445 C 701.90356 893.03145 705.15268 904.54506 703.45703 913.58398 C 701.61255 923.41559 699.50894 923.93302 696.39453 915.32031 C 694.94096 911.30071 689.38614 903.9842 684.04688 899.0625 L 674.33789 890.11328 L 682.72656 885.83008 L 691.12109 881.54883 z M 645.00586 884.56641 C 645.85894 884.5853 646.7693 884.7101 647.75391 884.94141 C 656.94598 887.10039 657.12214 888.75585 648.98633 896.42969 C 644.75163 900.42416 639.5006 907.17611 637.31641 911.43359 C 633.41321 919.04174 633.32419 919.08221 631.99414 913.7832 C 630.35235 907.2419 634.06696 892.58717 638.68555 887.39062 C 640.42972 885.42829 642.44663 884.51198 645.00586 884.56641 z M 661.83984 892.85352 C 662.19285 892.83462 662.484 892.92563 662.70117 893.14258 C 663.27834 893.71979 661.95813 898.89006 659.76562 904.63086 C 657.5732 910.37155 655.7483 920.75112 655.70703 927.69922 C 655.66281 935.68487 654.7228 940.33247 653.14258 940.33398 C 650.48304 940.33697 637.06836 928.60591 637.06836 926.27734 C 637.06836 918.80907 656.54284 893.16703 661.83984 892.85352 z M 670.9707 896.64258 C 676.54808 896.64258 686.77912 907.55011 691.50977 918.54688 L 696.27539 929.63281 L 691.25391 933.74219 C 688.49103 936.00344 682.10658 938.90543 677.06836 940.18945 C 661.38684 944.18585 661.10156 944.00019 661.10156 929.80273 C 661.10156 915.29415 666.65267 896.64258 670.9707 896.64258 z "
     transform="scale(0.26458333)"
     id="path7401" />
</svg>
