<?xml version="1.0" encoding="UTF-8" standalone="no"?>
<svg
   xmlns:dc="http://purl.org/dc/elements/1.1/"
   xmlns:cc="http://creativecommons.org/ns#"
   xmlns:rdf="http://www.w3.org/1999/02/22-rdf-syntax-ns#"
   xmlns:svg="http://www.w3.org/2000/svg"
   xmlns="http://www.w3.org/2000/svg"
   xmlns:sodipodi="http://sodipodi.sourceforge.net/DTD/sodipodi-0.dtd"
   xmlns:inkscape="http://www.inkscape.org/namespaces/inkscape"
   width="210mm"
   height="297mm"
   viewBox="0 0 595.27559 841.88976"
   version="1.1"
   id="svg266"
   sodipodi:docname="abstract_mandala.svg"
   inkscape:version="0.92.4 (5da689c313, 2019-01-14)"
   inkscape:export-filename="D:\repo\acb-website\src\images\abstract_mandala.png"
   inkscape:export-xdpi="96"
   inkscape:export-ydpi="96">
  <title
     id="title1210">Abstract Mandala</title>
  <metadata
     id="metadata272">
    <rdf:RDF>
      <cc:Work
         rdf:about="">
        <dc:format>image/svg+xml</dc:format>
        <dc:type
           rdf:resource="http://purl.org/dc/dcmitype/StillImage" />
        <dc:title>Abstract Mandala</dc:title>
        <dc:creator>
          <cc:Agent>
            <dc:title>Dora Alis</dc:title>
          </cc:Agent>
        </dc:creator>
        <dc:date>2020-05-17</dc:date>
        <dc:source>http://www.supercoloring.com/coloring-pages/simple-abstract-mandala-1</dc:source>
        <dc:subject>
          <rdf:Bag>
            <rdf:li>acb</rdf:li>
            <rdf:li>mandala</rdf:li>
          </rdf:Bag>
        </dc:subject>
        <cc:license
           rdf:resource="http://creativecommons.org/licenses/by-sa/4.0/" />
      </cc:Work>
      <cc:License
         rdf:about="http://creativecommons.org/licenses/by-sa/4.0/">
        <cc:permits
           rdf:resource="http://creativecommons.org/ns#Reproduction" />
        <cc:permits
           rdf:resource="http://creativecommons.org/ns#Distribution" />
        <cc:requires
           rdf:resource="http://creativecommons.org/ns#Notice" />
        <cc:requires
           rdf:resource="http://creativecommons.org/ns#Attribution" />
        <cc:permits
           rdf:resource="http://creativecommons.org/ns#DerivativeWorks" />
        <cc:requires
           rdf:resource="http://creativecommons.org/ns#ShareAlike" />
      </cc:License>
    </rdf:RDF>
  </metadata>
  <defs
     id="defs270" />
  <sodipodi:namedview
     pagecolor="#ffffff"
     bordercolor="#666666"
     borderopacity="1"
     objecttolerance="10"
     gridtolerance="10"
     guidetolerance="10"
     inkscape:pageopacity="0"
     inkscape:pageshadow="2"
     inkscape:window-width="3840"
     inkscape:window-height="2004"
     id="namedview268"
     showgrid="false"
     units="mm"
     inkscape:zoom="1.3828125"
     inkscape:cx="585.80381"
     inkscape:cy="587.12579"
     inkscape:window-x="-16"
     inkscape:window-y="-16"
     inkscape:window-maximized="1"
     inkscape:current-layer="svg266" />
  <path
     style="opacity:1;fill:#000000;stroke-width:0.58783877"
     inkscape:connector-curvature="0"
     id="path209"
     d="m 268.89736,125.66405 c 10.04616,-1.0875 20.15111,-1.27561 30.2443,-1.17567 11.97428,-0.17048 23.93679,0.66426 35.81702,2.14561 10.2519,1.61656 20.56847,2.99798 30.62052,5.63737 7.17163,1.82818 14.44907,3.32129 21.39145,5.94305 4.92021,1.44609 9.78751,3.06852 14.53725,5.01427 4.43231,1.49311 8.8117,3.13906 13.01475,5.20237 4.95548,1.83406 9.58177,4.38528 14.39029,6.5544 26.97592,13.34394 51.93556,30.77336 73.67971,51.59461 1.72825,2.19264 4.19129,3.63872 5.96069,5.80197 1.68122,2.22791 3.93852,3.915 5.72555,6.06062 20.92118,22.26733 38.27418,47.87358 51.34771,75.49025 2.89217,5.44926 4.89082,11.31002 7.49495,16.89448 2.0927,6.48387 5.12595,12.64442 6.69548,19.30463 3.82683,10.02265 5.79609,20.60375 8.40022,30.9791 3.41534,18.07017 5.96656,36.38134 5.87251,54.80421 -0.0705,8.22974 0.25865,16.47712 -0.49379,24.68923 -0.56432,12.92657 -2.75696,25.70619 -5.00251,38.42702 -2.69818,13.69664 -6.61318,27.10524 -11.08076,40.31986 -3.69162,10.01677 -7.47731,20.03354 -12.36812,29.53889 -1.38143,3.1567 -2.73345,6.34278 -4.56751,9.28198 -2.62764,5.04365 -5.29643,10.06968 -8.23562,14.94286 -1.35203,2.02804 -2.64528,4.09136 -3.8092,6.23109 -8.73528,13.37921 -18.04665,26.48801 -28.89815,38.23891 -1.25798,1.84582 -2.90392,3.3448 -4.47345,4.90845 -3.66812,4.36177 -7.76535,8.32968 -11.86847,12.2682 -4.35588,3.90913 -8.36494,8.19447 -13.02063,11.76265 -20.70368,17.94672 -44.18196,32.51924 -68.91233,44.22899 -3.20373,1.23446 -6.34866,2.61001 -9.45833,4.07372 -3.5623,1.69886 -7.41265,2.66291 -11.02198,4.25596 -4.65568,2.175 -9.71697,3.22723 -14.51961,5.0025 -3.56818,1.24034 -7.18927,2.32785 -10.87502,3.16258 -4.06784,0.90527 -7.98873,2.38662 -12.08009,3.19784 -14.27272,2.72757 -28.57484,5.70204 -43.12973,6.284 -12.69144,1.01108 -25.44754,0.64662 -38.16837,0.55844 -6.47798,-0.4879 -12.96184,-0.88763 -19.42807,-1.53426 -9.19967,-1.15216 -18.32293,-2.80987 -27.4168,-4.5969 -6.21933,-1.1404 -12.22117,-3.16257 -18.3582,-4.60865 -5.30819,-1.18156 -10.30482,-3.35068 -15.4778,-4.9496 -5.50805,-1.42257 -10.60461,-4.00906 -15.98333,-5.79609 -9.36427,-4.18542 -18.8755,-8.09454 -27.78714,-13.19698 -4.14426,-1.92224 -7.87116,-4.59102 -11.91549,-6.69549 -1.96926,-1.01108 -3.71514,-2.37487 -5.62562,-3.46825 -3.35068,-1.74588 -6.21933,-4.24419 -9.45245,-6.17818 -13.43799,-9.0586 -26.0295,-19.35753 -37.809787,-30.49708 -7.600755,-7.51258 -15.301443,-15.0134 -21.896993,-23.44888 -5.76082,-6.44272 -10.945558,-13.40273 -15.883404,-20.48618 -2.633517,-2.97447 -4.267709,-6.66022 -6.760145,-9.74049 -4.696832,-7.65954 -9.393664,-15.34847 -13.573197,-23.31957 -4.732102,-8.88812 -8.729406,-18.15246 -12.626777,-27.43443 -1.534259,-4.62629 -3.815073,-8.98218 -4.996629,-13.72604 -0.746555,-2.38662 -1.610678,-4.7321 -2.357233,-7.11284 C 12.681954,505.54309 11.847223,500.2114 10.318842,495.08544 9.5487729,491.46436 8.4024879,487.9432 7.6324189,484.32799 6.8682279,479.31373 5.5749829,474.3994 4.9401172,469.3675 1.3543008,450.99166 0.96044878,432.20433 1.2484898,413.54633 c -0.1293245,-4.55575 0.1293245,-9.10562 0.5408117,-13.63786 0.3762168,-11.86259 2.2514224,-23.61348 4.5851424,-35.22918 1.187434,-7.47731 3.144937,-14.7959 5.1377111,-22.09098 0.881758,-5.16122 3.09791,-9.92272 4.52048,-14.9311 1.111015,-3.02149 1.67534,-6.23109 3.092031,-9.13502 1.916355,-4.09135 2.956829,-8.52366 4.902576,-12.60326 2.533585,-4.79088 4.061966,-10.03441 6.813051,-14.71948 3.82683,-8.17684 8.388459,-15.9657 12.844277,-23.81335 1.034596,-1.66358 2.321963,-3.16845 3.221356,-4.91433 1.892841,-3.69751 4.696832,-6.81893 6.701362,-10.4459 4.984873,-6.89535 9.946232,-13.8436 15.501308,-20.30983 2.445409,-2.48068 4.291223,-5.47865 6.848321,-7.85352 1.581287,-2.1221 3.4271,-4.00318 5.349333,-5.81961 4.796764,-5.37284 9.928597,-10.44001 15.354348,-15.17799 1.9046,-2.46892 4.696832,-3.9444 6.813052,-6.18994 10.72218,-9.67583 22.63767,-17.92909 34.66485,-25.8943 3.65636,-1.99865 7.00116,-4.5146 10.65752,-6.53089 7.52434,-4.0796 14.97813,-8.32967 22.8199,-11.78029 5.31994,-2.80987 11.02198,-4.75561 16.47124,-7.28332 6.27224,-2.06331 12.25056,-5.02014 18.73442,-6.44271 5.35521,-1.89284 10.72806,-3.8092 16.31841,-4.88494 10.80447,-3.02149 21.8676,-4.90846 32.94248,-6.58968 4.23244,-0.81709 8.53542,-1.12277 12.81489,-1.6048 m 9.57001,2.70994 c 0.61135,1.69298 1.56365,3.22724 2.44541,4.79089 2.31608,3.79744 4.36764,7.75359 6.71312,11.53339 1.17568,1.96339 2.46892,3.86798 3.36831,5.9842 -1.96925,1.15217 -4.05608,2.08095 -6.1723,2.92744 -7.78887,3.43886 -15.67178,6.68373 -23.32544,10.39887 2.30432,2.88041 4.97899,5.42575 7.67717,7.92994 9.72873,9.88745 19.59854,19.62794 29.38018,29.4566 10.37536,-10.41062 20.78598,-20.7801 31.17897,-31.17309 2.11622,-1.91635 4.01494,-4.06196 5.87251,-6.23109 -9.66995,-4.72034 -19.78665,-8.51778 -29.43309,-13.26752 1.11102,-2.4748 2.56298,-4.77325 3.97967,-7.08346 2.32196,-4.15014 4.69683,-8.27089 7.14224,-12.35049 0.60547,-0.88176 0.79358,-1.94574 1.0346,-2.97446 -3.8621,0.006 -7.71833,-0.18811 -11.55103,-0.57608 -5.86076,-0.0235 -11.72739,-0.0529 -17.58814,0.0117 -3.5623,0.39973 -7.14812,0.34683 -10.72218,0.62311 m -16.34192,1.54602 c -10.34596,0.7877 -20.38624,3.53291 -30.57937,5.28467 -6.12528,1.31088 -12.03894,3.40946 -18.13482,4.83203 -1.81643,0.57021 -3.76217,0.91703 -5.41988,1.88109 -1.49311,1.64007 -2.11034,3.82095 -2.88629,5.84899 -3.55054,9.3584 -7.23041,18.658 -10.83974,27.99288 -1.0875,1.82818 1.06399,4.17954 2.95683,3.76217 3.00973,-2.70994 5.80784,-5.64913 8.60596,-8.58244 3.78568,-3.26251 6.84832,-7.25981 10.64576,-10.52232 5.33757,-5.43751 10.72217,-10.82799 16.14793,-16.18908 1.42257,-1.48723 2.81574,-3.05088 4.63217,-4.08548 7.33622,7.22454 14.49022,14.64895 21.96165,21.7324 8.42961,-3.70926 16.87685,-7.38325 25.3241,-11.05137 0.98756,-0.38797 1.82817,-1.04047 2.65115,-1.70473 -3.63285,-6.00183 -7.10109,-12.09772 -10.62225,-18.16422 -0.44088,-0.72892 -0.87,-1.51074 -1.6048,-1.98101 -4.31473,-0.5173 -8.54717,0.76419 -12.8384,0.94642 m 58.21368,1.42845 c -3.48589,5.90778 -6.78366,11.92724 -10.39887,17.7586 0.58196,0.47615 1.12865,1.02872 1.81642,1.36379 7.27157,3.04501 14.47259,6.27224 21.68537,9.45833 1.45196,0.60547 2.83338,1.52838 4.44994,1.66946 1.09338,-0.48203 1.84581,-1.47548 2.73345,-2.25142 6.43684,-6.37218 12.73847,-12.87367 19.26348,-19.15767 1.71061,0.90527 3.05088,2.30433 4.32649,3.73278 8.44724,8.41197 16.7828,16.90036 25.27119,25.27706 2.67466,2.22791 4.65568,5.13771 7.31859,7.37738 1.29912,0.99345 2.18676,2.95683 3.96791,3.02149 1.32852,-0.51142 3.02737,-1.70473 2.26906,-3.35656 -4.03845,-10.3342 -8.05927,-20.67429 -11.98603,-31.04964 -0.53494,-1.56365 -1.74,-2.95095 -3.39771,-3.31541 -7.77711,-2.52183 -15.73057,-4.4617 -23.63112,-6.56028 -5.57271,-1.07575 -11.10427,-2.32197 -16.67111,-3.39771 -8.05926,-1.1698 -16.12441,-2.59237 -24.28361,-2.78636 -1.38143,-0.17047 -2.07508,1.26386 -2.73345,2.21616 m -124.59243,14.6313 c -12.30346,4.62041 -24.3424,9.94623 -35.9581,16.10678 -3.8621,2.38663 -8.18271,4.05021 -11.75089,6.89535 -1.99865,2.54534 -2.43953,5.9019 -3.76217,8.79995 0.76419,0.6525 1.54014,1.28737 2.31608,1.92811 -1.31088,7.58312 -2.32196,15.21327 -3.85622,22.74936 2.58061,1.54602 5.50217,2.34548 8.27677,3.44473 8.27089,3.239 16.55942,6.4486 24.87734,9.57002 1.81642,-3.77393 3.20372,-7.74184 4.5969,-11.69211 2.75108,-6.52501 4.9496,-13.26165 7.78886,-19.75139 3.30365,-9.11737 7.03643,-18.07016 10.4165,-27.16402 1.58717,-4.39704 3.56231,-8.65299 4.86731,-13.14996 -2.73345,0.22926 -5.29643,1.24622 -7.81238,2.26318 m 198.04288,-1.92811 c 0.68777,3.42122 2.27493,6.56616 3.49176,9.81691 7.49494,19.69847 15.30144,39.27351 22.74936,58.9955 0.32919,0.89939 0.84061,1.72236 1.31676,2.55709 6.41332,-2.36311 12.83252,-4.72622 19.13415,-7.38325 4.57339,-1.74 9.20556,-3.33892 13.69077,-5.29643 -0.94643,-7.7242 -2.52183,-15.34259 -3.5917,-23.04916 0.74656,-0.64074 1.51662,-1.25797 2.26906,-1.90459 -1.26973,-2.82751 -1.71061,-6.30751 -4.3794,-8.24738 -3.85622,-2.28081 -7.67717,-4.62629 -11.71563,-6.57792 -5.02014,-3.02149 -10.39886,-5.34933 -15.64239,-7.92406 -4.0796,-1.34615 -7.65366,-3.83271 -11.73326,-5.16123 -5.22001,-1.88696 -10.25191,-4.28534 -15.58948,-5.82548 m -167.77506,10.6223 c -4.0796,3.55642 -7.44792,7.84177 -11.54515,11.38056 -4.19129,4.82027 -9.11151,8.93514 -13.34982,13.7084 -4.09136,3.54466 -7.48319,7.80649 -11.52752,11.39819 -1.35791,1.21682 -2.44541,2.73933 -3.02149,4.47933 -1.45196,4.33825 -3.38007,8.50015 -4.8967,12.81488 1.39318,2.52771 3.8092,4.33238 5.77846,6.40745 2.85689,2.42777 5.14946,5.43163 7.9946,7.87704 3.19197,2.93919 5.89015,6.38393 9.29373,9.09386 3.38596,-1.64007 6.19582,-4.19129 9.29961,-6.27812 3.76805,-2.42189 7.22454,-5.29054 11.06313,-7.60663 2.96858,3.13906 5.14947,6.92474 7.68893,10.41063 4.5146,6.27811 8.83522,12.70907 13.37333,18.96955 1.08162,1.53426 1.89284,3.32717 3.49764,4.40879 1.79879,-1.70473 3.56818,-3.44473 5.21413,-5.29642 2.76284,-3.11555 6.10765,-5.65501 8.76468,-8.87049 11.08664,-11.16894 22.27909,-22.22618 33.30694,-33.45391 -1.81642,-3.13905 -4.8144,-5.37872 -7.31859,-7.95345 -2.80987,-2.67467 -5.37873,-5.59623 -8.30616,-8.15333 -9.51711,-9.87569 -19.49274,-19.28699 -29.09802,-29.08038 -5.25528,-4.8967 -10.02265,-10.29306 -15.3955,-15.06043 -3.7798,3.41534 -7.30683,7.11285 -10.81623,10.80448 m 94.08947,28.84524 c -3.36832,3.87974 -7.3715,7.11285 -10.83975,10.88678 -2.97446,3.28014 -6.84244,5.82548 -9.09974,9.70522 12.57975,12.79137 25.42403,25.35936 37.89209,38.2683 3.36831,2.89217 6.1194,6.38393 9.39366,9.37015 0.77007,-0.71129 1.53426,-1.44608 2.10446,-2.3396 5.60798,-8.09454 11.32178,-16.10678 16.95915,-24.17781 1.84581,-2.41014 3.28014,-5.13771 5.4669,-7.27156 6.86008,4.4323 13.33806,9.42893 20.13936,13.94941 3.82683,-2.76872 6.58379,-6.67785 10.16961,-9.72285 4.2971,-4.56163 9.09386,-8.62947 13.16171,-13.4086 -1.32264,-4.64393 -3.55643,-8.95279 -5.0613,-13.53205 -1.16979,-3.0744 -4.02669,-4.92021 -6.17818,-7.2363 -2.89805,-3.37419 -6.30163,-6.2546 -9.35252,-9.48184 -3.47412,-3.96791 -7.5596,-7.33622 -11.11603,-11.22772 -2.02216,-2.48068 -4.72622,-4.29122 -6.69548,-6.83068 -5.59035,-5.53744 -11.00434,-11.26887 -16.7828,-16.60645 -13.5438,13.05002 -26.64085,26.57619 -40.16114,39.6556 M 129.5443,180.63873 c -6.95413,4.92609 -13.80245,9.99914 -20.23341,15.59537 3.88561,0.62898 7.80062,-0.17635 11.70975,-0.0411 3.52703,-0.20575 7.05406,-0.29392 10.59285,-0.32331 1.28149,-0.0529 2.96859,0 3.5917,-1.39318 0.77007,-1.66946 1.305,-3.43886 1.96338,-5.15535 1.91635,-5.83724 4.53811,-11.43934 6.15467,-17.36475 -5.02602,2.16324 -9.13501,5.87838 -13.77894,8.68237 m 325.08659,-6.83656 c 1.37554,6.11352 4.23244,11.76853 6.15467,17.71158 0.52906,1.45196 0.80534,3.16257 2.11622,4.15014 1.22271,0.28217 2.49244,0.19987 3.74453,0.24102 6.06062,-0.0294 12.10948,0.54081 18.1701,0.44675 -0.61723,-1.82817 -2.32784,-2.88041 -3.69163,-4.09723 -7.6419,-6.01359 -15.50718,-11.73326 -23.63112,-17.0826 -0.89351,-0.58196 -1.88696,-0.97581 -2.86277,-1.36966 m -262.18196,6.93062 c -0.77595,1.66946 -1.44021,3.38007 -1.94575,5.14947 1.77527,-0.98757 3.39183,-2.35136 4.05021,-4.34413 -0.69365,-0.30568 -1.39318,-0.58196 -2.10446,-0.80534 m 210.91066,0.19986 c -0.22338,0.49967 -0.435,0.99345 -0.64662,1.49311 1.05223,1.24622 2.15737,2.49832 3.7798,2.98623 -0.48202,-1.5519 -1.12277,-3.04501 -1.75763,-4.53812 -0.34095,0.0118 -1.0346,0.047 -1.37555,0.0588 m -266.86704,17.10023 c -5.7373,0.84061 -11.5863,0.83473 -17.37651,0.58784 0.1352,0.25865 0.41149,0.76419 0.54669,1.02284 4.27947,0.64075 8.51778,1.51075 12.81489,2.00453 2.53358,0.24102 5.02602,1.35791 7.58899,0.77007 1.04048,-7.06582 2.46893,-14.05522 3.55055,-21.10929 -3.46825,5.06129 -4.06197,11.49813 -7.12461,16.72401 m 317.55638,-16.7534 c -0.0764,0.91115 -0.24689,1.83406 -0.10581,2.75108 1.12865,6.11353 2.10446,12.25056 3.09203,18.3876 2.56886,0.44088 5.07305,-0.47615 7.61251,-0.76419 4.22068,-0.52318 8.41785,-1.24622 12.61502,-1.99865 0.54081,-0.0999 0.96406,-0.39385 1.25798,-0.88764 -3.05089,-0.3527 -6.10765,0.32331 -9.15853,-0.0353 -2.9098,-0.28216 -5.89602,-0.0764 -8.74116,-0.74068 -2.7746,-5.30818 -4.14427,-11.23947 -6.57204,-16.71225 m -349.47014,18.97543 c -15.483676,13.2205 -29.186198,28.46904 -41.548447,44.6346 4.967238,0.19987 9.95211,-0.10581 14.919348,-0.31155 6.601429,-0.91703 13.267521,-0.85237 19.904217,-1.1698 4.984882,-0.59372 10.010902,-0.64075 15.019282,-0.93467 9.34664,-0.37033 18.66976,-1.06986 28.0164,-1.45196 0.16459,-3.03325 -0.18811,-6.04886 -0.47027,-9.06447 -0.37622,-8.86461 -0.49967,-17.77625 -1.46372,-26.59971 -5.10832,-0.61723 -10.17549,-1.53425 -15.2603,-2.29844 -2.58061,-0.29392 -5.13771,-0.7348 -7.65366,-1.36379 -0.23513,-0.84649 -0.45263,-1.69885 -0.65838,-2.55122 -3.6152,0.0588 -7.36561,-0.18223 -10.80447,1.11101 m 377.41599,-1.19919 c -0.37033,0.87 -0.69365,1.75176 -1.02284,2.63352 -7.54785,1.77527 -15.33671,2.31609 -22.93746,3.8092 -0.34095,3.10966 -0.41737,6.24872 -0.58784,9.37602 -0.2469,8.65887 -0.98169,17.3001 -1.29325,25.95896 14.16692,1.21683 28.43376,1.3873 42.61831,2.51007 3.40947,0.35859 6.84244,0.23514 10.26367,0.34095 7.58899,0.39385 15.17211,1.7694 22.78463,0.92879 -4.72623,-6.44272 -9.98151,-12.46218 -15.14273,-18.55219 -2.49244,-2.44541 -4.44994,-5.37873 -7.16575,-7.60076 -5.74907,-6.37217 -12.09185,-12.14475 -18.48753,-17.84091 -2.66879,-1.76939 -5.99008,-1.44608 -9.02921,-1.56365 m -340.26458,6.88947 c 0.15871,5.96657 1.31088,11.87435 1.15216,17.86442 2.73345,-0.77594 5.35521,-1.8752 7.98285,-2.93919 -0.44676,-1.5225 -1.89284,-3.26251 -0.5173,-4.71447 1.14629,0.88176 2.32197,1.72825 3.49177,2.58649 1.74,-2.12209 3.53291,-4.19717 5.18473,-6.3898 -3.045,-1.95163 -6.56028,-2.93332 -9.88744,-4.26771 -2.41602,-0.85825 -4.76738,-2.21028 -7.40677,-2.13974 m 307.53372,1.6048 c -3.62696,1.56953 -7.45967,2.64528 -10.96907,4.48521 0.85237,2.56298 3.23899,4.17954 4.57339,6.48386 1.66946,-0.55844 2.93919,-1.93399 4.70271,-2.26317 -0.006,1.52838 -0.65251,2.90392 -1.44021,4.17953 2.35136,1.79879 5.31994,2.45716 8.1063,3.28014 0.3527,-2.39838 0.17047,-4.83204 0.40561,-7.2363 0.18223,-3.51527 0.75243,-7.00116 0.7054,-10.52231 -2.16324,-0.17635 -4.10899,0.90527 -6.08413,1.59304 m -180.83096,29.17444 c 3.78568,3.89737 8.39434,6.90123 12.52097,10.43414 5.88426,4.69095 11.73326,9.42305 17.68807,14.02583 9.71697,-7.8594 19.50449,-15.65414 29.30376,-23.40186 0.33507,-0.49378 0.69365,-1.29324 0.0705,-1.73412 -9.74049,-9.89921 -19.66909,-19.60443 -29.40369,-29.50363 -10.12847,9.99914 -20.13348,20.10996 -30.17965,30.17964 M 177.2944,218.98938 c -5.1671,-1.83994 -10.18136,-4.07961 -15.39549,-5.80197 -2.31021,2.69818 -4.37352,5.6021 -6.719,8.27677 -1.04635,1.26973 -2.68055,1.78115 -4.15602,2.36899 -2.73345,0.89351 -5.43163,1.90459 -8.03576,3.13318 -0.0176,5.51392 1.13453,10.99846 0.77007,16.53002 -2.51007,0.35271 -5.05541,0.30568 -7.5596,0.68777 2.7452,6.39569 6.14879,12.4857 9.23494,18.72267 1.67534,2.78048 2.65115,5.92541 4.54987,8.58244 2.58062,-1.21682 4.60278,-3.26838 6.94238,-4.84967 2.98622,-2.08682 5.74318,-4.47933 8.72941,-6.57203 11.89197,-9.1115 24.30125,-17.52348 36.59296,-26.08829 -0.47027,-1.97513 -2.49244,-2.87453 -3.72102,-4.32061 -5.84312,-6.01947 -11.8038,-11.89786 -17.79388,-17.77625 -1.44021,2.22204 -2.21027,4.77326 -3.43886,7.10698 m 229.50989,2.43953 c -4.00318,4.08548 -8.35319,7.84764 -12.01543,12.26231 2.29845,1.89872 4.86731,3.43886 7.20691,5.29055 15.38374,10.25779 30.12086,21.46787 44.79331,32.71911 0.81122,-1.05811 1.58717,-2.15737 2.14561,-3.3742 3.97967,-8.05927 8.25914,-15.97158 12.06833,-24.10727 -2.42189,-0.42324 -4.88494,-0.39973 -7.31859,-0.59959 -0.18223,-0.87 -0.37622,-1.75176 -0.29392,-2.64528 0.22338,-3.53878 0.15284,-7.10109 0.61723,-10.62224 0.0647,-1.28737 0.5702,-2.9392 -0.69953,-3.81507 -3.45061,-1.54602 -7.17163,-2.46305 -10.55758,-4.1619 -2.79811,-2.81575 -4.86731,-6.24873 -7.53609,-9.17617 -3.86211,1.19919 -7.55961,2.87454 -11.36881,4.22069 -1.33439,0.41736 -2.66291,1.37554 -4.09135,1.12865 -1.64007,-1.93399 -1.67534,-4.72623 -3.38008,-6.66022 -3.13906,3.23312 -6.57203,6.17231 -9.57001,9.54063 m -184.29921,1.45196 c -13.86711,9.88745 -27.88707,19.55739 -41.76594,29.43308 -2.66291,1.79879 -5.35521,3.56819 -7.81826,5.63738 -13.0265,9.6817 -25.8649,19.6103 -38.92668,29.24498 -0.84649,0.64074 -1.5225,1.46372 -2.21615,2.2573 18.55807,24.70686 37.16904,49.3667 55.81529,74.00302 1.14628,1.59304 2.15737,3.37419 3.84446,4.47933 14.81354,-11.18069 29.59181,-22.41429 44.47001,-33.51857 15.11333,-10.6869 30.38538,-21.14456 45.4223,-31.93728 -12.7032,-18.72854 -25.92369,-37.10438 -38.79148,-55.72123 -6.01947,-8.22974 -11.58631,-16.77692 -17.68219,-24.94788 -0.8171,0.28216 -1.65183,0.55257 -2.35136,1.06987 m 149.72841,-1.07575 c -14.33739,20.09233 -28.31031,40.44331 -42.5948,60.57091 -4.43818,6.81305 -9.48771,13.20874 -13.82596,20.08057 14.73124,10.72218 29.84457,20.93294 44.7404,31.43174 14.77239,11.08664 29.49775,22.2497 44.25251,33.35985 0.68189,0.55845 1.77527,0.47615 2.18676,-0.36446 19.41631,-25.83551 38.95607,-51.58285 58.33124,-77.44776 -0.77595,-0.89939 -1.56365,-1.79878 -2.54535,-2.46892 -15.04867,-11.18657 -29.8916,-22.66706 -44.9873,-33.78897 -14.59603,-10.05792 -29.01572,-20.36862 -43.55885,-30.50883 -0.62311,-0.38798 -1.32851,-0.60548 -1.99865,-0.86413 m -121.19468,32.3017 c 2.63352,4.3794 5.89015,8.32968 8.6765,12.60914 6.51326,9.42894 13.29692,18.66976 19.63382,28.22214 2.07507,-0.39973 2.76872,-2.6923 4.05021,-4.11487 5.19061,-6.18994 9.96387,-12.72083 15.31908,-18.77557 6.06061,7.81238 12.30934,15.48955 18.50516,23.202 3.47413,-4.40879 6.51325,-9.14089 9.82279,-13.67313 6.29575,-9.12914 12.73258,-18.16422 19.04009,-27.28748 -3.7798,-4.22656 -7.98285,-8.04751 -11.97427,-12.06833 -1.06987,-1.05223 -1.89284,-2.52183 -3.30366,-3.1273 -0.98757,0.45264 -1.81054,1.1698 -2.65115,1.83994 -9.86393,7.87116 -19.72787,15.7482 -29.55653,23.66051 -5.74319,-4.55575 -11.57455,-9.02333 -17.14726,-13.78482 -5.20825,-3.77981 -9.93447,-8.1886 -15.19563,-11.89786 -5.09068,5.04366 -10.16373,10.11083 -15.21915,15.19563 m -133.01027,-9.12325 c -2.79223,-0.006 -4.99075,1.91635 -7.44204,2.96858 -18.481652,9.39366 -37.051478,18.61685 -55.486102,28.11045 -1.986895,0.86412 0.02939,2.94507 0.558447,4.17366 4.649805,8.9469 9.15265,17.98198 13.690765,26.99943 7.389133,14.8782 15.095699,29.5918 22.478954,44.47 0.72892,1.22271 2.086827,0.0999 2.997978,-0.2704 9.311368,-4.82028 18.793208,-9.29961 28.051668,-14.2257 9.35839,-4.4617 18.43462,-9.4936 27.78714,-13.97293 0.71716,-0.47027 2.02216,-0.77007 1.86932,-1.85757 -7.73008,-10.44589 -15.70117,-20.72719 -23.42537,-31.18485 -0.3821,-0.60547 -0.74656,-1.21094 -1.09926,-1.82817 6.32515,-4.69684 12.57387,-9.49948 18.95192,-14.11989 1.09926,-0.89352 0.0705,-2.32196 -0.37621,-3.2919 -4.30886,-8.27677 -8.4884,-16.62408 -12.65029,-24.97727 -0.35859,-0.64074 -0.67014,-1.33439 -1.22271,-1.82818 -4.90845,-0.20574 -9.77576,0.82298 -14.68421,0.83474 m 332.30525,26.40571 c -0.44088,0.81122 -1.0875,2.13974 -0.19399,2.85102 6.29575,4.63217 12.5386,9.329 18.80496,14.00232 -1.42845,3.55642 -4.41467,6.21933 -6.47798,9.4113 -6.04298,8.07102 -12.17414,16.07739 -18.14658,24.2072 2.9627,2.06919 6.38393,3.33892 9.53474,5.0848 14.70185,7.42441 29.34491,14.95462 44.09379,22.28497 2.31608,1.11102 4.52048,2.59825 7.08345,3.09203 10.14022,-20.47442 20.70956,-40.73722 30.82627,-61.22928 2.40426,-4.86731 5.36697,-9.52299 7.13048,-14.66658 -3.67399,-1.92811 -7.53609,-3.48588 -11.10427,-5.59622 -16.71814,-8.34732 -33.35397,-16.85922 -50.04859,-25.2418 -2.17501,-0.99345 -4.63217,-0.5173 -6.9365,-0.76419 -3.51528,-0.41737 -7.04819,-0.72892 -10.59285,-0.74656 -4.92609,8.96454 -9.15265,18.29355 -13.97293,27.31099 m 38.43877,-25.80024 c 1.6048,1.14628 3.24487,2.41014 5.25528,2.68642 0.18223,-0.77007 0.37034,-1.53426 0.55845,-2.30433 -1.9046,-0.46439 -3.86798,-0.4879 -5.81373,-0.38209 m -397.861025,0.86412 c -3.509397,0.44088 -7.054065,0.32919 -10.581097,0.53494 -5.854874,0.15871 -11.674478,0.88175 -17.529352,1.01108 -2.745207,0.006 -4.220682,2.75108 -5.478657,4.79088 -5.937172,8.68826 -11.668599,17.5176 -16.635837,26.81133 -4.896697,8.56481 -8.835216,17.63516 -13.061777,26.54092 -0.76419,1.40493 0.482028,2.72757 1.375543,3.70338 5.061291,5.37873 9.564136,11.30414 14.942861,16.37719 6.877713,-7.43028 13.537926,-15.06043 20.204018,-22.6847 -4.150142,-9.51123 -9.493596,-18.45813 -13.755427,-27.91646 4.943724,-2.95095 10.263665,-5.21413 15.336713,-7.9417 11.551032,-5.97244 23.219631,-11.72738 34.729517,-17.788 -0.15872,-1.24034 -0.458522,-2.44541 -0.846492,-3.62697 -2.89804,-0.2175 -5.813724,-0.15871 -8.700013,0.18811 M 102.5625,245.736 c 0.17635,0.84061 0.34095,1.6871 0.49966,2.53358 1.59305,-0.44675 3.82096,-0.59371 4.10312,-2.63939 -1.53426,-0.0529 -3.0744,-0.0235 -4.60278,0.10581 m 395.38623,0.41149 c -0.79946,1.09925 -1.28149,2.36311 -1.29913,3.72689 10.28718,5.60211 20.91531,10.5811 31.30242,16.01273 6.20757,3.32717 12.6209,6.27224 18.76381,9.72285 -4.22068,9.48184 -9.58765,18.41111 -13.76718,27.91647 6.69548,7.66541 13.47326,15.26617 20.27456,22.83753 3.79743,-3.75041 7.14224,-7.92406 10.74569,-11.85083 1.42845,-1.72236 3.13906,-3.24487 4.25007,-5.20825 -0.0294,-3.10379 -2.22203,-5.66676 -3.28602,-8.48839 -3.36831,-8.51778 -8.01224,-16.42421 -12.16826,-24.55402 -4.39115,-6.97177 -8.33555,-14.23746 -13.24401,-20.86828 -1.76351,-2.61588 -3.15669,-5.74906 -6.07237,-7.31271 -8.13569,-0.72305 -16.30665,-1.06987 -24.47173,-1.40494 -3.66223,-0.38209 -7.3421,-0.63487 -11.02785,-0.52905 M 281.49474,297.7127 c 1.11102,1.61068 2.2044,3.23899 3.30365,4.86143 -1.3873,2.26318 -3.90324,3.32717 -5.92541,4.90257 -3.90325,2.98622 -8.20623,5.43163 -11.93313,8.64123 -2.05155,2.31021 -4.15014,4.63805 -5.80197,7.25981 2.9921,0.91115 6.15468,0.48791 9.22319,0.8994 2.31021,0.17635 4.62042,0.68189 6.94826,0.41148 7.15987,-2.93919 14.17279,-6.21933 21.30328,-9.24082 6.88947,3.09791 13.83772,6.06649 20.76834,9.07623 2.22791,0.68777 4.54987,-0.0823 6.80717,-0.19987 3.19197,-0.435 6.43096,-0.24101 9.61704,-0.7054 -1.32851,-2.84514 -3.57406,-5.16123 -5.61386,-7.5067 -5.73142,-4.66157 -12.16826,-8.38259 -17.94671,-12.98536 0.86412,-1.94575 2.21615,-3.59758 3.38595,-5.35521 -5.47866,-7.35975 -11.46874,-14.31388 -17.02381,-21.60896 -5.70792,7.17751 -11.52164,14.27861 -17.11199,21.55017 M 43.907948,330.43769 c -3.550546,-3.5917 -6.701361,-7.55961 -10.199002,-11.20421 -2.55122,-2.90392 -4.973116,-5.96656 -7.94758,-8.459 -2.557099,5.77845 -4.244196,11.87434 -6.642578,17.71158 -1.986895,7.21866 -4.297101,14.3609 -6.16055,21.60895 7.771228,-1.43432 15.471916,-3.28014 23.201996,-4.92609 1.011082,-0.17047 2.033922,-0.20574 3.050883,-0.24101 1.269731,10.70454 2.210273,21.45612 3.385951,32.17829 14.76651,-7.46555 29.474235,-15.04867 44.234866,-22.51422 1.069867,-0.5996 2.997978,-1.44608 1.986895,-2.96859 -7.165754,-14.16691 -14.32563,-28.32795 -21.567804,-42.45959 -0.476149,-1.0346 -1.152164,-1.95162 -1.922232,-2.7746 -7.130484,8.02988 -14.296239,16.02449 -21.420845,24.04849 M 531.11459,306.48913 c -7.55961,15.58949 -15.84225,30.83215 -23.40186,46.42751 3.82095,2.68054 8.26501,4.27359 12.27407,6.63082 8.80583,4.56163 17.72334,8.90576 26.50565,13.52029 2.78636,1.02284 5.10832,3.16257 8.11218,3.5917 1.1698,-10.63401 1.99277,-21.2974 3.28602,-31.91377 8.11805,0.99345 15.91867,3.83271 24.06611,4.5969 -0.44088,-2.59237 -1.4402,-5.02602 -2.15736,-7.54197 -0.67602,-2.33372 -1.05224,-4.74974 -1.8517,-7.04231 -2.58061,-7.46555 -4.84967,-15.06631 -8.024,-22.30848 -6.18406,5.44927 -10.87501,12.34461 -16.81806,18.02901 -6.67197,-7.7771 -13.57908,-15.34259 -20.31571,-23.05503 -0.41737,-0.53493 -1.09338,-0.69365 -1.67534,-0.93467 m -246.85701,18.10544 c 0.37622,0.80534 1.02872,1.56365 0.98757,2.50419 -0.10581,4.12663 -0.79358,8.21211 -0.98169,12.33286 -0.2175,5.53744 -1.14041,11.00434 -1.16392,16.55354 5.14359,1.29324 10.30481,2.54534 15.47779,3.7269 4.979,-1.16392 10.02266,-2.19264 14.93699,-3.62109 0.10581,-0.19987 0.31743,-0.60547 0.42324,-0.81122 0.27041,-4.12075 -0.79358,-8.17684 -0.84649,-12.28583 -0.11169,-3.92676 -0.49378,-7.83589 -0.94054,-11.73326 -0.2175,-2.23967 -0.57608,-4.67332 0.64662,-6.70136 -4.785,-1.9575 -9.49947,-4.06785 -14.23745,-6.13704 -4.77913,2.03392 -9.44069,4.33237 -14.30212,6.17231 m -32.32525,1.81054 c -4.2148,2.81575 -8.25326,5.87251 -12.46218,8.70002 -6.95413,4.97899 -13.63198,10.32832 -20.55672,15.34259 -0.61136,0.47615 -1.05811,1.12277 -1.5519,1.71061 1.15804,-0.32919 2.32197,-0.6525 3.43298,-1.1169 5.89602,-2.48068 11.96252,-4.50284 17.93496,-6.78366 1.45196,-0.5702 3.1273,-0.94054 4.06785,-2.3102 2.72169,-3.36244 5.4669,-6.70724 8.04163,-10.18137 2.45717,-2.99798 4.99663,-5.95481 7.08933,-9.22319 -2.19851,0.95818 -4.07372,2.45717 -5.99595,3.8621 m 87.32345,-3.90913 c 2.05155,3.2919 4.54987,6.27224 7.01879,9.25846 2.59237,3.28602 5.06717,6.67197 7.75947,9.88157 1.45784,1.93399 3.97967,2.36312 6.07826,3.28602 6.5544,2.35724 12.99711,5.02602 19.60442,7.22454 -1.5519,-1.72824 -3.42122,-3.11554 -5.31994,-4.42642 -9.34076,-7.40089 -19.0401,-14.31976 -28.86876,-21.05639 -2.05156,-1.45196 -4.01494,-3.05088 -6.27224,-4.16778 m -203.56269,11.36881 c 0.62311,3.99142 2.49832,7.63602 3.82096,11.41582 3.25074,9.09387 6.78953,18.07605 10.08143,27.1464 -2.09271,2.04568 -4.80852,3.23899 -7.08933,5.04953 -8.64711,5.63738 -17.26483,11.32766 -25.84728,17.05908 -1.34027,0.54669 -0.79946,2.13386 -0.23513,3.06264 2.70994,5.0319 5.18474,10.18137 7.8065,15.2603 0.38209,0.72304 0.95818,1.83405 1.9575,1.52838 4.50285,-1.21095 8.92339,-2.70994 13.39097,-4.03258 11.13954,-3.55642 22.39665,-6.70724 33.49505,-10.37535 -1.46372,-3.16845 -3.81507,-5.77845 -5.61974,-8.74116 -2.76872,-4.4617 -5.69616,-8.82346 -8.66474,-13.14995 -0.72892,-1.02872 -1.25798,-2.18089 -1.65771,-3.3742 9.1938,-3.2919 18.34645,-6.72487 27.45795,-10.25191 -1.35791,-2.75108 -3.49764,-4.98487 -5.23764,-7.48318 -4.65568,-5.94893 -9.02333,-12.11536 -13.66725,-18.07605 -3.84447,-4.77913 -7.0717,-10.04616 -11.1807,-14.60779 -6.34278,3.04501 -12.54448,6.38393 -18.81084,9.57002 m 299.30398,0.34094 c -5.72554,7.43028 -11.24535,15.01928 -16.95914,22.45544 -1.71649,2.70406 -4.2442,4.85555 -5.50217,7.84765 5.49041,2.09858 11.05724,4.00318 16.53002,6.16055 3.65636,1.56953 7.55961,2.56298 11.08076,4.44994 -5.1671,8.41197 -11.06312,16.36543 -16.10678,24.84794 8.22974,2.7746 16.59469,5.12596 24.86558,7.76535 7.68305,2.16325 15.20151,4.87319 22.93747,6.83657 2.99798,-4.95548 5.21413,-10.33421 8.04163,-15.38962 0.48203,-1.31088 1.82818,-2.58649 1.27561,-4.06197 -2.7746,-2.23378 -5.89014,-3.9973 -8.83521,-5.99007 -5.91366,-3.87386 -11.7509,-7.87116 -17.74098,-11.63333 -2.29257,-1.75764 -4.99075,-2.96271 -6.99528,-5.07893 0.86412,-2.9921 2.08683,-5.86663 3.18609,-8.77643 2.7746,-7.06582 5.23764,-14.25509 8.01224,-21.32679 1.0052,-2.76872 2.26318,-5.50805 2.58649,-8.46488 -6.19582,-3.31541 -12.51509,-6.40156 -18.79908,-9.55238 -2.73933,3.13318 -5.02602,6.62494 -7.57725,9.91096 m -190.74779,10.32245 c -1.59892,1.6871 -4.12663,1.87521 -6.14292,2.86278 -5.34933,1.74 -10.47528,4.06196 -15.78935,5.89014 -2.06331,0.61723 -2.30432,3.09203 -2.68642,4.87906 -1.42257,6.19582 -3.08615,12.33286 -4.39703,18.55219 3.915,1.62244 8.20035,1.96926 12.20941,3.2919 3.01561,0.63487 5.9842,1.47547 8.98805,2.18088 1.74588,0.44088 3.53291,1.12277 5.36697,0.74068 0.22338,-4.75562 0.82297,-9.48772 1.02284,-14.24333 0.84061,-7.12461 0.82885,-14.31976 1.8752,-21.42085 0.63487,-0.0705 1.26974,-0.094 1.91636,-0.0588 11.36292,2.52183 22.57301,5.72555 33.9712,8.0769 0.19399,-3.70338 0.0764,-7.43028 0.62311,-11.10427 0.64662,-5.20238 0.52318,-10.46941 1.29324,-15.65415 -3.32128,-1.15804 -6.93061,-0.88764 -10.39298,-1.19919 -4.48521,-0.37622 -8.97042,-0.9523 -13.47915,-0.93466 -4.76149,6.07237 -9.61116,12.0742 -14.37853,18.1407 m 78.41769,-17.15901 c -2.56298,0.0823 -5.10244,0.52317 -7.65366,0.72304 -0.5173,2.23379 0.25865,4.47933 0.20574,6.73075 -0.0235,4.11487 0.64662,8.18272 0.89939,12.28583 0.29392,2.6923 0.11169,5.41988 0.57021,8.1063 1.81642,-0.094 3.53291,-0.7348 5.3023,-1.10514 8.98806,-2.21615 17.98787,-4.37352 26.9818,-6.53676 1.09926,-0.30568 2.24555,-0.37034 3.38595,-0.37622 0.62311,3.28602 1.02284,6.60731 0.99345,9.95799 0.54669,8.60008 1.6048,17.17077 1.9575,25.78848 0.63487,0.10581 1.27561,0.11169 1.91636,0.0235 8.17096,-1.9046 16.29489,-3.97379 24.4776,-5.83136 0.0647,-1.86933 -0.51142,-3.66812 -0.9229,-5.47278 -1.35203,-5.12596 -2.52771,-10.29306 -3.74454,-15.45428 -0.33506,-1.0346 -0.69952,-2.31609 -1.81642,-2.73345 -2.78635,-1.24622 -5.73143,-2.07507 -8.52954,-3.27427 -4.35588,-1.78115 -8.95866,-2.98622 -13.17347,-5.09068 -5.04953,-5.96656 -9.79927,-12.20353 -14.74299,-18.26415 -0.2175,-0.11757 -0.6525,-0.3527 -0.87,-0.47027 -5.09656,-0.0176 -10.14022,0.91703 -15.23678,0.99345 m -209.9231,18.08192 c -5.93129,3.31541 -12.20941,5.97244 -18.117194,9.329 5.760824,11.61569 11.821444,23.06091 17.623404,34.65309 0.55257,1.24622 1.38143,2.32784 2.22203,3.39771 10.55171,-7.20102 21.35031,-14.02583 31.91377,-21.19746 -4.20305,-12.19178 -9.18792,-24.10727 -13.37333,-36.30493 -6.86008,3.1567 -13.46739,6.84245 -20.26868,10.12259 m 351.41589,-10.15198 c -4.35001,12.15063 -9.01157,24.19545 -13.5203,36.28729 10.63401,7.25393 21.56193,14.06698 32.17242,21.35618 3.73278,-5.94305 6.32514,-12.52096 9.79339,-18.61685 3.28602,-6.60143 6.78954,-13.09117 9.9286,-19.76314 -12.9207,-6.16055 -25.49457,-13.02651 -38.37411,-19.26348 M 13.763577,352.89313 c -1.763516,0.28804 -1.828179,2.37486 -2.257301,3.75041 -1.5225021,7.53609 -3.4800051,15.0134 -4.2383171,22.69057 -0.940542,8.68238 -2.4042608,17.34125 -2.4512879,26.09417 -0.3703384,4.95548 -0.6936497,9.95798 -0.4761493,14.91934 1.5460162,2.32784 3.9620332,3.8915 6.1017663,5.62562 6.8542,5.69616 13.878873,11.18657 20.738951,16.87685 1.210948,0.86412 2.210274,2.61588 3.897371,2.37487 1.210948,-0.56433 2.997978,-1.62831 2.280815,-3.21548 -6.477983,-12.40927 -12.779615,-24.92436 -19.14003,-37.39242 -1.898719,-3.91501 -4.214804,-7.63015 -5.790212,-11.69799 1.463719,-1.12865 3.09791,-2.01041 4.785008,-2.76285 6.860078,-3.7798 13.972927,-7.10109 20.921181,-10.72217 0.893515,-0.47027 2.00453,-1.14041 1.663584,-2.32785 -0.958178,-9.78163 -1.881084,-19.56915 -2.962708,-29.34491 -7.683052,1.74588 -15.389618,3.38008 -23.072671,5.13184 M 560.44774,347.8142 c -0.60547,4.63217 -1.48135,9.24082 -1.49898,13.9259 -0.45264,3.52703 -1.02872,7.04819 -1.09926,10.61637 -0.0294,2.00453 -1.02284,4.1325 -0.23514,6.07237 1.64007,1.41081 3.69751,2.18676 5.60798,3.16257 6.80718,3.39771 13.55556,6.90123 20.32747,10.35184 0.88763,0.47028 1.16392,1.72237 0.59959,2.5571 -5.88426,11.21597 -11.49812,22.57301 -17.35888,33.80073 -2.32784,5.06129 -5.26115,9.85218 -7.37737,15.00753 1.25797,0.76419 2.71581,2.92743 4.22068,1.38729 7.9417,-6.35453 15.78347,-12.83839 23.69578,-19.23408 1.2227,-1.15216 2.8275,-2.09858 3.4271,-3.75041 0.28804,-2.90392 0.0529,-5.83136 -0.14696,-8.72941 -0.18811,-3.92676 0.0705,-7.87704 -0.59372,-11.76265 -0.53493,-9.83454 -1.67534,-19.62206 -3.22135,-29.34491 -1.28149,-6.2546 -2.62176,-12.49157 -3.92089,-18.7403 -2.18088,-0.87 -4.44994,-1.49899 -6.7719,-1.85757 -5.21413,-1.1698 -10.42826,-2.36899 -15.65415,-3.46237 m -313.36508,2.3925 c -1.0052,6.40745 -0.74068,12.93833 -1.66946,19.35753 -0.36446,3.56818 -0.32331,7.15988 -0.65838,10.72806 -0.92879,7.31271 -1.11102,14.69597 -1.93399,22.02044 -0.22338,1.5225 -1.27561,2.73345 -2.05744,4.00318 -8.53542,13.82009 -16.94739,27.72248 -25.5122,41.52493 4.89082,2.93332 10.47529,4.40879 15.63651,6.76603 5.34933,2.45716 10.92792,4.36764 16.28314,6.80717 5.57271,2.49244 11.46873,4.32649 16.85921,7.18339 3.97967,3.90325 7.31272,8.42961 10.98671,12.62678 8.03575,9.07623 15.61299,18.54043 23.68402,27.58139 9.97562,-12.27407 20.60963,-24.00734 30.66755,-36.21675 1.54601,-1.6048 2.72757,-3.70926 4.80264,-4.69095 15.87753,-6.54264 31.72566,-13.14995 47.61494,-19.65145 -3.70926,-7.18927 -8.46488,-13.80833 -12.46218,-20.83888 -4.87318,-8.05339 -9.96387,-15.98922 -14.71948,-24.10139 -1.65183,-7.91819 -0.92879,-16.11266 -2.31021,-24.06612 -0.435,-3.48588 -0.19399,-7.0188 -0.67601,-10.4988 -0.88176,-6.15467 -0.69365,-12.40928 -1.61068,-18.55807 -3.82095,0.58196 -7.49495,1.86345 -11.28651,2.61588 -11.78029,2.91568 -23.61348,5.57271 -35.38201,8.53542 -2.16325,0.5173 -4.42643,1.44608 -6.65434,0.69953 -8.97042,-2.28669 -17.99962,-4.32649 -26.98767,-6.54265 -7.55961,-1.65182 -15.01928,-3.81507 -22.61416,-5.28467 M 79.248814,361.37564 c -15.712929,8.17684 -31.543427,16.12442 -47.250479,24.31889 -5.372846,2.81575 -10.904409,5.34345 -16.106782,8.48251 6.648457,13.4086 13.667251,26.63498 20.450911,39.97892 3.762168,7.23041 7.25393,14.61367 11.245355,21.71476 3.103789,3.37419 7.124606,5.78433 10.487043,8.91164 0.999326,0.87587 2.404261,2.21615 3.803317,1.36966 9.287853,-4.89082 18.816719,-9.34076 27.916463,-14.56665 -2.327842,-7.8594 -4.8144,-15.6659 -7.189268,-23.50767 0.517298,-0.2704 1.046353,-0.5173 1.581286,-0.74067 12.714948,-3.88562 25.41815,-7.79475 38.10959,-11.72739 -0.12345,-1.06399 -0.53493,-2.05155 -1.10514,-2.94507 -9.99914,-19.09888 -19.53976,-38.42702 -29.697614,-57.43772 -4.220683,1.76351 -8.076905,4.26771 -12.244682,6.14879 m 129.159936,-2.75696 c -6.01947,4.08548 -11.66272,8.68825 -17.53523,12.9736 -1.81055,-1.15217 -2.9392,-2.9921 -4.08548,-4.74386 -1.27561,0.31743 -2.5571,0.62899 -3.7798,1.12277 -7.28333,2.80987 -14.66658,5.39048 -21.86761,8.39434 0.49379,0.90527 0.96994,1.8223 1.50487,2.70993 4.42055,6.60731 8.79995,13.24401 13.24989,19.82781 2.13973,-0.32919 4.19717,-1.04048 6.31926,-1.48136 1.65183,5.17298 3.26251,10.35184 4.82616,15.54834 0.82885,2.68642 1.56953,5.47278 3.25663,7.7771 1.17567,1.64007 2.14561,3.41535 3.28601,5.08481 0.19987,-0.0118 0.60548,-0.0294 0.80534,-0.0353 1.44021,-2.08095 2.12798,-4.56163 3.11555,-6.86596 0.98169,-2.94507 3.00973,-5.67264 2.75696,-8.90576 -0.40561,-6.88947 -1.52838,-13.71427 -1.85169,-20.60374 -0.16459,-1.0346 0.56433,-1.8223 1.14041,-2.56298 2.95095,-3.5094 6.21933,-6.73663 9.11738,-10.2813 1.81054,-2.07507 4.00906,-3.91501 5.20237,-6.44859 0.84649,-2.65115 1.32852,-5.40224 1.91048,-8.11805 0.77594,-2.18089 1.28736,-4.43819 1.58128,-6.72488 -3.06852,0.82885 -6.05474,2.02217 -8.95278,3.33305 m 171.49608,-3.25663 c 0.49966,4.57926 1.99865,8.96454 3.00385,13.44975 0.41149,2.4219 2.2573,4.17953 3.82095,5.94305 3.76805,3.88561 7.08934,8.18272 10.92205,12.00367 0.74068,0.68777 1.0875,1.64595 0.99932,2.65703 -0.10581,7.1246 -1.47547,14.1434 -1.81642,21.24449 -0.0353,1.42845 0.44676,2.80987 1.04048,4.09136 1.74,3.87386 3.11554,7.90055 4.88494,11.76265 2.23378,-2.32784 3.68575,-5.25528 5.3846,-7.96521 2.60413,-6.69549 4.19129,-13.73779 6.60731,-20.49794 1.95162,-0.98169 4.09723,0.72304 6.07237,1.08162 2.71582,-2.97446 4.42643,-6.66021 6.87184,-9.83454 2.41601,-3.83859 5.06717,-7.52434 7.44204,-11.38644 0.28804,-0.59371 1.14628,-1.77527 0.006,-2.03392 -7.15399,-2.63939 -14.28448,-5.35521 -21.42672,-8.04751 -1.18155,-0.38797 -2.46892,-0.91703 -3.70926,-0.49379 -1.11102,1.43433 -2.09858,2.95683 -3.35068,4.27947 -6.10765,-3.87974 -11.52164,-8.73528 -17.50584,-12.78549 -2.99798,-1.3344 -6.04298,-2.73933 -9.2467,-3.46825 m 125.1979,0.67601 c -5.49042,10.27542 -10.54583,20.78598 -16.06564,31.04965 -4.57338,9.48771 -9.80515,18.64036 -14.27272,28.18099 3.15081,1.79878 6.83656,2.23378 10.22251,3.43885 9.7111,3.17433 19.59855,5.80785 29.22735,9.21144 -0.2998,3.06851 -1.49899,5.93129 -2.39839,8.85285 -1.15216,4.09723 -2.51007,8.12981 -3.71514,12.20941 -0.17635,0.91115 -1.01108,1.96338 -0.26452,2.82163 0.88175,0.91702 2.16324,1.31088 3.26838,1.91047 8.13569,4.30298 16.37131,8.41785 24.5599,12.61502 0.86412,0.30568 1.75764,-0.25277 2.43365,-0.76419 3.08616,-2.59825 6.18995,-5.19062 9.37015,-7.68305 1.79291,-1.39318 3.04501,-3.35656 3.92677,-5.42575 6.41332,-12.57975 12.93833,-25.10072 19.31638,-37.6981 3.48,-6.87184 7.19515,-13.62611 10.53407,-20.57436 -6.31339,-3.84447 -13.14408,-6.73075 -19.59267,-10.32245 -17.72334,-9.13501 -35.50546,-18.14658 -53.19353,-27.34626 -1.01108,-0.42324 -2.52182,-1.88108 -3.35655,-0.47615 m -298.11655,26.4939 c -1.91636,2.3925 -4.41467,4.36764 -5.87251,7.09521 0.44088,4.77913 0.56432,9.59941 1.35203,14.34914 -0.047,0.65838 0.71716,0.69365 1.18155,0.74068 3.22724,0.17635 6.01947,1.99865 9.00569,3.03913 5.47278,2.32196 10.99259,4.52636 16.44185,6.91298 1.00521,0.41737 2.18089,0.94642 3.26839,0.48203 2.23378,-3.67987 4.33825,-7.44792 6.74839,-11.0161 1.65182,-2.3925 1.55777,-5.40224 1.62243,-8.17684 -0.0529,-3.30953 0.72304,-6.54852 0.72892,-9.85217 -9.10562,-2.33372 -18.31705,-4.25008 -27.39328,-6.69549 -1.10514,-0.16459 -1.87521,-0.95817 -2.53359,-1.78703 -1.61068,1.54602 -3.15669,3.1567 -4.54987,4.90846 M 385.5776,377.7528 c -1.12865,1.59892 -3.15669,1.78115 -4.87906,2.32196 -8.31204,2.09271 -16.73577,3.74453 -24.96551,6.14879 -0.19399,3.46237 0.72304,6.86008 0.61723,10.32245 -0.0529,2.3396 0.0529,4.79677 1.24622,6.87772 2.32196,3.99142 5.11419,7.70656 7.09521,11.89197 2.22791,0.1646 4.13251,-1.0875 6.13116,-1.85757 5.49041,-2.43953 11.1513,-4.47345 16.64759,-6.88359 2.21028,-0.89939 4.5969,-2.51595 7.03643,-1.50487 0.34683,-2.45716 0.77595,-4.89669 0.86412,-7.37737 0.0999,-2.83926 0.92291,-5.69028 0.48791,-8.52954 -1.305,-1.9869 -3.08027,-3.60345 -4.61453,-5.40224 -1.79879,-2.08095 -3.48589,-4.35001 -5.66677,-6.00771 M 91.746266,427.74851 c -1.945746,0.55845 -4.038452,0.89352 -5.666765,2.19852 5.660887,18.7403 11.386437,37.46296 17.141379,56.17387 4.17366,12.26232 8.61184,24.43058 12.65029,36.73992 1.97514,5.31407 3.59757,10.76333 5.74906,16.01273 1.41082,-0.38797 2.82163,-0.77007 4.21481,-1.23446 28.53369,-9.88157 57.12029,-19.59854 85.63047,-29.55065 1.22858,-0.37622 2.3925,-0.91703 3.51528,-1.52838 -6.24873,-18.0878 -12.55036,-36.16384 -18.69328,-54.29279 -3.53291,-12.08009 -7.43028,-24.05436 -10.9867,-36.12857 -1.73413,-5.12596 -2.9392,-10.44002 -4.99075,-15.45428 -29.50951,9.08798 -59.03665,18.02313 -88.563794,27.06409 M 416.57421,400.71969 c -5.44927,17.90557 -10.98083,35.78174 -16.40658,53.69319 -5.33758,15.33083 -10.55759,30.69694 -15.88928,46.02777 -0.91703,2.08095 -1.40494,4.30886 -1.94575,6.50738 24.22484,8.41197 48.49082,16.7005 72.70978,25.08896 6.87771,2.06919 13.4615,5.03778 20.42739,6.81305 1.65771,-3.2919 2.38663,-6.9365 3.82683,-10.31657 4.35001,-12.70908 8.71765,-25.41227 13.07354,-38.11547 1.03459,-3.06852 2.34547,-6.04886 2.98622,-9.23494 3.83859,-11.79205 7.17751,-23.74281 10.97495,-35.55249 1.3873,-5.37285 3.66811,-10.53995 4.42642,-16.05388 -1.98101,-1.0052 -4.13838,-1.54014 -6.28987,-2.02216 -12.63266,-4.109 -25.43578,-7.64779 -38.06844,-11.7509 -16.64171,-4.90845 -33.16586,-10.22839 -49.82521,-15.08394 m -211.12817,7.09521 c -3.09203,5.1671 -4.5969,11.08664 -7.21278,16.48888 -0.75243,1.78115 -1.7694,3.54467 -1.84581,5.52568 2.36311,4.22068 5.39048,8.03576 7.91818,12.15651 1.66947,2.80399 3.89737,5.29055 5.23177,8.27677 0.64662,4.23832 0.24689,8.54717 0.62311,12.809 0.0235,3.59758 0.31155,7.18927 0.52905,10.78097 1.72825,2.43365 4.97312,3.13906 7.22454,5.0319 4.40291,2.3925 8.44137,5.41399 12.94421,7.63014 0.70541,-0.89351 1.44608,-1.77527 2.01041,-2.76872 3.93852,-6.84832 8.49427,-13.3263 12.11536,-20.3451 -8.79407,-3.75041 -17.64105,-7.37737 -26.51153,-10.93968 -2.39838,-1.14628 -5.04954,-1.81642 -7.14224,-3.53291 2.26905,-3.33892 4.33237,-6.81305 6.43683,-10.25778 4.12075,-6.90123 8.65887,-13.5732 12.53272,-20.60375 -2.40426,-1.32264 -5.03777,-2.11622 -7.52433,-3.23311 -5.80785,-2.26906 -11.45698,-4.92021 -17.32949,-7.0188 m 182.21826,1.47548 c -6.88947,3.1802 -14.17279,5.49629 -20.93294,8.95278 4.42643,7.34211 9.09974,14.53137 13.44975,21.92051 1.7694,3.08615 4.00318,5.89602 5.51393,9.13501 -4.74974,2.44541 -9.81103,4.20305 -14.73712,6.26048 -6.23109,2.72758 -12.6209,5.09069 -18.83435,7.84177 2.42189,4.90258 5.61974,9.3584 8.32379,14.10226 2.08683,2.89804 3.57994,6.16642 5.66089,9.07035 6.56028,-3.28602 12.52097,-7.63015 18.86375,-11.30414 0.76419,-0.35858 1.34027,-1.04048 1.4402,-1.89284 0.27041,-2.67467 0.14108,-5.36697 0.45852,-8.03576 0.59371,-5.02014 0.0176,-10.10495 0.72304,-15.11921 0.50554,-1.15804 1.22858,-2.2044 1.9046,-3.26838 3.19196,-4.50873 6.05473,-9.23495 9.18791,-13.78482 0.70541,-1.0875 1.52251,-2.12798 2.04568,-3.32129 0.0294,-1.39906 -0.60547,-2.69818 -1.10513,-3.96204 -1.4696,-3.10378 -2.57474,-6.35453 -4.0267,-9.45832 -1.39905,-2.88629 -1.94574,-6.22521 -4.14426,-8.67062 -1.27561,0.4879 -2.56298,0.94642 -3.79156,1.53426 M 4.3640352,424.98567 c -0.2116219,12.70908 1.4695967,25.34761 2.8980447,37.95087 0.84061,7.44792 2.51595,14.76063 4.2148041,22.04983 1.757638,3.48589 5.496293,5.3317 8.435486,7.71245 0.646623,-0.55257 1.275611,-1.12865 1.904598,-1.69886 7.159876,3.21548 13.89063,7.30096 20.991722,10.63989 2.063314,-2.05744 3.615208,-4.544 5.57859,-6.68961 5.508049,-6.97177 11.357045,-13.67901 16.747526,-20.75071 -2.610004,-2.74521 -5.866631,-4.72034 -8.64123,-7.27744 -16.62408,-13.56144 -33.28343,-27.0641 -49.9016321,-40.62554 -0.717163,-0.48203 -1.481353,-0.88176 -2.2279087,-1.31088 M 571.68722,441.59799 c -10.83387,8.95279 -21.7853,17.78801 -32.68383,26.66437 -2.23967,2.02804 -4.92021,3.53879 -6.8836,5.87251 1.22859,1.97514 2.68643,3.79744 4.22069,5.5492 6.01359,7.3715 11.93312,14.83117 18.12307,22.05571 6.89534,-3.73866 13.84948,-7.38326 20.90354,-10.80448 0.58784,0.5996 1.17568,1.21095 1.76352,1.83406 2.49831,-1.96926 5.9019,-3.67987 6.54264,-7.09522 0.5996,-2.97446 1.04636,-5.97244 1.68122,-8.94102 3.18021,-13.21462 3.9444,-26.84072 5.10244,-40.3375 -0.14108,-3.27426 0.82298,-6.56028 0.0764,-9.80515 -6.54852,4.64981 -12.46218,10.14022 -18.84611,15.00752 M 191.87284,428.87716 c 1.75764,4.97312 3.03325,10.11083 4.70859,15.11922 2.62176,9.07623 5.83136,17.97611 8.92927,26.90538 0.51142,1.92811 1.04636,3.87385 2.01041,5.64325 0.72304,-3.70926 0.0941,-7.49495 0.0647,-11.2336 -0.24101,-4.32649 -0.18223,-8.67062 -0.61135,-12.98536 -0.11757,-1.71649 -1.12277,-3.17433 -2.02216,-4.57338 -3.49764,-5.15535 -6.97177,-10.32833 -10.27543,-15.60124 -0.77594,-1.22271 -1.89284,-2.16325 -2.80399,-3.27427 m 211.01648,2.62764 c -3.87973,6.41332 -8.38846,12.42104 -12.30934,18.80496 -1.06987,5.14359 -0.58196,10.46941 -1.01696,15.68942 0.0294,3.50352 -0.49379,7.00704 -0.006,10.50468 1.16392,-2.18676 1.76939,-4.58514 2.48656,-6.9365 4.79676,-13.13819 8.90575,-26.5174 12.79725,-39.94364 -0.69365,0.58196 -1.45784,1.11101 -1.95163,1.88108 M 38.446926,445.81868 c -0.405608,0.63486 -0.840609,1.24621 -1.31088,1.83993 1.575408,1.43433 3.262505,2.73933 5.014265,3.96204 -1.228583,-1.91636 -1.587165,-4.63217 -3.703385,-5.80197 m 517.133514,5.22 c 1.58716,-0.99932 3.06852,-2.14561 4.39703,-3.47412 -0.5702,-0.64075 -1.1404,-1.27561 -1.71061,-1.89872 -1.31088,1.55189 -2.08683,3.45061 -2.68642,5.37284 M 67.356836,466.2931 c -1.352029,0.87 -3.197842,1.24034 -3.991425,2.7746 1.722368,1.64595 4.355885,2.72169 5.261157,4.99075 -3.092032,4.32649 -6.607307,8.3767 -9.999137,12.4857 1.839935,3.57993 4.496966,6.64845 6.413321,10.17548 1.016961,3.92089 -0.429123,8.40022 1.240339,12.15063 4.943724,1.88109 10.263665,2.62764 15.260295,4.37352 -0.04115,2.57474 -0.969934,5.00839 -1.593043,7.47731 3.303653,0.15872 6.495618,-0.7877 9.734609,-1.24034 6.283996,-0.92291 12.538608,-1.98102 18.822598,-2.89217 0.70541,-0.15871 1.36379,-0.48202 2.03392,-0.75243 -0.59371,-2.31608 -1.3579,-4.57338 -2.21615,-6.79541 -2.56885,-7.38914 -5.05541,-14.80766 -7.64778,-22.19092 -2.163252,-7.08346 -4.432312,-14.13752 -6.530891,-21.24449 -1.193313,-3.66811 -2.104463,-7.44792 -3.662236,-10.98083 -7.806499,3.68575 -15.360227,7.88292 -23.125577,11.6686 M 506.31367,454.67741 c -2.01628,6.62494 -3.97379,13.26164 -6.06649,19.86307 -4.01494,13.94353 -9.22907,27.51085 -13.67901,41.31918 0.65838,0.27041 1.31088,0.61136 2.01629,0.79947 5.80784,0.69952 11.56866,1.76939 17.36475,2.56885 3.7269,0.38797 7.3715,1.77527 11.16306,1.36966 -0.70541,-2.32196 -1.27561,-4.68507 -1.6577,-7.08345 4.81439,-2.00453 10.05204,-2.73933 14.98401,-4.42055 0.86412,-0.32331 0.95817,-1.29324 1.01696,-2.08095 0.22925,-2.93331 0.22338,-5.87251 0.28216,-8.80582 0,-1.44609 0.95818,-2.61001 1.69297,-3.76805 1.65183,-2.62764 3.56231,-5.09068 5.0613,-7.81826 -1.85757,-2.5277 -4.00906,-4.82027 -5.9019,-7.31271 -1.45784,-1.89284 -3.30954,-3.52703 -4.23832,-5.76082 1.75764,-1.73412 3.87973,-3.03913 5.59622,-4.8144 -2.19851,-1.6871 -4.785,-2.71581 -7.23629,-3.95027 -4.19129,-2.11622 -8.3238,-4.33825 -12.5386,-6.40157 -2.59825,-1.26973 -5.03778,-2.94507 -7.85941,-3.70338 M 246.3655,466.57526 c -4.14427,7.13637 -8.68238,14.03171 -12.89131,21.13868 -0.64662,1.34616 -1.93399,2.10447 -3.22135,2.73933 2.54534,4.20305 4.90257,8.52954 7.54785,12.67381 0.35858,0.58784 0.80533,1.16392 1.56365,1.19919 4.67332,0.94642 9.31724,2.08095 14.00819,2.95095 0.37622,-1.31676 0.89352,-2.61001 1.85757,-3.61521 5.35522,-6.38393 10.75745,-12.73259 16.22435,-19.02834 0.69953,-0.74656 1.8517,-1.99277 0.69365,-2.88041 -3.39183,-3.67987 -6.28987,-7.83001 -9.95211,-11.24536 -4.32061,-2.0104 -8.82933,-3.66223 -13.22637,-5.51392 -1.28736,-0.72304 -2.00453,0.68777 -2.60412,1.58128 m 92.91379,1.99278 c -1.81054,0.80534 -3.89149,1.24034 -5.29643,2.73345 -3.25662,3.70926 -6.31926,7.589 -9.69934,11.18657 0.6819,1.2227 1.51075,2.36311 2.46305,3.39771 4.72034,5.29055 9.14089,10.83386 13.87887,16.10678 1.34615,1.56953 2.73345,3.18608 3.13906,5.28467 4.6792,-0.76419 9.24083,-2.11622 13.92002,-2.9098 1.23446,-0.10581 1.65771,-1.43433 2.31609,-2.2867 2.3925,-3.9973 4.69683,-8.04751 7.0423,-12.0742 -1.02871,-0.39386 -2.40426,-0.38798 -2.92743,-1.52251 -4.53224,-7.59487 -9.30549,-15.04867 -13.82597,-22.64942 -0.42912,-0.5173 -0.95818,-1.34028 -1.74588,-0.94642 -3.15082,1.07574 -6.13704,2.56297 -9.26434,3.67987 m -128.24878,9.58177 c -0.39385,4.73798 -0.047,9.69346 1.79291,14.13164 1.68709,4.62629 3.05676,9.36427 4.79088,13.97881 0.32331,0.76419 0.32331,1.59892 0.38798,2.42189 -1.6048,0.6525 -3.2919,1.07575 -4.88494,1.76352 -1.20507,0.47615 -0.77007,1.92223 -0.76419,2.91568 0.81121,8.21211 0.10581,16.51239 1.29912,24.70098 6.60731,-1.7929 13.21461,-3.59169 19.79841,-5.49629 2.18088,-0.55844 4.42055,-0.98757 6.43683,-2.0398 -0.0294,-2.05156 0.0941,-4.10311 0.40561,-6.13116 6.30163,0.0294 12.59739,0.20575 18.89314,0.2175 4.23244,0.17636 8.28853,-1.35203 12.22117,-2.73345 -3.26839,-3.23899 -6.9365,-6.01947 -10.35772,-9.08798 -0.85237,-0.72892 -1.82818,-1.34028 -2.91568,-1.62244 -6.46623,-1.43433 -12.91482,-2.96858 -19.42807,-4.20305 -1.28737,-0.2704 -2.70406,-0.81121 -3.25663,-2.11034 -3.02737,-5.87838 -6.64258,-11.4217 -9.92272,-17.15313 -0.9523,-1.73413 -2.70406,-2.7746 -4.36764,-3.71514 -3.50352,-1.73413 -6.40156,-4.53812 -10.12846,-5.83724 m 163.84242,6.44859 c -2.68643,1.26385 -3.74454,4.13838 -5.2494,6.48386 -2.3396,4.09136 -4.98488,8.00049 -7.1011,12.22117 -0.75243,1.32851 -1.53425,2.92156 -3.07439,3.46237 -6.98353,1.45784 -13.99644,2.83338 -20.92706,4.53224 -2.91568,1.34615 -4.99075,3.93264 -7.51258,5.85487 -1.91048,1.39906 -3.56818,3.10379 -5.29055,4.7321 2.81575,1.07575 5.74318,1.91636 8.68238,2.59825 7.49494,0.35858 15.00752,-0.18811 22.51422,-0.0235 0.27629,2.0104 0.31156,4.04433 0.2998,6.07825 0.80534,0.34682 1.59892,0.72892 2.45129,0.99345 7.97109,2.05155 15.85401,4.42054 23.79571,6.57791 0.41737,-4.66744 0.85237,-9.34076 0.82298,-14.03171 -0.0176,-4.42643 0.68189,-8.82346 0.48202,-13.24989 -1.68122,-0.77006 -3.52703,-1.12277 -5.13771,-2.02804 -0.45851,-0.58784 -0.52905,-1.36966 -0.2704,-2.0398 1.86932,-5.36697 3.63872,-10.76333 5.53156,-16.11854 1.55777,-3.98554 1.16392,-8.35907 1.04047,-12.5386 -3.87385,1.8223 -7.2069,4.60866 -11.05724,6.49562 m -103.45962,4.10311 c -4.79089,5.54332 -9.52887,11.13367 -14.29624,16.7005 1.76939,2.38663 4.26183,4.06197 6.43095,6.05474 3.62697,2.80399 6.96001,5.9842 10.52232,8.86461 1.0875,1.01696 2.55122,0.37622 3.76804,0.0235 2.83926,-1.03459 5.80197,-1.64007 8.71765,-2.38662 4.03258,-0.97581 7.90643,-2.56886 12.01543,-3.22136 5.31406,0.99933 10.39299,3.03913 15.69529,4.15602 2.58061,0.49379 4.96136,1.88696 7.61251,2.01041 2.5042,-1.24622 4.33825,-3.48588 6.56028,-5.14947 3.80332,-3.3977 7.92407,-6.43095 11.55104,-10.02265 -2.2867,-3.39771 -5.25528,-6.23697 -7.76535,-9.45244 -3.33305,-3.72102 -6.4192,-7.64779 -9.73461,-11.37468 -8.08867,9.21143 -15.93043,18.66975 -23.9368,27.96936 -7.10109,-8.37082 -14.27272,-16.68286 -21.30915,-25.10071 -0.85825,-0.84649 -1.36379,-2.38663 -2.7217,-2.44541 -1.33439,0.79358 -2.11034,2.22203 -3.10966,3.37419 M 48.181536,499.40606 c -0.91115,1.20507 -2.122098,2.26906 -2.474801,3.80919 3.02737,1.56953 6.442713,2.0398 9.693461,2.96271 2.463045,0.71716 4.955481,1.31676 7.447917,1.92223 0.199865,-2.75108 0.264528,-5.59622 -0.458514,-8.27677 -1.334394,-0.64662 -3.033248,0.53494 -4.244196,-0.52317 0.141081,-1.62832 2.051557,-2.11622 3.109667,-3.06852 -1.169799,-2.58061 -2.668788,-5.12596 -4.761494,-7.05407 -2.803991,3.38008 -5.543319,6.81305 -8.31204,10.2284 m 489.293474,-6.24873 c -0.59372,0.97581 -1.41082,1.9046 -1.49312,3.09791 1.16393,1.0875 2.98035,1.54602 3.29778,3.35656 -1.6048,0.0882 -3.20372,0.047 -4.79676,0.0176 -0.15284,2.81574 -0.48203,5.64325 -0.23514,8.47075 5.67264,-1.3579 11.29826,-2.92156 16.93564,-4.4323 -0.0118,-0.53493 -0.047,-1.06987 -0.10582,-1.59304 -3.43297,-4.33825 -6.94825,-8.61184 -10.45177,-12.89131 -1.40493,1.00521 -2.19852,2.58061 -3.15081,3.97379 M 12.999387,491.40557 c 0.211622,2.75109 1.246218,5.34346 1.969259,7.98873 2.057436,6.50738 3.509398,13.20874 6.213456,19.49861 1.340272,4.58514 3.092032,9.04096 5.172981,13.34394 2.55122,-7.7771 4.44994,-15.75995 6.895349,-23.56645 0.505541,-1.23446 -0.517298,-2.28082 -1.3873,-2.98622 -4.038452,-3.22724 -8.20035,-6.28988 -12.191775,-9.58178 -2.233788,-1.55777 -4.056088,-3.73277 -6.67197,-4.69683 m 9.646434,2.96859 c 3.967911,4.76149 9.669947,7.6419 14.078738,11.9684 -1.451962,4.64392 -2.668788,9.35251 -4.056088,14.00819 -0.346824,0.98757 -0.299797,2.0398 -0.241013,3.0744 1.64007,-2.66291 2.756963,-5.59623 4.279466,-8.31204 1.622435,-3.68575 3.915006,-7.0717 5.120075,-10.92792 -6.466226,-3.13906 -12.750222,-6.61319 -19.181178,-9.81103 m 553.132759,3.02737 c -3.97379,3.35068 -8.24738,6.33102 -12.13887,9.77576 1.23446,5.25527 2.95095,10.38123 4.29122,15.61299 0.67014,2.18676 1.14041,4.46758 2.27494,6.47799 2.98622,-7.77711 5.70791,-15.64827 8.20035,-23.60173 0.77595,-4.08548 2.62764,-7.91231 2.95683,-12.09184 -2.15737,0.79946 -3.75629,2.51007 -5.58447,3.82683 m -20.44503,6.87183 c 0.59371,2.32197 1.97513,4.31474 2.95095,6.47799 2.20439,4.1325 3.87385,8.58832 6.56616,12.43866 -0.8171,-5.7373 -2.86278,-11.22772 -4.4617,-16.78279 2.86865,-2.54534 5.77846,-5.04366 8.89988,-7.27745 1.8752,-1.28736 3.63284,-2.76284 5.06717,-4.53811 -6.47211,2.95683 -12.69732,6.4192 -19.02246,9.6817 m -36.7752,10.99259 c 4.67332,18.33469 9.75225,36.56945 14.4432,54.90414 1.93987,6.11352 3.00974,12.48569 5.26116,18.4934 3.65636,-5.61973 7.62427,-11.05136 10.79272,-16.9709 6.9894,-11.29238 12.93833,-23.21375 18.18185,-35.40553 1.35203,-3.17433 -0.33507,-6.44859 -0.99345,-9.56414 -0.96405,0.0412 -2.04567,0.59372 -2.93331,0.0941 -3.65048,-6.86008 -6.84832,-13.96117 -10.53995,-20.79186 -11.3688,3.2096 -22.87868,5.92542 -34.21222,9.24083 M 41.162741,512.2327 c -2.604125,4.90845 -4.837913,10.01677 -7.641903,14.81941 -0.87588,-0.12932 -1.75176,-0.25864 -2.633518,-0.37033 -0.723042,2.86865 -1.710611,5.67264 -2.245544,8.58832 -0.658379,3.48001 1.763516,6.34866 3.056761,9.35251 2.821626,6.61319 6.160551,12.99712 9.669948,19.27524 5.331698,9.04684 10.528192,18.23476 17.02381,26.51153 1.775273,-3.75629 2.069193,-7.98873 3.450614,-11.88023 5.566833,-21.05638 11.221842,-42.08925 16.759283,-63.15151 -4.626291,-1.66359 -9.452447,-2.67467 -14.172793,-4.00906 -6.601429,-1.69886 -13.179344,-3.5094 -19.792531,-5.14947 -1.775273,1.55189 -2.339598,4.01494 -3.474127,6.01359 m 123.340329,14.84881 c -0.83473,0.27628 -1.59892,0.7054 -2.35723,1.14628 0.9523,7.01292 2.06919,14.00232 3.32129,20.97409 5.37284,0.18811 10.73393,-0.49379 16.1009,-0.55257 6.45447,0.047 12.87367,-0.72304 19.32226,-0.71716 1.83994,0.047 3.79156,-0.54669 5.56683,0.047 1.35791,2.84514 1.59892,6.05474 2.74521,8.98218 2.61588,9.7111 5.39048,19.37517 8.00049,29.08626 0.54081,1.56365 2.43365,1.19331 3.6975,0.91115 5.95481,-1.35791 12.05657,-1.89284 18.03489,-3.15081 0.26453,-16.64172 1.15217,-33.29519 0.55845,-49.93103 -8.86461,2.11622 -17.57638,4.82028 -26.37045,7.19515 -0.72892,0.11757 -2.13973,0.53493 -2.18088,-0.63487 -0.88763,-9.53474 -0.52317,-19.15766 -1.51074,-28.68653 -15.00753,5.02014 -29.92687,10.28718 -44.92852,15.33084 m 223.10832,-15.2603 c -0.63486,9.34664 -0.91115,18.71679 -1.36378,28.0693 -0.12345,0.38798 -0.37622,1.1698 -0.49967,1.55778 -4.47345,-0.88176 -8.7294,-2.57474 -13.17346,-3.57994 -5.07305,-1.17568 -9.94623,-3.05676 -15.06043,-4.07372 -0.52906,16.14205 0.52318,32.28998 0.58196,48.43203 -0.0764,0.67601 0.15872,1.61068 0.94642,1.74588 3.16845,0.63487 6.38393,1.01696 9.5465,1.66946 3.70926,0.2175 7.24805,1.66947 10.99259,1.49899 3.68574,-13.06765 7.18926,-26.17646 10.94555,-39.2206 7.55373,-0.435 15.0957,0.69365 22.64943,0.71716 6.19582,-0.0999 12.36813,0.84061 18.56395,0.5173 0.99932,-6.92474 2.54534,-13.79657 3.09203,-20.7801 -1.61068,-1.68122 -4.15602,-1.83406 -6.24285,-2.63352 -5.63737,-2.00453 -11.35116,-3.80331 -16.96502,-5.86663 -8.07691,-2.48655 -15.90692,-5.67852 -24.01322,-8.05339 m -94.78312,7.10109 c -6.30163,1.86345 -12.67968,3.48589 -18.98719,5.31995 2.62764,0.58196 5.3317,0.64662 8.01812,0.71716 12.62678,0.25865 25.26531,0.31743 37.89209,-0.17635 1.18743,-0.0999 2.34547,-0.40561 3.50352,-0.6819 -7.41265,-1.81054 -14.73712,-3.97966 -22.09686,-6.01946 -2.78636,-0.99345 -5.62562,0.1352 -8.32968,0.8406 m -209.934855,4.32064 c -1.322637,0.15872 -2.562977,0.63487 -3.803317,1.08162 -1.31088,4.99663 -2.886288,9.93448 -3.997304,14.98989 -0.05878,3.20372 0.764191,6.34866 1.163921,9.52299 3.150816,19.92773 6.195821,39.8731 9.299609,59.81259 5.172981,0.12345 10.281304,-1.19919 15.383746,-1.95162 19.3928,-2.86866 38.72681,-6.09589 58.11961,-8.92339 3.55643,-0.82298 7.27745,-0.79947 10.72218,-2.09271 -2.43365,-16.49476 -5.21413,-32.93661 -7.60075,-49.43724 -1.14041,-5.69616 -1.58717,-11.51576 -2.95095,-17.15901 -6.91299,1.96338 -13.59671,4.67919 -20.43328,6.90122 -6.14879,2.09859 -12.3211,4.11487 -18.42286,6.3663 -0.51142,-0.74068 -1.12278,-1.42257 -1.41082,-2.2867 -2.52183,-7.04818 -4.69683,-14.23157 -7.44204,-21.19158 -9.56413,1.32263 -19.075365,2.98034 -28.627745,4.36764 m 401.964145,-2.83338 c -1.78703,5.22588 -3.40947,10.51055 -5.33758,15.69529 -0.84061,2.09271 -1.09926,4.49697 -2.75108,6.17819 -12.95597,-4.50285 -25.92957,-8.894 -38.89142,-13.3557 -1.81054,8.0769 -2.4454,16.38307 -4.02669,24.50112 -2.21027,14.09637 -4.22656,28.22802 -6.58967,42.28912 2.59237,0.93466 5.34933,1.13453 8.05927,1.51075 6.31926,1.19331 12.71495,1.93986 19.05773,2.99209 3.01561,0.88176 6.2017,0.70541 9.25258,1.42845 12.81489,2.11034 25.68268,3.90325 38.49756,6.01947 3.1567,0.25277 6.31339,1.47548 9.4936,0.87 1.39317,-9.65819 2.97446,-19.27523 4.50284,-28.90991 1.68122,-13.2734 4.44994,-26.39396 5.89602,-39.69675 -0.64662,-4.54987 -2.30432,-8.88224 -3.28014,-13.36157 -0.28804,-1.19919 -0.67601,-2.84514 -2.18088,-2.91568 -9.58765,-1.49311 -19.18705,-2.93332 -28.75707,-4.56163 -1.14629,-0.28216 -2.72757,-0.0882 -2.94507,1.31676 m -241.9368,6.76014 c -0.60547,10.7163 -0.49378,21.45024 -0.9523,32.17242 0.13521,22.14388 -0.91115,44.26426 -0.9523,66.40814 2.5042,0.41737 5.04366,0.25865 7.57137,0.27629 7.83589,0.16459 15.67766,0.22337 23.51943,0.29392 11.95076,0.45851 23.9074,0.67013 35.86992,0.51729 15.59536,-0.67013 31.22011,-0.58196 46.82135,-0.87 0.32919,-0.0588 0.97582,-0.17635 1.30501,-0.23513 -0.14109,-11.15718 -0.0999,-22.31436 -0.61724,-33.45979 -0.0705,-6.27224 -0.006,-12.54447 -0.34682,-18.80496 -0.047,-5.49629 0.0941,-10.9867 -0.14696,-16.47712 -0.40561,-9.93447 0.0118,-19.90422 -0.82885,-29.81518 -19.9101,-0.37034 -39.80256,1.04048 -59.70678,0.6525 -17.18841,0.1352 -34.34742,-1.04635 -51.53583,-0.65838 M 73.005967,547.42073 c -0.646623,2.03392 -1.24034,4.09723 -1.598922,6.20757 0.84061,-0.11756 1.681219,-0.2175 2.527707,-0.30567 0.04115,-2.01041 -0.123446,-4.03845 -0.928785,-5.9019 m 450.108133,5.91366 c 0.85237,-0.0235 1.71062,-0.0353 2.57474,-0.0412 -0.32331,-1.93399 -0.79358,-3.83859 -1.36379,-5.70792 -0.80534,1.80467 -1.15804,3.77393 -1.21095,5.74907 m -336.84336,-2.18089 c -4.90845,-0.11756 -9.76988,0.66426 -14.67245,0.77007 -1.91636,0.0647 -3.82684,0.22338 -5.7138,0.54081 0.42912,4.25596 1.58717,8.4061 1.89284,12.67969 1.83406,9.72285 2.96271,19.5809 4.77325,29.30964 8.49427,-1.26386 17.01206,-2.44541 25.47106,-3.96204 5.47278,-1.23446 11.19245,-1.26385 16.57705,-2.9098 -0.55257,-4.56163 -2.46892,-8.77643 -3.35656,-13.26164 -2.29257,-7.97697 -4.42055,-15.99509 -6.71312,-23.96619 -6.08413,0.31156 -12.1565,0.88176 -18.25827,0.79946 m 196.05598,36.45776 c 5.55508,1.51075 11.40995,1.54602 17.00618,2.9392 8.38846,1.3579 16.80043,2.66291 25.2124,3.90912 1.5519,-7.21278 2.10446,-14.59603 3.61521,-21.82057 0.17047,-2.53946 0.63487,-5.02602 1.21095,-7.49494 0.31155,-4.28535 1.61068,-8.41786 1.85757,-12.7032 -4.35001,-0.56432 -8.74704,-0.58196 -13.11468,-0.99933 -5.13771,-0.52905 -10.31657,-0.0941 -15.46016,-0.50554 -3.34481,-0.27628 -6.70724,-0.22925 -10.04617,-0.59371 -3.52703,12.39752 -6.97764,24.81267 -10.2813,37.26897 M 70.337179,557.33757 c -1.804665,5.84311 -3.127302,11.82143 -4.814399,17.69982 -1.363786,6.16055 -3.53879,12.14475 -4.620413,18.36408 1.463718,3.9444 4.902575,6.6367 7.024673,10.17549 9.910961,11.92725 20.156991,23.70166 31.872618,33.92418 2.316082,2.3102 4.649802,4.79676 7.700692,6.10764 1.88696,-0.24101 3.52703,-1.34027 5.26115,-2.05155 4.30298,-1.72825 8.47664,-3.77393 12.79138,-5.49042 1.46371,-0.56432 2.86277,-1.29912 4.13838,-2.22203 -0.54669,-1.28149 -1.28149,-2.45716 -2.04568,-3.60933 -4.4323,-7.54197 -8.65886,-15.20151 -13.29691,-22.61416 -7.81238,0.86413 -15.548342,2.31609 -23.30781,3.50352 -2.51595,-0.0647 -4.861427,1.08751 -7.359741,0.99345 -1.346151,-4.25007 -1.322638,-8.7294 -2.363112,-13.02651 -2.033922,-14.30211 -4.585142,-28.52781 -6.630821,-42.82405 -1.42257,-0.0647 -3.732776,-0.70541 -4.350007,1.06987 m 452.171451,-1.14629 c -2.0398,13.25577 -4.19129,26.48802 -6.23697,39.7379 -0.93466,5.41987 -1.49311,10.90441 -2.81575,16.25962 -10.24603,-1.36966 -20.40976,-3.37419 -30.69106,-4.58514 -5.29055,8.5413 -10.08143,17.38239 -15.34259,25.94132 1.73413,1.97514 4.4617,2.40426 6.70136,3.58582 4.80265,1.91635 9.37015,4.40291 14.30212,6.00183 2.41014,-1.31676 4.38528,-3.21547 6.26048,-5.18473 6.79542,-5.53157 12.67968,-12.04482 18.71679,-18.35821 3.82095,-4.41467 7.94758,-8.57657 11.38056,-13.31455 3.57993,-4.27358 7.10697,-8.62947 10.16961,-13.29103 1.28736,-1.64007 0.35858,-3.72102 -0.047,-5.49629 -2.85102,-10.32833 -5.3846,-20.75071 -8.3767,-31.03789 -1.31088,-0.42912 -2.67467,-0.48203 -4.02082,-0.25865 m -347.55379,40.8254 c -0.99344,0.32919 -2.58649,-0.0353 -2.93919,1.24622 4.46758,27.65194 8.86461,55.32739 13.44975,82.96756 3.39771,0.30568 6.66609,-0.87588 10.01677,-1.2227 17.00618,-2.68055 33.97708,-5.47866 50.97738,-8.21211 2.89217,-0.67601 6.00771,-0.5173 8.74116,-1.81642 4.0267,-2.16325 7.64191,-4.99075 11.59806,-7.26569 0.80534,-0.42912 1.61656,-1.19919 1.4696,-2.19264 -0.33507,-2.41601 -0.48791,-4.85554 -0.99933,-7.23629 -1.37554,-7.98873 -2.52183,-16.02449 -4.05021,-23.98382 -5.79021,-0.83473 -11.66272,-0.28804 -17.4882,-0.57021 -2.26318,-0.21162 -4.53811,-0.19986 -6.80717,-0.14696 -0.98757,-2.3925 -0.42912,-5.01426 -0.46439,-7.51257 -0.0118,-11.35117 0.64074,-22.70234 0.41736,-34.04763 -1.05811,0.0294 -2.11622,0.0412 -3.16257,0.18811 -20.26868,3.19785 -40.50209,6.5544 -60.75902,9.80515 m 183.35279,-10.23427 c -0.0882,13.90827 0.5702,27.84004 0.15284,41.73655 -8.12981,0.24102 -16.2655,0.2998 -24.40119,0.45852 -0.87,2.34547 -0.76419,4.88494 -1.39905,7.2892 -1.3873,8.18271 -2.79224,16.37718 -3.86798,24.60105 0.75243,2.05156 3.26838,2.55122 4.8144,3.88561 4.15014,2.34548 7.79474,6.24873 12.84427,6.3663 18.56395,2.93331 37.09851,6.00771 55.65658,8.97042 3.1802,0.39385 6.31338,1.43432 9.55238,1.1404 4.5969,-27.82828 9.04683,-55.67421 13.52029,-83.52013 -3.38008,-0.91115 -6.86008,-1.29324 -10.29894,-1.85757 -18.86374,-3.02149 -37.69222,-6.21345 -56.5736,-9.07035 M 154.5216,601.14919 c -12.29171,1.85757 -24.56578,3.92676 -36.87513,5.64913 0.19987,2.14561 1.72237,3.79156 2.68643,5.63737 3.19784,5.10244 6.06649,10.40475 9.17028,15.56597 1.305,2.43366 2.99798,4.66744 3.92676,7.29508 -7.62426,3.93264 -15.80698,6.71312 -23.37834,10.7457 1.86932,1.85169 3.60933,3.88561 5.88426,5.26703 5.14947,3.89737 10.17549,8.01224 15.70118,11.39232 3.59757,2.66291 7.31859,5.20825 11.19832,7.44203 1.17568,-6.15467 1.21095,-12.47393 2.08683,-18.67563 0.44676,-2.45129 0.11169,-5.00839 0.92879,-7.38914 3.83271,0.61723 7.57136,1.6871 11.38643,2.39839 6.70724,1.65182 13.53205,2.7452 20.22166,4.46169 0.10581,-2.86277 -0.71717,-5.62561 -1.0875,-8.43548 -1.14629,-6.8836 -1.95751,-13.82009 -3.32717,-20.66254 -1.19919,-7.60663 -2.32784,-15.23678 -3.5917,-22.83165 -5.03777,0.20574 -9.95798,1.42257 -14.9311,2.13973 m 273.19218,-2.18088 c -0.94054,3.8621 -1.1698,7.85352 -1.89872,11.76265 -1.21682,8.46488 -2.80399,16.85922 -4.09135,25.31234 -0.5173,4.9496 -1.8223,9.81691 -1.96339,14.80178 10.45766,-2.23967 20.90355,-4.52048 31.35532,-6.8013 0.2469,0.94642 0.54082,1.88697 0.64663,2.86866 0.77594,7.30095 1.25209,14.63718 2.37486,21.89699 6.81893,-3.89737 13.13232,-8.58245 19.46922,-13.20286 4.109,-3.37419 8.57657,-6.31339 12.28583,-10.16373 -1.23446,-0.77595 -2.53358,-1.45196 -3.89149,-1.97514 -6.17231,-2.49243 -12.12711,-5.47278 -18.32293,-7.91819 0.25865,-1.29912 0.79358,-2.50419 1.51074,-3.60345 2.55122,-3.81507 4.69096,-7.87704 7.01292,-11.82731 2.45129,-4.35001 5.33758,-8.47076 7.45967,-12.99712 -2.41014,-0.85236 -5.0025,-0.75243 -7.45967,-1.37554 -12.55036,-1.96338 -25.10659,-3.86798 -37.64519,-5.91954 -2.26318,-0.41148 -4.53812,-0.84649 -6.84245,-0.85824 M 266.30502,629.2714 c 0.18811,3.40946 0.75243,6.78953 1.50486,10.12258 0.2469,2.21027 0.50555,4.42643 1.09338,6.58379 0.67602,4.49109 1.22271,9.00569 2.12798,13.46151 2.5571,-0.65838 4.32649,-2.88629 6.88947,-3.5094 2.98034,4.36177 5.84312,8.80583 8.62947,13.28516 4.13251,-0.25277 8.01812,-1.91048 12.00367,-2.90392 3.96203,1.16392 7.95346,2.49831 12.07421,2.92155 2.38662,-3.94439 4.92609,-7.78886 7.34798,-11.70974 0.44676,-0.76419 1.2521,-1.66947 2.23967,-1.34028 2.02216,0.86413 3.67399,2.36312 5.50217,3.56231 1.88696,-5.51981 1.83994,-11.44522 3.18021,-17.08848 0.57608,-4.46169 1.73412,-8.85285 1.89284,-13.36157 -13.28516,-0.45851 -26.58207,0.55257 -39.8731,0.12345 -8.20623,0.0118 -16.41834,-0.52318 -24.61281,-0.14696 M 147.9319,647.54142 c -0.39973,6.2311 -1.21095,12.42692 -1.78115,18.64625 -0.14109,2.21027 -1.29913,5.34345 1.19331,6.66021 9.04096,5.59035 18.49341,10.51644 28.21626,14.81354 4.62041,2.58061 9.74636,3.9973 14.50786,6.26048 4.3794,1.9046 9.02332,3.08616 13.41448,4.9496 2.0398,0.55257 4.41467,1.84582 6.39568,0.44088 5.22001,-3.1802 10.2813,-6.6073 15.44253,-9.88157 4.93197,-3.36243 10.15785,-6.30163 14.96637,-9.82866 -0.29392,-1.27561 -0.62311,-2.53946 -1.15804,-3.7269 -2.0927,0.41737 -4.23244,0.52906 -6.3369,0.85825 -9.09974,1.80466 -18.3582,2.65703 -27.44031,4.50872 -5.02015,0.63487 -9.98151,1.64595 -14.99577,2.31021 -2.45129,0.27628 -4.87318,1.05811 -7.36562,0.68777 -0.31743,-2.39838 -0.48203,-4.82028 -1.15216,-7.15988 -1.29325,-7.71244 -2.18089,-15.49543 -3.67987,-23.17848 -7.18927,-1.66946 -14.3903,-3.2919 -21.61484,-4.77913 -2.86277,-0.58196 -5.67852,-1.48723 -8.61183,-1.58129 m 289.62227,2.18089 c -6.19582,1.47547 -12.44454,2.70993 -18.64624,4.19129 -1.85169,10.08731 -2.81575,20.33334 -5.00251,30.36775 -0.82297,0.047 -1.64595,0.0529 -2.46304,0.0176 -6.73076,-0.96993 -13.42036,-2.20439 -20.14524,-3.13906 -8.18859,-1.73412 -16.54766,-2.44541 -24.75977,-4.01494 -2.73345,-0.64662 -5.54919,-0.88763 -8.32967,-1.15804 -1.1698,1.04635 -1.80467,3.76805 -0.0176,4.72623 8.20623,5.09068 16.21847,10.48704 24.39531,15.63063 2.45129,1.55189 5.29055,4.33237 8.38846,2.83338 6.12528,-2.61 12.62678,-4.26183 18.61685,-7.2069 4.63217,-1.54014 8.85873,-4.01494 13.37921,-5.83136 6.27224,-3.08028 12.56212,-6.15467 18.59922,-9.66407 3.10967,-1.71649 6.284,-3.3742 9.09975,-5.56684 0.88175,-0.64662 0.51142,-1.89871 0.52905,-2.80986 -0.83473,-6.86008 -1.18155,-13.76719 -2.22791,-20.59787 -3.8621,0.44087 -7.61839,1.44608 -11.41583,2.22203 m -189.61914,28.29855 c -10.0109,6.44272 -20.01004,12.89719 -29.99742,19.38105 -1.94574,1.33439 -4.24419,2.26906 -5.71967,4.19129 5.65501,1.46372 11.15718,3.51527 16.90625,4.64392 7.79474,1.46372 15.46016,3.65636 23.35483,4.61454 6.32514,0.95818 12.7032,1.54601 19.05773,2.28081 3.70926,-0.19986 6.31339,-3.21548 9.28198,-5.07305 -0.40561,-0.79946 -0.8171,-1.59304 -1.22859,-2.37486 5.37873,-5.41988 11.0161,-10.60462 16.23023,-16.17145 -0.0823,-2.09858 -1.88108,-3.59757 -2.75108,-5.39636 -5.48454,-8.16508 -10.49293,-16.63584 -16.19496,-24.64808 -9.78164,5.95481 -19.2576,12.42691 -28.9393,18.55219 m 63.92158,-6.06649 c -3.42122,5.86663 -7.53609,11.29826 -10.91029,17.20016 5.31995,5.66677 11.15131,10.83975 16.50652,16.48888 -0.34683,0.87 -0.67014,1.75763 -0.96994,2.65703 2.23967,1.44608 4.36177,3.13906 6.77778,4.29122 6.04886,0.40561 12.02719,-1.02872 18.0349,-1.51074 7.43616,-1.05224 14.77239,-2.72758 22.10861,-4.33238 7.09522,-1.31088 14.01996,-3.42122 20.83889,-5.74906 -3.54467,-3.2096 -8.02988,-5.12007 -11.80968,-8.01224 -16.9474,-10.87502 -33.85952,-21.80294 -50.71873,-32.8014 -0.59372,-0.15872 -1.19331,-0.28804 -1.78703,-0.3821 -2.79811,3.97967 -5.33758,8.12393 -8.07103,12.15063 m -23.37835,-0.0118 c 1.84582,3.13318 3.86798,6.16643 5.83137,9.22907 1.55189,1.86933 2.30432,4.32649 4.25595,5.86075 1.74588,-1.68122 2.95095,-3.80331 4.23832,-5.83136 1.72824,-3.22135 4.16777,-6.00183 5.82548,-9.26434 -2.65116,-0.81121 -5.34346,-1.45784 -8.02988,-2.08682 -0.58196,1.50486 -1.17568,3.00973 -1.92811,4.44993 -0.91703,-1.40493 -1.54602,-2.95095 -2.14561,-4.50284 -2.70994,0.60547 -5.38461,1.35791 -8.04752,2.14561 m -46.26878,3.39771 c 0,0.3527 0,1.06987 0,1.42845 0.26452,0.25865 0.79946,0.7877 1.06398,1.05223 1.52839,-0.95818 3.08616,-1.87521 4.39116,-3.13906 -1.85169,-0.10581 -3.68575,0.1352 -5.45514,0.65838 m 107.23354,-0.63487 c 1.38142,1.24034 3.01562,2.1221 4.59102,3.09791 0.41737,-0.65838 0.8171,-1.33439 1.17568,-2.02216 -1.74588,-1.05811 -3.7798,-1.24622 -5.7667,-1.07575 m -60.48861,25.51221 c -1.96926,2.02804 -4.1325,3.89149 -5.83136,6.16055 5.32582,-3.0744 10.40475,-6.60143 15.46016,-10.10495 2.79812,2.13973 5.849,3.92088 8.74704,5.91366 2.08095,1.58128 4.34413,2.9098 6.67785,4.08547 -4.88494,-5.34933 -10.09907,-10.41062 -15.36022,-15.38961 -3.48589,2.83338 -6.46623,6.21933 -9.69347,9.33488 m -4.99663,9.14677 c -1.89284,1.3579 -4.03257,2.43365 -5.56683,4.22656 13.36158,1.10513 26.82308,0.97581 40.17878,-0.11169 -1.55777,-1.47548 -3.30365,-2.71582 -5.10832,-3.85035 -4.88494,-3.36831 -9.81103,-6.67197 -14.83705,-9.82866 -5.13771,2.79223 -9.72285,6.46035 -14.66658,9.56414 z" />
</svg>
