<?xml version="1.0" encoding="UTF-8" standalone="no"?>
<svg
   xmlns:dc="http://purl.org/dc/elements/1.1/"
   xmlns:cc="http://creativecommons.org/ns#"
   xmlns:rdf="http://www.w3.org/1999/02/22-rdf-syntax-ns#"
   xmlns:svg="http://www.w3.org/2000/svg"
   xmlns="http://www.w3.org/2000/svg"
   xmlns:sodipodi="http://sodipodi.sourceforge.net/DTD/sodipodi-0.dtd"
   xmlns:inkscape="http://www.inkscape.org/namespaces/inkscape"
   id="svg3270"
   version="1.1"
   viewBox="0 0 210 297"
   height="297mm"
   width="210mm"
   sodipodi:docname="alpaca.svg"
   inkscape:version="0.92.4 (5da689c313, 2019-01-14)">
  <sodipodi:namedview
     pagecolor="#ffffff"
     bordercolor="#666666"
     borderopacity="1"
     objecttolerance="10"
     gridtolerance="10"
     guidetolerance="10"
     inkscape:pageopacity="0"
     inkscape:pageshadow="2"
     inkscape:window-width="1029"
     inkscape:window-height="520"
     id="namedview9"
     showgrid="false"
     inkscape:zoom="0.2102413"
     inkscape:cx="396.85039"
     inkscape:cy="561.25984"
     inkscape:window-x="0"
     inkscape:window-y="0"
     inkscape:window-maximized="0"
     inkscape:current-layer="svg3270" />
  <title
     id="title4113">Alpaca</title>
  <defs
     id="defs3264" />
  <metadata
     id="metadata3267">
    <rdf:RDF>
      <cc:Work
         rdf:about="">
        <dc:format>image/svg+xml</dc:format>
        <dc:type
           rdf:resource="http://purl.org/dc/dcmitype/StillImage" />
        <dc:title>Alpaca</dc:title>
        <dc:date>2020-04-11</dc:date>
        <dc:creator>
          <cc:Agent>
            <dc:title>Public domain</dc:title>
          </cc:Agent>
        </dc:creator>
        <dc:source>http://www.supercoloring.com/coloring-pages/cartoon-alpaca-0</dc:source>
        <dc:subject>
          <rdf:Bag>
            <rdf:li>csk</rdf:li>
            <rdf:li>animals</rdf:li>
            <rdf:li>alpaca</rdf:li>
            <rdf:li>acb</rdf:li>
          </rdf:Bag>
        </dc:subject>
      </cc:Work>
    </rdf:RDF>
  </metadata>
  <g
     id="layer1">
    <g
       style="fill:#000000;fill-opacity:1"
       transform="translate(5.3632179,11.889073)"
       id="g4047">
      <path
         id="path4087"
         d="M 69.376348,2.0449196 C 64.27854,2.0895763 59.539334,5.0540495 56.863555,9.3311498 55.649279,8.9671652 54.364632,7.3708491 52.968431,6.6980425 45.95931,2.1126814 35.331073,4.3333072 31.158345,11.73599 c -0.925646,1.387163 -1.234273,3.060647 -2.030738,4.501851 -5.437225,-3.470475 -12.266943,-5.743049 -18.693542,-4.071032 -1.5944385,0.403032 -2.9481415,1.677064 -3.7190205,2.962876 0.696041,5.583472 2.67017,11.003612 5.5619835,15.836699 0.739663,1.559146 2.187533,2.562671 3.170477,3.905846 0.596609,1.852196 0.01076,3.915142 0.427001,5.859544 -0.08285,3.597519 2.172257,6.588394 3.140468,9.901945 -0.154681,1.091134 -1.5075,1.66589 -1.765883,2.820514 -1.752981,4.623547 -1.009694,10.055271 1.389083,14.315544 0.399538,1.1573 1.997709,1.823073 1.905245,3.092532 -2.023963,3.061942 -3.387352,6.862962 -2.321092,10.531825 0.508072,2.655759 2.353691,4.84463 2.853975,7.473811 -1.154559,2.362966 -2.819327,4.542624 -3.595815,7.118476 -1.736435,4.541109 -1.816386,9.690429 -0.05091,14.235009 0.45401,2.62254 -1.783098,4.72609 -2.053519,7.28766 -0.907136,3.9645 -0.371341,8.19707 1.522427,11.79729 -0.01942,1.07698 -1.696523,1.67307 -2.239157,2.72059 -3.443852,4.49094 -3.189957,10.80102 -0.920963,15.75756 -0.211851,2.53199 -2.263363,4.46622 -3.110374,6.82168 -2.0965355,4.24137 -1.9798455,9.4397 0.49968,13.49806 0.535277,1.13212 1.687658,2.2958 0.669787,3.52316 -3.7498055,5.86819 -3.8160135,13.80162 -0.183589,19.75361 1.284712,2.27788 3.679542,4.19521 3.355251,7.08819 0.0065,5.73688 3.535261,11.20512 8.370138,14.12715 0.871864,0.7197 2.306984,0.39986 2.977719,1.22072 1.376937,5.23862 1.253904,10.77034 1.975338,16.1491 1.144701,10.10818 1.597329,20.29898 3.06015,30.36668 0.522289,1.19154 -0.10592,2.9231 0.820713,3.88015 2.016629,1.47488 4.891422,1.13146 7.303187,1.14979 3.196839,-0.19588 6.702781,0.603 9.642249,-0.94355 0.835406,-1.18695 0.546085,-2.86394 1.023417,-4.24416 1.487478,-11.47826 2.086504,-23.06979 3.634345,-34.53747 1.266008,-0.58552 2.714482,-1.82222 3.954256,-1.78972 2.068063,2.08394 4.474771,3.77078 6.908656,5.36722 1.083242,1.53903 0.448599,3.70584 0.852407,5.48967 1.10023,11.75663 2.115036,23.53703 3.781952,35.2273 0.69532,1.25244 2.603179,0.92403 3.831061,1.17148 4.15752,0.16978 8.357746,0.0898 12.484489,-0.43457 1.726093,-0.51058 1.511092,-2.71917 1.780833,-4.16405 1.42232,-10.49954 1.877148,-21.12059 3.406477,-31.59638 0.03932,-0.8845 0.656201,-1.481 1.573018,-0.9465 5.869104,1.06686 12.515155,0.55331 17.212055,-3.49351 1.32054,-0.84504 2.19121,-2.60023 3.71332,-2.97585 1.27163,2.18961 1.02229,4.93049 1.4414,7.39494 0.97452,8.70879 1.26217,17.49804 2.53298,26.16927 0.35398,1.01833 0.39475,2.31061 1.0669,3.13602 2.38429,1.92566 5.72172,0.92977 8.52955,1.14304 2.64673,-0.11516 5.74873,0.65575 7.97886,-1.15307 0.57273,-0.75784 0.61666,-1.90634 0.97415,-2.81897 1.34777,-7.91253 1.60395,-15.97273 2.52667,-23.94261 0.49562,-3.31616 0.29676,-6.8386 1.50033,-9.98324 1.21995,0.3094 2.80921,1.16039 2.90234,2.65664 1.35806,9.10654 1.78225,18.33191 2.66871,27.49417 0.31268,4.06466 0.63069,8.17968 1.68581,12.10972 0.19094,0.68663 1.47167,0.85599 2.24818,1.21677 3.60441,0.43679 7.2707,0.0133 10.89747,0.18055 1.53419,-0.22942 3.82527,-0.058 4.45486,-1.83055 1.82956,-10.63465 2.32276,-21.45706 3.50293,-32.18087 0.40723,-4.2404 0.81448,-8.48078 1.22174,-12.72119 2.97692,-2.51076 5.09158,-6.06598 5.33,-10.00227 0.0227,-1.46826 -0.0231,-3.42199 1.70011,-3.89298 2.12974,-1.55554 3.56026,-3.90222 4.85397,-6.15609 2.80477,-5.60525 2.81167,-12.45107 0.0995,-18.09562 -0.54501,-1.44746 1.28377,-2.5812 1.97077,-3.82419 4.21218,-6.61603 4.59841,-15.4851 0.78509,-22.37767 -1.29407,-1.96669 -1.37756,-4.33337 -0.6895,-6.52826 0.49698,-2.14805 0.17064,-4.36192 0.18316,-6.50221 1.38653,-1.63022 3.7298,-2.27091 4.9108,-4.1795 2.72017,-3.36734 2.78952,-8.39303 0.27501,-11.90018 -0.0754,-1.18856 1.66437,-1.81296 2.26349,-2.80334 2.02386,-2.03939 1.94375,-5.53103 -0.1672,-7.47787 -1.85315,-2.30823 -5.14486,-2.76628 -7.00115,-4.98928 0.0727,-4.4557 -4.60107,-7.53937 -8.7492,-7.09925 -2.08819,-0.19265 -4.38506,0.56714 -5.5407,2.38575 -2.92286,0.94417 -6.06374,0.16633 -9.01598,1.13173 -3.77738,0.83448 -7.52122,3.1069 -8.97962,6.83039 -1.44958,1.53455 -3.82491,0.62118 -5.64851,1.37014 -1.80468,0.3765 -3.51814,1.07437 -5.26236,1.65439 -2.74074,-3.51897 -6.89043,-5.9953 -11.40695,-6.12265 -3.59863,-0.28906 -7.02324,1.16776 -10.09813,2.88295 -2.56249,-3.7735 -6.98845,-6.11519 -11.56222,-5.98051 -0.93126,0.1577 -1.51222,-0.44186 -0.9317,-1.29375 1.691,-5.9423 -0.20754,-12.405297 -4.05556,-17.10286 -0.94342,-1.260981 0.86061,-2.675477 0.98643,-4.116854 0.92343,-4.253025 1.07235,-8.828332 -0.2084,-13.021211 -0.79264,-1.236301 -1.25219,-2.734609 -0.39687,-4.071378 2.79978,-5.611344 3.21484,-12.332827 1.54714,-18.338337 -0.34229,-1.436436 -1.54907,-2.774391 -1.57791,-4.1545 1.66076,-3.19358 3.55432,-6.529455 3.26579,-10.269769 0.0173,-2.389868 -0.38114,-5.314948 1.95452,-6.840634 4.69449,-4.799843 7.63178,-11.412511 7.9231,-18.128279 0.10068,-2.428721 -0.74729,-5.8480675 -3.67114,-6.0557537 -5.38329,0.2515016 -10.6892,1.8475377 -15.616531,3.8918877 -1.22634,0.05329 -1.71757,-1.553342 -2.82723,-1.968801 C 90.893341,9.2331207 86.851995,8.5548994 83.295019,9.6725472 81.739217,8.6307511 81.057127,6.6210044 79.467798,5.5409803 76.697995,3.1594825 73.015825,1.9355431 69.376348,2.0448766 Z m 0.835019,4.7380355 c 4.885012,-0.077447 8.455855,4.0770729 10.486092,8.0836439 1.081687,1.588657 3.173225,0.830356 4.335568,-0.238579 2.514859,-2.080313 6.068766,-0.337212 7.618762,2.073583 2.38667,3.027315 2.88427,6.975035 3.52398,10.668923 0.98787,3.330204 4.462601,5.21269 5.295081,8.656609 1.68802,4.496349 0.0732,9.649174 -3.231531,12.965546 -1.41119,2.151872 1.1232,4.265581 1.770361,6.379052 2.08261,5.572879 1.79536,12.564741 -2.108151,17.32448 -1.16505,0.938654 -2.61042,2.736529 -1.32552,4.159438 1.0069,0.795171 2.4266,1.154021 2.86512,2.549619 1.907061,4.347301 0.877411,9.493913 -1.61875,13.388 -0.20667,0.98974 -1.57313,2.145378 -0.32218,2.799352 2.33828,2.315462 4.556541,4.917478 5.149401,8.282078 0.87943,3.38919 0.0462,7.02966 -1.67922,10.0678 -0.53228,1.26914 -1.416851,3.62606 0.3615,4.33024 1.84939,0.84315 3.71037,-0.89238 5.563,-0.89411 3.76689,-0.46007 8.06973,1.42572 9.09255,5.34006 -0.22362,1.29828 0.86156,2.74904 2.25867,2.24192 3.18702,-1.0249 5.125,-4.50483 8.67613,-4.73758 4.09568,-1.17119 7.60101,2.09198 10.22361,4.78198 0.88209,0.86891 1.72863,2.31975 2.68228,2.74936 4.36375,-2.56336 9.7495,-4.51106 14.6433,-2.3534 4.31662,1.52641 6.85105,5.46915 8.74583,9.4047 1.55393,2.14477 4.58998,1.34311 6.72578,2.47384 5.21957,1.84009 8.92095,6.97531 9.1483,12.48944 0.34068,2.91607 -1.14913,5.69559 -1.49051,8.4493 3.58593,5.10378 5.92312,11.83325 3.65609,17.95696 -0.9813,3.25983 -3.42407,5.70562 -5.55465,8.22596 -0.56327,1.60313 1.18238,2.97332 1.60423,4.40135 3.08978,5.86241 1.34497,13.6031 -3.94252,17.65429 -1.36276,1.4152 -4.0223,2.40566 -3.57143,4.80175 0.72505,3.30476 -0.23625,7.60535 -3.64997,9.00115 -1.95871,0.3342 -3.43639,-1.34812 -4.21404,-2.91863 -1.16893,-1.64297 -3.95077,-0.91145 -4.17953,1.08696 0.22111,3.56753 -2.713,6.94416 -6.29433,7.18509 -4.20948,0.54484 -8.36925,-1.50251 -11.6589,-4.04796 -1.16071,-1.03432 -3.41209,-1.89849 -4.53623,-0.37904 -0.6593,1.37857 -0.21358,3.16204 -1.58757,4.2224 -2.17089,2.30054 -5.40333,3.84521 -8.58863,2.92813 -4.48793,-0.69015 -7.60312,-4.23377 -11.06023,-6.82499 -0.86094,-0.6129 -2.73587,-0.76245 -3.12041,0.45484 -2.56971,3.88409 -6.43743,7.43007 -11.268131,7.77037 -6.03075,0.72372 -12.434263,-2.59881 -14.818934,-8.28987 -0.8118,-1.63788 -3.303241,-1.41348 -4.236994,-0.0194 -2.804831,2.62989 -6.565264,4.67865 -10.485455,4.07826 -3.899455,-0.16116 -7.693322,-2.45099 -9.326672,-6.08028 -0.558477,-1.3815 -2.271845,-2.51414 -3.61541,-1.3679 -2.765977,2.7916 -6.705088,4.32356 -10.643272,3.94426 -6.158378,-0.49679 -12.123955,-4.42733 -14.796046,-10.10816 -0.71235,-1.6645 -2.342708,-2.6109 -4.112194,-2.69317 -4.628702,-0.80758 -7.985916,-5.14308 -8.108582,-9.76397 -0.248136,-2.39995 0.658417,-5.56742 -1.682265,-7.28209 -5.494438,-5.1445 -5.871367,-14.65233 -0.782635,-20.1918 0.403506,-0.91316 1.66891,-1.78697 0.31663,-2.50056 -1.267474,-2.47228 -3.749157,-4.43472 -3.730152,-7.44937 -0.372765,-4.08562 2.176638,-7.51403 4.197258,-10.79931 1.965587,-3.76242 -1.583373,-7.51029 -1.449294,-11.24865 0.04163,-4.10512 3.751359,-6.70159 6.237487,-9.47494 -1.993825,-3.58106 -3.922241,-7.69319 -2.738018,-11.7938 0.433775,-2.72042 2.511607,-4.95433 2.694547,-7.67004 -0.579328,-2.24552 -1.806288,-4.31274 -1.74584,-6.70235 -0.177116,-4.29663 0.776854,-9.142767 4.178403,-12.063597 0.511956,4.822537 0.169566,9.727687 0.220414,14.579297 0.236789,1.56308 -0.646142,3.76813 0.282438,4.93449 0.985921,0.75864 2.586098,1.38248 4.067947,1.54438 3.718892,0.68901 7.586035,1.07297 11.258693,-0.0893 3.345955,-0.92903 6.804327,-1.00005 10.241923,-0.76212 3.736086,0.0365 7.470725,-0.41429 11.129797,0.61316 4.656329,0.97658 9.657927,1.1434 14.237081,-0.28136 0.759292,-0.3447 1.591163,-0.91486 2.07803,-1.4359 -0.46499,-8.59869 0.529892,-17.318226 -0.936449,-25.83957 -0.753221,-1.459456 -2.950347,-1.092494 -4.372362,-1.301 -5.585898,-0.05393 -11.150024,1.552458 -15.899256,4.473525 -4.490158,2.004505 -9.817166,1.227391 -13.814806,-1.515395 -4.720345,-2.185461 -10.100726,-3.495607 -15.304205,-2.729648 -1.148411,0.0645 -1.867968,1.023783 -2.830265,1.437085 -1.567343,-2.217995 -2.820019,-4.793134 -2.286533,-7.580858 0.03969,-2.561462 1.384057,-4.766964 3.181739,-6.483854 1.223637,-1.205645 -0.104844,-2.70048 -1.113615,-3.483915 -3.052578,-2.419251 -5.165703,-6.498092 -3.963079,-10.405167 0.706806,-2.510637 2.288128,-4.765024 3.761175,-6.879099 -3.14502,-4.968995 -5.905906,-11.043474 -4.009786,-16.977749 1.285618,-5.129677 5.940531,-8.643321 10.692093,-10.443763 2.181125,-1.47214 1.323392,-4.42999 2.402468,-6.521758 1.583695,-4.590173 6.284732,-7.9514436 11.097023,-8.1416122 4.305771,0.00432 7.848171,3.0083102 10.095915,6.4381622 0.605842,1.309737 2.61971,1.979674 3.510601,0.556289 1.792929,-2.762633 3.225597,-5.964154 6.18843,-7.7213203 1.578384,-1.0220133 3.491317,-1.4367384 5.308825,-1.4593041 z M 111.32856,17.155331 c -0.51882,4.386024 -2.2664,8.715699 -5.27427,11.984441 -1.43592,1.293708 -3.52837,0.367048 -4.23634,-1.226312 -2.023101,-2.736615 -1.887521,-6.220272 -3.010051,-9.324453 -0.11278,-1.670076 2.061871,-2.251972 3.323551,-2.729951 3.06733,-0.882886 6.19195,-1.765191 9.41673,-1.673634 -0.0732,0.989977 -0.14649,1.979954 -0.21962,2.969909 z M 14.805375,16.095134 c 4.165977,0.535104 8.603562,1.464956 11.979977,4.187312 -3.696542,2.234023 -6.846761,5.28028 -9.145979,8.936781 -0.667779,1.461268 -1.542275,-0.686311 -1.944357,-1.330296 -1.281972,-2.784163 -2.813741,-5.562567 -3.489417,-8.550749 -0.122112,-1.535694 0.594344,-3.870163 2.599776,-3.243048 z M 33.14324,29.293613 c -5.452846,0.1577 -9.673769,5.443848 -9.477193,10.739165 -0.02956,4.306504 2.212644,9.018669 6.295454,10.811625 0.857129,0.527404 2.080422,0.172155 2.826102,0.694554 0.310915,2.720133 -0.444065,5.509647 0.309923,8.215175 1.505082,8.288461 8.90112,14.301198 16.746767,16.401445 11.102487,3.296616 24.434906,-0.151876 31.40277,-9.705762 3.005485,-4.048704 3.9422,-9.439677 2.644396,-14.265365 -0.1323,-1.489096 1.717937,-0.622605 2.546274,-1.108155 4.864384,-1.584732 7.231676,-7.281156 6.835446,-12.083544 -0.30671,-4.923566 -4.407498,-9.429905 -9.456437,-9.587648 -4.279938,-0.420787 -8.447846,2.477132 -9.653306,6.587535 -0.465308,0.987799 -0.19222,2.203497 -0.630989,3.136025 -3.508054,-1.557161 -7.068776,-3.20027 -10.959903,-3.521755 -6.47989,-0.824143 -13.038884,0.657575 -18.922031,3.365671 -0.734958,-3.243977 -2.113708,-6.690612 -5.194008,-8.377947 -1.594526,-0.940206 -3.465189,-1.393829 -5.313265,-1.301019 z m 0.606467,1.833902 c 4.488109,0.01942 7.30912,4.55449 7.810376,8.596916 0.229756,2.002174 0.0065,3.418871 2.104475,1.680624 9.200019,-5.324614 21.201336,-5.315035 30.246924,0.304442 0.660637,0.594712 1.773261,0.233402 1.557423,-0.758085 -0.537065,-4.560595 2.909302,-9.281458 7.597564,-9.614313 4.32089,-0.430149 7.935701,3.544018 8.26313,7.70348 0.836441,4.897656 -2.811365,10.323681 -7.963236,10.470487 -0.966615,0.127717 -1.739841,-0.228698 -1.885185,0.779271 0.08156,1.729337 1.08526,3.350873 0.906429,5.157183 0.27087,8.082737 -5.951251,15.001747 -13.094425,17.92728 C 58.792639,77.809623 45.082894,75.308177 38.085983,65.88604 34.656476,61.398966 33.929867,55.415009 35.532309,50.071821 35.203036,49.269532 33.24554,49.674894 32.25703,49.292874 26.928684,48.365826 24.068,41.971268 26.107994,37.169333 c 1.213497,-3.126208 4.067946,-6.144722 7.641713,-6.041818 z m 0.268675,2.856197 c -4.29697,0.05113 -7.715495,4.53132 -6.644403,8.695678 0.738885,2.388811 2.697245,4.573621 5.103703,5.338934 4.57725,1.081641 9.408135,-3.153948 8.78264,-7.847304 -0.395438,-3.474574 -3.727197,-6.381102 -7.24194,-6.187308 z m 48.80729,0.0412 c -4.158556,0.205809 -7.5988,4.521009 -6.384627,8.622114 0.874112,4.220962 6.11203,6.992267 9.947992,4.723966 3.881058,-1.933093 5.151924,-7.557015 2.235993,-10.849963 -1.353274,-1.757598 -3.595523,-2.708808 -5.799358,-2.496117 z m -46.336846,4.826099 c 1.370876,0.319154 0.660013,2.964451 -0.584161,1.743597 -0.556312,-0.537585 -0.244706,-1.736285 0.584161,-1.743597 z m 48.505201,0.0065 c 1.452633,0.277628 0.23575,3.083019 -0.686752,1.657758 -0.297516,-0.608367 -0.152955,-1.638083 0.686752,-1.657758 z m -28.616605,9.466036 c -2.299886,0.08651 -5.232388,1.63847 -4.820532,4.326653 0.308153,2.263514 3.13967,3.306691 2.809383,5.812731 0.206888,2.061782 -1.949903,4.631399 -4.021198,3.191769 -0.899952,-0.741387 -1.353897,-2.498834 -2.8417,-2.272034 -1.041667,0.409548 -1.322162,1.720276 -0.486067,2.51618 1.292974,2.688118 5.218601,4.21238 7.629892,2.022301 0.894041,-0.32431 1.342894,-1.539749 2.033456,-1.806029 1.698832,2.402574 5.169245,3.5915 7.790436,1.944271 1.5653,-0.792538 2.631047,-3.187347 1.26534,-4.576386 -1.321528,-0.783412 -1.9024,1.095988 -2.438149,1.880716 -2.305902,1.978618 -5.508975,-1.241629 -4.622076,-3.743592 0.70219,-2.227465 3.42193,-3.781777 2.78483,-6.412512 -0.523197,-2.144687 -3.153064,-2.871556 -5.083615,-2.884068 z M 33.336105,87.984755 c 3.799769,0.310763 7.888901,1.62022 10.445962,4.584175 0.633458,0.885843 0.398115,2.199937 0.02568,3.099241 -1.381381,-0.451681 -3.621832,-1.840397 -4.694564,-0.08479 -0.863558,2.179679 1.690785,3.499965 3.11596,4.571919 0.43399,0.43464 1.916572,1.11513 0.71906,1.59645 -1.53438,1.0413 -4.477084,1.96801 -3.943145,4.37684 0.562264,1.37568 2.32573,1.832 3.510168,0.91058 0.479834,-0.24906 1.727806,-1.06703 1.612475,0.10615 0.13958,0.77644 0.715586,1.88518 -0.636563,1.93756 -4.266831,1.12177 -9.015654,1.89664 -13.312213,0.57303 -1.67398,-4.96179 -0.89307,-10.337539 -0.96698,-15.491054 0.147131,-2.04105 -0.0065,-4.320937 1.038345,-6.097649 1.01498,-0.09492 2.063615,-0.182511 3.085844,-0.08241 z m 40.825113,0.152739 c 1.032061,3.35907 0.315807,7.015809 0.610919,10.487212 -0.144122,3.692014 0.474687,7.559154 -0.613164,11.132704 -3.703568,0.46911 -7.618153,0.33814 -11.317763,-0.19739 -1.464481,-0.55856 -3.429374,-1.69197 -2.760319,-3.55185 -0.05473,-1.65899 1.650551,-0.66955 2.416962,-0.24417 1.437171,0.99971 3.96979,0.7519 4.212938,-1.31437 0.13505,-1.9871 -2.450104,-2.49465 -3.743006,-3.37335 -2.462856,-0.6351 -0.948471,-1.390233 0.570206,-2.145083 1.454943,-0.863406 3.593119,-2.619236 2.68673,-4.52843 -1.436414,-1.578215 -3.786908,-0.06084 -5.219456,0.745164 -1.194819,1.261391 -1.570649,-1.503184 -1.13284,-2.294774 1.901098,-2.697913 5.333239,-3.96405 8.435931,-4.57192 1.922643,-0.205377 3.912326,-0.168704 5.852862,-0.143894 z m -22.771543,5.909724 c 1.45348,-0.111538 2.985939,0.43645 3.53623,1.940928 1.727094,2.786234 0.805353,6.258334 0.514782,9.257194 -0.04379,1.59073 -0.980182,3.30727 -2.793483,3.09848 -2.519954,-0.14993 -3.977576,-2.97377 -4.522885,-5.14048 0.01288,-2.96959 -0.635312,-6.419851 1.729122,-8.721333 0.314107,-0.509518 1.028442,-0.370263 1.536234,-0.434789 z M 176.36112,112.58686 c 2.84497,0.42081 3.55426,3.81043 3.62542,6.22521 0.0839,1.48832 1.54573,3.24301 3.12712,2.38463 1.5687,0.0734 3.79239,0.62933 3.85509,2.59421 0.3837,2.08014 -1.58972,3.33042 -3.22839,4.02616 -1.36511,0.54826 -1.85547,2.27948 -0.82291,3.38414 1.5459,2.0424 4.191,4.29578 3.07581,7.16947 -0.76241,1.70803 -2.36698,3.5972 -4.31439,3.61538 -0.46085,-2.73819 -3.17846,-4.37613 -5.1807,-6.00082 -2.64716,-2.02833 -5.75244,-3.31595 -8.9353,-4.21549 -2.03322,-1.05129 -2.34346,-3.67346 -3.98789,-5.15807 -2.05129,-2.58267 -4.92393,-4.26923 -7.79254,-5.76838 -0.67222,-0.71867 0.69187,-1.6661 1.14829,-2.22297 2.61236,-1.96196 5.91236,-3.21281 9.18731,-3.05019 1.50036,0.0397 1.13627,1.81227 2.33225,2.33447 1.44673,1.18768 3.73274,-0.10052 3.50278,-1.95096 0.72071,-1.69085 2.48843,-3.31538 4.40805,-3.36679 z M 33.768649,221.83808 c 3.952272,3.23853 9.098042,4.58384 14.092584,4.8049 1.227888,1.43806 0.427777,3.65464 0.508742,5.38038 -0.8773,9.44615 -1.781308,18.93221 -2.667064,28.35331 -2.797582,0.73483 -5.949419,0.3101 -8.814957,0.24636 -1.596791,0.36928 -1.398122,-1.23023 -1.473822,-2.29653 -0.984564,-12.61557 -2.524854,-25.22706 -3.322181,-37.83067 0.5589,0.4474 1.117799,0.89483 1.676698,1.34225 z m 129.233451,2.17838 c 1.40561,0.21098 0.65511,2.21044 0.89441,3.28095 -0.30363,12.99429 -1.99659,25.91287 -3.01817,38.86522 -3.28317,0.5207 -6.82702,0.57064 -10.01008,-0.52732 -0.80109,-6.0974 -1.18786,-12.50899 -1.85467,-18.7253 -0.45767,-5.34993 -1.134,-10.76937 -1.53106,-16.07191 1.93135,-0.63574 4.14494,-0.11609 6.09813,-0.90969 2.87419,-0.79091 5.1671,-2.83705 7.05466,-5.02901 0.70745,-0.39614 1.52982,-0.97959 2.36678,-0.88294 z m -81.125164,2.51839 c 1.881559,0.38216 2.641435,2.66112 4.044614,3.8261 0.649586,3.35199 -0.430387,6.78308 -0.495873,10.15817 -0.828816,8.5629 -1.488178,17.15818 -2.533111,25.68701 -3.143511,-0.0941 -6.361355,0.56127 -9.466026,0.001 -1.04197,-1.1447 -0.506021,-3.0814 -0.902351,-4.53255 -0.968142,-10.13511 -2.054744,-20.31607 -2.736462,-30.44303 2.021895,-1.3669 4.804609,-1.03486 7.05354,-2.07582 1.822435,-0.5847 3.420226,-1.65193 5.035669,-2.62097 z m 37.284424,4.87404 c 3.4746,0.99964 7.13203,2.68267 10.78485,1.40086 1.32172,-0.29663 2.72384,-1.05135 3.98555,-1.11434 0.29777,4.89517 -0.72932,9.78478 -1.00529,14.67111 -0.50924,4.80297 -0.79347,9.64771 -1.5276,14.40034 -3.20498,-0.0194 -6.48803,0.055 -9.64776,-0.0982 -1.31832,-9.70907 -2.07534,-19.54189 -2.80157,-29.30223 z"
         style="opacity:1;fill:#000000;fill-opacity:1;stroke-width:0.57079345" />
    </g>
  </g>
</svg>
