<?xml version="1.0" encoding="UTF-8" standalone="no"?>
<svg
   xmlns:dc="http://purl.org/dc/elements/1.1/"
   xmlns:cc="http://creativecommons.org/ns#"
   xmlns:rdf="http://www.w3.org/1999/02/22-rdf-syntax-ns#"
   xmlns:svg="http://www.w3.org/2000/svg"
   xmlns="http://www.w3.org/2000/svg"
   id="svg7418"
   version="1.1"
   viewBox="0 0 210 297"
   height="297mm"
   width="210mm">
  <title
     id="title7995">Boy Surfer</title>
  <defs
     id="defs7412" />
  <metadata
     id="metadata7415">
    <rdf:RDF>
      <cc:Work
         rdf:about="">
        <dc:format>image/svg+xml</dc:format>
        <dc:type
           rdf:resource="http://purl.org/dc/dcmitype/StillImage" />
        <dc:title>Boy Surfer</dc:title>
        <dc:date>2020-04-06</dc:date>
        <dc:creator>
          <cc:Agent>
            <dc:title>Public domain</dc:title>
          </cc:Agent>
        </dc:creator>
        <dc:source>http://www.supercoloring.com/coloring-pages/boy-surfer-0</dc:source>
        <dc:subject>
          <rdf:Bag>
            <rdf:li>csk</rdf:li>
            <rdf:li>beach</rdf:li>
            <rdf:li>boy</rdf:li>
            <rdf:li>surf</rdf:li>
          </rdf:Bag>
        </dc:subject>
      </cc:Work>
    </rdf:RDF>
  </metadata>
  <g
     id="layer1">
    <path
       id="path7977"
       transform="scale(0.26458333)"
       d="m 228.43359,186.83398 c -38.9849,0 -58.88157,2.6063 -84.53125,11.07032 -43.70882,14.42328 -72.125573,42.34356 -83.365231,81.91406 -5.680837,20.00002 -9.753115,66.43713 -9.755859,111.23437 -0.0025,41.44241 1.706369,51.83532 5.902344,35.88477 1.661159,-6.31472 1.903621,-5.79439 3.046875,6.55469 1.576679,17.03078 10.413551,35.29499 24.960937,51.58789 6.007733,6.72862 11.29873,11.85948 11.75586,11.40234 0.457133,-0.45713 -1.459889,-5.01258 -4.257813,-10.12304 -8.408693,-15.35883 -9.15196,-21.27265 -1.300781,-10.34766 16.764128,23.32743 39.489258,42.97437 64.373048,55.65234 13.32308,6.78796 14.12158,7.5346 8.11328,7.59961 -10.71969,0.11569 -32.96684,11.25338 -40.33594,20.19336 -3.60672,4.3756 -15.67522,28.05676 -26.818357,52.62305 -26.969628,59.45764 -37.011645,76.90563 -55.371094,96.21875 -16.706957,17.5748 -20.550295,24.62765 -17.621093,32.33203 4.445704,11.6931 29.110508,25.47102 48.345703,27.00781 l 8.990234,0.71875 9.103516,-22.16406 c 11.512621,-28.02728 18.258181,-42.76335 19.160151,-41.86133 0.38764,0.38763 -0.20355,5.45405 -1.3125,11.25781 -1.10888,5.80377 -1.78582,14.01748 -1.5039,18.25391 0.43763,6.57668 -1.83421,11.05162 -15.546876,30.60742 -51.09978,72.87406 -75.428064,129.68458 -75.533203,176.38477 -0.04612,20.48515 5.372862,35.89161 16.308593,46.36914 12.645365,12.11558 23.910554,16.57062 51.927735,20.53322 9.782317,1.3836 15.347448,3.2773 17.238281,5.8672 2.39935,3.2863 7.20061,4.0005 34.10156,5.0722 50.60926,2.0164 59.21097,0.1975 64.18946,-13.5703 2.24506,-6.20858 3.95897,-7.46989 12.98242,-9.55271 14.22267,-3.28301 16.40625,-3.0489 16.40625,1.75 0,2.28151 3.02083,7.58971 6.71484,11.79691 l 6.7168,7.6504 40.24804,-0.8477 c 22.13682,-0.4655 41.91928,-1.6044 43.96094,-2.5313 5.66721,-2.5726 6.7468,-11.0595 3.63086,-28.56831 -5.08623,-28.58041 -6.62907,-25.86335 22.20899,-39.14453 143.67364,-66.16819 299.55549,-196.9939 378.88086,-317.98243 66.91473,-102.05964 70.08857,-180.58892 8.56054,-211.76757 -74.52276,-37.76353 -234.70326,8.38293 -396.51953,114.23242 -29.86639,19.53664 -30.2505,19.71183 -36.30664,16.58008 -3.36646,-1.74089 -10.20369,-3.17629 -15.19531,-3.19141 l -9.07617,-0.0273 16.70312,-7.29102 c 20.67077,-9.02385 33.90339,-17.74198 52.95313,-34.88672 20.75437,-18.67889 32.17655,-36.33434 43.19531,-66.76758 l 4.6914,-12.95703 12.9961,-2.70117 12.99414,-2.70312 -11.4707,-1.79493 c -6.30977,-0.98672 -11.71906,-2.03936 -12.01954,-2.33984 -0.30026,-0.30036 0.44488,-4.79359 1.65626,-9.98633 3.7304,-15.99123 -1.15192,-86.32296 -7.83594,-112.87109 -16.73481,-66.46652 -75.42558,-102.3711 -167.33985,-102.3711 z m 1.84375,4.73438 c 87.61317,0.256 146.88047,37.70584 161.29493,103.43555 7.23386,32.98657 10.26636,109.27656 4.57031,114.97265 -1.74286,1.74287 -7.83591,-9.81384 -15.41016,-16.59765 4.2939,10.71799 3.62323,18.09357 13.05078,23.48047 l -7.38867,-0.006 c -3.29681,-0.003 -5.73438,-0.21842 -7.65039,-0.83204 5.7908,7.97901 14.77862,3.62757 13.05664,10.625 -0.76116,3.0327 -4.06479,11.3452 -7.3418,18.47071 L 378.5,458.07227 377.69727,439.59766 c 0.48621,-17.51893 -2.92494,-23.31107 -6.64454,-33.75 -6.10822,-19.39185 -14.38574,-32.26177 -24.76367,-48.70313 -9.86795,-15.66194 -18.21188,-28.21879 -18.54297,-27.9043 -1.69127,1.60666 9.36265,25.81675 19.82813,43.42774 11.37922,19.14864 19.82226,36.22317 19.82226,40.08203 0,2.46981 -19.85239,-3.58333 -32.11132,-9.79102 -14.37999,-7.28175 -23.84784,-16.37123 -32.42188,-31.12304 -7.34581,-12.63863 -7.50645,-12.76425 -6.20703,-4.90235 1.67012,10.10473 13.85932,32.54018 21.61523,39.78516 3.21972,3.0076 8.7047,7.05551 12.1875,8.99414 6.27961,3.49542 6.19903,3.51561 -9.5,2.54688 -25.30993,-1.56178 -38.14351,-7.57519 -57.52148,-26.95313 -11.47584,-11.47585 -16.87476,-15.60503 -17.67578,-13.51758 -2.35858,6.14635 16.39783,28.96581 32.31445,39.31446 l 10.16602,6.60937 -9.49805,-1.37109 c -13.34366,-1.92726 -32.79014,-11.53348 -46.4375,-22.93946 -7.91649,-6.61632 -12.28133,-9.0071 -13.7207,-7.51562 -2.81329,2.91515 17.3928,21.37331 35.11914,32.08203 l 13.42969,8.11328 -15.73243,-1.42383 c -35.19512,-3.1844 -70.9365,-19.20868 -94.1914,-42.23047 -17.14531,-16.9734 -23.5826,-28.85121 -26.39453,-48.70703 -1.09322,-7.71953 -2.89736,-15.59312 -4.00977,-17.49804 -2.43028,-4.16171 -2.28864,-5.30567 -3.08594,25.03125 -0.61945,23.56979 -4.42186,38.99976 -15.41601,62.56054 l -5.77344,12.37305 -1.07422,-15.67578 -1.07422,-15.67578 -7.621091,7.23242 c -13.635481,12.94061 -17.708985,23.46308 -17.708985,45.75391 0,10.73869 -0.12029,19.52546 -0.267578,19.52539 -0.147273,-4e-5 -2.359441,-4.86172 -4.916015,-10.80469 -4.83823,-11.24674 -5.01321,-23.23023 -1.128907,-77.84766 1.430196,-20.11005 -2.307881,-15.52858 -6.357422,7.79102 -1.515338,8.72625 -3.917427,16.95446 -5.33789,18.28515 -3.383906,3.17001 -1.243831,-53.86022 3.330078,-88.75195 5.43066,-41.42743 14.079457,-60.50156 37.095703,-81.81055 23.621817,-21.86963 56.404067,-33.61524 104.724607,-37.51757 9.65188,-0.77948 19.0186,-1.14953 28.08203,-1.12305 z m -100.06054,169.40625 4.39062,8.44336 c 14.55009,27.98008 51.41415,52.55157 94.5332,63.01172 6.96562,1.68979 23.8258,3.70652 37.4668,4.48242 21.25835,1.20918 24.80078,0.9599 24.80078,-1.75195 0,-1.74017 -1.66172,-3.598 -3.69336,-4.12891 -2.03164,-0.53095 1.76798,-1.07639 8.44336,-1.21094 12.16816,-0.24548 15.95849,-2.96885 7.75586,-5.57226 -8.21628,-2.60776 -2.69439,-3.11019 9.47071,-0.86133 8.92072,1.64904 15.86838,1.57277 26.21484,-0.28906 7.74247,-1.39325 17.83325,-2.64317 22.42383,-2.77735 7.986,-0.23331 8.43003,0.1029 10.26172,7.77735 3.21402,13.46615 -0.0926,33.66164 -7.29102,44.52929 -20.29532,30.64037 -60.29173,57.3965 -97.18945,65.01758 -8.06731,1.66628 -12.05572,3.45055 -11.41992,5.10742 1.26284,3.29091 -5.27842,24.7645 -10.85938,35.64844 -2.38524,4.65173 -9.603,13.43842 -16.03906,19.52539 -6.43609,6.08697 -12.47192,11.05198 -13.41211,11.0293 -2.49223,-0.0552 -25.2318,-39.51888 -29.11719,-50.53125 -2.51684,-7.13344 -2.7891,-10.89111 -1.13476,-15.63672 1.1977,-3.43574 1.93415,-6.38461 1.63867,-6.55273 -0.29547,-0.16831 -7.3795,-2.92911 -15.74219,-6.13672 -27.04052,-10.37175 -51.62861,-29.01237 -69.32422,-52.55274 -11.800317,-15.69789 -22.064452,-35.38447 -22.064452,-42.31836 0,-9.97992 9.933807,-30.98047 14.654297,-30.98047 0.936121,0 1.288303,8.78674 0.783203,19.52539 -0.863074,18.34927 -0.710466,19.27015 2.548828,15.30274 9.048504,-11.01438 22.604854,-43.02727 29.943364,-70.71289 z m 14.66406,36.89844 c -3.22182,-0.0499 -6.61754,1.20933 -9.66992,4.26172 -5.06063,5.06063 -5.41744,12.12856 -0.93555,18.52734 2.29563,3.27745 5.43948,4.69141 10.43359,4.69141 4.99412,0 8.13797,-1.41396 10.4336,-4.69141 7.49562,-10.7015 -0.59626,-22.6394 -10.26172,-22.78906 z m 526.82617,11.35742 c 19.976,-0.054 38.61507,1.59475 49.32617,4.96484 15.52286,4.88402 38.97266,19.84224 38.97266,24.85938 0,1.60267 -98.81993,75.16277 -219.59961,163.46875 -120.77972,88.30601 -220.37839,160.55664 -221.33008,160.55664 -0.95169,0 -2.38036,-7.78455 -3.17383,-17.29883 -0.79344,-9.51428 -2.22496,-18.29906 -3.18164,-19.52344 -0.95669,-1.22434 -2.36987,-9.35158 -3.14062,-18.05859 -0.77074,-8.70701 -4.15626,-34.82814 -7.52344,-58.04688 -3.36716,-23.21873 -6.73506,-50.76446 -7.48437,-61.21289 L 293.20898,569.94336 315,554.8457 c 104.41458,-72.33959 207.48356,-120.66585 299.35938,-140.36132 16.05822,-3.44247 37.37165,-5.19991 57.34765,-5.25391 z m -456.80078,37.3457 c -1.08419,-0.008 -1.59766,0.61354 -1.59766,1.84571 0,3.099 6.62025,8.9099 13.62891,11.96289 3.53326,1.53909 9.275,2.81508 12.75781,2.83398 8.02642,0.046 23.93282,-7.08283 25.6211,-11.48242 2.15047,-5.60402 -0.76086,-5.98005 -7.75196,-1.00195 -10.33703,7.36056 -22.52041,7.81209 -32.21093,1.19531 -5.24597,-3.58198 -8.64028,-5.34047 -10.44727,-5.35352 z m 550.3418,0.56055 c 1.1797,0.38385 4.25371,5.85069 6.83007,12.14844 6.17042,15.08284 6.51198,43.18547 0.79688,65.53125 -23.9723,93.73081 -123.98674,214.97795 -263.38086,319.29882 -45.72729,34.22177 -85.82674,59.03887 -137.58398,85.14649 -23.63901,11.92411 -44.23445,21.67969 -45.76758,21.67969 -3.47589,0 -4.15184,-2.36645 -8.14844,-28.4961 -2.49529,-16.31406 -9.69922,-78.86856 -9.69922,-84.22461 0,-0.53272 2.13789,-1.27143 4.75,-1.64258 4.6387,-0.65874 4.77386,-1.43738 5.80469,-33.38671 L 319.9043,770.48047 541.50391,608.45898 C 663.38337,519.34746 764.06831,446.75287 765.24805,447.13672 Z m -603.76172,98.53125 c 7.69824,0 13.2161,5.02588 19.70508,17.94336 2.33274,4.64375 10.03867,18.25679 17.125,30.25195 12.29074,20.80479 12.94786,22.63183 14.25586,39.64844 1.80501,23.48262 6.23871,23.10749 5.47461,-0.46289 l -0.54102,-16.66797 8.67969,-6.10352 c 12.10559,-8.51108 26.03063,-28.26961 31.49414,-44.6875 3.91895,-11.77656 7.98872,-16.99725 13.83398,-16.93554 0.20777,-0.0454 0.52609,-0.10995 0.69141,-0.1543 2.58852,-0.69449 9.78568,1.26365 19.25586,2.43164 9.47018,1.16799 2.20984,3.94598 1.73633,8.93359 -0.35183,3.70594 -2.31853,4.30221 -6.61524,7.57032 0.67375,4.69821 1.18195,10.65408 1.64649,18.33789 1.22658,20.28873 4.04938,45.11667 6.38086,56.13086 0.65661,3.10216 -1.83443,7.30699 -8.36719,14.125 -11.46925,11.96995 -23.47644,19.69161 -38.93555,25.03711 -6.95489,2.40486 -14.38107,3.96569 -22.04297,4.70507 v 6.61329 c 0.0681,-0.0109 0.11433,-0.0204 0.1836,-0.0312 26.57269,-4.23723 44.7574,-12.48577 61.11718,-27.72071 5.06571,-4.71741 9.44201,-8.43113 10.16797,-8.65039 0.0484,-0.0146 0.0788,-0.0152 0.0937,0.002 0.24127,0.27516 1.9716,11.7467 3.84375,25.49023 3.6994,27.15727 4.41853,46.60007 1.66211,44.89648 -0.95737,-0.59168 -10.44438,1.7231 -21.08398,5.14453 -52.97914,17.03717 -103.85892,16.22632 -143.63672,-2.28906 -14.2231,-6.62044 -19.28711,-7.67062 -19.28711,-4.00195 0,3.20288 28.09048,15.6347 44.32617,19.61719 7.54609,1.85102 20.64318,4.00082 29.10547,4.77929 l 15.38672,1.41602 6.26172,-0.11133 20.00781,-2.51953 c 21.08039,-2.65342 54.96642,-10.94462 64.82227,-15.86133 l 5.83984,-2.91406 v 8.86719 c 0,16.13707 -9.04696,23.02469 -40.10547,30.53125 -20.02463,4.8398 -52.63886,8.13347 -53.01367,5.35351 4.39475,-8.67815 -3.85796,-22.65221 -5.21875,-13.63086 -0.77389,5.34354 -1.8173,10.42814 -2.31836,11.29883 -1.46731,2.54978 -11.20507,1.6322 -27.04688,-2.54883 -32.06024,-8.46138 -57.45535,-20.64607 -62.43945,-29.95898 -3.63669,-6.79521 -1.32773,-26.5551 6.54297,-55.99414 l 6.87305,-25.70703 10.79101,8.06054 c 19.07736,14.24826 39.38734,22.48768 65.43555,26.54493 l 2.1289,0.33203 0.67383,-6.83203 c -13.41847,-0.9893 -26.97146,-4.32243 -39.50586,-9.94727 -11.84556,-5.31575 -38.01816,-23.49846 -37.96093,-26.37109 0.0174,-0.87311 3.85928,-18.209 8.53906,-38.52539 4.67978,-20.31636 9.3808,-42.02544 10.44726,-48.24219 2.39513,-13.9618 4.95023,-17.19336 13.58985,-17.19336 z m -21.5,10.55469 c 3.76572,0 2.83278,5.5193 -11.06055,65.43554 -8.21992,35.44917 -10.47423,41.96839 -24.45508,70.71094 -8.470448,17.41406 -18.387745,39.26136 -22.039059,48.54883 -3.651311,9.28751 -7.280457,17.50957 -8.064453,18.27148 -2.658067,2.5832 -26.710861,-6.49295 -34.669922,-13.08203 -11.724978,-9.70681 -10.733993,-14.01887 7.386718,-32.11914 17.692286,-17.67231 28.937497,-36.88783 52.181641,-89.16406 8.259195,-18.57498 17.031405,-38.26818 19.492185,-43.76172 5.12277,-11.43625 16.5771,-24.83984 21.22852,-24.83984 z m 76.87695,129.90039 c -2.20208,0.012 -5.14383,4.01821 -5.08203,7.60156 l -1.14648,16.73633 c -0.87418,12.7539 -0.50729,16.73633 1.54296,16.73633 2.95092,0 5.2938,-10.86149 5.33008,-24.70704 3.01998,-12.39705 1.55755,-16.3792 -0.64453,-16.36718 z m -106.32617,62.20898 c 0.0629,0.0134 0.11554,0.0413 0.16016,0.0859 0.60816,0.60816 0.0437,15.3165 -1.25586,32.68555 -1.29956,17.36897 -1.67165,36.98343 -0.82618,43.58789 1.30131,10.16519 2.24497,12.11008 6.15039,12.66601 4.19939,0.59777 4.55452,1.69841 3.96485,12.26563 -0.73589,13.1876 -6.51395,65.97307 -7.28711,66.57031 -0.27928,0.21573 -16.659072,12.2211 -36.400391,26.67969 -19.741319,14.45862 -38.384712,27.92088 -41.429688,29.91601 l -5.537109,3.62891 -3.324219,-8.30859 c -11.318739,-28.28833 -2.098349,-73.70513 26.25,-129.3086 15.794016,-30.97896 55.572387,-91.31439 59.535157,-90.46875 z m 196.66601,5.90235 1.39063,4.95117 c 0.76497,2.72296 1.48587,19.334 1.60156,36.91406 0.17988,27.32689 -0.27442,32.1488 -3.1289,33.24414 -3.58806,1.37703 -58.32078,1.17397 -70.53907,-0.26172 -4.06327,-0.47747 -8.18624,-1.64656 -9.16211,-2.59765 -2.01722,-1.96608 -7.68288,-42.50994 -6.27929,-44.9336 0.50425,-0.87073 6.32086,-1.59205 12.92773,-1.59961 22.812,-0.0281 60.46685,-11.50037 68.98633,-21.01953 z m -186.28124,1.45898 c 1.53743,-0.18009 9.65148,2.99156 18.84374,7.40234 10.86268,5.21227 26.33479,10.38465 39.60157,13.24024 l 21.77343,4.68554 -1.44921,23.1875 c -0.79624,12.75323 -1.93503,23.67785 -2.53125,24.2754 -1.77181,1.77571 -77.64012,2.65705 -79.36328,0.92187 -3.07131,-3.09267 -0.4166,-70.30608 2.9082,-73.63086 0.0424,-0.0424 0.1143,-0.07 0.2168,-0.082 z m 90.13671,29.5332 c 0.0516,-0.0136 0.10264,-0.005 0.15235,0.0254 0.83779,0.5178 2.7313,11.43659 4.20898,24.26563 1.47769,12.829 3.54265,23.854 4.58789,24.5 1.04523,0.64599 -2.35158,4.42227 -7.54883,8.39062 -5.19724,3.96843 -9.9827,7.21485 -10.63281,7.21485 -2.45654,0 -0.9165,-11.78135 2.05274,-15.70703 1.70448,-2.25351 3.10496,-7.95198 3.11328,-12.66407 0.0251,-14.31892 2.46752,-35.60294 4.0664,-36.02539 z m 25.83594,52.73828 30.95117,0.79102 c 17.02288,0.43457 31.52857,1.7082 32.23438,2.83008 0.70581,1.12184 1.91937,11.09355 2.69726,22.16015 1.78425,25.38293 8.58505,72.32034 15.19922,104.90039 6.33593,31.20949 6.38392,34.72402 0.50586,36.89842 -2.52337,0.9335 -20.36708,1.9152 -39.65234,2.1817 -33.60609,0.4644 -35.23651,0.294 -39.21094,-4.0938 -3.85792,-4.259 -4.19458,-8.42464 -4.85156,-59.76952 -0.38839,-30.35497 -0.0686,-66.60035 0.71094,-80.54492 z m -45.74805,0.43555 1.34571,19.85938 c 2.22025,32.73732 1.98236,131.06457 -0.33789,139.41796 -1.17434,4.22787 -3.30698,8.63067 -4.73828,9.78317 -1.4313,1.1526 -5.45274,2.4984 -8.93555,2.9922 -9.65267,1.3686 -67.18517,-1.2312 -70.18359,-3.1719 -3.74966,-2.4262 -3.32775,-8.70704 2.54882,-37.93159 6.70831,-33.36083 13.32773,-79.48655 15.11133,-105.31055 0.77544,-11.22716 2.00097,-21.37211 2.72461,-22.54297 0.76318,-1.23488 14.15623,-2.33088 31.89063,-2.61132 z m 35.39844,0.66797 c 0.95564,0 -0.69979,146.25279 -1.66797,147.36133 -0.31759,0.36363 -5.42483,1.94099 -11.34961,3.5039 l -10.77148,2.8418 -0.0137,-49.94141 c -0.007,-27.46718 -0.61079,-57.62107 -1.3418,-67.00976 l -1.32812,-17.07031 12.79101,-9.8418 c 7.03493,-5.41323 13.1912,-9.84375 13.68164,-9.84375 z M 109.2168,926.44141 c 0.0528,-0.005 0.0876,0.002 0.10742,0.0215 0.6353,0.6353 -2.06571,18.03855 -6.00391,38.67383 l -7.160154,37.51948 -6.332031,0.4063 c -15.002797,0.9654 -48.77176,-10.77107 -55.980469,-19.45703 -1.510509,-1.82003 8.410914,-10.17313 36.119141,-30.4043 20.354785,-14.86209 37.613703,-26.61708 39.250003,-26.75976 z"
       style="fill:#000000;stroke-width:2.11079335" />
  </g>
</svg>
