<?xml version="1.0" encoding="UTF-8" standalone="no"?>
<svg
   xmlns:dc="http://purl.org/dc/elements/1.1/"
   xmlns:cc="http://creativecommons.org/ns#"
   xmlns:rdf="http://www.w3.org/1999/02/22-rdf-syntax-ns#"
   xmlns:svg="http://www.w3.org/2000/svg"
   xmlns="http://www.w3.org/2000/svg"
   id="svg1432"
   version="1.1"
   viewBox="0 0 210 297"
   height="297mm"
   width="210mm">
  <title
     id="title2026">Bunny and Eggs</title>
  <defs
     id="defs1426" />
  <metadata
     id="metadata1429">
    <rdf:RDF>
      <cc:Work
         rdf:about="">
        <dc:format>image/svg+xml</dc:format>
        <dc:type
           rdf:resource="http://purl.org/dc/dcmitype/StillImage" />
        <dc:title>Bunny and Eggs</dc:title>
        <dc:date>2020-04-05</dc:date>
        <dc:creator>
          <cc:Agent>
            <dc:title>Cute Easter</dc:title>
          </cc:Agent>
        </dc:creator>
        <dc:source>http://www.supercoloring.com/coloring-pages/cute-easter-chick-bunny-and-eggs?tag=59110</dc:source>
        <dc:subject>
          <rdf:Bag>
            <rdf:li>csk</rdf:li>
            <rdf:li>easter</rdf:li>
            <rdf:li>bunny</rdf:li>
          </rdf:Bag>
        </dc:subject>
      </cc:Work>
    </rdf:RDF>
  </metadata>
  <g
     id="layer1">
    <path
       id="path2005"
       transform="scale(0.26458333)"
       d="m 333.97461,307.60156 c -1.77002,0.0921 -3.83572,1.16186 -6.2793,3.08399 -2.107,1.65736 -4.99195,5.65169 -8.03906,10.74804 -1.58748,2.5847 -3.16854,5.4209 -4.69336,8.47461 -0.0212,0.0423 -0.0434,0.0807 -0.0645,0.12305 -4.70067,9.13907 -9.0502,19.48768 -10.82813,26.72656 -3.57149,14.54129 -3.13294,43.44115 0.89649,59.05664 6.37296,24.69767 16.1492,39.66008 46.42578,71.06055 15.32981,15.89889 29.64147,30.99774 31.80469,33.55273 l 2.97656,3.51563 c -0.7855,0.61085 -3.07491,1.06371 -5.84961,1.11719 -3.3765,-0.048 -4.8694,-0.71769 -6.19727,-3.97852 -0.0102,-0.2177 -0.0307,-0.4132 -0.0312,-0.6543 -0.006,-3.77896 -1.7286,-7.81606 -4.51758,-11.56445 -1.9136,-3.16928 -4.52258,-5.73035 -7.96874,-7.83203 -5.5186,-4.06893 -12.11887,-6.82631 -18.1836,-6.88281 -3.34587,-0.0302 -4.33313,0.54188 -4.02344,2.92968 -0.10873,0.23547 -0.1672,0.49308 -0.16992,0.77344 -0.0129,0.0382 -0.028,0.0756 -0.0371,0.11524 -0.40979,0.77907 -0.13867,1.72037 0.91407,2.64843 0.2986,2.63468 -1.62738,2.64196 -11.77149,2.06641 -8.80611,-0.49958 -16.11509,0.21808 -22.69336,2.39063 -0.008,0.003 -0.0155,0.004 -0.0234,0.008 -0.48703,0.15685 -0.9675,0.33297 -1.44726,0.51953 -5.86512,2.1693 -11.1803,5.53726 -16.49805,10.31836 l -9.82031,8.82812 -30.84766,-0.23828 c -38.08563,-0.29329 -55.16181,3.31876 -73.45312,15.53321 -21.8805,14.61123 -34.74409,36.2382 -37.80469,63.41992 -0.48315,3.84215 -0.73494,7.7464 -0.74609,11.69922 -0.23675,11.52302 1.12758,21.46703 5.60937,43.54296 3.50952,17.28688 6.38086,35.98778 6.38086,41.55665 0,4.90454 0.71685,8.98916 1.89648,11.20117 0.0491,0.28951 0.21079,0.53531 0.4629,0.74023 0.17306,0.23093 0.35292,0.43375 0.54101,0.58985 3.71334,3.08178 12.26044,0.95519 16.9375,-4.2129 4.17699,-4.6155 34.48874,-61.36177 52.375,-98.05078 2.88494,-5.91772 5.4102,-10.81456 7.78516,-14.99804 5.23948,-8.74504 8.55388,-12.82993 12.17773,-16.22852 1.08312,-1.01578 2.21874,-1.97294 3.38477,-2.89258 3.30744,-2.42883 7.02232,-4.44191 11.5664,-6.46093 4.98115,-2.21322 14.65913,-4.53152 21.50586,-5.15235 2.16517,-0.19616 3.84657,-0.32882 5.3125,-0.42187 1.69575,0.0491 3.15571,0.12326 4.25196,0.24609 1.26476,0.26835 1.76994,0.76451 1.81836,1.65625 -0.0799,0.33676 -0.21162,0.72028 -0.37891,1.15625 -4.50472,11.73918 -5.7058,24.63795 -4.44531,47.75781 0.99478,18.24609 0.70707,25.48542 -1.05469,26.57422 -1.33185,0.82315 -3.7824,4.75446 -5.44531,8.73438 -9.18749,21.98876 12.36732,46.03079 49.66797,55.40039 l 11.63086,2.92187 c 9.8e-4,1.04285 -0.87454,2.97685 -2.52735,5.67188 l -1.6543,1.88476 c -10.13648,11.54483 -16.5353,26.46695 -18.01953,38.53321 -0.35644,2.20097 -0.55468,4.31433 -0.55468,6.28906 0,0.79551 0.10686,1.63404 0.29882,2.49219 0.0751,1.04874 0.26824,1.94829 0.59571,2.78515 0.99282,4.17978 3.08526,7.31324 6.38867,8.81836 7.88612,3.59316 6.38753,9.15763 -3.66992,13.62696 -18.75298,8.33349 -28.27534,20.81207 -30.04883,39.68945 -3.8e-4,0.003 -0.002,0.004 -0.002,0.008 -0.85092,6.04985 -0.67053,12.5112 0.55859,19.2832 0.56181,4.31547 1.33988,8.23301 2.19531,10.60743 1.36513,3.78931 2.14384,5.92907 2.49805,6.89062 0.14468,0.51916 0.33216,1.17524 0.37695,1.37109 -0.0958,0.002 -4.63011,0.0957 -10.31054,0.2129 -15.50029,0.31935 -27.57581,11.19173 -33.16993,29.86328 -3.07862,10.27551 -1.19375,16.67502 6.19727,21.04101 9.94438,5.87429 25.29588,4.56108 56.19531,-4.80859 33.3107,-10.10086 44.59869,-12.00369 78.28906,-13.19141 14.19428,-0.50041 26.73558,-0.97903 27.8711,-1.06445 1.13556,-0.0854 6.4626,0.64654 11.83593,1.62695 7.95576,1.45161 11.32603,3.55272 18.15821,11.31445 14.58935,16.57444 44.12208,30.99882 74.60937,36.44141 6.05934,1.0817 20.77212,1.64428 32.69532,1.25 8.77855,-0.29027 16.9714,-1.18372 24.66992,-2.67187 1.05724,-0.19163 2.0611,-0.39255 3.00976,-0.60352 0.0643,-0.0151 0.12873,-0.0301 0.19336,-0.043 0.24492,-0.0552 0.51723,-0.10737 0.75391,-0.16406 0.18898,-0.045 0.40054,-0.10592 0.59375,-0.1543 13.71942,-3.16879 25.80024,-8.37404 36.6289,-15.76562 l 12.37696,-8.44922 11.98633,5.61523 c 8.78944,4.11818 13.32798,5.29409 24.43359,5.54883 5.22905,0.71017 9.0216,0.72511 13.75977,-0.0859 3.4128,-0.15836 6.22504,-0.47062 8.88281,-1.09961 h 0.002 c 13.75041,-2.43726 24.21524,-8.78926 37.77539,-21.98828 1.8872,-1.76738 3.72049,-3.62912 5.50586,-5.57422 24.22893,-25.76851 38.5256,-61.79482 38.83984,-98.16015 0.17462,-20.21628 -1.96122,-31.45356 -8.07812,-41.47656 -0.91816,-1.77317 -1.91196,-3.36857 -2.98633,-4.73438 -1.57973,-2.00833 -3.42407,-3.81139 -5.49805,-5.41406 -11.03397,-9.44183 -27.0907,-12.06599 -48.59765,-7.98047 l -12.33399,2.34375 c -1.30681,0.16819 -2.61075,-0.67047 -4.19336,-2.91211 l -7.95898,-16.53516 c -13.33285,-27.69513 -24.29511,-43.25883 -44.96289,-63.83593 -22.03242,-21.9357 -40.06595,-31.82168 -57.84961,-31.71094 -6.40585,0.0397 -14.20256,1.52813 -17.66211,3.36914 -19.55002,10.40368 -39.79906,43.34641 -49.87305,81.14062 -3.54187,13.28803 -4.89146,20.77958 -5.52929,36.14454 -1.05132,10.88398 -1.33273,21.79071 -0.73828,32.37304 l 0.0684,1.20508 -0.29493,20.65625 -2.63476,1.55664 -4.10352,1.93164 c -5.53459,2.60652 -6.89978,2.6763 -7.66797,0.39063 -2.11706,-6.2993 -13.814,-17.00439 -24.05664,-22.01563 -13.29044,-6.50241 -17.23245,-13.16292 -12.27148,-20.73437 1.26108,-1.92469 2.03546,-4.63922 2.38476,-7.80469 0.0915,-0.61863 0.13452,-1.30986 0.16211,-2.02344 0.40067,-8.01732 -1.68629,-18.3394 -5.90625,-26.78906 -2.69763,-5.40151 -10.80805,-15.48938 -18.02343,-22.41797 -7.21542,-6.92855 -12.84785,-12.71418 -12.51563,-12.85742 23.12561,-9.95422 39.48152,-23.00339 47.6543,-38.01953 10.85726,-19.94835 9.46793,-37.21266 -4.21094,-52.35352 -3.9851,-4.41101 -11.22712,-16.86203 -16.09375,-27.66797 -10.48547,-23.28196 -19.76845,-38.271 -27.98828,-45.1875 -5.80902,-4.8878 -5.98293,-5.58951 -5.99805,-24.26367 -0.0302,-39.86264 -13.53742,-74.87788 -41.32812,-107.125 -21.22837,-24.63243 -29.50429,-41.79641 -32.04883,-66.47461 -2.14282,-20.7822 -4.78369,-29.31344 -10.09375,-29.03711 z m -1.44141,7.56641 c 0.36911,-0.0374 0.71695,0.0125 1.04297,0.13867 0.86899,1.51707 1.78578,4.97502 2.29688,8.98242 4.89694,38.39444 11.62424,54.81967 32.4707,79.27344 21.03105,24.6703 33.67852,47.98457 39.35352,73.41406 1.63094,8.3712 2.59539,17.2445 3.01953,26.93555 0.22488,5.13963 0.3617,9.64738 0.45312,13.63281 -0.23886,7.47421 -1.01612,9.59375 -3,9.59375 -0.58862,0 -1.07485,-0.1667 -1.47461,-0.55078 -0.32655,-0.47131 -0.59359,-1.02844 -0.8125,-1.67383 -0.0382,-0.20787 -0.0694,-0.36852 -0.11133,-0.60742 -0.19124,-1.237 -0.40764,-2.90703 -0.63086,-4.77344 -0.0537,-1.25064 -0.0884,-2.62043 -0.0918,-4.26562 -0.0552,-26.67043 -11.78641,-52.69111 -39.30469,-87.18164 -19.86699,-24.90066 -31.30779,-45.15728 -39.0918,-69.21485 -5.0824,-15.70791 -7.89957,-20.91998 -8.74804,-15.38671 -0.0736,0.0197 -0.13439,0.0514 -0.20118,0.0781 -0.99811,-0.17178 -1.30693,0.30088 -0.99023,1.53516 -0.0593,0.72922 0.088,1.69599 0.44727,2.93359 0.15258,0.5256 0.32193,1.43052 0.49609,2.51758 0.0767,4.11642 0.38372,9.54572 0.93555,16.4707 3.44306,43.2076 11.91347,64.40907 36.04492,90.21289 19.33855,20.67878 32.35013,38.04741 40.33594,53.8457 2.82259,5.58399 4.47741,8.93655 5.22851,10.96094 0.37455,1.87038 -0.0646,2.66319 -1.63867,2.91797 -3.61296,-1.84834 -33.12522,-31.65708 -51.91992,-51.92578 -7.11733,-7.76598 -12.89213,-14.49404 -17.54102,-20.61914 -14.39582,-20.13094 -21.07703,-41.66629 -21.04101,-67.65039 0.0246,-17.67919 2.73734,-31.35471 9.17773,-46.27149 3.77245,-8.73744 9.90982,-18.83201 13.41016,-22.53515 0.67709,-0.45777 1.30755,-0.72872 1.88476,-0.78711 z m -5.21289,68.5918 c 1.01628,-0.21166 3.58767,3.65293 7.75391,11.55664 4.58036,8.68936 15.17264,24.01928 23.53906,34.0664 17.56449,21.09305 26.24602,34.7179 33.38672,52.39649 6.85304,16.96645 5.23723,19.31962 -3.85938,5.61914 -4.12072,-6.20629 -15.61129,-19.98156 -25.53515,-30.61133 -19.08676,-20.44441 -27.02495,-34.12097 -32.8125,-56.54102 -2.78026,-10.77025 -3.62443,-16.24632 -2.47266,-16.48632 z m 24.13672,118.9082 c 1.35421,0.14249 3.75244,1.40692 7.56641,3.73242 4.74448,2.89293 8.03524,8.67766 8.75976,14.59375 0.0166,0.16592 0.0437,0.32919 0.0566,0.49609 0.004,0.0435 0.004,0.0874 0.008,0.13086 0.0355,0.49433 0.0529,0.99211 0.0566,1.49414 5.5e-4,0.0733 0.006,0.1431 0.006,0.2168 v 1.08008 c -0.0502,0.94775 -0.16826,1.88557 -0.36914,2.80078 -0.11691,0.5328 -0.01,0.98663 0.36914,1.38477 v 1.63672 0.76171 0.27149 l 15.94726,0.0117 c 0.87878,0.0597 1.66713,0.11959 2.63477,0.17968 24.26876,1.51416 32.78741,4.98842 40.77929,16.63477 6.51746,9.49765 18.60057,33.0047 23.19141,45.11328 1.50686,3.9744 5.80112,10.47677 9.54297,14.45117 0.31786,0.33789 0.62205,0.67609 0.92773,1.01368 0.66271,0.8509 1.30223,1.62042 1.90235,2.27148 0.24529,0.26608 0.47843,0.53642 0.71484,0.80469 11.614,14.60855 11.7919,29.37614 0.79688,47.64257 -11.84138,19.67248 -41.19744,35.08277 -78.29883,41.10352 -18.10267,2.93768 -48.08111,2.42024 -60.97852,-1.05273 -33.16599,-8.93084 -52.20221,-30.28201 -42.71093,-47.90625 3.97032,-7.37246 5.15883,-7.43164 20.25195,-1.00391 6.91012,2.94285 7.92316,3.25255 10.67383,0.0644 0.60667,-0.52184 1.15956,-1.22632 1.6582,-2.08593 7.07351,-10.23565 2.50115,-40.7445 -8.05859,-52.13868 -3.89563,-4.20362 -6.02465,-5.2953 -10.46875,-4.83593 -1.1405,-0.0714 -2.27095,0.0918 -3.37891,0.49414 l -5.15039,0.83593 c -0.0441,-0.12094 -0.0865,-0.24566 -0.12305,-0.38671 l 1.08985,-7.16993 c 1.73063,-11.37985 6.34037,-21.53124 9.02343,-19.87304 1.27311,0.78682 4.93973,7.12421 8.14844,14.08398 5.13986,11.14847 5.84975,11.91782 5.9668,6.46094 0.0731,-3.40664 -2.12919,-11.05092 -4.89258,-16.98633 l -4.41602,-9.48633 c 0.28022,-0.92583 1.14584,-1.90246 2.60743,-3.20508 l 2.86132,-1.68945 c 3.34229,-1.97431 6.07618,-4.24662 6.07618,-5.04883 0,-0.14929 -0.0543,-0.32997 -0.13672,-0.52734 l 0.73828,-0.60352 -3.05664,-2.33398 c -5.05831,-5.11914 -16.57822,-13.35392 -20.77149,-14.20117 -7.66768,-1.54931 -7.14183,-5.31823 1.76758,-12.66211 0.37519,-0.30917 0.75678,-0.609 1.14063,-0.9043 0.0489,-0.0378 0.0975,-0.0747 0.14648,-0.11133 11.72374,-8.93824 27.4633,-11.37516 47.50586,-7.35351 2.9408,1.48921 4.94053,2.03464 6.13867,1.5625 0.27171,0.059 0.50459,0.0784 0.70117,0.0527 0.2809,0.079 0.59338,0.16923 0.66797,0.17188 0.0575,0.002 0.10068,-0.0572 0.13477,-0.1543 2.47825,0.30312 2.39706,-0.76116 1.41406,-4.67773 -0.9195,-3.66361 -0.90324,-5.33731 0.83789,-5.1543 z m -94.42187,28.69531 c 14.2405,-0.0979 17.16958,0.61917 18.38281,2.78711 1.08816,1.94442 4.53478,3.31055 8.34961,3.31055 3.63598,0 9.9123,2.36822 14.2539,5.37695 l 5.45508,3.7793 0.29492,0.23828 c 0.69075,0.85149 0.97414,1.57052 0.91211,2.27344 l -4.48632,3.75195 c -4.49882,3.76297 -8.84117,4.8542 -22.38477,5.625 -19.16132,1.09051 -34.43693,7.28929 -45.33984,18.37695 -0.10458,0.10281 -0.2491,0.22358 -0.33985,0.32031 -0.0882,0.0937 -0.2046,0.24341 -0.31054,0.37305 -1.44475,1.63578 -3.70529,4.96592 -6.42188,9.38086 -1.30018,1.98694 -2.55332,4.09775 -3.76758,6.33399 -3.88582,6.689 -8.22906,14.63472 -12.31054,22.66992 -22.13306,43.57323 -40.56341,78.79802 -45.3125,86.67187 -1.01286,1.24101 -1.97717,2.24596 -2.78321,2.81055 -0.32164,0.22526 -0.56644,0.37645 -0.86328,0.57812 -1.06558,0.45563 -2.24861,0.73829 -3.29883,0.73829 -1.43673,0 -2.36108,-0.32129 -2.94726,-1.34766 -0.26994,-0.80701 -0.51458,-1.7786 -0.73828,-2.91016 -0.13357,-1.24864 -0.18946,-2.81405 -0.18946,-4.83984 0,-5.00466 -2.87784,-23.35505 -6.39453,-40.77734 -10.58405,-52.43528 -6.2036,-76.23393 18.59375,-101.03125 6.6075,-6.60753 11.98785,-11.34868 17.79492,-14.78907 2.63559,-1.42639 5.37308,-2.72266 8.20899,-3.88672 10.46472,-3.81214 23.93802,-4.88655 47.27539,-5.46875 7.61564,-0.19011 13.62036,-0.31282 18.36719,-0.3457 z m 27.20507,11.97461 c -14.87721,0.13017 -38.71055,3.07635 -51.33984,7.35352 -18.52844,6.27496 -35.68631,16.86166 -43.10156,26.59179 -15.50541,20.34596 -21.4777,41.89461 -22.58008,81.47461 -0.11391,4.08968 -0.16687,7.94044 -0.17187,11.4336 -0.13032,2.01743 -0.255,3.87623 -0.35743,5.21093 -0.15806,2.0603 -0.17805,3.78154 -0.11133,5.23243 -0.7945,3.14876 -0.58944,5.48046 0.50782,5.48046 0.23081,0 0.4796,-0.10096 0.73437,-0.24609 0.0604,0.14551 0.12091,0.24609 0.1875,0.24609 2.34583,0 5.82813,-7.41246 5.82813,-12.4082 0,-2.43148 3.57512,-10.62205 7.94531,-18.20117 4.37019,-7.57916 14.82189,-27.16881 23.22656,-43.53125 9.66369,-18.81354 18.52549,-33.09237 24.10742,-38.84375 12.35647,-12.73149 31.7605,-21.40103 51.53711,-23.02539 10.68765,-0.87787 16.00029,-2.20638 16.64844,-4.16406 0.0284,-0.0858 0.0433,-0.16874 0.0469,-0.25 0.0276,-0.0499 0.0633,-0.10013 0.0801,-0.15039 0.29961,-0.89885 -0.69278,-1.442 -3.60937,-1.67969 -1.73073,-0.29329 -4.01956,-0.46157 -6.72656,-0.51172 -0.90622,-0.0168 -1.85975,-0.0204 -2.85157,-0.0117 z m 93.82422,1.37305 c -6.247,0.15231 -12.45832,2.57939 -17.74804,7.54883 -4.37316,4.10838 -10.98829,20.90365 -10.98829,27.90039 0,6.1144 3.43656,2.11004 5.8125,-6.77344 3.67109,-13.72573 12.15132,-21.47266 23.50586,-21.47266 12.24462,0 24.61794,9.00168 27.66602,20.12891 0.69989,2.55496 2.10082,4.64648 3.11328,4.64648 2.48799,0 2.35454,-0.96821 -1.36523,-9.87304 -6.0152,-14.39997 -18.06999,-22.39627 -29.9961,-22.10547 z M 233.42578,557.2832 c 2.14586,0.0824 -0.59069,3.47266 -7.57226,10.66211 -9.05664,9.32633 -15.52283,19.42643 -28.14454,43.97461 -9.01207,17.52775 -18.06587,34.65586 -20.12109,38.0625 l -2.5625,4.24805 c -0.56829,-0.29556 -0.9097,-1.97719 -1.04883,-4.55078 -0.007,-2.88265 0.20848,-6.93094 0.45508,-12.08399 0.0884,-1.8469 0.22267,-3.65424 0.37695,-5.44336 0.0502,-0.45494 0.10412,-0.9075 0.15821,-1.36328 4.30365,-30.56322 21.1532,-57.04099 44.28906,-67.92773 7.87663,-3.70643 12.50091,-5.64227 14.16992,-5.57813 z m 150.44336,18.61328 c -17.61903,-0.52871 -33.94293,24.39621 -28.54297,48.42969 0.91857,4.08824 2.22472,7.63442 3.90235,10.66016 1.51792,3.18108 3.51489,5.77425 6.01171,7.73828 2.47589,1.94751 4.88873,3.15618 7.34766,3.65039 3.70701,1.29494 7.01259,2.3973 7.39258,2.45898 0.39352,0.0643 4.90604,-3.57016 10.02734,-8.07812 5.12134,-4.50792 14.08907,-10.03515 19.92969,-12.28125 l 10.61914,-4.08399 -7.38281,-0.10742 -7.38477,-0.10742 0.13867,-12.16016 c 0.36813,-3.14318 0.42995,-6.24584 0.082,-7.9707 -0.099,-0.49145 -0.2574,-1.25584 -0.37891,-1.85547 -1.18375,-12.56632 -5.77924,-20.43782 -14.19141,-24.42968 -2.51028,-1.1912 -5.05333,-1.78777 -7.57031,-1.86329 z m -0.29297,6.35352 c 0.39884,-0.0205 0.79338,-0.0195 1.17969,0.004 0.88297,0.0529 1.72984,0.22338 2.52539,0.51757 11.02367,4.07793 16.3405,25.76753 9.89648,40.3711 -1.50319,3.40664 -5.21884,8.16362 -8.25781,10.57031 l -5.52539,4.375 0.58008,-7.2207 c 0.25776,-2.3105 0.40406,-4.03918 0.35742,-5.35547 0.16441,-4.71867 -0.65129,-5.46484 -3.82617,-5.46484 -0.34054,0 -0.6716,-0.0304 -0.99414,-0.0742 -0.35074,-0.175 -0.72421,-0.32392 -1.11524,-0.45118 -0.11376,-0.0378 -0.22072,-0.0885 -0.33789,-0.11914 -0.25549,-0.0669 -0.49903,-0.16168 -0.73632,-0.26562 -0.2606,-0.14514 -0.50983,-0.29438 -0.73243,-0.44727 -0.37062,-0.36623 -0.61915,-0.77964 -0.66015,-1.22461 -0.13096,-1.4194 -0.36254,-3.97441 -0.51563,-5.67773 -0.0742,-0.82662 -0.50848,-1.47751 -1.26953,-1.9707 -0.59046,-0.99753 -1.78117,-1.51921 -3.76758,-1.80079 -1.54519,-0.21919 -3.40622,-8.4e-4 -5.02929,0.5 -4.90193,-0.75467 -4.44409,-4.01217 0.82031,-13.3789 4.18001,-7.43737 11.42567,-12.5789 17.4082,-12.88672 z m -86.89648,16.11719 c 1.0955,0 2.03045,0.0686 2.86133,0.22656 0.77959,0.51069 1.56327,1.15366 2.33789,1.91992 2.53578,2.77058 5.017,7.18408 6.92773,12.59961 2.93451,8.31734 2.92781,8.34328 -1.98437,7.4043 -5.57698,-1.06613 -9.49535,4.99822 -5.01758,7.76562 0.49706,0.30728 0.8795,0.71873 1.14648,1.17578 0.12711,0.26835 0.24157,0.53042 0.32227,0.7793 0.17352,0.67147 0.11019,1.37261 -0.25586,1.96484 -2.43686,3.94292 -6.60266,2.52278 -9.17774,-3.1289 -5.18668,-11.38352 -4.88853,-26.30901 -0.27148,-30.5586 0.81549,-0.12583 1.82363,-0.14843 3.11133,-0.14843 z m 284.64258,41.39062 c 13.30303,-0.2279 30.07348,7.50922 47.73828,22.21094 l 3.13672,2.60937 c 1.49824,1.70506 2.11429,2.65878 1.67968,3.67188 l -3.7832,3.20117 c -7.7486,6.55435 -28.53984,16.00791 -40.85547,18.57617 -12.97323,2.70547 -35.06272,2.63177 -47.54687,-0.1582 -10.20556,-2.28064 -10.20165,-2.48539 0.26367,-19.94141 1.61987,-2.70194 3.38747,-5.30581 5.25781,-7.77539 1.77532,-2.23521 3.58568,-4.4069 5.35938,-6.39062 0.22752,-0.24605 0.45064,-0.50248 0.67968,-0.74414 6.88407,-7.26342 14.45145,-12.52909 21.05274,-14.30664 2.20924,-0.59486 4.55404,-0.91087 7.01758,-0.95313 z M 59.222656,641.2207 c -3.583423,-0.0302 -7.023637,0.45571 -10.158203,1.49024 -6.569745,2.1682 -10.19622,5.86729 -11.015625,11.30078 -0.0042,0.0265 -0.01185,0.0525 -0.01563,0.0801 -0.165581,0.89514 -0.208268,1.88852 -0.154297,3.02343 0.03024,0.97123 0.128284,1.9858 0.300782,3.04883 0.943757,5.81571 0.25319,6.95233 -6.416016,10.55664 -9.032122,4.88134 -13.930189,15.8124 -11.910156,26.58008 1.529161,8.15116 9.618866,17.05355 17.701172,20.07422 1.95597,0.85085 3.996249,1.40995 6.074218,1.64258 3.263089,1.15714 4.525788,3.18912 6.091797,8.41601 2.560573,8.54642 11.680873,17.48718 22.431641,21.99219 3.331797,1.39616 5.009951,2.31598 5.861328,4.25 l 0.853516,7.37891 c 0.0024,0.33449 0.01096,0.60353 0.01172,0.96289 0.01399,8.86382 2.40548,27.82467 5.314453,42.13672 1.087223,5.34909 0.603244,5.17823 -15.740234,-5.57422 -16.808096,-11.05814 -45.791523,-24.56688 -49.824219,-23.22266 -0.281835,0.0941 -0.12841,0.50538 0.375,1.16211 -6.1e-5,0.004 -0.002,0.008 -0.002,0.0156 0.005,0.51783 1.466619,1.94908 3.634766,3.66015 2.445091,2.22108 5.776352,4.99238 9.669922,7.97461 17.395542,13.32393 37.905307,34.81152 50.878906,53.30664 l 7.195312,10.25977 c 0.213695,0.43548 0.3422,0.76327 0.271485,0.83398 -0.179452,0.17953 -1.668615,0.1671 -3.939453,0.0117 l -4.070313,-0.72851 c -4.010457,-0.7174 -9.575541,-1.18172 -15.541016,-1.43164 -14.588331,-1.41831 -28.18251,-0.96014 -32.007812,1.08398 -1.822224,0.35301 -3.009234,0.767 -3.171875,1.25195 -0.477558,1.42379 1.673282,3.00402 4.984375,3.66211 20.269167,4.02864 44.797537,12.62352 56.191406,18.95899 2.157279,1.23205 3.893109,2.37369 4.992188,3.34375 0.911331,0.83247 1.41797,1.57631 1.417968,2.19922 0,6.52711 8.463668,22.29279 16.851568,31.39257 9.65386,10.47323 24.30846,18.85143 37.5625,21.47461 28.6893,5.67814 57.53463,-3.22186 74.43554,-22.96679 8.44919,-9.87096 13.84815,-22.63355 16.16992,-38.16211 1.35831,-7.51786 1.88732,-13.24519 1.55274,-17.70704 l 0.59765,-5.82812 -0.69921,-0.64453 c -0.37524,-3.62355 -1.72093,-4.31531 -4.92969,-5.77735 -1.0978,-0.50016 -2.10137,-1.04957 -3.01172,-1.64843 l -0.002,-0.002 c -0.33101,-0.27703 -0.67641,-0.562 -0.98243,-0.82812 -1.23749,-1.154 -2.27612,-2.16891 -3.14453,-3.08008 -0.0196,-0.0227 -0.0393,-0.0461 -0.0586,-0.0684 -2.79081,-3.97459 -3.13149,-9.14418 -0.94141,-15.35156 1.56709,-4.44159 2.75082,-13.30919 2.63086,-19.70899 -0.0865,-4.61262 0.19189,-11.28681 0.65625,-17.03906 1.30408,-4.28848 1.66164,-8.67234 1.20508,-12.94336 0.10847,-4.91554 -0.85728,-8.10173 -3.41797,-13.12109 -4.70481,-9.2222 -12.23264,-15.30691 -21.55859,-17.79883 -2.60773,-0.84366 -5.31198,-1.3134 -8.06836,-1.30664 -0.44732,10e-4 -0.89705,0.0163 -1.34766,0.0352 -0.23845,-0.004 -0.47876,-0.002 -0.71875,-0.002 -2.84401,0.004 -5.79279,0.27932 -8.83203,0.84961 -9.91413,1.85991 -23.26509,14.02525 -24.88867,22.67969 -1.0026,5.34433 -2.76276,7.22781 -8.78711,9.40625 -2.4616,0.89008 -6.36059,3.47096 -10.35156,6.68945 -0.10851,0.0843 -0.21425,0.1712 -0.32227,0.25586 -0.13085,0.10659 -0.25972,0.20674 -0.39062,0.31446 -2.07146,1.65282 -4.04161,3.42094 -5.76563,5.20703 -0.47213,0.46548 -0.95626,0.92821 -1.40429,1.39453 -7.34092,7.64012 -10.47547,10.11283 -13.70313,10.13672 -0.77498,-0.14665 -1.46984,-0.24131 -2.07813,-0.27344 l -4.95898,-1.24414 2.06641,11.40625 c 1.23721,6.82571 1.35207,10.95863 -0.22071,14.0332 -0.19978,0.22602 -0.35815,0.42972 -0.58398,0.67188 -0.53703,0.56126 -1.11751,1.15099 -1.79492,1.82617 -0.48598,0.48438 -0.90443,0.88404 -1.32813,1.29102 -0.375,0.34164 -0.74254,0.66007 -1.10547,0.96289 -0.6142,0.384 -1.26419,0.76584 -1.98632,1.15234 -3.2064,1.71602 -4.19512,-0.53566 -8.89454,-20.24219 -6.02116,-25.24909 -8.624469,-48.2982 -6.64648,-58.8418 l 1.02148,-5.44726 c 1.21845,-1.06061 2.86413,-1.01463 4.95704,0.10547 0.76702,0.41045 2.08518,0.74188 3.6914,0.99023 13.59847,4.43086 29.34566,-1.40679 34.07617,-12.72851 3.75781,-8.99369 0.26215,-17.49784 -9.98828,-24.59961 -1.10571,-0.84133 -2.14319,-1.51081 -3.00781,-1.91406 -0.53224,-0.31673 -1.05616,-0.63502 -1.61719,-0.94532 -0.74147,-0.41008 -1.29464,-0.79394 -1.68164,-1.13281 0.04,-0.336 0.28576,-0.76256 0.68945,-1.2793 5.11775,-0.65442 10.28321,-8.45698 10.28321,-15.8164 0,-20.14284 -23.39634,-39.44343 -39.816408,-33.08203 -0.916951,0.2725 -1.818387,0.61091 -2.703125,1.01562 -3.906044,1.2697 -6.0166,0.39718 -12.96875,-4.01172 -7.563122,-4.79637 -16.141863,-7.37922 -24.025391,-7.44922 z m 0.134766,6.48047 c 7.581165,-0.0113 16.399661,2.61833 22.740234,8.07227 4.865673,4.18526 5.127218,5.14173 2.798828,10.25195 -3.863985,8.48054 -13.249588,7.89868 -17.335937,-1.07422 l -3.056641,-6.70898 0.109375,2.125 -0.02734,-0.0606 0.115234,2.19727 -0.07227,-0.13282 0.09766,0.63868 0.269532,5.13867 c 0.06557,2.10901 -0.03627,4.06555 -0.273438,5.60937 -0.383478,1.76489 -1.091467,2.91915 -2.113281,3.44531 l -0.002,0.002 c -6.114951,0.45785 -18.84375,-12.44208 -18.84375,-19.55274 0,-6.53348 7.001765,-9.9382 15.59375,-9.95117 z M 331,648.94922 v 0.002 c -4.85001,0 -9.09738,1.31443 -10.77344,3.33399 -0.37447,0.4512 -0.65564,0.84562 -0.89453,1.2207 -0.54116,0.56179 -0.76102,1.06564 -0.61328,1.66016 -0.009,1.1814 1.02404,2.30074 3.32031,4.16015 5.39559,4.36906 5.93641,9.30687 1.21875,11.11719 -4.13681,1.58748 -9.59085,-2.59402 -8.17969,-6.27148 0.82307,-2.14481 -0.0452,-3.66231 -1.9375,-4.21094 -0.55098,-0.54769 -1.28517,-0.60396 -2.2832,-0.20703 -0.86262,0.0556 -1.81379,0.23283 -2.83984,0.55859 -5.63777,1.78934 -5.17216,4.2581 2.1543,11.41992 6.82592,6.67257 10.20664,7.40312 17.09765,3.69922 1.72693,-0.92821 5.30041,-1.62115 9.0625,-1.87109 0.44431,-0.004 0.89062,-0.0112 1.29492,-0.008 0.85972,0.0113 1.70955,-0.0226 2.55469,-0.0801 0.34825,0.008 0.70267,0.0122 1.04297,0.0273 8.05054,0.42036 10.44515,-0.44259 16.21875,-5.83594 3.72561,-3.48026 8.53455,-6.32812 10.68555,-6.32812 2.15097,0 3.91015,-1.39239 3.91015,-3.09571 0,-0.40762 -0.0632,-0.77374 -0.17383,-1.10546 -0.0295,-0.2109 -0.12611,-0.41225 -0.28515,-0.60157 -1.10916,-1.78102 -4.12069,-2.10747 -7.50391,-1.2539 -2.00137,0.25474 -3.62028,0.9085 -4.83984,1.95312 -1.88379,1.0588 -3.66187,2.43663 -5.06445,4.10352 -3.9323,4.67327 -6.95579,6.19531 -12.31836,6.19531 -3.8422,0 -6.72829,-1.23794 -8.09375,-2.875 -0.44642,-1.4301 -0.34725,-3.03635 0.3164,-4.625 0.40124,-0.39122 0.89068,-0.76853 1.51367,-1.11719 1.87875,-1.05139 3.41602,-3.72285 3.41602,-5.9375 0,-3.00635 -1.24635,-3.86881 -6.41992,-4 -0.24994,-0.0113 -0.49395,-0.0273 -0.75977,-0.0273 -0.0868,0 -0.16405,0.008 -0.25,0.0117 -0.20164,-0.002 -0.36393,-0.0117 -0.57617,-0.0117 z m -224.27539,8.25976 c 10.60731,0 21.98308,11.95485 25.11133,22.45313 0.27307,1.78768 0.36018,3.60117 0.23633,5.41992 l -0.29102,4.2832 c -0.41725,0.93075 -0.97353,1.78602 -1.7168,2.5293 -0.67714,0.67714 -2.61691,1.27858 -5.24218,1.7207 l -7.91211,0.32422 c -4.06269,0.16668 -6.98616,0.25938 -9.17774,0.18946 -3.56199,-0.31106 -5.11951,-1.03737 -6.29883,-2.7168 -0.29204,-0.65344 -0.51974,-1.44809 -0.76367,-2.41992 -1.390993,-5.54219 1.79568,-9.57613 9.67774,-12.25196 1.9872,-0.67457 3.61328,-2.07062 3.61328,-3.10156 0,-2.04854 -9.21366,0.97697 -13.5918,4.38281 -0.477148,0.18898 -0.853272,0.33335 -1.36914,0.53907 -0.993241,0.39594 -1.838591,0.67918 -2.605469,0.88086 -1.1788,-0.0847 -2.541403,-0.49426 -4.234375,-1.26563 -1.21107,-0.55181 -2.122242,-0.98805 -2.777344,-1.41797 -1.374816,-1.79917 -1.127997,-3.42725 1.146485,-7.73633 0.02608,-0.0495 0.05738,-0.10636 0.08398,-0.15625 0.164561,-0.30992 0.375418,-0.68517 0.560547,-1.02343 4.42399,-7.84475 8.601676,-10.63282 15.550782,-10.63282 z m 532.47461,15.72266 c 0.84835,0.0189 1.6105,0.43678 2.56445,1.20508 l 1.21875,1.16797 7.58399,9.52929 c 10.095,12.68659 10.23868,13.06996 7.72265,20.38868 -1.97646,5.74904 -3.25035,7.02393 -5.56054,5.5625 -1.64848,-1.04289 -6.82123,-1.91262 -11.49414,-1.92774 -9.57646,-0.034 -17.68052,5.15337 -22.44922,14.375 l -2.99219,5.78516 -8.46289,-4.1875 c -7.31875,-3.62105 -9.53811,-3.86497 -16.42774,-1.80078 -0.72604,0.21732 -1.50107,0.5239 -2.28906,0.86523 -2.08036,0.5497 -3.8275,1.56787 -5.77539,3.25195 -1.9982,1.38229 -3.80488,2.90731 -5.02344,4.35547 -4.28277,5.08978 -5.51628,5.60769 -7.54101,3.16797 -1.33142,-1.60422 -6.33211,-4.41032 -11.11328,-6.23633 -6.91215,-2.63969 -9.94613,-2.84578 -14.80664,-1.0039 -3.36208,1.27408 -8.03567,4.11851 -10.38672,6.32031 -0.31786,0.29783 -0.57289,0.52851 -0.84766,0.78125 -0.98396,0.78089 -1.831,1.41333 -2.57617,1.94727 -1.46839,0.58401 -2.53861,-0.52141 -5.35156,-3.51563 -5.54846,-5.90627 -5.56661,-7.85948 -0.23829,-25.11133 l 3.5293,-11.42383 c 0.47327,-0.95633 0.92022,-1.71507 1.34375,-2.25195 l 8.03125,1.58594 c 1.98648,0.3925 5.57113,0.74961 9.88867,1.03516 14.16734,2.25741 28.2999,1.93973 41.72852,-0.8125 14.82149,-2.25476 26.80935,-7.27335 39.33398,-16.04688 l 9.95899,-6.97461 c 0.14664,-0.0189 0.291,-0.0331 0.43164,-0.0293 z m -599.865236,1.76367 c 2.164014,0.0113 4.880716,1.28176 10.449219,4.10352 2.872218,1.45549 5.149329,2.88144 6.890625,4.21875 1.436572,1.27132 2.553956,2.49227 3.140625,3.5293 0.257991,0.52673 0.410865,1.02264 0.447266,1.47656 -0.01323,0.44764 -0.05369,0.85313 -0.117188,1.22265 -0.01928,0.076 -0.0344,0.15589 -0.05859,0.22657 -1.056469,1.06979 -3.648664,1.54583 -7.835938,1.14648 -5.3712,-0.5122 -9.000907,-0.49449 -10.740234,-0.13086 l -2.908204,-0.1875 1.923829,0.54297 c -0.927598,0.69797 1.463129,1.9085 7.652343,3.25586 6.402373,1.39374 13.239786,4.30031 15.19336,6.45898 1.481646,1.63722 2.287835,2.62808 2.179687,3.5586 -0.508796,0.73546 -1.40919,1.62942 -2.65039,2.74804 -0.792904,0.53171 -1.712454,1.11433 -2.91211,1.84571 -9.455935,5.76491 -18.634071,5.4239 -26.238281,-0.97461 -10.649277,-8.96077 -10.429282,-23.79475 0.457031,-30.92774 2.095605,-1.37306 3.44383,-2.12333 5.126953,-2.11328 z m 35.890625,3.49219 c 0.621464,-0.008 1.270104,0.0389 1.9375,0.12695 1.216706,0.29329 2.681886,0.80174 4.580079,1.52344 9.405624,3.576 15.636843,13.51092 13.382812,18.76953 -0.127219,0.20636 -0.250388,0.4129 -0.402344,0.61133 -0.585898,0.76501 -1.325639,1.41328 -2.169922,1.96094 -0.144189,0.0676 -0.284186,0.1395 -0.439453,0.19922 -15.628127,5.99705 -32.968266,-9.70554 -22.394531,-20.2793 1.350021,-1.35001 2.378388,-2.22689 3.457031,-2.6875 0.108586,-0.0265 0.218368,-0.0476 0.328125,-0.0703 0.551074,-0.0911 1.12231,-0.14787 1.720703,-0.1543 z m 27.544921,22.5293 3.72852,0.55273 c 0.19993,0.0302 0.41066,0.0757 0.61328,0.10938 0.002,3e-4 0.004,0.002 0.006,0.002 6.66948,1.88288 18.25271,6.80142 24.05469,10.31445 1.98499,1.4163 3.70084,2.86528 4.99218,4.28321 4.23908,5.50873 3.29104,12.62858 -2.86718,17.47265 -6.25157,4.91747 -20.59003,5.80416 -26.30274,1.62695 -1.83095,-1.3388 -7.346077,-11.82312 -10.785156,-19.65624 -0.662279,-1.9146 -1.226398,-3.52391 -1.636718,-4.64454 -0.226583,-1.66099 -0.174784,-2.9164 0.171875,-3.7832 0.73384,-0.27893 1.85237,-0.26853 3.238281,0.0156 3.299938,1.03188 7.783288,3.23832 11.539058,5.95898 11.21541,8.1244 11.06542,4.48676 -0.20507,-4.96289 -4.3517,-3.64861 -7.06319,-6.70321 -6.54688,-7.28711 z m 308.89258,1.44531 h 0.002 c 2.29342,-0.008 4.04214,0.5651 6.24024,1.7168 2.0341,1.06575 4.08161,2.7554 5.38086,4.32031 0.16365,0.27931 0.32994,0.55027 0.49023,0.84961 0.46768,0.87386 0.81555,1.62177 1.06836,2.27344 0.29178,1.66261 -0.98083,1.77807 -5.28125,0.91796 -3.42701,-0.68564 -6.23047,-0.77443 -6.23047,-0.19726 0,0.57725 3.25021,4.30099 7.22461,8.27539 3.55816,3.5582 6.53032,7.25006 7.11524,8.77344 0.0578,0.16894 0.10553,0.3277 0.10742,0.4375 -10e-4,0.11489 -0.0159,0.21404 -0.0234,0.31836 -0.0514,0.60162 -0.24791,1.03475 -0.56641,1.30468 -0.0514,0.0113 -0.0948,0.0219 -0.14843,0.0332 -0.58799,0.11338 -1.26275,0.0639 -1.96094,-0.0937 -0.66989,-0.3447 -1.43364,-0.89673 -2.27149,-1.66602 -0.80885,-0.81014 -1.64342,-1.82992 -2.44336,-3.05078 -1.25295,-1.91225 -2.52749,-3.31644 -3.58984,-4.16211 l -1.57617,-2.0332 0.23437,1.22656 c -1.36263,-0.50457 -1.79129,0.66139 -0.11132,3.80078 0.55423,1.03555 0.98748,1.9292 1.30859,2.72656 0.33146,2.48538 0.0707,4.12757 -1.24024,5.79688 -0.81061,0.6398 -1.89021,1.29068 -3.28124,2.03515 -8.33277,4.45958 -13.23243,16.21403 -13.23243,31.74415 0,0.61421 0.008,1.07064 0.008,1.63085 -4.2e-4,0.25626 0.002,0.50872 0.004,0.76172 0.004,1.03824 0.0187,2.0289 0.041,2.89063 -0.0265,1.22989 0.0149,2.2755 0.14648,3.16015 0.46885,5.291 2.06221,6.52168 7.50586,10.22071 4.23802,2.87981 10.21003,5.23633 13.27149,5.23633 0.41684,0 0.79954,0.0188 1.16796,0.0449 1.91056,0.54455 3.62822,1.63815 5.15235,3.26172 1.13182,1.78318 2.30634,4.47818 3.91211,8.56445 2.71275,6.90338 3.98857,12.54458 4.5039,21.32813 0.0189,0.33031 0.0303,0.68631 0.0469,1.02148 0.13833,2.71253 0.2168,5.68384 0.24023,9.11523 1.5e-4,0.0227 0.002,0.0414 0.002,0.0645 0.0487,9.71769 -0.11074,15.11798 -1.1836,19.86718 -0.034,0.14022 -0.0605,0.28459 -0.0957,0.42383 -0.008,0.0378 -0.0198,0.0715 -0.0273,0.10742 -0.95917,3.74125 -2.57901,7.24698 -5.28711,12.63477 -3.48216,6.9278 -8.33644,15.02309 -11.18946,18.72461 -0.40898,0.49791 -0.81113,0.97565 -1.17578,1.36328 -0.79551,0.84575 -1.49572,1.58049 -2.15234,2.22656 -0.41295,0.37954 -0.81692,0.72859 -1.2168,1.04883 -3.0466,2.01351 -7.23777,2.42323 -18.26367,3.00195 l -8.22852,0.43164 h -6.39257 c -1.70022,-0.38636 -3.17976,-0.92735 -4.51954,-1.64648 l -4.75586,-5.41797 c -12.2918,-13.99959 -19.01628,-30.50655 -19.99414,-48.52734 -0.011,-1.38063 -0.0246,-2.70186 -0.0254,-4.28125 -10e-4,-1.99238 0.0226,-3.87673 0.0606,-5.69922 0.44808,-7.40175 1.81537,-15.01505 4.12109,-22.7793 2.60531,-8.77292 4.51758,-11.22797 12.31055,-15.79492 2.78153,-1.63007 5.54679,-3.62177 7.68945,-5.45117 l 2.64649,-1.38477 0.0547,-1.22851 c 0.40147,-0.46598 0.74401,-0.90631 0.93945,-1.27149 0.0227,-0.0457 0.0442,-0.0965 0.0684,-0.14258 l 0.49609,-0.3125 -0.0449,-0.6289 c 3.02642,-7.00207 1.76932,-18.37856 -2.14648,-27.94727 -1.41774,-3.73273 -3.25218,-7.0033 -5.38477,-9.59375 -1.30774,-1.69889 -2.72145,-3.18759 -4.22852,-4.37304 -4.7499,-3.73629 -5.39997,-5.43873 -4.27539,-11.19336 l 1.25,-6.39844 0.10938,-0.38867 -0.043,0.0527 0.0117,-0.0508 -6.25,7.22461 c -4.89271,5.65561 -6.26524,6.39762 -6.30859,3.4082 -0.0306,-2.10073 3.19747,-7.07247 7.17187,-11.04687 3.97439,-3.9744 7.22656,-7.61596 7.22656,-8.0918 0,-0.47588 -2.46246,-0.24718 -5.4707,0.50781 -0.42799,0.10734 -0.82625,0.19892 -1.19531,0.27149 -0.25266,0.0499 -0.47108,0.0796 -0.69531,0.11328 -1.07976,0.12548 -1.96954,-0.003 -2.48243,-0.34766 -0.0607,-0.18557 -0.009,-0.42323 0.17383,-0.71875 0.69881,-1.13072 8.9684,-2.66428 18.375,-3.4082 9.40654,-0.74392 21.82185,-2.61727 27.59375,-4.16211 4.38429,-1.1735 7.22416,-1.76193 9.51758,-1.76953 z m 253.85742,4.9668 c 1.28481,-0.0113 2.88247,2.00363 4.95313,6.00781 3.00446,5.81023 3.00887,6.98689 0.0527,13.2168 -1.33655,2.81665 -2.49076,5.87749 -2.98633,7.8125 -1.32873,1.97918 -2.46223,2.59518 -3.97461,2.37695 -7.57939,-3.28649 -18.57653,-3.26424 -25.01367,0.0645 -5.00043,2.5858 -11.56635,10.18726 -14.40625,16.39453 -0.20334,0.33751 -0.36133,0.63067 -0.42773,0.83008 -0.44584,1.33561 -2.19296,1.32586 -5.75196,-0.11523 -0.9349,-0.4512 -1.93965,-0.98587 -2.97656,-1.59766 -10.28508,-6.06833 -20.88245,-4.97882 -29.58398,2.86328 -1.63129,0.97743 -2.70236,1.9638 -2.82032,2.82031 l -2.29296,2.5 -4.18946,4.18946 -1.00586,-0.6836 -4.91406,-4.13476 c -10.9852,-9.24344 -27.35727,-8.86174 -36.14062,0.84375 -4.62728,5.11306 -4.85494,5.08258 -12.31641,-1.69336 -4.70283,-4.27075 -6.04917,-7.11546 -5.58984,-11.8125 1.15918,-11.85426 2.35758,-12.52164 8.0664,-4.49805 l 5.41211,7.60742 3.6875,-6.06445 c 0.36359,-0.59781 0.74487,-1.16234 1.13477,-1.71094 0.15458,-0.20371 0.30459,-0.38106 0.45898,-0.58984 0.49361,-0.66765 1.00658,-1.29228 1.53125,-1.88672 8.28397,-9.05253 20.76001,-8.86499 30.78906,1.16406 2.19614,2.19614 4.24075,4.06012 5.73438,5.27539 0.2725,0.25588 0.52828,0.48068 0.76367,0.66993 l 0.55664,0.55859 0.0625,-0.10547 c 1.31819,0.83074 1.90827,0.26797 2.05859,-1.57031 0.79303,-1.43146 1.87086,-3.46082 3.01368,-5.70703 1.03649,-2.03736 2.28671,-3.79673 3.70312,-5.27539 0.48749,-0.47403 0.98325,-0.93622 1.49024,-1.39063 7.69307,-6.50751 19.21956,-5.78597 28.52343,2.77149 0.25059,0.25171 0.5244,0.53439 0.75586,0.75585 0.69816,0.80928 1.31621,1.42691 1.87305,1.84376 0.18142,1.00575 0.66297,1.3275 1.26758,1.11328 l 2.08789,2 2.56445,-8.5586 c 2.95325,-9.85712 9.38842,-16.24461 16.57031,-17.94336 4.19785,-0.64048 8.77992,0.11414 13.36524,2.42188 0.60193,0.38207 1.19829,0.79419 1.78515,1.25586 2.88722,2.27108 5.71835,4.1289 6.29102,4.1289 0.0952,0 0.20989,-0.13574 0.33008,-0.32812 l 0.59961,0.37109 0.0137,-0.0918 0.46289,0.33007 0.0195,-3.55078 0.0957,-0.63281 c 0.32126,-1.28508 0.64015,-2.72467 0.91602,-4.35742 0.88981,-5.26681 1.94429,-7.87745 3.40039,-7.88867 z m -590.509764,0.9082 c 0.02381,0.002 0.03705,0.0158 0.05859,0.0195 0.410771,0.43261 0.799209,1.34501 1.125,2.52539 0.235389,1.76946 0.171631,4.25282 -0.253906,6.91406 -0.924019,5.77849 -0.03666,7.83483 1.369141,6.47461 l 0.01172,0.3418 0.134766,-0.48047 c 0.922798,-1.02489 2.038957,-3.44799 3.017578,-7.22461 2.521935,-9.73251 5.593936,-9.04772 10.490235,2.33399 4.599889,10.69273 5.599023,20.8936 2.732421,24.58007 -0.08455,0.0892 -0.157992,0.18147 -0.246093,0.26954 -0.191131,0.19124 -0.351185,0.32694 -0.533203,0.5039 -0.247975,0.18255 -0.515623,0.33108 -0.802735,0.44141 -9.77362,3.7505 -27.317248,-3.58201 -33.847656,-14.14844 -1.087306,-1.75929 -2.061133,-3.44701 -2.806641,-4.82227 -0.03553,-0.13944 -0.08395,-0.28762 -0.113281,-0.42187 -0.335395,-1.5354 -0.373165,-2.76941 0.05664,-3.97852 0.444877,-0.60011 0.981263,-1.24425 1.617187,-1.9375 5.245727,-4.53569 15.898096,-11.56785 17.990235,-11.38867 z m 272.359374,3.14062 c 0.11445,-0.0115 0.22462,-0.011 0.33008,0 0.82844,0.0866 1.38592,0.87082 1.78125,2.29102 0.31544,1.56548 0.22937,3.46173 -0.15625,5.49609 -1.62071,5.9401 -7.0537,14.05867 -13.37305,19.26758 -3.998,3.29552 -7.26953,7.48023 -7.26953,9.29883 0,2.63255 1.03784,2.32986 5.09375,-1.48047 3.44581,-3.2372 8.44463,-5.10643 15.44727,-5.7793 3.3487,-0.32163 5.67297,-0.46885 7.53125,-0.27734 2.2377,0.65121 4.31942,1.68474 6.21289,3.05859 0.77344,0.71732 1.60568,1.57296 2.56836,2.60352 4.10645,4.39597 6.55387,9.26577 7.66796,15.56836 0.1177,1.71084 0.21952,3.587 0.3086,5.89648 0.17106,4.43604 0.16083,7.63738 -0.006,9.56641 -0.13009,0.49482 -0.28815,0.73274 -0.48438,0.67188 -0.20031,-0.50083 -0.44971,-1.32648 -0.76757,-2.4668 -1.39933,-5.02035 -1.54982,-4.9349 -5.47266,3.09765 -2.01169,4.11912 -4.95233,7.78282 -6.88477,8.68946 -0.52626,0.10167 -1.05477,0.16602 -1.58203,0.18945 -3.84102,-0.55687 -8.98631,-7.36686 -8.98633,-12.43555 0,-2.01842 -0.92891,-3.66992 -2.06445,-3.66992 -1.13554,0 -2.06445,1.91388 -2.06445,4.25195 0,2.49158 -0.91331,3.68628 -2.20703,2.88672 -1.21402,-0.75031 -1.92997,-5.21915 -1.58985,-9.92968 0.46675,-6.46458 -0.13047,-8.56446 -2.4375,-8.56446 -1.79953,0 -3.32631,2.3349 -3.71093,5.67774 -0.50254,4.36762 -1.75322,5.67773 -5.42383,5.67773 -7.39276,0 -10.14332,-4.91221 -8.68946,-15.51953 1.53064,-11.16714 7.61007,-23.73084 17.21876,-35.58008 4.54053,-5.59931 7.29307,-8.31441 9.00976,-8.48633 z m 84.87695,5.31641 v 0.002 c 3.50344,0.10507 12.66153,10.90161 17.53516,21.1543 4.7458,9.98385 6.0881,25.37997 2.47461,28.37891 -5.58728,4.63702 -8.73107,3.84691 -9.92578,-2.49219 -0.93732,-4.97325 -2.36629,-6.49321 -3.69922,-5.02149 -0.0877,-0.008 -0.17309,0.002 -0.25586,0.0293 -0.16328,-0.10394 -0.32088,-0.16992 -0.4707,-0.16992 -0.19087,0 -0.34844,0.0964 -0.48828,0.23438 -1.24562,9.8e-4 -1.43862,1.45449 -0.83008,5.1582 -0.27855,1.26554 -0.53061,2.70656 -0.73633,4.36328 -0.67325,5.42169 -1.36848,8.23134 -1.54688,6.24414 -0.43355,-4.82978 -4.45507,-4.65363 -4.45507,0.19531 0,2.09511 -1.69877,5.34727 -3.77539,7.22657 -1.43849,1.30176 -2.84242,2.21515 -4.19141,2.7871 -0.5212,0.0975 -1.07172,0.17302 -1.66016,0.23047 -1.40345,0.13644 -2.57434,0.18295 -3.58593,0.10547 -2.91451,-1.05668 -5.1917,-4.38046 -6.36524,-9.78711 -0.8005,-3.68783 -1.46002,-5.28637 -2.29492,-5.18164 -0.0816,-0.0658 -0.1574,-0.0473 -0.22656,0.0684 -0.29707,0.13871 -0.61861,0.4684 -0.97657,0.98438 -1.32725,1.91327 -1.69831,-1.17706 -1.125,-9.36329 0.74873,-10.6909 1.70787,-12.9789 7.66407,-18.30078 2.04952,-1.83129 3.63229,-3.09643 5.1582,-3.94531 1.79237,-0.71849 3.70254,-1.19909 5.68555,-1.4375 1.42741,-0.0227 3.07689,0.10419 5.11523,0.33399 6.26786,0.70646 11.053,2.85339 15.1875,6.81445 4.31203,4.13121 6.03711,4.87618 6.03711,2.60351 0,-3.59879 -8.95355,-13.97914 -12.13281,-14.10156 -1.74784,-1.63729 -3.31339,-3.4039 -4.63086,-5.17578 -2.2337,-4.37858 -3.82669,-10.16549 -2.37891,-11.61328 0.23055,-0.23055 0.53211,-0.3348 0.89453,-0.32422 z m 245.0625,10.94531 c 1.6681,0.62771 11.02511,22.35551 10.20703,23.73243 -0.0722,0.0533 -0.17436,0.12212 -0.34179,0.22265 -0.96548,0.58405 -6.06446,2.95903 -12.13672,5.63867 -16.84067,7.43176 -33.7327,19.09448 -47.3418,32.68555 l -11.22656,11.21094 c -0.25701,0.16101 -0.49957,0.30272 -0.73242,0.43164 l -10.76758,-4.33008 c -14.92384,-6.00106 -48.18438,-5.9899 -67.75977,0.0195 -7.381,2.26617 -14.99028,4.78999 -16.9082,5.60742 -4.56797,1.94688 -6.2627,-6.75879 -5.4043,-27.76367 l 0.56836,-13.92383 c 0.16479,-0.0521 0.33865,-0.0726 0.51954,-0.0703 l 3.21484,3.66016 2.52539,3.54492 c 3.4066,4.78299 6.86695,8.7323 7.68945,8.77539 0.8225,0.0431 2.97335,-2.7832 4.78125,-6.2793 7.46672,-14.43908 26.19767,-14.66897 37.9043,-0.46679 l 6.03711,7.32226 1.48437,-2.92773 c 0.44198,-0.25588 0.72606,-0.81701 0.85547,-1.68555 l 1.18946,-2.3457 c 1.68737,-3.32867 3.22195,-5.95037 4.77148,-8.0293 0.37569,-0.40532 0.75559,-0.81024 1.14844,-1.20313 1.88243,-1.88241 3.55467,-3.30734 5.16797,-4.37695 1.6063,-0.81263 3.37526,-1.37279 5.42773,-1.75781 7.48233,-1.40372 13.59104,1.0857 22.06641,8.98828 1.88311,1.75582 3.12829,2.86959 4.02929,3.44336 0.17424,0.14476 0.33829,0.23602 0.49219,0.28516 1.25072,0.58174 1.68383,-0.29103 2.38281,-2.43164 3.88615,-11.90125 6.13566,-15.86128 11.64844,-20.5 7.68594,-6.46727 15.54729,-6.49837 24.97656,-0.0996 l 7.39844,5.01953 2.32813,-11.21485 c 0.97307,-4.68725 2.17328,-8.71081 3.0332,-10.3789 0.28346,-0.41734 0.548,-0.71445 0.77148,-0.80274 z m -474.57812,18.83008 c 7.45047,0.0416 14.1972,2.19802 17.55664,5.91016 1.21172,1.33893 2.06196,2.24735 2.35547,2.95703 -0.0344,0.15005 -0.0629,0.29972 -0.1211,0.45117 -0.12449,0.32428 -0.23844,0.65052 -0.35156,0.97461 -1.06198,0.78142 -3.65783,1.52016 -8.45508,2.92773 -4.96352,1.45641 -6.82589,8.3186 -3.5332,13.01954 2.03479,2.90505 3.86521,4.28899 6.13672,4.18554 0.33226,0.13342 0.59277,0.20281 0.75195,0.19336 0.4651,-0.0265 1.19191,-0.39233 2.04102,-0.95117 1.47313,-0.67347 3.14528,-1.77729 5.13672,-3.34375 5.27433,-4.14879 5.37439,-4.55505 2.02343,-8.25781 -0.0768,-0.0847 -0.1366,-0.16452 -0.20898,-0.24805 -0.15934,-0.20787 -0.3309,-0.41624 -0.51953,-0.62695 -1.16674,-1.51843 -1.49494,-2.68883 -0.81445,-2.95313 0.16236,-0.0227 0.34253,-0.0394 0.54687,-0.0488 6.31632,0.39209 8.41969,17.68106 3.25195,27.58985 -2.49182,4.77793 -2.64106,7.42984 -0.77148,13.66992 0.53339,1.78031 0.85416,3.61836 0.97852,5.5 -0.0306,1.90715 -0.0823,3.58901 -0.1504,5.10547 -0.76933,6.43914 -3.70854,13.23758 -8.7207,19.94726 -3.17216,4.24649 -5.43949,5.95898 -7.82617,5.7793 -0.43446,-0.10847 -0.82504,-0.18234 -1.19922,-0.23828 -0.1643,-0.0518 -0.32297,-0.0934 -0.47851,-0.13086 -1.41135,-0.82337 -2.49539,-0.79404 -2.85157,0.18164 -0.0291,0.0794 -0.11688,0.27971 -0.16015,0.38867 -1.20571,0.98446 -2.30652,3.06426 -3.76563,6.71094 -1.84562,4.61265 -3.95133,8.31299 -4.67969,8.22266 -0.72836,-0.0903 -6.4342,-3.33929 -12.67968,-7.21875 -6.24548,-3.8795 -12.07127,-7.05872 -12.94727,-7.0625 -0.87601,-0.004 -2.67338,2.35943 -3.99219,5.2539 -0.41993,0.92164 -0.76717,1.62287 -1.08593,2.20118 -0.79597,0.8046 -1.43881,1.25927 -2.04493,1.33203 -0.34318,-0.30161 -0.71241,-0.85464 -1.16211,-1.65821 -1.44757,-2.58667 -3.67926,-3.08977 -9.42968,-2.1289 -6.59653,1.1023 -6.14491,0.67548 3.63086,-3.42383 2.34108,-0.9817 4.77077,-2.23847 7.0039,-3.57813 1.87022,-0.99174 3.46385,-2.08023 4.81836,-3.28711 1.40902,-1.10275 2.56159,-2.16401 3.22852,-3.06445 4.93971,-6.6692 6.1612,-23.65625 1.70117,-23.65625 -1.91111,0 -3.22856,2.31609 -3.52344,6.19336 -0.40228,5.28911 -0.95409,8.88303 -2.08984,11.58203 -1.45401,2.25687 -3.30091,4.28249 -5.40625,6.01563 -1.15855,0.70968 -2.49656,1.3928 -4.06641,2.10547 -4.90805,2.2281 -8.24815,3.43454 -11.28711,3.74609 -1.23346,0.0151 -2.50463,-0.0114 -3.82226,-0.0957 -0.0435,-0.003 -0.074,-0.004 -0.11719,-0.008 -1.80509,-0.27363 -3.69589,-0.84371 -5.95117,-1.70117 -2.02711,-0.77068 -3.25819,-1.36528 -3.81836,-2.00976 -0.13482,-0.39617 -0.2062,-0.82353 -0.24414,-1.26758 0.14385,-0.60208 0.59533,-1.29629 1.33984,-2.19336 1.91926,-2.31258 1.98718,-3.28683 -0.0664,-4.61719 -0.39706,-0.37916 -0.86007,-0.77763 -1.46093,-1.23242 -1.24786,-0.9445 -2.03654,-1.57667 -2.43164,-2.02149 -0.11823,-0.2207 -0.21044,-0.4374 -0.26367,-0.64648 0.1778,-0.27439 0.97631,-0.33758 2.38867,-0.36328 3.45766,-0.0627 4.50545,-2.33287 2.58007,-4.35352 -0.36674,-0.46446 -1.03605,-1.05389 -2.00195,-1.85546 -0.0514,-0.0427 -0.0778,-0.0737 -0.12695,-0.11524 -0.0794,-0.10998 -0.16726,-0.22381 -0.23242,-0.32812 -0.14756,-1.72071 5.14616,-3.37179 15.41406,-4.75196 5.52674,-0.74283 9.85972,-2.13578 11.49414,-3.61718 0.36952,-0.13834 0.65193,-0.2654 0.75,-0.36329 0.98848,-0.98849 1.0931,-1.6915 0.3418,-2.11718 0.18871,-0.9769 0.18441,-1.79528 -0.0918,-2.0586 -0.42418,-0.40441 -7.27386,0.53094 -15.22266,2.07813 -16.70146,3.25084 -23.03811,3.51455 -15.17382,0.63281 3.00949,-1.10279 7.87341,-5.63301 10.80859,-10.06836 0.74603,-1.12732 1.55288,-2.18995 2.42969,-3.20312 1.46709,-1.50902 3.05882,-2.99904 4.6914,-4.41016 2.84778,-2.20305 6.29808,-4.2137 10.61133,-6.2207 10.8891,-5.06688 12.40102,-6.48392 12.41992,-11.65235 0.002,-0.66436 0.0898,-1.35288 0.24219,-2.05468 0.58176,-1.87832 1.36683,-3.67529 2.3457,-5.37891 3.9222,-6.23637 11.67493,-12.26402 18.74219,-13.58985 2.54046,-0.47654 5.10244,-0.69746 7.58594,-0.68359 z m 530.23242,4.26758 4.79688,0.91211 c 14.0561,2.6767 23.66173,10.69741 27.45898,22.92773 0.71656,2.30793 0.64066,3.702 -0.33008,4.22071 -0.32315,0.1096 -0.69516,0.18316 -1.09961,0.22851 -1.8232,-0.008 -5.00048,-1.27786 -9.79492,-3.82617 -7.70362,-4.09455 -13.73821,-10.01429 -19.57422,-19.19922 l -1.30664,-2.05664 c -0.63647,-1.49393 -0.7776,-2.62541 -0.26562,-3.19922 0.034,-0.004 0.0786,-0.004 0.11523,-0.008 z m -11.52734,0.52148 c 0.75114,0.002 1.38101,0.0942 1.93554,0.28125 0.44916,0.2812 0.90773,0.61813 1.37696,1.00977 0.36132,0.3685 0.73177,0.76851 1.11914,1.21094 0.30463,0.4953 0.6042,1.04536 0.91015,1.71679 6.0113,13.19331 26.96212,29.93946 37.45704,29.93946 0.0843,0 0.15739,0.004 0.23828,0.008 0.23206,0.0911 0.44258,0.19319 0.6582,0.29297 0.37266,0.19049 0.72448,0.37923 1.05859,0.56836 0.50638,0.3137 0.97302,0.65001 1.36133,1.03125 0.80092,2.18411 0.89649,6.83162 0.89649,16.68164 0,10.44918 -0.0616,15.0105 -0.99415,16.98633 -0.92864,1.11583 -2.29749,1.44243 -4.49218,1.41601 -14.70837,-0.81985 -35.08755,-11.76201 -49.8711,-26.85937 -10.63702,-10.86286 -24.25795,-33.42034 -22.19531,-36.75782 1.07399,-1.73775 12.40767,-4.72861 27.20313,-7.18164 1.32982,-0.22034 2.42041,-0.34444 3.33789,-0.34179 z m -633.332034,1.13282 c 2.846241,0.0733 3.935256,0.97912 5.103515,8.02148 0.275755,2.30022 0.532771,5.23516 0.826172,9.00195 0.72971,9.36824 3.579729,26.32082 6.333987,37.67188 2.75426,11.35098 4.78037,20.86434 4.5039,21.14062 -0.24873,0.2487 -2.43499,-1.64745 -5.015621,-4.28711 -1.13938,-1.42178 -2.29628,-2.95581 -3.386719,-4.50976 -4.947719,-8.93261 -8.991856,-27.71353 -10.779297,-50.89258 -1.121639,-14.5451 -1.003696,-16.04429 2.414063,-16.14648 z m 110.226564,4.41797 c -3.06767,-0.1081 -6.73455,1.06064 -7.47461,3.31445 -0.55489,1.68986 1.34929,2.58203 5.51758,2.58203 3.7574,0 5.73273,-0.73046 6.23242,-2.33398 0.0602,-0.15459 0.0906,-0.31291 0.084,-0.47657 0.0181,-0.14022 0.0508,-0.27215 0.0508,-0.42383 0,-1.72131 -2.02419,-2.57814 -4.41015,-2.6621 z m 482.0039,5.29296 c 2.50477,0.16177 4.9328,3.45561 9.75782,12.76954 13.4654,25.99239 42.91529,49.09203 67.62304,53.04296 4.69554,0.75084 7.29867,1.77247 8.23047,3.28125 0.25663,0.8645 0.21095,1.95425 0.0391,3.4336 -0.0994,0.85667 -0.23584,1.60848 -0.42383,2.26562 -1.31445,2.62058 -4.43369,3.06655 -10.53321,1.94531 -11.65579,-2.14259 -22.55806,-6.25048 -32.50586,-12.15429 -6.83588,-4.20276 -13.34716,-9.23176 -19.32421,-14.89844 -8.59495,-8.41308 -16.07324,-18.54727 -22.21875,-30.24219 -5.16609,-9.83104 -7.05835,-14.31344 -6.00586,-16.7207 0.39859,-0.37988 0.88582,-0.76359 1.47656,-1.20312 0.47286,-0.35188 0.96014,-0.67811 1.4414,-0.99219 0.41757,-0.14476 0.86226,-0.2842 1.35938,-0.41407 0.36813,-0.0964 0.72618,-0.13633 1.08398,-0.11328 z m -18.04687,9.51563 c 0.5266,0.0843 0.0847,1.07034 -1.05664,3.20312 -4.32616,6.43024 -2.79636,8.86636 1.67578,10.26758 0.79835,0.52898 1.47914,1.13209 2.04883,1.78516 0.21392,0.39677 0.39544,0.81911 0.55664,1.2539 0.0518,3.63886 -1.60803,9.73828 -3.5625,10.48829 -0.61312,0.23546 -1.16011,0.42704 -1.66797,0.59179 -1.16893,0.2264 -2.45755,0.28885 -3.84766,0.1543 -0.48714,-0.12246 -0.98815,-0.28572 -1.49804,-0.47852 -4.88216,-3.82148 -6.54322,6.54668 -8.71485,8.83008 -0.76116,0.76116 -1.79947,1.43715 -2.8125,1.89258 -0.34469,0.0639 -0.685,0.12772 -1.08008,0.17383 -1.0774,0.1251 -2.05456,0.12754 -2.94921,0.0156 -3.61811,-1.43255 -7.36336,-6.51328 -6.28321,-9.32812 2.94834,-13.5984 17.92443,-22.8777 26.08203,-27.52344 1.70457,-0.91226 2.69979,-1.39178 3.10938,-1.32617 z m 6.54101,3.48047 c 0.85165,0.003 4.3028,5.27303 7.66797,11.71289 3.36514,6.4399 10.95107,16.93084 16.85938,23.3125 9.3024,10.04772 10.15966,11.64622 6.39453,11.92969 -0.83305,0.0627 -1.7675,-0.10886 -2.69727,-0.43946 -0.15307,-0.0559 -0.30576,-0.1215 -0.45898,-0.17968 -1.57723,-0.65681 -3.09166,-1.76762 -4.01367,-3.08399 -1.78341,-2.54623 -5.10055,-3.96854 -9.24219,-3.99023 -0.144,-0.0113 -0.29708,-0.0391 -0.43359,-0.0391 -0.23093,0 -0.4655,0.0228 -0.69922,0.0391 -0.12473,-0.0113 -0.26231,-0.0391 -0.37891,-0.0391 -0.37228,0 -0.75491,0.0436 -1.14258,0.10938 -6.22492,0.35716 -8.31896,2.24681 -12.06054,9.55078 -1.84929,3.61005 -5.15315,7.13153 -7.3418,7.82617 -8.67696,2.75399 -9.06676,19.05905 -0.56445,23.60938 2.1962,1.17535 4.44291,4.4861 4.99218,7.35937 0.54962,2.87324 0.78133,5.22461 0.51563,5.22461 -1.74516,0 -17.53176,-18.99537 -17.54688,-21.11523 -0.0442,-5.76416 -10.47969,-24.59004 -18.38476,-33.16602 -3.86502,-4.19308 -6.70603,-8.1625 -7.08985,-9.77148 0.0949,-0.12926 0.19988,-0.25663 0.32422,-0.38086 0.14627,-0.14627 0.28309,-0.24738 0.42188,-0.35547 1.03778,0.35263 2.77444,2.23524 4.375,4.86719 2.73872,4.50345 6.35668,7.08341 10.25976,7.59179 1.40705,0.45185 2.81899,0.71485 4.14844,0.71485 0.92421,0 3.22783,-1.52627 5.52344,-3.58203 6.95346,-4.90417 8.82629,-5.94217 15.45312,-8.56055 7.92378,-3.13089 10.74373,-11.27933 6.70508,-19.375 -1.16798,-2.34127 -1.96613,-4.17743 -2.45898,-5.63281 -0.23471,-1.24842 -0.3479,-2.5282 -0.29688,-3.65821 0.23849,-0.32163 0.62566,-0.48029 1.16992,-0.47851 z m -222.65234,2.43554 c 1.98663,0.10545 3.38371,2.01376 5.33399,5.78516 3.06145,5.92018 2.94312,6.49816 -3.04297,14.76172 -9.07416,12.52656 -7.62231,15.59261 2.29101,4.83789 3.86438,-4.19233 7.86044,-7.71429 9.9043,-8.83594 1.13068,-0.008 2.40136,0.21089 4.00195,0.5625 0.41828,0.0919 0.87174,0.23285 1.34766,0.40625 6.9908,3.40248 18.10534,12.35179 20.70898,17.38672 l 2.54102,4.91797 c -0.84253,1.2316 -2.85766,3.57197 -5.63867,6.58398 l -0.40235,0.30274 c -15.1401,11.36009 -28.49106,26.66978 -36.35547,40.64844 -4.47507,7.95424 -7.17884,15.47861 -7.41015,21.5957 -0.1731,4.582 -1.2453,8.21359 -2.38086,8.07031 -1.13552,-0.14286 -5.08225,-0.83491 -8.77149,-1.53711 l -4.82226,-0.91601 c -0.46515,-0.12813 -0.76699,-0.21973 -0.99414,-0.29492 0.1028,-0.6564 0.4393,-1.63252 0.9707,-2.83985 l 4.375,-6.51562 c 3.43068,-5.10993 8.19917,-15.67684 10.59766,-23.48047 5.59041,-18.1886 4.512,-40.26701 -2.86133,-58.52149 l -4.59375,-11.37304 c -0.0877,-0.52267 -0.13073,-0.97592 -0.12695,-1.36329 l 6.45507,-5.15039 c 4.30995,-3.43899 6.88642,-5.13673 8.87305,-5.03125 z m -110.57422,2.57618 c 0.288,-0.0302 0.5302,0.16784 0.69922,0.61718 0.52489,1.39548 4.42969,4.49138 8.67774,6.87891 l 6.23632,3.50391 0.43946,0.3164 c 0.30225,0.63156 0.47055,1.31033 0.5039,2.13086 l -3.24218,9.60547 c -9.9568,29.49298 -5.60428,59.27861 12.11523,82.91211 l 1.78906,2.38672 c 1.23906,2.30918 1.77587,3.85074 1.68946,4.92383 l -4.10743,1.5625 c -4.6725,1.77645 -6.68265,1.40083 -11.47265,-2.14063 -13.61197,-10.06375 -21.03092,-14.47509 -24.14844,-14.36133 -2.74777,0.10016 -2.64371,0.54768 0.60547,2.58008 8.48025,5.30457 17.87443,14.50887 16.30469,15.97461 -2.89031,2.69881 -58.51793,18.6761 -60.58203,17.40039 -1.08787,-0.67234 -1.97852,-4.93831 -1.97852,-9.48047 0,-4.97994 -0.81945,-7.75182 -2.06445,-6.98242 -1.13554,0.70182 -2.06446,4.93696 -2.06446,9.41211 0,0.88607 -0.008,1.65701 -0.0254,2.36133 -0.009,0.22639 -0.0124,0.45517 -0.0332,0.67578 -0.12484,0.4518 -0.23637,0.93644 -0.31445,1.48633 -0.16774,1.18095 -0.61861,2.16932 -1.25196,2.97265 -0.96372,0.48756 -2.52044,0.61367 -4.88672,0.63086 -7.10228,-0.0302 -7.49159,-0.88873 -8.13085,-14.68945 -0.42395,-9.15231 0.40793,-12.84076 4.04687,-17.95117 2.93652,-4.12396 9.18872,-7.8496 14.65234,-9.3418 1.95566,-0.28989 4.11294,-0.45086 6.49805,-0.47656 0.14419,0.034 0.30066,0.0524 0.4375,0.0937 1.33472,0.40377 8.23489,1.26393 15.33203,1.91016 5.4838,0.49935 8.77665,0.62445 10.66797,0.28711 1.19906,-0.13115 1.83643,-0.51604 2.08594,-1.21094 0.0113,-0.0265 0.0211,-0.0544 0.0312,-0.082 0.0129,-0.042 0.0247,-0.0851 0.0351,-0.12891 0.0503,-0.18217 0.082,-0.37568 0.082,-0.5918 0,-0.0189 -0.005,-0.0377 -0.006,-0.0547 10e-4,-0.0401 0.006,-0.076 0.006,-0.11719 0,-1.30885 -1.00384,-2.29981 -2.62891,-2.76367 -1.01982,-0.56349 -2.25772,-1.03926 -3.59961,-1.33399 -8.27683,-1.81788 -12.71318,-10.74203 -13.95312,-28.07226 -1.27196,-17.77701 1.77813,-26.43257 12.93945,-36.72071 3.11117,-2.86775 5.77135,-5.07792 8.15234,-6.68554 1.33988,-0.78097 2.73377,-1.55563 4.2168,-2.32227 5.2491,-2.10996 9.29664,-0.38869 14.63672,4.78711 8.21155,7.95893 9.20302,6.00911 2.19336,-4.31055 -3.93834,-5.79798 -4.49199,-8.18695 -2.86133,-12.34961 0.78782,-2.01105 1.64372,-3.17714 2.27734,-3.24218 z m -281.052732,17.3789 c 0.919899,0.37644 2.879499,1.59476 5.732422,3.38282 9.243341,5.79323 22.134182,15.43203 30.400391,22.51562 1.046989,0.96612 2.076738,1.92935 3.0625,2.88281 2.742599,2.65278 4.643584,4.62105 5.916015,6.17383 1.515754,2.30767 0.934784,3.84871 -1.314453,8.35742 -1.652372,3.31227 -3.15226,6.02062 -3.542969,6.41992 -0.244233,-0.21014 -0.520008,-0.48466 -0.824218,-0.8125 -1.22792,-1.6374 -3.84239,-5.36622 -6.769532,-9.67968 -3.926309,-5.78589 -13.6828,-17.53082 -21.679687,-26.09961 -3.21501,-3.44493 -5.610742,-6.02003 -7.451172,-8.04102 -2.723365,-3.14143 -3.829172,-4.71927 -3.529297,-5.09961 z m 511.648442,0.9668 0.002,0.002 c 3.67026,-0.14249 3.93872,1.30941 4.98633,7.09961 1.99619,11.03293 9.83328,21.9812 18.77148,26.22266 4.6924,2.22667 10.75783,3.1407 16.79688,2.88086 4.92294,0.23017 7.84656,-0.21658 11.24023,-1.94141 2.85128,-0.91752 5.45155,-2.13702 7.58789,-3.6582 l 4.25195,-3.02735 c 1.34903,-0.305 2.36502,-0.0718 3.29883,0.625 l 3.94727,7.78907 c 3.46462,6.83712 8.45461,24.53033 9.38672,32.63867 0.008,0.17348 0.0254,0.37956 0.0254,0.5332 -0.12699,0.85777 -0.36774,1.40903 -0.83399,1.69922 -0.95251,-0.20069 -2.49361,-0.67386 -4.32226,-1.36914 -8.43991,-3.20886 -21.05598,-2.3462 -29.625,2.02539 -21.73357,11.08762 -28.92733,37.1246 -15.65821,56.67773 5.61842,8.27917 5.27281,8.72419 -9.99414,12.78907 -6.41956,1.70921 -9.77682,2.5962 -11.42968,2.58789 -0.44293,-0.39126 -0.85714,-1.19938 -1.23438,-2.31446 0.0835,-0.36923 0.17788,-0.75099 0.29883,-1.21289 1.81361,-6.93528 -2.26579,-17.60224 -8.71094,-26.19726 -0.10091,-0.13909 -0.20776,-0.27251 -0.31054,-0.41016 -0.20259,-0.26532 -0.40621,-0.52827 -0.61329,-0.78906 -0.23055,-0.2914 -0.46022,-0.58346 -0.69921,-0.86719 -3.91692,-4.72603 -8.52346,-8.6097 -13.1504,-10.54297 -2.93472,-1.22619 -6.64551,-2.02153 -10.59179,-2.40625 -2.58573,-0.3462 -5.23719,-0.41769 -7.91797,-0.2207 -5.07991,0.21014 -9.99561,1.08358 -13.68945,2.62695 -3.08485,1.28897 -6.21248,3.44164 -9.09766,6.08399 -0.48246,0.35641 -0.92567,0.70074 -1.26953,1.01172 -1.04035,0.9408 -2.14886,2.25148 -3.25196,3.76953 -3.82164,4.67047 -6.67866,10.01109 -7.58007,14.77148 -0.55896,1.76304 -0.89649,3.33824 -0.89649,4.52539 0,0.1474 -0.008,0.27287 -0.0117,0.41211 -0.0264,0.12737 -0.0508,0.25488 -0.0762,0.37696 -0.50203,1.37892 -1.07698,2.44907 -1.62305,2.99804 -0.28798,0.0593 -0.63582,0.0605 -1.02148,0.0254 -5.05017,-1.68499 -18.15065,-8.48418 -25.76953,-13.53711 -14.08879,-9.34367 -21.04883,-19.47186 -21.04883,-30.62695 0,-4.91146 1.52821,-12.94357 3.05469,-17.67773 0.28686,-0.5681 0.5791,-1.1077 0.88086,-1.57618 0.73315,-1.13824 1.43738,-1.72083 2.60351,-1.73046 1.82427,0.72593 5.18356,2.15508 8.99219,3.83984 18.91862,8.36859 41.53058,0.90386 50.49609,-16.66992 1.50267,-2.9455 2.59197,-6.52622 3.27149,-10.32031 1.10203,-4.66436 1.30625,-9.54571 0.56641,-14.42383 -0.41424,-3.99519 -1.326,-7.65179 -2.76758,-10.43946 l -1.16016,-2.24609 c -0.9004,-2.509 -0.88855,-3.7058 0.4375,-4.80859 l 7.4336,-3.3125 c 10.42455,-4.64652 27.00531,-9.13199 41.0664,-11.11133 2.134,-0.30047 3.73559,-0.52667 4.95899,-0.57422 z m 15.5039,0.1582 c 9.27553,0.26419 30.88892,7.91252 39.125,14.80078 l 4.53711,3.79493 c 0.42199,0.73421 0.70802,1.44659 0.82031,2.12109 l -4.95703,4.35352 c -1.66537,1.46295 -3.56576,2.61053 -5.61328,3.46289 -4.91172,1.51528 -10.50681,1.90502 -15.68359,1.16601 -5.4999,-1.1972 -10.78785,-3.98677 -14.76758,-8.27344 -4.82525,-5.1973 -9.39268,-17.42248 -7.5957,-20.33007 0.51038,-0.82579 1.99426,-1.15667 4.13476,-1.09571 z m -77.74219,19.89063 c 0.50646,0.0544 0.99014,0.21883 1.44727,0.49609 2.40227,2.29894 4.96289,11.4886 4.96289,18.85547 0,9.76282 -5.54715,19.76627 -14.73242,26.56836 -7.32412,5.42389 -21.5234,6.48334 -31.20508,2.32812 -4.25828,-1.82759 -7.74414,-4.53483 -7.74414,-6.01757 0,-5.76669 39.69459,-41.0855 47.27148,-42.23047 z m 178.76954,2.00976 c 3.16611,0 5.40411,1.52769 6.27929,4.28516 3.39136,12.60241 5.91417,4.03441 12.52539,3.97461 2.18321,0 3.9499,0.72203 5.14453,1.88476 0.92145,1.15518 1.49154,2.559 1.70508,4.02735 0.0227,1.32691 -0.36021,2.75786 -1.25195,4.17383 -6.62831,7.40997 -9.67371,5.69638 -3.53125,10.71875 3.56005,2.95457 3.76299,8.487 0.43164,11.81836 -0.98358,0.98362 -1.93616,1.64869 -2.88867,2.01171 -0.75364,0.24 -1.50489,0.33215 -2.25781,0.27735 -1.57815,-0.20523 -3.2252,-1.22325 -5.08594,-3.08399 -3.3891,-4.9695 -6.81381,1.11526 -8.00977,3.40821 -0.0189,0.034 -0.0397,0.0648 -0.0586,0.0996 -1.88769,2.0039 -5.22975,3.41365 -8.14649,3.70312 -3.91022,-1.20431 -6.9382,-5.78103 -4.50781,-11.11523 3.21448,-8.73358 -0.86216,-5.96657 -3.82422,-5.4043 -0.4063,-0.0684 -0.8283,-0.13364 -1.32422,-0.19336 -1.59828,-0.19162 -2.96589,-0.59254 -4.11914,-1.13672 -1.62432,-1.26724 -2.72265,-3.28564 -2.72265,-5.80273 0,-4.39533 4.07138,-8.16119 8.2207,-8.41211 13.75855,3.02629 0.0279,-14.76294 13.42188,-15.23438 z m -121.57813,4.35938 c -5.1586,0.0189 -10.41682,1.21341 -15.40039,3.75586 -24.46791,12.48257 -24.37918,48.61461 0.14844,60.70312 9.13164,4.50059 18.7971,4.4095 27.15625,1.18946 4.68121,-1.70174 8.94055,-4.44527 12.42187,-8.03907 0.2487,-0.24718 0.48318,-0.50743 0.72461,-0.76172 0.0582,-0.0643 0.11991,-0.12482 0.17774,-0.18945 7.12236,-7.61151 10.92103,-18.33065 8.39453,-29.88867 -3.5678,-16.3214 -18.14728,-26.82709 -33.62305,-26.76953 z m -433.5,2.1289 c 0.26738,0.0324 0.52526,0.17728 0.76367,0.40235 v 1.91015 c 0,3.79405 2.18738,7.11105 7.22461,10.95313 3.9744,3.03141 7.22656,6.62417 7.22656,7.98242 0,1.35821 -3.282,4.03362 -7.29492,5.94727 -3.5587,1.697 -6.5673,3.03301 -7.40429,3.30468 -1.0665,-0.45656 -3.26578,-1.83831 -5.80274,-3.5332 -5.99223,-4.58029 -14.5957,-11.97042 -14.5957,-12.93359 0,-0.9868 2.08955,-2.86938 4.64453,-4.1836 2.4416,-1.25593 6.77825,-4.46646 9.88477,-7.29101 2.39595,-1.40542 4.34248,-2.42627 5.08398,-2.55274 0.0912,-0.0156 0.1804,-0.0165 0.26953,-0.006 z m 433.49805,4.29102 v 0.002 c 0.79219,0.0189 1.60222,0.056 2.42968,0.11719 3.04812,0.22526 5.4743,0.56207 7.5625,1.10742 1.00385,0.36397 2.00037,0.77832 2.98047,1.28516 19.08979,9.87171 19.35883,39.79953 0.44532,49.58008 -4.80503,2.48481 -11.60663,3.44451 -17.60743,2.75781 -3.00124,-0.4704 -5.77958,-1.32122 -8.29882,-2.49805 -5.90242,-3.58522 -13.08186,-13.09998 -14.53516,-19.71679 -3.47376,-15.81593 9.51023,-30.32237 24.42383,-32.59961 0.8465,-0.0378 1.70911,-0.0537 2.59961,-0.0352 z m 155.23633,0.0215 c 0.0593,0.008 0.11915,0.0264 0.17773,0.0566 8.72436,4.76853 22.45276,10.26916 31.24609,12.51953 7.99631,2.04638 9.91355,3.17644 7.17188,4.22851 -0.082,0.0302 -0.17,0.0502 -0.25391,0.0781 -1.51563,0.1954 -3.20255,0.13332 -4.68359,-0.1543 -0.3617,-0.16932 -0.68678,-0.37037 -0.93555,-0.61914 -6.68413,-6.68413 -21.95312,1.29951 -21.95312,11.47851 0,2.94361 -1.85779,7.71435 -4.12891,10.60157 -7.47016,9.49678 -4.28056,19.70525 7.22852,23.13672 l 4.4414,1.32617 c 0.21052,0.18179 0.37569,0.35941 0.49414,0.53515 l -5.9707,0.0703 c -9.40316,0.11074 -33.93573,-7.88649 -45.5625,-14.85352 -2.41674,-1.44816 -4.09306,-2.48552 -5.23633,-3.27344 -0.63658,-0.8883 -0.32352,-1.52183 1.24805,-1.77929 0.77616,-0.127 1.62751,-0.35529 2.49219,-0.64453 2.49146,-0.40842 5.01498,-1.43299 6.21093,-2.62891 1.66772,-1.66753 5.41003,-2.42263 9.23438,-1.86133 6.4323,0.94405 11.26845,-1.89148 13.57226,-7.46484 0.92312,-1.31728 1.27927,-2.71223 1.25391,-4.75586 0.0741,-0.42248 0.1136,-0.85056 0.12305,-1.28321 0.0847,-0.98424 0.13318,-1.99828 0.10937,-3.07031 -0.0816,-3.68273 0.16667,-7.65521 0.59961,-11.18945 0.91676,-0.9947 1.36713,-3.60183 1.09961,-6.3418 0.62321,-2.55666 1.33924,-4.18261 2.02149,-4.11133 z m -491.80079,7.08204 c 1.24873,-0.11037 3.07823,1.21509 6.11329,4.21093 0.46318,0.54614 0.97062,1.0549 1.49218,1.51563 3.04329,3.17677 3.92345,4.78512 2.98438,5.69531 -0.34054,0.20598 -0.67766,0.40483 -0.9961,0.56641 -0.79993,0.30916 -1.39403,0.55211 -1.88867,0.71289 -0.32761,0.0737 -0.65439,0.12387 -0.97851,0.13672 -0.50551,-0.0854 -1.03061,-0.21356 -1.57032,-0.37891 -0.83513,-0.4526 -1.94209,-1.2616 -3.83007,-2.58398 -5.0134,-3.51156 -5.39358,-4.70743 -2.79688,-8.80274 0.41322,-0.6517 0.87909,-1.01992 1.4707,-1.07226 z m -13.93554,7.06445 c 0.0163,0.004 0.0415,0.0138 0.0586,0.0176 1.31561,0.72155 5.48448,3.5479 10.16992,6.91406 7.07833,5.08509 10.74581,6.56106 12.90821,5.19336 1.66141,-1.05082 3.84691,-1.92629 4.85742,-1.94141 2.1202,-0.0378 0.38764,18.20206 -2.75,28.94336 -5.50051,18.83029 -23.11547,36.35755 -41.37891,41.17188 -35.90109,9.46363 -68.60108,-2.67305 -83.10547,-30.35352 -0.20126,-0.38668 -0.41099,-0.76566 -0.60547,-1.1582 -0.16391,-0.3292 -0.31382,-0.67036 -0.47265,-1.00391 -0.29431,-0.6198 -0.58587,-1.2411 -0.86328,-1.875 -3.99445,-9.34118 -8.73776,-38.91302 -6.72852,-42.16406 0.61724,-0.9987 6.03352,1.89108 12.03711,6.42383 4.7395,3.57838 9.44697,6.61217 11.89649,7.74414 l 1.08398,0.78906 0.45508,-0.22461 h 0.002 l 0.14063,-0.0703 c 0.006,1.9e-4 0.017,0.004 0.0234,0.004 1.0991,0 7.43225,-2.74787 14.54493,-6.24805 0.68721,-0.33789 1.33865,-0.6395 2.03515,-0.99024 14.09632,-7.09882 14.42422,-7.15959 16.96094,-3.09765 1.40162,2.24436 2.85119,3.51345 4.28125,3.84375 l 0.96094,1.1875 0.76172,-1.25391 c 1.42407,-0.44969 2.79959,-1.86893 4.05468,-4.28125 0.91893,-1.76621 1.83627,-3.42384 2.44336,-4.44141 0.91065,-0.46055 2.068,-0.36737 3.9961,0.39258 2.38958,1.21006 5.78361,3.11507 9.5039,5.375 6.14217,3.73119 12.05178,6.81351 13.99219,7.33985 l 0.87891,0.49218 0.0605,-0.14453 0.10352,0.0606 0.30078,-0.76563 c 1.21122,-1.10466 2.77171,-4.16724 3.85742,-7.79101 0.70887,-2.36598 1.42698,-4.47311 2.01563,-5.98242 0.59739,-1.03551 1.13164,-1.79039 1.51953,-2.10547 z m 529.36718,6.35742 c 0.3292,0.008 0.66045,0.0189 1.00586,0.0586 2.28575,0.2744 4.48176,1.43551 6.10938,2.86133 0.0113,0.0151 0.0258,0.0263 0.0371,0.043 0.26494,0.36208 0.46769,0.68077 0.69141,1.01367 2.75799,6.09658 8.30813,-1.20692 9.58593,-1.67578 0.19238,-0.0639 0.36849,-0.0999 0.52735,-0.10937 1.1119,-0.0665 1.39751,1.18676 0.77929,3.55078 -0.19237,0.73595 -0.4662,1.42025 -0.77929,2.02539 -0.40834,2.16708 -3.03152,8.42395 -6.63672,14.0039 -1.05157,2.16939 -2.37466,3.9672 -3.31836,4.53126 -4.52414,5.32873 -9.37865,7.03854 -10.8711,7.45507 -0.0262,0.0132 -0.0498,0.0321 -0.0762,0.0449 -0.12699,0.0227 -0.25549,0.0522 -0.38086,0.0723 -0.8776,-0.0881 -1.8268,-0.14258 -2.82422,-0.14258 -1.14689,0 -2.08361,-0.0341 -2.93359,-0.0957 -2.58429,-0.72102 -4.46456,-2.26218 -5.37891,-4.11328 -0.034,-0.18671 -0.0767,-0.34583 -0.10546,-0.54883 -0.16971,-1.19717 -0.13528,-2.35261 0.0566,-3.43945 0.73708,-1.76689 2.38973,-3.73779 4.22265,-5.1875 0.32958,-0.17197 0.67456,-0.33864 1.04102,-0.4961 6.61729,-2.21292 7.69096,-3.21459 3.7539,-8.41992 -0.7127,-1.74966 -1.0636,-4.00834 -0.82617,-5.86133 0.9111,-3.01629 3.5188,-5.02152 6.32031,-5.57031 z m -670.443354,5.66016 10.863281,1.20703 c 4.050414,0.44999 7.145952,0.87136 9.539062,1.34765 3.40647,1.04656 5.544712,2.22355 6.619141,3.60157 0.230627,0.53552 0.383536,1.12723 0.478516,1.79492 0.09502,0.66792 0.169463,1.23917 0.21289,1.74805 -0.02381,0.56621 -0.07845,1.10734 -0.183594,1.57226 -0.02457,0.1081 -0.05434,0.18418 -0.08008,0.2832 -0.01852,0.0227 -0.0306,0.0507 -0.05078,0.0703 -0.02608,0.0264 -0.05266,0.0535 -0.08203,0.0781 -0.03591,0.0265 -0.0725,0.0547 -0.113281,0.0781 -0.0121,0.008 -0.02464,0.0139 -0.03711,0.0215 -0.225713,0.11717 -0.539333,0.15719 -0.93164,0.13867 -1.530913,-0.66183 -6.394214,-2.85727 -12.814453,-5.79687 z m 582.992184,7.92187 5.8086,4.50391 c 21.40429,16.59201 52.74277,31.03473 67.48633,31.10351 0.67213,0.003 1.254,0.0144 1.76953,0.0371 l 2.70703,0.63282 c 0.25814,0.353 0.0582,0.8852 -0.51953,1.68359 l -1.43946,1.5332 -1.32226,1.40821 c -0.23698,0.25209 -0.47265,0.47951 -0.70899,0.71093 -3.71365,2.93409 -8.14674,3.34996 -16.57422,2.03907 -14.45109,-2.2478 -31.38445,-9.05967 -44.55664,-17.92383 -10.55274,-7.10147 -11.39976,-8.28188 -12.00195,-16.68555 z m -24.52734,7.01172 h 0.002 c 3.64762,-0.0726 7.37384,0.46684 11.04883,1.67969 3.27364,1.08041 5.07548,1.79666 5.95313,2.91211 0.0703,0.0945 0.13578,0.19193 0.20117,0.28906 0.73258,1.19958 0.56697,2.87018 0.0254,5.8125 -3.07941,16.75793 -17.01308,37.22796 -29.86328,43.87305 -8.11828,4.19818 -9.61279,3.80307 -14.21875,-3.74805 -6.22711,-10.20892 -7.16031,-19.00416 -3.13477,-29.54492 4.95054,-12.9628 16.95909,-21.01469 29.98633,-21.27344 z m 23.66016,17.17578 11.40429,7.57031 c 9.99814,6.6384 34.40473,16.58862 46.50391,18.95899 3.12193,0.6116 1.61752,1.96904 -6.16211,5.5625 -3.70379,1.71073 -7.75409,3.01469 -11.98047,3.93164 -2.69114,0.53333 -5.49931,0.9593 -8.32031,1.2832 -14.30011,1.353 -29.36642,-1.41065 -39.4707,-8.03125 l -4.03907,-2.64648 c -0.15912,-0.57797 -0.17545,-1.21846 -0.0957,-1.91797 0.12699,-0.33676 0.268,-0.69865 0.42969,-1.10352 l 5.25781,-10.58203 z m -118.11719,13.44531 c 16.79032,-0.16856 33.22565,11.79429 32.0625,31.03711 l -0.51367,8.50977 c -1.76512,0.61576 -4.83205,0.85161 -10.26172,1.01367 l -3.20508,0.0742 c -13.37677,0.30501 -30.56874,-1.74163 -42.32617,-5.03711 -5.7882,-1.62232 -8.03676,-6.45639 -6.54883,-12.66211 1.92087,-4.96036 5.07262,-10.44762 8.4082,-13.7832 1.04848,-1.04848 2.14162,-2.00537 3.26758,-2.88672 5.70512,-4.21081 12.43899,-6.19854 19.11719,-6.26563 z"
       style="fill:#1a1a1a;stroke-width:2.06462359" />
  </g>
</svg>
