<?xml version="1.0" encoding="UTF-8" standalone="no"?>
<svg
   xmlns:dc="http://purl.org/dc/elements/1.1/"
   xmlns:cc="http://creativecommons.org/ns#"
   xmlns:rdf="http://www.w3.org/1999/02/22-rdf-syntax-ns#"
   xmlns:svg="http://www.w3.org/2000/svg"
   xmlns="http://www.w3.org/2000/svg"
   xmlns:sodipodi="http://sodipodi.sourceforge.net/DTD/sodipodi-0.dtd"
   xmlns:inkscape="http://www.inkscape.org/namespaces/inkscape"
   width="210mm"
   height="297mm"
   viewBox="0 0 210 297"
   version="1.1"
   id="svg1449"
   sodipodi:docname="c_is_for_cake.svg"
   inkscape:version="0.92.4 (5da689c313, 2019-01-14)">
  <sodipodi:namedview
     pagecolor="#ffffff"
     bordercolor="#666666"
     borderopacity="1"
     objecttolerance="10"
     gridtolerance="10"
     guidetolerance="10"
     inkscape:pageopacity="0"
     inkscape:pageshadow="2"
     inkscape:window-width="1029"
     inkscape:window-height="520"
     id="namedview12"
     showgrid="false"
     inkscape:zoom="0.2102413"
     inkscape:cx="396.85039"
     inkscape:cy="561.25984"
     inkscape:window-x="0"
     inkscape:window-y="0"
     inkscape:window-maximized="0"
     inkscape:current-layer="svg1449" />
  <title
     id="title2029">C is for Cake</title>
  <defs
     id="defs1443" />
  <metadata
     id="metadata1446">
    <rdf:RDF>
      <cc:Work
         rdf:about="">
        <dc:format>image/svg+xml</dc:format>
        <dc:type
           rdf:resource="http://purl.org/dc/dcmitype/StillImage" />
        <dc:title>C is for Cake</dc:title>
        <dc:date>2020-04-10</dc:date>
        <dc:creator>
          <cc:Agent>
            <dc:title>Lena London</dc:title>
          </cc:Agent>
        </dc:creator>
        <dc:subject>
          <rdf:Bag>
            <rdf:li>csk</rdf:li>
            <rdf:li>acb</rdf:li>
            <rdf:li>sizing-cover</rdf:li>
            <rdf:li>letters</rdf:li>
            <rdf:li>c</rdf:li>
          </rdf:Bag>
        </dc:subject>
        <dc:source>http://www.supercoloring.com/coloring-pages/piece-of-cake</dc:source>
        <cc:license
           rdf:resource="http://creativecommons.org/licenses/by-sa/4.0/" />
      </cc:Work>
      <cc:License
         rdf:about="http://creativecommons.org/licenses/by-sa/4.0/">
        <cc:permits
           rdf:resource="http://creativecommons.org/ns#Reproduction" />
        <cc:permits
           rdf:resource="http://creativecommons.org/ns#Distribution" />
        <cc:requires
           rdf:resource="http://creativecommons.org/ns#Notice" />
        <cc:requires
           rdf:resource="http://creativecommons.org/ns#Attribution" />
        <cc:permits
           rdf:resource="http://creativecommons.org/ns#DerivativeWorks" />
        <cc:requires
           rdf:resource="http://creativecommons.org/ns#ShareAlike" />
      </cc:License>
    </rdf:RDF>
  </metadata>
  <path
     id="path2019"
     d="m 144.93069,106.25605 c -0.57797,0 -0.68715,0.43774 -1.82263,7.30085 -1.27319,7.69544 -3.51849,11.36659 -11.46959,18.75596 -1.38002,1.28253 -2.75544,2.6338 -3.99975,3.91138 -0.4503,0.44839 -0.87921,0.8952 -1.28313,1.34152 -1.62148,1.72999 -2.86489,3.19705 -3.30987,3.95635 -1.52644,2.60468 -3.65621,10.83385 -3.29851,12.74444 0.1186,0.63353 -0.96779,1.34011 -3.31556,2.15698 -1.05337,0.3665 -1.3099,0.44983 -1.97456,0.67748 -0.84183,0.18779 -1.40867,0.23388 -1.78232,0.1235 -0.10484,-0.37259 -0.24182,-0.93876 -0.38137,-1.60817 -1.10513,-5.30139 -4.69781,-9.09147 -9.25421,-10.50323 -0.54642,-0.20477 -1.07306,-0.36306 -1.5937,-0.47904 l -1.06196,-0.53072 -1.081064,0.30644 c -0.543047,0.007 -1.100175,0.0627 -1.683621,0.16537 -1.11289,0.10644 -2.24409,0.3382 -3.379121,0.7152 -1.806704,0.60009 -3.362716,0.99103 -3.458186,0.86816 -0.09547,-0.12286 -0.804957,-1.5558 -1.576131,-3.18378 -4.404076,-9.29709 -14.724922,-15.25413 -24.664127,-14.23583 -4.583898,0.46964 -7.390093,1.37802 -6.867797,2.22312 0.216709,0.35062 1.305705,0.32221 2.729031,-0.0708 4.170619,-1.15156 12.072009,-0.34609 16.032612,1.63401 8.058452,4.02881 16.069593,15.6316 10.792624,15.6316 -1.88826,0 -5.769919,1.73743 -7.512719,3.3631 -2.99933,2.79773 -4.172442,6.0705 -4.203361,11.72487 l -0.02842,5.24774 -5.079278,1.54668 c -2.793396,0.85065 -13.754046,3.96447 -24.357168,6.91999 -5.743532,1.60095 -10.926347,3.09911 -14.565519,4.19612 -2.721821,0.74479 -4.726095,1.28416 -4.835882,1.28416 -0.115051,0 -0.2008,0.0726 -0.254247,0.25167 l -0.234611,0.0651 0.07596,0.50798 c -0.0184,1.26902 0.542622,5.34098 1.395263,9.96786 2.432227,13.19858 4.856475,29.96909 5.483386,37.93309 l 0.478007,6.07094 c -0.552143,0.22559 -2.405136,0.36471 -5.799645,0.43615 H 15.82384 15.667777 c -0.270234,0 -0.522199,0.002 -0.789616,0.003 -1.87887,0.002 -3.595355,0.011 -5.1821122,0.0253 -7.0002423,0.0128 -10.8778048,0.15218 -11.7724078,0.43253 -0.1251185,0.0255 -0.2113566,0.0515 -0.2113566,0.078 0,0.0124 0.00386,0.0245 0.00982,0.0367 -0.00407,0.008 -0.00982,0.0167 -0.00982,0.0253 0,0.006 0.00538,0.0127 0.00775,0.0191 -0.00212,0.005 -0.00775,0.0103 -0.00775,0.0155 0,0.0719 0.211083,0.13804 0.6046142,0.19843 0.1251457,0.0299 0.2636106,0.0591 0.4247803,0.0879 l -1.3466878,0.0109 1.506368,0.015 c 3.730804,0.6151 15.5596879,0.92545 24.8589469,0.54209 l 5.32939,-0.21963 h 2.726449 l 2.004529,0.0196 0.07596,0.78755 -0.01188,3.09232 -0.220141,4.09174 c -0.242567,4.50891 -0.646025,9.09632 -0.896586,10.19421 l -0.445452,1.95182 c -0.05091,-0.006 -0.150231,-0.0346 -0.254249,-0.0656 l -5.314402,-2.39779 c -1.711124,-0.77191 -3.31986,-1.40021 -4.480864,-1.77509 l -1.388029,-0.64492 -0.05426,0.26459 c -0.05928,-0.005 -0.101663,-0.002 -0.123507,0.0114 -0.06212,0.002 -0.114547,0.009 -0.143661,0.0269 -0.347224,0.2146 -0.630969,1.35063 -0.630969,2.52439 0,0.19618 -0.0034,0.35358 -0.0062,0.5178 l -0.172599,1.06919 c -0.403697,0.78962 -1.719553,0.97448 -6.007902,1.6216 -1.482163,0.22366 -2.837087,0.63711 -3.011186,0.91881 -0.174099,0.2817 0.111838,1.53746 0.63562,2.79104 l 0.746208,1.78542 c 0.03828,0.21904 0.04462,0.39698 0.0088,0.54364 l -2.66392,0.67076 c -1.5736247,0.39624 -2.8608073,0.93662 -2.8608073,1.20044 0,0.26382 0.409725,1.64194 0.9110554,3.06286 l 0.421163,1.19425 c 0.0819,0.86121 -0.023242,1.34073 -0.429948,1.6862 l -1.4195514,0.45733 c -2.4376817,0.78571 -3.6792745,1.21039 -3.993038,1.7663 l -0.2511475,-0.22685 0.234611,0.25942 c -0.011337,0.0229 -0.021693,0.0458 -0.029972,0.0693 l -0.097669,0.0372 0.07028,0.0718 c -0.080711,0.53123 0.550992,1.21452 1.7094563,2.40088 l 2.0903117,2.14096 c 0.05323,0.22182 0.060777,0.45545 0.027389,0.70641 l -1.0950236,2.14664 c -0.7273287,1.42568 -1.3223999,2.77538 -1.3223999,2.99929 0,0.11661 0.54698,0.16656 1.4076658,0.15452 0.091479,0.004 0.1931657,9.3e-4 0.3028239,-0.007 0.7525922,-0.0211 1.6875746,-0.0815 2.7135296,-0.1845 l 4.337719,-0.43563 c 0.04595,0.0326 0.09047,0.0679 0.132809,0.10646 l 0.994771,2.48666 c 0.201079,0.50255 0.439964,0.96896 0.686263,1.36787 0.275995,0.59783 0.565227,1.04498 0.785999,1.186 l 0.03359,0.0785 0.08062,-0.0346 c 0.0072,9.3e-4 0.01522,0.004 0.02222,0.004 0.03799,0 0.09797,-0.0118 0.168982,-0.0295 0.02418,0.0173 0.04645,0.0295 0.06356,0.0295 0.0072,0 0.02829,-0.008 0.03876,-0.009 0.02219,0.004 0.04472,0.009 0.06563,0.009 0.497457,0 2.318131,-0.71644 4.046264,-1.59216 l 3.052527,-1.54667 c 0.0082,-1.1e-4 0.01571,9.5e-4 0.02377,10e-4 0.05234,0.0281 0.116003,0.0791 0.187069,0.1452 l 1.485181,2.35283 c 0.424781,0.67292 0.834628,1.27855 1.16582,1.7348 l 0.433565,0.75911 0.133325,-0.0486 c 0.05794,0.058 0.10558,0.0992 0.128675,0.0992 0.140374,0 2.58667,-0.89022 5.435844,-1.97816 l 5.045686,-1.92704 0.923975,0.70487 5.16e-4,5.3e-4 0.943613,0.90382 0.09043,0.0868 c 0.07237,0.0693 0.127519,0.11713 0.195337,0.18137 0.04093,0.0379 0.08365,0.0785 0.123505,0.11473 0.474797,0.44394 0.863682,0.77091 1.238686,0.92813 0.191212,0.0991 0.376285,0.16708 0.561205,0.20463 l 0.178284,0.17258 0.0341,-0.0248 0.101288,0.077 0.01964,-0.0129 0.08527,0.0749 0.424781,-0.324 c 0.644162,-0.17262 1.388522,-0.66104 2.45618,-1.47537 l 0.586528,-0.44752 c 0.134853,-0.0848 0.239363,-0.1483 0.383439,-0.23926 0.755862,-0.47718 1.190093,-0.71395 1.744078,-0.62323 l 2.536799,1.62782 c 1.66426,1.06794 3.32782,1.94276 3.743438,1.97197 l 0.159682,0.0966 0.06976,-0.17415 c 0.377018,-0.25734 0.878988,-1.12099 1.215946,-2.14199 0.403333,-1.22211 0.962813,-2.22157 1.243335,-2.22157 0.280525,0 2.388995,0.70709 4.685504,1.57149 l 4.175455,1.57146 1.089338,-1.8438 0.868682,-1.47071 c 0.11697,-0.12724 0.227436,-0.22042 0.343649,-0.26821 l 2.420522,2.07172 c 0.835422,0.71509 1.653865,1.3471 2.239658,1.74461 l 0.545703,0.53586 0.0036,-0.002 0.05426,0.0527 0.321942,-0.18399 c 0.47869,-0.14428 1.967667,-0.91606 3.54552,-1.84639 l 3.075265,-1.81332 1.25212,1.2759 1.255739,1.46864 c 1.320297,1.54432 2.646389,2.81737 2.947106,2.82877 0.300715,0.0114 1.973432,-1.17298 3.716568,-2.63242 2.267236,-1.89822 3.417001,-2.48565 4.039547,-2.06343 0.478642,0.32462 2.153206,1.52929 3.721738,2.67737 l 2.85202,2.08772 1.767336,-2.49338 c 0.97201,-1.37139 2.05275,-2.97399 2.40192,-3.56102 0.58425,-0.98224 0.99536,-0.93716 5.15575,0.5648 2.8078,1.01365 4.39925,1.55684 5.32423,1.53892 0.17155,0.0549 0.2981,0.093 0.32298,0.093 0.024,0 0.0509,-0.0597 0.078,-0.1452 0.005,-0.001 0.0109,-0.003 0.016,-0.004 l 0.21342,0.0739 v -0.16587 c 0.5536,-0.31638 0.66073,-1.14276 0.75861,-2.55952 l 0.19379,-2.80088 5.35988,2.16628 c 2.9481,1.19136 5.44803,2.16577 5.55521,2.16577 0.0935,0 0.16853,-0.99764 0.18707,-2.29082 0.0573,-0.35073 0.10357,-0.73681 0.13178,-1.14517 l 0.1204,-1.74095 c 0.0947,-0.33454 0.20967,-0.53642 0.33435,-0.53642 0.31823,0 2.91439,0.99946 5.76967,2.22157 2.85529,1.22211 5.45196,2.22208 5.77019,2.22208 0.0432,0 0.085,-0.0282 0.12558,-0.078 0.12989,0.0463 0.22353,0.078 0.24081,0.078 0.0981,0 0.17736,-1.11432 0.20154,-2.58588 0.007,-0.19111 0.0108,-0.38682 0.0108,-0.58806 0,-1.74588 0.19942,-3.1745 0.44338,-3.1745 0.24396,0 3.23376,0.91464 6.64404,2.03242 2.53259,0.83013 4.82855,1.43505 5.94589,1.59216 l 0.44029,0.14833 -0.014,-0.10801 c 0.12883,0.002 0.21711,-0.0104 0.25839,-0.0393 0.003,-0.002 0.0112,-0.002 0.0134,-0.004 6.1e-4,-6.1e-4 9.5e-4,-0.002 0.002,-0.003 2.1e-4,-1.8e-4 8.3e-4,-2.9e-4 0.001,-5e-4 0.008,-0.008 0.0142,-0.0199 0.0212,-0.03 0.003,-0.002 0.012,-0.003 0.0145,-0.005 0.0515,-0.0515 0.0792,-0.18367 0.0868,-0.37311 0.0584,-0.59733 -0.0614,-1.72146 -0.3297,-2.89388 -0.28919,-1.26378 -0.49186,-2.32974 -0.5209,-2.7032 0.11915,-0.0262 0.39934,-0.0185 0.76843,0.009 0.0675,0.008 0.13905,0.0169 0.21446,0.0269 1.02401,0.19841 2.95361,0.58378 5.65547,1.13483 3.569,0.72789 6.64169,1.17075 6.82801,0.98443 0.18632,-0.18632 0.0185,-1.25669 -0.37259,-2.37866 -0.39005,-1.11887 -0.63665,-2.10129 -0.54984,-2.18903 3.2e-4,-5.8e-4 7.1e-4,-9.5e-4 10e-4,-0.002 0.0907,-0.0826 1.80858,0.13517 3.81992,0.48472 1.51692,0.26363 2.64427,0.39018 3.47834,0.36433 0.70667,0.12012 1.07096,0.0909 1.30793,-0.27443 0.54928,-0.29218 0.76457,-0.81894 0.76998,-1.62623 0.0184,-2.74705 0.75574,-3.15745 3.76566,-2.09549 1.97528,0.69692 3.08789,1.02022 3.71088,0.86299 l 0.1323,0.0403 v -0.0832 c 0.53496,-0.22307 0.63458,-0.90633 0.63458,-2.15232 v -2.2965 l 4.82761,0.45217 4.82762,0.45217 -0.45062,-2.66496 -0.43254,-2.56108 1.0232,0.12816 1.08934,0.24184 c 1.96291,0.43657 3.061,0.63571 3.58014,0.34107 l 0.72347,0.0904 -0.35967,-1.25419 c -0.0491,-0.56369 -0.22459,-1.33081 -0.48214,-2.35696 -0.18467,-0.73569 -0.27794,-1.13288 0.0971,-1.34927 0.66179,-0.14996 1.9551,-0.25343 3.45819,-0.25735 0.17273,-1.3e-4 0.30879,-10e-4 0.49713,-10e-4 2.04508,0 3.30471,-0.0667 3.90932,-0.34779 0.0334,-0.0135 0.0601,-0.0269 0.0801,-0.0408 0.75321,-0.41805 0.25909,-1.26256 -1.14619,-2.93264 -0.45849,-0.54489 -0.84236,-1.06506 -1.09037,-1.46141 -0.1298,-0.33649 -0.1842,-0.61321 -0.13746,-0.78134 0.45214,-0.22462 1.8854,-0.76567 3.49591,-1.3131 1.387,-0.47145 2.63088,-1.02383 3.22461,-1.40974 0.35555,-0.15627 0.56431,-0.27337 0.56431,-0.32607 0,-0.043 -0.11544,-0.15912 -0.30127,-0.31781 -0.29692,-0.45819 -1.19168,-1.22267 -2.29702,-1.92909 l -2.15646,-1.3782 c -0.1522,-0.14678 -0.26257,-0.27046 -0.30282,-0.35141 l 2.78174,-1.62987 c 1.42456,-0.83485 2.32884,-1.43023 2.67942,-1.89704 0.14809,-0.14602 0.23151,-0.26807 0.23151,-0.35347 0,-0.0218 -0.005,-0.0439 -0.0134,-0.0667 0.008,-0.0167 0.0134,-0.0322 0.0134,-0.045 0,-0.0446 -0.0509,-0.0958 -0.12505,-0.14934 -0.2856,-0.49475 -1.61877,-0.85477 -4.09588,-1.35186 -2.08699,-0.4188 -2.73724,-1.58361 -2.75384,-4.93148 -0.004,-0.90562 -0.19151,-1.44227 -0.67127,-1.62523 l -0.016,-0.11988 -0.15296,0.0775 c -0.67382,-0.13197 -1.81196,0.27299 -3.63802,1.20458 l -2.25775,1.15187 c -0.0609,-0.13444 -0.11587,-0.39766 -0.15864,-0.76378 -0.0328,-0.53013 -0.0266,-1.25838 0.0264,-2.05983 l 0.0904,-1.36942 c 0.53731,-1.41599 2.42453,-1.41593 9.05888,-1.41593 1.01617,0 1.97924,-0.0136 2.88458,-0.0351 3.14042,-0.0258 5.01791,-0.16834 5.49217,-0.42685 0.0765,-0.0297 0.12609,-0.0599 0.12609,-0.0909 0,-0.008 -0.005,-0.0158 -0.006,-0.0238 0.003,-0.009 0.006,-0.018 0.006,-0.0274 0,-0.006 -0.003,-0.0111 -0.004,-0.0165 0.001,-0.005 0.004,-0.01 0.004,-0.0145 0,-0.05 -0.0553,-0.0972 -0.16019,-0.14211 -0.0616,-0.0432 -0.14162,-0.0852 -0.23668,-0.12609 l 0.71417,-0.0109 -0.77877,-0.0171 c -1.66178,-0.6565 -7.49786,-0.99524 -11.991,-0.58808 l -2.7559,0.2496 h -0.91829 l -1.19528,-0.0264 0.42375,-6.38462 c 0.68933,-10.39146 1.63099,-17.4889 3.28714,-24.77627 1.78898,-7.8719 3.45302,-23.96032 3.45302,-33.38452 0,-1.75335 -0.0339,-3.17763 -0.12919,-4.38423 -0.0129,-0.8826 -0.0507,-1.52831 -0.12196,-1.80971 -0.0396,-0.1563 -0.11457,-0.34375 -0.21394,-0.55087 -0.529,-2.3303 -1.61898,-3.65245 -3.807,-5.456 l -2.39366,-1.97352 -0.046,-5.29167 c -0.0493,-5.6902 -1.01263,-8.25958 -4.02508,-10.59883 l -1.264,-1.33997 -1.4826,0.0522 c -0.97078,-0.15553 -2.27133,-0.16619 -4.32945,-0.10284 l -4.70669,0.1447 0.16278,-2.48409 c 0.006,-0.0862 0.015,-0.17222 0.0222,-0.25838 0.80849,-4.13735 2.2618,-7.44029 4.30517,-9.83041 0.43812,-0.4985 0.90064,-0.96682 1.38441,-1.3994 1.17869,-1.02748 2.50954,-1.81057 3.98683,-2.33525 0.82548,-0.29319 1.49123,-0.58424 1.99523,-0.85112 0.13634,-0.0377 0.2537,-0.10459 0.34158,-0.19223 0.95507,-0.57522 1.02174,-0.98751 0.032,-0.96015 -0.0981,-0.0438 -0.283,-0.0254 -0.58756,0.0527 -0.20059,0.0273 -0.41641,0.0607 -0.66559,0.11059 -3.1727,0.63454 -7.38495,3.41264 -9.0966,5.99911 -0.86065,1.30054 -2.08637,4.48622 -2.72387,7.07968 -0.57041,2.32051 -1.05818,3.67908 -1.40301,3.94239 -0.0656,-0.0251 -0.13595,-0.0572 -0.20774,-0.0915 -0.0409,-0.0215 -0.0909,-0.0489 -0.13333,-0.0713 -1.19024,-1.69388 -5.70937,-3.10837 -10.04486,-3.12229 -3.83946,-0.0123 -4.79253,-0.27645 -7.96903,-2.20607 -4.73686,-2.87749 -10.48072,-8.9637 -12.43025,-13.17128 -0.85754,-1.85083 -1.74478,-5.00784 -1.97197,-7.0156 -0.2272,-2.00775 -0.65652,-3.65042 -0.95394,-3.65042 z m -0.006,8.28477 c 0.16716,0.0135 0.79359,1.04757 1.52446,2.47529 l 0.1204,0.25374 c 0.11221,0.23717 0.23554,0.47832 0.36432,0.7214 0.0588,0.12162 0.11722,0.2398 0.17622,0.36432 2.15212,4.54215 6.52914,9.19219 11.77292,12.50776 l 3.85713,2.43913 -1.8774,1.10898 c -3.22759,1.90659 -5.24772,6.21092 -5.57589,11.87989 -0.40177,6.94044 0.23631,10.22504 2.69751,13.88236 1.1444,1.70058 1.92761,3.24864 1.76785,3.48557 l -0.5457,0.19069 c -1.61447,0.26779 -6.28046,0.0301 -8.8098,-0.52297 -1.3967,-0.30536 -6.82469,-0.39827 -12.06231,-0.2067 -8.38935,0.30686 -9.7823,0.21129 -11.70006,-0.80047 -3.78372,-1.99619 -4.81117,-4.06497 -4.77387,-9.61182 0.0451,-6.71177 2.04198,-10.99031 7.4011,-15.85743 2.26028,-2.05277 4.17592,-3.86842 5.82755,-5.52989 1.70624,-1.60859 3.13136,-3.16243 4.31446,-4.73666 2.91196,-3.61885 4.23263,-6.55742 4.77852,-9.92136 0.1922,-1.18438 0.5264,-2.13934 0.74259,-2.12183 z m 0.13798,12.02717 c -0.35113,-0.009 -0.5661,0.91872 -0.31678,2.47788 0.57925,3.62247 -0.64225,6.48781 -4.96765,11.65355 -2.11866,2.53028 -4.23868,5.51993 -4.71135,6.64353 -0.42951,1.02103 -0.68942,2.33897 -0.78754,3.68763 -0.26319,1.42464 -0.2003,2.72695 0.19585,3.884 0.16571,0.83743 0.41423,1.55146 0.74931,2.02985 0.51687,0.73794 0.89842,1.10772 1.11879,1.14928 0.0796,0.0482 0.14361,0.0574 0.18449,0.0165 0.11296,-0.11297 0.0864,-0.44783 -0.045,-0.85835 -0.0687,-0.29724 -0.18352,-0.66695 -0.35295,-1.11259 -0.24991,-0.65732 -0.43689,-1.29577 -0.56172,-1.92702 -0.14293,-1.37351 -0.0565,-2.99621 0.23926,-4.48654 0.72699,-2.39423 2.42353,-5.02686 5.26996,-8.42636 4.59466,-5.48739 5.90875,-9.1341 4.79247,-13.29945 -0.26287,-0.98091 -0.56694,-1.42575 -0.80718,-1.43195 z m 23.95048,7.00991 c 0.52261,-0.003 1.046,0.0197 1.56579,0.0656 0.31522,0.0335 0.62982,0.0737 0.94206,0.12402 0.001,1.6e-4 0.002,3.5e-4 0.003,5.1e-4 1.94809,0.36037 3.74983,1.20893 6.00894,2.76314 0.84289,0.57991 1.48123,0.95286 2.23035,1.18856 0.0606,0.0211 0.12455,0.0397 0.18914,0.0574 0.0234,0.006 0.0471,0.0129 0.0708,0.0191 0.037,0.009 0.0742,0.0188 0.11265,0.0269 1.0759,0.2608 2.4513,0.28648 4.92838,0.23358 3.82522,-0.0817 5.55824,0.15487 6.72259,0.91777 1.62962,1.06777 2.66799,3.15994 3.12177,5.6224 0.0485,0.67947 0.0868,1.45805 0.12454,2.46083 0.0344,0.91361 0.0487,1.66443 0.047,2.34249 -0.31025,3.09458 -1.40467,6.15427 -3.28921,8.17263 -2.23328,2.39186 -4.56059,3.28145 -8.585,3.28145 -2.06689,1e-5 -5.54633,0.57136 -7.73235,1.26969 h -5.2e-4 c -7.4975,2.39517 -13.39623,1.28913 -16.29771,-3.0551 -3.99831,-5.98649 -3.18419,-18.24454 1.49293,-22.47409 1.62339,-1.46802 4.69975,-2.69241 7.3055,-2.97707 0.34523,-0.024 0.69195,-0.0378 1.03922,-0.0398 z m -69.772492,12.13104 c 1.516912,0.007 2.922852,0.37922 4.359942,1.11621 9.04357,4.63782 9.58195,16.57527 1.08469,24.05486 -1.46477,1.28934 -3.37934,2.48077 -5.068426,3.19412 -0.366641,0.14707 -0.733705,0.28405 -1.101741,0.41083 -0.02233,0.007 -0.04553,0.0151 -0.0677,0.0217 -8.456509,2.51132 -17.69365,-0.0498 -20.34708,-5.64151 -1.556303,-3.27965 -1.363027,-9.631 0.39791,-13.07724 1.737169,-3.39971 3.838964,-5.01168 7.883239,-6.04615 2.418844,-0.61869 2.95897,-0.69635 3.386873,0.0326 0.0041,0.38632 0.168256,0.71636 0.398944,0.85318 0.329157,0.72978 0.449752,0.7396 0.652671,-0.12557 0.172408,0.0703 0.209847,-0.24637 0.214974,-0.98754 0.328052,-1.33691 1.014484,-1.90514 3.179652,-2.73472 1.881468,-0.72086 3.509137,-1.0781 5.026048,-1.07073 z m 41.998472,3.12901 c -0.16299,0.002 -0.37739,0.0822 -0.64079,0.24494 -0.4743,0.29313 -0.68087,1.31265 -0.65991,2.46135 -0.014,0.4951 0.0199,1.03547 0.10181,1.54254 0.004,0.0271 0.009,0.0543 0.0134,0.0806 0.0608,0.35133 0.1441,0.68405 0.25322,0.96841 0.24751,0.64507 0.38637,0.97433 0.46508,0.85008 0.0634,0.0969 0.12997,0.18566 0.19999,0.26303 1.46028,1.61359 1.55619,1.4669 0.57154,-0.87488 -0.58728,-1.39674 -0.67194,-2.52041 -0.26923,-3.57963 0.48216,-1.26814 0.45382,-1.96301 -0.0351,-1.95646 z m -14.76964,1.1963 c -0.21386,0.0106 -0.4839,0.46341 -0.74983,1.45573 -1.04949,3.91615 -0.0772,6.59561 2.77399,7.64398 2.63636,0.96937 2.57673,-0.11503 -0.0899,-1.63298 -1.90744,-1.0858 -1.97205,-1.25633 -1.61334,-4.28501 0.0891,-0.75201 0.1145,-1.38825 0.094,-1.89342 0.25401,-1.13152 0.27228,-1.38594 -0.12919,-0.93069 -0.0731,-0.23538 -0.17066,-0.3633 -0.28577,-0.35761 z m -36.4169,2.22778 c -3.299542,-0.0118 -5.999118,0.0515 -5.999118,0.14056 0,0.089 0.928624,0.44508 2.063441,0.79116 2.4014,0.73234 8.508132,0.51707 9.354468,-0.32969 0.109476,-0.10954 -0.02423,-0.20784 -0.369486,-0.29198 -0.08654,-0.13738 -0.488995,-0.19432 -1.059368,-0.15451 -0.943604,-0.0928 -2.296035,-0.14952 -3.989937,-0.15554 z m 105.75065,3.08973 c 1.03217,0.0437 3.36575,1.96328 4.90616,4.22661 1.16151,1.7066 1.42834,2.97065 1.42834,6.766 v 4.36717 l -1.27796,0.30645 -0.78497,0.003 c -5.47517,0.0248 -29.24387,9.82855 -31.24925,12.88913 -0.99919,1.52497 -0.98462,1.88897 0.25425,6.30401 0.86517,3.08331 1.27645,5.1074 1.2547,6.47816 -0.10615,1.15562 -0.53758,1.94318 -1.30638,2.5001 -0.68993,0.34566 -1.84531,0.68466 -2.8975,0.82579 -3.60754,0.48387 -4.41811,-0.81306 -4.7563,-7.60832 -0.33187,-6.66811 -1.07993,-7.7263 -6.13916,-8.68577 -3.69321,-0.7004 -13.06112,0.0493 -15.24971,1.2206 -2.10765,1.12798 -3.87315,3.91494 -3.87315,6.11383 0,1.46246 -0.27428,2.30452 -0.67231,2.6293 -0.16795,0.0779 -0.36964,0.0968 -0.61753,0.077 -0.0553,-0.005 -0.11427,-0.0123 -0.17467,-0.0207 -0.85415,-0.4331 -1.82254,-2.26095 -2.13165,-4.99401 -0.41174,-3.6405 -1.72926,-6.94531 -2.76882,-6.94531 -0.84264,0 -0.77824,0.85577 0.1328,1.76681 0.038,0.038 0.0725,0.0767 0.10697,0.11524 0.0655,0.0938 0.12516,0.186 0.17518,0.27337 0.0171,0.33656 -0.16957,0.55505 -0.86661,0.71572 -3.65783,0.20222 -17.03417,0.60882 -32.86259,0.98857 -18.119611,0.43471 -32.826594,0.50875 -43.926519,0.23512 -2.927733,-0.0802 -5.676966,-0.17677 -8.147822,-0.2961 -0.05068,-0.002 -0.100425,-0.005 -0.150895,-0.008 -0.504798,-0.0246 -0.990986,-0.0508 -1.474845,-0.077 -5.100336,-0.29616 -8.92605,-0.71205 -11.39517,-1.2485 l -2.429309,-0.52762 c -0.212529,-0.13204 -0.123624,-0.31214 0.249597,-0.52968 0.105696,-0.0461 0.230394,-0.0962 0.356566,-0.14676 l 1.844849,-0.50436 c 1.920463,-0.52514 12.828627,-3.60656 24.239863,-6.84765 l 20.747572,-5.89318 2.284097,2.28462 c 0.527611,0.59682 1.115529,1.13891 1.760617,1.6278 3.42736,2.75629 7.819223,3.88843 13.290145,3.42977 9.302724,-0.77991 16.150194,-6.41882 18.308964,-15.07815 0.41187,-1.65216 0.66293,-2.38582 1.42316,-2.89492 0.29491,-0.16654 0.68564,-0.33994 1.13017,-0.52296 0.3253,-0.11405 0.69711,-0.23036 1.13895,-0.36174 4.19497,-1.24735 4.41065,-1.19916 5.72936,1.279 1.36926,2.57315 4.86486,4.76525 8.53488,5.35212 1.40801,0.22515 5.29184,0.0934 8.63617,-0.293 0.54949,0.005 1.09834,0.0102 1.65519,0.0108 2.99775,0.003 6.14123,0.01 8.89972,0.0165 0.53976,0.077 1.10846,0.1643 1.72341,0.26355 5.57137,0.8992 6.41864,0.90122 8.62066,0.0202 0.2679,-0.10719 0.51422,-0.1963 0.75034,-0.27595 0.74014,-0.0112 1.39035,-0.025 1.74977,-0.0434 0.42537,-0.0219 1.09512,0.003 1.83244,0.0537 2.73507,0.96748 7.37605,0.70387 11.34143,-0.66042 2.07897,-0.71527 5.37948,-1.27564 7.55871,-1.28364 2.37094,-0.009 4.86175,-0.46498 6.43423,-1.17926 2.40563,-1.09273 5.52051,-4.08309 6.17275,-5.92574 0.003,-0.009 0.008,-0.0158 0.0114,-0.0243 0.1062,-0.0963 0.20699,-0.18027 0.30076,-0.24908 0.0519,-0.0111 0.10741,-0.0176 0.16898,-0.015 z m 5.26118,16.94625 c 0.52834,0.0491 0.83685,0.24922 0.96325,1.03043 l -0.25425,2.84944 c -1.23468,13.85282 -1.48834,15.3302 -2.88613,16.81809 -2.0718,2.20531 -11.49347,6.82819 -18.3348,8.99635 -18.65971,5.91365 -41.51778,8.9473 -70.78741,9.39529 -9.776892,0.14964 -27.346259,0.97082 -39.04361,1.8247 -27.253083,1.98942 -36.334358,2.4277 -37.205996,1.79576 -0.385509,-0.2795 -1.345938,-4.36518 -2.134754,-9.07904 -0.788815,-4.71385 -1.956048,-11.27791 -2.593641,-14.58722 -0.637591,-3.30931 -1.094097,-6.0822 -1.014408,-6.1619 0.07969,-0.0797 2.477585,0.26247 5.328357,0.76016 13.226462,2.30902 40.653453,2.47462 87.933132,0.53175 l 9.80509,-0.40307 h 0.007 l 0.18706,1.41025 v 0.80305 c 0,3.23021 1.02495,5.77392 2.55747,6.4766 0.002,8.3e-4 0.003,0.002 0.005,0.003 0.31559,0.20881 0.6572,0.32703 1.01906,0.36018 0.0608,0.009 0.12162,0.0145 0.18241,0.0145 0.002,0 0.004,-5e-4 0.007,-5.2e-4 0.003,2e-5 0.006,5.2e-4 0.01,5.2e-4 1.34915,0 2.23994,-0.93296 2.49235,-2.53938 0.10385,-0.39399 0.19089,-0.83256 0.25735,-1.32808 0.13424,-1.00079 0.49335,-2.13317 0.90073,-2.94711 0.42495,-0.60222 0.96452,-1.13898 1.58801,-1.5875 1.92094,-0.99396 5.5458,-1.63368 9.5989,-1.6893 0.41637,0.009 0.82801,0.0175 1.28984,0.0326 1.42832,0.0465 2.61314,0.0985 3.62045,0.17777 4.45401,0.48346 5.04052,1.94669 5.04052,8.0114 0,4.34225 0.19463,5.19933 1.53272,6.75462 1.28041,1.48823 2.00519,1.77145 4.4049,1.72135 3.43743,-0.0718 5.94963,-1.55882 6.52829,-3.86437 0.25908,-1.03225 -0.10669,-3.48608 -0.94258,-6.32726 -0.27727,-0.94242 -0.52087,-1.74984 -0.72037,-2.45876 -0.16208,-0.98976 -0.26908,-1.90023 -0.2806,-2.52647 l -0.0258,-1.39009 c 0.25994,-0.52174 0.6914,-0.99837 1.33584,-1.49345 1.1848,-0.82731 3.1243,-1.71192 6.10298,-3.13107 8.8093,-4.19708 17.27637,-7.31549 21.63796,-7.96955 z m -1.7539,22.49682 c 0.25236,-0.0259 0.2841,0.23859 0.2806,0.77463 -0.004,0.63483 -0.57081,3.43982 -1.25883,6.23321 -0.68803,2.7934 -1.56583,8.07869 -1.95079,11.74502 -0.2625,2.50005 -0.54383,4.91846 -0.74776,6.49573 -0.18674,0.99375 -0.37895,1.79548 -0.57257,2.35179 -2.57845,3.63939 -18.49003,7.62261 -44.527,11.10062 -16.19821,2.16375 -17.88039,2.26657 -47.75212,2.91455 -26.216014,0.56868 -38.434488,1.43852 -58.208337,4.14445 -3.950507,0.5406 -7.682495,1.13245 -8.29355,1.31516 -0.586637,0.17541 -0.870127,0.0808 -1.005107,-0.73329 l -0.105936,-1.55856 c -0.0066,-0.31681 -0.01018,-0.67097 -0.01137,-1.06918 -0.01019,-3.42255 -0.745542,-11.74854 -1.649513,-18.67122 l -0.380854,-2.91506 10.384896,-0.4439 c 5.711756,-0.24412 18.098769,-1.0285 27.526485,-1.74305 9.50654,-0.72054 25.341624,-1.39727 35.552346,-1.51929 29.00114,-0.34655 49.11659,-2.74768 69.25004,-8.26564 7.83082,-2.1462 17.94337,-6.39539 21.86533,-9.18807 0.87873,-0.62571 1.35168,-0.94205 1.60404,-0.9679 z m -25.50232,17.04237 c -0.18231,-0.007 -0.23926,0.2138 -0.23926,0.68058 0,0.0267 0.007,0.0502 0.009,0.076 -0.006,0.0354 -0.009,0.0726 -0.009,0.11162 0,0.30147 0.28409,0.56141 0.71468,0.71004 0.121,0.0462 0.25173,0.0778 0.38758,0.0982 0.0709,0.0202 0.14053,0.0341 0.20515,0.0341 0.0414,0 0.0686,-0.005 0.10542,-0.007 0.0459,0.002 0.0899,0.007 0.13695,0.007 0.0177,0 0.0327,-0.001 0.0501,-0.002 0.008,1.4e-4 0.0166,0.002 0.0248,0.002 0.0612,0 0.10287,-0.005 0.15761,-0.007 0.0751,-0.003 0.15061,-0.005 0.22066,-0.01 0.0309,-0.003 0.0635,-0.005 0.0915,-0.009 1.2959,-0.11706 1.66802,-0.64691 0.97307,-1.03818 0.0124,-0.0936 -0.0411,-0.12432 -0.16536,-0.0816 -0.24484,-0.10622 -0.57703,-0.19777 -1.00408,-0.26045 -0.49465,-0.0726 -0.88658,-0.09 -1.18442,-0.0532 -0.21053,-0.15928 -0.36632,-0.24728 -0.47439,-0.25115 z m -19.15335,1.34514 c -0.0422,0.004 -0.0864,0.02 -0.13178,0.0481 -0.90515,0.55941 -0.78679,3.32421 0.15865,3.70571 0.43647,0.17612 0.84202,0.34292 0.90072,0.37052 0.0587,0.0276 0.55873,-0.12343 1.11104,-0.33538 0.26452,-0.1015 0.47167,-0.21391 0.62787,-0.32814 l 0.0589,-0.002 -0.0362,-0.0145 c 0.67496,-0.51044 0.29816,-1.04156 -0.91622,-0.72399 -0.25128,0.0657 -0.45461,0.10008 -0.61961,0.0956 -0.17963,-0.0864 -0.34952,-0.19376 -0.50591,-0.31781 -0.1071,-0.23134 -0.14417,-0.599 -0.14417,-1.14463 0,-0.84943 -0.2082,-1.38373 -0.50333,-1.35392 z m -50.75504,4.27622 c -0.0905,-0.0207 -0.12727,0.14047 -0.14056,0.45734 -0.0188,0.14758 -0.0253,0.34668 -0.0253,0.61236 0,0.69419 0.35728,1.40351 0.79375,1.57613 1.54096,0.60946 5.03447,-0.94035 4.13876,-1.83606 -0.2087,-0.2087 -0.95532,-0.0714 -1.65933,0.30541 -0.99066,0.53019 -1.50571,0.46006 -2.27686,-0.31109 -0.24571,-0.24571 -0.4272,-0.41653 -0.56741,-0.52142 -0.11494,-0.16892 -0.20259,-0.26885 -0.26303,-0.28267 z m -12.65246,0.0641 c -0.158718,-0.0136 -0.200713,0.17975 -0.207224,0.55397 l -0.320911,-0.15658 0.319879,0.27802 c 0.0108,0.55842 0.504618,1.29544 1.108974,1.64745 1.511824,0.88056 3.311729,0.83655 4.695839,-0.0915 0.573285,-0.24658 0.854207,-0.48351 0.798401,-0.6382 0.467484,-0.44126 0.06025,-0.41026 -1.710492,-0.11059 -0.318569,0.0539 -0.600159,0.0871 -0.866613,0.11059 -0.517986,0.0129 -1.055301,-0.022 -1.54564,-0.0982 -0.451882,-0.13294 -0.839875,-0.37129 -1.238168,-0.73174 -0.548966,-0.49681 -0.860203,-0.74832 -1.034045,-0.76326 z m -35.622632,2.50579 c -0.100134,0.0139 -0.225679,0.24069 -0.413927,0.66146 -0.273381,0.61105 -0.325199,1.55867 -0.115239,2.10581 0.151161,0.39393 0.639072,0.63635 1.224213,0.74053 0.05227,0.0164 0.103622,0.0333 0.157613,0.047 0.20148,0.0755 0.422127,0.12196 0.632005,0.12196 0.193839,0 0.350917,-0.0101 0.480073,-0.0274 0.615328,-0.0473 1.174909,-0.26452 1.428853,-0.67541 0.09461,-0.15308 0.126124,-0.26504 0.09612,-0.33796 0.130619,-0.43308 -0.366096,-0.58323 -1.33015,-0.39895 -0.702575,0.13431 -1.123789,0.11919 -1.394749,-0.13125 -0.05798,-0.11803 -0.114165,-0.24833 -0.169497,-0.39791 -0.05741,-0.15521 -0.118155,-0.2852 -0.179319,-0.40256 -0.02475,-0.21348 -0.06198,-0.36712 -0.108519,-0.44545 -0.107783,-0.59016 -0.190995,-0.87609 -0.307475,-0.8599 z m -13.305131,0.18552 -0.01912,0.47077 c -1.081455,1.02855 -0.975783,3.0252 0.267684,4.39922 1.524979,1.68508 4.064683,1.4755 6.358787,-0.47336 0.23826,-0.1592 0.443791,-0.3077 0.614431,-0.44287 0.436168,-0.33218 0.711954,-0.6276 0.694015,-0.80046 1.080418,-1.11093 0.436769,-0.87786 -2.562119,0.6475 -3.045843,1.54925 -4.614534,0.78823 -4.472077,-2.16886 0.07951,-1.6504 -0.06002,-1.87192 -0.79375,-1.26297 -0.007,0.006 -0.01272,0.0127 -0.01964,0.0186 z m 123.695293,0.031 c -0.14173,0.008 -0.26657,0.10022 -0.37517,0.27595 -0.23817,0.38537 -0.0882,1.11676 0.33383,1.62522 0.0687,0.0828 0.14502,0.15876 0.22582,0.22996 0.0528,0.11326 0.11162,0.20826 0.17467,0.2713 0.23297,0.23298 0.61559,0.36069 1.0604,0.39068 0.29879,0.0338 0.62347,0.0346 0.94361,0.006 0.11038,-0.001 0.21837,-0.013 0.32091,-0.0398 0.60696,-0.095 1.1452,-0.30048 1.38234,-0.59583 0.126,-0.0993 0.24476,-0.2068 0.34675,-0.3297 0.72397,-0.87232 0.60611,-0.93803 -0.97358,-0.54156 -1.33261,0.33446 -2.00171,0.17136 -2.5895,-0.63252 -0.3313,-0.45308 -0.61387,-0.6729 -0.85008,-0.65939 z m -94.538935,1.65829 c -0.111082,0.0154 -0.119888,0.32421 -0.119888,0.94 0,0.0727 0.0036,0.14653 0.0078,0.22014 -0.0056,0.004 -0.0017,0.0184 0.001,0.031 0.0031,0.0485 0.0082,0.0964 0.01292,0.1447 0.01408,0.52422 0.184714,1.09629 0.401526,1.3131 0.0051,0.005 0.01231,0.009 0.01757,0.0139 0.0042,0.005 0.0081,0.0118 0.0124,0.016 0.05248,0.0525 0.126577,0.0955 0.209807,0.13436 0.414398,0.21357 1.093198,0.2779 1.795756,0.20877 0.423955,-0.0206 0.641647,-0.0471 0.660943,-0.10335 0.249155,-0.0546 0.489124,-0.12667 0.711583,-0.21394 0.555101,-0.16827 0.978871,-0.39743 1.065051,-0.66043 0.149403,-0.45596 -0.37991,-0.59345 -1.478462,-0.38344 -1.198571,0.22911 -1.967328,-0.0223 -2.564702,-0.83922 -0.408717,-0.55894 -0.622204,-0.83711 -0.73329,-0.82166 z m 37.946525,2.25258 c -0.26413,0.002 -0.57106,0.0222 -0.91623,0.0625 -1.22806,0.14336 -2.23242,0.53352 -2.23242,0.86661 0,0.21724 0.28563,0.3438 0.70435,0.39997 0.16523,0.13476 0.62603,0.16377 1.12861,0.11783 0.0839,0.002 0.15559,0.007 0.24547,0.007 0.91052,0 1.83899,-0.29725 2.06344,-0.66042 0.0408,-0.066 0.038,-0.11927 0.003,-0.16227 0.0486,-0.0522 0.084,-0.1062 0.10232,-0.16226 0.1013,-0.30952 -0.30575,-0.47423 -1.09812,-0.46922 z m 36.77346,0.18448 c -0.46537,0 -0.62265,0.68788 -0.51314,1.44643 -0.0415,0.0378 -0.0255,0.13095 0.0512,0.2744 0.11299,0.50114 0.3373,1.00082 0.66301,1.32653 0.38731,0.38731 1.12306,0.61853 1.94149,0.70177 0.54585,0.10983 1.10714,0.12095 1.59163,0.0248 0.21327,-0.027 0.40564,-0.076 0.57154,-0.14469 0.62899,-0.14257 1.15805,-0.38185 1.43557,-0.71624 0.6262,-0.75451 0.3316,-0.84064 -1.86345,-0.54622 -2.28037,0.30586 -2.6514,0.17939 -2.96209,-1.00872 -0.0562,-0.21491 -0.13103,-0.41576 -0.21549,-0.59686 -0.0304,-0.48695 -0.14265,-0.66759 -0.36639,-0.56793 -0.11489,-0.11995 -0.2302,-0.19327 -0.33383,-0.19327 z m 48.61099,0.74724 c 0.4766,0.0268 0.42812,0.84767 0.13177,3.68298 -0.23048,2.20508 -0.41909,7.26179 -0.41909,11.23704 0,5.24629 -0.21773,7.28553 -0.79375,7.43883 -0.43647,0.11614 -3.65045,0.66182 -7.1422,1.21284 -3.49175,0.55101 -18.20443,3.57922 -32.69516,6.72879 -14.49075,3.14957 -30.63254,6.44372 -35.87016,7.32048 -8.44309,1.41335 -41.024552,4.91724 -62.216362,6.69107 -7.7772,0.65097 -24.137144,0.80295 -25.532807,0.23719 -0.540941,-0.21929 -0.221036,-1.30013 1.065567,-3.60029 2.234615,-3.995 3.834392,-11.42564 3.834392,-17.81184 0,-0.36922 -0.0067,-0.70711 -0.01447,-1.02371 0.0065,-0.27551 0.01091,-0.54971 0.0124,-0.82217 0.01643,-0.78866 0.05698,-1.40243 0.137459,-1.85932 0.608174,-1.67763 3.203483,-1.74578 13.513903,-3.02049 16.98548,-2.09995 31.796283,-3.18357 43.805594,-3.20497 24.259064,-0.0432 43.716714,-1.09845 58.089994,-3.15123 22.11762,-3.15881 34.15341,-5.89209 43.43094,-9.86244 0.28586,-0.12233 0.50311,-0.20169 0.66198,-0.19276 z m -133.100921,1.83968 c -0.132222,-0.0221 -0.571301,0.26393 -1.445389,0.83664 -0.468315,0.30686 -0.822783,0.51066 -1.112594,0.63304 -0.151472,0.0335 -0.300731,0.0556 -0.447001,0.0708 -0.0146,-1e-4 -0.02763,-0.001 -0.04237,-0.001 -0.09956,0 -0.193159,0.004 -0.285769,0.008 -0.148368,-0.0695 -0.27278,-0.20182 -0.394292,-0.39843 -0.561012,-0.90773 -1.218907,-0.49775 -1.145667,0.39843 -0.05052,0.0645 -0.07855,0.14539 -0.07855,0.24184 0,0.20125 0.09949,0.35635 0.267165,0.46819 0.709242,1.52319 3.174434,0.83797 4.289145,-1.24488 0.35319,-0.65995 0.52755,-0.99021 0.395324,-1.01235 z m 139.140861,11.74761 c 0.21314,0.004 0.39265,0.0564 0.54467,0.15606 l 0.11679,0.60048 0.004,0.62994 c 0.0176,3.52851 0.6098,4.40967 3.37758,5.02294 l 2.51819,0.55811 c 0.005,0.0311 0.005,0.0628 -0.002,0.0951 l -2.56987,1.34308 c -1.48399,0.77572 -2.69854,1.6802 -2.69854,2.00969 0,0.0189 0.005,0.0405 0.0114,0.0636 -0.006,0.0143 -0.0114,0.0284 -0.0114,0.0398 0,0.0897 0.13963,0.25947 0.37723,0.47594 0.41687,0.4485 1.13808,1.04893 1.95802,1.60611 1.62041,1.10109 2.05744,1.68847 1.42834,1.91978 -0.49857,0.18332 -2.03309,0.71703 -3.41013,1.18597 -0.94477,0.32174 -1.80911,0.7422 -2.30373,1.09296 -0.37084,0.16886 -0.58911,0.29952 -0.58911,0.36638 0,0.005 0.007,0.0187 0.008,0.0253 -0.002,0.006 -0.008,0.0129 -0.008,0.0181 0,0.0551 0.0848,0.20572 0.20567,0.39481 0.16002,0.53234 0.69426,1.41184 1.38648,2.23449 l 1.32291,1.572 c -0.17487,0.0705 -0.44014,0.14501 -0.76377,0.21962 l -2.84686,0.22221 h -0.26251 -4.28295 l 0.11886,0.74207 c -0.13389,0.0693 -0.20548,0.13988 -0.19689,0.21033 0.0425,0.34917 0.26826,1.44328 0.50126,2.43137 0.10965,0.46497 0.16851,0.79708 0.17984,1.04283 -0.0391,0.31986 -0.18687,0.47924 -0.49868,0.51987 -0.11136,-0.0149 -0.24085,-0.0436 -0.39377,-0.0868 -0.6247,-0.17638 -2.10561,-0.51645 -3.29128,-0.75602 l -2.15594,-0.43564 0.42995,2.68666 0.42943,2.68666 -4.7811,-0.44804 -4.78111,-0.44803 v 2.27635 c 0,1.07276 -0.053,1.97094 -0.12298,2.20503 -0.18418,-0.0107 -0.43223,-0.0585 -0.71831,-0.11989 -0.58693,-0.16748 -1.47227,-0.42858 -2.48667,-0.73639 -3.32069,-1.00765 -3.6244,-0.81153 -4.51393,2.91765 l -0.21756,0.91054 c -0.32489,0.37939 -0.86672,0.48972 -1.95957,0.42426 l -2.78795,-0.53123 c -2.51115,-0.47842 -4.70459,-0.73123 -4.87412,-0.56171 -0.0249,0.0249 -0.0399,0.0765 -0.0506,0.14055 l -0.1912,-0.0253 0.21756,0.6935 c 0.064,0.46709 0.20132,1.08032 0.39791,1.72082 0.27616,0.89985 0.46714,1.6723 0.50849,2.02054 -0.10375,0.062 -0.25464,0.10269 -0.45682,0.12198 -0.88742,-0.16717 -3.19292,-0.63016 -5.91695,-1.19063 -3.39403,-0.69837 -6.32231,-1.26971 -6.5071,-1.26971 -0.18476,0 -0.16645,1.42862 0.0403,3.1745 0.14576,1.23005 0.23054,2.27346 0.23823,2.79982 -0.041,0.15576 -0.0992,0.26606 -0.17519,0.32401 -0.0166,-0.002 -0.0329,-0.005 -0.0501,-0.007 -0.50124,-0.14224 -2.80463,-0.89918 -5.60844,-1.84692 -1.55654,-0.52615 -2.80358,-0.94284 -3.81424,-1.25005 -0.84896,-0.27916 -1.50391,-0.45781 -1.98851,-0.51316 -0.21873,-0.0397 -0.4242,-0.0708 -0.59893,-0.0827 -0.14279,-0.0361 -0.25033,-0.0589 -0.29611,-0.0589 -0.0131,0 -0.0259,0.006 -0.0387,0.0104 -0.0128,-0.002 -0.0462,-0.0104 -0.0543,-0.0104 -0.0347,0 -0.0685,0.022 -0.10129,0.0636 -0.0564,-0.0159 -0.20638,-0.0636 -0.21601,-0.0636 -0.0184,0 -0.0358,0.0567 -0.0527,0.13695 -0.72181,0.27919 -0.63476,1.24947 -0.39894,3.0272 l 0.19172,1.44796 c -0.0639,0.67361 -0.16866,1.21452 -0.29869,1.50225 l -5.66322,-2.30425 c -3.40445,-1.38523 -6.47133,-2.34463 -6.81509,-2.13217 -0.35141,0.21717 -0.45266,1.46288 -0.23151,2.8458 0.0845,0.52819 0.1406,1.01606 0.16898,1.41801 l -0.0713,1.03611 c -0.004,0.002 -0.008,0.006 -0.0129,0.006 -0.16963,0 -2.46606,-0.85728 -5.10304,-1.90479 -3.0155,-1.19788 -4.66838,-1.82692 -5.57383,-1.79938 h -5.1e-4 c -0.21311,-0.0619 -0.3821,-0.10491 -0.44752,-0.10491 -0.14095,0 -0.27037,0.20937 -0.37672,0.55346 -0.24243,0.43526 -0.26717,1.19271 -0.26717,2.30322 0,0.22524 -0.007,0.42561 -0.0109,0.63614 -0.0345,1.07257 -0.15381,1.91889 -0.30437,2.15337 -0.0479,0.004 -0.0988,0.006 -0.15245,0.006 -0.58966,-0.18331 -2.29383,-0.79616 -4.23282,-1.52601 -2.31918,-0.87294 -4.49868,-1.58698 -4.84311,-1.58698 -0.0776,0 -0.20115,0.0815 -0.3514,0.21395 -0.0345,0.003 -0.0619,0.008 -0.0734,0.0196 -0.0193,0.0193 -0.0901,0.1216 -0.13746,0.18603 -0.52649,0.54557 -1.28855,1.57109 -2.01693,2.75487 -1.07425,1.74588 -2.071025,3.17396 -2.214855,3.17396 -0.143828,0 -1.653225,-0.99996 -3.354316,-2.22207 -1.405173,-1.00952 -2.762113,-1.85754 -3.372922,-2.12545 -0.109199,-0.0564 -0.197421,-0.0966 -0.235643,-0.0966 -0.0056,0 -0.01564,0.004 -0.02274,0.005 -0.01044,-0.001 -0.02353,-0.005 -0.03204,-0.005 -0.313877,0 -1.953511,1.14319 -3.643706,2.53989 h -5.16e-4 c -1.336334,1.10427 -2.500807,2.03941 -2.965712,2.38694 -0.07489,0.0312 -0.149622,0.0618 -0.20102,0.0728 -0.10632,-0.0775 -0.300614,-0.24789 -0.507979,-0.43148 -0.460711,-0.51395 -1.188373,-1.35771 -2.026235,-2.36006 l -2.399336,-2.87115 -3.793048,2.02158 -3.792019,2.02157 -2.330091,-2.27531 c -0.004,-0.004 -0.0079,-0.007 -0.01189,-0.0113 l -0.03927,-0.0383 c -1.177433,-1.14972 -2.432744,-2.10862 -2.974494,-2.29081 l -5.18e-4,-5.1e-4 -0.244428,-0.23979 -0.124023,0.21757 c -0.01602,-0.006 -0.03102,-0.0114 -0.04134,-0.0114 -0.08,0 -0.208471,0.13153 -0.360186,0.35036 -0.367561,0.34081 -0.78137,0.89697 -1.106392,1.52551 l -0.04134,0.0806 -0.0052,0.01 c -0.519152,1.00155 -0.951299,1.49764 -1.433505,1.59318 l -3.629752,-1.36633 c -2.582135,-0.97192 -4.056118,-1.46034 -4.948537,-1.44642 -0.247218,-0.067 -0.435141,-0.11163 -0.502295,-0.11163 -0.107628,0 -0.236019,0.15168 -0.365869,0.40515 -0.309777,0.28946 -0.469577,0.79087 -0.613915,1.51257 -0.210958,1.05479 -0.576101,2.03693 -0.811321,2.18229 -0.23522,0.14539 -1.763019,-0.60436 -3.395141,-1.66606 l -2.96726,-1.93061 -2.681491,1.97197 -2.497521,1.83658 c -0.100283,0.0116 -0.1983,0.0126 -0.29404,0.005 l -0.07751,-0.0594 -0.618048,-0.59172 -1.156004,-1.12032 -1.961637,-1.9017 -4.935098,1.90014 c -2.666402,1.02674 -4.961424,1.8656 -5.182113,1.89497 -0.02215,-0.003 -0.04554,-0.009 -0.07028,-0.0176 -0.232076,-0.15864 -1.003285,-1.21661 -1.807642,-2.49081 l -1.586984,-2.51405 -3.340881,1.55546 c -4.126243,1.92101 -4.698316,1.93657 -5.149556,0.13952 -0.304836,-1.21399 -0.623652,-2.04507 -1.107426,-2.57866 l -0.196887,-0.59685 -0.327629,0.0305 -0.0155,-0.0388 -0.129191,0.0145 c -0.363598,-0.30263 -0.756602,-0.33221 -1.3193,-0.2165 -0.02184,0.004 -0.07185,0.0129 -0.09508,0.0176 -0.657227,-0.0164 -1.460084,0.0659 -2.460315,0.22273 l -2.9036986,0.45527 c -0.2426994,-0.0403 -0.4128143,-0.10482 -0.5125762,-0.20041 l 0.2878378,-0.5643 0.8573119,-1.52551 1.3503052,-2.40245 -1.9998779,-1.68256 c -1.0997782,-0.92541 -1.9993613,-1.90542 -1.9993613,-2.17818 0,-0.27276 1.3120772,-0.86347 2.9161012,-1.31257 3.1255199,-0.87509 3.1199269,-0.85691 1.7885212,-5.53041 -0.051243,-0.17987 -0.092565,-0.33841 -0.1214395,-0.48214 -0.00308,-0.0197 -0.00852,-0.0464 -0.011369,-0.0656 -0.010949,-0.0737 -0.018564,-0.14091 -0.025838,-0.20723 -0.05393,-0.80751 0.6080945,-1.01704 3.3041912,-1.61127 1.577651,-0.34772 1.77305,-0.62847 1.472778,-2.11615 -0.190428,-0.94347 -0.528312,-2.18684 -0.751375,-2.76314 -0.04778,-0.12344 -0.07666,-0.23393 -0.08785,-0.33538 0.012,-0.12919 0.03298,-0.25173 0.07183,-0.36121 0.214758,-0.34807 0.905464,-0.54715 2.351795,-0.76585 3.130045,-0.47329 4.685581,-0.69996 5.461682,-1.09037 l 0.04496,-0.005 0.0031,-0.0181 c 0.69215,-0.36887 0.720792,-0.90837 0.721404,-1.9048 0.0553,-0.22926 0.09766,-0.47197 0.121439,-0.73484 l 0.113688,-1.25935 c 0.09129,-0.25721 0.202502,-0.4129 0.322978,-0.4129 0.305583,0 2.730408,0.9907 5.388303,2.20194 4.681455,2.13341 4.813016,2.25388 4.205427,3.85196 -1.018484,2.67882 -1.970241,4.32856 -3.403928,5.90093 -1.306936,1.43335 -1.311976,1.50674 -0.166915,2.34404 3.649861,2.66889 18.952064,1.96034 68.970469,-3.19257 16.329614,-1.68228 25.212234,-3.18248 47.297364,-7.98814 32.32584,-7.034 44.31851,-9.50699 47.94178,-9.8857 l 3.79925,-0.39688 v -3.90984 -0.74465 c 2e-5,-0.014 5.2e-4,-0.0262 5.2e-4,-0.0403 0,-1.96384 0.0231,-2.78509 0.58291,-3.40754 l 2.20503,-1.07177 0.0687,-0.0331 2.12907,-1.03456 c 0.0239,-6.7e-4 0.0487,-0.003 0.0718,-0.003 z"
     style="fill:#000000;stroke-width:0.63486302" />
  <text
     id="text821"
     y="67.801743"
     x="61.852062"
     style="font-style:normal;font-weight:normal;font-size:10.58333302px;line-height:1.25;font-family:sans-serif;letter-spacing:0px;word-spacing:0px;fill:none;fill-opacity:1;stroke:#000000;stroke-width:2.64583325;stroke-miterlimit:4;stroke-dasharray:none;stroke-opacity:1"
     xml:space="preserve"><tspan
       style="font-style:normal;font-variant:normal;font-weight:normal;font-stretch:normal;font-size:77.6111145px;font-family:'Berlin Sans FB Demi';-inkscape-font-specification:'Berlin Sans FB Demi';fill:none;stroke:#000000;stroke-width:2.64583325;stroke-miterlimit:4;stroke-dasharray:none;stroke-opacity:1"
       y="67.801743"
       x="61.852062"
       id="tspan819">Cc</tspan></text>
  <text
     id="text825"
     y="92.746292"
     x="104.66949"
     style="font-style:normal;font-weight:normal;font-size:10.58333302px;line-height:1.25;font-family:sans-serif;text-align:center;letter-spacing:0px;word-spacing:0px;text-anchor:middle;fill:#000000;fill-opacity:1;stroke:none;stroke-width:0.26458332"
     xml:space="preserve"><tspan
       style="font-style:normal;font-variant:normal;font-weight:normal;font-stretch:normal;font-size:19.7555542px;font-family:Forte;-inkscape-font-specification:Forte;text-align:center;text-anchor:middle;stroke-width:0.26458332"
       y="92.746292"
       x="104.66949"
       id="tspan823">is for</tspan><tspan
       id="tspan827"
       style="font-style:normal;font-variant:normal;font-weight:normal;font-stretch:normal;font-size:19.7555542px;font-family:'Nirmala UI';-inkscape-font-specification:'Nirmala UI';text-align:center;text-anchor:middle;stroke-width:0.26458332"
       y="117.77547"
       x="104.66949">Cake</tspan></text>
</svg>
