<?xml version="1.0" encoding="UTF-8" standalone="no"?>
<svg
   xmlns:dc="http://purl.org/dc/elements/1.1/"
   xmlns:cc="http://creativecommons.org/ns#"
   xmlns:rdf="http://www.w3.org/1999/02/22-rdf-syntax-ns#"
   xmlns:svg="http://www.w3.org/2000/svg"
   xmlns="http://www.w3.org/2000/svg"
   xmlns:sodipodi="http://sodipodi.sourceforge.net/DTD/sodipodi-0.dtd"
   xmlns:inkscape="http://www.inkscape.org/namespaces/inkscape"
   id="svg2094"
   version="1.1"
   viewBox="0 0 210 297"
   height="297mm"
   width="210mm"
   sodipodi:docname="cartoon_frog.svg"
   inkscape:version="0.92.4 (5da689c313, 2019-01-14)">
  <sodipodi:namedview
     pagecolor="#ffffff"
     bordercolor="#666666"
     borderopacity="1"
     objecttolerance="10"
     gridtolerance="10"
     guidetolerance="10"
     inkscape:pageopacity="0"
     inkscape:pageshadow="2"
     inkscape:window-width="1029"
     inkscape:window-height="520"
     id="namedview8"
     showgrid="false"
     inkscape:zoom="0.2102413"
     inkscape:cx="396.85039"
     inkscape:cy="561.25984"
     inkscape:window-x="0"
     inkscape:window-y="0"
     inkscape:window-maximized="0"
     inkscape:current-layer="svg2094" />
  <title
     id="title2674">Cartoon Frog</title>
  <defs
     id="defs2088" />
  <metadata
     id="metadata2091">
    <rdf:RDF>
      <cc:Work
         rdf:about="">
        <dc:format>image/svg+xml</dc:format>
        <dc:type
           rdf:resource="http://purl.org/dc/dcmitype/StillImage" />
        <dc:title>Cartoon Frog</dc:title>
        <dc:date>2020-04-11</dc:date>
        <dc:creator>
          <cc:Agent>
            <dc:title>Public domain</dc:title>
          </cc:Agent>
        </dc:creator>
        <dc:source>http://www.supercoloring.com/coloring-pages/cartoon-frog-3</dc:source>
        <dc:subject>
          <rdf:Bag>
            <rdf:li>csk</rdf:li>
            <rdf:li>acb</rdf:li>
            <rdf:li>animals</rdf:li>
            <rdf:li>frog</rdf:li>
          </rdf:Bag>
        </dc:subject>
      </cc:Work>
    </rdf:RDF>
  </metadata>
  <g
     id="layer1">
    <path
       id="path2664"
       d="m 139.69878,94.690663 c -2.06563,-0.0013 -4.12271,0.349148 -5.6552,1.05044 -4.27031,1.954162 -8.1527,7.105277 -9.70801,12.881317 l -0.20628,0.76777 -0.42304,1.11252 c -0.0361,-0.0256 -0.0731,-0.0546 -0.11363,-0.0898 l -0.2206,-0.33806 -0.51567,-1.00461 c -1.64433,-3.20511 -5.2554,-6.69857 -8.65662,-8.37299 -2.82637,-1.391403 -3.8251,-1.613741 -7.9891,-1.780981 -2.11391,-0.0849 -4.01059,0.02504 -5.71346,0.345696 -0.002,3.62e-4 -0.004,5.92e-4 -0.006,9.53e-4 -0.75315,0.09751 -1.35624,0.251386 -1.96051,0.493711 -4.91112,1.564561 -7.97482,5.314391 -9.93529,11.790751 -0.90783,2.99899 -1.11589,4.86947 -1.14117,10.26762 -0.017,3.63033 0.13534,8.04211 0.33901,9.8035 l 0.36479,3.1542 c -0.0311,0.0402 -0.0778,0.0865 -0.1146,0.12892 l -6.1174,4.15785 c -17.275993,11.73949 -30.794347,24.1486 -41.401818,38.00507 -12.421783,16.22647 -21.318983,33.65686 -24.47821,47.95277 -0.556627,2.51879 -0.911256,5.77001 -1.04758,8.98416 -0.07439,1.28702 -0.0913,2.53296 -0.05825,3.74053 0.03361,2.45298 0.213684,4.68868 0.553869,6.30649 1.9832,9.43138 10.624364,21.31331 20.040563,27.55602 8.515503,5.64557 20.201783,8.63589 39.421259,10.0871 8.655617,0.65355 43.119777,1.25734 45.566347,0.79838 2.03548,-0.38186 2.71043,-1.53892 1.60814,-2.75696 -0.42032,-0.46443 -2.84626,-1.45932 -5.39069,-2.21071 -2.54442,-0.75139 -4.53828,-1.45399 -4.43097,-1.56136 0.10732,-0.10727 1.59321,-0.51407 3.30126,-0.90433 4.06956,-0.92976 5.66035,-1.5951 6.01236,-2.51244 0.54362,-1.41664 -0.81006,-2.25853 -5.35153,-3.32896 -1.4529,-0.34249 -1.44363,-0.35408 1.03516,-1.2147 1.37639,-0.47789 2.97154,-1.11991 3.54477,-1.42671 1.39645,-0.74734 1.36391,-2.66357 -0.0573,-3.349 -1.02537,-0.49456 -1.03367,-0.53314 -0.12223,-0.5701 0.53782,-0.0219 1.45108,-0.16736 2.03022,-0.3228 0.81119,-0.21762 1.1274,-0.0196 1.37799,0.86234 0.17889,0.62965 0.84109,2.13507 1.47157,3.34519 0.9786,1.87823 1.67044,4.52513 1.9863,7.1287 0.0235,0.80782 0.0405,1.71758 0.0544,2.88491 0.008,0.68534 0.0179,1.17676 0.0267,1.81057 -0.007,0.1216 -0.0123,0.24153 -0.021,0.36381 -0.007,0.0953 -0.009,0.17891 -0.0153,0.27312 -0.0883,0.63982 -0.21297,1.22708 -0.38675,1.7256 -0.46666,1.33865 -0.45186,1.66262 0.33996,2.34536 0.0198,0.13299 0.0429,0.23577 0.0726,0.2655 0.0383,0.0383 0.0863,0.0733 0.14228,0.10502 0.0826,0.16795 0.34481,0.26642 0.7611,0.30275 0.617,0.28842 1.28608,0.31296 2.39406,0.13749 7.3344,-1.16157 16.95363,-4.85463 18.53842,-7.11722 0.43363,-0.61909 0.69792,-1.23334 0.76396,-1.89843 0.0265,-0.11016 0.0439,-0.21611 0.0439,-0.3161 0,-0.17528 -0.0291,-0.36694 -0.0716,-0.56628 -0.35868,-2.33412 -2.97333,-5.45885 -8.97462,-11.29897 -3.36096,-3.27068 -6.11071,-6.01898 -6.11071,-6.10786 0,-0.0888 1.59514,-1.21936 3.54477,-2.51151 4.83589,-3.20511 9.63939,-7.21515 14.28986,-11.93019 0.16179,-0.16403 0.28627,-0.28688 0.43736,-0.43927 0.527,-0.50795 1.00692,-0.98895 1.46967,-1.46012 0.0339,-0.033 0.07,-0.0682 0.10314,-0.10027 0.76603,-0.71087 1.41494,-1.29024 1.81726,-1.611 0.22626,-0.15714 0.39461,-0.23761 0.51854,-0.25115 0.0431,0.0818 0.19439,0.52787 0.40776,1.18509 0.67231,3.22758 4.98589,16.75592 5.80514,18.03517 2.10296,3.28387 3.56386,7.57862 3.99646,11.38585 0.0376,0.52057 0.0637,1.0448 0.0726,1.5709 0.008,0.46179 0.0257,0.90702 0.0458,1.34364 -0.015,0.35149 -0.0381,0.69619 -0.0774,1.02749 -0.26314,2.22191 -0.23378,2.45645 0.82126,2.74165 0.39804,0.26573 1.04655,0.28691 2.2279,0.0363 3.8317,-0.5524 10.93122,-3.29708 15.26677,-6.09926 3.39616,-2.19512 4.46612,-4.11061 3.5419,-6.34186 -0.33194,-0.80137 -1.54609,-2.22842 -3.22104,-3.90571 -0.25637,-0.26109 -0.52711,-0.52912 -0.81648,-0.80503 -2.29797,-2.21223 -5.26498,-4.75009 -8.20301,-6.93103 l -4.27531,-3.17327 c -0.24353,-0.38085 -0.49214,-0.93884 -0.76873,-1.675 l -1.74279,-6.11072 c -1.17786,-4.13098 -2.5315,-8.86445 -3.00809,-10.51972 l -0.86613,-3.01 2.46758,-3.34614 c 14.01331,-19.00399 22.2237,-37.02369 25.02922,-54.92963 2.08357,-13.29818 1.13567,-26.2291 -2.29665,-31.32233 -0.48172,-0.71482 -1.21572,-1.49343 -2.1305,-2.31098 -1.75807,-1.65643 -4.24772,-3.37834 -7.57179,-5.22931 -5.12102,-2.95708 -11.74048,-6.04771 -19.0159,-8.7798 l -7.08954,-2.66239 -0.36193,-3.57247 c -1.0524,-10.39848 -4.28429,-16.514403 -10.10718,-19.127628 -1.56709,-0.703317 -3.64114,-1.055789 -5.70678,-1.057129 z m -0.30463,3.220085 c 0.33606,-0.0022 0.68009,0.0068 1.03231,0.02674 0.50411,0.02849 0.9407,0.06761 1.35029,0.113638 6.16217,1.072985 9.80484,7.172464 10.30009,17.407774 0.13662,2.82359 0.44527,5.38068 0.68565,5.68194 0.0345,0.0432 0.0902,0.0869 0.15566,0.13178 l 0.0229,0.29795 0.65127,0.0258 c 0.0271,0.008 0.0571,0.012 0.085,0.0191 0.41525,0.13898 0.917,0.25995 1.42097,0.32755 2.41605,0.32407 14.44537,5.11906 20.82266,8.30042 4.49282,2.24126 8.32941,4.5813 10.68302,6.45928 0.98869,0.85619 1.78969,1.69472 2.40074,2.51628 1.40504,2.36138 2.37342,6.82364 2.66622,12.39907 l 0.11364,2.16868 0.021,0.4918 c -0.011,1.63432 -0.088,2.40056 -0.53191,3.15324 l -3.45978,3.40153 c -15.04006,14.78856 -36.00599,24.27629 -55.3775,26.08253 -1.9628,0.0964 -4.11087,0.13082 -6.63117,0.1251 -2.47645,-0.006 -4.33276,-0.0275 -5.86912,-0.0745 -3.20962,-0.29772 -6.31878,-0.84804 -9.28783,-1.66352 -7.17621,-1.97101 -13.0802,-5.23456 -18.22712,-10.07662 -2.33256,-2.19447 -2.951,-2.55357 -3.54477,-2.06078 -0.15862,0.13164 -0.29,0.27019 -0.39344,0.41635 -0.17291,0.16706 -0.2568,0.37983 -0.26166,0.63027 -0.16275,0.94215 0.55413,2.1468 2.19352,3.71762 4.818,4.61645 12.93173,8.88051 20.6355,10.84631 6.13351,1.56467 14.19679,2.18472 20.45597,1.57089 3.02101,-0.29627 6.01088,-0.73628 8.96697,-1.30732 1.1835,-0.21143 2.37272,-0.46348 3.60589,-0.76778 16.14035,-3.7612 31.14576,-11.63008 44.10815,-23.21291 l 3.36046,-3.00331 c 0.0244,0.0721 0.0402,0.17313 0.0506,0.29603 l -0.59016,4.26099 c -2.76695,19.99219 -12.34883,40.02528 -29.11831,60.87323 -1.22435,1.52212 -2.61529,3.15567 -4.08145,4.81103 -4.53372,4.97826 -9.88464,10.29203 -14.13038,14.01866 -2.80336,2.26922 -6.20678,4.74171 -8.01775,5.86435 -0.67158,0.38519 -1.14944,0.62296 -1.26245,0.60447 -0.0903,-0.10966 -1.75224,-10.08673 -3.6947,-22.18156 -1.94347,-12.10112 -3.63342,-22.16704 -3.75581,-22.36872 -0.17534,-0.28896 -0.7314,-0.39022 -1.29969,-0.35334 -0.34955,-0.15698 -0.61598,-0.16149 -0.77637,0.14898 -0.32834,0.11039 -0.5943,0.26966 -0.67515,0.48033 -0.13561,0.35341 1.5458,11.74888 3.73672,25.32335 l 3.98405,24.68063 0.81457,0.71717 c 6.9e-4,4.4e-4 0.001,0.003 0.002,0.004 0.002,10e-4 0.005,0.004 0.007,0.005 l 3.08831,2.7216 c 4.71276,4.15374 9.89757,9.63596 10.62572,11.23404 0.42841,0.94027 0.35938,1.35112 -0.35715,2.1429 -0.5071,0.56032 -0.92833,0.87226 -1.22712,0.93396 -0.008,0.001 -0.018,0.006 -0.0258,0.007 -0.0157,0.003 -0.0299,0.002 -0.0449,0.003 -0.0216,0.002 -0.0384,-0.003 -0.0582,-0.004 -0.009,-0.006 -0.0228,-0.007 -0.0286,-0.0153 -0.0194,-0.028 -0.21327,-0.42039 -0.33614,-0.66368 -10e-4,-0.0105 -0.005,-0.0253 -0.007,-0.0373 -0.0817,-0.72606 -0.55719,-1.82323 -1.23666,-3.04342 -0.15244,-0.32196 -0.3035,-0.64348 -0.46983,-0.97596 -1.71517,-3.4284 -4.94307,-6.9587 -6.36283,-6.9587 -0.0117,0 -0.0209,0.002 -0.0325,0.002 -0.005,-10e-5 -0.01,-0.002 -0.0143,-0.002 -1.215,0 -1.29713,0.89881 -0.39822,2.07034 0.32017,0.47094 0.77126,1.0052 1.35794,1.59187 2.09079,2.09083 4.48884,6.208 4.82059,8.27467 0.11732,0.73096 -0.38297,1.12181 -2.29379,1.79243 l -2.04932,0.71908 c -0.18311,-0.1041 -0.37016,-0.5126 -0.55769,-1.21852 l -0.13942,-1.16885 c -0.41022,-3.43505 -1.20723,-6.12742 -2.37496,-8.02732 -1.21275,-1.97314 -2.06975,-2.05494 -2.20498,-0.89763 -0.1968,0.17851 -0.24548,0.48918 -0.14038,0.99219 -0.0135,0.30642 0.0624,0.62022 0.26643,0.87569 0.07,0.19547 0.14224,0.39569 0.23587,0.62642 0.0941,0.31761 0.2008,0.64671 0.33328,1.0008 0.76723,2.05059 1.26774,4.44802 1.39518,6.21195 4.5e-4,0.006 10e-4,0.013 0.002,0.0191 5.6e-4,0.007 4.1e-4,0.0129 9.6e-4,0.02 0.0946,1.36232 -0.0367,2.33897 -0.44405,2.46756 -0.37383,0.11803 -1.26301,0.34196 -1.97675,0.49754 -1.26246,0.27517 -1.29103,0.23048 -1.03994,-1.64155 0.37183,-2.77216 -0.48861,-8.23062 -1.7552,-11.69907 -0.19967,-0.56819 -0.4186,-1.0869 -0.65318,-1.55466 -1.12275,-2.49669 -1.89551,-6.43232 -4.70981,-23.68753 -1.88595,-11.56329 -3.56564,-22.04915 -3.73289,-23.30267 -0.22377,-1.67713 -0.67686,-2.53116 -1.45726,-2.67099 -0.15219,-0.071 -0.31307,-0.0704 -0.48511,-0.003 -0.18002,0.026 -0.37253,0.0758 -0.58061,0.15565 -1.13046,0.43381 -0.77265,3.7014 2.71969,24.83346 2.13083,12.89354 2.75588,17.68529 2.33963,17.94252 -0.37302,0.23058 -1.10925,0.457 -2.15628,0.67516 -0.004,8.8e-4 -0.007,0.002 -0.0115,0.003 -0.008,0.002 -0.0173,0.003 -0.0258,0.005 -4.57892,0.94672 -15.02928,1.73239 -27.24661,1.98537 l -13.201213,0.27404 4.143523,-2.0388 c 10.83187,-5.32953 16.71428,-12.16071 18.88889,-21.93518 1.17314,-5.27302 0.72773,-19.8089 -0.76491,-24.97384 -1.41428,-4.89372 -2.74446,-7.68 -5.25508,-10.60852 -1.62481,-2.07007 -3.59054,-3.848 -6.05056,-5.43462 -3.53025,-2.38427 -7.9384,-4.30827 -13.624265,-5.9818 -4.595637,-1.35266 -5.182841,-1.42826 -5.859565,-0.75154 -0.51918,0.51917 -0.62321,0.98047 -0.214867,1.46298 0.177361,0.54257 0.907623,0.93043 3.338505,1.75233 0.784074,0.29349 1.661431,0.60302 2.741658,0.95304 13.035294,4.22372 18.382394,8.7048 21.281044,17.83272 0.91818,2.89137 1.52234,6.77478 1.7953,10.81575 0.0516,1.44987 0.0762,3.04109 0.0793,4.83204 0.002,1.43167 -10e-4,2.5748 -0.01,3.6078 -0.15158,2.76846 -0.48062,5.32584 -1.00748,7.35311 -2.84782,10.95792 -14.62545,19.53876 -31.567749,22.99993 -4.720516,0.96437 -6.219978,3.22295 -2.962255,4.46152 0.326236,0.1239 1.614616,0.21694 3.797833,0.2827 2.908541,0.15431 7.576721,0.16096 14.575391,0.0964 1.83917,-0.006 3.4927,-0.005 5.61033,-0.0201 21.70829,-0.1499 22.54645,-0.12267 20.65746,0.67899 -1.3248,0.56217 -1.96815,1.14312 -1.96815,1.77429 0,1.28462 0.8159,1.85721 3.67273,2.57741 l 2.43894,0.61499 -2.43703,0.62167 c -5.70718,1.45761 -6.68201,3.65752 -2.50101,5.64377 l 2.00444,0.95112 -15.64589,-0.25977 c -37.775449,-0.6272 -52.1029,-3.95792 -63.866045,-14.84848 -0.583748,-0.54047 -1.164338,-1.12646 -1.739921,-1.73611 -0.920115,-0.99752 -1.823626,-2.0477 -2.694862,-3.13319 -3.803055,-4.83022 -6.96507,-10.63323 -8.002475,-15.05 -1.174023,-4.99838 -0.730101,-14.99987 0.94731,-21.33261 5.265408,-19.87852 21.171745,-44.83263 39.419347,-61.84251 7.899999,-7.36414 16.794696,-14.3435 27.026966,-21.2056 2.00579,-1.34513 3.78347,-2.65849 4.56084,-3.34996 l 0.28648,-0.1929 -0.004,-0.0392 0.0286,-0.0181 -0.006,-0.0487 c 0.0493,-0.056 0.0983,-0.11194 0.11078,-0.14419 0.13076,-0.33823 0.0305,-2.2084 -0.22251,-4.15594 -0.25297,-1.94753 -0.46724,-5.97581 -0.47556,-8.9517 -0.0245,-8.78469 1.24278,-13.51126 4.62673,-17.25688 2.42903,-2.68864 5.3537,-3.73563 10.33923,-3.7033 0.72841,0.005 1.32687,0.0215 1.8717,0.0516 0.21563,0.0147 0.43307,0.0285 0.63982,0.0478 0.001,1.1e-4 0.003,-1.2e-4 0.004,0 0.003,2.4e-4 0.005,7.1e-4 0.008,9.5e-4 0.22301,0.0209 0.43604,0.048 0.64936,0.0745 1.3073,0.19417 2.32084,0.59581 4.02607,1.43529 4.5901,2.25969 8.04934,6.86489 9.60106,12.78199 0.52668,2.00838 2.12951,4.40041 2.94888,4.40041 0.0333,0 0.0713,-0.0679 0.11077,-0.16521 l 0.36384,0.34856 0.007,-2.16583 c 0.0659,-0.47091 0.12755,-0.98205 0.17952,-1.54128 1.06822,-11.49352 5.75507,-18.641128 12.58146,-19.36828 0.26923,-0.01746 0.54121,-0.03256 0.82125,-0.03438 z m -0.22154,4.006972 c -1.52308,-0.0349 -2.995,0.39132 -4.3517,1.25193 -0.86129,0.47139 -1.62582,1.14328 -2.34345,2.06269 -0.78669,0.91776 -1.50514,2.02003 -2.13527,3.30317 -0.96565,1.9664 -1.24925,2.87268 -1.32833,5.49574 -0.19837,1.4564 -0.24889,2.94961 -0.12606,4.41472 0.0374,0.44591 0.0905,0.87966 0.15184,1.30829 0.10075,2.13602 0.36287,3.21144 0.97309,4.53028 1.89963,4.10552 5.01333,6.89743 8.74925,7.8449 3.76263,0.95424 7.08411,-0.80576 8.86575,-4.69739 3.41769,-7.46522 1.87838,-19.82926 -2.91451,-23.40676 -1.84286,-1.37555 -3.72733,-2.06603 -5.54061,-2.10757 z m -0.41732,3.27834 c 0.63164,0.005 1.22329,0.0748 1.7743,0.21104 0.6997,0.25139 1.40366,0.66676 2.09516,1.2739 2.5076,2.20169 3.47124,5.18144 3.47124,10.73363 0,5.25188 -0.81746,8.71023 -2.48382,10.50826 -0.32363,0.3492 -0.66192,0.61425 -1.02371,0.80884 -0.11738,0.0586 -0.23477,0.11747 -0.35715,0.16425 -0.01,0.004 -0.0197,0.008 -0.0296,0.0115 -0.13298,0.0496 -0.2705,0.0873 -0.40872,0.12319 -0.0996,0.0232 -0.20161,0.0427 -0.30559,0.0573 -0.22787,0.0232 -0.46344,0.0376 -0.70761,0.0382 -0.009,2e-5 -0.0186,-9.5e-4 -0.0277,-9.6e-4 -0.97331,-0.0247 -1.89023,-0.21888 -2.73784,-0.56724 -1.08134,-0.4952 -2.1582,-1.28386 -3.13606,-2.33676 -1.86332,-2.21192 -2.95425,-5.54857 -2.92883,-9.53994 0.0379,-5.94918 2.45617,-10.26069 5.51865,-11.31424 0.36637,-0.10443 0.74726,-0.16079 1.14117,-0.16807 0.048,-0.001 0.0964,-0.002 0.1461,-0.003 z m -31.90103,0.74295 c -0.84459,7.9e-4 -1.71171,0.0935 -2.59364,0.28266 -2.9734,0.63767 -5.07688,2.5134 -6.48888,5.91782 -0.3477,0.76134 -0.62781,1.58809 -0.84513,2.53635 -0.41383,1.53057 -0.74079,3.2736 -0.98264,5.26272 -0.51714,4.25325 -0.34414,8.04265 0.47175,11.27031 0.15962,1.15405 0.46702,1.89662 1.00364,2.97944 1.48256,3.42266 3.87763,5.98296 7.11725,7.49827 5.93175,2.77453 11.23561,0.71034 14.00146,-5.44799 0.66711,-1.48537 1.11255,-4.21039 1.30159,-7.24998 0.0467,-0.66891 0.072,-1.36574 0.085,-2.07892 0.003,-0.12469 0.008,-0.24841 0.01,-0.37338 6.3e-4,-0.033 0.002,-0.0653 0.003,-0.0984 0.002,-0.11684 -10e-6,-0.23351 9.6e-4,-0.35047 0.0249,-3.02485 -0.194,-6.07432 -0.69521,-8.32716 -1.63204,-7.3357 -6.47638,-11.82688 -12.38856,-11.82131 z m -0.5978,3.26306 c 0.33378,-0.007 0.68157,6.8e-4 1.04377,0.0239 0.16382,0.0105 0.32341,0.0283 0.4832,0.0458 2.22872,0.34949 4.50353,1.54383 5.84716,3.39866 2.23665,3.08762 3.07622,6.61764 3.10453,13.05607 0.0292,6.64767 -0.70699,9.67794 -2.92118,12.02567 -1.4152,1.50056 -1.83023,1.66201 -4.20178,1.64538 -3.40316,-0.0247 -5.2235,-0.85196 -7.35598,-3.34327 -1.86738,-2.18163 -2.89824,-4.81685 -3.22391,-8.32907 -0.0781,-1.37033 -0.0761,-2.95346 -0.007,-4.8607 0.0452,-1.24261 0.11615,-2.37906 0.212,-3.43017 0.53091,-4.31953 1.71605,-7.41748 3.49702,-9.02809 0.59226,-0.53561 1.3455,-0.88207 2.17824,-1.07241 0.42071,-0.077 0.86746,-0.12111 1.34361,-0.13178 z m 34.33425,8.26508 c -0.78534,0.0117 -1.5874,0.39468 -2.34058,1.14785 -1.94871,1.9487 -1.4955,4.69286 0.99983,6.0582 h 9.6e-4 c 1.46935,0.80349 2.12633,0.68217 3.4445,-0.636 0.51557,-0.51554 0.86074,-1.12961 1.04185,-1.7762 0.0918,-0.30514 0.14304,-0.62741 0.14897,-0.96259 0.002,-0.10209 -5.7e-4,-0.20522 -0.008,-0.3094 -0.003,-0.0549 -0.008,-0.10952 -0.0134,-0.16425 -0.004,-0.036 -0.008,-0.0718 -0.0134,-0.10791 -0.0988,-0.78643 -0.43468,-1.54769 -1.01989,-2.17061 -0.68734,-0.7316 -1.45592,-1.09084 -2.24126,-1.07909 z m -30.68443,10.21509 c -2.92561,0 -4.3669,4.18086 -2.1916,6.35615 0.53253,0.53253 1.17922,0.8097 1.84591,0.88141 0.0581,0.0124 0.11646,0.0187 0.17476,0.0239 0.14764,0.044 0.28526,0.0726 0.40107,0.0726 0.33346,0 0.65847,-0.082 0.96451,-0.22441 0.37676,-0.13484 0.73034,-0.34145 1.03707,-0.62262 0.84558,-0.63746 1.44388,-1.62563 1.44388,-2.81997 0,-1.19394 -0.74521,-2.36104 -1.77048,-3.04724 -0.33897,-0.24367 -0.71516,-0.41609 -1.1106,-0.50995 -0.0951,-0.0253 -0.19086,-0.0446 -0.28744,-0.0611 -3.1e-4,-6e-5 -6.4e-4,5e-5 -9.6e-4,0 -0.002,-3.7e-4 -0.003,-5.9e-4 -0.005,-9.6e-4 -0.11976,-0.0276 -0.23891,-0.0478 -0.3562,-0.0478 -0.0179,0 -0.0372,0.005 -0.0554,0.006 -0.0299,-9.3e-4 -0.0598,-0.006 -0.0898,-0.006 z m 54.07973,102.97504 c 0.042,-5e-4 0.0732,0.0144 0.0936,0.0449 0.007,0.0158 0.0151,0.0394 0.022,0.0563 0.15499,0.32851 1.50939,4.86406 3.05488,10.23419 0.71821,2.4956 1.40362,4.7217 1.97388,6.46787 l 0.80502,2.80755 0.25688,0.18144 c 0.114,0.26084 0.20768,0.44405 0.2502,0.44405 0.61487,0 8.53854,6.01706 11.93782,9.03858 1.62745,1.50973 2.91865,2.85537 3.57437,3.75584 0.41921,0.77511 0.26146,1.30286 -0.29221,1.91467 -0.34945,0.38616 -0.61307,0.64637 -0.83176,0.77158 -0.0322,0.0142 -0.0717,0.0362 -0.10123,0.0468 -0.0391,0.014 -0.0754,0.0237 -0.11077,0.0306 -0.007,0.001 -0.0148,0.003 -0.022,0.004 -0.017,0.003 -0.0333,0.001 -0.0497,0.002 -0.33304,-0.0118 -0.57574,-0.48815 -0.9559,-1.50689 -1.32016,-3.53768 -6.68525,-9.16751 -8.73684,-9.16751 -1.48927,0 -1.27978,1.5728 0.38199,2.86295 0.91391,0.70949 2.18201,1.84123 2.81709,2.51439 0.84686,0.89759 2.57083,3.57983 3.44164,5.22069 0.21889,0.58071 0.34841,1.09409 0.34665,1.48494 -0.7328,0.64471 -3.50425,2.09611 -4.13589,2.09611 -0.24969,0 -0.60566,-0.80708 -0.7907,-1.79341 -0.50066,-2.6687 -2.1222,-6.7553 -3.24969,-8.18866 -1.93745,-2.46306 -3.55351,-0.91514 -1.88029,1.80103 1.02943,1.67108 2.83063,7.00623 2.90591,8.56398 -0.0143,0.27844 -0.0908,0.51577 -0.23969,0.72196 -0.20794,0.24974 -0.53242,0.45216 -0.93013,0.55195 -0.64729,0.16248 -1.52738,0.42948 -1.95573,0.59396 -0.0704,0.027 -0.13232,0.0431 -0.19099,0.0545 -0.1687,-0.23401 -0.35689,-0.77403 -0.54146,-1.55276 -0.0117,-0.0799 -0.0249,-0.14345 -0.0363,-0.2273 -0.002,-0.14204 -0.01,-0.23107 -0.01,-0.39438 0,-3.59234 -1.75043,-9.79041 -3.6269,-12.84312 -1.5228,-2.47733 -7.00297,-19.35959 -7.09814,-21.81485 0.19674,-0.54418 0.66031,-1.34435 1.19655,-2.15055 1.0025,-1.27353 2.32568,-2.62234 2.72734,-2.62706 z"
       style="fill:#000000;stroke-width:0.48893392" />
  </g>
</svg>
