<?xml version="1.0" encoding="UTF-8" standalone="no"?>
<svg
   xmlns:dc="http://purl.org/dc/elements/1.1/"
   xmlns:cc="http://creativecommons.org/ns#"
   xmlns:rdf="http://www.w3.org/1999/02/22-rdf-syntax-ns#"
   xmlns:svg="http://www.w3.org/2000/svg"
   xmlns="http://www.w3.org/2000/svg"
   xmlns:sodipodi="http://sodipodi.sourceforge.net/DTD/sodipodi-0.dtd"
   xmlns:inkscape="http://www.inkscape.org/namespaces/inkscape"
   width="210mm"
   height="297mm"
   viewBox="0 0 595.27559 841.88976"
   version="1.1"
   id="svg144"
   sodipodi:docname="celtic_mandala.svg"
   inkscape:version="0.92.4 (5da689c313, 2019-01-14)"
   inkscape:export-filename="D:\repo\acb-website\src\images\celtic_mandala.png"
   inkscape:export-xdpi="96"
   inkscape:export-ydpi="96">
  <title
     id="title1026">Celtic Mandala</title>
  <metadata
     id="metadata150">
    <rdf:RDF>
      <cc:Work
         rdf:about="">
        <dc:format>image/svg+xml</dc:format>
        <dc:type
           rdf:resource="http://purl.org/dc/dcmitype/StillImage" />
        <dc:title>Celtic Mandala</dc:title>
        <dc:date>2020-05-17</dc:date>
        <dc:creator>
          <cc:Agent>
            <dc:title>Dora Alis</dc:title>
          </cc:Agent>
        </dc:creator>
        <dc:source>http://www.supercoloring.com/coloring-pages/celtic-mandala-0</dc:source>
        <cc:license
           rdf:resource="http://creativecommons.org/licenses/by-sa/4.0/" />
        <dc:subject>
          <rdf:Bag>
            <rdf:li>acb</rdf:li>
            <rdf:li>mandala</rdf:li>
          </rdf:Bag>
        </dc:subject>
      </cc:Work>
      <cc:License
         rdf:about="http://creativecommons.org/licenses/by-sa/4.0/">
        <cc:permits
           rdf:resource="http://creativecommons.org/ns#Reproduction" />
        <cc:permits
           rdf:resource="http://creativecommons.org/ns#Distribution" />
        <cc:requires
           rdf:resource="http://creativecommons.org/ns#Notice" />
        <cc:requires
           rdf:resource="http://creativecommons.org/ns#Attribution" />
        <cc:permits
           rdf:resource="http://creativecommons.org/ns#DerivativeWorks" />
        <cc:requires
           rdf:resource="http://creativecommons.org/ns#ShareAlike" />
      </cc:License>
    </rdf:RDF>
  </metadata>
  <defs
     id="defs148" />
  <sodipodi:namedview
     pagecolor="#ffffff"
     bordercolor="#666666"
     borderopacity="1"
     objecttolerance="10"
     gridtolerance="10"
     guidetolerance="10"
     inkscape:pageopacity="0"
     inkscape:pageshadow="2"
     inkscape:window-width="3840"
     inkscape:window-height="2004"
     id="namedview146"
     showgrid="false"
     units="mm"
     inkscape:zoom="4"
     inkscape:cx="394.02707"
     inkscape:cy="445.53781"
     inkscape:window-x="-16"
     inkscape:window-y="-16"
     inkscape:window-maximized="1"
     inkscape:current-layer="svg144" />
  <path
     style="opacity:1;fill:#000000;stroke-width:0.68322909"
     inkscape:connector-curvature="0"
     id="path61"
     d="m 556.89532,126.4486 c 8.57453,-1.03168 17.2447,-0.15714 25.86022,-0.6354 2.06336,0.18447 4.40683,-0.56708 6.25155,0.6354 -0.0205,36.9217 -0.2528,73.85023 0.25963,110.7651 -0.007,18.89811 0,37.79623 0,56.69434 0.0205,17.08073 -0.13665,34.16146 0.32795,51.24218 0.10931,19.82048 0.0137,39.64095 0.0547,59.46826 -0.2118,5.90993 0.49876,11.7857 0.36895,17.69563 -0.64907,7.50186 -0.2323,15.04471 -0.34162,22.57389 0.007,17.73663 -0.0752,35.47325 0.0888,53.20988 0.53975,24.15898 0.19814,48.32479 0.29379,72.4906 -0.13664,19.82048 0.39627,39.62046 0.26646,59.44093 -0.18447,27.13786 0.40311,54.26889 0.11615,81.40674 -4.3795,0.18448 -8.76583,0.0137 -13.13166,0.45094 -11.3826,-0.082 -22.75836,0.18447 -34.13413,0.14347 -13.66458,-0.13664 -27.30866,0.55342 -40.97324,0.28696 -12.74906,0.73789 -25.53227,0.25963 -38.29499,0.39627 -11.15713,0.24596 -22.31426,-0.0547 -33.46456,0.12298 -11.60806,0.73789 -23.25029,-0.15031 -34.85152,0.56708 -14.35464,0.0683 -28.72295,-0.19813 -43.07076,0.19814 -11.60122,-0.0342 -23.20929,-0.12298 -34.81052,0.11615 -7.04409,0.58074 -14.11551,0.2118 -21.17326,0.32112 -13.89005,-0.0205 -27.7801,0.13664 -41.67014,0.0615 -7.29689,0.0752 -14.60061,-0.20497 -21.88383,0.28012 -12.96769,0.007 -25.93538,0.0137 -38.89623,-0.007 -1.83789,0.041 -3.65528,0.47143 -5.5,0.41677 -17.09439,-0.12298 -34.18878,0.10932 -51.28317,0.0137 -6.81863,0.0342 -13.63725,-0.0888 -20.45588,0.11615 -5.21987,0.55342 -10.46707,0.35528 -15.70743,0.38944 -19.827311,0 -39.647786,0.19814 -59.475093,0.33478 -5.233535,0.13665 -10.514895,-0.38944 -15.707436,0.47827 -6.128565,-0.007 -12.25713,0.0615 -18.3788619,-0.0273 C 7.2170477,715.97963 6.4996572,715.7405 6.1375458,715.62435 6.2536947,681.16227 5.9872354,646.7002 6.0623906,612.24496 6.0555583,597.19342 6.1307135,582.14189 5.7276083,567.11085 5.6046271,533.20219 5.7071115,499.29353 5.6797823,465.38487 5.249348,420.28492 5.6182917,375.18497 5.4406521,330.07819 5.3040063,302.28443 5.2630126,274.49067 5.249348,246.69008 5.3723292,229.17209 4.7164293,211.68143 4.8120814,194.17026 c -0.047826,-19.595 0.00683,-39.19001 -0.020497,-58.77819 0.054658,-1.83789 -0.3211176,-3.77826 0.5124218,-5.5 7.3515448,0 14.7099218,0.17081 22.0546338,-0.16397 8.64968,-0.0342 17.29936,0.10932 25.94904,0.007 2.261488,-0.26646 4.529809,-0.57391 6.818626,-0.45093 19.376376,-0.0888 38.759585,-0.10248 58.135964,-0.0683 16.36333,-0.80621 32.77449,0.29379 49.12417,-0.66957 23.00432,0.0888 46.00864,-0.1708 69.01296,-0.0752 5.46584,0.0888 10.9385,0.11615 16.39067,-0.28013 14.12918,-0.45093 28.26518,0.0888 42.38753,-0.33478 15.4888,0.0273 30.97761,0 46.46641,0.007 10.01614,-0.34844 20.04594,-0.11614 30.06208,-0.1913 6.13539,-0.0888 12.29129,0.30745 18.39936,-0.4646 19.81364,-0.0546 39.62728,-0.0137 59.44092,-0.0342 16.17887,-0.92236 32.39873,0.0273 48.58442,-0.60807 19.58818,-0.0957 39.17636,-0.12981 58.76453,-0.11615 m 6.1559,1.44161 c -15.96023,-0.0546 -31.91363,0.041 -47.86703,-0.0205 -1.83789,-0.041 -3.62111,0.4236 -5.4385,0.47826 -22.79936,0.007 -45.59188,0.30745 -68.39123,0.20497 -12.50993,0.36211 -25.01985,0.14347 -37.52978,0.18447 -15.08569,0.88136 -30.21238,0.25279 -45.31858,0.49192 -10.33725,0.19131 -20.70184,-0.36211 -31.01177,0.33478 2.44596,0.38261 4.94658,0.18448 7.39937,0.52609 27.1242,3.42298 53.7838,10.61055 78.94712,21.30308 22.82669,10.0503 44.68318,22.54656 64.20304,38.14468 18.41985,14.42297 35.20679,30.96394 49.68441,49.35647 14.52545,18.83662 27.21985,39.16269 36.86704,60.9372 10.89068,23.89252 18.23539,49.35647 22.21861,75.29867 0.33479,2.70559 -0.12298,5.58199 1.20932,8.0826 0.43727,-2.43229 -0.51242,-4.83043 -0.37578,-7.26272 0.0273,-12.08632 0.14348,-24.17265 -0.0137,-36.25897 -0.041,-56.47571 -0.0615,-112.95826 -0.0478,-169.4408 -0.21863,-14.24533 -0.30745,-28.49066 -0.28012,-42.72915 -8.08943,0.0478 -16.19936,-0.32112 -24.25463,0.36894 m -376.51387,2.11801 c -2.07702,0 -4.12671,0.36212 -6.19006,0.40311 -27.56146,0.0137 -55.11609,0.25963 -82.670715,0.21863 -11.587565,0.68323 -23.229788,-0.4031 -34.790024,0.66957 -10.719863,-0.007 -21.44656,-0.0547 -32.173256,0.0615 -8.103097,0.0547 -16.213026,-0.21864 -24.3161223,0.10931 -0.2664593,22.03414 0.2322979,44.05461 0.3484468,66.07509 0.1708073,63.75893 0.095652,127.5247 0.1776396,191.28364 -0.013665,0.96335 0.054658,1.91987 0.211801,2.87639 1.4142841,-3.88757 1.011179,-8.19875 2.0086934,-12.20247 3.2385055,-23.77637 9.9614795,-46.96517 18.7273085,-69.26576 8.355892,-20.18259 18.945942,-39.44965 31.49686,-57.33659 7.221731,-10.44657 15.399983,-20.17575 23.749042,-29.72729 13.288805,-14.73725 28.333506,-27.86208 44.389396,-39.51114 20.12109,-14.77824 42.24405,-26.75525 65.47384,-35.88319 21.24842,-8.43104 43.60368,-13.91054 66.20489,-17.17638 3.09503,0.007 6.1559,-0.23913 9.14844,-1.07267 -3.15652,-0.64906 -6.20372,0.62174 -9.34657,0.40311 -24.15215,-0.11615 -48.3043,0.17081 -72.44961,0.0752 m 18.92544,14.90806 c -12.07949,3.96273 -23.71488,9.13477 -35.17263,14.60061 3.88074,7.35837 7.4267,14.89439 11.07514,22.36892 24.97886,-12.49626 52.03473,-20.77017 79.67818,-24.69873 51.98006,-7.57701 106.21479,0.73788 153.47374,23.81053 1.48261,-3.42981 3.26583,-6.71614 4.70062,-10.16645 1.79689,-4.26335 4.318,-8.21241 5.85527,-12.58508 -25.07451,-12.05899 -51.91175,-20.46271 -79.37072,-24.98569 -46.76703,-7.56334 -95.35828,-3.58695 -140.2396,11.65589 m 80.1906,11.49191 c -23.91985,1.12733 -47.68256,5.65714 -70.42042,13.17949 -11.52608,3.94907 -22.9565,8.36273 -33.69686,14.14284 -19.01426,9.12111 -36.75089,20.88632 -52.81361,34.54407 -18.91861,15.95339 -35.890019,34.36642 -49.431619,55.11608 -26.09935,38.73909 -41.840947,84.45395 -44.68318,131.08433 -0.683229,5.69813 -0.218634,11.45092 -0.724223,17.16272 0.47826,5.6503 0.08882,11.33477 0.676397,16.98507 2.719251,44.52604 16.957745,88.39618 41.314861,125.82346 10.234771,16.21986 22.314261,31.28506 36.122324,44.60803 19.43103,19.60867 42.12107,35.93785 66.78564,48.33846 42.44219,21.56954 90.87629,30.9571 138.30606,27.26083 39.98939,-2.88322 79.30239,-15.18818 113.76447,-35.71238 35.54157,-20.7155 65.76763,-50.14901 88.28002,-84.5086 10.77453,-16.60247 19.45153,-34.53723 26.45463,-53.03224 11.93601,-32.3304 17.39501,-66.98378 16.08321,-101.40486 -1.36645,-48.2838 -16.91675,-95.96635 -43.46703,-136.2837 -10.82235,-16.11054 -23.30494,-31.15524 -37.42729,-44.47138 -7.87763,-8.06893 -16.70495,-15.13352 -25.69624,-21.91799 -21.82917,-15.90557 -45.96082,-28.76394 -71.60924,-37.33163 -24.6714,-8.43105 -50.64094,-13.0975 -76.69246,-13.76023 -7.03043,-0.85404 -14.09502,-0.082 -21.12544,0.17763 m 140.99798,2.65777 c -3.62795,7.48135 -7.20807,14.98321 -10.7472,22.49873 10.80869,5.70496 21.56955,11.5739 31.62668,18.54967 17.33352,11.51924 32.92481,25.49811 46.97883,40.80244 16.63663,18.23538 30.86829,38.72542 41.64281,60.95769 7.43353,-3.58695 14.77141,-7.36521 22.19128,-10.98632 -0.32112,-1.16149 -0.79938,-2.26832 -1.39379,-3.30683 -11.49874,-22.33476 -25.78506,-43.25523 -42.51051,-62.00987 -2.86956,-3.26583 -6.1354,-6.16956 -8.90931,-9.52421 -6.53167,-6.21055 -12.91986,-12.57142 -19.87513,-18.31737 -7.85713,-6.36086 -15.65278,-12.81738 -24.11799,-18.37203 -11.15713,-7.52919 -22.82668,-14.31365 -34.88567,-20.2919 M 121.63059,189.99574 C 104.20825,203.37336 88.179691,218.6367 74.433123,235.78575 61.287795,251.582 49.932529,268.8472 40.442477,287.06209 c -1.216148,2.37763 -2.68509,4.64596 -3.552791,7.18074 7.563345,3.29316 14.894393,7.09875 22.396248,10.51489 7.638501,-15.29067 16.636628,-29.87077 26.666431,-43.70616 14.122345,-18.73414 30.670155,-35.63723 49.212985,-50.01237 13.10434,-10.60371 27.50681,-19.51985 42.47635,-27.23351 0.66274,-0.4441 1.57143,-0.6354 2.03603,-1.31863 -0.0615,-0.96336 -0.61491,-1.79689 -0.97702,-2.6646 -3.21801,-6.5385 -6.59999,-13.00184 -9.64719,-19.62233 -16.79378,8.24657 -32.5627,18.44718 -47.42293,29.79562 m 415.33494,113.08124 c 0.66273,2.35714 2.05652,4.41366 2.93789,6.68198 14.82607,32.48754 22.87451,68.05644 23.50991,103.7415 0.78571,5.88943 -0.14348,11.79936 -0.15031,17.70246 -1.28447,30.85463 -7.95962,61.52478 -19.79998,90.07009 -1.88571,5.06273 -4.56397,9.78384 -6.47018,14.83973 7.53602,3.3205 14.8739,7.07143 22.3006,10.63105 15.44781,-32.11177 25.3273,-67.0521 27.93723,-102.61417 0.64224,-3.82609 0.0137,-7.74099 0.8882,-11.52608 0.0888,-8.19191 -0.0888,-16.38383 0.0752,-24.57575 -0.91553,-13.02918 -1.68075,-26.11301 -4.04472,-38.99188 -4.65962,-26.52978 -12.95402,-52.431 -24.82171,-76.61731 -7.6385,3.11553 -14.69626,7.60434 -22.36209,10.65838 M 35.851178,295.97139 c -14.832903,32.02978 -24.459601,66.64217 -27.1651878,101.86263 -0.8813655,5.16521 -0.1981365,10.44657 -0.9428561,15.61861 -0.5055895,9.77018 0.3621114,19.51302 0.5602478,29.27637 0.6968936,3.43664 0.4850926,6.94844 1.0316759,10.40558 1.9335382,18.89128 5.8757702,37.57076 11.4850802,55.71049 4.550306,14.2385 9.660859,28.34034 16.575137,41.61549 0.116149,0.007 0.355279,0.0342 0.471428,0.041 7.208067,-3.58695 14.320481,-7.4267 21.596871,-10.89067 -0.778881,-3.48447 -2.890059,-6.52484 -4.215523,-9.82484 -11.772037,-26.37947 -19.02793,-54.72664 -21.740349,-83.47009 -0.218633,-4.57764 -1.052173,-9.11428 -0.737887,-13.70558 -0.478261,-6.1149 -0.471429,-12.27079 -0.198137,-18.39935 0.901862,-37.25648 10.016138,-74.27384 26.003698,-107.94336 -5.855273,-2.75342 -11.635391,-5.6708 -17.517993,-8.36273 -1.70124,-0.70372 -3.25217,-2.13167 -5.206205,-1.93354 M 587.68162,456.51656 c -0.92919,3.60745 -0.60124,7.39254 -1.55093,11.00682 -5.08322,31.4422 -15.62544,61.94155 -30.47201,90.09742 -8.28757,15.48197 -18.09191,30.12356 -28.75711,44.05461 -17.44284,22.25277 -38.27449,41.75896 -61.22416,58.23844 -35.48692,24.98569 -76.43283,42.34654 -119.28496,49.54777 -5.93726,0.93603 -11.88135,2.16584 -17.91427,2.11118 -1.60558,0.75838 -3.42297,0.49876 -5.12421,0.77205 1.70807,0.4031 3.4913,0.31428 5.2267,0.12298 2.93788,-0.75838 5.98508,-0.34845 8.98446,-0.43727 15.23601,-0.0888 30.47885,0 45.71486,-0.0615 11.91551,-0.73788 23.86519,0.14348 35.77387,-0.58757 12.22297,-0.16398 24.45277,0.17764 36.67574,-0.2323 9.5652,0.0957 19.13041,0.0273 28.69562,0.0478 9.31924,-0.77205 18.69314,-0.25962 28.03972,-0.38944 10.00247,-0.31428 20.01178,-0.0478 30.02108,-0.1708 8.19192,-0.50559 16.41116,-0.0205 24.61675,-0.17764 7.22173,-0.92236 14.52545,-0.30746 21.795,-0.47826 -0.10248,-19.57452 0.007,-39.1422 0.0205,-58.71671 -0.86087,-32.57636 0.0342,-65.19372 -0.59441,-97.78374 -0.16397,-30.28071 0.10932,-60.56143 -0.1913,-90.84214 -0.0547,-3.09503 0.33478,-6.25154 -0.0888,-9.30558 -0.87454,0.4441 -0.0273,2.26832 -0.36212,3.18385 M 7.059905,453.65383 c 0.2732916,23.26395 -0.1298135,46.54156 0.3211177,69.79868 0.3347822,12.53042 0.068323,25.06084 0.1571426,37.59126 -0.075155,41.43785 0.1434781,82.87569 0.081987,124.31353 -0.047826,9.70185 0.6285708,19.39687 0.3826083,29.09873 4.6527904,0.56024 9.2577534,-0.52609 13.9105444,-0.30746 15.919237,-0.041 31.845306,-0.0888 47.771375,-0.0683 12.503091,-0.82671 25.060842,-0.082 37.58443,-0.47826 4.09938,-0.35528 8.21925,-0.17081 12.33229,-0.2118 20.25091,0.0752 40.50181,-0.19131 60.75272,-0.082 3.19068,0.10932 6.3472,-0.57391 9.54471,-0.4236 20.73601,0.0205 41.47201,-0.24596 62.20801,-0.17081 7.22856,-0.0888 14.51862,0.14348 21.71302,-0.37577 -3.12236,-0.4441 -6.30621,0.20496 -9.40806,-0.49876 C 208.92676,705.78585 155.40943,683.07532 112.42066,647.49275 94.157946,632.81015 78.177218,615.47663 64.007047,596.86547 57.249912,587.90151 51.01203,578.5481 45.430049,568.81209 37.374778,554.99036 30.248699,540.57423 24.885351,525.48853 16.133187,502.5662 10.517044,478.47554 7.7567986,454.11843 7.5859914,454.00228 7.2375446,453.76998 7.059905,453.65383 m 529.072085,83.74339 c -16.04222,33.73101 -40.05772,63.36266 -68.41172,87.54213 -15.7621,13.26831 -33.23227,24.37762 -51.46082,33.92233 3.38199,7.33788 7.05776,14.53228 10.63788,21.77451 0.18447,0.4236 0.49876,0.47826 0.92919,0.16397 38.81424,-19.4447 72.86638,-48.00367 99.48499,-82.24028 11.7857,-15.85775 22.73786,-32.47388 31.20307,-50.36765 -7.39254,-3.73726 -14.92173,-7.20123 -22.38259,-10.79501 m -497.910008,14.7919 c 11.157131,22.5534 25.5596,43.47387 42.291879,62.24217 7.112415,8.5472 15.072033,16.33601 23.373269,23.72171 20.25091,17.97576 42.81796,33.42357 67.25707,45.15461 3.29999,-7.58384 7.41303,-14.82607 10.61738,-22.43724 -6.14223,-3.42981 -12.49626,-6.52484 -18.54284,-10.15961 -24.99935,-14.58011 -47.31361,-33.58071 -66.382537,-55.3074 -14.361474,-16.6093 -26.365809,-35.1658 -36.422941,-54.65832 -7.331048,3.94223 -14.82607,7.56334 -22.19128,11.44408 M 312.6751,686.58711 c -15.85775,0.53975 -31.81115,0.59441 -47.55958,-1.5031 -28.29935,-3.31366 -56.01795,-11.3621 -81.72103,-23.64656 -3.62111,7.46769 -7.08508,15.01054 -10.90433,22.38259 5.19937,2.69875 10.61054,4.98757 16.06271,7.13974 75.49681,31.01177 164.28926,27.66394 237.16931,-9.14844 -3.90807,-7.29688 -7.22174,-14.87389 -10.91117,-22.27327 -31.74966,15.82359 -66.75148,24.93787 -102.13591,27.04904 z" />
  <path
     style="opacity:1;fill:#000000;stroke-width:0.68322909"
     inkscape:connector-curvature="0"
     id="path63"
     d="m 199.23857,191.04108 c 34.21612,-14.66893 71.71173,-21.67886 108.88622,-20.13476 31.80431,1.05217 63.31484,8.62235 92.41356,21.48755 22.26644,10.05713 43.07076,23.34594 61.56577,39.31983 -2.65093,3.75093 -5.86893,7.05093 -8.79315,10.58322 -0.79938,1.07267 -2.03603,0.12981 -2.73975,-0.50559 -8.47204,-7.25589 -17.50433,-13.84905 -26.93972,-19.79315 -4.22236,-2.63726 -8.38323,-5.418 -12.87204,-7.58384 -0.79938,0.53975 -1.09317,1.50994 -1.57143,2.29565 -3.11552,5.99192 -6.47701,11.84719 -9.59937,17.83911 29.5155,16.1857 55.12976,39.44965 74.11669,67.24341 3.18385,5.33602 6.72981,10.4534 9.6267,15.96023 6.72297,-3.75093 13.48694,-7.4472 20.23725,-11.1503 -7.80931,-14.15651 -17.18322,-27.44531 -27.7596,-39.66145 -0.38944,-0.62174 -1.53727,-1.34596 -0.83354,-2.1385 3.83975,-2.78075 7.12608,-6.23789 10.88384,-9.12795 17.66147,19.52669 31.74282,42.1894 42.25088,66.30739 7.41304,18.24221 13.26831,37.18132 16.49998,56.62602 -0.54658,0.36211 -1.08633,0.72422 -1.61925,1.08633 -2.07701,-14.22483 -5.91676,-28.15587 -10.58322,-41.73846 -9.98881,-29.50866 -26.37264,-56.64652 -46.61671,-80.24525 -2.95155,2.67142 -6.01242,5.21987 -8.9913,7.86396 10.82918,12.66024 20.57203,26.30432 28.54531,40.93909 0.56708,0.79938 -0.79254,1.21615 -1.23664,1.60559 -6.47018,3.58695 -13.00869,7.03726 -19.41737,10.73353 -0.78572,0.41677 -2.07019,1.13416 -2.54845,-0.0683 -4.46148,-7.72049 -9.01862,-15.40681 -14.32731,-22.58072 -9.53105,-12.79688 -20.38756,-24.6304 -32.54903,-34.96083 -9.37391,-7.93229 -19.19191,-15.39998 -29.84345,-21.53538 -2.59627,-1.60559 -5.36335,-2.90372 -7.91179,-4.56397 4.07204,-7.62483 8.0621,-15.31116 12.40061,-22.78569 2.05652,0.4236 3.71676,1.89255 5.58881,2.78758 12.87887,7.6385 25.34097,16.08321 36.62108,25.9422 2.68509,-2.77391 5.08322,-5.80744 7.618,-8.71117 l 0.041,-0.56024 C 439.7762,214.80378 417.16132,200.7361 392.8042,190.8566 c -24.06333,-9.818 -49.65026,-16.00805 -75.56513,-17.8801 -33.56705,-2.6236 -67.63968,1.81056 -99.51915,12.68073 -27.76643,9.44223 -53.71547,24.04966 -76.51482,42.46952 -1.82422,1.43478 -3.44348,3.09503 -5.2267,4.58447 2.60993,2.89006 4.92608,6.04657 7.62483,8.86148 12.89254,-10.79502 26.6596,-20.67451 41.56766,-28.49065 2.00186,2.3503 3.0677,5.28136 4.60496,7.91179 2.12484,3.63478 4.08571,7.36521 5.99192,11.11613 0.64907,1.3323 1.7559,2.54162 1.74224,4.10621 -1.05218,0.36894 -2.07702,0.82671 -3.01304,1.44845 -17.47017,10.09129 -33.73102,22.40308 -47.69623,36.99685 -5.79378,5.37018 -10.46706,11.75154 -15.46147,17.83228 -7.31055,9.29191 -13.72607,19.27389 -19.37638,29.65214 -1.97453,-0.33478 -3.61428,-1.5441 -5.37701,-2.4118 -5.91676,-3.22484 -11.874519,-6.39502 -17.791283,-9.63353 7.775147,-15.29066 17.989423,-29.22171 28.845933,-42.44902 -2.86273,-2.31615 -5.48633,-4.93975 -8.48571,-7.07825 -0.8267,-0.69006 -1.40745,0.69689 -1.96086,1.12049 -9.203099,11.07515 -17.777624,22.75836 -24.746561,35.3776 -16.534143,28.82544 -27.663944,60.86205 -31.722325,93.87568 -1.3118,9.04595 -1.578259,18.19439 -2.199997,27.30183 0.08199,4.57763 -0.245963,9.17577 0.382608,13.7329 0.225466,8.88198 1.059005,17.7298 2.288817,26.51612 -0.485092,0.40311 -0.970185,0.81305 -1.46211,1.21615 -5.985086,-41.36952 -1.831054,-84.22848 12.667067,-123.48682 4.89192,-13.48694 11.075143,-26.48196 18.126067,-38.96455 7.501855,-13.67142 16.780106,-26.30432 26.837234,-38.19251 0.47143,-0.81987 1.58509,-1.16149 2.24099,-0.32795 3.38882,3.01304 7.09192,5.69813 10.21428,8.9913 -11.1298,12.76955 -20.872649,26.77574 -28.962081,41.64964 6.729806,3.7031 13.493771,7.33105 20.257741,10.96583 7.30372,-13.39812 16.11737,-25.93538 26.08569,-37.48195 4.45465,-5.75279 9.80433,-10.69253 14.92172,-15.82358 13.07017,-12.12732 27.47264,-22.84035 43.04343,-31.53102 l 0.28012,-0.36895 c -3.01987,-6.88012 -7.14657,-13.20682 -10.53539,-19.90246 -1.30497,0.30745 -2.45962,0.99068 -3.58695,1.68074 -12.82421,7.33105 -24.95153,15.86458 -36.15648,25.47761 -0.69006,0.34845 -1.3323,1.61926 -2.18634,0.88137 -3.20434,-3.40248 -5.86893,-7.29005 -9.21676,-10.55589 8.56086,-8.22608 18.35837,-15.0857 28.2242,-21.66519 11.87452,-7.62484 24.32295,-14.36148 37.24964,-20.01861 z" />
  <path
     style="opacity:1;fill:#000000;stroke-width:0.68322909"
     inkscape:connector-curvature="0"
     id="path65"
     d="m 195.28951,207.65721 c 31.66767,-15.21551 66.80614,-23.48259 101.96511,-23.25712 35.13163,-0.62174 70.25644,7.4267 102.04709,22.32109 1.03851,0.72423 3.23167,0.79938 3.17701,2.4323 -5.52732,11.68322 -11.40309,23.20929 -16.88259,34.913 32.7745,16.17203 60.75956,41.75213 80.11544,72.7229 3.20435,5.13789 6.25155,10.39192 8.79999,15.89191 11.90185,-5.6708 23.50308,-11.98384 35.48692,-17.46333 10.46707,21.25525 18.16706,44.02728 21.53538,67.51669 4.03105,25.32047 4.03105,51.29684 -0.11615,76.60365 -1.3118,10.877 -4.11304,21.52854 -7.30372,32.00244 -3.48447,11.52608 -8.09626,22.68321 -13.14532,33.60804 -6.44969,-2.40496 -12.43477,-5.97825 -18.76831,-8.70434 -5.6503,-2.86956 -11.44408,-5.44533 -17.04656,-8.41738 -0.53975,2.14534 -1.74224,4.01739 -2.72609,5.97142 -17.86644,33.73102 -45.51672,62.17385 -78.75581,80.94215 -2.29565,1.30497 -4.85093,2.24099 -6.92794,3.88074 l -0.0273,0.58075 c 5.38384,10.95899 10.82235,21.90432 16.28818,32.82915 0.28012,0.66273 0.53292,1.33913 0.77205,2.03603 -28.35401,14.38197 -59.6664,23.03848 -91.40238,24.97885 -4.33851,0.68323 -8.75217,0.28696 -13.12484,0.39627 -32.64468,0.71056 -65.33036,-6.06024 -95.37194,-18.78196 -3.259,-1.63975 -6.81179,-2.70559 -9.84533,-4.76894 5.30186,-12.02483 11.34843,-23.71488 17.01924,-35.56891 -27.88258,-13.50744 -52.43783,-33.77884 -71.17881,-58.44341 -7.04409,-9.99564 -13.93104,-20.18259 -19.18507,-31.25773 -11.81303,5.84161 -23.557738,11.82669 -35.418595,17.57265 -1.325464,-2.12484 -2.329811,-4.42049 -3.25217,-6.73664 -13.773898,-30.37636 -21.385069,-63.68378 -21.289417,-97.05952 -0.580745,-34.51673 7.07142,-69.01297 21.227927,-100.45517 1.038508,-2.13167 1.55093,-4.88509 3.409313,-6.38819 11.90185,5.2677 23.407432,11.44409 35.281952,16.77327 5.29502,-11.03415 12.02483,-21.30308 19.09625,-31.26456 11.85402,-15.72793 26.03786,-29.67947 41.9571,-41.28753 9.02545,-6.54533 18.42668,-12.66023 28.52481,-17.42234 -5.43851,-11.58757 -11.50558,-22.88817 -16.79377,-34.55089 -0.8882,-1.27764 1.10683,-1.63975 1.85838,-2.14534 m 82.78003,-20.9888 c -28.77077,2.49379 -57.18627,10.18011 -83.10115,22.97016 4.1882,8.51987 8.3354,17.06023 12.62608,25.53227 1.48944,3.35466 3.63477,6.49068 4.40682,10.11862 -6.7503,3.08137 -13.22048,6.78447 -19.3832,10.91117 -30.52668,19.50619 -55.58752,47.50492 -71.1993,80.21793 -2.12485,-0.66957 -4.06522,-1.7969 -6.08074,-2.71242 -9.77018,-4.90559 -19.711162,-9.47639 -29.495002,-14.36148 -1.851551,2.99254 -2.910556,6.35403 -4.297511,9.56521 -21.740349,50.04653 -25.388792,107.6564 -9.920486,159.99175 3.593785,12.83104 8.79999,25.1155 14.129177,37.3043 11.75154,-5.95775 23.755872,-11.40992 35.343442,-17.6683 1.42795,2.01553 2.30248,4.34534 3.58695,6.44285 9.51738,17.59998 21.41923,34.01797 35.87636,47.87386 15.17452,14.89439 32.87698,27.11736 51.91174,36.54592 l 0.25963,0.69006 c -0.89503,2.86273 -2.49379,5.43851 -3.79192,8.13043 -3.26584,6.86645 -6.68198,13.65775 -9.87266,20.56519 -1.02485,2.2 -2.4323,4.25652 -2.97888,6.66149 24.91053,11.65589 51.80243,19.17141 79.22041,21.59687 11.14346,0.81987 22.36209,1.55093 33.53288,0.60124 32.21425,-1.51677 64.15521,-9.86583 92.96015,-24.41177 -5.39751,-10.59005 -10.43291,-21.35774 -15.89874,-31.91363 -0.60125,-1.10683 -1.1205,-2.26149 -1.40746,-3.48447 38.8894,-19.55402 71.16514,-52.2192 89.85146,-91.57319 2.63043,0.22546 4.77577,1.97453 7.13974,2.99254 9.54471,4.53664 18.97327,9.33291 28.6273,13.63725 11.26645,-24.12482 19.02793,-50.04653 21.43973,-76.6173 1.66024,-14.51179 1.81055,-29.20805 0.68323,-43.76766 -2.02919,-29.57015 -9.93415,-58.77819 -23.14097,-85.32848 -10.13912,5.39751 -20.57203,10.21428 -30.77264,15.48198 -1.42795,0.78571 -2.91055,1.4826 -4.46148,1.99502 -18.93911,-38.43163 -50.77759,-70.40675 -89.25022,-89.2912 -1.16832,-0.36895 -0.88136,-1.67391 -0.30745,-2.44596 4.50248,-9.13477 8.9298,-18.30371 13.35713,-27.47947 0.98385,-2.15901 2.44596,-4.18137 2.77391,-6.58633 -2.73975,-0.8882 -5.20621,-2.41863 -7.90496,-3.41615 -21.38507,-9.36024 -44.16393,-15.58445 -67.37322,-18.11923 -6.77763,-0.64907 -13.56893,-1.48944 -20.38755,-1.36646 -8.90931,0.007 -17.83228,-0.23913 -26.7006,0.71739 z" />
  <path
     style="opacity:1;fill:#000000;stroke-width:0.68322909"
     inkscape:connector-curvature="0"
     id="path67"
     d="m 224.90066,225.71495 c 45.6192,-17.34719 97.46262,-17.78445 143.37562,-1.22981 0.60124,0.38944 2.32981,0.37577 1.89254,1.48261 -3.06086,8.00061 -5.94409,16.06954 -8.62235,24.19997 -0.62857,1.68757 -1.37329,3.36149 -1.5441,5.17887 23.14097,8.90248 44.85399,22.12979 62.22851,39.92108 18.19439,17.81178 32.49437,39.66828 41.2807,63.57446 8.19191,-2.71242 16.1447,-6.0739 24.29562,-8.90247 1.9677,-0.60808 3.94223,-2.09752 6.08074,-1.53043 0.26646,2.26148 1.27764,4.32484 1.96087,6.47701 14.06768,42.00492 14.18383,88.45766 0.57391,130.5924 -0.48509,1.59876 -1.03851,3.19068 -1.72174,4.72111 -10.08446,-2.91739 -19.87513,-6.78446 -29.8981,-9.90682 -8.09627,22.73786 -20.78383,43.82914 -37.154,61.56577 -6.08074,6.25155 -12.05899,12.64657 -18.97327,17.98942 -14.6211,11.86769 -31.13475,21.33725 -48.69373,28.10805 3.22484,10.0298 7.21489,19.79314 10.74719,29.71363 -8.45838,3.65527 -17.40185,6.08074 -26.33848,8.24657 -17.91427,4.19503 -36.34095,5.8826 -54.70615,5.52049 -8.64968,-0.72422 -17.34036,-1.23664 -25.92171,-2.67142 -12.13415,-1.89255 -24.04967,-5.06956 -35.66456,-9.03229 0.0888,-0.87453 0.15031,-1.74223 0.43727,-2.57577 3.17018,-9.25776 6.29254,-18.54284 9.31241,-27.85525 -38.45896,-13.45962 -71.58874,-41.05524 -92.45456,-75.97507 -5.57515,-9.10062 -9.86582,-18.91178 -13.71924,-28.8391 -8.82732,3.2385 -17.70929,6.33353 -26.51612,9.63353 -1.19565,0.53292 -2.48012,0.74472 -3.78509,0.69006 -7.283217,-20.19625 -11.608057,-41.46517 -12.578243,-62.9049 0.04099,-8.91614 -0.403105,-17.85961 0.567081,-26.73475 1.304967,-17.18322 4.95341,-34.16146 10.460236,-50.4838 0.225466,-0.80621 0.922356,-1.86522 1.913046,-1.30497 9.61303,3.12236 19.2124,6.30621 28.83226,9.40123 0.64224,-0.50558 0.66957,-1.46894 1.02485,-2.16583 8.2534,-22.89501 21.42606,-43.98629 38.32231,-61.49062 18.26955,-19.02793 40.6248,-34.29126 65.46018,-43.34405 -3.3,-10.08446 -7.18757,-19.97762 -10.4739,-30.06891 m 49.09001,-10.33726 c -16.11054,1.73541 -31.85897,5.88261 -47.15647,11.13664 3.26583,9.49688 6.74347,18.91178 10.01613,28.40866 0.24597,0.74472 0.6764,1.92671 -0.50558,2.09752 -12.78322,4.85775 -25.09501,11.03415 -36.42978,18.70681 -25.92171,17.83911 -47.47759,42.27821 -60.82788,70.85085 -2.71242,5.97142 -5.0149,12.11365 -7.50869,18.16706 -10.08446,-3.13602 -20.06644,-6.559 -30.12357,-9.77701 -15.379484,44.49871 -15.003708,94.21046 1.18882,138.42904 9.76334,-3.77142 19.69749,-7.08508 29.48133,-10.79502 1.95404,2.30249 2.38447,5.43168 3.7236,8.0826 9.57204,23.74221 25.09501,44.88132 43.95213,62.09186 16.57514,15.03104 36.0335,26.89873 57.10428,34.46891 1.03851,0.36211 1.99503,0.8882 2.94472,1.44844 -3.39565,9.92732 -6.7708,19.8683 -9.98881,29.85711 17.0534,6.08074 34.99499,9.51738 53.03224,10.79502 3.44348,-0.2323 6.82546,0.56708 10.2621,0.47826 25.68258,0.23913 51.57696,-3.78509 75.64712,-12.96768 -3.73043,-9.87266 -7.43353,-19.75216 -10.89067,-29.72047 22.50557,-8.73167 43.69933,-21.4124 60.87571,-38.4658 13.69874,-13.28197 25.47078,-28.62046 34.25027,-45.58504 4.3795,-7.93229 7.57701,-16.43849 10.95217,-24.82854 9.87266,3.30683 19.67016,6.87328 29.59065,10.03663 1.77639,-3.83974 2.64409,-8.02794 3.88074,-12.05899 11.47141,-41.29436 9.66086,-86.0732 -5.0354,-126.33589 -9.93415,3.63478 -19.85464,7.31056 -29.7273,11.10248 -9.70185,-26.89873 -26.31798,-51.18069 -47.45026,-70.37943 -16.67078,-15.02421 -36.34778,-26.59811 -57.37074,-34.38009 0.92919,-3.8739 2.65093,-7.48819 3.81242,-11.29377 1.9677,-6.3267 4.44099,-12.4826 6.60682,-18.74097 -29.98692,-11.02732 -62.61794,-14.53912 -94.3061,-10.82919 z" />
  <path
     style="opacity:1;fill:#000000;stroke-width:0.68322909"
     inkscape:connector-curvature="0"
     id="path69"
     d="m 236.78201,233.69507 c 19.87514,-6.60683 40.8776,-10.02297 61.83223,-9.69502 19.4242,-0.32795 38.79375,2.91738 57.39808,8.41055 0.88136,0.30062 2.63043,0.54658 1.91304,1.91987 -1.85155,6.19689 -3.59379,12.42794 -5.51366,18.60433 -0.19131,1.40745 -1.69441,0.86086 -2.59627,0.60807 -10.20744,-3.24534 -20.74967,-5.2472 -31.34655,-6.68881 -0.56708,3.57329 -1.28447,7.12608 -1.80373,10.7062 28.72295,3.29999 56.50988,14.23166 79.63718,31.59934 8.35589,6.27888 16.43849,13.09067 23.20929,21.07762 22.9565,25.02668 37.92605,57.37074 41.7658,91.13592 3.53912,-0.43043 7.00309,-1.44161 10.57638,-1.66708 -0.98385,-10.41241 -3.38881,-20.65401 -6.41552,-30.64965 -0.17764,-0.64224 -0.43727,-1.72174 0.51242,-1.85155 6.5795,-2.19317 13.15216,-4.4205 19.78632,-6.46335 5.13788,16.40433 8.37639,33.47139 8.99812,50.66143 -0.36894,4.81677 1.07951,9.58571 0.0615,14.36831 0.11615,17.59998 -3.2795,35.01549 -7.84347,51.95274 -6.97576,-2.18633 -14.177,-3.68944 -21.03662,-6.21055 2.97888,-9.96148 5.11739,-20.20992 6.18322,-30.54717 -3.64844,-0.10932 -7.16024,-1.23665 -10.77452,-1.59193 -2.11801,23.25712 -10.15278,45.79001 -21.78817,65.9726 -4.91925,8.25341 -10.52173,16.09688 -16.75278,23.41426 -26.22916,31.22357 -64.55148,52.24653 -105.10796,56.97447 0.59441,3.55279 1.33913,7.09875 1.71491,10.69254 10.60371,-1.17516 21.02979,-3.7236 31.22357,-6.84596 0.26645,0.40311 0.78571,1.22298 1.05217,1.63292 2.03602,5.84161 3.85341,11.75837 5.83477,17.61364 0.0547,0.58075 0.82671,1.68075 -0.0957,1.95404 -2.8354,0.34161 -5.49999,1.39379 -8.2534,2.07018 -35.40493,9.70186 -73.57694,9.40123 -108.72224,-1.2913 1.66707,-6.14223 3.57328,-12.21614 5.28136,-18.3447 0.20496,-0.97702 0.69006,-1.85155 1.22298,-2.67143 9.83166,3.1087 20.04594,5.23354 30.31487,6.14223 0.92236,-3.4503 1.36646,-7.04409 1.72174,-10.59005 -26.2565,-2.69875 -51.67262,-12.2298 -73.58377,-26.87823 -26.8714,-18.31737 -48.42728,-44.52604 -60.59559,-74.73843 -5.80745,-13.82855 -8.92297,-28.61363 -10.9385,-43.42603 -3.47763,0.77888 -7.03042,1.16832 -10.51489,1.89937 1.09317,11.3621 3.94906,22.46457 7.05092,33.41674 -5.15154,1.76273 -10.37825,3.32049 -15.57762,4.93974 -1.7764,0.54659 -3.52546,1.31863 -5.41801,1.3118 -4.35217,-13.82855 -7.22173,-28.12171 -8.5062,-42.5515 -0.53292,-2.91056 -0.45093,-5.86894 -0.4441,-8.81366 -0.512419,-5.21304 -0.649065,-10.48757 -0.10248,-15.7006 0.26646,-16.88259 3.38198,-33.62854 7.94595,-49.86206 0.2323,-0.1913 0.71056,-0.58074 0.94969,-0.77205 6.51117,2.04286 13.14533,3.71677 19.62917,5.85527 0.12298,0.20497 0.37578,0.60808 0.50559,0.81305 -2.34347,9.57887 -5.07639,19.16457 -5.80061,29.04406 3.55279,0.49193 7.05775,1.39379 10.63787,1.57826 3.46397,-32.82232 17.81178,-64.12104 39.45648,-88.92909 6.51117,-7.20807 13.50061,-13.99936 20.92731,-20.27141 23.50308,-18.87762 52.23969,-31.23723 82.16512,-35.03598 0.47826,-0.15031 1.44162,-0.45093 1.91988,-0.60808 -0.92919,-3.34782 -1.16149,-6.83229 -1.89938,-10.2211 -7.63167,0.75838 -15.16085,2.32981 -22.60122,4.18136 -3.43664,0.88136 -6.76396,2.159 -10.2416,2.86956 l -0.45093,-0.59441 c -2.28199,-6.62049 -4.44099,-13.28197 -6.70248,-19.90929 m 1.9882,1.04534 c 2.08385,5.77328 3.94906,11.62172 5.84844,17.4565 1.62608,-0.11615 3.14285,-0.71739 4.69378,-1.17516 7.97329,-2.30931 16.13787,-3.9149 24.33662,-5.17887 1.42795,-0.15031 2.92422,-0.79255 4.33851,-0.27329 0.75155,1.5236 0.73788,3.27266 1.04534,4.91925 0.36894,2.93105 1.20931,5.80744 1.17515,8.77949 -30.554,3.07453 -60.04217,15.40681 -84.03034,34.52356 -5.75279,5.02857 -11.69688,9.89316 -16.81427,15.56396 -14.67576,15.56396 -26.4273,33.94282 -34.07946,53.9341 -5.24037,13.00185 -8.04161,26.81674 -9.82484,40.67263 -4.63229,-0.16397 -9.15527,-1.35279 -13.72607,-2.00186 0.8882,-10.19378 3.33416,-20.16209 5.87577,-30.03475 -6.07391,-1.45528 -11.92235,-3.83975 -18.05091,-4.99441 -4.85776,17.81179 -8.05527,36.21115 -7.74099,54.72665 -0.45776,20.1211 3.00621,40.16704 8.73167,59.42727 5.95776,-2.0087 11.96334,-3.88074 17.99625,-5.65031 -3.2795,-11.02732 -5.96459,-22.34159 -6.9416,-33.81984 3.43664,-0.6354 6.88011,-1.22981 10.33725,-1.76956 1.08634,-0.0547 2.32298,-0.83354 3.34099,-0.11615 1.40062,9.76334 2.94472,19.54718 5.7118,29.0304 7.5975,26.16084 22.15028,50.12169 41.33536,69.40241 0.53975,-4.42732 0.46459,-8.88881 0.77888,-13.32296 -0.17764,-9.37391 0.74472,-18.69998 0.68323,-28.06705 0.0956,-6.84596 0.92919,-13.66459 0.67639,-20.51737 2.76025,0.28012 5.83478,0.48509 8.15776,-1.32547 4.28384,-3.19751 4.3385,-10.40558 0.082,-13.67141 -2.07702,-1.72174 -4.99441,-1.7354 -7.50186,-1.20932 -2.14534,0.58758 -3.57329,2.32981 -5.00124,3.90807 -0.75838,1.141 -1.68074,-0.37577 -2.30248,-0.8267 -14.35464,-13.63042 -29.19438,-26.74159 -43.35088,-40.57698 1.72857,-1.79006 3.4913,-3.55279 5.24036,-5.31552 12.91303,-12.16148 25.81923,-24.33662 38.70493,-36.52542 0.95652,-0.59441 1.68074,0.38944 2.28199,0.97701 3.17018,3.45714 9.33974,3.19068 12.25029,-0.49192 2.21366,-2.32981 2.0087,-5.84844 1.38696,-8.759 -1.08634,-3.08136 -4.22919,-4.8031 -7.31739,-5.2062 -0.96335,-0.30746 -2.51428,0.96335 -2.95154,-0.34162 -0.32112,-7.93229 -0.34845,-15.88507 -0.89504,-23.8037 -0.082,-6.82546 -0.14347,-13.66458 -0.75155,-20.46271 -0.28012,-5.13788 -0.48055,-10.69665 -1.13645,-15.8072 0.50559,-0.38261 1.01118,-0.76522 1.51677,-1.15466 9.1211,0.17764 18.87308,0.83082 27.98735,1.17244 10.84968,-0.0137 21.65153,0.97701 32.50804,0.71739 -1.16149,3.47763 -0.19813,7.66583 2.89006,9.83166 1.91304,1.17516 4.28385,2.22733 6.55217,1.50311 4.84409,-0.8677 8.26707,-6.64782 6.23788,-11.24595 -0.48509,-2.21367 -2.93105,-3.0882 -3.81242,-4.98074 1.35963,-1.36646 2.97888,-2.46646 4.17453,-4.00373 12.66707,-13.72607 25.47761,-27.32916 38.05586,-41.13722 3.08136,1.81056 4.94658,5.04223 7.57701,7.39254 12.00433,13.1385 24.45277,25.87389 36.4981,38.97822 -4.29068,1.69441 -5.9031,7.10558 -4.06522,11.12297 1.26398,2.95155 4.47515,4.61863 7.54968,4.85092 2.68509,-0.20496 5.54099,-1.44844 7.03043,-3.79192 1.80373,-2.44596 1.41429,-5.82794 0.47143,-8.53353 0.18447,-0.12298 0.56025,-0.36211 0.75155,-0.48509 19.64284,-0.73789 39.27201,-1.36646 58.88751,-2.41863 -15.94656,-15.39315 -34.90617,-27.67761 -55.58068,-35.67139 -13.39812,-5.21304 -27.5273,-8.35589 -41.79312,-9.98198 0.70372,-4.5503 1.44161,-9.10061 2.3913,-13.60309 2.00186,-0.10248 3.97639,0.24597 5.94409,0.56025 9.44223,1.35279 18.77514,3.45031 27.88258,6.28571 1.70124,-5.99192 3.49813,-11.96334 5.25403,-17.94843 -11.81303,-3.84658 -24.08382,-6.25155 -36.41611,-7.61117 -10.65154,-1.44161 -21.43289,-1.10683 -32.15276,-1.01118 -16.5888,1.05217 -33.14344,3.81242 -48.93286,9.08695 m 50.15584,34.46207 c -7.74098,8.18508 -15.29066,16.53414 -23.01798,24.72606 -2.54845,3.23167 -5.79379,5.84844 -8.30124,9.10744 5.43851,4.07888 4.34534,13.43229 -1.67391,16.40433 -3.32049,1.85155 -7.57018,1.40745 -10.63787,-0.75155 -2.8969,-2.21366 -4.4,-5.95092 -3.90807,-9.57204 -7.99378,-0.12298 -15.98756,-0.2118 -23.97451,-0.58758 -6.86645,-0.5944 -13.81489,0.21181 -20.66085,-0.73105 -4.31801,0.10248 -8.62235,-0.28012 -12.94036,-0.2323 0.082,5.0149 -0.14348,10.0503 0.49876,15.03104 0.25279,6.14906 0.17764,12.30496 0.4646,18.45402 0.80621,4.92608 0.15031,9.93415 0.58757,14.88756 0.47826,3.18385 -0.041,6.42235 0.53975,9.59254 2.84907,0.17763 5.85528,0.97018 7.83664,3.17701 3.7441,3.80559 3.65528,10.45341 -0.10932,14.21116 -3.98322,3.89441 -10.98632,3.44348 -14.68942,-0.62173 -1.35963,1.70124 -3.06087,3.05403 -4.68012,4.49564 -12.4211,12.07949 -25.35463,23.61923 -37.63909,35.83537 14.11551,13.17949 28.31301,26.26332 42.46952,39.38815 0.92919,0.18448 1.38012,-0.94969 2.07018,-1.36645 4.04472,-3.92857 11.5944,-3.28634 14.55278,1.66024 2.36398,3.17702 2.3913,7.72049 0.27329,11.02732 -1.91987,3.47763 -6.10123,5.2472 -9.96831,4.75527 -0.22546,6.20372 -0.18447,12.40744 -0.57391,18.60433 -0.66273,6.16273 0.28696,12.41427 -0.73105,18.54967 -0.10932,7.26956 -0.34845,14.53911 -0.33479,21.80867 7.29006,-0.8472 14.66893,-0.45093 21.97948,-1.12733 5.25403,-0.18447 10.50806,-0.22546 15.75526,-0.43726 4.99441,-0.80621 10.0708,-0.19814 15.09937,-0.64907 1.89937,-0.21863 3.81241,-0.2323 5.72546,-0.15714 0.007,-2.72609 0.56024,-5.61615 2.6236,-7.56335 3.35465,-3.99006 9.9888,-4.35217 13.80122,-0.83354 4.74161,3.76459 4.40683,11.75154 -0.34161,15.38632 13.08383,14.10868 26.39314,27.99873 39.55896,42.03225 4.46832,-4.44782 8.51303,-9.29191 12.76955,-13.93787 8.64968,-9.12794 17.08756,-18.45402 25.70991,-27.60929 0.56025,-0.55341 0.97019,-1.23664 1.34596,-1.91304 -3.17701,-2.72608 -4.66645,-7.38571 -2.89006,-11.30744 2.06336,-6.21055 10.85651,-8.55403 15.68011,-4.09937 2.8149,2.08384 3.77826,5.63664 3.70993,8.99129 1.94721,-0.041 3.86025,0.38944 5.80062,0.47143 13.24781,-0.22547 26.45463,0.8882 39.70244,0.76521 4.10621,-0.22546 8.15775,0.87454 12.27763,0.42361 0.12298,-10.39192 -0.86771,-20.74967 -0.86771,-31.14158 0.0957,-2.53478 -0.67639,-5.01491 -0.52608,-7.55652 0.1913,-6.96893 -0.39627,-13.91737 -0.6559,-20.86581 -4.81677,0.73788 -9.82484,-2.27516 -11.19129,-6.9826 -2.04969,-5.68447 2.48012,-12.31179 8.40371,-12.83788 3.90124,-0.64907 7.48819,1.59876 9.87266,4.51615 1.26398,-1.60559 2.84224,-2.91739 4.27019,-4.36584 12.72172,-11.83353 25.20432,-23.89935 37.92604,-35.71921 -3.89441,-3.52546 -7.72049,-7.11925 -11.62173,-10.63788 -10.49439,-10.04347 -21.43972,-19.60867 -31.83164,-29.74779 -2.84906,3.88074 -8.41738,5.95775 -12.83104,3.45714 -5.90993,-2.51429 -7.53602,-11.10931 -2.95838,-15.61862 2.3708,-2.99254 6.33353,-3.73726 9.92732,-3.10869 -0.22547,-6.59316 0.39627,-13.1385 0.47143,-19.71799 0.6354,-6.37453 -0.30746,-12.82421 0.73788,-19.15775 0.007,-6.61365 0.32795,-13.21365 0.38944,-19.82047 -6.44968,0.28696 -12.87886,0.87453 -19.34221,0.8472 -8.39005,0.79255 -16.86209,0.29379 -25.23848,1.21615 -4.31118,0.0888 -8.64285,-0.082 -12.93353,0.38944 1.99503,5.97142 -3.2795,13.01552 -9.61303,12.63974 -6.49068,0.4031 -11.98384,-7.03726 -9.49005,-13.08384 0.55341,-2.00869 2.17266,-3.40248 3.41614,-4.98757 -13.89688,-14.32048 -27.42481,-29.0304 -41.11672,-43.53536 -3.23168,2.93789 -5.86894,6.45652 -8.95714,9.53105 m 124.88744,37.24282 c -0.23913,3.08819 0.0957,6.19688 -0.34161,9.27825 -0.31429,5.4385 0.22546,10.91116 -0.45093,16.336 -0.34845,7.52236 -0.31429,15.05154 -0.58758,22.57389 -0.60807,4.13354 -0.39627,8.32856 -0.32112,12.48943 -3.34782,-1.38012 -7.44719,-1.06584 -10.07763,1.59192 -3.13602,3.0472 -3.26583,8.65651 -0.082,11.71055 2.71925,2.95838 7.71365,3.39565 10.95216,1.04534 1.55776,-0.83354 1.99503,-2.65776 2.94472,-4.02422 15.18135,14.49812 30.81363,28.50432 46.0633,42.92728 -3.42298,4.27702 -7.92546,7.53602 -11.72421,11.47142 -9.73602,9.14844 -19.41737,18.35153 -29.14655,27.51363 -1.43478,1.00435 -2.50062,2.39814 -3.41615,3.86708 -1.47577,-0.40311 -1.42111,-2.2 -2.49378,-3.0472 -3.80559,-4.29068 -12.0385,-2.93106 -13.89005,2.65093 -1.89255,3.86707 0.23913,8.77266 3.94223,10.69936 2.03602,1.26398 4.55031,0.56025 6.80496,0.66957 1.16832,8.84781 0.30062,17.83911 1.38012,26.68692 -0.12981,6.21056 0.16398,12.40061 0.53976,18.5975 0.41677,5.34285 -0.0752,10.75402 0.6559,16.07638 25.29314,-26.30432 41.95709,-61.09434 45.34591,-97.52412 0.6764,-0.15031 1.38012,-0.36211 2.09068,-0.2118 3.56645,0.60808 7.13291,1.26398 10.7267,1.68758 0.27329,0.22546 0.8267,0.68323 1.09999,0.90869 -1.06583,10.23477 -3.19068,20.3329 -5.88943,30.26022 5.9031,1.68757 11.8062,3.36148 17.72979,4.98757 3.56646,-11.7857 5.66397,-23.96768 6.92111,-36.19748 0,-2.30931 0.19814,-4.60496 0.62857,-6.86645 0.15715,-7.28322 0.0683,-14.56644 0.0683,-21.84966 -0.70373,-6.14906 -0.87454,-12.35962 -1.9882,-18.46085 -1.25714,-10.00248 -3.92173,-19.74532 -6.44968,-29.46767 -6.10124,1.57143 -11.9975,3.83291 -17.98942,5.78012 3.4503,10.39191 5.64347,21.23476 6.82546,32.11859 -4.55031,0.99752 -9.15527,1.70808 -13.73291,2.54845 -3.88074,-36.27263 -20.5037,-70.92601 -46.13846,-96.82722 M 338.7402,526.72518 c -3.92856,3.83974 -2.57577,11.12297 2.39131,13.43228 -13.86955,14.79874 -27.71177,29.63165 -41.31487,44.68318 -0.44409,0.64224 -1.57142,1.30497 -2.09751,0.34845 -7.25589,-7.79565 -14.55961,-15.55713 -21.92482,-23.25712 -6.21055,-6.97577 -12.96769,-13.45278 -19.05526,-20.5447 1.32547,-1.05217 2.67826,-2.17267 3.47764,-3.7031 1.16832,-1.80372 0.79254,-4.06521 0.71056,-6.08757 -1.13416,-5.25403 -8.04844,-7.96645 -12.44844,-4.89192 -3.259,1.79689 -4.40682,5.76645 -3.84658,9.27142 -12.27762,0.79254 -24.58258,0.99068 -36.86704,1.50994 -5.03539,0.66273 -10.13228,0.0956 -15.18135,0.64906 -3.27266,0.082 -6.53167,0.36211 -9.80433,0.43727 4.20186,4.11304 8.70434,7.8913 13.15216,11.73787 18.44035,14.69626 40.1602,25.19066 63.04837,30.78631 7.20807,1.7149 14.53912,2.76707 21.88383,3.69627 -0.28696,4.60496 -1.53043,9.10061 -2.12484,13.67824 -10.54223,-0.94286 -21.00246,-2.92422 -31.14158,-5.97825 -1.53044,6.10806 -3.75093,12.03849 -5.11739,18.18755 8.82049,2.30932 17.69563,4.48882 26.76208,5.63664 11.29378,1.46211 22.71054,2.47329 34.1068,1.88572 17.83911,-0.58758 35.54841,-3.7646 52.64963,-8.86832 -1.9882,-5.99192 -3.94223,-11.98383 -5.98509,-17.95526 -10.31675,3.34099 -21.00246,5.40435 -31.72232,6.92111 -0.62174,-1.91987 -0.69006,-3.94906 -1.05901,-5.91676 -0.39627,-2.65093 -1.27763,-5.27453 -0.92919,-7.97328 36.2453,-4.20869 70.84402,-21.07762 96.48561,-47.04032 -3.10186,-0.92236 -6.40186,0 -9.57204,-0.55342 -10.48757,-0.47826 -21.02296,-0.16397 -31.49003,-1.02484 -6.25154,-0.10932 -12.52359,0.2118 -18.75463,-0.25963 0.28012,-2.35714 0.62857,-4.91242 -0.75156,-7.00993 -2.30248,-5.02857 -9.89999,-5.93043 -13.48011,-1.79689 z"
     sodipodi:nodetypes="ccccccccccccccccccccccccccccccccccccccccccccccccccccccccccccccccccccccccccccccccccccccccccccccccccccccccccccccccccccccccccccccccccccccccccccccccccccccccccccccccccccccccccccccccccccccccccccccccccccccccccccccccccccccccccccccccccccccccccccccccccccccccccccccccccccc" />
  <path
     style="opacity:1;fill:#000000;stroke-width:0.68322909"
     inkscape:connector-curvature="0"
     id="path71"
     d="m 286.60991,307.21735 c 10.79502,-2.58261 22.79252,-1.50311 32.2894,4.5298 6.55217,4.16087 11.49192,11.22546 12.04533,19.08942 0.89503,3.45031 -0.19814,6.90062 -0.26646,10.37825 4.48198,-6.59999 11.25962,-12.16831 19.39004,-13.16582 3.73043,0.082 7.56335,-0.45776 11.19129,0.66956 10.10496,2.93106 18.81613,9.97515 24.37762,18.84346 4.50248,7.32422 6.79813,16.52048 4.15403,24.91053 -2.08385,6.49751 -6.71614,12.06583 -12.53725,15.57763 -0.36895,0.15714 -0.47826,0.51242 -0.51243,0.87453 0.74472,-1.16149 2.25466,-1.01118 3.44348,-1.2913 6.68198,-0.6969 13.87638,-0.0205 19.48569,4.02421 9.30558,6.27888 13.24781,17.87328 13.73291,28.65463 -0.0205,7.07142 -1.51677,14.25216 -4.91925,20.49004 -3.51863,6.48384 -11.36796,12.20757 -18.63751,13.94297 -0.45777,-0.43726 -0.90186,-0.8677 -1.33913,-1.29813 6.38819,-1.32547 13.90273,-5.85354 17.37353,-11.35354 2.78758,-4.27018 4.47515,-9.19626 5.25404,-14.21799 0.23229,-3.17702 1.18198,-6.35403 0.43726,-9.53788 -0.60124,-8.34906 -3.42298,-16.99191 -9.68135,-22.83352 -6.01242,-5.97142 -15.27017,-7.87079 -23.3801,-5.93042 -3.58695,0.55341 -6.88012,2.20683 -10.40558,2.92422 l -0.1913,-0.79938 c 0.26645,-0.2323 0.79937,-0.6969 1.06583,-0.92919 6.40186,-2.90373 12.70806,-6.81863 16.54098,-12.89254 3.64161,-5.58198 4.67328,-12.68073 3.08819,-19.12358 -2.96521,-11.86085 -11.88135,-21.88382 -23.03165,-26.74158 -6.81862,-3.17019 -15.10619,-3.77826 -21.93848,-0.33478 -7.659,3.40931 -12.50993,10.76085 -15.7211,18.20805 -0.19814,0.96335 -1.19565,1.34596 -1.97454,0.75838 2.95839,-7.31738 4.68696,-15.46147 2.81491,-23.27078 -1.69441,-6.49751 -6.31987,-11.95651 -12.15465,-15.15402 -9.97514,-5.59564 -22.38941,-6.1149 -33.08878,-2.36397 -6.94161,2.42546 -13.34346,7.28322 -16.28135,14.18383 -3.58695,7.90496 -2.23416,17.0534 0.87453,24.86954 0.41677,0.92236 0.92236,2.81491 -0.75838,2.37081 -3.11552,-7.45403 -7.82297,-14.77825 -15.20868,-18.58383 -4.6118,-2.71242 -10.19378,-3.13602 -15.38632,-2.30249 -11.7447,2.19317 -21.80867,10.54906 -27.38382,20.94098 -4.19502,7.58384 -5.30869,17.25836 -1.37329,25.17015 3.42298,6.85962 9.94782,11.52608 16.82793,14.52545 0.79938,0.52609 2.68509,0.64907 2.13851,2.09068 -1.06584,0.53292 -2.11118,-0.34161 -3.12236,-0.60124 -2.69192,-1.15465 -7.06831,-1.93655 -9.95154,-2.36015 0.77205,-1.16149 3.30372,-1.52742 4.65652,-0.81686 -6.68198,-3.45714 -11.79937,-9.80434 -13.86272,-17.02607 -2.18633,-9.5857 0.92919,-19.77265 6.92111,-27.37699 4.15403,-5.71863 9.8385,-10.30309 16.24719,-13.27514 5.87577,-2.97205 12.76272,-4.04472 19.22606,-2.6441 7.26273,1.81739 13.5416,6.91428 17.25154,13.35713 -1.25031,-6.47701 -1.34596,-13.52793 1.69441,-19.53352 3.84658,-8.15092 12.03849,-13.48694 20.58569,-15.62544 z"
     sodipodi:nodetypes="cccccccccccccccccccccccccccccccccccccccccccccccccccc" />
  <path
     style="opacity:1;fill:#000000;stroke-width:0.68322909"
     inkscape:connector-curvature="0"
     id="path73"
     d="m 291.65897,366.9384 c 3.41615,-0.34845 6.87328,-0.94969 10.28943,-0.19814 10.44657,0.68323 20.60619,4.65279 28.94841,10.95899 10.67204,8.00062 18.26955,20.03911 20.74967,33.16394 2.1795,11.11614 0.98385,22.92917 -3.74409,33.25959 -6.88012,15.76893 -23.02362,27.94614 -39.76273,31.73123 -6.23059,1.39722 -3.40248,0.40994 -4.8031,-0.59441 13.19315,-2.11117 27.10249,-9.14367 35.55403,-19.55608 11.23912,-13.50061 15.25651,-32.74034 9.92732,-49.53411 -3.38198,-11.62856 -10.95899,-21.95215 -20.98196,-28.73661 -7.24223,-4.94658 -15.71427,-8.04844 -24.41861,-9.03912 -3.66211,-0.0547 -7.32421,-0.0342 -10.97949,-0.007 -11.04098,1.17516 -21.78134,5.6913 -30.09624,13.10434 -17.30619,14.79191 -23.13413,41.17821 -13.71924,61.90738 6.97577,16.97141 23.70805,29.27637 41.83412,31.51736 4.62546,0.49192 9.9882,0.68811 14.61366,0.039 0.16398,0.57391 0.43043,1.44844 -0.43043,1.59192 -21.79501,3.04037 -45.59811,-8.92786 -55.54592,-28.59802 -8.0621,-14.58011 -8.64285,-32.82916 -1.98136,-48.04467 7.46769,-17.9416 25.21115,-31.04593 44.54653,-32.9658 z"
     sodipodi:nodetypes="ccccccccccccccccccccc" />
  <path
     style="opacity:1;fill:#000000;stroke-width:0.68322909"
     inkscape:connector-curvature="0"
     id="path75"
     d="m 542.97598,379.55934 c 0.49876,-0.4236 1.05522,-0.8472 1.57448,-1.25714 1.22298,8.32857 2.75233,17.8579 2.90947,26.28895 1.01118,7.69999 0.30745,15.49564 0.52609,23.24345 0.25279,4.55714 -0.81305,9.03912 -0.6764,13.59626 -1.89254,22.58072 -6.81863,44.90182 -14.63477,66.17074 -6.75713,19.55401 -16.62979,37.93971 -28.13537,55.09559 -5.4795,7.95278 -11.3621,15.62545 -17.70246,22.90184 -3.99689,-2.91056 -7.64534,-6.29938 -11.34844,-9.57204 10.76086,-13.04285 20.66768,-26.83041 28.73662,-41.71114 -6.70931,-3.75776 -13.53477,-7.30372 -20.31924,-10.93166 -3.0267,5.78695 -6.72297,11.19129 -10.0298,16.82793 -17.2242,25.5186 -40.00306,47.21796 -66.15024,63.45148 -2.21366,1.39379 -4.57763,2.52795 -6.68881,4.07205 3.42298,6.01925 6.72297,12.10682 10.05713,18.17389 0.4646,0.47826 0.55342,1.7764 1.45528,1.51677 2.36397,-0.94286 4.42732,-2.47329 6.59316,-3.78509 11.1298,-6.78446 21.67203,-14.52545 31.56518,-23.01116 0.93603,-0.69006 1.49627,-2.33664 2.89689,-2.00869 2.43913,3.43664 5.30186,6.559 8.15776,9.65403 0.60807,0.57391 1.46211,1.59875 0.47143,2.28882 -33.10245,29.13288 -73.91855,49.5341 -117.24211,57.90366 -34.88568,6.78446 -71.19247,6.20372 -105.78435,-2.01553 -26.63227,-6.14223 -52.04839,-17.10805 -75.23036,-31.52419 -8.9503,-5.71179 -17.66147,-11.83352 -25.78506,-18.68631 -0.9087,-0.82671 -1.94037,-1.5441 -2.63043,-2.57577 2.76024,-3.75776 5.84844,-7.27639 8.84098,-10.85651 0.81988,-0.58075 1.57826,0.39627 2.22733,0.79254 11.88135,9.818 24.58258,18.70681 38.22666,25.89438 3.42981,-6.88011 7.48136,-13.43911 10.65154,-20.44221 -20.61302,-11.36893 -39.40865,-26.03103 -55.2459,-43.45337 -10.77452,-12.41427 -20.83848,-25.62109 -28.51798,-40.2012 -6.90744,3.5118 -13.698741,7.29006 -20.421715,11.1503 7.986948,14.76458 17.880105,28.45649 28.859595,41.14406 -3.34099,3.50496 -7.13291,6.60682 -10.87017,9.68818 l -0.59441,0.13665 c -7.89813,-8.90931 -15.017378,-18.49501 -21.576377,-28.42233 -12.07949,-19.2124 -22.054634,-39.83909 -28.736614,-61.55894 -3.805586,-12.07949 -6.695711,-25.37952 -8.670243,-37.88261 0.526087,-0.34845 0.909591,-0.9547 1.44251,-1.29632 4.154033,30.07574 14.695426,60.39319 29.582988,86.82049 6.53167,12.20931 14.545946,23.57141 23.243456,34.33226 1.7559,2.05652 3.30682,4.31118 5.31552,6.14907 2.71242,-2.8969 5.91676,-5.25404 8.83415,-7.93229 -9.92732,-11.40993 -18.693147,-23.81737 -26.297486,-36.88754 -0.772049,-1.66025 -2.29565,-3.17018 -2.343476,-5.04223 7.372042,-4.42049 15.085702,-8.25341 22.512402,-12.57825 9.51054,16.64346 20.66084,32.44655 34.05896,46.19995 14.77142,15.43415 32.12543,28.25836 50.78442,38.61611 1.30497,0.32112 0.1913,1.60559 -0.10248,2.26149 -3.79193,7.14657 -7.31739,14.47079 -11.54658,21.3714 -14.05402,-7.69999 -27.41798,-16.67762 -39.75709,-26.91239 l -0.6764,0.0957 c -2.57577,2.72608 -4.72111,5.82794 -7.27639,8.57453 6.61366,6.08073 14.04719,11.19812 21.41923,16.31551 36.25213,24.30245 79.0496,38.90989 122.64645,41.29436 3.41614,-0.20497 6.74347,0.8882 10.17328,0.58758 5.45217,-0.20497 10.95216,0.43043 16.36334,-0.4441 49.7459,-1.86522 98.69927,-19.75899 138.34022,-49.83473 4.89875,-3.55279 9.42172,-7.58384 14.177,-11.31427 -1.89255,-3.5118 -5.18571,-6.00559 -7.49502,-9.23726 -3.64161,2.68509 -6.96894,5.87577 -10.61738,8.59502 -9.47639,7.32422 -19.4652,13.99253 -29.86395,19.93663 -0.98385,0.92235 -1.76956,-0.40311 -2.159,-1.15466 -3.74409,-7.00993 -7.659,-13.92421 -11.45092,-20.90681 1.67391,-1.5236 3.73726,-2.48695 5.6708,-3.63478 27.44531,-16.49315 51.24901,-39.0807 68.8285,-65.86328 3.19068,-5.52732 6.87328,-10.77452 9.64719,-16.52731 7.10558,3.53912 13.9857,7.55651 21.05712,11.17763 0.73789,0.33478 1.34596,0.88136 1.9472,1.44161 -7.86396,15.03104 -17.70929,28.97574 -28.64779,41.9161 2.89006,2.67826 5.99875,5.10372 8.9708,7.69999 20.25774,-23.46892 36.02667,-50.88006 46.03597,-80.21792 8.34223,-24.27513 13.20682,-49.81423 13.78073,-75.47631 0.77888,-8.63602 -0.31428,-17.2652 -0.47826,-25.89439 -0.73105,-7.06458 -1.56656,-15.33678 -2.87836,-22.32622 z"
     sodipodi:nodetypes="ccccccccccccccccccccccccccccccccccccccccccccccccccccccccccccccccccccccccccccc" />
  <path
     style="opacity:1;fill:#000000;stroke-width:0.68322909"
     inkscape:connector-curvature="0"
     id="path77"
     d="m 186.76281,402.7396 c 3.68944,-6.93477 10.29626,-12.6534 18.21489,-13.91054 3.50496,-0.85404 10.23252,-0.33449 13.76481,0.36923 -0.35527,0.51926 -3.81016,0.51213 -4.16544,1.03822 -6.3677,-0.87454 -13.26831,0.0683 -18.52234,3.99006 -8.58136,6.47018 -12.6739,17.63414 -12.2503,28.15587 -0.30062,5.83477 1.05217,11.69004 3.48447,16.97824 3.259,6.96893 9.36707,13.077 17.12172,14.6006 6.10123,1.20249 12.50992,0.41677 18.33103,-1.70807 1.46895,-0.47143 2.86957,-1.3323 4.46832,-1.26397 l -0.20497,1.22981 c -8.03477,3.73726 -16.46582,8.90931 -19.58134,17.70246 -3.01987,7.12608 -1.68758,15.24968 1.61925,22.02048 4.16087,8.41738 11.25278,15.36582 19.73166,19.39004 7.20806,3.26583 16.02172,4.25651 23.22295,0.45093 6.88695,-3.40932 11.54657,-9.98198 14.60744,-16.83477 0.61491,-0.96335 0.71056,-2.66459 2.32298,-2.46645 -0.13665,2.22732 -1.22981,4.22235 -1.78323,6.35403 -2.25465,7.35837 -2.46646,15.76209 1.3323,22.65587 2.71925,5.09006 7.39937,8.88198 12.61924,11.20496 7.66583,3.5118 16.40433,4.09254 24.64407,2.72608 6.97577,-1.5031 13.86955,-4.62546 18.577,-10.14595 4.02422,-4.64596 5.24583,-15.27737 4.91788,-21.38544 0.0979,-0.75611 -0.29616,-2.49626 0.29379,-2.26832 2.2,1.74224 1.71627,9.03266 1.88708,11.40346 -0.93602,7.11925 -5.0354,13.78073 -10.97949,17.82545 -6.52484,4.70745 -14.58694,6.74347 -22.52606,7.0031 -8.90931,-0.28013 -18.09874,-2.58261 -25.03352,-8.43788 -8.01427,-6.57266 -10.69936,-18.00309 -8.04844,-27.80742 -4.11987,6.86645 -10.88383,12.53042 -18.9391,13.86271 -4.96708,1.18882 -10.11179,-0.007 -14.86707,-1.53726 -11.40992,-4.15403 -20.64035,-13.61676 -24.95836,-24.91053 -2.86956,-7.74099 -2.59627,-16.88942 1.97454,-23.93352 2.39813,-4.11303 6.06024,-7.23539 9.96831,-9.85216 -6.92795,1.48261 -14.59378,1.25031 -20.85899,-2.37764 -6.85278,-4.08571 -11.49874,-11.17762 -13.5416,-18.80246 -2.80124,-10.33042 -1.9472,-21.82234 3.15652,-31.31922 z"
     sodipodi:nodetypes="ccccccccccccccccccccccccccccccccccccc" />
  <path
     style="opacity:1;fill:#000000;stroke-width:0.68322909"
     inkscape:connector-curvature="0"
     id="path79"
     d="m 296.18195,403.64146 c 4.43415,-0.38944 9.00496,0.91553 12.48259,3.73043 5.72546,4.30435 8.40372,12.2503 6.3677,19.13042 -1.02485,4.07204 -3.71677,7.50868 -6.97577,10.06396 -5.87577,4.54347 -14.55961,4.37267 -20.64718,0.33478 -6.76397,-4.44782 -9.90683,-13.73973 -6.86646,-21.30991 2.28882,-6.56583 8.68384,-11.51241 15.63912,-11.94968 m -2.15901,1.89938 c -7.69999,1.57143 -13.23414,9.10061 -13.16582,16.81427 0.45776,3.54596 1.55776,7.07825 3.77142,9.93415 3.22484,3.86707 8.22608,6.25154 13.30247,5.90993 8.55403,0.45093 16.01489,-7.50869 16.06955,-15.86458 0.4441,-6.51117 -3.53229,-12.83787 -9.33291,-15.65961 -3.30683,-1.51677 -7.09192,-1.79006 -10.64471,-1.13416 z" />
  <path
     style="opacity:1;fill:#000000;stroke-width:0.68322909"
     inkscape:connector-curvature="0"
     id="path81"
     d="m 367.97566,450.20352 c 3.34099,0.60124 6.64098,1.72857 9.76334,3.03354 -0.28696,0.37578 -0.62174,0.71056 -0.99752,1.00435 6.93478,3.86707 12.57825,10.61054 14.01303,18.54967 1.5441,8.95713 -1.4826,18.20122 -6.86645,25.35463 -5.95776,8.00744 -14.58694,14.45712 -24.4801,16.47265 -8.78632,2.17267 -18.26954,-1.31863 -24.4391,-7.72732 -1.3118,-1.53727 -2.48012,-3.19751 -3.9354,-4.59813 0.12981,1.0385 0.14921,5.42508 0.27902,6.47042 -0.56024,-0.64906 -0.83927,-3.62819 -1.32436,-4.31825 0.12981,-0.48509 -0.33223,-0.13692 -0.20925,-0.61518 -0.45093,0.21863 -0.18019,-0.86743 -0.61746,-0.62147 0.21864,-3.80558 -2.06335,-7.11241 -2.65093,-10.74719 1.15466,-1.32546 1.67392,1.14782 2.1795,1.85838 3.09503,6.74347 7.67267,13.26148 14.4503,16.67762 3.30683,1.76957 7.05092,2.4118 10.74036,2.83541 10.96583,-0.60125 21.09128,-6.8118 27.75276,-15.36583 4.63913,-5.88943 8.00062,-13.15899 7.90497,-20.78382 0.2118,-7.80931 -3.99689,-15.39999 -10.25527,-19.9298 -3.27267,-2.65092 -7.06459,-4.5298 -10.918,-6.16955 -0.10249,-0.34845 -0.29379,-1.03168 -0.38944,-1.38013 z"
     sodipodi:nodetypes="ccccccccccccccccccccc" />
  <path
     style="opacity:1;fill:#000000;stroke-width:0.68322909"
     inkscape:connector-curvature="0"
     id="path83"
     d="m 376.10017,454.64062 c 0.40994,-0.51242 0.82671,-1.01801 1.25031,-1.51677 2.95838,0.60125 7.94503,0.67346 10.93758,0.29085 1.059,-0.47143 1.7354,0.60807 2.46645,1.13416 -4.1472,1.0795 -10.45931,0.67251 -14.65434,0.0917 z"
     sodipodi:nodetypes="cccccc" />
</svg>
