<?xml version="1.0" encoding="UTF-8" standalone="no"?>
<svg
   xmlns:dc="http://purl.org/dc/elements/1.1/"
   xmlns:cc="http://creativecommons.org/ns#"
   xmlns:rdf="http://www.w3.org/1999/02/22-rdf-syntax-ns#"
   xmlns:svg="http://www.w3.org/2000/svg"
   xmlns="http://www.w3.org/2000/svg"
   id="svg8"
   version="1.1"
   viewBox="0 0 210 297"
   height="297mm"
   width="210mm">
  <title
     id="title853">cute cow</title>
  <defs
     id="defs2" />
  <metadata
     id="metadata5">
    <rdf:RDF>
      <cc:Work
         rdf:about="">
        <dc:format>image/svg+xml</dc:format>
        <dc:type
           rdf:resource="http://purl.org/dc/dcmitype/StillImage" />
        <dc:title>cute cow</dc:title>
        <dc:description></dc:description>
        <dc:creator>
          <cc:Agent>
            <dc:title>Lena London</dc:title>
          </cc:Agent>
        </dc:creator>
        <dc:source>http://www.supercoloring.com/coloring-pages/cute-cartoon-cow</dc:source>
        <dc:subject>
          <rdf:Bag>
            <rdf:li>animals</rdf:li>
            <rdf:li>csk</rdf:li>
          </rdf:Bag>
        </dc:subject>
        <dc:date>2020-04-02</dc:date>
      </cc:Work>
    </rdf:RDF>
  </metadata>
  <g
     id="layer1">
    <path
       id="path840"
       d="m 141.91323,12.373499 c -4.07141,0 -7.08383,1.649021 -8.51338,4.66159 -0.63471,1.337557 -1.38589,2.056672 -2.15445,2.067436 -0.005,8.3e-5 -0.0122,0.0023 -0.0174,0.0023 -0.006,2.73e-4 -0.0136,8.55e-4 -0.0197,0.0011 -0.15988,9.51e-4 -0.32656,0.01693 -0.49656,0.0406 -0.17158,0.02389 -0.35095,0.06939 -0.53021,0.114863 -0.072,0.01862 -0.1439,0.03636 -0.21579,0.05801 -0.19155,0.05659 -0.38416,0.124981 -0.58009,0.203027 -1.48818,0.592834 -3.05646,1.764658 -4.03045,3.13248 -4.0849,5.736731 -0.0187,12.744247 7.3938,12.742228 2.10516,-5.7e-4 4.16292,-0.549745 6.946,-1.852803 l 3.4376,-1.609165 c 0.19031,0.135811 0.43312,0.449596 0.69378,0.853891 0.0433,0.154621 0.0845,0.319151 0.12177,0.495394 l 0.0719,0.38518 c 0.72208,3.848995 6.01298,6.901462 10.43114,6.017841 1.6567,-0.331352 1.71088,-0.276542 1.16598,1.156699 -2.56119,6.736428 2.39617,12.441794 10.45088,12.027554 3.25238,-0.167254 3.93834,-0.01137 5.215,1.188023 0.80849,0.759556 2.49821,1.756246 3.75433,2.214781 3.29549,1.202979 6.43154,0.547838 8.94728,-1.786672 0.004,-0.0032 0.006,-0.0061 0.0109,-0.0094 0.006,-0.0057 0.0122,-0.01178 0.0186,-0.0174 0.0687,-0.06424 0.13759,-0.128151 0.20535,-0.194908 0.36667,-0.344146 0.69512,-0.713014 0.98499,-1.102169 0.1989,-0.251481 0.39322,-0.51262 0.58126,-0.788918 1.5483,-2.274896 1.66943,-3.810449 0.47799,-6.094413 -0.74016,-1.418891 -0.74016,-1.848171 0,-3.26706 0.55092,-1.056117 0.82099,-2.547001 0.82837,-4.119792 0.0503,-1.073728 -0.0646,-2.123055 -0.32833,-3.122039 -0.19546,-0.88343 -0.47607,-1.718474 -0.84114,-2.434047 -1.79255,-3.513706 -5.28309,-5.576046 -9.47748,-5.600181 l -3.39815,-0.01972 0.27264,-2.425935 c 0.46458,-4.131884 -2.2964,-7.699389 -7.57712,-9.788413 -2.59637,-1.02708 -9.66042,-1.036085 -12.67263,-0.01624 -1.7557,0.594434 -2.26223,0.646267 -3.09998,-0.01165 -0.23653,-0.241447 -0.51113,-0.474086 -0.82141,-0.696104 -2.0777,-1.778444 -3.97464,-2.406207 -7.23486,-2.406207 z m 0.14966,1.061562 c 2.62683,0.05572 5.41594,1.158084 7.32536,3.067509 0.39244,0.392438 0.71389,0.606235 1.18918,0.671743 l 0.094,0.08238 0.20767,-0.06149 c 0.56655,0.0049 1.3472,-0.145859 2.63014,-0.453635 4.29059,-1.029296 10.75221,-0.589092 13.67964,0.931623 4.18206,2.172423 5.49171,5.231507 4.30774,10.061059 -0.0327,0.126782 -0.0602,0.240003 -0.0882,0.358498 l -0.23899,0.961786 -0.0592,0.155465 0.0209,-0.0023 -0.10795,0.435065 4.03973,-0.257557 c 2.03422,-0.12968 3.63762,0.0045 4.96789,0.473349 1.11256,0.524162 2.14526,1.238988 3.0211,2.112689 0.38546,0.447825 0.75138,0.954867 1.10448,1.533754 1.87191,3.068892 2.04576,5.315963 0.6555,8.45885 -1.12329,2.53941 -1.15409,2.934427 -0.35152,4.48641 0.40244,0.778255 0.72929,1.77203 0.833,2.451454 0.008,0.395528 -0.0255,0.78019 -0.0917,1.155534 -0.5193,1.612805 -2.46401,3.655519 -4.39707,4.463203 -2.19948,0.918987 -4.05638,0.943419 -5.94707,-0.0094 -0.9219,-0.50523 -1.87576,-1.246174 -2.93408,-2.242622 -1.4045,-1.322381 -1.91374,-1.590898 -2.97355,-1.273874 -0.33288,0.0555 -0.70957,0.139598 -1.18801,0.261038 -4.74134,1.203495 -10.51937,-1.71557 -11.26532,-5.69183 -0.2563,-1.366177 0.004,-2.832095 0.83764,-4.716125 0.6652,-1.503638 1.0237,-2.763321 0.79704,-2.798343 -0.22665,-0.03503 -2.3031,-0.01273 -4.61518,0.04873 -1.71075,0.04546 -2.76004,0.03099 -3.56871,-0.121825 -1.03827,-0.339179 -1.94901,-0.849197 -2.71134,-1.525632 -0.0242,-0.02163 -0.0482,-0.04325 -0.0719,-0.06497 -0.1721,-0.156973 -0.33772,-0.320327 -0.49424,-0.494235 -0.27087,-0.300973 -0.51187,-0.634249 -0.73439,-0.984994 -0.0109,-0.01709 -0.0218,-0.03385 -0.0325,-0.05105 -0.36972,-0.641728 -0.60883,-1.348702 -0.73787,-2.155606 -0.20535,-1.284262 -0.59503,-2.472677 -0.86665,-2.640562 -0.005,-0.003 -0.0154,-0.002 -0.0209,-0.0046 l -0.0499,-0.19723 -0.41185,0.230874 c -0.53292,0.133419 -1.38756,0.526746 -2.26119,1.073164 -6.44797,4.032906 -13.60235,3.695258 -15.90139,-0.750633 -1.13399,-2.191853 -1.14059,-3.77586 -0.0232,-5.936626 1.27133,-2.458493 3.73751,-4.181279 5.98537,-4.181279 1.67008,0 2.00628,-0.24838 2.32963,-1.720547 0.0549,-0.249734 0.12175,-0.484421 0.20071,-0.710027 0.5265,-0.987775 1.2054,-1.822906 1.99434,-2.500179 0.66268,-0.460328 1.48674,-0.891961 2.53964,-1.331886 1.02905,-0.429968 2.18906,-0.620504 3.38306,-0.595169 z m -63.971013,36.55835 c -1.677931,0 -2.629452,0.461088 -4.209125,2.040753 -1.777413,1.777406 -2.035937,2.410301 -2.00363,4.900589 0.0143,1.102057 -0.057,2.729605 -0.168222,4.185919 -0.206094,0.639469 -0.323118,1.352425 -0.356176,2.090638 -0.03621,0.265784 -0.05787,0.519106 -0.05801,0.741356 -4.04e-4,0.500953 0.07811,1.010637 0.216956,1.517513 0.149929,0.802247 0.396449,1.573207 0.741349,2.242622 1.173843,2.561184 3.587844,4.253789 6.608368,4.256688 1.889536,0.0022 1.930533,0.0587 1.930533,2.655649 0,2.220116 0.3272,2.979362 2.000148,4.652312 1.725795,1.725797 4.120009,2.813561 6.883339,3.174245 1.403376,0.229846 2.867346,0.247911 4.308902,0.0035 2.508236,-0.235537 3.293942,-0.04548 5.039795,1.139294 0.464749,0.315384 0.964509,0.576938 1.485036,0.790076 0.059,0.02874 0.12771,0.07171 0.18214,0.09398 0.91227,0.373378 1.88544,0.556672 2.85057,0.581244 2.71377,0.155318 5.35549,-0.82211 6.3914,-2.757742 0.44692,-0.835054 1.29762,-1.420053 2.06512,-1.420053 1.16698,0 2.65653,-0.913138 3.83672,-2.189257 0.23524,-0.213113 0.44886,-0.428413 0.61838,-0.643895 0.18527,-0.235544 0.34625,-0.512514 0.48727,-0.813285 0.17784,-0.296999 0.33462,-0.6014 0.4629,-0.908421 0.70821,-1.694338 0.70659,-2.267303 -0.009,-3.980568 -0.0694,-0.165948 -0.15365,-0.337374 -0.2448,-0.51048 -0.0496,-0.104115 -0.10311,-0.20181 -0.16127,-0.293524 -0.51265,-0.882303 -1.23074,-1.758779 -1.81221,-2.16605 -0.66749,-0.467534 -1.75836,-0.758921 -3.00716,-0.878257 -0.29996,-0.04548 -0.63658,-0.06093 -0.99776,-0.05336 -1.79464,-0.03927 -3.75972,0.24184 -5.24401,0.862012 -0.36631,0.153058 -0.70109,0.282148 -1.01166,0.39678 -0.59964,0.120674 -1.06422,0.124873 -1.39338,-0.01624 -0.13476,-0.29596 -0.3659,-0.834187 -0.70886,-1.696179 -0.0164,-0.04118 -0.0375,-0.07666 -0.0546,-0.11718 -0.0489,-0.325797 -0.24323,-0.679008 -0.55107,-1.03488 -0.98997,-1.525283 -2.567371,-2.453877 -4.935391,-2.898119 -2.019679,-0.378902 -2.087722,-0.471633 -1.594098,-2.192739 1.190011,-4.149313 -2.669852,-8.184043 -7.833518,-8.188528 -1.767943,-0.0015 -3.024614,-0.334517 -3.521137,-0.932786 -1.2538,-1.51076 -3.911436,-2.633601 -6.233623,-2.633601 z m 0.413026,1.773911 c 1.468277,-0.04681 2.927601,0.555051 4.162712,1.790153 1.519187,1.519137 2.103824,1.733753 3.964324,1.457181 2.69908,-0.40126 5.943385,1.138789 7.209348,3.421364 0.28344,0.511075 0.460563,0.881792 0.536001,1.276198 0.01693,0.162248 0.02844,0.324959 0.03359,0.488431 -0.03075,0.737459 -0.436795,1.800197 -1.287794,3.847152 -0.215032,0.333128 -0.332035,0.588499 -0.316731,0.773837 0.0027,0.07369 0.02601,0.137376 0.06379,0.194907 0.0948,0.280289 0.638162,0.370746 1.717073,0.400261 0.159653,0.0059 0.348911,0.0099 0.532508,0.01273 0.14321,0.0011 0.221425,0.0081 0.3817,0.0081 3.652835,0 5.874016,1.54956 6.423916,4.480606 0.12135,0.647211 0.21706,1.116147 0.355,1.432819 0.086,0.375819 0.15868,0.620694 0.19607,0.620694 0.0146,0 0.2477,-0.09969 0.33993,-0.134582 0.50139,0.0849 1.35986,-0.291612 3.01067,-1.040683 3.61416,-1.639965 7.14418,-1.495263 9.18511,0.142705 0.12582,0.132212 0.25082,0.263229 0.38982,0.418825 0.30697,0.343539 0.55062,0.641768 0.75528,0.92118 0.11038,0.197121 0.20951,0.403891 0.29236,0.621853 1.14179,3.00311 -1.67239,6.792839 -5.04329,6.792839 -0.82824,0 -1.50591,0.279149 -1.50591,0.620693 0,0.341569 -0.65525,1.277119 -1.45718,2.079039 -2.19649,2.196498 -6.74056,2.078449 -9.339418,-0.243633 -1.711656,-1.529353 -2.117978,-1.644145 -3.996816,-1.125378 -0.300154,0.08288 -0.602366,0.148562 -0.90493,0.206514 -0.169119,0.01497 -0.312736,0.02565 -0.497714,0.04294 -1.836054,0.171455 -3.546802,0.06174 -5.066505,-0.268005 -4.187359,-1.123227 -7.302093,-4.262979 -6.322957,-7.635125 0.217199,-0.748085 0.365298,-1.282611 0.400253,-1.675295 0.203724,-0.425251 0.204158,-0.655187 -0.146176,-0.774999 2.31e-4,-0.0031 0.0068,-0.02897 0.0068,-0.03133 0,-0.01768 -0.02614,-0.02903 -0.06379,-0.03712 l 0.0081,-0.06845 h -0.366612 c -0.452695,-0.143733 -1.20186,-0.175702 -2.370254,-0.214633 -2.523433,-0.08408 -3.421497,-0.419218 -4.89362,-1.829602 -2.25493,-2.160351 -2.853822,-4.964914 -1.598729,-7.480823 0.247727,-0.496552 0.424484,-1.01845 0.537168,-1.572039 0.240372,-0.646069 0.279201,-1.15895 0.138049,-1.707781 -0.0095,-0.357808 -0.03657,-0.726309 -0.08939,-1.111447 -0.308225,-2.248764 -0.168523,-2.663076 1.286644,-3.807705 1.051634,-0.827219 2.19932,-1.256036 3.341318,-1.292437 z m 87.723327,10.700316 c -0.009,0 -0.0158,0.0107 -0.0244,0.01273 -0.55676,0.13209 -0.60409,2.120291 -0.0952,4.665075 h 0.001 c 0.25529,1.276315 0.62964,1.863572 0.92814,1.785514 0.18627,0.08208 0.31339,-0.187661 0.37242,-0.705389 0.0613,-0.298044 0.10426,-0.664828 0.10207,-1.154376 -0.0109,-2.49348 -0.58337,-4.603584 -1.24952,-4.603584 -0.008,0 -0.0145,0.004 -0.0221,0.0046 -0.004,-3.27e-4 -0.008,-0.0046 -0.0122,-0.0046 z m 18.24611,1.483868 c -0.67961,-0.154941 -3.88855,5.108238 -3.86687,6.502792 v 0.0011 c 7e-4,0.04486 0.003,0.05937 0.004,0.100942 5e-5,0.0027 -0.001,0.0078 -0.001,0.01044 9e-5,0.0019 0.003,0.0017 0.003,0.0035 0.0183,1.068203 0.0549,1.051772 0.93277,-0.08353 1.54347,-1.996102 3.28498,-5.691069 3.03039,-6.429703 -0.0212,-0.06124 -0.0556,-0.09524 -0.10092,-0.105573 z m -31.52783,5.644262 c -0.76693,0 -0.0824,1.291284 1.55117,2.924807 1.81974,1.819748 2.92364,2.308499 2.92364,1.294756 0,-0.518858 -3.92445,-4.219563 -4.47481,-4.219563 z m 18.13591,3.01066 c -2.6972,0.01219 -5.33893,0.71472 -7.69662,1.957218 -0.72892,0.364825 -1.41691,0.797686 -2.07323,1.28664 -0.12379,0.08939 -0.24287,0.184637 -0.36432,0.277278 -0.075,0.05974 -0.15102,0.11722 -0.22506,0.178667 -5.02195,3.964606 -7.87925,10.715979 -5.36466,18.286719 1.411,4.248163 6.09996,9.00628 10.15039,10.30005 1.3019,0.41591 2.98275,0.66981 4.66855,0.72743 1.08523,0.0648 2.15659,0.0114 3.20325,-0.14618 0.001,-2.8e-4 0.004,2.9e-4 0.005,0 0.003,-3.1e-4 0.004,-8.4e-4 0.006,-0.001 0.1947,-0.0295 0.38839,-0.0619 0.58125,-0.0986 13.04029,-2.17782 18.47079,-18.058569 8.73149,-27.797846 -3.48834,-3.488359 -7.61589,-4.98826 -11.62381,-4.970202 z m -0.0765,1.194983 c 2.1272,-0.02657 4.28119,0.401416 6.31484,1.350442 5.58844,2.60791 8.83822,7.662182 8.83822,13.749267 0,6.086722 -3.25034,11.14236 -8.83822,13.75042 -2.87374,1.34072 -6.84121,1.69276 -10.22813,0.96991 -1.08996,-0.29227 -2.14226,-0.69629 -3.13711,-1.20891 -3.06928,-1.87383 -6.44354,-5.865016 -7.36829,-9.015733 -0.51593,-1.757754 -0.79302,-2.92738 -0.85854,-4.021174 -0.0109,-0.50441 0.006,-1.007697 0.0429,-1.509393 0.11498,-0.924234 0.37565,-1.943733 0.79241,-3.347108 1.92046,-6.466932 8.06024,-10.637998 14.44189,-10.717721 z m 22.736,2.673049 c -0.26564,0.01466 -0.63864,0.08899 -1.12538,0.237838 -3.6453,1.114701 -5.49461,1.93777 -5.49461,2.445653 0,0.137622 0.0538,0.244074 0.14619,0.324849 0.0218,0.07197 0.10686,0.112059 0.24364,0.125305 0.68359,0.197502 2.2217,-0.181702 4.21376,-1.085929 2.30734,-1.047342 3.16748,-2.111299 2.0164,-2.04771 z m -49.76003,11.570447 c -0.57705,-0.01233 -0.89948,0.03541 -0.78079,0.165907 0.0296,0.03262 0.0946,0.07251 0.17402,0.114863 10e-4,0.02334 0.0165,0.04821 0.0371,0.07425 0.008,0.02371 0.024,0.04764 0.0499,0.07424 0.3267,0.334559 1.12862,0.737339 1.78203,0.894497 0.65341,0.157199 2.65818,0.308386 4.45507,0.336448 0.0539,8.43e-4 0.0768,-7.01e-4 0.1288,0 0.0529,0.0015 0.11715,0.0072 0.16823,0.0081 0.29147,0.0053 0.5311,1.96e-4 0.74599,-0.0094 1.6087,-0.01469 1.86,-0.159867 1.1045,-0.59865 -0.95862,-0.556754 -4.39872,-0.988446 -6.58053,-1.020957 -0.27945,-0.01097 -0.49957,-0.0087 -0.71815,-0.0058 -0.19258,-0.01192 -0.40795,-0.03026 -0.56618,-0.03365 z m 47.21806,1.74723 c -0.26419,0 -0.40839,0.04633 -0.45246,0.127621 -1.19074,0.04919 0.0778,0.999499 3.25546,2.240305 3.21316,1.254664 4.40519,1.447747 4.40519,0.712349 0,-0.642113 -3.02767,-2.043283 -5.56653,-2.649846 -0.71535,-0.258662 -1.32199,-0.430425 -1.64166,-0.430425 z m -37.0607,11.024003 c -0.28434,0.0232 -0.79478,0.2104 -1.55231,0.60214 -2.62955,1.35977 -5.26373,3.32704 -5.26373,3.93067 0,0.88165 1.02584,0.50057 3.90632,-1.44906 1.65108,-1.11755 2.71854,-2.08755 3.05939,-2.62896 0.0975,-0.11939 0.16242,-0.22162 0.16242,-0.28656 0,-0.0538 -0.0313,-0.0843 -0.0778,-0.10442 -0.0409,-0.047 -0.11228,-0.0738 -0.23436,-0.0638 z m 31.7529,2.04423 c -0.0715,0 -0.1139,0.029 -0.14387,0.0696 -0.10238,0.0139 -0.10092,0.12652 0,0.32717 0.27031,0.89536 2.04687,3.12815 3.80307,4.6059 1.11104,0.93486 1.92685,1.43663 2.34587,1.49315 0.0378,0.0153 0.0824,0.0383 0.10565,0.0383 0.0509,0 0.0784,-0.0216 0.094,-0.0557 0.1938,-0.0892 0.15347,-0.42944 -0.17054,-1.03487 -0.76146,-1.42281 -5.21826,-5.44356 -6.03409,-5.44356 z m -133.614167,3.54551 c -2.062012,0.0743 -6.649149,1.54027 -8.965856,3.0269 -5.986126,3.84129 -8.566497,9.64545 -8.144441,18.31803 0.177812,3.65381 0.589413,5.71993 1.612644,8.05628 0.01537,0.0386 0.03313,0.0733 0.04873,0.11132 0.03769,0.0847 0.06971,0.16729 0.109053,0.25291 l 0.240153,0.5221 c 0.02719,0.0555 0.05117,0.11729 0.07889,0.17169 l 1.024436,2.22987 c 0.01698,0.23131 -0.0094,0.46268 -0.07424,0.69843 l -1.367852,1.67645 -1.013995,1.24139 c -0.496307,0.35965 -0.954825,0.36526 -2.098759,-0.26451 l -4.679003,-3.16729 c -11.84051,-8.01489 -17.832438,-10.0165 -22.0967888,-7.38099 -3.769765,2.32985 -5.3062216,8.26324 -3.1939663,12.33152 1.4075026,2.71089 4.1352231,5.23915 7.3752491,6.83461 2.390027,1.17688 3.675681,1.38456 8.181567,1.3226 2.940359,-0.0405 6.834937,-0.47015 8.653764,-0.95483 l 3.101157,-0.82721 c 0.04308,0.0797 0.07314,0.17512 0.0905,0.28425 l -1.812197,5.36814 c -2.573907,7.62218 -3.886112,15.93935 -3.999129,25.34292 l -0.08469,7.03299 c -0.08697,0.36767 -0.189512,0.67597 -0.323688,0.92118 l -2.168372,1.35391 c -4.645467,2.90155 -8.378219,9.7021 -9.422959,17.16948 -0.379045,2.70922 0.03393,6.50546 0.989627,10.12834 0.04545,0.19257 0.100807,0.38699 0.154308,0.57778 0.01638,0.0582 0.03322,0.11593 0.04988,0.17403 0.05206,0.17718 0.101276,0.35624 0.161269,0.53599 0.456853,1.50306 1.002084,2.95049 1.625404,4.24278 2.071398,4.29448 6.748806,9.53016 11.200354,12.53571 6.709452,4.53006 15.847952,6.77428 27.579739,6.77428 h 8.323113 l 0.643895,4.60358 c 0.729534,5.21068 1.614681,13.99909 2.183453,21.67792 l 0.225076,3.04198 c 5.82e-4,0.18789 0.0053,0.40496 0.0035,0.57312 -0.0058,0.55543 -0.0076,1.06743 -0.0046,1.54188 l -1.822638,-0.4049 c -1.090925,-0.24278 -4.472196,-0.44202 -7.51447,-0.44202 h -5.531725 l 2.134726,-1.95607 c 0.73848,-0.6766 1.319911,-1.39075 1.59524,-1.91777 l 0.654345,-0.58009 h -0.149668 l -0.343409,0.001 c -0.0051,-0.0397 -0.0063,-0.082 -0.02437,-0.11133 -0.658572,-1.06561 -16.040952,0.16119 -21.253286,1.69501 -0.446516,0.13138 -0.710382,0.16407 -0.836491,-0.0684 -0.04318,-0.16777 -0.06934,-0.38631 -0.08469,-0.66363 0.0092,-0.44768 0.08179,-1.09406 0.209989,-2.06047 0.46359,-3.49471 1.971984,-6.83768 3.851792,-8.53774 0.481563,-0.43552 0.813052,-0.85045 1.00471,-1.22052 0.304698,-0.26019 0.368679,-0.48328 0.222754,-0.65782 l 0.245955,-0.25754 h -0.129956 -0.185628 c -0.122299,-0.36745 -0.53518,-0.58948 -1.24371,-0.58474 -4.559729,0.0299 -12.976713,3.2927 -18.802991,7.2894 -1.438921,0.98706 -2.465098,1.55304 -2.280913,1.25763 0.184185,-0.29543 2.230208,-3.3294 4.546737,-6.7418 2.316535,-3.41238 4.211441,-6.55741 4.211441,-6.99006 0,-0.55554 -0.480002,-0.67334 -1.633529,-0.40142 -3.780624,0.89126 -10.973316,4.00072 -14.4442049,6.24406 -4.1265091,2.66708 -9.9956927,8.44006 -10.0529375,9.87892 -2.316e-4,0.003 -0.00582,0.0109 -0.00582,0.0122 0,10e-4 0.00217,10e-4 0.0023,0.004 -2.98e-5,0.003 -0.0023,0.005 -0.0023,0.008 0,0.50164 1.52581142,-0.69765 3.4155615,-2.68466 1.8785656,-1.97524 4.9488002,-4.59239 6.8218469,-5.81597 3.283454,-2.14488 12.940264,-6.41497 13.420931,-5.93431 0.129003,0.12893 -2.46843,4.12366 -5.771884,8.87652 -5.442648,7.83067 -6.606237,9.83831 -5.703431,9.83831 0.166329,0 2.579362,-1.73768 5.362338,-3.86107 2.782983,-2.12342 6.589256,-4.63226 8.458857,-5.57582 2.536621,-1.28019 7.286072,-3.00822 9.427599,-3.49096 0.385709,-0.065 0.683837,-0.0936 0.920022,-0.0986 0.08642,0.21972 -0.381083,1.34422 -1.133491,2.69046 -1.030913,1.84447 -1.561156,3.77442 -1.786677,6.47146 -0.09063,0.65271 -0.140539,1.26782 -0.147339,1.82148 -0.0091,0.17128 -0.017,0.3402 -0.0174,0.49772 -0.04868,1.13868 0.05999,1.74863 0.638097,1.98506 0.07407,0.057 0.177159,0.0879 0.33529,0.0905 0.900366,0.14031 2.558904,-0.20684 5.55841,-0.76573 2.450293,-0.45653 6.860824,-1.01515 9.801178,-1.24138 l 0.906097,-0.0696 c 1.797602,-0.0622 3.256999,-0.13971 4.286857,-0.22508 l -2.074398,2.16721 c -0.953951,0.9969 -1.586507,1.76363 -1.914288,2.32965 -0.148949,0.22848 -0.262482,0.42436 -0.292366,0.54412 -0.004,0.009 -0.02088,0.0301 -0.02088,0.0371 0,10e-4 0.0099,0.003 0.01044,0.004 -0.0014,0.009 -0.0078,0.0242 -0.0081,0.0325 l -0.242475,0.25756 0.308606,-0.0174 c 0.108972,0.40561 0.764557,0.47391 1.973458,0.24712 0.121052,-0.0227 0.302363,-0.0392 0.440868,-0.0604 1.186264,0.0273 2.778855,0.004 4.839104,-0.0755 8.496814,-0.32731 9.904429,0.0938 9.904429,2.96309 0,1.02456 0.443133,2.3517 0.983832,2.94917 0.407485,0.45027 0.828235,0.74729 1.261114,0.90726 0.202195,0.11133 0.403452,0.17867 0.594011,0.17867 0.09085,0 0.191294,-0.0188 0.295846,-0.0465 1.228606,-0.0956 2.54261,-1.27392 3.916759,-3.5281 1.224369,-2.00844 1.260965,-2.02324 1.263429,-0.52322 0.0027,2.14248 1.166132,5.27167 1.990871,5.35654 1.611812,0.16574 2.57586,-0.27362 4.363427,-1.98623 l 1.898057,-1.818 0.401419,1.71822 c 0.220477,0.94513 0.820879,2.05235 1.334195,2.46074 v -0.001 c 0.513316,0.40837 1.140481,0.7425 1.39338,0.7425 1.088244,0 4.91468,-4.03487 6.514398,-6.86941 0.686743,-1.21686 1.146209,-1.96416 1.706618,-2.49901 0.02262,-0.0215 0.04428,-0.0452 0.06731,-0.0661 0.757156,-0.68889 1.718102,-1.01517 3.66153,-1.56971 4.779363,-1.36313 11.405033,-1.37087 17.280833,-0.0186 8.49161,1.95434 17.00145,0.20715 19.1406,-3.92951 0.74255,-1.43594 1.07026,-1.63182 1.76579,-1.0546 1.16199,0.96436 1.05376,2.73945 -0.35733,5.8496 -0.54031,1.19075 -0.89423,2.29085 -0.90146,2.73687 -0.0531,0.17195 -0.0778,0.29351 -0.036,0.29351 0.0154,0 0.10727,-0.0361 0.15662,-0.0523 0.009,0.0347 0.0259,0.0546 0.0522,0.0546 0.0323,0 0.13246,-0.0356 0.21347,-0.0604 0.0555,0.11336 0.17522,0.0592 0.32253,-0.0975 0.53813,-0.13843 1.31213,-0.42906 2.16024,-0.84113 1.38146,-0.67114 3.34469,-1.40317 4.36227,-1.62655 1.72124,-0.37807 1.87551,-0.27526 2.22639,1.47921 0.20746,1.03722 0.37821,2.50171 0.37821,3.2543 0,1.52487 1.42379,3.23573 2.69393,3.23573 0.35225,0 1.18003,-0.46523 2.03379,-1.11029 0.23712,-0.15259 0.4711,-0.33983 0.70539,-0.56848 0.0136,-0.0122 0.0272,-0.0219 0.0406,-0.0336 l 1.95143,-1.7136 1.0662,1.41658 c 1.71351,2.27292 4.07703,1.89127 6.60952,-1.06735 1.16892,-1.36565 2.12545,-2.74149 2.12545,-3.05707 0,-0.31562 0.65487,0.13327 1.45603,0.99774 0.75984,0.81989 1.56515,1.27429 2.36908,1.40845 0.20806,0.0986 0.39303,0.16361 0.52208,0.16361 0.21255,0 0.44358,-0.0649 0.68451,-0.17636 0.30076,-0.0668 0.59545,-0.19181 0.88289,-0.3759 1.4642,-0.8154 2.76733,-2.75005 3.56987,-5.61641 l 0.72625,-2.59185 c 0.0246,-0.0551 0.0463,-0.0979 0.0696,-0.14734 h 3.41788 c 0.61672,0 1.23815,-0.0159 1.86093,-0.0394 8.25255,-0.17173 16.72945,-2.43966 19.83554,-5.3577 0.20711,-0.19454 0.35871,-0.31879 0.51281,-0.44435 0.20788,-0.13886 0.39604,-0.25886 0.5592,-0.35384 0.32675,-0.0998 0.56543,0.0792 0.93975,0.5302 1.2484,1.50422 1.45585,5.82958 0.37939,7.91125 -0.63325,1.22452 -0.94549,1.87254 -0.81677,2.16721 -0.004,0.0458 -0.001,0.0819 0.0122,0.0963 0.0167,0.0167 0.0539,0.0279 0.10672,0.0336 0.26422,0.14851 0.88891,0.0552 1.96767,-0.13807 1.2081,-0.2165 2.42254,-0.57876 3.56406,-1.0314 0.57814,-0.17105 1.11095,-0.34143 1.49664,-0.49539 0.55286,-0.22069 1.23874,-0.70574 1.91082,-1.28084 1.61377,-1.09225 2.68115,-2.30217 2.68115,-3.31231 0,-0.0158 -0.005,-0.0238 -0.005,-0.0383 l 0.30165,-0.32834 -0.30629,0.27962 c 0.003,-0.0221 0.0109,-0.0478 0.0109,-0.0684 0,-0.0442 -0.0191,-0.0665 -0.0499,-0.0754 0.0535,-0.20276 -0.0348,-0.21646 -0.23088,-0.0638 -0.29982,0.0575 -0.84274,0.46128 -1.64978,1.22513 -2.12434,2.01075 -3.50617,2.80262 -5.8763,3.36801 -0.58016,0.13841 -0.94396,0.22182 -1.14394,0.15663 -0.0823,-0.0997 -0.14771,-0.23284 -0.18794,-0.43508 0.0149,-0.31986 0.13872,-0.82696 0.3411,-1.62424 0.74713,-2.94356 -0.18899,-6.52349 -2.19971,-8.41244 l -1.50706,-1.41542 -1.7716,2.14981 c -1.29564,1.57185 -2.76811,2.47587 -5.47952,3.3645 -4.52578,1.48331 -10.29171,2.43081 -14.81546,2.43754 l -0.99543,0.001 -2.15329,-0.003 -0.005,-0.2564 c 0.0245,-0.16099 0.0404,-0.37175 0.0592,-0.5685 l 0.33878,-0.97222 c 0.44688,-1.28213 0.43878,-2.55795 -0.0302,-4.42027 -0.29088,-1.15523 -0.48545,-2.28532 -0.56848,-3.47937 -0.009,-1.19239 0.003,-2.21075 0.0429,-3.13132 0.39639,-4.68271 2.299,-11.02637 6.49005,-22.80677 2.78074,-7.8163 4.27181,-11.12249 6.0097,-13.32928 2.58092,-3.27729 4.85311,-7.48773 6.40186,-11.86281 l 1.0314,-2.91668 0.93395,1.80523 c 2.0757,4.01398 3.70854,12.17521 3.90166,18.30644 -0.0122,1.68442 -0.0478,2.9611 -0.12757,3.98289 -0.0196,0.16711 -0.0331,0.34644 -0.0569,0.50467 -0.30913,2.05621 -0.76623,2.83213 -2.12543,3.61047 -2.49774,1.43035 -3.2552,4.75017 -2.61042,11.43703 0.28108,2.91523 0.79206,5.39257 1.13583,5.50505 1.21171,0.39654 5.97541,-3.35796 7.33928,-5.78465 1.77605,-3.16006 1.87831,-7.72641 0.2239,-9.97984 -0.89186,-1.21474 -1.04448,-1.98326 -0.66594,-3.35755 2.27312,-8.25265 1.81165,-20.52532 -1.22166,-32.49193 -2.0007,-7.89299 -8.27949,-24.44784 -10.88247,-28.69119 -7.45639,-12.15538 -21.28129,-20.86952 -41.03547,-25.93461 -3.11402,-0.84091 -6.20896,-1.52804 -9.18049,-2.01407 -2.47369,-0.45737 -5.02295,-0.86791 -7.65136,-1.22746 -1.52063,-0.20802 -1.80219,-0.33633 -2.00131,-2.40156 v -0.19493 c 0,-0.73044 -0.081,-1.46814 -0.22856,-2.19272 -0.57464,-3.86313 -2.79755,-6.77982 -5.84613,-7.55393 -2.77961,-0.70582 -5.62912,0.70177 -12.59837,6.22204 -5.50334,4.35915 -9.43364,6.65568 -12.534545,7.32536 -0.923864,0.19952 -1.458091,0.1987 -1.978099,-0.15314 -0.03494,-0.0245 -0.06893,-0.0469 -0.10442,-0.0732 -0.310556,-0.23906 -0.624442,-0.60487 -1.022123,-1.14277 l -1.165984,-1.57784 c -0.0014,-0.18814 0.02329,-0.4025 0.07314,-0.64738 l 1.05693,-2.38997 c 1.912371,-4.32321 2.191343,-12.48721 0.581237,-17.0372 -2.276708,-6.43375 -7.19579,-10.65343 -14.20289,-12.18535 -1.515097,-0.33123 -2.416411,-0.35008 -2.718298,-0.0406 -0.228928,0.004 -0.396774,0.022 -0.396774,0.0719 0,0.0274 0.05336,0.10758 0.128799,0.21117 -0.17138,0.27663 0.143062,0.73768 0.95251,1.41077 0.273432,0.31943 0.608934,0.6754 1.023274,1.0778 2.4805,2.40903 4.163564,6.01083 4.747443,9.6666 0.02086,0.14916 0.0474,0.29727 0.06501,0.44667 0.01219,0.0951 0.02235,0.19028 0.03359,0.2854 0.137847,1.32088 0.145635,2.64074 0.02316,3.90516 -0.08329,0.69445 -0.214314,1.37211 -0.397939,2.02335 -0.158866,0.56338 -0.30037,1.0493 -0.438542,1.4885 -0.109568,0.2622 -0.218702,0.52541 -0.345741,0.77733 -0.342667,0.67951 -0.604777,1.19425 -0.872453,1.57436 -0.92702,0.76308 -2.429047,0.43807 -5.775363,-0.40027 -6.470854,-1.62108 -16.166406,-1.7346 -21.419202,-0.2506 -0.304709,0.0861 -0.545783,0.14824 -0.822563,0.22392 -0.365363,0.0852 -0.699583,0.17686 -1.010514,0.2738 -3.786907,0.96807 -4.603701,0.65115 -5.75332,-1.2994 -0.128434,-0.2179 -0.245957,-0.44385 -0.358498,-0.67406 -1.116937,-2.4846 -1.40272,-5.69475 -0.984988,-8.84635 0.558792,-3.36043 2.036358,-6.68755 4.303097,-9.11087 0.60702,-0.64896 1.105336,-1.25499 1.509393,-1.79132 0.85881,-0.71667 1.14893,-1.19987 0.838809,-1.43166 7.67e-4,-0.0427 -0.0057,-0.0787 -0.02669,-0.0998 -0.147945,-0.14794 -0.489424,-0.20508 -0.965267,-0.18795 z m 122.969507,1.50359 0.0173,0.28076 c -0.10442,-0.0245 -0.20695,0.003 -0.30513,0.10092 -0.39548,0.39547 0.80435,8.81107 1.38526,9.71648 0.13395,0.20885 0.24727,0.21615 0.34109,0.0778 0.0669,0.13846 0.1246,0.21927 0.16707,0.21927 0.13712,0 0.14626,-0.67762 0.0882,-1.61497 0.0565,-1.02391 0.008,-2.45691 -0.1833,-3.991 -0.31034,-2.48376 -0.88458,-4.22298 -1.42007,-4.48525 z m -12.97889,0.89101 c -0.46928,0 -3.65921,5.37855 -3.65921,6.16983 0,1.14128 1.33861,0.023 2.64869,-2.21246 1.55265,-2.64942 1.88667,-3.95737 1.01052,-3.95737 z m -114.127813,0.12067 c 0.70745,-0.0445 0.866924,0.37554 0.06265,1.39801 -0.657012,0.83524 -1.642255,2.90687 -2.189257,4.60359 -0.546993,1.69672 -1.416014,3.41904 -1.931693,3.82742 -0.824296,0.65278 -4.31686,0.94601 -5.718512,0.59865 -0.29927,-0.18167 -0.507808,-0.41664 -0.604454,-0.70654 0.144262,-1.30534 2.242136,-4.5423 4.197525,-6.25917 0.203538,-0.1787 0.411079,-0.35057 0.619529,-0.51859 0.178719,-0.14337 0.360808,-0.28346 0.544126,-0.42115 0.05457,-0.0409 0.108959,-0.084 0.163584,-0.12414 0.150077,-0.1105 0.303285,-0.21613 0.455951,-0.32252 0.110367,-0.0765 0.221993,-0.15562 0.331809,-0.22856 0.02674,-0.0177 0.05221,-0.0346 0.07889,-0.0522 1.634248,-1.07423 3.175438,-1.74358 3.989851,-1.79479 z m 34.719472,0.47334 c 1.473451,0 4.286473,1.62136 6.879845,3.96433 1.562459,1.41159 2.306667,2.39033 2.279756,3.06751 -0.03508,0.4109 -0.328894,0.7127 -0.87825,0.92351 -0.383528,0.14712 -1.221742,0.27476 -2.086,0.33065 -1.099092,0.0295 -2.21151,-0.11315 -2.680011,-0.42463 -0.361046,-0.24001 -0.978688,-1.42191 -1.371332,-2.62664 -0.392643,-1.20473 -1.252283,-2.87538 -1.910814,-3.71257 -1.028841,-1.30797 -1.061224,-1.52216 -0.233194,-1.52216 z m 9.801176,8.80576 c 0.27652,-0.002 0.500883,0.0927 0.704227,0.3028 0.354179,0.65702 0.696466,1.79739 1.072004,3.54319 0.252561,1.17408 0.420976,2.19445 0.516283,3.08607 0.05404,1.33772 -0.0054,2.58225 -0.204197,3.41439 -0.190397,0.48051 -0.47075,0.82134 -0.848088,1.02328 -1.639712,0.87754 -4.809243,0.71889 -6.760349,-0.33876 -0.182176,-0.0987 -0.344035,-0.19122 -0.487273,-0.27961 -0.0014,-8.1e-4 -0.0027,-10e-4 -0.0041,-0.002 -0.311043,-0.30131 -0.523325,-0.61158 -0.649701,-1.05227 -0.08329,-0.36343 -0.130289,-0.79499 -0.147341,-1.31217 0.0081,-0.0354 0.01219,-0.063 0.01978,-0.0998 0.222264,-1.01201 0.4049,-3.13371 0.4049,-4.7138 v -2.8726 h 2.485104 c 1.181667,0 2.42252,-0.24857 3.000209,-0.57777 0.230051,-0.028 0.436632,-0.0563 0.580086,-0.0846 0.113224,-0.0224 0.219028,-0.0352 0.317896,-0.036 z m -53.734776,2.21709 c 0.267547,0.0211 0.504256,0.0326 0.836491,0.0719 0.19629,0.0233 0.39374,0.0407 0.589366,0.0546 0.02733,0.003 0.0551,0.008 0.08237,0.0104 0.148218,0.0194 0.328144,0.0325 0.560361,0.0325 0.128827,0 0.223377,-0.008 0.327175,-0.015 0.55249,-0.004 1.0678,-0.0455 1.511711,-0.123 1.265034,0.1003 1.723183,0.33277 1.72402,0.78893 8.62e-4,0.4692 0.427587,2.5499 0.947864,4.62446 0.618109,2.46463 0.797892,3.74729 0.158945,4.70801 -0.131739,0.13334 -0.27618,0.27467 -0.444344,0.43506 -0.194836,0.18584 -0.426945,0.37841 -0.670585,0.56965 -0.529008,0.33667 -1.205183,0.67408 -2.06976,1.06737 -1.734975,0.78922 -3.329792,1.15174 -4.326299,1.05227 -0.201424,-0.0399 -0.383719,-0.0992 -0.551081,-0.17286 -0.17638,-0.0957 -0.331619,-0.22759 -0.467551,-0.3991 -0.62136,-1.34855 -0.997737,-6.74477 -0.642739,-9.58887 l 0.28076,-2.25539 c 0.374118,-0.58727 1.023611,-0.79326 2.15329,-0.86085 z m 46.298045,8.91481 c 3.51e-4,10e-5 7.98e-4,-1.1e-4 0.0011,0 0.319765,0.18299 0.633786,0.35646 0.937434,0.51048 l 0.603287,0.48843 c 0.9081,0.7353 1.805689,1.00211 3.500252,0.98034 0.522541,0.0389 1.049143,0.0207 1.582477,-0.0638 3.042749,-0.15511 3.096219,0.26244 1.663697,4.46668 -0.519235,1.5239 -1.743455,3.4424 -2.719449,4.26366 -2.100858,1.76776 -3.528112,1.84737 -6.732517,0.37589 -2.530652,-1.16207 -4.246127,-2.77239 -4.506124,-4.22884 -0.08207,-0.4599 1.0369,-2.03784 2.530341,-3.60352 0.219867,-0.2073 0.423359,-0.41789 0.623019,-0.64042 z m -18.019881,0.31092 c 0.374838,0.005 0.744259,0.0198 1.116092,0.0313 l -1.609169,2.73803 c -1.243466,2.11537 -1.580657,3.18913 -1.645131,5.99695 -0.02568,0.49758 -0.02875,0.99993 -0.0094,1.50475 0.04354,5.24601 1.709047,9.02147 5.249802,11.8895 1.367913,1.10803 2.041148,1.55524 3.80886,1.78319 1.012169,0.27897 2.224675,0.33849 4.390109,0.27843 0.157471,0.003 0.319805,0.001 0.480324,0.001 0.246142,0.001 0.491606,6.7e-4 0.742502,-0.004 10.201822,0.12406 17.400281,-2.9636 20.348338,-8.78138 0.81577,-1.60985 2.03215,-3.10157 2.70323,-3.31462 0.6711,-0.21299 3.92183,-2.39863 7.22441,-4.8565 4.95316,-3.68627 7.37045,-5.39104 9.02386,-6.15127 0.83991,-0.34398 1.56631,-0.51154 2.29135,-0.55804 0.0927,-0.006 0.18561,-0.007 0.27844,-0.009 4.75213,0.0723 7.20487,8.03868 4.29497,14.04975 -0.49944,1.03173 -1.14807,1.98541 -1.92705,2.8552 -0.008,0.009 -0.0171,0.0186 -0.0255,0.0279 -0.2061,0.21857 -0.41391,0.43676 -0.63694,0.65433 -0.13259,0.12934 -0.26074,0.24556 -0.39098,0.36894 -2.823,2.54148 -6.90761,4.1901 -11.67718,4.76021 -1.52947,0.0978 -3.26649,0.13714 -5.31014,0.1334 -0.31466,-5.5e-4 -0.57229,0.005 -0.87477,0.006 -0.7977,-0.0549 -1.60313,-0.12784 -2.42013,-0.23783 -3.692837,-0.49699 -5.216101,-0.54394 -5.125656,-0.0569 -0.04754,0.0284 -0.07896,0.0598 -0.07896,0.0986 0,0.21399 0.239573,0.39433 0.569645,0.46524 0.08763,0.0719 0.154925,0.13596 0.265685,0.21696 1.256008,0.91841 2.555386,6.59089 3.021106,13.18309 0.18463,2.61364 0.46493,6.15545 0.62186,7.87064 l 0.25639,2.80879 -0.007,0.14735 -2.706697,0.16241 h -1.382938 c -7.038833,0 -13.155183,1.71007 -30.932645,8.64682 l -1.966496,0.76687 c -2.124907,0.67345 -3.870646,1.1355 -4.864628,1.25995 -0.240615,0.0301 -0.545617,0.0529 -0.886372,0.0719 l -7.726785,-0.38518 c -3.665801,-0.18278 -7.915692,-0.34406 -11.232833,-0.43855 -4.313315,-0.23597 -7.025682,-0.20852 -8.748901,0.065 -1.310833,0.0855 -2.462656,0.19856 -3.130158,0.32948 l -2.221736,0.43507 c -0.151331,-0.4584 -0.184927,-1.57817 -0.194913,-3.24618 0.0067,-0.2077 0.02376,-0.55768 0.03249,-0.78891 l 0.163585,-2.86797 c 0.77819,-13.62514 2.675721,-22.13183 6.886812,-30.87464 1.573625,-3.26704 3.641994,-6.84712 4.595464,-7.95534 1.513119,-1.75868 1.894978,-1.92866 3.001377,-1.33653 0.7005,0.37491 1.498725,0.55641 2.343564,0.59053 0.234383,0.0499 0.445554,0.0818 0.60561,0.0813 0.282066,-0.001 0.655688,-0.0764 1.077804,-0.19607 4.950818,-0.8344 10.390158,-5.74952 7.709382,-8.71177 -0.958372,-1.05898 -0.889514,-1.13726 1.580157,-1.80872 2.523583,-0.68612 7.618065,-1.44889 10.849983,-1.66718 0.18849,-0.009 0.402881,-0.0219 0.573124,-0.0302 0.542463,-0.005 1.085496,-0.009 1.626568,-0.002 z m 3.855272,0.60677 c 0.434894,0.0179 0.966533,0.0744 1.657893,0.15779 1.66512,0.20082 4.057017,0.65402 5.315936,1.00703 l 2.215938,0.62186 c 0.01801,0.0147 0.03521,0.0294 0.05106,0.044 l -1.335373,1.4212 c -1.31373,1.3984 -1.325758,1.51091 -0.378206,3.49795 2.144455,4.49686 9.723137,7.04844 12.76311,4.2973 0.251478,-0.2276 0.442578,-0.39086 0.605602,-0.51397 0.273649,-0.1288 0.480583,-0.16741 0.66594,-0.11946 0.09521,0.10578 0.180184,0.28292 0.283089,0.55109 0.279093,0.72723 0.130289,0.88859 -0.570809,0.61953 -0.587292,-0.22538 -0.856851,-0.0936 -0.710024,0.34689 0.0041,0.014 0.0153,0.0268 0.02085,0.0406 -0.02046,0.0477 0.02424,0.1139 0.111328,0.19376 0.689248,0.912 3.46879,1.46742 5.797412,1.09405 l 1.608007,-0.25756 h 0.08708 c 0.161006,0.0549 0.275653,0.12988 0.352689,0.22275 l -0.755273,1.51403 c -0.255799,0.51275 -0.645204,1.03851 -1.128847,1.56044 -0.116746,0.12108 -0.234792,0.24339 -0.361981,0.37241 -1.78949,1.75077 -4.652623,3.40583 -7.603804,4.28222 -1.885312,0.55988 -5.286222,1.02451 -8.260468,1.23674 -0.446586,0.005 -0.858041,0.0198 -1.336524,0.0198 -1.542577,0 -2.718989,-0.005 -3.681236,-0.0313 -0.04212,-0.008 -0.09643,-0.014 -0.134623,-0.0232 -0.653412,-0.1584 -1.768228,-0.41225 -2.478144,-0.56267 -1.753027,-0.37175 -4.729942,-2.95963 -5.863529,-5.08274 -0.0233,-0.0445 -0.04671,-0.0887 -0.06961,-0.1334 -2.201398,-4.32598 -1.982798,-11.32435 0.47335,-14.7737 0.197383,-0.27719 0.366379,-0.49705 0.52672,-0.69379 0.566634,-0.48917 1.255074,-0.79094 2.13241,-0.90957 z m -23.499395,0.39795 1.549995,1.55115 c 0.748946,0.74896 1.569417,1.37755 1.964179,1.51984 0.257017,0.26326 0.504737,0.52111 0.687989,0.74482 -0.02716,1.05466 -1.113038,3.03098 -2.554709,4.19405 -1.436354,1.15878 -3.061949,1.84867 -4.752087,2.01639 -1.057541,0.10482 -1.770491,0.1467 -2.34936,0.0255 -0.0011,-2.3e-4 -0.0024,2.5e-4 -0.0035,0 -0.963783,-0.20295 -1.557305,-0.85945 -2.761223,-2.42708 -1.461499,-1.90304 -1.708013,-3.33451 -0.57429,-3.339 1.882278,-0.008 5.327868,-1.3698 6.977311,-2.75773 z m -36.520065,1.78783 c 2.127445,0.0526 4.843119,0.76247 7.776672,2.1556 0.835488,0.39678 1.574163,0.7715 2.239141,1.12074 0.986242,0.60423 1.673643,1.11112 1.686895,1.30404 0.01246,0.18193 -0.363682,0.52784 -0.930458,0.91654 -0.507421,0.2768 -1.092006,0.57816 -1.756513,0.88753 -2.137031,0.99491 -4.146819,1.44875 -6.385617,1.43979 -4.7602661,-0.0178 -7.12813,-1.62013 -7.12813,-4.8217 0,-2.05157 1.7627272,-3.07015 4.49801,-3.00254 z m -6.087452,4.14647 0.768038,1.46763 c 2.0447635,3.90254 9.410362,4.69787 15.421079,1.66601 l 3.479372,-1.75535 4.89131,3.09188 c 2.586039,1.63487 4.710619,3.14239 4.886666,3.45848 -0.03106,0.16918 -0.09524,0.39682 -0.182148,0.66246 -0.215465,0.48768 -0.568908,1.17247 -0.994273,1.8934 -0.842354,1.42771 -1.934728,2.31141 -3.415561,2.76356 -1.19742,0.36561 -5.118011,0.77898 -8.711776,0.91885 -7.07354,0.2753 -8.71348,-0.13219 -12.6668101,-3.14755 -2.7066887,-2.06452 -4.5030013,-6.14593 -3.9654918,-9.01111 l 0.3654582,-1.94677 c 0.039737,-0.0287 0.081262,-0.0493 0.1241408,-0.0615 z m 124.659907,5.63151 2.52687,0.2529 c 1.98042,0.19765 3.67163,0.41511 3.75896,0.4838 0.0873,0.0688 -0.76918,1.66545 -1.90269,3.54783 -9.418,15.64016 2.96815,32.98964 23.5516,32.98964 10.47123,0 18.29319,-5.34546 21.15816,-14.45929 l 1.09056,-3.46893 3.31696,3.665 c 3.87059,4.27717 7.0354,10.00744 8.53425,15.45124 0.68351,2.4821 1.04077,6.55958 1.08012,10.74441 -4e-4,0.38407 0.001,0.71935 0,1.1358 -0.001,0.47952 -0.006,0.86198 -0.009,1.29708 -1.3e-4,0.005 1.3e-4,0.0122 0,0.0173 -0.0802,3.87736 -0.43922,7.59895 -1.07548,9.97173 -1.50306,5.60528 -5.22133,12.86273 -8.57952,16.74369 -1.95145,2.2552 -3.05018,4.13076 -3.3065,5.6431 -0.21116,1.24586 -3.32109,8.14539 -6.91002,15.3329 -6.50512,13.02785 -7.18481,14.97206 -8.0087,22.89147 l -0.32949,3.1696 c -0.0351,0.0274 -0.07,0.06 -0.10795,0.0732 -0.0463,0.016 -0.15665,0.0328 -0.29816,0.0499 l -8.68392,0.0928 -9.07722,0.0975 0.27031,-14.10662 c 0.17297,-9.02161 0.0109,-16.34403 -0.45014,-20.3147 -0.39669,-3.41474 -0.80608,-6.29442 -0.90958,-6.39837 -0.10353,-0.10405 -1.37689,0.71834 -2.82969,1.82728 -5.01804,3.83035 -13.90268,5.7595 -26.58198,5.77072 -10.43279,0.009 -13.66224,-0.43587 -13.66224,-1.88297 0,-0.62707 -0.22767,-0.99984 -0.50699,-0.8272 -0.0443,0.0273 -0.0921,0.16642 -0.1404,0.3527 -0.34489,0.014 -0.45754,0.51002 -0.25523,1.14741 0.0122,0.04 0.0194,0.11498 0.0302,0.16706 -0.18897,1.46254 -0.37285,3.73156 -0.48613,6.23944 -0.38289,8.47397 -2.124566,18.73882 -4.321652,25.46937 -0.80017,2.45129 -2.054836,5.61307 -2.787899,7.02604 l -1.207751,2.32731 c -0.113902,0.0834 -0.230323,0.14146 -0.349208,0.17403 l -2.746145,-0.82025 c -1.633522,-0.48827 -5.242137,-1.35118 -8.019147,-1.91778 l -4.670867,-0.95365 c -0.146813,-0.0942 -0.275965,-0.19603 -0.385181,-0.30397 l -0.165909,-5.00849 -0.09047,-2.75427 0.0095,-2.56051 2.859828,-2.50249 c 3.274075,-2.86406 4.551183,-5.69531 3.96897,-8.79879 -0.468676,-2.49828 -3.173011,-5.4571 -5.444708,-5.95867 -2.899173,-0.64011 -3.209052,-0.80692 -3.209052,-1.72519 0,-0.54726 0.966472,-1.13117 2.524544,-1.52446 4.912946,-1.24016 11.491404,-3.67434 15.962883,-5.90763 20.021744,-9.99988 29.098644,-29.55432 21.384384,-46.07064 -0.0723,-0.15498 -0.14384,-0.28539 -0.21578,-0.43506 -0.10228,-0.21775 -0.20867,-0.4302 -0.31674,-0.6416 -1.98799,-3.95087 -3.90017,-5.98417 -7.08404,-7.5864 -1.56839,-0.78925 -2.91463,-1.45399 -2.99209,-1.4769 -0.0773,-0.0231 -0.4146,-3.76522 -0.74948,-8.31615 -0.33488,-4.55093 -0.94919,-9.88277 -1.36437,-11.8489 l -0.69378,-3.28677 c 0.11593,-0.14016 0.37819,-0.22948 0.79124,-0.2912 l 5.99812,-0.0221 c 5.73556,-0.0212 7.4259,-0.25129 10.38473,-1.41308 4.11316,-1.61506 8.88097,-5.7853 9.92997,-8.68626 l 0.33297,-0.92235 c 0.42762,-0.50149 0.87232,-0.80535 1.46066,-0.96062 z m 8.96932,1.23326 c 0.2842,-0.008 0.65868,0.0176 1.072,0.0592 l 4.10471,0.96062 c 11.89747,2.7821 22.07827,7.03644 30.14606,12.59836 2.22921,1.53681 3.46269,2.50427 3.98868,3.55711 0.10564,0.34004 0.16456,0.70998 0.20187,1.15321 0.0341,0.40517 0.0182,0.82575 -0.0197,1.25299 -0.13939,0.6663 -0.38361,1.43535 -0.72163,2.38301 -1.80667,5.06511 -6.38591,9.55802 -11.62614,11.40687 -2.63354,0.92911 -8.86518,1.5497 -11.27693,1.12304 -14.27769,-2.52587 -21.98014,-9.59335 -22.08049,-20.26017 -0.0482,-5.11919 1.27394,-9.36679 3.83903,-12.33152 l 1.04416,-1.20659 0.55572,-0.53253 c 0.0968,-0.0424 0.19308,-0.0847 0.28541,-0.10794 0.12663,-0.0318 0.29052,-0.05 0.48727,-0.0556 z m -64.120682,19.8019 c -0.286664,0.0217 -0.455269,0.12379 -0.50003,0.27845 -0.405983,0.11742 -0.265238,0.37189 0.425784,0.75296 0.215235,0.18898 0.507168,0.39206 0.894501,0.60213 0.908127,0.49249 2.007719,0.90654 2.443322,0.92001 1.394303,0.0419 0.378423,-1.38176 -1.546518,-2.16721 -0.748013,-0.30522 -1.333354,-0.41539 -1.717059,-0.38634 z m 1.431655,4.50498 c -0.991677,-0.024 -2.105029,0.15152 -2.901598,0.48148 -1.949663,0.80757 -4.072107,3.68203 -4.075701,5.52011 -0.0042,2.06457 1.863038,5.03002 3.753174,5.96216 2.345171,1.15648 2.908694,1.16913 5.431951,0.11484 5.557785,-2.3222 4.649577,-10.87594 -1.27272,-11.98696 -0.287356,-0.0538 -0.604533,-0.0837 -0.935106,-0.0917 z m -35.142927,0.44783 c -0.206028,0 -0.56136,0.15801 -0.959464,0.38633 -0.51537,0.26476 -1.087653,0.64379 -1.58364,1.08013 -2.235911,1.96715 -0.499051,2.00106 1.896885,0.0371 1.319589,-1.08166 1.521392,-1.46582 0.776164,-1.48155 -0.01083,-2.3e-4 -0.0258,0.003 -0.03712,0.004 -0.02175,-0.0154 -0.05127,-0.0255 -0.09281,-0.0255 z m 35.588445,2.37603 c 0.490062,0 0.891006,0.40096 0.891006,0.89103 0,0.17368 -0.03088,0.31515 -0.07543,0.4397 -0.1812,0.16382 -0.412688,0.28983 -0.667104,0.33877 -0.07287,0.0141 -0.13843,0.0196 -0.203033,0.0244 -0.142994,-0.0628 -0.291106,-0.15884 -0.439707,-0.30746 -0.214409,-0.21438 -0.326984,-0.42828 -0.365461,-0.62416 0.0081,-0.16326 0.03698,-0.32763 0.105641,-0.48611 0.141314,-0.16874 0.394999,-0.27613 0.754122,-0.27613 z m -33.092899,1.38641 c -1.739394,-0.0501 -3.518862,0.61687 -4.88783,2.2438 -0.108376,0.1288 -0.201352,0.26401 -0.298164,0.39794 -0.03252,0.0448 -0.06838,0.0865 -0.09977,0.13232 -0.138102,0.20126 -0.261763,0.40791 -0.374739,0.61838 -1.655775,3.0848 -0.637985,7.05234 2.518743,8.78833 0.613945,0.33764 1.375669,0.54103 2.182295,0.62072 0.771471,0.14723 1.550267,0.11389 2.316873,-0.10443 0.975277,-0.18124 1.880603,-0.53173 2.534989,-1.04647 0.852964,-0.67093 1.855341,-2.23709 2.227541,-3.47939 1.341811,-4.47854 -2.293268,-8.06076 -6.119933,-8.17113 z m -1.746072,3.49795 c 0.0782,0.0179 0.149715,0.0433 0.220438,0.0696 0.140412,0.0589 0.26841,0.13816 0.378219,0.23205 0.05228,0.11377 0.08469,0.25025 0.08469,0.40838 0,0.26072 -0.107875,0.49632 -0.280759,0.66709 -0.43203,0.24436 -1.039316,0.20201 -1.331886,-0.14037 -0.114809,-0.40728 0.212555,-1.00055 0.907257,-1.23211 0.0074,-0.003 0.0146,-0.003 0.02205,-0.004 z m 55.926351,3.86339 c 7.662949,-0.0619 11.587729,2.09354 14.613589,8.02377 4.26195,8.35279 4.15669,18.25802 -0.28888,27.0426 -6.32378,12.49594 -20.816759,21.4375 -41.649206,25.69676 -6.94767,1.42046 -19.683637,2.02414 -24.948455,1.18222 -16.526878,-2.64296 -28.145421,-12.69224 -30.398967,-26.29194 -0.07225,-0.43602 -0.127594,-0.87424 -0.175187,-1.31332 -0.0111,-0.77948 -0.01741,-1.63627 -0.01741,-2.6951 0,-1.05238 0.007,-1.90744 0.01972,-2.68812 0.802861,-7.52288 4.842169,-14.532 10.552971,-17.38411 2.096264,-1.04691 3.881998,-1.69535 6.180267,-2.01987 1.576256,-0.0674 3.756013,-0.0249 7.304475,0.0742 1.535891,0.0429 3.511749,0.0769 5.373943,0.11485 0.630674,0.0497 1.186864,0.0886 1.871366,0.14618 8.176293,0.68893 12.258856,0.88162 16.422309,0.0487 l 0.503519,0.003 1.074322,0.0244 2.12429,-0.88175 2.152125,-0.87245 c 1.421028,-0.51954 2.97815,-1.13048 4.797333,-1.86555 10.991292,-4.44125 18.138704,-6.29266 24.487857,-6.34386 z m -3.006019,6.21158 c -0.439882,-0.006 -0.887472,0.0182 -1.340005,0.079 -0.977118,0.1311 -1.815765,0.4155 -2.519898,0.81329 -0.01774,0.009 -0.03576,0.0192 -0.05336,0.029 -0.0455,0.0263 -0.08912,0.0538 -0.133405,0.0813 -0.599048,0.35604 -1.123795,0.82233 -1.538392,1.41426 -0.02681,0.0383 -0.04523,0.0806 -0.07083,0.11946 -0.09548,0.14288 -0.183448,0.28981 -0.263356,0.44085 -0.01219,0.0238 -0.02302,0.0479 -0.03481,0.0719 -0.496523,0.97571 -0.670774,2.10488 -0.518598,3.26938 0.0027,0.0185 0.0041,0.0371 0.0068,0.0556 0.303011,2.17157 1.74072,4.45257 4.370389,6.05612 1.125745,0.68648 2.942906,1.11955 4.702194,1.12074 2.378665,0.001 3.163129,-0.29284 4.603579,-1.73331 0.25239,-0.25239 0.46723,-0.51746 0.65783,-0.78892 0.028,-0.0372 0.0566,-0.0736 0.0836,-0.11133 0.65333,-0.91784 0.98016,-2.03559 0.86549,-3.26472 -0.22091,-3.74872 -4.085394,-7.57528 -8.817356,-7.65254 z m 47.211098,0.80285 c -4.65544,-0.0582 -8.70664,1.60752 -12.09137,4.99224 -4.99342,4.99342 -6.19834,14.04627 -2.79486,21.00269 1.39221,2.84561 3.6949,5.44945 6.57008,7.62237 0.0956,0.0734 0.19076,0.14707 0.28772,0.21927 0.25157,0.18505 0.51049,0.36352 0.77036,0.54181 0.19652,0.13475 0.39103,0.27145 0.59285,0.40142 3.81617,2.48301 8.42965,4.24179 13.24807,4.88085 1.42567,0.18907 3.56626,0.28236 5.7568,0.29587 1.54175,0.0577 2.97348,0.0305 4.28221,-0.0869 1.53194,-0.0758 2.84961,-0.1942 3.57798,-0.36314 3.01567,-0.69943 4.8008,-2.04492 6.46916,-4.94004 0.5447,-0.78545 0.95592,-1.61134 1.28664,-2.56631 1.58186,-3.69301 1.75002,-6.82435 0.68102,-10.93351 -1.95015,-7.49624 -7.23431,-13.12563 -16.70771,-17.8006 -4.32202,-2.13285 -8.30804,-3.22066 -11.92895,-3.26589 z m -47.43733,0.45014 c 6.37521,-0.24757 10.90543,7.92275 5.310125,10.26062 -0.794725,0.33206 -1.303057,0.54159 -1.744905,0.65085 -0.618657,0.0443 -1.262996,6.4e-4 -1.909648,-0.12297 -0.340758,-0.0877 -0.682734,-0.17949 -1.184539,-0.32485 -0.06244,-0.0181 -0.127851,-0.0462 -0.191426,-0.0684 -0.09467,-0.0342 -0.189231,-0.0683 -0.283088,-0.10564 -2.068204,-0.88829 -4.60881,-3.67969 -5.017773,-5.49343 -0.03034,-0.20075 -0.04876,-0.40435 -0.05458,-0.61025 0.07571,-2.14302 1.860364,-3.81277 4.453912,-4.13487 0.209208,-0.026 0.416209,-0.0431 0.621855,-0.051 z m 100.35302,0.12298 1.65093,5.34842 c 3.85478,12.49535 5.59484,28.02208 4.0583,36.20565 -0.84125,4.48041 -2.17215,6.13888 -1.45137,1.80871 1.17417,-7.05404 -0.054,-15.36328 -3.34481,-22.62113 -1.65475,-3.64951 -1.66655,-3.75504 -1.29127,-12.21086 l 0.0209,-0.47916 c 0.004,-0.0971 0.009,-0.18802 0.0122,-0.28541 z m -52.99575,0.90377 c 5.06083,-0.0164 10.03209,1.59601 15.63572,5.06997 8.10699,5.02594 12.208,11.24606 12.2538,18.58488 0.0295,4.71046 -1.37923,8.37818 -4.2567,11.08203 -1.8836,1.7699 -1.94815,1.78307 -9.4334,1.90385 -8.65371,0.13971 -12.68553,-0.64048 -18.03147,-3.48981 -11.39366,-6.07277 -14.96002,-19.6358 -7.41703,-28.20508 3.19093,-3.62511 6.15574,-4.93012 11.24908,-4.94584 z m -108.571711,4.19172 c -1.039753,2.4e-4 -2.146471,0.26373 -3.247334,0.83301 -5.176935,2.6771 -6.857195,10.84112 -2.81459,13.6727 4.528187,3.17166 11.691595,-2.03839 11.699228,-8.50875 3.15e-4,-0.2686 -0.01861,-0.52756 -0.04525,-0.78197 0.04068,-1.24951 -0.179652,-1.86971 -0.953666,-2.74729 -0.435339,-0.66501 -0.992688,-1.21292 -1.643973,-1.62077 -0.820299,-0.68464 -1.430443,-0.87898 -2.461896,-0.81444 -0.17638,-0.0158 -0.351762,-0.0325 -0.532524,-0.0325 z m 0.433906,1.53841 c 2.513777,0 3.827503,1.99531 3.95505,4.39475 -0.01833,0.30923 -0.04412,0.6526 -0.07657,1.04415 -0.03466,0.41789 -0.07406,0.77868 -0.117179,1.11378 -0.467766,2.07746 -1.748322,4.1146 -3.844824,5.19874 -2.662346,1.37674 -4.537359,1.1543 -6.00972,-0.71351 -3.057933,-3.87919 0.894139,-11.03791 6.093249,-11.03791 z m 68.943535,13.34898 c -0.36726,-0.0137 -0.65127,0.17219 -0.83068,0.52905 -0.45354,0.0171 -0.58271,0.0836 -0.35617,0.27612 0.0295,0.0809 0.0887,0.18183 0.1833,0.30744 -0.0576,0.38614 -0.0501,0.86303 0.0429,1.43631 0.61752,3.8053 -2.582946,9.58328 -6.78473,12.24799 -1.51973,0.96378 -3.379728,1.75187 -4.132549,1.75187 -0.524491,0 -0.8643,0.0267 -1.068524,0.1485 -0.218865,-0.0806 -0.291527,0.0264 -0.214626,0.33878 -0.06068,0.32226 0.0493,0.84647 0.288885,1.74026 0.06812,0.25439 0.153572,0.45885 0.243637,0.64042 0.05661,0.39153 0.315213,0.6961 0.639258,0.6961 0.105098,0 0.191846,-0.0454 0.26104,-0.11946 0.157227,-0.14066 0.263355,-0.4516 0.263355,-0.94902 0,-0.68861 0.763955,-1.34439 2.14749,-1.84468 1.574905,-0.5695 3.14671,-1.65157 4.556017,-3.01414 0.188839,-0.17914 0.370662,-0.36737 0.552241,-0.5569 0.04415,-0.0464 0.08966,-0.091 0.133404,-0.13804 0.220815,-0.23583 0.434223,-0.4788 0.64274,-0.7286 0.03995,-0.0475 0.08112,-0.0936 0.120674,-0.14154 0.122434,-0.14989 0.239695,-0.30399 0.357334,-0.45828 1.994474,-2.56689 3.357404,-5.61269 3.364514,-8.18041 6.9e-4,-0.26058 0.005,-0.48488 0.0122,-0.68566 0.11526,-0.66333 0.24235,-1.05247 0.43971,-1.23442 0.19908,-0.0659 0.47851,-0.0315 0.88985,0.0661 l 0.1543,0.0371 c 0.17163,0.11499 0.2674,0.14081 0.29585,0.0696 l 0.88638,0.21116 -1.28664,-1.34697 c -0.69387,-0.72606 -1.31685,-1.08069 -1.80175,-1.09869 z m 2.69162,8.62825 c -0.30567,-0.0272 -0.63555,0.3342 -0.97223,1.07317 -0.75677,1.66095 -0.0933,2.01653 1.09404,0.58588 0.49897,-0.60132 0.55912,-1.11733 0.17519,-1.50127 -0.096,-0.096 -0.19511,-0.14871 -0.297,-0.15778 z m 38.88334,14.6136 c 0.68767,0.005 0.90891,0.55592 0.98036,1.7275 -0.0122,0.59564 -0.0387,1.26853 -0.0905,2.12312 -0.0672,1.10939 -0.21313,2.22589 -0.41651,3.31232 -0.64001,2.63216 -1.78194,5.47365 -3.0849,7.41004 -0.29027,0.43138 -0.53197,0.83091 -0.74019,1.21934 -0.61484,0.63923 -0.87523,1.49232 -0.95482,3.31232 -0.005,0.0742 -0.006,0.15258 -0.0108,0.22855 -0.004,0.1273 -0.008,0.26135 -0.0122,0.39793 -9.2e-4,0.064 -0.004,0.12257 -0.004,0.18796 -0.003,2.84534 -0.72178,6.08932 -1.53724,7.24995 -1.8e-4,2.4e-4 1.8e-4,9.1e-4 0,10e-4 -0.1998,0.20584 -0.41558,0.35401 -0.64739,0.43043 -0.0778,0.0256 -0.15688,0.0277 -0.23667,0.0197 -0.84863,-0.20552 -1.73246,-2.03837 -2.34471,-4.98759 -0.23047,-1.11019 -0.50144,-2.03832 -0.72975,-2.59996 l -0.005,-0.036 -0.008,0.001 c -0.12664,-0.3047 -0.24283,-0.5246 -0.32136,-0.51745 -0.22186,0.0201 -2.12873,0.36482 -4.23697,0.76689 l -1.97463,0.37705 c -0.0572,0.001 -0.14262,0.006 -0.19144,0.006 -0.24261,0 -0.44477,0.029 -0.62648,0.0836 l -0.75528,0.0789 -0.0452,0.14039 -0.23901,0.0453 -1.01398,3.41208 c -0.5572,1.8769 -1.3367,3.80317 -1.73331,4.28106 -0.26512,0.31945 -0.57562,0.5474 -0.8945,0.68915 -0.13205,0.0285 -0.26924,0.0528 -0.42462,0.0709 -0.25913,0.0297 -0.46382,0.0454 -0.64739,0.0499 -0.21854,-0.0569 -0.41971,-0.1668 -0.58936,-0.33645 -0.61122,-0.61122 -0.47089,-3.46728 0.31556,-6.40765 0.16755,-0.62637 0.28787,-1.2074 0.36894,-1.70431 0.0592,-0.24375 0.0997,-0.43074 0.10093,-0.49192 2.7e-4,-0.0163 -0.0122,-0.0376 -0.029,-0.0592 0.0346,-0.36116 0.0377,-0.64112 -0.0267,-0.7054 -0.15033,-0.15031 -1.01082,-0.33423 -1.96881,-0.43505 -0.14051,-0.0378 -0.26714,-0.0764 -0.4258,-0.11377 -0.1101,-0.0259 -0.19945,-0.0414 -0.29584,-0.0602 -0.50509,-0.1806 -0.95517,-0.31905 -1.17061,-0.31905 -0.0659,0 -0.19838,0.41388 -0.33993,0.99891 -0.31642,0.44412 -0.59868,1.19293 -1.043,2.48859 -0.74902,2.18412 -1.64673,3.56718 -2.41665,4.01653 -0.16599,0.0649 -0.33132,0.10767 -0.49423,0.11716 -0.19843,-0.0245 -0.39769,-0.10443 -0.59981,-0.2332 -0.27887,-0.31059 -0.48703,-0.8808 -0.58706,-1.73446 -0.2442,-2.08412 1.56332,-6.24756 2.7125,-6.24756 0.46773,0 0.74735,-0.20046 0.62185,-0.44551 -1.77201,-3.45756 -2.8151,-6.28654 -3.14292,-8.52499 l -0.31209,-2.13124 -0.0615,-0.60446 7.60149,-0.35501 c 8.5453,-0.39939 13.51929,-1.31586 18.52686,-3.53042 1.02381,-0.41988 1.97595,-0.87057 2.82503,-1.35741 0.001,-9.7e-4 0.003,-0.003 0.004,-0.004 1.66064,-0.82702 2.73966,-1.30736 3.37264,-1.30287 z m 53.69418,4.00724 c 0.084,0.003 0.16678,0.004 0.25176,0.0109 0.0967,0.008 0.1942,0.021 0.2912,0.0336 3.88972,0.60739 4.23237,6.97505 1.03603,11.08317 -0.003,0.003 -0.005,0.005 -0.008,0.009 -0.24313,0.29915 -0.50421,0.59122 -0.78428,0.87129 -0.1752,0.1752 -0.30996,0.29293 -0.47103,0.44898 -0.13517,0.11661 -0.27227,0.23081 -0.41535,0.33993 -1.0421,0.79484 -2.03587,1.44341 -2.21826,1.44907 -0.0213,-0.003 -0.0409,-0.008 -0.0615,-0.0122 -0.60051,-0.16237 -0.9786,-2.87432 -0.9873,-7.12927 -0.008,-4.33105 0.68436,-6.44804 2.35515,-6.97384 0.3048,-0.077 0.64114,-0.11946 1.01169,-0.12988 z m -95.24477,1.19383 3.30418,0.33877 c 4.64541,0.47662 4.5963,0.44367 5.04677,3.30883 0.2227,1.41651 0.82715,3.92717 1.34349,5.57814 0.89874,2.87356 0.88453,3.10647 -0.32136,5.47022 -0.69585,1.36396 -1.06201,2.68173 -1.16482,3.83672 -0.17107,1.07334 -0.0687,1.91816 0.3028,2.50133 0.55783,1.30857 1.77796,1.83264 3.45501,0.9351 1.34173,-0.71808 3.27518,-4.06425 3.27518,-5.66746 0,-0.47897 0.50856,-0.8713 1.13001,-0.8713 0.35017,0 0.58536,0.0182 0.71815,0.13232 0.0516,0.21306 0.0624,0.52632 0.0429,0.95831 -0.0879,0.39914 -0.23882,0.92915 -0.46406,1.67762 -0.45811,1.52208 -0.83302,3.39324 -0.83302,4.15808 0,0.78452 0.49288,1.73968 1.14973,2.49322 0.0755,0.10363 0.16432,0.19001 0.26104,0.26683 0.58579,0.58742 1.25507,1.00587 1.82382,1.00587 0.67566,0 1.40119,-0.39219 2.086,-1.05692 0.46335,-0.30123 0.84182,-0.78137 1.20309,-1.52215 0.59691,-0.95747 1.09617,-2.11542 1.40731,-3.36104 0.42183,-1.68901 0.96072,-2.88504 1.45832,-3.29374 0.035,-0.0241 0.0691,-0.0573 0.10443,-0.0765 0.004,-0.003 0.009,-0.003 0.014,-0.005 0.0711,-0.0377 0.14314,-0.0604 0.2158,-0.079 0.69532,-0.11349 0.79847,0.32257 0.54296,2.22753 -0.29012,2.1631 0.20509,3.57873 1.37133,4.03628 0.16034,0.10113 0.32932,0.16125 0.507,0.16125 0.0287,0 0.0643,-0.0122 0.0963,-0.0174 0.1029,0.0109 0.2088,0.0174 0.31904,0.0174 0.62679,0 1.42929,-0.65987 1.80524,-1.48502 0.86625,-1.90118 1.15665,-1.86487 2.3888,0.30049 0.39886,0.70092 0.85017,1.18401 1.33189,1.45717 0.001,9.5e-4 0.003,0.003 0.004,0.004 0.18617,0.13994 0.37329,0.23072 0.56037,0.28425 l 0.28773,0.33064 0.30628,-0.30048 c 0.16774,-0.0315 0.33351,-0.0977 0.49656,-0.19492 0.44687,-0.17039 0.89914,-0.49514 1.34348,-0.98614 0.76942,-0.85018 1.15269,-2.48527 1.35858,-5.79161 0.0109,-0.16381 0.0236,-0.3076 0.0349,-0.46406 0.004,-0.0428 0.009,-0.0846 0.0122,-0.12758 0.12487,-1.4524 0.2922,-2.61324 0.51279,-3.57916 0.22904,-0.88462 0.52314,-1.56865 0.9119,-2.12079 0.65234,-0.9265 1.69658,-2.93129 2.32035,-4.45509 l 0.82721,-2.01987 c 0.14136,0.35801 0.16922,2.18149 0.16823,5.30781 l -0.20768,9.08884 c -0.4567,19.96745 -0.33299,19.30295 -3.77637,20.26597 -1.5148,0.42364 -3.11,0.87269 -3.54551,0.99775 -0.30711,0.0882 -0.46873,0.0795 -0.49307,-0.0661 0.0259,-0.0692 0.0319,-0.10698 0.065,-0.1891 0.0717,-0.17812 0.12379,-0.35037 0.18563,-0.52556 0.0349,-0.0692 0.0515,-0.11431 0.094,-0.19375 0.70962,-1.32593 0.8478,-4.21339 0.2738,-5.70924 -0.42589,-1.10987 -3.45744,-2.83303 -4.01074,-2.27974 -0.20481,0.20477 -0.3724,0.97816 -0.3724,1.71822 0,0.20144 -0.0442,0.41834 -0.12528,0.64158 -0.42231,0.7988 -1.04928,1.4972 -1.85743,2.08948 -3.75267,2.42459 -10.23442,2.90021 -18.00132,1.2936 -5.26237,-1.08852 -11.40144,-0.83318 -15.604387,0.64969 -1.265597,0.44654 -2.254646,0.77772 -2.531504,0.85274 -0.06433,-0.005 -0.117424,-0.0187 -0.163581,-0.036 0.01679,-0.24285 0.681921,-2.2741 1.578996,-4.80776 2.388917,-6.74721 4.616496,-18.40889 5.045606,-26.41608 l 0.32602,-6.08747 z m 94.36302,1.94096 c -0.29828,0.074 -0.4978,0.7562 -0.4919,1.74261 0.006,1.07008 -0.20181,2.41339 -0.46407,2.98513 -0.13952,0.30409 -0.19233,0.53536 -0.18564,0.70423 -0.16981,0.30612 -0.16801,0.39018 0.0707,0.22972 0.0556,0.0711 0.14005,0.10321 0.2448,0.0986 0.0122,0.001 0.0214,0.006 0.0349,0.006 0.0933,0 0.18626,-0.0417 0.27727,-0.10321 0.0237,-0.0122 0.0487,-0.0328 0.0732,-0.0475 6.8e-4,-4.1e-4 10e-4,-7.4e-4 0.003,-0.001 0.30195,-0.18352 0.64749,-0.53632 0.93045,-1.06505 0.70874,-1.32429 0.57796,-3.79335 -0.15197,-4.41795 v -0.008 l -0.001,0.006 c -0.0643,-0.0549 -0.13191,-0.10009 -0.20535,-0.1242 -0.0463,-0.0151 -0.0908,-0.0174 -0.13341,-0.006 z m 2.85171,0.42116 c -0.32669,0 -0.59397,0.46778 -0.59515,1.03952 -4.4e-4,0.19964 -0.0833,0.51064 -0.19607,0.85388 -0.1467,0.2834 -0.29103,0.58767 -0.4223,0.92815 -0.10176,0.26367 -0.13491,0.33741 -0.23437,0.59284 -0.10848,0.20662 -0.21651,0.41547 -0.33529,0.61027 -0.6522,1.06968 -1.18685,2.06371 -1.18685,2.20898 0,0.14502 0.38093,0.11796 0.84576,-0.0604 1.06217,-0.40761 2.22371,-2.83887 2.54079,-4.52585 0.10269,-0.30528 0.1775,-0.57476 0.1775,-0.73671 0,-0.22068 -0.0437,-0.34976 -0.11837,-0.40375 -0.059,-0.31505 -0.20947,-0.507 -0.47569,-0.507 z m -24.64912,3.11855 c 0.0206,-0.0109 0.0364,-0.009 0.0475,0.001 0.11012,0.11011 -0.62454,2.72777 -1.63352,5.81713 -1.86203,5.70123 -2.46653,11.76406 -1.57088,15.75405 0.0485,0.21594 0.0882,0.40419 0.11837,0.57428 l -0.006,0.85853 c -0.1957,0.51588 -0.91472,0.75863 -2.71481,1.31101 l -2.56748,0.78892 c -0.18635,-0.20065 -0.24846,-0.78101 -0.26916,-1.73447 l 0.19491,-2.09993 c 0.20297,-2.18374 0.88851,-5.48032 1.52331,-7.32536 1.15619,-3.36057 6.24022,-13.62864 6.8787,-13.94533 z m -102.783587,0.536 c 0.820683,0.0185 0.972155,0.62775 1.497782,2.97355 0.385764,1.72155 0.841588,8.53374 1.025605,15.22499 0.08153,3.49829 0.131237,6.17318 0.128799,8.00408 -0.05445,3.53587 -0.232259,4.36368 -0.733224,4.47827 -0.511001,-0.0623 -2.031572,-0.20049 -3.535066,-0.31904 l -1.178737,-0.0928 -1.326081,-0.18215 c -0.005,-0.0108 -0.01704,-0.0205 -0.02088,-0.0313 -0.05005,-0.14206 -0.137467,-0.69629 -0.235514,-1.39685 l -0.06033,-0.67986 v -1.05112 c 0,-3.40099 -2.027566,-19.88356 -2.895802,-23.53885 l -0.189103,-0.79587 c -0.03281,-0.73401 0.0087,-1.21299 0.131102,-1.43863 l 1.992021,-0.30627 c 1.346201,-0.20711 3.288747,-0.52781 4.317021,-0.71236 0.460697,-0.0828 0.808889,-0.14189 1.082448,-0.13575 z m 2.961929,2.44219 1.440945,0.50234 c 2.307115,0.80425 4.255431,3.05367 4.717282,5.28113 0.05336,0.37383 0.08519,0.76579 0.0963,1.17527 -0.03562,1.97751 -0.594442,3.43736 -2.068597,5.21616 -0.183313,0.19869 -0.365718,0.39592 -0.582416,0.623 -0.907558,0.95116 -1.654176,1.60389 -2.128921,1.88878 -0.219514,-0.0742 -0.570403,-2.51192 -0.786599,-5.48765 -0.219569,-3.02201 -0.554164,-6.35984 -0.743667,-7.417 l -0.0027,-0.0109 c -0.04239,-0.99489 -0.04876,-1.69614 0.0095,-1.75417 0.0095,-0.009 0.03183,-0.0122 0.04876,-0.0173 z m 57.403258,7.71401 c 0.0842,6e-4 0.15536,0.0218 0.21927,0.0523 0.17524,0.19186 0.26155,0.52512 0.2796,0.92467 -0.0608,0.60642 -0.34045,1.4513 -0.86666,2.46885 -1.25761,2.43198 -2.06278,2.18777 -2.06278,-0.62417 0,-0.66773 0.0643,-1.27041 0.16706,-1.70314 0.1745,-0.26607 0.38091,-0.50254 0.6149,-0.69609 0.34113,-0.0491 0.83871,-0.18049 1.24836,-0.33763 0.15258,-0.0585 0.28537,-0.0855 0.40025,-0.0846 z m 39.09449,14.58458 c 0.34256,-0.0254 0.53062,0.0367 0.60678,0.18101 -0.025,0.46975 -0.21372,1.37638 -0.49075,2.4642 -0.9045,2.93605 -2.71662,7.48894 -3.41904,8.26512 -0.84911,0.93826 -1.76615,1.23407 -2.68233,0.89796 -0.28603,-0.16205 -0.58404,-0.37301 -0.90032,-0.64506 l -0.70886,-0.61024 c -0.80142,-0.923 -0.76118,-1.20747 0.051,-2.58952 0.52022,-0.88522 1.23603,-2.69304 1.5906,-4.01769 0.58774,-2.19582 0.90783,-2.4927 3.62323,-3.36104 1.12084,-0.3584 1.86525,-0.55043 2.32963,-0.58474 z m -11.07621,2.89001 c 3.82966,-0.0109 3.89976,0.22071 3.6534,1.08824 -0.49287,1.73579 -5.7122,9.30797 -6.92742,10.05063 -1.51471,0.92569 -3.00764,-0.22672 -3.66848,-2.832 -0.11796,-0.46486 -0.23247,-0.82149 -0.34805,-1.12884 -0.0186,-0.82222 -0.20426,-1.1298 -0.56501,-0.89566 -0.39338,-0.1857 -0.83504,0.41805 -1.41658,1.80987 -0.32327,0.7737 -0.83893,1.67473 -1.31215,2.33195 -9e-4,0.001 -0.003,0.003 -0.004,0.004 -0.71193,0.92811 -1.45324,1.48503 -2.08484,1.60918 -1.23393,0.0811 -1.7391,-2.33481 -1.7391,-7.72679 v -3.67892 c 0.11024,-0.10039 2.14255,-0.26853 4.93423,-0.4339 h 0.62185 c 0.12542,0 0.2726,-0.004 0.40142,-0.004 l 1.02212,-10e-4 c 2.4234,-0.003 4.90458,-0.0774 6.78356,-0.18215 0.17208,-0.001 0.48964,-0.009 0.64853,-0.009 z m -84.079217,3.38075 1.50475,0.4606 c 1.061805,0.32474 4.697304,1.18609 8.078319,1.91429 l 5.423825,1.16831 c 0.115256,0.0375 0.260958,0.0774 0.342261,0.11024 -0.0027,0.20735 -0.0688,0.46989 -0.167075,0.75876 l -1.440932,1.87252 c -1.094066,1.42262 -2.558104,2.95915 -3.253136,3.41439 -0.619389,0.40566 -0.952224,0.56957 -1.185703,0.49424 -0.105098,-0.0697 -0.201231,-0.16253 -0.286555,-0.2796 -0.05336,-0.096 -0.106182,-0.20686 -0.161277,-0.35038 -0.203398,-0.53003 -0.368929,-2.01132 -0.368929,-3.2914 0,-0.49691 -0.04808,-0.93305 -0.113765,-1.31218 -0.01666,-0.12406 -0.03481,-0.2264 -0.05458,-0.33064 -0.03278,-0.17331 -0.06487,-0.35016 -0.104422,-0.45828 -0.02655,-0.0729 -0.05472,-0.12866 -0.08357,-0.16706 -0.02858,-0.0378 -0.05796,-0.0592 -0.08817,-0.0592 0,0 -0.0011,0.001 -0.0011,0.001 0,0 -0.0011,-0.001 -0.0011,-0.001 -0.01355,0 -0.04104,0.0192 -0.06027,0.0267 -0.02112,-0.009 -0.04199,-0.0267 -0.06379,-0.0267 -0.313616,0 -1.820303,1.33651 -3.34828,2.97006 -1.134806,1.21319 -2.231988,2.25742 -2.833148,2.71713 -0.209032,0.10537 -0.374779,0.15426 -0.472184,0.12175 -0.120674,-0.0402 -0.234306,-0.10604 -0.341097,-0.1949 -0.516838,-0.80654 -1.041491,-3.01488 -1.246039,-5.19063 -0.01706,-0.38493 -0.03331,-0.7775 -0.04063,-1.20543 -0.03657,-2.13265 0.01516,-2.95491 0.366612,-3.16265 z m -7.894998,0.5685 c 0.164649,-0.0301 0.372647,0.004 0.638093,0.0742 0.653417,0.173 2.169131,0.31804 3.368005,0.32253 l 0.431581,0.003 c 0.82398,0.12258 1.460001,0.22958 1.635838,0.29237 l -0.828354,2.10921 c -0.517149,1.3165 -1.551841,3.0529 -2.299474,3.85991 -0.534159,0.57636 -1.129733,1.06694 -1.551159,1.30636 -0.08087,0.0295 -0.161857,0.0561 -0.240153,0.0755 -0.0042,7.7e-4 -0.0086,10e-4 -0.01273,0.003 -0.02374,0.005 -0.04613,0.008 -0.06961,0.0122 -0.125142,0.0174 -0.24895,0.0195 -0.372415,0.0122 -0.946443,-0.35604 -1.530012,-2.48145 -1.395694,-5.27068 0.09809,-2.03646 0.20216,-2.70809 0.696109,-2.79835 z"
       style="fill:#000000;stroke-width:0.59401083" />
  </g>
</svg>
