<?xml version="1.0" encoding="UTF-8" standalone="no"?>
<svg
   xmlns:dc="http://purl.org/dc/elements/1.1/"
   xmlns:cc="http://creativecommons.org/ns#"
   xmlns:rdf="http://www.w3.org/1999/02/22-rdf-syntax-ns#"
   xmlns:svg="http://www.w3.org/2000/svg"
   xmlns="http://www.w3.org/2000/svg"
   id="svg3804"
   version="1.1"
   viewBox="0 0 210 297"
   height="297mm"
   width="210mm">
  <title
     id="title4395">Easter Basket</title>
  <defs
     id="defs3798" />
  <metadata
     id="metadata3801">
    <rdf:RDF>
      <cc:Work
         rdf:about="">
        <dc:format>image/svg+xml</dc:format>
        <dc:type
           rdf:resource="http://purl.org/dc/dcmitype/StillImage" />
        <dc:title>Easter Basket</dc:title>
        <dc:date>2020-04-05</dc:date>
        <dc:creator>
          <cc:Agent>
            <dc:title>Public domain</dc:title>
          </cc:Agent>
        </dc:creator>
        <dc:source>http://www.supercoloring.com/coloring-pages/easter-basket-with-eggs</dc:source>
        <dc:subject>
          <rdf:Bag>
            <rdf:li>csk</rdf:li>
            <rdf:li>easter</rdf:li>
            <rdf:li>egg</rdf:li>
          </rdf:Bag>
        </dc:subject>
      </cc:Work>
    </rdf:RDF>
  </metadata>
  <g
     id="layer1">
    <path
       id="path4377"
       d="M 162.86705,47.089844 C 146.18881,47.806076 136.51177,64.319673 121.26744,68.710938 110.17149,65.570316 98.109043,68.21058 88.472514,74.185547 72.421303,77.64802 58.307418,66.698015 43.484232,62.619141 c -12.043391,-1.796198 -25.777111,1.03916 -26.810547,9.451171 -2.278543,50.016008 15.757519,62.361308 25.085659,62.427828 -2.830884,9.01853 -13.12016,19.44576 -17.784142,27.4015 -5.107895,7.48563 -12.066837,13.98383 -15.9519067,22.07497 -2.015459,12.71445 5.0941187,24.58006 10.8710937,35.30273 19.018631,29.70239 55.530421,44.94871 90.115241,42.68946 31.95954,-0.94458 64.86277,-16.28936 81.07813,-44.77735 5.97978,-10.637 8.209,-22.86721 11.75,-34.41601 3.08063,-16.16908 -8.75104,-34.59271 -25.90626,-35.35352 -5.36516,-0.67021 -15.05423,1.09659 -15.86718,-6.43554 -1.03382,-15.87732 -9.56838,-31.15277 -18.13867,-43.271489 8.706,2.565759 18.63326,9.182719 27.74609,4.531249 6.75469,-4.793302 5.06322,-14.335534 7.11719,-21.437499 2.71774,-12.391743 -1.60443,-26.390396 -12.63086,-33.359375 l -0.58203,-0.408204 z m -1.6582,5.777344 c 11.76182,5.548281 11.97843,20.756926 9.95312,31.847656 0.50277,6.06947 -2.84887,13.142873 -9.58398,13.708984 -6.13586,0.959783 -10.29975,-4.743689 -16.28198,-4.906887 -6.39664,-0.826129 -15.61437,-4.25668 -13.02661,-12.43491 -0.0705,-3.710042 -4.08259,-6.377998 -4.97071,-9.117187 12.27519,-4.423638 20.46846,-17.163353 33.91016,-19.097656 z M 33.115092,66.583984 c 18.621487,1.253937 34.458246,15.537001 53.58789,13.582032 0.474229,5.448842 -1.205238,12.023877 3.111329,16.365234 -6.519884,5.96066 -16.6228,7.53619 -21.058039,15.86343 -7.219441,7.64701 -12.961977,20.20016 -27.746649,15.94516 C 29.501496,124.56042 27.489775,110.64459 23.343607,100.93945 21.95333,87.214096 17.005064,67.089798 33.115092,66.583984 Z m 78.996098,5.84961 c 8.3832,0.07884 18.76238,8.660484 14.57227,17.59375 C 119.34576,101.67376 98.614083,101.60692 92.327982,89.072266 89.155557,77.799793 102.66855,71.27187 112.11119,72.433594 Z m 18.4336,22.958984 c 14.07839,8.530592 17.85936,25.320472 23.07144,39.680832 1.59328,4.69275 5.44497,11.47662 1.2391,15.63753 -9.13004,-7.39913 -16.58415,-17.49509 -17.92383,-29.46289 -2.27059,-7.85269 -12.55613,-12.50178 -11.15624,-21.337894 0.60975,-1.979298 3.14661,-3.86952 4.76953,-4.517578 z m -33.320327,6.185542 c 7.376967,5.05433 18.340267,-2.033428 24.474617,5.08008 5.97926,9.62375 12.15436,20.2544 14.3418,30.99805 -8.881,0.21571 -11.19478,-10.78201 -18.10938,-14.57031 -5.89622,-2.99943 -12.9014,-2.88749 -19.386557,-3.4828 -9.028291,-0.12313 -18.048521,1.76637 -26.359539,5.266 6.456667,-9.38612 15.009632,-18.37978 25.039059,-23.29102 z m -28.326168,18.70899 c -18.444734,26.46216 -20.379188,59.8893 -22.227106,91.03033 -0.901535,3.94943 -0.696805,7.45498 3.609918,8.39545 12.293219,4.86171 25.837513,5.11085 38.835938,6.36133 31.775435,1.59665 65.190925,-0.92743 93.781255,-15.98633 2.68824,-1.93014 5.00525,-4.31425 7.31641,-6.66797 -10.14364,29.5811 -39.95949,48.62057 -70.0625,52.0332 -29.980353,4.52476 -63.290843,-2.63796 -84.447275,-25.77734 -7.896634,-7.86061 -14.854458,-16.91635 -19.164062,-27.32812 4.337028,4.99807 11.754238,11.65472 18.578125,7.02734 3.138903,-25.29914 2.468943,-51.38932 12.248047,-75.30273 8.943982,-1.38791 15.924845,-7.81059 21.832031,-14.2168 z m 33.554695,5.11328 c 7.86338,-0.0871 19.53229,3.33183 20.49805,12.32422 -5.41802,5.03301 -12.79014,7.58322 -17.75782,13.17383 -4.76435,3.2045 -5.347027,11.56092 -11.494144,12.41992 -5.048137,-3.64592 -11.186945,-7.15838 -17.857422,-6.17578 -4.946656,-0.30965 -9.1496,3.70648 -13.820312,3.26562 -5.127965,-2.82861 -1.615974,-10.07785 -0.371094,-14.40429 2.263641,-7.58423 6.930803,-14.71112 14.876953,-17.21875 8.204358,-3.34903 17.214614,-3.39274 25.925789,-3.38477 z m 32.99414,16.99805 c 7.90039,0.0461 16.82402,10.00617 10.75391,17.1914 -10.85729,8.21744 -17.32006,21.68305 -19.67383,34.97266 -1.28164,6.30534 -0.0381,12.92577 0.65039,19.00781 -3.06812,5.41171 -11.09866,-0.27125 -10.00977,-5.33593 -0.0455,-3.11497 1.04168,-6.01305 -0.39062,-9.23829 -2.62806,-11.33375 -8.48206,-21.97006 -16.1211,-30.5039 3.39497,-13.12613 16.27619,-21.27731 28.1543,-25.62891 2.1874,-0.45491 4.42236,-0.33729 6.63672,-0.46484 z m 37.17969,9.74414 c 17.03424,-0.2592 29.72181,20.11551 21.92578,35.32617 -6.42114,15.74785 -23.68535,23.11461 -39.12791,27.39873 -6.07977,1.2641 -13.11056,4.80683 -19.08498,1.90596 -7.47796,-5.90443 -4.43587,-17.17026 -3.64193,-25.28062 4.40272,-16.87228 16.24246,-33.13682 33.22396,-38.75063 2.22139,-0.33058 4.47077,-0.39183 6.70508,-0.59961 z m -137.242197,4.2168 c -2.411773,15.4805 -3.854505,31.27305 -4.980469,46.77343 -3.911578,4.00333 -10.488376,-3.93683 -11.940941,-7.35128 -3.070487,-5.31059 -2.48248,-14.72279 -0.368217,-19.94377 2.879758,-9.47625 10.36742,-13.71741 17.486893,-20.80651 l -0.146918,0.98915 z m 41.023438,6.36523 c 17.594754,0.93169 29.038859,17.88557 33.763219,33.24238 2.02943,5.13352 2.2335,10.51319 3.09616,15.79863 0.87544,3.52727 1.04449,11.02291 -4.54809,9.39578 -17.204483,0.63511 -34.347175,-0.73819 -51.143321,-4.74148 -5.353924,-16.60109 -4.426165,-37.87566 9.035156,-50.39648 2.785507,-2.11551 6.262496,-3.47923 9.796876,-3.29883 z"
       style="fill:#000000;stroke-width:0.51692832" />
  </g>
</svg>
