<?xml version="1.0" encoding="UTF-8" standalone="no"?>
<svg
   xmlns:dc="http://purl.org/dc/elements/1.1/"
   xmlns:cc="http://creativecommons.org/ns#"
   xmlns:rdf="http://www.w3.org/1999/02/22-rdf-syntax-ns#"
   xmlns:svg="http://www.w3.org/2000/svg"
   xmlns="http://www.w3.org/2000/svg"
   id="svg2034"
   version="1.1"
   viewBox="0 0 210 297"
   height="297mm"
   width="210mm">
  <title
     id="title2621">Easter Egg</title>
  <defs
     id="defs2028" />
  <metadata
     id="metadata2031">
    <rdf:RDF>
      <cc:Work
         rdf:about="">
        <dc:format>image/svg+xml</dc:format>
        <dc:type
           rdf:resource="http://purl.org/dc/dcmitype/StillImage" />
        <dc:title>Easter Egg</dc:title>
        <dc:date>2020-04-05</dc:date>
        <dc:creator>
          <cc:Agent>
            <dc:title>Painter</dc:title>
          </cc:Agent>
        </dc:creator>
        <dc:source>http://www.supercoloring.com/coloring-pages/easter-egg-with-simple-flower-pattern</dc:source>
        <dc:subject>
          <rdf:Bag>
            <rdf:li>csk</rdf:li>
            <rdf:li>easter</rdf:li>
            <rdf:li>egg</rdf:li>
          </rdf:Bag>
        </dc:subject>
      </cc:Work>
    </rdf:RDF>
  </metadata>
  <g
     id="layer1">
    <path
       id="path2607"
       d="M 104.45355,25.485783 C 98.384035,25.551053 92.325572,26.559584 86.661673,28.785891 70.762959,34.715992 57.892877,46.692526 47.787765,60.038196 30.813252,82.797739 20.792724,110.3141 17.121771,138.35345 c -3.14261,24.84349 -1.028808,50.89995 9.444035,73.87959 3.845983,8.3928 8.827312,16.30933 15.215775,23.00637 6.558219,7.09329 14.08403,13.42227 22.765884,17.75755 19.378308,10.07737 42.525175,12.46349 63.589265,6.74971 12.35497,-3.38428 24.18156,-9.29425 33.61772,-18.04618 8.03173,-7.2071 14.87314,-15.79639 19.74091,-25.44754 8.16577,-15.84332 11.99122,-33.67905 12.65349,-51.41288 0.53659,-20.09893 -2.24211,-40.30867 -8.61419,-59.39684 -7.31889,-22.035425 -18.806,-43.13243 -35.64977,-59.340495 -8.98715,-8.580384 -19.76056,-15.552224 -31.74587,-19.057874 -4.45022,-1.176348 -9.09867,-1.507818 -13.68547,-1.559078 z m 0.42427,2.410187 c 15.30657,-0.150241 29.74795,7.516127 40.84542,17.725427 8.78393,7.899765 16.29775,17.166291 22.329,27.328863 5.56007,9.638408 10.48231,19.720467 14.1392,30.20675 0.72363,1.5292 -1.33301,2.10145 -2.26275,2.84615 -2.90902,1.77839 -6.15344,3.5269 -9.63885,3.19896 -4.01624,0.29579 -8.03207,-0.87947 -11.25322,-3.29905 -5.2772,-3.77424 -10.57899,-8.198563 -17.22119,-9.163343 -6.7614,-1.090975 -13.90743,0.366684 -19.55528,4.292493 -4.56779,2.92036 -8.63743,7.32441 -14.23834,8.06706 -3.70417,0.46438 -7.59655,0.17129 -10.895455,-1.71824 -5.652088,-2.88782 -10.015266,-8.235054 -16.397447,-9.770979 -7.252904,-2.230885 -15.435786,-1.326404 -21.853448,2.801899 -4.448796,2.51891 -8.074739,6.47023 -12.975949,8.12405 -5.860786,1.55331 -12.858732,0.58095 -17.315741,-3.66748 -1.548387,-1.03131 -0.170704,-2.83224 0.122473,-4.13101 C 33.407973,88.432062 39.175014,76.438844 46.794607,65.623376 55.500086,53.133698 66.377694,41.68581 79.912936,34.486783 87.53864,30.449199 96.160749,27.928789 104.87782,27.89597 Z M 73.738119,99.081806 c 4.84205,-0.008 9.598853,1.616654 13.487016,4.527874 4.619541,3.14899 9.031621,7.48103 14.930885,7.8383 4.64427,0.26396 9.67567,0.0902 13.6002,-2.7373 5.49808,-3.59382 10.49198,-8.820818 17.30386,-9.430953 4.57388,0.0662 9.38655,-0.686882 13.64102,1.426273 5.62054,2.36709 9.6849,7.28742 15.25437,9.71361 4.71023,1.5114 9.86681,1.48431 14.63011,0.20878 2.55271,-0.69532 4.43369,-2.7725 6.73758,-3.84835 0.49141,1.38503 1.50992,3.01411 0.95497,4.47673 -3.22359,2.44927 -7.18345,3.99268 -11.19466,4.57699 -4.30654,-0.0242 -8.80043,0.40957 -12.82867,-1.46658 -6.41009,-2.64506 -10.93536,-8.76065 -17.8046,-10.46293 -4.01581,-0.71406 -8.31896,-0.81092 -12.21218,0.55087 -6.7116,2.80609 -11.48701,9.14809 -18.74211,10.8067 -7.09315,1.72976 -15.146494,0.69409 -20.958451,-3.89535 -4.66055,-3.28946 -9.273278,-7.58718 -15.297745,-7.86396 -4.528111,-0.36207 -9.333685,0.11901 -13.144293,2.81503 -4.799902,2.95323 -8.902502,7.34777 -14.478119,8.84053 -5.822487,1.14161 -12.238077,1.45701 -17.583491,-1.35085 -1.530292,-0.8413 -3.414051,-1.49355 -4.507217,-2.8574 0.151839,-1.54252 0.749612,-2.97866 1.128096,-4.48862 3.2873,2.83994 7.351562,4.98398 11.782742,5.03225 4.798727,0.25444 9.892372,-0.37796 13.825514,-3.37447 4.583446,-3.35265 8.977074,-7.434 14.752082,-8.553529 2.197261,-0.396076 4.486613,-0.496388 6.723091,-0.483645 z m 63.471571,6.736544 c 4.24401,-0.22649 8.32699,1.43529 11.59657,4.06382 4.99952,3.70399 10.21909,8.06179 16.74537,8.32405 5.93816,0.45009 12.34984,0.20978 17.47956,-3.18849 0.74171,-0.34852 1.70859,-1.28845 2.38073,-1.1668 2.84818,9.39463 4.62472,19.10098 5.52472,28.86129 0.78072,9.16266 0.99491,18.41487 0.47788,27.60182 0.007,1.41287 -0.65747,2.78493 -2.0876,3.19733 -5.26923,3.00109 -9.53381,7.94608 -15.567,9.46764 -4.69922,0.8411 -9.85194,0.49121 -13.85521,-2.35463 -5.09249,-3.42094 -9.92464,-7.73231 -16.04633,-9.28083 -5.73606,-1.48287 -11.98115,-0.84943 -17.41496,1.44694 -5.4548,2.37062 -9.4914,7.07095 -14.87919,9.52655 -5.5305,1.8722 -12.295045,1.54831 -17.006882,-2.24213 -4.58828,-3.2169 -8.919646,-7.31608 -14.596353,-8.51329 -7.338028,-2.07928 -15.524059,-0.83406 -21.835875,3.47369 -4.155572,2.48028 -7.640021,6.17591 -12.311393,7.68532 -5.521534,1.45459 -11.739422,0.82188 -16.212965,-2.9652 -3.329009,-2.5501 -6.715903,-5.07861 -10.414867,-7.05176 -1.038741,-1.81002 -0.464106,-4.13642 -0.810457,-6.15277 -0.469198,-9.83489 0.143675,-20.01925 1.374763,-29.60732 0.06018,3.71573 3.602484,6.0245 6.616652,7.4445 0.289009,0.25414 -0.967322,0.46271 -1.277959,0.78497 -2.577133,1.54386 -5.605525,3.85548 -5.386752,7.20214 0.407511,2.7462 3.119041,5.07333 5.956744,4.59094 2.451227,-0.26758 4.831328,-1.33417 6.62905,-3.02721 -0.735401,3.31697 -0.113286,7.42781 2.731101,9.59425 2.160175,1.77209 5.554279,0.9766 6.961333,-1.34979 1.611371,-2.403 1.456597,-5.65815 1.265555,-8.21914 2.511274,2.05774 6.005658,3.68619 9.286772,2.71508 2.120262,-0.75494 3.405338,-3.25875 3.169832,-5.4193 -0.838771,-3.24593 -3.7163,-5.5448 -6.679178,-6.81561 2.889228,-1.51578 6.509543,-3.64189 6.728269,-7.30291 0.02756,-3.66271 -4.214741,-6.28634 -7.572663,-5.0338 -1.877833,0.54256 -3.489868,1.70882 -4.991944,2.92023 0.376687,-3.39135 0.342847,-7.77814 -2.840136,-9.88312 -2.21498,-1.43276 -5.424979,-0.70945 -6.763411,1.58647 -1.533147,2.3153 -2.080519,5.2484 -1.495517,7.96282 -2.791765,-1.97245 -6.718888,-3.80342 -10.041247,-2.00556 -1.090931,0.62443 -1.839531,1.74242 -2.125452,2.95434 1.119167,-7.44123 2.689099,-14.83207 4.621422,-22.11751 4.233437,2.73703 9.054359,4.74139 14.147975,4.98006 6.049213,0.47282 12.17804,-1.21078 17.140039,-4.70308 4.742947,-3.01411 8.970941,-7.75675 14.974278,-7.91734 3.998931,-0.3157 8.265285,0.12032 11.56312,2.61741 5.052531,3.46134 9.817777,7.81258 15.975281,9.189 6.373925,1.64529 13.390445,1.06724 19.153315,-2.238 6.3164,-3.31583 11.50819,-9.96569 19.22415,-9.63456 0.16296,3e-5 0.32591,-5.1e-4 0.48886,-5.1e-4 z m -54.9801,18.56889 c -2.857351,0.15165 -4.67333,2.90629 -5.09633,5.50612 -0.358248,1.56746 -0.521361,3.22064 -0.14366,4.80126 -2.753683,-1.90621 -6.5244,-3.89821 -9.807668,-2.05879 -2.466843,1.1662 -3.352686,4.41169 -1.975075,6.72672 1.220108,2.49489 3.853347,4.07561 6.159831,5.16041 -3.139414,1.29014 -6.533743,3.78836 -6.776847,7.46001 0.07638,2.95501 2.979608,5.48553 5.944341,4.98419 2.374892,-0.27154 4.710282,-1.23603 6.494176,-2.8422 -0.591439,3.14728 0.07283,6.76801 2.343526,9.11469 1.848633,1.60676 4.935659,1.87184 6.652824,-0.0786 2.275993,-2.3743 2.462834,-5.93237 2.102196,-9.02787 2.798691,1.89593 6.414826,3.64594 9.819041,2.3859 2.083555,-1.30807 3.506275,-4.30786 2.178675,-6.61872 -0.844555,-2.14101 -2.904715,-3.48728 -4.730974,-4.73925 -0.542812,-0.31213 -1.114087,-0.58561 -1.721858,-0.74465 3.086663,-1.34458 6.604912,-3.60055 6.877092,-7.29672 0.12903,-3.53444 -3.83123,-6.16359 -7.109637,-5.09477 -1.995961,0.53081 -3.794821,1.66574 -5.360914,2.98741 0.47207,-3.47136 0.225714,-7.94642 -3.164665,-9.91567 -0.826,-0.42759 -1.742948,-0.74086 -2.684074,-0.70952 z m 44.9833,0.0765 c -3.49007,0.14014 -5.44873,3.89303 -5.56556,7.01456 -0.16553,0.99702 0.18441,2.46707 0.0507,3.14296 -2.71959,-1.93912 -6.60266,-3.76158 -9.82989,-1.96061 -2.61537,1.55637 -3.04325,5.36849 -1.202,7.68688 1.33336,1.99417 3.48421,3.24564 5.67097,4.10724 -2.98992,1.41781 -6.60748,3.56352 -6.81612,7.26209 -0.0626,2.32565 1.63088,4.48888 3.81321,5.17436 3.08132,0.38562 6.16848,-0.79284 8.51627,-2.76469 -0.0425,3.28378 -0.20297,7.50257 2.85823,9.59993 2.29073,1.53488 5.65975,0.84255 7.03729,-1.58285 1.53389,-2.35636 1.57429,-5.30786 1.28106,-8.01036 2.68773,1.79471 6.05529,3.52214 9.35292,2.52646 1.90614,-0.91066 3.20284,-2.93557 2.9316,-5.07618 0.072,-2.7956 -2.55089,-4.55151 -4.52225,-6.0737 -0.6952,-0.45386 -1.41734,-0.91059 -2.23547,-1.10209 2.89032,-1.14564 5.81154,-3.26161 6.7076,-6.36653 0.54045,-2.54654 -1.06287,-5.07572 -3.44217,-5.97483 -2.20612,-0.91625 -4.58158,0.39512 -6.58513,1.2826 -0.81954,0.43418 -1.60617,0.9493 -2.25154,1.62161 0.46392,-3.45143 0.12753,-7.88081 -3.16622,-9.87898 -0.78651,-0.44894 -1.70001,-0.65993 -2.60345,-0.62787 z m 44.9001,0 c -3.49007,0.14014 -5.44873,3.89303 -5.56556,7.01456 -0.15541,1.00393 0.16693,2.43108 0.0553,3.13004 -2.68463,-1.89672 -6.28016,-3.32794 -9.53844,-2.20658 -2.43055,1.39001 -3.53776,4.85474 -1.89859,7.25382 1.22901,2.36098 3.57396,3.89435 5.98517,4.8581 -3.17499,1.34092 -6.6073,3.75384 -6.8647,7.5029 0.11756,2.63148 2.36565,5.1641 5.13457,4.95628 2.68977,0.0524 5.23577,-1.17282 7.2993,-2.82463 -0.0221,3.2038 -0.21908,7.2604 2.65513,9.40149 2.25132,1.62854 5.73368,1.18264 7.21196,-1.26762 1.63139,-2.38134 1.61479,-5.42966 1.28158,-8.18348 2.24002,1.52039 4.72325,3.00921 7.54062,2.84014 2.40072,0.25495 4.46997,-2.05003 4.75733,-4.28294 0.36002,-1.92342 -0.45431,-3.80154 -1.90937,-5.05836 -1.39441,-1.33034 -2.99952,-2.58847 -4.87005,-3.15044 3.33992,-1.25945 6.87222,-3.98356 6.80785,-7.89668 -0.0213,-2.13122 -1.82316,-3.78832 -3.60392,-4.64778 -3.14023,-0.37811 -6.48128,0.80825 -8.76949,2.9931 0.56766,-3.46117 0.14337,-7.96127 -3.23908,-9.8733 -0.7549,-0.40061 -1.6166,-0.589 -2.46961,-0.55862 z m -134.156149,2.38073 c 2.394481,0.31442 2.792888,3.30655 2.893364,5.25653 0.146042,3.33678 -1.306597,6.62408 -3.187401,9.22786 -1.669203,-2.65052 -3.078633,-5.67813 -3.270602,-8.83822 -0.02326,-2.18346 0.891776,-5.61312 3.564639,-5.64617 z m 44.653607,0.0548 c 2.460527,0.0329 3.031013,3.01351 3.130039,4.96197 0.158443,3.41202 -1.305716,6.81057 -3.203938,9.49193 -2.035092,-3.40434 -3.998079,-7.61367 -2.914033,-11.68456 0.401952,-1.27191 1.520513,-2.69852 2.987932,-2.76934 z m 44.780202,0.0827 c 2.30395,-0.29295 3.06272,2.39127 3.15175,4.19768 0.30038,3.64903 -1.12811,7.14565 -3.02617,10.15855 -2.46222,-3.5608 -4.43077,-8.34856 -2.62465,-12.58373 0.50103,-0.88138 1.3987,-1.84146 2.49907,-1.7725 z m 45.04893,0.004 c 2.47546,0.16371 3.0151,3.26123 3.02979,5.27513 0.32275,3.34123 -1.722,6.31199 -3.16208,9.09402 -1.35908,-2.29435 -2.74755,-4.73372 -3.20911,-7.40369 -0.0603,-2.27974 -0.009,-5.07952 1.834,-6.69106 0.46976,-0.21558 0.99316,-0.29696 1.5074,-0.2744 z m -147.249917,7.31376 c 4.019764,0.45559 7.08048,3.7944 9.046041,7.0963 1.476557,1.7254 -0.320331,1.48918 -1.806689,1.40654 -3.343164,0.0388 -6.935499,-0.70947 -9.083686,-3.52019 -1.174444,-1.11736 -1.612072,-3.13358 -0.128156,-4.21938 0.536713,-0.47737 1.24365,-0.8006 1.97249,-0.76327 z m 25.386564,0.004 c 1.944357,-0.0103 3.591055,2.30414 2.317171,3.97857 -2.0925,3.45316 -6.328931,4.59587 -10.162567,4.49042 -0.655563,-0.0519 -1.72058,0.1529 -2.218589,-0.0819 1.974564,-3.84292 5.414785,-8.07766 10.063985,-8.38709 z m 44.879429,-0.003 c 2.354169,-0.14907 3.487239,3.04258 1.923399,4.65036 -2.302806,3.06286 -6.36176,3.9043 -9.963734,3.82923 -0.585756,-0.0542 -1.669926,0.15576 -1.948718,-0.17932 2.019121,-3.85719 5.307193,-7.98597 9.989053,-8.30027 z m 89.536644,5.2e-4 c 1.38132,0.084 2.94158,1.34805 2.95538,2.76365 -1.31643,3.9894 -5.84615,5.83888 -9.78597,5.73867 -0.97263,-0.0691 -2.65299,0.26853 -3.15536,-0.15399 2.02465,-3.37859 4.57873,-7.04083 8.54677,-8.2026 0.47226,-0.10153 0.95554,-0.16078 1.43918,-0.14573 z m -114.71805,0.0124 c 4.168923,0.46125 7.090153,4.12465 9.044768,7.52379 1.484116,1.65698 -1.366205,0.76412 -2.351638,0.96096 -3.696518,0.0424 -8.017145,-1.23959 -9.630421,-4.87825 -0.886706,-1.98405 0.898676,-3.85362 2.937291,-3.6065 z m 44.96624,0.031 c 3.91838,0.39358 6.71591,3.78065 8.6527,6.91999 1.58641,1.73123 0.16174,1.72809 -1.51458,1.53924 -3.79831,0.12299 -8.30742,-1.0343 -10.08523,-4.73543 -0.9467,-1.7474 0.53918,-3.85924 2.47634,-3.71295 0.15699,0.001 0.31354,-0.029 0.47077,-0.0109 z m 24.81089,0.031 c 1.4098,0.0728 3.0755,1.33478 3.07991,2.80655 -1.34062,3.94467 -5.93279,5.63703 -9.71587,5.54438 -0.7871,-0.29018 -4.05724,0.95829 -2.94831,-0.52445 1.93637,-3.5908 5.11553,-7.72417 9.58427,-7.82648 z m 19.78329,0.003 c 4.18179,0.34129 7.21772,3.93801 9.23561,7.30447 0.43004,0.65948 0.7688,1.42013 -0.38703,1.12007 -4.13455,0.19833 -9.05354,-0.46144 -11.49028,-4.23771 -0.89158,-1.79823 0.27368,-4.34953 2.47582,-4.18321 l 0.15968,-0.004 z M 43.404053,145.9978 c 3.538998,0.13727 7.602882,1.35526 9.544637,4.56614 1.148131,1.86776 -0.614735,4.3823 -2.797762,3.8809 -4.666393,-0.35744 -7.870293,-4.49803 -9.637654,-8.44135 0.962046,-0.13185 1.926055,-0.0702 2.890779,-0.006 z m 44.953846,-0.007 c 3.065462,-0.0908 6.100177,1.12262 8.272364,3.32228 1.064212,0.92734 2.323742,2.4132 1.288812,3.77909 -1.209871,2.19848 -4.279897,1.37089 -6.106607,0.42685 -2.782099,-1.64942 -4.851871,-4.36163 -6.40271,-7.15563 -0.09508,-0.64367 1.353177,-0.32809 1.842936,-0.43056 0.368401,0.0193 0.736804,0.0386 1.105205,0.058 z m 44.900611,0 c 3.87335,-0.13756 8.0354,1.93189 9.84436,5.50561 0.26859,1.60411 -1.3312,3.3037 -3.00136,2.90938 -4.30877,0.0719 -7.24746,-3.67869 -9.1973,-7.01237 -1.2937,-1.32307 -0.38069,-1.59741 0.98023,-1.47445 0.45802,0.0239 0.91605,0.0479 1.37407,0.0718 z m 44.62312,0.03 c 3.51125,0.20805 7.58574,1.16565 9.52861,4.43849 0.81505,1.40575 0.40319,3.74165 -1.52135,3.82044 -4.27203,0.78627 -7.69993,-2.84904 -9.72257,-6.15994 -0.2068,-0.70991 -2.0177,-2.36125 -0.45045,-2.16307 0.72389,-0.0721 1.44322,0.0212 2.16576,0.0641 z m -53.8608,-0.0791 c 1.61307,-0.25015 0.0714,1.16161 -0.21342,1.80919 -1.99958,3.0223 -4.47422,6.52651 -8.45633,6.70243 -1.81188,0.38774 -3.79399,-1.15492 -3.28507,-3.05821 0.74205,-2.93604 4.02541,-4.24646 6.62492,-4.8767 1.77438,-0.4174 3.51643,-0.54312 5.3299,-0.57671 z m -91.152048,0.0429 c 0.598035,0.25069 2.808073,-0.4693 1.961118,0.67386 -1.570768,2.73774 -3.691234,5.33396 -6.365502,7.04866 -1.719382,0.83453 -4.282848,1.21592 -5.747453,-0.26975 -1.481005,-2.1814 0.778848,-4.60551 2.6417,-5.62342 2.258308,-1.28125 4.978685,-1.55384 7.510137,-1.82935 z m 45.01017,0.0176 c 1.392896,-0.0908 2.569538,-0.005 1.385445,1.36477 -1.658511,2.72677 -3.844367,5.39631 -6.780982,6.67298 -1.878198,0.78666 -5.187146,0.55487 -5.358845,-1.98231 0.09165,-3.07531 3.335555,-4.57537 5.878711,-5.32887 1.590363,-0.44734 3.248689,-0.69543 4.875671,-0.72657 z m 91.692588,0.0946 c -1.60415,3.21784 -3.90741,6.47813 -7.3365,7.88582 -1.56936,0.4384 -3.87068,0.92872 -4.95991,-0.60823 -1.09817,-1.9799 0.45539,-4.03753 2.0867,-5.09943 2.94699,-1.94682 6.7524,-2.43608 10.20971,-2.17816 z m -131.768695,1.50792 c 2.297369,3.49231 4.203883,7.97909 2.759006,12.15378 -0.672361,2.18301 -4.34309,3.18602 -5.230172,0.63406 -1.361442,-2.97827 -0.862891,-6.5084 0.575675,-9.371 0.550998,-1.1299 1.090285,-2.56243 1.895491,-3.41684 z m 44.944027,0.139 c 2.2557,3.54306 4.119785,8.15366 2.538862,12.3331 -0.814041,2.23026 -4.35955,2.51586 -5.183661,0.1571 -0.863856,-2.12254 -0.75244,-4.54337 -0.333314,-6.72982 0.766278,-2.03161 1.659041,-4.06414 2.883027,-5.89525 z m 44.741968,-0.0382 c 1.8899,2.9604 3.65225,6.39706 3.01452,10.02677 -0.0199,1.75608 -0.65806,4.08889 -2.85278,4.14446 -2.39389,0.37067 -3.56287,-2.60581 -3.27163,-4.55683 -0.29585,-2.50983 0.4872,-4.89694 1.64025,-7.09251 0.44581,-0.8831 0.8604,-1.77818 1.46964,-2.52189 z m 44.82362,0.19172 c 1.82096,2.69782 3.66233,5.70942 3.12074,9.14156 -0.0451,1.85954 -0.26569,4.53431 -2.64842,4.80901 -2.28412,0.56001 -3.5767,-2.05071 -3.61218,-3.96255 -0.46291,-3.56979 1.11812,-7.12513 3.09387,-10.04124 z m -98.76451,25.33747 c 4.783066,-0.0161 9.522788,1.4732 13.389504,4.3396 4.868238,3.31764 9.601798,7.91998 15.857286,8.07877 4.38011,0.16353 9.09586,-0.0329 12.79302,-2.69286 5.4182,-3.46418 10.26031,-8.65224 16.95024,-9.38663 3.3207,-0.28691 6.7089,-0.27608 10.02847,0.007 6.77938,1.13644 11.61048,6.41871 17.18502,9.93466 3.50433,2.11071 7.81511,2.27594 11.77028,2.13321 3.44762,-0.17224 6.86801,-1.19468 9.60658,-3.35063 3.26015,-2.32328 6.36734,-5.03939 9.85429,-6.9344 -0.40758,2.17954 -0.1014,4.92927 -2.10117,6.41924 -4.67182,3.96896 -10.10214,7.8913 -16.42638,8.18193 -4.40577,0.0373 -9.11903,0.34658 -13.08189,-1.88774 -5.9722,-2.69659 -10.34846,-8.41801 -16.88993,-9.98337 -3.87993,-0.65022 -7.99742,-0.7735 -11.799,0.36365 -6.09981,2.32545 -10.53065,7.5721 -16.49253,10.15865 -6.75813,2.45195 -14.637235,2.17468 -20.942685,-1.29517 -5.617096,-3.318 -10.379083,-8.78881 -17.185497,-9.61005 -4.768112,-0.55283 -9.874454,-0.0613 -13.916461,2.74815 -5.24332,3.19758 -9.742019,8.20156 -16.056385,9.20926 -5.777246,0.7369 -12.199829,0.94104 -17.334521,-2.36396 -3.021658,-1.9245 -6.053149,-3.91752 -8.587927,-6.46082 -0.925098,-1.60414 -0.827107,-3.54523 -0.984953,-5.34025 5.845427,3.01863 10.352631,8.81973 17.119368,9.9503 5.359318,0.61592 11.250546,0.2769 15.751291,-3.03269 4.636405,-3.31976 8.985401,-7.46733 14.747023,-8.6448 2.22763,-0.46406 4.490503,-0.55578 6.746957,-0.54089 z m 63.67053,6.72052 c 4.9827,-0.40289 9.53708,2.25262 13.22658,5.30821 4.82389,3.74129 10.37368,7.06065 16.63309,7.34219 7.62356,0.81619 15.28745,-2.06956 21.00699,-7.05797 0.68749,-0.5798 1.97339,-1.74791 1.36736,-0.008 -3.87662,20.52892 -13.49778,40.43902 -29.24111,54.43854 -13.00509,11.48234 -29.81166,18.48946 -46.9962,19.89123 -7.83507,0.45026 -15.770845,0.59972 -23.492888,-0.92943 -15.026981,-2.58482 -29.590267,-9.2553 -40.669889,-19.92245 -6.325767,-6.03126 -12.376701,-12.65358 -16.377134,-20.48783 -4.487617,-8.18967 -8.306038,-16.79801 -10.408248,-25.92217 -0.638083,-2.62858 -1.527439,-5.61228 -1.852271,-8.06059 4.328077,3.03947 8.654351,6.5177 14.012065,7.47293 6.389931,1.50292 13.315043,0.67121 19.020819,-2.63657 5.521468,-2.79615 9.68257,-8.36369 16.106336,-9.19474 4.144759,-0.45183 8.796597,-0.37928 12.347466,2.16988 5.534152,3.76099 10.83781,8.59159 17.674369,9.81232 7.799565,1.6793 16.198105,-0.44431 22.402735,-5.42114 4.17573,-2.97379 8.4138,-6.74658 13.7997,-6.7745 0.48002,-0.0134 0.96004,-0.0187 1.44023,-0.0196 z"
       style="fill:#000000;stroke-width:0.50449836" />
  </g>
</svg>
