<?xml version="1.0" encoding="UTF-8" standalone="no"?>
<!-- Created with Inkscape (http://www.inkscape.org/) -->

<svg
   xmlns:dc="http://purl.org/dc/elements/1.1/"
   xmlns:cc="http://creativecommons.org/ns#"
   xmlns:rdf="http://www.w3.org/1999/02/22-rdf-syntax-ns#"
   xmlns:svg="http://www.w3.org/2000/svg"
   xmlns="http://www.w3.org/2000/svg"
   xmlns:sodipodi="http://sodipodi.sourceforge.net/DTD/sodipodi-0.dtd"
   xmlns:inkscape="http://www.inkscape.org/namespaces/inkscape"
   width="210mm"
   height="297mm"
   viewBox="0 0 210 297"
   version="1.1"
   id="svg969"
   inkscape:version="0.92.4 (5da689c313, 2019-01-14)"
   sodipodi:docname="girl_with_a_pearl_earring.svg">
  <title
     id="title855">Girl with a Pearl Earring</title>
  <defs
     id="defs963" />
  <sodipodi:namedview
     id="base"
     pagecolor="#ffffff"
     bordercolor="#666666"
     borderopacity="1.0"
     inkscape:pageopacity="0.0"
     inkscape:pageshadow="2"
     inkscape:zoom="0.7"
     inkscape:cx="-438.91189"
     inkscape:cy="523.46015"
     inkscape:document-units="mm"
     inkscape:current-layer="layer1"
     showgrid="false"
     inkscape:window-width="3840"
     inkscape:window-height="2004"
     inkscape:window-x="-16"
     inkscape:window-y="-16"
     inkscape:window-maximized="1" />
  <metadata
     id="metadata966">
    <rdf:RDF>
      <cc:Work
         rdf:about="">
        <dc:format>image/svg+xml</dc:format>
        <dc:type
           rdf:resource="http://purl.org/dc/dcmitype/StillImage" />
        <dc:title>Girl with a Pearl Earring</dc:title>
        <dc:source>http://www.supercoloring.com/coloring-pages/girl-with-pearl-earring</dc:source>
        <dc:subject>
          <rdf:Bag>
            <rdf:li>acb</rdf:li>
            <rdf:li>vpos-b</rdf:li>
            <rdf:li>vermeer</rdf:li>
            <rdf:li>artworks</rdf:li>
          </rdf:Bag>
        </dc:subject>
        <dc:date>2020-04-26</dc:date>
        <dc:creator>
          <cc:Agent>
            <dc:title>Johannes Vermeer</dc:title>
          </cc:Agent>
        </dc:creator>
        <cc:license
           rdf:resource="http://creativecommons.org/licenses/by-nc-sa/4.0/" />
      </cc:Work>
      <cc:License
         rdf:about="http://creativecommons.org/licenses/by-nc-sa/4.0/">
        <cc:permits
           rdf:resource="http://creativecommons.org/ns#Reproduction" />
        <cc:permits
           rdf:resource="http://creativecommons.org/ns#Distribution" />
        <cc:requires
           rdf:resource="http://creativecommons.org/ns#Notice" />
        <cc:requires
           rdf:resource="http://creativecommons.org/ns#Attribution" />
        <cc:prohibits
           rdf:resource="http://creativecommons.org/ns#CommercialUse" />
        <cc:permits
           rdf:resource="http://creativecommons.org/ns#DerivativeWorks" />
        <cc:requires
           rdf:resource="http://creativecommons.org/ns#ShareAlike" />
      </cc:License>
    </rdf:RDF>
  </metadata>
  <g
     inkscape:label="Layer 1"
     inkscape:groupmode="layer"
     id="layer1">
    <path
       inkscape:connector-curvature="0"
       id="path846"
       d="m 100.09762,0.51212522 c -2.202038,0.03234 -4.395918,0.26234897 -6.582028,0.49712698 -2.061877,0.3680373 -3.932837,1.3630184 -5.886457,2.0717084 -4.64715,1.968242 -8.67687,5.140084 -12.14293,8.7694934 -1.94552,1.944261 -4.51803,3.045692 -7.09905,3.881949 -3.35448,1.265964 -6.46671,3.061873 -9.5663,4.833003 -1.69921,0.963852 -3.52725,1.674865 -5.42013,2.161903 -5.82321,1.973808 -11.57559,4.196994 -17.13354,6.831849 -4.16664,2.201183 -7.563,5.571649 -10.82146,8.917284 -4.99202,5.30747 -9.50109,11.152468 -12.68231,17.736677 -0.95146,1.923452 -2.09902,3.753747 -2.9967099,5.699395 -0.63649,1.996538 -0.60331,4.213037 0.0994,6.178364 0.0787,1.64029 0.2192599,3.310798 -0.37223,4.875223 -0.79005,2.87269 -2.29398,5.462525 -3.41411,8.202205 -0.30039,0.92424 -0.56129,1.88417 -0.94532,2.75475 0.0722,0.62541 0.43514,1.25033 0.47594,1.93993 0.35739,1.54281 1.35738,2.87392 1.46063,4.49133 0.59733,4.63491 -0.43825,9.325539 -2.05956,13.660094 -1.18446,3.29413 -0.82805,6.83768 -0.97832,10.26707 0.036,4.11528 0.27633,8.23144 0.83414,12.30881 0.14997,2.35092 1.12657,4.5211 1.6,6.80706 1.7251,7.61982 5.0286999,14.73934 7.9358099,21.95241 0.66618,1.57017 1.22988,3.17048 1.69342,4.80382 1.43544,3.72195 3.04728,7.66188 6.34479,10.13514 2.95098,2.22888 6.33625,3.84335 9.7937,5.12093 2.08195,0.74022 4.28755,1.10104 6.4741,1.28065 2.21678,0.0229 4.42383,-0.41087 6.57896,-0.89918 2.00424,-0.52418 3.98598,-1.13199 5.98104,-1.69055 2.60601,2.81901 5.19442,5.86171 6.29523,9.61854 0.60814,1.84456 0.65045,3.99267 -0.56957,5.62059 -2.052,2.96745 -4.77962,5.44734 -6.65428,8.55529 -1.9921,4.169 -3.48221,8.56631 -4.80539,12.98732 -0.4221,1.18232 -0.461,2.43738 -0.72554,3.64835 -1.49381,4.68126 -3.81641,9.0351 -5.96648,13.44481 -1.55702,3.28754 -3.56394,6.38832 -4.67938,9.86901 -0.81557,3.08142 -0.68459,6.29538 -0.9999,9.44456 -0.20399,2.27052 -0.36038,4.65973 -1.38756,6.71777 -2.29938,4.21033 -3.77946,8.80017 -5.97689,13.06069 -4.76035,9.99855 -10.21868,19.64677 -15.10328,29.58325 -0.41588,0.57952 0.50123,0.88548 0.9274,0.88 0.56167,0.0297 1.21766,-0.026 1.61127,-0.48937 3.81906,0 7.63812,0 11.45718,0 -0.11476,0.54829 0.59962,0.64458 0.82476,0.22841 0.3135,-0.54197 1.19107,-0.0718 1.72341,-0.22841 0.82315,0.0224 1.7726,-0.0439 2.52026,0.0315 -0.24661,0.43667 0.25402,0.72083 0.59066,0.45217 0.4476,0.0463 1.04657,0.0416 1.22266,-0.48371 4.57337,0 9.14673,0 13.7201,0 0.20291,0.54197 0.92835,0.64728 1.34668,0.33332 0.1407,-0.23627 0.14019,-0.48191 0.53227,-0.33332 31.35158,0 62.703145,0 94.054715,0 0.14676,0.47696 0.98832,0.71996 1.24799,0.26511 -0.10957,-0.55401 0.72526,-0.13785 1.05162,-0.26511 9.11227,0 18.22455,0 27.33683,0 0.33709,0.57764 1.36959,0.7435 1.6154,5.3e-4 0.79393,0.037 1.68821,-0.0703 2.42621,0.047 0.15791,0.19574 0.36002,0.26411 0.47801,0.44286 0.81527,0.0389 1.50652,-0.6986 2.36213,-0.48987 4.83055,0.0259 9.72703,-0.0517 14.51643,0.0388 0.14339,0.45651 0.71756,0.54628 1.04541,0.3674 0.73084,-3.27372 0.51792,-6.6784 0.64279,-10.01369 0.11757,-6.06427 0.37324,-12.1486 1.49356,-18.11898 0.66762,-5.07817 -0.0784,-10.19871 -0.39399,-15.27522 -0.42967,-4.51006 -0.57959,-9.05613 -1.45777,-13.51272 -0.20392,-2.04977 -0.90561,-4.00822 -1.20495,-6.03264 1.27139,-0.88427 2.74338,-1.48973 3.83638,-2.62822 2.22857,-2.10121 4.16767,-4.72266 4.66494,-7.81501 1.00734,-3.88765 1.2993,-7.93793 2.68198,-11.72131 0.44089,-1.23995 1.35948,-2.24778 2.37143,-3.05304 0.14607,-0.81225 -0.38972,-1.7802 -0.50195,-2.66965 -2.56339,-11.52547 -5.90107,-22.86148 -9.21835,-34.18799 -4.66108,-15.79428 -9.7538,-31.458 -14.85795,-47.11082 -4.41196,-13.67218 -8.42447,-27.465244 -12.37815,-41.275654 -2.30377,-7.7145 -5.22964,-15.236112 -8.75269,-22.474291 -0.82244,-1.982976 -2.16027,-4.15765 -1.36432,-6.369394 1.20904,-3.775731 0.65662,-7.836027 -0.45525,-11.561599 -0.87819,-3.014014 -2.1818,-5.896115 -3.59623,-8.692885 -1.16132,-2.068602 -2.37845,-4.334102 -4.54251,-5.504182 -3.79945,-3.127298 -6.26004,-7.490263 -9.67825,-10.983179 -4.2824,-4.522586 -9.06325,-8.7541974 -14.72388,-11.4609204 -2.10925,-1.078691 -4.52846,-1.222995 -6.66275,-2.237043 -3.63323,-1.495981 -7.36469,-2.792911 -11.24686,-3.4594111 -2.58642,-0.51658331 -5.22998,-0.79954128 -7.86504,-0.77808628 z m -0.0791,1.94923538 c 3.29055,-0.03341 6.59376,0.247982 9.79992,0.994771 -3.68749,0.861412 -7.45251,1.646737 -10.896778,3.296009 -2.45758,1.074065 -4.58229,2.7325433 -6.847847,4.1320654 -1.57451,0.909196 -3.37755,1.393072 -5.19919,1.20551 -2.64661,-0.04639 -5.34063,0.155402 -7.94887,-0.278536 -0.27296,-0.539315 0.84845,-0.966788 1.08661,-1.45337 4.06144,-4.3189964 9.83143,-6.5773864 15.548547,-7.6902604 1.48353,-0.139634 2.96637,-0.220424 4.457608,-0.206189 z m 12.27212,3.566707 c 0.51451,0.0033 1.03196,-0.01333 1.53479,0.03772 -4.71307,1.244477 -9.27436,3.1587253 -13.33835,5.8649984 -1.735398,1.113841 -4.138558,2.109886 -6.006208,0.763023 -0.53275,-0.531597 0.35117,-1.155364 0.65526,-1.542541 2.57667,-2.7503884 6.225098,-4.2591934 9.917258,-4.6907514 2.39852,-0.336338 4.81767,-0.376681 7.23725,-0.432453 z m 5.89835,1.834514 c 4.17214,-0.104405 8.24098,1.4333913 11.60077,3.8714424 5.35297,3.492866 9.57778,8.394469 13.5796,13.310456 0.47252,0.772709 1.47376,1.472192 1.39165,2.442229 -0.87952,0.332944 -1.85621,-0.246587 -2.71007,-0.503301 -4.17322,-1.339809 -8.5323,-2.001199 -12.84987,-2.698419 -3.36068,-0.471152 -6.74015,-0.704194 -9.98644,-1.74707 -1.54306,-0.531169 -3.24438,-0.868256 -4.53964,-1.906089 -0.48215,-0.613665 0.68325,-0.624732 1.05007,-0.623735 2.94745,-0.04792 5.82369,0.681205 8.62262,1.502778 0.87698,0.07123 1.76486,0.667893 2.6387,0.430955 0.24063,-0.474093 0.94858,-0.289517 1.39863,-0.556844 0.29433,-0.179312 1.15343,-0.152219 1.01518,-0.632231 -1.30539,-0.299622 -2.71336,-0.04135 -4.02631,-0.363196 -1.50127,-0.265045 -2.94267,-0.799352 -4.40935,-1.215003 -2.43548,-0.596769 -4.95528,-0.511117 -7.43417,-0.692464 -3.22491,-0.429209 -6.4363,-1.125007 -9.3849,-2.52131 -0.96779,-0.512253 -2.26901,-0.771512 -2.86758,-1.766283 0.0916,-0.65659 0.97732,-0.899908 1.43691,-1.312306 3.60358,-2.160264 7.54424,-3.8713484 11.67896,-4.6149624 1.26101,-0.188628 2.52498,-0.378039 3.79524,-0.404647 z M 85.701565,14.348493 c 8.300027,0.02569 16.497025,2.454171 23.780635,6.372698 0.62014,0.356817 1.43935,0.924862 1.21216,1.73585 0.17741,1.688002 1.80026,2.69594 2.96365,3.729789 6.04204,4.557815 11.81277,9.535699 16.66772,15.365025 2.50223,2.984487 4.97999,6.204697 6.05801,10.006251 0.10198,0.249965 0.13638,1.029555 -0.28628,0.57826 -1.83681,-1.691095 -2.9456,-3.999537 -4.6214,-5.838843 -4.52076,-5.368306 -9.46046,-10.409936 -14.86905,-14.888462 -4.48389,-3.419101 -9.2979,-6.406587 -14.27528,-9.052293 -4.897938,-2.496209 -10.112885,-4.862376 -15.693265,-5.07047 -1.01184,0.04993 -2.22283,0.02897 -3.01739,0.743107 -0.12517,0.287604 -0.0903,0.594433 -0.13797,0.89917 0.42189,0.919826 1.67007,0.786251 2.40074,1.331795 2.96006,1.188391 5.95664,2.32382 8.730177,3.922406 1.26396,0.787499 2.73699,1.417955 3.65112,2.634722 0.2522,1.280877 1.44915,2.09623 2.307868,2.979148 1.36526,1.191461 2.85847,2.333455 4.63176,2.817915 1.24964,0.481616 1.64383,1.870943 1.89187,3.053559 -2.04371,-0.703228 -3.64693,-2.255202 -5.61164,-3.134624 -2.224428,-1.218235 -4.375448,-2.617886 -6.763498,-3.47213 -7.244457,-3.478729 -14.965417,-5.971109 -22.860977,-7.47287 -2.74594,-0.576665 -5.59137,-0.569062 -8.31264,-1.256389 -0.404,-0.04701 -0.44097,-0.456517 0.0202,-0.519865 3.19894,-1.584903 6.59377,-2.727422 9.99267,-3.796668 3.93622,-1.126078 8.04163,-1.684238 12.14086,-1.667081 z m 2.24276,4.549593 c 2.90331,0.201433 5.633877,1.478601 8.314257,2.542673 5.769468,2.548005 11.455958,5.411894 16.526608,9.186326 0.70301,0.668465 1.78618,1.301277 1.86861,2.351794 -0.10736,0.217445 -0.23302,0.511826 0.0424,0.721921 0.25354,0.795113 1.18027,1.140479 1.5689,1.879989 2.13391,2.482988 4.42437,4.817443 6.4342,7.409926 3.47236,4.302805 6.78392,8.741177 9.90416,13.304486 1.41838,2.409078 3.33168,4.747686 3.60719,7.624426 -0.0983,0.244507 -0.50196,-0.447503 -0.67562,-0.553532 -3.49308,-4.072104 -6.58238,-8.491665 -9.98626,-12.644628 -4.08798,-5.065204 -8.16488,-10.145612 -12.50029,-15.001626 -2.03692,-2.243873 -4.09052,-4.517752 -6.6487,-6.185768 -1.75044,-1.436645 -3.6879,-2.645701 -5.79274,-3.482936 -4.257068,-2.313956 -8.679495,-4.327223 -12.808935,-6.861596 -0.50821,-0.311305 -0.31997,-0.259295 0.14624,-0.291455 z m -21.33151,4.5005 c 1.63564,-0.141615 3.18658,0.680801 4.22631,1.888547 0.65579,0.677856 1.47873,1.200909 2.42759,1.336727 1.57096,0.442378 3.38867,0.553964 4.54299,1.851885 2.84626,2.131137 6.23155,3.367532 9.24837,5.211101 1.03351,0.382503 2.02415,1.0683 2.76469,1.86862 0.13348,0.856938 1.16717,1.167902 1.84692,1.499134 0.96726,0.294333 2.170417,0.959348 2.084107,2.129587 0.3825,1.643239 2.27603,2.287547 3.77858,2.388999 0.71073,-0.03814 1.74003,0.0082 1.84633,0.911865 0.34138,1.596491 0.55072,3.229396 0.955048,4.806133 0.24354,1.455049 1.44104,2.474947 2.2872,3.59978 0.51001,0.716847 1.28917,1.395238 1.47123,2.248443 -0.98932,1.027628 -2.4515,1.542068 -3.8313,1.810223 -1.250298,-0.06873 -1.973738,1.170607 -2.260318,2.225704 -0.38056,1.040334 0.4743,2.082234 -0.0543,3.106788 -0.13621,0.357309 -0.4083,0.872993 -0.7822,0.410853 -2.00529,-1.301938 -3.52197,-3.199379 -5.396347,-4.673462 -12.0228,-10.219576 -26.82364,-17.192048 -42.40239,-19.771146 -4.52411,-0.743857 -9.12013,-0.745273 -13.68931,-0.817081 -1.41578,-0.102026 -2.83557,-0.188846 -4.24042,-0.398269 4.01972,-3.504409 9.14401,-5.360919 14.01321,-7.387828 4.60004,-1.795903 9.26556,-3.80952 14.28352,-3.962507 2.28504,-0.134598 4.586,-0.257411 6.88045,-0.284096 z m 6.7293,0.584977 c 3.76269,0.218893 7.4171,1.514282 10.98663,2.685983 6.56537,2.299578 12.975187,5.115282 18.883115,8.8143 9.40885,5.644912 17.61337,13.093956 25.00001,21.159639 3.36244,3.626805 5.47944,8.16905 7.38086,12.685003 1.50977,3.749146 1.87759,7.822008 2.11341,11.811278 -2.16129,-3.08591 -3.69206,-6.557566 -5.60568,-9.796021 -1.36482,-2.28673 -2.44281,-5.07755 -4.92339,-6.396275 -0.67667,-0.33356 -1.5024,-0.174877 -2.09606,-0.729263 -2.10579,-1.357744 -3.44499,-3.642278 -5.65644,-4.888998 -0.92877,-0.591481 -2.01109,-0.933505 -3.07888,-1.107426 -0.41106,0.138588 -0.54663,0.602932 -0.88522,0.86093 -0.55279,0.740918 0.33474,1.494562 0.86558,1.924947 1.56513,1.547818 2.74987,3.440065 3.75119,5.396053 0.39992,0.622225 0.11847,0.687641 -0.42057,0.235206 -1.49332,-1.089538 -3.36231,-1.892154 -4.28301,-3.577121 -0.75434,-1.5278 -0.61048,-3.445672 -1.86943,-4.722173 -3.5571,-4.947089 -8.38355,-8.815562 -12.02688,-13.690658 -0.41908,-0.559226 -0.79956,-1.245219 -0.48318,-1.937866 0.16774,-1.424993 -1.283488,-2.538383 -2.592088,-2.628262 -1.00919,-0.196745 -2.33887,0.250287 -3.03754,-0.696598 -0.0264,-0.782664 -0.205,-1.624095 -0.89678,-2.10376 -1.28653,-1.378474 -3.093037,-2.103306 -4.582477,-3.231838 -2.20149,-1.39763 -4.26851,-3.132706 -6.73601,-4.026622 -2.56293,-1.175065 -4.84667,-2.878209 -7.32514,-4.214213 -0.92791,-0.507185 -1.98076,-0.679247 -3.00447,-0.808736 -0.30196,-0.104187 -1.15266,-0.551553 -0.60771,-0.837158 0.35102,-0.163619 0.75042,-0.172353 1.13016,-0.180351 z m 47.013665,2.721797 c 4.87262,3.423846 9.3926,7.447507 12.99921,12.205456 1.25243,1.6632 2.18974,3.66708 2.37401,5.732468 -0.35288,-0.08701 -0.6648,-0.8339 -1.00149,-1.170987 -3.90532,-4.725422 -8.56648,-8.781982 -12.32792,-13.625526 -0.10799,-0.353166 -0.25271,-0.71541 -0.48525,-1.026295 -0.71773,-0.934302 -1.69284,-1.668362 -2.53619,-2.495206 -0.29534,-0.294017 -1.9847,-1.673019 -0.99242,-0.964859 0.65668,0.448317 1.31337,0.896633 1.97005,1.344949 z m 7.40782,-0.709517 c 6.27711,0.123239 12.35841,2.169506 18.033,4.751649 2.31364,1.155623 5.02131,2.129197 6.29471,4.557345 2.09208,3.770646 3.92932,7.760618 4.8285,11.997412 0.47191,2.478603 0.32868,5.099148 -0.46959,7.457212 -1.23905,-0.970936 -2.21758,-2.322311 -3.44062,-3.356382 -4.54062,-4.102987 -9.5644,-7.617328 -14.30677,-11.473141 -5.11553,-4.432802 -9.78789,-9.359418 -14.98963,-13.701034 -0.34119,-0.520696 1.40817,-0.09494 1.91203,-0.233061 0.71279,0 1.42558,0 2.13837,0 z m -26.82834,2.001946 c 2.2969,0.744513 4.14062,2.46371 6.00787,3.947559 3.71342,3.238272 7.25262,6.750235 10.13481,10.750767 0.39093,0.460735 0.22962,0.626896 -0.24701,0.244946 -3.25767,-2.22549 -6.18203,-4.971873 -8.59431,-8.093046 -0.7055,-1.216491 -1.2592,-2.680258 -2.56703,-3.425415 -1.13873,-0.598776 -2.43394,-0.928272 -3.37806,-1.863397 -0.52745,-0.471937 -1.20711,-0.914601 -1.49425,-1.565031 l 0.0543,-0.01137 z m 19.06964,8.687323 c 4.64505,4.197303 8.67648,9.055497 12.28917,14.166062 1.00782,1.523116 2.07751,3.049757 2.67581,4.790405 -2.16971,-2.047436 -3.55498,-4.741333 -5.46874,-7.009013 -3.92624,-5.013222 -8.21284,-9.728134 -12.43146,-14.494584 0.9784,0.849045 1.95681,1.698088 2.93522,2.54713 z m -80.133085,0.278022 c 12.67608,0.16569 25.1351,3.997454 36.30217,9.849008 7.25702,3.859044 13.68147,9.111353 19.572007,14.807785 0.49371,0.627531 1.42263,1.270368 1.24739,2.158106 -1.12542,1.417529 -3.27123,0.957722 -4.555787,-0.0067 -1.19596,-0.952707 -2.18673,-2.15804 -3.53209,-2.92902 -0.49943,-0.38297 -0.86196,-0.446484 -1.16768,-0.700661 -1.24222,-0.692015 -2.59561,-1.249121 -4.02631,-1.333857 -3.71267,-1.409901 -6.82998,-3.959804 -10.25502,-5.928495 -5.63128,-3.399665 -11.39779,-6.681959 -17.59755,-8.933132 -6.66028,-2.423866 -13.75534,-3.456866 -20.82609,-3.500983 -2.74197,-0.109336 -5.52546,0.105238 -8.23311,-0.340643 -0.59051,-0.139245 0.10943,-0.677029 0.2961,-0.877982 2.04595,-1.675133 4.84772,-1.840548 7.36663,-2.102126 1.79299,-0.135437 3.60666,-0.165851 5.40934,-0.1613 z m -2.4412,5.099428 c 5.21933,-0.0064 10.43442,0.658601 15.3993,2.294417 6.27391,1.863672 12.01293,5.108749 17.73589,8.204882 3.96385,2.282402 8.03465,4.465751 11.59335,7.363177 1.05102,0.930979 1.86439,2.296475 1.44383,3.742925 -0.13295,0.922494 -0.55419,1.731513 -0.87798,2.579169 -0.24489,0.968968 -0.73927,2.192295 0.10077,3.035991 0.26464,0.393091 0.64869,1.114888 0.24753,1.489315 -1.20825,-0.189568 -2.13458,-1.189738 -3.12869,-1.840605 -3.71634,-2.894894 -7.2203,-6.24799 -11.67661,-7.996005 -3.52515,-1.467813 -7.34008,-2.239211 -10.73112,-3.983217 -0.56777,-0.0722 -0.62646,0.651227 -1.01906,0.903303 -0.43179,0.741278 -1.30747,1.036685 -2.12235,1.058849 -1.14534,0.294799 -1.06519,1.77609 -0.63149,2.621029 0.42615,1.095838 1.4615,1.87628 1.82831,2.969845 -0.59203,0.145978 -1.23636,-0.33782 -1.84406,-0.435388 -6.42581,-1.993889 -12.7076,-4.474795 -19.22907,-6.157492 -4.60705,-0.959892 -9.36101,-1.060317 -14.0473,-0.813456 -2.07509,0.04479 -4.05282,0.78287 -6.11064,0.915776 -0.25666,-0.192196 0.20158,-0.783101 0.25786,-1.104326 1.17859,-2.579436 2.35512,-5.262689 4.17856,-7.452775 1.81623,-2.082165 4.77908,-2.190184 7.33852,-2.247263 8.51536,-0.284763 16.99755,1.361388 24.99547,4.218464 9.78661,3.455302 18.9088,8.585279 27.4019,14.518233 0.58604,0.183845 0.86465,0.832164 1.44694,0.973584 0.30444,-0.153411 0.93605,0.369523 1.01906,-0.163814 -0.48613,-0.970767 -1.58153,-1.490067 -2.38788,-2.175632 -5.51091,-3.854455 -11.29287,-7.333453 -17.29181,-10.373341 -8.09045,-3.873791 -16.77442,-6.441718 -25.59278,-8.014517 -4.21651,-0.720403 -8.52899,-1.123517 -12.79052,-0.559851 -0.29502,-0.0763 -1.45316,0.152943 -1.18921,-0.323929 1.89516,-1.860479 4.69798,-2.243834 7.20244,-2.677623 2.80943,-0.418537 5.64286,-0.572328 8.48084,-0.569725 z M 139.1474,43.135881 c 2.15113,2.284148 2.88129,5.455931 3.68158,8.389829 1.55571,6.25665 1.93711,12.711687 2.51063,19.111894 0.57158,10.234282 1.48876,20.451772 2.85266,30.612216 1.5303,13.49663 2.82023,27.02475 3.83997,40.5702 0.2569,3.95691 0.50365,7.91498 0.86884,11.86371 0.10647,0.73819 0.18759,1.45055 0.10697,2.18333 0.4015,2.97335 1.22557,5.86593 1.80196,8.80722 1.59523,6.63457 3.01978,13.30646 4.1104,20.0416 1.70829,10.0562 3.84511,20.05983 5.09901,30.1787 2.2e-4,0.885 0.34912,2.08079 -0.42338,2.73718 -1.41844,0.41731 -3.02489,0.25639 -4.35219,1.02113 -1.29568,1.00013 -2.44409,2.21737 -3.8809,3.04478 -1.18314,0.66259 -2.44178,1.46783 -3.83336,1.48466 -0.87142,-0.30479 -0.7448,-1.49782 -0.91588,-2.23724 -0.19226,-2.81173 -0.11182,-5.64193 -0.3684,-8.4537 -0.4486,-5.78046 -1.17495,-11.53591 -1.70765,-17.30916 -0.98935,-8.95671 -1.96425,-17.91931 -2.33665,-26.92751 -0.47666,-8.84551 -1.41906,-17.6558 -1.81251,-26.50277 -0.47573,-7.83109 -1.11742,-15.63647 -1.55787,-23.46861 -0.6294,-9.20671 -1.11342,-18.430455 -2.1152,-27.606194 -1.54187,-12.60602 -2.41827,-25.300766 -2.58793,-38.002826 0.0458,-3.117578 -0.11064,-6.280037 0.51657,-9.347235 0.11199,-0.280522 0.2013,-0.755253 0.50333,-0.191204 z m -37.59305,4.604888 c 3.34133,2.416292 6.01561,5.667756 8.94157,8.570021 1.44642,1.772526 3.27459,3.632729 3.3569,6.066811 -0.077,0.430009 0.0725,1.207947 -0.40308,1.393714 -1.36218,-0.617604 -2.29849,-1.978626 -3.6828,-2.637854 -1.3898,-0.755041 -3.02489,-1.357519 -4.6247,-1.089051 -0.27625,0.220266 -1.02487,0.05472 -0.92294,0.559657 0.14355,0.295217 -0.15648,0.809932 0.26148,1.038696 1.52179,0.401114 2.6918,1.605272 3.92741,2.53111 1.23336,1.107377 2.64835,2.12757 3.5078,3.566708 0.23621,1.082953 1.28408,1.763434 2.02365,2.508374 1.79087,1.459942 3.65632,2.925223 5.81049,3.805454 1.32894,0.291378 2.22897,1.462421 3.21078,2.315957 2.94708,3.63787 6.24625,7.03333 8.61757,11.09865 3.20472,4.55064 5.63467,9.6716 7.14996,15.021614 0.80196,2.98612 1.25668,6.0792 1.21271,9.17344 -1.24459,-3.0021 -1.74793,-6.25651 -3.03134,-9.24904 -2.40083,-6.012094 -5.46204,-11.752254 -8.91924,-17.220464 -1.57012,-2.39947 -3.44837,-4.77853 -6.10893,-6.0039 -1.11376,-0.61395 -2.20097,-1.28934 -3.06013,-2.23514 -0.65776,-0.60991 -1.94624,-0.79675 -2.42363,0.11317 -1.32991,-0.52729 -1.6435,-2.157994 -2.55281,-3.143996 -0.7628,-1.054875 -1.86331,-1.851797 -3.09345,-2.220928 -2.00461,-1.016789 -3.41815,-2.83286 -5.2802,-4.041222 -0.56087,-0.416285 -1.35208,-0.177226 -1.63194,0.449585 -0.49448,0.491514 -0.46967,1.30152 -1.05679,1.752349 -0.48223,0.595265 -1.10237,-0.08625 -1.69259,-0.05426 -1.08398,-0.198337 -2.213758,-0.220731 -3.289528,-0.328668 -0.40946,-0.475255 -0.9995,-0.149635 -1.41749,0.05374 -0.32112,-0.01433 -0.90932,0.117322 -0.6444,0.557588 0.17205,0.768342 0.97933,1.46181 0.78445,2.244307 -1.38522,-0.451114 -2.57139,-1.482069 -3.827717,-2.231588 -1.19179,-0.68317 -2.26763,-1.721628 -3.63281,-2.027066 -0.71896,0.01987 -0.53974,0.976987 -0.50488,1.457791 0.44216,1.513663 1.51029,2.862035 2.8267,3.717602 0.863,0.315727 1.40221,1.207199 1.939627,1.923854 0.44224,0.965062 1.12771,1.795712 1.69788,2.663982 0.44456,1.03272 1.66187,1.46689 2.43553,2.21858 2.00304,1.71574 4.413628,2.99578 6.111408,5.03891 1.61125,2.43696 3.66239,4.53195 5.57674,6.72564 -1.30256,-1.20241 -2.48099,-2.58609 -4.12375,-3.34717 -1.48958,-0.73679 -2.94551,-1.55901 -4.13656,-2.7324 -0.49411,-0.18799 -0.56486,-0.94259 -1.184588,-0.90089 -0.61029,-0.0163 -0.96154,0.71331 -0.67696,1.21647 0.0267,0.66968 0.45574,1.32853 0.56121,1.91357 0.15865,0.80183 0.958928,1.34054 1.365288,2.03554 0.64941,0.92319 1.72487,1.55295 2.23449,2.54403 -0.59896,0.24845 -1.71322,-0.20606 -1.92702,0.64544 0.0779,1.70447 0.8854,3.29717 1.63246,4.8028 0.0672,0.28241 0.54173,0.66334 0.42581,0.87282 -0.6409,-0.0601 -1.00243,-1.00544 -1.67121,-0.96687 -0.22505,0.43563 0.45599,0.84742 0.63045,1.209752 1.25107,1.608962 2.84577,2.939872 4.02611,4.581702 0.47634,0.86456 1.5561,0.94596 2.41742,0.9493 0.62055,-0.31155 0.0961,-1.12324 -0.12815,-1.55133 -1.63647,-2.67129 -4.35514,-4.649124 -5.37849,-7.693144 -0.29753,-0.67769 0.35054,-1.34749 1.04077,-1.20974 0.58557,0.0677 0.93117,-0.59509 0.56586,-1.05007 -1.29873,-2.08865 -3.68447,-3.41764 -4.44263,-5.826 0.0328,-0.36488 0.52226,0.2825 0.69792,0.31451 0.77621,0.59528 1.58567,1.28271 2.5856,1.43112 2.03925,1.21102 3.7797,2.87772 5.51543,4.47001 0.85356,1.03994 2.14335,1.54287 3.37757,1.95699 0.49514,0.14645 1.08449,-0.19068 0.92759,-0.7612 -0.0773,-0.91031 -1.10694,-1.32649 -1.57356,-2.0359 -2.09713,-2.10539 -4.25679,-4.16958 -6.05543,-6.54342 -1.94183,-2.94046 -4.9899,-4.87371 -7.689588,-7.02973 -0.94037,-0.80221 -1.88063,-1.6786 -2.57438,-2.69267 -1.10728,-2.183299 -3.178897,-3.658081 -4.626587,-5.559869 -0.35921,-0.493149 0.4258,-0.09212 0.61185,-0.01085 1.952137,0.900266 3.537617,2.51315 5.583117,3.210658 0.5947,0.05797 0.88687,-0.511942 1.18339,-0.878499 0.57704,-0.591002 -0.21467,-1.396801 -0.62994,-1.830379 -0.24432,-0.437327 0.61663,-0.268714 0.83871,-0.310576 1.09566,0.04873 2.340118,0.0944 3.196698,0.890902 0.48881,0.243158 1.09443,0.201777 1.59164,0.04082 0.51989,-0.362617 0.36294,-1.077246 0.66146,-1.581814 0.16896,-0.5196 0.3606,-1.344002 1.0511,-1.168922 0.49124,0.0659 0.4064,0.757669 0.93275,0.854213 0.61959,0.03398 1.05207,0.424696 1.45573,0.880565 1.10857,0.915895 1.95652,2.363123 3.50883,2.579172 1.80619,0.576558 2.49573,2.558349 3.4897,3.985439 0.51423,0.61256 0.84752,1.67285 1.7875,1.68967 0.76167,0.27795 1.25232,-0.52227 1.53324,-1.07022 0.66438,0.24943 0.90359,1.07582 1.51209,1.45551 1.80106,1.58525 4.40662,2.10765 5.79773,4.17717 2.94165,3.67012 4.94017,7.98487 7.28222,12.04554 1.48768,2.90291 2.80705,5.917104 3.84812,9.013934 1.06836,3.56285 1.82889,7.28662 1.62424,11.02138 -0.48534,2.05519 -2.32729,3.37968 -3.59255,4.95643 -0.23413,0.45533 -0.96232,0.72291 -1.2025,0.13628 -0.65632,-1.30744 -1.26119,-2.65711 -2.25476,-3.75711 -0.54693,-0.60551 -0.96381,-1.27084 -1.49282,-1.86787 -0.89829,-0.86048 -1.7446,-1.77849 -2.70461,-2.56743 -2.77334,-2.66061 -4.86331,-5.90451 -6.69598,-9.25145 -1.19253,-1.82174 -2.21639,-3.822825 -3.96684,-5.188684 -1.20515,-1.11802 -2.63559,-2.4551 -4.40047,-2.34068 -0.70578,0.0779 -1.26253,0.65188 -1.54461,1.2423 0.46609,2.334982 2.25362,4.101684 3.64577,5.937694 4.97748,5.76363 9.59183,11.90138 13.11744,18.67123 0.56993,1.32849 1.51507,2.70851 1.24292,4.21885 -1.19222,1.25962 -2.83815,2.00138 -4.44417,2.62309 -0.74437,0.13583 -0.69247,-0.92716 -0.95599,-1.3617 -0.94438,-2.63559 -2.35642,-5.10002 -3.90263,-7.40469 -0.074,-0.63555 -0.90695,-0.90138 -1.13376,-1.48932 -2.18425,-2.95535 -4.87255,-5.48667 -7.761,-7.74227 -3.05625,-2.35211 -6.35996,-4.39237 -9.27054,-6.92815 -3.669738,-3.11885 -7.192978,-6.458744 -10.461375,-9.974654 -0.79838,-1.11762 -2.00028,-1.91383 -3.0419,-2.77486 -0.73189,-0.35634 -1.59892,-1.14519 -2.48179,-1.58302 -2.16828,-1.20111 -4.53964,-2.05084 -6.52333,-3.5632 -1.66372,-1.17306 -3.29962,-2.4213 -4.57449,-4.02699 -0.89113,-1.02932 -2.07313,-1.99001 -2.25847,-3.4174 -1.01145,-1.81671 -2.92978,-2.987659 -4.85252,-3.64658 -0.939,-0.285948 -2.36792,-0.491365 -2.8607,0.602321 -0.46753,0.600279 0.14268,1.466379 0.63872,1.872749 0.1926,0.182 0.4172,-0.17783 0.52348,0.17725 1.57394,1.26021 2.69499,3.12284 2.79507,5.1399 0.19091,0.63695 0.2059,1.24317 -0.51711,0.78352 -1.75333,-1.01647 -3.27241,-2.41907 -4.99292,-3.50539 -2.94802,-1.99992 -6.00011,-3.83647 -8.9234,-5.874232 -2.88822,-1.908821 -5.65313,-4.060524 -8.74828,-5.672445 -5.77303,-3.163593 -12.10322,-5.420915 -18.65904,-6.168596 -3.44105,-0.121941 -7.11208,0.06638 -10.08403,2.009754 -1.41096,0.747233 -2.41234,2.157529 -3.93165,2.692283 -0.69773,0.01503 -0.57639,-1.01456 -0.60306,-1.504301 0.0103,-1.326698 0.40194,-2.692808 1.45511,-3.580749 2.65377,-2.388251 6.34708,-3.017012 9.76823,-3.422767 7.28758,-0.776782 14.40018,1.587807 21.27513,3.738285 4.48514,1.462667 8.98217,3.009712 13.52662,4.21608 0.41618,0.111532 1.00839,-0.159917 0.77618,-0.672312 -0.69535,-1.734785 -2.26157,-2.971435 -2.93573,-4.697904 0.0873,-0.603518 0.9339,-0.544428 1.34151,-0.882116 0.64758,-0.243205 0.957,-1.066276 1.73323,-0.936895 1.84917,0.05373 3.54207,1.028205 5.32687,1.470671 2.96241,0.875768 5.98597,1.770369 8.52078,3.608218 3.35174,2.206744 6.37017,4.876305 9.67251,7.146919 0.80622,0.508183 1.93664,1.242166 2.82449,0.473676 0.83779,-0.805561 0.23358,-2.020194 -0.17673,-2.879929 -0.47436,-1.603562 0.70351,-2.994419 0.84822,-4.569526 0.27451,-1.258017 0.20594,-2.548125 0.38942,-3.809291 2.50207,0.757368 4.34292,2.767407 6.36086,4.32997 1.367657,1.04562 3.393987,1.932411 5.003307,0.877464 1.83306,-1.321829 2.18356,-3.781808 2.41122,-5.870958 0.21533,-1.097492 0.18663,-2.36569 0.8568,-3.294888 1.594468,-0.09305 2.944788,-1.063305 4.288108,-1.826247 0.42545,-0.509677 1.00071,-1.083305 0.79943,-1.824694 0.0732,-0.620445 -0.56722,-1.155964 -0.79013,-1.733745 -0.73016,-1.245966 -1.90198,-2.311191 -2.66805,-3.433382 z m 43.3281,1.724443 c 3.15117,5.841222 4.60206,12.37896 6.15936,18.785218 3.37255,14.736006 5.54346,29.709486 7.88651,44.63768 1.41773,8.9568 3.33387,17.82414 5.27801,26.67607 1.84381,8.76817 3.43983,17.58963 4.95939,26.40924 1.46946,7.83102 4.91904,15.08004 7.88519,22.41815 1.21129,2.99039 2.51781,5.95737 3.53892,9.01507 0.14773,0.60287 0.0483,1.25656 -0.54157,1.59577 -1.3334,1.07271 -3.072,1.50835 -4.76457,1.53014 -1.25142,0.1538 -2.31876,0.89418 -3.13676,1.81591 -0.38333,0.47552 -0.99754,0.19282 -1.07952,-0.35708 -0.80536,-2.71585 -0.73478,-5.66131 -1.2296,-8.46952 -1.05019,-7.7384 -2.7371,-15.36798 -4.53849,-22.96111 -2.30932,-9.86991 -4.51681,-19.76682 -6.12639,-29.77636 -1.75661,-10.66009 -3.57956,-21.31744 -5.37876,-31.97142 -0.96472,-5.89261 -1.51992,-11.843204 -2.36743,-17.753764 -0.33728,-1.55206 -0.36134,-3.20615 -0.97254,-4.68204 -0.31604,-0.45623 -0.76581,0.12422 -0.68471,0.50488 0.007,3.69636 0.69435,7.35394 1.10019,11.02 1.25865,10.618674 3.3942,21.103914 5.22655,31.629224 1.18732,6.92453 1.89967,13.91973 3.30314,20.80988 1.99927,10.74245 4.91597,21.28753 6.95185,32.02124 1.41857,7.33135 2.81669,14.70829 3.04188,22.19059 -2.71798,-7.35441 -4.74503,-14.96958 -6.64714,-22.57697 -2.65776,-11.54877 -5.03133,-23.17028 -6.88485,-34.87379 -1.12636,-7.74743 -2.21995,-15.49855 -3.37845,-23.24103 -1.1001,-7.49463 -2.00032,-15.01743 -2.79836,-22.55016 -0.87341,-6.899084 -1.54965,-13.816574 -2.09616,-20.749444 -0.90899,-10.050357 -1.58978,-20.122494 -2.64298,-30.158982 -0.008,-0.238064 -0.15859,-0.91228 -0.0627,-0.937392 z m 3.89485,1.460376 c 1.44875,1.909437 2.28578,4.205483 3.29351,6.359321 2.07912,4.624581 3.53201,9.485937 4.80126,14.387052 3.07084,11.635245 6.06092,23.299895 8.62078,35.059509 1.85725,9.60848 3.03444,19.32418 5.13987,28.88829 1.19582,5.39311 2.29622,10.80929 3.57137,16.18259 3.18808,12.52939 6.77732,24.95067 10.29506,37.39032 -1.01685,0.67608 -1.79913,1.79095 -3.02462,2.05776 -0.67817,-0.5539 -1.00534,-1.5597 -1.48286,-2.31358 -1.53868,-3.25001 -3.00052,-6.54222 -4.55009,-9.79029 -2.46758,-5.21167 -4.25575,-10.74867 -5.22476,-16.43134 -1.45954,-8.63949 -2.96846,-17.27644 -4.85236,-25.83647 -1.98421,-8.88748 -3.81623,-17.80514 -5.22068,-26.80251 -2.31305,-13.781404 -4.5311,-27.579344 -6.84888,-41.359289 -0.93146,-5.018952 -2.15903,-9.99015 -3.7674,-14.831221 -0.26812,-0.968216 -0.61495,-1.998752 -0.7502,-2.960142 z m 5.39037,5.584155 c 3.5023,4.244938 5.74846,9.346219 7.80018,14.404787 4.22492,10.697756 7.1066,21.861056 10.326,32.89342 2.9754,9.89542 6.20845,19.71326 9.06252,29.64412 3.01466,10.15131 6.50884,20.14888 9.86278,30.19097 1.04809,3.44725 2.41514,6.84861 2.91972,10.42549 0.0271,1.62313 -1.33436,2.81477 -2.30665,3.95544 -0.96368,1.03889 -2.16561,1.93992 -3.32039,2.65966 -1.51824,-2.98022 -2.37499,-6.24174 -3.59246,-9.34838 -4.04797,-11.34975 -7.96979,-22.77477 -10.69215,-34.52375 -4.55474,-21.58403 -9.54037,-43.089074 -15.32764,-64.379875 -1.31285,-4.796378 -2.72773,-9.56958 -4.36604,-14.263585 -0.0945,-0.475048 -0.52109,-1.554051 -0.37512,-1.668274 z m -36.56469,3.593579 c 1.71653,0.588621 3.14465,1.874623 4.30878,3.234944 0.77794,1.387941 2.15706,2.389325 3.72018,2.687174 1.67664,0.571723 2.63815,2.121583 3.47369,3.573426 3.07803,5.222658 6.0365,10.54019 8.53013,16.07512 1.17787,2.59725 1.66165,5.4734 1.42663,8.32946 -0.0533,1.1855 -0.10662,2.371 -0.15994,3.5565 -1.54335,-3.43462 -3.08111,-6.92234 -5.39096,-9.92406 -1.10759,-1.51579 -2.04134,-3.13658 -3.0121,-4.73726 -2.29907,-3.27884 -5.02138,-6.27834 -8.06828,-8.876258 -0.64113,-0.48519 -1.35336,-0.891762 -2.16421,-0.95963 -2.42252,-0.999659 -4.5217,-2.67833 -6.35012,-4.535284 -0.77273,-0.778531 -0.9914,-1.915094 -1.80103,-2.675242 -1.06306,-1.406644 -2.69729,-2.341186 -3.55046,-3.901458 0.72162,0.105791 1.41553,0.81117 2.04186,1.276609 1.08657,0.878607 2.21133,2.006018 3.66063,2.170727 1.12389,-0.138449 2.14041,0.652787 3.09904,1.139981 1.22322,0.718441 2.43826,1.762617 3.91345,1.822111 0.59728,-0.11807 0.20497,-0.935461 0.1757,-1.3193 -0.57333,-2.024674 -1.43013,-4.038658 -2.78536,-5.666319 -0.29843,-0.385188 -0.76406,-0.500452 -1.10174,-0.801502 -0.13581,-0.123037 -0.34533,-0.560795 0.0341,-0.469739 z m 0.76067,1.018543 c 0.004,0.0055 -0.007,-0.0058 0,0 z m -95.084105,2.550231 c 5.67603,0.152837 11.19462,1.956567 16.39326,4.175461 4.17948,1.803045 8.0959,4.168362 11.69785,6.95157 4.51725,3.189259 9.35283,5.909879 13.72231,9.311009 9.16097,6.65547 17.16184,14.73139 24.98097,22.877274 3.571207,3.84938 7.314927,7.56244 10.537315,11.71293 0.87848,1.19004 1.93333,2.81763 1.03198,4.27157 -0.67474,0.94452 -1.31986,2.26475 -0.57516,3.35949 -0.0649,0.92511 0.11784,1.89055 -0.46199,2.68562 -0.295,0.72613 -0.813138,1.82408 -0.0672,2.44223 0.4554,0.26849 0.98036,0.0506 1.44901,0.14934 1.49621,-0.49763 2.58084,-1.72161 3.84085,-2.61384 1.03633,-0.8405 2.12469,-1.61742 3.02643,-2.61426 0.49127,-0.47795 1.41455,-0.8485 1.79609,-0.021 0.43526,0.62803 1.349,1.57698 0.58671,2.30048 -2.37503,2.41445 -5.49458,3.83147 -8.36758,5.52995 -0.30632,0.40457 -1.13043,0.17224 -1.29798,0.65158 0.27791,0.29437 0.81489,0.15014 1.19321,0.29662 1.25058,0.0638 2.23391,-0.83187 3.35529,-1.23579 2.01205,-0.96417 3.90027,-2.1762 5.74463,-3.41079 0.55722,-0.22719 1.15044,-0.48544 1.7666,-0.41719 0.43046,0.78197 0.97445,1.79885 0.58343,2.67322 -2.79538,2.32716 -5.97105,4.18022 -9.06062,6.1001 -1.18834,0.63234 -2.32175,1.51784 -3.61665,1.85032 -0.68596,-0.79634 0.29823,-1.97463 -0.34158,-2.80655 -0.56418,-0.51568 -1.358878,0.0226 -1.443828,0.68678 -0.37197,0.85587 0.1938,2.20264 -0.84853,2.66599 -1.26832,0.104 -2.23499,-1.02462 -3.08852,-1.81085 -0.52244,-0.39173 -1.08455,-1.16779 -1.80731,-1.01792 -0.37236,0.49628 0.28063,1.10651 0.52555,1.52807 0.82137,1.04646 1.80792,1.94762 2.70733,2.92489 -1.3523,2.7221 -2.83024,5.38702 -4.873107,7.66525 -3.70803,4.273 -7.99764,8.17838 -12.9041,11.01165 -6.23772,3.18031 -12.84095,5.55929 -19.41541,7.93725 -5.43191,1.85893 -10.88391,3.78174 -16.4998,5.00551 -2.47094,0.46966 -5.02444,0.25701 -7.53123,0.26418 -4.23138,-0.91773 -8.37542,-2.60211 -11.92124,-5.10201 -1.75557,-1.30541 -3.17339,-3.00681 -4.09936,-4.99002 -1.20593,-2.2449 -2.26606,-4.58675 -2.85175,-7.06493 -2.29203,-6.11875 -5.25943,-11.96754 -7.2434599,-18.20552 -2.71566,-7.95261 -3.99927,-16.33471 -4.16173,-24.72645 -0.16737,-3.57459 -0.0791,-7.21069 1.1011,-10.62846 0.51761,-1.42595 0.74044,-3.03617 1.71043,-4.240415 0.70044,-0.398437 1.43221,0.389875 2.1431399,0.490095 2.17609,0.81009 4.59784,1.03614 6.83668,0.34145 0.75324,-0.23277 1.75832,-0.35151 2.67115,-0.22479 0.34731,0.95292 -0.57196,1.91662 -1.46388,2.15629 -1.97981,0.72117 -4.08748,0.21976 -6.06227,-0.22979 -0.43763,-0.002 -1.22723,-0.28379 -1.44746,0.2403 -1.02022,-0.0212 0.0796,0.2928 0.45062,0.55707 1.87836,0.91392 4.02368,1.26235 6.10195,1.24075 0.58226,0.0543 1.24585,-0.46848 1.75132,-0.12247 0.12221,1.43075 -0.34916,2.86249 -0.6278,4.26449 -1.34802,5.20671 -3.18159,10.27696 -5.52377,15.10952 -0.39533,1.1132 -0.87433,2.28094 -0.83612,3.47576 0.0636,1.30214 0.73551,2.55103 1.88076,3.21456 1.55026,1.13512 3.31089,1.96484 4.98239,2.86672 0.42147,0.45531 1.47939,1.03165 1.82521,0.22169 0.26741,-0.62878 -0.59125,-0.98473 -1.00108,-1.30028 -1.87449,-1.30842 -4.16969,-2.26077 -5.45383,-4.2353 -0.94492,-1.78344 0.17597,-3.78209 0.97875,-5.41211 1.30473,-2.51344 2.32736,-5.16485 3.03841,-7.90525 1.36337,-4.28009 2.64916,-8.60917 3.42176,-13.03999 0.38006,-2.790294 0.39759,-5.655734 -0.1617,-8.412834 -0.51254,-3.35598 -1.89808,-6.82494 -4.81587,-8.78589 -1.61531,-1.05409 -3.39538,-1.89316 -5.25187,-2.42155 -1.15689,-0.23638 -2.5295599,-0.4249 -3.2954099,-1.41284 0.42102,-2.02443 1.30494,-3.95506 1.9923699,-5.916715 1.50323,-3.94421 3.59193,-8.12084 7.53418,-10.066287 1.56239,-0.7391 3.34666,-0.842457 5.06016,-0.814938 z m 119.797845,6.885368 c -0.33205,-0.09134 -0.29264,0.191879 -0.45268,0.496094 -0.25879,2.584874 0.12133,5.193738 0.21176,7.780898 0.44088,6.43942 0.70303,12.90425 1.7571,19.28234 1.01887,7.343344 2.41849,14.644304 3.23314,22.004904 0.3724,3.87913 0.63324,7.80046 0.36077,11.69264 -0.36388,1.03769 -0.68372,2.12003 -0.50365,3.23849 -0.0803,0.98794 -6.8e-4,1.64607 -0.16074,2.60803 -0.36241,1.88537 -1.09502,3.71864 -0.99054,5.67518 -0.0252,3.7555 0.75641,7.45149 1.41431,11.1249 0.81006,2.52426 1.43414,5.12137 2.38795,7.60757 1.82638,5.03542 3.09382,10.27697 3.57838,15.61251 0.54032,5.49152 1.09699,11.02004 1.01309,16.53047 -0.0748,0.92832 -0.25021,2.02423 -0.51728,2.81327 -1.19493,-1.96645 -1.12281,-4.39929 -1.45006,-6.61642 -0.73831,-6.87416 -0.59091,-13.85634 -1.99469,-20.65117 -0.41554,-0.9681 -0.29865,-2.17811 -0.94103,-3.03444 -0.42937,-1.00151 -0.41421,-0.006 -0.34004,0.59986 0.0719,2.21831 0.49646,4.40454 0.59328,6.62695 0.64012,6.80654 0.91395,13.65471 1.90322,20.4237 0.25671,1.63669 0.58516,3.41497 1.90014,4.56303 0.32576,0.40408 1.00886,0.76385 1.36271,0.19017 1.00997,-1.64955 1.13957,-3.67125 1.31851,-5.55417 0.19276,-3.07978 -0.56443,-6.11296 -0.81722,-9.16916 -0.82312,-6.26593 -1.10842,-12.6669 -3.07674,-18.719 -1.7984,-6.03213 -4.19782,-12.00222 -4.4696,-18.35141 -0.39878,-6.48131 0.75993,-12.89581 1.37356,-19.32389 -0.0515,-1.54058 0.0156,-3.11816 -0.20398,-4.63165 -0.20331,-1.41801 -0.37595,-3.19235 -0.62193,-4.74664 -1.9286,-13.51671 -4.54055,-26.989094 -4.91913,-40.666764 -0.0896,-2.352787 0.14202,-4.790335 -0.47877,-7.079343 -0.0601,-0.144219 -0.23711,-0.370959 -0.46984,-0.326949 z m -66.586625,0.388607 c -0.57263,0.0057 -0.11178,0.687766 0.11885,0.871265 1.20191,1.319004 2.71134,2.306069 3.98994,3.536217 0.27556,-0.09799 0.79473,0.161314 0.8723,-0.255799 -0.42423,-1.039789 -1.47918,-1.692907 -2.27268,-2.444893 -0.85145,-0.71292 -1.79545,-1.340572 -2.76215,-1.850966 l 0.0462,0.123957 z m -11.34556,4.470011 c 1.49781,0.427469 2.79686,1.395424 4.03128,2.335254 0.49802,0.39628 0.66947,0.92455 0.72605,1.53479 0.80557,2.77034 3.50692,4.28395 5.2648,6.38669 1.23812,0.924 2.56515,1.74676 3.93989,2.45162 2.87957,1.27395 5.7946,2.67363 8.29428,4.59198 4.41857,4.79767 9.166847,9.293214 14.179195,13.463754 2.94225,2.28164 6.12493,4.34216 8.89817,6.87266 3.88699,3.52093 7.67649,7.44361 9.76632,12.32255 0.55863,1.27886 0.7997,2.67458 0.52659,4.06745 -1.43012,-2.39572 -2.35148,-5.07592 -4.00183,-7.35097 -2.14229,-3.06414 -4.69673,-6.05014 -8.09718,-7.7432 -1.09486,-0.54083 -2.43475,-0.73888 -3.5357,-0.11988 -0.68447,0.18627 -0.98194,1.03483 -0.53381,1.59111 0.50688,1.54962 2.3967,2.15191 3.88658,1.98386 0.53439,-0.0363 0.48033,-0.70319 0.0475,-0.86403 -0.81945,-0.62387 -2.21082,-0.39178 -2.69131,-1.42369 0.0251,-0.77236 1.0864,-0.41368 1.51609,-0.20449 3.82954,1.82914 6.95545,5.02176 8.94504,8.75786 1.14803,2.24646 2.35556,4.64072 2.3691,7.21622 -0.0942,0.74163 -1.03706,1.7594 -1.78181,1.08882 -1.03695,-0.8127 -1.1717,-2.23966 -1.96163,-3.24993 -2.88781,-4.54586 -7.05853,-8.04301 -11.08824,-11.53195 -8.919658,-8.08376 -17.148815,-16.89196 -26.100955,-24.941114 -2.64623,-2.51848 -5.66594,-4.64623 -8.12221,-7.36052 -1.52086,-1.76656 -1.1389,-4.23417 -1.73426,-6.34844 -0.18697,-1.10477 -1.12944,-1.88911 -2.12545,-2.27997 -0.36368,-0.27311 -1.14417,-0.68255 -0.95137,-1.214911 0.1013,-0.06008 0.22279,-0.07354 0.33487,-0.03152 z m -55.13049,9.246984 c 2.56706,0.09 5.05067,1.11983 7.20895,2.41807 1.58984,1.06441 2.46956,2.91649 2.8075,4.74221 -0.97868,-1.20753 -1.72976,-2.6654 -3.12746,-3.47059 -2.0878,-1.45212 -4.71859,-1.62749 -7.1752199,-1.42014 -0.73648,0.022 -1.98305,0.0454 -2.02732,-0.96162 0.0385,-1.02767 1.5091,-1.30652 2.3135499,-1.30793 z m 35.47794,0.23874 c -3.28164,0.12758 -6.64815,0.23134 -9.78907,1.27744 -0.85921,0.34502 -1.61572,1.19832 -1.67638,2.14251 0.1765,1.00039 1.46057,1.00209 2.25774,0.95136 2.07273,-0.19879 4.00985,-1.08287 6.09834,-1.1343 5.79796,-0.41466 11.65087,0.19576 17.28648,1.58952 2.143,0.54488 4.25324,1.32078 6.05031,2.65102 0.2441,0.21737 1.00556,0.41182 0.90566,-0.14311 -0.25177,-0.98008 -1.27589,-1.46162 -1.97198,-2.10788 -3.3754,-2.24991 -7.32032,-3.45257 -11.19497,-4.52871 -2.61083,-0.58359 -5.29592,-0.74969 -7.96613,-0.69785 z m -33.07912,3.60805 c 1.96164,0.15552 4.004,0.97542 5.22337,2.61977 0.81333,0.92575 1.78822,2.08931 2.25938,3.07291 -0.87242,-0.70498 -1.57023,-1.63997 -2.64002,-2.08816 -2.15463,-1.14498 -4.64498,-1.47372 -7.03671,-1.47318 -0.5111199,-0.004 -1.1725599,-0.11823 -0.9990999,-0.79085 0.10373,-0.82442 1.1171899,-1.26861 1.8903199,-1.27434 0.43298,-0.0293 0.86857,-0.11555 1.30276,-0.0661 z m 33.74368,4.1367 c -1.73032,0.1946 -3.3841,0.96188 -4.64676,2.16989 -1.09089,0.96152 -2.35318,1.89156 -2.97758,3.24063 -0.13032,0.71051 -0.68788,1.284742 -1.06453,1.887229 -0.19441,0.360645 -1.04926,0.842435 -0.64958,1.305415 0.57021,0.16757 1.22903,0.0318 1.71088,0.48949 1.34592,0.75129 2.06626,2.24064 3.43994,2.98541 3.03403,1.92797 6.6528,2.79206 10.20843,3.01185 2.60912,-0.0235 5.19253,-0.63009 7.67087,-1.40799 0.94023,-0.25469 1.55823,-1.08624 2.49391,-1.33532 -0.58219,-0.13219 0.0663,-0.69602 -0.26717,-1.05626 -0.4222,-0.25094 -0.20907,-0.85987 -0.41529,-1.28544 -0.60051,-3.006835 -2.95678,-5.287544 -5.56936,-6.691924 -3.06818,-1.7161 -6.44827,-2.88174 -9.93376,-3.31298 z m -31.34382,0.99839 c 0.45442,-0.0271 0.91698,0.2086 0.70538,0.74052 0.0265,0.63265 -1.1302,0.73038 -0.79995,1.47019 0.20669,0.33044 0.46779,0.64495 0.78341,0.85938 0.92443,0.20208 1.97538,0.46318 2.83084,-0.13487 0.94098,-0.64478 1.61178,1.00445 0.92449,1.56166 -0.89928,1.179422 -2.6054,0.993602 -3.91764,0.88294 -1.36493,-0.0555 -2.6211,-1.21052 -2.52228,-2.62857 -0.0341,-1.18424 0.57552,-2.80201 1.99575,-2.75125 z m -3.71192,0.13384 c 0.0926,1.12513 -0.58343,2.30944 -0.19017,3.45819 0.21335,0.64549 1.22117,0.89803 0.91829,1.72031 -0.39842,0.477292 -1.06669,-0.23061 -1.38493,-0.5209 -0.6909599,-0.83322 -1.5119999,-1.79448 -1.4603699,-2.93574 0.21719,-0.95607 1.2623899,-1.47163 2.1171799,-1.72186 z m 35.87533,0.44028 c 3.88679,0.12589 7.57038,1.93733 10.58591,4.30052 1.52226,1.214059 2.83872,2.813174 3.18689,4.779894 0.34396,0.70319 -0.46021,0.0634 -0.76274,-0.0561 -1.76447,-1.10899 -3.45086,-2.39529 -5.37332,-3.256205 -3.44972,-1.655229 -7.22527,-2.940719 -11.09493,-2.823599 -1.1567,0.0358 -2.15176,0.67014 -3.20755,1.04438 0.89813,-2.29989 3.38391,-3.48678 5.67306,-3.91951 0.32816,-0.0603 0.65991,-0.0721 0.99268,-0.0694 z m 64.914895,3.51762 c 2.12924,0.46117 3.58958,2.286414 4.94536,3.854714 2.05867,2.51589 3.50966,5.44906 5.49816,8.02056 1.1902,1.66147 2.64638,3.10012 4.00901,4.61922 2.04528,2.13891 4.44381,4.19881 5.46305,7.0535 0.45334,1.20031 -0.24411,2.52997 -1.34462,3.07784 -0.58505,-0.11086 -0.74468,-0.92634 -1.1188,-1.34255 -1.00083,-1.80545 -1.81926,-3.71817 -2.97007,-5.44437 -3.17771,-5.15298 -7.06304,-9.81327 -11.06356,-14.34068 -1.30094,-1.6724 -2.93586,-3.2128 -3.56012,-5.267764 -0.0181,-0.10549 0.004,-0.27314 0.14159,-0.23047 z m -67.014515,1.26297 c 0.79773,0.0801 1.96501,0.0188 2.38281,0.844909 0.11853,0.777675 -0.12265,1.606765 -0.22273,2.354455 -0.29833,0.60639 0.3181,1.08731 0.32918,1.67793 0.20482,0.66708 0.54778,1.37909 0.66456,2.01332 -1.49748,-0.15504 -2.9287,-0.81868 -4.30206,-1.43196 -1.29904,-0.68445 -2.94167,-1.72653 -2.88097,-3.3848 0.2819,-1.309845 1.81654,-1.761812 2.95124,-1.986522 0.35614,-0.0582 0.71708,-0.0878 1.07797,-0.0873 z m 5.46169,1.376724 c 0.52041,-0.0353 1.37695,0.021 1.3317,0.73743 0.0236,0.89694 -0.41982,2.26668 0.62167,2.7864 1.21454,0.32286 2.04461,-0.90572 2.91558,-1.4888 0.57171,-0.34285 1.20952,0.0362 1.341,0.65164 -0.27064,1.08255 -1.39741,1.6968 -2.20245,2.37918 -0.89637,0.78749 -2.09896,0.41723 -3.17448,0.54622 -1.09222,-0.40568 -2.08129,-1.17527 -2.37195,-2.34094 -0.31501,-0.93631 -0.21287,-2.06443 0.28164,-2.92747 0.312,-0.34508 0.83391,-0.3302 1.25729,-0.34366 z m 8.21603,3.84835 c 0.43133,0.0392 0.66407,0.63178 0.15658,0.7891 -0.60606,0.35292 -1.38043,0.7311 -2.07842,0.55087 0.37967,-0.66614 1.10226,-1.35921 1.92184,-1.33997 z m 3.12694,2.71612 c -1.12024,0.23863 -2.11967,1.03815 -3.31264,1.14384 -2.53703,0.62212 -5.18473,0.54228 -7.73681,1.08238 -0.24299,0.21263 -1.22964,0.21565 -0.67989,0.43491 0.68038,0.0258 1.29548,0.47478 2.01345,0.44814 3.28772,0.31096 6.71009,-0.34858 9.57132,-2.01353 0.37693,-0.18308 0.58327,-0.59284 0.3921,-0.95466 -0.0288,-0.10601 -0.14836,-0.14486 -0.24753,-0.14108 z m 79.031345,7.93181 c 0.81709,4.54016 0.87228,9.19423 1.2838,13.78875 0.54284,7.90925 1.12656,15.80956 1.58089,23.7166 0.28096,3.77547 0.70379,7.54365 0.70461,11.32785 -0.83969,0.0436 -1.33514,-0.8786 -1.88449,-1.40835 -3.16001,-3.19889 -7.10654,-5.49098 -11.04702,-7.5911 -2.78362,-1.40873 -5.71919,-2.73426 -8.83477,-3.07097 -1.92785,-0.27846 -2.65201,-2.3332 -3.51151,-3.79641 -1.77105,-3.39159 -3.43686,-6.89115 -4.4005,-10.60908 -0.0915,-0.87559 -0.29302,-2.19857 0.80305,-2.5156 1.26857,-0.32622 2.63044,-0.47685 3.72236,-1.28246 3.37484,-2.4427 7.26826,-4.08344 10.47328,-6.77828 4.0981,-3.30794 8.06351,-6.96481 10.73507,-11.56076 0.15286,-0.0975 0.35854,-0.88763 0.37523,-0.22019 z m -35.05264,6.45542 c 0.76183,0.79863 2.25368,1.36037 2.24845,2.64635 -0.14975,1.75077 -1.50741,3.1693 -3.05154,3.93325 -1.05526,0.63626 -1.98711,1.44458 -2.91089,2.25294 0.0792,-1.11086 0.58539,-2.14652 0.70978,-3.24574 0.0418,-1.12812 -0.0997,-2.61898 0.93611,-3.35748 0.26137,-0.13972 0.55802,-0.0807 0.37569,0.24547 -0.0698,0.48087 -0.43425,1.34934 0.20929,1.5782 0.6368,0.0422 0.67574,-0.83891 0.80552,-1.2902 0.23649,-0.97398 0.23595,-1.98433 0.35255,-2.97569 0.10835,0.071 0.2167,0.14193 0.32504,0.2129 z m -69.345625,10.31359 c -0.38914,0.37981 -0.43611,0.0799 -0.76585,-0.0264 -0.63837,-0.007 -1.07073,0.51894 -1.46037,0.93638 -1.70808,0.57255 -3.49433,-0.23041 -5.21942,-0.39477 -1.20844,-0.29086 -2.53546,-0.82432 -3.748,-0.34472 -0.43999,0.26735 -0.10556,0.78131 -5.1e-4,1.14256 1.15546,0.7994 2.69406,0.41147 3.95169,0.9338 1.19756,0.97052 2.90902,0.63944 4.27858,0.26937 0.89001,-0.27849 1.78923,-0.70098 2.24196,-1.56748 0.1715,-0.19346 1.64642,-1.21733 0.72192,-0.94878 z m 75.979335,5.04465 c 0.56064,1.45325 0.90012,3.01119 1.62846,4.41128 2.85811,6.13704 5.95431,12.17477 9.40807,17.99872 0.55145,0.9839 1.41691,1.89858 1.92082,2.8143 -1.94524,0.32865 -3.93883,0.28615 -5.86063,0.79168 -6.48817,1.42204 -12.6441,3.98579 -18.70583,6.64507 -3.270748,1.21717 -6.625988,2.15839 -10.054935,2.80119 -5.02771,1.17595 -10.08648,2.295 -15.00193,3.88678 -5.07103,2.11358 -9.95716,4.8391 -14.02189,8.57209 -0.50262,0.33191 -1.03857,0.97499 -1.67741,0.88986 -0.63753,-2.09169 -1.203,-4.23942 -2.43001,-6.08365 -1.10067,-1.9678 -2.64112,-3.64444 -3.86573,-5.51977 -0.50121,-0.77098 0.72449,-0.65442 1.15093,-0.90603 7.61743,-2.4146 15.10575,-5.2792 22.32929,-8.7001 2.80491,-1.3846 5.47882,-3.06983 7.92859,-5.00691 4.23197,-3.71479 8.456887,-7.60477 11.462467,-12.41735 0.93609,-1.50141 1.41713,-3.40394 2.81327,-4.54908 0.52727,0.49356 -0.0429,1.32104 -0.17502,1.89908 -1.44147,2.84789 -3.08744,5.65658 -3.76583,8.81293 -0.80213,2.32991 0.0228,4.77765 0.50941,7.08095 0.62065,2.50273 2.20838,4.90906 4.652038,5.91825 1.47048,0.49126 3.20208,1.25635 4.69945,0.45321 0.20107,-0.28903 1.15268,-0.34948 0.77618,-0.53847 1.18896,-0.97284 2.32369,-2.04861 3.13521,-3.36362 0.68385,-1.41376 0.36856,-3.04775 0.3328,-4.55683 -0.14957,-2.10245 -0.60927,-4.21333 -1.74828,-6.01804 -1.5857,-2.83283 -3.41768,-5.54311 -5.59908,-7.95113 -0.40593,-0.37402 -0.64836,-0.90785 -0.72244,-1.45469 2.58957,-1.21674 5.09187,-2.61374 7.53487,-4.10604 1.10359,-0.61818 2.19399,-1.26027 3.29186,-1.88895 z m 41.05692,3.08405 c 0.57061,3.33665 0.85337,6.73412 1.49553,10.06787 1.53092,9.39608 3.22389,18.7662 5.22946,28.07344 1.19386,5.93188 2.22123,11.92502 4.2444,17.64772 1.78987,5.62458 4.35082,11.02629 5.41288,16.86418 0.0389,0.67912 0.56841,1.33313 0.395,2.0058 -0.79413,1.37588 -2.40207,1.97855 -3.72225,2.72696 -0.88551,-0.82808 -0.81915,-2.21375 -1.07156,-3.31309 -0.94609,-9.42695 -3.28859,-18.6475 -4.82746,-27.98697 -1.16569,-7.60706 -2.91302,-15.12782 -4.70653,-22.60104 -1.09167,-4.61456 -1.64706,-9.34294 -1.76175,-14.08714 -0.19548,-3.12495 -1.05638,-6.22583 -0.78435,-9.36363 0.0539,-0.21796 0.0348,-0.39853 0.0966,-0.0341 z m -135.548305,0.47232 c -1.75655,0.0522 -3.2826,1.27186 -4.25401,2.65669 -0.12522,0.37997 -0.50472,0.74129 -0.27595,1.13894 0.21156,1.32768 1.81565,1.66148 2.25103,2.87477 1.52607,2.75739 1.26646,6.36142 3.59719,8.69972 1.67476,1.68503 3.96155,2.73746 6.34949,2.77606 3.11594,0.2584 6.35979,0.19408 9.33632,-0.84687 1.19849,-0.54529 2.29257,-1.29031 3.36884,-2.04184 0.22537,0.33747 1.11628,-0.88143 1.5826,-1.16731 1.24589,-1.05041 2.66359,-2.0189 3.5158,-3.43706 0.23245,-0.55005 -0.24736,-1.03957 -0.79375,-1.10898 -3.47047,-2.25286 -7.23734,-4.03129 -11.0572,-5.60638 -0.72971,-0.31229 -1.53846,-0.52458 -2.28669,-0.68833 -0.83345,-0.60853 -1.90037,-0.8887 -2.79311,-1.2888 -0.62574,-0.37457 -1.47405,-0.11239 -2.17285,-0.14513 -0.43905,0.0411 -0.86451,0.18095 -1.17526,-0.20628 -1.57539,-0.85101 -3.47764,-1.50803 -5.19245,-1.6092 z m -0.70538,1.4304 c 1.88089,-0.0415 3.68581,0.59575 5.47651,1.05962 0.6636,0.27992 1.37556,0.0168 2.08354,0.18919 1.03457,-0.0812 1.93487,0.32621 2.8394,0.7655 0.81912,0.43633 1.76963,0.43587 2.51035,1.0036 3.15698,1.48411 6.53522,2.53904 9.5002,4.40851 0.28048,0.37116 -0.54844,0.57262 -0.82114,0.62426 -2.59331,0.34766 -5.21326,-0.25409 -7.74602,-0.80469 -3.03627,-0.82559 -5.9823,-2.20309 -9.18111,-2.3605 -2.06559,-0.10979 -4.13348,-0.59077 -5.94861,-1.55714 -0.40013,-0.35971 -0.9975,-0.55066 -1.3388,-0.93263 0.13827,-1.29499 1.22559,-2.54299 2.62568,-2.39572 z m 83.556125,3.68247 c 0.76505,-0.0195 1.67986,0.77899 1.4547,1.55287 -0.8284,0.37977 -1.96514,0.45897 -2.783298,-0.0372 -0.099,-0.69824 0.63136,-1.4897 1.328598,-1.51567 z m 74.00996,0.58394 c 1.12032,3.35112 1.92458,6.84268 3.15848,10.17486 2.60561,7.76662 5.54091,15.42704 8.22304,23.16067 0.34204,1.44331 1.13583,2.98121 0.68596,4.47975 -0.39143,0.60772 -1.02479,1.05061 -1.50637,1.59679 -1.09403,-2.28096 -1.4927,-4.83253 -2.28351,-7.23065 -1.80555,-6.22823 -3.54673,-12.47449 -5.03591,-18.78756 -1.02542,-3.86593 -1.89129,-7.78009 -2.9727,-11.6247 -0.12256,-0.559 -0.27786,-1.26038 -0.26899,-1.76916 z m -155.494895,1.76527 c 1.6985,0.33931 3.18728,1.28555 4.44328,2.44479 1.98885,1.54159 4.59032,2.08435 7.06144,2.04951 3.0126,-0.27079 6.0147,-0.67453 9.02121,-1.02291 0.66027,-0.007 1.48987,-0.21986 2.0639,-0.0101 -0.44618,1.10077 -1.61853,1.70825 -2.49905,2.44238 -2.40897,1.74422 -5.10022,3.21911 -8.08275,3.65822 -3.83316,0.7554 -8.38036,0.33548 -11.19671,-2.66567 -1.65967,-1.76256 -2.48125,-4.21823 -2.5492,-6.58461 -0.0107,-0.63856 0.30297,-0.72264 0.88744,-0.48132 0.28348,0.0566 0.56696,0.11314 0.85044,0.16971 z m 4.56613,0.73225 c 2.21992,-0.0643 4.23121,1.1023 6.26593,1.86327 0.46087,0.24783 1.99504,0.5996 0.71121,0.71792 -2.55697,0.19612 -5.33163,-0.62629 -7.11719,-2.51246 -0.0993,-0.14305 0.0532,-0.0631 0.14005,-0.0687 z m 78.354895,0.20464 c 1.34804,0.0656 2.9466,0.94106 3.01884,2.44132 0.42592,2.53358 1.29571,5.0143 1.36103,7.59677 -0.11498,1.67206 -0.97809,3.24466 -1.98105,4.5357 -0.29014,0.321 -0.91524,0.26099 -0.98495,0.81028 -0.22206,0.53992 0.39532,0.90978 0.84233,0.61289 1.66797,-0.55397 2.3618,-2.42665 2.77359,-3.97899 0.1811,-1.07156 0.5932,-2.13043 0.36213,-3.23246 0.16095,-0.92742 0.0928,-1.4901 -0.18215,-1.7635 -0.0115,-0.32293 -0.2272,-1.21925 -0.005,-1.21565 1.16533,2.06674 0.80552,4.59557 0.24237,6.80321 -0.42291,1.65285 -1.35139,3.54711 -3.2179,3.87935 -2.12824,0.42742 -4.352998,-0.72763 -5.524718,-2.48305 -0.51147,-1.16933 0.59627,-2.24331 0.906,-3.32239 0.0933,-0.49688 0.673508,-0.97881 0.426728,-1.44632 0.48462,-2.20253 0.10159,-4.70525 -1.517218,-6.3686 -0.43448,-0.56186 -0.65432,-1.48681 0.0615,-1.91978 0.95004,-0.74851 2.244828,-0.91704 3.418398,-0.94878 z m -4.556828,3.78892 c 1.18529,0.45778 0.96906,1.96432 1.06959,2.98994 -0.0203,1.39725 -0.008,2.84621 -0.31511,4.18843 -0.28603,0.32677 -0.86529,0.54101 -1.00459,-0.0382 -0.80284,-1.9094 -0.80261,-4.13494 -0.41858,-6.1159 0.12591,-0.36295 0.25787,-0.92417 0.66869,-1.02423 z m 25.963788,0.92604 c 3.76764,0.6911 7.40437,2.23183 10.53718,4.45992 2.93228,2.0662 6.4789,3.5607 8.42808,6.72906 1.07333,1.74311 1.83785,4.10188 0.75654,5.97586 -1.1627,1.03286 -2.84859,1.01835 -4.30465,1.29605 -5.87829,0.73241 -11.85942,0.67252 -17.68597,1.86607 -6.66777,1.3917 -12.96906,4.06788 -19.45255,6.09637 -4.915458,1.67397 -10.014385,2.77021 -14.837815,4.71786 -8.50469,3.29706 -16.49375,7.8422 -23.94421,13.08126 -4.37947,3.26595 -8.43751,6.94595 -12.30912,10.79591 -1.10163,1.04034 -2.20206,2.12905 -3.36526,3.0768 0.96245,-3.37255 2.03199,-6.76125 3.34939,-10.02864 1.69906,-3.92389 4.69756,-7.06927 7.45021,-10.27011 5.99726,-6.69665 13.6385,-11.97384 22.19219,-14.80608 5.02664,-1.78417 10.32184,-2.50996 15.549427,-3.44816 4.279948,-0.75737 8.507808,-1.97704 12.866728,-2.0922 4.45186,-0.42487 8.66946,-2.16606 13.14873,-2.36709 2.78464,-0.30972 5.66852,0.29829 8.419,-0.38563 0.86674,-0.30395 1.71206,-0.99585 1.99743,-1.87788 -0.0607,-0.43047 -0.41406,-0.74898 -0.65009,-1.09399 -0.24058,-0.29843 -0.88989,-0.27426 -0.92966,-0.62218 1.78224,-0.24225 3.85675,0.1939 5.37849,-1.01803 0.42457,-0.40645 1.13568,-1.15526 0.57567,-1.72651 -0.49471,-0.29785 -1.10103,-0.0816 -1.46141,0.35192 -1.49738,1.27489 -3.69164,0.80815 -5.3976,0.25838 -3.77208,-1.24929 -6.40976,-4.74165 -7.63313,-8.37985 -0.2383,-0.70165 0.95761,-0.5891 1.3224,-0.58911 z m -18.81435,3.83491 c -0.69007,0.32824 -0.49086,1.31922 -0.57981,1.95233 -0.0981,1.18472 -0.72741,2.21049 -1.46813,3.09904 -0.26828,0.28385 -0.25433,0.92532 0.26097,0.82062 1.01259,-0.16309 1.42406,-1.30446 1.86035,-2.10168 0.41611,-1.07364 0.92068,-2.36753 0.37879,-3.47989 -0.11584,-0.14841 -0.30116,-0.34805 -0.45217,-0.29042 z m 17.42736,7.4476 c 2.7076,0.0596 5.44789,0.25572 8.06049,1.01338 0.44778,0.13399 0.60456,0.87997 -0.006,0.87385 -3.74582,0.83927 -7.62914,0.42138 -11.42268,0.97068 -2.30017,0.19703 -4.5335,0.78605 -6.77361,1.28512 -2.61871,0.54107 -5.28182,0.80359 -7.95044,0.96984 3.14385,-1.62274 6.36049,-3.10859 9.79475,-3.98684 2.67995,-0.79602 5.50858,-1.09371 8.29769,-1.12603 z m 22.20743,7.76491 c 0.65665,0.39496 0.51334,1.39131 0.62528,2.06499 0.0131,2.55587 -0.0837,5.13123 -0.22944,7.67033 -0.44144,0.92528 -1.64543,0.47901 -2.45268,0.70147 -12.31827,1.09106 -24.64049,2.35682 -36.82271,4.51811 -7.427588,1.30777 -14.470255,4.20569 -21.188095,7.5569 -5.67117,2.90299 -11.09574,6.27036 -16.26723,9.98905 -1.9821,1.21119 -4.00786,2.5743 -6.31847,3.01429 -1.12576,-0.45094 -0.7661,-1.88644 -0.71417,-2.82928 0.26853,-2.15679 1.12043,-4.23299 2.74979,-5.71368 3.24214,-3.25348 7.44783,-5.26068 11.41814,-7.45235 5.77724,-2.96279 11.62278,-5.86806 17.781437,-7.93566 8.949178,-2.43064 17.738948,-5.40936 26.678648,-7.87136 4.05576,-1.1575 8.23587,-1.6735 12.4387,-1.81828 3.57197,-0.28172 7.20084,-0.32606 10.704,-1.14213 0.62152,-0.0854 1.0322,-0.58738 1.5968,-0.7524 z m 50.7323,4.99814 c 0.39623,0.29945 0.56853,0.9853 0.45682,1.46554 -0.67263,1.3197 -2.14449,1.85698 -3.16485,2.85784 -1.00615,0.74366 -1.87878,1.89661 -3.15052,2.15064 -0.24782,-0.47964 0.33628,-1.07354 0.56332,-1.50493 1.35537,-1.8217 3.04499,-3.41482 4.84203,-4.80579 0.13798,-0.0793 0.28724,-0.17655 0.4532,-0.1633 z m 0.79685,4.18476 c 0.85128,0.0608 0.79235,1.19195 1.10206,1.78865 2.38705,7.92922 4.34766,15.99514 6.15139,24.06786 0.16007,0.75731 0.18124,1.5434 -0.43373,2.10971 -1.14676,1.43341 -1.78326,3.16492 -2.41068,4.86123 -0.71051,4.45527 -1.03868,9.13736 -3.23392,13.17387 -1.41436,2.54996 -4.10974,4.55237 -7.12359,4.57698 -3.30475,0.28031 -6.9085,-0.48081 -9.46402,-2.70629 -2.04855,-2.23331 -3.17261,-5.13633 -4.38577,-7.8767 -1.65261,-3.86719 -2.88088,-7.90117 -3.83595,-11.9841 -0.0291,-0.7674 0.30743,-1.4729 1.02849,-1.81027 1.44308,-1.16722 3.2699,-1.66748 5.05175,-2.0081 1.2866,-0.32364 2.21818,-1.39042 3.51814,-1.66243 1.0052,7.16713 0.83737,14.58197 3.0716,21.53858 0.64043,1.88819 1.65234,3.70763 3.12854,5.06341 0.58473,0.49283 1.37066,0.46189 2.07946,0.54105 0.56052,0.0143 0.87851,-0.69778 0.58032,-1.11879 0.24882,-0.35718 -0.20623,-0.49264 -0.48472,-0.37828 -0.90237,0.0168 -1.91721,-0.19257 -2.36007,-1.1038 -1.82269,-2.49179 -2.10296,-5.69115 -2.6226,-8.63225 -0.98182,-7.14143 -1.20612,-14.36746 -2.0291,-21.52814 -0.006,-0.96101 -0.0559,-2.3298 1.05296,-2.70479 0.52617,-0.17589 1.42769,-0.90944 1.80919,-0.1447 0.7771,1.92727 1.07018,4.02916 1.52488,6.05632 0.32423,2.06425 1.20289,4.05012 2.67284,5.55763 0.48486,0.68912 0.85212,-0.96708 1.28649,-1.28791 1.40829,-1.77926 1.15877,-4.16307 1.20944,-6.28442 -0.0817,-1.20478 -0.0567,-2.44892 -0.28216,-3.62097 -0.21084,-1.02367 -0.40696,-2.46916 -0.6253,-3.66068 -0.22558,-1.7534 -0.896,-3.39594 -1.34804,-5.08794 -0.1921,-0.98552 0.0241,-1.9833 0.68815,-2.74887 1.07103,-1.03255 2.2447,-2.08444 3.60138,-2.73681 0.34451,-0.13452 0.70942,-0.24891 1.08257,-0.24905 z m -8.04137,3.96668 c 0.33869,0.43852 -0.16232,1.13184 -0.36862,1.56721 -0.4016,0.59209 -0.92898,1.43389 -1.57803,1.62071 -0.22835,-1.2701 0.79707,-2.32781 1.67845,-3.09387 0.0808,-0.0444 0.17149,-0.0998 0.2682,-0.0941 z m -42.82322,0.001 c 0.91093,-0.18144 0.76952,0.97472 0.9143,1.54452 0.95436,5.81382 1.48487,11.67927 1.72176,17.56603 0.65275,13.91026 0.70758,27.83885 1.00403,41.75912 2.06009,1.26809 3.89712,3.24794 6.43009,3.49746 1.36406,0.13833 2.64312,-0.55037 4.0052,-0.52874 4.4342,-0.42801 9.01203,-0.6154 13.18941,-2.31136 1.56315,-0.52536 1.99088,-2.28622 2.23469,-3.72118 0.4728,-2.66323 0.48628,-5.39802 0.87954,-8.06005 4.40445,-0.60888 8.8613,-0.9512 13.3041,-0.68884 0.56326,0.0948 1.28521,0.24964 1.2921,0.95809 0.91706,3.18741 1.84179,6.40795 1.94117,9.74268 0.2635,5.29954 0.34238,10.64046 -0.0123,15.93429 -0.1658,2.47996 -0.72753,4.92448 -1.76321,7.19071 -1.59816,4.00915 -3.95022,7.67043 -6.43483,11.18084 -3.28827,4.52216 -7.71141,8.11088 -12.47832,10.96878 -0.69719,0.57166 -1.19932,-0.53612 -1.49024,-1.02423 -2.42072,-5.02952 -3.21408,-10.6359 -5.09284,-15.87669 -1.94848,-6.03308 -5.18492,-11.56398 -9.02647,-16.57965 -5.67666,-7.56917 -12.04914,-14.91914 -20.30599,-19.75336 -4.47951,-2.56166 -9.20205,-4.76347 -13.30355,-7.93523 -2.43878,-1.70596 -4.99254,-3.30958 -7.78451,-4.35859 -2.6302,-1.33371 -5.3492,-2.56955 -8.09878,-3.57811 -1.15986,-0.65474 -2.39475,-1.44813 -2.97295,-2.69234 0.30617,-0.62425 1.23473,-0.70472 1.56683,-1.36322 0.42104,-0.66676 0.56949,-1.79978 -0.11213,-2.34508 -1.5178,-0.80824 -3.30706,-0.53554 -4.965578,-0.59675 -4.98452,0.0642 -9.972057,0.40261 -14.954537,0.0488 -3.67303,-0.073 -7.32123,-1.06965 -11.00596,-0.73322 -2.01696,0.12044 -3.57116,1.94711 -3.78809,3.87581 -0.0995,0.61136 0.29149,1.17062 0.47284,1.67122 -0.0793,0.61249 0.61354,1.07687 1.16582,0.82631 1.25615,0.76803 2.92188,0.73931 3.99873,1.79523 -3.42432,0.62274 -6.99455,0.29156 -10.44588,0.92863 -0.85463,-0.0502 -1.70177,-0.067 -2.4199,0.47528 -1.85896,0.57468 -3.69,1.28762 -5.3103,2.39455 -6.50397,4.26314 -12.52235,9.31987 -17.65998,15.16783 -1.43665,1.64531 -2.64405,3.45884 -3.86384,5.26118 -0.082,-2.95786 -0.63913,-6.0529 0.58744,-8.85839 1.11964,-2.74903 2.61294,-5.33719 4.12028,-7.88788 2.34714,-4.8445 3.88848,-10.12366 7.02612,-14.54948 3.48824,-4.29568 7.51781,-8.11733 11.53192,-11.91712 0.37805,-0.30321 0.76302,-0.69589 1.19527,-0.8754 0.0776,1.48231 -0.43153,2.9736 -0.63923,4.39715 -0.54666,0.42437 -0.17996,1.12753 0.14417,1.54564 0.43785,1.28333 2.12336,1.30637 3.18741,0.90279 3.42869,-1.31708 6.45006,-3.47452 9.56193,-5.38642 7.4984,-4.95136 15.19084,-9.87419 23.821827,-12.59283 3.58364,-1.15045 7.450548,-1.6668 11.176768,-0.89247 6.78885,1.25412 13.3443,3.67687 19.4634,6.85848 2.88408,1.42145 5.29123,3.70125 8.3574,4.77921 1.37849,0.54231 2.95256,0.67177 4.43051,0.50731 0.5736,-0.17466 1.53805,-0.0999 1.63401,-0.89711 0.0909,-0.41757 -0.27579,-1.17428 -0.74207,-0.70125 -1.30162,1.26537 -3.37811,0.72097 -4.87981,0.14056 -2.77349,-1.07959 -4.98179,-3.16057 -7.64238,-4.45929 -2.23059,-1.27581 -4.65848,-2.25098 -7.00323,-3.20742 -0.36394,-0.57555 -1.22548,-0.17089 -1.70969,-0.59745 -1.61232,-0.57094 -3.23141,-1.12533 -4.82996,-1.71972 -0.62645,-0.0412 -1.17317,-0.33304 -1.71411,-0.58963 -2.2213,-0.35014 -4.35451,-1.42476 -6.64714,-1.42007 4.25008,-0.93368 8.65025,-1.2531 12.98311,-1.74255 4.03133,-0.3005 8.18197,-0.81841 12.14247,0.23947 1.37587,0.46878 2.86962,1.09004 3.74656,2.29942 0.27049,0.94395 -0.91116,1.39382 -1.55391,1.78852 -0.81475,0.49344 -2.07107,0.76347 -2.36575,1.79007 0.0344,0.57203 0.4788,1.07702 0.8971,1.43299 1.35198,0.47066 2.62562,1.16846 3.94185,1.76318 1.76861,0.87312 3.45641,1.97853 4.76511,3.45355 0.38743,0.22797 0.75113,-0.25487 0.60049,-0.61857 -0.32479,-0.87111 -1.26121,-1.36445 -1.89792,-2.00269 -0.6226,-0.61288 -1.27334,-1.03981 -1.60453,-0.99738 -1.15489,-0.81816 -2.48824,-1.29183 -3.79067,-1.79369 -0.55104,-0.31355 -1.33934,-0.56735 -1.70582,-1.06479 0.95333,-1.20717 2.73823,-1.17312 3.81217,-2.24896 0.45184,-0.24703 0.92758,-0.81583 0.43408,-1.28002 -0.86558,-1.29252 -2.1587,-2.17971 -3.391,-3.09232 -0.18541,-0.20708 -1.15305,-0.5208 -0.46819,-0.50385 4.05596,-0.31852 8.12481,-0.50615 12.19357,-0.64234 z m 43.69707,3.49643 c 0.82506,0.65597 0.98315,1.87606 1.33429,2.8081 0.90668,3.5753 1.03446,7.38951 0.59324,11.04249 -0.0781,0.36536 -0.12525,0.86114 -0.34261,1.11852 -0.96597,-0.91245 -0.86592,-2.41428 -1.26725,-3.60109 -0.6641,-3.30733 -1.70432,-6.64818 -1.34603,-10.04665 0.1,-0.54857 0.33106,-1.34884 1.02836,-1.32137 z m -4.06487,2.389 c 0.63849,0.0318 0.60923,0.98882 0.56483,1.46916 -0.72215,0.95115 -1.78322,1.81354 -2.9869,1.99265 -0.91231,-0.53453 -0.41031,-1.92981 0.23719,-2.50114 0.60246,-0.52885 1.38965,-0.86726 2.18488,-0.96067 z m -3.57032,9.02529 c 0.6514,0.0491 0.0459,0.7946 -0.10453,1.09468 -0.83873,1.41146 -2.11938,2.79918 -3.88127,2.80689 -1.68605,-0.0502 -3.32498,0.67318 -4.49947,1.86604 -0.31194,0.35472 -0.85108,0.3014 -0.8847,-0.24237 -0.18074,-1.46493 1.13996,-2.57919 2.22467,-3.33881 1.93807,-1.24272 4.42322,-1.09933 6.50399,-2.04484 0.20812,-0.0625 0.42109,-0.14542 0.64131,-0.14159 z m -106.354745,14.0379 c 1.66886,0.13763 3.32,0.48174 5.00316,0.50203 7.914,0.50431 15.867277,0.20294 23.769295,0.81059 0.49715,-0.0882 0.63818,0.34033 0.36891,0.67176 -0.40185,0.9676 -1.79197,1.53393 -1.55081,2.74453 0.44128,1.45195 1.92724,2.23103 3.09798,3.03728 1.07437,0.73316 2.329,1.07593 3.50962,1.55906 3.69562,1.66756 7.69762,2.89258 10.91795,5.42321 0.88921,0.58029 -0.0271,0.36623 -0.56335,0.16586 -4.12281,-1.72729 -8.53395,-2.62604 -12.86891,-3.65149 -6.24094,-1.48009 -12.581168,-2.51325 -18.942435,-3.31142 -2.29376,-0.26997 -4.63991,-0.44962 -6.92103,-0.11693 -1.87372,-0.0479 -3.67051,-0.62562 -5.30103,-1.5315 -1.50976,-0.64271 -3.02449,-1.38656 -4.22661,-2.51458 -0.17495,-0.91195 0.65806,-1.7113 1.19676,-2.36477 0.68145,-0.69431 1.4583,-1.46702 2.5105,-1.42363 z m 96.171385,2.60863 c -1.21338,1.95998 -3.52776,2.59605 -5.57214,3.28623 -1.73959,0.61898 -3.23863,1.70973 -4.68615,2.82038 -2.23437,1.60661 -4.92688,2.56533 -7.67641,2.57983 -0.763,-0.0471 -1.74151,-0.0125 -2.27078,-0.59856 0.72771,-1.07023 2.24056,-0.82101 3.32331,-1.3286 2.86892,-1.05187 5.078,-3.37896 7.87549,-4.53978 1.03494,-0.52379 2.15298,0.0969 3.22667,-0.23099 2.05778,-0.2939 3.81851,-1.51595 5.80068,-2.03399 z m 0.0522,2.14664 c 0.71974,0.73392 0.63115,1.94231 0.85452,2.89588 0.99836,6.64418 1.41955,13.40548 0.92958,20.11284 -0.0983,1.21983 -0.24383,2.7994 -1.59754,3.29562 -2.7465,1.05496 -5.75075,1.07261 -8.637,1.41656 -1.8861,0.18137 -3.8509,0.35403 -5.59974,1.07118 -1.71198,0.42368 -3.70235,0.2199 -4.97207,-1.11882 -0.85475,-0.64717 -1.69795,-1.45555 -1.74134,-2.59986 -0.29649,-3.73949 0.15342,-7.51487 0.26658,-11.26371 0.19156,-1.78496 -0.0822,-3.69044 0.65172,-5.36576 0.57669,-0.64649 1.58073,-0.14299 2.32379,-0.4181 0.49003,-0.0704 1.829,0.03 1.34988,-0.33534 2.87456,-0.95242 5.74625,-2.1248 8.1933,-3.93775 1.0084,-1.21569 2.56998,-1.71133 4.06264,-2.04187 0.50129,-0.1877 1.06727,-0.0519 1.55097,-0.38847 0.84327,-0.33425 1.46551,-1.15815 2.36471,-1.3224 z m 3.27422,3.03289 c 1.55087,3.29532 3.2422,6.54507 4.63641,9.90585 -0.82909,0.25459 -1.80906,0.11543 -2.67167,-0.0522 -0.53621,-0.1488 -1.40374,-0.25807 -1.34514,-0.99994 -0.34722,-2.93272 -0.68888,-5.89408 -0.66404,-8.84959 l 0.0109,-0.0522 z m -92.574715,1.88674 c 2.70624,0.0294 5.41745,0.15279 8.09925,0.46198 1.34865,0.43228 1.4728,2.01687 1.41748,3.20291 -0.27052,2.14542 -1.67054,3.97979 -3.19288,5.43898 -1.27401,1.17859 -2.78941,2.39024 -4.61317,2.36453 -3.94442,0.49149 -7.69048,2.06237 -11.65527,2.33691 -1.76564,-0.006 -3.56724,-0.16838 -5.23329,-0.68984 -0.12102,-0.74599 0.98396,-0.94536 1.40008,-1.40997 1.54579,-1.06588 3.11978,-2.26207 4.59283,-3.33082 0.62206,-0.0279 1.01893,-0.73392 1.49087,-1.08314 0.62888,-0.7186 1.50491,-1.36692 1.81798,-2.28203 -0.26592,-0.3307 0.31232,-0.72157 0.54622,-1.00666 0.47,-0.62287 0.77158,-1.39643 0.84494,-2.1529 0.47075,-0.58202 0.44337,-1.92742 1.37794,-1.79861 1.03545,-0.0284 2.07134,-0.0354 3.10702,-0.0513 z m -4.886,0.14934 c -0.25631,1.43073 -1.01877,2.74307 -1.59791,4.07706 -1.5116,2.91509 -4.68566,4.27056 -7.21086,6.14454 -1.2147,0.3213 -1.86235,1.51741 -2.77554,2.27376 -0.14516,0.25623 -0.24708,0.56965 -0.5457,0.19999 -0.43706,-0.45765 0.25933,-1.08479 0.46435,-1.50491 1.1921,-1.66867 2.72487,-3.03421 4.07511,-4.56412 1.10349,-1.30746 2.59552,-2.2609 3.42853,-3.79393 0.68804,-0.68884 1.10739,-1.59027 1.74149,-2.30581 0.70408,-0.45601 1.63533,-0.47862 2.42053,-0.52658 z m -4.84364,0.006 c 0.65619,0.18095 0.0723,1.03213 -0.0899,1.38389 -1.75753,2.82948 -4.12874,5.28766 -6.797,7.26157 -1.2156,0.85047 -2.77033,1.44576 -4.2579,1.17705 -0.38498,-0.18212 -1.08153,-0.35165 -0.79915,-0.92745 0.6859,-2.10887 2.16664,-4.01911 3.86187,-5.47786 2.28283,-1.50939 4.87482,-2.53884 7.49299,-3.30972 0.19432,-0.0456 0.39004,-0.0893 0.58911,-0.10748 z m -4.96765,0.15296 c -1.69534,1.11198 -3.6484,1.84432 -5.16121,3.23876 -1.74809,1.48053 -3.38154,3.62369 -3.12201,6.03716 0.0309,0.5876 0.2226,1.38716 0.96532,1.37562 1.41792,0.14128 2.85973,-0.36295 4.24935,-0.005 -0.32259,1.01466 -1.55335,1.34579 -2.41897,1.76475 -2.90307,1.111 -6.01516,1.46746 -9.09963,1.33314 -1.11107,0.0339 -2.34085,0.18331 -3.3332,0.51998 2.80185,-3.41107 6.04919,-6.43282 9.221,-9.49867 2.10714,-1.92512 4.32139,-4.09296 7.25952,-4.52897 0.47485,-0.10028 0.95259,-0.22454 1.43983,-0.2366 z m 25.79636,0.48369 c 0.830857,0.23705 2.025937,-0.21358 2.501647,0.70797 0.57128,1.10108 0.71043,2.5506 -0.1053,3.56747 -1.46604,2.30971 -3.307517,4.43335 -5.373947,6.23916 -0.62468,0.64969 -1.59134,0.49357 -2.27686,0.14728 0.51995,-1.44899 1.91717,-2.34991 2.9083,-3.47578 0.98517,-0.91409 1.77882,-2.16249 1.63509,-3.56048 0.0447,-1.17853 -0.3956,-2.42805 0.0419,-3.55431 0.15653,-0.23261 0.44191,-0.0657 0.66921,-0.0713 z m 73.450285,0.64389 c 0.10731,0.27617 -0.36864,0.0424 -0.31781,0.39015 -0.33311,4.69043 -0.0112,9.42221 -0.56379,14.09062 -0.13468,1.71527 -1.206,3.28875 -2.80603,3.95479 -0.79299,0.3864 -1.65195,0.73918 -2.41277,1.12345 0.0297,0.35127 0.64257,0.31111 0.94146,0.36088 1.49877,0.0915 2.92052,-0.67051 3.83913,-1.82539 1.04252,-0.94578 1.25868,-2.44466 1.764,-3.69633 1.29882,-4.36458 0.67374,-8.97463 -0.0811,-13.37213 -0.0376,-0.19745 -0.0891,-1.92141 -0.36312,-1.02604 z m -68.721378,-0.046 c 3.132378,0.31374 6.152568,1.31717 9.221858,1.98345 1.04769,0.25485 2.09867,0.50877 3.14431,0.76419 -0.82431,0.98664 -1.99268,1.76197 -2.55748,2.98652 -1.14529,2.06116 -1.93383,4.32409 -2.47181,6.61555 -0.27969,0.89616 0.33417,1.94703 -0.29494,2.72534 -0.89797,0.15114 -1.5366,-0.81488 -2.42672,-0.89038 -1.68968,-0.42919 -3.495988,-0.15185 -5.126298,-0.86868 -1.74395,-0.6051 -3.22349,-1.98535 -5.129917,-2.09186 -0.78304,-0.41945 -0.10159,-1.42146 0.25683,-1.92443 1.219047,-1.41442 2.689147,-2.65292 3.524847,-4.36356 0.73221,-1.31194 1.08053,-2.81994 1.0449,-4.32067 -0.004,-0.44705 0.42067,-0.6488 0.81442,-0.61547 z m -41.717347,3.64216 c -1.911,2.56073 -4.29106,4.73521 -6.52909,7.00547 -1.51463,1.36707 -2.95278,2.99402 -4.8449,3.80989 -0.38615,0.11308 -1.15004,0.13986 -1.28519,-0.0486 1.85649,-2.03262 4.09567,-3.67755 6.10989,-5.54771 2.14512,-1.79873 4.18141,-3.7645 6.56376,-5.24801 z m 55.876685,0.32659 c 0.53264,0.29319 0.0434,1.14187 -0.068,1.56451 -1.06935,2.47542 -0.94038,5.27139 -0.78882,7.90778 0.12058,1.82432 0.55904,3.61419 1.34062,5.26725 0.21324,0.7999 0.69553,1.80914 0.15232,2.55863 -1.56437,-0.33055 -2.81937,-1.50164 -3.97739,-2.54574 -1.23427,-1.14607 -2.55981,-2.59418 -2.34213,-4.41869 1.7e-4,-1.05614 0.53255,-2.02136 0.44752,-3.09387 0.40453,-2.21255 1.54623,-4.23314 3.15393,-5.80414 0.58888,-0.57061 1.2276,-1.31717 2.08193,-1.43573 z m 3.41116,0.64234 c 2.80549,0.41301 5.46741,1.48504 7.97988,2.77399 0.66683,0.3348 -0.089,0.7767 -0.40931,0.99103 -1.16031,0.89814 -2.36556,2.05812 -2.652,3.54616 0.26898,0.4389 0.59596,-0.38295 0.90123,-0.46095 1.42049,-1.10044 2.70761,-2.52999 4.46019,-3.04891 0.37718,0.0375 1.10589,0.0624 0.63463,0.55388 -1.1286,2.19049 -2.63813,4.21083 -3.59569,6.49117 -0.84445,2.12869 -0.5385,4.45421 -0.4935,6.68383 0.36783,0.66442 0.37776,-1.24678 0.5163,-1.68502 0.39973,-3.58531 1.79456,-7.23059 4.52576,-9.68845 0.76877,-0.71299 2.23152,-1.28168 3.04529,-0.30385 0.19569,0.7154 -0.59918,1.29022 -0.85989,1.90582 -0.74934,1.52479 -1.66371,3.13295 -1.48117,4.89367 -0.70548,3.36698 -0.93318,6.86188 -2.17132,10.09456 -0.5112,0.99225 -1.90007,1.98486 -2.95383,1.19476 -0.47444,-0.73591 -0.0769,-1.71701 -0.0129,-2.52542 0.12589,-0.95156 0.6113,-2.06327 0.1261,-2.9714 -0.54082,-0.29851 -0.78179,0.58026 -0.84078,0.97204 -0.222,1.22495 0.16107,2.73375 -0.82166,3.68659 -0.93626,0.28876 -1.90617,-0.34813 -2.73161,-0.76584 -1.97193,-1.34628 -3.91765,-3.07652 -4.63164,-5.43283 -0.11772,-0.81359 -0.14905,-1.6098 -0.11484,-2.41837 -0.088,-1.0078 -0.73967,-1.82181 -0.88005,-2.8205 -0.84003,-2.54956 -1.12294,-5.33686 -0.47491,-7.96489 0.43301,-1.36568 0.98823,-3.01047 2.40141,-3.62614 0.17254,-0.0495 0.3528,-0.11086 0.53433,-0.0749 z m -30.117535,7.04867 c 2.81456,0.25401 5.67095,0.63251 8.277007,1.75545 3.44455,2.39421 8.064848,1.55753 11.567768,3.81423 1.32773,0.78353 2.02007,2.232 2.82774,3.49023 0.51293,0.72915 1.2979,1.23352 2.17971,1.32912 3.77262,1.94405 6.09668,6.02749 10.23509,7.37845 2.19468,0.526 4.28417,1.49335 5.99589,2.98404 2.02371,1.81015 4.14095,3.90329 6.96915,4.25005 2.73551,0.48149 4.67395,2.87483 5.71697,5.31183 0.81664,1.61067 1.58624,3.28543 2.91125,4.56046 0.53809,0.60942 1.13537,1.19772 1.84903,1.56477 3.5475,2.80763 6.23238,6.68385 10.25895,8.8754 2.61525,1.08124 5.34063,2.0928 7.60626,3.82095 0.57094,0.98293 1.62289,1.62542 2.42776,2.4138 2.15159,1.73606 4.33119,3.51906 5.84925,5.86165 0.25526,0.42559 0.38773,0.90848 0.62064,1.34515 -9.43991,0 -18.87981,0 -28.31972,0 -1.25671,-1.48998 -2.94921,-2.5163 -4.71191,-3.29518 -3.74601,-2.18255 -6.70807,-5.43065 -10.01949,-8.18785 -4.38438,-3.68945 -9.71591,-6.07279 -15.23423,-7.49361 -3.27063,-0.92342 -6.7187,-1.7005 -10.11461,-0.99242 -4.151098,0.70877 -8.151978,2.36678 -12.403315,2.33029 -2.66804,0.0147 -5.59612,-0.19277 -7.77788,-1.92283 -2.08855,-1.25455 -4.56358,-1.40145 -6.88537,-1.90685 -2.73922,-0.71097 -4.95429,-2.59144 -7.03283,-4.41815 -1.435,-1.30971 -0.86221,-3.39442 -0.78948,-5.08055 0.27996,-4.2254 0.96289,-8.47466 2.7203,-12.3594 2.17186,-5.14123 4.99308,-10.31967 9.62939,-13.62346 1.67069,-1.10901 3.60188,-1.93805 5.64668,-1.80557 z m 46.200795,0.72915 c 0.73992,0.47042 0.89383,1.56109 0.81442,2.38952 -0.41828,1.91326 -2.23121,3.02467 -3.48403,4.36873 -0.20691,-2.30881 0.51166,-4.67907 2.04742,-6.41563 0.17221,-0.15682 0.37353,-0.34811 0.62219,-0.34262 z m -54.711905,0.9338 c 0.60816,-0.0863 -0.25351,0.61657 -0.28732,0.84594 -1.5899,2.08195 -3.3793,4.0301 -4.62202,6.36157 -1.54974,2.26694 -2.3794,4.91322 -3.34084,7.45912 -1.69149,4.89755 -2.51089,10.08941 -2.3304,15.2721 0.20411,1.05 -0.10709,1.53032 -1.18879,1.1588 -3.65104,-0.40569 -7.38872,-0.74949 -11.01408,0.0416 -1.47232,0.19465 -2.93447,0.82481 -4.41799,0.67284 -0.1971,-0.4929 0.45546,-0.996 0.66917,-1.41661 1.22845,-1.72958 2.81794,-3.23776 3.75692,-5.15612 0.17271,-0.44949 -0.44421,-0.44397 -0.64854,-0.17622 -1.30592,0.86451 -2.26797,2.20626 -3.60598,2.99207 1.20163,-4.00078 1.3318,-8.2813 2.9739,-12.16364 1.85858,-4.687 4.8093,-8.84468 7.83061,-12.85499 1.19717,-1.41877 2.7221,-3.11402 4.7803,-2.84389 0.78797,-0.003 2.10216,0.33165 1.82982,1.39944 0.10005,2.40515 -0.92717,4.63589 -1.69966,6.8634 -1.98753,4.9878 -4.23072,9.95717 -7.47921,14.26832 -0.52626,0.71576 -1.46216,1.41255 -1.40517,2.38322 0.37006,0.45531 0.8911,-0.30886 1.16013,-0.5457 1.45305,-1.62312 2.54786,-3.52199 3.90881,-5.20537 1.47107,-2.50393 2.92448,-5.02315 4.24935,-7.60884 1.54379,-3.28102 3.03886,-6.68892 3.34967,-10.3451 0.0687,-0.62732 0.48918,-1.15857 1.1792,-0.99192 2.1192,-0.15699 4.22647,-0.38507 6.35212,-0.41006 z m 58.409355,0.32194 c 1.53203,0.43286 2.60098,1.8057 3.49515,3.04698 1.85773,2.85203 2.618,6.315 2.52205,9.7 0.17691,1.05084 -0.32415,2.1623 0.046,3.17556 0.47295,0.34082 0.76649,-0.47715 0.95353,-0.80052 0.16039,-0.28575 0.28987,-0.7164 0.44587,-0.93271 0.0429,1.07564 -0.18242,2.16037 -0.13643,3.21945 -0.29034,0.75094 -0.21763,1.59599 -0.19173,2.37179 0.37401,-0.19738 0.20274,-1.07736 0.60308,-1.45816 0.16725,-0.6858 0.0867,-1.40157 0.33354,-2.08722 0.68008,-2.94153 0.0892,-5.95011 -0.34547,-8.86899 -0.028,-0.53738 -0.18433,-1.16656 -0.0485,-1.65077 1.91419,0.81678 2.31452,3.06822 2.93427,4.82838 1.09401,3.82846 2.10025,7.74427 2.24185,11.74061 -0.0383,2.03815 -0.78327,3.96506 -1.46218,5.86393 -0.19773,0.86018 -0.59488,1.79387 -0.36376,2.67305 0.44197,0.27014 0.62182,-0.54969 0.7922,-0.82269 0.7257,-1.78025 1.16839,-3.68065 2.09548,-5.36815 0.32401,-2.89647 0.0591,-5.83039 -0.0768,-8.73342 -0.0755,-1.51269 -0.38413,-3.01743 -0.14956,-4.5314 2.04868,1.81044 2.89921,4.55724 3.64413,7.10173 0.85248,3.25773 1.72579,6.5726 1.82582,9.93805 0.0181,0.7466 -0.40636,1.61335 0.0119,2.29238 0.60296,0.23243 0.82048,-0.59185 0.89504,-1.03664 0.48495,-3.08126 -0.16818,-6.18978 -0.57148,-9.24216 -0.0405,-0.47312 -0.31193,-1.13894 -0.28274,-1.49569 1.5993,1.59355 2.8721,3.52562 3.96514,5.48442 1.71165,3.05096 1.71884,6.72353 0.93829,10.04183 -0.62129,2.62914 -1.24467,5.26471 -1.79302,7.90591 -0.41234,0.58388 -1.24447,0.0151 -1.78424,-0.0793 -2.61383,-0.88564 -4.38781,-3.10121 -6.36488,-4.89283 -0.88455,-0.88384 -2.31909,-1.45251 -2.45695,-2.84758 -0.18379,-0.62836 0.15914,-1.53829 -0.41031,-1.99263 -0.43821,0.0296 -0.55132,0.71919 -1.07694,0.65474 -1.35949,0.0839 -2.44746,-1.00349 -3.2799,-1.92236 -1.27624,-1.60414 -0.57629,-3.73139 -0.2786,-5.5286 0.26199,-1.68926 0.67171,-3.42704 0.42846,-5.13639 -0.28092,-0.48183 -0.59189,0.26117 -0.60565,0.5395 -0.51315,1.88729 -0.36051,4.00937 -1.37097,5.7242 -1.08534,-0.70675 -1.61308,-2.01254 -2.39417,-3.00912 -0.0354,-0.65132 -0.69142,-1.02697 -1.16841,-1.37046 -0.60907,-0.23301 -1.2698,-0.20986 -1.85817,-0.53543 -2.36118,-0.71962 -4.92907,-1.3185 -6.68078,-3.19825 -0.86043,-1.01788 -1.96007,-2.08057 -2.12293,-3.46175 1.51425,-2.5773 2.26544,-5.56658 3.96279,-8.05899 1.30096,-2.35591 3.4859,-4.14274 4.59896,-6.61143 0.11477,-0.22205 0.21177,-0.67104 0.54106,-0.6289 z m -75.378855,0.0357 c 0.23847,0.16571 -0.23733,0.63687 -0.28319,0.84129 -2.18185,3.26204 -4.57523,6.40696 -6.28809,9.95708 -1.19324,2.27332 -2.27602,4.63019 -2.73513,7.17469 -0.67693,2.47329 -0.69255,5.06796 -1.46115,7.52489 -0.93031,3.52697 -2.4171,6.90324 -4.59223,9.83993 -1.70742,2.64417 -2.76988,5.64968 -4.64051,8.19764 -2.73858,4.18401 -5.90601,8.07688 -8.55145,12.32051 -0.25877,0.6826 -0.71561,1.06997 -1.46761,0.879 -1.13628,-0.0489 -2.53193,0.097 -3.50935,-0.0713 0.81065,-4.11162 3.11131,-7.71049 5.20092,-11.27043 2.65993,-4.441 5.79601,-8.56424 8.76861,-12.79247 0.92603,-1.40052 1.85785,-2.79982 2.47615,-4.36809 0.56764,-1.21991 1.03727,-2.49959 1.54754,-3.72777 1.80896,-5.49559 3.67765,-11.10887 6.92051,-15.9582 0.94795,-1.50005 2.33927,-2.68848 3.30727,-4.14378 -0.43521,-0.0775 -1.11536,0.86519 -1.60898,1.22367 -2.90878,2.42294 -4.95874,5.69345 -6.40282,9.15917 -1.58101,3.46321 -2.39325,7.24424 -4.03713,10.66016 -0.27806,0.72687 -1.1025,1.38838 -1.8639,0.91364 -0.96809,-0.75716 -0.5905,-2.2122 -0.41651,-3.24992 1.18793,-4.56463 3.56002,-8.77598 6.35033,-12.54085 3.024,-4.02585 6.66561,-7.81834 11.30079,-9.94409 0.64309,-0.24821 1.29365,-0.55525 1.98593,-0.62476 z m -7.48689,0.68264 c -0.86702,1.6779 -2.35361,3.063 -3.62447,4.47829 -4.2805,4.5161 -7.8841,9.84435 -9.73182,15.82693 -0.58633,2.16248 -1.06494,4.6264 -0.0403,6.73087 0.46266,0.82222 1.48035,0.30453 2.16524,0.201 0.65699,0.53001 -0.17136,1.31194 -0.40806,1.86693 -2.48288,3.7448 -5.14019,7.37552 -7.6201,11.12417 -1.65084,2.49015 -3.27201,5.01597 -4.76282,7.61021 -1.36199,2.56894 -2.37166,5.33558 -3.0565,8.15969 -2.16372,0.12677 -4.52008,0.0181 -6.75785,0.0543 -1.46958,-0.0247 -3.08032,0.0492 -4.46226,-0.0367 2.71086,-6.18865 5.92402,-12.14366 8.99446,-18.15748 2.95591,-5.54405 5.81416,-11.14972 8.14093,-16.9917 1.58451,-3.76676 3.56661,-7.34196 5.57898,-10.89298 1.19877,-2.35896 2.7067,-4.58675 4.55476,-6.48746 0.6911,-0.48318 1.50401,-1.29238 2.38177,-1.02629 -0.45674,0.98548 -1.44503,1.6533 -1.93639,2.64624 -1.4148,2.31269 -2.69159,4.78229 -3.26226,7.44979 -0.14116,0.45059 0.0937,0.98236 0.60513,0.87229 0.78824,-0.1035 0.60356,-1.14121 1.06602,-1.58064 1.7901,-3.71293 4.44838,-6.96578 7.57377,-9.63467 1.30457,-1.08924 2.88491,-2.03215 4.60178,-2.21281 z m 141.166055,28.60755 c -0.0229,3.30997 -1.05309,6.52301 -2.21692,9.59012 -2.78307,6.46417 -7.48391,12.06058 -13.11337,16.26502 -0.76719,0.48943 -1.46907,1.18364 -2.24486,1.5897 -1.01139,-0.0317 -2.11945,0.0622 -3.07268,-0.045 -0.17868,-0.82878 -1.11876,-1.6868 -0.37621,-2.50063 1.66799,-1.86494 3.90474,-3.14438 5.7071,-4.8909 6.49342,-5.82517 11.87276,-13.0288 14.9689,-21.2249 0.45801,-1.49416 0.31437,0.099 0.34368,0.8046 0.001,0.13732 0.003,0.27463 0.004,0.41195 z m -32.6254,-0.2718 c 1.3796,2.52171 2.50632,5.4714 1.49886,8.33173 -0.67246,2.02385 -1.76925,3.93681 -2.07763,6.06221 -0.39126,0.72953 -1.37464,0.0458 -1.3255,-0.61442 -0.29866,-2.59844 0.6521,-5.11251 1.18649,-7.62074 0.42215,-0.71472 0.43063,-1.54553 0.4817,-2.32947 0.194,-1.2369 0.50435,-2.67419 0.23608,-3.82931 z m -102.089885,2.84996 c 3.52564,-0.0358 7.0508,0.6931 10.24053,2.19395 2.71633,1.27865 5.2743,3.35648 8.41203,3.44244 2.12301,0.0658 3.93156,1.27661 5.65862,2.3936 3.78038,1.99692 8.25521,1.51472 12.259717,0.56121 4.71021,-1.13392 9.550798,-2.96764 14.444808,-1.82409 0.96964,0.0802 1.72792,0.79973 2.72313,0.79365 1.9822,0.44174 3.87807,1.29354 5.8012,1.96318 5.5423,2.1423 10.04636,6.17154 14.32777,10.17302 1.16572,0.95162 2.29298,1.96215 3.61015,2.68668 1.40699,0.99817 3.07817,1.51688 4.50257,2.48304 -31.24512,0 -62.490245,0 -93.735355,0 -1.27928,-4.51504 -2.30913,-9.12099 -2.88045,-13.78003 -0.2319,-2.21004 0.94362,-4.25408 1.95285,-6.12109 0.77069,-1.23102 1.83388,-2.30526 3.01946,-3.12898 0.36441,-0.20479 0.89255,0.0465 0.60151,0.49609 -0.5062,1.57861 -1.55681,2.96537 -1.70838,4.6614 -0.24914,2.0638 -0.42825,4.13957 -0.55608,6.2144 -0.0307,1.577 0.28243,3.14029 0.66714,4.65709 0.38249,0.91906 1.32736,1.59758 2.281,1.79369 0.65765,-0.16399 0.1577,-0.99893 -0.0522,-1.36427 -0.81711,-1.08482 -1.36101,-2.42231 -1.12626,-3.79743 0.0769,-2.54762 -0.17814,-5.15755 0.69204,-7.60783 0.58252,-1.67741 0.97322,-3.56629 2.23669,-4.88572 1.76835,-1.60202 4.32404,-2.01731 6.62751,-2.004 z m 104.996175,5.93555 c 0.60228,1.45016 0.93183,3.04419 1.48461,4.53009 0.77143,2.55707 1.86384,5.0495 2.1839,7.71205 -0.0193,0.3601 -0.49734,-0.17965 -0.6656,-0.24805 -2.01503,-1.72579 -3.8398,-3.72313 -5.26272,-5.95881 -0.53017,-0.90228 0.23765,-1.92894 0.47217,-2.79352 0.35699,-0.9548 1.09674,-1.73829 1.36027,-2.72706 0.12687,-0.17526 0.22889,-0.41032 0.42737,-0.5147 z m 28.27062,5.22499 c 0.25437,2.61673 -0.43411,5.2668 -0.0486,7.89099 0.0204,1.94051 0.0111,3.897 0.34054,5.81515 -4.45364,0 -8.90729,0 -13.36094,0 1.5223,-1.14176 2.80108,-2.59879 4.39353,-3.63699 1.06361,-0.65556 1.78826,-1.78197 2.66312,-2.66766 2.09556,-2.35937 4.05725,-4.85775 5.95134,-7.36428 0.0114,0.003 0.0491,-0.0542 0.061,-0.0372 z m -150.253355,1.75649 c 0.5027,1.11464 0.57266,2.45764 0.93014,3.65774 0.60642,2.62628 1.52485,5.16636 2.38179,7.71268 0.54158,0.95089 -0.75973,0.46651 -1.30275,0.57923 -3.70537,0 -7.41074,0 -11.11611,0 3.00469,-4.00471 6.06609,-7.9705 9.10693,-11.94965 z"
       style="opacity:1;fill:#000000;stroke-width:0.64960945" />
  </g>
</svg>
