<?xml version="1.0" encoding="UTF-8" standalone="no"?>
<svg
   xmlns:dc="http://purl.org/dc/elements/1.1/"
   xmlns:cc="http://creativecommons.org/ns#"
   xmlns:rdf="http://www.w3.org/1999/02/22-rdf-syntax-ns#"
   xmlns:svg="http://www.w3.org/2000/svg"
   xmlns="http://www.w3.org/2000/svg"
   xmlns:sodipodi="http://sodipodi.sourceforge.net/DTD/sodipodi-0.dtd"
   xmlns:inkscape="http://www.inkscape.org/namespaces/inkscape"
   width="210mm"
   height="297mm"
   viewBox="0 0 595.27559 841.88976"
   version="1.1"
   id="svg158"
   sodipodi:docname="locked_heart.svg"
   inkscape:version="0.92.4 (5da689c313, 2019-01-14)"
   inkscape:export-filename="D:\repo\acb-website\src\images\locked_heart.png"
   inkscape:export-xdpi="96"
   inkscape:export-ydpi="96">
  <title
     id="title971">Locked Heart</title>
  <metadata
     id="metadata164">
    <rdf:RDF>
      <cc:Work
         rdf:about="">
        <dc:format>image/svg+xml</dc:format>
        <dc:type
           rdf:resource="http://purl.org/dc/dcmitype/StillImage" />
        <dc:title>Locked Heart</dc:title>
        <dc:source>http://www.supercoloring.com/coloring-pages/locked-heart</dc:source>
        <dc:subject>
          <rdf:Bag>
            <rdf:li>acb</rdf:li>
            <rdf:li>tattoo</rdf:li>
          </rdf:Bag>
        </dc:subject>
        <dc:date>2020-05-15</dc:date>
        <dc:creator>
          <cc:Agent>
            <dc:title>Public domain</dc:title>
          </cc:Agent>
        </dc:creator>
        <cc:license
           rdf:resource="http://creativecommons.org/licenses/by-sa/4.0/" />
      </cc:Work>
      <cc:License
         rdf:about="http://creativecommons.org/licenses/by-sa/4.0/">
        <cc:permits
           rdf:resource="http://creativecommons.org/ns#Reproduction" />
        <cc:permits
           rdf:resource="http://creativecommons.org/ns#Distribution" />
        <cc:requires
           rdf:resource="http://creativecommons.org/ns#Notice" />
        <cc:requires
           rdf:resource="http://creativecommons.org/ns#Attribution" />
        <cc:permits
           rdf:resource="http://creativecommons.org/ns#DerivativeWorks" />
        <cc:requires
           rdf:resource="http://creativecommons.org/ns#ShareAlike" />
      </cc:License>
    </rdf:RDF>
  </metadata>
  <defs
     id="defs162" />
  <sodipodi:namedview
     pagecolor="#ffffff"
     bordercolor="#666666"
     borderopacity="1"
     objecttolerance="10"
     gridtolerance="10"
     guidetolerance="10"
     inkscape:pageopacity="0"
     inkscape:pageshadow="2"
     inkscape:window-width="3840"
     inkscape:window-height="2004"
     id="namedview160"
     showgrid="false"
     inkscape:zoom="1.3350176"
     inkscape:cx="547.91424"
     inkscape:cy="493.31875"
     inkscape:window-x="-16"
     inkscape:window-y="-16"
     inkscape:window-maximized="1"
     inkscape:current-layer="svg158"
     units="mm" />
  <g
     id="#ffffffff"
     transform="translate(0,91.889765)" />
  <g
     id="#030303ff"
     transform="matrix(0.81765073,0,0,0.81765073,3.4051759,98.955715)">
    <path
       d="m 376.33,41.43 c 10.29,-3.16 21.81,1.63 28.01,10.16 2.21,2.76 3.62,6.39 6.9,8.11 23.23,12.21 41.5,32.03 56.09,53.5 5.45,-0.21 11.74,-0.71 15.92,3.53 8.4,7.96 8.71,20.62 7.6,31.36 -0.48,4.89 -2.34,9.87 -0.6,14.73 4.18,14.09 5.97,28.72 7.61,43.27 18.62,-8.68 40.62,2.26 49.09,19.97 4.38,-9.12 11,-17.26 20.01,-22.12 17.51,-9.86 38.4,-9.02 57.83,-8.32 24.86,1.58 49.69,3.83 74.6,4.32 -9.6,13.24 -19.19,26.58 -27.3,40.85 10.52,-0.08 19.98,5.82 25.61,14.52 11.27,15.56 16.15,35.75 12.36,54.67 -1.97,9.2 -6.98,17.35 -12.57,24.77 3.51,12.81 6.02,25.9 7.23,39.13 3.05,30.49 5.6,61.25 14.05,90.83 -16.32,-3.14 -27.13,-17.58 -42.19,-23.68 -5.01,22.56 -26.48,38.03 -48.79,40.35 8.02,5.16 16.48,9.75 23.48,16.36 7.08,5.89 12.92,13.64 21.56,17.38 11.65,4.46 24.32,2.05 36.44,2.99 -20.89,28.08 -49.68,48.99 -77.66,69.53 -11.46,7.89 -23.34,16.83 -37.69,18 -4.79,14.73 -10.32,29.39 -18.91,42.38 -11.56,17.69 -27.27,32.17 -43.36,45.67 -4.89,4.17 -11.05,8.56 -17.84,6.5 0.14,-6.58 3.34,-12.46 4.55,-18.81 3.72,-17.45 4.25,-35.72 0.45,-53.21 -3.57,-17.75 -12.53,-33.88 -15.88,-51.69 -14.73,14.05 -29.17,28.46 -44.44,41.96 4.66,7.39 8.53,16.23 16.63,20.47 10.78,4.18 22.19,-0.03 32.94,-2.05 0.3,7.95 -2.75,15.44 -5.54,22.73 -8.05,19.61 -23.39,36.85 -43.42,44.56 -3.93,1.17 -5.48,5.26 -7.75,8.24 -11.01,15.79 -27.99,26.11 -45.33,33.67 -2.8,1.13 -7.34,2.2 -8.84,-1.33 -1.77,-4.41 -0.05,-9.2 -0.1,-13.76 0.87,-15.76 -6.03,-30.78 -15.21,-43.21 -6.13,3.43 -11.95,14.81 -19.83,9.15 -29.67,-25.31 -56.48,-53.96 -87.19,-78.07 -3.16,10.75 -7.17,21.74 -14.98,30.06 -13.52,13.81 -30.81,24.01 -49.27,29.6 -6.08,3.11 -8.39,10.25 -9.8,16.46 -1.13,5.5 -2.07,12.42 2.65,16.56 4.86,4.9 12.11,5.67 18.65,5.2 0.82,-10.89 6.27,-23.13 17.93,-25.74 5.66,-1.8 12.4,1.27 13.36,7.45 1.56,8.3 -4.7,15.06 -9.59,20.95 10.51,6.85 25.56,6.34 35.98,-0.63 5.76,-3.83 13.27,-10.69 20.35,-5.86 6.36,6.42 1.71,16.14 -0.76,23.33 6.51,0.67 13.04,0.05 19.53,-0.54 -2.6,6.37 -9.67,10.96 -16.58,8.88 -5.92,-1.31 -9.23,-6.74 -12.27,-11.46 -11.87,8.91 -27.7,13.26 -42.23,9.13 -8.12,-2.18 -14.73,-7.67 -20.68,-13.37 -14.85,5.51 -34.27,5.15 -45.21,-7.79 -8.09,-9.28 -6.56,-22.95 -0.78,-33 -9.9,2.21 -19.96,3.69 -30.08,4.4 -15.63,0.76 -31.44,-1.44 -46.92,1.67 5.26,-11.12 16.21,-17.97 22.57,-28.39 11.77,-19.11 15.91,-41.53 22.32,-62.75 0.99,-3.78 3.07,-7.71 1.6,-11.65 -4.22,-14.74 -4.03,-30.67 0.29,-45.36 4.23,-15.42 12.68,-29.37 16.22,-45 1.16,-3.68 -1.54,-6.91 -2.98,-10.06 C 158.43,480.83 154,470.09 149.59,459.37 128.31,458.46 107.7,445.11 99.89,425.02 98.24,420.2 92.75,418.93 89.46,415.54 73.1,400.8 67.89,376.78 71.85,355.69 55.37,349.41 41.87,337.82 26.59,329.38 c -8.24,-4.7 -17.06,0.06 -25.22,2.21 -1.83,-11.51 2.37,-22.76 7.22,-32.98 8.33,-17.19 19.65,-33.45 35.2,-44.83 11.8,-8.85 28.32,-13.58 41.98,-5.99 -4.29,-21.75 -1.03,-43.88 -0.76,-65.79 0.12,-14.12 -4.1,-27.93 -10.71,-40.31 -3.25,-5.66 -4.97,-12.05 -5.34,-18.56 10.53,3.2 20.77,7.56 31.92,8.24 25.75,3.81 53.33,7.47 74.02,24.79 18.58,14.38 28.52,37.64 29.71,60.75 0.51,11.98 0.56,24.07 -1.41,35.94 9.6,-6.51 19.91,-12.06 30.98,-15.63 -0.35,-16.55 0.87,-33.12 3.33,-49.48 1.09,-4.56 -3.84,-7.21 -5.26,-11.06 -3.19,-7.81 0.74,-16.5 6.29,-22.15 3.41,-3.94 8.89,-6.04 10.89,-11.12 11.41,-26.77 29.03,-50.93 51.3,-69.69 16.8,-13.76 37.37,-24.09 59.4,-24.99 6.39,0.23 10.36,-5.75 16.2,-7.3 m -0.2,6.71 c -11.89,5.26 -18.25,18.06 -20.62,30.25 -3.42,19.02 0.04,38.93 7.51,56.6 4.21,10.5 16.8,18.71 27.98,13.97 3.71,-1.16 5.35,-4.82 5.94,-8.37 -5.84,1.47 -12.04,6.22 -18.01,2.46 -12.22,-7.49 -17.14,-22.66 -18.39,-36.24 -0.86,-11.88 -0.3,-24.33 5,-35.22 3.57,-7.56 10.87,-13.67 19.36,-14.48 6.26,-0.71 12.4,0.94 18.46,2.25 -5.41,-8.96 -16.88,-15.34 -27.23,-11.22 m -76.69,48.28 c -20.93,20.81 -37.37,46.93 -44.12,75.85 6.57,3.49 13.91,5.44 21.35,5.48 3.9,-11.37 6.87,-23.2 12.64,-33.82 -2.74,11.3 -7.36,22.21 -8.08,33.94 5.38,-0.7 13.26,-0.24 14.99,-6.8 9.56,-23.59 27.28,-45.29 51.81,-54.05 1.2,-0.69 3.59,-1.06 3.16,-2.96 -0.52,-6.64 -1.71,-13.23 -1.92,-19.9 -10.84,2.56 -19.55,9.72 -27.74,16.87 6.55,-10.95 16.49,-19.67 27.85,-25.39 0.87,-6.23 2.26,-12.38 3.53,-18.54 -20.74,2.7 -38.74,15.11 -53.47,29.32 m 67.82,-14.07 c 18.53,0.22 34.23,13.14 43.83,28.1 -12.4,-11.39 -28.42,-19.86 -45.67,-19.09 -0.37,7.27 -0.31,14.61 0.98,21.8 8.3,1.03 16.74,2.29 24.29,6.13 27.51,13.02 44.98,40.97 51.94,69.83 3.76,-2.08 7.13,-4.76 10.34,-7.61 -1.83,-13.08 -5.98,-25.65 -9.57,-38.31 5.89,11.02 9.35,23.17 12.96,35.09 7.91,-5.28 13.15,-13.68 16.31,-22.49 -8.84,-23.48 -23.45,-44.62 -41.65,-61.82 -14.89,-13.86 -33.41,-25.49 -54.08,-27.32 -5.85,2.93 -8.16,9.76 -9.68,15.69 m 104,35.9 c 7.83,12.61 7.77,28.19 4.24,42.19 -4.84,14.98 -17.89,25 -30.11,33.9 -6.4,3.93 -13.12,9.05 -21.01,8.63 -0.71,-4.73 1.5,-9.01 3.99,-12.83 -0.73,-1.26 -1.44,-2.52 -2.16,-3.77 -3.44,5.34 -8.31,10.67 -7.99,17.46 0.78,4.32 6.12,5.46 9.83,5.1 11.91,-1.23 22.45,-7.91 31.44,-15.43 16.97,-14.02 27.73,-35.97 26.11,-58.15 -0.53,-8.01 -5.3,-16.92 -14.34,-17.1 m -150.33,38.77 c 8.23,7.62 2.45,20.08 -5.38,25.49 -3.32,3.43 -9.73,4.06 -10.81,9.24 -2.59,8.95 -3.1,18.33 -2.99,27.6 14,-2.51 24.05,10.1 27.91,22.01 3.18,6.51 1.69,15.26 7.83,20.12 11.72,11.09 21.02,24.41 29.34,38.16 13.73,-25.71 34.43,-48.41 61.36,-60.45 1.73,-7.81 2.96,-15.76 2.85,-23.77 -4.72,0.06 -10.08,0.74 -14.06,-2.35 -4.34,-3.24 -5.4,-9.32 -4.1,-14.32 1.64,-7.43 6.48,-13.55 11.47,-19.07 -4.4,-12.91 -12.42,-24.46 -22.5,-33.6 -2.69,3.5 -5.38,7.43 -9.67,9.06 -7.91,3.02 -17.04,0.4 -23.28,-5 -5.75,-4.83 -8.77,-11.89 -12.4,-18.27 -14.32,3.98 -26.55,13.53 -35.57,25.15 m 53.63,-25.16 c 3.35,4.4 8.63,7.68 14.37,6.13 -3.76,-3.92 -9.18,-5.37 -14.37,-6.13 m -290.77,7.17 c 6.36,10.33 12.06,21.47 13.49,33.68 2.15,21.1 -1.54,42.32 0.48,63.41 1.92,16.21 11.32,30.1 21.87,42.05 1.75,-6.47 5.17,-13.13 11.66,-15.88 11.94,-6.09 26.47,-3.83 37.57,3.05 -3.81,-20.83 -13.65,-40.14 -25.71,-57.37 5.98,6.23 10.39,13.71 14.98,20.97 9.19,14.89 17.08,31.12 19.17,48.7 9.66,-7.55 11.97,-20.31 14.25,-31.64 1.32,-18.91 1.4,-38.97 -7.12,-56.4 -8.56,-17.44 -25.59,-29.23 -43.54,-35.55 -18.65,-6.4 -38.43,-8.61 -57.1,-15.02 m 152.67,32.76 c 1.22,5.32 6.29,8.58 10.8,11.01 19.82,9.96 44.48,7.89 63.44,-3.08 6.25,-3.45 11.5,-9.72 10.85,-17.26 -2.17,-0.21 -4.33,-0.36 -6.5,-0.49 -7.98,18.37 -31.16,23.33 -49.05,19.11 -7.16,-1.65 -14.92,-4.7 -18.61,-11.53 -1.96,-4.12 -1.01,-8.86 -1.34,-13.26 -5.14,3.44 -9.8,9.01 -9.59,15.5 m 239.07,13.94 c 3.26,15.67 6.49,31.52 5.25,47.63 0.96,0.01 2.86,0.03 3.82,0.04 0.37,-17.91 -1.59,-35.79 -4.85,-53.38 -1.43,1.89 -2.83,3.79 -4.22,5.71 m -13.47,14.18 c 1.25,10.59 3.35,21.14 3.09,31.85 3.11,0.27 6.26,0.5 9.35,-0.13 2.29,-14.38 2.46,-29.17 0.07,-43.55 -4.52,3.57 -8.33,7.9 -12.51,11.83 m -210.83,-7.72 c -1.76,13.59 -3.34,27.3 -2.5,41.01 0.88,-0.05 2.63,-0.16 3.51,-0.22 -0.9,-13.68 1.57,-27.1 3.27,-40.59 -1.43,-0.08 -2.86,-0.14 -4.28,-0.2 m 6.38,1.64 c -1.05,12.7 -0.9,25.52 0.77,38.15 3.07,0.02 6.14,0.02 9.21,0.02 0.63,-12.17 1.7,-24.39 4.69,-36.24 -4.9,-0.59 -9.76,-1.48 -14.67,-1.93 m 20.77,1.8 c -1.4,12.29 -1.88,24.78 0.13,37.03 3.54,0.42 7.08,0.82 10.63,1.16 -1.84,-13.19 -1.69,-26.63 0.3,-39.8 -3.71,0.36 -7.41,0.86 -11.06,1.61 m 167.54,15.23 c -1.26,7.61 -0.79,15.48 -2.13,23.12 3.56,-0.37 7.1,-0.92 10.61,-1.65 1.58,-8.92 1.45,-18.01 1,-27.02 -3.24,1.69 -6.72,3.11 -9.48,5.55 m 52.39,1.72 c 0.01,2.19 0.04,4.37 0.06,6.55 6.25,-4.39 14.16,-6.8 21.69,-4.48 -7.48,0.61 -14.86,2.95 -20.51,8.07 7.24,-1.97 15.06,-3.17 22.34,-0.7 9.56,2.71 15.86,10.66 21.74,18.11 0.48,-2.63 1.26,-5.25 1.09,-7.95 -6.32,-17.72 -29.1,-29.35 -46.41,-19.6 m 67.19,7.93 c -13.99,12.81 -13.45,33.82 -11.01,51.11 0.26,5.82 3.67,10.69 8.03,14.28 -1.78,-5.4 -5.36,-12.09 -0.76,-17.11 9.84,-11.2 26.84,-12.09 40.04,-6.96 7.02,-5.95 15.69,-9.62 24.58,-11.74 -7.5,3.3 -14.73,7.42 -19.85,13.98 6.52,8.25 8.26,18.89 5.34,28.94 2.74,0.98 5.4,0.03 7.74,-1.46 15.6,-6.81 22.29,-23.67 30.76,-37.21 9.21,-15.77 20.54,-30.13 31.75,-44.49 -19.31,2.12 -38.76,0.97 -58.05,-0.67 -19.78,-0.6 -42.24,-1.95 -58.57,11.33 m -262.91,4.94 c 0.19,1.4 0.38,2.8 0.58,4.2 5.03,0.96 9.98,2.95 13.39,6.91 -4.04,-2.21 -9.36,-5.82 -13.48,-1.67 4.4,3.56 9.68,6.77 11.7,12.37 5.62,14.67 2.28,32 -7.23,44.3 -4.3,5.49 -10.39,10.2 -17.55,10.76 -5,0.48 -9.43,-2.24 -14,-3.73 3.43,4.63 9.3,7.18 15.03,6.22 15.02,-2.06 27.91,-12.84 34.73,-26.08 5.37,-12.94 2.29,-27.8 -3.4,-40.1 -3.4,-7.62 -10.86,-14.5 -19.77,-13.18 m 199.38,2.49 c -3.78,1.18 -3.52,5.51 -4.04,8.69 17,6.36 33.07,15.5 45.92,28.46 -1,-6.18 -0.87,-12.46 -1.55,-18.66 -6.12,-14.83 -24.85,-25.99 -40.33,-18.49 m 160.68,28.03 c 9.17,-0.83 18.79,2.45 24.49,9.91 9.93,12.36 10.63,28.85 11.15,43.97 1.57,-2.65 2.85,-5.46 4.3,-8.18 -1.07,8.18 -4.96,15.6 -9.48,22.37 0.76,1.09 1.51,2.19 2.29,3.3 16.96,-19.59 12.22,-49.81 -2.54,-69.23 -5.38,-7.25 -14.43,-13.02 -23.75,-11.01 -3.27,1.94 -4.5,5.83 -6.46,8.87 m -477.37,37.28 c 6.04,3.7 12.01,7.51 18.18,10.98 17.7,-26.71 52.24,-40.04 83.39,-33.02 7.67,1.2 14.66,4.83 22.26,6.23 1.71,-5.18 2.98,-10.56 2.79,-16.05 -12.31,-6.57 -25.71,-11.87 -39.85,-12.05 -34.04,-1.93 -67.54,16.18 -86.77,43.91 M 413.69,266.7 c -13.5,10.35 -26.33,21.86 -36.35,35.68 -4.49,6.02 -6.41,13.4 -9.86,19.98 -4.1,-1.89 -4.76,-6.7 -6.49,-10.37 -6.16,-13.79 -17.41,-24.29 -28.24,-34.43 -2.05,3.79 -3.89,7.68 -5.78,11.54 9.8,8.09 18.16,18.27 22.54,30.31 5.82,15.24 5.02,31.94 3.04,47.83 8.87,-4.04 19.26,-3.91 28.15,0.03 -2.62,-16.58 -2.86,-34.17 3.63,-49.94 10.29,-25.2 35.92,-41 61.84,-46.05 25.72,-5.76 54.1,2.1 72.97,20.56 4.03,3.73 6.94,8.44 10.75,12.38 6.11,-3.72 12.25,-7.42 18.18,-11.42 -18.8,-24.55 -47.47,-42.91 -79.05,-43.47 -19.8,-1.13 -39.56,5.52 -55.33,17.37 M 52.16,261.12 c -20.82,13.41 -33.12,35.99 -42.27,58.32 4.95,-1.75 10.16,-4.23 15.53,-2.93 9.38,2.05 17.13,8.04 25.14,12.98 11.78,7.68 24.63,13.71 38.07,17.86 8.58,2.71 18.33,4.21 26.45,-0.69 -5.44,-11.79 -7.46,-24.81 -5.92,-37.71 -7.16,-4.17 -15.56,-4.78 -23.47,-2.62 8.07,-3.68 17.26,-5.72 26.07,-3.72 2.07,-2.9 4.15,-5.8 6.18,-8.72 -8.14,-7.1 -16.65,-14.19 -22.07,-23.71 -7.68,-15.95 -30.02,-19.04 -43.71,-9.06 m 608.49,-0.6 c -0.98,1.52 -1.94,3.04 -2.88,4.58 4.77,-1.4 9.53,-2.79 14.3,-4.21 -3.77,-0.76 -7.63,-0.93 -11.42,-0.37 m -14.52,24.66 c 20.42,0.21 36.29,15.76 44.91,33.01 3.25,-7.31 2.87,-15.52 2.06,-23.29 -1.15,-9.29 -3.58,-18.93 -9.78,-26.22 -1.87,-2.07 -4.14,-4.68 -7.25,-4.14 -12.64,1.17 -24.18,9.41 -29.94,20.64 m -504.69,-14.5 c -4.97,0.66 -10.94,3.15 -12.02,8.62 -0.91,4.61 -1.08,11.17 4.29,13.08 0.93,-4.12 2.14,-8.19 4.22,-11.88 -2.01,6.6 3.07,10.76 7.25,14.85 3.08,-8.39 9.4,-14.89 18.05,-17.48 -0.08,-0.66 -0.26,-1.98 -0.34,-2.64 -5.72,-5.21 -14.18,-5.46 -21.45,-4.55 m 427.62,6.57 c 8.52,3.09 15.97,8.9 18.33,18.04 4.81,-3.78 10.6,-8.75 7,-15.58 2.56,3.93 4.13,8.37 5.24,12.91 8.16,-4.86 5.18,-19.41 -4.21,-21.02 -8.53,-2.15 -21.26,-2.73 -26.36,5.65 m -360.35,30.32 c 12.25,8.72 25.33,17.75 32.02,31.72 3.52,6.19 3.68,13.51 2.96,20.41 3.85,-7.38 11.76,-12.67 20.3,-10.19 27.29,4.88 54.9,15.62 74.67,35.68 3.01,-6.08 8.28,-11.22 9.25,-18.17 2.14,-15.67 2.28,-32.22 -3.87,-47.06 -4.32,-10.5 -11.99,-19.34 -20.94,-26.19 -9.08,9.23 -20.56,17.84 -34.09,17.87 -6.91,0.43 -14.12,-3.16 -17.17,-9.5 -4.2,-9.31 0.76,-19.87 8.94,-25.06 -27.26,-4.21 -56.09,8.03 -72.07,30.49 m 184.51,4.71 c -10.01,15.91 -10.43,35.64 -8.06,53.73 0.53,7.34 6.21,12.61 9.29,18.92 19.46,-19.95 46.79,-30.39 73.71,-35.53 7.94,-2.16 16.27,1.23 20.33,8.37 0.02,-7.8 1.22,-15.91 5.74,-22.48 7.02,-11.95 18.88,-19.56 29.56,-27.86 -12.52,-17.73 -33.31,-28.98 -54.84,-30.69 -28.76,-1.78 -60.03,10.51 -75.73,35.54 M 279.5,281.45 c 0.06,0.82 0.16,2.47 0.21,3.29 2.75,2.13 5.5,4.24 8.24,6.38 2.26,-5.83 -1.97,-12.23 -8.45,-9.67 m 2.44,13.69 c 2.36,-1.37 1.76,-3.93 0.1,-5.59 -2.61,1.29 -2.02,4.01 -0.1,5.59 m 250.07,19.87 c -13.48,8.96 -28.73,18.3 -34.46,34.35 5.25,-3.32 10.36,-6.88 15.95,-9.63 -6.52,5.94 -12.46,12.99 -14.64,21.75 14.39,-7.25 26.96,-18.1 42.51,-22.98 4.64,-1.69 10.25,1.87 14.21,-1.92 7.75,-6.15 16.13,-11.84 22.4,-19.58 3.54,-8.04 1.33,-18.07 -4.15,-24.76 -15.09,5.04 -28.23,14.67 -41.82,22.77 m -376.93,1.88 c 6.13,7.89 14.65,13.5 22.43,19.64 4.13,3.98 10.02,0.06 14.86,2.13 15.02,5.22 27.6,15.36 41.53,22.78 -1.93,-9.22 -8.35,-16.44 -15.27,-22.41 5.77,2.99 11.06,6.79 16.6,10.16 -3.44,-10.3 -11.51,-18.1 -20.03,-24.42 -15.07,-11 -31.13,-20.57 -47.58,-29.36 -2.69,-1.48 -5.54,-2.76 -8.64,-2.99 -5.33,6.71 -7.29,16.51 -3.9,24.47 m 467.09,-12.45 c 1.75,7.09 2.46,14.39 2.22,21.69 13.76,0.54 19.59,15.26 25.49,25.51 -6.02,-9.59 -15.8,-16.97 -27.56,-16.81 -4.36,13.11 -10.63,25.57 -18.69,36.81 -2.93,3.67 1.22,7.51 3.13,10.57 7.81,9.15 14.39,19.72 24.6,26.47 10.8,7.35 24.13,8.37 36.47,11.46 12.73,3.22 23.65,11.01 33.27,19.69 -10.57,-35.21 -5.61,-73.39 -18.95,-107.97 -5.09,-13.17 -14.49,-26.36 -28.76,-30.24 -10.36,-3.14 -21.24,-0.39 -31.22,2.82 m -503.39,9.26 c -2.29,14.12 4.47,27.47 11.05,39.48 16.08,27.37 39.02,52.29 69.19,63.9 6.83,2.51 12.94,-4.61 13.74,-10.87 -3.17,2.29 -5.44,5.88 -9.16,7.37 -4.39,0.84 -8.08,-2.44 -11.42,-4.8 -5.04,-4.06 -10.66,-7.35 -15.62,-11.52 7.61,3.56 14.82,8.73 23.43,9.47 2.59,0.48 4.61,-1.57 6.64,-2.81 -11.49,-8.19 -23.99,-15.53 -33.14,-26.47 -3.88,-4.44 -2.61,-10.67 -4.06,-15.88 -11.93,-15.96 -25.85,-31.7 -30.31,-51.71 -0.28,-3.62 -4.9,-4 -7.04,-1.74 -4.36,4.32 -4.28,10.94 -5.54,16.56 -1.38,-7.47 -1.46,-15.17 0.48,-22.55 -4.5,2.22 -7.62,6.57 -8.24,11.57 m 487.37,-11.48 c 1.84,7.41 1.84,15.14 0.35,22.61 -1.3,-5.87 -1.26,-12.92 -6.12,-17.21 -2.69,-2.19 -6.64,-0.55 -6.81,2.94 -4.16,19.59 -18.04,34.81 -29.53,50.5 -2.25,4.8 -0.48,10.79 -3.73,15.28 -8.66,12.25 -23.17,18.32 -33.71,28.46 10.39,5.42 20.87,-3.59 30.04,-7.77 -7.13,5.45 -14.28,11.03 -21.95,15.69 -5.92,3.57 -10.19,-3.24 -14.17,-6.48 0.61,6.03 6.12,12.86 12.74,11.04 27.83,-10.2 49.42,-32.31 65.43,-56.63 7.08,-11.32 13.95,-23.42 15.81,-36.84 0.83,-7.78 -0.23,-17.97 -8.35,-21.59 m -443.77,33.6 c 3.28,4.9 6.71,9.72 10.78,13.99 0.81,-1.46 1.62,-2.91 2.45,-4.35 -4.17,-3.53 -8.51,-6.88 -13.23,-9.64 m 395.19,9.41 c 0.86,1.53 1.71,3.07 2.58,4.61 3.66,-4.33 7.24,-8.77 10,-13.75 -4.45,2.68 -8.52,5.91 -12.58,9.14 m -369.2,3.28 c -7.05,1.94 -8.34,10.34 -8.71,16.55 -0.8,5.86 5.17,9.05 8.8,12.51 14.82,11.64 30.53,22.53 47.84,30.13 5.02,1.77 10.1,4.45 15.55,4.09 5.78,-1.44 8.74,-7.5 10.45,-12.7 1.37,-4.5 -2.81,-7.96 -5.97,-10.39 -17.11,-12.44 -34.81,-24.05 -52.72,-35.31 -4.65,-2.52 -9.63,-6.44 -15.24,-4.88 m 351.02,-0.03 c -8.22,3.1 -15.38,8.47 -22.85,13.01 -13.93,9.4 -28.18,18.36 -41.55,28.57 -10.16,6.36 0.33,25.36 11.19,21.19 16.71,-4.36 31.15,-14.24 45.25,-23.82 6.78,-4.76 13.6,-9.62 19.45,-15.52 4.52,-4.08 2.08,-10.66 1.01,-15.73 -1.22,-5.46 -7.02,-9.25 -12.5,-7.7 M 97.58,415.35 c -0.63,-5.33 0.7,-12.03 -4.35,-15.59 -10.82,-9.83 -11.72,-25.98 -8.7,-39.4 -2.9,-1.3 -5.91,-2.36 -9.01,-3.1 -2.81,21.23 3.22,45.79 22.06,58.09 m 9.13,5.97 c 6.12,16.08 22.66,26.67 39.44,28.3 -0.65,-2.5 -1.34,-4.98 -2.07,-7.44 -10.12,-2.34 -19.85,-8.17 -24.31,-17.9 -8.98,-18.89 -4.63,-41.31 4.86,-59.15 -1.42,-2.01 -2.79,-4.06 -4.12,-6.13 -12.41,17.62 -21.11,41.01 -13.8,62.32 m 143.85,-49.09 c 5.82,4.2 12.41,7.57 17.04,13.21 2.58,3.51 6.95,4.53 10.69,6.29 4.81,2.05 9.23,5.57 14.73,5.4 11.62,0.3 21.77,6.44 32.13,10.95 2.46,-6.98 -2.88,-12.38 -7.63,-16.58 7.69,4.19 14.69,10.94 13.47,20.49 1.4,0.78 2.81,1.55 4.23,2.31 0.99,-5.9 1.96,-12.61 -1.65,-17.86 -5.53,-8.21 -14.06,-13.73 -22.53,-18.51 -15.88,-8.39 -33.07,-14.98 -51.02,-16.94 -6.51,-1.1 -7.29,7.01 -9.46,11.24 M 462.6,362.6 c -17.21,3.98 -33.96,10.53 -48.73,20.3 -5.77,4.06 -11.81,8.4 -15.12,14.82 -2.7,5.02 -1.54,10.9 -1.21,16.31 1.69,-0.56 3.38,-1.13 5.08,-1.69 -2.35,-8.85 3.92,-15.79 11.2,-19.66 -3.83,4.29 -8.31,9.22 -5.95,15.43 9.67,-4.37 19.23,-9.86 30,-10.83 9.03,0.06 16.28,-6.04 24.44,-8.96 5.8,-6.35 12.89,-11.14 19.85,-16.13 -1.5,-3.76 -2.21,-8.21 -5.43,-10.97 -4.74,-0.79 -9.51,0.43 -14.13,1.38 M 87.1,361.69 c -2.19,12.48 -0.38,26.91 9.88,35.5 2.53,-11.66 5.91,-23.29 11.97,-33.65 -7.36,0.63 -14.59,-1.05 -21.85,-1.85 m 39.46,6.89 c -7.23,14.75 -10.65,32.34 -5.4,48.27 2.88,9.76 11.2,17.13 21,19.53 -3.76,-16.54 -7.55,-33.31 -6.71,-50.39 0.85,-7.12 -4.62,-12.49 -8.89,-17.41 m 217.09,17.03 c -1.91,4.67 0.26,9.59 1.65,14.08 2.5,-4.75 4.61,-10.03 8.99,-13.4 6.32,-5.1 15.9,-5.87 22.69,-1.25 5.4,3.48 8.3,9.44 10.63,15.2 1.46,-5.09 4.35,-10.93 1.12,-15.96 -4.37,-6.87 -10.85,-14.08 -19.63,-14.22 -11.09,-1.93 -20.89,6.11 -25.45,15.55 m 254.24,8.7 c -0.88,10.46 -2.49,20.85 -4.3,31.19 7.61,-1 15.57,-4.16 19.27,-11.36 -4.88,-6.7 -9.57,-13.54 -14.97,-19.83 m -448.08,3 c 1.96,28.25 11.63,55.49 24.27,80.65 21.55,41.93 55.09,75.89 88.84,108.14 33.95,31.45 69.69,60.95 103.39,92.69 48.67,-45.13 101.26,-86.19 146.06,-135.38 15.51,-17.83 30.54,-36.3 42.05,-57.04 15.14,-27.42 26.41,-57.61 28.89,-89.02 -6.4,5.25 -12,11.48 -19.02,15.95 -3.84,3.05 -9.69,4.73 -10.88,10.08 -3.15,10.17 -6.1,20.41 -9.45,30.52 -6.29,17.63 -16.15,33.79 -27.58,48.54 -20.78,27.25 -45.68,50.94 -70.35,74.61 -26.46,24.94 -52.72,50.15 -79.74,74.47 -35.05,-32.89 -70.4,-65.46 -104.75,-99.08 -27.53,-27.67 -54.84,-57 -70.92,-93.07 -5.64,-11.84 -8,-24.82 -11.65,-37.33 -0.74,-3.58 -4.69,-4.76 -7.28,-6.76 -8.18,-4.85 -14.75,-11.79 -21.88,-17.97 m 119.36,11.55 c 2.74,-2.46 4.89,-5.81 7.62,-8.43 -1.39,-0.72 -2.78,-1.44 -4.17,-2.14 -1.1,3.52 -3.01,6.9 -3.45,10.57 m 187.27,-8.2 c 1.77,1.64 3.58,3.24 5.45,4.77 -0.28,-2.36 -0.63,-4.7 -1.01,-7.04 -1.48,0.75 -2.97,1.51 -4.44,2.27 m -171.11,8.72 c -4.86,1.74 -8.71,5.9 -10.46,10.72 -1.32,5.36 2.17,10.73 6.66,13.42 18.86,11.52 38.07,22.55 58.18,31.75 2.63,1.11 5.37,2.49 8.32,2.22 5.85,-5.15 9.49,-12.83 10.46,-20.51 0.57,-4.01 -2.57,-6.89 -5.65,-8.79 -13.71,-8.38 -26.76,-17.98 -41.5,-24.55 -8.07,-3.47 -17.2,-6.52 -26.01,-4.26 m 149,0.03 c -18.98,4.6 -34.74,16.8 -51.09,26.85 -3.58,2.41 -8.64,4.7 -8.74,9.7 0.32,7.4 3.94,14.33 8.61,19.93 2.21,3 6.08,1.03 8.79,-0.04 20.7,-9.19 40.31,-20.63 59.66,-32.34 6.24,-3.48 9.13,-12.46 4.16,-18.19 -4.69,-6.87 -13.91,-7.81 -21.39,-5.91 m -175.65,12.41 c 1.92,1.42 3.84,2.84 5.76,4.27 0.14,-5.14 1.14,-10.2 3.3,-14.88 -2.74,3.77 -5.81,7.27 -9.06,10.61 m -49.72,6.07 c -6.38,3.7 -13.45,0.28 -19.74,-1.71 2.27,27.95 17.41,52.72 34.25,74.37 21.57,27.21 46.83,51.16 71.95,75.04 23.75,22.18 47.1,44.88 71.36,66.46 25.81,-24.28 51.85,-48.31 77.5,-72.76 21.73,-20.93 43.65,-41.83 62.56,-65.4 18.2,-22.42 34.3,-48.35 37.15,-77.71 -5.75,1.6 -11.81,4.96 -17.85,2.65 -7.22,-2.37 -11.14,-9.44 -14.14,-15.9 -1.7,0.86 -3.39,1.71 -5.09,2.55 1.23,8.34 2.8,17.38 -1.09,25.28 -5.89,11.45 -16.83,19.14 -27.89,25.11 -15.04,8.17 -29.51,17.94 -45.97,23.07 -11.93,3.47 -23.55,-4.64 -28.09,-15.4 -0.73,0.16 -2.19,0.48 -2.92,0.64 7.49,27.02 16.76,53.82 19.64,81.86 0.14,6.62 -7.03,9.93 -12.6,10.98 -20.95,3.65 -42.35,2.92 -63.51,2.27 -8.07,-0.9 -16.43,-0.77 -24.14,-3.59 -4.34,-1.59 -8.64,-5.58 -7.82,-10.63 2.24,-20.75 8.05,-40.87 13.76,-60.87 1.91,-6.97 4.81,-13.72 5.46,-20.99 -4.58,0.92 -5.36,6.26 -8.43,9.1 -6.49,7.72 -17.93,9.04 -26.88,5.19 -15.33,-6.19 -29.43,-15 -43.8,-23.1 -10.39,-5.74 -20.58,-13.3 -25.68,-24.36 -3.52,-7.74 -1.63,-16.41 -1.14,-24.54 -1.42,-0.85 -2.83,-1.69 -4.24,-2.52 -3.87,5.22 -6.09,12.23 -12.61,14.91 m 258.21,-13.18 c 0.62,3.45 1.29,6.9 1.96,10.35 1.73,-1.06 3.46,-2.12 5.18,-3.19 -2.31,-2.46 -4.66,-4.88 -7.14,-7.16 m 124.85,15.62 c -0.26,1.44 -0.5,2.89 -0.74,4.34 10.76,-2 22.06,-5.63 29.36,-14.28 -1.89,-1.56 -3.78,-3.09 -5.7,-4.59 -4.08,9.14 -13.64,13.04 -22.92,14.53 M 235.21,420.5 c -0.35,5.25 -1.57,11.12 1.38,15.87 4.27,6.66 10.68,11.63 17.43,15.6 12.07,7.05 24.21,13.99 36.66,20.34 4.86,2.32 9.84,4.83 15.28,5.31 6.22,0.67 13.02,-3.8 13.55,-10.32 -1.55,-0.19 -3.1,-0.38 -4.65,-0.55 -2.76,3.31 -6.67,7.19 -11.33,4.76 -8.59,-4.25 -16.19,-10.34 -24.24,-15.54 9.8,3.97 19.34,11.22 30.51,9.27 -0.78,-3.76 -4.71,-4.74 -7.58,-6.45 -13.09,-7.18 -25.4,-15.68 -38.89,-22.14 -6.5,-2.57 -8.79,-10.23 -15.25,-12.77 -4.06,-1.86 -8.42,-2.99 -12.87,-3.38 M 483,425 c -5.02,2.88 -7.43,8.74 -12.73,11.27 -16.17,8.43 -31.76,17.94 -47.31,27.41 1.58,0.85 3.07,2.4 5.02,2.17 9.38,-1.06 17.36,-6.51 25.96,-9.9 -7.98,4.94 -15.41,10.79 -23.6,15.32 -5.18,3.04 -9.81,-1.33 -12.72,-5.24 -1.55,0.77 -3.1,1.55 -4.64,2.33 2.71,7.02 10.65,11.3 17.91,8.59 13.96,-4.55 26.32,-12.89 39.18,-19.8 9.61,-5.66 20.3,-10.95 26.35,-20.76 3.03,-4.69 1.95,-10.46 1.5,-15.68 -5.19,0.4 -10.47,1.45 -14.92,4.29 m 115.81,13.71 c -3.62,1.4 -9.3,1.03 -10.43,5.63 -2.47,7.44 -5.2,14.79 -7.92,22.14 16.96,-4.1 34.77,-2.33 51.55,-7.39 13.04,-3.52 26.68,-9.38 33.91,-21.47 -6.74,-3.13 -14.33,-3.01 -21.35,-5.13 -7.21,-1.9 -13.88,-5.29 -20.41,-8.81 -6.64,7.54 -15.45,13.05 -25.35,15.03 m 67.73,4.86 c -5.96,10.34 -17.08,16.4 -28.18,19.77 -15.97,5.06 -32.87,5.05 -49.43,5.72 -6.18,0.08 -12.05,3.4 -14.17,9.41 7.35,-1.74 14.57,-4.61 22.24,-4.48 11.46,0.11 22.75,-1.98 34.11,-3.11 -5.78,2.24 -12.47,2.17 -17.55,6.12 15.14,-1.41 31.68,-3.43 43.67,-13.75 7.75,-6.31 14.16,-15.31 14.58,-25.61 -2.27,1.48 -3.99,3.57 -5.27,5.93 m -330.03,33.37 c -7.14,25.13 -14.74,50.28 -18.85,76.13 -1.6,5.76 5.53,7.53 9.71,8.51 25.27,4.15 51.27,4.22 76.58,0.33 4.65,-1.05 12.89,-2.2 11.36,-8.84 -3.88,-26.02 -12.06,-51.13 -18.6,-76.55 -2.76,0.94 -5.53,1.85 -8.31,2.7 2.49,20.04 9.09,39.54 9.34,59.85 0.27,3.39 -1.64,7.49 -5.67,6.66 -17.36,-0.83 -34.76,-0.5 -52.14,-0.69 -4.54,0.48 -5.16,-4.75 -4.9,-8.08 1.36,-19.39 6.65,-38.19 9.82,-57.31 -2.68,-1.2 -5.46,-2.15 -8.34,-2.71 m 244.11,13.54 c 5.74,8.83 10.87,18 14.36,27.98 8.12,0.82 15.31,5.33 21.4,10.49 -5.93,-3.21 -12.45,-6.26 -19.35,-4.27 5.35,20.66 5.33,42.17 1.39,63.06 12.31,-4.6 23.31,-11.9 34.27,-19.01 17.87,-11.92 35.81,-23.8 53.18,-36.42 -13.49,1.13 -26.12,-5.36 -34.9,-15.27 -17.89,-18.18 -43.88,-34.86 -70.35,-26.56 m -30.13,30.18 c 11.03,11.62 11.19,29.03 9.95,44.02 0.37,-14.19 -1.75,-30.05 -13.47,-39.62 -6.97,9.86 -14.66,19.19 -22.78,28.13 -6.18,6.38 -6.3,16.25 -4.74,24.46 4.31,15.15 11.24,29.54 13.91,45.16 3.38,17.4 2.22,35.38 -1.5,52.63 7.93,-6.93 14.69,-15.04 21.56,-22.98 16.57,-19.87 26.02,-44.71 31.12,-69.84 4.95,-23.35 2.83,-48.6 -8.05,-70.02 -2.8,-5.33 -6.23,-11.29 -12.48,-12.93 -4.45,7.03 -8.94,14.04 -13.52,20.99 m -395.36,63.21 c 2.34,-4.29 4.98,-8.54 6.17,-13.32 0.69,-5.05 0.02,-10.21 1.08,-15.22 2.71,-13.88 11.48,-25.68 14.29,-39.52 0.59,-2.13 -0.25,-4.21 -0.94,-6.18 -1,2.93 -1.76,5.94 -2.72,8.88 -0.24,-4.82 2.49,-10.56 -1.24,-14.62 -7.85,25.97 -22.75,51.91 -16.64,79.98 m 25.1,-66.68 c -4.29,15.28 -12.2,29.52 -14.14,45.43 7.65,-10.61 17.29,-20.54 30.34,-24.01 -5.73,-6.88 -10.85,-14.24 -16.2,-21.42 m -2.38,55.75 c -21.34,33.23 -19.01,76.81 -44.08,108.15 36.33,-3.86 73.06,-13.1 103.87,-33.4 12.98,-8.2 23.24,-21.99 23.87,-37.72 0.74,-4.62 -3.8,-7.09 -6.59,-9.87 -4.53,-3.8 -8.14,-8.68 -13.08,-11.97 -8.04,-3.22 -16.38,0.47 -23.28,4.58 5.07,-4.58 11.2,-7.69 17.14,-10.94 -7.05,-7.76 -14.74,-14.91 -21.64,-22.8 -2.18,-2.25 -4.5,-5.46 -8.06,-4.92 -12.13,0.3 -21.93,9.17 -28.15,18.89 m 245.87,75.67 c 6.36,9.7 8.26,21.75 6.56,33.12 0.2,-10.83 -2.48,-21.75 -10.16,-29.78 -9.4,7.96 -18.12,16.65 -27.08,25.08 5.56,9.2 11.17,18.61 13.79,29.15 2.47,8.98 2.02,18.38 1.47,27.58 25.53,-13.47 45.39,-38.73 48.1,-67.98 1.15,-13.43 -2.07,-26.96 -7.86,-39.05 -9.02,6.4 -16.73,14.39 -24.82,21.88 m 44.45,-0.36 c 1.44,13.82 -0.18,27.81 -4.45,41.01 17.67,-7.22 29.87,-23.92 35.47,-41.73 -9.65,5.07 -21.29,6.36 -31.02,0.72 m -278.54,49.61 c 0.48,-4.58 1.73,-9.01 2.87,-13.45 -8.53,7.73 -14.68,22.09 -5.77,31.84 12.61,12.48 33.47,10.17 48.05,2.49 5.07,-4.1 9.99,-10.68 8.36,-17.58 1.22,1.65 2.46,3.29 3.76,4.89 0.54,-3 2.3,-8.19 -2.29,-8.67 -8.81,-0.62 -15.59,7.91 -16.26,16.13 4.1,-2.22 6,-6.57 7.74,-10.64 2.83,2.19 3.31,6.27 0.41,8.64 -8.65,7.49 -21.73,12.1 -32.6,6.66 -6.17,-2.68 -9.02,-9.75 -8.42,-16.16 -0.29,-7.93 3.3,-15.1 5.8,-22.4 -5.85,4.62 -8.72,11.64 -11.65,18.25 m 92.5,25.24 c -12.03,9.42 -31.31,9.59 -42.47,-1.31 0.2,1.47 0.4,2.94 0.6,4.42 -1.92,-0.6 -4.85,-3.24 -5.94,-0.12 15.86,16.51 45.33,11.45 58.68,-5.78 5.03,2.71 -0.43,8.61 2.51,12.51 2.11,-4.78 5.67,-10.8 2.45,-15.85 -6.08,-2.43 -11.24,2.96 -15.83,6.13 m 19.52,17.59 c 4.13,0.64 8.68,0.97 12.29,-1.6 -4.16,-0.17 -8.4,0.02 -12.29,1.6 z"
       id="path147"
       inkscape:connector-curvature="0"
       style="opacity:1;fill:#030303" />
    <path
       d="m 210.18,387.55 c 11.92,5.63 23.99,10.96 35.95,16.49 6.01,1.99 11.29,-3.55 11.71,-9.28 4.64,8.45 -4.69,18.2 -13.34,14.88 -12.51,-5.5 -23.01,-14.58 -34.32,-22.09 z"
       id="path149"
       inkscape:connector-curvature="0"
       style="opacity:1;fill:#030303" />
    <path
       d="m 495.15,400.21 c 8.76,-3.71 17.23,-8.09 26.09,-11.56 -10.7,7.23 -20.77,15.83 -32.76,20.86 -8.58,3.53 -18.37,-6.68 -13.01,-14.91 0.79,3.09 1.11,7 4.47,8.46 5.1,3.38 10.58,-0.64 15.21,-2.85 z"
       id="path151"
       inkscape:connector-curvature="0"
       style="opacity:1;fill:#030303" />
    <path
       d="m 278.22,423.85 c -0.86,-5.82 3.76,-11.3 9.48,-12.09 -1.25,3.48 -2.86,6.81 -4.59,10.08 7.39,7.94 16.57,13.82 24.84,20.75 -6.48,-2.98 -12.64,-6.6 -19.24,-9.3 -4.25,-1.97 -9.37,-4.44 -10.49,-9.44 z"
       id="path153"
       inkscape:connector-curvature="0"
       style="opacity:1;fill:#030303" />
    <path
       d="m 445.66,412.03 c 8.17,0.42 12.95,12.39 5.59,17.23 -7.99,5.23 -17.17,8.43 -25.53,13.05 7.97,-6.91 16.94,-12.68 24.09,-20.52 -1.62,-3.15 -3.1,-6.38 -4.15,-9.76 z"
       id="path155"
       inkscape:connector-curvature="0"
       style="opacity:1;fill:#030303" />
  </g>
</svg>
