<?xml version="1.0" encoding="UTF-8" standalone="no"?>
<svg
   xmlns:dc="http://purl.org/dc/elements/1.1/"
   xmlns:cc="http://creativecommons.org/ns#"
   xmlns:rdf="http://www.w3.org/1999/02/22-rdf-syntax-ns#"
   xmlns:svg="http://www.w3.org/2000/svg"
   xmlns="http://www.w3.org/2000/svg"
   xmlns:sodipodi="http://sodipodi.sourceforge.net/DTD/sodipodi-0.dtd"
   xmlns:inkscape="http://www.inkscape.org/namespaces/inkscape"
   id="svg8"
   version="1.1"
   viewBox="0 0 210 297"
   height="297mm"
   width="210mm"
   sodipodi:docname="octopus.svg"
   inkscape:version="0.92.4 (5da689c313, 2019-01-14)">
  <sodipodi:namedview
     pagecolor="#ffffff"
     bordercolor="#666666"
     borderopacity="1"
     objecttolerance="10"
     gridtolerance="10"
     guidetolerance="10"
     inkscape:pageopacity="0"
     inkscape:pageshadow="2"
     inkscape:window-width="3840"
     inkscape:window-height="2004"
     id="namedview8"
     showgrid="false"
     inkscape:zoom="1.6819304"
     inkscape:cx="523.96576"
     inkscape:cy="841.31751"
     inkscape:window-x="-16"
     inkscape:window-y="-16"
     inkscape:window-maximized="1"
     inkscape:current-layer="svg8" />
  <title
     id="title921">O is for Octopus</title>
  <defs
     id="defs2" />
  <metadata
     id="metadata5">
    <rdf:RDF>
      <cc:Work
         rdf:about="">
        <dc:format>image/svg+xml</dc:format>
        <dc:type
           rdf:resource="http://purl.org/dc/dcmitype/StillImage" />
        <dc:title>O is for Octopus</dc:title>
        <dc:date>2020-04-11</dc:date>
        <dc:creator>
          <cc:Agent>
            <dc:title>Lena London</dc:title>
          </cc:Agent>
        </dc:creator>
        <dc:source>http://www.supercoloring.com/coloring-pages/cute-cartoon-octopus</dc:source>
        <dc:subject>
          <rdf:Bag>
            <rdf:li>csk</rdf:li>
            <rdf:li>animals</rdf:li>
            <rdf:li>octopus</rdf:li>
            <rdf:li>sea</rdf:li>
            <rdf:li>underwater</rdf:li>
          </rdf:Bag>
        </dc:subject>
        <cc:license
           rdf:resource="http://creativecommons.org/licenses/by-sa/4.0/" />
      </cc:Work>
      <cc:License
         rdf:about="http://creativecommons.org/licenses/by-sa/4.0/">
        <cc:permits
           rdf:resource="http://creativecommons.org/ns#Reproduction" />
        <cc:permits
           rdf:resource="http://creativecommons.org/ns#Distribution" />
        <cc:requires
           rdf:resource="http://creativecommons.org/ns#Notice" />
        <cc:requires
           rdf:resource="http://creativecommons.org/ns#Attribution" />
        <cc:permits
           rdf:resource="http://creativecommons.org/ns#DerivativeWorks" />
        <cc:requires
           rdf:resource="http://creativecommons.org/ns#ShareAlike" />
      </cc:License>
    </rdf:RDF>
  </metadata>
  <path
     inkscape:connector-curvature="0"
     id="path906"
     d="m 170.39338,13.736721 c -1.73459,0.09903 -3.14946,2.556564 -1.64761,3.828555 0.97841,1.242283 3.52085,1.360878 4.00669,-0.453897 0.7895,-1.661022 -0.53191,-3.544131 -2.35908,-3.374658 z m 0.0261,1.755422 c 0.95841,0.113079 0.084,1.529758 -0.20421,0.48791 0.0154,-0.140534 0.0237,-0.446124 0.20421,-0.48791 z m -15.12238,7.859196 c -1.84001,0.04546 -3.49073,1.738098 -3.03652,3.631086 0.19698,2.756384 4.1916,3.141727 5.48524,0.997427 1.59496,-1.823294 -0.16535,-4.761162 -2.44872,-4.628513 z m 0.126,1.697519 c 1.63993,0.241803 0.55066,3.216603 -0.8431,1.905197 -1.0263,-0.662828 -0.14382,-1.968371 0.8431,-1.905197 z m 42.83446,10.695853 c -2.8205,0.178299 -3.48286,4.86656 -0.65813,5.607779 2.14381,0.827756 5.12109,-1.893604 3.51424,-3.983997 -0.65717,-0.883662 -1.69739,-1.699515 -2.85611,-1.623782 z m 0.67858,1.822358 c 1.01869,0.681582 -0.22375,2.343635 -1.18011,1.444495 -0.5338,-0.729011 0.45917,-1.558698 1.18011,-1.444495 z M 29.955678,26.251469 c -4.964416,0.06659 -3.437947,6.625565 -0.402822,6.375984 2.345721,0.129768 4.575111,-2.850538 2.915098,-4.855449 -0.597131,-0.808653 -1.557842,-1.301239 -2.512276,-1.520535 z m 0.179289,1.831422 c 1.476619,0.258006 1.093054,2.652433 -0.418697,2.204771 -1.35585,0.0718 -1.572534,-1.739216 -0.325684,-2.094697 0.23438,-0.0953 0.492807,-0.129111 0.744381,-0.110009 z M 182.26598,45.492036 c -2.57981,0.01314 -4.57834,3.051369 -3.14884,5.34112 1.02028,2.43832 4.94267,2.20003 6.2262,0.160075 1.25848,-1.926739 0.4253,-5.374254 -2.21836,-5.481828 -0.28467,-0.03667 -0.57303,-0.04106 -0.859,-0.01976 z m 0.28142,1.690712 c 1.96697,0.01537 2.08001,3.209905 0.0134,3.266865 -2.35347,0.100573 -2.5334,-3.42593 -0.0134,-3.266865 z m -13.14799,17.027591 c -2.22247,-0.05863 -3.48723,2.824958 -1.98802,4.4447 0.77258,1.15904 2.35123,1.803532 3.5562,0.873715 2.49781,-0.878677 1.82321,-4.759317 -0.59458,-5.233306 -0.31695,-0.0819 -0.64722,-0.108254 -0.9736,-0.0852 z M 93.152041,64.767482 C 82.89904,64.971474 72.270203,67.00471 63.744662,73.03391 55.165815,78.827805 48.418539,88.299976 48.22186,98.927434 c -0.425724,6.891136 1.112729,13.924386 4.879142,19.758446 5.375682,8.76309 14.019402,15.17056 23.554856,18.79275 5.129947,2.39693 9.703652,6.18646 12.532607,11.10707 0.581253,2.75771 -0.773036,5.49979 -1.244785,8.19382 -0.893455,2.73454 -1.420647,5.84262 -3.303162,8.11209 -5.041875,2.79445 -11.070218,3.07652 -16.68263,2.53837 -6.84603,-0.49478 -13.277042,-5.42597 -14.603972,-12.30488 -0.9063,-4.61757 -0.662389,-10.3985 3.35437,-13.58938 1.237758,-1.19776 3.649881,-1.2933 4.216599,-3.10008 8.8e-5,-1.24607 -1.802324,-0.94057 -2.655244,-1.02349 -6.376269,-0.0569 -11.36417,5.46769 -13.239879,11.14746 -1.006737,4.69203 -1.118174,9.63892 0.02832,14.31674 3.191638,9.20677 11.901574,15.36213 20.882343,18.23481 2.122022,0.38305 -0.655384,0.89704 -1.363599,1.20013 -8.804226,2.41635 -18.856727,3.51066 -27.330154,-0.68713 -6.136817,-3.02758 -10.736717,-8.72883 -13.336342,-15.01458 -0.227025,-1.77847 1.826743,-2.87003 2.920763,-3.99649 3.734112,-3.06661 8.884855,-3.64091 13.53313,-4.23608 1.088464,-0.25393 3.188057,0.40853 3.613606,-1.02107 -0.520385,-1.50011 -2.325388,-2.15625 -3.659478,-2.80161 -3.765512,-0.94851 -7.762113,-0.64121 -11.58946,-0.25068 -2.269001,0.2663 -4.381901,1.5516 -6.524026,1.91531 -0.577237,-5.46746 1.120325,-11.04396 4.080436,-15.5933 3.540113,-4.79271 8.823725,-8.10071 14.486948,-9.79489 0.786958,-0.41358 1.120633,-1.17835 2.14463,-1.22549 -1.356202,-0.12774 -2.462738,-1.08605 -3.936129,-0.88611 -3.084174,-0.041 -6.227438,0.12762 -9.220946,0.89065 -10.424869,3.72831 -17.209296,14.15543 -19.031492,24.74934 -0.8542155,4.71096 -0.9845815,9.63284 -0.149316,14.30081 0.181155,3.24852 -1.1541634,6.32719 -1.1732676,9.57462 -0.5887639,6.32129 0.2083832,12.99983 3.5955356,18.49381 5.966181,10.10704 17.3244,15.6616 28.502981,17.81848 10.162798,2.15212 20.95307,1.18323 30.597687,-2.6439 1.48527,-0.87257 -0.27507,0.65759 -0.529148,0.9982 -6.534202,6.25548 -13.31718,12.71873 -16.944971,21.18811 -4.258957,9.52417 -5.810937,20.41063 -3.694062,30.67114 1.812469,7.35711 5.62214,14.50738 11.670574,19.22101 0.553126,0.63893 2.154797,0.72576 1.850742,-0.45731 -1.962025,-4.5539 -4.314401,-8.93261 -5.173183,-13.86285 -1.587903,-6.82281 0.732172,-13.82251 3.66613,-19.94066 5.822847,-10.96685 15.325736,-19.28583 24.286523,-27.65395 7.644682,-6.76334 15.169543,-13.66032 22.735873,-20.50479 1.10225,-1.08751 0.0802,0.77491 -0.008,1.38308 -3.8293,12.82262 -3.91654,26.96312 0.59554,39.62266 3.38284,9.42717 10.60125,17.63201 20.11127,21.13921 8.52289,3.29259 18.12135,3.24996 26.8899,0.97757 9.94094,-2.66537 16.55763,-12.53809 17.33985,-22.49924 0.24918,-2.13041 0.13548,-4.27897 -0.24987,-6.37705 -0.18072,0.85108 -1.29434,0.73727 -1.47627,1.69752 -1.42347,3.98257 -2.79366,8.14162 -5.80184,11.27966 -5.66457,6.41869 -14.88245,7.97837 -22.99594,6.97324 -6.86261,-0.58954 -13.52414,-4.50043 -16.8179,-10.67298 -3.22574,-5.50633 -3.95906,-12.01157 -3.6654,-18.30842 0.11634,-5.7189 0.70754,-11.51621 3.261,-16.71096 2.72615,-6.4842 5.94471,-12.76657 8.22037,-19.43235 0.39864,-0.73888 1.41093,0.79827 1.98234,0.91913 5.67597,3.44947 12.60807,4.00206 19.10752,3.85691 11.77944,-0.49614 23.11327,-6.72111 29.88907,-16.36898 5.96134,-8.44638 10.27087,-18.30949 11.00726,-28.70956 1.15754,-12.53537 0.86919,-25.44325 -2.74607,-37.57995 -2.46731,-8.13575 -7.60182,-16.271244 -15.90082,-19.349817 -6.83932,-2.427693 -15.21846,-2.338284 -21.15785,2.249567 -4.59174,3.513864 -6.20518,9.74034 -5.26361,15.26397 0.37603,1.11192 0.51598,2.95912 1.84018,3.66425 1.28284,0.0289 1.32783,-1.84323 1.63527,-2.74176 0.58026,-5.139 5.24456,-9.13038 10.34388,-9.34086 3.52495,-0.44946 7.2513,0.52321 9.56781,3.3545 5.20653,5.49873 6.96058,13.17167 8.39025,20.38057 1.09569,6.85649 0.52893,13.88095 -0.0197,20.77313 -0.63748,7.32643 -3.24895,14.67306 -8.62792,19.89628 -3.58195,3.50534 -7.88906,6.3094 -12.65665,7.85452 6.07417,-2.91597 11.75803,-7.21866 14.84211,-13.35584 3.52569,-7.04572 4.84016,-15.31886 3.34627,-23.07996 -1.28681,-6.94872 -6.3098,-13.3589 -13.31289,-15.15835 -5.91829,-1.70664 -13.37366,-0.83603 -17.22576,4.46362 -0.56161,1.04331 -1.81217,2.23875 -1.44791,3.49155 1.16405,0.54025 2.31222,-0.92177 3.32239,-1.35612 3.80583,-2.92428 9.43685,-3.23764 13.17527,-0.0283 4.12682,3.39692 5.4789,8.98833 5.03134,14.12952 -0.23527,4.64192 -2.46494,9.06884 -5.34554,12.64557 -3.5374,4.28599 -9.60601,6.16976 -14.69245,6.39161 3.97809,-3.42908 7.96719,-7.80378 8.10871,-13.36585 0.524,-7.18067 -4.68568,-14.9257 -12.17423,-15.56615 -1.3,0.0197 -2.96742,-0.31311 -4.0216,0.55608 -0.1917,1.14727 1.40276,1.27062 2.00504,1.9676 3.34071,1.79338 3.9508,6.02837 3.58175,9.45956 0.12452,6.28948 -5.20311,11.72555 -11.15827,12.82065 -0.88895,-1.13113 0.0844,-2.95072 -0.0736,-4.31416 0.47227,-6.63762 2.85204,-13.16026 1.84633,-19.87153 -0.45672,-5.38415 -2.86494,-10.29943 -4.11019,-15.49201 -0.45464,-4.86031 0.56099,-9.72721 0.60931,-14.60319 0.29321,-5.586326 0.62803,-11.454374 -1.81324,-16.667364 -4.4399,-10.973863 -14.88448,-18.583938 -26.12797,-21.490471 -4.53752,-1.278842 -9.275425,-1.653866 -13.975175,-1.564782 z m 76.597999,1.303788 c 1.73693,0.150414 0.10938,2.318602 -0.93045,1.283387 -0.16842,-0.740583 -0.0426,-1.439268 0.93045,-1.283387 z m -76.514031,0.806786 c 6.806611,-0.154806 13.735451,0.633952 19.905691,3.726669 10.17183,4.38638 18.39444,13.901214 19.98463,24.975358 0.71669,6.935827 -0.74604,13.849127 -1.02056,20.777357 -0.25516,5.74978 3.35886,10.74109 3.94429,16.35828 0.95368,5.54516 0.16031,11.09824 -0.87881,16.55927 -0.67079,4.77698 -0.95057,9.64792 -1.0729,14.43652 2.93585,4.71124 6.40765,9.53453 11.69439,11.77384 10.33431,4.50142 22.84373,1.03478 30.7126,-6.65368 6.60706,-6.27386 9.6032,-15.49589 10.06805,-24.41832 0.69533,-6.9889 0.3458,-14.08948 -0.8562,-20.99958 -1.80055,-7.51155 -4.32226,-15.64572 -10.70545,-20.54699 -5.78783,-4.555036 -14.99081,-2.43874 -18.88967,3.58798 -1.00708,1.46463 -1.60119,3.15174 -2.2161,4.8044 -0.73668,-3.95526 -0.0536,-8.36021 2.19797,-11.732976 2.6871,-3.299459 6.64497,-5.744476 11.00444,-5.697982 5.92871,-0.619528 12.45756,0.527914 16.91302,4.797012 7.79583,6.894696 10.33783,17.605716 11.32676,27.539606 0.76622,9.74803 0.87305,19.65599 -0.58799,29.35172 -2.0565,13.40578 -12.67007,25.17568 -26.03158,28.059 -6.44347,1.39037 -13.22999,1.68524 -19.669,0.13878 -4.83895,-1.15619 -7.8741,-5.31007 -10.33047,-9.28994 -0.59105,-0.59428 -0.4988,-0.56635 -1.03146,-0.19169 -1.11992,0.82185 -0.31901,2.61034 -0.77486,3.78432 -1.81658,9.22675 -5.26576,18.05668 -9.26513,26.54668 -5.60161,10.13607 -7.11428,22.29802 -4.81575,33.59221 1.50674,7.50922 6.27081,14.61085 13.49862,17.61651 7.76349,3.2907 16.82391,3.12395 24.67785,0.22352 0.96385,-0.38908 5.97866,-2.61608 6.86045,-3.1675 -7.04155,10.61176 -18.48084,11.4424 -26.79941,11.05389 -6.39423,-0.3503 -14.93908,-3.3503 -19.47549,-8.22565 -7.38656,-5.97923 -10.65155,-15.58247 -12.05837,-24.68772 -1.15992,-9.54627 -0.62238,-19.46644 2.50747,-28.5771 2.04013,-6.18775 7.21562,-10.45834 10.53795,-15.93497 4.06218,-5.96538 7.03304,-12.92223 7.2964,-20.20354 0.16974,-0.70067 -0.7249,-1.67982 -1.13016,-0.69785 -1.22922,3.89862 -1.24435,8.15706 -3.12616,11.87369 -4.19813,10.10591 -12.34454,17.78575 -19.9926,25.3235 -10.925602,10.52984 -22.834312,20.01504 -33.401249,30.91167 -6.538088,7.19815 -12.708215,15.38934 -14.84011,25.06441 -0.890884,6.34338 -0.432706,13.10809 1.86541,19.02994 -3.219304,-4.48119 -5.749936,-9.55933 -6.513771,-15.05824 -1.895383,-12.00711 0.820202,-24.73137 7.603115,-34.85235 12.784455,-15.02895 28.653666,-27.36904 39.827705,-43.77878 3.63927,-5.61796 7.30817,-11.71988 7.81231,-18.54902 -0.13395,-0.79521 0.36303,-2.31757 -0.57305,-2.52475 -1.03971,1.50912 -0.99142,3.67107 -1.58546,5.41487 -2.13824,8.94354 -8.092782,16.26779 -13.715294,23.31114 -4.228172,5.24714 -9.287129,9.87541 -15.523109,12.58321 -8.848997,4.15394 -19.022102,5.25126 -28.659199,3.57456 -10.603695,-1.90811 -21.107042,-8.29393 -25.448056,-18.52296 -1.042572,-2.59198 -1.810206,-5.3469 -2.109715,-8.10661 1.875357,6.53936 5.970812,12.65614 12.143751,15.80663 4.629763,2.59322 10.010429,3.25578 15.235873,2.95596 6.134994,-0.15043 12.434235,-0.68673 18.005059,-3.49164 6.109378,-2.67882 11.939132,-6.22227 16.350017,-11.30674 4.182828,-4.4934 7.179673,-10.05611 9.14776,-15.8447 0.11769,-0.99835 0.884452,-2.48106 0.04656,-3.27026 -1.166086,0.38567 -1.243619,2.09425 -1.76451,3.05825 -3.861516,12.87316 -14.981973,22.56741 -27.423858,26.85292 -7.359621,2.41842 -15.388329,2.66073 -23.00754,1.37868 -7.204706,-1.51157 -13.602782,-6.86767 -15.78777,-13.97385 -1.592403,-4.68683 -2.152886,-9.71064 -1.029902,-14.55069 1.95399,3.14335 3.798889,6.41218 6.5179,8.9946 4.807691,5.27665 11.78368,8.36554 18.913401,8.44716 10.40346,0.52389 21.384622,-1.90838 29.382501,-8.91125 6.932118,-5.69233 11.403256,-13.96718 13.145086,-22.70451 0.219362,-2.03131 2.131937,-4.05661 0.87312,-6.083 -3.801809,-7.65873 -11.870063,-11.71359 -19.194881,-15.3062 -4.751213,-2.06466 -8.78704,-5.34647 -12.230538,-9.18038 -5.244416,-5.24227 -9.297756,-12.04959 -9.630796,-19.60551 -0.910516,-9.379213 2.354329,-19.172981 9.343122,-25.689652 8.413796,-7.948978 19.998624,-11.9438 31.464594,-11.920216 0.786299,-0.01756 1.57262,-0.0257 2.359094,-0.02723 z m 4.966641,4.347118 c -2.136958,0.04634 -5.119865,0.878281 -5.235585,3.456343 -0.171054,1.293246 0.81792,2.598724 2.218384,2.235404 2.279629,-0.196086 5.308141,-0.742581 6.303351,-3.106857 0.45754,-1.318038 -0.6784,-2.487396 -1.976677,-2.514537 -0.429566,-0.09245 -0.872615,-0.102987 -1.309473,-0.07026 z m -1.279956,2.351123 c 1.908361,-0.111322 2.207868,0.30142 0.39432,0.989917 -0.63342,0.170834 -2.255915,1.233015 -2.525315,0.194769 0.08608,-0.989215 1.34524,-1.173003 2.130995,-1.184641 z m -23.552213,0.171274 c -2.869642,0.399573 -5.29481,2.394359 -7.212269,4.450388 -1.625211,2.065185 1.588109,4.294002 3.484722,3.078486 1.880188,-0.800176 4.004572,-1.427761 5.515862,-2.840196 1.078079,-1.290239 1.141472,-3.586621 -0.503807,-4.45377 -0.396982,-0.192792 -0.846574,-0.257415 -1.284508,-0.234908 z m -0.06478,2.169595 c 1.14268,0.629607 -0.542125,1.833593 -1.121117,2.222911 -1.378861,0.605143 -3.010351,1.827663 -4.511629,1.349173 1.196851,-1.862291 3.485678,-2.953194 5.552181,-3.5891 z m -39.28055,3.361046 c -2.22168,-0.01314 -3.068188,2.488998 -2.581486,4.318726 0.315913,1.489595 1.929198,2.33202 3.261179,2.673403 2.082004,-0.575588 4.00343,-3.298441 2.47936,-5.311629 -0.683271,-1.034712 -1.909898,-1.724308 -3.159053,-1.6805 z m 49.226356,0.671743 c -3.347165,0.325441 -6.258705,2.930707 -7.604893,5.910735 -0.451964,1.909545 2.128183,3.529509 3.669688,2.262632 2.443238,-1.575298 5.041194,-3.38836 6.393002,-6.036687 0.634612,-1.599913 -1.186025,-2.291046 -2.457797,-2.13668 z M 34.66626,81.153897 c 1.982315,0.07642 0.835837,3.597864 -0.804524,2.469149 -1.373173,-0.581892 -0.501151,-2.563832 0.804524,-2.469149 z m 48.569347,0.858981 c -1.775952,1.683376 -3.376438,3.952223 -5.721236,4.79871 -0.299158,-1.438544 1.537596,-2.418513 2.517214,-3.28698 0.941302,-0.685358 2.193289,-1.269313 3.204022,-1.51173 z m -69.73978,4.311916 c -2.571342,0.159416 -3.344709,4.202502 -0.965654,5.260556 1.371506,1.258635 3.453335,-0.450278 3.607284,-1.977813 0.586436,-1.54379 -1.114332,-3.336891 -2.64163,-3.282743 z m 48.019001,1.697541 c -2.806799,0.76225 -4.681806,3.422065 -6.095755,5.809403 -1.335012,2.751522 -1.93965,6.151256 -0.930411,9.089452 0.714519,0.93309 1.93752,2.07612 3.172666,1.84957 1.94929,-1.00894 1.155877,-3.6482 2.733524,-4.964366 1.947754,-2.658032 5.295842,-4.420974 6.304521,-7.688869 0.109794,-2.119047 -2.322719,-3.087114 -3.938619,-3.80811 -0.413538,-0.09463 -0.818797,-0.268746 -1.245926,-0.28708 z m -47.803416,0.144044 c 1.572553,0.197843 -0.199819,2.375785 -0.721676,1.033722 -0.150194,-0.460656 0.187741,-1.097488 0.721676,-1.033722 z m 48.185816,2.346605 c 1.245708,0.0512 3.249278,1.218825 2.152557,2.633677 -2.166654,2.373613 -4.848731,4.410165 -6.246629,7.407449 -0.473879,0.41711 -0.847386,2.30248 -1.593129,1.78488 -1.264416,-2.801516 0.259237,-5.995375 1.537684,-8.528574 0.927622,-1.45739 2.204816,-3.349057 4.149517,-3.297432 z m 58.178132,5.061958 c -0.68962,-0.121203 -1.94728,0.586244 -1.00195,1.220966 1.36122,0.749733 2.68226,2.159276 4.30171,2.131006 1.12875,-0.97866 -0.6633,-2.332825 -1.52958,-2.764175 -0.56419,-0.237033 -1.14653,-0.578595 -1.77018,-0.587797 z m -15.4503,2.395392 c -3.19492,0.0176 -6.447509,2.218696 -7.429018,5.270766 0.411256,0.91401 1.629735,-0.18555 2.104913,-0.58323 1.819245,-1.38044 3.710625,-2.868196 5.976565,-3.263456 0.92111,-0.52546 0.2683,-1.56953 -0.65246,-1.42408 z m -81.907386,1.61244 c -2.210768,0.004 -3.731984,2.992636 -2.028867,4.611486 0.787419,1.26739 2.427759,1.54931 3.59479,0.61728 2.296118,-1.40055 1.228447,-5.392466 -1.565923,-5.228766 z m 0.524229,1.816696 c 1.420713,0.29402 -0.6015,2.62643 -1.138113,1.19825 -0.236599,-0.79049 0.317361,-1.39444 1.138113,-1.19825 z m 50.881911,4.1054 c -2.189446,0.0749 -2.989666,2.6928 -3.833474,4.31621 -0.767787,1.82096 -1.568293,4.77786 0.571176,5.98589 1.718927,0.27651 2.474133,-1.9146 3.221148,-3.06465 1.023755,-2.07584 2.060201,-4.88861 0.684545,-7.00825 -0.174347,-0.15502 -0.410463,-0.23894 -0.643395,-0.2292 z m 47.409686,0.53558 c -3.85614,0.42343 -6.00564,4.38166 -6.71188,7.82048 -0.29365,-0.7435 -0.7547,-1.79585 -0.57756,-2.5202 1.21297,-0.46573 0.11067,-2.0168 -0.89076,-1.48535 -0.93521,-0.0846 -1.23086,-1.47032 -2.2161,-1.7486 -2.71109,-1.84488 -6.57546,-2.07733 -9.1254,0.1805 -2.452512,1.95874 -3.658347,5.26131 -3.928715,7.9435 -0.439597,4.30417 0.84357,9.2958 4.528975,11.8959 3.19675,2.21884 7.82679,1.1952 9.98733,-1.97751 1.32069,-1.66649 2.01007,-3.71381 2.55584,-5.74085 0.75881,3.13152 3.27827,6.41291 6.7164,6.53257 4.06693,-0.4883 6.55683,-4.6207 6.66421,-8.45249 0.16644,-2.52423 0.2728,-5.16226 0.13042,-7.62418 -2.15088,-1.70804 -4.04273,-4.85782 -7.13284,-4.8237 z m 0.4448,1.79401 c 1.29902,0.0591 2.26602,1.07052 3.06373,1.98802 -2.44438,0.65119 -5.09354,0.37074 -7.48231,1.30492 0.91457,-1.59888 2.3851,-3.36884 4.41858,-3.29294 z m -48.329923,0.22238 c -0.35087,1.84958 -0.978148,3.74337 -2.119663,5.2549 -0.253221,-1.76972 1.059106,-3.98769 2.119663,-5.2549 z m 32.940873,0.33476 c 1.53008,-0.0603 3.65309,0.57504 4.24157,1.9449 -3.47565,2.16793 -7.07538,4.19512 -10.14031,6.96297 -1.194378,1.4825 -0.711404,-0.82547 -0.67469,-1.61505 0.59103,-2.55598 1.63538,-5.71722 4.17578,-6.87184 0.76313,-0.29202 1.5834,-0.41167 2.39765,-0.42098 z m 19.73501,4.02029 c 0.38127,1.00757 0.12828,0.69607 0,0 z m -9.43857,1.36053 c -0.26249,3.07083 -0.0802,6.90155 2.80727,8.76116 2.3169,1.57781 5.32514,-0.11446 6.33741,-2.43963 0.53474,-1.29806 0.74174,-1.03519 0.27687,0.11353 -0.92416,2.10321 -2.8068,5.02361 -5.50111,4.24954 -3.43172,-1.47154 -4.15254,-5.64974 -4.02883,-8.97563 -0.004,-0.39358 0.0257,-1.90318 0.10847,-1.70889 z m -12.47622,3.21578 c -0.17962,2.40293 0.20333,5.09829 2.22139,6.70767 1.06559,1.39088 2.87364,1.67407 4.46321,1.13098 -1.27511,1.34658 -3.06794,2.50324 -4.9258,2.55426 -3.06266,-1.02797 -5.63538,-3.86218 -5.93799,-7.03525 0.88881,-1.52216 2.73623,-2.50085 4.17919,-3.35766 z m 57.48367,7.07839 c 6.60826,-0.24117 12.5614,4.31697 15.64322,9.93105 2.2123,5.00467 1.7193,10.66736 1.40702,15.98882 -0.71232,8.95747 -6.17046,17.28543 -14.08722,21.53081 -3.87763,2.12405 -8.17223,3.75976 -12.59678,4.12341 -6.66146,-1.13327 -13.10868,-5.52346 -15.79755,-11.88618 -0.20924,-0.62142 -0.72449,-3.36349 0.24623,-2.69497 3.72047,3.12069 8.91621,3.7782 13.62886,3.59194 7.08359,-0.1043 14.44133,-3.0422 18.46213,-9.10493 3.85788,-5.6522 4.57515,-13.0598 2.95365,-19.5949 -1.62762,-5.25414 -6.10686,-10.02133 -11.86165,-10.28108 -2.68464,-0.2334 -5.30975,0.65407 -7.63167,1.93634 2.51352,-2.32088 6.26815,-3.45068 9.63376,-3.54031 z m -130.198716,8.60684 c -7.432655,4.46102 -11.488279,13.21608 -11.938377,21.66743 0.109796,2.29638 -0.445838,4.91561 -2.765297,5.94025 -0.124286,-5.4204 1.098368,-10.88976 3.131077,-15.90493 2.410849,-5.08225 6.625714,-9.48152 11.737128,-11.87862 0.266309,-0.11796 -0.07223,0.0966 -0.164464,0.17587 z m -8.085996,2.84701 c -2.792087,3.22142 -5.311565,6.79414 -6.506526,10.94587 -1.722287,4.93906 -1.52956,10.23374 -2.401012,15.31263 -0.458004,1.7685 -1.410109,3.94309 -2.650699,5.03362 -0.0628,-1.74742 1.723955,-2.87896 1.696968,-4.68443 0.504533,-2.52772 -0.174347,-5.04369 -0.983242,-7.41393 -0.455038,-2.11617 0.808455,-4.02361 2.475363,-5.16805 1.838402,-1.9071 2.157453,-4.63158 2.313158,-7.14025 0.886955,-2.86542 3.380346,-4.9477 5.666781,-6.73794 0.05337,-0.0154 0.469224,-0.29513 0.389209,-0.14757 z m 123.569682,0.15436 c 3.63471,0.87576 6.37186,3.9961 8.07125,7.16235 1.50336,3.86334 1.40167,8.42186 -0.28821,12.22091 -1.92243,2.94523 -4.40471,5.85971 -7.59922,7.51978 -2.69835,0.79987 -5.49812,-0.53129 -7.96004,-1.55571 -1.51657,-0.62947 0.3881,-1.37803 1.06097,-1.50803 4.00929,-1.52606 7.16089,-4.99593 8.88938,-8.86329 1.85598,-4.80289 1.35965,-10.7438 -2.33073,-14.56524 -0.20004,-0.24597 -0.3894,-0.57824 0.15656,-0.41077 z m -93.209152,5.22312 c -6.486567,8.03558 -3.154199,21.45716 5.954454,26.04078 6.958695,3.67689 15.398088,3.37161 22.67677,0.88266 1.422119,-0.52833 0.100784,1.10343 -0.221271,1.65557 -3.089577,3.75174 -6.777754,7.36355 -11.008999,9.91343 -1.609553,1.23021 -3.62138,0.83567 -5.327295,0.0154 -8.101543,-2.82969 -16.070898,-8.39633 -18.996577,-16.76788 -1.169008,-4.30625 -1.278491,-9.01297 -0.06236,-13.33976 1.448294,-3.69001 4.026376,-7.19232 7.552676,-9.07433 -0.189058,0.22467 -0.378228,0.44936 -0.567353,0.67403 z m 54.304222,-0.61958 c -0.98587,0.62227 -2.02777,1.9004 -1.88704,3.11142 0.57677,0.70002 1.68836,-0.18556 2.05498,0.96676 1.85005,3.41957 5.51318,6.19593 9.5668,5.74849 3.48665,0.0663 7.04146,-0.91934 10.08651,-2.6144 1.08797,-0.49405 2.07107,-2.02706 1.03598,-3.00244 -1.40366,0.0489 -2.06871,1.87677 -3.49038,2.14348 -4.80064,2.38149 -11.44117,2.4714 -14.79398,-2.25813 -0.91122,-1.14019 -1.32069,-2.63031 -1.94766,-3.83077 -0.25541,-0.004 -0.32285,-0.36655 -0.62521,-0.26441 z m 4.52524,12.85863 c -1.11356,0.31813 0.0822,1.53219 0.56395,1.95627 0.78658,0.40879 2.85195,0.70285 2.79709,-0.63543 -0.62341,-1.0641 -2.25894,-1.20211 -3.36104,-1.32084 z m -78.822062,2.86971 c 1.56836,0.0424 3.833847,0.044 4.957576,0.53559 -3.111687,-0.043 -6.261451,1.00959 -9.141304,1.63286 -0.04106,-0.94409 -0.118132,-2.38128 1.319683,-2.12306 0.95327,-0.0615 1.90948,-0.04 2.864045,-0.0454 z m -6.364654,0.77275 c 0.794533,0.40717 -0.57537,1.54078 -0.98983,1.90074 -1.506767,1.0354 -3.560556,2.27218 -5.390678,1.64638 0.710586,-1.66784 2.948823,-2.24443 4.475331,-3.00813 0.624315,-0.19588 1.239142,-0.52372 1.905177,-0.53899 z m -8.218756,4.91445 c 1.197004,0.44378 2.429492,1.2536 3.766129,0.92934 -1.612847,3.19745 -3.678648,6.32468 -4.114496,10.0014 -1.037368,7.72828 -0.254691,16.17731 4.425401,22.67621 6.116877,9.15914 17.028295,14.13263 27.746677,15.16928 9.753453,0.39581 19.991993,-0.61094 28.526286,-5.74088 1.715568,-1.05013 -0.563029,0.82977 -1.020109,1.15852 -3.89904,2.76482 -8.217964,5.3103 -12.9653,6.18309 -1.953857,-0.44652 -3.804643,-1.5743 -5.907333,-1.37641 -2.360126,-0.0107 -4.988295,0.77007 -6.222805,2.92757 -2.468688,0.99717 -5.739791,0.41798 -7.204333,-2.00618 -2.267485,-2.39811 -6.156227,-4.33428 -9.327378,-2.56898 -1.161564,0.37015 -0.779559,2.473 -2.361357,1.84617 -1.939407,-0.57037 -4.290049,-1.52151 -5.754152,-2.46121 2.083301,-0.12694 2.871575,-2.6555 1.85072,-4.26542 -1.569611,-2.77017 -4.615116,-5.05502 -7.890811,-5.00977 -2.312191,0.0272 -2.360609,3.26866 -1.624924,4.4708 -3.441894,-2.68715 -5.963347,-6.45189 -7.972538,-10.2658 0.862714,1.32018 2.4289,3.47047 4.21662,2.30802 1.982404,-1.68167 1.719916,-4.9768 1.327129,-7.04499 -0.346807,-2.2489 -2.052537,-5.18302 -4.726753,-4.52687 -2.036508,0.78186 -1.973004,3.43577 -2.052691,5.25145 -1.155459,-4.43265 -1.319003,-9.17258 -0.377878,-13.65859 0.541181,1.68522 2.44179,3.66332 4.265413,2.36703 2.558847,-2.07009 3.050359,-5.96336 2.179806,-8.97448 -0.446343,-1.49265 -1.667939,-2.70113 -3.255514,-2.84475 1.126541,-1.65672 2.455755,-3.35505 4.099738,-4.51958 0.119446,-0.0426 0.250302,-0.0478 0.374453,-0.0251 z m -3.717337,6.50988 c 1.248605,0.60788 1.140637,2.56086 1.04255,3.77035 -0.357456,1.45307 -0.57056,3.50112 -2.039976,4.22261 -2.260943,-2.0469 -1.185608,-6.21899 0.905509,-7.9975 z m 170.074989,8.4741 c -0.31619,0.40261 -0.99774,1.29036 -1.31288,1.3208 0.31604,-0.48404 1.10233,-1.11929 1.31288,-1.3208 z m -46.91492,1.99142 c 3.51015,3.87204 7.97021,7.80893 13.53263,7.72856 4.20526,0.45958 8.44366,0.40758 12.6449,-0.083 3.661,-0.17456 7.20586,-1.41065 10.53853,-2.70153 0.28482,1.43214 0.30548,3.35212 -1.29922,4.06063 -1.01673,0.50098 -2.03899,1.63677 -3.17951,1.50289 -1.22858,-1.9271 -3.98167,-2.13663 -6.06734,-2.13894 -3.33106,0.24432 -7.34039,1.52314 -8.72712,4.86001 -0.41044,0.6031 0.39288,1.8101 -0.73642,1.75654 -1.02672,0.0428 -2.82325,0.30926 -3.52899,-0.1043 1.95593,-2.04805 0.0971,-5.02184 -1.81851,-6.33908 -2.72882,-1.95079 -6.29644,-3.05831 -9.63874,-2.50152 -1.39776,0.32407 -2.63738,1.07756 -3.91023,1.70663 0.75506,-2.60268 1.35262,-5.24808 2.05385,-7.86588 z m 44.20522,1.30039 c -1.67591,2.01777 -3.48715,4.19346 -5.81999,5.38763 0.4468,-2.49938 3.19625,-3.69702 5.09244,-5.03218 0.22755,-0.12479 0.50206,-0.28565 0.72755,-0.35545 z M 15.236469,185.6387 c 2.224755,1.55631 1.973423,4.84385 1.732718,7.25198 -0.145363,0.71714 -0.848572,0.97318 -1.249331,0.23944 -1.699625,-1.79372 -2.089449,-4.73754 -1.267467,-7.00802 0.148217,-0.28223 0.439668,-0.55493 0.78408,-0.4834 z m 125.909481,1.20395 c 3.35807,0.15129 7.5534,0.53209 9.60425,3.63563 0.99885,1.77815 -1.59041,2.727 -2.96729,2.52363 -3.69087,-0.15152 -7.45699,-1.34362 -10.32026,-3.71622 -0.46843,-1.14527 1.22412,-1.96365 2.11512,-2.29893 0.51092,-0.13257 1.04341,-0.1436 1.56818,-0.14405 z m 24.68921,2.36588 c 1.13444,0.13068 2.63545,-0.0925 3.50741,0.74097 -1.84997,1.66845 -4.57972,1.89547 -6.89574,2.63902 -1.37712,0.15106 -3.20796,0.97554 -4.43103,0.17061 0.60525,-2.23581 3.37709,-2.81409 5.35134,-3.29181 0.81429,-0.14316 1.63946,-0.26424 2.46802,-0.25873 z m 19.39913,4.72157 c -0.84455,-0.19149 -1.80509,1.29197 -2.04817,0.0238 0.0237,1.31107 -1.27655,2.67805 -0.20991,3.93747 0.78728,1.6074 3.38754,1.44721 4.26201,0.0352 0.72003,-1.37758 0.55097,-3.90975 -1.43997,-3.98057 -0.18709,-0.0237 -0.37598,-0.0265 -0.56396,-0.0154 z m 0.19169,1.67371 c 1.14066,0.15216 -0.46755,2.35399 -0.67174,0.81246 -0.0946,-0.44779 0.12775,-0.93493 0.67174,-0.81246 z m -161.895888,5.19134 c 2.440692,0.71505 5.424956,2.46202 5.492037,5.30821 -1.749359,0.7468 -3.515914,-0.85312 -4.849783,-1.88138 -0.769984,-0.73608 -2.300993,-2.55904 -1.079111,-3.42115 0.143167,-0.0307 0.292593,-0.0261 0.436857,-0.006 z m 164.029208,7.52998 c -2.65246,0.0271 -4.43528,3.49908 -2.56331,5.53631 1.57584,2.16524 5.92853,1.79588 6.19214,-1.22097 0.49014,-2.3605 -1.14462,-4.49053 -3.62883,-4.31534 z m -148.517606,1.74406 c 2.199109,0.4124 4.574847,1.48409 6.145645,3.14885 -1.249265,0.51065 -2.847158,-0.41912 -4.189021,-0.58408 -1.033921,-0.42641 -2.582936,-0.35738 -3.247937,-1.29387 0.06039,-0.61964 0.637488,-1.30648 1.291313,-1.2709 z m 149.021406,0.043 c 1.66887,0.29626 1.64976,3.04651 -0.2428,3.00018 -1.58406,0.0957 -2.3394,-2.30885 -0.66156,-2.81976 0.27393,-0.1355 0.59866,-0.24497 0.90436,-0.18051 z m -128.392218,2.50658 c 0.668032,-0.0506 3.332478,0.39194 1.443156,0.52359 -1.672596,0.16031 -3.784661,0.88259 -5.228585,0.6361 0.836035,-1.04895 2.542027,-1.09218 3.785429,-1.15969 z m 109.796478,0.10563 c -2.58288,0.001 -4.2845,3.49549 -2.3432,5.37288 1.76026,2.22974 5.76456,0.96527 5.91302,-1.86435 -0.1315,-1.81492 -1.57895,-3.72462 -3.56982,-3.50853 z m 0.22808,1.70661 c 1.5055,0.14448 1.81545,2.64329 0.0591,2.56105 -1.88205,0.57707 -1.58749,-2.80174 -0.0591,-2.56105 z m -137.442762,5.53628 c -1.880671,-0.15678 -3.324814,2.13765 -2.058379,3.66175 0.827406,1.49973 3.170427,2.08939 4.12016,0.37446 1.18328,-1.59925 0.189938,-4.38128 -2.061781,-4.03621 z m 0.40056,1.6726 c 0.7807,0.65111 -1.259826,1.73111 -0.52537,0.38691 0.09486,-0.18971 0.284797,-0.42896 0.52537,-0.38691 z m 62.407231,6.97963 c -2.747751,0.0932 -4.045674,4.35084 -1.43314,5.64183 2.200512,1.21 5.253137,-1.03887 4.448106,-3.52218 -0.273464,-1.40764 -1.647824,-2.21736 -3.014966,-2.11965 z m -72.608345,1.34804 c -2.087538,-0.0197 -3.300858,2.66699 -1.899534,4.22456 0.782369,1.25649 2.709262,1.89111 3.793379,0.59915 1.63878,-1.1434 1.532655,-4.01005 -0.541269,-4.59676 -0.428754,-0.16864 -0.891543,-0.25369 -1.352576,-0.22695 z m 164.926776,0.40057 c -1.63055,0.0986 -2.90112,2.12602 -2.41244,3.62542 0.61348,1.08519 1.79282,2.15346 3.13866,1.78946 1.9144,-0.57179 3.287,-3.32426 1.47512,-4.77151 -0.60956,-0.49992 -1.42695,-0.68281 -2.20134,-0.64337 z m -92.60663,0.0658 c 1.311029,-0.25672 1.989737,1.74304 0.560551,2.10377 -1.22788,0.70183 -1.788077,-2.321 -0.560551,-2.10377 z m -72.06484,1.21527 c 1.52102,0.10041 0.44059,2.10069 -0.53558,1.36961 -0.13614,-0.4472 -0.305548,-1.58319 0.53558,-1.36961 z m 164.83031,0.5697 c 1.0989,-0.27398 1.24532,1.50695 0.11139,1.33897 -0.44389,0.038 -0.90976,-1.53181 -0.11139,-1.33897 z m -92.124355,21.65043 c -2.162242,-0.0489 -3.363747,3.01646 -1.527345,4.31874 1.623365,1.55396 4.568386,0.0478 4.214337,-2.17525 -0.111319,-1.31297 -1.435314,-2.19927 -2.686992,-2.14349 z m 0.232605,1.62378 c 1.579799,0.37861 -0.871414,1.78147 -0.633167,0.32001 0.123845,-0.21849 0.380647,-0.36547 0.633167,-0.32001 z m 17.84684,2.18887 c -2.26673,-0.0389 -2.62742,3.64172 -0.3824,3.984 1.4789,0.43994 3.32458,-0.71464 2.8368,-2.40559 -0.1906,-1.12692 -1.39417,-1.72053 -2.4544,-1.57841 z m -77.837212,2.30916 c -2.025463,-0.19256 -3.467125,1.79084 -3.118209,3.69237 0.01976,1.63303 1.439684,2.75105 3.00587,2.69723 1.865279,0.26834 3.56475,-1.31198 3.371234,-3.20216 0.121217,-1.93971 -1.322319,-3.32845 -3.258895,-3.18744 z m 44.737409,0.0465 c -2.314585,0.009 -3.604493,3.73078 -1.512585,4.91448 2.010025,1.12242 4.935684,-1.02225 3.900028,-3.26344 -0.410551,-0.90912 -1.359055,-1.66888 -2.387443,-1.65104 z m -44.605792,1.80762 c 1.812908,-0.0586 1.239735,2.83249 -0.406226,2.36477 -1.378158,-0.30608 -1.325128,-2.81591 0.406226,-2.36477 z m 44.465086,-0.004 c 1.262812,0.085 -0.203773,2.36985 -0.520825,0.88509 -0.07136,-0.33649 0.16227,-0.85094 0.520825,-0.88509 z m 14.50851,2.00968 c -2.132356,0.004 -3.341392,2.60304 -2.217246,4.34031 0.982188,2.56377 5.573328,2.07968 5.598711,-0.8363 0.356577,-2.00616 -1.491094,-3.54593 -3.381465,-3.50401 z m 0.365386,1.7066 c 1.740592,0.0629 1.035936,3.07353 -0.542412,2.13783 -0.713817,-0.4579 -0.538897,-2.29247 0.542412,-2.13783 z m -75.386165,6.07415 c -1.918109,0.0489 -3.085887,2.55509 -1.72591,3.9874 1.649627,2.16268 5.811572,-0.47255 4.137177,-2.80274 -0.555322,-0.72835 -1.51823,-1.13108 -2.411267,-1.18466 z m 0.06236,1.72704 c 1.263316,0.23477 -0.169298,1.82432 -0.447069,0.52878 -0.12253,-0.27779 0.142948,-0.61536 0.447069,-0.52878 z m 85.688258,0.58666 c -2.95846,0.21409 -4.41324,4.56766 -1.93583,6.39187 1.90603,1.66484 5.10529,0.45106 5.52381,-2.00959 0.44443,-2.14336 -1.29396,-4.58389 -3.58798,-4.38228 z m -20.891299,5.80749 c -2.358106,0.034 -3.747859,3.3457 -1.872283,4.89743 1.100652,1.02418 2.867448,1.13401 3.837624,-0.13723 1.695169,-1.2109 1.346847,-4.21875 -0.814734,-4.64668 -0.373399,-0.10157 -0.764604,-0.13832 -1.150607,-0.11353 z m 0.1996,1.83256 c 1.538694,-0.0924 0.651628,2.0121 -0.460682,1.47968 -1.029946,-0.49711 -0.416414,-1.45313 0.460682,-1.47968 z"
     style="opacity:1;fill:#1a1a1a;stroke-width:0.58097577"
     sodipodi:nodetypes="ccccccccccccccccccccccccccccccccccccccccccccccccccccccccccccccccccccccccccccccccccccccccccccccccccccccccccccccccccccccccccccccccccccccccccccccccccccccccccccccccccccccccccccccccccccccccccccccccccccccccccccccccccccccccccccccccccccccccccccccccccccccccccccccccccccccccccccccccccccccccccccccccccccccccccccccccccccccccccccccccccccccccccccccccccccccccccccccccccccccccccccccccccccccccccccccccccccccccccccccccccccccccccccccccccccccccccccccccccccccccccccccccccccccccccccccccccccccccccccccccccccccccccccccccccccccccccccccccccccccccccccccccccccccccccccacccccccccccccccccccccccacccccccccccccccccccccccccccccccccccccccccccccccccccccccccccc" />
  <text
     xml:space="preserve"
     style="font-style:normal;font-weight:normal;font-size:10.58333302px;line-height:1.25;font-family:sans-serif;letter-spacing:0px;word-spacing:0px;fill:none;fill-opacity:1;stroke:#000000;stroke-width:2.64583325;stroke-miterlimit:4;stroke-dasharray:none;stroke-opacity:1"
     x="2.9711001"
     y="60.841381"
     id="text821"><tspan
       sodipodi:role="line"
       id="tspan819"
       x="2.9711001"
       y="60.841381"
       style="font-style:normal;font-variant:normal;font-weight:normal;font-stretch:normal;font-size:77.6111145px;font-family:'Berlin Sans FB Demi';-inkscape-font-specification:'Berlin Sans FB Demi';fill:none;stroke:#000000;stroke-width:2.64583325;stroke-miterlimit:4;stroke-dasharray:none;stroke-opacity:1">Oo</tspan></text>
  <text
     xml:space="preserve"
     style="font-style:normal;font-weight:normal;font-size:10.58333302px;line-height:1.25;font-family:sans-serif;text-align:center;letter-spacing:0px;word-spacing:0px;text-anchor:middle;fill:#000000;fill-opacity:1;stroke:none;stroke-width:0.26458332"
     x="105.53036"
     y="36.179981"
     id="text825"><tspan
       sodipodi:role="line"
       id="tspan823"
       x="105.53036"
       y="36.179981"
       style="font-style:normal;font-variant:normal;font-weight:normal;font-stretch:normal;font-size:19.7555542px;font-family:Forte;-inkscape-font-specification:Forte;text-align:start;text-anchor:start;stroke-width:0.26458332">is for</tspan><tspan
       sodipodi:role="line"
       x="105.53036"
       y="61.209156"
       style="font-style:normal;font-variant:normal;font-weight:normal;font-stretch:normal;font-size:19.7555542px;font-family:'Nirmala UI';-inkscape-font-specification:'Nirmala UI';text-align:start;text-anchor:start;stroke-width:0.26458332"
       id="tspan827">Octopus</tspan></text>
</svg>
