<?xml version="1.0" encoding="UTF-8" standalone="no"?>
<!-- Created with Inkscape (http://www.inkscape.org/) -->

<svg
   xmlns:dc="http://purl.org/dc/elements/1.1/"
   xmlns:cc="http://creativecommons.org/ns#"
   xmlns:rdf="http://www.w3.org/1999/02/22-rdf-syntax-ns#"
   xmlns:svg="http://www.w3.org/2000/svg"
   xmlns="http://www.w3.org/2000/svg"
   xmlns:sodipodi="http://sodipodi.sourceforge.net/DTD/sodipodi-0.dtd"
   xmlns:inkscape="http://www.inkscape.org/namespaces/inkscape"
   width="210mm"
   height="297mm"
   viewBox="0 0 210 297"
   version="1.1"
   id="svg863"
   inkscape:version="0.92.4 (5da689c313, 2019-01-14)"
   sodipodi:docname="peace_dove_by_picasso.svg">
  <title
     id="title1472">Peace Dove by Picasso</title>
  <defs
     id="defs857" />
  <sodipodi:namedview
     id="base"
     pagecolor="#ffffff"
     bordercolor="#666666"
     borderopacity="1.0"
     inkscape:pageopacity="0.0"
     inkscape:pageshadow="2"
     inkscape:zoom="1.4"
     inkscape:cx="369.51875"
     inkscape:cy="561.98618"
     inkscape:document-units="mm"
     inkscape:current-layer="layer1"
     showgrid="false"
     inkscape:window-width="3840"
     inkscape:window-height="2004"
     inkscape:window-x="-16"
     inkscape:window-y="-16"
     inkscape:window-maximized="1" />
  <metadata
     id="metadata860">
    <rdf:RDF>
      <cc:Work
         rdf:about="">
        <dc:format>image/svg+xml</dc:format>
        <dc:type
           rdf:resource="http://purl.org/dc/dcmitype/StillImage" />
        <dc:title>Peace Dove by Picasso</dc:title>
        <dc:date>2020-04-26</dc:date>
        <dc:creator>
          <cc:Agent>
            <dc:title>Pablo Picasso</dc:title>
          </cc:Agent>
        </dc:creator>
        <dc:source>http://www.supercoloring.com/coloring-pages/peace-dove-by-picasso</dc:source>
        <cc:license
           rdf:resource="http://creativecommons.org/licenses/by-nc-sa/4.0/" />
        <dc:subject>
          <rdf:Bag>
            <rdf:li>acb</rdf:li>
            <rdf:li>artworks</rdf:li>
            <rdf:li>picasso</rdf:li>
          </rdf:Bag>
        </dc:subject>
      </cc:Work>
      <cc:License
         rdf:about="http://creativecommons.org/licenses/by-nc-sa/4.0/">
        <cc:permits
           rdf:resource="http://creativecommons.org/ns#Reproduction" />
        <cc:permits
           rdf:resource="http://creativecommons.org/ns#Distribution" />
        <cc:requires
           rdf:resource="http://creativecommons.org/ns#Notice" />
        <cc:requires
           rdf:resource="http://creativecommons.org/ns#Attribution" />
        <cc:prohibits
           rdf:resource="http://creativecommons.org/ns#CommercialUse" />
        <cc:permits
           rdf:resource="http://creativecommons.org/ns#DerivativeWorks" />
        <cc:requires
           rdf:resource="http://creativecommons.org/ns#ShareAlike" />
      </cc:License>
    </rdf:RDF>
  </metadata>
  <g
     inkscape:label="Layer 1"
     inkscape:groupmode="layer"
     id="layer1">
    <path
       inkscape:connector-curvature="0"
       id="path1463"
       d="m 82.873325,72.542478 c -1.36516,0.05914 -2.95556,0.283077 -3.88555,1.390613 -0.61419,1.307007 -0.15669,2.842281 0.27544,4.139281 1.72993,4.27912 4.89142,7.765407 7.94096,11.15132 2.724,2.988047 5.74948,5.693877 8.47769,8.671667 0.10944,0.3853 -1.27082,-0.0705 -1.72074,-0.002 -4.72497,-0.37072 -9.4468,-1.032 -14.19377,-0.95662 -1.41638,-0.0105 -3.07783,0.51053 -3.58457,1.97754 -0.34546,0.9622 -0.66564,1.983531 -0.39636,3.010151 0.22498,2.36983 2.25682,3.95976 3.84747,5.49959 1.86164,1.77688 3.99033,3.26956 5.76538,5.13129 0.21336,0.27769 0.84511,0.97228 0.0934,0.93226 -2.77582,0.63453 -5.76874,1.07232 -8.11354,2.81118 -1.32306,1.12608 -2.04278,3.12248 -1.26814,4.76508 0.5662,1.54971 1.51859,2.99651 2.98483,3.82354 2.4259,1.50371 5.0302,2.68993 7.54476,4.03438 -1.09715,0.71627 -2.70737,1.01011 -3.32486,2.2903 -0.60066,1.64064 0.47746,3.26336 1.6484,4.33159 2.57723,2.55653 6.11004,4.22101 8.03868,7.36494 0.0671,0.18348 0.48498,0.7909 0.0122,0.51868 -4.79315,-1.41054 -9.59914,-2.74575 -14.31336,-4.4141 -2.90043,-1.13305 -6.00495,-2.25359 -8.13137,-4.61267 -1.24922,-1.9706 -2.30345,-4.07297 -3.6372,-5.9976 -2.67933,-3.86987 -5.7502,-7.48024 -9.21251,-10.67529 -4.17436,-3.88509 -8.35448,-7.79693 -12.93144,-11.20781 -3.54111,-2.34686 -7.37521,-4.30189 -11.41644,-5.62579 -0.91135,-0.31441 -2.07805,-0.52947 -2.79015,0.30748 -0.96506,0.98666 -0.80037,2.52512 -0.88057,3.79512 -0.14934,1.4103 0.20526,2.80219 0.69143,4.11292 1.69492,3.02721 3.9429,5.71725 6.23771,8.30603 0.66191,0.70699 1.3541,1.38486 2.03001,2.07835 -4.71779,0.0852 -9.46088,-0.21946 -14.15986,0.30541 -2.3292,0.39068 -4.81897,1.17443 -6.39961,3.03134 -0.955271,1.16193 -0.986031,2.9027 -0.10129,4.11086 2.43233,3.31442 6.52811,4.67099 10.17505,6.17152 1.26748,0.31827 0.2629,0.49819 -0.50449,0.65326 -3.37064,0.88892 -6.84959,1.50193 -10.07312,2.86145 -0.930071,0.73499 -0.719261,2.14213 -0.633211,3.18464 0.2843,2.20292 1.281661,4.39924 3.162261,5.68097 3.6411,2.63947 8.01005,4.16398 12.41111,4.94177 2.18381,0.37633 4.42179,0.1618 6.59044,0.67378 3.01853,0.57828 5.87297,1.82944 8.7842,2.8098 4.39647,1.60979 8.81778,3.22457 12.89032,5.56501 0.56489,0.29354 1.13139,0.5839 1.70945,0.85059 -4.78641,0.61505 -9.533,1.86017 -13.89471,3.94839 -1.38925,0.74061 -3.07267,1.56292 -3.42485,3.26261 -0.70893,1.99097 0.46813,3.96209 1.25026,5.73188 1.02896,2.35317 2.5683,4.57674 4.75061,5.98775 0.54289,0.16343 0.52335,0.37195 -0.0992,0.38189 -3.84983,0.62353 -7.79358,0.3369 -11.66449,0.89545 -4.43837,0.56577 -8.92662,1.16002 -13.17637,2.6108 -0.89219,0.24812 -1.82604,1.1832 -1.39836,2.16111 0.50709,1.97877 2.48357,3.07119 4.13581,4.00342 4.29398,2.26265 9.10702,3.16358 13.69617,4.60225 0.15722,0.17908 -0.70675,0.27639 -0.91105,0.39222 -5.80202,1.51044 -11.66713,3.01449 -17.06678,5.67245 -2.30729,1.10996 -4.8003,1.7992 -7.07283,2.98232 -1.374741,0.67695 -2.448991,2.12981 -2.180141,3.7181 0.13168,1.92831 1.1903,3.73705 2.851931,4.73772 3.34591,2.08589 7.15416,3.25966 10.82591,4.62776 3.76632,1.24557 7.5928,2.53428 11.59591,2.65558 7.0287,0.38759 14.09524,0.37523 21.11108,-0.23233 10.55668,-1.34298 20.87949,-4.14338 30.96011,-7.49944 9.104285,-3.07626 18.014865,-6.73147 26.671125,-10.90078 4.22525,-2.21925 8.40806,-4.81961 11.50459,-8.51355 2.23709,-2.6432 3.34413,-6.08894 3.39492,-9.52631 0.0565,-0.87999 0.11304,-1.75999 0.16957,-2.63998 3.08132,-0.82693 6.22359,-1.44553 9.18119,-2.67886 2.4654,-0.98969 5.08549,-1.90548 7.75536,-1.70164 1.13464,0.45933 2.27695,0.91297 3.46323,1.22307 -1.13874,0.60078 -2.39388,1.07219 -3.38222,1.90892 -0.0885,0.34789 -0.22091,0.9694 0.19844,1.17099 1.23675,0.0504 2.40964,-0.57722 3.60008,-0.85024 2.82471,-0.91954 5.77976,-1.76511 8.75327,-1.15999 1.2324,0.0753 2.43654,0.68078 3.66686,0.54572 0.42677,-0.40524 -0.27158,-1.01141 -0.35931,-1.41774 -0.0877,-0.26481 -0.52908,-0.88271 0.0865,-0.79695 4.40827,-0.73777 8.89764,-1.02776 13.27822,-1.93958 0.5525,-0.31068 -0.0832,-0.88721 -0.47719,-0.97417 -2.07568,-0.87097 -4.62049,-0.52817 -6.38441,-2.12693 -0.4329,-0.43094 -1.14346,-0.32531 -1.42575,0.22014 -1.01071,1.07481 -2.37174,2.06108 -3.90777,2.09393 0.9028,-1.61566 2.56226,-2.77755 3.20549,-4.55063 0.13108,-0.51036 -0.69257,-0.53929 -0.52349,-1.09915 0.0861,-0.72332 0.41431,-1.6666 -0.33796,-2.17196 -0.51233,-0.39859 -1.44827,-0.8653 -1.87637,-0.10181 -0.64333,0.861 -0.71041,1.99228 -0.53382,3.00964 -0.26031,1.17107 -1.34069,1.95265 -2.2748,2.59571 -0.80827,0.21303 -0.86088,-0.98618 -1.31024,-1.39931 -0.29872,-0.39203 -0.7748,-1.31969 -1.37486,-0.84965 -0.46579,0.63243 -1.30403,1.31239 -1.10433,2.18384 0.3615,0.75886 1.6543,1.0853 1.40663,2.10169 -0.72073,1.22454 -2.32187,1.46387 -3.56877,1.8588 -1.14583,0.34751 -2.33695,-0.60522 -2.36368,-1.77767 -0.43086,-2.01202 0.29858,-4.25514 -0.78186,-6.14691 -1.29354,-2.2463 -3.54456,-3.90156 -6.05028,-4.52014 -4.38863,-1.62351 -8.57725,-3.7749 -12.53825,-6.26732 1.51657,-0.39581 3.18811,-0.8243 4.31084,-1.98438 1.68114,-2.93213 1.48855,-6.48868 1.18429,-9.73682 -0.44975,-3.37715 -0.95571,-6.76921 -2.0509,-10.00874 -2.95703,-10.44327 -6.96085,-20.63656 -12.34335,-30.07689 -3.45213,-6.080941 -7.88095,-11.666341 -13.36361,-16.040193 -3.53025,-2.799947 -7.36437,-5.19123 -11.34704,-7.288268 -2.71924,-1.46192 -5.012605,-3.611136 -7.892535,-4.788066 -4.34214,-1.874126 -9.0074,-3.198241 -13.75789,-3.317039 -0.14263,0.0024 -0.28525,0.0048 -0.42788,0.0072 z m 0.1354,2.462897 c 3.61944,0.210252 7.20196,1.205344 10.58798,2.458765 9.118395,4.29395 18.486635,8.795121 25.504735,16.224359 3.13307,3.25061 5.57811,7.068391 7.58991,11.098611 3.67103,6.21057 6.88454,12.69465 9.69064,19.34089 3.25994,7.77551 5.47736,16.08979 5.37541,24.56898 -0.0869,1.4854 0.22111,3.16339 -0.64216,4.47313 -0.84973,0.64116 -2.02789,0.75352 -3.00113,1.18933 -0.54284,0.069 -1.03727,0.74871 -1.50361,0.19859 -0.7143,-0.36215 -1.37327,-0.97049 -2.15635,-1.13935 -0.68643,0.34715 -1.43586,0.90425 -1.66398,1.66605 0.2173,0.94763 1.28906,1.37964 1.98769,1.94271 4.51997,2.90135 9.34016,5.34004 14.37175,7.22345 1.86258,0.84041 4.17577,1.47666 5.11606,3.4971 1.13838,2.21966 1.39799,4.77737 1.62387,7.21356 -1.6618,-1.61732 -3.85445,-2.86284 -6.24095,-2.73755 -2.36089,-0.0597 -4.59306,0.84436 -6.62272,1.96727 -2.76955,1.224 -5.85519,2.28323 -8.91537,1.81621 -1.48625,-0.18447 -2.17858,-1.65851 -3.15845,-2.59335 -1.55876,-1.86426 -3.4744,-3.39608 -5.35265,-4.92299 -0.66652,-0.40106 -1.41568,-1.02834 -2.23243,-0.89503 -0.46403,0.42696 0.22254,1.06542 0.46332,1.44187 1.70547,2.03282 4.01067,3.51141 5.45932,5.74683 1.75052,2.51386 3.20736,5.73433 2.27361,8.83439 -1.27447,3.90268 -3.96068,7.18364 -6.87953,9.99496 -4.05491,3.39301 -8.96573,5.66632 -13.80029,7.77572 -5.09059,2.20623 -10.45586,3.66184 -15.602205,5.72735 -5.57349,2.25681 -11.29449,4.12009 -17.1358,5.54597 -5.882,1.44142 -11.82025,2.72233 -17.80402,3.6059 -6.33953,0.61588 -12.75159,0.64348 -19.09716,0.10238 -4.21913,-0.47345 -8.3093,-1.8139 -12.39033,-2.99729 -3.49527,-1.06717 -7.14656,-2.21741 -9.82317,-4.80022 -0.55448,-0.60982 -1.44828,-1.30425 -1.30121,-2.21899 1.18014,-1.27662 2.94627,-1.81173 4.47668,-2.55981 7.14122,-2.97206 14.58917,-5.19705 22.13513,-6.87166 1.81001,-0.57468 3.74696,-1.11187 5.22604,-2.35386 0.56074,-0.60908 -0.33985,-1.28459 -0.84849,-1.53924 -3.69238,-1.81045 -7.8274,-2.4028 -11.73249,-3.59154 -2.79756,-0.8822 -5.69681,-1.64776 -8.19243,-3.23098 -0.26921,-0.14965 -0.47881,-0.52541 -0.0222,-0.58808 3.2321,-1.00702 6.63941,-1.25734 9.97982,-1.67799 6.14417,-0.73016 12.39485,-0.61232 18.47115,-1.86339 0.4671,-0.18608 1.4223,-0.23351 1.42731,-0.89194 -1.32903,-1.48074 -3.18534,-2.38702 -4.75851,-3.58408 -1.70479,-1.31519 -3.59172,-2.66045 -4.52103,-4.66813 -0.24247,-1.54027 0.14004,-3.17681 0.74311,-4.61057 0.64508,-1.59771 2.25316,-2.36837 3.7984,-2.8478 4.39345,-1.59493 9.06581,-2.38808 13.74205,-2.15227 1.7073,-0.0253 3.46817,0.15052 5.14137,-0.22183 0.61257,-0.41718 0.37794,-1.30255 -0.23771,-1.58233 -1.23177,-0.78517 -2.78278,-0.88773 -4.12895,-1.21027 -1.76352,-1.48754 -3.91246,-2.44715 -5.86184,-3.66381 -1.39194,-0.7827 -2.65051,-1.79438 -4.20847,-2.2457 -6.22795,-2.24477 -12.55767,-4.23898 -18.9868,-5.82383 -2.5665,-0.54768 -5.20571,-0.6494 -7.74135,-1.35785 -3.79694,-0.98848 -7.71138,-2.24084 -10.77026,-4.79995 -0.94625,-0.75061 -1.78903,-2.16501 -0.92858,-3.29051 0.74735,-0.86235 2.03878,-0.88959 3.04776,-1.28615 3.76141,-1.11197 7.74262,-1.58581 11.32811,-3.23915 0.41021,-0.3211 1.21439,-0.92025 0.67644,-1.48725 -0.8661,-1.133 -2.37752,-1.39679 -3.6108,-1.96231 -3.2575,-1.23176 -6.97499,-1.83889 -9.53878,-4.37942 -0.46074,-0.6185 -1.1725,-1.25034 -1.17926,-2.05724 1.44718,-1.79916 3.92937,-2.11019 6.10644,-2.19567 4.91584,-0.18395 9.86491,-0.095 14.74669,-0.77161 0.73835,-0.0907 1.9178,-0.49757 1.62457,-1.46346 -0.68122,-1.68843 -2.1895,-2.86872 -3.37059,-4.20105 -2.30375,-2.45142 -4.91821,-4.68125 -6.67738,-7.57911 -0.74084,-1.50171 -0.8152,-3.31004 -0.43305,-4.91184 0.4012,-0.83737 1.5159,-0.18113 2.12432,0.0331 4.36192,1.91905 8.34772,4.62659 11.88831,7.82076 6.00549,5.32364 12.28857,10.49003 17.13826,16.93536 2.01828,2.63985 3.60876,5.56749 5.33423,8.39379 1.98557,2.30731 4.93564,3.44117 7.66413,4.60696 4.18763,1.61678 8.47963,2.96336 12.79119,4.20464 1.52879,0.38113 3.13298,0.51565 4.68939,0.46226 0.53987,0.13972 1.07844,-0.26448 1.46813,-0.59377 0.25024,-0.87731 0.63158,-1.77367 0.7276,-2.71508 0.18019,-0.86742 -0.79449,-1.54425 -1.35547,-2.12855 -2.89746,-2.74976 -6.496,-4.7102 -9.14363,-7.72356 -0.0819,-0.2064 -0.57764,-1.01277 0.0114,-0.68368 0.66687,0.25994 1.14629,-0.39234 1.37253,-0.92191 0.734,-0.58029 1.67059,0.16217 2.50527,-0.15606 0.9447,-0.19781 2.17299,-1.04657 1.80093,-2.14147 -0.54442,-0.47053 -0.93573,-1.12959 -1.66854,-1.37078 -2.41298,-1.05458 -4.70812,-2.38433 -7.03077,-3.61659 -1.66502,-1.03925 -3.6153,-1.94818 -4.61719,-3.72166 -0.45773,-0.91497 0.35768,-1.81151 1.18821,-2.11336 1.3439,-0.72711 2.85504,-1.07179 4.36132,-1.19651 0.51449,-0.061 0.40108,-0.73789 0.89659,-0.78342 1.17267,-0.30652 2.54289,0.0718 3.55172,-0.76067 0.89694,-0.44458 1.78513,-1.42234 1.41748,-2.48047 -0.34175,-1.04978 -1.56821,-1.37392 -2.2436,-2.16181 -2.58002,-2.16466 -5.42233,-4.08869 -7.58166,-6.7021 -0.78917,-1.15617 -1.77331,-2.47774 -1.71925,-3.95754 0.56651,-0.338661 1.43049,-0.183911 2.10426,-0.282671 2.10096,-0.1537 4.19996,0.0356 6.26422,0.418581 3.973,0.29588 7.95053,-0.12271 11.91813,-0.309541 0.17784,-1.06614 0.39124,-2.27966 -0.34881,-3.20187 -2.07932,-2.83567 -4.73593,-5.18694 -7.09625,-7.781203 -2.78014,-3.038192 -5.83614,-5.878799 -8.08694,-9.352217 -0.63342,-1.206791 -1.61381,-2.469285 -1.43854,-3.910777 0.18401,-0.630714 0.9195,-0.711756 1.4702,-0.696082 z m 68.785455,92.115305 c -1.00217,0.2128 -1.96852,0.82676 -2.59364,1.64021 -0.59599,0.82663 0.33814,1.88921 1.2485,1.7415 1.27901,-0.0887 2.45327,-0.90716 3.22048,-1.88981 0.1105,-0.66424 -0.77806,-0.94027 -1.18908,-1.29759 -0.20731,-0.12091 -0.44336,-0.20617 -0.68626,-0.19431 z m -18.39061,40.06939 c -0.72967,0.0489 -0.81363,0.96804 -0.37517,1.418 0.38494,0.37138 0.71278,1.03097 0.12609,1.39475 -2.71419,2.03367 -5.32123,4.28549 -7.42343,6.96037 -0.38997,0.57022 -0.5875,1.51897 -0.12598,2.08197 0.36326,0.0128 0.72896,-0.0708 1.079,-0.17311 2.85123,-2.24341 5.69377,-4.53793 8.58648,-6.7434 0.77235,-0.69894 1.98134,-1.53373 1.73796,-2.72838 -0.47431,-1.10853 -1.70652,-1.68489 -2.77023,-2.09591 -0.27008,-0.0815 -0.55437,-0.10763 -0.83472,-0.11429 z m 46.02303,4.62453 c -0.90152,0.40496 -1.65229,1.1669 -2.14457,2.02261 0.008,0.60525 0.60134,1.07951 1.03301,1.44487 1.17345,0.70479 2.5484,-0.24044 3.26543,-1.18287 0.97495,-0.44125 0.16695,-0.68554 -0.31367,-1.12293 -0.417,-0.54929 -1.00762,-0.99796 -1.66088,-1.15393 l -0.0858,-0.0873 z m -23.31951,0.53795 c -0.36929,-0.0529 -0.74752,0.20816 -0.55758,0.61908 0.14493,0.41696 0.4365,1.27547 -0.28474,1.26401 -1.88463,0.076 -3.90694,0.21734 -5.66477,-0.5886 -0.63832,-0.4704 -1.6772,-1.18719 -2.39675,-0.50229 -0.58099,1.04395 0.33566,2.09725 1.22761,2.5614 2.06117,1.20211 4.56667,0.74402 6.83569,0.76346 2.50281,-0.0456 5.06215,-0.35474 7.52644,0.0155 0.15826,0.31657 0.53054,0.51782 0.91777,0.51366 0.8687,0.33712 1.63502,-0.60158 1.70636,-1.40146 0.15345,-0.67999 -0.14811,-1.34846 -0.0543,-2.03192 -0.21261,-0.57353 -1.09676,-0.27914 -1.84082,-0.21076 -1.91477,0.29544 -3.94252,0.26861 -5.75045,-0.39385 -0.5149,-0.27306 -1.06331,-0.60946 -1.6645,-0.60823 z m -29.20131,8.23154 c -0.69875,0.11952 -1.55001,-0.16872 -2.18385,0.17053 -0.19476,0.35803 0.30162,0.70673 0.59583,0.82889 2.42281,0.74993 4.94788,1.06014 7.47655,1.1591 17.69018,0.98961 35.40899,1.30894 53.12233,1.56538 1.67116,0.025 3.34485,0.06 5.00487,0.157 1.19392,-0.17975 2.62492,-0.13587 3.53311,-1.05369 0.38613,-0.5752 -0.14458,-1.36056 -0.81483,-1.34888 -4.02646,-0.84979 -8.16775,-0.66067 -12.25354,-0.92011 -18.15297,-0.59765 -36.32035,-0.53273 -54.48047,-0.55822 z"
       style="opacity:1;fill:#000000;stroke-width:0.4951123" />
  </g>
</svg>
