<?xml version="1.0" encoding="UTF-8" standalone="no"?>
<!-- Created with Inkscape (http://www.inkscape.org/) -->

<svg
   xmlns:dc="http://purl.org/dc/elements/1.1/"
   xmlns:cc="http://creativecommons.org/ns#"
   xmlns:rdf="http://www.w3.org/1999/02/22-rdf-syntax-ns#"
   xmlns:svg="http://www.w3.org/2000/svg"
   xmlns="http://www.w3.org/2000/svg"
   xmlns:sodipodi="http://sodipodi.sourceforge.net/DTD/sodipodi-0.dtd"
   xmlns:inkscape="http://www.inkscape.org/namespaces/inkscape"
   width="793.70081"
   height="1122.5197"
   viewBox="0 0 210 297"
   version="1.1"
   id="svg884"
   inkscape:version="0.92.4 (5da689c313, 2019-01-14)"
   sodipodi:docname="tessellation_with_triangle_and_square.svg">
  <title
     id="title1483">Tessellation with Triangle and Square</title>
  <defs
     id="defs878" />
  <sodipodi:namedview
     id="base"
     pagecolor="#ffffff"
     bordercolor="#666666"
     borderopacity="1.0"
     inkscape:pageopacity="0.0"
     inkscape:pageshadow="2"
     inkscape:zoom="1.4"
     inkscape:cx="380.94515"
     inkscape:cy="584.61501"
     inkscape:document-units="mm"
     inkscape:current-layer="layer1"
     showgrid="false"
     units="px"
     inkscape:window-width="3840"
     inkscape:window-height="2004"
     inkscape:window-x="-16"
     inkscape:window-y="-16"
     inkscape:window-maximized="1" />
  <metadata
     id="metadata881">
    <rdf:RDF>
      <cc:Work
         rdf:about="">
        <dc:format>image/svg+xml</dc:format>
        <dc:type
           rdf:resource="http://purl.org/dc/dcmitype/StillImage" />
        <dc:title>Tessellation with Triangle and Square</dc:title>
        <dc:source>http://www.supercoloring.com/coloring-pages/tessellation-with-triangle-and-square</dc:source>
        <dc:date>2020-04-27</dc:date>
        <dc:creator>
          <cc:Agent>
            <dc:title>Nonenmac</dc:title>
          </cc:Agent>
        </dc:creator>
        <dc:subject>
          <rdf:Bag>
            <rdf:li>acb</rdf:li>
            <rdf:li>artworks</rdf:li>
            <rdf:li>mosaic</rdf:li>
            <rdf:li>sizing-cover</rdf:li>
          </rdf:Bag>
        </dc:subject>
      </cc:Work>
    </rdf:RDF>
  </metadata>
  <g
     inkscape:label="Layer 1"
     inkscape:groupmode="layer"
     id="layer1"
     transform="translate(0,1.8097168e-5)">
    <path
       style="fill:#2c2c2c;stroke-width:1.97540879"
       d="M 265.22266 -1.8554688 C 265.04874 -1.8607655 264.90052 -1.7762469 264.77734 -1.6035156 C 264.6787 -1.4651942 264.7835 -0.84651627 264.98828 0 L 200.08398 0 C 200.29036 -1.074063 200.27915 -1.6742913 200.00977 -1.6699219 C 199.74333 -1.6655725 199.24805 -1.0638709 198.58398 0 L 159.98438 0 C 159.37374 -1.0856436 158.93572 -1.7011719 158.73438 -1.7011719 C 157.83245 -1.7011719 157.33145 -1.4940991 157.56445 0 L 93.683594 0 C 93.916596 -1.4940991 93.415595 -1.7011719 92.513672 -1.7011719 C 92.312323 -1.7011719 91.874303 -1.0856436 91.263672 0 L 52.550781 0 C 51.8542 -1.091667 51.324348 -1.7010841 51.025391 -1.7011719 C 50.208 -1.7013932 49.867723 -1.2023961 50.029297 0 L 0 0 L 0 48.871094 C -1.6387577 49.167014 -2.5019531 49.506755 -2.5019531 49.890625 C -2.5019531 50.267654 -1.6452318 50.602594 0 50.894531 L 0 198.97656 C -1.6452318 199.26849 -2.5019531 199.6035 -2.5019531 199.98047 C -2.5019531 200.36433 -1.6387577 200.70408 0 201 L 0 283.00586 C -1.2628236 280.75553 -2.0846143 279.76395 -2.2011719 280.58203 C -2.3504334 281.62949 -1.4880262 284.96296 0 289.4375 L 0 329.52539 C -3.0676426 330.30509 -2.9907539 331.74193 0 332.83594 L 0 479.85547 C -1.5406884 480.26748 -2.5019531 480.80243 -2.5019531 481.39844 C -2.5019531 482.05078 -1.5385985 482.64219 0 483.06836 L 0 523.52734 C -1.4756861 528.00567 -2.3254824 531.36669 -2.1738281 532.47656 C -2.044602 533.42228 -1.251302 532.54373 0 530.30469 L 0 611.70703 C -1.6387577 612.00295 -2.5019531 612.34269 -2.5019531 612.72656 C -2.5019531 613.10358 -1.6452317 613.43854 0 613.73047 L 0 761.8125 C -1.6452317 762.10444 -2.5019531 762.43942 -2.5019531 762.81641 C -2.5019531 763.20026 -1.6387577 763.54002 0 763.83594 L 0 845.76172 C -1.2540794 843.49503 -2.0668339 842.47524 -2.1777344 843.25195 C -2.3196709 844.24617 -1.4699337 847.57043 0 852.0918 L 0 892.36133 C -3.0677108 893.14105 -2.9909498 894.57786 0 895.67188 L 0 1042.707 C -2.9909498 1043.8011 -3.0677108 1045.2379 0 1046.0176 L 0 1086.3633 C -1.4756861 1090.8416 -2.3254824 1094.2026 -2.1738281 1095.3125 C -2.0440427 1096.2623 -1.2499965 1095.3869 0 1093.1523 L 0 1122.5195 L 48.824219 1122.5195 C 49.423893 1123.2451 49.868241 1123.2346 50.189453 1122.5195 L 92.349609 1122.5195 C 92.349581 1122.5208 92.345703 1122.5301 92.345703 1122.5312 C 92.345703 1124.7986 93.0259 1124.8784 94.519531 1122.5195 L 156.67773 1122.5195 C 158.19308 1124.9396 158.9043 1124.9514 158.9043 1122.7324 C 158.9043 1122.7135 158.84958 1122.5622 158.83984 1122.5195 L 200.64062 1122.5195 C 200.77102 1123.3944 201.13183 1123.4695 201.82812 1122.5195 L 263.50781 1122.5195 C 264.70245 1124.3494 265.25378 1124.2064 265.36523 1122.5195 L 307.02734 1122.5195 C 307.13872 1124.2197 307.69093 1124.3641 308.88867 1122.5195 L 370.56445 1122.5195 C 371.26061 1123.4693 371.62126 1123.3939 371.75195 1122.5195 L 413.49414 1122.5195 C 413.49411 1122.5208 413.49023 1122.5301 413.49023 1122.5312 C 413.49023 1124.7986 414.17048 1124.8783 415.66406 1122.5195 L 477.83203 1122.5195 C 479.35164 1124.9178 480.04883 1124.8438 480.04883 1122.5312 C 480.04883 1122.5301 480.04495 1122.5208 480.04492 1122.5195 L 521.67773 1122.5195 C 521.64063 1123.6999 522.12833 1123.8261 523.13281 1122.9512 C 523.19363 1122.8982 523.29871 1122.7356 523.42383 1122.5195 L 584.65039 1122.5195 C 585.83819 1124.3414 586.39112 1124.1985 586.50977 1122.5195 L 628.17383 1122.5195 C 628.28528 1124.2063 628.83471 1124.3493 630.0293 1122.5195 L 691.60352 1122.5195 C 692.65792 1124.1903 693.26455 1124.4294 693.69531 1123.8223 C 693.76744 1123.7206 693.67446 1123.2259 693.49219 1122.5195 L 734.69922 1122.5195 C 734.68948 1122.5622 734.63477 1122.7135 734.63477 1122.7324 C 734.63477 1124.9514 735.34407 1124.9395 736.85938 1122.5195 L 793.70117 1122.5195 L 793.70117 1109.916 C 794.95463 1112.1513 795.68382 1112.9296 795.80859 1112.0547 C 795.92389 1111.2464 795.1163 1108.3282 793.70117 1104.1406 L 793.70117 1045.6758 C 795.26461 1045.2847 796.20117 1044.794 796.20117 1044.2344 C 796.20117 1043.685 795.27475 1043.2037 793.70117 1042.8184 L 793.70117 895.52539 C 796.58324 894.74548 796.59508 893.63643 793.70117 892.72461 L 793.70117 834.48438 C 795.13437 830.21507 795.95511 827.23348 795.8418 826.4043 C 795.74637 825.70619 794.94245 826.79949 793.70117 829.07227 L 793.70117 763.79297 C 795.34342 763.50779 796.20117 763.1818 796.20117 762.81641 C 796.20117 762.45416 795.34102 762.13103 793.70117 761.84766 L 793.70117 613.69531 C 795.34102 613.41192 796.20117 613.08891 796.20117 612.72656 C 796.20117 612.3612 795.34342 612.03517 793.70117 611.75 L 793.70117 548.3125 C 795.56312 551.90565 796.1135 551.66858 796.14844 549.19531 C 796.16012 548.37083 795.2303 545.34133 793.70117 541.00977 L 793.70117 482.81445 C 796.59387 481.90282 796.58248 480.79482 793.70117 480.01562 L 793.70117 332.69141 C 796.58267 331.91141 796.59456 330.80239 793.70117 329.89062 L 793.70117 271.38477 C 795.11352 267.16691 795.9177 264.23762 795.80469 263.44141 C 795.70997 262.77371 794.91942 263.86706 793.70117 266.10742 L 793.70117 200.95703 C 795.34342 200.67185 796.20117 200.34589 796.20117 199.98047 C 796.20117 199.61823 795.34102 199.29508 793.70117 199.01172 L 793.70117 50.861328 C 795.34106 50.577935 796.20117 50.252981 796.20117 49.890625 C 796.20117 49.52464 795.34355 49.197626 793.70117 48.912109 L 793.70117 0 L 735.97266 0 C 736.20565 -1.4941002 735.70665 -1.7011719 734.80469 -1.7011719 C 734.60335 -1.7011719 734.16531 -1.0856436 733.55469 0 L 694.95508 0 C 694.29101 -1.0638651 693.79378 -1.6656002 693.52734 -1.6699219 C 693.25796 -1.6743205 693.24871 -1.0740571 693.45508 0 L 628.94922 0 C 629.21993 -1.4100073 628.89968 -1.7011719 628.25391 -1.7011719 C 628.03181 -1.7011719 627.56203 -1.0818401 626.91602 0 L 588.33008 0 C 587.12977 -1.7635063 586.28224 -2.1177185 585.66797 -1.2519531 C 585.60436 -1.1623039 585.71291 -0.66627513 585.89258 0 L 521.22852 0 C 521.43489 -1.074063 521.42563 -1.6742913 521.15625 -1.6699219 C 520.88982 -1.6655725 520.39258 -1.0638709 519.72852 0 L 481.12891 0 C 480.51827 -1.0856436 480.08027 -1.7011719 479.87891 -1.7011719 C 478.977 -1.7011719 478.47792 -1.4940991 478.71094 0 L 414.82812 0 C 415.06113 -1.4940991 414.56013 -1.7011719 413.6582 -1.7011719 C 413.45686 -1.7011719 413.02079 -1.0856436 412.41016 0 L 373.81055 0 C 373.14644 -1.0639466 372.64926 -1.6656 372.38281 -1.6699219 C 372.11343 -1.6743204 372.10223 -1.074039 372.30859 0 L 307.64648 0 C 307.82616 -0.66624459 307.93274 -1.1623832 307.86914 -1.2519531 C 307.25486 -2.1177185 306.4093 -1.7635063 305.20898 0 L 267.08203 0 C 266.28523 -1.2170623 265.66557 -1.8419795 265.22266 -1.8554688 z M 2.3496094 2.2597656 L 50.623047 2.2597656 C 50.961293 3.2582708 51.431515 4.4630522 52.050781 5.9199219 C 61.190004 27.420401 67.384766 43.341803 67.384766 45.326172 C 67.384766 46.65163 53.30886 47.546875 32.441406 47.546875 C 18.261226 47.546875 7.9571847 47.895938 2.3496094 48.537109 L 2.3496094 2.2597656 z M 53.861328 2.2597656 L 90.080078 2.2597656 C 88.078795 6.2812291 85.140005 12.971705 82.113281 20.527344 C 77.215569 32.753624 72.71905 42.779806 72.119141 42.806641 C 71.519239 42.833853 67.025947 32.831175 62.134766 20.578125 C 59.109767 13.000098 56.049006 6.2891623 53.861328 2.2597656 z M 93.091797 2.2597656 L 158.1582 2.2597656 C 159.21817 5.6200313 161.70004 11.782342 166.39062 23.232422 C 171.42412 35.5196 175.54297 46.016156 175.54297 46.558594 C 175.54297 47.101387 153.08041 47.546875 125.625 47.546875 C 98.169578 47.546875 75.705078 47.101028 75.705078 46.558594 C 75.705078 46.015786 79.823926 35.5196 84.857422 23.232422 C 89.548225 11.781823 92.031906 5.619925 93.091797 2.2597656 z M 161.16992 2.2597656 L 197.29102 2.2597656 C 195.13036 6.2871946 192.04942 13.017148 188.96289 20.609375 C 183.98874 32.844791 179.49547 42.833475 178.97852 42.806641 C 178.46159 42.779519 174.03245 32.753624 169.13477 20.527344 C 166.10804 12.971729 163.1712 6.2812334 161.16992 2.2597656 z M 199.5293 2.2597656 L 265.625 2.2597656 C 266.94245 6.5154326 269.62199 13.787792 272.9043 21.847656 C 277.87236 34.046999 281.95874 44.819743 281.98633 45.787109 C 282.01383 46.754479 259.94704 47.546875 232.94922 47.546875 C 199.68632 47.546875 183.86328 46.749516 183.86328 45.076172 C 183.86328 43.717919 187.94781 32.638196 192.93945 20.453125 C 196.0246 12.922079 198.41085 6.2589522 199.5293 2.2597656 z M 268.40234 2.2597656 L 303.89648 2.2597656 C 302.24632 5.3612705 300.09687 10.329148 297.20117 17.701172 C 285.71447 46.944583 286.87101 46.464718 278.50195 25.470703 C 273.95755 14.070952 270.6689 6.49024 268.40234 2.2597656 z M 306.94922 2.2597656 L 372.86523 2.2597656 C 373.98369 6.2589619 376.36994 12.922096 379.45508 20.453125 C 384.4467 32.638196 388.53125 43.717919 388.53125 45.076172 C 388.53125 46.749698 372.70626 47.546875 339.44336 47.546875 C 312.44553 47.546875 290.37866 46.754479 290.40625 45.787109 C 290.43376 44.819743 294.52217 34.046999 299.49023 21.847656 C 302.82116 13.668408 305.57835 6.3800655 306.94922 2.2597656 z M 375.10156 2.2597656 L 411.22461 2.2597656 C 409.22333 6.2812334 406.28652 12.971729 403.25977 20.527344 C 398.3621 32.753624 393.93103 42.779806 393.41406 42.806641 C 392.8971 42.833853 388.40576 32.844791 383.43164 20.609375 C 380.3451 13.017133 377.26223 6.2871978 375.10156 2.2597656 z M 414.23633 2.2597656 L 479.30273 2.2597656 C 480.36272 5.6200313 482.84654 11.782342 487.53711 23.232422 C 492.57057 35.5196 496.6875 46.016156 496.6875 46.558594 C 496.6875 47.101387 474.22493 47.546875 446.76953 47.546875 C 419.3141 47.546875 396.84961 47.101028 396.84961 46.558594 C 396.84961 46.015786 400.96849 35.5196 406.00195 23.232422 C 410.69256 11.782342 413.17635 5.6200313 414.23633 2.2597656 z M 482.31445 2.2597656 L 518.4375 2.2597656 C 516.27685 6.2871917 513.19391 13.017133 510.10742 20.609375 C 505.13322 32.844791 500.64196 42.833475 500.125 42.806641 C 499.60807 42.779519 495.17696 32.753624 490.2793 20.527344 C 487.25254 12.971729 484.31574 6.2812334 482.31445 2.2597656 z M 520.67383 2.2597656 L 586.58984 2.2597656 C 587.9607 6.3800678 590.71792 13.668408 594.04883 21.847656 C 599.0169 34.046999 603.10258 44.819743 603.13281 45.787109 C 603.16029 46.754479 581.09359 47.546875 554.0957 47.546875 C 520.8328 47.546875 505.00781 46.749516 505.00781 45.076172 C 505.00781 43.717919 509.09232 32.638196 514.08398 20.453125 C 517.16915 12.922079 519.55538 6.2589522 520.67383 2.2597656 z M 589.64258 2.2597656 L 625.66211 2.2597656 C 623.51521 6.3483339 620.36242 13.202878 617.13086 20.941406 C 606.3168 46.838377 607.8783 47.08125 596.33789 17.701172 C 593.44235 10.329559 591.29271 5.361316 589.64258 2.2597656 z M 628.32812 2.2597656 L 694.00977 2.2597656 C 695.12822 6.2589589 697.51449 12.922079 700.59961 20.453125 C 705.59131 32.638196 709.67578 43.717919 709.67578 45.076172 C 709.67578 46.749698 693.85076 47.546875 660.58789 47.546875 C 633.59008 47.546875 611.50195 46.857843 611.50195 46.017578 C 611.50195 45.176958 614.76309 36.470342 618.75 26.669922 C 624.2844 13.065361 627.12593 5.968329 628.32812 2.2597656 z M 696.24805 2.2597656 L 732.36914 2.2597656 C 730.36787 6.2812334 727.43098 12.971729 724.4043 20.527344 C 719.50663 32.753624 715.07747 42.779806 714.56055 42.806641 C 714.04362 42.833853 709.55037 32.844791 704.57617 20.609375 C 701.48969 13.017148 698.40871 6.2872007 696.24805 2.2597656 z M 735.38086 2.2597656 L 791.34961 2.2597656 L 791.34961 48.595703 C 785.2444 47.916959 773.53679 47.546875 757.09961 47.546875 C 735.59285 47.546875 717.99609 47.101028 717.99609 46.558594 C 717.99609 46.015786 722.11302 35.5196 727.14648 23.232422 C 731.83705 11.782342 734.32089 5.6200313 735.38086 2.2597656 z M 791.34961 51.177734 L 791.34961 198.69531 C 785.14769 198.00974 773.15782 197.63477 756.26758 197.63477 L 716.33203 197.63477 L 716.33203 124.93555 L 716.33203 52.236328 L 756.26758 52.236328 C 773.15774 52.236328 785.14766 51.863306 791.34961 51.177734 z M 2.3496094 51.21875 C 8.1588461 51.875854 19.022854 52.236328 34.105469 52.236328 L 70.712891 52.236328 L 70.712891 124.93555 L 70.712891 197.63477 L 34.105469 197.63477 C 19.022854 197.63477 8.1588461 197.99524 2.3496094 198.65234 L 2.3496094 51.21875 z M 74.041016 52.238281 L 125.625 52.238281 L 177.20703 52.238281 L 177.20703 124.9375 L 177.20703 197.63672 L 125.625 197.63672 L 74.041016 197.63672 L 74.041016 124.9375 L 74.041016 52.238281 z M 180.53516 52.238281 L 232.11719 52.238281 L 283.70117 52.238281 L 283.70117 124.9375 L 283.70117 197.63672 L 232.11719 197.63672 L 180.53516 197.63672 L 180.53516 124.9375 L 180.53516 52.238281 z M 288.69336 52.238281 L 340.27539 52.238281 L 391.85938 52.238281 L 391.85938 124.9375 L 391.85938 197.63672 L 340.27539 197.63672 L 288.69336 197.63672 L 288.69336 124.9375 L 288.69336 52.238281 z M 395.18555 52.238281 L 446.76953 52.238281 L 498.35156 52.238281 L 498.35156 124.9375 L 498.35156 197.63672 L 446.76953 197.63672 L 395.18555 197.63672 L 395.18555 124.9375 L 395.18555 52.238281 z M 501.67969 52.238281 L 553.26367 52.238281 L 604.8457 52.238281 L 604.8457 124.9375 L 604.8457 197.63672 L 553.26367 197.63672 L 501.67969 197.63672 L 501.67969 124.9375 L 501.67969 52.238281 z M 609.83789 52.238281 L 661.41992 52.238281 L 713.00391 52.238281 L 713.00391 124.9375 L 713.00391 197.63672 L 661.41992 197.63672 L 609.83789 197.63672 L 609.83789 124.9375 L 609.83789 52.238281 z M 791.34961 201.27539 L 791.34961 270.75781 C 788.87607 275.92912 785.59889 283.3798 782.04883 292.02734 C 774.76802 309.76252 768.42269 324.26821 767.94727 324.26367 C 767.19295 324.25581 719.72897 209.68215 718.27344 204.35547 C 717.96835 203.23914 735.37791 202.32617 756.96094 202.32617 C 773.47352 202.32617 785.2282 201.95529 791.34961 201.27539 z M 2.3496094 201.33398 C 7.9571847 201.97517 18.261226 202.32617 32.441406 202.32617 C 55.607981 202.32617 67.384766 203.15036 67.384766 204.77344 C 67.384766 207.55235 22.998002 316.73842 19.923828 321.52148 C 18.317464 324.0208 15.995195 319.93136 8.1269531 300.74219 C 6.0054731 295.56832 4.0171691 291.07253 2.3496094 287.5957 L 2.3496094 201.33398 z M 233.12695 202.32617 C 278.49111 202.32617 282.3075 202.63669 281.32422 206.24805 C 280.73691 208.40508 269.72093 235.84412 256.84375 267.22266 C 243.96656 298.6011 233.15254 324.27344 232.8125 324.27344 C 231.33536 324.27344 183.86328 208.45148 183.86328 204.84766 C 183.86328 203.10597 199.09337 202.32617 233.12695 202.32617 z M 339.26562 202.32617 C 372.1064 202.32617 388.53125 203.13606 388.53125 204.75391 C 388.53125 206.08876 378.31356 232.20836 365.82617 262.79688 C 353.33885 293.38529 342.2074 319.81565 341.08984 321.53125 C 339.45187 324.04582 334.51289 313.56107 315.60742 267.44531 C 302.70909 235.98273 291.67067 208.45946 291.07812 206.2832 C 290.08228 202.62578 293.72807 202.32617 339.26562 202.32617 z M 554.27344 202.32617 C 599.81104 202.32617 603.45669 202.62575 602.46094 206.2832 C 601.86838 208.45946 590.86579 235.89854 578.00977 267.25781 C 565.15385 298.61713 554.34274 324.27344 553.98633 324.27344 C 552.50566 324.27344 505.00781 208.3823 505.00781 204.76953 C 505.00781 203.13073 521.22763 202.32617 554.27344 202.32617 z M 660.41016 202.32617 C 694.25896 202.32617 709.67578 203.11179 709.67578 204.83398 C 709.67578 206.21264 699.45935 232.33037 686.97266 262.875 C 674.48597 293.41968 663.36394 319.80267 662.25586 321.50391 C 660.64087 323.98358 655.58448 313.25111 636.76172 267.38477 C 623.84806 235.91724 612.80027 208.40508 612.21289 206.24805 C 611.22957 202.63641 615.046 202.32617 660.41016 202.32617 z M 125.62305 202.36133 C 149.77369 202.36133 173.9193 202.93648 174.36719 204.08594 C 174.74413 205.05333 164.11816 232.48364 150.75391 265.04297 C 137.38966 297.60234 126.0798 324.25328 125.61914 324.25781 C 124.14425 324.28625 76.105398 205.91483 76.849609 204.08594 C 77.317322 202.93648 101.4724 202.36133 125.62305 202.36133 z M 446.76953 202.36133 C 470.91971 202.36133 495.06941 202.93648 495.52539 204.08594 C 495.90916 205.05333 485.28313 232.48529 471.91211 265.04688 C 458.54101 297.60851 447.22738 324.25 446.76953 324.25 C 445.30285 324.25 397.28861 205.9136 398.01367 204.08594 C 398.46965 202.93648 422.61935 202.36133 446.76953 202.36133 z M 178.91992 207.07422 C 179.84235 207.01423 228.78906 325.35629 228.78906 327.64648 C 228.78906 328.37167 206.26946 328.96484 178.74414 328.96484 L 128.69727 328.96484 L 135.06445 313.01172 C 154.94007 263.20889 178.15821 207.12743 178.91992 207.07422 z M 714.57031 207.07422 C 715.37176 207.12366 738.15851 262.10499 758.47461 313.01172 L 764.8418 328.96484 L 714.79492 328.96484 C 687.26961 328.96484 664.74805 328.38935 664.74805 327.68555 C 664.74805 325.34153 713.62615 207.01208 714.57031 207.07422 z M 72.267578 207.08594 C 73.056555 207.14418 87.756306 242.63389 117.04102 315.18945 L 122.59961 328.96484 L 72.529297 328.96484 C 44.990412 328.96484 22.458984 328.36713 22.458984 327.63672 C 22.458984 325.23361 71.304078 207.01503 72.267578 207.08594 z M 393.42578 207.0957 C 394.22897 207.16421 417.34372 262.9295 437.32812 313.00977 L 443.69531 328.96484 L 393.65039 328.96484 C 366.12505 328.96484 343.60352 328.3893 343.60352 327.68555 C 343.60352 325.3274 392.48464 207.01614 393.42578 207.0957 z M 500.11328 207.0957 C 501.05435 207.01552 549.93555 325.3274 549.93555 327.68555 C 549.93555 328.38897 527.41388 328.96484 499.88867 328.96484 L 449.84375 328.96484 L 456.21094 313.00977 C 476.19538 262.9295 499.31006 207.1668 500.11328 207.0957 z M 607.36328 208.18945 C 608.67504 208.18945 656.42969 323.79513 656.42969 326.9707 C 656.42969 328.06773 634.3396 328.96484 607.3418 328.96484 C 580.34399 328.96484 558.25586 328.08179 558.25586 327.00195 C 558.25586 323.84795 606.05968 208.18945 607.36328 208.18945 z M 286.04297 208.51562 C 287.38755 208.18263 335.2832 323.43363 335.2832 327.00195 C 335.2832 328.0816 313.1951 328.96484 286.19727 328.96484 C 259.19944 328.96484 237.10938 328.06773 237.10938 326.9707 C 237.10938 323.79701 284.58257 208.87725 286.04297 208.51562 z M 791.34961 278.04297 L 791.34961 329.31055 C 789.41727 328.9471 786.87176 328.6507 783.69141 328.47656 L 771.18164 327.79102 L 783.75391 297.44727 C 786.66853 290.41193 789.28076 283.69371 791.34961 278.04297 z M 2.3496094 296.05078 C 3.3632237 298.75328 4.493142 301.61627 5.703125 304.51367 C 10.342709 315.62357 14.138672 325.66939 14.138672 326.83789 C 14.138672 328.00649 10.394259 328.96289 5.8183594 328.96289 C 4.4898828 328.96289 3.3471788 329.02662 2.3496094 329.12891 L 2.3496094 296.05078 z M 791.34961 333.15039 L 791.34961 479.55664 C 789.24382 479.24949 786.45054 479.05273 782.89062 479.05273 L 769.57812 479.05273 L 769.57812 406.35352 L 769.57812 333.6543 L 782.89062 333.6543 C 786.45011 333.6543 789.24352 333.458 791.34961 333.15039 z M 2.3496094 333.48242 C 3.6614867 333.75911 5.2146069 333.98698 7.0664062 334.12305 L 16.634766 334.82617 L 17.074219 406.93945 L 17.513672 479.05273 L 7.5058594 479.05273 C 5.6052769 479.05273 3.8565769 479.18241 2.3496094 479.39453 L 2.3496094 333.48242 z M 20.794922 333.6543 L 72.376953 333.6543 L 123.96094 333.6543 L 123.96094 406.35547 L 123.96094 479.05469 L 72.376953 479.05469 L 20.794922 479.05469 L 20.794922 406.35547 L 20.794922 333.6543 z M 127.28906 333.6543 L 178.87109 333.6543 L 230.45312 333.6543 L 230.45312 406.35547 L 230.45312 479.05469 L 178.87109 479.05469 L 127.28906 479.05469 L 127.28906 406.35547 L 127.28906 333.6543 z M 341.93945 333.6543 L 393.52344 333.6543 L 445.10547 333.6543 L 445.10547 406.35547 L 445.10547 479.05469 L 393.52344 479.05469 L 341.93945 479.05469 L 341.93945 406.35547 L 341.93945 333.6543 z M 448.43359 333.6543 L 500.01562 333.6543 L 551.59961 333.6543 L 551.59961 406.35547 L 551.59961 479.05469 L 500.01562 479.05469 L 448.43359 479.05469 L 448.43359 406.35547 L 448.43359 333.6543 z M 663.08398 333.6543 L 714.66797 333.6543 L 766.25 333.6543 L 766.25 406.35547 L 766.25 479.05469 L 714.66797 479.05469 L 663.08398 479.05469 L 663.08398 406.35547 L 663.08398 333.6543 z M 234.61328 334.82812 L 286.19727 334.82812 L 337.7793 334.82812 L 338.2207 406.94141 L 338.66016 479.05273 L 287 479.05273 C 246.95558 479.05273 235.15959 478.38904 234.53516 476.0957 C 234.09223 474.4685 233.92893 442.01755 234.17188 403.98242 L 234.61328 334.82812 z M 555.75977 334.82812 L 607.3418 334.82812 L 658.92383 334.82812 L 659.36523 406.94141 L 659.80469 479.05273 L 608.14648 479.05273 C 568.10201 479.05273 556.30617 478.38904 555.68164 476.0957 C 555.2383 474.4685 555.07338 442.01755 555.31641 403.98242 L 555.75977 334.82812 z M 791.34961 483.39453 L 791.34961 534.5918 C 789.22187 528.93845 786.5724 522.22114 783.66016 515.19141 L 771.11719 484.91602 L 783.66016 484.23047 C 786.8567 484.0559 789.41036 483.75974 791.34961 483.39453 z M 2.3496094 483.52148 C 3.4098236 483.66024 4.5778334 483.74414 5.8183594 483.74414 C 10.394259 483.74414 14.138672 484.76727 14.138672 486.01758 C 14.138672 487.26777 10.34615 497.34017 5.7109375 508.40039 C 4.4973487 511.29616 3.364678 514.16534 2.3496094 516.87891 L 2.3496094 483.52148 z M 705.88086 483.61719 C 732.62433 483.65626 762.92188 484.70173 762.92188 486.42969 C 762.92187 487.90616 752.25224 515.32583 739.21094 547.36133 C 726.1696 579.39687 715.04895 605.62771 714.49805 605.65039 C 712.90437 605.71838 665.02826 487.45569 665.85938 485.50391 C 666.4293 484.16538 685.08038 483.58679 705.88086 483.61719 z M 63.585938 483.625 C 90.33471 483.65246 120.63281 484.6843 120.63281 486.41211 C 120.63281 487.87888 109.96092 515.28598 96.919922 547.31445 C 83.878906 579.34295 72.758692 605.5833 72.207031 605.62109 C 70.595615 605.73675 22.675307 487.49266 23.537109 485.52734 C 24.124085 484.18887 42.781337 483.60364 63.585938 483.625 z M 179.70312 483.74414 C 206.70096 483.74414 228.78906 484.31056 228.78906 485.00195 C 228.78906 485.69364 217.82287 513.13266 204.41797 545.97656 C 191.01306 578.82043 179.59263 605.67307 179.04102 605.65039 C 177.66074 605.59147 130.61523 489.76898 130.61523 486.42969 C 130.61523 484.4745 143.94936 483.74414 179.70312 483.74414 z M 286.19727 483.74414 C 314.18664 483.74414 335.2832 484.65169 335.2832 485.85547 C 335.2832 487.01673 324.7477 513.66331 311.86914 545.07031 C 298.9906 576.47739 287.83431 603.06978 287.07812 604.16406 C 286.32194 605.25846 282.7102 598.927 279.05273 590.09375 C 253.78395 529.06591 237.10938 487.61819 237.10938 485.83398 C 237.10938 484.6601 258.60531 483.74414 286.19727 483.74414 z M 392.69141 483.74414 C 428.99891 483.74414 441.77734 484.45746 441.77734 486.48242 C 441.77734 487.98815 431.10774 515.39544 418.06641 547.38672 C 405.02511 579.37811 393.914 605.58525 393.375 605.62305 C 392.36919 605.69497 343.60352 487.64349 343.60352 485.13672 C 343.60352 484.3708 365.69355 483.74414 392.69141 483.74414 z M 500.84766 483.74414 C 527.84546 483.74414 549.93555 484.37087 549.93555 485.13672 C 549.93555 485.90264 538.95669 513.34165 525.53906 546.11133 C 512.1214 578.881 500.70302 605.66084 500.16406 605.62305 C 498.7755 605.52376 451.76172 489.80088 451.76172 486.48242 C 451.76172 484.45735 464.54019 483.74414 500.84766 483.74414 z M 607.3418 483.74414 C 635.3312 483.74414 656.42969 484.65169 656.42969 485.85547 C 656.42969 487.01673 645.89226 513.66331 633.01367 545.07031 C 620.13516 576.47739 608.97883 603.06978 608.22266 604.16406 C 607.46645 605.25846 603.85475 598.927 600.19727 590.09375 C 574.92852 529.06591 558.25586 487.61819 558.25586 485.83398 C 558.25586 484.6601 579.74981 483.74414 607.3418 483.74414 z M 767.91406 488.46484 C 768.37161 488.45056 773.86629 501.02742 780.125 516.41406 C 785.38411 529.34347 788.93112 537.89382 791.34961 543.31836 L 791.34961 611.43164 C 785.2282 610.75175 773.47352 610.38086 756.96094 610.38086 C 735.37791 610.38086 717.96805 609.48902 718.27344 608.39844 C 719.75845 603.08949 767.19236 488.48752 767.91406 488.46484 z M 125.625 488.47266 C 126.34617 488.4894 173.77701 603.07855 175.26562 608.40039 C 175.57069 609.49097 153.23295 610.38281 125.625 610.38281 C 98.017044 610.38281 75.677338 609.46995 75.982422 608.35352 C 77.413253 603.11728 124.89458 488.45376 125.625 488.47266 z M 446.76953 488.49805 C 447.50764 488.49805 495.0233 603.20246 496.41016 608.33203 C 496.71943 609.47602 474.75894 610.38281 446.76953 610.38281 C 418.78005 610.38281 396.81741 609.47602 397.12695 608.33203 C 398.51381 603.20246 446.03135 488.49805 446.76953 488.49805 z M 19.107422 489.99023 C 19.190746 489.98777 19.261704 490.02447 19.316406 490.10156 C 21.718084 493.48639 67.384766 605.58354 67.384766 608.09375 C 67.384766 609.50684 54.034737 610.38086 32.441406 610.38086 C 18.261226 610.38086 7.9571846 610.73188 2.3496094 611.37305 L 2.3496094 525.64453 C 3.9613997 522.1971 5.9190346 517.64754 8.0976562 512.22461 C 13.461595 498.87283 17.857559 490.02721 19.107422 489.99023 z M 231.87109 490.86914 C 234.02953 491.12552 239.98947 504.41039 257.67773 547.71094 C 271.07491 580.50703 282.03711 608.02458 282.03711 608.86133 C 282.03711 609.69857 259.94704 610.38281 232.94922 610.38281 C 201.52589 610.38281 183.86328 609.54328 183.86328 608.05078 C 183.86328 605.33304 228.33787 495.8024 231.31445 491.18945 C 231.46513 490.95596 231.64781 490.84262 231.87109 490.86914 z M 340.52344 490.86914 C 340.74672 490.84262 340.92941 490.95596 341.08008 491.18945 C 344.05666 495.8024 388.53125 605.33304 388.53125 608.05078 C 388.53125 609.54283 370.86668 610.38281 339.44336 610.38281 C 312.44553 610.38281 290.35742 609.698 290.35742 608.86133 C 290.35742 608.0245 301.31766 580.50703 314.71484 547.71094 C 332.40311 504.41039 338.36502 491.12552 340.52344 490.86914 z M 553.01562 490.86914 C 555.17404 491.12552 561.13599 504.41039 578.82422 547.71094 C 592.22143 580.50703 603.18164 608.02462 603.18164 608.86133 C 603.18164 609.69861 581.09359 610.38281 554.0957 610.38281 C 522.67241 610.38281 505.00781 609.54324 505.00781 608.05078 C 505.00781 605.33304 549.48242 495.8024 552.45898 491.18945 C 552.60965 490.95596 552.79234 490.84262 553.01562 490.86914 z M 661.66797 490.86914 C 661.89126 490.84262 662.07393 490.95595 662.22461 491.18945 C 665.20118 495.8024 709.67578 605.33304 709.67578 608.05078 C 709.67578 609.54283 692.01126 610.38281 660.58789 610.38281 C 633.59008 610.38281 611.50195 609.698 611.50195 608.86133 C 611.50195 608.0245 622.46411 580.50703 635.86133 547.71094 C 653.54956 504.41039 659.50951 491.1255 661.66797 490.86914 z M 791.34961 614.01367 L 791.34961 761.53125 C 785.14769 760.84566 773.15782 760.4707 756.26758 760.4707 L 716.33203 760.4707 L 716.33203 687.77148 L 716.33203 615.07227 L 756.26758 615.07227 C 773.15774 615.07227 785.14766 614.69924 791.34961 614.01367 z M 2.3496094 614.05469 C 8.1588459 614.71179 19.022854 615.07227 34.105469 615.07227 L 70.712891 615.07227 L 70.712891 687.77148 L 70.712891 760.4707 L 34.105469 760.4707 C 19.022854 760.4707 8.1588459 760.83116 2.3496094 761.48828 L 2.3496094 614.05469 z M 74.041016 615.07227 L 125.625 615.07227 L 177.20703 615.07227 L 177.20703 687.77148 L 177.20703 760.47266 L 125.625 760.47266 L 74.041016 760.47266 L 74.041016 687.77148 L 74.041016 615.07227 z M 180.53516 615.07227 L 232.11719 615.07227 L 283.70117 615.07227 L 283.70117 687.77148 L 283.70117 760.47266 L 232.11719 760.47266 L 180.53516 760.47266 L 180.53516 687.77148 L 180.53516 615.07227 z M 288.69336 615.07227 L 340.27539 615.07227 L 391.85938 615.07227 L 391.85938 687.77148 L 391.85938 760.47266 L 340.27539 760.47266 L 288.69336 760.47266 L 288.69336 687.77148 L 288.69336 615.07227 z M 395.18555 615.07227 L 446.76953 615.07227 L 498.35156 615.07227 L 498.35156 687.77148 L 498.35156 760.47266 L 446.76953 760.47266 L 395.18555 760.47266 L 395.18555 687.77148 L 395.18555 615.07227 z M 501.67969 615.07227 L 553.26367 615.07227 L 604.8457 615.07227 L 604.8457 687.77148 L 604.8457 760.47266 L 553.26367 760.47266 L 501.67969 760.47266 L 501.67969 687.77148 L 501.67969 615.07227 z M 609.83789 615.07227 L 661.41992 615.07227 L 713.00391 615.07227 L 713.00391 687.77148 L 713.00391 760.47266 L 661.41992 760.47266 L 609.83789 760.47266 L 609.83789 687.77148 L 609.83789 615.07227 z M 791.34961 764.11133 L 791.34961 833.70898 C 788.88014 838.8559 785.6196 846.25659 782.08594 854.86328 C 774.80441 872.59845 768.44972 887.09362 767.96484 887.08984 C 767.15512 887.07148 719.53724 772.32387 718.27344 767.3457 C 717.94088 766.03572 733.4327 765.16211 756.96094 765.16211 C 773.47352 765.16211 785.2282 764.79122 791.34961 764.11133 z M 2.3496094 764.16992 C 7.9571846 764.81109 18.261226 765.16211 32.441406 765.16211 C 55.412609 765.16211 67.384766 765.99244 67.384766 767.58789 C 67.384766 770.39778 22.984968 879.69912 19.951172 884.35742 C 18.315861 886.86835 16.031856 882.85666 8.1269531 863.57812 C 6.0072862 858.40869 4.0173349 853.89862 2.3496094 850.39844 L 2.3496094 764.16992 z M 125.625 765.16211 C 153.23295 765.16211 175.57071 766.07603 175.26562 767.19141 C 174.96057 768.30693 163.87618 795.74403 150.63281 828.16406 C 137.38945 860.58425 126.13933 887.10938 125.63281 887.10938 C 124.80707 887.10937 77.328811 772.56292 75.982422 767.32227 C 75.652371 766.03726 95.755171 765.16211 125.625 765.16211 z M 233.12695 765.16211 C 278.66453 765.16211 282.31225 765.46173 281.31641 769.11914 C 280.72387 771.29543 269.71926 798.73444 256.86328 830.09375 C 244.0073 861.45306 233.27291 887.10938 233.00781 887.10938 C 231.32167 887.10937 183.86328 771.7114 183.86328 767.61133 C 183.86328 765.96519 200.00812 765.16211 233.12695 765.16211 z M 339.26562 765.16211 C 373.11453 765.16211 388.53125 765.94774 388.53125 767.66992 C 388.53125 769.04854 378.31489 795.16631 365.82812 825.71094 C 353.34144 856.25564 342.21004 882.65166 341.0918 884.36719 C 339.4525 886.88231 334.51711 876.40732 315.60742 830.28125 C 302.70909 798.81869 291.67067 771.29543 291.07812 769.11914 C 290.08228 765.46169 293.72807 765.16211 339.26562 765.16211 z M 446.76953 765.16211 C 473.20173 765.16211 495.14907 765.95447 495.54297 766.92188 C 495.93664 767.88925 485.31341 795.3263 471.93555 827.89453 C 458.55776 860.46287 447.23305 887.10938 446.76953 887.10938 C 445.28369 887.10938 397.25217 768.75003 397.99609 766.92188 C 398.38969 765.95447 420.33729 765.16211 446.76953 765.16211 z M 554.27344 765.16211 C 599.81104 765.16211 603.45669 765.46173 602.46094 769.11914 C 601.86838 771.29543 590.86579 798.73444 578.00977 830.09375 C 565.15385 861.45306 554.34274 887.10938 553.98633 887.10938 C 552.48506 887.10938 505.00781 771.34407 505.00781 767.68359 C 505.00781 765.94187 520.23993 765.16211 554.27344 765.16211 z M 660.41016 765.16211 C 693.52895 765.16211 709.67578 765.96542 709.67578 767.61133 C 709.67578 768.95801 699.47485 795.07754 687.00781 825.6543 C 674.54085 856.23094 663.41134 882.65166 662.27344 884.36719 C 660.59412 886.89894 655.7872 876.71369 636.75195 830.28125 C 623.85364 798.81869 612.8151 771.29543 612.22266 769.11914 C 611.22683 765.46169 614.87252 765.16211 660.41016 765.16211 z M 72.28125 769.92188 C 73.059519 769.98008 87.842846 805.68421 117.04102 878.02539 L 122.59961 891.80078 L 72.529297 891.80078 C 44.990412 891.80078 22.458984 891.22328 22.458984 890.51953 C 22.458984 888.16764 71.338779 769.85082 72.28125 769.92188 z M 178.91992 769.92188 C 179.81979 769.8509 228.78906 888.31466 228.78906 890.5625 C 228.78906 891.24293 206.25765 891.80078 178.71875 891.80078 L 128.64844 891.80078 L 134.20898 878.02539 C 163.06065 806.54277 178.18239 769.98575 178.91992 769.92188 z M 393.47461 769.92188 C 394.21169 769.98 409.33838 806.55384 438.18555 878.02539 L 443.74414 891.80078 L 393.67383 891.80078 C 366.13492 891.80078 343.60352 891.20741 343.60352 890.48242 C 343.60352 888.18432 392.55411 769.85082 393.47461 769.92188 z M 500.06445 769.92188 C 500.98499 769.84919 549.93555 888.18432 549.93555 890.48242 C 549.93555 891.20756 527.40412 891.80078 499.86523 891.80078 L 449.79297 891.80078 L 455.35352 878.02539 C 484.20068 806.55384 499.32741 769.98613 500.06445 769.92188 z M 714.61914 769.93164 C 715.38317 770.00043 738.92886 826.86461 758.47461 875.8457 L 764.8418 891.80078 L 714.79492 891.80078 C 687.26961 891.80078 664.74805 891.24319 664.74805 890.5625 C 664.74805 888.30843 713.72063 769.85151 714.61914 769.93164 z M 286.19727 771.02539 C 287.48732 771.02539 335.2832 886.71352 335.2832 889.83594 C 335.2832 890.91564 313.1951 891.80078 286.19727 891.80078 C 259.19944 891.80078 237.10938 890.91582 237.10938 889.83594 C 237.10938 886.71352 284.90722 771.02539 286.19727 771.02539 z M 607.20117 771.3457 C 608.57371 771.01859 656.42969 886.17678 656.42969 889.80664 C 656.42969 890.90365 634.3396 891.80078 607.3418 891.80078 C 580.34399 891.80078 558.25586 890.98744 558.25586 889.99414 C 558.25586 886.89183 605.78185 771.68359 607.20117 771.3457 z M 791.34961 841.12891 L 791.34961 892.14453 C 789.41603 891.78075 786.8689 891.48672 783.68555 891.3125 L 771.16992 890.62695 L 783.76562 860.4082 C 786.67269 853.43308 789.28066 846.76001 791.34961 841.12891 z M 2.3496094 858.87109 C 3.3699463 861.67126 4.5067788 864.64633 5.7265625 867.66992 C 10.353634 879.13958 14.138672 889.26167 14.138672 890.16211 C 14.138672 891.06281 10.394259 891.79883 5.8183594 891.79883 C 4.4898828 891.79883 3.3471788 891.86256 2.3496094 891.96484 L 2.3496094 858.87109 z M 791.34961 895.98438 L 791.34961 1042.3887 C 789.09836 1042.0757 786.2196 1041.8887 782.89062 1041.8887 L 769.57812 1041.8887 L 769.57812 969.18945 L 769.57812 896.49023 L 782.89062 896.49023 C 786.45089 896.49023 789.24345 896.29201 791.34961 895.98438 z M 2.3496094 896.31836 C 3.6614867 896.59505 5.2146068 896.82292 7.0664062 896.95898 L 16.634766 897.66211 L 16.634766 969.18945 L 16.634766 1040.7168 L 7.0664062 1041.4199 C 5.2146068 1041.556 3.6614867 1041.7838 2.3496094 1042.0605 L 2.3496094 896.31836 z M 20.794922 896.49023 L 72.376953 896.49023 L 123.96094 896.49023 L 123.96094 969.18945 L 123.96094 1041.8887 L 72.376953 1041.8887 L 20.794922 1041.8887 L 20.794922 969.18945 L 20.794922 896.49023 z M 127.28906 896.49023 L 178.87109 896.49023 L 230.45312 896.49023 L 230.45312 969.18945 L 230.45312 1041.8887 L 178.87109 1041.8887 L 127.28906 1041.8887 L 127.28906 969.18945 L 127.28906 896.49023 z M 341.93945 896.49023 L 393.52344 896.49023 L 445.10547 896.49023 L 445.10547 969.18945 L 445.10547 1041.8887 L 393.52344 1041.8887 L 341.93945 1041.8887 L 341.93945 969.18945 L 341.93945 896.49023 z M 448.43359 896.49023 L 500.01562 896.49023 L 551.59961 896.49023 L 551.59961 969.18945 L 551.59961 1041.8887 L 500.01562 1041.8887 L 448.43359 1041.8887 L 448.43359 969.18945 L 448.43359 896.49023 z M 663.08398 896.49023 L 714.66797 896.49023 L 766.25 896.49023 L 766.25 969.18945 L 766.25 1041.8887 L 714.66797 1041.8887 L 663.08398 1041.8887 L 663.08398 969.18945 L 663.08398 896.49023 z M 234.61328 897.66211 L 286.19727 897.66211 L 337.7793 897.66211 L 338.2207 969.77539 L 338.66016 1041.8887 L 286.19727 1041.8887 L 233.73438 1041.8887 L 234.17383 969.77539 L 234.61328 897.66211 z M 555.75977 897.66211 L 607.3418 897.66211 L 658.92578 897.66211 L 658.92578 969.18945 L 658.92383 1040.7168 L 606.90234 1041.3359 L 554.87891 1041.957 L 555.31836 969.80859 L 555.75977 897.66211 z M 791.34961 1046.1152 L 791.34961 1097.5449 C 789.28913 1091.9794 786.68844 1085.3796 783.78906 1078.4766 C 776.88802 1062.0461 771.24219 1048.1481 771.24219 1047.5918 C 771.24219 1047.0353 776.85881 1046.5781 783.72266 1046.5781 C 786.67819 1046.5781 789.27557 1046.4049 791.34961 1046.1152 z M 2.3496094 1046.4141 C 3.3471788 1046.5163 4.4898828 1046.5801 5.8183594 1046.5801 C 10.394259 1046.5801 14.138672 1047.6032 14.138672 1048.8535 C 14.138672 1050.1037 10.34615 1060.1761 5.7109375 1071.2363 C 4.4973487 1074.1321 3.364678 1077.0013 2.3496094 1079.7148 L 2.3496094 1046.4141 z M 63.595703 1046.4414 C 90.343263 1046.479 120.63281 1047.5487 120.63281 1049.3223 C 120.63281 1050.8312 114.26732 1067.5973 106.48828 1086.5801 C 100.22507 1101.8639 94.941467 1115.1796 93.095703 1120.2598 L 50.160156 1120.2598 C 48.971279 1115.5184 43.570263 1100.9694 36.890625 1084.6855 C 29.106448 1065.7091 23.094732 1049.3719 23.529297 1048.3809 C 24.131651 1047.0073 42.792046 1046.4121 63.595703 1046.4414 z M 384.74023 1046.4434 C 411.48862 1046.4782 441.77734 1047.5455 441.77734 1049.3223 C 441.77734 1050.8312 435.41184 1067.5972 427.63281 1086.5801 C 421.36947 1101.8641 416.0859 1115.1798 414.24023 1120.2598 L 371.54102 1120.2598 C 370.2658 1115.5261 364.60805 1100.5394 357.85938 1084.1523 C 350.16881 1065.4783 344.23345 1049.3866 344.66992 1048.3906 C 345.27339 1047.0144 363.93593 1046.4163 384.74023 1046.4434 z M 508.79883 1046.4434 C 529.60312 1046.4163 548.26566 1047.0144 548.86914 1048.3906 C 549.30583 1049.3866 543.37019 1065.4783 535.67969 1084.1523 C 527.69796 1103.5325 523.31624 1115.0795 522.05469 1120.2598 L 479.29688 1120.2598 C 477.45112 1115.1796 472.16753 1101.8638 465.9043 1086.5801 C 458.12527 1067.5972 451.76172 1050.8312 451.76172 1049.3223 C 451.76172 1047.5455 482.05045 1046.4782 508.79883 1046.4434 z M 705.87891 1046.457 C 732.62717 1046.487 762.92188 1047.5235 762.92188 1049.2559 C 762.92188 1050.7281 756.55836 1067.5847 748.7793 1086.7148 C 742.62247 1101.8557 737.40715 1115.0298 735.47656 1120.2598 L 692.82227 1120.2598 C 690.86395 1114.2004 685.88046 1101.1146 679.83594 1086.3262 C 671.70168 1066.425 665.39847 1049.3414 665.82812 1048.3613 C 666.41657 1047.0194 685.0747 1046.4337 705.87891 1046.457 z M 187.66406 1046.459 C 208.47035 1046.4429 227.13052 1047.0403 227.72266 1048.3906 C 228.15938 1049.3866 222.22572 1065.4783 214.53516 1084.1523 C 207.78647 1100.5394 202.12695 1115.5261 200.85156 1120.2598 L 158.0625 1120.2598 C 156.13193 1115.0298 150.91661 1101.8557 144.75977 1086.7148 C 136.98073 1067.5847 130.61523 1050.7281 130.61523 1049.2559 C 130.61523 1047.513 160.91312 1046.4797 187.66406 1046.459 z M 286.19727 1046.5781 C 315.81015 1046.5781 335.2832 1047.4558 335.2832 1048.7891 C 335.2832 1050.0044 328.91965 1066.4532 321.14062 1085.3418 C 314.50978 1101.4425 308.94516 1115.6578 307.43555 1120.2598 L 264.95898 1120.2598 C 263.44937 1115.6578 257.88475 1101.4425 251.25391 1085.3418 C 243.47487 1066.4532 237.10938 1050.0044 237.10938 1048.7891 C 237.10938 1047.4557 256.58439 1046.5781 286.19727 1046.5781 z M 607.3418 1046.5781 C 636.95466 1046.5781 656.42969 1047.4558 656.42969 1048.7891 C 656.42969 1050.0044 650.06426 1066.4532 642.28516 1085.3418 C 635.65429 1101.4425 630.08968 1115.6578 628.58008 1120.2598 L 586.13281 1120.2598 C 584.65759 1115.7042 579.06315 1101.3899 572.39844 1085.207 C 564.61941 1066.3183 558.25586 1049.8989 558.25586 1048.7207 C 558.25586 1047.4767 578.83025 1046.5781 607.3418 1046.5781 z M 767.91406 1051.3184 C 768.37161 1051.3109 770.53933 1055.7821 772.73047 1061.2539 C 781.16241 1082.3104 787.45899 1097.1539 791.34961 1105.2656 L 791.34961 1120.2598 L 738.13867 1120.2598 C 740.95774 1114.9379 745.56476 1104.3263 752.33594 1087.6504 C 760.44661 1067.6754 767.45621 1051.3221 767.91406 1051.3184 z M 125.625 1051.3242 C 126.08258 1051.3288 133.09244 1067.6754 141.20312 1087.6504 C 147.9744 1104.3266 152.58135 1114.938 155.40039 1120.2598 L 95.802734 1120.2598 C 98.58488 1115.0174 103.16153 1104.4705 110.00977 1087.6426 C 118.1405 1067.6631 125.16741 1051.3204 125.625 1051.3242 z M 446.76953 1051.3242 C 447.22708 1051.3287 454.23698 1067.6754 462.34766 1087.6504 C 469.15688 1104.42 473.74497 1114.9915 476.54688 1120.2598 L 416.94727 1120.2598 C 419.72941 1115.0174 424.30604 1104.4706 431.1543 1087.6426 C 439.28504 1067.6631 446.31168 1051.3204 446.76953 1051.3242 z M 18.951172 1052.3281 C 18.982383 1052.3271 19.010102 1052.3373 19.033203 1052.3574 C 19.772423 1053.0013 26.199513 1068.0572 33.316406 1085.8164 C 39.724102 1101.806 45.686639 1116.2417 47.529297 1120.2598 L 2.3496094 1120.2598 L 2.3496094 1088.4961 C 3.9438488 1085.0847 5.8773354 1080.5842 8.0273438 1075.2324 C 13.174555 1062.4202 17.983617 1052.3594 18.951172 1052.3281 z M 340.10547 1052.3574 C 340.14078 1052.3455 340.17053 1052.3493 340.19336 1052.3691 C 340.92396 1053.0055 347.1831 1067.5303 354.10352 1084.6445 C 362.15655 1104.56 366.75398 1115.4941 369.23633 1120.2598 L 310.16797 1120.2598 C 312.75397 1115.3097 317.14016 1104.9898 324.17773 1087.5684 C 332.00273 1068.1976 339.01086 1052.7269 340.10547 1052.3574 z M 553.4043 1052.3828 C 554.51498 1052.7381 561.53434 1068.1976 569.35938 1087.5684 C 576.4056 1105.0113 580.78921 1115.3231 583.37109 1120.2598 L 524.54883 1120.2598 C 527.05543 1114.9312 532.43996 1102.1803 538.28711 1087.6191 C 545.8047 1068.8979 552.56698 1053.0479 553.31445 1052.3965 C 553.33781 1052.3761 553.36847 1052.3714 553.4043 1052.3828 z M 232.23242 1052.4062 C 233.30048 1052.7986 240.3088 1068.2644 248.16211 1087.6055 C 255.23249 1105.0184 259.63152 1115.3208 262.22266 1120.2598 L 203.15625 1120.2598 C 205.63872 1115.4941 210.236 1104.56 218.28906 1084.6445 C 225.20942 1067.5303 231.44508 1053.0268 232.14648 1052.416 C 232.1684 1052.3969 232.19797 1052.3936 232.23242 1052.4062 z M 661.30664 1052.4062 C 661.34109 1052.3936 661.36871 1052.3969 661.39062 1052.416 C 662.09207 1053.027 668.32965 1067.5303 675.25 1084.6445 C 683.33343 1104.6351 687.77084 1115.2324 690.35156 1120.2598 L 631.31641 1120.2598 C 633.90754 1115.3208 638.30659 1105.0184 645.37695 1087.6055 C 653.23025 1068.2644 660.23859 1052.7987 661.30664 1052.4062 z "
       transform="matrix(0.26458333,0,0,0.26458333,0,-1.8097168e-5)"
       id="path1444" />
  </g>
</svg>
