<?xml version="1.0" encoding="UTF-8" standalone="no"?>
<svg
   xmlns:dc="http://purl.org/dc/elements/1.1/"
   xmlns:cc="http://creativecommons.org/ns#"
   xmlns:rdf="http://www.w3.org/1999/02/22-rdf-syntax-ns#"
   xmlns:svg="http://www.w3.org/2000/svg"
   xmlns="http://www.w3.org/2000/svg"
   id="svg2629"
   version="1.1"
   viewBox="0 0 210 297"
   height="297mm"
   width="210mm">
  <title
     id="title3205">Two Easter Bunnies</title>
  <defs
     id="defs2623" />
  <metadata
     id="metadata2626">
    <rdf:RDF>
      <cc:Work
         rdf:about="">
        <dc:format>image/svg+xml</dc:format>
        <dc:type
           rdf:resource="http://purl.org/dc/dcmitype/StillImage" />
        <dc:title>Two Easter Bunnies</dc:title>
        <dc:date>2020-04-05</dc:date>
        <dc:creator>
          <cc:Agent>
            <dc:title>Cute Easter</dc:title>
          </cc:Agent>
        </dc:creator>
        <dc:source>http://www.supercoloring.com/coloring-pages/two-easter-bunnies-with-egg</dc:source>
        <dc:subject>
          <rdf:Bag>
            <rdf:li>csk</rdf:li>
            <rdf:li>easter</rdf:li>
            <rdf:li>bunny</rdf:li>
            <rdf:li>egg</rdf:li>
          </rdf:Bag>
        </dc:subject>
      </cc:Work>
    </rdf:RDF>
  </metadata>
  <g
     id="layer1">
    <path
       id="path3188"
       transform="scale(0.26458333)"
       d="m 243.74609,361.85156 c -0.17461,-0.0125 -0.35248,-0.0121 -0.5332,0.002 -11.8552,1.59499 -22.67383,7.38184 -34.41016,9.74804 -24.79152,6.37788 -51.91028,11.76056 -70.51171,30.87696 -17.81557,16.51479 -24.92514,42.33306 -20.42383,65.92578 2.61074,18.03261 11.34392,34.27478 18.69336,50.60351 -9.32346,3.05447 -17.99864,9.15866 -23.75,17.11914 -1.60921,4.55449 4.8722,6.08155 7.95507,7.38477 8.37724,3.53348 16.45035,9.38771 21.21094,17.09375 -17.06748,7.20378 -35.56613,10.59168 -52.199216,19.1582 -19.83577,9.28271 -39.330537,22.36586 -49.238282,42.60742 -16.988826,31.26135 -14.790544,68.49621 -8.791015,102.40235 0.981812,6.47561 3.163095,14.30235 -2.363281,19.42187 -1.994838,2.52941 -6.477456,8.0528 -1.589844,10.11914 12.100698,2.38061 22.4956,-6.69882 31.261719,-13.72265 14.90164,-12.68175 26.530832,-29.72411 30,-49.22266 6.405732,-27.79113 3.380539,-57.10696 12.328129,-84.35547 1.99706,-6.12922 7.84815,-13.4367 11.80273,-15.90625 -8.52432,13.82805 -2.90767,30.85347 1.28906,45.1543 5.58918,14.94501 9.20301,30.50283 11.49219,46.26172 1.79497,12.75295 10.77017,23.57781 22.55273,28.50586 11.12334,5.4926 23.83933,5.0147 35.72266,4.80664 2.22843,0.8369 -1.53616,4.20184 -2.08398,5.70508 -13.19537,19.81991 -32.81643,33.87582 -51.17383,48.50781 -16.22619,0.0442 -32.529157,0.25246 -48.603518,2.45898 -10.927482,-0.38056 -14.357298,-12.87201 -19.673828,-20.20898 -2.80007,21.25538 -5.237068,43.60891 2.427735,64.20703 3.051001,7.51476 5.458893,15.13607 7.65625,22.83398 3.602211,5.3655 9.242813,9.40428 15.171875,11.47852 3.931294,6.6717 11.150665,9.75276 17.640626,13.28125 9.41772,6.32882 16.54674,16.02489 27.65039,19.78711 10.63605,4.88428 22.64046,3.45256 33.70898,6.22851 10.69259,5.56037 18.63819,15.21492 28.72266,21.78321 8.93619,6.13236 18.94406,15.10974 30.69141,11.8457 7.66329,-2.37717 17.86689,-0.49988 23.61523,-7.17773 3.8907,-7.3231 3.90128,-16.17799 3.80859,-24.29883 -1.60231,-12.00692 -11.82587,-21.12571 -22.16406,-26.26367 -1.91796,-1.0469 -6.90955,-0.68188 -4.2539,-3.80079 2.87085,-4.07065 4.83406,-10.22457 8.67773,-12.70507 16.49949,-0.52721 33.56854,2.73525 49.74609,-1.63867 6.55654,-2.30737 16.50264,-5.94821 15.28711,-14.63477 -1.94496,-10.74316 -11.10451,-19.17279 -21.88672,-20.61328 -4.47093,-1.04693 -9.08664,-0.72858 -13.61132,-1.21289 2.05196,-5.10883 5.33368,-11.13433 11.86523,-10.16602 13.38099,-2.78661 23.47703,8.18338 35.02344,13.0586 31.119,15.79596 69.06841,17.17426 101.02734,2.96679 5.70301,-2.37929 11.14767,-5.3161 16.67383,-8.06836 -2.11695,10.57486 0.17081,21.95921 3.64453,31.53321 -10.40043,1.95896 -22.74097,-2.50892 -31.82812,4.39257 -8.22505,7.3589 -14.21345,17.90633 -15.5,28.92188 1.17898,8.45514 9.3004,15.27414 17.48047,16.67578 16.16264,-1.67516 31.67475,-7.39996 47.44921,-11.12109 8.86477,-2.16049 18.37287,-6.93088 27.32422,-2.26758 13.96736,6.47108 29.28361,8.84132 44.56836,9.20703 13.58948,0.21317 27.85529,2.04747 39.29883,9.64258 12.2598,6.62139 23.72828,17.01391 38.55469,17.08984 9.32715,0.80549 18.68223,1.24106 28.02148,1.88672 6.4416,-6.65446 16.1822,-15.48074 11.85547,-25.87305 -3.52471,-11.2052 -11.98503,-19.81113 -20.86133,-27.03906 -2.79345,-4.77075 1.48403,-10.53192 2.6875,-15.28906 2.93156,-6.34443 6.22063,-12.5912 8.03125,-19.31445 8.32294,-9.97361 7.39525,-23.84656 6.24219,-35.96875 -1.06723,-12.88479 -6.5411,-26.36099 -17.33789,-34.00977 -3.62604,-0.75368 -6.61034,-2.79134 -9.08789,-5.56445 -11.15622,-6.9617 -26.42624,-3.29672 -36.13672,4.65234 -2.47945,1.52024 -4.33166,4.28464 -6.02148,6.17188 -7.19494,-3.20342 -11.11214,-11.31866 -15.64258,-17.36133 -5.37634,-9.21842 -11.97146,-18.75986 -12.77344,-29.66992 15.18149,0.70832 30.84815,-0.32352 44.91797,-6.67188 13.39351,-5.14851 25.83625,-17.14849 25.50781,-32.40625 0.008,-17.40385 1.43297,-34.59178 4.08594,-51.7793 0.94292,-8.84961 -0.41922,-17.83344 -2.24024,-26.37109 6.84594,-6.27402 17.4604,-5.90819 26.24024,-6.32031 10.44809,-0.58061 20.04349,4.07496 27.79492,10.86133 26.97963,22.04802 54.58468,43.41075 83.06055,63.48828 5.40351,3.18383 14.77559,4.66139 18.38867,-1.74805 1.33761,-8.48806 -4.45477,-16.21749 -6.03125,-24.33398 -7.2864,-24.92569 -10.7458,-52.14546 -26.5,-73.78125 -18.24767,-26.56215 -54.97212,-37.39903 -85.125,-26.80665 -13.93179,4.25322 -26.81273,11.16745 -40.04297,17.13086 -1.26357,-12.47867 -0.16178,-26.80413 -8.20117,-37.29882 -4.21474,-5.27331 -11.45943,-4.02016 -17.26758,-4.19141 -2.71336,-2.42003 -4.94815,-6.48676 -9.33984,-6.2793 -5.22781,-0.74778 -9.03153,3.4648 -13.17578,5.5 -5.44895,-2.1414 -12.67399,-4.16591 -17.44141,0.64649 -2.40336,2.42536 -1.55631,6.642 -5.55273,7.74804 -4.53162,2.05437 -11.40179,4.1427 -10.65235,10.49219 0.0446,4.68287 0.57349,9.34622 0.83008,14.01953 -3.81955,-0.24907 -11.04405,1.36175 -11.03906,-4.54297 -8.15199,-29.82497 -16.44549,-62.38303 -40.38672,-83.84179 -17.12372,-15.28445 -41.47896,-20.86635 -63.83789,-16.83594 -8.66064,1.68091 -15.16741,-5.36871 -18.60742,-12.4043 -8.92884,-15.96809 -15.29969,-35.37808 -31.6875,-45.43359 -12.00767,-6.89062 -26.3267,0.10656 -35.15821,8.97266 -12.32179,10.89894 -20.34061,25.44908 -27.36914,40.07812 -7.52527,-3.57948 -18.86825,-4.88095 -23.97851,3.36133 -2.80369,3.17435 -0.38895,10.66295 -6.57422,8.66016 -19.54678,-0.10697 -41.87418,-0.64028 -57.7461,12.70312 -10.02519,8.27902 -10.27308,23.08447 -4.91406,34.05273 6.85096,15.92455 15.80586,31.98174 29.85938,42.61329 2.11754,1.85442 5.66097,2.14459 7.67578,2.83398 -1.30515,5.92981 -4.21056,11.36822 -6.37696,17.00977 -10.94447,-9.78849 -25.07072,-18.49017 -40.38867,-16.03907 -2.42635,-0.12888 -0.86618,-4.06061 -2.29492,-5.61328 -3.23818,-7.53377 -5.90098,-16.11649 -11.93945,-21.87304 -3.79178,-1.30353 -5.55773,4.43865 -6.9336,5.99218 -6.68737,-11.80017 -6.44465,-26.35211 -2.875,-39.12109 7.21299,-14.93805 19.83955,-26.38518 29.05078,-40.05664 12.85287,-17.67209 26.07778,-35.08868 39.12891,-52.59961 3.67404,-6.34364 8.51178,-15.16641 3.81055,-22.12305 -0.79663,-0.92959 -1.86162,-1.63777 -3.08399,-1.72461 z m -3.45898,7.91797 c -12.58776,31.89652 -42.20217,66.43076 -61.95899,90.75977 -6.80653,8.10875 -11.93107,21.83924 -11.76367,32.51172 -0.59311,11.04347 0.22964,19.59106 4.78907,29.57812 -6.52836,-2.31197 -9.39039,-9.35402 -8.95508,-15.7793 -0.0743,-13.00104 -1.21153,-27.80646 7.3164,-38.85156 16.5318,-30.27167 42.58604,-47.81929 49.60157,-78.66601 -17.17541,9.96771 -36.38542,17.14266 -50.53711,31.61523 -12.97823,13.05358 -23.43733,30.73545 -22.35157,49.73438 -0.0934,15.72335 2.98004,31.9285 7.84766,46.46679 -4.52035,0.87115 -10.08947,0.30046 -11.56836,-4.78515 -10.18207,-20.38209 -21.40957,-42.17563 -17.92187,-65.74219 2.77302,-27.21252 25.13632,-49.75669 50.69531,-57.55469 21.22168,-7.28481 44.20612,-11.09061 64.80664,-19.28711 z m 111.91016,19.51172 c 5.00275,0.9419 2.55061,7.76021 1.43945,11.04687 -7.50715,18.25936 -22.00706,33.301 -38.47266,43.60743 -5.64434,-1.81293 -6.38231,-8.07825 -3.78711,-12.73047 7.68494,-16.53483 19.4236,-32.41535 35.9668,-40.82813 1.53752,-0.61459 3.17441,-1.16781 4.85352,-1.0957 z m 10.41601,3.33789 c 1.54687,1.60611 3.09376,3.21221 4.64063,4.81836 11.20367,13.03502 19.71849,29.24854 23.09765,46.48047 1.94529,12.21366 -7.56654,24.42849 -19.76367,25.50781 -13.6632,2.03335 -28.06636,0.59285 -41.04101,-4.05469 -5.15285,-3.38649 -6.92301,-9.6441 -9.8418,-14.7832 14.24177,-9.166 26.65012,-21.48503 35.66992,-35.8418 3.66298,-6.88584 6.20617,-14.38308 7.23828,-22.12695 z m -157.95898,12.58398 -0.5625,0.82618 -0.0879,0.13086 c -15.59832,23.29855 -35.49805,44.095 -47.00782,69.92187 -1.57062,3.59732 -1.91952,7.50457 -2.1875,11.36328 -3.70078,-19.38172 0.71062,-40.14411 14.16797,-55.04883 9.58234,-11.74537 22.5079,-20.14079 35.67774,-27.19336 z m 84.43945,33.21094 c 0.23263,-4.1e-4 0.46439,0.007 0.69141,0.0293 12.45496,2.71151 21.29989,13.90193 27.33789,24.33203 3.0571,5.90415 6.90496,15.99511 0.3164,20.83203 -10.28013,4.15427 -18.70682,-5.07312 -24.83007,-11.79883 -7.56213,-8.16351 -12.36688,-20.89254 -7.91993,-31.59961 1.06312,-1.27438 2.7759,-1.79193 4.4043,-1.79492 z m 109.94336,8.28516 c 0.17915,-0.0438 0.4587,0.0986 0.89648,0.53711 20.11699,9.17658 36.49859,25.42069 49.77539,42.65039 2.10732,3.56266 7.23771,9.10015 2.25391,12.78516 -6.40543,7.88903 -10.06767,18.01566 -8.41016,28.22265 1.21372,16.54711 15.3241,30.5779 31.82227,31.92383 4.92408,0.89318 13.67567,-0.73449 14.30859,6.18359 4.48589,17.47574 9.75675,35.29084 11.4375,53.26563 -5.84666,-1.2155 -12.80716,-5.51416 -18.83789,-8.17578 -5.08441,-2.9342 -11.56457,-5.00109 -15.57812,-8.92578 1.57852,-6.50733 6.6926,-12.78738 4.13476,-19.86133 -2.43526,-10.90738 -13.40119,-19.58972 -24.73046,-17.24414 -7.18772,0.78534 -12.06118,6.49755 -17.4043,10.54883 -6.29923,-0.59067 -10.42276,-7.20601 -15.21875,-10.6543 -6.68841,-6.2163 -13.34839,-12.50063 -20.02735,-18.75586 20.19667,-3.44266 37.25776,-23.45786 33.93555,-44.34375 -2.09204,-19.29789 -20.16596,-35.54288 -39.79297,-34.20508 6.2883,-5.40299 12.19924,-12.64913 11.04297,-21.51367 0.22942,-0.49795 -0.14476,-2.30544 0.39258,-2.4375 z m 29.2793,2.07812 c 19.70112,1.00668 40.47508,8.47627 52.66406,24.72461 16.31682,21.28702 24.40547,47.56813 30.08398,73.33789 0.51973,2.70656 -15.00988,10.76318 -15.38867,6.35157 -8.91349,-56.99755 -18.12129,-42.81345 -58.77344,-89.61133 -5.19345,-4.75128 -10.56792,-9.29848 -15.94922,-13.83399 2.4333,-0.46571 4.87031,-1.00257 7.36329,-0.96875 z m -168.03516,4.47071 c 5.00364,0.49266 11.42936,-0.26455 15.25391,3.52734 0.16229,3.17121 5.1811,7.74081 -0.17578,9.24219 -15.99737,9.12899 -34.82801,8.74271 -52.67774,7.3789 -2.81315,-0.78973 -8.82849,-0.74391 -8.86914,-4.55859 6.81978,-8.83132 18.64574,-12.34742 29.20312,-14.20898 5.69972,-0.95452 11.48612,-1.42731 17.26563,-1.38086 z m 20.86328,19.91406 c 1.30453,0.004 2.47788,0.47532 3.4375,1.71875 0.95297,1.14176 1.90641,2.28402 2.85938,3.42578 6.46495,4.18583 3.7017,9.42958 0.30273,14.74609 -7.53656,14.25661 -17.82133,29.07074 -33.30273,35.46094 -6.71221,2.6442 -14.4805,0.5821 -18.53125,-5.45898 -10.28107,-12.29851 -18.18003,-26.73027 -23.76758,-41.64258 -1.43661,-3.74778 3.8292,-0.003 5.92773,-0.53516 16.67245,1.9815 34.2251,3.49489 50.0918,-3.29492 3.98211,-0.2332 9.0688,-4.4327 12.98242,-4.41992 z m 49.44141,1.9043 c 16.37107,2.5618 32.90128,3.89358 49.47656,3.82226 6.01697,-0.99692 7.37269,5.18955 7.02539,9.73242 0.18142,5.21473 0.22936,10.43397 0.34766,15.65039 -15.59985,1.48687 -30.44068,-5.45785 -44.44922,-11.00586 -4.81445,-2.90591 -11.58619,-4.1753 -14.86133,-8.93554 0.46068,-2.82766 0.54681,-7.61429 2.46094,-9.26367 z m 64.16015,3.6289 0.20703,0.008 c 15.3069,3.29934 27.33294,19.5498 24.91797,35.18555 -2.78226,14.41478 -15.09407,26.99827 -30.19336,27.65039 -4.4835,-0.26003 -7.0455,-5.79262 -10.43554,-8.37695 -7.35106,-8.06948 -14.71611,-16.08149 -20.70899,-25.2832 9.85507,2.42196 20.19522,6.59296 30.44141,4.64257 8.65073,-3.87095 7.30796,-15.25305 6.36523,-23.00781 -0.21619,-3.44356 -1.91764,-7.75354 -0.59375,-10.81836 z m -94.9414,11.04102 0.18164,0.2207 c 6.71946,12.98506 7.85612,28.24811 9.74023,42.61719 0.49197,10.16062 2.26843,21.51123 -2.75976,30.77734 -10.0901,-0.66519 -20.17723,-5.56106 -27.17188,-12.84765 -3.89228,-5.50114 2.30479,-11.58171 3.62696,-17.03711 6.16692,-14.35639 7.15591,-30.73797 16.38281,-43.73047 z m 17.93359,2.46289 c 16.94666,0.48506 29.13146,14.68698 39.11328,26.80078 30.40203,38.57114 67.87023,71.93331 110.43164,96.57031 10.4287,6.41038 22.16193,10.22408 33.00196,15.69922 4.69704,5.95351 1.93277,14.63225 2.41406,21.60352 -0.52063,10.28659 -0.98914,20.92556 -2.41406,30.91992 -23.85393,-3.03511 -46.49212,-13.20096 -67.63086,-24.43164 -45.54252,-25.0074 -82.55339,-63.43835 -112.51758,-105.56836 -5.28362,-5.73052 -1.74389,-14.30247 -2.90039,-21.48047 -0.67221,-13.33663 -3.52324,-26.4247 -6.85742,-39.31641 2.45315,-0.24831 4.89073,-0.72657 7.35937,-0.79687 z m 141.7793,13.36328 c 9.86921,15.59244 18.35482,32.48673 25.13476,49.76562 -16.19837,3.23112 -33.79127,-10.43782 -33.28515,-27.37109 0.17877,-7.74554 2.04173,-17.25108 8.15039,-22.39453 z m 114.28515,10.51172 c 6.77832,4.25117 -2.9416,11.53686 0.2168,17.09961 4.55195,2.44683 7.0311,-4.39329 10.18164,-6.54297 4.13647,-4.57353 12.39306,-4.2369 14.68945,1.98242 3.83607,5.48345 -0.15231,11.91115 2.13672,17.76953 4.30572,8.05523 -1.53206,16.3715 -7.11132,21.38867 -4.15915,3.6875 -8.44388,7.60761 -11.37305,12.20118 -2.48103,2.38133 -9.12997,1.87347 -7.97461,6.46484 5.18003,2.70384 11.93538,-2.09917 17.16602,1.45117 10.95404,6.36212 17.49913,18.98753 15.90624,31.65235 -1.55942,13.8946 -4.65929,27.74131 -4.64062,41.89843 -0.77027,10.96698 1.55474,25.00281 -8.09961,32.86328 -11.75512,9.13988 -26.66397,13.49856 -41.51562,13.30665 -6.10885,-0.22489 -13.48224,2.98159 -17.3086,-3.43555 -5.81435,-6.55567 -14.61327,-12.37242 -23.6875,-9.09375 -2.00186,-0.17651 -7.34734,4.31176 -5.55078,0.0371 2.77784,-16.11704 1.85693,-32.95105 4.64649,-48.84571 6.35254,2.65671 14.51193,1.57305 19.07617,7.61133 5.2591,3.47902 12.68339,7.48172 18.89648,4.35938 3.4207,-2.81704 -0.41842,-7.15585 -4.00976,-6.83985 -4.59852,0.0378 -11.58813,-2.73478 -11.61719,-8.01757 0.80405,-3.53968 3.19171,-6.59405 6.83008,-7.07813 4.96357,-4.09984 -0.57385,-11.15341 -5.44532,-12.31055 -3.10579,-2.15096 -8.60847,-1.05317 -8.13672,3.50782 0.54547,4.48459 2.512,11.37309 -3.23046,13.35742 -8.15449,2.09544 -15.08971,-5.89685 -13.98243,-13.74024 -0.32163,-3.93377 1.55065,-7.70408 5.50782,-8.58789 14.58353,-9.95331 19.37819,-33.655 6.25,-46.73047 -5.51626,-4.8009 -14.75176,-8.02504 -21.38672,-3.7832 -0.81676,1.42394 -2.52817,3.05312 -2.17188,0.16602 7.99408,-13.68291 30.34957,-17.72241 41.24024,-5.21289 1.87982,2.9887 8.5318,3.9114 7.16992,-1.14258 -2.84806,-6.15016 -9.73215,-10.37289 -8.70703,-18.05274 0.56477,-3.54334 -1.45595,-8.79421 1.22461,-11.52148 4.18348,-0.35187 10.07699,-1.66984 10.13281,-6.9043 1.19766,-1.72002 2.74081,-7.9018 5.79883,-4.7539 3.30183,2.82259 8.75087,5.57472 12.16015,1.29296 2.26511,-1.83132 4.04281,-4.65389 6.71875,-5.8164 z m -293.34961,2.96289 -0.20703,0.80078 c -3.02727,9.52789 -7.51022,18.59288 -11.30273,27.89649 2.5661,4.7109 7.15384,8.79125 8.43164,13.88281 -11.61898,10.73473 -15.42858,28.39819 -12.18359,43.54687 3.40912,14.71703 15.15488,27.50961 29.5625,32.00196 10.26212,1.18476 20.99912,1.72653 31.14257,-0.55079 12.89341,-4.87853 21.84722,-16.61152 27.2129,-28.90039 3.35905,4.22669 10.50603,8.40664 11.5332,12.66016 -5.85837,6.17718 -14.30455,12.37509 -13.61719,21.9707 -0.0757,8.92906 -1.61955,19.82275 6.2832,26.17383 5.27423,6.57207 13.05428,10.88084 21.60743,10.68555 12.27318,1.70449 25.32616,-4.32364 30.69336,-15.75977 1.63799,-2.28336 2.75076,-7.85345 6.14062,-4.31445 4.85881,2.61985 9.76848,5.35054 14.54883,8.23047 -6.14858,8.6736 -11.52988,19.15415 -9.13672,30.12695 2.96969,19.96486 27.53327,32.41196 45.33594,22.875 11.4201,-5.40816 18.9266,-18.04138 17.32812,-30.73047 4.569,1.25594 11.1513,0.73542 14.56641,3.50196 -3.67941,19.54064 -12.26946,37.81777 -20.99219,55.61523 -2.81352,4.35719 -4.79396,10.33669 -9.42187,12.94336 -9.47203,-4.18318 -21.09997,-3.61036 -30.375,0.85156 -7.66171,5.63547 -11.56885,15.22085 -13.66407,24.20313 -0.88048,5.31352 5.3686,9.75896 3.28907,14.76562 -13.21675,8.62568 -28.79287,13.35662 -44.23243,16.38867 -24.79075,4.88107 -50.85948,-2.13882 -72.89648,-13.52343 -5.0232,-2.71174 -10.80492,-5.13009 -14.51367,-9.31055 7.84837,-6.5706 9.00223,-18.0298 5.20898,-27.07617 -3.25987,-9.50264 -12.24966,-16.78611 -22.50976,-16.64453 -6.44361,-0.64022 -13.08458,0.75926 -19.10157,2.32422 -9.37033,-9.22545 -13.37778,-22.48624 -18.53125,-34.3086 -1.34127,-4.27551 -4.11029,-9.03652 -4.04492,-13.31445 7.12805,-1.55698 11.50829,-8.66118 16.06641,-13.82031 6.98767,-9.48673 10.42268,-22.0143 8.63867,-33.71485 -2.72268,-15.27738 -14.77072,-29.04061 -30.41992,-31.5625 -1.26501,-6.09895 1.31307,-12.99279 1.94726,-19.17383 4.89593,-23.21393 11.02471,-46.61339 21.6211,-68.02929 3.50818,-5.29667 10.60608,-6.14447 14.90429,-10.73633 3.9882,-2.99698 7.23999,-6.82165 11.08789,-9.97461 z m -95.74218,5.39844 c 0.65886,1.27343 1.31771,2.54687 1.97656,3.82031 4.09813,6.73504 1.77018,14.67512 3.17383,21.89844 1.99723,3.39515 4.69427,-0.30159 6.37695,-1.76563 2.427,-1.22033 7.51733,-2.74584 7.23047,1.84961 1.31609,5.75962 2.1108,12.87704 7.00195,16.70899 4.88603,0.11187 2.07771,-6.51447 1.9961,-9.33204 0.38629,-2.68456 -2.48295,-7.57613 -0.75391,-9.35742 7.2966,0.36246 13.51201,5.45112 18.82422,9.78125 -8.22563,2.00466 -11.43726,11.49994 -8.92578,18.96485 2.18654,8.1775 7.36153,16.14163 4.48828,24.89453 -2.62871,11.30967 -3.47032,22.91808 -4.79492,34.38086 -0.36605,5.83544 -8.16802,9.38516 -6.90625,15.36914 1.32334,3.32137 6.16687,-1.18646 5.69336,3.24609 1.51866,10.67634 2.5949,21.43182 3.72851,32.1543 -7.56905,-2.22928 -16.04762,-4.20436 -23.86133,-2.25586 -7.3706,3.85572 -10.28002,12.68392 -10.96093,20.44141 -2.51432,4.20025 -8.84514,2.22416 -12.96875,2.82031 -12.89264,0.0737 -26.76658,-2.33275 -35.76953,-12.40625 -8.98972,-8.58611 -6.40291,-22.06045 -9.71485,-32.9961 -4.11074,-20.36806 -15.07926,-39.53104 -13.71484,-60.64843 4.5799,-12.42384 14.34464,-21.8346 24.4043,-30.06641 5.00846,-3.60268 10.08012,-7.11729 15.11328,-10.68555 -10.35625,-9.34718 -20.56698,-19.28856 -32.84961,-26.02148 13.24076,-11.94119 34.43749,-12.90668 49.26757,-3.17969 5.64578,5.27928 8.08417,-4.51065 11.94532,-7.61523 z m 491.54687,19.29101 c 18.05499,0.62551 35.89369,8.845 48.5,21.73633 15.18694,17.46115 19.9975,41.56603 26.23633,63.44141 2.76741,10.83764 5.85077,21.65013 8.5625,32.46679 -35.18124,-12.20364 -63.82102,-41.41096 -93.75,-65.29882 -12.6576,-9.2439 -30.91209,-12.80948 -45.63672,-9.93165 -5.36492,0.67329 -12.3052,7.0387 -16.28515,0.55469 9.06659,-3.84903 19.22154,-4.73865 28.99804,-4.84765 13.73473,-1.25938 26.50303,4.85889 37.32813,12.72265 26.5059,14.8978 46.92905,43.24998 73.24023,48.71094 -0.0616,-0.0824 -0.12394,-0.16401 -0.19726,-0.23242 -9.71305,-14.47302 -14.66201,-31.84953 -26.11719,-45.28711 -12.24786,-15.81857 -29.57016,-29.4188 -50.16016,-31.03516 -21.89801,-2.58965 -43.70434,3.23404 -63.9414,11.16602 -2.54722,0.57358 -6.05816,2.0469 -8.32032,1.39648 8.49937,-10.26981 21.54302,-15.47937 33.13086,-21.53515 15.28936,-7.09406 31.30359,-14.0411 48.41211,-14.02735 z m -359.65429,20.67383 c 9.99428,9.71373 18.44916,21.27289 26.55664,32.70899 5.34599,7.65247 -1.40491,16.55456 -6.34375,22.49023 -15.87143,18.29314 -49.26613,14.5958 -60.58008,-6.92773 -9.13671,-15.37274 -4.63674,-37.26076 10.01758,-47.41211 7.83267,2.75569 16.5016,7.67252 25.04297,5.05664 2.34513,-1.29676 3.82401,-4.15389 5.30664,-5.91602 z M 233.82031,566 c -0.24775,4.56986 -1.03807,10.41884 -3.125,14.00977 -2.5833,-3.91174 -3.65241,-13.72215 3.125,-14.00977 z m -77.78906,6.16211 c -8.68159,0.88433 -15.60027,8.03285 -19.78516,15.22461 -2.46306,7.44552 -0.83914,15.68873 -0.5957,23.26562 2.08094,8.95922 4.793,-5.40785 4.74609,-8.63867 0.43232,-10.07482 7.00067,-21.59231 18.29493,-21.43555 8.53325,-0.87774 15.61736,4.62211 23.56054,6.10743 4.33322,-2.15671 -1.00666,-5.77796 -3.28711,-7.14063 -6.81039,-4.2782 -14.78539,-7.47945 -22.93359,-7.38281 z m 495.20898,2.15039 c 15.10243,0.0385 31.91366,0.771 43.6836,11.67188 12.27492,10.21983 23.90601,23.37668 29.23242,38.02734 -23.68989,-14.97861 -43.54086,-36.26116 -69.7207,-47.16211 -3.1499,-1.14191 -6.42088,-1.96805 -9.75,-2.36523 2.18177,-0.1406 4.36921,-0.15827 6.55468,-0.17188 z m -142.62695,0.0586 c 10.95405,1.13159 15.84367,14.87965 12.0586,24.20118 -1.55146,-4.08817 -7.97763,-8.87714 -11.35547,-4.15235 -0.29141,1.94102 0.41157,4.04389 -2.58203,4.08985 -2.87585,-5.79466 -4.64656,-13.21724 -5.61329,-19.91993 0.45419,-2.91813 4.95027,-4.30307 7.49219,-4.21875 z m -382.29687,0.22071 c -7.53389,5.66815 -17.66924,7.93637 -23.63672,15.93359 -13.796588,15.78973 -13.434515,38.10234 -16.208987,57.67383 -3.115132,22.75415 -2.08944,47.6905 -15.632812,67.43555 -7.622189,12.05325 -19.797303,23.1993 -31.357422,29.3125 5.253762,-15.02608 10.731155,-31.83629 5.554687,-47.63086 -0.542872,-3.56009 -5.892136,-4.41688 -6.289062,-0.34375 -0.679431,7.3251 1.43756,14.76038 -0.328125,22.00781 -3.191289,-20.42748 -3.607826,-41.53221 -1.525391,-62.18555 4.129667,-26.21408 19.80369,-51.3084 43.865234,-63.68359 14.440895,-7.48698 30.011148,-15.09324 45.558598,-18.51953 z m 322.63671,1.20898 c 0.38363,-0.003 0.77045,0.0112 1.16016,0.043 10.35549,0.042 17.66338,14.05143 10.06445,21.89063 -2.3749,5.68133 -6.80091,-0.55935 -10.03906,-1.85743 -4.50259,-3.43234 -10.64663,-6.25955 -13.84179,-10.62109 1.90286,-5.35177 6.90155,-9.40345 12.65624,-9.45508 z M 179.9375,601.06055 c -0.51836,-0.004 -1.03928,0.004 -1.56055,0.0234 -10.89619,-0.42209 -21.82226,9.40976 -20.39257,20.61914 2.2623,10.15299 8.27473,19.2592 16.16406,25.95508 -2.97852,1.55278 -15.74119,8.98505 -6.95899,7.79688 13.69245,-4.11356 28.27909,-1.97645 42.20899,-4.57813 9.27444,-2.74004 10.1069,-15.21928 6.86328,-22.84179 -5.69983,-14.58172 -20.2549,-26.81746 -36.32422,-26.97461 z m 406.4375,5.57617 c -0.47376,-0.002 -0.94262,0.008 -1.40625,0.0273 -15.28532,-0.29707 -30.11863,11.51451 -31.41992,27.0918 0.0151,5.31976 -1.32539,11.97093 2.4414,16.28711 5.57647,2.68943 12.32413,0.69122 18.24805,2.42969 5.02012,0.034 10.43371,3.55286 15.30469,2.02343 2.60935,-2.19348 -1.55262,-6.37935 2.83594,-7.55078 9.5371,-6.36623 15.88165,-19.53193 11.94531,-30.80078 -2.79916,-7.2167 -10.8425,-9.48322 -17.94922,-9.50586 z m -407.41797,1.95703 c 15.79367,0.3826 30.94353,14.2256 30.83594,30.37695 0.11218,5.90019 -7.50805,7.1919 -11.72656,5.73047 -0.54206,-7.10619 -0.0208,-15.38321 -6.10938,-20.52148 -3.85882,-4.34245 -10.8862,-10.19476 -16.53906,-5.26758 -3.5968,2.40884 -4.85438,7.66499 -1.19141,10.6543 3.05743,2.05009 2.61099,5.57605 0.52735,8.13086 -4.59841,-5.88322 -9.47467,-12.99209 -9.38672,-20.66797 2.40315,-5.2026 7.83059,-8.58545 13.58984,-8.43555 z m 408.04688,4.95313 c 6.80262,0.13189 12.05018,6.99255 9.99804,13.75976 -2.25074,9.70775 -12.11836,16.85581 -21.72656,17.77344 3.43056,-2.68475 4.13146,-7.50715 1.28906,-10.91016 -1.98637,-1.93723 -1.12972,-3.54554 1.10157,-4.53906 4.31074,-4.17804 -2.99522,-10.23194 -7.5,-8.39648 -2.5005,0.89649 -2.57863,0.50945 -0.47071,-1.11329 4.4115,-3.78814 10.04678,-6.42151 15.92969,-6.50976 0.46568,-0.0529 0.9254,-0.0735 1.37891,-0.0644 z m -215.52149,12.77734 c 9.02797,5.08195 16.03634,13.33154 24.70703,19.0957 4.59311,2.77572 11.24651,7.8976 6.77344,13.74805 -4.5899,6.58284 -11.19579,13.79506 -20.10742,12.34765 -9.29065,0.22829 -19.77917,-3.43324 -22.90039,-13.04492 -4.52969,-11.28744 -0.88288,-27.80619 11.52734,-32.14648 z m -140.83008,9.07812 c 0.1358,-0.0113 0.29269,0.008 0.47461,0.0723 18.6157,3.03787 27.9298,25.64802 20.3711,42.05469 -3.56107,7.81281 -7.2031,18.11514 -16.54297,20.28515 -3.1817,-4.12649 -2.53315,-10.55443 -3.66016,-15.52734 -1.23351,-14.78052 -3.85937,-29.8128 -1.85351,-44.35352 0.33721,-0.69842 0.2604,-2.44534 1.21093,-2.53125 z m 208.0586,36.29883 c 3.20965,1.48702 6.41929,2.97396 9.6289,4.46094 8.36478,4.3756 17.81018,6.273 26.16407,10.50195 4.84252,4.7983 1.03793,12.59446 -1.71485,17.69532 -6.44228,10.30218 -21.25633,15.58917 -31.82812,8.27734 -9.20308,-4.46362 -13.29574,-14.96664 -11.81836,-24.75195 -0.034,-6.81359 5.4698,-11.48447 9.56836,-16.1836 z m -163.66016,8.31836 c -11.7487,0.28158 -19.35992,15.04773 -12.85937,24.77344 4.45961,6.33793 15.20818,9.91714 21.22265,3.66406 6.64357,-4.6492 9.93631,-14.72101 4.0586,-21.28711 -3.11314,-3.47883 -7.45209,-7.249 -12.42188,-7.15039 z m 73.16992,5.86328 c -0.76575,-0.0189 -1.53182,-0.0108 -2.29687,0.0156 -10.72835,-0.14098 -20.87127,5.83793 -25.91602,15.30273 -8.22547,12.68009 -4.96913,30.56775 6.55469,40.11914 5.96177,6.59271 15.10511,8.11501 23.54297,7.03907 11.9384,-0.20486 23.20339,-7.95158 26.89648,-19.4336 6.53845,-16.84758 -3.49861,-38.92552 -21.9414,-42.26953 -2.24892,-0.47127 -4.5426,-0.72039 -6.83985,-0.77148 z m -73.01953,2.29492 c 0.25799,-0.008 0.51352,0.003 0.76367,0.0332 7.20718,0.65435 8.53422,10.50407 2.84766,14.05664 -4.54986,4.34491 -10.15996,-2.19256 -11.875,-6.31055 -0.17839,-3.88584 4.39356,-7.69203 8.26367,-7.7793 z m -66.04492,2.97266 c 8.24454,0.0302 16.36028,4.70447 18.42773,13.15625 4.90573,18.43975 14.14438,35.24145 21.04102,52.91992 1.76969,2.33949 -1.41602,7.07151 2.90625,7.54297 8.28424,-0.82412 15.57109,-6.62179 24.26172,-5.4707 4.29258,0.14211 10.84636,0.87733 13.12305,3.90039 -4.29233,2.40359 0.73519,7.01538 2.875,9.07617 1.68401,2.592 7.51785,5.83593 3.77929,9.10938 -4.34453,5.88253 -9.76532,13.09076 -18.05859,11.96484 -22.73706,1.66707 -42.70713,-13.3266 -56.1836,-30.26758 -12.45631,-16.93115 -22.98476,-36.83545 -23.64843,-58.19726 -0.13769,-6.32414 1.68286,-14.42866 9.82812,-13.67774 0.54903,-0.0397 1.09881,-0.0585 1.64844,-0.0566 z m 140.4668,2.73633 c 17.18355,-0.0151 27.80394,21.82098 18.53125,35.83203 -8.83229,15.97308 -36.18728,14.87261 -42.85742,-2.41797 -5.2058,-12.41881 0.77238,-30.84008 15.58593,-32.57617 2.87228,-0.57135 5.80668,-0.94281 8.74024,-0.83789 z m 168.80859,8.12109 c 0.34507,-0.0189 0.69064,-0.0227 1.03711,0 9.59883,0.47585 13.02465,11.74946 10.13086,19.62305 -6.47879,24.96389 -18.46336,49.82675 -39.68359,65.53711 -12.82273,10.1884 -29.69023,17.12382 -46.23829,13.3418 -5.282,-3.36745 -10.97609,-8.65101 -11.58789,-15.19727 4e-5,-5.82146 8.91021,-7.02557 8.31055,-12.62891 -3.2575,-2.26571 3.26004,-4.40152 5.20117,-5.11328 9.26003,-1.32604 18.19668,1.84151 27.17578,2.88477 4.07426,-0.88857 3.31758,-6.52712 5.94922,-9.14649 9.22617,-15.98895 18.49133,-32.41894 23.32617,-50.33398 2.37287,-4.81213 8.58803,-6.55785 13.32227,-8.4043 0.99723,-0.2725 2.02203,-0.50168 3.05664,-0.5625 z m -326.66016,18.47852 c 0.65886,2.19594 1.31772,4.39191 1.97657,6.58789 6.26404,20.82425 18.43637,39.47406 33.7539,54.76758 3.06946,2.93752 -1.29525,7.16977 -3.19531,9.04101 -5.37276,-1.98361 -9.97722,-7.73164 -15.98437,-7.33789 -3.58672,3.24998 2.70387,6.38133 4.89843,8.14649 14.62444,8.11517 21.43177,25.95357 17.89649,42.06445 -2.11968,9.90954 -5.96973,20.91284 -14.51367,26.94726 -7.40566,0.25701 -15.87953,-0.78378 -22.18555,4.13868 -1.87849,4.92208 5.02632,2.81143 7.51562,2.34375 12.56004,0.56061 25.23174,4.33755 35.64453,11.42383 9.3806,7.34043 8.6592,20.98343 6.625,31.49218 -1.13265,3.29859 -6.39062,4.49539 -9.12109,2.94336 -2.07467,-2.70221 -0.54968,-10.37841 -5.48047,-9.02734 -2.51915,3.61387 0.13516,10.93365 -5.57812,12.58398 -6.37869,1.99212 -11.75523,-4.26906 -17.07617,-6.83789 -12.67251,-7.79599 -23.44918,-18.23457 -35.28711,-27.21679 -8.83533,-4.75998 -19.29678,-0.0835 -28.58594,-3.4375 -13.45039,-3.498 -26.60779,-12.70706 -29.99024,-26.87696 -5.64176,-20.41848 -5.80698,-45.05017 8.82227,-61.75976 14.92823,-17.64484 35.64926,-29.0457 51.14453,-46.16602 6.92607,-7.32896 14.16412,-14.71089 18.7207,-23.82031 z m 343.76172,10.41211 c 1.65302,3.13217 3.30597,6.26431 4.95899,9.39648 8.34232,16.67195 23.59704,28.07857 35.83398,41.54688 -3.51417,-0.54282 -5.46083,4.66189 -1.22851,4.87695 10.60671,-0.73943 17.25874,9.27095 23.80273,15.97852 12.71966,13.83103 17.60835,33.67728 13.46875,51.77343 0.35906,6.17738 -7.9561,2.04295 -11.98047,3.05469 -9.73462,-0.47512 -19.87034,3.61998 -26.22656,10.96484 -0.76154,4.8423 5.73305,2.83668 8.125,1.58399 9.25315,-4.63287 20.82073,-8.00901 30.28516,-2.02149 8.01943,4.40383 16.09851,12.15217 19.50585,19.82813 -5.16014,-1.12524 -2.56336,6.14458 -2.52148,8.91406 0.89212,4.08718 0.64799,10.53118 -5.18945,10.0293 -2.82444,-0.34999 -9.73302,2.23985 -8.70703,-3.13086 -0.21393,-5.24568 0.10546,-10.54515 -1.52344,-15.61524 -3.7146,5.04753 -3.43621,11.94358 -6.96289,16.9668 -6.27852,1.89271 -12.83452,0.70013 -18.58008,-2.36719 -12.86237,-7.17063 -24.98969,-16.45118 -39.32813,-20.93359 -11.59297,-4.23163 -25.9461,-2.95231 -34.54101,-13.35156 -12.70768,-15.0858 -8.51258,-37.07834 -0.81641,-53.48633 5.57651,-10.55361 11.64624,-24.05613 4.61719,-35.42187 -6.03239,-5.27619 -0.36964,-10.38109 2.73438,-15.52344 6.27072,-10.29056 10.74396,-21.56956 14.27343,-33.0625 z m -127.52343,5.66015 c -10.90625,-0.27288 -19.16244,12.93699 -13.35743,22.41211 4.86921,9.50234 19.54476,10.65522 25.69141,1.83399 3.59758,-4.06519 6.64364,-10.27287 2.51953,-15.11524 -3.3374,-4.77679 -8.75185,-9.197 -14.85351,-9.13086 z m 0.45117,8.0625 c 0.43597,-0.0151 0.86618,-0.0151 1.28125,0.008 8.6457,-0.0858 8.49597,14.47112 -0.0859,14.23437 -5.60561,1.01567 -11.0411,-4.24109 -8.625,-9.92187 1.00679,-3.15765 4.37795,-4.20732 7.42969,-4.31836 z m 188.02929,10.89258 c 0.23169,-0.003 0.46451,0.004 0.69922,0.0195 4.64463,0.72889 9.93115,2.22548 11.92383,6.9336 4.92148,4.23352 12.93718,4.19589 15.39649,11.29101 5.74915,12.79042 5.44847,27.40874 4.3125,41.08008 -1.41177,5.69601 -7.24056,9.66112 -7.07422,15.94141 -0.39621,2.24084 -0.7564,-2.62847 -1.25,-3.41797 -2.87331,-12.92081 -9.95168,-24.43177 -19.50977,-33.49024 -7.82215,-8.94115 -18.13391,-16.06746 -24.07812,-26.47851 -0.6785,-5.01162 6.77817,-6.09222 9.89257,-8.46289 3.07431,-1.40493 6.21298,-3.36928 9.6875,-3.41407 z m -528.765621,19.13281 3.556641,2.16797 c 7.821838,5.08933 18.156232,5.54049 26.341797,1.07422 7.607833,-1.48664 15.685123,-2.07483 23.195313,-0.40039 -5.9771,9.98071 -14.9542,18.91825 -16.77734,30.95117 -2.2465,15.28332 -2.88797,31.3416 1.36718,46.30078 -8.036082,-4.71575 -14.332605,-11.85334 -22.56445,-16.33593 -4.162167,-2.47922 -1.760211,-7.71383 -4.388672,-11.22071 -9.229247,-15.49013 -11.104419,-34.60786 -10.730469,-52.53711 z m 441.828121,5.29883 c 0.63217,0.90168 1.26432,1.80336 1.89649,2.70508 6.40267,8.64854 -1.02848,18.92052 -4.14258,27.30469 -7.60244,17.83627 -13.08331,39.70578 -2.91211,57.68554 1.97745,4.1161 6.99762,8.2703 8.55664,10.79102 -17.50257,-1.39616 -35.80975,-8.05682 -47.72656,-21.54297 -9.51043,-13.00641 -17.17772,-30.57576 -11.27734,-46.5957 5.21846,-1.18005 11.05434,-0.99506 16.10156,-3.50977 15.02759,-5.76347 28.34149,-15.32099 39.5039,-26.83789 z m -167.60156,3.63477 c -9.92807,-0.15572 -18.20152,10.57559 -14.49609,20.04297 2.3305,8.10444 11.89459,12.2873 19.53125,8.90625 8.51387,-2.38141 14.26183,-12.97068 8.99023,-20.83985 -2.85179,-4.85427 -8.31447,-8.29699 -14.02539,-8.10937 z M 236.625,790.24219 c 9.09531,2.71173 17.29803,7.85818 25.90234,11.79883 -6.95738,10.56356 -18.98354,9.10965 -13.46679,20.79882 6.34472,-2.09898 13.39703,-2.55383 19.9414,-2.74414 8.17942,0.16744 18.47422,0.66261 22.33594,9.36524 2.73596,2.378 2.05213,9.58509 -2.41797,7.82617 -1.45024,-3.70394 -6.26909,-2.34014 -6.62304,1.29297 -0.95482,5.78404 -7.75393,2.97285 -11.66797,4.26953 -10.85779,0.55491 -21.59827,-0.3099 -32.45703,-0.81836 4.89053,-15.74277 0.37857,-31.95622 -5.60743,-46.125 -1.2112,-2.50363 1.62316,-5.69819 4.06055,-5.66406 z m 104.63086,1.05664 c 0.34995,-0.0151 0.69951,-0.011 1.04492,0.0117 7.26449,-0.26003 10.7787,11.56636 2.80469,13.45703 -6.28932,3.03156 -13.76638,-3.69571 -10.00586,-10.03125 1.23559,-2.19046 3.70661,-3.31958 6.15625,-3.4375 z m 99.32617,17.20703 c 6.47471,-0.34734 4.18804,7.7895 4.77149,11.69141 -0.33109,8.98446 1.18214,19.51206 4.44531,26.95898 -0.0315,-0.0265 -0.0604,-0.0555 -0.0918,-0.082 l 2.16797,4.03906 c 2.92407,6.21324 9.20599,11.09918 11.77539,16.83594 -19.19146,5.31307 -38.16913,11.53605 -57.80469,14.51367 -3.63583,0.98891 -6.01773,-2.18978 -5.28125,-5.65625 1.665,-22.16693 -5.27869,-7.5205 -3.89648,-10.99805 3.13901,-6.97825 8.57547,-14.10703 16.33594,-17.14453 1.21058,-0.25663 2.45168,-0.31464 3.68554,-0.33203 9.87946,0.44274 20.0562,1.08823 29.81641,2.15235 -3.35667,-3.85393 -10.47443,-19.18201 -9.27539,-33.92774 0.48744,-2.34285 -0.32996,-7.9911 3.35156,-8.05078 z"
       style="fill:#000000;stroke-width:2.02976203" />
  </g>
</svg>
